<svg xmlns="http://www.w3.org/2000/svg" width="1920" height="1080"><path d="M1980,1260L2100,1260L2100,1140Z" fill="#152670" stroke="#152670" stroke-width="1.51"/><path d="M1980,1140L1980,1260L2100,1140Z" fill="#1a2a7b" stroke="#1a2a7b" stroke-width="1.51"/><path d="M1980,1140L2100,1140L2100,1020Z" fill="#1c2f81" stroke="#1c2f81" stroke-width="1.51"/><path d="M1980,1020L1980,1140L2100,1020Z" fill="#1e3587" stroke="#1e3587" stroke-width="1.51"/><path d="M1980,1020L2100,1020L2100,900Z" fill="#1c3b87" stroke="#1c3b87" stroke-width="1.51"/><path d="M1980,900L1980,1020L2100,900Z" fill="#1e428d" stroke="#1e428d" stroke-width="1.51"/><path d="M1980,900L2100,900L2100,780Z" fill="#1e498d" stroke="#1e498d" stroke-width="1.51"/><path d="M1980,780L1980,900L2100,780Z" fill="#215094" stroke="#215094" stroke-width="1.51"/><path d="M1980,780L2100,780L2100,660Z" fill="#215894" stroke="#215894" stroke-width="1.51"/><path d="M1980,660L1980,780L2100,660Z" fill="#275e99" stroke="#275e99" stroke-width="1.51"/><path d="M1980,660L2100,660L2100,540Z" fill="#2d6396" stroke="#2d6396" stroke-width="1.51"/><path d="M1980,540L1980,660L2100,540Z" fill="#32689b" stroke="#32689b" stroke-width="1.51"/><path d="M1980,540L2100,540L2100,420Z" fill="#3b6c96" stroke="#3b6c96" stroke-width="1.51"/><path d="M1980,420L1980,540L2100,420Z" fill="#44709a" stroke="#44709a" stroke-width="1.51"/><path d="M1980,420L2100,420L2100,300Z" fill="#4d7294" stroke="#4d7294" stroke-width="1.51"/><path d="M1980,300L1980,420L2100,300Z" fill="#557798" stroke="#557798" stroke-width="1.51"/><path d="M1980,300L2100,300L2100,180Z" fill="#637992" stroke="#637992" stroke-width="1.51"/><path d="M1980,180L1980,300L2100,180Z" fill="#6d7e96" stroke="#6d7e96" stroke-width="1.51"/><path d="M1980,180L2100,180L2100,60Z" fill="#778091" stroke="#778091" stroke-width="1.51"/><path d="M1980,60L1980,180L2100,60Z" fill="#7e8495" stroke="#7e8495" stroke-width="1.51"/><path d="M1980,60L2100,60L2100,-60Z" fill="#838491" stroke="#838491" stroke-width="1.51"/><path d="M1980,-60L1980,60L2100,-60Z" fill="#8a8895" stroke="#8a8895" stroke-width="1.51"/><path d="M1980,-60L2100,-60L2100,-180Z" fill="#8b8795" stroke="#8b8795" stroke-width="1.51"/><path d="M1980,-180L1980,-60L2100,-180Z" fill="#8f8a9e" stroke="#8f8a9e" stroke-width="1.51"/><path d="M1860,1260L1980,1260L1980,1140Z" fill="#1a2b7c" stroke="#1a2b7c" stroke-width="1.51"/><path d="M1860,1140L1860,1260L1980,1140Z" fill="#1f2f87" stroke="#1f2f87" stroke-width="1.51"/><path d="M1860,1140L1980,1140L1980,1020Z" fill="#22348d" stroke="#22348d" stroke-width="1.51"/><path d="M1860,1020L1860,1140L1980,1020Z" fill="#243993" stroke="#243993" stroke-width="1.51"/><path d="M1860,1020L1980,1020L1980,900Z" fill="#224093" stroke="#224093" stroke-width="1.51"/><path d="M1860,900L1860,1020L1980,900Z" fill="#244799" stroke="#244799" stroke-width="1.51"/><path d="M1860,900L1980,900L1980,780Z" fill="#244f9a" stroke="#244f9a" stroke-width="1.51"/><path d="M1860,780L1860,900L1980,780Z" fill="#2855a1" stroke="#2855a1" stroke-width="1.51"/><path d="M1860,780L1980,780L1980,660Z" fill="#275ea1" stroke="#275ea1" stroke-width="1.51"/><path d="M1860,660L1860,780L1980,660Z" fill="#2d64a7" stroke="#2d64a7" stroke-width="1.51"/><path d="M1860,660L1980,660L1980,540Z" fill="#3369a3" stroke="#3369a3" stroke-width="1.51"/><path d="M1860,540L1860,660L1980,540Z" fill="#396ea8" stroke="#396ea8" stroke-width="1.51"/><path d="M1860,540L1980,540L1980,420Z" fill="#4172a3" stroke="#4172a3" stroke-width="1.51"/><path d="M1860,420L1860,540L1980,420Z" fill="#4a76a7" stroke="#4a76a7" stroke-width="1.51"/><path d="M1860,420L1980,420L1980,300Z" fill="#5478a1" stroke="#5478a1" stroke-width="1.51"/><path d="M1860,300L1860,420L1980,300Z" fill="#5c7ca5" stroke="#5c7ca5" stroke-width="1.51"/><path d="M1860,300L1980,300L1980,180Z" fill="#6a7f9f" stroke="#6a7f9f" stroke-width="1.51"/><path d="M1860,180L1860,300L1980,180Z" fill="#7483a4" stroke="#7483a4" stroke-width="1.51"/><path d="M1860,180L1980,180L1980,60Z" fill="#7f869e" stroke="#7f869e" stroke-width="1.51"/><path d="M1860,60L1860,180L1980,60Z" fill="#8689a2" stroke="#8689a2" stroke-width="1.51"/><path d="M1860,60L1980,60L1980,-60Z" fill="#8b8a9d" stroke="#8b8a9d" stroke-width="1.51"/><path d="M1860,-60L1860,60L1980,-60Z" fill="#928da2" stroke="#928da2" stroke-width="1.51"/><path d="M1860,-60L1980,-60L1980,-180Z" fill="#938da2" stroke="#938da2" stroke-width="1.51"/><path d="M1860,-180L1860,-60L1980,-180Z" fill="#978fab" stroke="#978fab" stroke-width="1.51"/><path d="M1740,1260L1860,1260L1860,1140Z" fill="#1e3186" stroke="#1e3186" stroke-width="1.51"/><path d="M1740,1140L1740,1260L1860,1140Z" fill="#22368e" stroke="#22368e" stroke-width="1.51"/><path d="M1740,1140L1860,1140L1860,1020Z" fill="#263a97" stroke="#263a97" stroke-width="1.51"/><path d="M1740,1020L1740,1140L1860,1020Z" fill="#26419a" stroke="#26419a" stroke-width="1.51"/><path d="M1740,1020L1860,1020L1860,900Z" fill="#26479d" stroke="#26479d" stroke-width="1.51"/><path d="M1740,900L1740,1020L1860,900Z" fill="#264ea0" stroke="#264ea0" stroke-width="1.51"/><path d="M1740,900L1860,900L1860,780Z" fill="#2855a4" stroke="#2855a4" stroke-width="1.51"/><path d="M1740,780L1740,900L1860,780Z" fill="#295ca8" stroke="#295ca8" stroke-width="1.51"/><path d="M1740,780L1860,780L1860,660Z" fill="#2b65ab" stroke="#2b65ab" stroke-width="1.51"/><path d="M1740,660L1740,780L1860,660Z" fill="#2e6bad" stroke="#2e6bad" stroke-width="1.51"/><path d="M1740,660L1860,660L1860,540Z" fill="#3770ad" stroke="#3770ad" stroke-width="1.51"/><path d="M1740,540L1740,660L1860,540Z" fill="#3a75ae" stroke="#3a75ae" stroke-width="1.51"/><path d="M1740,540L1860,540L1860,420Z" fill="#4679ad" stroke="#4679ad" stroke-width="1.51"/><path d="M1740,420L1740,540L1860,420Z" fill="#4c7dad" stroke="#4c7dad" stroke-width="1.51"/><path d="M1740,420L1860,420L1860,300Z" fill="#597fab" stroke="#597fab" stroke-width="1.51"/><path d="M1740,300L1740,420L1860,300Z" fill="#5e84ab" stroke="#5e84ab" stroke-width="1.51"/><path d="M1740,300L1860,300L1860,180Z" fill="#6f86a9" stroke="#6f86a9" stroke-width="1.51"/><path d="M1740,180L1740,300L1860,180Z" fill="#778baa" stroke="#778baa" stroke-width="1.51"/><path d="M1740,180L1860,180L1860,60Z" fill="#858da8" stroke="#858da8" stroke-width="1.51"/><path d="M1740,60L1740,180L1860,60Z" fill="#8991a9" stroke="#8991a9" stroke-width="1.51"/><path d="M1740,60L1860,60L1860,-60Z" fill="#9191a8" stroke="#9191a8" stroke-width="1.51"/><path d="M1740,-60L1740,60L1860,-60Z" fill="#9595a8" stroke="#9595a8" stroke-width="1.51"/><path d="M1740,-60L1860,-60L1860,-180Z" fill="#9994ad" stroke="#9994ad" stroke-width="1.51"/><path d="M1740,-180L1740,-60L1860,-180Z" fill="#9a97b2" stroke="#9a97b2" stroke-width="1.51"/><path d="M1620,1260L1740,1260L1740,1140Z" fill="#1f3a8a" stroke="#1f3a8a" stroke-width="1.51"/><path d="M1620,1140L1620,1260L1740,1140Z" fill="#223e92" stroke="#223e92" stroke-width="1.51"/><path d="M1620,1140L1740,1140L1740,1020Z" fill="#26439b" stroke="#26439b" stroke-width="1.51"/><path d="M1620,1020L1620,1140L1740,1020Z" fill="#26499e" stroke="#26499e" stroke-width="1.51"/><path d="M1620,1020L1740,1020L1740,900Z" fill="#264fa1" stroke="#264fa1" stroke-width="1.51"/><path d="M1620,900L1620,1020L1740,900Z" fill="#2456a4" stroke="#2456a4" stroke-width="1.51"/><path d="M1620,900L1740,900L1740,780Z" fill="#265da8" stroke="#265da8" stroke-width="1.51"/><path d="M1620,780L1620,900L1740,780Z" fill="#2665ac" stroke="#2665ac" stroke-width="1.51"/><path d="M1620,780L1740,780L1740,660Z" fill="#286daf" stroke="#286daf" stroke-width="1.51"/><path d="M1620,660L1620,780L1740,660Z" fill="#2b73b1" stroke="#2b73b1" stroke-width="1.51"/><path d="M1620,660L1740,660L1740,540Z" fill="#3578b1" stroke="#3578b1" stroke-width="1.51"/><path d="M1620,540L1620,660L1740,540Z" fill="#377eb2" stroke="#377eb2" stroke-width="1.51"/><path d="M1620,540L1740,540L1740,420Z" fill="#4382b1" stroke="#4382b1" stroke-width="1.51"/><path d="M1620,420L1620,540L1740,420Z" fill="#4a86b1" stroke="#4a86b1" stroke-width="1.51"/><path d="M1620,420L1740,420L1740,300Z" fill="#5788af" stroke="#5788af" stroke-width="1.51"/><path d="M1620,300L1620,420L1740,300Z" fill="#5d8daf" stroke="#5d8daf" stroke-width="1.51"/><path d="M1620,300L1740,300L1740,180Z" fill="#6f8fad" stroke="#6f8fad" stroke-width="1.51"/><path d="M1620,180L1620,300L1740,180Z" fill="#7694ae" stroke="#7694ae" stroke-width="1.51"/><path d="M1620,180L1740,180L1740,60Z" fill="#8596ac" stroke="#8596ac" stroke-width="1.51"/><path d="M1620,60L1620,180L1740,60Z" fill="#899aac" stroke="#899aac" stroke-width="1.51"/><path d="M1620,60L1740,60L1740,-60Z" fill="#929aab" stroke="#929aab" stroke-width="1.51"/><path d="M1620,-60L1620,60L1740,-60Z" fill="#959eac" stroke="#959eac" stroke-width="1.51"/><path d="M1620,-60L1740,-60L1740,-180Z" fill="#9a9db0" stroke="#9a9db0" stroke-width="1.51"/><path d="M1620,-180L1620,-60L1740,-180Z" fill="#9ba1b5" stroke="#9ba1b5" stroke-width="1.51"/><path d="M1500,1260L1620,1260L1620,1140Z" fill="#1e428e" stroke="#1e428e" stroke-width="1.51"/><path d="M1500,1140L1500,1260L1620,1140Z" fill="#224796" stroke="#224796" stroke-width="1.51"/><path d="M1500,1140L1620,1140L1620,1020Z" fill="#264b9f" stroke="#264b9f" stroke-width="1.51"/><path d="M1500,1020L1500,1140L1620,1020Z" fill="#2552a3" stroke="#2552a3" stroke-width="1.51"/><path d="M1500,1020L1620,1020L1620,900Z" fill="#2457a5" stroke="#2457a5" stroke-width="1.51"/><path d="M1500,900L1500,1020L1620,900Z" fill="#235ea8" stroke="#235ea8" stroke-width="1.51"/><path d="M1500,900L1620,900L1620,780Z" fill="#2465ac" stroke="#2465ac" stroke-width="1.51"/><path d="M1500,780L1500,900L1620,780Z" fill="#236db0" stroke="#236db0" stroke-width="1.51"/><path d="M1500,780L1620,780L1620,660Z" fill="#2475b3" stroke="#2475b3" stroke-width="1.51"/><path d="M1500,660L1500,780L1620,660Z" fill="#277cb6" stroke="#277cb6" stroke-width="1.51"/><path d="M1500,660L1620,660L1620,540Z" fill="#3180b5" stroke="#3180b5" stroke-width="1.51"/><path d="M1500,540L1500,660L1620,540Z" fill="#3487b7" stroke="#3487b7" stroke-width="1.51"/><path d="M1500,540L1620,540L1620,420Z" fill="#418ab5" stroke="#418ab5" stroke-width="1.51"/><path d="M1500,420L1500,540L1620,420Z" fill="#488fb6" stroke="#488fb6" stroke-width="1.51"/><path d="M1500,420L1620,420L1620,300Z" fill="#5690b3" stroke="#5690b3" stroke-width="1.51"/><path d="M1500,300L1500,420L1620,300Z" fill="#5c96b3" stroke="#5c96b3" stroke-width="1.51"/><path d="M1500,300L1620,300L1620,180Z" fill="#6e97b1" stroke="#6e97b1" stroke-width="1.51"/><path d="M1500,180L1500,300L1620,180Z" fill="#769db2" stroke="#769db2" stroke-width="1.51"/><path d="M1500,180L1620,180L1620,60Z" fill="#859fb0" stroke="#859fb0" stroke-width="1.51"/><path d="M1500,60L1500,180L1620,60Z" fill="#89a4b1" stroke="#89a4b1" stroke-width="1.51"/><path d="M1500,60L1620,60L1620,-60Z" fill="#92a3af" stroke="#92a3af" stroke-width="1.51"/><path d="M1500,-60L1500,60L1620,-60Z" fill="#96a8b0" stroke="#96a8b0" stroke-width="1.51"/><path d="M1500,-60L1620,-60L1620,-180Z" fill="#9aa6b4" stroke="#9aa6b4" stroke-width="1.51"/><path d="M1500,-180L1500,-60L1620,-180Z" fill="#9caaba" stroke="#9caaba" stroke-width="1.51"/><path d="M1380,1260L1500,1260L1500,1140Z" fill="#204b93" stroke="#204b93" stroke-width="1.51"/><path d="M1380,1140L1380,1260L1500,1140Z" fill="#25519b" stroke="#25519b" stroke-width="1.51"/><path d="M1380,1140L1500,1140L1500,1020Z" fill="#2855a4" stroke="#2855a4" stroke-width="1.51"/><path d="M1380,1020L1380,1140L1500,1020Z" fill="#285ca7" stroke="#285ca7" stroke-width="1.51"/><path d="M1380,1020L1500,1020L1500,900Z" fill="#2561aa" stroke="#2561aa" stroke-width="1.51"/><path d="M1380,900L1380,1020L1500,900Z" fill="#2469ad" stroke="#2469ad" stroke-width="1.51"/><path d="M1380,900L1500,900L1500,780Z" fill="#236fb0" stroke="#236fb0" stroke-width="1.51"/><path d="M1380,780L1380,900L1500,780Z" fill="#2378b4" stroke="#2378b4" stroke-width="1.51"/><path d="M1380,780L1500,780L1500,660Z" fill="#227fb8" stroke="#227fb8" stroke-width="1.51"/><path d="M1380,660L1380,780L1500,660Z" fill="#2687ba" stroke="#2687ba" stroke-width="1.51"/><path d="M1380,660L1500,660L1500,540Z" fill="#2f8bb9" stroke="#2f8bb9" stroke-width="1.51"/><path d="M1380,540L1380,660L1500,540Z" fill="#3392bb" stroke="#3392bb" stroke-width="1.51"/><path d="M1380,540L1500,540L1500,420Z" fill="#3f94b9" stroke="#3f94b9" stroke-width="1.51"/><path d="M1380,420L1380,540L1500,420Z" fill="#479aba" stroke="#479aba" stroke-width="1.51"/><path d="M1380,420L1500,420L1500,300Z" fill="#559bb7" stroke="#559bb7" stroke-width="1.51"/><path d="M1380,300L1380,420L1500,300Z" fill="#5ca1b8" stroke="#5ca1b8" stroke-width="1.51"/><path d="M1380,300L1500,300L1500,180Z" fill="#6fa2b5" stroke="#6fa2b5" stroke-width="1.51"/><path d="M1380,180L1380,300L1500,180Z" fill="#77a9b6" stroke="#77a9b6" stroke-width="1.51"/><path d="M1380,180L1500,180L1500,60Z" fill="#86aab4" stroke="#86aab4" stroke-width="1.51"/><path d="M1380,60L1380,180L1500,60Z" fill="#8bafb5" stroke="#8bafb5" stroke-width="1.51"/><path d="M1380,60L1500,60L1500,-60Z" fill="#93aeb3" stroke="#93aeb3" stroke-width="1.51"/><path d="M1380,-60L1380,60L1500,-60Z" fill="#98b3b4" stroke="#98b3b4" stroke-width="1.51"/><path d="M1380,-60L1500,-60L1500,-180Z" fill="#9cb1b8" stroke="#9cb1b8" stroke-width="1.51"/><path d="M1380,-180L1380,-60L1500,-180Z" fill="#9eb6be" stroke="#9eb6be" stroke-width="1.51"/><path d="M1260,1260L1380,1260L1380,1140Z" fill="#225598" stroke="#225598" stroke-width="1.51"/><path d="M1260,1140L1260,1260L1380,1140Z" fill="#275ba0" stroke="#275ba0" stroke-width="1.51"/><path d="M1260,1140L1380,1140L1380,1020Z" fill="#2a5ea9" stroke="#2a5ea9" stroke-width="1.51"/><path d="M1260,1020L1260,1140L1380,1020Z" fill="#2a66ac" stroke="#2a66ac" stroke-width="1.51"/><path d="M1260,1020L1380,1020L1380,900Z" fill="#266baf" stroke="#266baf" stroke-width="1.51"/><path d="M1260,900L1260,1020L1380,900Z" fill="#2473b2" stroke="#2473b2" stroke-width="1.51"/><path d="M1260,900L1380,900L1380,780Z" fill="#2279b6" stroke="#2279b6" stroke-width="1.51"/><path d="M1260,780L1260,900L1380,780Z" fill="#2282ba" stroke="#2282ba" stroke-width="1.51"/><path d="M1260,780L1380,780L1380,660Z" fill="#2089bd" stroke="#2089bd" stroke-width="1.51"/><path d="M1260,660L1260,780L1380,660Z" fill="#2391bf" stroke="#2391bf" stroke-width="1.51"/><path d="M1260,660L1380,660L1380,540Z" fill="#2d95be" stroke="#2d95be" stroke-width="1.51"/><path d="M1260,540L1260,660L1380,540Z" fill="#319cc0" stroke="#319cc0" stroke-width="1.51"/><path d="M1260,540L1380,540L1380,420Z" fill="#3e9fbe" stroke="#3e9fbe" stroke-width="1.51"/><path d="M1260,420L1260,540L1380,420Z" fill="#46a4bf" stroke="#46a4bf" stroke-width="1.51"/><path d="M1260,420L1380,420L1380,300Z" fill="#55a5bc" stroke="#55a5bc" stroke-width="1.51"/><path d="M1260,300L1260,420L1380,300Z" fill="#5cabbd" stroke="#5cabbd" stroke-width="1.51"/><path d="M1260,300L1380,300L1380,180Z" fill="#70adba" stroke="#70adba" stroke-width="1.51"/><path d="M1260,180L1260,300L1380,180Z" fill="#78b3bb" stroke="#78b3bb" stroke-width="1.51"/><path d="M1260,180L1380,180L1380,60Z" fill="#87b5b9" stroke="#87b5b9" stroke-width="1.51"/><path d="M1260,60L1260,180L1380,60Z" fill="#8cbaba" stroke="#8cbaba" stroke-width="1.51"/><path d="M1260,60L1380,60L1380,-60Z" fill="#95b9b8" stroke="#95b9b8" stroke-width="1.51"/><path d="M1260,-60L1260,60L1380,-60Z" fill="#9abeb9" stroke="#9abeb9" stroke-width="1.51"/><path d="M1260,-60L1380,-60L1380,-180Z" fill="#9ebcbd" stroke="#9ebcbd" stroke-width="1.51"/><path d="M1260,-180L1260,-60L1380,-180Z" fill="#a0c1c2" stroke="#a0c1c2" stroke-width="1.51"/><path d="M1140,1260L1260,1260L1260,1140Z" fill="#265e9b" stroke="#265e9b" stroke-width="1.51"/><path d="M1140,1140L1140,1260L1260,1140Z" fill="#2d63a2" stroke="#2d63a2" stroke-width="1.51"/><path d="M1140,1140L1260,1140L1260,1020Z" fill="#2e68ac" stroke="#2e68ac" stroke-width="1.51"/><path d="M1140,1020L1140,1140L1260,1020Z" fill="#306eae" stroke="#306eae" stroke-width="1.51"/><path d="M1140,1020L1260,1020L1260,900Z" fill="#2a74b2" stroke="#2a74b2" stroke-width="1.51"/><path d="M1140,900L1140,1020L1260,900Z" fill="#2a7bb4" stroke="#2a7bb4" stroke-width="1.51"/><path d="M1140,900L1260,900L1260,780Z" fill="#2583b9" stroke="#2583b9" stroke-width="1.51"/><path d="M1140,780L1140,900L1260,780Z" fill="#288abc" stroke="#288abc" stroke-width="1.51"/><path d="M1140,780L1260,780L1260,660Z" fill="#2193c0" stroke="#2193c0" stroke-width="1.51"/><path d="M1140,660L1140,780L1260,660Z" fill="#2899c1" stroke="#2899c1" stroke-width="1.51"/><path d="M1140,660L1260,660L1260,540Z" fill="#2e9ec2" stroke="#2e9ec2" stroke-width="1.51"/><path d="M1140,540L1140,660L1260,540Z" fill="#34a4c2" stroke="#34a4c2" stroke-width="1.51"/><path d="M1140,540L1260,540L1260,420Z" fill="#3fa8c2" stroke="#3fa8c2" stroke-width="1.51"/><path d="M1140,420L1140,540L1260,420Z" fill="#49adc1" stroke="#49adc1" stroke-width="1.51"/><path d="M1140,420L1260,420L1260,300Z" fill="#56afbf" stroke="#56afbf" stroke-width="1.51"/><path d="M1140,300L1140,420L1260,300Z" fill="#5fb4be" stroke="#5fb4be" stroke-width="1.51"/><path d="M1140,300L1260,300L1260,180Z" fill="#71b7bd" stroke="#71b7bd" stroke-width="1.51"/><path d="M1140,180L1140,300L1260,180Z" fill="#7bbcbd" stroke="#7bbcbd" stroke-width="1.51"/><path d="M1140,180L1260,180L1260,60Z" fill="#89bfbc" stroke="#89bfbc" stroke-width="1.51"/><path d="M1140,60L1140,180L1260,60Z" fill="#8fc3bb" stroke="#8fc3bb" stroke-width="1.51"/><path d="M1140,60L1260,60L1260,-60Z" fill="#97c3bb" stroke="#97c3bb" stroke-width="1.51"/><path d="M1140,-60L1140,60L1260,-60Z" fill="#9cc7bb" stroke="#9cc7bb" stroke-width="1.51"/><path d="M1140,-60L1260,-60L1260,-180Z" fill="#a0c7c0" stroke="#a0c7c0" stroke-width="1.51"/><path d="M1140,-180L1140,-60L1260,-180Z" fill="#a3cac4" stroke="#a3cac4" stroke-width="1.51"/><path d="M1020,1260L1140,1260L1140,1140Z" fill="#2f659c" stroke="#2f659c" stroke-width="1.51"/><path d="M1020,1140L1020,1260L1140,1140Z" fill="#3469a3" stroke="#3469a3" stroke-width="1.51"/><path d="M1020,1140L1140,1140L1140,1020Z" fill="#366fad" stroke="#366fad" stroke-width="1.51"/><path d="M1020,1020L1020,1140L1140,1020Z" fill="#3775af" stroke="#3775af" stroke-width="1.51"/><path d="M1020,1020L1140,1020L1140,900Z" fill="#327bb3" stroke="#327bb3" stroke-width="1.51"/><path d="M1020,900L1020,1020L1140,900Z" fill="#3282b5" stroke="#3282b5" stroke-width="1.51"/><path d="M1020,900L1140,900L1140,780Z" fill="#2e8aba" stroke="#2e8aba" stroke-width="1.51"/><path d="M1020,780L1020,900L1140,780Z" fill="#3091bd" stroke="#3091bd" stroke-width="1.51"/><path d="M1020,780L1140,780L1140,660Z" fill="#2b9ac1" stroke="#2b9ac1" stroke-width="1.51"/><path d="M1020,660L1020,780L1140,660Z" fill="#30a0c2" stroke="#30a0c2" stroke-width="1.51"/><path d="M1020,660L1140,660L1140,540Z" fill="#35a6c2" stroke="#35a6c2" stroke-width="1.51"/><path d="M1020,540L1020,660L1140,540Z" fill="#3aabc3" stroke="#3aabc3" stroke-width="1.51"/><path d="M1020,540L1140,540L1140,420Z" fill="#44b0c2" stroke="#44b0c2" stroke-width="1.51"/><path d="M1020,420L1020,540L1140,420Z" fill="#4eb4c2" stroke="#4eb4c2" stroke-width="1.51"/><path d="M1020,420L1140,420L1140,300Z" fill="#5ab7c0" stroke="#5ab7c0" stroke-width="1.51"/><path d="M1020,300L1020,420L1140,300Z" fill="#63bbbf" stroke="#63bbbf" stroke-width="1.51"/><path d="M1020,300L1140,300L1140,180Z" fill="#75bfbd" stroke="#75bfbd" stroke-width="1.51"/><path d="M1020,180L1020,300L1140,180Z" fill="#7ec4be" stroke="#7ec4be" stroke-width="1.51"/><path d="M1020,180L1140,180L1140,60Z" fill="#8dc7bc" stroke="#8dc7bc" stroke-width="1.51"/><path d="M1020,60L1020,180L1140,60Z" fill="#93cabc" stroke="#93cabc" stroke-width="1.51"/><path d="M1020,60L1140,60L1140,-60Z" fill="#9bcbbb" stroke="#9bcbbb" stroke-width="1.51"/><path d="M1020,-60L1020,60L1140,-60Z" fill="#a0cfbb" stroke="#a0cfbb" stroke-width="1.51"/><path d="M1020,-60L1140,-60L1140,-180Z" fill="#a4cfc0" stroke="#a4cfc0" stroke-width="1.51"/><path d="M1020,-180L1020,-60L1140,-180Z" fill="#a6d1c5" stroke="#a6d1c5" stroke-width="1.51"/><path d="M900,1260L1020,1260L1020,1140Z" fill="#356b9d" stroke="#356b9d" stroke-width="1.51"/><path d="M900,1140L900,1260L1020,1140Z" fill="#3d70a3" stroke="#3d70a3" stroke-width="1.51"/><path d="M900,1140L1020,1140L1020,1020Z" fill="#3d75ae" stroke="#3d75ae" stroke-width="1.51"/><path d="M900,1020L900,1140L1020,1020Z" fill="#407cb0" stroke="#407cb0" stroke-width="1.51"/><path d="M900,1020L1020,1020L1020,900Z" fill="#3982b4" stroke="#3982b4" stroke-width="1.51"/><path d="M900,900L900,1020L1020,900Z" fill="#3b89b5" stroke="#3b89b5" stroke-width="1.51"/><path d="M900,900L1020,900L1020,780Z" fill="#3591bb" stroke="#3591bb" stroke-width="1.51"/><path d="M900,780L900,900L1020,780Z" fill="#3998bd" stroke="#3998bd" stroke-width="1.51"/><path d="M900,780L1020,780L1020,660Z" fill="#32a1c2" stroke="#32a1c2" stroke-width="1.51"/><path d="M900,660L900,780L1020,660Z" fill="#39a8c2" stroke="#39a8c2" stroke-width="1.51"/><path d="M900,660L1020,660L1020,540Z" fill="#3badc3" stroke="#3badc3" stroke-width="1.51"/><path d="M900,540L900,660L1020,540Z" fill="#42b3c3" stroke="#42b3c3" stroke-width="1.51"/><path d="M900,540L1020,540L1020,420Z" fill="#49b7c3" stroke="#49b7c3" stroke-width="1.51"/><path d="M900,420L900,540L1020,420Z" fill="#54bbc2" stroke="#54bbc2" stroke-width="1.51"/><path d="M900,420L1020,420L1020,300Z" fill="#5ebec1" stroke="#5ebec1" stroke-width="1.51"/><path d="M900,300L900,420L1020,300Z" fill="#68c3bf" stroke="#68c3bf" stroke-width="1.51"/><path d="M900,300L1020,300L1020,180Z" fill="#78c6be" stroke="#78c6be" stroke-width="1.51"/><path d="M900,180L900,300L1020,180Z" fill="#83cbbd" stroke="#83cbbd" stroke-width="1.51"/><path d="M900,180L1020,180L1020,60Z" fill="#90cebd" stroke="#90cebd" stroke-width="1.51"/><path d="M900,60L900,180L1020,60Z" fill="#97d2bc" stroke="#97d2bc" stroke-width="1.51"/><path d="M900,60L1020,60L1020,-60Z" fill="#9ed3bc" stroke="#9ed3bc" stroke-width="1.51"/><path d="M900,-60L900,60L1020,-60Z" fill="#a4d7bb" stroke="#a4d7bb" stroke-width="1.51"/><path d="M900,-60L1020,-60L1020,-180Z" fill="#a7d6c1" stroke="#a7d6c1" stroke-width="1.51"/><path d="M900,-180L900,-60L1020,-180Z" fill="#abd9c5" stroke="#abd9c5" stroke-width="1.51"/><path d="M780,1260L900,1260L900,1140Z" fill="#42709c" stroke="#42709c" stroke-width="1.51"/><path d="M780,1140L780,1260L900,1140Z" fill="#4a74a2" stroke="#4a74a2" stroke-width="1.51"/><path d="M780,1140L900,1140L900,1020Z" fill="#4a7aad" stroke="#4a7aad" stroke-width="1.51"/><path d="M780,1020L780,1140L900,1020Z" fill="#4d80ae" stroke="#4d80ae" stroke-width="1.51"/><path d="M780,1020L900,1020L900,900Z" fill="#4787b3" stroke="#4787b3" stroke-width="1.51"/><path d="M780,900L780,1020L900,900Z" fill="#4a8db4" stroke="#4a8db4" stroke-width="1.51"/><path d="M780,900L900,900L900,780Z" fill="#4596b9" stroke="#4596b9" stroke-width="1.51"/><path d="M780,780L780,900L900,780Z" fill="#499dbb" stroke="#499dbb" stroke-width="1.51"/><path d="M780,780L900,780L900,660Z" fill="#43a7c0" stroke="#43a7c0" stroke-width="1.51"/><path d="M780,660L780,780L900,660Z" fill="#4aacc1" stroke="#4aacc1" stroke-width="1.51"/><path d="M780,660L900,660L900,540Z" fill="#4ab2c2" stroke="#4ab2c2" stroke-width="1.51"/><path d="M780,540L780,660L900,540Z" fill="#51b7c2" stroke="#51b7c2" stroke-width="1.51"/><path d="M780,540L900,540L900,420Z" fill="#56bcc2" stroke="#56bcc2" stroke-width="1.51"/><path d="M780,420L780,540L900,420Z" fill="#61c0c0" stroke="#61c0c0" stroke-width="1.51"/><path d="M780,420L900,420L900,300Z" fill="#69c3bf" stroke="#69c3bf" stroke-width="1.51"/><path d="M780,300L780,420L900,300Z" fill="#72c7be" stroke="#72c7be" stroke-width="1.51"/><path d="M780,300L900,300L900,180Z" fill="#81cbbd" stroke="#81cbbd" stroke-width="1.51"/><path d="M780,180L780,300L900,180Z" fill="#8cd0bc" stroke="#8cd0bc" stroke-width="1.51"/><path d="M780,180L900,180L900,60Z" fill="#98d4bb" stroke="#98d4bb" stroke-width="1.51"/><path d="M780,60L780,180L900,60Z" fill="#9fd7ba" stroke="#9fd7ba" stroke-width="1.51"/><path d="M780,60L900,60L900,-60Z" fill="#a6d8ba" stroke="#a6d8ba" stroke-width="1.51"/><path d="M780,-60L780,60L900,-60Z" fill="#acdbb9" stroke="#acdbb9" stroke-width="1.51"/><path d="M780,-60L900,-60L900,-180Z" fill="#afdcbf" stroke="#afdcbf" stroke-width="1.51"/><path d="M780,-180L780,-60L900,-180Z" fill="#b3dec3" stroke="#b3dec3" stroke-width="1.51"/><path d="M660,1260L780,1260L780,1140Z" fill="#4e749a" stroke="#4e749a" stroke-width="1.51"/><path d="M660,1140L660,1260L780,1140Z" fill="#5578a0" stroke="#5578a0" stroke-width="1.51"/><path d="M660,1140L780,1140L780,1020Z" fill="#567eab" stroke="#567eab" stroke-width="1.51"/><path d="M660,1020L660,1140L780,1020Z" fill="#5984ad" stroke="#5984ad" stroke-width="1.51"/><path d="M660,1020L780,1020L780,900Z" fill="#548bb1" stroke="#548bb1" stroke-width="1.51"/><path d="M660,900L660,1020L780,900Z" fill="#5791b2" stroke="#5791b2" stroke-width="1.51"/><path d="M660,900L780,900L780,780Z" fill="#539ab8" stroke="#539ab8" stroke-width="1.51"/><path d="M660,780L660,900L780,780Z" fill="#57a1ba" stroke="#57a1ba" stroke-width="1.51"/><path d="M660,780L780,780L780,660Z" fill="#52abbe" stroke="#52abbe" stroke-width="1.51"/><path d="M660,660L660,780L780,660Z" fill="#58b1bf" stroke="#58b1bf" stroke-width="1.51"/><path d="M660,660L780,660L780,540Z" fill="#58b7c0" stroke="#58b7c0" stroke-width="1.51"/><path d="M660,540L660,660L780,540Z" fill="#5ebcc0" stroke="#5ebcc0" stroke-width="1.51"/><path d="M660,540L780,540L780,420Z" fill="#62c1c0" stroke="#62c1c0" stroke-width="1.51"/><path d="M660,420L660,540L780,420Z" fill="#6cc4be" stroke="#6cc4be" stroke-width="1.51"/><path d="M660,420L780,420L780,300Z" fill="#74c8bd" stroke="#74c8bd" stroke-width="1.51"/><path d="M660,300L660,420L780,300Z" fill="#7dccbc" stroke="#7dccbc" stroke-width="1.51"/><path d="M660,300L780,300L780,180Z" fill="#8ad0bb" stroke="#8ad0bb" stroke-width="1.51"/><path d="M660,180L660,300L780,180Z" fill="#95d4ba" stroke="#95d4ba" stroke-width="1.51"/><path d="M660,180L780,180L780,60Z" fill="#a0d8b9" stroke="#a0d8b9" stroke-width="1.51"/><path d="M660,60L660,180L780,60Z" fill="#a8dbb8" stroke="#a8dbb8" stroke-width="1.51"/><path d="M660,60L780,60L780,-60Z" fill="#aeddb8" stroke="#aeddb8" stroke-width="1.51"/><path d="M660,-60L660,60L780,-60Z" fill="#b4e0b7" stroke="#b4e0b7" stroke-width="1.51"/><path d="M660,-60L780,-60L780,-180Z" fill="#b6e0bd" stroke="#b6e0bd" stroke-width="1.51"/><path d="M660,-180L660,-60L780,-180Z" fill="#bbe2c1" stroke="#bbe2c1" stroke-width="1.51"/><path d="M540,1260L660,1260L660,1140Z" fill="#5b7999" stroke="#5b7999" stroke-width="1.51"/><path d="M540,1140L540,1260L660,1140Z" fill="#647c9f" stroke="#647c9f" stroke-width="1.51"/><path d="M540,1140L660,1140L660,1020Z" fill="#6383aa" stroke="#6383aa" stroke-width="1.51"/><path d="M540,1020L540,1140L660,1020Z" fill="#6888ac" stroke="#6888ac" stroke-width="1.51"/><path d="M540,1020L660,1020L660,900Z" fill="#6290b0" stroke="#6290b0" stroke-width="1.51"/><path d="M540,900L540,1020L660,900Z" fill="#6796b1" stroke="#6796b1" stroke-width="1.51"/><path d="M540,900L660,900L660,780Z" fill="#619fb6" stroke="#619fb6" stroke-width="1.51"/><path d="M540,780L540,900L660,780Z" fill="#68a6b8" stroke="#68a6b8" stroke-width="1.51"/><path d="M540,780L660,780L660,660Z" fill="#61b0bd" stroke="#61b0bd" stroke-width="1.51"/><path d="M540,660L540,780L660,660Z" fill="#69b5be" stroke="#69b5be" stroke-width="1.51"/><path d="M540,660L660,660L660,540Z" fill="#67bcbe" stroke="#67bcbe" stroke-width="1.51"/><path d="M540,540L540,660L660,540Z" fill="#6fc1be" stroke="#6fc1be" stroke-width="1.51"/><path d="M540,540L660,540L660,420Z" fill="#71c6be" stroke="#71c6be" stroke-width="1.51"/><path d="M540,420L540,540L660,420Z" fill="#7cc9bd" stroke="#7cc9bd" stroke-width="1.51"/><path d="M540,420L660,420L660,300Z" fill="#80cdbc" stroke="#80cdbc" stroke-width="1.51"/><path d="M540,300L540,420L660,300Z" fill="#8bd1ba" stroke="#8bd1ba" stroke-width="1.51"/><path d="M540,300L660,300L660,180Z" fill="#96d5b9" stroke="#96d5b9" stroke-width="1.51"/><path d="M540,180L540,300L660,180Z" fill="#a2d9b8" stroke="#a2d9b8" stroke-width="1.51"/><path d="M540,180L660,180L660,60Z" fill="#abddb7" stroke="#abddb7" stroke-width="1.51"/><path d="M540,60L540,180L660,60Z" fill="#b4e0b6" stroke="#b4e0b6" stroke-width="1.51"/><path d="M540,60L660,60L660,-60Z" fill="#b8e2b6" stroke="#b8e2b6" stroke-width="1.51"/><path d="M540,-60L540,60L660,-60Z" fill="#c0e5b5" stroke="#c0e5b5" stroke-width="1.51"/><path d="M540,-60L660,-60L660,-180Z" fill="#c1e5bb" stroke="#c1e5bb" stroke-width="1.51"/><path d="M540,-180L540,-60L660,-180Z" fill="#c7e8bf" stroke="#c7e8bf" stroke-width="1.51"/><path d="M420,1260L540,1260L540,1140Z" fill="#697d98" stroke="#697d98" stroke-width="1.51"/><path d="M420,1140L420,1260L540,1140Z" fill="#73829f" stroke="#73829f" stroke-width="1.51"/><path d="M420,1140L540,1140L540,1020Z" fill="#7387a9" stroke="#7387a9" stroke-width="1.51"/><path d="M420,1020L420,1140L540,1020Z" fill="#788dab" stroke="#788dab" stroke-width="1.51"/><path d="M420,1020L540,1020L540,900Z" fill="#7294af" stroke="#7294af" stroke-width="1.51"/><path d="M420,900L420,1020L540,900Z" fill="#779bb1" stroke="#779bb1" stroke-width="1.51"/><path d="M420,900L540,900L540,780Z" fill="#73a4b5" stroke="#73a4b5" stroke-width="1.51"/><path d="M420,780L420,900L540,780Z" fill="#79abb8" stroke="#79abb8" stroke-width="1.51"/><path d="M420,780L540,780L540,660Z" fill="#73b5bc" stroke="#73b5bc" stroke-width="1.51"/><path d="M420,660L420,780L540,660Z" fill="#7bbbbd" stroke="#7bbbbd" stroke-width="1.51"/><path d="M420,660L540,660L540,540Z" fill="#79c1bd" stroke="#79c1bd" stroke-width="1.51"/><path d="M420,540L420,660L540,540Z" fill="#81c7be" stroke="#81c7be" stroke-width="1.51"/><path d="M420,540L540,540L540,420Z" fill="#81cbbd" stroke="#81cbbd" stroke-width="1.51"/><path d="M420,420L420,540L540,420Z" fill="#8ccfbc" stroke="#8ccfbc" stroke-width="1.51"/><path d="M420,420L540,420L540,300Z" fill="#90d2ba" stroke="#90d2ba" stroke-width="1.51"/><path d="M420,300L420,420L540,300Z" fill="#9ad7b9" stroke="#9ad7b9" stroke-width="1.51"/><path d="M420,300L540,300L540,180Z" fill="#a4dab8" stroke="#a4dab8" stroke-width="1.51"/><path d="M420,180L420,300L540,180Z" fill="#b0dfb7" stroke="#b0dfb7" stroke-width="1.51"/><path d="M420,180L540,180L540,60Z" fill="#b8e3b6" stroke="#b8e3b6" stroke-width="1.51"/><path d="M420,60L420,180L540,60Z" fill="#c1e6b5" stroke="#c1e6b5" stroke-width="1.51"/><path d="M420,60L540,60L540,-60Z" fill="#c5e7b5" stroke="#c5e7b5" stroke-width="1.51"/><path d="M420,-60L420,60L540,-60Z" fill="#cdebb4" stroke="#cdebb4" stroke-width="1.51"/><path d="M420,-60L540,-60L540,-180Z" fill="#cdebba" stroke="#cdebba" stroke-width="1.51"/><path d="M420,-180L420,-60L540,-180Z" fill="#d4eebe" stroke="#d4eebe" stroke-width="1.51"/><path d="M300,1260L420,1260L420,1140Z" fill="#788297" stroke="#788297" stroke-width="1.51"/><path d="M300,1140L300,1260L420,1140Z" fill="#80869e" stroke="#80869e" stroke-width="1.51"/><path d="M300,1140L420,1140L420,1020Z" fill="#818ca9" stroke="#818ca9" stroke-width="1.51"/><path d="M300,1020L300,1140L420,1020Z" fill="#8591aa" stroke="#8591aa" stroke-width="1.51"/><path d="M300,1020L420,1020L420,900Z" fill="#8299ae" stroke="#8299ae" stroke-width="1.51"/><path d="M300,900L300,1020L420,900Z" fill="#85a0b0" stroke="#85a0b0" stroke-width="1.51"/><path d="M300,900L420,900L420,780Z" fill="#83a9b5" stroke="#83a9b5" stroke-width="1.51"/><path d="M300,780L300,900L420,780Z" fill="#87b0b7" stroke="#87b0b7" stroke-width="1.51"/><path d="M300,780L420,780L420,660Z" fill="#84babb" stroke="#84babb" stroke-width="1.51"/><path d="M300,660L300,780L420,660Z" fill="#8ac0bc" stroke="#8ac0bc" stroke-width="1.51"/><path d="M300,660L420,660L420,540Z" fill="#8ac6bc" stroke="#8ac6bc" stroke-width="1.51"/><path d="M300,540L300,660L420,540Z" fill="#90cbbc" stroke="#90cbbc" stroke-width="1.51"/><path d="M300,540L420,540L420,420Z" fill="#92d1bc" stroke="#92d1bc" stroke-width="1.51"/><path d="M300,420L300,540L420,420Z" fill="#9ad4ba" stroke="#9ad4ba" stroke-width="1.51"/><path d="M300,420L420,420L420,300Z" fill="#9fd8b9" stroke="#9fd8b9" stroke-width="1.51"/><path d="M300,300L300,420L420,300Z" fill="#a8dcb8" stroke="#a8dcb8" stroke-width="1.51"/><path d="M300,300L420,300L420,180Z" fill="#b2e0b7" stroke="#b2e0b7" stroke-width="1.51"/><path d="M300,180L300,300L420,180Z" fill="#bde4b6" stroke="#bde4b6" stroke-width="1.51"/><path d="M300,180L420,180L420,60Z" fill="#c6e8b5" stroke="#c6e8b5" stroke-width="1.51"/><path d="M300,60L300,180L420,60Z" fill="#ceebb4" stroke="#ceebb4" stroke-width="1.51"/><path d="M300,60L420,60L420,-60Z" fill="#d2edb4" stroke="#d2edb4" stroke-width="1.51"/><path d="M300,-60L300,60L420,-60Z" fill="#d9f0b3" stroke="#d9f0b3" stroke-width="1.51"/><path d="M300,-60L420,-60L420,-180Z" fill="#dbf1b9" stroke="#dbf1b9" stroke-width="1.51"/><path d="M300,-180L300,-60L420,-180Z" fill="#e0f3bc" stroke="#e0f3bc" stroke-width="1.51"/><path d="M180,1260L300,1260L300,1140Z" fill="#808597" stroke="#808597" stroke-width="1.51"/><path d="M180,1140L180,1260L300,1140Z" fill="#87889e" stroke="#87889e" stroke-width="1.51"/><path d="M180,1140L300,1140L300,1020Z" fill="#8a8fa8" stroke="#8a8fa8" stroke-width="1.51"/><path d="M180,1020L180,1140L300,1020Z" fill="#8d94aa" stroke="#8d94aa" stroke-width="1.51"/><path d="M180,1020L300,1020L300,900Z" fill="#8b9cae" stroke="#8b9cae" stroke-width="1.51"/><path d="M180,900L180,1020L300,900Z" fill="#8da2af" stroke="#8da2af" stroke-width="1.51"/><path d="M180,900L300,900L300,780Z" fill="#8cacb4" stroke="#8cacb4" stroke-width="1.51"/><path d="M180,780L180,900L300,780Z" fill="#90b3b6" stroke="#90b3b6" stroke-width="1.51"/><path d="M180,780L300,780L300,660Z" fill="#8ebebb" stroke="#8ebebb" stroke-width="1.51"/><path d="M180,660L180,780L300,660Z" fill="#93c3bb" stroke="#93c3bb" stroke-width="1.51"/><path d="M180,660L300,660L300,540Z" fill="#94cabc" stroke="#94cabc" stroke-width="1.51"/><path d="M180,540L180,660L300,540Z" fill="#98cebc" stroke="#98cebc" stroke-width="1.51"/><path d="M180,540L300,540L300,420Z" fill="#9cd4bb" stroke="#9cd4bb" stroke-width="1.51"/><path d="M180,420L180,540L300,420Z" fill="#a3d7ba" stroke="#a3d7ba" stroke-width="1.51"/><path d="M180,420L300,420L300,300Z" fill="#a9dbb8" stroke="#a9dbb8" stroke-width="1.51"/><path d="M180,300L180,420L300,300Z" fill="#b0dfb7" stroke="#b0dfb7" stroke-width="1.51"/><path d="M180,300L300,300L300,180Z" fill="#bbe3b6" stroke="#bbe3b6" stroke-width="1.51"/><path d="M180,180L180,300L300,180Z" fill="#c4e7b5" stroke="#c4e7b5" stroke-width="1.51"/><path d="M180,180L300,180L300,60Z" fill="#cfecb4" stroke="#cfecb4" stroke-width="1.51"/><path d="M180,60L180,180L300,60Z" fill="#d5efb3" stroke="#d5efb3" stroke-width="1.51"/><path d="M180,60L300,60L300,-60Z" fill="#dbf1b3" stroke="#dbf1b3" stroke-width="1.51"/><path d="M180,-60L180,60L300,-60Z" fill="#e1f3b2" stroke="#e1f3b2" stroke-width="1.51"/><path d="M180,-60L300,-60L300,-180Z" fill="#e3f4b7" stroke="#e3f4b7" stroke-width="1.51"/><path d="M180,-180L180,-60L300,-180Z" fill="#e8f6bc" stroke="#e8f6bc" stroke-width="1.51"/><path d="M60,1260L180,1260L180,1140Z" fill="#888797" stroke="#888797" stroke-width="1.51"/><path d="M60,1140L60,1260L180,1140Z" fill="#8f8b9d" stroke="#8f8b9d" stroke-width="1.51"/><path d="M60,1140L180,1140L180,1020Z" fill="#9291a8" stroke="#9291a8" stroke-width="1.51"/><path d="M60,1020L60,1140L180,1020Z" fill="#9597a9" stroke="#9597a9" stroke-width="1.51"/><path d="M60,1020L180,1020L180,900Z" fill="#939fad" stroke="#939fad" stroke-width="1.51"/><path d="M60,900L60,1020L180,900Z" fill="#96a5af" stroke="#96a5af" stroke-width="1.51"/><path d="M60,900L180,900L180,780Z" fill="#95afb4" stroke="#95afb4" stroke-width="1.51"/><path d="M60,780L60,900L180,780Z" fill="#98b5b6" stroke="#98b5b6" stroke-width="1.51"/><path d="M60,780L180,780L180,660Z" fill="#97c0ba" stroke="#97c0ba" stroke-width="1.51"/><path d="M60,660L60,780L180,660Z" fill="#9cc6bb" stroke="#9cc6bb" stroke-width="1.51"/><path d="M60,660L180,660L180,540Z" fill="#9ccdbb" stroke="#9ccdbb" stroke-width="1.51"/><path d="M60,540L60,660L180,540Z" fill="#a1d1bb" stroke="#a1d1bb" stroke-width="1.51"/><path d="M60,540L180,540L180,420Z" fill="#a4d7bb" stroke="#a4d7bb" stroke-width="1.51"/><path d="M60,420L60,540L180,420Z" fill="#abdab9" stroke="#abdab9" stroke-width="1.51"/><path d="M60,420L180,420L180,300Z" fill="#b1deb8" stroke="#b1deb8" stroke-width="1.51"/><path d="M60,300L60,420L180,300Z" fill="#b8e2b6" stroke="#b8e2b6" stroke-width="1.51"/><path d="M60,300L180,300L180,180Z" fill="#c3e6b5" stroke="#c3e6b5" stroke-width="1.51"/><path d="M60,180L60,300L180,180Z" fill="#cceab4" stroke="#cceab4" stroke-width="1.51"/><path d="M60,180L180,180L180,60Z" fill="#d6efb3" stroke="#d6efb3" stroke-width="1.51"/><path d="M60,60L60,180L180,60Z" fill="#ddf1b2" stroke="#ddf1b2" stroke-width="1.51"/><path d="M60,60L180,60L180,-60Z" fill="#e2f3b2" stroke="#e2f3b2" stroke-width="1.51"/><path d="M60,-60L60,60L180,-60Z" fill="#e8f6b1" stroke="#e8f6b1" stroke-width="1.51"/><path d="M60,-60L180,-60L180,-180Z" fill="#ebf7b7" stroke="#ebf7b7" stroke-width="1.51"/><path d="M60,-180L60,-60L180,-180Z" fill="#eff9bb" stroke="#eff9bb" stroke-width="1.51"/><path d="M-60,1260L60,1260L60,1140Z" fill="#8e8999" stroke="#8e8999" stroke-width="1.51"/><path d="M-60,1140L-60,1260L60,1140Z" fill="#938ca2" stroke="#938ca2" stroke-width="1.51"/><path d="M-60,1140L60,1140L60,1020Z" fill="#9894aa" stroke="#9894aa" stroke-width="1.51"/><path d="M-60,1020L-60,1140L60,1020Z" fill="#9998ae" stroke="#9998ae" stroke-width="1.51"/><path d="M-60,1020L60,1020L60,900Z" fill="#99a1af" stroke="#99a1af" stroke-width="1.51"/><path d="M-60,900L-60,1020L60,900Z" fill="#9aa7b4" stroke="#9aa7b4" stroke-width="1.51"/><path d="M-60,900L60,900L60,780Z" fill="#9bb1b6" stroke="#9bb1b6" stroke-width="1.51"/><path d="M-60,780L-60,900L60,780Z" fill="#9db7bb" stroke="#9db7bb" stroke-width="1.51"/><path d="M-60,780L60,780L60,660Z" fill="#9dc3bc" stroke="#9dc3bc" stroke-width="1.51"/><path d="M-60,660L-60,780L60,660Z" fill="#a0c8c0" stroke="#a0c8c0" stroke-width="1.51"/><path d="M-60,660L60,660L60,540Z" fill="#a3cfbd" stroke="#a3cfbd" stroke-width="1.51"/><path d="M-60,540L-60,660L60,540Z" fill="#a6d3c1" stroke="#a6d3c1" stroke-width="1.51"/><path d="M-60,540L60,540L60,420Z" fill="#aadabd" stroke="#aadabd" stroke-width="1.51"/><path d="M-60,420L-60,540L60,420Z" fill="#b0dcbf" stroke="#b0dcbf" stroke-width="1.51"/><path d="M-60,420L60,420L60,300Z" fill="#b7e1ba" stroke="#b7e1ba" stroke-width="1.51"/><path d="M-60,300L-60,420L60,300Z" fill="#bde4bc" stroke="#bde4bc" stroke-width="1.51"/><path d="M-60,300L60,300L60,180Z" fill="#c9e9b7" stroke="#c9e9b7" stroke-width="1.51"/><path d="M-60,180L-60,300L60,180Z" fill="#d1edba" stroke="#d1edba" stroke-width="1.51"/><path d="M-60,180L60,180L60,60Z" fill="#dcf2b5" stroke="#dcf2b5" stroke-width="1.51"/><path d="M-60,60L-60,180L60,60Z" fill="#e2f4b7" stroke="#e2f4b7" stroke-width="1.51"/><path d="M-60,60L60,60L60,-60Z" fill="#e8f6b4" stroke="#e8f6b4" stroke-width="1.51"/><path d="M-60,-60L-60,60L60,-60Z" fill="#edf8b6" stroke="#edf8b6" stroke-width="1.51"/><path d="M-60,-60L60,-60L60,-180Z" fill="#f1fab9" stroke="#f1fab9" stroke-width="1.51"/><path d="M-60,-180L-60,-60L60,-180Z" fill="#f4fbc1" stroke="#f4fbc1" stroke-width="1.51"/><path d="M-180,1260L-60,1260L-60,1140Z" fill="#918ba0" stroke="#918ba0" stroke-width="1.51"/><path d="M-180,1140L-180,1260L-60,1140Z" fill="#968ea9" stroke="#968ea9" stroke-width="1.51"/><path d="M-180,1140L-60,1140L-60,1020Z" fill="#9b95b1" stroke="#9b95b1" stroke-width="1.51"/><path d="M-180,1020L-180,1140L-60,1020Z" fill="#9c9ab6" stroke="#9c9ab6" stroke-width="1.51"/><path d="M-180,1020L-60,1020L-60,900Z" fill="#9ca3b7" stroke="#9ca3b7" stroke-width="1.51"/><path d="M-180,900L-180,1020L-60,900Z" fill="#9ca8bb" stroke="#9ca8bb" stroke-width="1.51"/><path d="M-180,900L-60,900L-60,780Z" fill="#9eb3bd" stroke="#9eb3bd" stroke-width="1.51"/><path d="M-180,780L-180,900L-60,780Z" fill="#9fb9c3" stroke="#9fb9c3" stroke-width="1.51"/><path d="M-180,780L-60,780L-60,660Z" fill="#a0c4c4" stroke="#a0c4c4" stroke-width="1.51"/><path d="M-180,660L-180,780L-60,660Z" fill="#a3c9c8" stroke="#a3c9c8" stroke-width="1.51"/><path d="M-180,660L-60,660L-60,540Z" fill="#a6d1c5" stroke="#a6d1c5" stroke-width="1.51"/><path d="M-180,540L-180,660L-60,540Z" fill="#a9d5c8" stroke="#a9d5c8" stroke-width="1.51"/><path d="M-180,540L-60,540L-60,420Z" fill="#aedbc5" stroke="#aedbc5" stroke-width="1.51"/><path d="M-180,420L-180,540L-60,420Z" fill="#b3dec6" stroke="#b3dec6" stroke-width="1.51"/><path d="M-180,420L-60,420L-60,300Z" fill="#bbe2c2" stroke="#bbe2c2" stroke-width="1.51"/><path d="M-180,300L-180,420L-60,300Z" fill="#c0e6c4" stroke="#c0e6c4" stroke-width="1.51"/><path d="M-180,300L-60,300L-60,180Z" fill="#cdebbf" stroke="#cdebbf" stroke-width="1.51"/><path d="M-180,180L-180,300L-60,180Z" fill="#d4eec1" stroke="#d4eec1" stroke-width="1.51"/><path d="M-180,180L-60,180L-60,60Z" fill="#e0f3bd" stroke="#e0f3bd" stroke-width="1.51"/><path d="M-180,60L-180,180L-60,60Z" fill="#e5f5bf" stroke="#e5f5bf" stroke-width="1.51"/><path d="M-180,60L-60,60L-60,-60Z" fill="#ecf8bc" stroke="#ecf8bc" stroke-width="1.51"/><path d="M-180,-60L-180,60L-60,-60Z" fill="#f1fabe" stroke="#f1fabe" stroke-width="1.51"/><path d="M-180,-60L-60,-60L-60,-180Z" fill="#f5fbc1" stroke="#f5fbc1" stroke-width="1.51"/><path d="M-180,-180L-180,-60L-60,-180Z" fill="#f8fcc8" stroke="#f8fcc8" stroke-width="1.51"/></svg>