<svg xmlns="http://www.w3.org/2000/svg" width="1920" height="1080"><path d="M1957,1395L2242,1395L2242,1110Z" fill="#2365a7" stroke="#2365a7" stroke-width="1.51"/><path d="M1957,1110L1957,1395L2242,1110Z" fill="#3178b6" stroke="#3178b6" stroke-width="1.51"/><path d="M1957,1110L2242,1110L2242,825Z" fill="#5086b9" stroke="#5086b9" stroke-width="1.51"/><path d="M1957,825L1957,1110L2242,825Z" fill="#6799c8" stroke="#6799c8" stroke-width="1.51"/><path d="M1957,825L2242,825L2242,540Z" fill="#829ec7" stroke="#829ec7" stroke-width="1.51"/><path d="M1957,540L1957,825L2242,540Z" fill="#91abd2" stroke="#91abd2" stroke-width="1.51"/><path d="M1957,540L2242,540L2242,255Z" fill="#99a0c0" stroke="#99a0c0" stroke-width="1.51"/><path d="M1957,255L1957,540L2242,255Z" fill="#a2a2be" stroke="#a2a2be" stroke-width="1.51"/><path d="M1957,255L2242,255L2242,-30Z" fill="#9e8295" stroke="#9e8295" stroke-width="1.51"/><path d="M1957,-30L1957,255L2242,-30Z" fill="#a17c90" stroke="#a17c90" stroke-width="1.51"/><path d="M1957,-30L2242,-30L2242,-315Z" fill="#905770" stroke="#905770" stroke-width="1.51"/><path d="M1957,-315L1957,-30L2242,-315Z" fill="#90536f" stroke="#90536f" stroke-width="1.51"/><path d="M1672,1395L1957,1395L1957,1110Z" fill="#347cb8" stroke="#347cb8" stroke-width="1.51"/><path d="M1672,1110L1672,1395L1957,1110Z" fill="#478fc1" stroke="#478fc1" stroke-width="1.51"/><path d="M1672,1110L1957,1110L1957,825Z" fill="#5d9eca" stroke="#5d9eca" stroke-width="1.51"/><path d="M1672,825L1672,1110L1957,825Z" fill="#77b1d4" stroke="#77b1d4" stroke-width="1.51"/><path d="M1672,825L1957,825L1957,540Z" fill="#8fb7d8" stroke="#8fb7d8" stroke-width="1.51"/><path d="M1672,540L1672,825L1957,540Z" fill="#a1c4de" stroke="#a1c4de" stroke-width="1.51"/><path d="M1672,540L1957,540L1957,255Z" fill="#a7b9d0" stroke="#a7b9d0" stroke-width="1.51"/><path d="M1672,255L1672,540L1957,255Z" fill="#b2bbc9" stroke="#b2bbc9" stroke-width="1.51"/><path d="M1672,255L1957,255L1957,-30Z" fill="#ad9ba5" stroke="#ad9ba5" stroke-width="1.51"/><path d="M1672,-30L1672,255L1957,-30Z" fill="#b1949b" stroke="#b1949b" stroke-width="1.51"/><path d="M1672,-30L1957,-30L1957,-315Z" fill="#a0707f" stroke="#a0707f" stroke-width="1.51"/><path d="M1672,-315L1672,-30L1957,-315Z" fill="#a16b79" stroke="#a16b79" stroke-width="1.51"/><path d="M1387,1395L1672,1395L1672,1110Z" fill="#5d94c5" stroke="#5d94c5" stroke-width="1.51"/><path d="M1387,1110L1387,1395L1672,1110Z" fill="#70a6ce" stroke="#70a6ce" stroke-width="1.51"/><path d="M1387,1110L1672,1110L1672,825Z" fill="#7fb7d7" stroke="#7fb7d7" stroke-width="1.51"/><path d="M1387,825L1387,1110L1672,825Z" fill="#9bc9e1" stroke="#9bc9e1" stroke-width="1.51"/><path d="M1387,825L1672,825L1672,540Z" fill="#aed1e5" stroke="#aed1e5" stroke-width="1.51"/><path d="M1387,540L1387,825L1672,540Z" fill="#c2dceb" stroke="#c2dceb" stroke-width="1.51"/><path d="M1387,540L1672,540L1672,255Z" fill="#c4d3dd" stroke="#c4d3dd" stroke-width="1.51"/><path d="M1387,255L1387,540L1672,255Z" fill="#d1d3d5" stroke="#d1d3d5" stroke-width="1.51"/><path d="M1387,255L1672,255L1672,-30Z" fill="#c8b4b1" stroke="#c8b4b1" stroke-width="1.51"/><path d="M1387,-30L1387,255L1672,-30Z" fill="#ceaca6" stroke="#ceaca6" stroke-width="1.51"/><path d="M1387,-30L1672,-30L1672,-315Z" fill="#ba898b" stroke="#ba898b" stroke-width="1.51"/><path d="M1387,-315L1387,-30L1672,-315Z" fill="#bd8284" stroke="#bd8284" stroke-width="1.51"/><path d="M1102,1395L1387,1395L1387,1110Z" fill="#81a5cf" stroke="#81a5cf" stroke-width="1.51"/><path d="M1102,1110L1102,1395L1387,1110Z" fill="#8fb5d6" stroke="#8fb5d6" stroke-width="1.51"/><path d="M1102,1110L1387,1110L1387,825Z" fill="#a0c9e1" stroke="#a0c9e1" stroke-width="1.51"/><path d="M1102,825L1102,1110L1387,825Z" fill="#b8d8e9" stroke="#b8d8e9" stroke-width="1.51"/><path d="M1102,825L1387,825L1387,540Z" fill="#cde3ef" stroke="#cde3ef" stroke-width="1.51"/><path d="M1102,540L1102,825L1387,540Z" fill="#deebf3" stroke="#deebf3" stroke-width="1.51"/><path d="M1102,540L1387,540L1387,255Z" fill="#e2e5e7" stroke="#e2e5e7" stroke-width="1.51"/><path d="M1102,255L1102,540L1387,255Z" fill="#ebe2dd" stroke="#ebe2dd" stroke-width="1.51"/><path d="M1102,255L1387,255L1387,-30Z" fill="#e4c5ba" stroke="#e4c5ba" stroke-width="1.51"/><path d="M1102,-30L1102,255L1387,-30Z" fill="#e7baad" stroke="#e7baad" stroke-width="1.51"/><path d="M1102,-30L1387,-30L1387,-315Z" fill="#d59993" stroke="#d59993" stroke-width="1.51"/><path d="M1102,-315L1102,-30L1387,-315Z" fill="#d58f8b" stroke="#d58f8b" stroke-width="1.51"/><path d="M817,1395L1102,1395L1102,1110Z" fill="#98aed3" stroke="#98aed3" stroke-width="1.51"/><path d="M817,1110L817,1395L1102,1110Z" fill="#a2b9d5" stroke="#a2b9d5" stroke-width="1.51"/><path d="M817,1110L1102,1110L1102,825Z" fill="#b6d3e5" stroke="#b6d3e5" stroke-width="1.51"/><path d="M817,825L817,1110L1102,825Z" fill="#cadde8" stroke="#cadde8" stroke-width="1.51"/><path d="M817,825L1102,825L1102,540Z" fill="#e2edf3" stroke="#e2edf3" stroke-width="1.51"/><path d="M817,540L817,825L1102,540Z" fill="#eff0f2" stroke="#eff0f2" stroke-width="1.51"/><path d="M817,540L1102,540L1102,255Z" fill="#f6efeb" stroke="#f6efeb" stroke-width="1.51"/><path d="M817,255L817,540L1102,255Z" fill="#fbe7dc" stroke="#fbe7dc" stroke-width="1.51"/><path d="M817,255L1102,255L1102,-30Z" fill="#f7cfbe" stroke="#f7cfbe" stroke-width="1.51"/><path d="M817,-30L817,255L1102,-30Z" fill="#f5beac" stroke="#f5beac" stroke-width="1.51"/><path d="M817,-30L1102,-30L1102,-315Z" fill="#e7a297" stroke="#e7a297" stroke-width="1.51"/><path d="M817,-315L817,-30L1102,-315Z" fill="#e2938a" stroke="#e2938a" stroke-width="1.51"/><path d="M532,1395L817,1395L817,1110Z" fill="#a1a5c0" stroke="#a1a5c0" stroke-width="1.51"/><path d="M532,1110L532,1395L817,1110Z" fill="#a9aabc" stroke="#a9aabc" stroke-width="1.51"/><path d="M532,1110L817,1110L817,825Z" fill="#bfc9d2" stroke="#bfc9d2" stroke-width="1.51"/><path d="M532,825L532,1110L817,825Z" fill="#cfcdce" stroke="#cfcdce" stroke-width="1.51"/><path d="M532,825L817,825L817,540Z" fill="#e9e3e0" stroke="#e9e3e0" stroke-width="1.51"/><path d="M532,540L532,825L817,540Z" fill="#f2e0d7" stroke="#f2e0d7" stroke-width="1.51"/><path d="M532,540L817,540L817,255Z" fill="#fce5d7" stroke="#fce5d7" stroke-width="1.51"/><path d="M532,255L532,540L817,255Z" fill="#fdd7c2" stroke="#fdd7c2" stroke-width="1.51"/><path d="M532,255L817,255L817,-30Z" fill="#fac5ab" stroke="#fac5ab" stroke-width="1.51"/><path d="M532,-30L532,255L817,-30Z" fill="#f4af93" stroke="#f4af93" stroke-width="1.51"/><path d="M532,-30L817,-30L817,-315Z" fill="#e89885" stroke="#e89885" stroke-width="1.51"/><path d="M532,-315L532,-30L817,-315Z" fill="#e08372" stroke="#e08372" stroke-width="1.51"/><path d="M247,1395L532,1395L532,1110Z" fill="#a48da0" stroke="#a48da0" stroke-width="1.51"/><path d="M247,1110L247,1395L532,1110Z" fill="#a9909b" stroke="#a9909b" stroke-width="1.51"/><path d="M247,1110L532,1110L532,825Z" fill="#c2b1b1" stroke="#c2b1b1" stroke-width="1.51"/><path d="M247,825L247,1110L532,825Z" fill="#ceb2ac" stroke="#ceb2ac" stroke-width="1.51"/><path d="M247,825L532,825L532,540Z" fill="#e9cabe" stroke="#e9cabe" stroke-width="1.51"/><path d="M247,540L247,825L532,540Z" fill="#efc4b5" stroke="#efc4b5" stroke-width="1.51"/><path d="M247,540L532,540L532,255Z" fill="#faccb6" stroke="#faccb6" stroke-width="1.51"/><path d="M247,255L247,540L532,255Z" fill="#f8bba0" stroke="#f8bba0" stroke-width="1.51"/><path d="M247,255L532,255L532,-30Z" fill="#f6ac8a" stroke="#f6ac8a" stroke-width="1.51"/><path d="M247,-30L247,255L532,-30Z" fill="#ec9373" stroke="#ec9373" stroke-width="1.51"/><path d="M247,-30L532,-30L532,-315Z" fill="#e27e66" stroke="#e27e66" stroke-width="1.51"/><path d="M247,-315L247,-30L532,-315Z" fill="#d56654" stroke="#d56654" stroke-width="1.51"/><path d="M-38,1395L247,1395L247,1110Z" fill="#9d6e83" stroke="#9d6e83" stroke-width="1.51"/><path d="M-38,1110L-38,1395L247,1110Z" fill="#a07180" stroke="#a07180" stroke-width="1.51"/><path d="M-38,1110L247,1110L247,825Z" fill="#ba9193" stroke="#ba9193" stroke-width="1.51"/><path d="M-38,825L-38,1110L247,825Z" fill="#c49291" stroke="#c49291" stroke-width="1.51"/><path d="M-38,825L247,825L247,540Z" fill="#e1aaa0" stroke="#e1aaa0" stroke-width="1.51"/><path d="M-38,540L-38,825L247,540Z" fill="#e4a39a" stroke="#e4a39a" stroke-width="1.51"/><path d="M-38,540L247,540L247,255Z" fill="#f0ab98" stroke="#f0ab98" stroke-width="1.51"/><path d="M-38,255L-38,540L247,255Z" fill="#eb9a85" stroke="#eb9a85" stroke-width="1.51"/><path d="M-38,255L247,255L247,-30Z" fill="#e98b6e" stroke="#e98b6e" stroke-width="1.51"/><path d="M-38,-30L-38,255L247,-30Z" fill="#dd715a" stroke="#dd715a" stroke-width="1.51"/><path d="M-38,-30L247,-30L247,-315Z" fill="#d35c4b" stroke="#d35c4b" stroke-width="1.51"/><path d="M-38,-315L-38,-30L247,-315Z" fill="#c5423c" stroke="#c5423c" stroke-width="1.51"/><path d="M-323,1395L-38,1395L-38,1110Z" fill="#90536e" stroke="#90536e" stroke-width="1.51"/><path d="M-323,1110L-323,1395L-38,1110Z" fill="#8e586f" stroke="#8e586f" stroke-width="1.51"/><path d="M-323,1110L-38,1110L-38,825Z" fill="#ae767e" stroke="#ae767e" stroke-width="1.51"/><path d="M-323,825L-323,1110L-38,825Z" fill="#b2797f" stroke="#b2797f" stroke-width="1.51"/><path d="M-323,825L-38,825L-38,540Z" fill="#d38d8a" stroke="#d38d8a" stroke-width="1.51"/><path d="M-323,540L-323,825L-38,540Z" fill="#d18a88" stroke="#d18a88" stroke-width="1.51"/><path d="M-323,540L-38,540L-38,255Z" fill="#e28e83" stroke="#e28e83" stroke-width="1.51"/><path d="M-323,255L-323,540L-38,255Z" fill="#d78074" stroke="#d78074" stroke-width="1.51"/><path d="M-323,255L-38,255L-38,-30Z" fill="#d96e5a" stroke="#d96e5a" stroke-width="1.51"/><path d="M-323,-30L-323,255L-38,-30Z" fill="#c85649" stroke="#c85649" stroke-width="1.51"/><path d="M-323,-30L-38,-30L-38,-315Z" fill="#c13b38" stroke="#c13b38" stroke-width="1.51"/><path d="M-323,-315L-323,-30L-38,-315Z" fill="#af202d" stroke="#af202d" stroke-width="1.51"/></svg>