<svg xmlns="http://www.w3.org/2000/svg" width="1920" height="1080"><path d="M1957,1395L2242,1395L2242,1110Z" fill="#4975b4" stroke="#4975b4" stroke-width="1.51"/><path d="M1957,1110L1957,1395L2242,1110Z" fill="#5a8cc0" stroke="#5a8cc0" stroke-width="1.51"/><path d="M1957,1110L2242,1110L2242,825Z" fill="#6f98c8" stroke="#6f98c8" stroke-width="1.51"/><path d="M1957,825L1957,1110L2242,825Z" fill="#81abd2" stroke="#81abd2" stroke-width="1.51"/><path d="M1957,825L2242,825L2242,540Z" fill="#97add2" stroke="#97add2" stroke-width="1.51"/><path d="M1957,540L1957,825L2242,540Z" fill="#a6b9ca" stroke="#a6b9ca" stroke-width="1.51"/><path d="M1957,540L2242,540L2242,255Z" fill="#abaaaf" stroke="#abaaaf" stroke-width="1.51"/><path d="M1957,255L1957,540L2242,255Z" fill="#b2ada8" stroke="#b2ada8" stroke-width="1.51"/><path d="M1957,255L2242,255L2242,-30Z" fill="#b08d8e" stroke="#b08d8e" stroke-width="1.51"/><path d="M1957,-30L1957,255L2242,-30Z" fill="#b68a8a" stroke="#b68a8a" stroke-width="1.51"/><path d="M1957,-30L2242,-30L2242,-315Z" fill="#ad6676" stroke="#ad6676" stroke-width="1.51"/><path d="M1957,-315L1957,-30L2242,-315Z" fill="#ae6572" stroke="#ae6572" stroke-width="1.51"/><path d="M1672,1395L1957,1395L1957,1110Z" fill="#5e91c3" stroke="#5e91c3" stroke-width="1.51"/><path d="M1672,1110L1672,1395L1957,1110Z" fill="#72a7ce" stroke="#72a7ce" stroke-width="1.51"/><path d="M1672,1110L1957,1110L1957,825Z" fill="#82b5d6" stroke="#82b5d6" stroke-width="1.51"/><path d="M1672,825L1672,1110L1957,825Z" fill="#97c7e0" stroke="#97c7e0" stroke-width="1.51"/><path d="M1672,825L1957,825L1957,540Z" fill="#a9cbe1" stroke="#a9cbe1" stroke-width="1.51"/><path d="M1672,540L1672,825L1957,540Z" fill="#bbd6d8" stroke="#bbd6d8" stroke-width="1.51"/><path d="M1672,540L1957,540L1957,255Z" fill="#bec8bc" stroke="#bec8bc" stroke-width="1.51"/><path d="M1672,255L1672,540L1957,255Z" fill="#c7cab5" stroke="#c7cab5" stroke-width="1.51"/><path d="M1672,255L1957,255L1957,-30Z" fill="#c3ab9b" stroke="#c3ab9b" stroke-width="1.51"/><path d="M1672,-30L1672,255L1957,-30Z" fill="#cca696" stroke="#cca696" stroke-width="1.51"/><path d="M1672,-30L1957,-30L1957,-315Z" fill="#c18482" stroke="#c18482" stroke-width="1.51"/><path d="M1672,-315L1672,-30L1957,-315Z" fill="#c4817e" stroke="#c4817e" stroke-width="1.51"/><path d="M1387,1395L1672,1395L1672,1110Z" fill="#7aa7d0" stroke="#7aa7d0" stroke-width="1.51"/><path d="M1387,1110L1387,1395L1672,1110Z" fill="#8ebbd9" stroke="#8ebbd9" stroke-width="1.51"/><path d="M1387,1110L1672,1110L1672,825Z" fill="#9dcde3" stroke="#9dcde3" stroke-width="1.51"/><path d="M1387,825L1387,1110L1672,825Z" fill="#b2dceb" stroke="#b2dceb" stroke-width="1.51"/><path d="M1387,825L1672,825L1672,540Z" fill="#c3e3ed" stroke="#c3e3ed" stroke-width="1.51"/><path d="M1387,540L1387,825L1672,540Z" fill="#d4ebe3" stroke="#d4ebe3" stroke-width="1.51"/><path d="M1387,540L1672,540L1672,255Z" fill="#d6e1c8" stroke="#d6e1c8" stroke-width="1.51"/><path d="M1387,255L1387,540L1672,255Z" fill="#dfdfc0" stroke="#dfdfc0" stroke-width="1.51"/><path d="M1387,255L1672,255L1672,-30Z" fill="#dbc3a6" stroke="#dbc3a6" stroke-width="1.51"/><path d="M1387,-30L1387,255L1672,-30Z" fill="#e3baa0" stroke="#e3baa0" stroke-width="1.51"/><path d="M1387,-30L1672,-30L1672,-315Z" fill="#d99b8d" stroke="#d99b8d" stroke-width="1.51"/><path d="M1387,-315L1387,-30L1672,-315Z" fill="#db9588" stroke="#db9588" stroke-width="1.51"/><path d="M1102,1395L1387,1395L1387,1110Z" fill="#96b5d8" stroke="#96b5d8" stroke-width="1.51"/><path d="M1102,1110L1102,1395L1387,1110Z" fill="#a8c6db" stroke="#a8c6db" stroke-width="1.51"/><path d="M1102,1110L1387,1110L1387,825Z" fill="#b8dbeb" stroke="#b8dbeb" stroke-width="1.51"/><path d="M1102,825L1102,1110L1387,825Z" fill="#cce8ed" stroke="#cce8ed" stroke-width="1.51"/><path d="M1102,825L1387,825L1387,540Z" fill="#ddf1f6" stroke="#ddf1f6" stroke-width="1.51"/><path d="M1102,540L1102,825L1387,540Z" fill="#ecf7e5" stroke="#ecf7e5" stroke-width="1.51"/><path d="M1102,540L1387,540L1387,255Z" fill="#eeefd0" stroke="#eeefd0" stroke-width="1.51"/><path d="M1102,255L1102,540L1387,255Z" fill="#f5ebc1" stroke="#f5ebc1" stroke-width="1.51"/><path d="M1102,255L1387,255L1387,-30Z" fill="#f2d1ad" stroke="#f2d1ad" stroke-width="1.51"/><path d="M1102,-30L1102,255L1387,-30Z" fill="#f8c6a1" stroke="#f8c6a1" stroke-width="1.51"/><path d="M1102,-30L1387,-30L1387,-315Z" fill="#efa894" stroke="#efa894" stroke-width="1.51"/><path d="M1102,-315L1102,-30L1387,-315Z" fill="#ef9f89" stroke="#ef9f89" stroke-width="1.51"/><path d="M817,1395L1102,1395L1102,1110Z" fill="#acbcc3" stroke="#acbcc3" stroke-width="1.51"/><path d="M817,1110L817,1395L1102,1110Z" fill="#b9c9c1" stroke="#b9c9c1" stroke-width="1.51"/><path d="M817,1110L1102,1110L1102,825Z" fill="#cce2d5" stroke="#cce2d5" stroke-width="1.51"/><path d="M817,825L817,1110L1102,825Z" fill="#dbead1" stroke="#dbead1" stroke-width="1.51"/><path d="M817,825L1102,825L1102,540Z" fill="#eff8df" stroke="#eff8df" stroke-width="1.51"/><path d="M817,540L817,825L1102,540Z" fill="#f9f9c9" stroke="#f9f9c9" stroke-width="1.51"/><path d="M817,540L1102,540L1102,255Z" fill="#fdf6b9" stroke="#fdf6b9" stroke-width="1.51"/><path d="M817,255L817,540L1102,255Z" fill="#ffeda4" stroke="#ffeda4" stroke-width="1.51"/><path d="M817,255L1102,255L1102,-30Z" fill="#ffd897" stroke="#ffd897" stroke-width="1.51"/><path d="M817,-30L817,255L1102,-30Z" fill="#ffc885" stroke="#ffc885" stroke-width="1.51"/><path d="M817,-30L1102,-30L1102,-315Z" fill="#fbaf7e" stroke="#fbaf7e" stroke-width="1.51"/><path d="M817,-315L817,-30L1102,-315Z" fill="#f6a26e" stroke="#f6a26e" stroke-width="1.51"/><path d="M532,1395L817,1395L817,1110Z" fill="#b2b0ac" stroke="#b2b0ac" stroke-width="1.51"/><path d="M532,1110L532,1395L817,1110Z" fill="#bdb8aa" stroke="#bdb8aa" stroke-width="1.51"/><path d="M532,1110L817,1110L817,825Z" fill="#d1d6bd" stroke="#d1d6bd" stroke-width="1.51"/><path d="M532,825L532,1110L817,825Z" fill="#ded9ba" stroke="#ded9ba" stroke-width="1.51"/><path d="M532,825L817,825L817,540Z" fill="#f3ecc7" stroke="#f3ecc7" stroke-width="1.51"/><path d="M532,540L532,825L817,540Z" fill="#fae8b1" stroke="#fae8b1" stroke-width="1.51"/><path d="M532,540L817,540L817,255Z" fill="#ffeaa0" stroke="#ffeaa0" stroke-width="1.51"/><path d="M532,255L532,540L817,255Z" fill="#fedd8d" stroke="#fedd8d" stroke-width="1.51"/><path d="M532,255L817,255L817,-30Z" fill="#ffcc7e" stroke="#ffcc7e" stroke-width="1.51"/><path d="M532,-30L532,255L817,-30Z" fill="#fdb76e" stroke="#fdb76e" stroke-width="1.51"/><path d="M532,-30L817,-30L817,-315Z" fill="#f9a367" stroke="#f9a367" stroke-width="1.51"/><path d="M532,-315L532,-30L817,-315Z" fill="#f29158" stroke="#f29158" stroke-width="1.51"/><path d="M247,1395L532,1395L532,1110Z" fill="#b69995" stroke="#b69995" stroke-width="1.51"/><path d="M247,1110L247,1395L532,1110Z" fill="#c19f94" stroke="#c19f94" stroke-width="1.51"/><path d="M247,1110L532,1110L532,825Z" fill="#d6bfa5" stroke="#d6bfa5" stroke-width="1.51"/><path d="M247,825L247,1110L532,825Z" fill="#e2c0a3" stroke="#e2c0a3" stroke-width="1.51"/><path d="M247,825L532,825L532,540Z" fill="#f7d5af" stroke="#f7d5af" stroke-width="1.51"/><path d="M247,540L247,825L532,540Z" fill="#fccf9a" stroke="#fccf9a" stroke-width="1.51"/><path d="M247,540L532,540L532,255Z" fill="#ffd389" stroke="#ffd389" stroke-width="1.51"/><path d="M247,255L247,540L532,255Z" fill="#fec377" stroke="#fec377" stroke-width="1.51"/><path d="M247,255L532,255L532,-30Z" fill="#feb467" stroke="#feb467" stroke-width="1.51"/><path d="M247,-30L247,255L532,-30Z" fill="#fb9d58" stroke="#fb9d58" stroke-width="1.51"/><path d="M247,-30L532,-30L532,-315Z" fill="#f68b50" stroke="#f68b50" stroke-width="1.51"/><path d="M247,-315L247,-30L532,-315Z" fill="#ee7543" stroke="#ee7543" stroke-width="1.51"/><path d="M-38,1395L247,1395L247,1110Z" fill="#b77e83" stroke="#b77e83" stroke-width="1.51"/><path d="M-38,1110L-38,1395L247,1110Z" fill="#bf8383" stroke="#bf8383" stroke-width="1.51"/><path d="M-38,1110L247,1110L247,825Z" fill="#d7a393" stroke="#d7a393" stroke-width="1.51"/><path d="M-38,825L-38,1110L247,825Z" fill="#e0a392" stroke="#e0a392" stroke-width="1.51"/><path d="M-38,825L247,825L247,540Z" fill="#f7b89c" stroke="#f7b89c" stroke-width="1.51"/><path d="M-38,540L-38,825L247,540Z" fill="#fab189" stroke="#fab189" stroke-width="1.51"/><path d="M-38,540L247,540L247,255Z" fill="#ffb677" stroke="#ffb677" stroke-width="1.51"/><path d="M-38,255L-38,540L247,255Z" fill="#faa567" stroke="#faa567" stroke-width="1.51"/><path d="M-38,255L247,255L247,-30Z" fill="#fa9756" stroke="#fa9756" stroke-width="1.51"/><path d="M-38,-30L-38,255L247,-30Z" fill="#f57e49" stroke="#f57e49" stroke-width="1.51"/><path d="M-38,-30L247,-30L247,-315Z" fill="#f16a40" stroke="#f16a40" stroke-width="1.51"/><path d="M-38,-315L-38,-30L247,-315Z" fill="#e65235" stroke="#e65235" stroke-width="1.51"/><path d="M-323,1395L-38,1395L-38,1110Z" fill="#ae6572" stroke="#ae6572" stroke-width="1.51"/><path d="M-323,1110L-323,1395L-38,1110Z" fill="#b26d75" stroke="#b26d75" stroke-width="1.51"/><path d="M-323,1110L-38,1110L-38,825Z" fill="#ce8a82" stroke="#ce8a82" stroke-width="1.51"/><path d="M-323,825L-323,1110L-38,825Z" fill="#d38c84" stroke="#d38c84" stroke-width="1.51"/><path d="M-323,825L-38,825L-38,540Z" fill="#ee9e8b" stroke="#ee9e8b" stroke-width="1.51"/><path d="M-323,540L-323,825L-38,540Z" fill="#ec9a7c" stroke="#ec9a7c" stroke-width="1.51"/><path d="M-323,540L-38,540L-38,255Z" fill="#f59c67" stroke="#f59c67" stroke-width="1.51"/><path d="M-323,255L-323,540L-38,255Z" fill="#ec8e5a" stroke="#ec8e5a" stroke-width="1.51"/><path d="M-323,255L-38,255L-38,-30Z" fill="#ef7c47" stroke="#ef7c47" stroke-width="1.51"/><path d="M-323,-30L-323,255L-38,-30Z" fill="#e5663d" stroke="#e5663d" stroke-width="1.51"/><path d="M-323,-30L-38,-30L-38,-315Z" fill="#e44c32" stroke="#e44c32" stroke-width="1.51"/><path d="M-323,-315L-323,-30L-38,-315Z" fill="#d53429" stroke="#d53429" stroke-width="1.51"/></svg>