<svg xmlns="http://www.w3.org/2000/svg" width="1920" height="1080"><path d="M1957,1395L2242,1395L2242,1110Z" fill="#006528" stroke="#006528" stroke-width="1.51"/><path d="M1957,1110L1957,1395L2242,1110Z" fill="#07702f" stroke="#07702f" stroke-width="1.51"/><path d="M1957,1110L2242,1110L2242,825Z" fill="#157636" stroke="#157636" stroke-width="1.51"/><path d="M1957,825L1957,1110L2242,825Z" fill="#1d823d" stroke="#1d823d" stroke-width="1.51"/><path d="M1957,825L2242,825L2242,540Z" fill="#2c8744" stroke="#2c8744" stroke-width="1.51"/><path d="M1957,540L1957,825L2242,540Z" fill="#39914b" stroke="#39914b" stroke-width="1.51"/><path d="M1957,540L2242,540L2242,255Z" fill="#4b9453" stroke="#4b9453" stroke-width="1.51"/><path d="M1957,255L1957,540L2242,255Z" fill="#569e5d" stroke="#569e5d" stroke-width="1.51"/><path d="M1957,255L2242,255L2242,-30Z" fill="#639e67" stroke="#639e67" stroke-width="1.51"/><path d="M1957,-30L1957,255L2242,-30Z" fill="#6da770" stroke="#6da770" stroke-width="1.51"/><path d="M1957,-30L2242,-30L2242,-315Z" fill="#76a679" stroke="#76a679" stroke-width="1.51"/><path d="M1957,-315L1957,-30L2242,-315Z" fill="#7fae82" stroke="#7fae82" stroke-width="1.51"/><path d="M1672,1395L1957,1395L1957,1110Z" fill="#0a7331" stroke="#0a7331" stroke-width="1.51"/><path d="M1672,1110L1672,1395L1957,1110Z" fill="#157d39" stroke="#157d39" stroke-width="1.51"/><path d="M1672,1110L1957,1110L1957,825Z" fill="#1d843f" stroke="#1d843f" stroke-width="1.51"/><path d="M1672,825L1672,1110L1957,825Z" fill="#278e47" stroke="#278e47" stroke-width="1.51"/><path d="M1672,825L1957,825L1957,540Z" fill="#33964d" stroke="#33964d" stroke-width="1.51"/><path d="M1672,540L1672,825L1957,540Z" fill="#429e55" stroke="#429e55" stroke-width="1.51"/><path d="M1672,540L1957,540L1957,255Z" fill="#52a35d" stroke="#52a35d" stroke-width="1.51"/><path d="M1672,255L1672,540L1957,255Z" fill="#5eab67" stroke="#5eab67" stroke-width="1.51"/><path d="M1672,255L1957,255L1957,-30Z" fill="#6bad71" stroke="#6bad71" stroke-width="1.51"/><path d="M1672,-30L1672,255L1957,-30Z" fill="#76b47b" stroke="#76b47b" stroke-width="1.51"/><path d="M1672,-30L1957,-30L1957,-315Z" fill="#7fb583" stroke="#7fb583" stroke-width="1.51"/><path d="M1672,-315L1672,-30L1957,-315Z" fill="#88bc8c" stroke="#88bc8c" stroke-width="1.51"/><path d="M1387,1395L1672,1395L1672,1110Z" fill="#197f3b" stroke="#197f3b" stroke-width="1.51"/><path d="M1387,1110L1387,1395L1672,1110Z" fill="#238943" stroke="#238943" stroke-width="1.51"/><path d="M1387,1110L1672,1110L1672,825Z" fill="#299049" stroke="#299049" stroke-width="1.51"/><path d="M1387,825L1387,1110L1672,825Z" fill="#339b51" stroke="#339b51" stroke-width="1.51"/><path d="M1387,825L1672,825L1672,540Z" fill="#3ea257" stroke="#3ea257" stroke-width="1.51"/><path d="M1387,540L1387,825L1672,540Z" fill="#4cab5f" stroke="#4cab5f" stroke-width="1.51"/><path d="M1387,540L1672,540L1672,255Z" fill="#5caf67" stroke="#5caf67" stroke-width="1.51"/><path d="M1387,255L1387,540L1672,255Z" fill="#69b871" stroke="#69b871" stroke-width="1.51"/><path d="M1387,255L1672,255L1672,-30Z" fill="#75ba7b" stroke="#75ba7b" stroke-width="1.51"/><path d="M1387,-30L1387,255L1672,-30Z" fill="#80c186" stroke="#80c186" stroke-width="1.51"/><path d="M1387,-30L1672,-30L1672,-315Z" fill="#89c28e" stroke="#89c28e" stroke-width="1.51"/><path d="M1387,-315L1387,-30L1672,-315Z" fill="#92c997" stroke="#92c997" stroke-width="1.51"/><path d="M1102,1395L1387,1395L1387,1110Z" fill="#288b44" stroke="#288b44" stroke-width="1.51"/><path d="M1102,1110L1102,1395L1387,1110Z" fill="#34954c" stroke="#34954c" stroke-width="1.51"/><path d="M1102,1110L1387,1110L1387,825Z" fill="#369d53" stroke="#369d53" stroke-width="1.51"/><path d="M1102,825L1102,1110L1387,825Z" fill="#43a65a" stroke="#43a65a" stroke-width="1.51"/><path d="M1102,825L1387,825L1387,540Z" fill="#4aaf61" stroke="#4aaf61" stroke-width="1.51"/><path d="M1102,540L1102,825L1387,540Z" fill="#5bb668" stroke="#5bb668" stroke-width="1.51"/><path d="M1102,540L1387,540L1387,255Z" fill="#67bd71" stroke="#67bd71" stroke-width="1.51"/><path d="M1102,255L1102,540L1387,255Z" fill="#76c47b" stroke="#76c47b" stroke-width="1.51"/><path d="M1102,255L1387,255L1387,-30Z" fill="#80c786" stroke="#80c786" stroke-width="1.51"/><path d="M1102,-30L1102,255L1387,-30Z" fill="#8dcd90" stroke="#8dcd90" stroke-width="1.51"/><path d="M1102,-30L1387,-30L1387,-315Z" fill="#94cf99" stroke="#94cf99" stroke-width="1.51"/><path d="M1102,-315L1102,-30L1387,-315Z" fill="#a0d4a2" stroke="#a0d4a2" stroke-width="1.51"/><path d="M817,1395L1102,1395L1102,1110Z" fill="#3f954e" stroke="#3f954e" stroke-width="1.51"/><path d="M817,1110L817,1395L1102,1110Z" fill="#4a9e57" stroke="#4a9e57" stroke-width="1.51"/><path d="M817,1110L1102,1110L1102,825Z" fill="#4da75d" stroke="#4da75d" stroke-width="1.51"/><path d="M817,825L817,1110L1102,825Z" fill="#58b065" stroke="#58b065" stroke-width="1.51"/><path d="M817,825L1102,825L1102,540Z" fill="#5eb96b" stroke="#5eb96b" stroke-width="1.51"/><path d="M817,540L817,825L1102,540Z" fill="#6ec073" stroke="#6ec073" stroke-width="1.51"/><path d="M817,540L1102,540L1102,255Z" fill="#7ac77b" stroke="#7ac77b" stroke-width="1.51"/><path d="M817,255L817,540L1102,255Z" fill="#89ce86" stroke="#89ce86" stroke-width="1.51"/><path d="M817,255L1102,255L1102,-30Z" fill="#92d190" stroke="#92d190" stroke-width="1.51"/><path d="M817,-30L817,255L1102,-30Z" fill="#9fd79b" stroke="#9fd79b" stroke-width="1.51"/><path d="M817,-30L1102,-30L1102,-315Z" fill="#a6d9a3" stroke="#a6d9a3" stroke-width="1.51"/><path d="M817,-315L817,-30L1102,-315Z" fill="#b1dead" stroke="#b1dead" stroke-width="1.51"/><path d="M532,1395L817,1395L817,1110Z" fill="#539d5b" stroke="#539d5b" stroke-width="1.51"/><path d="M532,1110L532,1395L817,1110Z" fill="#5ea765" stroke="#5ea765" stroke-width="1.51"/><path d="M532,1110L817,1110L817,825Z" fill="#60b06a" stroke="#60b06a" stroke-width="1.51"/><path d="M532,825L532,1110L817,825Z" fill="#6cb974" stroke="#6cb974" stroke-width="1.51"/><path d="M532,825L817,825L817,540Z" fill="#72c279" stroke="#72c279" stroke-width="1.51"/><path d="M532,540L532,825L817,540Z" fill="#81c982" stroke="#81c982" stroke-width="1.51"/><path d="M532,540L817,540L817,255Z" fill="#8ccf89" stroke="#8ccf89" stroke-width="1.51"/><path d="M532,255L532,540L817,255Z" fill="#9bd695" stroke="#9bd695" stroke-width="1.51"/><path d="M532,255L817,255L817,-30Z" fill="#a4da9e" stroke="#a4da9e" stroke-width="1.51"/><path d="M532,-30L532,255L817,-30Z" fill="#b1e0aa" stroke="#b1e0aa" stroke-width="1.51"/><path d="M532,-30L817,-30L817,-315Z" fill="#b7e2b2" stroke="#b7e2b2" stroke-width="1.51"/><path d="M532,-315L532,-30L817,-315Z" fill="#c2e7bd" stroke="#c2e7bd" stroke-width="1.51"/><path d="M247,1395L532,1395L532,1110Z" fill="#65a569" stroke="#65a569" stroke-width="1.51"/><path d="M247,1110L247,1395L532,1110Z" fill="#6ead73" stroke="#6ead73" stroke-width="1.51"/><path d="M247,1110L532,1110L532,825Z" fill="#72b778" stroke="#72b778" stroke-width="1.51"/><path d="M247,825L247,1110L532,825Z" fill="#7cbf82" stroke="#7cbf82" stroke-width="1.51"/><path d="M247,825L532,825L532,540Z" fill="#83c987" stroke="#83c987" stroke-width="1.51"/><path d="M247,540L247,825L532,540Z" fill="#91d091" stroke="#91d091" stroke-width="1.51"/><path d="M247,540L532,540L532,255Z" fill="#9dd798" stroke="#9dd798" stroke-width="1.51"/><path d="M247,255L247,540L532,255Z" fill="#aadda4" stroke="#aadda4" stroke-width="1.51"/><path d="M247,255L532,255L532,-30Z" fill="#b4e1ad" stroke="#b4e1ad" stroke-width="1.51"/><path d="M247,-30L247,255L532,-30Z" fill="#c0e6b9" stroke="#c0e6b9" stroke-width="1.51"/><path d="M247,-30L532,-30L532,-315Z" fill="#c7e9c0" stroke="#c7e9c0" stroke-width="1.51"/><path d="M247,-315L247,-30L532,-315Z" fill="#d2edcb" stroke="#d2edcb" stroke-width="1.51"/><path d="M-38,1395L247,1395L247,1110Z" fill="#73aa77" stroke="#73aa77" stroke-width="1.51"/><path d="M-38,1110L-38,1395L247,1110Z" fill="#7cb27f" stroke="#7cb27f" stroke-width="1.51"/><path d="M-38,1110L247,1110L247,825Z" fill="#80bd86" stroke="#80bd86" stroke-width="1.51"/><path d="M-38,825L-38,1110L247,825Z" fill="#8ac58f" stroke="#8ac58f" stroke-width="1.51"/><path d="M-38,825L247,825L247,540Z" fill="#92cf95" stroke="#92cf95" stroke-width="1.51"/><path d="M-38,540L-38,825L247,540Z" fill="#9ed59e" stroke="#9ed59e" stroke-width="1.51"/><path d="M-38,540L247,540L247,255Z" fill="#abdca6" stroke="#abdca6" stroke-width="1.51"/><path d="M-38,255L-38,540L247,255Z" fill="#b7e2b1" stroke="#b7e2b1" stroke-width="1.51"/><path d="M-38,255L247,255L247,-30Z" fill="#c2e7bb" stroke="#c2e7bb" stroke-width="1.51"/><path d="M-38,-30L-38,255L247,-30Z" fill="#cdebc6" stroke="#cdebc6" stroke-width="1.51"/><path d="M-38,-30L247,-30L247,-315Z" fill="#d5efcf" stroke="#d5efcf" stroke-width="1.51"/><path d="M-38,-315L-38,-30L247,-315Z" fill="#dff2d9" stroke="#dff2d9" stroke-width="1.51"/><path d="M-323,1395L-38,1395L-38,1110Z" fill="#7faf82" stroke="#7faf82" stroke-width="1.51"/><path d="M-323,1110L-323,1395L-38,1110Z" fill="#86b68a" stroke="#86b68a" stroke-width="1.51"/><path d="M-323,1110L-38,1110L-38,825Z" fill="#8cc191" stroke="#8cc191" stroke-width="1.51"/><path d="M-323,825L-323,1110L-38,825Z" fill="#94c999" stroke="#94c999" stroke-width="1.51"/><path d="M-323,825L-38,825L-38,540Z" fill="#9ed3a1" stroke="#9ed3a1" stroke-width="1.51"/><path d="M-323,540L-323,825L-38,540Z" fill="#a9d9a8" stroke="#a9d9a8" stroke-width="1.51"/><path d="M-323,540L-38,540L-38,255Z" fill="#b7e1b2" stroke="#b7e1b2" stroke-width="1.51"/><path d="M-323,255L-323,540L-38,255Z" fill="#c2e6bc" stroke="#c2e6bc" stroke-width="1.51"/><path d="M-323,255L-38,255L-38,-30Z" fill="#ceebc7" stroke="#ceebc7" stroke-width="1.51"/><path d="M-323,-30L-323,255L-38,-30Z" fill="#d7efd1" stroke="#d7efd1" stroke-width="1.51"/><path d="M-323,-30L-38,-30L-38,-315Z" fill="#e1f3db" stroke="#e1f3db" stroke-width="1.51"/><path d="M-323,-315L-323,-30L-38,-315Z" fill="#e9f6e4" stroke="#e9f6e4" stroke-width="1.51"/></svg>