<svg xmlns="http://www.w3.org/2000/svg" width="1920" height="1080"><path d="M1230,1398L756,1412L1398,1432Z" fill="#307a85" stroke="#307a85" stroke-width="1.51"/><path d="M1922,904L1917,1010L2183,750Z" fill="#1b7b82" stroke="#1b7b82" stroke-width="1.51"/><path d="M1841,189L2184,432L2285,356Z" fill="#5a8f92" stroke="#5a8f92" stroke-width="1.51"/><path d="M2184,432L2183,750L2285,356Z" fill="#3f8188" stroke="#3f8188" stroke-width="1.51"/><path d="M1937,-208L1862,-79L2286,-162Z" fill="#81a4a0" stroke="#81a4a0" stroke-width="1.51"/><path d="M1841,189L2285,356L2286,-162Z" fill="#6c9495" stroke="#6c9495" stroke-width="1.51"/><path d="M1862,-79L1841,189L2286,-162Z" fill="#7aa1a0" stroke="#7aa1a0" stroke-width="1.51"/><path d="M1322,-424L1759,-353L2306,-267Z" fill="#8fb3b5" stroke="#8fb3b5" stroke-width="1.51"/><path d="M1759,-353L1937,-208L2306,-267Z" fill="#87aaa5" stroke="#87aaa5" stroke-width="1.51"/><path d="M2286,-162L2285,356L2306,-267Z" fill="#72918f" stroke="#72918f" stroke-width="1.51"/><path d="M2183,750L1917,1010L2314,1162Z" fill="#107272" stroke="#107272" stroke-width="1.51"/><path d="M2285,356L2183,750L2314,1162Z" fill="#25727f" stroke="#25727f" stroke-width="1.51"/><path d="M2306,-267L2285,356L2314,1162Z" fill="#4a8086" stroke="#4a8086" stroke-width="1.51"/><path d="M1816,1321L1398,1432L2315,1273Z" fill="#046d61" stroke="#046d61" stroke-width="1.51"/><path d="M2314,1162L1917,1010L2315,1273Z" fill="#04695f" stroke="#04695f" stroke-width="1.51"/><path d="M1917,1010L1816,1321L2315,1273Z" fill="#037062" stroke="#037062" stroke-width="1.51"/><path d="M1937,-208L2286,-162L2306,-267Z" fill="#809e99" stroke="#809e99" stroke-width="1.51"/><path d="M629,-438L829,-395L1322,-424Z" fill="#b8cfe5" stroke="#b8cfe5" stroke-width="1.51"/><path d="M1918,659L1922,904L2183,750Z" fill="#277f8d" stroke="#277f8d" stroke-width="1.51"/><path d="M1918,659L2183,750L2184,432Z" fill="#36838c" stroke="#36838c" stroke-width="1.51"/><path d="M1798,430L1918,659L2184,432Z" fill="#448e97" stroke="#448e97" stroke-width="1.51"/><path d="M1841,189L1798,430L2184,432Z" fill="#5a949d" stroke="#5a949d" stroke-width="1.51"/><path d="M1581,1195L1614,1259L1816,1321Z" fill="#057774" stroke="#057774" stroke-width="1.51"/><path d="M1581,1195L1816,1321L1917,1010Z" fill="#057875" stroke="#057875" stroke-width="1.51"/><path d="M1918,659L1636,710L1922,904Z" fill="#29869b" stroke="#29869b" stroke-width="1.51"/><path d="M1759,-353L1862,-79L1937,-208Z" fill="#88acae" stroke="#88acae" stroke-width="1.51"/><path d="M1636,710L1581,1195L1917,1010Z" fill="#0f828e" stroke="#0f828e" stroke-width="1.51"/><path d="M1798,430L1636,710L1918,659Z" fill="#3b8ea2" stroke="#3b8ea2" stroke-width="1.51"/><path d="M1636,710L1917,1010L1922,904Z" fill="#1c8291" stroke="#1c8291" stroke-width="1.51"/><path d="M1384,943L1581,1195L1636,710Z" fill="#1e869e" stroke="#1e869e" stroke-width="1.51"/><path d="M1614,1259L1398,1432L1816,1321Z" fill="#0d7472" stroke="#0d7472" stroke-width="1.51"/><path d="M1530,389L1798,430L1841,189Z" fill="#5f9cad" stroke="#5f9cad" stroke-width="1.51"/><path d="M1545,38L1841,189L1862,-79Z" fill="#7ba6b1" stroke="#7ba6b1" stroke-width="1.51"/><path d="M1759,-353L1545,38L1862,-79Z" fill="#86adb7" stroke="#86adb7" stroke-width="1.51"/><path d="M1545,38L1530,389L1841,189Z" fill="#70a3b6" stroke="#70a3b6" stroke-width="1.51"/><path d="M1412,-43L1545,38L1759,-353Z" fill="#8bb0c2" stroke="#8bb0c2" stroke-width="1.51"/><path d="M1530,389L1636,710L1798,430Z" fill="#4796ae" stroke="#4796ae" stroke-width="1.51"/><path d="M1322,-424L1412,-43L1759,-353Z" fill="#96b7cb" stroke="#96b7cb" stroke-width="1.51"/><path d="M161,1264L-331,1318L756,1412Z" fill="#769b9a" stroke="#769b9a" stroke-width="1.51"/><path d="M1333,117L1530,389L1545,38Z" fill="#7aa8c4" stroke="#7aa8c4" stroke-width="1.51"/><path d="M1530,389L1411,448L1636,710Z" fill="#4c99b8" stroke="#4c99b8" stroke-width="1.51"/><path d="M1411,448L1384,943L1636,710Z" fill="#3991b6" stroke="#3991b6" stroke-width="1.51"/><path d="M1384,943L1370,1208L1581,1195Z" fill="#1c8393" stroke="#1c8393" stroke-width="1.51"/><path d="M1581,1195L1370,1208L1614,1259Z" fill="#167c83" stroke="#167c83" stroke-width="1.51"/><path d="M1370,1208L1398,1432L1614,1259Z" fill="#1b7a80" stroke="#1b7a80" stroke-width="1.51"/><path d="M1136,823L1384,943L1411,448Z" fill="#3d92c1" stroke="#3d92c1" stroke-width="1.51"/><path d="M1322,-424L1167,-180L1412,-43Z" fill="#9db9d9" stroke="#9db9d9" stroke-width="1.51"/><path d="M1333,117L1411,448L1530,389Z" fill="#6ea3c4" stroke="#6ea3c4" stroke-width="1.51"/><path d="M1412,-43L1333,117L1545,38Z" fill="#88aeca" stroke="#88aeca" stroke-width="1.51"/><path d="M1212,1182L1370,1208L1384,943Z" fill="#23869d" stroke="#23869d" stroke-width="1.51"/><path d="M1370,1208L1230,1398L1398,1432Z" fill="#237985" stroke="#237985" stroke-width="1.51"/><path d="M1333,117L986,385L1411,448Z" fill="#76a8ce" stroke="#76a8ce" stroke-width="1.51"/><path d="M1055,613L1136,823L1411,448Z" fill="#509cc7" stroke="#509cc7" stroke-width="1.51"/><path d="M1092,-13L1333,117L1412,-43Z" fill="#90b2d5" stroke="#90b2d5" stroke-width="1.51"/><path d="M1167,-180L1092,-13L1412,-43Z" fill="#99b7d8" stroke="#99b7d8" stroke-width="1.51"/><path d="M986,385L1055,613L1411,448Z" fill="#64a5cc" stroke="#64a5cc" stroke-width="1.51"/><path d="M-76,1267L-331,1318L161,1264Z" fill="#83a6a1" stroke="#83a6a1" stroke-width="1.51"/><path d="M1212,1182L1230,1398L1370,1208Z" fill="#29808f" stroke="#29808f" stroke-width="1.51"/><path d="M1136,823L1212,1182L1384,943Z" fill="#2f8dac" stroke="#2f8dac" stroke-width="1.51"/><path d="M603,1340L161,1264L756,1412Z" fill="#659395" stroke="#659395" stroke-width="1.51"/><path d="M1092,-13L986,385L1333,117Z" fill="#8bb1d5" stroke="#8bb1d5" stroke-width="1.51"/><path d="M1136,823L959,993L1212,1182Z" fill="#3a91ad" stroke="#3a91ad" stroke-width="1.51"/><path d="M829,-395L1167,-180L1322,-424Z" fill="#abc5df" stroke="#abc5df" stroke-width="1.51"/><path d="M876,139L986,385L1092,-13Z" fill="#92b7d7" stroke="#92b7d7" stroke-width="1.51"/><path d="M1212,1182L756,1412L1230,1398Z" fill="#36838d" stroke="#36838d" stroke-width="1.51"/><path d="M959,993L756,1412L1212,1182Z" fill="#3e8e9b" stroke="#3e8e9b" stroke-width="1.51"/><path d="M1055,613L927,694L1136,823Z" fill="#539dc8" stroke="#539dc8" stroke-width="1.51"/><path d="M829,-395L1092,-13L1167,-180Z" fill="#aac2de" stroke="#aac2de" stroke-width="1.51"/><path d="M829,-395L709,-7L1092,-13Z" fill="#b0c5e0" stroke="#b0c5e0" stroke-width="1.51"/><path d="M927,694L959,993L1136,823Z" fill="#4b99c1" stroke="#4b99c1" stroke-width="1.51"/><path d="M709,-7L876,139L1092,-13Z" fill="#a4bfdc" stroke="#a4bfdc" stroke-width="1.51"/><path d="M596,1220L756,1412L959,993Z" fill="#53939d" stroke="#53939d" stroke-width="1.51"/><path d="M748,502L927,694L986,385Z" fill="#70abd1" stroke="#70abd1" stroke-width="1.51"/><path d="M986,385L927,694L1055,613Z" fill="#64a7ce" stroke="#64a7ce" stroke-width="1.51"/><path d="M927,694L480,849L959,993Z" fill="#60a0c4" stroke="#60a0c4" stroke-width="1.51"/><path d="M876,139L748,502L986,385Z" fill="#8ab4d5" stroke="#8ab4d5" stroke-width="1.51"/><path d="M583,-137L709,-7L829,-395Z" fill="#c0cbe4" stroke="#c0cbe4" stroke-width="1.51"/><path d="M480,849L596,1220L959,993Z" fill="#619db2" stroke="#619db2" stroke-width="1.51"/><path d="M-113,-356L375,-318L629,-438Z" fill="#e1dfed" stroke="#e1dfed" stroke-width="1.51"/><path d="M550,445L748,502L876,139Z" fill="#94b7d7" stroke="#94b7d7" stroke-width="1.51"/><path d="M748,502L480,849L927,694Z" fill="#73a9ce" stroke="#73a9ce" stroke-width="1.51"/><path d="M629,-438L583,-137L829,-395Z" fill="#c8d2e7" stroke="#c8d2e7" stroke-width="1.51"/><path d="M709,-7L550,445L876,139Z" fill="#a6bedb" stroke="#a6bedb" stroke-width="1.51"/><path d="M596,1220L603,1340L756,1412Z" fill="#5b9094" stroke="#5b9094" stroke-width="1.51"/><path d="M417,382L550,445L709,-7Z" fill="#aabfdc" stroke="#aabfdc" stroke-width="1.51"/><path d="M550,445L480,849L748,502Z" fill="#85b0d3" stroke="#85b0d3" stroke-width="1.51"/><path d="M480,849L362,1136L596,1220Z" fill="#6ea1b0" stroke="#6ea1b0" stroke-width="1.51"/><path d="M583,-137L373,-127L709,-7Z" fill="#c6cde4" stroke="#c6cde4" stroke-width="1.51"/><path d="M373,-127L417,382L709,-7Z" fill="#bec8e1" stroke="#bec8e1" stroke-width="1.51"/><path d="M205,769L480,849L550,445Z" fill="#8ab1d4" stroke="#8ab1d4" stroke-width="1.51"/><path d="M375,-318L583,-137L629,-438Z" fill="#d1d5e9" stroke="#d1d5e9" stroke-width="1.51"/><path d="M417,382L151,614L550,445Z" fill="#9ebcda" stroke="#9ebcda" stroke-width="1.51"/><path d="M151,614L205,769L550,445Z" fill="#97b8d8" stroke="#97b8d8" stroke-width="1.51"/><path d="M375,-318L373,-127L583,-137Z" fill="#d2d3e8" stroke="#d2d3e8" stroke-width="1.51"/><path d="M596,1220L362,1136L603,1340Z" fill="#67999f" stroke="#67999f" stroke-width="1.51"/><path d="M362,1136L161,1264L603,1340Z" fill="#709c9f" stroke="#709c9f" stroke-width="1.51"/><path d="M373,-127L145,338L417,382Z" fill="#c0c8e2" stroke="#c0c8e2" stroke-width="1.51"/><path d="M-9,115L145,338L373,-127Z" fill="#ced0e6" stroke="#ced0e6" stroke-width="1.51"/><path d="M205,769L362,1136L480,849Z" fill="#7fa9c3" stroke="#7fa9c3" stroke-width="1.51"/><path d="M145,338L151,614L417,382Z" fill="#abc1dd" stroke="#abc1dd" stroke-width="1.51"/><path d="M205,769L161,1264L362,1136Z" fill="#7da8b5" stroke="#7da8b5" stroke-width="1.51"/><path d="M-113,-356L-116,-22L373,-127Z" fill="#e4dced" stroke="#e4dced" stroke-width="1.51"/><path d="M-113,-356L373,-127L375,-318Z" fill="#e1dded" stroke="#e1dded" stroke-width="1.51"/><path d="M-116,-22L-9,115L373,-127Z" fill="#dad7e9" stroke="#dad7e9" stroke-width="1.51"/><path d="M-134,1084L161,1264L205,769Z" fill="#84adb9" stroke="#84adb9" stroke-width="1.51"/><path d="M145,338L-72,622L151,614Z" fill="#a8c1de" stroke="#a8c1de" stroke-width="1.51"/><path d="M-134,1084L-76,1267L161,1264Z" fill="#83a8a9" stroke="#83a8a9" stroke-width="1.51"/><path d="M151,614L-65,770L205,769Z" fill="#99b7d7" stroke="#99b7d7" stroke-width="1.51"/><path d="M-65,770L-134,1084L205,769Z" fill="#92b3cd" stroke="#92b3cd" stroke-width="1.51"/><path d="M-72,622L-65,770L151,614Z" fill="#a0bcda" stroke="#a0bcda" stroke-width="1.51"/><path d="M-367,473L-72,622L-9,115Z" fill="#becce4" stroke="#becce4" stroke-width="1.51"/><path d="M-9,115L-72,622L145,338Z" fill="#bdcae2" stroke="#bdcae2" stroke-width="1.51"/><path d="M-244,-291L-283,-110L-116,-22Z" fill="#ebe2f0" stroke="#ebe2f0" stroke-width="1.51"/><path d="M-244,-291L-116,-22L-113,-356Z" fill="#eee4f2" stroke="#eee4f2" stroke-width="1.51"/><path d="M-116,-22L-386,224L-9,115Z" fill="#dad9ea" stroke="#dad9ea" stroke-width="1.51"/><path d="M-386,224L-367,473L-9,115Z" fill="#cfd5e8" stroke="#cfd5e8" stroke-width="1.51"/><path d="M-134,1084L-280,1211L-76,1267Z" fill="#89acad" stroke="#89acad" stroke-width="1.51"/><path d="M-409,955L-134,1084L-65,770Z" fill="#95b7c9" stroke="#95b7c9" stroke-width="1.51"/><path d="M-72,622L-367,473L-65,770Z" fill="#a9c3de" stroke="#a9c3de" stroke-width="1.51"/><path d="M-367,473L-409,955L-65,770Z" fill="#a4c0dc" stroke="#a4c0dc" stroke-width="1.51"/><path d="M-280,1211L-331,1318L-76,1267Z" fill="#88aba5" stroke="#88aba5" stroke-width="1.51"/><path d="M-283,-110L-386,224L-116,-22Z" fill="#e2deed" stroke="#e2deed" stroke-width="1.51"/><path d="M-409,955L-280,1211L-134,1084Z" fill="#8fb4b9" stroke="#8fb4b9" stroke-width="1.51"/><path d="M-386,224L-283,-110L-244,-291Z" fill="#e8e2f0" stroke="#e8e2f0" stroke-width="1.51"/><path d="M-409,955L-331,1318L-280,1211Z" fill="#8eb3b2" stroke="#8eb3b2" stroke-width="1.51"/><path d="M-386,224L-409,955L-367,473Z" fill="#b4cce3" stroke="#b4cce3" stroke-width="1.51"/></svg>