<svg xmlns="http://www.w3.org/2000/svg" width="1920" height="1080"><path d="M1980,1260L2100,1260L2100,1140Z" fill="#41156a" stroke="#41156a" stroke-width="1.51"/><path d="M1980,1140L1980,1260L2100,1140Z" fill="#491d77" stroke="#491d77" stroke-width="1.51"/><path d="M1980,1140L2100,1140L2100,1020Z" fill="#522c7d" stroke="#522c7d" stroke-width="1.51"/><path d="M1980,1020L1980,1140L2100,1020Z" fill="#5b3987" stroke="#5b3987" stroke-width="1.51"/><path d="M1980,1020L2100,1020L2100,900Z" fill="#64478b" stroke="#64478b" stroke-width="1.51"/><path d="M1980,900L1980,1020L2100,900Z" fill="#6d5194" stroke="#6d5194" stroke-width="1.51"/><path d="M1980,900L2100,900L2100,780Z" fill="#775b99" stroke="#775b99" stroke-width="1.51"/><path d="M1980,780L1980,900L2100,780Z" fill="#7f64a2" stroke="#7f64a2" stroke-width="1.51"/><path d="M1980,780L2100,780L2100,660Z" fill="#856ca3" stroke="#856ca3" stroke-width="1.51"/><path d="M1980,660L1980,780L2100,660Z" fill="#8e75ab" stroke="#8e75ab" stroke-width="1.51"/><path d="M1980,660L2100,660L2100,540Z" fill="#9278a9" stroke="#9278a9" stroke-width="1.51"/><path d="M1980,540L1980,660L2100,540Z" fill="#997fb0" stroke="#997fb0" stroke-width="1.51"/><path d="M1980,540L2100,540L2100,420Z" fill="#9b7ca4" stroke="#9b7ca4" stroke-width="1.51"/><path d="M1980,420L1980,540L2100,420Z" fill="#a07da2" stroke="#a07da2" stroke-width="1.51"/><path d="M1980,420L2100,420L2100,300Z" fill="#9f748d" stroke="#9f748d" stroke-width="1.51"/><path d="M1980,300L1980,420L2100,300Z" fill="#a37289" stroke="#a37289" stroke-width="1.51"/><path d="M1980,300L2100,300L2100,180Z" fill="#a06471" stroke="#a06471" stroke-width="1.51"/><path d="M1980,180L1980,300L2100,180Z" fill="#a4626d" stroke="#a4626d" stroke-width="1.51"/><path d="M1980,180L2100,180L2100,60Z" fill="#9a5158" stroke="#9a5158" stroke-width="1.51"/><path d="M1980,60L1980,180L2100,60Z" fill="#9c4e55" stroke="#9c4e55" stroke-width="1.51"/><path d="M1980,60L2100,60L2100,-60Z" fill="#8e3f48" stroke="#8e3f48" stroke-width="1.51"/><path d="M1980,-60L1980,60L2100,-60Z" fill="#8d3d4a" stroke="#8d3d4a" stroke-width="1.51"/><path d="M1980,-60L2100,-60L2100,-180Z" fill="#7e3041" stroke="#7e3041" stroke-width="1.51"/><path d="M1980,-180L1980,-60L2100,-180Z" fill="#7b3044" stroke="#7b3044" stroke-width="1.51"/><path d="M1860,1260L1980,1260L1980,1140Z" fill="#4b1f7a" stroke="#4b1f7a" stroke-width="1.51"/><path d="M1860,1140L1860,1260L1980,1140Z" fill="#542986" stroke="#542986" stroke-width="1.51"/><path d="M1860,1140L1980,1140L1980,1020Z" fill="#5c368d" stroke="#5c368d" stroke-width="1.51"/><path d="M1860,1020L1860,1140L1980,1020Z" fill="#654496" stroke="#654496" stroke-width="1.51"/><path d="M1860,1020L1980,1020L1980,900Z" fill="#6e519b" stroke="#6e519b" stroke-width="1.51"/><path d="M1860,900L1860,1020L1980,900Z" fill="#785ca3" stroke="#785ca3" stroke-width="1.51"/><path d="M1860,900L1980,900L1980,780Z" fill="#8165a9" stroke="#8165a9" stroke-width="1.51"/><path d="M1860,780L1860,900L1980,780Z" fill="#8a70b1" stroke="#8a70b1" stroke-width="1.51"/><path d="M1860,780L1980,780L1980,660Z" fill="#9077b3" stroke="#9077b3" stroke-width="1.51"/><path d="M1860,660L1860,780L1980,660Z" fill="#9981ba" stroke="#9981ba" stroke-width="1.51"/><path d="M1860,660L1980,660L1980,540Z" fill="#9d83ba" stroke="#9d83ba" stroke-width="1.51"/><path d="M1860,540L1860,660L1980,540Z" fill="#a58bbf" stroke="#a58bbf" stroke-width="1.51"/><path d="M1860,540L1980,540L1980,420Z" fill="#a787b5" stroke="#a787b5" stroke-width="1.51"/><path d="M1860,420L1860,540L1980,420Z" fill="#ac89b1" stroke="#ac89b1" stroke-width="1.51"/><path d="M1860,420L1980,420L1980,300Z" fill="#ab7e9e" stroke="#ab7e9e" stroke-width="1.51"/><path d="M1860,300L1860,420L1980,300Z" fill="#af7e98" stroke="#af7e98" stroke-width="1.51"/><path d="M1860,300L1980,300L1980,180Z" fill="#ad6f80" stroke="#ad6f80" stroke-width="1.51"/><path d="M1860,180L1860,300L1980,180Z" fill="#b16e7b" stroke="#b16e7b" stroke-width="1.51"/><path d="M1860,180L1980,180L1980,60Z" fill="#a75b67" stroke="#a75b67" stroke-width="1.51"/><path d="M1860,60L1860,180L1980,60Z" fill="#a85a63" stroke="#a85a63" stroke-width="1.51"/><path d="M1860,60L1980,60L1980,-60Z" fill="#9b4956" stroke="#9b4956" stroke-width="1.51"/><path d="M1860,-60L1860,60L1980,-60Z" fill="#994957" stroke="#994957" stroke-width="1.51"/><path d="M1860,-60L1980,-60L1980,-180Z" fill="#8a3a4f" stroke="#8a3a4f" stroke-width="1.51"/><path d="M1860,-180L1860,-60L1980,-180Z" fill="#873b51" stroke="#873b51" stroke-width="1.51"/><path d="M1740,1260L1860,1260L1860,1140Z" fill="#573184" stroke="#573184" stroke-width="1.51"/><path d="M1740,1140L1740,1260L1860,1140Z" fill="#603c8f" stroke="#603c8f" stroke-width="1.51"/><path d="M1740,1140L1860,1140L1860,1020Z" fill="#674797" stroke="#674797" stroke-width="1.51"/><path d="M1740,1020L1740,1140L1860,1020Z" fill="#71579f" stroke="#71579f" stroke-width="1.51"/><path d="M1740,1020L1860,1020L1860,900Z" fill="#7862a5" stroke="#7862a5" stroke-width="1.51"/><path d="M1740,900L1740,1020L1860,900Z" fill="#836fac" stroke="#836fac" stroke-width="1.51"/><path d="M1740,900L1860,900L1860,780Z" fill="#8b77b3" stroke="#8b77b3" stroke-width="1.51"/><path d="M1740,780L1740,900L1860,780Z" fill="#9583ba" stroke="#9583ba" stroke-width="1.51"/><path d="M1740,780L1860,780L1860,660Z" fill="#9b88bd" stroke="#9b88bd" stroke-width="1.51"/><path d="M1740,660L1740,780L1860,660Z" fill="#a394c3" stroke="#a394c3" stroke-width="1.51"/><path d="M1740,660L1860,660L1860,540Z" fill="#a795c4" stroke="#a795c4" stroke-width="1.51"/><path d="M1740,540L1740,660L1860,540Z" fill="#af9fc8" stroke="#af9fc8" stroke-width="1.51"/><path d="M1740,540L1860,540L1860,420Z" fill="#b199bf" stroke="#b199bf" stroke-width="1.51"/><path d="M1740,420L1740,540L1860,420Z" fill="#b69dba" stroke="#b69dba" stroke-width="1.51"/><path d="M1740,420L1860,420L1860,300Z" fill="#b590a7" stroke="#b590a7" stroke-width="1.51"/><path d="M1740,300L1740,420L1860,300Z" fill="#ba92a0" stroke="#ba92a0" stroke-width="1.51"/><path d="M1740,300L1860,300L1860,180Z" fill="#b8818a" stroke="#b8818a" stroke-width="1.51"/><path d="M1740,180L1740,300L1860,180Z" fill="#bc8283" stroke="#bc8283" stroke-width="1.51"/><path d="M1740,180L1860,180L1860,60Z" fill="#b26d70" stroke="#b26d70" stroke-width="1.51"/><path d="M1740,60L1740,180L1860,60Z" fill="#b46e6a" stroke="#b46e6a" stroke-width="1.51"/><path d="M1740,60L1860,60L1860,-60Z" fill="#a65b5f" stroke="#a65b5f" stroke-width="1.51"/><path d="M1740,-60L1740,60L1860,-60Z" fill="#a55d5e" stroke="#a55d5e" stroke-width="1.51"/><path d="M1740,-60L1860,-60L1860,-180Z" fill="#954c58" stroke="#954c58" stroke-width="1.51"/><path d="M1740,-180L1740,-60L1860,-180Z" fill="#924f58" stroke="#924f58" stroke-width="1.51"/><path d="M1620,1260L1740,1260L1740,1140Z" fill="#62448d" stroke="#62448d" stroke-width="1.51"/><path d="M1620,1140L1620,1260L1740,1140Z" fill="#6b4e98" stroke="#6b4e98" stroke-width="1.51"/><path d="M1620,1140L1740,1140L1740,1020Z" fill="#725aa0" stroke="#725aa0" stroke-width="1.51"/><path d="M1620,1020L1620,1140L1740,1020Z" fill="#7b69a8" stroke="#7b69a8" stroke-width="1.51"/><path d="M1620,1020L1740,1020L1740,900Z" fill="#8375ae" stroke="#8375ae" stroke-width="1.51"/><path d="M1620,900L1620,1020L1740,900Z" fill="#8d81b5" stroke="#8d81b5" stroke-width="1.51"/><path d="M1620,900L1740,900L1740,780Z" fill="#968abc" stroke="#968abc" stroke-width="1.51"/><path d="M1620,780L1620,900L1740,780Z" fill="#9f95c3" stroke="#9f95c3" stroke-width="1.51"/><path d="M1620,780L1740,780L1740,660Z" fill="#a59cc6" stroke="#a59cc6" stroke-width="1.51"/><path d="M1620,660L1620,780L1740,660Z" fill="#ada7cc" stroke="#ada7cc" stroke-width="1.51"/><path d="M1620,660L1740,660L1740,540Z" fill="#b2a9cd" stroke="#b2a9cd" stroke-width="1.51"/><path d="M1620,540L1620,660L1740,540Z" fill="#b9b2d1" stroke="#b9b2d1" stroke-width="1.51"/><path d="M1620,540L1740,540L1740,420Z" fill="#bcadc8" stroke="#bcadc8" stroke-width="1.51"/><path d="M1620,420L1620,540L1740,420Z" fill="#c1b0c3" stroke="#c1b0c3" stroke-width="1.51"/><path d="M1620,420L1740,420L1740,300Z" fill="#bfa4b0" stroke="#bfa4b0" stroke-width="1.51"/><path d="M1620,300L1620,420L1740,300Z" fill="#c4a5a9" stroke="#c4a5a9" stroke-width="1.51"/><path d="M1620,300L1740,300L1740,180Z" fill="#c39592" stroke="#c39592" stroke-width="1.51"/><path d="M1620,180L1620,300L1740,180Z" fill="#c6958b" stroke="#c6958b" stroke-width="1.51"/><path d="M1620,180L1740,180L1740,60Z" fill="#bd8277" stroke="#bd8277" stroke-width="1.51"/><path d="M1620,60L1620,180L1740,60Z" fill="#bf8172" stroke="#bf8172" stroke-width="1.51"/><path d="M1620,60L1740,60L1740,-60Z" fill="#b27066" stroke="#b27066" stroke-width="1.51"/><path d="M1620,-60L1620,60L1740,-60Z" fill="#b07066" stroke="#b07066" stroke-width="1.51"/><path d="M1620,-60L1740,-60L1740,-180Z" fill="#a1605f" stroke="#a1605f" stroke-width="1.51"/><path d="M1620,-180L1620,-60L1740,-180Z" fill="#9d6260" stroke="#9d6260" stroke-width="1.51"/><path d="M1500,1260L1620,1260L1620,1140Z" fill="#6e5296" stroke="#6e5296" stroke-width="1.51"/><path d="M1500,1140L1500,1260L1620,1140Z" fill="#785ba1" stroke="#785ba1" stroke-width="1.51"/><path d="M1500,1140L1620,1140L1620,1020Z" fill="#7e68a9" stroke="#7e68a9" stroke-width="1.51"/><path d="M1500,1020L1500,1140L1620,1020Z" fill="#8876b1" stroke="#8876b1" stroke-width="1.51"/><path d="M1500,1020L1620,1020L1620,900Z" fill="#8f83b7" stroke="#8f83b7" stroke-width="1.51"/><path d="M1500,900L1500,1020L1620,900Z" fill="#998fbf" stroke="#998fbf" stroke-width="1.51"/><path d="M1500,900L1620,900L1620,780Z" fill="#a299c6" stroke="#a299c6" stroke-width="1.51"/><path d="M1500,780L1500,900L1620,780Z" fill="#aba3cc" stroke="#aba3cc" stroke-width="1.51"/><path d="M1500,780L1620,780L1620,660Z" fill="#b1abd0" stroke="#b1abd0" stroke-width="1.51"/><path d="M1500,660L1500,780L1620,660Z" fill="#bab5d6" stroke="#bab5d6" stroke-width="1.51"/><path d="M1500,660L1620,660L1620,540Z" fill="#beb8d6" stroke="#beb8d6" stroke-width="1.51"/><path d="M1500,540L1500,660L1620,540Z" fill="#c6c0db" stroke="#c6c0db" stroke-width="1.51"/><path d="M1500,540L1620,540L1620,420Z" fill="#c8bcd1" stroke="#c8bcd1" stroke-width="1.51"/><path d="M1500,420L1500,540L1620,420Z" fill="#cdbecc" stroke="#cdbecc" stroke-width="1.51"/><path d="M1500,420L1620,420L1620,300Z" fill="#cbb3b9" stroke="#cbb3b9" stroke-width="1.51"/><path d="M1500,300L1500,420L1620,300Z" fill="#d1b3b2" stroke="#d1b3b2" stroke-width="1.51"/><path d="M1500,300L1620,300L1620,180Z" fill="#cfa49a" stroke="#cfa49a" stroke-width="1.51"/><path d="M1500,180L1500,300L1620,180Z" fill="#d3a393" stroke="#d3a393" stroke-width="1.51"/><path d="M1500,180L1620,180L1620,60Z" fill="#ca9180" stroke="#ca9180" stroke-width="1.51"/><path d="M1500,60L1500,180L1620,60Z" fill="#cb8f7a" stroke="#cb8f7a" stroke-width="1.51"/><path d="M1500,60L1620,60L1620,-60Z" fill="#be7e6e" stroke="#be7e6e" stroke-width="1.51"/><path d="M1500,-60L1500,60L1620,-60Z" fill="#bc7e6e" stroke="#bc7e6e" stroke-width="1.51"/><path d="M1500,-60L1620,-60L1620,-180Z" fill="#ad6f67" stroke="#ad6f67" stroke-width="1.51"/><path d="M1500,-180L1500,-60L1620,-180Z" fill="#a96f68" stroke="#a96f68" stroke-width="1.51"/><path d="M1380,1260L1500,1260L1500,1140Z" fill="#7b5f9f" stroke="#7b5f9f" stroke-width="1.51"/><path d="M1380,1140L1380,1260L1500,1140Z" fill="#8468aa" stroke="#8468aa" stroke-width="1.51"/><path d="M1380,1140L1500,1140L1500,1020Z" fill="#8b76b3" stroke="#8b76b3" stroke-width="1.51"/><path d="M1380,1020L1380,1140L1500,1020Z" fill="#9484ba" stroke="#9484ba" stroke-width="1.51"/><path d="M1380,1020L1500,1020L1500,900Z" fill="#9b91c1" stroke="#9b91c1" stroke-width="1.51"/><path d="M1380,900L1380,1020L1500,900Z" fill="#a59dc8" stroke="#a59dc8" stroke-width="1.51"/><path d="M1380,900L1500,900L1500,780Z" fill="#afa7cf" stroke="#afa7cf" stroke-width="1.51"/><path d="M1380,780L1380,900L1500,780Z" fill="#b7b1d5" stroke="#b7b1d5" stroke-width="1.51"/><path d="M1380,780L1500,780L1500,660Z" fill="#bdb9d9" stroke="#bdb9d9" stroke-width="1.51"/><path d="M1380,660L1380,780L1500,660Z" fill="#c6c4df" stroke="#c6c4df" stroke-width="1.51"/><path d="M1380,660L1500,660L1500,540Z" fill="#cac7e0" stroke="#cac7e0" stroke-width="1.51"/><path d="M1380,540L1380,660L1500,540Z" fill="#d2cfe4" stroke="#d2cfe4" stroke-width="1.51"/><path d="M1380,540L1500,540L1500,420Z" fill="#d4cbdb" stroke="#d4cbdb" stroke-width="1.51"/><path d="M1380,420L1380,540L1500,420Z" fill="#d9cdd5" stroke="#d9cdd5" stroke-width="1.51"/><path d="M1380,420L1500,420L1500,300Z" fill="#d8c2c2" stroke="#d8c2c2" stroke-width="1.51"/><path d="M1380,300L1380,420L1500,300Z" fill="#ddc2ba" stroke="#ddc2ba" stroke-width="1.51"/><path d="M1380,300L1500,300L1500,180Z" fill="#dbb2a3" stroke="#dbb2a3" stroke-width="1.51"/><path d="M1380,180L1380,300L1500,180Z" fill="#dfb29b" stroke="#dfb29b" stroke-width="1.51"/><path d="M1380,180L1500,180L1500,60Z" fill="#d69f88" stroke="#d69f88" stroke-width="1.51"/><path d="M1380,60L1380,180L1500,60Z" fill="#d89d82" stroke="#d89d82" stroke-width="1.51"/><path d="M1380,60L1500,60L1500,-60Z" fill="#cb8d76" stroke="#cb8d76" stroke-width="1.51"/><path d="M1380,-60L1380,60L1500,-60Z" fill="#c88c76" stroke="#c88c76" stroke-width="1.51"/><path d="M1380,-60L1500,-60L1500,-180Z" fill="#b97d6f" stroke="#b97d6f" stroke-width="1.51"/><path d="M1380,-180L1380,-60L1500,-180Z" fill="#b57d70" stroke="#b57d70" stroke-width="1.51"/><path d="M1260,1260L1380,1260L1380,1140Z" fill="#856aa6" stroke="#856aa6" stroke-width="1.51"/><path d="M1260,1140L1260,1260L1380,1140Z" fill="#8d73b1" stroke="#8d73b1" stroke-width="1.51"/><path d="M1260,1140L1380,1140L1380,1020Z" fill="#9581b9" stroke="#9581b9" stroke-width="1.51"/><path d="M1260,1020L1260,1140L1380,1020Z" fill="#9d8fc0" stroke="#9d8fc0" stroke-width="1.51"/><path d="M1260,1020L1380,1020L1380,900Z" fill="#a59dc7" stroke="#a59dc7" stroke-width="1.51"/><path d="M1260,900L1260,1020L1380,900Z" fill="#afa8ce" stroke="#afa8ce" stroke-width="1.51"/><path d="M1260,900L1380,900L1380,780Z" fill="#b8b3d6" stroke="#b8b3d6" stroke-width="1.51"/><path d="M1260,780L1260,900L1380,780Z" fill="#c1bddc" stroke="#c1bddc" stroke-width="1.51"/><path d="M1260,780L1380,780L1380,660Z" fill="#c8c5e0" stroke="#c8c5e0" stroke-width="1.51"/><path d="M1260,660L1260,780L1380,660Z" fill="#d0cfe6" stroke="#d0cfe6" stroke-width="1.51"/><path d="M1260,660L1380,660L1380,540Z" fill="#d4d3e7" stroke="#d4d3e7" stroke-width="1.51"/><path d="M1260,540L1260,660L1380,540Z" fill="#dbdaeb" stroke="#dbdaeb" stroke-width="1.51"/><path d="M1260,540L1380,540L1380,420Z" fill="#ded7e1" stroke="#ded7e1" stroke-width="1.51"/><path d="M1260,420L1260,540L1380,420Z" fill="#e3d8dc" stroke="#e3d8dc" stroke-width="1.51"/><path d="M1260,420L1380,420L1380,300Z" fill="#e2cec9" stroke="#e2cec9" stroke-width="1.51"/><path d="M1260,300L1260,420L1380,300Z" fill="#e6cdc1" stroke="#e6cdc1" stroke-width="1.51"/><path d="M1260,300L1380,300L1380,180Z" fill="#e5bfa9" stroke="#e5bfa9" stroke-width="1.51"/><path d="M1260,180L1260,300L1380,180Z" fill="#e9bda1" stroke="#e9bda1" stroke-width="1.51"/><path d="M1260,180L1380,180L1380,60Z" fill="#e0ab8e" stroke="#e0ab8e" stroke-width="1.51"/><path d="M1260,60L1260,180L1380,60Z" fill="#e1a987" stroke="#e1a987" stroke-width="1.51"/><path d="M1260,60L1380,60L1380,-60Z" fill="#d5997c" stroke="#d5997c" stroke-width="1.51"/><path d="M1260,-60L1260,60L1380,-60Z" fill="#d2977b" stroke="#d2977b" stroke-width="1.51"/><path d="M1260,-60L1380,-60L1380,-180Z" fill="#c38974" stroke="#c38974" stroke-width="1.51"/><path d="M1260,-180L1260,-60L1380,-180Z" fill="#bf8875" stroke="#bf8875" stroke-width="1.51"/><path d="M1140,1260L1260,1260L1260,1140Z" fill="#8e75ac" stroke="#8e75ac" stroke-width="1.51"/><path d="M1140,1140L1140,1260L1260,1140Z" fill="#977db6" stroke="#977db6" stroke-width="1.51"/><path d="M1140,1140L1260,1140L1260,1020Z" fill="#9f8cc0" stroke="#9f8cc0" stroke-width="1.51"/><path d="M1140,1020L1140,1140L1260,1020Z" fill="#a799c6" stroke="#a799c6" stroke-width="1.51"/><path d="M1140,1020L1260,1020L1260,900Z" fill="#afa9ce" stroke="#afa9ce" stroke-width="1.51"/><path d="M1140,900L1140,1020L1260,900Z" fill="#b8b3d4" stroke="#b8b3d4" stroke-width="1.51"/><path d="M1140,900L1260,900L1260,780Z" fill="#c2bfdc" stroke="#c2bfdc" stroke-width="1.51"/><path d="M1140,780L1140,900L1260,780Z" fill="#cac8e1" stroke="#cac8e1" stroke-width="1.51"/><path d="M1140,780L1260,780L1260,660Z" fill="#d1d1e6" stroke="#d1d1e6" stroke-width="1.51"/><path d="M1140,660L1140,780L1260,660Z" fill="#d9daeb" stroke="#d9daeb" stroke-width="1.51"/><path d="M1140,660L1260,660L1260,540Z" fill="#dedfed" stroke="#dedfed" stroke-width="1.51"/><path d="M1140,540L1140,660L1260,540Z" fill="#e5e5f0" stroke="#e5e5f0" stroke-width="1.51"/><path d="M1140,540L1260,540L1260,420Z" fill="#e8e3e8" stroke="#e8e3e8" stroke-width="1.51"/><path d="M1140,420L1140,540L1260,420Z" fill="#ece3e1" stroke="#ece3e1" stroke-width="1.51"/><path d="M1140,420L1260,420L1260,300Z" fill="#ebdacf" stroke="#ebdacf" stroke-width="1.51"/><path d="M1140,300L1140,420L1260,300Z" fill="#f0d8c6" stroke="#f0d8c6" stroke-width="1.51"/><path d="M1140,300L1260,300L1260,180Z" fill="#efcbaf" stroke="#efcbaf" stroke-width="1.51"/><path d="M1140,180L1140,300L1260,180Z" fill="#f2c8a6" stroke="#f2c8a6" stroke-width="1.51"/><path d="M1140,180L1260,180L1260,60Z" fill="#eab793" stroke="#eab793" stroke-width="1.51"/><path d="M1140,60L1140,180L1260,60Z" fill="#eab38c" stroke="#eab38c" stroke-width="1.51"/><path d="M1140,60L1260,60L1260,-60Z" fill="#dea481" stroke="#dea481" stroke-width="1.51"/><path d="M1140,-60L1140,60L1260,-60Z" fill="#dba280" stroke="#dba280" stroke-width="1.51"/><path d="M1140,-60L1260,-60L1260,-180Z" fill="#cc947a" stroke="#cc947a" stroke-width="1.51"/><path d="M1140,-180L1140,-60L1260,-180Z" fill="#c8937a" stroke="#c8937a" stroke-width="1.51"/><path d="M1020,1260L1140,1260L1140,1140Z" fill="#967caf" stroke="#967caf" stroke-width="1.51"/><path d="M1020,1140L1020,1260L1140,1140Z" fill="#9e84b9" stroke="#9e84b9" stroke-width="1.51"/><path d="M1020,1140L1140,1140L1140,1020Z" fill="#a694c3" stroke="#a694c3" stroke-width="1.51"/><path d="M1020,1020L1020,1140L1140,1020Z" fill="#aea0c9" stroke="#aea0c9" stroke-width="1.51"/><path d="M1020,1020L1140,1020L1140,900Z" fill="#b7b0d1" stroke="#b7b0d1" stroke-width="1.51"/><path d="M1020,900L1020,1020L1140,900Z" fill="#c0bad7" stroke="#c0bad7" stroke-width="1.51"/><path d="M1020,900L1140,900L1140,780Z" fill="#cac7e0" stroke="#cac7e0" stroke-width="1.51"/><path d="M1020,780L1020,900L1140,780Z" fill="#d2cfe5" stroke="#d2cfe5" stroke-width="1.51"/><path d="M1020,780L1140,780L1140,660Z" fill="#d9d9ea" stroke="#d9d9ea" stroke-width="1.51"/><path d="M1020,660L1020,780L1140,660Z" fill="#e0e2ee" stroke="#e0e2ee" stroke-width="1.51"/><path d="M1020,660L1140,660L1140,540Z" fill="#e6e7f1" stroke="#e6e7f1" stroke-width="1.51"/><path d="M1020,540L1020,660L1140,540Z" fill="#ecedf3" stroke="#ecedf3" stroke-width="1.51"/><path d="M1020,540L1140,540L1140,420Z" fill="#f0ebeb" stroke="#f0ebeb" stroke-width="1.51"/><path d="M1020,420L1020,540L1140,420Z" fill="#f3ebe4" stroke="#f3ebe4" stroke-width="1.51"/><path d="M1020,420L1140,420L1140,300Z" fill="#f3e2d2" stroke="#f3e2d2" stroke-width="1.51"/><path d="M1020,300L1020,420L1140,300Z" fill="#f7e0c8" stroke="#f7e0c8" stroke-width="1.51"/><path d="M1020,300L1140,300L1140,180Z" fill="#f6d3b2" stroke="#f6d3b2" stroke-width="1.51"/><path d="M1020,180L1020,300L1140,180Z" fill="#f9d0a9" stroke="#f9d0a9" stroke-width="1.51"/><path d="M1020,180L1140,180L1140,60Z" fill="#f1bf96" stroke="#f1bf96" stroke-width="1.51"/><path d="M1020,60L1020,180L1140,60Z" fill="#f1bb8e" stroke="#f1bb8e" stroke-width="1.51"/><path d="M1020,60L1140,60L1140,-60Z" fill="#e6ac84" stroke="#e6ac84" stroke-width="1.51"/><path d="M1020,-60L1020,60L1140,-60Z" fill="#e2a982" stroke="#e2a982" stroke-width="1.51"/><path d="M1020,-60L1140,-60L1140,-180Z" fill="#d49c7d" stroke="#d49c7d" stroke-width="1.51"/><path d="M1020,-180L1020,-60L1140,-180Z" fill="#cf9a7c" stroke="#cf9a7c" stroke-width="1.51"/><path d="M900,1260L1020,1260L1020,1140Z" fill="#9d83b2" stroke="#9d83b2" stroke-width="1.51"/><path d="M900,1140L900,1260L1020,1140Z" fill="#a588b9" stroke="#a588b9" stroke-width="1.51"/><path d="M900,1140L1020,1140L1020,1020Z" fill="#ae9bc6" stroke="#ae9bc6" stroke-width="1.51"/><path d="M900,1020L900,1140L1020,1020Z" fill="#b5a5c9" stroke="#b5a5c9" stroke-width="1.51"/><path d="M900,1020L1020,1020L1020,900Z" fill="#beb7d4" stroke="#beb7d4" stroke-width="1.51"/><path d="M900,900L900,1020L1020,900Z" fill="#c7bfd7" stroke="#c7bfd7" stroke-width="1.51"/><path d="M900,900L1020,900L1020,780Z" fill="#d1cee3" stroke="#d1cee3" stroke-width="1.51"/><path d="M900,780L900,900L1020,780Z" fill="#d9d4e5" stroke="#d9d4e5" stroke-width="1.51"/><path d="M900,780L1020,780L1020,660Z" fill="#e0e1ed" stroke="#e0e1ed" stroke-width="1.51"/><path d="M900,660L900,780L1020,660Z" fill="#e8e7ee" stroke="#e8e7ee" stroke-width="1.51"/><path d="M900,660L1020,660L1020,540Z" fill="#eeeef4" stroke="#eeeef4" stroke-width="1.51"/><path d="M900,540L900,660L1020,540Z" fill="#f4f2f3" stroke="#f4f2f3" stroke-width="1.51"/><path d="M900,540L1020,540L1020,420Z" fill="#f7f3ee" stroke="#f7f3ee" stroke-width="1.51"/><path d="M900,420L900,540L1020,420Z" fill="#faf0e4" stroke="#faf0e4" stroke-width="1.51"/><path d="M900,420L1020,420L1020,300Z" fill="#faead5" stroke="#faead5" stroke-width="1.51"/><path d="M900,300L900,420L1020,300Z" fill="#fde5c8" stroke="#fde5c8" stroke-width="1.51"/><path d="M900,300L1020,300L1020,180Z" fill="#fddab5" stroke="#fddab5" stroke-width="1.51"/><path d="M900,180L900,300L1020,180Z" fill="#ffd5a8" stroke="#ffd5a8" stroke-width="1.51"/><path d="M900,180L1020,180L1020,60Z" fill="#f8c699" stroke="#f8c699" stroke-width="1.51"/><path d="M900,60L900,180L1020,60Z" fill="#f7c08e" stroke="#f7c08e" stroke-width="1.51"/><path d="M900,60L1020,60L1020,-60Z" fill="#edb386" stroke="#edb386" stroke-width="1.51"/><path d="M900,-60L900,60L1020,-60Z" fill="#e8ae82" stroke="#e8ae82" stroke-width="1.51"/><path d="M900,-60L1020,-60L1020,-180Z" fill="#dba37f" stroke="#dba37f" stroke-width="1.51"/><path d="M900,-180L900,-60L1020,-180Z" fill="#d49f7c" stroke="#d49f7c" stroke-width="1.51"/><path d="M780,1260L900,1260L900,1140Z" fill="#a17fa7" stroke="#a17fa7" stroke-width="1.51"/><path d="M780,1140L780,1260L900,1140Z" fill="#a882aa" stroke="#a882aa" stroke-width="1.51"/><path d="M780,1140L900,1140L900,1020Z" fill="#b297ba" stroke="#b297ba" stroke-width="1.51"/><path d="M780,1020L780,1140L900,1020Z" fill="#b89fb9" stroke="#b89fb9" stroke-width="1.51"/><path d="M780,1020L900,1020L900,900Z" fill="#c2b3c8" stroke="#c2b3c8" stroke-width="1.51"/><path d="M780,900L780,1020L900,900Z" fill="#cab9c7" stroke="#cab9c7" stroke-width="1.51"/><path d="M780,900L900,900L900,780Z" fill="#d5cad6" stroke="#d5cad6" stroke-width="1.51"/><path d="M780,780L780,900L900,780Z" fill="#dcced4" stroke="#dcced4" stroke-width="1.51"/><path d="M780,780L900,780L900,660Z" fill="#e4dde0" stroke="#e4dde0" stroke-width="1.51"/><path d="M780,660L780,780L900,660Z" fill="#eae1de" stroke="#eae1de" stroke-width="1.51"/><path d="M780,660L900,660L900,540Z" fill="#f1eae7" stroke="#f1eae7" stroke-width="1.51"/><path d="M780,540L780,660L900,540Z" fill="#f6ece2" stroke="#f6ece2" stroke-width="1.51"/><path d="M780,540L900,540L900,420Z" fill="#fbefe1" stroke="#fbefe1" stroke-width="1.51"/><path d="M780,420L780,540L900,420Z" fill="#fcead3" stroke="#fcead3" stroke-width="1.51"/><path d="M780,420L900,420L900,300Z" fill="#fde6c8" stroke="#fde6c8" stroke-width="1.51"/><path d="M780,300L780,420L900,300Z" fill="#fedfb8" stroke="#fedfb8" stroke-width="1.51"/><path d="M780,300L900,300L900,180Z" fill="#ffd6a8" stroke="#ffd6a8" stroke-width="1.51"/><path d="M780,180L780,300L900,180Z" fill="#ffcf98" stroke="#ffcf98" stroke-width="1.51"/><path d="M780,180L900,180L900,60Z" fill="#f9c28c" stroke="#f9c28c" stroke-width="1.51"/><path d="M780,60L780,180L900,60Z" fill="#f7ba7e" stroke="#f7ba7e" stroke-width="1.51"/><path d="M780,60L900,60L900,-60Z" fill="#edb07a" stroke="#edb07a" stroke-width="1.51"/><path d="M780,-60L780,60L900,-60Z" fill="#e7a872" stroke="#e7a872" stroke-width="1.51"/><path d="M780,-60L900,-60L900,-180Z" fill="#dc9f73" stroke="#dc9f73" stroke-width="1.51"/><path d="M780,-180L780,-60L900,-180Z" fill="#d4996c" stroke="#d4996c" stroke-width="1.51"/><path d="M660,1260L780,1260L780,1140Z" fill="#a47a97" stroke="#a47a97" stroke-width="1.51"/><path d="M660,1140L660,1260L780,1140Z" fill="#aa7d9a" stroke="#aa7d9a" stroke-width="1.51"/><path d="M660,1140L780,1140L780,1020Z" fill="#b591ab" stroke="#b591ab" stroke-width="1.51"/><path d="M660,1020L660,1140L780,1020Z" fill="#ba99a9" stroke="#ba99a9" stroke-width="1.51"/><path d="M660,1020L780,1020L780,900Z" fill="#c5aeb8" stroke="#c5aeb8" stroke-width="1.51"/><path d="M660,900L660,1020L780,900Z" fill="#ccb3b7" stroke="#ccb3b7" stroke-width="1.51"/><path d="M660,900L780,900L780,780Z" fill="#d8c4c6" stroke="#d8c4c6" stroke-width="1.51"/><path d="M660,780L660,900L780,780Z" fill="#dec8c4" stroke="#dec8c4" stroke-width="1.51"/><path d="M660,780L780,780L780,660Z" fill="#e7d7d0" stroke="#e7d7d0" stroke-width="1.51"/><path d="M660,660L660,780L780,660Z" fill="#ecdbcd" stroke="#ecdbcd" stroke-width="1.51"/><path d="M660,660L780,660L780,540Z" fill="#f4e5d6" stroke="#f4e5d6" stroke-width="1.51"/><path d="M660,540L660,660L780,540Z" fill="#f8e6d1" stroke="#f8e6d1" stroke-width="1.51"/><path d="M660,540L780,540L780,420Z" fill="#fce9d0" stroke="#fce9d0" stroke-width="1.51"/><path d="M660,420L660,540L780,420Z" fill="#fde4c2" stroke="#fde4c2" stroke-width="1.51"/><path d="M660,420L780,420L780,300Z" fill="#fee0b7" stroke="#fee0b7" stroke-width="1.51"/><path d="M660,300L660,420L780,300Z" fill="#ffd9a7" stroke="#ffd9a7" stroke-width="1.51"/><path d="M660,300L780,300L780,180Z" fill="#ffd198" stroke="#ffd198" stroke-width="1.51"/><path d="M660,180L660,300L780,180Z" fill="#fec987" stroke="#fec987" stroke-width="1.51"/><path d="M660,180L780,180L780,60Z" fill="#f9bd7c" stroke="#f9bd7c" stroke-width="1.51"/><path d="M660,60L660,180L780,60Z" fill="#f5b46d" stroke="#f5b46d" stroke-width="1.51"/><path d="M660,60L780,60L780,-60Z" fill="#ecaa6a" stroke="#ecaa6a" stroke-width="1.51"/><path d="M660,-60L660,60L780,-60Z" fill="#e6a261" stroke="#e6a261" stroke-width="1.51"/><path d="M660,-60L780,-60L780,-180Z" fill="#db9a63" stroke="#db9a63" stroke-width="1.51"/><path d="M660,-180L660,-60L780,-180Z" fill="#d2935c" stroke="#d2935c" stroke-width="1.51"/><path d="M540,1260L660,1260L660,1140Z" fill="#a57086" stroke="#a57086" stroke-width="1.51"/><path d="M540,1140L540,1260L660,1140Z" fill="#ac7388" stroke="#ac7388" stroke-width="1.51"/><path d="M540,1140L660,1140L660,1020Z" fill="#b78898" stroke="#b78898" stroke-width="1.51"/><path d="M540,1020L540,1140L660,1020Z" fill="#bd8f96" stroke="#bd8f96" stroke-width="1.51"/><path d="M540,1020L660,1020L660,900Z" fill="#c7a5a5" stroke="#c7a5a5" stroke-width="1.51"/><path d="M540,900L540,1020L660,900Z" fill="#cfa9a3" stroke="#cfa9a3" stroke-width="1.51"/><path d="M540,900L660,900L660,780Z" fill="#dabbb3" stroke="#dabbb3" stroke-width="1.51"/><path d="M540,780L540,900L660,780Z" fill="#e1beb0" stroke="#e1beb0" stroke-width="1.51"/><path d="M540,780L660,780L660,660Z" fill="#e9cebc" stroke="#e9cebc" stroke-width="1.51"/><path d="M540,660L540,780L660,660Z" fill="#efd1b8" stroke="#efd1b8" stroke-width="1.51"/><path d="M540,660L660,660L660,540Z" fill="#f6dbc2" stroke="#f6dbc2" stroke-width="1.51"/><path d="M540,540L540,660L660,540Z" fill="#fbdcbd" stroke="#fbdcbd" stroke-width="1.51"/><path d="M540,540L660,540L660,420Z" fill="#fee0bd" stroke="#fee0bd" stroke-width="1.51"/><path d="M540,420L540,540L660,420Z" fill="#ffdaae" stroke="#ffdaae" stroke-width="1.51"/><path d="M540,420L660,420L660,300Z" fill="#ffd7a4" stroke="#ffd7a4" stroke-width="1.51"/><path d="M540,300L540,420L660,300Z" fill="#ffcf93" stroke="#ffcf93" stroke-width="1.51"/><path d="M540,300L660,300L660,180Z" fill="#ffc784" stroke="#ffc784" stroke-width="1.51"/><path d="M540,180L540,300L660,180Z" fill="#febf73" stroke="#febf73" stroke-width="1.51"/><path d="M540,180L660,180L660,60Z" fill="#f7b468" stroke="#f7b468" stroke-width="1.51"/><path d="M540,60L540,180L660,60Z" fill="#f4aa58" stroke="#f4aa58" stroke-width="1.51"/><path d="M540,60L660,60L660,-60Z" fill="#eaa156" stroke="#eaa156" stroke-width="1.51"/><path d="M540,-60L540,60L660,-60Z" fill="#e4984d" stroke="#e4984d" stroke-width="1.51"/><path d="M540,-60L660,-60L660,-180Z" fill="#d99150" stroke="#d99150" stroke-width="1.51"/><path d="M540,-180L540,-60L660,-180Z" fill="#d18a48" stroke="#d18a48" stroke-width="1.51"/><path d="M420,1260L540,1260L540,1140Z" fill="#a66673" stroke="#a66673" stroke-width="1.51"/><path d="M420,1140L420,1260L540,1140Z" fill="#ac6875" stroke="#ac6875" stroke-width="1.51"/><path d="M420,1140L540,1140L540,1020Z" fill="#b87e85" stroke="#b87e85" stroke-width="1.51"/><path d="M420,1020L420,1140L540,1020Z" fill="#bd8483" stroke="#bd8483" stroke-width="1.51"/><path d="M420,1020L540,1020L540,900Z" fill="#c99b92" stroke="#c99b92" stroke-width="1.51"/><path d="M420,900L420,1020L540,900Z" fill="#cf9e90" stroke="#cf9e90" stroke-width="1.51"/><path d="M420,900L540,900L540,780Z" fill="#dcb19f" stroke="#dcb19f" stroke-width="1.51"/><path d="M420,780L420,900L540,780Z" fill="#e1b39c" stroke="#e1b39c" stroke-width="1.51"/><path d="M420,780L540,780L540,660Z" fill="#ebc4a8" stroke="#ebc4a8" stroke-width="1.51"/><path d="M420,660L420,780L540,660Z" fill="#f0c6a4" stroke="#f0c6a4" stroke-width="1.51"/><path d="M420,660L540,660L540,540Z" fill="#f8d1ae" stroke="#f8d1ae" stroke-width="1.51"/><path d="M420,540L420,660L540,540Z" fill="#fbd1a9" stroke="#fbd1a9" stroke-width="1.51"/><path d="M420,540L540,540L540,420Z" fill="#ffd6a8" stroke="#ffd6a8" stroke-width="1.51"/><path d="M420,420L420,540L540,420Z" fill="#ffcf9a" stroke="#ffcf9a" stroke-width="1.51"/><path d="M420,420L540,420L540,300Z" fill="#ffcd8f" stroke="#ffcd8f" stroke-width="1.51"/><path d="M420,300L420,420L540,300Z" fill="#fec47e" stroke="#fec47e" stroke-width="1.51"/><path d="M420,300L540,300L540,180Z" fill="#febd6f" stroke="#febd6f" stroke-width="1.51"/><path d="M420,180L420,300L540,180Z" fill="#fcb45e" stroke="#fcb45e" stroke-width="1.51"/><path d="M420,180L540,180L540,60Z" fill="#f6aa53" stroke="#f6aa53" stroke-width="1.51"/><path d="M420,60L420,180L540,60Z" fill="#f19f43" stroke="#f19f43" stroke-width="1.51"/><path d="M420,60L540,60L540,-60Z" fill="#e89740" stroke="#e89740" stroke-width="1.51"/><path d="M420,-60L420,60L540,-60Z" fill="#e18e38" stroke="#e18e38" stroke-width="1.51"/><path d="M420,-60L540,-60L540,-180Z" fill="#d7873b" stroke="#d7873b" stroke-width="1.51"/><path d="M420,-180L420,-60L540,-180Z" fill="#ce7f34" stroke="#ce7f34" stroke-width="1.51"/><path d="M300,1260L420,1260L420,1140Z" fill="#a25a63" stroke="#a25a63" stroke-width="1.51"/><path d="M300,1140L300,1260L420,1140Z" fill="#a75a65" stroke="#a75a65" stroke-width="1.51"/><path d="M300,1140L420,1140L420,1020Z" fill="#b47174" stroke="#b47174" stroke-width="1.51"/><path d="M300,1020L300,1140L420,1020Z" fill="#b87773" stroke="#b87773" stroke-width="1.51"/><path d="M300,1020L420,1020L420,900Z" fill="#c58e80" stroke="#c58e80" stroke-width="1.51"/><path d="M300,900L300,1020L420,900Z" fill="#ca917f" stroke="#ca917f" stroke-width="1.51"/><path d="M300,900L420,900L420,780Z" fill="#d9a48d" stroke="#d9a48d" stroke-width="1.51"/><path d="M300,780L300,900L420,780Z" fill="#dca68b" stroke="#dca68b" stroke-width="1.51"/><path d="M300,780L420,780L420,660Z" fill="#e8b796" stroke="#e8b796" stroke-width="1.51"/><path d="M300,660L300,780L420,660Z" fill="#ebb893" stroke="#ebb893" stroke-width="1.51"/><path d="M300,660L420,660L420,540Z" fill="#f4c49c" stroke="#f4c49c" stroke-width="1.51"/><path d="M300,540L300,660L420,540Z" fill="#f6c397" stroke="#f6c397" stroke-width="1.51"/><path d="M300,540L420,540L420,420Z" fill="#fcc896" stroke="#fcc896" stroke-width="1.51"/><path d="M300,420L300,540L420,420Z" fill="#fac188" stroke="#fac188" stroke-width="1.51"/><path d="M300,420L420,420L420,300Z" fill="#fbc07d" stroke="#fbc07d" stroke-width="1.51"/><path d="M300,300L300,420L420,300Z" fill="#f8b66d" stroke="#f8b66d" stroke-width="1.51"/><path d="M300,300L420,300L420,180Z" fill="#f8b05d" stroke="#f8b05d" stroke-width="1.51"/><path d="M300,180L300,300L420,180Z" fill="#f5a64c" stroke="#f5a64c" stroke-width="1.51"/><path d="M300,180L420,180L420,60Z" fill="#f09d40" stroke="#f09d40" stroke-width="1.51"/><path d="M300,60L300,180L420,60Z" fill="#ea9230" stroke="#ea9230" stroke-width="1.51"/><path d="M300,60L420,60L420,-60Z" fill="#e28a2d" stroke="#e28a2d" stroke-width="1.51"/><path d="M300,-60L300,60L420,-60Z" fill="#d98024" stroke="#d98024" stroke-width="1.51"/><path d="M300,-60L420,-60L420,-180Z" fill="#d07b28" stroke="#d07b28" stroke-width="1.51"/><path d="M300,-180L300,-60L420,-180Z" fill="#c67221" stroke="#c67221" stroke-width="1.51"/><path d="M180,1260L300,1260L300,1140Z" fill="#9c4c53" stroke="#9c4c53" stroke-width="1.51"/><path d="M180,1140L180,1260L300,1140Z" fill="#a04d58" stroke="#a04d58" stroke-width="1.51"/><path d="M180,1140L300,1140L300,1020Z" fill="#af6464" stroke="#af6464" stroke-width="1.51"/><path d="M180,1020L180,1140L300,1020Z" fill="#b16a65" stroke="#b16a65" stroke-width="1.51"/><path d="M180,1020L300,1020L300,900Z" fill="#c08170" stroke="#c08170" stroke-width="1.51"/><path d="M180,900L180,1020L300,900Z" fill="#c48470" stroke="#c48470" stroke-width="1.51"/><path d="M180,900L300,900L300,780Z" fill="#d4977d" stroke="#d4977d" stroke-width="1.51"/><path d="M180,780L180,900L300,780Z" fill="#d6997c" stroke="#d6997c" stroke-width="1.51"/><path d="M180,780L300,780L300,660Z" fill="#e3a985" stroke="#e3a985" stroke-width="1.51"/><path d="M180,660L180,780L300,660Z" fill="#e4ab84" stroke="#e4ab84" stroke-width="1.51"/><path d="M180,660L300,660L300,540Z" fill="#efb68a" stroke="#efb68a" stroke-width="1.51"/><path d="M180,540L180,660L300,540Z" fill="#f0b688" stroke="#f0b688" stroke-width="1.51"/><path d="M180,540L300,540L300,420Z" fill="#f6bb85" stroke="#f6bb85" stroke-width="1.51"/><path d="M180,420L180,540L300,420Z" fill="#f3b479" stroke="#f3b479" stroke-width="1.51"/><path d="M180,420L300,420L300,300Z" fill="#f5b26c" stroke="#f5b26c" stroke-width="1.51"/><path d="M180,300L180,420L300,300Z" fill="#f1a95e" stroke="#f1a95e" stroke-width="1.51"/><path d="M180,300L300,300L300,180Z" fill="#f2a34b" stroke="#f2a34b" stroke-width="1.51"/><path d="M180,180L180,300L300,180Z" fill="#ed993d" stroke="#ed993d" stroke-width="1.51"/><path d="M180,180L300,180L300,60Z" fill="#e88f2d" stroke="#e88f2d" stroke-width="1.51"/><path d="M180,60L180,180L300,60Z" fill="#e1851d" stroke="#e1851d" stroke-width="1.51"/><path d="M180,60L300,60L300,-60Z" fill="#da7d16" stroke="#da7d16" stroke-width="1.51"/><path d="M180,-60L180,60L300,-60Z" fill="#d0730f" stroke="#d0730f" stroke-width="1.51"/><path d="M180,-60L300,-60L300,-180Z" fill="#c86d12" stroke="#c86d12" stroke-width="1.51"/><path d="M180,-180L180,-60L300,-180Z" fill="#be650d" stroke="#be650d" stroke-width="1.51"/><path d="M60,1260L180,1260L180,1140Z" fill="#92424d" stroke="#92424d" stroke-width="1.51"/><path d="M60,1140L60,1260L180,1140Z" fill="#954353" stroke="#954353" stroke-width="1.51"/><path d="M60,1140L180,1140L180,1020Z" fill="#a4595e" stroke="#a4595e" stroke-width="1.51"/><path d="M60,1020L60,1140L180,1020Z" fill="#a76060" stroke="#a76060" stroke-width="1.51"/><path d="M60,1020L180,1020L180,900Z" fill="#b67669" stroke="#b67669" stroke-width="1.51"/><path d="M60,900L60,1020L180,900Z" fill="#b97a6c" stroke="#b97a6c" stroke-width="1.51"/><path d="M60,900L180,900L180,780Z" fill="#c98c76" stroke="#c98c76" stroke-width="1.51"/><path d="M60,780L60,900L180,780Z" fill="#cb8e77" stroke="#cb8e77" stroke-width="1.51"/><path d="M60,780L180,780L180,660Z" fill="#d89e7e" stroke="#d89e7e" stroke-width="1.51"/><path d="M60,660L60,780L180,660Z" fill="#daa07f" stroke="#daa07f" stroke-width="1.51"/><path d="M60,660L180,660L180,540Z" fill="#e5ab84" stroke="#e5ab84" stroke-width="1.51"/><path d="M60,540L60,660L180,540Z" fill="#e5ab83" stroke="#e5ab83" stroke-width="1.51"/><path d="M60,540L180,540L180,420Z" fill="#ecaf7e" stroke="#ecaf7e" stroke-width="1.51"/><path d="M60,420L60,540L180,420Z" fill="#e8a975" stroke="#e8a975" stroke-width="1.51"/><path d="M60,420L180,420L180,300Z" fill="#eaa765" stroke="#eaa765" stroke-width="1.51"/><path d="M60,300L60,420L180,300Z" fill="#e69e5a" stroke="#e69e5a" stroke-width="1.51"/><path d="M60,300L180,300L180,180Z" fill="#e79845" stroke="#e79845" stroke-width="1.51"/><path d="M60,180L60,300L180,180Z" fill="#e28f39" stroke="#e28f39" stroke-width="1.51"/><path d="M60,180L180,180L180,60Z" fill="#dd8427" stroke="#dd8427" stroke-width="1.51"/><path d="M60,60L60,180L180,60Z" fill="#d67a1a" stroke="#d67a1a" stroke-width="1.51"/><path d="M60,60L180,60L180,-60Z" fill="#cf720e" stroke="#cf720e" stroke-width="1.51"/><path d="M60,-60L60,60L180,-60Z" fill="#c5690c" stroke="#c5690c" stroke-width="1.51"/><path d="M60,-60L180,-60L180,-180Z" fill="#bd620a" stroke="#bd620a" stroke-width="1.51"/><path d="M60,-180L60,-60L180,-180Z" fill="#b35b09" stroke="#b35b09" stroke-width="1.51"/><path d="M-60,1260L60,1260L60,1140Z" fill="#883748" stroke="#883748" stroke-width="1.51"/><path d="M-60,1140L-60,1260L60,1140Z" fill="#8a3a4e" stroke="#8a3a4e" stroke-width="1.51"/><path d="M-60,1140L60,1140L60,1020Z" fill="#9a4f59" stroke="#9a4f59" stroke-width="1.51"/><path d="M-60,1020L-60,1140L60,1020Z" fill="#9c575b" stroke="#9c575b" stroke-width="1.51"/><path d="M-60,1020L60,1020L60,900Z" fill="#ab6c64" stroke="#ab6c64" stroke-width="1.51"/><path d="M-60,900L-60,1020L60,900Z" fill="#ae7067" stroke="#ae7067" stroke-width="1.51"/><path d="M-60,900L60,900L60,780Z" fill="#be8171" stroke="#be8171" stroke-width="1.51"/><path d="M-60,780L-60,900L60,780Z" fill="#c08473" stroke="#c08473" stroke-width="1.51"/><path d="M-60,780L60,780L60,660Z" fill="#cd9379" stroke="#cd9379" stroke-width="1.51"/><path d="M-60,660L-60,780L60,660Z" fill="#ce967a" stroke="#ce967a" stroke-width="1.51"/><path d="M-60,660L60,660L60,540Z" fill="#daa07f" stroke="#daa07f" stroke-width="1.51"/><path d="M-60,540L-60,660L60,540Z" fill="#d9a17f" stroke="#d9a17f" stroke-width="1.51"/><path d="M-60,540L60,540L60,420Z" fill="#e1a479" stroke="#e1a479" stroke-width="1.51"/><path d="M-60,420L-60,540L60,420Z" fill="#dc9f70" stroke="#dc9f70" stroke-width="1.51"/><path d="M-60,420L60,420L60,300Z" fill="#df9c61" stroke="#df9c61" stroke-width="1.51"/><path d="M-60,300L-60,420L60,300Z" fill="#da9456" stroke="#da9456" stroke-width="1.51"/><path d="M-60,300L60,300L60,180Z" fill="#dc8d41" stroke="#dc8d41" stroke-width="1.51"/><path d="M-60,180L-60,300L60,180Z" fill="#d68535" stroke="#d68535" stroke-width="1.51"/><path d="M-60,180L60,180L60,60Z" fill="#d27a23" stroke="#d27a23" stroke-width="1.51"/><path d="M-60,60L-60,180L60,60Z" fill="#ca7117" stroke="#ca7117" stroke-width="1.51"/><path d="M-60,60L60,60L60,-60Z" fill="#c4670b" stroke="#c4670b" stroke-width="1.51"/><path d="M-60,-60L-60,60L60,-60Z" fill="#ba5f08" stroke="#ba5f08" stroke-width="1.51"/><path d="M-60,-60L60,-60L60,-180Z" fill="#b25806" stroke="#b25806" stroke-width="1.51"/><path d="M-60,-180L-60,-60L60,-180Z" fill="#a75107" stroke="#a75107" stroke-width="1.51"/><path d="M-180,1260L-60,1260L-60,1140Z" fill="#7b3045" stroke="#7b3045" stroke-width="1.51"/><path d="M-180,1140L-180,1260L-60,1140Z" fill="#7d334c" stroke="#7d334c" stroke-width="1.51"/><path d="M-180,1140L-60,1140L-60,1020Z" fill="#8d4856" stroke="#8d4856" stroke-width="1.51"/><path d="M-180,1020L-180,1140L-60,1020Z" fill="#8e4f59" stroke="#8e4f59" stroke-width="1.51"/><path d="M-180,1020L-60,1020L-60,900Z" fill="#9e6461" stroke="#9e6461" stroke-width="1.51"/><path d="M-180,900L-180,1020L-60,900Z" fill="#9f6864" stroke="#9f6864" stroke-width="1.51"/><path d="M-180,900L-60,900L-60,780Z" fill="#b1796e" stroke="#b1796e" stroke-width="1.51"/><path d="M-180,780L-180,900L-60,780Z" fill="#b17c70" stroke="#b17c70" stroke-width="1.51"/><path d="M-180,780L-60,780L-60,660Z" fill="#bf8b76" stroke="#bf8b76" stroke-width="1.51"/><path d="M-180,660L-180,780L-60,660Z" fill="#bf8e78" stroke="#bf8e78" stroke-width="1.51"/><path d="M-180,660L-60,660L-60,540Z" fill="#cb987b" stroke="#cb987b" stroke-width="1.51"/><path d="M-180,540L-180,660L-60,540Z" fill="#ca987c" stroke="#ca987c" stroke-width="1.51"/><path d="M-180,540L-60,540L-60,420Z" fill="#d39c76" stroke="#d39c76" stroke-width="1.51"/><path d="M-180,420L-180,540L-60,420Z" fill="#cd966e" stroke="#cd966e" stroke-width="1.51"/><path d="M-180,420L-60,420L-60,300Z" fill="#d1945e" stroke="#d1945e" stroke-width="1.51"/><path d="M-180,300L-180,420L-60,300Z" fill="#cb8c54" stroke="#cb8c54" stroke-width="1.51"/><path d="M-180,300L-60,300L-60,180Z" fill="#ce853f" stroke="#ce853f" stroke-width="1.51"/><path d="M-180,180L-180,300L-60,180Z" fill="#c87d34" stroke="#c87d34" stroke-width="1.51"/><path d="M-180,180L-60,180L-60,60Z" fill="#c57222" stroke="#c57222" stroke-width="1.51"/><path d="M-180,60L-180,180L-60,60Z" fill="#bc6917" stroke="#bc6917" stroke-width="1.51"/><path d="M-180,60L-60,60L-60,-60Z" fill="#b7600b" stroke="#b7600b" stroke-width="1.51"/><path d="M-180,-60L-180,60L-60,-60Z" fill="#ac580a" stroke="#ac580a" stroke-width="1.51"/><path d="M-180,-60L-60,-60L-60,-180Z" fill="#a55007" stroke="#a55007" stroke-width="1.51"/><path d="M-180,-180L-180,-60L-60,-180Z" fill="#9a4a08" stroke="#9a4a08" stroke-width="1.51"/></svg>