<svg xmlns="http://www.w3.org/2000/svg" width="1920" height="1080"><path d="M1230,1398L756,1412L1398,1432Z" fill="#308757" stroke="#308757" stroke-width="1.51"/><path d="M1922,904L1917,1010L2183,750Z" fill="#218747" stroke="#218747" stroke-width="1.51"/><path d="M1841,189L2184,432L2285,356Z" fill="#539b73" stroke="#539b73" stroke-width="1.51"/><path d="M2184,432L2183,750L2285,356Z" fill="#3c8c63" stroke="#3c8c63" stroke-width="1.51"/><path d="M1937,-208L1862,-79L2286,-162Z" fill="#7caf8c" stroke="#7caf8c" stroke-width="1.51"/><path d="M1841,189L2285,356L2286,-162Z" fill="#67a17d" stroke="#67a17d" stroke-width="1.51"/><path d="M1862,-79L1841,189L2286,-162Z" fill="#77ae88" stroke="#77ae88" stroke-width="1.51"/><path d="M1322,-424L1759,-353L2306,-267Z" fill="#8cbc98" stroke="#8cbc98" stroke-width="1.51"/><path d="M1759,-353L1937,-208L2306,-267Z" fill="#82b28f" stroke="#82b28f" stroke-width="1.51"/><path d="M2286,-162L2285,356L2306,-267Z" fill="#6e9b7f" stroke="#6e9b7f" stroke-width="1.51"/><path d="M2183,750L1917,1010L2314,1162Z" fill="#187a3c" stroke="#187a3c" stroke-width="1.51"/><path d="M2285,356L2183,750L2314,1162Z" fill="#26804d" stroke="#26804d" stroke-width="1.51"/><path d="M2306,-267L2285,356L2314,1162Z" fill="#458b67" stroke="#458b67" stroke-width="1.51"/><path d="M1816,1321L1398,1432L2315,1273Z" fill="#0b7030" stroke="#0b7030" stroke-width="1.51"/><path d="M2314,1162L1917,1010L2315,1273Z" fill="#0b6c2f" stroke="#0b6c2f" stroke-width="1.51"/><path d="M1917,1010L1816,1321L2315,1273Z" fill="#087231" stroke="#087231" stroke-width="1.51"/><path d="M1937,-208L2286,-162L2306,-267Z" fill="#7ba689" stroke="#7ba689" stroke-width="1.51"/><path d="M629,-438L829,-395L1322,-424Z" fill="#b2e0d1" stroke="#b2e0d1" stroke-width="1.51"/><path d="M1918,659L1922,904L2183,750Z" fill="#298e52" stroke="#298e52" stroke-width="1.51"/><path d="M1918,659L2183,750L2184,432Z" fill="#358f5e" stroke="#358f5e" stroke-width="1.51"/><path d="M1798,430L1918,659L2184,432Z" fill="#429b6b" stroke="#429b6b" stroke-width="1.51"/><path d="M1841,189L1798,430L2184,432Z" fill="#54a377" stroke="#54a377" stroke-width="1.51"/><path d="M1581,1195L1614,1259L1816,1321Z" fill="#167e3a" stroke="#167e3a" stroke-width="1.51"/><path d="M1581,1195L1816,1321L1917,1010Z" fill="#177e3a" stroke="#177e3a" stroke-width="1.51"/><path d="M1918,659L1636,710L1922,904Z" fill="#30975b" stroke="#30975b" stroke-width="1.51"/><path d="M1759,-353L1862,-79L1937,-208Z" fill="#85b895" stroke="#85b895" stroke-width="1.51"/><path d="M1636,710L1581,1195L1917,1010Z" fill="#268e4a" stroke="#268e4a" stroke-width="1.51"/><path d="M1798,430L1636,710L1918,659Z" fill="#409f6a" stroke="#409f6a" stroke-width="1.51"/><path d="M1636,710L1917,1010L1922,904Z" fill="#28904f" stroke="#28904f" stroke-width="1.51"/><path d="M1384,943L1581,1195L1636,710Z" fill="#309757" stroke="#309757" stroke-width="1.51"/><path d="M1614,1259L1398,1432L1816,1321Z" fill="#177b3b" stroke="#177b3b" stroke-width="1.51"/><path d="M1530,389L1798,430L1841,189Z" fill="#5dad80" stroke="#5dad80" stroke-width="1.51"/><path d="M1545,38L1841,189L1862,-79Z" fill="#7ab790" stroke="#7ab790" stroke-width="1.51"/><path d="M1759,-353L1545,38L1862,-79Z" fill="#85bc97" stroke="#85bc97" stroke-width="1.51"/><path d="M1545,38L1530,389L1841,189Z" fill="#6eb68d" stroke="#6eb68d" stroke-width="1.51"/><path d="M1412,-43L1545,38L1759,-353Z" fill="#8ac4a0" stroke="#8ac4a0" stroke-width="1.51"/><path d="M1530,389L1636,710L1798,430Z" fill="#4ca977" stroke="#4ca977" stroke-width="1.51"/><path d="M1322,-424L1412,-43L1759,-353Z" fill="#94caa9" stroke="#94caa9" stroke-width="1.51"/><path d="M161,1264L-331,1318L756,1412Z" fill="#73a884" stroke="#73a884" stroke-width="1.51"/><path d="M1333,117L1530,389L1545,38Z" fill="#77c09a" stroke="#77c09a" stroke-width="1.51"/><path d="M1530,389L1411,448L1636,710Z" fill="#50ae80" stroke="#50ae80" stroke-width="1.51"/><path d="M1411,448L1384,943L1636,710Z" fill="#42a973" stroke="#42a973" stroke-width="1.51"/><path d="M1384,943L1370,1208L1581,1195Z" fill="#2a9150" stroke="#2a9150" stroke-width="1.51"/><path d="M1581,1195L1370,1208L1614,1259Z" fill="#208746" stroke="#208746" stroke-width="1.51"/><path d="M1370,1208L1398,1432L1614,1259Z" fill="#208546" stroke="#208546" stroke-width="1.51"/><path d="M1136,823L1384,943L1411,448Z" fill="#46b07b" stroke="#46b07b" stroke-width="1.51"/><path d="M1322,-424L1167,-180L1412,-43Z" fill="#9ad3b7" stroke="#9ad3b7" stroke-width="1.51"/><path d="M1333,117L1411,448L1530,389Z" fill="#6abc95" stroke="#6abc95" stroke-width="1.51"/><path d="M1412,-43L1333,117L1545,38Z" fill="#87c8a4" stroke="#87c8a4" stroke-width="1.51"/><path d="M1212,1182L1370,1208L1384,943Z" fill="#2f9759" stroke="#2f9759" stroke-width="1.51"/><path d="M1370,1208L1230,1398L1398,1432Z" fill="#25874d" stroke="#25874d" stroke-width="1.51"/><path d="M1333,117L986,385L1411,448Z" fill="#71c4a2" stroke="#71c4a2" stroke-width="1.51"/><path d="M1055,613L1136,823L1411,448Z" fill="#54b78c" stroke="#54b78c" stroke-width="1.51"/><path d="M1092,-13L1333,117L1412,-43Z" fill="#8ecfb0" stroke="#8ecfb0" stroke-width="1.51"/><path d="M1167,-180L1092,-13L1412,-43Z" fill="#96d2b7" stroke="#96d2b7" stroke-width="1.51"/><path d="M986,385L1055,613L1411,448Z" fill="#63bf9b" stroke="#63bf9b" stroke-width="1.51"/><path d="M-76,1267L-331,1318L161,1264Z" fill="#7fb08e" stroke="#7fb08e" stroke-width="1.51"/><path d="M1212,1182L1230,1398L1370,1208Z" fill="#2b9055" stroke="#2b9055" stroke-width="1.51"/><path d="M1136,823L1212,1182L1384,943Z" fill="#3ba267" stroke="#3ba267" stroke-width="1.51"/><path d="M603,1340L161,1264L756,1412Z" fill="#5e9f79" stroke="#5e9f79" stroke-width="1.51"/><path d="M1092,-13L986,385L1333,117Z" fill="#86cdb2" stroke="#86cdb2" stroke-width="1.51"/><path d="M1136,823L959,993L1212,1182Z" fill="#42a56f" stroke="#42a56f" stroke-width="1.51"/><path d="M829,-395L1167,-180L1322,-424Z" fill="#a6dac5" stroke="#a6dac5" stroke-width="1.51"/><path d="M876,139L986,385L1092,-13Z" fill="#8cd2bc" stroke="#8cd2bc" stroke-width="1.51"/><path d="M1212,1182L756,1412L1230,1398Z" fill="#36905e" stroke="#36905e" stroke-width="1.51"/><path d="M959,993L756,1412L1212,1182Z" fill="#409c6a" stroke="#409c6a" stroke-width="1.51"/><path d="M1055,613L927,694L1136,823Z" fill="#56b98f" stroke="#56b98f" stroke-width="1.51"/><path d="M829,-395L1092,-13L1167,-180Z" fill="#a4dac9" stroke="#a4dac9" stroke-width="1.51"/><path d="M829,-395L709,-7L1092,-13Z" fill="#aaddd0" stroke="#aaddd0" stroke-width="1.51"/><path d="M927,694L959,993L1136,823Z" fill="#50b385" stroke="#50b385" stroke-width="1.51"/><path d="M709,-7L876,139L1092,-13Z" fill="#9fd9c8" stroke="#9fd9c8" stroke-width="1.51"/><path d="M596,1220L756,1412L959,993Z" fill="#4fa174" stroke="#4fa174" stroke-width="1.51"/><path d="M748,502L927,694L986,385Z" fill="#6dc5a8" stroke="#6dc5a8" stroke-width="1.51"/><path d="M986,385L927,694L1055,613Z" fill="#63c0a0" stroke="#63c0a0" stroke-width="1.51"/><path d="M927,694L480,849L959,993Z" fill="#5fb990" stroke="#5fb990" stroke-width="1.51"/><path d="M876,139L748,502L986,385Z" fill="#82ceb7" stroke="#82ceb7" stroke-width="1.51"/><path d="M583,-137L709,-7L829,-395Z" fill="#b7e3da" stroke="#b7e3da" stroke-width="1.51"/><path d="M480,849L596,1220L959,993Z" fill="#5fb084" stroke="#5fb084" stroke-width="1.51"/><path d="M-113,-356L375,-318L629,-438Z" fill="#dbf2ef" stroke="#dbf2ef" stroke-width="1.51"/><path d="M550,445L748,502L876,139Z" fill="#8ad2bd" stroke="#8ad2bd" stroke-width="1.51"/><path d="M748,502L480,849L927,694Z" fill="#6fc4a3" stroke="#6fc4a3" stroke-width="1.51"/><path d="M629,-438L583,-137L829,-395Z" fill="#bee6de" stroke="#bee6de" stroke-width="1.51"/><path d="M709,-7L550,445L876,139Z" fill="#9cd9c9" stroke="#9cd9c9" stroke-width="1.51"/><path d="M596,1220L603,1340L756,1412Z" fill="#539d74" stroke="#539d74" stroke-width="1.51"/><path d="M417,382L550,445L709,-7Z" fill="#9fdacc" stroke="#9fdacc" stroke-width="1.51"/><path d="M550,445L480,849L748,502Z" fill="#7ecbb1" stroke="#7ecbb1" stroke-width="1.51"/><path d="M480,849L362,1136L596,1220Z" fill="#6cb388" stroke="#6cb388" stroke-width="1.51"/><path d="M583,-137L373,-127L709,-7Z" fill="#bde6de" stroke="#bde6de" stroke-width="1.51"/><path d="M373,-127L417,382L709,-7Z" fill="#b6e4d9" stroke="#b6e4d9" stroke-width="1.51"/><path d="M205,769L480,849L550,445Z" fill="#85cdb0" stroke="#85cdb0" stroke-width="1.51"/><path d="M375,-318L583,-137L629,-438Z" fill="#c8eae4" stroke="#c8eae4" stroke-width="1.51"/><path d="M417,382L151,614L550,445Z" fill="#97d6c4" stroke="#97d6c4" stroke-width="1.51"/><path d="M151,614L205,769L550,445Z" fill="#92d3bc" stroke="#92d3bc" stroke-width="1.51"/><path d="M375,-318L373,-127L583,-137Z" fill="#caebe7" stroke="#caebe7" stroke-width="1.51"/><path d="M596,1220L362,1136L603,1340Z" fill="#61a87e" stroke="#61a87e" stroke-width="1.51"/><path d="M362,1136L161,1264L603,1340Z" fill="#6bab83" stroke="#6bab83" stroke-width="1.51"/><path d="M373,-127L145,338L417,382Z" fill="#b8e4da" stroke="#b8e4da" stroke-width="1.51"/><path d="M-9,115L145,338L373,-127Z" fill="#c8ebe4" stroke="#c8ebe4" stroke-width="1.51"/><path d="M205,769L362,1136L480,849Z" fill="#7dc19c" stroke="#7dc19c" stroke-width="1.51"/><path d="M145,338L151,614L417,382Z" fill="#a5dbcc" stroke="#a5dbcc" stroke-width="1.51"/><path d="M205,769L161,1264L362,1136Z" fill="#7dba92" stroke="#7dba92" stroke-width="1.51"/><path d="M-113,-356L-116,-22L373,-127Z" fill="#def3f3" stroke="#def3f3" stroke-width="1.51"/><path d="M-113,-356L373,-127L375,-318Z" fill="#dcf2f1" stroke="#dcf2f1" stroke-width="1.51"/><path d="M-116,-22L-9,115L373,-127Z" fill="#d5efec" stroke="#d5efec" stroke-width="1.51"/><path d="M-134,1084L161,1264L205,769Z" fill="#84bd97" stroke="#84bd97" stroke-width="1.51"/><path d="M145,338L-72,622L151,614Z" fill="#a3daca" stroke="#a3daca" stroke-width="1.51"/><path d="M-134,1084L-76,1267L161,1264Z" fill="#80b490" stroke="#80b490" stroke-width="1.51"/><path d="M151,614L-65,770L205,769Z" fill="#96d2b7" stroke="#96d2b7" stroke-width="1.51"/><path d="M-65,770L-134,1084L205,769Z" fill="#90caaa" stroke="#90caaa" stroke-width="1.51"/><path d="M-72,622L-65,770L151,614Z" fill="#9cd5be" stroke="#9cd5be" stroke-width="1.51"/><path d="M-367,473L-72,622L-9,115Z" fill="#b6e2d8" stroke="#b6e2d8" stroke-width="1.51"/><path d="M-9,115L-72,622L145,338Z" fill="#b5e2d8" stroke="#b5e2d8" stroke-width="1.51"/><path d="M-244,-291L-283,-110L-116,-22Z" fill="#e4f5f7" stroke="#e4f5f7" stroke-width="1.51"/><path d="M-244,-291L-116,-22L-113,-356Z" fill="#e6f5f9" stroke="#e6f5f9" stroke-width="1.51"/><path d="M-116,-22L-386,224L-9,115Z" fill="#d4efec" stroke="#d4efec" stroke-width="1.51"/><path d="M-386,224L-367,473L-9,115Z" fill="#c5e9e3" stroke="#c5e9e3" stroke-width="1.51"/><path d="M-134,1084L-280,1211L-76,1267Z" fill="#85b794" stroke="#85b794" stroke-width="1.51"/><path d="M-409,955L-134,1084L-65,770Z" fill="#93c8a7" stroke="#93c8a7" stroke-width="1.51"/><path d="M-72,622L-367,473L-65,770Z" fill="#a4d9c6" stroke="#a4d9c6" stroke-width="1.51"/><path d="M-367,473L-409,955L-65,770Z" fill="#a1d6bc" stroke="#a1d6bc" stroke-width="1.51"/><path d="M-280,1211L-331,1318L-76,1267Z" fill="#83b38f" stroke="#83b38f" stroke-width="1.51"/><path d="M-283,-110L-386,224L-116,-22Z" fill="#ddf2f1" stroke="#ddf2f1" stroke-width="1.51"/><path d="M-409,955L-280,1211L-134,1084Z" fill="#8dbf9a" stroke="#8dbf9a" stroke-width="1.51"/><path d="M-386,224L-283,-110L-244,-291Z" fill="#e3f5f4" stroke="#e3f5f4" stroke-width="1.51"/><path d="M-409,955L-331,1318L-280,1211Z" fill="#8bba96" stroke="#8bba96" stroke-width="1.51"/><path d="M-386,224L-409,955L-367,473Z" fill="#afdece" stroke="#afdece" stroke-width="1.51"/></svg>