<svg xmlns="http://www.w3.org/2000/svg" width="1920" height="1080"><path d="M1957,1395L2242,1395L2242,1110Z" fill="#006134" stroke="#006134" stroke-width="1.51"/><path d="M1957,1110L1957,1395L2242,1110Z" fill="#076b38" stroke="#076b38" stroke-width="1.51"/><path d="M1957,1110L2242,1110L2242,825Z" fill="#15723b" stroke="#15723b" stroke-width="1.51"/><path d="M1957,825L1957,1110L2242,825Z" fill="#1d7e42" stroke="#1d7e42" stroke-width="1.51"/><path d="M1957,825L2242,825L2242,540Z" fill="#2c854a" stroke="#2c854a" stroke-width="1.51"/><path d="M1957,540L1957,825L2242,540Z" fill="#399051" stroke="#399051" stroke-width="1.51"/><path d="M1957,540L2242,540L2242,255Z" fill="#4e9458" stroke="#4e9458" stroke-width="1.51"/><path d="M1957,255L1957,540L2242,255Z" fill="#5a9d5e" stroke="#5a9d5e" stroke-width="1.51"/><path d="M1957,255L2242,255L2242,-30Z" fill="#6a9f63" stroke="#6a9f63" stroke-width="1.51"/><path d="M1957,-30L1957,255L2242,-30Z" fill="#75a869" stroke="#75a869" stroke-width="1.51"/><path d="M1957,-30L2242,-30L2242,-315Z" fill="#7fa86f" stroke="#7fa86f" stroke-width="1.51"/><path d="M1957,-315L1957,-30L2242,-315Z" fill="#86af75" stroke="#86af75" stroke-width="1.51"/><path d="M1672,1395L1957,1395L1957,1110Z" fill="#0a6d39" stroke="#0a6d39" stroke-width="1.51"/><path d="M1672,1110L1672,1395L1957,1110Z" fill="#16763d" stroke="#16763d" stroke-width="1.51"/><path d="M1672,1110L1957,1110L1957,825Z" fill="#1d7e41" stroke="#1d7e41" stroke-width="1.51"/><path d="M1672,825L1672,1110L1957,825Z" fill="#278947" stroke="#278947" stroke-width="1.51"/><path d="M1672,825L1957,825L1957,540Z" fill="#339250" stroke="#339250" stroke-width="1.51"/><path d="M1672,540L1672,825L1957,540Z" fill="#429b56" stroke="#429b56" stroke-width="1.51"/><path d="M1672,540L1957,540L1957,255Z" fill="#55a15e" stroke="#55a15e" stroke-width="1.51"/><path d="M1672,255L1672,540L1957,255Z" fill="#63a963" stroke="#63a963" stroke-width="1.51"/><path d="M1672,255L1957,255L1957,-30Z" fill="#72ad69" stroke="#72ad69" stroke-width="1.51"/><path d="M1672,-30L1672,255L1957,-30Z" fill="#7eb46f" stroke="#7eb46f" stroke-width="1.51"/><path d="M1672,-30L1957,-30L1957,-315Z" fill="#87b575" stroke="#87b575" stroke-width="1.51"/><path d="M1672,-315L1672,-30L1957,-315Z" fill="#8fbb7b" stroke="#8fbb7b" stroke-width="1.51"/><path d="M1387,1395L1672,1395L1672,1110Z" fill="#197a40" stroke="#197a40" stroke-width="1.51"/><path d="M1387,1110L1387,1395L1672,1110Z" fill="#228546" stroke="#228546" stroke-width="1.51"/><path d="M1387,1110L1672,1110L1672,825Z" fill="#298b47" stroke="#298b47" stroke-width="1.51"/><path d="M1387,825L1387,1110L1672,825Z" fill="#329750" stroke="#329750" stroke-width="1.51"/><path d="M1387,825L1672,825L1672,540Z" fill="#3e9f57" stroke="#3e9f57" stroke-width="1.51"/><path d="M1387,540L1387,825L1672,540Z" fill="#4daa5f" stroke="#4daa5f" stroke-width="1.51"/><path d="M1387,540L1672,540L1672,255Z" fill="#5fae65" stroke="#5fae65" stroke-width="1.51"/><path d="M1387,255L1387,540L1672,255Z" fill="#6eb86c" stroke="#6eb86c" stroke-width="1.51"/><path d="M1387,255L1672,255L1672,-30Z" fill="#7cba70" stroke="#7cba70" stroke-width="1.51"/><path d="M1387,-30L1387,255L1672,-30Z" fill="#89c378" stroke="#89c378" stroke-width="1.51"/><path d="M1387,-30L1672,-30L1672,-315Z" fill="#91c37c" stroke="#91c37c" stroke-width="1.51"/><path d="M1387,-315L1387,-30L1672,-315Z" fill="#9aca84" stroke="#9aca84" stroke-width="1.51"/><path d="M1102,1395L1387,1395L1387,1110Z" fill="#27894a" stroke="#27894a" stroke-width="1.51"/><path d="M1102,1110L1102,1395L1387,1110Z" fill="#359250" stroke="#359250" stroke-width="1.51"/><path d="M1102,1110L1387,1110L1387,825Z" fill="#369a52" stroke="#369a52" stroke-width="1.51"/><path d="M1102,825L1102,1110L1387,825Z" fill="#44a55a" stroke="#44a55a" stroke-width="1.51"/><path d="M1102,825L1387,825L1387,540Z" fill="#4aaf61" stroke="#4aaf61" stroke-width="1.51"/><path d="M1102,540L1102,825L1387,540Z" fill="#5db86a" stroke="#5db86a" stroke-width="1.51"/><path d="M1102,540L1387,540L1387,255Z" fill="#6bbe70" stroke="#6bbe70" stroke-width="1.51"/><path d="M1102,255L1102,540L1387,255Z" fill="#7dc677" stroke="#7dc677" stroke-width="1.51"/><path d="M1102,255L1387,255L1387,-30Z" fill="#88ca7b" stroke="#88ca7b" stroke-width="1.51"/><path d="M1102,-30L1102,255L1387,-30Z" fill="#98d183" stroke="#98d183" stroke-width="1.51"/><path d="M1102,-30L1387,-30L1387,-315Z" fill="#9ed388" stroke="#9ed388" stroke-width="1.51"/><path d="M1102,-315L1102,-30L1387,-315Z" fill="#a9d890" stroke="#a9d890" stroke-width="1.51"/><path d="M817,1395L1102,1395L1102,1110Z" fill="#409354" stroke="#409354" stroke-width="1.51"/><path d="M817,1110L817,1395L1102,1110Z" fill="#4c9c5b" stroke="#4c9c5b" stroke-width="1.51"/><path d="M817,1110L1102,1110L1102,825Z" fill="#4ea55d" stroke="#4ea55d" stroke-width="1.51"/><path d="M817,825L817,1110L1102,825Z" fill="#5baf65" stroke="#5baf65" stroke-width="1.51"/><path d="M817,825L1102,825L1102,540Z" fill="#61b96c" stroke="#61b96c" stroke-width="1.51"/><path d="M817,540L817,825L1102,540Z" fill="#72c375" stroke="#72c375" stroke-width="1.51"/><path d="M817,540L1102,540L1102,255Z" fill="#7fc97b" stroke="#7fc97b" stroke-width="1.51"/><path d="M817,255L817,540L1102,255Z" fill="#90d182" stroke="#90d182" stroke-width="1.51"/><path d="M817,255L1102,255L1102,-30Z" fill="#9cd587" stroke="#9cd587" stroke-width="1.51"/><path d="M817,-30L817,255L1102,-30Z" fill="#abdc8e" stroke="#abdc8e" stroke-width="1.51"/><path d="M817,-30L1102,-30L1102,-315Z" fill="#b1dd93" stroke="#b1dd93" stroke-width="1.51"/><path d="M817,-315L817,-30L1102,-315Z" fill="#bce39b" stroke="#bce39b" stroke-width="1.51"/><path d="M532,1395L817,1395L817,1110Z" fill="#589c5d" stroke="#589c5d" stroke-width="1.51"/><path d="M532,1110L532,1395L817,1110Z" fill="#63a563" stroke="#63a563" stroke-width="1.51"/><path d="M532,1110L817,1110L817,825Z" fill="#65ae65" stroke="#65ae65" stroke-width="1.51"/><path d="M532,825L532,1110L817,825Z" fill="#72b96d" stroke="#72b96d" stroke-width="1.51"/><path d="M532,825L817,825L817,540Z" fill="#77c375" stroke="#77c375" stroke-width="1.51"/><path d="M532,540L532,825L817,540Z" fill="#88cc7d" stroke="#88cc7d" stroke-width="1.51"/><path d="M532,540L817,540L817,255Z" fill="#95d284" stroke="#95d284" stroke-width="1.51"/><path d="M532,255L532,540L817,255Z" fill="#a6da8b" stroke="#a6da8b" stroke-width="1.51"/><path d="M532,255L817,255L817,-30Z" fill="#b0de90" stroke="#b0de90" stroke-width="1.51"/><path d="M532,-30L532,255L817,-30Z" fill="#c0e597" stroke="#c0e597" stroke-width="1.51"/><path d="M532,-30L817,-30L817,-315Z" fill="#c5e79c" stroke="#c5e79c" stroke-width="1.51"/><path d="M532,-315L532,-30L817,-315Z" fill="#d1eca4" stroke="#d1eca4" stroke-width="1.51"/><path d="M247,1395L532,1395L532,1110Z" fill="#6ca465" stroke="#6ca465" stroke-width="1.51"/><path d="M247,1110L247,1395L532,1110Z" fill="#75ad6a" stroke="#75ad6a" stroke-width="1.51"/><path d="M247,1110L532,1110L532,825Z" fill="#79b66d" stroke="#79b66d" stroke-width="1.51"/><path d="M247,825L247,1110L532,825Z" fill="#84c075" stroke="#84c075" stroke-width="1.51"/><path d="M247,825L532,825L532,540Z" fill="#8bcc7e" stroke="#8bcc7e" stroke-width="1.51"/><path d="M247,540L247,825L532,540Z" fill="#9ad485" stroke="#9ad485" stroke-width="1.51"/><path d="M247,540L532,540L532,255Z" fill="#a8db8c" stroke="#a8db8c" stroke-width="1.51"/><path d="M247,255L247,540L532,255Z" fill="#b7e293" stroke="#b7e293" stroke-width="1.51"/><path d="M247,255L532,255L532,-30Z" fill="#c3e798" stroke="#c3e798" stroke-width="1.51"/><path d="M247,-30L247,255L532,-30Z" fill="#d1ed9f" stroke="#d1ed9f" stroke-width="1.51"/><path d="M247,-30L532,-30L532,-315Z" fill="#d8efa5" stroke="#d8efa5" stroke-width="1.51"/><path d="M247,-315L247,-30L532,-315Z" fill="#e2f4ac" stroke="#e2f4ac" stroke-width="1.51"/><path d="M-38,1395L247,1395L247,1110Z" fill="#7bab6d" stroke="#7bab6d" stroke-width="1.51"/><path d="M-38,1110L-38,1395L247,1110Z" fill="#84b272" stroke="#84b272" stroke-width="1.51"/><path d="M-38,1110L247,1110L247,825Z" fill="#89bd75" stroke="#89bd75" stroke-width="1.51"/><path d="M-38,825L-38,1110L247,825Z" fill="#92c67e" stroke="#92c67e" stroke-width="1.51"/><path d="M-38,825L247,825L247,540Z" fill="#9cd286" stroke="#9cd286" stroke-width="1.51"/><path d="M-38,540L-38,825L247,540Z" fill="#a9d98e" stroke="#a9d98e" stroke-width="1.51"/><path d="M-38,540L247,540L247,255Z" fill="#b8e195" stroke="#b8e195" stroke-width="1.51"/><path d="M-38,255L-38,540L247,255Z" fill="#c5e79c" stroke="#c5e79c" stroke-width="1.51"/><path d="M-38,255L247,255L247,-30Z" fill="#d3eda1" stroke="#d3eda1" stroke-width="1.51"/><path d="M-38,-30L-38,255L247,-30Z" fill="#dff2a8" stroke="#dff2a8" stroke-width="1.51"/><path d="M-38,-30L247,-30L247,-315Z" fill="#e7f6ad" stroke="#e7f6ad" stroke-width="1.51"/><path d="M-38,-315L-38,-30L247,-315Z" fill="#f0f9b5" stroke="#f0f9b5" stroke-width="1.51"/><path d="M-323,1395L-38,1395L-38,1110Z" fill="#87af76" stroke="#87af76" stroke-width="1.51"/><path d="M-323,1110L-323,1395L-38,1110Z" fill="#8cb67e" stroke="#8cb67e" stroke-width="1.51"/><path d="M-323,1110L-38,1110L-38,825Z" fill="#94c17e" stroke="#94c17e" stroke-width="1.51"/><path d="M-323,825L-323,1110L-38,825Z" fill="#9bc98a" stroke="#9bc98a" stroke-width="1.51"/><path d="M-323,825L-38,825L-38,540Z" fill="#a7d78f" stroke="#a7d78f" stroke-width="1.51"/><path d="M-323,540L-323,825L-38,540Z" fill="#b1dd9a" stroke="#b1dd9a" stroke-width="1.51"/><path d="M-323,540L-38,540L-38,255Z" fill="#c3e69e" stroke="#c3e69e" stroke-width="1.51"/><path d="M-323,255L-323,540L-38,255Z" fill="#ceeba8" stroke="#ceeba8" stroke-width="1.51"/><path d="M-323,255L-38,255L-38,-30Z" fill="#def2aa" stroke="#def2aa" stroke-width="1.51"/><path d="M-323,-30L-323,255L-38,-30Z" fill="#e8f6b4" stroke="#e8f6b4" stroke-width="1.51"/><path d="M-323,-30L-38,-30L-38,-315Z" fill="#f3fab7" stroke="#f3fab7" stroke-width="1.51"/><path d="M-323,-315L-323,-30L-38,-315Z" fill="#f9fcc2" stroke="#f9fcc2" stroke-width="1.51"/></svg>