<svg xmlns="http://www.w3.org/2000/svg" width="1920" height="1080"><path d="M1230,1398L756,1412L1398,1432Z" fill="#4587b1" stroke="#4587b1" stroke-width="1.51"/><path d="M1922,904L1917,1010L2183,750Z" fill="#2e86bc" stroke="#2e86bc" stroke-width="1.51"/><path d="M1841,189L2184,432L2285,356Z" fill="#6a9aae" stroke="#6a9aae" stroke-width="1.51"/><path d="M2184,432L2183,750L2285,356Z" fill="#548dac" stroke="#548dac" stroke-width="1.51"/><path d="M1937,-208L1862,-79L2286,-162Z" fill="#89a9c2" stroke="#89a9c2" stroke-width="1.51"/><path d="M1841,189L2285,356L2286,-162Z" fill="#799eb0" stroke="#799eb0" stroke-width="1.51"/><path d="M1862,-79L1841,189L2286,-162Z" fill="#85a9bd" stroke="#85a9bd" stroke-width="1.51"/><path d="M1322,-424L1759,-353L2306,-267Z" fill="#97b9d0" stroke="#97b9d0" stroke-width="1.51"/><path d="M1759,-353L1937,-208L2306,-267Z" fill="#8eadc8" stroke="#8eadc8" stroke-width="1.51"/><path d="M2286,-162L2285,356L2306,-267Z" fill="#7e97ac" stroke="#7e97ac" stroke-width="1.51"/><path d="M2183,750L1917,1010L2314,1162Z" fill="#2578b1" stroke="#2578b1" stroke-width="1.51"/><path d="M2285,356L2183,750L2314,1162Z" fill="#3880b0" stroke="#3880b0" stroke-width="1.51"/><path d="M2306,-267L2285,356L2314,1162Z" fill="#5d8ba5" stroke="#5d8ba5" stroke-width="1.51"/><path d="M1816,1321L1398,1432L2315,1273Z" fill="#166dac" stroke="#166dac" stroke-width="1.51"/><path d="M2314,1162L1917,1010L2315,1273Z" fill="#1769a7" stroke="#1769a7" stroke-width="1.51"/><path d="M1917,1010L1816,1321L2315,1273Z" fill="#136eb0" stroke="#136eb0" stroke-width="1.51"/><path d="M1937,-208L2286,-162L2306,-267Z" fill="#88a1bb" stroke="#88a1bb" stroke-width="1.51"/><path d="M629,-438L829,-395L1322,-424Z" fill="#bce5d8" stroke="#bce5d8" stroke-width="1.51"/><path d="M1918,659L1922,904L2183,750Z" fill="#388fc0" stroke="#388fc0" stroke-width="1.51"/><path d="M1918,659L2183,750L2184,432Z" fill="#4b91b7" stroke="#4b91b7" stroke-width="1.51"/><path d="M1798,430L1918,659L2184,432Z" fill="#589cb9" stroke="#589cb9" stroke-width="1.51"/><path d="M1841,189L1798,430L2184,432Z" fill="#6ba3b6" stroke="#6ba3b6" stroke-width="1.51"/><path d="M1581,1195L1614,1259L1816,1321Z" fill="#207cb6" stroke="#207cb6" stroke-width="1.51"/><path d="M1581,1195L1816,1321L1917,1010Z" fill="#217db7" stroke="#217db7" stroke-width="1.51"/><path d="M1918,659L1636,710L1922,904Z" fill="#3e98c4" stroke="#3e98c4" stroke-width="1.51"/><path d="M1759,-353L1862,-79L1937,-208Z" fill="#8fb4c9" stroke="#8fb4c9" stroke-width="1.51"/><path d="M1636,710L1581,1195L1917,1010Z" fill="#308fc0" stroke="#308fc0" stroke-width="1.51"/><path d="M1798,430L1636,710L1918,659Z" fill="#52a3c0" stroke="#52a3c0" stroke-width="1.51"/><path d="M1636,710L1917,1010L1922,904Z" fill="#3490c1" stroke="#3490c1" stroke-width="1.51"/><path d="M1384,943L1581,1195L1636,710Z" fill="#3a9ac6" stroke="#3a9ac6" stroke-width="1.51"/><path d="M1614,1259L1398,1432L1816,1321Z" fill="#2379b2" stroke="#2379b2" stroke-width="1.51"/><path d="M1530,389L1798,430L1841,189Z" fill="#71afba" stroke="#71afba" stroke-width="1.51"/><path d="M1545,38L1841,189L1862,-79Z" fill="#88b6c0" stroke="#88b6c0" stroke-width="1.51"/><path d="M1759,-353L1545,38L1862,-79Z" fill="#90bac9" stroke="#90bac9" stroke-width="1.51"/><path d="M1545,38L1530,389L1841,189Z" fill="#7eb8be" stroke="#7eb8be" stroke-width="1.51"/><path d="M1412,-43L1545,38L1759,-353Z" fill="#94c2cc" stroke="#94c2cc" stroke-width="1.51"/><path d="M1530,389L1636,710L1798,430Z" fill="#5fadc1" stroke="#5fadc1" stroke-width="1.51"/><path d="M1322,-424L1412,-43L1759,-353Z" fill="#9dc9d4" stroke="#9dc9d4" stroke-width="1.51"/><path d="M161,1264L-331,1318L756,1412Z" fill="#82a3b7" stroke="#82a3b7" stroke-width="1.51"/><path d="M1333,117L1530,389L1545,38Z" fill="#86c2c4" stroke="#86c2c4" stroke-width="1.51"/><path d="M1530,389L1411,448L1636,710Z" fill="#63b5c5" stroke="#63b5c5" stroke-width="1.51"/><path d="M1411,448L1384,943L1636,710Z" fill="#52aecc" stroke="#52aecc" stroke-width="1.51"/><path d="M1384,943L1370,1208L1581,1195Z" fill="#3593c2" stroke="#3593c2" stroke-width="1.51"/><path d="M1581,1195L1370,1208L1614,1259Z" fill="#2c87bc" stroke="#2c87bc" stroke-width="1.51"/><path d="M1370,1208L1398,1432L1614,1259Z" fill="#2c84ba" stroke="#2c84ba" stroke-width="1.51"/><path d="M1136,823L1384,943L1411,448Z" fill="#54b5d2" stroke="#54b5d2" stroke-width="1.51"/><path d="M1322,-424L1167,-180L1412,-43Z" fill="#a2d3d7" stroke="#a2d3d7" stroke-width="1.51"/><path d="M1333,117L1411,448L1530,389Z" fill="#7cc0c3" stroke="#7cc0c3" stroke-width="1.51"/><path d="M1412,-43L1333,117L1545,38Z" fill="#92c8c9" stroke="#92c8c9" stroke-width="1.51"/><path d="M1212,1182L1370,1208L1384,943Z" fill="#3b99c6" stroke="#3b99c6" stroke-width="1.51"/><path d="M1370,1208L1230,1398L1398,1432Z" fill="#3486ba" stroke="#3486ba" stroke-width="1.51"/><path d="M1333,117L986,385L1411,448Z" fill="#84c9c4" stroke="#84c9c4" stroke-width="1.51"/><path d="M1055,613L1136,823L1411,448Z" fill="#66bfcc" stroke="#66bfcc" stroke-width="1.51"/><path d="M1092,-13L1333,117L1412,-43Z" fill="#99d1cd" stroke="#99d1cd" stroke-width="1.51"/><path d="M1167,-180L1092,-13L1412,-43Z" fill="#9fd4d0" stroke="#9fd4d0" stroke-width="1.51"/><path d="M986,385L1055,613L1411,448Z" fill="#78c7c7" stroke="#78c7c7" stroke-width="1.51"/><path d="M-76,1267L-331,1318L161,1264Z" fill="#8baac3" stroke="#8baac3" stroke-width="1.51"/><path d="M1212,1182L1230,1398L1370,1208Z" fill="#3a90c0" stroke="#3a90c0" stroke-width="1.51"/><path d="M1136,823L1212,1182L1384,943Z" fill="#48a6ca" stroke="#48a6ca" stroke-width="1.51"/><path d="M603,1340L161,1264L756,1412Z" fill="#739eaf" stroke="#739eaf" stroke-width="1.51"/><path d="M1092,-13L986,385L1333,117Z" fill="#95d1c5" stroke="#95d1c5" stroke-width="1.51"/><path d="M1136,823L959,993L1212,1182Z" fill="#53aac6" stroke="#53aac6" stroke-width="1.51"/><path d="M829,-395L1167,-180L1322,-424Z" fill="#b0ddd8" stroke="#b0ddd8" stroke-width="1.51"/><path d="M876,139L986,385L1092,-13Z" fill="#9bd7c1" stroke="#9bd7c1" stroke-width="1.51"/><path d="M1212,1182L756,1412L1230,1398Z" fill="#4b91b7" stroke="#4b91b7" stroke-width="1.51"/><path d="M959,993L756,1412L1212,1182Z" fill="#549fbd" stroke="#549fbd" stroke-width="1.51"/><path d="M1055,613L927,694L1136,823Z" fill="#6ac0cb" stroke="#6ac0cb" stroke-width="1.51"/><path d="M829,-395L1092,-13L1167,-180Z" fill="#adddd1" stroke="#adddd1" stroke-width="1.51"/><path d="M829,-395L709,-7L1092,-13Z" fill="#b2e1cb" stroke="#b2e1cb" stroke-width="1.51"/><path d="M927,694L959,993L1136,823Z" fill="#62bacb" stroke="#62bacb" stroke-width="1.51"/><path d="M709,-7L876,139L1092,-13Z" fill="#aaddc3" stroke="#aaddc3" stroke-width="1.51"/><path d="M596,1220L756,1412L959,993Z" fill="#65a2b8" stroke="#65a2b8" stroke-width="1.51"/><path d="M748,502L927,694L986,385Z" fill="#82cec2" stroke="#82cec2" stroke-width="1.51"/><path d="M986,385L927,694L1055,613Z" fill="#78cac5" stroke="#78cac5" stroke-width="1.51"/><path d="M927,694L480,849L959,993Z" fill="#72bfc6" stroke="#72bfc6" stroke-width="1.51"/><path d="M876,139L748,502L986,385Z" fill="#94d4bc" stroke="#94d4bc" stroke-width="1.51"/><path d="M583,-137L709,-7L829,-395Z" fill="#bde5c8" stroke="#bde5c8" stroke-width="1.51"/><path d="M480,849L596,1220L959,993Z" fill="#72b3bd" stroke="#72b3bd" stroke-width="1.51"/><path d="M-113,-356L375,-318L629,-438Z" fill="#dbf1d6" stroke="#dbf1d6" stroke-width="1.51"/><path d="M550,445L748,502L876,139Z" fill="#9bd7ba" stroke="#9bd7ba" stroke-width="1.51"/><path d="M748,502L480,849L927,694Z" fill="#82cac4" stroke="#82cac4" stroke-width="1.51"/><path d="M629,-438L583,-137L829,-395Z" fill="#c5e8ce" stroke="#c5e8ce" stroke-width="1.51"/><path d="M709,-7L550,445L876,139Z" fill="#a9ddbb" stroke="#a9ddbb" stroke-width="1.51"/><path d="M596,1220L603,1340L756,1412Z" fill="#6b9cb0" stroke="#6b9cb0" stroke-width="1.51"/><path d="M417,382L550,445L709,-7Z" fill="#acdfb6" stroke="#acdfb6" stroke-width="1.51"/><path d="M550,445L480,849L748,502Z" fill="#90d1bf" stroke="#90d1bf" stroke-width="1.51"/><path d="M480,849L362,1136L596,1220Z" fill="#7db4bd" stroke="#7db4bd" stroke-width="1.51"/><path d="M583,-137L373,-127L709,-7Z" fill="#c2e7c4" stroke="#c2e7c4" stroke-width="1.51"/><path d="M373,-127L417,382L709,-7Z" fill="#bde5be" stroke="#bde5be" stroke-width="1.51"/><path d="M205,769L480,849L550,445Z" fill="#94d1c6" stroke="#94d1c6" stroke-width="1.51"/><path d="M375,-318L583,-137L629,-438Z" fill="#ccebcd" stroke="#ccebcd" stroke-width="1.51"/><path d="M417,382L151,614L550,445Z" fill="#a4dbc0" stroke="#a4dbc0" stroke-width="1.51"/><path d="M151,614L205,769L550,445Z" fill="#9fd7c6" stroke="#9fd7c6" stroke-width="1.51"/><path d="M375,-318L373,-127L583,-137Z" fill="#ccebcb" stroke="#ccebcb" stroke-width="1.51"/><path d="M596,1220L362,1136L603,1340Z" fill="#75a6b6" stroke="#75a6b6" stroke-width="1.51"/><path d="M362,1136L161,1264L603,1340Z" fill="#7ca8b8" stroke="#7ca8b8" stroke-width="1.51"/><path d="M373,-127L145,338L417,382Z" fill="#bee5be" stroke="#bee5be" stroke-width="1.51"/><path d="M-9,115L145,338L373,-127Z" fill="#c9eac5" stroke="#c9eac5" stroke-width="1.51"/><path d="M205,769L362,1136L480,849Z" fill="#8ac2c5" stroke="#8ac2c5" stroke-width="1.51"/><path d="M145,338L151,614L417,382Z" fill="#afdec2" stroke="#afdec2" stroke-width="1.51"/><path d="M205,769L161,1264L362,1136Z" fill="#89b8c2" stroke="#89b8c2" stroke-width="1.51"/><path d="M-113,-356L-116,-22L373,-127Z" fill="#daf1d4" stroke="#daf1d4" stroke-width="1.51"/><path d="M-113,-356L373,-127L375,-318Z" fill="#daf1d3" stroke="#daf1d3" stroke-width="1.51"/><path d="M-116,-22L-9,115L373,-127Z" fill="#d3eecc" stroke="#d3eecc" stroke-width="1.51"/><path d="M-134,1084L161,1264L205,769Z" fill="#8fbcc7" stroke="#8fbcc7" stroke-width="1.51"/><path d="M145,338L-72,622L151,614Z" fill="#acdeca" stroke="#acdeca" stroke-width="1.51"/><path d="M-134,1084L-76,1267L161,1264Z" fill="#8cb0c4" stroke="#8cb0c4" stroke-width="1.51"/><path d="M151,614L-65,770L205,769Z" fill="#9fd4cf" stroke="#9fd4cf" stroke-width="1.51"/><path d="M-65,770L-134,1084L205,769Z" fill="#99cbd1" stroke="#99cbd1" stroke-width="1.51"/><path d="M-72,622L-65,770L151,614Z" fill="#a5d7d0" stroke="#a5d7d0" stroke-width="1.51"/><path d="M-367,473L-72,622L-9,115Z" fill="#bde5cc" stroke="#bde5cc" stroke-width="1.51"/><path d="M-9,115L-72,622L145,338Z" fill="#bbe4c6" stroke="#bbe4c6" stroke-width="1.51"/><path d="M-244,-291L-283,-110L-116,-22Z" fill="#e1f4db" stroke="#e1f4db" stroke-width="1.51"/><path d="M-244,-291L-116,-22L-113,-356Z" fill="#e2f4dd" stroke="#e2f4dd" stroke-width="1.51"/><path d="M-116,-22L-386,224L-9,115Z" fill="#d4eed0" stroke="#d4eed0" stroke-width="1.51"/><path d="M-386,224L-367,473L-9,115Z" fill="#caebcd" stroke="#caebcd" stroke-width="1.51"/><path d="M-134,1084L-280,1211L-76,1267Z" fill="#90b2c9" stroke="#90b2c9" stroke-width="1.51"/><path d="M-409,955L-134,1084L-65,770Z" fill="#9cc7d4" stroke="#9cc7d4" stroke-width="1.51"/><path d="M-72,622L-367,473L-65,770Z" fill="#addcd4" stroke="#addcd4" stroke-width="1.51"/><path d="M-367,473L-409,955L-65,770Z" fill="#a9d8db" stroke="#a9d8db" stroke-width="1.51"/><path d="M-280,1211L-331,1318L-76,1267Z" fill="#90adc9" stroke="#90adc9" stroke-width="1.51"/><path d="M-283,-110L-386,224L-116,-22Z" fill="#dcf1d5" stroke="#dcf1d5" stroke-width="1.51"/><path d="M-409,955L-280,1211L-134,1084Z" fill="#97bcd1" stroke="#97bcd1" stroke-width="1.51"/><path d="M-386,224L-283,-110L-244,-291Z" fill="#e1f3da" stroke="#e1f3da" stroke-width="1.51"/><path d="M-409,955L-331,1318L-280,1211Z" fill="#97b7d0" stroke="#97b7d0" stroke-width="1.51"/><path d="M-386,224L-409,955L-367,473Z" fill="#b8e3d8" stroke="#b8e3d8" stroke-width="1.51"/></svg>