<svg xmlns="http://www.w3.org/2000/svg" width="1920" height="1080"><path d="M1957,1395L2242,1395L2242,1110Z" fill="#035382" stroke="#035382" stroke-width="1.51"/><path d="M1957,1110L1957,1395L2242,1110Z" fill="#045c91" stroke="#045c91" stroke-width="1.51"/><path d="M1957,1110L2242,1110L2242,825Z" fill="#086096" stroke="#086096" stroke-width="1.51"/><path d="M1957,825L1957,1110L2242,825Z" fill="#156ba0" stroke="#156ba0" stroke-width="1.51"/><path d="M1957,825L2242,825L2242,540Z" fill="#2b719f" stroke="#2b719f" stroke-width="1.51"/><path d="M1957,540L1957,825L2242,540Z" fill="#3a7ba9" stroke="#3a7ba9" stroke-width="1.51"/><path d="M1957,540L2242,540L2242,255Z" fill="#507ea7" stroke="#507ea7" stroke-width="1.51"/><path d="M1957,255L1957,540L2242,255Z" fill="#5d86b0" stroke="#5d86b0" stroke-width="1.51"/><path d="M1957,255L2242,255L2242,-30Z" fill="#6c88ad" stroke="#6c88ad" stroke-width="1.51"/><path d="M1957,-30L1957,255L2242,-30Z" fill="#7891b6" stroke="#7891b6" stroke-width="1.51"/><path d="M1957,-30L2242,-30L2242,-315Z" fill="#8093b3" stroke="#8093b3" stroke-width="1.51"/><path d="M1957,-315L1957,-30L2242,-315Z" fill="#899dbd" stroke="#899dbd" stroke-width="1.51"/><path d="M1672,1395L1957,1395L1957,1110Z" fill="#045e93" stroke="#045e93" stroke-width="1.51"/><path d="M1672,1110L1672,1395L1957,1110Z" fill="#0465a0" stroke="#0465a0" stroke-width="1.51"/><path d="M1672,1110L1957,1110L1957,825Z" fill="#096ba7" stroke="#096ba7" stroke-width="1.51"/><path d="M1672,825L1672,1110L1957,825Z" fill="#1774af" stroke="#1774af" stroke-width="1.51"/><path d="M1672,825L1957,825L1957,540Z" fill="#2e7db0" stroke="#2e7db0" stroke-width="1.51"/><path d="M1672,540L1672,825L1957,540Z" fill="#3e84b8" stroke="#3e84b8" stroke-width="1.51"/><path d="M1672,540L1957,540L1957,255Z" fill="#5589b8" stroke="#5589b8" stroke-width="1.51"/><path d="M1672,255L1672,540L1957,255Z" fill="#6290bf" stroke="#6290bf" stroke-width="1.51"/><path d="M1672,255L1957,255L1957,-30Z" fill="#7394bf" stroke="#7394bf" stroke-width="1.51"/><path d="M1672,-30L1672,255L1957,-30Z" fill="#7e9bc6" stroke="#7e9bc6" stroke-width="1.51"/><path d="M1672,-30L1957,-30L1957,-315Z" fill="#88a0c5" stroke="#88a0c5" stroke-width="1.51"/><path d="M1672,-315L1672,-30L1957,-315Z" fill="#8fa6cc" stroke="#8fa6cc" stroke-width="1.51"/><path d="M1387,1395L1672,1395L1672,1110Z" fill="#10689f" stroke="#10689f" stroke-width="1.51"/><path d="M1387,1110L1387,1395L1672,1110Z" fill="#1871a9" stroke="#1871a9" stroke-width="1.51"/><path d="M1387,1110L1672,1110L1672,825Z" fill="#1575b3" stroke="#1575b3" stroke-width="1.51"/><path d="M1387,825L1387,1110L1672,825Z" fill="#2580b9" stroke="#2580b9" stroke-width="1.51"/><path d="M1387,825L1672,825L1672,540Z" fill="#3587bc" stroke="#3587bc" stroke-width="1.51"/><path d="M1387,540L1387,825L1672,540Z" fill="#4790c1" stroke="#4790c1" stroke-width="1.51"/><path d="M1387,540L1672,540L1672,255Z" fill="#5c94c4" stroke="#5c94c4" stroke-width="1.51"/><path d="M1387,255L1387,540L1672,255Z" fill="#6a9cc9" stroke="#6a9cc9" stroke-width="1.51"/><path d="M1387,255L1672,255L1672,-30Z" fill="#7a9ecb" stroke="#7a9ecb" stroke-width="1.51"/><path d="M1387,-30L1387,255L1672,-30Z" fill="#86a7cf" stroke="#86a7cf" stroke-width="1.51"/><path d="M1387,-30L1672,-30L1672,-315Z" fill="#8faad1" stroke="#8faad1" stroke-width="1.51"/><path d="M1387,-315L1387,-30L1672,-315Z" fill="#97b3d6" stroke="#97b3d6" stroke-width="1.51"/><path d="M1102,1395L1387,1395L1387,1110Z" fill="#2574a5" stroke="#2574a5" stroke-width="1.51"/><path d="M1102,1110L1102,1395L1387,1110Z" fill="#327caf" stroke="#327caf" stroke-width="1.51"/><path d="M1102,1110L1387,1110L1387,825Z" fill="#2a82ba" stroke="#2a82ba" stroke-width="1.51"/><path d="M1102,825L1102,1110L1387,825Z" fill="#3b8bbf" stroke="#3b8bbf" stroke-width="1.51"/><path d="M1102,825L1387,825L1387,540Z" fill="#4294c2" stroke="#4294c2" stroke-width="1.51"/><path d="M1102,540L1102,825L1387,540Z" fill="#579bc7" stroke="#579bc7" stroke-width="1.51"/><path d="M1102,540L1387,540L1387,255Z" fill="#66a1ca" stroke="#66a1ca" stroke-width="1.51"/><path d="M1102,255L1102,540L1387,255Z" fill="#78a8cf" stroke="#78a8cf" stroke-width="1.51"/><path d="M1102,255L1387,255L1387,-30Z" fill="#84acd1" stroke="#84acd1" stroke-width="1.51"/><path d="M1102,-30L1102,255L1387,-30Z" fill="#93b3d5" stroke="#93b3d5" stroke-width="1.51"/><path d="M1102,-30L1387,-30L1387,-315Z" fill="#99b8d8" stroke="#99b8d8" stroke-width="1.51"/><path d="M1102,-315L1102,-30L1387,-315Z" fill="#a4bfdc" stroke="#a4bfdc" stroke-width="1.51"/><path d="M817,1395L1102,1395L1102,1110Z" fill="#437eab" stroke="#437eab" stroke-width="1.51"/><path d="M817,1110L817,1395L1102,1110Z" fill="#4d85b5" stroke="#4d85b5" stroke-width="1.51"/><path d="M817,1110L1102,1110L1102,825Z" fill="#498cc0" stroke="#498cc0" stroke-width="1.51"/><path d="M817,825L817,1110L1102,825Z" fill="#5695c5" stroke="#5695c5" stroke-width="1.51"/><path d="M817,825L1102,825L1102,540Z" fill="#5c9ec9" stroke="#5c9ec9" stroke-width="1.51"/><path d="M817,540L817,825L1102,540Z" fill="#6da5cd" stroke="#6da5cd" stroke-width="1.51"/><path d="M817,540L1102,540L1102,255Z" fill="#7babd0" stroke="#7babd0" stroke-width="1.51"/><path d="M817,255L817,540L1102,255Z" fill="#8bb2d5" stroke="#8bb2d5" stroke-width="1.51"/><path d="M817,255L1102,255L1102,-30Z" fill="#96b6d7" stroke="#96b6d7" stroke-width="1.51"/><path d="M817,-30L817,255L1102,-30Z" fill="#a5bddb" stroke="#a5bddb" stroke-width="1.51"/><path d="M817,-30L1102,-30L1102,-315Z" fill="#abc3de" stroke="#abc3de" stroke-width="1.51"/><path d="M817,-315L817,-30L1102,-315Z" fill="#b6cae2" stroke="#b6cae2" stroke-width="1.51"/><path d="M532,1395L817,1395L817,1110Z" fill="#5a85b0" stroke="#5a85b0" stroke-width="1.51"/><path d="M532,1110L532,1395L817,1110Z" fill="#648db9" stroke="#648db9" stroke-width="1.51"/><path d="M532,1110L817,1110L817,825Z" fill="#6294c5" stroke="#6294c5" stroke-width="1.51"/><path d="M532,825L532,1110L817,825Z" fill="#6e9dc9" stroke="#6e9dc9" stroke-width="1.51"/><path d="M532,825L817,825L817,540Z" fill="#73a6ce" stroke="#73a6ce" stroke-width="1.51"/><path d="M532,540L532,825L817,540Z" fill="#83add2" stroke="#83add2" stroke-width="1.51"/><path d="M532,540L817,540L817,255Z" fill="#8fb3d6" stroke="#8fb3d6" stroke-width="1.51"/><path d="M532,255L532,540L817,255Z" fill="#9fbad9" stroke="#9fbad9" stroke-width="1.51"/><path d="M532,255L817,255L817,-30Z" fill="#a9bedc" stroke="#a9bedc" stroke-width="1.51"/><path d="M532,-30L532,255L817,-30Z" fill="#b8c5e0" stroke="#b8c5e0" stroke-width="1.51"/><path d="M532,-30L817,-30L817,-315Z" fill="#bdcbe3" stroke="#bdcbe3" stroke-width="1.51"/><path d="M532,-315L532,-30L817,-315Z" fill="#c8d2e6" stroke="#c8d2e6" stroke-width="1.51"/><path d="M247,1395L532,1395L532,1110Z" fill="#6e8db4" stroke="#6e8db4" stroke-width="1.51"/><path d="M247,1110L247,1395L532,1110Z" fill="#7795be" stroke="#7795be" stroke-width="1.51"/><path d="M247,1110L532,1110L532,825Z" fill="#779bc9" stroke="#779bc9" stroke-width="1.51"/><path d="M247,825L247,1110L532,825Z" fill="#81a5ce" stroke="#81a5ce" stroke-width="1.51"/><path d="M247,825L532,825L532,540Z" fill="#87aed2" stroke="#87aed2" stroke-width="1.51"/><path d="M247,540L247,825L532,540Z" fill="#95b5d6" stroke="#95b5d6" stroke-width="1.51"/><path d="M247,540L532,540L532,255Z" fill="#a2bbda" stroke="#a2bbda" stroke-width="1.51"/><path d="M247,255L247,540L532,255Z" fill="#b0c2de" stroke="#b0c2de" stroke-width="1.51"/><path d="M247,255L532,255L532,-30Z" fill="#bbc6e0" stroke="#bbc6e0" stroke-width="1.51"/><path d="M247,-30L247,255L532,-30Z" fill="#c9cde4" stroke="#c9cde4" stroke-width="1.51"/><path d="M247,-30L532,-30L532,-315Z" fill="#cfd3e7" stroke="#cfd3e7" stroke-width="1.51"/><path d="M247,-315L247,-30L532,-315Z" fill="#d9daeb" stroke="#d9daeb" stroke-width="1.51"/><path d="M-38,1395L247,1395L247,1110Z" fill="#7e95b9" stroke="#7e95b9" stroke-width="1.51"/><path d="M-38,1110L-38,1395L247,1110Z" fill="#859cc2" stroke="#859cc2" stroke-width="1.51"/><path d="M-38,1110L247,1110L247,825Z" fill="#87a3ce" stroke="#87a3ce" stroke-width="1.51"/><path d="M-38,825L-38,1110L247,825Z" fill="#8fadd2" stroke="#8fadd2" stroke-width="1.51"/><path d="M-38,825L247,825L247,540Z" fill="#97b6d7" stroke="#97b6d7" stroke-width="1.51"/><path d="M-38,540L-38,825L247,540Z" fill="#a3bedb" stroke="#a3bedb" stroke-width="1.51"/><path d="M-38,540L247,540L247,255Z" fill="#b1c4df" stroke="#b1c4df" stroke-width="1.51"/><path d="M-38,255L-38,540L247,255Z" fill="#becae2" stroke="#becae2" stroke-width="1.51"/><path d="M-38,255L247,255L247,-30Z" fill="#cacfe5" stroke="#cacfe5" stroke-width="1.51"/><path d="M-38,-30L-38,255L247,-30Z" fill="#d6d6e9" stroke="#d6d6e9" stroke-width="1.51"/><path d="M-38,-30L247,-30L247,-315Z" fill="#dddbeb" stroke="#dddbeb" stroke-width="1.51"/><path d="M-38,-315L-38,-30L247,-315Z" fill="#e6e2ef" stroke="#e6e2ef" stroke-width="1.51"/><path d="M-323,1395L-38,1395L-38,1110Z" fill="#899dbe" stroke="#899dbe" stroke-width="1.51"/><path d="M-323,1110L-323,1395L-38,1110Z" fill="#8fa3c7" stroke="#8fa3c7" stroke-width="1.51"/><path d="M-323,1110L-38,1110L-38,825Z" fill="#92abd3" stroke="#92abd3" stroke-width="1.51"/><path d="M-323,825L-323,1110L-38,825Z" fill="#99b4d7" stroke="#99b4d7" stroke-width="1.51"/><path d="M-323,825L-38,825L-38,540Z" fill="#a2bedc" stroke="#a2bedc" stroke-width="1.51"/><path d="M-323,540L-323,825L-38,540Z" fill="#adc5df" stroke="#adc5df" stroke-width="1.51"/><path d="M-323,540L-38,540L-38,255Z" fill="#bccce4" stroke="#bccce4" stroke-width="1.51"/><path d="M-323,255L-323,540L-38,255Z" fill="#c7d2e7" stroke="#c7d2e7" stroke-width="1.51"/><path d="M-323,255L-38,255L-38,-30Z" fill="#d5d7ea" stroke="#d5d7ea" stroke-width="1.51"/><path d="M-323,-30L-323,255L-38,-30Z" fill="#dfdded" stroke="#dfdded" stroke-width="1.51"/><path d="M-323,-30L-38,-30L-38,-315Z" fill="#e8e4f0" stroke="#e8e4f0" stroke-width="1.51"/><path d="M-323,-315L-323,-30L-38,-315Z" fill="#efeaf3" stroke="#efeaf3" stroke-width="1.51"/></svg>