<svg xmlns="http://www.w3.org/2000/svg" width="1920" height="1080"><path d="M2040,1380L2280,1380L2280,1140Z" fill="#4029a6" stroke="#4029a6" stroke-width="1.51"/><path d="M2040,1140L2040,1380L2280,1140Z" fill="#4a37c0" stroke="#4a37c0" stroke-width="1.51"/><path d="M2040,1140L2280,1140L2280,900Z" fill="#483cbd" stroke="#483cbd" stroke-width="1.51"/><path d="M2040,900L2040,1140L2280,900Z" fill="#4a45c8" stroke="#4a45c8" stroke-width="1.51"/><path d="M2040,900L2280,900L2280,660Z" fill="#4548bd" stroke="#4548bd" stroke-width="1.51"/><path d="M2040,660L2040,900L2280,660Z" fill="#4a53c8" stroke="#4a53c8" stroke-width="1.51"/><path d="M2040,660L2280,660L2280,420Z" fill="#4858bd" stroke="#4858bd" stroke-width="1.51"/><path d="M2040,420L2040,660L2280,420Z" fill="#4e67c9" stroke="#4e67c9" stroke-width="1.51"/><path d="M2040,420L2280,420L2280,180Z" fill="#507cc3" stroke="#507cc3" stroke-width="1.51"/><path d="M2040,180L2040,420L2280,180Z" fill="#568fcf" stroke="#568fcf" stroke-width="1.51"/><path d="M2040,180L2280,180L2280,-60Z" fill="#7e70ba" stroke="#7e70ba" stroke-width="1.51"/><path d="M2040,-60L2040,180L2280,-60Z" fill="#965dbc" stroke="#965dbc" stroke-width="1.51"/><path d="M2040,-60L2280,-60L2280,-300Z" fill="#a039a0" stroke="#a039a0" stroke-width="1.51"/><path d="M2040,-300L2040,-60L2280,-300Z" fill="#9a5f9e" stroke="#9a5f9e" stroke-width="1.51"/><path d="M1800,1380L2040,1380L2040,1140Z" fill="#4c3ac5" stroke="#4c3ac5" stroke-width="1.51"/><path d="M1800,1140L1800,1380L2040,1140Z" fill="#5547da" stroke="#5547da" stroke-width="1.51"/><path d="M1800,1140L2040,1140L2040,900Z" fill="#544ddc" stroke="#544ddc" stroke-width="1.51"/><path d="M1800,900L1800,1140L2040,900Z" fill="#5455e2" stroke="#5455e2" stroke-width="1.51"/><path d="M1800,900L2040,900L2040,660Z" fill="#5159dd" stroke="#5159dd" stroke-width="1.51"/><path d="M1800,660L1800,900L2040,660Z" fill="#5363e2" stroke="#5363e2" stroke-width="1.51"/><path d="M1800,660L2040,660L2040,420Z" fill="#5469dd" stroke="#5469dd" stroke-width="1.51"/><path d="M1800,420L1800,660L2040,420Z" fill="#5777e3" stroke="#5777e3" stroke-width="1.51"/><path d="M1800,420L2040,420L2040,180Z" fill="#5c8ee2" stroke="#5c8ee2" stroke-width="1.51"/><path d="M1800,180L1800,420L2040,180Z" fill="#5fa0ea" stroke="#5fa0ea" stroke-width="1.51"/><path d="M1800,180L2040,180L2040,-60Z" fill="#8d82d9" stroke="#8d82d9" stroke-width="1.51"/><path d="M1800,-60L1800,180L2040,-60Z" fill="#a46ed6" stroke="#a46ed6" stroke-width="1.51"/><path d="M1800,-60L2040,-60L2040,-300Z" fill="#b34cbe" stroke="#b34cbe" stroke-width="1.51"/><path d="M1800,-300L1800,-60L2040,-300Z" fill="#a96fb7" stroke="#a96fb7" stroke-width="1.51"/><path d="M1560,1380L1800,1380L1800,1140Z" fill="#4c44ca" stroke="#4c44ca" stroke-width="1.51"/><path d="M1560,1140L1560,1380L1800,1140Z" fill="#524fda" stroke="#524fda" stroke-width="1.51"/><path d="M1560,1140L1800,1140L1800,900Z" fill="#5457e2" stroke="#5457e2" stroke-width="1.51"/><path d="M1560,900L1560,1140L1800,900Z" fill="#515de2" stroke="#515de2" stroke-width="1.51"/><path d="M1560,900L1800,900L1800,660Z" fill="#5062e2" stroke="#5062e2" stroke-width="1.51"/><path d="M1560,660L1560,900L1800,660Z" fill="#4f6ae2" stroke="#4f6ae2" stroke-width="1.51"/><path d="M1560,660L1800,660L1800,420Z" fill="#5272e2" stroke="#5272e2" stroke-width="1.51"/><path d="M1560,420L1560,660L1800,420Z" fill="#527ee3" stroke="#527ee3" stroke-width="1.51"/><path d="M1560,420L1800,420L1800,180Z" fill="#5997e8" stroke="#5997e8" stroke-width="1.51"/><path d="M1560,180L1560,420L1800,180Z" fill="#58a7ea" stroke="#58a7ea" stroke-width="1.51"/><path d="M1560,180L1800,180L1800,-60Z" fill="#8d8bdf" stroke="#8d8bdf" stroke-width="1.51"/><path d="M1560,-60L1560,180L1800,-60Z" fill="#a276d6" stroke="#a276d6" stroke-width="1.51"/><path d="M1560,-60L1800,-60L1800,-300Z" fill="#b457c4" stroke="#b457c4" stroke-width="1.51"/><path d="M1560,-300L1560,-60L1800,-300Z" fill="#a777b7" stroke="#a777b7" stroke-width="1.51"/><path d="M1320,1380L1560,1380L1560,1140Z" fill="#4a4cca" stroke="#4a4cca" stroke-width="1.51"/><path d="M1320,1140L1320,1380L1560,1140Z" fill="#4f57da" stroke="#4f57da" stroke-width="1.51"/><path d="M1320,1140L1560,1140L1560,900Z" fill="#505ee2" stroke="#505ee2" stroke-width="1.51"/><path d="M1320,900L1320,1140L1560,900Z" fill="#4d64e2" stroke="#4d64e2" stroke-width="1.51"/><path d="M1320,900L1560,900L1560,660Z" fill="#4c6ae2" stroke="#4c6ae2" stroke-width="1.51"/><path d="M1320,660L1320,900L1560,660Z" fill="#4b71e2" stroke="#4b71e2" stroke-width="1.51"/><path d="M1320,660L1560,660L1560,420Z" fill="#4d79e2" stroke="#4d79e2" stroke-width="1.51"/><path d="M1320,420L1320,660L1560,420Z" fill="#4d85e3" stroke="#4d85e3" stroke-width="1.51"/><path d="M1320,420L1560,420L1560,180Z" fill="#529ee8" stroke="#529ee8" stroke-width="1.51"/><path d="M1320,180L1320,420L1560,180Z" fill="#50aeea" stroke="#50aeea" stroke-width="1.51"/><path d="M1320,180L1560,180L1560,-60Z" fill="#8a92de" stroke="#8a92de" stroke-width="1.51"/><path d="M1320,-60L1320,180L1560,-60Z" fill="#a07ed6" stroke="#a07ed6" stroke-width="1.51"/><path d="M1320,-60L1560,-60L1560,-300Z" fill="#b361c3" stroke="#b361c3" stroke-width="1.51"/><path d="M1320,-300L1320,-60L1560,-300Z" fill="#a57fb6" stroke="#a57fb6" stroke-width="1.51"/><path d="M1080,1380L1320,1380L1320,1140Z" fill="#4b56ca" stroke="#4b56ca" stroke-width="1.51"/><path d="M1080,1140L1080,1380L1320,1140Z" fill="#5262da" stroke="#5262da" stroke-width="1.51"/><path d="M1080,1140L1320,1140L1320,900Z" fill="#5168e2" stroke="#5168e2" stroke-width="1.51"/><path d="M1080,900L1080,1140L1320,900Z" fill="#4f6fe2" stroke="#4f6fe2" stroke-width="1.51"/><path d="M1080,900L1320,900L1320,660Z" fill="#4c73e2" stroke="#4c73e2" stroke-width="1.51"/><path d="M1080,660L1080,900L1320,660Z" fill="#4c7ce2" stroke="#4c7ce2" stroke-width="1.51"/><path d="M1080,660L1320,660L1320,420Z" fill="#4c82e2" stroke="#4c82e2" stroke-width="1.51"/><path d="M1080,420L1080,660L1320,420Z" fill="#4c8fe3" stroke="#4c8fe3" stroke-width="1.51"/><path d="M1080,420L1320,420L1320,180Z" fill="#4fa7e7" stroke="#4fa7e7" stroke-width="1.51"/><path d="M1080,180L1080,420L1320,180Z" fill="#4cb8e9" stroke="#4cb8e9" stroke-width="1.51"/><path d="M1080,180L1320,180L1320,-60Z" fill="#899cde" stroke="#899cde" stroke-width="1.51"/><path d="M1080,-60L1080,180L1320,-60Z" fill="#a189d6" stroke="#a189d6" stroke-width="1.51"/><path d="M1080,-60L1320,-60L1320,-300Z" fill="#b46cc3" stroke="#b46cc3" stroke-width="1.51"/><path d="M1080,-300L1080,-60L1320,-300Z" fill="#a58ab6" stroke="#a58ab6" stroke-width="1.51"/><path d="M840,1380L1080,1380L1080,1140Z" fill="#4d60ca" stroke="#4d60ca" stroke-width="1.51"/><path d="M840,1140L840,1380L1080,1140Z" fill="#556fdb" stroke="#556fdb" stroke-width="1.51"/><path d="M840,1140L1080,1140L1080,900Z" fill="#5372e2" stroke="#5372e2" stroke-width="1.51"/><path d="M840,900L840,1140L1080,900Z" fill="#517ce3" stroke="#517ce3" stroke-width="1.51"/><path d="M840,900L1080,900L1080,660Z" fill="#4c7de2" stroke="#4c7de2" stroke-width="1.51"/><path d="M840,660L840,900L1080,660Z" fill="#4d88e3" stroke="#4d88e3" stroke-width="1.51"/><path d="M840,660L1080,660L1080,420Z" fill="#4b8ce2" stroke="#4b8ce2" stroke-width="1.51"/><path d="M840,420L840,660L1080,420Z" fill="#4b9be4" stroke="#4b9be4" stroke-width="1.51"/><path d="M840,420L1080,420L1080,180Z" fill="#4bb1e7" stroke="#4bb1e7" stroke-width="1.51"/><path d="M840,180L840,420L1080,180Z" fill="#46c5e9" stroke="#46c5e9" stroke-width="1.51"/><path d="M840,180L1080,180L1080,-60Z" fill="#88a6de" stroke="#88a6de" stroke-width="1.51"/><path d="M840,-60L840,180L1080,-60Z" fill="#a297d6" stroke="#a297d6" stroke-width="1.51"/><path d="M840,-60L1080,-60L1080,-300Z" fill="#b578c3" stroke="#b578c3" stroke-width="1.51"/><path d="M840,-300L840,-60L1080,-300Z" fill="#a698b6" stroke="#a698b6" stroke-width="1.51"/><path d="M600,1380L840,1380L840,1140Z" fill="#5378ce" stroke="#5378ce" stroke-width="1.51"/><path d="M600,1140L600,1380L840,1140Z" fill="#5b8adf" stroke="#5b8adf" stroke-width="1.51"/><path d="M600,1140L840,1140L840,900Z" fill="#588be6" stroke="#588be6" stroke-width="1.51"/><path d="M600,900L600,1140L840,900Z" fill="#5697e7" stroke="#5697e7" stroke-width="1.51"/><path d="M600,900L840,900L840,660Z" fill="#5096e6" stroke="#5096e6" stroke-width="1.51"/><path d="M600,660L600,900L840,660Z" fill="#4fa3e7" stroke="#4fa3e7" stroke-width="1.51"/><path d="M600,660L840,660L840,420Z" fill="#4ca4e6" stroke="#4ca4e6" stroke-width="1.51"/><path d="M600,420L600,660L840,420Z" fill="#49b7e8" stroke="#49b7e8" stroke-width="1.51"/><path d="M600,420L840,420L840,180Z" fill="#44c9eb" stroke="#44c9eb" stroke-width="1.51"/><path d="M600,180L600,420L840,180Z" fill="#38e0ed" stroke="#38e0ed" stroke-width="1.51"/><path d="M600,180L840,180L840,-60Z" fill="#8ac0e1" stroke="#8ac0e1" stroke-width="1.51"/><path d="M600,-60L600,180L840,-60Z" fill="#a6b4da" stroke="#a6b4da" stroke-width="1.51"/><path d="M600,-60L840,-60L840,-300Z" fill="#bb94c6" stroke="#bb94c6" stroke-width="1.51"/><path d="M600,-300L600,-60L840,-300Z" fill="#aab4b9" stroke="#aab4b9" stroke-width="1.51"/><path d="M360,1380L600,1380L600,1140Z" fill="#5793d3" stroke="#5793d3" stroke-width="1.51"/><path d="M360,1140L360,1380L600,1140Z" fill="#6b9ae1" stroke="#6b9ae1" stroke-width="1.51"/><path d="M360,1140L600,1140L600,900Z" fill="#5ba6ea" stroke="#5ba6ea" stroke-width="1.51"/><path d="M360,900L360,1140L600,900Z" fill="#67a7e8" stroke="#67a7e8" stroke-width="1.51"/><path d="M360,900L600,900L600,660Z" fill="#50b1ea" stroke="#50b1ea" stroke-width="1.51"/><path d="M360,660L360,900L600,660Z" fill="#60b4e8" stroke="#60b4e8" stroke-width="1.51"/><path d="M360,660L600,660L600,420Z" fill="#48c0ea" stroke="#48c0ea" stroke-width="1.51"/><path d="M360,420L360,660L600,420Z" fill="#59c7e8" stroke="#59c7e8" stroke-width="1.51"/><path d="M360,420L600,420L600,180Z" fill="#34e5ee" stroke="#34e5ee" stroke-width="1.51"/><path d="M360,180L360,420L600,180Z" fill="#49f2ee" stroke="#49f2ee" stroke-width="1.51"/><path d="M360,180L600,180L600,-60Z" fill="#88dce4" stroke="#88dce4" stroke-width="1.51"/><path d="M360,-60L360,180L600,-60Z" fill="#b1c5da" stroke="#b1c5da" stroke-width="1.51"/><path d="M360,-60L600,-60L600,-300Z" fill="#c1b2ca" stroke="#c1b2ca" stroke-width="1.51"/><path d="M360,-300L360,-60L600,-300Z" fill="#b3c6b9" stroke="#b3c6b9" stroke-width="1.51"/><path d="M120,1380L360,1380L360,1140Z" fill="#8874c5" stroke="#8874c5" stroke-width="1.51"/><path d="M120,1140L120,1380L360,1140Z" fill="#9d6cd0" stroke="#9d6cd0" stroke-width="1.51"/><path d="M120,1140L360,1140L360,900Z" fill="#9287dd" stroke="#9287dd" stroke-width="1.51"/><path d="M120,900L120,1140L360,900Z" fill="#9e7ad8" stroke="#9e7ad8" stroke-width="1.51"/><path d="M120,900L360,900L360,660Z" fill="#8e92dd" stroke="#8e92dd" stroke-width="1.51"/><path d="M120,660L120,900L360,660Z" fill="#9d88d7" stroke="#9d88d7" stroke-width="1.51"/><path d="M120,660L360,660L360,420Z" fill="#8da2dc" stroke="#8da2dc" stroke-width="1.51"/><path d="M120,420L120,660L360,420Z" fill="#9f9dd8" stroke="#9f9dd8" stroke-width="1.51"/><path d="M120,420L360,420L360,180Z" fill="#8fc8e1" stroke="#8fc8e1" stroke-width="1.51"/><path d="M120,180L120,420L360,180Z" fill="#a4c8dd" stroke="#a4c8dd" stroke-width="1.51"/><path d="M120,180L360,180L360,-60Z" fill="#b9bed7" stroke="#b9bed7" stroke-width="1.51"/><path d="M120,-60L120,180L360,-60Z" fill="#d996ca" stroke="#d996ca" stroke-width="1.51"/><path d="M120,-60L360,-60L360,-300Z" fill="#de8ebd" stroke="#de8ebd" stroke-width="1.51"/><path d="M120,-300L120,-60L360,-300Z" fill="#d898aa" stroke="#d898aa" stroke-width="1.51"/><path d="M-120,1380L120,1380L120,1140Z" fill="#a939b5" stroke="#a939b5" stroke-width="1.51"/><path d="M-120,1140L-120,1380L120,1140Z" fill="#b343be" stroke="#b343be" stroke-width="1.51"/><path d="M-120,1140L120,1140L120,900Z" fill="#b650cd" stroke="#b650cd" stroke-width="1.51"/><path d="M-120,900L-120,1140L120,900Z" fill="#b655c5" stroke="#b655c5" stroke-width="1.51"/><path d="M-120,900L120,900L120,660Z" fill="#b55fcc" stroke="#b55fcc" stroke-width="1.51"/><path d="M-120,660L-120,900L120,660Z" fill="#b666c5" stroke="#b666c5" stroke-width="1.51"/><path d="M-120,660L120,660L120,420Z" fill="#b772cc" stroke="#b772cc" stroke-width="1.51"/><path d="M-120,420L-120,660L120,420Z" fill="#ba7ec6" stroke="#ba7ec6" stroke-width="1.51"/><path d="M-120,420L120,420L120,180Z" fill="#c09cd1" stroke="#c09cd1" stroke-width="1.51"/><path d="M-120,180L-120,420L120,180Z" fill="#c3abcb" stroke="#c3abcb" stroke-width="1.51"/><path d="M-120,180L120,180L120,-60Z" fill="#de8ec8" stroke="#de8ec8" stroke-width="1.51"/><path d="M-120,-60L-120,180L120,-60Z" fill="#eb71b9" stroke="#eb71b9" stroke-width="1.51"/><path d="M-120,-60L120,-60L120,-300Z" fill="#f74dae" stroke="#f74dae" stroke-width="1.51"/><path d="M-120,-300L-120,-60L120,-300Z" fill="#e97599" stroke="#e97599" stroke-width="1.51"/><path d="M-360,1380L-120,1380L-120,1140Z" fill="#9a659e" stroke="#9a659e" stroke-width="1.51"/><path d="M-360,1140L-360,1380L-120,1140Z" fill="#997ea5" stroke="#997ea5" stroke-width="1.51"/><path d="M-360,1140L-120,1140L-120,900Z" fill="#a578b5" stroke="#a578b5" stroke-width="1.51"/><path d="M-360,900L-360,1140L-120,900Z" fill="#998bac" stroke="#998bac" stroke-width="1.51"/><path d="M-360,900L-120,900L-120,660Z" fill="#a384b4" stroke="#a384b4" stroke-width="1.51"/><path d="M-360,660L-360,900L-120,660Z" fill="#9798ab" stroke="#9798ab" stroke-width="1.51"/><path d="M-360,660L-120,660L-120,420Z" fill="#a394b4" stroke="#a394b4" stroke-width="1.51"/><path d="M-360,420L-360,660L-120,420Z" fill="#96adab" stroke="#96adab" stroke-width="1.51"/><path d="M-360,420L-120,420L-120,180Z" fill="#a7bbb7" stroke="#a7bbb7" stroke-width="1.51"/><path d="M-360,180L-360,420L-120,180Z" fill="#95d7af" stroke="#95d7af" stroke-width="1.51"/><path d="M-360,180L-120,180L-120,-60Z" fill="#c8afae" stroke="#c8afae" stroke-width="1.51"/><path d="M-360,-60L-360,180L-120,-60Z" fill="#cda99d" stroke="#cda99d" stroke-width="1.51"/><path d="M-360,-60L-120,-60L-120,-300Z" fill="#e57f95" stroke="#e57f95" stroke-width="1.51"/><path d="M-360,-300L-360,-60L-120,-300Z" fill="#caaa7d" stroke="#caaa7d" stroke-width="1.51"/></svg>