<svg xmlns="http://www.w3.org/2000/svg" width="1920" height="1080"><path d="M1980,1260L2100,1260L2100,1140Z" fill="#a453e1" stroke="#a453e1" stroke-width="1.51"/><path d="M1980,1140L1980,1260L2100,1140Z" fill="#9862e1" stroke="#9862e1" stroke-width="1.51"/><path d="M1980,1140L2100,1140L2100,1020Z" fill="#8d6ce2" stroke="#8d6ce2" stroke-width="1.51"/><path d="M1980,1020L1980,1140L2100,1020Z" fill="#7f77e2" stroke="#7f77e2" stroke-width="1.51"/><path d="M1980,1020L2100,1020L2100,900Z" fill="#8972d5" stroke="#8972d5" stroke-width="1.51"/><path d="M1980,900L1980,1020L2100,900Z" fill="#8776cf" stroke="#8776cf" stroke-width="1.51"/><path d="M1980,900L2100,900L2100,780Z" fill="#8f71c2" stroke="#8f71c2" stroke-width="1.51"/><path d="M1980,780L1980,900L2100,780Z" fill="#8c75bc" stroke="#8c75bc" stroke-width="1.51"/><path d="M1980,780L2100,780L2100,660Z" fill="#9c7dbc" stroke="#9c7dbc" stroke-width="1.51"/><path d="M1980,660L1980,780L2100,660Z" fill="#9e89bd" stroke="#9e89bd" stroke-width="1.51"/><path d="M1980,660L2100,660L2100,540Z" fill="#b095c0" stroke="#b095c0" stroke-width="1.51"/><path d="M1980,540L1980,660L2100,540Z" fill="#b2a2c2" stroke="#b2a2c2" stroke-width="1.51"/><path d="M1980,540L2100,540L2100,420Z" fill="#c1a6c3" stroke="#c1a6c3" stroke-width="1.51"/><path d="M1980,420L1980,540L2100,420Z" fill="#c1abc3" stroke="#c1abc3" stroke-width="1.51"/><path d="M1980,420L2100,420L2100,300Z" fill="#cda7c4" stroke="#cda7c4" stroke-width="1.51"/><path d="M1980,300L1980,420L2100,300Z" fill="#cdabc4" stroke="#cdabc4" stroke-width="1.51"/><path d="M1980,300L2100,300L2100,180Z" fill="#d8a1c3" stroke="#d8a1c3" stroke-width="1.51"/><path d="M1980,180L1980,300L2100,180Z" fill="#d598c0" stroke="#d598c0" stroke-width="1.51"/><path d="M1980,180L2100,180L2100,60Z" fill="#da77bb" stroke="#da77bb" stroke-width="1.51"/><path d="M1980,60L1980,180L2100,60Z" fill="#d76db8" stroke="#d76db8" stroke-width="1.51"/><path d="M1980,60L2100,60L2100,-60Z" fill="#db40b3" stroke="#db40b3" stroke-width="1.51"/><path d="M1980,-60L1980,60L2100,-60Z" fill="#d05bb9" stroke="#d05bb9" stroke-width="1.51"/><path d="M1980,-60L2100,-60L2100,-180Z" fill="#c374c6" stroke="#c374c6" stroke-width="1.51"/><path d="M1980,-180L1980,-60L2100,-180Z" fill="#b485cd" stroke="#b485cd" stroke-width="1.51"/><path d="M1860,1260L1980,1260L1980,1140Z" fill="#9664e1" stroke="#9664e1" stroke-width="1.51"/><path d="M1860,1140L1860,1260L1980,1140Z" fill="#8870e1" stroke="#8870e1" stroke-width="1.51"/><path d="M1860,1140L1980,1140L1980,1020Z" fill="#7c79e2" stroke="#7c79e2" stroke-width="1.51"/><path d="M1860,1020L1860,1140L1980,1020Z" fill="#6b83e2" stroke="#6b83e2" stroke-width="1.51"/><path d="M1860,1020L1980,1020L1980,900Z" fill="#787ed5" stroke="#787ed5" stroke-width="1.51"/><path d="M1860,900L1860,1020L1980,900Z" fill="#7582ce" stroke="#7582ce" stroke-width="1.51"/><path d="M1860,900L1980,900L1980,780Z" fill="#7f7dc2" stroke="#7f7dc2" stroke-width="1.51"/><path d="M1860,780L1860,900L1980,780Z" fill="#7c81bc" stroke="#7c81bc" stroke-width="1.51"/><path d="M1860,780L1980,780L1980,660Z" fill="#8c89bb" stroke="#8c89bb" stroke-width="1.51"/><path d="M1860,660L1860,780L1980,660Z" fill="#8e95bd" stroke="#8e95bd" stroke-width="1.51"/><path d="M1860,660L1980,660L1980,540Z" fill="#a1a1c0" stroke="#a1a1c0" stroke-width="1.51"/><path d="M1860,540L1860,660L1980,540Z" fill="#a1adc1" stroke="#a1adc1" stroke-width="1.51"/><path d="M1860,540L1980,540L1980,420Z" fill="#b2b2c3" stroke="#b2b2c3" stroke-width="1.51"/><path d="M1860,420L1860,540L1980,420Z" fill="#b1b6c3" stroke="#b1b6c3" stroke-width="1.51"/><path d="M1860,420L1980,420L1980,300Z" fill="#beb3c3" stroke="#beb3c3" stroke-width="1.51"/><path d="M1860,300L1860,420L1980,300Z" fill="#bdb7c3" stroke="#bdb7c3" stroke-width="1.51"/><path d="M1860,300L1980,300L1980,180Z" fill="#caaec2" stroke="#caaec2" stroke-width="1.51"/><path d="M1860,180L1860,300L1980,180Z" fill="#c7a5c0" stroke="#c7a5c0" stroke-width="1.51"/><path d="M1860,180L1980,180L1980,60Z" fill="#ce86bb" stroke="#ce86bb" stroke-width="1.51"/><path d="M1860,60L1860,180L1980,60Z" fill="#cb7cb8" stroke="#cb7cb8" stroke-width="1.51"/><path d="M1860,60L1980,60L1980,-60Z" fill="#d158b3" stroke="#d158b3" stroke-width="1.51"/><path d="M1860,-60L1860,60L1980,-60Z" fill="#c56db9" stroke="#c56db9" stroke-width="1.51"/><path d="M1860,-60L1980,-60L1980,-180Z" fill="#b682c6" stroke="#b682c6" stroke-width="1.51"/><path d="M1860,-180L1860,-60L1980,-180Z" fill="#a592cd" stroke="#a592cd" stroke-width="1.51"/><path d="M1740,1260L1860,1260L1860,1140Z" fill="#8672e2" stroke="#8672e2" stroke-width="1.51"/><path d="M1740,1140L1740,1260L1860,1140Z" fill="#767de2" stroke="#767de2" stroke-width="1.51"/><path d="M1740,1140L1860,1140L1860,1020Z" fill="#6785e2" stroke="#6785e2" stroke-width="1.51"/><path d="M1740,1020L1740,1140L1860,1020Z" fill="#508ee2" stroke="#508ee2" stroke-width="1.51"/><path d="M1740,1020L1860,1020L1860,900Z" fill="#628ad5" stroke="#628ad5" stroke-width="1.51"/><path d="M1740,900L1740,1020L1860,900Z" fill="#5e8ccf" stroke="#5e8ccf" stroke-width="1.51"/><path d="M1740,900L1860,900L1860,780Z" fill="#6d89c2" stroke="#6d89c2" stroke-width="1.51"/><path d="M1740,780L1740,900L1860,780Z" fill="#688bbc" stroke="#688bbc" stroke-width="1.51"/><path d="M1740,780L1860,780L1860,660Z" fill="#7a94bc" stroke="#7a94bc" stroke-width="1.51"/><path d="M1740,660L1740,780L1860,660Z" fill="#7b9fbd" stroke="#7b9fbd" stroke-width="1.51"/><path d="M1740,660L1860,660L1860,540Z" fill="#8facc0" stroke="#8facc0" stroke-width="1.51"/><path d="M1740,540L1740,660L1860,540Z" fill="#8eb8c1" stroke="#8eb8c1" stroke-width="1.51"/><path d="M1740,540L1860,540L1860,420Z" fill="#a0bdc3" stroke="#a0bdc3" stroke-width="1.51"/><path d="M1740,420L1740,540L1860,420Z" fill="#9fc1c3" stroke="#9fc1c3" stroke-width="1.51"/><path d="M1740,420L1860,420L1860,300Z" fill="#aebec4" stroke="#aebec4" stroke-width="1.51"/><path d="M1740,300L1740,420L1860,300Z" fill="#acc2c3" stroke="#acc2c3" stroke-width="1.51"/><path d="M1740,300L1860,300L1860,180Z" fill="#bbb9c2" stroke="#bbb9c2" stroke-width="1.51"/><path d="M1740,180L1740,300L1860,180Z" fill="#b8b1c0" stroke="#b8b1c0" stroke-width="1.51"/><path d="M1740,180L1860,180L1860,60Z" fill="#c293bb" stroke="#c293bb" stroke-width="1.51"/><path d="M1740,60L1740,180L1860,60Z" fill="#be8ab8" stroke="#be8ab8" stroke-width="1.51"/><path d="M1740,60L1860,60L1860,-60Z" fill="#c669b3" stroke="#c669b3" stroke-width="1.51"/><path d="M1740,-60L1740,60L1860,-60Z" fill="#b87bba" stroke="#b87bba" stroke-width="1.51"/><path d="M1740,-60L1860,-60L1860,-180Z" fill="#a88fc6" stroke="#a88fc6" stroke-width="1.51"/><path d="M1740,-180L1740,-60L1860,-180Z" fill="#959dcd" stroke="#959dcd" stroke-width="1.51"/><path d="M1620,1260L1740,1260L1740,1140Z" fill="#8078dc" stroke="#8078dc" stroke-width="1.51"/><path d="M1620,1140L1620,1260L1740,1140Z" fill="#787ed7" stroke="#787ed7" stroke-width="1.51"/><path d="M1620,1140L1740,1140L1740,1020Z" fill="#5f8adc" stroke="#5f8adc" stroke-width="1.51"/><path d="M1620,1020L1620,1140L1740,1020Z" fill="#548fd7" stroke="#548fd7" stroke-width="1.51"/><path d="M1620,1020L1740,1020L1740,900Z" fill="#598ecf" stroke="#598ecf" stroke-width="1.51"/><path d="M1620,900L1620,1020L1740,900Z" fill="#608ec4" stroke="#608ec4" stroke-width="1.51"/><path d="M1620,900L1740,900L1740,780Z" fill="#648dbc" stroke="#648dbc" stroke-width="1.51"/><path d="M1620,780L1620,900L1740,780Z" fill="#688db2" stroke="#688db2" stroke-width="1.51"/><path d="M1620,780L1740,780L1740,660Z" fill="#7299b6" stroke="#7299b6" stroke-width="1.51"/><path d="M1620,660L1620,780L1740,660Z" fill="#7aa1b3" stroke="#7aa1b3" stroke-width="1.51"/><path d="M1620,660L1740,660L1740,540Z" fill="#86b1ba" stroke="#86b1ba" stroke-width="1.51"/><path d="M1620,540L1620,660L1740,540Z" fill="#8db9b6" stroke="#8db9b6" stroke-width="1.51"/><path d="M1620,540L1740,540L1740,420Z" fill="#97c2bc" stroke="#97c2bc" stroke-width="1.51"/><path d="M1620,420L1620,540L1740,420Z" fill="#9dc3b8" stroke="#9dc3b8" stroke-width="1.51"/><path d="M1620,420L1740,420L1740,300Z" fill="#a5c3bd" stroke="#a5c3bd" stroke-width="1.51"/><path d="M1620,300L1620,420L1740,300Z" fill="#abc4b9" stroke="#abc4b9" stroke-width="1.51"/><path d="M1620,300L1740,300L1740,180Z" fill="#b3bfbc" stroke="#b3bfbc" stroke-width="1.51"/><path d="M1620,180L1620,300L1740,180Z" fill="#b7b3b5" stroke="#b7b3b5" stroke-width="1.51"/><path d="M1620,180L1740,180L1740,60Z" fill="#bb99b5" stroke="#bb99b5" stroke-width="1.51"/><path d="M1620,60L1620,180L1740,60Z" fill="#bd8cae" stroke="#bd8cae" stroke-width="1.51"/><path d="M1620,60L1740,60L1740,-60Z" fill="#c071ad" stroke="#c071ad" stroke-width="1.51"/><path d="M1620,-60L1620,60L1740,-60Z" fill="#b77eaf" stroke="#b77eaf" stroke-width="1.51"/><path d="M1620,-60L1740,-60L1740,-180Z" fill="#a195c0" stroke="#a195c0" stroke-width="1.51"/><path d="M1620,-180L1620,-60L1740,-180Z" fill="#949fc2" stroke="#949fc2" stroke-width="1.51"/><path d="M1500,1260L1620,1260L1620,1140Z" fill="#8578cf" stroke="#8578cf" stroke-width="1.51"/><path d="M1500,1140L1500,1260L1620,1140Z" fill="#7d7dcb" stroke="#7d7dcb" stroke-width="1.51"/><path d="M1500,1140L1620,1140L1620,1020Z" fill="#668acf" stroke="#668acf" stroke-width="1.51"/><path d="M1500,1020L1500,1140L1620,1020Z" fill="#5c8ecb" stroke="#5c8ecb" stroke-width="1.51"/><path d="M1500,1020L1620,1020L1620,900Z" fill="#608ec3" stroke="#608ec3" stroke-width="1.51"/><path d="M1500,900L1500,1020L1620,900Z" fill="#668db8" stroke="#668db8" stroke-width="1.51"/><path d="M1500,900L1620,900L1620,780Z" fill="#698db0" stroke="#698db0" stroke-width="1.51"/><path d="M1500,780L1500,900L1620,780Z" fill="#6c8ca6" stroke="#6c8ca6" stroke-width="1.51"/><path d="M1500,780L1620,780L1620,660Z" fill="#7598a9" stroke="#7598a9" stroke-width="1.51"/><path d="M1500,660L1500,780L1620,660Z" fill="#7da0a6" stroke="#7da0a6" stroke-width="1.51"/><path d="M1500,660L1620,660L1620,540Z" fill="#88b1ad" stroke="#88b1ad" stroke-width="1.51"/><path d="M1500,540L1500,660L1620,540Z" fill="#8fb8aa" stroke="#8fb8aa" stroke-width="1.51"/><path d="M1500,540L1620,540L1620,420Z" fill="#99c1af" stroke="#99c1af" stroke-width="1.51"/><path d="M1500,420L1500,540L1620,420Z" fill="#9ec2ab" stroke="#9ec2ab" stroke-width="1.51"/><path d="M1500,420L1620,420L1620,300Z" fill="#a6c3b0" stroke="#a6c3b0" stroke-width="1.51"/><path d="M1500,300L1500,420L1620,300Z" fill="#abc3ac" stroke="#abc3ac" stroke-width="1.51"/><path d="M1500,300L1620,300L1620,180Z" fill="#b4beaf" stroke="#b4beaf" stroke-width="1.51"/><path d="M1500,180L1500,300L1620,180Z" fill="#b7b2a9" stroke="#b7b2a9" stroke-width="1.51"/><path d="M1500,180L1620,180L1620,60Z" fill="#bb99a8" stroke="#bb99a8" stroke-width="1.51"/><path d="M1500,60L1500,180L1620,60Z" fill="#bd8ca2" stroke="#bd8ca2" stroke-width="1.51"/><path d="M1500,60L1620,60L1620,-60Z" fill="#c071a1" stroke="#c071a1" stroke-width="1.51"/><path d="M1500,-60L1500,60L1620,-60Z" fill="#b87da3" stroke="#b87da3" stroke-width="1.51"/><path d="M1500,-60L1620,-60L1620,-180Z" fill="#a395b4" stroke="#a395b4" stroke-width="1.51"/><path d="M1500,-180L1500,-60L1620,-180Z" fill="#969eb6" stroke="#969eb6" stroke-width="1.51"/><path d="M1380,1260L1500,1260L1500,1140Z" fill="#8877c3" stroke="#8877c3" stroke-width="1.51"/><path d="M1380,1140L1380,1260L1500,1140Z" fill="#817dbf" stroke="#817dbf" stroke-width="1.51"/><path d="M1380,1140L1500,1140L1500,1020Z" fill="#6c89c3" stroke="#6c89c3" stroke-width="1.51"/><path d="M1380,1020L1380,1140L1500,1020Z" fill="#638ebf" stroke="#638ebf" stroke-width="1.51"/><path d="M1380,1020L1500,1020L1500,900Z" fill="#668db7" stroke="#668db7" stroke-width="1.51"/><path d="M1380,900L1380,1020L1500,900Z" fill="#6a8cac" stroke="#6a8cac" stroke-width="1.51"/><path d="M1380,900L1500,900L1500,780Z" fill="#6d8ca4" stroke="#6d8ca4" stroke-width="1.51"/><path d="M1380,780L1380,900L1500,780Z" fill="#708b9a" stroke="#708b9a" stroke-width="1.51"/><path d="M1380,780L1500,780L1500,660Z" fill="#78979d" stroke="#78979d" stroke-width="1.51"/><path d="M1380,660L1380,780L1500,660Z" fill="#7f9f9a" stroke="#7f9f9a" stroke-width="1.51"/><path d="M1380,660L1500,660L1500,540Z" fill="#8ab0a0" stroke="#8ab0a0" stroke-width="1.51"/><path d="M1380,540L1380,660L1500,540Z" fill="#90b89e" stroke="#90b89e" stroke-width="1.51"/><path d="M1380,540L1500,540L1500,420Z" fill="#9ac0a3" stroke="#9ac0a3" stroke-width="1.51"/><path d="M1380,420L1380,540L1500,420Z" fill="#9fc19f" stroke="#9fc19f" stroke-width="1.51"/><path d="M1380,420L1500,420L1500,300Z" fill="#a7c2a4" stroke="#a7c2a4" stroke-width="1.51"/><path d="M1380,300L1380,420L1500,300Z" fill="#acc39f" stroke="#acc39f" stroke-width="1.51"/><path d="M1380,300L1500,300L1500,180Z" fill="#b4bda2" stroke="#b4bda2" stroke-width="1.51"/><path d="M1380,180L1380,300L1500,180Z" fill="#b7b29c" stroke="#b7b29c" stroke-width="1.51"/><path d="M1380,180L1500,180L1500,60Z" fill="#bc989c" stroke="#bc989c" stroke-width="1.51"/><path d="M1380,60L1380,180L1500,60Z" fill="#bd8b96" stroke="#bd8b96" stroke-width="1.51"/><path d="M1380,60L1500,60L1500,-60Z" fill="#c07195" stroke="#c07195" stroke-width="1.51"/><path d="M1380,-60L1380,60L1500,-60Z" fill="#b87d97" stroke="#b87d97" stroke-width="1.51"/><path d="M1380,-60L1500,-60L1500,-180Z" fill="#a494a8" stroke="#a494a8" stroke-width="1.51"/><path d="M1380,-180L1380,-60L1500,-180Z" fill="#989eaa" stroke="#989eaa" stroke-width="1.51"/><path d="M1260,1260L1380,1260L1380,1140Z" fill="#8e79ba" stroke="#8e79ba" stroke-width="1.51"/><path d="M1260,1140L1260,1260L1380,1140Z" fill="#8984ba" stroke="#8984ba" stroke-width="1.51"/><path d="M1260,1140L1380,1140L1380,1020Z" fill="#738bba" stroke="#738bba" stroke-width="1.51"/><path d="M1260,1020L1260,1140L1380,1020Z" fill="#6c95ba" stroke="#6c95ba" stroke-width="1.51"/><path d="M1260,1020L1380,1020L1380,900Z" fill="#6c8fad" stroke="#6c8fad" stroke-width="1.51"/><path d="M1260,900L1260,1020L1380,900Z" fill="#7293a8" stroke="#7293a8" stroke-width="1.51"/><path d="M1260,900L1380,900L1380,780Z" fill="#718e9b" stroke="#718e9b" stroke-width="1.51"/><path d="M1260,780L1260,900L1380,780Z" fill="#769295" stroke="#769295" stroke-width="1.51"/><path d="M1260,780L1380,780L1380,660Z" fill="#7c9994" stroke="#7c9994" stroke-width="1.51"/><path d="M1260,660L1260,780L1380,660Z" fill="#85a695" stroke="#85a695" stroke-width="1.51"/><path d="M1260,660L1380,660L1380,540Z" fill="#8db296" stroke="#8db296" stroke-width="1.51"/><path d="M1260,540L1260,660L1380,540Z" fill="#95bf98" stroke="#95bf98" stroke-width="1.51"/><path d="M1260,540L1380,540L1380,420Z" fill="#9cc399" stroke="#9cc399" stroke-width="1.51"/><path d="M1260,420L1260,540L1380,420Z" fill="#a4c999" stroke="#a4c999" stroke-width="1.51"/><path d="M1260,420L1380,420L1380,300Z" fill="#a9c499" stroke="#a9c499" stroke-width="1.51"/><path d="M1260,300L1260,420L1380,300Z" fill="#b1ca9a" stroke="#b1ca9a" stroke-width="1.51"/><path d="M1260,300L1380,300L1380,180Z" fill="#b6c098" stroke="#b6c098" stroke-width="1.51"/><path d="M1260,180L1260,300L1380,180Z" fill="#bdb997" stroke="#bdb997" stroke-width="1.51"/><path d="M1260,180L1380,180L1380,60Z" fill="#be9b92" stroke="#be9b92" stroke-width="1.51"/><path d="M1260,60L1260,180L1380,60Z" fill="#c39390" stroke="#c39390" stroke-width="1.51"/><path d="M1260,60L1380,60L1380,-60Z" fill="#c2738c" stroke="#c2738c" stroke-width="1.51"/><path d="M1260,-60L1260,60L1380,-60Z" fill="#be8592" stroke="#be8592" stroke-width="1.51"/><path d="M1260,-60L1380,-60L1380,-180Z" fill="#a7969e" stroke="#a7969e" stroke-width="1.51"/><path d="M1260,-180L1260,-60L1380,-180Z" fill="#9ea5a5" stroke="#9ea5a5" stroke-width="1.51"/><path d="M1140,1260L1260,1260L1260,1140Z" fill="#9b89bc" stroke="#9b89bc" stroke-width="1.51"/><path d="M1140,1140L1140,1260L1260,1140Z" fill="#9694be" stroke="#9694be" stroke-width="1.51"/><path d="M1140,1140L1260,1140L1260,1020Z" fill="#809abd" stroke="#809abd" stroke-width="1.51"/><path d="M1140,1020L1140,1140L1260,1020Z" fill="#7aa4be" stroke="#7aa4be" stroke-width="1.51"/><path d="M1140,1020L1260,1020L1260,900Z" fill="#799fb0" stroke="#799fb0" stroke-width="1.51"/><path d="M1140,900L1140,1020L1260,900Z" fill="#7ea3ab" stroke="#7ea3ab" stroke-width="1.51"/><path d="M1140,900L1260,900L1260,780Z" fill="#7d9e9d" stroke="#7d9e9d" stroke-width="1.51"/><path d="M1140,780L1140,900L1260,780Z" fill="#82a298" stroke="#82a298" stroke-width="1.51"/><path d="M1140,780L1260,780L1260,660Z" fill="#87a996" stroke="#87a996" stroke-width="1.51"/><path d="M1140,660L1140,780L1260,660Z" fill="#90b698" stroke="#90b698" stroke-width="1.51"/><path d="M1140,660L1260,660L1260,540Z" fill="#98c298" stroke="#98c298" stroke-width="1.51"/><path d="M1140,540L1140,660L1260,540Z" fill="#a0d09a" stroke="#a0d09a" stroke-width="1.51"/><path d="M1140,540L1260,540L1260,420Z" fill="#a7d39a" stroke="#a7d39a" stroke-width="1.51"/><path d="M1140,420L1140,540L1260,420Z" fill="#afda9b" stroke="#afda9b" stroke-width="1.51"/><path d="M1140,420L1260,420L1260,300Z" fill="#b4d59b" stroke="#b4d59b" stroke-width="1.51"/><path d="M1140,300L1140,420L1260,300Z" fill="#bcdb9c" stroke="#bcdb9c" stroke-width="1.51"/><path d="M1140,300L1260,300L1260,180Z" fill="#c1d19a" stroke="#c1d19a" stroke-width="1.51"/><path d="M1140,180L1140,300L1260,180Z" fill="#c8ca99" stroke="#c8ca99" stroke-width="1.51"/><path d="M1140,180L1260,180L1260,60Z" fill="#c9ac94" stroke="#c9ac94" stroke-width="1.51"/><path d="M1140,60L1140,180L1260,60Z" fill="#cfa493" stroke="#cfa493" stroke-width="1.51"/><path d="M1140,60L1260,60L1260,-60Z" fill="#cf848e" stroke="#cf848e" stroke-width="1.51"/><path d="M1140,-60L1140,60L1260,-60Z" fill="#ca9595" stroke="#ca9595" stroke-width="1.51"/><path d="M1140,-60L1260,-60L1260,-180Z" fill="#b2a6a0" stroke="#b2a6a0" stroke-width="1.51"/><path d="M1140,-180L1140,-60L1260,-180Z" fill="#aab5a8" stroke="#aab5a8" stroke-width="1.51"/><path d="M1020,1260L1140,1260L1140,1140Z" fill="#a899c0" stroke="#a899c0" stroke-width="1.51"/><path d="M1020,1140L1020,1260L1140,1140Z" fill="#a4a4c0" stroke="#a4a4c0" stroke-width="1.51"/><path d="M1020,1140L1140,1140L1140,1020Z" fill="#8daac0" stroke="#8daac0" stroke-width="1.51"/><path d="M1020,1020L1020,1140L1140,1020Z" fill="#87b4c0" stroke="#87b4c0" stroke-width="1.51"/><path d="M1020,1020L1140,1020L1140,900Z" fill="#86aeb3" stroke="#86aeb3" stroke-width="1.51"/><path d="M1020,900L1020,1020L1140,900Z" fill="#8bb3ad" stroke="#8bb3ad" stroke-width="1.51"/><path d="M1020,900L1140,900L1140,780Z" fill="#89ad9f" stroke="#89ad9f" stroke-width="1.51"/><path d="M1020,780L1020,900L1140,780Z" fill="#8db29a" stroke="#8db29a" stroke-width="1.51"/><path d="M1020,780L1140,780L1140,660Z" fill="#92b998" stroke="#92b998" stroke-width="1.51"/><path d="M1020,660L1020,780L1140,660Z" fill="#9bc799" stroke="#9bc799" stroke-width="1.51"/><path d="M1020,660L1140,660L1140,540Z" fill="#a3d29a" stroke="#a3d29a" stroke-width="1.51"/><path d="M1020,540L1020,660L1140,540Z" fill="#abe09c" stroke="#abe09c" stroke-width="1.51"/><path d="M1020,540L1140,540L1140,420Z" fill="#b2e49c" stroke="#b2e49c" stroke-width="1.51"/><path d="M1020,420L1020,540L1140,420Z" fill="#baea9c" stroke="#baea9c" stroke-width="1.51"/><path d="M1020,420L1140,420L1140,300Z" fill="#bfe69c" stroke="#bfe69c" stroke-width="1.51"/><path d="M1020,300L1020,420L1140,300Z" fill="#c7ec9d" stroke="#c7ec9d" stroke-width="1.51"/><path d="M1020,300L1140,300L1140,180Z" fill="#cce19b" stroke="#cce19b" stroke-width="1.51"/><path d="M1020,180L1020,300L1140,180Z" fill="#d3db9a" stroke="#d3db9a" stroke-width="1.51"/><path d="M1020,180L1140,180L1140,60Z" fill="#d5bc96" stroke="#d5bc96" stroke-width="1.51"/><path d="M1020,60L1020,180L1140,60Z" fill="#dbb494" stroke="#dbb494" stroke-width="1.51"/><path d="M1020,60L1140,60L1140,-60Z" fill="#db9590" stroke="#db9590" stroke-width="1.51"/><path d="M1020,-60L1020,60L1140,-60Z" fill="#d6a697" stroke="#d6a697" stroke-width="1.51"/><path d="M1020,-60L1140,-60L1140,-180Z" fill="#beb6a2" stroke="#beb6a2" stroke-width="1.51"/><path d="M1020,-180L1020,-60L1140,-180Z" fill="#b6c6a9" stroke="#b6c6a9" stroke-width="1.51"/><path d="M900,1260L1020,1260L1020,1140Z" fill="#b5a8c2" stroke="#b5a8c2" stroke-width="1.51"/><path d="M900,1140L900,1260L1020,1140Z" fill="#afb1c3" stroke="#afb1c3" stroke-width="1.51"/><path d="M900,1140L1020,1140L1020,1020Z" fill="#9abac2" stroke="#9abac2" stroke-width="1.51"/><path d="M900,1020L900,1140L1020,1020Z" fill="#93c2c2" stroke="#93c2c2" stroke-width="1.51"/><path d="M900,1020L1020,1020L1020,900Z" fill="#92beb5" stroke="#92beb5" stroke-width="1.51"/><path d="M900,900L900,1020L1020,900Z" fill="#96c0af" stroke="#96c0af" stroke-width="1.51"/><path d="M900,900L1020,900L1020,780Z" fill="#94bda2" stroke="#94bda2" stroke-width="1.51"/><path d="M900,780L900,900L1020,780Z" fill="#97c09b" stroke="#97c09b" stroke-width="1.51"/><path d="M900,780L1020,780L1020,660Z" fill="#9cc99a" stroke="#9cc99a" stroke-width="1.51"/><path d="M900,660L900,780L1020,660Z" fill="#a5d49a" stroke="#a5d49a" stroke-width="1.51"/><path d="M900,660L1020,660L1020,540Z" fill="#ade39c" stroke="#ade39c" stroke-width="1.51"/><path d="M900,540L900,660L1020,540Z" fill="#b5ee9d" stroke="#b5ee9d" stroke-width="1.51"/><path d="M900,540L1020,540L1020,420Z" fill="#bcf49d" stroke="#bcf49d" stroke-width="1.51"/><path d="M900,420L900,540L1020,420Z" fill="#c4f99d" stroke="#c4f99d" stroke-width="1.51"/><path d="M900,420L1020,420L1020,300Z" fill="#c9f79e" stroke="#c9f79e" stroke-width="1.51"/><path d="M900,300L900,420L1020,300Z" fill="#d1fa9e" stroke="#d1fa9e" stroke-width="1.51"/><path d="M900,300L1020,300L1020,180Z" fill="#d7f29c" stroke="#d7f29c" stroke-width="1.51"/><path d="M900,180L900,300L1020,180Z" fill="#dde99b" stroke="#dde99b" stroke-width="1.51"/><path d="M900,180L1020,180L1020,60Z" fill="#e0cc98" stroke="#e0cc98" stroke-width="1.51"/><path d="M900,60L900,180L1020,60Z" fill="#e5c296" stroke="#e5c296" stroke-width="1.51"/><path d="M900,60L1020,60L1020,-60Z" fill="#e7a592" stroke="#e7a592" stroke-width="1.51"/><path d="M900,-60L900,60L1020,-60Z" fill="#e1b498" stroke="#e1b498" stroke-width="1.51"/><path d="M900,-60L1020,-60L1020,-180Z" fill="#cac7a4" stroke="#cac7a4" stroke-width="1.51"/><path d="M900,-180L900,-60L1020,-180Z" fill="#c0d4ab" stroke="#c0d4ab" stroke-width="1.51"/><path d="M780,1260L900,1260L900,1140Z" fill="#beacc3" stroke="#beacc3" stroke-width="1.51"/><path d="M780,1140L780,1260L900,1140Z" fill="#b8b2c3" stroke="#b8b2c3" stroke-width="1.51"/><path d="M780,1140L900,1140L900,1020Z" fill="#a3bdc3" stroke="#a3bdc3" stroke-width="1.51"/><path d="M780,1020L780,1140L900,1020Z" fill="#9cc3c3" stroke="#9cc3c3" stroke-width="1.51"/><path d="M780,1020L900,1020L900,900Z" fill="#9bc2b6" stroke="#9bc2b6" stroke-width="1.51"/><path d="M780,900L780,1020L900,900Z" fill="#9fc2af" stroke="#9fc2af" stroke-width="1.51"/><path d="M780,900L900,900L900,780Z" fill="#9dc1a2" stroke="#9dc1a2" stroke-width="1.51"/><path d="M780,780L780,900L900,780Z" fill="#a0c19c" stroke="#a0c19c" stroke-width="1.51"/><path d="M780,780L900,780L900,660Z" fill="#a5cd9a" stroke="#a5cd9a" stroke-width="1.51"/><path d="M780,660L780,780L900,660Z" fill="#aed69b" stroke="#aed69b" stroke-width="1.51"/><path d="M780,660L900,660L900,540Z" fill="#b6e79c" stroke="#b6e79c" stroke-width="1.51"/><path d="M780,540L780,660L900,540Z" fill="#bef09d" stroke="#bef09d" stroke-width="1.51"/><path d="M780,540L900,540L900,420Z" fill="#c5f99d" stroke="#c5f99d" stroke-width="1.51"/><path d="M780,420L780,540L900,420Z" fill="#ccfa9d" stroke="#ccfa9d" stroke-width="1.51"/><path d="M780,420L900,420L900,300Z" fill="#d2fb9d" stroke="#d2fb9d" stroke-width="1.51"/><path d="M780,300L780,420L900,300Z" fill="#d9fc9d" stroke="#d9fc9d" stroke-width="1.51"/><path d="M780,300L900,300L900,180Z" fill="#dff69c" stroke="#dff69c" stroke-width="1.51"/><path d="M780,180L780,300L900,180Z" fill="#e5ea9b" stroke="#e5ea9b" stroke-width="1.51"/><path d="M780,180L900,180L900,60Z" fill="#e8d098" stroke="#e8d098" stroke-width="1.51"/><path d="M780,60L780,180L900,60Z" fill="#edc396" stroke="#edc396" stroke-width="1.51"/><path d="M780,60L900,60L900,-60Z" fill="#efa992" stroke="#efa992" stroke-width="1.51"/><path d="M780,-60L780,60L900,-60Z" fill="#e8b499" stroke="#e8b499" stroke-width="1.51"/><path d="M780,-60L900,-60L900,-180Z" fill="#d2caa5" stroke="#d2caa5" stroke-width="1.51"/><path d="M780,-180L780,-60L900,-180Z" fill="#c8d5ab" stroke="#c8d5ab" stroke-width="1.51"/><path d="M660,1260L780,1260L780,1140Z" fill="#c6adc4" stroke="#c6adc4" stroke-width="1.51"/><path d="M660,1140L660,1260L780,1140Z" fill="#c0b3c4" stroke="#c0b3c4" stroke-width="1.51"/><path d="M660,1140L780,1140L780,1020Z" fill="#acbec3" stroke="#acbec3" stroke-width="1.51"/><path d="M660,1020L660,1140L780,1020Z" fill="#a5c4c3" stroke="#a5c4c3" stroke-width="1.51"/><path d="M660,1020L780,1020L780,900Z" fill="#a4c3b6" stroke="#a4c3b6" stroke-width="1.51"/><path d="M660,900L660,1020L780,900Z" fill="#a7c3b0" stroke="#a7c3b0" stroke-width="1.51"/><path d="M660,900L780,900L780,780Z" fill="#a6c2a2" stroke="#a6c2a2" stroke-width="1.51"/><path d="M660,780L660,900L780,780Z" fill="#a8c29c" stroke="#a8c29c" stroke-width="1.51"/><path d="M660,780L780,780L780,660Z" fill="#aecf9a" stroke="#aecf9a" stroke-width="1.51"/><path d="M660,660L660,780L780,660Z" fill="#b6d79b" stroke="#b6d79b" stroke-width="1.51"/><path d="M660,660L780,660L780,540Z" fill="#bfe89c" stroke="#bfe89c" stroke-width="1.51"/><path d="M660,540L660,660L780,540Z" fill="#c6f19d" stroke="#c6f19d" stroke-width="1.51"/><path d="M660,540L780,540L780,420Z" fill="#cefa9e" stroke="#cefa9e" stroke-width="1.51"/><path d="M660,420L660,540L780,420Z" fill="#d5fb9d" stroke="#d5fb9d" stroke-width="1.51"/><path d="M660,420L780,420L780,300Z" fill="#dbfc9e" stroke="#dbfc9e" stroke-width="1.51"/><path d="M660,300L660,420L780,300Z" fill="#e2fd9e" stroke="#e2fd9e" stroke-width="1.51"/><path d="M660,300L780,300L780,180Z" fill="#e7f79d" stroke="#e7f79d" stroke-width="1.51"/><path d="M660,180L660,300L780,180Z" fill="#edeb9c" stroke="#edeb9c" stroke-width="1.51"/><path d="M660,180L780,180L780,60Z" fill="#f0d198" stroke="#f0d198" stroke-width="1.51"/><path d="M660,60L660,180L780,60Z" fill="#f4c496" stroke="#f4c496" stroke-width="1.51"/><path d="M660,60L780,60L780,-60Z" fill="#f6a993" stroke="#f6a993" stroke-width="1.51"/><path d="M660,-60L660,60L780,-60Z" fill="#efb599" stroke="#efb599" stroke-width="1.51"/><path d="M660,-60L780,-60L780,-180Z" fill="#dacba5" stroke="#dacba5" stroke-width="1.51"/><path d="M660,-180L660,-60L780,-180Z" fill="#d0d6ac" stroke="#d0d6ac" stroke-width="1.51"/><path d="M540,1260L660,1260L660,1140Z" fill="#cdadc4" stroke="#cdadc4" stroke-width="1.51"/><path d="M540,1140L540,1260L660,1140Z" fill="#c8b4c4" stroke="#c8b4c4" stroke-width="1.51"/><path d="M540,1140L660,1140L660,1020Z" fill="#b5bfc4" stroke="#b5bfc4" stroke-width="1.51"/><path d="M540,1020L540,1140L660,1020Z" fill="#aec5c4" stroke="#aec5c4" stroke-width="1.51"/><path d="M540,1020L660,1020L660,900Z" fill="#adc4b7" stroke="#adc4b7" stroke-width="1.51"/><path d="M540,900L540,1020L660,900Z" fill="#b0c4b0" stroke="#b0c4b0" stroke-width="1.51"/><path d="M540,900L660,900L660,780Z" fill="#aec3a3" stroke="#aec3a3" stroke-width="1.51"/><path d="M540,780L540,900L660,780Z" fill="#b0c39c" stroke="#b0c39c" stroke-width="1.51"/><path d="M540,780L660,780L660,660Z" fill="#b6cf9a" stroke="#b6cf9a" stroke-width="1.51"/><path d="M540,660L540,780L660,660Z" fill="#bed89b" stroke="#bed89b" stroke-width="1.51"/><path d="M540,660L660,660L660,540Z" fill="#c7e99c" stroke="#c7e99c" stroke-width="1.51"/><path d="M540,540L540,660L660,540Z" fill="#cff39d" stroke="#cff39d" stroke-width="1.51"/><path d="M540,540L660,540L660,420Z" fill="#d6fb9e" stroke="#d6fb9e" stroke-width="1.51"/><path d="M540,420L540,540L660,420Z" fill="#ddfd9e" stroke="#ddfd9e" stroke-width="1.51"/><path d="M540,420L660,420L660,300Z" fill="#e3fd9e" stroke="#e3fd9e" stroke-width="1.51"/><path d="M540,300L540,420L660,300Z" fill="#eafe9e" stroke="#eafe9e" stroke-width="1.51"/><path d="M540,300L660,300L660,180Z" fill="#eff89d" stroke="#eff89d" stroke-width="1.51"/><path d="M540,180L540,300L660,180Z" fill="#f5ec9c" stroke="#f5ec9c" stroke-width="1.51"/><path d="M540,180L660,180L660,60Z" fill="#f7d298" stroke="#f7d298" stroke-width="1.51"/><path d="M540,60L540,180L660,60Z" fill="#fbc597" stroke="#fbc597" stroke-width="1.51"/><path d="M540,60L660,60L660,-60Z" fill="#fdaa93" stroke="#fdaa93" stroke-width="1.51"/><path d="M540,-60L540,60L660,-60Z" fill="#f6b699" stroke="#f6b699" stroke-width="1.51"/><path d="M540,-60L660,-60L660,-180Z" fill="#e1cca5" stroke="#e1cca5" stroke-width="1.51"/><path d="M540,-180L540,-60L660,-180Z" fill="#d8d7ac" stroke="#d8d7ac" stroke-width="1.51"/><path d="M420,1260L540,1260L540,1140Z" fill="#d3a1c2" stroke="#d3a1c2" stroke-width="1.51"/><path d="M420,1140L420,1260L540,1140Z" fill="#cd9fc0" stroke="#cd9fc0" stroke-width="1.51"/><path d="M420,1140L540,1140L540,1020Z" fill="#bcb3c1" stroke="#bcb3c1" stroke-width="1.51"/><path d="M420,1020L420,1140L540,1020Z" fill="#b6b1c0" stroke="#b6b1c0" stroke-width="1.51"/><path d="M420,1020L540,1020L540,900Z" fill="#b5b8b4" stroke="#b5b8b4" stroke-width="1.51"/><path d="M420,900L420,1020L540,900Z" fill="#b8b0ac" stroke="#b8b0ac" stroke-width="1.51"/><path d="M420,900L540,900L540,780Z" fill="#b6b8a1" stroke="#b6b8a1" stroke-width="1.51"/><path d="M420,780L420,900L540,780Z" fill="#b8af99" stroke="#b8af99" stroke-width="1.51"/><path d="M420,780L540,780L540,660Z" fill="#bec499" stroke="#bec499" stroke-width="1.51"/><path d="M420,660L420,780L540,660Z" fill="#c6c498" stroke="#c6c498" stroke-width="1.51"/><path d="M420,660L540,660L540,540Z" fill="#cfde9b" stroke="#cfde9b" stroke-width="1.51"/><path d="M420,540L420,660L540,540Z" fill="#d7de9a" stroke="#d7de9a" stroke-width="1.51"/><path d="M420,540L540,540L540,420Z" fill="#dfef9c" stroke="#dfef9c" stroke-width="1.51"/><path d="M420,420L420,540L540,420Z" fill="#e5e89b" stroke="#e5e89b" stroke-width="1.51"/><path d="M420,420L540,420L540,300Z" fill="#ebf19c" stroke="#ebf19c" stroke-width="1.51"/><path d="M420,300L420,420L540,300Z" fill="#f1e99c" stroke="#f1e99c" stroke-width="1.51"/><path d="M420,300L540,300L540,180Z" fill="#f7ec9c" stroke="#f7ec9c" stroke-width="1.51"/><path d="M420,180L420,300L540,180Z" fill="#fbd799" stroke="#fbd799" stroke-width="1.51"/><path d="M420,180L540,180L540,60Z" fill="#fdc597" stroke="#fdc597" stroke-width="1.51"/><path d="M420,60L420,180L540,60Z" fill="#ffaf94" stroke="#ffaf94" stroke-width="1.51"/><path d="M420,60L540,60L540,-60Z" fill="#ff9c91" stroke="#ff9c91" stroke-width="1.51"/><path d="M420,-60L420,60L540,-60Z" fill="#f99f96" stroke="#f99f96" stroke-width="1.51"/><path d="M420,-60L540,-60L540,-180Z" fill="#e7c0a3" stroke="#e7c0a3" stroke-width="1.51"/><path d="M420,-180L420,-60L540,-180Z" fill="#dfc2a9" stroke="#dfc2a9" stroke-width="1.51"/><path d="M300,1260L420,1260L420,1140Z" fill="#d686bc" stroke="#d686bc" stroke-width="1.51"/><path d="M300,1140L300,1260L420,1140Z" fill="#cf84bb" stroke="#cf84bb" stroke-width="1.51"/><path d="M300,1140L420,1140L420,1020Z" fill="#c19bbc" stroke="#c19bbc" stroke-width="1.51"/><path d="M300,1020L300,1140L420,1020Z" fill="#bb99bb" stroke="#bb99bb" stroke-width="1.51"/><path d="M300,1020L420,1020L420,900Z" fill="#bba0b0" stroke="#bba0b0" stroke-width="1.51"/><path d="M300,900L300,1020L420,900Z" fill="#bc98a8" stroke="#bc98a8" stroke-width="1.51"/><path d="M300,900L420,900L420,780Z" fill="#bba09c" stroke="#bba09c" stroke-width="1.51"/><path d="M300,780L300,900L420,780Z" fill="#bc9795" stroke="#bc9795" stroke-width="1.51"/><path d="M300,780L420,780L420,660Z" fill="#c4ac95" stroke="#c4ac95" stroke-width="1.51"/><path d="M300,660L300,780L420,660Z" fill="#cbac94" stroke="#cbac94" stroke-width="1.51"/><path d="M300,660L420,660L420,540Z" fill="#d6c697" stroke="#d6c697" stroke-width="1.51"/><path d="M300,540L300,660L420,540Z" fill="#dcc697" stroke="#dcc697" stroke-width="1.51"/><path d="M300,540L420,540L420,420Z" fill="#e5d799" stroke="#e5d799" stroke-width="1.51"/><path d="M300,420L300,540L420,420Z" fill="#ead098" stroke="#ead098" stroke-width="1.51"/><path d="M300,420L420,420L420,300Z" fill="#f0d999" stroke="#f0d999" stroke-width="1.51"/><path d="M300,300L300,420L420,300Z" fill="#f5d098" stroke="#f5d098" stroke-width="1.51"/><path d="M300,300L420,300L420,180Z" fill="#fbd398" stroke="#fbd398" stroke-width="1.51"/><path d="M300,180L300,300L420,180Z" fill="#fdbe96" stroke="#fdbe96" stroke-width="1.51"/><path d="M300,180L420,180L420,60Z" fill="#ffab93" stroke="#ffab93" stroke-width="1.51"/><path d="M300,60L300,180L420,60Z" fill="#ff9390" stroke="#ff9390" stroke-width="1.51"/><path d="M300,60L420,60L420,-60Z" fill="#ff7f8d" stroke="#ff7f8d" stroke-width="1.51"/><path d="M300,-60L300,60L420,-60Z" fill="#fa8392" stroke="#fa8392" stroke-width="1.51"/><path d="M300,-60L420,-60L420,-180Z" fill="#eaa69f" stroke="#eaa69f" stroke-width="1.51"/><path d="M300,-180L300,-60L420,-180Z" fill="#e2a9a5" stroke="#e2a9a5" stroke-width="1.51"/><path d="M180,1260L300,1260L300,1140Z" fill="#d669b7" stroke="#d669b7" stroke-width="1.51"/><path d="M180,1140L180,1260L300,1140Z" fill="#d067b5" stroke="#d067b5" stroke-width="1.51"/><path d="M180,1140L300,1140L300,1020Z" fill="#c380b7" stroke="#c380b7" stroke-width="1.51"/><path d="M180,1020L180,1140L300,1020Z" fill="#be7fb5" stroke="#be7fb5" stroke-width="1.51"/><path d="M180,1020L300,1020L300,900Z" fill="#bd87ab" stroke="#bd87ab" stroke-width="1.51"/><path d="M180,900L180,1020L300,900Z" fill="#bf7ea3" stroke="#bf7ea3" stroke-width="1.51"/><path d="M180,900L300,900L300,780Z" fill="#be8698" stroke="#be8698" stroke-width="1.51"/><path d="M180,780L180,900L300,780Z" fill="#bf7e90" stroke="#bf7e90" stroke-width="1.51"/><path d="M180,780L300,780L300,660Z" fill="#c79391" stroke="#c79391" stroke-width="1.51"/><path d="M180,660L180,780L300,660Z" fill="#ce9390" stroke="#ce9390" stroke-width="1.51"/><path d="M180,660L300,660L300,540Z" fill="#d9ac93" stroke="#d9ac93" stroke-width="1.51"/><path d="M180,540L180,660L300,540Z" fill="#e0ad93" stroke="#e0ad93" stroke-width="1.51"/><path d="M180,540L300,540L300,420Z" fill="#e9be95" stroke="#e9be95" stroke-width="1.51"/><path d="M180,420L180,540L300,420Z" fill="#eeb694" stroke="#eeb694" stroke-width="1.51"/><path d="M180,420L300,420L300,300Z" fill="#f4bf96" stroke="#f4bf96" stroke-width="1.51"/><path d="M180,300L180,420L300,300Z" fill="#f9b695" stroke="#f9b695" stroke-width="1.51"/><path d="M180,300L300,300L300,180Z" fill="#feb995" stroke="#feb995" stroke-width="1.51"/><path d="M180,180L180,300L300,180Z" fill="#ffa392" stroke="#ffa392" stroke-width="1.51"/><path d="M180,180L300,180L300,60Z" fill="#ff8f90" stroke="#ff8f90" stroke-width="1.51"/><path d="M180,60L180,180L300,60Z" fill="#ff758c" stroke="#ff758c" stroke-width="1.51"/><path d="M180,60L300,60L300,-60Z" fill="#ff5c8a" stroke="#ff5c8a" stroke-width="1.51"/><path d="M180,-60L180,60L300,-60Z" fill="#f9628e" stroke="#f9628e" stroke-width="1.51"/><path d="M180,-60L300,-60L300,-180Z" fill="#eb8b9b" stroke="#eb8b9b" stroke-width="1.51"/><path d="M180,-180L180,-60L300,-180Z" fill="#e48ea0" stroke="#e48ea0" stroke-width="1.51"/><path d="M60,1260L180,1260L180,1140Z" fill="#d452b5" stroke="#d452b5" stroke-width="1.51"/><path d="M60,1140L60,1260L180,1140Z" fill="#c966b9" stroke="#c966b9" stroke-width="1.51"/><path d="M60,1140L180,1140L180,1020Z" fill="#c36eb5" stroke="#c36eb5" stroke-width="1.51"/><path d="M60,1020L60,1140L180,1020Z" fill="#b77db9" stroke="#b77db9" stroke-width="1.51"/><path d="M60,1020L180,1020L180,900Z" fill="#bd75a9" stroke="#bd75a9" stroke-width="1.51"/><path d="M60,900L60,1020L180,900Z" fill="#b87da6" stroke="#b87da6" stroke-width="1.51"/><path d="M60,900L180,900L180,780Z" fill="#be7596" stroke="#be7596" stroke-width="1.51"/><path d="M60,780L60,900L180,780Z" fill="#b97c94" stroke="#b97c94" stroke-width="1.51"/><path d="M60,780L180,780L180,660Z" fill="#c7818f" stroke="#c7818f" stroke-width="1.51"/><path d="M60,660L60,780L180,660Z" fill="#c89194" stroke="#c89194" stroke-width="1.51"/><path d="M60,660L180,660L180,540Z" fill="#da9b92" stroke="#da9b92" stroke-width="1.51"/><path d="M60,540L60,660L180,540Z" fill="#daab97" stroke="#daab97" stroke-width="1.51"/><path d="M60,540L180,540L180,420Z" fill="#eaac94" stroke="#eaac94" stroke-width="1.51"/><path d="M60,420L60,540L180,420Z" fill="#e8b498" stroke="#e8b498" stroke-width="1.51"/><path d="M60,420L180,420L180,300Z" fill="#f4ad95" stroke="#f4ad95" stroke-width="1.51"/><path d="M60,300L60,420L180,300Z" fill="#f3b599" stroke="#f3b599" stroke-width="1.51"/><path d="M60,300L180,300L180,180Z" fill="#fea694" stroke="#fea694" stroke-width="1.51"/><path d="M60,180L60,300L180,180Z" fill="#faa196" stroke="#faa196" stroke-width="1.51"/><path d="M60,180L180,180L180,60Z" fill="#fe7a8e" stroke="#fe7a8e" stroke-width="1.51"/><path d="M60,60L60,180L180,60Z" fill="#fa7490" stroke="#fa7490" stroke-width="1.51"/><path d="M60,60L180,60L180,-60Z" fill="#fd3f88" stroke="#fd3f88" stroke-width="1.51"/><path d="M60,-60L60,60L180,-60Z" fill="#f46291" stroke="#f46291" stroke-width="1.51"/><path d="M60,-60L180,-60L180,-180Z" fill="#ea779a" stroke="#ea779a" stroke-width="1.51"/><path d="M60,-180L60,-60L180,-180Z" fill="#de8da4" stroke="#de8da4" stroke-width="1.51"/><path d="M-60,1260L60,1260L60,1140Z" fill="#c471c1" stroke="#c471c1" stroke-width="1.51"/><path d="M-60,1140L-60,1260L60,1140Z" fill="#b781c5" stroke="#b781c5" stroke-width="1.51"/><path d="M-60,1140L60,1140L60,1020Z" fill="#b087c2" stroke="#b087c2" stroke-width="1.51"/><path d="M-60,1020L-60,1140L60,1020Z" fill="#a194c6" stroke="#a194c6" stroke-width="1.51"/><path d="M-60,1020L60,1020L60,900Z" fill="#aa8cb5" stroke="#aa8cb5" stroke-width="1.51"/><path d="M-60,900L-60,1020L60,900Z" fill="#a493b3" stroke="#a493b3" stroke-width="1.51"/><path d="M-60,900L60,900L60,780Z" fill="#ac8ca2" stroke="#ac8ca2" stroke-width="1.51"/><path d="M-60,780L-60,900L60,780Z" fill="#a592a0" stroke="#a592a0" stroke-width="1.51"/><path d="M-60,780L60,780L60,660Z" fill="#b5989b" stroke="#b5989b" stroke-width="1.51"/><path d="M-60,660L-60,780L60,660Z" fill="#b5a7a0" stroke="#b5a7a0" stroke-width="1.51"/><path d="M-60,660L60,660L60,540Z" fill="#c8b19e" stroke="#c8b19e" stroke-width="1.51"/><path d="M-60,540L-60,660L60,540Z" fill="#c6c0a3" stroke="#c6c0a3" stroke-width="1.51"/><path d="M-60,540L60,540L60,420Z" fill="#d7c2a0" stroke="#d7c2a0" stroke-width="1.51"/><path d="M-60,420L-60,540L60,420Z" fill="#d4caa4" stroke="#d4caa4" stroke-width="1.51"/><path d="M-60,420L60,420L60,300Z" fill="#e2c3a1" stroke="#e2c3a1" stroke-width="1.51"/><path d="M-60,300L-60,420L60,300Z" fill="#e0cba5" stroke="#e0cba5" stroke-width="1.51"/><path d="M-60,300L60,300L60,180Z" fill="#edbea0" stroke="#edbea0" stroke-width="1.51"/><path d="M-60,180L-60,300L60,180Z" fill="#e9b8a2" stroke="#e9b8a2" stroke-width="1.51"/><path d="M-60,180L60,180L60,60Z" fill="#f0959a" stroke="#f0959a" stroke-width="1.51"/><path d="M-60,60L-60,180L60,60Z" fill="#eb8f9b" stroke="#eb8f9b" stroke-width="1.51"/><path d="M-60,60L60,60L60,-60Z" fill="#f16793" stroke="#f16793" stroke-width="1.51"/><path d="M-60,-60L-60,60L60,-60Z" fill="#e67f9d" stroke="#e67f9d" stroke-width="1.51"/><path d="M-60,-60L60,-60L60,-180Z" fill="#db91a5" stroke="#db91a5" stroke-width="1.51"/><path d="M-60,-180L-60,-60L60,-180Z" fill="#cca4b0" stroke="#cca4b0" stroke-width="1.51"/><path d="M-180,1260L-60,1260L-60,1140Z" fill="#b08ace" stroke="#b08ace" stroke-width="1.51"/><path d="M-180,1140L-180,1260L-60,1140Z" fill="#a098d2" stroke="#a098d2" stroke-width="1.51"/><path d="M-180,1140L-60,1140L-60,1020Z" fill="#989cce" stroke="#989cce" stroke-width="1.51"/><path d="M-180,1020L-180,1140L-60,1020Z" fill="#83a9d3" stroke="#83a9d3" stroke-width="1.51"/><path d="M-180,1020L-60,1020L-60,900Z" fill="#91a1c1" stroke="#91a1c1" stroke-width="1.51"/><path d="M-180,900L-180,1020L-60,900Z" fill="#88a7bf" stroke="#88a7bf" stroke-width="1.51"/><path d="M-180,900L-60,900L-60,780Z" fill="#95a0ae" stroke="#95a0ae" stroke-width="1.51"/><path d="M-180,780L-180,900L-60,780Z" fill="#8ca7ac" stroke="#8ca7ac" stroke-width="1.51"/><path d="M-180,780L-60,780L-60,660Z" fill="#9faca7" stroke="#9faca7" stroke-width="1.51"/><path d="M-180,660L-180,780L-60,660Z" fill="#9cbbac" stroke="#9cbbac" stroke-width="1.51"/><path d="M-180,660L-60,660L-60,540Z" fill="#b1c5aa" stroke="#b1c5aa" stroke-width="1.51"/><path d="M-180,540L-180,660L-60,540Z" fill="#add4b0" stroke="#add4b0" stroke-width="1.51"/><path d="M-180,540L-60,540L-60,420Z" fill="#c0d6ac" stroke="#c0d6ac" stroke-width="1.51"/><path d="M-180,420L-180,540L-60,420Z" fill="#bcdeb1" stroke="#bcdeb1" stroke-width="1.51"/><path d="M-180,420L-60,420L-60,300Z" fill="#cdd8ad" stroke="#cdd8ad" stroke-width="1.51"/><path d="M-180,300L-180,420L-60,300Z" fill="#c9e0b1" stroke="#c9e0b1" stroke-width="1.51"/><path d="M-180,300L-60,300L-60,180Z" fill="#d9d3ac" stroke="#d9d3ac" stroke-width="1.51"/><path d="M-180,180L-180,300L-60,180Z" fill="#d4ceae" stroke="#d4ceae" stroke-width="1.51"/><path d="M-180,180L-60,180L-60,60Z" fill="#e0ada5" stroke="#e0ada5" stroke-width="1.51"/><path d="M-180,60L-180,180L-60,60Z" fill="#dba7a8" stroke="#dba7a8" stroke-width="1.51"/><path d="M-180,60L-60,60L-60,-60Z" fill="#e4839f" stroke="#e4839f" stroke-width="1.51"/><path d="M-180,-60L-180,60L-60,-60Z" fill="#d598aa" stroke="#d598aa" stroke-width="1.51"/><path d="M-180,-60L-60,-60L-60,-180Z" fill="#c9a8b1" stroke="#c9a8b1" stroke-width="1.51"/><path d="M-180,-180L-180,-60L-60,-180Z" fill="#b5babc" stroke="#b5babc" stroke-width="1.51"/></svg>