<svg xmlns="http://www.w3.org/2000/svg" width="1920" height="1080"><path d="M1957,1395L2242,1395L2242,1110Z" fill="#202f88" stroke="#202f88" stroke-width="1.51"/><path d="M1957,1110L1957,1395L2242,1110Z" fill="#253a95" stroke="#253a95" stroke-width="1.51"/><path d="M1957,1110L2242,1110L2242,825Z" fill="#224794" stroke="#224794" stroke-width="1.51"/><path d="M1957,825L1957,1110L2242,825Z" fill="#2854a2" stroke="#2854a2" stroke-width="1.51"/><path d="M1957,825L2242,825L2242,540Z" fill="#2c62a0" stroke="#2c62a0" stroke-width="1.51"/><path d="M1957,540L1957,825L2242,540Z" fill="#376caa" stroke="#376caa" stroke-width="1.51"/><path d="M1957,540L2242,540L2242,255Z" fill="#4673a0" stroke="#4673a0" stroke-width="1.51"/><path d="M1957,255L1957,540L2242,255Z" fill="#567aa8" stroke="#567aa8" stroke-width="1.51"/><path d="M1957,255L2242,255L2242,-30Z" fill="#6c7f9d" stroke="#6c7f9d" stroke-width="1.51"/><path d="M1957,-30L1957,255L2242,-30Z" fill="#7f87a5" stroke="#7f87a5" stroke-width="1.51"/><path d="M1957,-30L2242,-30L2242,-315Z" fill="#8a899b" stroke="#8a899b" stroke-width="1.51"/><path d="M1957,-315L1957,-30L2242,-315Z" fill="#968fa5" stroke="#968fa5" stroke-width="1.51"/><path d="M1672,1395L1957,1395L1957,1110Z" fill="#253e97" stroke="#253e97" stroke-width="1.51"/><path d="M1672,1110L1672,1395L1957,1110Z" fill="#264b9f" stroke="#264b9f" stroke-width="1.51"/><path d="M1672,1110L1957,1110L1957,825Z" fill="#2656a4" stroke="#2656a4" stroke-width="1.51"/><path d="M1672,825L1672,1110L1957,825Z" fill="#2664ab" stroke="#2664ab" stroke-width="1.51"/><path d="M1672,825L1957,825L1957,540Z" fill="#2e70af" stroke="#2e70af" stroke-width="1.51"/><path d="M1672,540L1672,825L1957,540Z" fill="#337db3" stroke="#337db3" stroke-width="1.51"/><path d="M1672,540L1957,540L1957,255Z" fill="#4a82b0" stroke="#4a82b0" stroke-width="1.51"/><path d="M1672,255L1672,540L1957,255Z" fill="#558bb1" stroke="#558bb1" stroke-width="1.51"/><path d="M1672,255L1957,255L1957,-30Z" fill="#728fac" stroke="#728fac" stroke-width="1.51"/><path d="M1672,-30L1672,255L1957,-30Z" fill="#8099ae" stroke="#8099ae" stroke-width="1.51"/><path d="M1672,-30L1957,-30L1957,-315Z" fill="#9199aa" stroke="#9199aa" stroke-width="1.51"/><path d="M1672,-315L1672,-30L1957,-315Z" fill="#99a1ae" stroke="#99a1ae" stroke-width="1.51"/><path d="M1387,1395L1672,1395L1672,1110Z" fill="#274f9f" stroke="#274f9f" stroke-width="1.51"/><path d="M1387,1110L1387,1395L1672,1110Z" fill="#285da8" stroke="#285da8" stroke-width="1.51"/><path d="M1387,1110L1672,1110L1672,825Z" fill="#2367ac" stroke="#2367ac" stroke-width="1.51"/><path d="M1387,825L1387,1110L1672,825Z" fill="#2377b4" stroke="#2377b4" stroke-width="1.51"/><path d="M1387,825L1672,825L1672,540Z" fill="#2882b8" stroke="#2882b8" stroke-width="1.51"/><path d="M1387,540L1387,825L1672,540Z" fill="#2f90bc" stroke="#2f90bc" stroke-width="1.51"/><path d="M1387,540L1672,540L1672,255Z" fill="#4694b8" stroke="#4694b8" stroke-width="1.51"/><path d="M1387,255L1387,540L1672,255Z" fill="#549fba" stroke="#549fba" stroke-width="1.51"/><path d="M1387,255L1672,255L1672,-30Z" fill="#72a1b4" stroke="#72a1b4" stroke-width="1.51"/><path d="M1387,-30L1387,255L1672,-30Z" fill="#82adb7" stroke="#82adb7" stroke-width="1.51"/><path d="M1387,-30L1672,-30L1672,-315Z" fill="#93acb2" stroke="#93acb2" stroke-width="1.51"/><path d="M1387,-315L1387,-30L1672,-315Z" fill="#9bb6b6" stroke="#9bb6b6" stroke-width="1.51"/><path d="M1102,1395L1387,1395L1387,1110Z" fill="#2d63a9" stroke="#2d63a9" stroke-width="1.51"/><path d="M1102,1110L1102,1395L1387,1110Z" fill="#316fae" stroke="#316fae" stroke-width="1.51"/><path d="M1102,1110L1387,1110L1387,825Z" fill="#257bb5" stroke="#257bb5" stroke-width="1.51"/><path d="M1102,825L1102,1110L1387,825Z" fill="#2989ba" stroke="#2989ba" stroke-width="1.51"/><path d="M1102,825L1387,825L1387,540Z" fill="#2596c1" stroke="#2596c1" stroke-width="1.51"/><path d="M1102,540L1102,825L1387,540Z" fill="#32a2c2" stroke="#32a2c2" stroke-width="1.51"/><path d="M1102,540L1387,540L1387,255Z" fill="#45a9c1" stroke="#45a9c1" stroke-width="1.51"/><path d="M1102,255L1102,540L1387,255Z" fill="#56b2bf" stroke="#56b2bf" stroke-width="1.51"/><path d="M1102,255L1387,255L1387,-30Z" fill="#74b7bd" stroke="#74b7bd" stroke-width="1.51"/><path d="M1102,-30L1102,255L1387,-30Z" fill="#86c1bc" stroke="#86c1bc" stroke-width="1.51"/><path d="M1102,-30L1387,-30L1387,-315Z" fill="#96c1bb" stroke="#96c1bb" stroke-width="1.51"/><path d="M1102,-315L1102,-30L1387,-315Z" fill="#a0c9bc" stroke="#a0c9bc" stroke-width="1.51"/><path d="M817,1395L1102,1395L1102,1110Z" fill="#3c71ab" stroke="#3c71ab" stroke-width="1.51"/><path d="M817,1110L817,1395L1102,1110Z" fill="#427cb0" stroke="#427cb0" stroke-width="1.51"/><path d="M817,1110L1102,1110L1102,825Z" fill="#3589b7" stroke="#3589b7" stroke-width="1.51"/><path d="M817,825L817,1110L1102,825Z" fill="#3c97bb" stroke="#3c97bb" stroke-width="1.51"/><path d="M817,825L1102,825L1102,540Z" fill="#35a5c3" stroke="#35a5c3" stroke-width="1.51"/><path d="M817,540L817,825L1102,540Z" fill="#42b0c3" stroke="#42b0c3" stroke-width="1.51"/><path d="M817,540L1102,540L1102,255Z" fill="#4fb8c3" stroke="#4fb8c3" stroke-width="1.51"/><path d="M817,255L817,540L1102,255Z" fill="#61c0c0" stroke="#61c0c0" stroke-width="1.51"/><path d="M817,255L1102,255L1102,-30Z" fill="#7bc6be" stroke="#7bc6be" stroke-width="1.51"/><path d="M817,-30L817,255L1102,-30Z" fill="#8fcfbc" stroke="#8fcfbc" stroke-width="1.51"/><path d="M817,-30L1102,-30L1102,-315Z" fill="#9ed1bc" stroke="#9ed1bc" stroke-width="1.51"/><path d="M817,-315L817,-30L1102,-315Z" fill="#a9d8bc" stroke="#a9d8bc" stroke-width="1.51"/><path d="M532,1395L817,1395L817,1110Z" fill="#547aa8" stroke="#547aa8" stroke-width="1.51"/><path d="M532,1110L532,1395L817,1110Z" fill="#5b84ad" stroke="#5b84ad" stroke-width="1.51"/><path d="M532,1110L817,1110L817,825Z" fill="#5193b5" stroke="#5193b5" stroke-width="1.51"/><path d="M532,825L532,1110L817,825Z" fill="#599fb8" stroke="#599fb8" stroke-width="1.51"/><path d="M532,825L817,825L817,540Z" fill="#52afc0" stroke="#52afc0" stroke-width="1.51"/><path d="M532,540L532,825L817,540Z" fill="#5fb9c0" stroke="#5fb9c0" stroke-width="1.51"/><path d="M532,540L817,540L817,255Z" fill="#66c2c0" stroke="#66c2c0" stroke-width="1.51"/><path d="M532,255L532,540L817,255Z" fill="#78c9bd" stroke="#78c9bd" stroke-width="1.51"/><path d="M532,255L817,255L817,-30Z" fill="#8cd0bb" stroke="#8cd0bb" stroke-width="1.51"/><path d="M532,-30L532,255L817,-30Z" fill="#a1d8b9" stroke="#a1d8b9" stroke-width="1.51"/><path d="M532,-30L817,-30L817,-315Z" fill="#addcb9" stroke="#addcb9" stroke-width="1.51"/><path d="M532,-315L532,-30L817,-315Z" fill="#b9e1b8" stroke="#b9e1b8" stroke-width="1.51"/><path d="M247,1395L532,1395L532,1110Z" fill="#6f83a6" stroke="#6f83a6" stroke-width="1.51"/><path d="M247,1110L247,1395L532,1110Z" fill="#7a8eab" stroke="#7a8eab" stroke-width="1.51"/><path d="M247,1110L532,1110L532,825Z" fill="#709cb2" stroke="#709cb2" stroke-width="1.51"/><path d="M247,825L247,1110L532,825Z" fill="#7baab6" stroke="#7baab6" stroke-width="1.51"/><path d="M247,825L532,825L532,540Z" fill="#73b9bd" stroke="#73b9bd" stroke-width="1.51"/><path d="M247,540L247,825L532,540Z" fill="#82c4bd" stroke="#82c4bd" stroke-width="1.51"/><path d="M247,540L532,540L532,255Z" fill="#83ccbd" stroke="#83ccbd" stroke-width="1.51"/><path d="M247,255L247,540L532,255Z" fill="#96d4ba" stroke="#96d4ba" stroke-width="1.51"/><path d="M247,255L532,255L532,-30Z" fill="#a5dbb8" stroke="#a5dbb8" stroke-width="1.51"/><path d="M247,-30L247,255L532,-30Z" fill="#bbe4b6" stroke="#bbe4b6" stroke-width="1.51"/><path d="M247,-30L532,-30L532,-315Z" fill="#c3e6b5" stroke="#c3e6b5" stroke-width="1.51"/><path d="M247,-315L247,-30L532,-315Z" fill="#d2edb5" stroke="#d2edb5" stroke-width="1.51"/><path d="M-38,1395L247,1395L247,1110Z" fill="#888ba5" stroke="#888ba5" stroke-width="1.51"/><path d="M-38,1110L-38,1395L247,1110Z" fill="#8f94a9" stroke="#8f94a9" stroke-width="1.51"/><path d="M-38,1110L247,1110L247,825Z" fill="#8aa5b1" stroke="#8aa5b1" stroke-width="1.51"/><path d="M-38,825L-38,1110L247,825Z" fill="#91b1b5" stroke="#91b1b5" stroke-width="1.51"/><path d="M-38,825L247,825L247,540Z" fill="#8fc2bb" stroke="#8fc2bb" stroke-width="1.51"/><path d="M-38,540L-38,825L247,540Z" fill="#99ccbc" stroke="#99ccbc" stroke-width="1.51"/><path d="M-38,540L247,540L247,255Z" fill="#9ed6bb" stroke="#9ed6bb" stroke-width="1.51"/><path d="M-38,255L-38,540L247,255Z" fill="#acdcb8" stroke="#acdcb8" stroke-width="1.51"/><path d="M-38,255L247,255L247,-30Z" fill="#bde4b6" stroke="#bde4b6" stroke-width="1.51"/><path d="M-38,-30L-38,255L247,-30Z" fill="#cfebb4" stroke="#cfebb4" stroke-width="1.51"/><path d="M-38,-30L247,-30L247,-315Z" fill="#d9f0b3" stroke="#d9f0b3" stroke-width="1.51"/><path d="M-38,-315L-38,-30L247,-315Z" fill="#e5f5b3" stroke="#e5f5b3" stroke-width="1.51"/><path d="M-323,1395L-38,1395L-38,1110Z" fill="#968fa6" stroke="#968fa6" stroke-width="1.51"/><path d="M-323,1110L-323,1395L-38,1110Z" fill="#9a98af" stroke="#9a98af" stroke-width="1.51"/><path d="M-323,1110L-38,1110L-38,825Z" fill="#99aab2" stroke="#99aab2" stroke-width="1.51"/><path d="M-323,825L-323,1110L-38,825Z" fill="#9db5ba" stroke="#9db5ba" stroke-width="1.51"/><path d="M-323,825L-38,825L-38,540Z" fill="#9fc8bc" stroke="#9fc8bc" stroke-width="1.51"/><path d="M-323,540L-323,825L-38,540Z" fill="#a5d0c2" stroke="#a5d0c2" stroke-width="1.51"/><path d="M-323,540L-38,540L-38,255Z" fill="#aedbbb" stroke="#aedbbb" stroke-width="1.51"/><path d="M-323,255L-323,540L-38,255Z" fill="#b8e0be" stroke="#b8e0be" stroke-width="1.51"/><path d="M-323,255L-38,255L-38,-30Z" fill="#cceab6" stroke="#cceab6" stroke-width="1.51"/><path d="M-323,-30L-323,255L-38,-30Z" fill="#daf0ba" stroke="#daf0ba" stroke-width="1.51"/><path d="M-323,-30L-38,-30L-38,-315Z" fill="#e8f6b3" stroke="#e8f6b3" stroke-width="1.51"/><path d="M-323,-315L-323,-30L-38,-315Z" fill="#f1f9b9" stroke="#f1f9b9" stroke-width="1.51"/></svg>