<svg xmlns="http://www.w3.org/2000/svg" width="1920" height="1080"><path d="M1980,1260L2100,1260L2100,1140Z" fill="#00532f" stroke="#00532f" stroke-width="1.51"/><path d="M1980,1140L1980,1260L2100,1140Z" fill="#005932" stroke="#005932" stroke-width="1.51"/><path d="M1980,1140L2100,1140L2100,1020Z" fill="#025e33" stroke="#025e33" stroke-width="1.51"/><path d="M1980,1020L1980,1140L2100,1020Z" fill="#066335" stroke="#066335" stroke-width="1.51"/><path d="M1980,1020L2100,1020L2100,900Z" fill="#0e6637" stroke="#0e6637" stroke-width="1.51"/><path d="M1980,900L1980,1020L2100,900Z" fill="#126c39" stroke="#126c39" stroke-width="1.51"/><path d="M1980,900L2100,900L2100,780Z" fill="#18703d" stroke="#18703d" stroke-width="1.51"/><path d="M1980,780L1980,900L2100,780Z" fill="#1c7740" stroke="#1c7740" stroke-width="1.51"/><path d="M1980,780L2100,780L2100,660Z" fill="#227c44" stroke="#227c44" stroke-width="1.51"/><path d="M1980,660L1980,780L2100,660Z" fill="#298148" stroke="#298148" stroke-width="1.51"/><path d="M1980,660L2100,660L2100,540Z" fill="#35844c" stroke="#35844c" stroke-width="1.51"/><path d="M1980,540L1980,660L2100,540Z" fill="#3c8950" stroke="#3c8950" stroke-width="1.51"/><path d="M1980,540L2100,540L2100,420Z" fill="#468b54" stroke="#468b54" stroke-width="1.51"/><path d="M1980,420L1980,540L2100,420Z" fill="#4d9057" stroke="#4d9057" stroke-width="1.51"/><path d="M1980,420L2100,420L2100,300Z" fill="#58925a" stroke="#58925a" stroke-width="1.51"/><path d="M1980,300L1980,420L2100,300Z" fill="#5e975d" stroke="#5e975d" stroke-width="1.51"/><path d="M1980,300L2100,300L2100,180Z" fill="#669860" stroke="#669860" stroke-width="1.51"/><path d="M1980,180L1980,300L2100,180Z" fill="#6b9c63" stroke="#6b9c63" stroke-width="1.51"/><path d="M1980,180L2100,180L2100,60Z" fill="#739d66" stroke="#739d66" stroke-width="1.51"/><path d="M1980,60L1980,180L2100,60Z" fill="#77a169" stroke="#77a169" stroke-width="1.51"/><path d="M1980,60L2100,60L2100,-60Z" fill="#7ca16c" stroke="#7ca16c" stroke-width="1.51"/><path d="M1980,-60L1980,60L2100,-60Z" fill="#80a56f" stroke="#80a56f" stroke-width="1.51"/><path d="M1980,-60L2100,-60L2100,-180Z" fill="#82a375" stroke="#82a375" stroke-width="1.51"/><path d="M1980,-180L1980,-60L2100,-180Z" fill="#84a67a" stroke="#84a67a" stroke-width="1.51"/><path d="M1860,1260L1980,1260L1980,1140Z" fill="#005a31" stroke="#005a31" stroke-width="1.51"/><path d="M1860,1140L1860,1260L1980,1140Z" fill="#006034" stroke="#006034" stroke-width="1.51"/><path d="M1860,1140L1980,1140L1980,1020Z" fill="#026536" stroke="#026536" stroke-width="1.51"/><path d="M1860,1020L1860,1140L1980,1020Z" fill="#076a38" stroke="#076a38" stroke-width="1.51"/><path d="M1860,1020L1980,1020L1980,900Z" fill="#0f6d39" stroke="#0f6d39" stroke-width="1.51"/><path d="M1860,900L1860,1020L1980,900Z" fill="#13733b" stroke="#13733b" stroke-width="1.51"/><path d="M1860,900L1980,900L1980,780Z" fill="#1a773f" stroke="#1a773f" stroke-width="1.51"/><path d="M1860,780L1860,900L1980,780Z" fill="#1e7e43" stroke="#1e7e43" stroke-width="1.51"/><path d="M1860,780L1980,780L1980,660Z" fill="#248347" stroke="#248347" stroke-width="1.51"/><path d="M1860,660L1860,780L1980,660Z" fill="#2b894b" stroke="#2b894b" stroke-width="1.51"/><path d="M1860,660L1980,660L1980,540Z" fill="#388b4f" stroke="#388b4f" stroke-width="1.51"/><path d="M1860,540L1860,660L1980,540Z" fill="#3e9053" stroke="#3e9053" stroke-width="1.51"/><path d="M1860,540L1980,540L1980,420Z" fill="#499357" stroke="#499357" stroke-width="1.51"/><path d="M1860,420L1860,540L1980,420Z" fill="#50975a" stroke="#50975a" stroke-width="1.51"/><path d="M1860,420L1980,420L1980,300Z" fill="#5a9a5d" stroke="#5a9a5d" stroke-width="1.51"/><path d="M1860,300L1860,420L1980,300Z" fill="#619e60" stroke="#619e60" stroke-width="1.51"/><path d="M1860,300L1980,300L1980,180Z" fill="#699f63" stroke="#699f63" stroke-width="1.51"/><path d="M1860,180L1860,300L1980,180Z" fill="#6ea466" stroke="#6ea466" stroke-width="1.51"/><path d="M1860,180L1980,180L1980,60Z" fill="#76a569" stroke="#76a569" stroke-width="1.51"/><path d="M1860,60L1860,180L1980,60Z" fill="#7ba96c" stroke="#7ba96c" stroke-width="1.51"/><path d="M1860,60L1980,60L1980,-60Z" fill="#7fa96f" stroke="#7fa96f" stroke-width="1.51"/><path d="M1860,-60L1860,60L1980,-60Z" fill="#83ac72" stroke="#83ac72" stroke-width="1.51"/><path d="M1860,-60L1980,-60L1980,-180Z" fill="#85ab78" stroke="#85ab78" stroke-width="1.51"/><path d="M1860,-180L1860,-60L1980,-180Z" fill="#87ae7d" stroke="#87ae7d" stroke-width="1.51"/><path d="M1740,1260L1860,1260L1860,1140Z" fill="#026134" stroke="#026134" stroke-width="1.51"/><path d="M1740,1140L1740,1260L1860,1140Z" fill="#056636" stroke="#056636" stroke-width="1.51"/><path d="M1740,1140L1860,1140L1860,1020Z" fill="#056c39" stroke="#056c39" stroke-width="1.51"/><path d="M1740,1020L1740,1140L1860,1020Z" fill="#0d703a" stroke="#0d703a" stroke-width="1.51"/><path d="M1740,1020L1860,1020L1860,900Z" fill="#12743c" stroke="#12743c" stroke-width="1.51"/><path d="M1740,900L1740,1020L1860,900Z" fill="#18793e" stroke="#18793e" stroke-width="1.51"/><path d="M1740,900L1860,900L1860,780Z" fill="#1d7f42" stroke="#1d7f42" stroke-width="1.51"/><path d="M1740,780L1740,900L1860,780Z" fill="#228445" stroke="#228445" stroke-width="1.51"/><path d="M1740,780L1860,780L1860,660Z" fill="#268a4a" stroke="#268a4a" stroke-width="1.51"/><path d="M1740,660L1740,780L1860,660Z" fill="#2f8f4e" stroke="#2f8f4e" stroke-width="1.51"/><path d="M1740,660L1860,660L1860,540Z" fill="#3b9352" stroke="#3b9352" stroke-width="1.51"/><path d="M1740,540L1740,660L1860,540Z" fill="#429756" stroke="#429756" stroke-width="1.51"/><path d="M1740,540L1860,540L1860,420Z" fill="#4c9a5a" stroke="#4c9a5a" stroke-width="1.51"/><path d="M1740,420L1740,540L1860,420Z" fill="#549e5d" stroke="#549e5d" stroke-width="1.51"/><path d="M1740,420L1860,420L1860,300Z" fill="#5ea160" stroke="#5ea160" stroke-width="1.51"/><path d="M1740,300L1740,420L1860,300Z" fill="#65a563" stroke="#65a563" stroke-width="1.51"/><path d="M1740,300L1860,300L1860,180Z" fill="#6da766" stroke="#6da766" stroke-width="1.51"/><path d="M1740,180L1740,300L1860,180Z" fill="#73ab69" stroke="#73ab69" stroke-width="1.51"/><path d="M1740,180L1860,180L1860,60Z" fill="#7aad6c" stroke="#7aad6c" stroke-width="1.51"/><path d="M1740,60L1740,180L1860,60Z" fill="#7fb06f" stroke="#7fb06f" stroke-width="1.51"/><path d="M1740,60L1860,60L1860,-60Z" fill="#83b073" stroke="#83b073" stroke-width="1.51"/><path d="M1740,-60L1740,60L1860,-60Z" fill="#88b375" stroke="#88b375" stroke-width="1.51"/><path d="M1740,-60L1860,-60L1860,-180Z" fill="#8ab37c" stroke="#8ab37c" stroke-width="1.51"/><path d="M1740,-180L1740,-60L1860,-180Z" fill="#8bb580" stroke="#8bb580" stroke-width="1.51"/><path d="M1620,1260L1740,1260L1740,1140Z" fill="#0a6736" stroke="#0a6736" stroke-width="1.51"/><path d="M1620,1140L1620,1260L1740,1140Z" fill="#0e6c39" stroke="#0e6c39" stroke-width="1.51"/><path d="M1620,1140L1740,1140L1740,1020Z" fill="#0e713b" stroke="#0e713b" stroke-width="1.51"/><path d="M1620,1020L1620,1140L1740,1020Z" fill="#14763d" stroke="#14763d" stroke-width="1.51"/><path d="M1620,1020L1740,1020L1740,900Z" fill="#197a3e" stroke="#197a3e" stroke-width="1.51"/><path d="M1620,900L1620,1020L1740,900Z" fill="#1e7f40" stroke="#1e7f40" stroke-width="1.51"/><path d="M1620,900L1740,900L1740,780Z" fill="#228444" stroke="#228444" stroke-width="1.51"/><path d="M1620,780L1620,900L1740,780Z" fill="#278a48" stroke="#278a48" stroke-width="1.51"/><path d="M1620,780L1740,780L1740,660Z" fill="#2c904c" stroke="#2c904c" stroke-width="1.51"/><path d="M1620,660L1620,780L1740,660Z" fill="#349550" stroke="#349550" stroke-width="1.51"/><path d="M1620,660L1740,660L1740,540Z" fill="#3f9854" stroke="#3f9854" stroke-width="1.51"/><path d="M1620,540L1620,660L1740,540Z" fill="#479d58" stroke="#479d58" stroke-width="1.51"/><path d="M1620,540L1740,540L1740,420Z" fill="#51a05c" stroke="#51a05c" stroke-width="1.51"/><path d="M1620,420L1620,540L1740,420Z" fill="#58a460" stroke="#58a460" stroke-width="1.51"/><path d="M1620,420L1740,420L1740,300Z" fill="#62a762" stroke="#62a762" stroke-width="1.51"/><path d="M1620,300L1620,420L1740,300Z" fill="#69ab66" stroke="#69ab66" stroke-width="1.51"/><path d="M1620,300L1740,300L1740,180Z" fill="#71ad68" stroke="#71ad68" stroke-width="1.51"/><path d="M1620,180L1620,300L1740,180Z" fill="#77b16b" stroke="#77b16b" stroke-width="1.51"/><path d="M1620,180L1740,180L1740,60Z" fill="#7fb36e" stroke="#7fb36e" stroke-width="1.51"/><path d="M1620,60L1620,180L1740,60Z" fill="#84b672" stroke="#84b672" stroke-width="1.51"/><path d="M1620,60L1740,60L1740,-60Z" fill="#88b675" stroke="#88b675" stroke-width="1.51"/><path d="M1620,-60L1620,60L1740,-60Z" fill="#8dba78" stroke="#8dba78" stroke-width="1.51"/><path d="M1620,-60L1740,-60L1740,-180Z" fill="#8eb97e" stroke="#8eb97e" stroke-width="1.51"/><path d="M1620,-180L1620,-60L1740,-180Z" fill="#91bb83" stroke="#91bb83" stroke-width="1.51"/><path d="M1500,1260L1620,1260L1620,1140Z" fill="#126c39" stroke="#126c39" stroke-width="1.51"/><path d="M1500,1140L1500,1260L1620,1140Z" fill="#15723c" stroke="#15723c" stroke-width="1.51"/><path d="M1500,1140L1620,1140L1620,1020Z" fill="#15773d" stroke="#15773d" stroke-width="1.51"/><path d="M1500,1020L1500,1140L1620,1020Z" fill="#1b7c40" stroke="#1b7c40" stroke-width="1.51"/><path d="M1500,1020L1620,1020L1620,900Z" fill="#1f7f41" stroke="#1f7f41" stroke-width="1.51"/><path d="M1500,900L1500,1020L1620,900Z" fill="#248543" stroke="#248543" stroke-width="1.51"/><path d="M1500,900L1620,900L1620,780Z" fill="#288a47" stroke="#288a47" stroke-width="1.51"/><path d="M1500,780L1500,900L1620,780Z" fill="#2d904b" stroke="#2d904b" stroke-width="1.51"/><path d="M1500,780L1620,780L1620,660Z" fill="#31964f" stroke="#31964f" stroke-width="1.51"/><path d="M1500,660L1500,780L1620,660Z" fill="#399b53" stroke="#399b53" stroke-width="1.51"/><path d="M1500,660L1620,660L1620,540Z" fill="#449e57" stroke="#449e57" stroke-width="1.51"/><path d="M1500,540L1500,660L1620,540Z" fill="#4ca35c" stroke="#4ca35c" stroke-width="1.51"/><path d="M1500,540L1620,540L1620,420Z" fill="#55a65f" stroke="#55a65f" stroke-width="1.51"/><path d="M1500,420L1500,540L1620,420Z" fill="#5dab63" stroke="#5dab63" stroke-width="1.51"/><path d="M1500,420L1620,420L1620,300Z" fill="#67ad65" stroke="#67ad65" stroke-width="1.51"/><path d="M1500,300L1500,420L1620,300Z" fill="#6eb169" stroke="#6eb169" stroke-width="1.51"/><path d="M1500,300L1620,300L1620,180Z" fill="#76b36b" stroke="#76b36b" stroke-width="1.51"/><path d="M1500,180L1500,300L1620,180Z" fill="#7cb76f" stroke="#7cb76f" stroke-width="1.51"/><path d="M1500,180L1620,180L1620,60Z" fill="#83b971" stroke="#83b971" stroke-width="1.51"/><path d="M1500,60L1500,180L1620,60Z" fill="#88bc75" stroke="#88bc75" stroke-width="1.51"/><path d="M1500,60L1620,60L1620,-60Z" fill="#8cbc78" stroke="#8cbc78" stroke-width="1.51"/><path d="M1500,-60L1500,60L1620,-60Z" fill="#91c07b" stroke="#91c07b" stroke-width="1.51"/><path d="M1500,-60L1620,-60L1620,-180Z" fill="#93bf81" stroke="#93bf81" stroke-width="1.51"/><path d="M1500,-180L1500,-60L1620,-180Z" fill="#95c287" stroke="#95c287" stroke-width="1.51"/><path d="M1380,1260L1500,1260L1500,1140Z" fill="#18733e" stroke="#18733e" stroke-width="1.51"/><path d="M1380,1140L1380,1260L1500,1140Z" fill="#1b7941" stroke="#1b7941" stroke-width="1.51"/><path d="M1380,1140L1500,1140L1500,1020Z" fill="#1c7e42" stroke="#1c7e42" stroke-width="1.51"/><path d="M1380,1020L1380,1140L1500,1020Z" fill="#218345" stroke="#218345" stroke-width="1.51"/><path d="M1380,1020L1500,1020L1500,900Z" fill="#258746" stroke="#258746" stroke-width="1.51"/><path d="M1380,900L1380,1020L1500,900Z" fill="#2a8c48" stroke="#2a8c48" stroke-width="1.51"/><path d="M1380,900L1500,900L1500,780Z" fill="#2e914c" stroke="#2e914c" stroke-width="1.51"/><path d="M1380,780L1380,900L1500,780Z" fill="#339850" stroke="#339850" stroke-width="1.51"/><path d="M1380,780L1500,780L1500,660Z" fill="#379d54" stroke="#379d54" stroke-width="1.51"/><path d="M1380,660L1380,780L1500,660Z" fill="#3fa358" stroke="#3fa358" stroke-width="1.51"/><path d="M1380,660L1500,660L1500,540Z" fill="#49a65c" stroke="#49a65c" stroke-width="1.51"/><path d="M1380,540L1380,660L1500,540Z" fill="#51ab61" stroke="#51ab61" stroke-width="1.51"/><path d="M1380,540L1500,540L1500,420Z" fill="#5bae64" stroke="#5bae64" stroke-width="1.51"/><path d="M1380,420L1380,540L1500,420Z" fill="#62b268" stroke="#62b268" stroke-width="1.51"/><path d="M1380,420L1500,420L1500,300Z" fill="#6cb56a" stroke="#6cb56a" stroke-width="1.51"/><path d="M1380,300L1380,420L1500,300Z" fill="#74b96e" stroke="#74b96e" stroke-width="1.51"/><path d="M1380,300L1500,300L1500,180Z" fill="#7bbb70" stroke="#7bbb70" stroke-width="1.51"/><path d="M1380,180L1380,300L1500,180Z" fill="#82bf74" stroke="#82bf74" stroke-width="1.51"/><path d="M1380,180L1500,180L1500,60Z" fill="#89c177" stroke="#89c177" stroke-width="1.51"/><path d="M1380,60L1380,180L1500,60Z" fill="#8ec47b" stroke="#8ec47b" stroke-width="1.51"/><path d="M1380,60L1500,60L1500,-60Z" fill="#92c47d" stroke="#92c47d" stroke-width="1.51"/><path d="M1380,-60L1380,60L1500,-60Z" fill="#97c881" stroke="#97c881" stroke-width="1.51"/><path d="M1380,-60L1500,-60L1500,-180Z" fill="#99c786" stroke="#99c786" stroke-width="1.51"/><path d="M1380,-180L1380,-60L1500,-180Z" fill="#9bc98c" stroke="#9bc98c" stroke-width="1.51"/><path d="M1260,1260L1380,1260L1380,1140Z" fill="#1f7b43" stroke="#1f7b43" stroke-width="1.51"/><path d="M1260,1140L1260,1260L1380,1140Z" fill="#228146" stroke="#228146" stroke-width="1.51"/><path d="M1260,1140L1380,1140L1380,1020Z" fill="#238647" stroke="#238647" stroke-width="1.51"/><path d="M1260,1020L1260,1140L1380,1020Z" fill="#278b4a" stroke="#278b4a" stroke-width="1.51"/><path d="M1260,1020L1380,1020L1380,900Z" fill="#2b8e4b" stroke="#2b8e4b" stroke-width="1.51"/><path d="M1260,900L1260,1020L1380,900Z" fill="#30944d" stroke="#30944d" stroke-width="1.51"/><path d="M1260,900L1380,900L1380,780Z" fill="#349951" stroke="#349951" stroke-width="1.51"/><path d="M1260,780L1260,900L1380,780Z" fill="#39a055" stroke="#39a055" stroke-width="1.51"/><path d="M1260,780L1380,780L1380,660Z" fill="#3da559" stroke="#3da559" stroke-width="1.51"/><path d="M1260,660L1260,780L1380,660Z" fill="#45ab5d" stroke="#45ab5d" stroke-width="1.51"/><path d="M1260,660L1380,660L1380,540Z" fill="#4fad61" stroke="#4fad61" stroke-width="1.51"/><path d="M1260,540L1260,660L1380,540Z" fill="#57b366" stroke="#57b366" stroke-width="1.51"/><path d="M1260,540L1380,540L1380,420Z" fill="#60b569" stroke="#60b569" stroke-width="1.51"/><path d="M1260,420L1260,540L1380,420Z" fill="#68ba6d" stroke="#68ba6d" stroke-width="1.51"/><path d="M1260,420L1380,420L1380,300Z" fill="#72bc70" stroke="#72bc70" stroke-width="1.51"/><path d="M1260,300L1260,420L1380,300Z" fill="#79c174" stroke="#79c174" stroke-width="1.51"/><path d="M1260,300L1380,300L1380,180Z" fill="#81c276" stroke="#81c276" stroke-width="1.51"/><path d="M1260,180L1260,300L1380,180Z" fill="#88c879" stroke="#88c879" stroke-width="1.51"/><path d="M1260,180L1380,180L1380,60Z" fill="#8fc87c" stroke="#8fc87c" stroke-width="1.51"/><path d="M1260,60L1260,180L1380,60Z" fill="#94cd80" stroke="#94cd80" stroke-width="1.51"/><path d="M1260,60L1380,60L1380,-60Z" fill="#98cc83" stroke="#98cc83" stroke-width="1.51"/><path d="M1260,-60L1260,60L1380,-60Z" fill="#9dd086" stroke="#9dd086" stroke-width="1.51"/><path d="M1260,-60L1380,-60L1380,-180Z" fill="#9fcf8c" stroke="#9fcf8c" stroke-width="1.51"/><path d="M1260,-180L1260,-60L1380,-180Z" fill="#a1d292" stroke="#a1d292" stroke-width="1.51"/><path d="M1140,1260L1260,1260L1260,1140Z" fill="#288248" stroke="#288248" stroke-width="1.51"/><path d="M1140,1140L1140,1260L1260,1140Z" fill="#2d874b" stroke="#2d874b" stroke-width="1.51"/><path d="M1140,1140L1260,1140L1260,1020Z" fill="#2c8d4d" stroke="#2c8d4d" stroke-width="1.51"/><path d="M1140,1020L1140,1140L1260,1020Z" fill="#33914f" stroke="#33914f" stroke-width="1.51"/><path d="M1140,1020L1260,1020L1260,900Z" fill="#339650" stroke="#339650" stroke-width="1.51"/><path d="M1140,900L1140,1020L1260,900Z" fill="#3a9a53" stroke="#3a9a53" stroke-width="1.51"/><path d="M1140,900L1260,900L1260,780Z" fill="#3ca056" stroke="#3ca056" stroke-width="1.51"/><path d="M1140,780L1140,900L1260,780Z" fill="#43a65a" stroke="#43a65a" stroke-width="1.51"/><path d="M1140,780L1260,780L1260,660Z" fill="#45ac5e" stroke="#45ac5e" stroke-width="1.51"/><path d="M1140,660L1140,780L1260,660Z" fill="#4fb163" stroke="#4fb163" stroke-width="1.51"/><path d="M1140,660L1260,660L1260,540Z" fill="#56b567" stroke="#56b567" stroke-width="1.51"/><path d="M1140,540L1140,660L1260,540Z" fill="#60b96b" stroke="#60b96b" stroke-width="1.51"/><path d="M1140,540L1260,540L1260,420Z" fill="#67bd6f" stroke="#67bd6f" stroke-width="1.51"/><path d="M1140,420L1140,540L1260,420Z" fill="#71c173" stroke="#71c173" stroke-width="1.51"/><path d="M1140,420L1260,420L1260,300Z" fill="#79c475" stroke="#79c475" stroke-width="1.51"/><path d="M1140,300L1140,420L1260,300Z" fill="#82c879" stroke="#82c879" stroke-width="1.51"/><path d="M1140,300L1260,300L1260,180Z" fill="#88ca7c" stroke="#88ca7c" stroke-width="1.51"/><path d="M1140,180L1140,300L1260,180Z" fill="#90ce7f" stroke="#90ce7f" stroke-width="1.51"/><path d="M1140,180L1260,180L1260,60Z" fill="#96d082" stroke="#96d082" stroke-width="1.51"/><path d="M1140,60L1140,180L1260,60Z" fill="#9cd386" stroke="#9cd386" stroke-width="1.51"/><path d="M1140,60L1260,60L1260,-60Z" fill="#9fd489" stroke="#9fd489" stroke-width="1.51"/><path d="M1140,-60L1140,60L1260,-60Z" fill="#a6d68c" stroke="#a6d68c" stroke-width="1.51"/><path d="M1140,-60L1260,-60L1260,-180Z" fill="#a6d692" stroke="#a6d692" stroke-width="1.51"/><path d="M1140,-180L1140,-60L1260,-180Z" fill="#aad898" stroke="#aad898" stroke-width="1.51"/><path d="M1020,1260L1140,1260L1140,1140Z" fill="#35864d" stroke="#35864d" stroke-width="1.51"/><path d="M1020,1140L1020,1260L1140,1140Z" fill="#3a8c50" stroke="#3a8c50" stroke-width="1.51"/><path d="M1020,1140L1140,1140L1140,1020Z" fill="#399252" stroke="#399252" stroke-width="1.51"/><path d="M1020,1020L1020,1140L1140,1020Z" fill="#3f9655" stroke="#3f9655" stroke-width="1.51"/><path d="M1020,1020L1140,1020L1140,900Z" fill="#409b56" stroke="#409b56" stroke-width="1.51"/><path d="M1020,900L1020,1020L1140,900Z" fill="#46a059" stroke="#46a059" stroke-width="1.51"/><path d="M1020,900L1140,900L1140,780Z" fill="#48a55c" stroke="#48a55c" stroke-width="1.51"/><path d="M1020,780L1020,900L1140,780Z" fill="#4fab60" stroke="#4fab60" stroke-width="1.51"/><path d="M1020,780L1140,780L1140,660Z" fill="#51b164" stroke="#51b164" stroke-width="1.51"/><path d="M1020,660L1020,780L1140,660Z" fill="#5ab669" stroke="#5ab669" stroke-width="1.51"/><path d="M1020,660L1140,660L1140,540Z" fill="#62ba6c" stroke="#62ba6c" stroke-width="1.51"/><path d="M1020,540L1020,660L1140,540Z" fill="#6bbf71" stroke="#6bbf71" stroke-width="1.51"/><path d="M1020,540L1140,540L1140,420Z" fill="#72c274" stroke="#72c274" stroke-width="1.51"/><path d="M1020,420L1020,540L1140,420Z" fill="#7bc679" stroke="#7bc679" stroke-width="1.51"/><path d="M1020,420L1140,420L1140,300Z" fill="#83c97b" stroke="#83c97b" stroke-width="1.51"/><path d="M1020,300L1020,420L1140,300Z" fill="#8ccd7f" stroke="#8ccd7f" stroke-width="1.51"/><path d="M1020,300L1140,300L1140,180Z" fill="#92cf81" stroke="#92cf81" stroke-width="1.51"/><path d="M1020,180L1020,300L1140,180Z" fill="#9ad385" stroke="#9ad385" stroke-width="1.51"/><path d="M1020,180L1140,180L1140,60Z" fill="#a0d588" stroke="#a0d588" stroke-width="1.51"/><path d="M1020,60L1020,180L1140,60Z" fill="#a6d88c" stroke="#a6d88c" stroke-width="1.51"/><path d="M1020,60L1140,60L1140,-60Z" fill="#a9d98e" stroke="#a9d98e" stroke-width="1.51"/><path d="M1020,-60L1020,60L1140,-60Z" fill="#afdc92" stroke="#afdc92" stroke-width="1.51"/><path d="M1020,-60L1140,-60L1140,-180Z" fill="#afdb98" stroke="#afdb98" stroke-width="1.51"/><path d="M1020,-180L1020,-60L1140,-180Z" fill="#b3dd9e" stroke="#b3dd9e" stroke-width="1.51"/><path d="M900,1260L1020,1260L1020,1140Z" fill="#408c52" stroke="#408c52" stroke-width="1.51"/><path d="M900,1140L900,1260L1020,1140Z" fill="#459155" stroke="#459155" stroke-width="1.51"/><path d="M900,1140L1020,1140L1020,1020Z" fill="#459757" stroke="#459757" stroke-width="1.51"/><path d="M900,1020L900,1140L1020,1020Z" fill="#4b9c5a" stroke="#4b9c5a" stroke-width="1.51"/><path d="M900,1020L1020,1020L1020,900Z" fill="#4ca05b" stroke="#4ca05b" stroke-width="1.51"/><path d="M900,900L900,1020L1020,900Z" fill="#52a55d" stroke="#52a55d" stroke-width="1.51"/><path d="M900,900L1020,900L1020,780Z" fill="#53ab61" stroke="#53ab61" stroke-width="1.51"/><path d="M900,780L900,900L1020,780Z" fill="#5ab165" stroke="#5ab165" stroke-width="1.51"/><path d="M900,780L1020,780L1020,660Z" fill="#5cb769" stroke="#5cb769" stroke-width="1.51"/><path d="M900,660L900,780L1020,660Z" fill="#65bc6e" stroke="#65bc6e" stroke-width="1.51"/><path d="M900,660L1020,660L1020,540Z" fill="#6cbf72" stroke="#6cbf72" stroke-width="1.51"/><path d="M900,540L900,660L1020,540Z" fill="#75c476" stroke="#75c476" stroke-width="1.51"/><path d="M900,540L1020,540L1020,420Z" fill="#7cc77a" stroke="#7cc77a" stroke-width="1.51"/><path d="M900,420L900,540L1020,420Z" fill="#85cc7e" stroke="#85cc7e" stroke-width="1.51"/><path d="M900,420L1020,420L1020,300Z" fill="#8dcf80" stroke="#8dcf80" stroke-width="1.51"/><path d="M900,300L900,420L1020,300Z" fill="#95d384" stroke="#95d384" stroke-width="1.51"/><path d="M900,300L1020,300L1020,180Z" fill="#9bd587" stroke="#9bd587" stroke-width="1.51"/><path d="M900,180L900,300L1020,180Z" fill="#a3d98a" stroke="#a3d98a" stroke-width="1.51"/><path d="M900,180L1020,180L1020,60Z" fill="#a9db8d" stroke="#a9db8d" stroke-width="1.51"/><path d="M900,60L900,180L1020,60Z" fill="#b0de91" stroke="#b0de91" stroke-width="1.51"/><path d="M900,60L1020,60L1020,-60Z" fill="#b2de94" stroke="#b2de94" stroke-width="1.51"/><path d="M900,-60L900,60L1020,-60Z" fill="#b9e198" stroke="#b9e198" stroke-width="1.51"/><path d="M900,-60L1020,-60L1020,-180Z" fill="#b9e19d" stroke="#b9e19d" stroke-width="1.51"/><path d="M900,-180L900,-60L1020,-180Z" fill="#bde3a3" stroke="#bde3a3" stroke-width="1.51"/><path d="M780,1260L900,1260L900,1140Z" fill="#4b9056" stroke="#4b9056" stroke-width="1.51"/><path d="M780,1140L780,1260L900,1140Z" fill="#509659" stroke="#509659" stroke-width="1.51"/><path d="M780,1140L900,1140L900,1020Z" fill="#509c5b" stroke="#509c5b" stroke-width="1.51"/><path d="M780,1020L780,1140L900,1020Z" fill="#56a05e" stroke="#56a05e" stroke-width="1.51"/><path d="M780,1020L900,1020L900,900Z" fill="#57a55f" stroke="#57a55f" stroke-width="1.51"/><path d="M780,900L780,1020L900,900Z" fill="#5da962" stroke="#5da962" stroke-width="1.51"/><path d="M780,900L900,900L900,780Z" fill="#5fb065" stroke="#5fb065" stroke-width="1.51"/><path d="M780,780L780,900L900,780Z" fill="#65b56a" stroke="#65b56a" stroke-width="1.51"/><path d="M780,780L900,780L900,660Z" fill="#67bc6e" stroke="#67bc6e" stroke-width="1.51"/><path d="M780,660L780,780L900,660Z" fill="#70c172" stroke="#70c172" stroke-width="1.51"/><path d="M780,660L900,660L900,540Z" fill="#77c576" stroke="#77c576" stroke-width="1.51"/><path d="M780,540L780,660L900,540Z" fill="#80c97b" stroke="#80c97b" stroke-width="1.51"/><path d="M780,540L900,540L900,420Z" fill="#87cd7e" stroke="#87cd7e" stroke-width="1.51"/><path d="M780,420L780,540L900,420Z" fill="#90d082" stroke="#90d082" stroke-width="1.51"/><path d="M780,420L900,420L900,300Z" fill="#97d485" stroke="#97d485" stroke-width="1.51"/><path d="M780,300L780,420L900,300Z" fill="#a0d789" stroke="#a0d789" stroke-width="1.51"/><path d="M780,300L900,300L900,180Z" fill="#a5da8b" stroke="#a5da8b" stroke-width="1.51"/><path d="M780,180L780,300L900,180Z" fill="#addd8f" stroke="#addd8f" stroke-width="1.51"/><path d="M780,180L900,180L900,60Z" fill="#b3e092" stroke="#b3e092" stroke-width="1.51"/><path d="M780,60L780,180L900,60Z" fill="#bae296" stroke="#bae296" stroke-width="1.51"/><path d="M780,60L900,60L900,-60Z" fill="#bce399" stroke="#bce399" stroke-width="1.51"/><path d="M780,-60L780,60L900,-60Z" fill="#c3e69c" stroke="#c3e69c" stroke-width="1.51"/><path d="M780,-60L900,-60L900,-180Z" fill="#c3e6a2" stroke="#c3e6a2" stroke-width="1.51"/><path d="M780,-180L780,-60L900,-180Z" fill="#c7e7a8" stroke="#c7e7a8" stroke-width="1.51"/><path d="M660,1260L780,1260L780,1140Z" fill="#56955a" stroke="#56955a" stroke-width="1.51"/><path d="M660,1140L660,1260L780,1140Z" fill="#5b9a5d" stroke="#5b9a5d" stroke-width="1.51"/><path d="M660,1140L780,1140L780,1020Z" fill="#5ba05f" stroke="#5ba05f" stroke-width="1.51"/><path d="M660,1020L660,1140L780,1020Z" fill="#61a462" stroke="#61a462" stroke-width="1.51"/><path d="M660,1020L780,1020L780,900Z" fill="#62a963" stroke="#62a963" stroke-width="1.51"/><path d="M660,900L660,1020L780,900Z" fill="#68ae65" stroke="#68ae65" stroke-width="1.51"/><path d="M660,900L780,900L780,780Z" fill="#6ab469" stroke="#6ab469" stroke-width="1.51"/><path d="M660,780L660,900L780,780Z" fill="#71ba6d" stroke="#71ba6d" stroke-width="1.51"/><path d="M660,780L780,780L780,660Z" fill="#73c172" stroke="#73c172" stroke-width="1.51"/><path d="M660,660L660,780L780,660Z" fill="#7bc576" stroke="#7bc576" stroke-width="1.51"/><path d="M660,660L780,660L780,540Z" fill="#82c97a" stroke="#82c97a" stroke-width="1.51"/><path d="M660,540L660,660L780,540Z" fill="#8bcd7f" stroke="#8bcd7f" stroke-width="1.51"/><path d="M660,540L780,540L780,420Z" fill="#91d182" stroke="#91d182" stroke-width="1.51"/><path d="M660,420L660,540L780,420Z" fill="#9ad586" stroke="#9ad586" stroke-width="1.51"/><path d="M660,420L780,420L780,300Z" fill="#a2d889" stroke="#a2d889" stroke-width="1.51"/><path d="M660,300L660,420L780,300Z" fill="#aadc8d" stroke="#aadc8d" stroke-width="1.51"/><path d="M660,300L780,300L780,180Z" fill="#b0de8f" stroke="#b0de8f" stroke-width="1.51"/><path d="M660,180L660,300L780,180Z" fill="#b8e293" stroke="#b8e293" stroke-width="1.51"/><path d="M660,180L780,180L780,60Z" fill="#bde496" stroke="#bde496" stroke-width="1.51"/><path d="M660,60L660,180L780,60Z" fill="#c4e79a" stroke="#c4e79a" stroke-width="1.51"/><path d="M660,60L780,60L780,-60Z" fill="#c6e89d" stroke="#c6e89d" stroke-width="1.51"/><path d="M660,-60L660,60L780,-60Z" fill="#cdeaa0" stroke="#cdeaa0" stroke-width="1.51"/><path d="M660,-60L780,-60L780,-180Z" fill="#cdeaa6" stroke="#cdeaa6" stroke-width="1.51"/><path d="M660,-180L660,-60L780,-180Z" fill="#d1ecac" stroke="#d1ecac" stroke-width="1.51"/><path d="M540,1260L660,1260L660,1140Z" fill="#61995e" stroke="#61995e" stroke-width="1.51"/><path d="M540,1140L540,1260L660,1140Z" fill="#659e61" stroke="#659e61" stroke-width="1.51"/><path d="M540,1140L660,1140L660,1020Z" fill="#66a563" stroke="#66a563" stroke-width="1.51"/><path d="M540,1020L540,1140L660,1020Z" fill="#6ba866" stroke="#6ba866" stroke-width="1.51"/><path d="M540,1020L660,1020L660,900Z" fill="#6dae67" stroke="#6dae67" stroke-width="1.51"/><path d="M540,900L540,1020L660,900Z" fill="#72b26a" stroke="#72b26a" stroke-width="1.51"/><path d="M540,900L660,900L660,780Z" fill="#75b96e" stroke="#75b96e" stroke-width="1.51"/><path d="M540,780L540,900L660,780Z" fill="#7bbe72" stroke="#7bbe72" stroke-width="1.51"/><path d="M540,780L660,780L660,660Z" fill="#7dc576" stroke="#7dc576" stroke-width="1.51"/><path d="M540,660L540,780L660,660Z" fill="#85c97b" stroke="#85c97b" stroke-width="1.51"/><path d="M540,660L660,660L660,540Z" fill="#8cce7f" stroke="#8cce7f" stroke-width="1.51"/><path d="M540,540L540,660L660,540Z" fill="#94d183" stroke="#94d183" stroke-width="1.51"/><path d="M540,540L660,540L660,420Z" fill="#9bd687" stroke="#9bd687" stroke-width="1.51"/><path d="M540,420L540,540L660,420Z" fill="#a4d98b" stroke="#a4d98b" stroke-width="1.51"/><path d="M540,420L660,420L660,300Z" fill="#acdd8d" stroke="#acdd8d" stroke-width="1.51"/><path d="M540,300L540,420L660,300Z" fill="#b4e091" stroke="#b4e091" stroke-width="1.51"/><path d="M540,300L660,300L660,180Z" fill="#bae394" stroke="#bae394" stroke-width="1.51"/><path d="M540,180L540,300L660,180Z" fill="#c1e697" stroke="#c1e697" stroke-width="1.51"/><path d="M540,180L660,180L660,60Z" fill="#c7e99a" stroke="#c7e99a" stroke-width="1.51"/><path d="M540,60L540,180L660,60Z" fill="#cdeb9e" stroke="#cdeb9e" stroke-width="1.51"/><path d="M540,60L660,60L660,-60Z" fill="#d0eca1" stroke="#d0eca1" stroke-width="1.51"/><path d="M540,-60L540,60L660,-60Z" fill="#d6eea5" stroke="#d6eea5" stroke-width="1.51"/><path d="M540,-60L660,-60L660,-180Z" fill="#d7efab" stroke="#d7efab" stroke-width="1.51"/><path d="M540,-180L540,-60L660,-180Z" fill="#daf0b1" stroke="#daf0b1" stroke-width="1.51"/><path d="M420,1260L540,1260L540,1140Z" fill="#6a9c62" stroke="#6a9c62" stroke-width="1.51"/><path d="M420,1140L420,1260L540,1140Z" fill="#6ea265" stroke="#6ea265" stroke-width="1.51"/><path d="M420,1140L540,1140L540,1020Z" fill="#6fa867" stroke="#6fa867" stroke-width="1.51"/><path d="M420,1020L420,1140L540,1020Z" fill="#74ac6a" stroke="#74ac6a" stroke-width="1.51"/><path d="M420,1020L540,1020L540,900Z" fill="#76b16b" stroke="#76b16b" stroke-width="1.51"/><path d="M420,900L420,1020L540,900Z" fill="#7bb66d" stroke="#7bb66d" stroke-width="1.51"/><path d="M420,900L540,900L540,780Z" fill="#7ebc71" stroke="#7ebc71" stroke-width="1.51"/><path d="M420,780L420,900L540,780Z" fill="#84c276" stroke="#84c276" stroke-width="1.51"/><path d="M420,780L540,780L540,660Z" fill="#87c97a" stroke="#87c97a" stroke-width="1.51"/><path d="M420,660L420,780L540,660Z" fill="#8ecd7e" stroke="#8ecd7e" stroke-width="1.51"/><path d="M420,660L540,660L540,540Z" fill="#96d183" stroke="#96d183" stroke-width="1.51"/><path d="M420,540L420,660L540,540Z" fill="#9dd587" stroke="#9dd587" stroke-width="1.51"/><path d="M420,540L540,540L540,420Z" fill="#a5d98b" stroke="#a5d98b" stroke-width="1.51"/><path d="M420,420L420,540L540,420Z" fill="#acdd8f" stroke="#acdd8f" stroke-width="1.51"/><path d="M420,420L540,420L540,300Z" fill="#b5e091" stroke="#b5e091" stroke-width="1.51"/><path d="M420,300L420,420L540,300Z" fill="#bce495" stroke="#bce495" stroke-width="1.51"/><path d="M420,300L540,300L540,180Z" fill="#c3e698" stroke="#c3e698" stroke-width="1.51"/><path d="M420,180L420,300L540,180Z" fill="#c9e99b" stroke="#c9e99b" stroke-width="1.51"/><path d="M420,180L540,180L540,60Z" fill="#d0ec9e" stroke="#d0ec9e" stroke-width="1.51"/><path d="M420,60L420,180L540,60Z" fill="#d6efa2" stroke="#d6efa2" stroke-width="1.51"/><path d="M420,60L540,60L540,-60Z" fill="#d9f0a5" stroke="#d9f0a5" stroke-width="1.51"/><path d="M420,-60L420,60L540,-60Z" fill="#dff2a9" stroke="#dff2a9" stroke-width="1.51"/><path d="M420,-60L540,-60L540,-180Z" fill="#e0f2af" stroke="#e0f2af" stroke-width="1.51"/><path d="M420,-180L420,-60L540,-180Z" fill="#e3f4b5" stroke="#e3f4b5" stroke-width="1.51"/><path d="M300,1260L420,1260L420,1140Z" fill="#72a066" stroke="#72a066" stroke-width="1.51"/><path d="M300,1140L300,1260L420,1140Z" fill="#76a569" stroke="#76a569" stroke-width="1.51"/><path d="M300,1140L420,1140L420,1020Z" fill="#78ac6b" stroke="#78ac6b" stroke-width="1.51"/><path d="M300,1020L300,1140L420,1020Z" fill="#7cb06d" stroke="#7cb06d" stroke-width="1.51"/><path d="M300,1020L420,1020L420,900Z" fill="#7fb56f" stroke="#7fb56f" stroke-width="1.51"/><path d="M300,900L300,1020L420,900Z" fill="#84b971" stroke="#84b971" stroke-width="1.51"/><path d="M300,900L420,900L420,780Z" fill="#87c076" stroke="#87c076" stroke-width="1.51"/><path d="M300,780L300,900L420,780Z" fill="#8cc579" stroke="#8cc579" stroke-width="1.51"/><path d="M300,780L420,780L420,660Z" fill="#90cd7e" stroke="#90cd7e" stroke-width="1.51"/><path d="M300,660L300,780L420,660Z" fill="#97d182" stroke="#97d182" stroke-width="1.51"/><path d="M300,660L420,660L420,540Z" fill="#9ed587" stroke="#9ed587" stroke-width="1.51"/><path d="M300,540L300,660L420,540Z" fill="#a6d98b" stroke="#a6d98b" stroke-width="1.51"/><path d="M300,540L420,540L420,420Z" fill="#addd8f" stroke="#addd8f" stroke-width="1.51"/><path d="M300,420L300,540L420,420Z" fill="#b5e093" stroke="#b5e093" stroke-width="1.51"/><path d="M300,420L420,420L420,300Z" fill="#bde496" stroke="#bde496" stroke-width="1.51"/><path d="M300,300L300,420L420,300Z" fill="#c5e799" stroke="#c5e799" stroke-width="1.51"/><path d="M300,300L420,300L420,180Z" fill="#cbea9c" stroke="#cbea9c" stroke-width="1.51"/><path d="M300,180L300,300L420,180Z" fill="#d2ed9f" stroke="#d2ed9f" stroke-width="1.51"/><path d="M300,180L420,180L420,60Z" fill="#d9f0a3" stroke="#d9f0a3" stroke-width="1.51"/><path d="M300,60L300,180L420,60Z" fill="#def2a6" stroke="#def2a6" stroke-width="1.51"/><path d="M300,60L420,60L420,-60Z" fill="#e2f4aa" stroke="#e2f4aa" stroke-width="1.51"/><path d="M300,-60L300,60L420,-60Z" fill="#e7f6ad" stroke="#e7f6ad" stroke-width="1.51"/><path d="M300,-60L420,-60L420,-180Z" fill="#e8f6b3" stroke="#e8f6b3" stroke-width="1.51"/><path d="M300,-180L300,-60L420,-180Z" fill="#ebf7b9" stroke="#ebf7b9" stroke-width="1.51"/><path d="M180,1260L300,1260L300,1140Z" fill="#79a36a" stroke="#79a36a" stroke-width="1.51"/><path d="M180,1140L180,1260L300,1140Z" fill="#7ca86d" stroke="#7ca86d" stroke-width="1.51"/><path d="M180,1140L300,1140L300,1020Z" fill="#7eae6f" stroke="#7eae6f" stroke-width="1.51"/><path d="M180,1020L180,1140L300,1020Z" fill="#82b271" stroke="#82b271" stroke-width="1.51"/><path d="M180,1020L300,1020L300,900Z" fill="#85b873" stroke="#85b873" stroke-width="1.51"/><path d="M180,900L180,1020L300,900Z" fill="#8abc76" stroke="#8abc76" stroke-width="1.51"/><path d="M180,900L300,900L300,780Z" fill="#8ec37a" stroke="#8ec37a" stroke-width="1.51"/><path d="M180,780L180,900L300,780Z" fill="#93c87e" stroke="#93c87e" stroke-width="1.51"/><path d="M180,780L300,780L300,660Z" fill="#97cf82" stroke="#97cf82" stroke-width="1.51"/><path d="M180,660L180,780L300,660Z" fill="#9dd387" stroke="#9dd387" stroke-width="1.51"/><path d="M180,660L300,660L300,540Z" fill="#a5d88b" stroke="#a5d88b" stroke-width="1.51"/><path d="M180,540L180,660L300,540Z" fill="#acdb90" stroke="#acdb90" stroke-width="1.51"/><path d="M180,540L300,540L300,420Z" fill="#b4e093" stroke="#b4e093" stroke-width="1.51"/><path d="M180,420L180,540L300,420Z" fill="#bbe397" stroke="#bbe397" stroke-width="1.51"/><path d="M180,420L300,420L300,300Z" fill="#c4e79a" stroke="#c4e79a" stroke-width="1.51"/><path d="M180,300L180,420L300,300Z" fill="#cbea9e" stroke="#cbea9e" stroke-width="1.51"/><path d="M180,300L300,300L300,180Z" fill="#d2eda0" stroke="#d2eda0" stroke-width="1.51"/><path d="M180,180L180,300L300,180Z" fill="#d8f0a4" stroke="#d8f0a4" stroke-width="1.51"/><path d="M180,180L300,180L300,60Z" fill="#dff3a7" stroke="#dff3a7" stroke-width="1.51"/><path d="M180,60L180,180L300,60Z" fill="#e4f5ab" stroke="#e4f5ab" stroke-width="1.51"/><path d="M180,60L300,60L300,-60Z" fill="#e8f6ae" stroke="#e8f6ae" stroke-width="1.51"/><path d="M180,-60L180,60L300,-60Z" fill="#edf8b1" stroke="#edf8b1" stroke-width="1.51"/><path d="M180,-60L300,-60L300,-180Z" fill="#eff9b7" stroke="#eff9b7" stroke-width="1.51"/><path d="M180,-180L180,-60L300,-180Z" fill="#f1fabe" stroke="#f1fabe" stroke-width="1.51"/><path d="M60,1260L180,1260L180,1140Z" fill="#7ea56e" stroke="#7ea56e" stroke-width="1.51"/><path d="M60,1140L60,1260L180,1140Z" fill="#82aa71" stroke="#82aa71" stroke-width="1.51"/><path d="M60,1140L180,1140L180,1020Z" fill="#84b173" stroke="#84b173" stroke-width="1.51"/><path d="M60,1020L60,1140L180,1020Z" fill="#89b476" stroke="#89b476" stroke-width="1.51"/><path d="M60,1020L180,1020L180,900Z" fill="#8bba77" stroke="#8bba77" stroke-width="1.51"/><path d="M60,900L60,1020L180,900Z" fill="#90be7a" stroke="#90be7a" stroke-width="1.51"/><path d="M60,900L180,900L180,780Z" fill="#94c57e" stroke="#94c57e" stroke-width="1.51"/><path d="M60,780L60,900L180,780Z" fill="#99ca82" stroke="#99ca82" stroke-width="1.51"/><path d="M60,780L180,780L180,660Z" fill="#9dd286" stroke="#9dd286" stroke-width="1.51"/><path d="M60,660L60,780L180,660Z" fill="#a4d58b" stroke="#a4d58b" stroke-width="1.51"/><path d="M60,660L180,660L180,540Z" fill="#abda8f" stroke="#abda8f" stroke-width="1.51"/><path d="M60,540L60,660L180,540Z" fill="#b2dd94" stroke="#b2dd94" stroke-width="1.51"/><path d="M60,540L180,540L180,420Z" fill="#bae298" stroke="#bae298" stroke-width="1.51"/><path d="M60,420L60,540L180,420Z" fill="#c1e59c" stroke="#c1e59c" stroke-width="1.51"/><path d="M60,420L180,420L180,300Z" fill="#cae99e" stroke="#cae99e" stroke-width="1.51"/><path d="M60,300L60,420L180,300Z" fill="#d1eca2" stroke="#d1eca2" stroke-width="1.51"/><path d="M60,300L180,300L180,180Z" fill="#d8efa5" stroke="#d8efa5" stroke-width="1.51"/><path d="M60,180L60,300L180,180Z" fill="#def2a8" stroke="#def2a8" stroke-width="1.51"/><path d="M60,180L180,180L180,60Z" fill="#e5f5ab" stroke="#e5f5ab" stroke-width="1.51"/><path d="M60,60L60,180L180,60Z" fill="#eaf7af" stroke="#eaf7af" stroke-width="1.51"/><path d="M60,60L180,60L180,-60Z" fill="#eef9b2" stroke="#eef9b2" stroke-width="1.51"/><path d="M60,-60L60,60L180,-60Z" fill="#f3fab6" stroke="#f3fab6" stroke-width="1.51"/><path d="M60,-60L180,-60L180,-180Z" fill="#f5fbbc" stroke="#f5fbbc" stroke-width="1.51"/><path d="M60,-180L60,-60L180,-180Z" fill="#f7fcc2" stroke="#f7fcc2" stroke-width="1.51"/><path d="M-60,1260L60,1260L60,1140Z" fill="#83a773" stroke="#83a773" stroke-width="1.51"/><path d="M-60,1140L-60,1260L60,1140Z" fill="#85ab78" stroke="#85ab78" stroke-width="1.51"/><path d="M-60,1140L60,1140L60,1020Z" fill="#89b279" stroke="#89b279" stroke-width="1.51"/><path d="M-60,1020L-60,1140L60,1020Z" fill="#8bb67d" stroke="#8bb67d" stroke-width="1.51"/><path d="M-60,1020L60,1020L60,900Z" fill="#90bc7d" stroke="#90bc7d" stroke-width="1.51"/><path d="M-60,900L-60,1020L60,900Z" fill="#93bf81" stroke="#93bf81" stroke-width="1.51"/><path d="M-60,900L60,900L60,780Z" fill="#98c784" stroke="#98c784" stroke-width="1.51"/><path d="M-60,780L-60,900L60,780Z" fill="#9ccc89" stroke="#9ccc89" stroke-width="1.51"/><path d="M-60,780L60,780L60,660Z" fill="#a1d38c" stroke="#a1d38c" stroke-width="1.51"/><path d="M-60,660L-60,780L60,660Z" fill="#a7d792" stroke="#a7d792" stroke-width="1.51"/><path d="M-60,660L60,660L60,540Z" fill="#b0dc95" stroke="#b0dc95" stroke-width="1.51"/><path d="M-60,540L-60,660L60,540Z" fill="#b5df9b" stroke="#b5df9b" stroke-width="1.51"/><path d="M-60,540L60,540L60,420Z" fill="#bfe49e" stroke="#bfe49e" stroke-width="1.51"/><path d="M-60,420L-60,540L60,420Z" fill="#c4e6a3" stroke="#c4e6a3" stroke-width="1.51"/><path d="M-60,420L60,420L60,300Z" fill="#ceeba4" stroke="#ceeba4" stroke-width="1.51"/><path d="M-60,300L-60,420L60,300Z" fill="#d4edaa" stroke="#d4edaa" stroke-width="1.51"/><path d="M-60,300L60,300L60,180Z" fill="#dcf1ab" stroke="#dcf1ab" stroke-width="1.51"/><path d="M-60,180L-60,300L60,180Z" fill="#e1f3b0" stroke="#e1f3b0" stroke-width="1.51"/><path d="M-60,180L60,180L60,60Z" fill="#eaf7b1" stroke="#eaf7b1" stroke-width="1.51"/><path d="M-60,60L-60,180L60,60Z" fill="#edf8b7" stroke="#edf8b7" stroke-width="1.51"/><path d="M-60,60L60,60L60,-60Z" fill="#f3fab8" stroke="#f3fab8" stroke-width="1.51"/><path d="M-60,-60L-60,60L60,-60Z" fill="#f6fcbe" stroke="#f6fcbe" stroke-width="1.51"/><path d="M-60,-60L60,-60L60,-180Z" fill="#f9fcc2" stroke="#f9fcc2" stroke-width="1.51"/><path d="M-60,-180L-60,-60L60,-180Z" fill="#fafdca" stroke="#fafdca" stroke-width="1.51"/><path d="M-180,1260L-60,1260L-60,1140Z" fill="#85a87c" stroke="#85a87c" stroke-width="1.51"/><path d="M-180,1140L-180,1260L-60,1140Z" fill="#87ac80" stroke="#87ac80" stroke-width="1.51"/><path d="M-180,1140L-60,1140L-60,1020Z" fill="#8ab381" stroke="#8ab381" stroke-width="1.51"/><path d="M-180,1020L-180,1140L-60,1020Z" fill="#8db685" stroke="#8db685" stroke-width="1.51"/><path d="M-180,1020L-60,1020L-60,900Z" fill="#92bd85" stroke="#92bd85" stroke-width="1.51"/><path d="M-180,900L-180,1020L-60,900Z" fill="#95c089" stroke="#95c089" stroke-width="1.51"/><path d="M-180,900L-60,900L-60,780Z" fill="#9ac88c" stroke="#9ac88c" stroke-width="1.51"/><path d="M-180,780L-180,900L-60,780Z" fill="#9ecc91" stroke="#9ecc91" stroke-width="1.51"/><path d="M-180,780L-60,780L-60,660Z" fill="#a3d495" stroke="#a3d495" stroke-width="1.51"/><path d="M-180,660L-180,780L-60,660Z" fill="#a9d79b" stroke="#a9d79b" stroke-width="1.51"/><path d="M-180,660L-60,660L-60,540Z" fill="#b2dd9e" stroke="#b2dd9e" stroke-width="1.51"/><path d="M-180,540L-180,660L-60,540Z" fill="#b7dfa4" stroke="#b7dfa4" stroke-width="1.51"/><path d="M-180,540L-60,540L-60,420Z" fill="#c0e5a6" stroke="#c0e5a6" stroke-width="1.51"/><path d="M-180,420L-180,540L-60,420Z" fill="#c6e7ab" stroke="#c6e7ab" stroke-width="1.51"/><path d="M-180,420L-60,420L-60,300Z" fill="#d0ecad" stroke="#d0ecad" stroke-width="1.51"/><path d="M-180,300L-180,420L-60,300Z" fill="#d6eeb2" stroke="#d6eeb2" stroke-width="1.51"/><path d="M-180,300L-60,300L-60,180Z" fill="#def2b4" stroke="#def2b4" stroke-width="1.51"/><path d="M-180,180L-180,300L-60,180Z" fill="#e3f4b8" stroke="#e3f4b8" stroke-width="1.51"/><path d="M-180,180L-60,180L-60,60Z" fill="#ecf8ba" stroke="#ecf8ba" stroke-width="1.51"/><path d="M-180,60L-180,180L-60,60Z" fill="#eff9bf" stroke="#eff9bf" stroke-width="1.51"/><path d="M-180,60L-60,60L-60,-60Z" fill="#f5fbc2" stroke="#f5fbc2" stroke-width="1.51"/><path d="M-180,-60L-180,60L-60,-60Z" fill="#f8fcc6" stroke="#f8fcc6" stroke-width="1.51"/><path d="M-180,-60L-60,-60L-60,-180Z" fill="#fbfdcb" stroke="#fbfdcb" stroke-width="1.51"/><path d="M-180,-180L-180,-60L-60,-180Z" fill="#fcfdd2" stroke="#fcfdd2" stroke-width="1.51"/></svg>