<svg xmlns="http://www.w3.org/2000/svg" width="1920" height="1080"><path d="M1980,1260L2100,1260L2100,1140Z" fill="#62045f" stroke="#62045f" stroke-width="1.51"/><path d="M1980,1140L1980,1260L2100,1140Z" fill="#6b0767" stroke="#6b0767" stroke-width="1.51"/><path d="M1980,1140L2100,1140L2100,1020Z" fill="#700e6d" stroke="#700e6d" stroke-width="1.51"/><path d="M1980,1020L1980,1140L2100,1020Z" fill="#741674" stroke="#741674" stroke-width="1.51"/><path d="M1980,1020L2100,1020L2100,900Z" fill="#722077" stroke="#722077" stroke-width="1.51"/><path d="M1980,900L1980,1020L2100,900Z" fill="#77267d" stroke="#77267d" stroke-width="1.51"/><path d="M1980,900L2100,900L2100,780Z" fill="#742f7f" stroke="#742f7f" stroke-width="1.51"/><path d="M1980,780L1980,900L2100,780Z" fill="#793584" stroke="#793584" stroke-width="1.51"/><path d="M1980,780L2100,780L2100,660Z" fill="#763d84" stroke="#763d84" stroke-width="1.51"/><path d="M1980,660L1980,780L2100,660Z" fill="#7a438a" stroke="#7a438a" stroke-width="1.51"/><path d="M1980,660L2100,660L2100,540Z" fill="#784b8b" stroke="#784b8b" stroke-width="1.51"/><path d="M1980,540L1980,660L2100,540Z" fill="#7d5190" stroke="#7d5190" stroke-width="1.51"/><path d="M1980,540L2100,540L2100,420Z" fill="#7b5891" stroke="#7b5891" stroke-width="1.51"/><path d="M1980,420L1980,540L2100,420Z" fill="#815d96" stroke="#815d96" stroke-width="1.51"/><path d="M1980,420L2100,420L2100,300Z" fill="#826396" stroke="#826396" stroke-width="1.51"/><path d="M1980,300L1980,420L2100,300Z" fill="#88699c" stroke="#88699c" stroke-width="1.51"/><path d="M1980,300L2100,300L2100,180Z" fill="#8a6b9b" stroke="#8a6b9b" stroke-width="1.51"/><path d="M1980,180L1980,300L2100,180Z" fill="#916f9f" stroke="#916f9f" stroke-width="1.51"/><path d="M1980,180L2100,180L2100,60Z" fill="#93719f" stroke="#93719f" stroke-width="1.51"/><path d="M1980,60L1980,180L2100,60Z" fill="#9a75a3" stroke="#9a75a3" stroke-width="1.51"/><path d="M1980,60L2100,60L2100,-60Z" fill="#9c78a2" stroke="#9c78a2" stroke-width="1.51"/><path d="M1980,-60L1980,60L2100,-60Z" fill="#a37ca7" stroke="#a37ca7" stroke-width="1.51"/><path d="M1980,-60L2100,-60L2100,-180Z" fill="#a47ea6" stroke="#a47ea6" stroke-width="1.51"/><path d="M1980,-180L1980,-60L2100,-180Z" fill="#aa81aa" stroke="#aa81aa" stroke-width="1.51"/><path d="M1860,1260L1980,1260L1980,1140Z" fill="#6d0869" stroke="#6d0869" stroke-width="1.51"/><path d="M1860,1140L1860,1260L1980,1140Z" fill="#760a71" stroke="#760a71" stroke-width="1.51"/><path d="M1860,1140L1980,1140L1980,1020Z" fill="#7a1277" stroke="#7a1277" stroke-width="1.51"/><path d="M1860,1020L1860,1140L1980,1020Z" fill="#7f1a7e" stroke="#7f1a7e" stroke-width="1.51"/><path d="M1860,1020L1980,1020L1980,900Z" fill="#7d2481" stroke="#7d2481" stroke-width="1.51"/><path d="M1860,900L1860,1020L1980,900Z" fill="#812a88" stroke="#812a88" stroke-width="1.51"/><path d="M1860,900L1980,900L1980,780Z" fill="#7f3389" stroke="#7f3389" stroke-width="1.51"/><path d="M1860,780L1860,900L1980,780Z" fill="#84398e" stroke="#84398e" stroke-width="1.51"/><path d="M1860,780L1980,780L1980,660Z" fill="#81428f" stroke="#81428f" stroke-width="1.51"/><path d="M1860,660L1860,780L1980,660Z" fill="#854894" stroke="#854894" stroke-width="1.51"/><path d="M1860,660L1980,660L1980,540Z" fill="#835095" stroke="#835095" stroke-width="1.51"/><path d="M1860,540L1860,660L1980,540Z" fill="#88569b" stroke="#88569b" stroke-width="1.51"/><path d="M1860,540L1980,540L1980,420Z" fill="#865d9b" stroke="#865d9b" stroke-width="1.51"/><path d="M1860,420L1860,540L1980,420Z" fill="#8c62a1" stroke="#8c62a1" stroke-width="1.51"/><path d="M1860,420L1980,420L1980,300Z" fill="#8d69a1" stroke="#8d69a1" stroke-width="1.51"/><path d="M1860,300L1860,420L1980,300Z" fill="#936ea6" stroke="#936ea6" stroke-width="1.51"/><path d="M1860,300L1980,300L1980,180Z" fill="#9570a6" stroke="#9570a6" stroke-width="1.51"/><path d="M1860,180L1860,300L1980,180Z" fill="#9c74aa" stroke="#9c74aa" stroke-width="1.51"/><path d="M1860,180L1980,180L1980,60Z" fill="#9f77aa" stroke="#9f77aa" stroke-width="1.51"/><path d="M1860,60L1860,180L1980,60Z" fill="#a57bae" stroke="#a57bae" stroke-width="1.51"/><path d="M1860,60L1980,60L1980,-60Z" fill="#a87ead" stroke="#a87ead" stroke-width="1.51"/><path d="M1860,-60L1860,60L1980,-60Z" fill="#af82b2" stroke="#af82b2" stroke-width="1.51"/><path d="M1860,-60L1980,-60L1980,-180Z" fill="#b083b1" stroke="#b083b1" stroke-width="1.51"/><path d="M1860,-180L1860,-60L1980,-180Z" fill="#b687b5" stroke="#b687b5" stroke-width="1.51"/><path d="M1740,1260L1860,1260L1860,1140Z" fill="#741072" stroke="#741072" stroke-width="1.51"/><path d="M1740,1140L1740,1260L1860,1140Z" fill="#7a1679" stroke="#7a1679" stroke-width="1.51"/><path d="M1740,1140L1860,1140L1860,1020Z" fill="#821980" stroke="#821980" stroke-width="1.51"/><path d="M1740,1020L1740,1140L1860,1020Z" fill="#842386" stroke="#842386" stroke-width="1.51"/><path d="M1740,1020L1860,1020L1860,900Z" fill="#852a8a" stroke="#852a8a" stroke-width="1.51"/><path d="M1740,900L1740,1020L1860,900Z" fill="#863190" stroke="#863190" stroke-width="1.51"/><path d="M1740,900L1860,900L1860,780Z" fill="#873992" stroke="#873992" stroke-width="1.51"/><path d="M1740,780L1740,900L1860,780Z" fill="#884096" stroke="#884096" stroke-width="1.51"/><path d="M1740,780L1860,780L1860,660Z" fill="#894798" stroke="#894798" stroke-width="1.51"/><path d="M1740,660L1740,780L1860,660Z" fill="#894e9d" stroke="#894e9d" stroke-width="1.51"/><path d="M1740,660L1860,660L1860,540Z" fill="#8b569e" stroke="#8b569e" stroke-width="1.51"/><path d="M1740,540L1740,660L1860,540Z" fill="#8b5ca3" stroke="#8b5ca3" stroke-width="1.51"/><path d="M1740,540L1860,540L1860,420Z" fill="#8e63a4" stroke="#8e63a4" stroke-width="1.51"/><path d="M1740,420L1740,540L1860,420Z" fill="#9068a9" stroke="#9068a9" stroke-width="1.51"/><path d="M1740,420L1860,420L1860,300Z" fill="#946eaa" stroke="#946eaa" stroke-width="1.51"/><path d="M1740,300L1740,420L1860,300Z" fill="#9774af" stroke="#9774af" stroke-width="1.51"/><path d="M1740,300L1860,300L1860,180Z" fill="#9d76af" stroke="#9d76af" stroke-width="1.51"/><path d="M1740,180L1740,300L1860,180Z" fill="#a07bb3" stroke="#a07bb3" stroke-width="1.51"/><path d="M1740,180L1860,180L1860,60Z" fill="#a67cb3" stroke="#a67cb3" stroke-width="1.51"/><path d="M1740,60L1740,180L1860,60Z" fill="#a981b7" stroke="#a981b7" stroke-width="1.51"/><path d="M1740,60L1860,60L1860,-60Z" fill="#b084b7" stroke="#b084b7" stroke-width="1.51"/><path d="M1740,-60L1740,60L1860,-60Z" fill="#b388bb" stroke="#b388bb" stroke-width="1.51"/><path d="M1740,-60L1860,-60L1860,-180Z" fill="#b889ba" stroke="#b889ba" stroke-width="1.51"/><path d="M1740,-180L1740,-60L1860,-180Z" fill="#ba8dbe" stroke="#ba8dbe" stroke-width="1.51"/><path d="M1620,1260L1740,1260L1740,1140Z" fill="#761d78" stroke="#761d78" stroke-width="1.51"/><path d="M1620,1140L1620,1260L1740,1140Z" fill="#7c2280" stroke="#7c2280" stroke-width="1.51"/><path d="M1620,1140L1740,1140L1740,1020Z" fill="#842486" stroke="#842486" stroke-width="1.51"/><path d="M1620,1020L1620,1140L1740,1020Z" fill="#852c8c" stroke="#852c8c" stroke-width="1.51"/><path d="M1620,1020L1740,1020L1740,900Z" fill="#863390" stroke="#863390" stroke-width="1.51"/><path d="M1620,900L1620,1020L1740,900Z" fill="#873a96" stroke="#873a96" stroke-width="1.51"/><path d="M1620,900L1740,900L1740,780Z" fill="#884098" stroke="#884098" stroke-width="1.51"/><path d="M1620,780L1620,900L1740,780Z" fill="#89479d" stroke="#89479d" stroke-width="1.51"/><path d="M1620,780L1740,780L1740,660Z" fill="#8a4e9e" stroke="#8a4e9e" stroke-width="1.51"/><path d="M1620,660L1620,780L1740,660Z" fill="#8a55a3" stroke="#8a55a3" stroke-width="1.51"/><path d="M1620,660L1740,660L1740,540Z" fill="#8b5da5" stroke="#8b5da5" stroke-width="1.51"/><path d="M1620,540L1620,660L1740,540Z" fill="#8c63aa" stroke="#8c63aa" stroke-width="1.51"/><path d="M1620,540L1740,540L1740,420Z" fill="#8e69ab" stroke="#8e69ab" stroke-width="1.51"/><path d="M1620,420L1620,540L1740,420Z" fill="#916fb0" stroke="#916fb0" stroke-width="1.51"/><path d="M1620,420L1740,420L1740,300Z" fill="#9575b1" stroke="#9575b1" stroke-width="1.51"/><path d="M1620,300L1620,420L1740,300Z" fill="#977bb6" stroke="#977bb6" stroke-width="1.51"/><path d="M1620,300L1740,300L1740,180Z" fill="#9d7db6" stroke="#9d7db6" stroke-width="1.51"/><path d="M1620,180L1620,300L1740,180Z" fill="#a082ba" stroke="#a082ba" stroke-width="1.51"/><path d="M1620,180L1740,180L1740,60Z" fill="#a783b9" stroke="#a783b9" stroke-width="1.51"/><path d="M1620,60L1620,180L1740,60Z" fill="#aa88be" stroke="#aa88be" stroke-width="1.51"/><path d="M1620,60L1740,60L1740,-60Z" fill="#b08bbd" stroke="#b08bbd" stroke-width="1.51"/><path d="M1620,-60L1620,60L1740,-60Z" fill="#b48fc2" stroke="#b48fc2" stroke-width="1.51"/><path d="M1620,-60L1740,-60L1740,-180Z" fill="#b890c1" stroke="#b890c1" stroke-width="1.51"/><path d="M1620,-180L1620,-60L1740,-180Z" fill="#bb94c5" stroke="#bb94c5" stroke-width="1.51"/><path d="M1500,1260L1620,1260L1620,1140Z" fill="#78267f" stroke="#78267f" stroke-width="1.51"/><path d="M1500,1140L1500,1260L1620,1140Z" fill="#7d2b86" stroke="#7d2b86" stroke-width="1.51"/><path d="M1500,1140L1620,1140L1620,1020Z" fill="#852e8d" stroke="#852e8d" stroke-width="1.51"/><path d="M1500,1020L1500,1140L1620,1020Z" fill="#863592" stroke="#863592" stroke-width="1.51"/><path d="M1500,1020L1620,1020L1620,900Z" fill="#883b97" stroke="#883b97" stroke-width="1.51"/><path d="M1500,900L1500,1020L1620,900Z" fill="#88429c" stroke="#88429c" stroke-width="1.51"/><path d="M1500,900L1620,900L1620,780Z" fill="#89489f" stroke="#89489f" stroke-width="1.51"/><path d="M1500,780L1500,900L1620,780Z" fill="#8a4fa3" stroke="#8a4fa3" stroke-width="1.51"/><path d="M1500,780L1620,780L1620,660Z" fill="#8b55a5" stroke="#8b55a5" stroke-width="1.51"/><path d="M1500,660L1500,780L1620,660Z" fill="#8b5ca9" stroke="#8b5ca9" stroke-width="1.51"/><path d="M1500,660L1620,660L1620,540Z" fill="#8c63ac" stroke="#8c63ac" stroke-width="1.51"/><path d="M1500,540L1500,660L1620,540Z" fill="#8c6ab0" stroke="#8c6ab0" stroke-width="1.51"/><path d="M1500,540L1620,540L1620,420Z" fill="#8f70b2" stroke="#8f70b2" stroke-width="1.51"/><path d="M1500,420L1500,540L1620,420Z" fill="#9176b6" stroke="#9176b6" stroke-width="1.51"/><path d="M1500,420L1620,420L1620,300Z" fill="#957bb8" stroke="#957bb8" stroke-width="1.51"/><path d="M1500,300L1500,420L1620,300Z" fill="#9782bc" stroke="#9782bc" stroke-width="1.51"/><path d="M1500,300L1620,300L1620,180Z" fill="#9e83bd" stroke="#9e83bd" stroke-width="1.51"/><path d="M1500,180L1500,300L1620,180Z" fill="#a188c0" stroke="#a188c0" stroke-width="1.51"/><path d="M1500,180L1620,180L1620,60Z" fill="#a88ac1" stroke="#a88ac1" stroke-width="1.51"/><path d="M1500,60L1500,180L1620,60Z" fill="#aa8fc4" stroke="#aa8fc4" stroke-width="1.51"/><path d="M1500,60L1620,60L1620,-60Z" fill="#b191c5" stroke="#b191c5" stroke-width="1.51"/><path d="M1500,-60L1500,60L1620,-60Z" fill="#b496c8" stroke="#b496c8" stroke-width="1.51"/><path d="M1500,-60L1620,-60L1620,-180Z" fill="#b997c9" stroke="#b997c9" stroke-width="1.51"/><path d="M1500,-180L1500,-60L1620,-180Z" fill="#bb9bcb" stroke="#bb9bcb" stroke-width="1.51"/><path d="M1380,1260L1500,1260L1500,1140Z" fill="#793183" stroke="#793183" stroke-width="1.51"/><path d="M1380,1140L1380,1260L1500,1140Z" fill="#7f3589" stroke="#7f3589" stroke-width="1.51"/><path d="M1380,1140L1500,1140L1500,1020Z" fill="#873892" stroke="#873892" stroke-width="1.51"/><path d="M1380,1020L1380,1140L1500,1020Z" fill="#883f96" stroke="#883f96" stroke-width="1.51"/><path d="M1380,1020L1500,1020L1500,900Z" fill="#89449c" stroke="#89449c" stroke-width="1.51"/><path d="M1380,900L1380,1020L1500,900Z" fill="#894aa0" stroke="#894aa0" stroke-width="1.51"/><path d="M1380,900L1500,900L1500,780Z" fill="#8a51a4" stroke="#8a51a4" stroke-width="1.51"/><path d="M1380,780L1380,900L1500,780Z" fill="#8b57a7" stroke="#8b57a7" stroke-width="1.51"/><path d="M1380,780L1500,780L1500,660Z" fill="#8b5daa" stroke="#8b5daa" stroke-width="1.51"/><path d="M1380,660L1380,780L1500,660Z" fill="#8b64ad" stroke="#8b64ad" stroke-width="1.51"/><path d="M1380,660L1500,660L1500,540Z" fill="#8c6bb0" stroke="#8c6bb0" stroke-width="1.51"/><path d="M1380,540L1380,660L1500,540Z" fill="#8d72b4" stroke="#8d72b4" stroke-width="1.51"/><path d="M1380,540L1500,540L1500,420Z" fill="#8f78b7" stroke="#8f78b7" stroke-width="1.51"/><path d="M1380,420L1380,540L1500,420Z" fill="#917eba" stroke="#917eba" stroke-width="1.51"/><path d="M1380,420L1500,420L1500,300Z" fill="#9583bd" stroke="#9583bd" stroke-width="1.51"/><path d="M1380,300L1380,420L1500,300Z" fill="#9789c0" stroke="#9789c0" stroke-width="1.51"/><path d="M1380,300L1500,300L1500,180Z" fill="#9e8bc1" stroke="#9e8bc1" stroke-width="1.51"/><path d="M1380,180L1380,300L1500,180Z" fill="#a190c4" stroke="#a190c4" stroke-width="1.51"/><path d="M1380,180L1500,180L1500,60Z" fill="#a892c5" stroke="#a892c5" stroke-width="1.51"/><path d="M1380,60L1380,180L1500,60Z" fill="#aa96c8" stroke="#aa96c8" stroke-width="1.51"/><path d="M1380,60L1500,60L1500,-60Z" fill="#b199c9" stroke="#b199c9" stroke-width="1.51"/><path d="M1380,-60L1380,60L1500,-60Z" fill="#b49ecc" stroke="#b49ecc" stroke-width="1.51"/><path d="M1380,-60L1500,-60L1500,-180Z" fill="#ba9fcd" stroke="#ba9fcd" stroke-width="1.51"/><path d="M1380,-180L1380,-60L1500,-180Z" fill="#bca3cf" stroke="#bca3cf" stroke-width="1.51"/><path d="M1260,1260L1380,1260L1380,1140Z" fill="#7a3a87" stroke="#7a3a87" stroke-width="1.51"/><path d="M1260,1140L1260,1260L1380,1140Z" fill="#803f8d" stroke="#803f8d" stroke-width="1.51"/><path d="M1260,1140L1380,1140L1380,1020Z" fill="#884196" stroke="#884196" stroke-width="1.51"/><path d="M1260,1020L1260,1140L1380,1020Z" fill="#89489a" stroke="#89489a" stroke-width="1.51"/><path d="M1260,1020L1380,1020L1380,900Z" fill="#894da0" stroke="#894da0" stroke-width="1.51"/><path d="M1260,900L1260,1020L1380,900Z" fill="#8a53a4" stroke="#8a53a4" stroke-width="1.51"/><path d="M1260,900L1380,900L1380,780Z" fill="#8b59a8" stroke="#8b59a8" stroke-width="1.51"/><path d="M1260,780L1260,900L1380,780Z" fill="#8c60ab" stroke="#8c60ab" stroke-width="1.51"/><path d="M1260,780L1380,780L1380,660Z" fill="#8c65ae" stroke="#8c65ae" stroke-width="1.51"/><path d="M1260,660L1260,780L1380,660Z" fill="#8c6db1" stroke="#8c6db1" stroke-width="1.51"/><path d="M1260,660L1380,660L1380,540Z" fill="#8c73b4" stroke="#8c73b4" stroke-width="1.51"/><path d="M1260,540L1260,660L1380,540Z" fill="#8d7ab8" stroke="#8d7ab8" stroke-width="1.51"/><path d="M1260,540L1380,540L1380,420Z" fill="#8f7fbb" stroke="#8f7fbb" stroke-width="1.51"/><path d="M1260,420L1260,540L1380,420Z" fill="#9186be" stroke="#9186be" stroke-width="1.51"/><path d="M1260,420L1380,420L1380,300Z" fill="#958bc1" stroke="#958bc1" stroke-width="1.51"/><path d="M1260,300L1260,420L1380,300Z" fill="#9792c4" stroke="#9792c4" stroke-width="1.51"/><path d="M1260,300L1380,300L1380,180Z" fill="#9d93c5" stroke="#9d93c5" stroke-width="1.51"/><path d="M1260,180L1260,300L1380,180Z" fill="#a198c8" stroke="#a198c8" stroke-width="1.51"/><path d="M1260,180L1380,180L1380,60Z" fill="#a799c9" stroke="#a799c9" stroke-width="1.51"/><path d="M1260,60L1260,180L1380,60Z" fill="#ab9fcc" stroke="#ab9fcc" stroke-width="1.51"/><path d="M1260,60L1380,60L1380,-60Z" fill="#b1a1cd" stroke="#b1a1cd" stroke-width="1.51"/><path d="M1260,-60L1260,60L1380,-60Z" fill="#b5a6d0" stroke="#b5a6d0" stroke-width="1.51"/><path d="M1260,-60L1380,-60L1380,-180Z" fill="#b9a6d1" stroke="#b9a6d1" stroke-width="1.51"/><path d="M1260,-180L1260,-60L1380,-180Z" fill="#bcabd3" stroke="#bcabd3" stroke-width="1.51"/><path d="M1140,1260L1260,1260L1260,1140Z" fill="#7b438b" stroke="#7b438b" stroke-width="1.51"/><path d="M1140,1140L1140,1260L1260,1140Z" fill="#824892" stroke="#824892" stroke-width="1.51"/><path d="M1140,1140L1260,1140L1260,1020Z" fill="#894b9a" stroke="#894b9a" stroke-width="1.51"/><path d="M1140,1020L1140,1140L1260,1020Z" fill="#8a519f" stroke="#8a519f" stroke-width="1.51"/><path d="M1140,1020L1260,1020L1260,900Z" fill="#8b56a4" stroke="#8b56a4" stroke-width="1.51"/><path d="M1140,900L1140,1020L1260,900Z" fill="#8b5ca9" stroke="#8b5ca9" stroke-width="1.51"/><path d="M1140,900L1260,900L1260,780Z" fill="#8b61ac" stroke="#8b61ac" stroke-width="1.51"/><path d="M1140,780L1140,900L1260,780Z" fill="#8c68af" stroke="#8c68af" stroke-width="1.51"/><path d="M1140,780L1260,780L1260,660Z" fill="#8c6eb2" stroke="#8c6eb2" stroke-width="1.51"/><path d="M1140,660L1140,780L1260,660Z" fill="#8d75b6" stroke="#8d75b6" stroke-width="1.51"/><path d="M1140,660L1260,660L1260,540Z" fill="#8d7bb8" stroke="#8d7bb8" stroke-width="1.51"/><path d="M1140,540L1140,660L1260,540Z" fill="#8d82bc" stroke="#8d82bc" stroke-width="1.51"/><path d="M1140,540L1260,540L1260,420Z" fill="#8f88bf" stroke="#8f88bf" stroke-width="1.51"/><path d="M1140,420L1140,540L1260,420Z" fill="#918ec2" stroke="#918ec2" stroke-width="1.51"/><path d="M1140,420L1260,420L1260,300Z" fill="#9593c5" stroke="#9593c5" stroke-width="1.51"/><path d="M1140,300L1140,420L1260,300Z" fill="#979ac8" stroke="#979ac8" stroke-width="1.51"/><path d="M1140,300L1260,300L1260,180Z" fill="#9d9bc9" stroke="#9d9bc9" stroke-width="1.51"/><path d="M1140,180L1140,300L1260,180Z" fill="#a1a1cc" stroke="#a1a1cc" stroke-width="1.51"/><path d="M1140,180L1260,180L1260,60Z" fill="#a7a2cd" stroke="#a7a2cd" stroke-width="1.51"/><path d="M1140,60L1140,180L1260,60Z" fill="#aba7d0" stroke="#aba7d0" stroke-width="1.51"/><path d="M1140,60L1260,60L1260,-60Z" fill="#b1a9d1" stroke="#b1a9d1" stroke-width="1.51"/><path d="M1140,-60L1140,60L1260,-60Z" fill="#b5afd4" stroke="#b5afd4" stroke-width="1.51"/><path d="M1140,-60L1260,-60L1260,-180Z" fill="#b9afd5" stroke="#b9afd5" stroke-width="1.51"/><path d="M1140,-180L1140,-60L1260,-180Z" fill="#bcb4d7" stroke="#bcb4d7" stroke-width="1.51"/><path d="M1020,1260L1140,1260L1140,1140Z" fill="#7d4c8f" stroke="#7d4c8f" stroke-width="1.51"/><path d="M1020,1140L1020,1260L1140,1140Z" fill="#835296" stroke="#835296" stroke-width="1.51"/><path d="M1020,1140L1140,1140L1140,1020Z" fill="#8a549e" stroke="#8a549e" stroke-width="1.51"/><path d="M1020,1020L1020,1140L1140,1020Z" fill="#8b5ba3" stroke="#8b5ba3" stroke-width="1.51"/><path d="M1020,1020L1140,1020L1140,900Z" fill="#8c5fa8" stroke="#8c5fa8" stroke-width="1.51"/><path d="M1020,900L1020,1020L1140,900Z" fill="#8c65ad" stroke="#8c65ad" stroke-width="1.51"/><path d="M1020,900L1140,900L1140,780Z" fill="#8c6ab0" stroke="#8c6ab0" stroke-width="1.51"/><path d="M1020,780L1020,900L1140,780Z" fill="#8d71b3" stroke="#8d71b3" stroke-width="1.51"/><path d="M1020,780L1140,780L1140,660Z" fill="#8d76b6" stroke="#8d76b6" stroke-width="1.51"/><path d="M1020,660L1020,780L1140,660Z" fill="#8d7eba" stroke="#8d7eba" stroke-width="1.51"/><path d="M1020,660L1140,660L1140,540Z" fill="#8d84bd" stroke="#8d84bd" stroke-width="1.51"/><path d="M1020,540L1020,660L1140,540Z" fill="#8d8bc0" stroke="#8d8bc0" stroke-width="1.51"/><path d="M1020,540L1140,540L1140,420Z" fill="#8f90c3" stroke="#8f90c3" stroke-width="1.51"/><path d="M1020,420L1020,540L1140,420Z" fill="#9196c6" stroke="#9196c6" stroke-width="1.51"/><path d="M1020,420L1140,420L1140,300Z" fill="#959bc9" stroke="#959bc9" stroke-width="1.51"/><path d="M1020,300L1020,420L1140,300Z" fill="#96a2cc" stroke="#96a2cc" stroke-width="1.51"/><path d="M1020,300L1140,300L1140,180Z" fill="#9da4cd" stroke="#9da4cd" stroke-width="1.51"/><path d="M1020,180L1020,300L1140,180Z" fill="#a0a9d0" stroke="#a0a9d0" stroke-width="1.51"/><path d="M1020,180L1140,180L1140,60Z" fill="#a7aad1" stroke="#a7aad1" stroke-width="1.51"/><path d="M1020,60L1020,180L1140,60Z" fill="#aab0d4" stroke="#aab0d4" stroke-width="1.51"/><path d="M1020,60L1140,60L1140,-60Z" fill="#b1b2d5" stroke="#b1b2d5" stroke-width="1.51"/><path d="M1020,-60L1020,60L1140,-60Z" fill="#b5b7d8" stroke="#b5b7d8" stroke-width="1.51"/><path d="M1020,-60L1140,-60L1140,-180Z" fill="#bab8d9" stroke="#bab8d9" stroke-width="1.51"/><path d="M1020,-180L1020,-60L1140,-180Z" fill="#bcbddb" stroke="#bcbddb" stroke-width="1.51"/><path d="M900,1260L1020,1260L1020,1140Z" fill="#7e5593" stroke="#7e5593" stroke-width="1.51"/><path d="M900,1140L900,1260L1020,1140Z" fill="#845a99" stroke="#845a99" stroke-width="1.51"/><path d="M900,1140L1020,1140L1020,1020Z" fill="#8b5da2" stroke="#8b5da2" stroke-width="1.51"/><path d="M900,1020L900,1140L1020,1020Z" fill="#8d64a7" stroke="#8d64a7" stroke-width="1.51"/><path d="M900,1020L1020,1020L1020,900Z" fill="#8c67ac" stroke="#8c67ac" stroke-width="1.51"/><path d="M900,900L900,1020L1020,900Z" fill="#8d6eb1" stroke="#8d6eb1" stroke-width="1.51"/><path d="M900,900L1020,900L1020,780Z" fill="#8d73b4" stroke="#8d73b4" stroke-width="1.51"/><path d="M900,780L900,900L1020,780Z" fill="#8e7ab7" stroke="#8e7ab7" stroke-width="1.51"/><path d="M900,780L1020,780L1020,660Z" fill="#8d7fba" stroke="#8d7fba" stroke-width="1.51"/><path d="M900,660L900,780L1020,660Z" fill="#8d86be" stroke="#8d86be" stroke-width="1.51"/><path d="M900,660L1020,660L1020,540Z" fill="#8d8cc1" stroke="#8d8cc1" stroke-width="1.51"/><path d="M900,540L900,660L1020,540Z" fill="#8d93c5" stroke="#8d93c5" stroke-width="1.51"/><path d="M900,540L1020,540L1020,420Z" fill="#8e98c8" stroke="#8e98c8" stroke-width="1.51"/><path d="M900,420L900,540L1020,420Z" fill="#919fca" stroke="#919fca" stroke-width="1.51"/><path d="M900,420L1020,420L1020,300Z" fill="#94a4cd" stroke="#94a4cd" stroke-width="1.51"/><path d="M900,300L900,420L1020,300Z" fill="#96abd0" stroke="#96abd0" stroke-width="1.51"/><path d="M900,300L1020,300L1020,180Z" fill="#9cacd2" stroke="#9cacd2" stroke-width="1.51"/><path d="M900,180L900,300L1020,180Z" fill="#a0b2d4" stroke="#a0b2d4" stroke-width="1.51"/><path d="M900,180L1020,180L1020,60Z" fill="#a7b3d6" stroke="#a7b3d6" stroke-width="1.51"/><path d="M900,60L900,180L1020,60Z" fill="#aab8d8" stroke="#aab8d8" stroke-width="1.51"/><path d="M900,60L1020,60L1020,-60Z" fill="#b1bbda" stroke="#b1bbda" stroke-width="1.51"/><path d="M900,-60L900,60L1020,-60Z" fill="#b5c0dc" stroke="#b5c0dc" stroke-width="1.51"/><path d="M900,-60L1020,-60L1020,-180Z" fill="#b9c0de" stroke="#b9c0de" stroke-width="1.51"/><path d="M900,-180L900,-60L1020,-180Z" fill="#bcc5df" stroke="#bcc5df" stroke-width="1.51"/><path d="M780,1260L900,1260L900,1140Z" fill="#815d97" stroke="#815d97" stroke-width="1.51"/><path d="M780,1140L780,1260L900,1140Z" fill="#89629d" stroke="#89629d" stroke-width="1.51"/><path d="M780,1140L900,1140L900,1020Z" fill="#8f65a6" stroke="#8f65a6" stroke-width="1.51"/><path d="M780,1020L780,1140L900,1020Z" fill="#916bab" stroke="#916bab" stroke-width="1.51"/><path d="M780,1020L900,1020L900,900Z" fill="#9070b0" stroke="#9070b0" stroke-width="1.51"/><path d="M780,900L780,1020L900,900Z" fill="#9275b5" stroke="#9275b5" stroke-width="1.51"/><path d="M780,900L900,900L900,780Z" fill="#907bb8" stroke="#907bb8" stroke-width="1.51"/><path d="M780,780L780,900L900,780Z" fill="#9281bb" stroke="#9281bb" stroke-width="1.51"/><path d="M780,780L900,780L900,660Z" fill="#9087be" stroke="#9087be" stroke-width="1.51"/><path d="M780,660L780,780L900,660Z" fill="#918ec2" stroke="#918ec2" stroke-width="1.51"/><path d="M780,660L900,660L900,540Z" fill="#9094c5" stroke="#9094c5" stroke-width="1.51"/><path d="M780,540L780,660L900,540Z" fill="#919ac8" stroke="#919ac8" stroke-width="1.51"/><path d="M780,540L900,540L900,420Z" fill="#91a0cb" stroke="#91a0cb" stroke-width="1.51"/><path d="M780,420L780,540L900,420Z" fill="#95a6cf" stroke="#95a6cf" stroke-width="1.51"/><path d="M780,420L900,420L900,300Z" fill="#97acd1" stroke="#97acd1" stroke-width="1.51"/><path d="M780,300L780,420L900,300Z" fill="#9ab2d4" stroke="#9ab2d4" stroke-width="1.51"/><path d="M780,300L900,300L900,180Z" fill="#9fb4d6" stroke="#9fb4d6" stroke-width="1.51"/><path d="M780,180L780,300L900,180Z" fill="#a4b9d8" stroke="#a4b9d8" stroke-width="1.51"/><path d="M780,180L900,180L900,60Z" fill="#aabbda" stroke="#aabbda" stroke-width="1.51"/><path d="M780,60L780,180L900,60Z" fill="#aec0dc" stroke="#aec0dc" stroke-width="1.51"/><path d="M780,60L900,60L900,-60Z" fill="#b4c3de" stroke="#b4c3de" stroke-width="1.51"/><path d="M780,-60L780,60L900,-60Z" fill="#b9c8e0" stroke="#b9c8e0" stroke-width="1.51"/><path d="M780,-60L900,-60L900,-180Z" fill="#bcc9e2" stroke="#bcc9e2" stroke-width="1.51"/><path d="M780,-180L780,-60L900,-180Z" fill="#c0cde3" stroke="#c0cde3" stroke-width="1.51"/><path d="M660,1260L780,1260L780,1140Z" fill="#85649b" stroke="#85649b" stroke-width="1.51"/><path d="M660,1140L660,1260L780,1140Z" fill="#8d69a1" stroke="#8d69a1" stroke-width="1.51"/><path d="M660,1140L780,1140L780,1020Z" fill="#936daa" stroke="#936daa" stroke-width="1.51"/><path d="M660,1020L660,1140L780,1020Z" fill="#9572ae" stroke="#9572ae" stroke-width="1.51"/><path d="M660,1020L780,1020L780,900Z" fill="#9477b4" stroke="#9477b4" stroke-width="1.51"/><path d="M660,900L660,1020L780,900Z" fill="#967db9" stroke="#967db9" stroke-width="1.51"/><path d="M660,900L780,900L780,780Z" fill="#9482bc" stroke="#9482bc" stroke-width="1.51"/><path d="M660,780L660,900L780,780Z" fill="#9688bf" stroke="#9688bf" stroke-width="1.51"/><path d="M660,780L780,780L780,660Z" fill="#948ec2" stroke="#948ec2" stroke-width="1.51"/><path d="M660,660L660,780L780,660Z" fill="#9595c6" stroke="#9595c6" stroke-width="1.51"/><path d="M660,660L780,660L780,540Z" fill="#939bc9" stroke="#939bc9" stroke-width="1.51"/><path d="M660,540L660,660L780,540Z" fill="#95a2cc" stroke="#95a2cc" stroke-width="1.51"/><path d="M660,540L780,540L780,420Z" fill="#95a8cf" stroke="#95a8cf" stroke-width="1.51"/><path d="M660,420L660,540L780,420Z" fill="#98aed2" stroke="#98aed2" stroke-width="1.51"/><path d="M660,420L780,420L780,300Z" fill="#9ab3d6" stroke="#9ab3d6" stroke-width="1.51"/><path d="M660,300L660,420L780,300Z" fill="#9ebad8" stroke="#9ebad8" stroke-width="1.51"/><path d="M660,300L780,300L780,180Z" fill="#a3bcda" stroke="#a3bcda" stroke-width="1.51"/><path d="M660,180L660,300L780,180Z" fill="#a8c1dc" stroke="#a8c1dc" stroke-width="1.51"/><path d="M660,180L780,180L780,60Z" fill="#adc3de" stroke="#adc3de" stroke-width="1.51"/><path d="M660,60L660,180L780,60Z" fill="#b2c8e0" stroke="#b2c8e0" stroke-width="1.51"/><path d="M660,60L780,60L780,-60Z" fill="#b7cbe2" stroke="#b7cbe2" stroke-width="1.51"/><path d="M660,-60L660,60L780,-60Z" fill="#bcd0e4" stroke="#bcd0e4" stroke-width="1.51"/><path d="M660,-60L780,-60L780,-180Z" fill="#c0d1e6" stroke="#c0d1e6" stroke-width="1.51"/><path d="M660,-180L660,-60L780,-180Z" fill="#c4d5e7" stroke="#c4d5e7" stroke-width="1.51"/><path d="M540,1260L660,1260L660,1140Z" fill="#8a6a9e" stroke="#8a6a9e" stroke-width="1.51"/><path d="M540,1140L540,1260L660,1140Z" fill="#926ea4" stroke="#926ea4" stroke-width="1.51"/><path d="M540,1140L660,1140L660,1020Z" fill="#9873ad" stroke="#9873ad" stroke-width="1.51"/><path d="M540,1020L540,1140L660,1020Z" fill="#9b78b1" stroke="#9b78b1" stroke-width="1.51"/><path d="M540,1020L660,1020L660,900Z" fill="#997db8" stroke="#997db8" stroke-width="1.51"/><path d="M540,900L540,1020L660,900Z" fill="#9b82bc" stroke="#9b82bc" stroke-width="1.51"/><path d="M540,900L660,900L660,780Z" fill="#9989c0" stroke="#9989c0" stroke-width="1.51"/><path d="M540,780L540,900L660,780Z" fill="#9b8ec2" stroke="#9b8ec2" stroke-width="1.51"/><path d="M540,780L660,780L660,660Z" fill="#9894c6" stroke="#9894c6" stroke-width="1.51"/><path d="M540,660L540,780L660,660Z" fill="#9b9ac9" stroke="#9b9ac9" stroke-width="1.51"/><path d="M540,660L660,660L660,540Z" fill="#98a2cc" stroke="#98a2cc" stroke-width="1.51"/><path d="M540,540L540,660L660,540Z" fill="#9aa7cf" stroke="#9aa7cf" stroke-width="1.51"/><path d="M540,540L660,540L660,420Z" fill="#99aed3" stroke="#99aed3" stroke-width="1.51"/><path d="M540,420L540,540L660,420Z" fill="#9eb3d5" stroke="#9eb3d5" stroke-width="1.51"/><path d="M540,420L660,420L660,300Z" fill="#9fbad9" stroke="#9fbad9" stroke-width="1.51"/><path d="M540,300L540,420L660,300Z" fill="#a3bfdb" stroke="#a3bfdb" stroke-width="1.51"/><path d="M540,300L660,300L660,180Z" fill="#a7c2de" stroke="#a7c2de" stroke-width="1.51"/><path d="M540,180L540,300L660,180Z" fill="#adc6df" stroke="#adc6df" stroke-width="1.51"/><path d="M540,180L660,180L660,60Z" fill="#b2c9e2" stroke="#b2c9e2" stroke-width="1.51"/><path d="M540,60L540,180L660,60Z" fill="#b7cde3" stroke="#b7cde3" stroke-width="1.51"/><path d="M540,60L660,60L660,-60Z" fill="#bcd1e6" stroke="#bcd1e6" stroke-width="1.51"/><path d="M540,-60L540,60L660,-60Z" fill="#c2d5e8" stroke="#c2d5e8" stroke-width="1.51"/><path d="M540,-60L660,-60L660,-180Z" fill="#c4d7e9" stroke="#c4d7e9" stroke-width="1.51"/><path d="M540,-180L540,-60L660,-180Z" fill="#c9dbea" stroke="#c9dbea" stroke-width="1.51"/><path d="M420,1260L540,1260L540,1140Z" fill="#906ea0" stroke="#906ea0" stroke-width="1.51"/><path d="M420,1140L420,1260L540,1140Z" fill="#9872a7" stroke="#9872a7" stroke-width="1.51"/><path d="M420,1140L540,1140L540,1020Z" fill="#9e77af" stroke="#9e77af" stroke-width="1.51"/><path d="M420,1020L420,1140L540,1020Z" fill="#a17cb4" stroke="#a17cb4" stroke-width="1.51"/><path d="M420,1020L540,1020L540,900Z" fill="#9f81ba" stroke="#9f81ba" stroke-width="1.51"/><path d="M420,900L420,1020L540,900Z" fill="#a186be" stroke="#a186be" stroke-width="1.51"/><path d="M420,900L540,900L540,780Z" fill="#9f8dc2" stroke="#9f8dc2" stroke-width="1.51"/><path d="M420,780L420,900L540,780Z" fill="#a192c5" stroke="#a192c5" stroke-width="1.51"/><path d="M420,780L540,780L540,660Z" fill="#9f99c8" stroke="#9f99c8" stroke-width="1.51"/><path d="M420,660L420,780L540,660Z" fill="#a19ecb" stroke="#a19ecb" stroke-width="1.51"/><path d="M420,660L540,660L540,540Z" fill="#9fa6ce" stroke="#9fa6ce" stroke-width="1.51"/><path d="M420,540L420,660L540,540Z" fill="#a1acd2" stroke="#a1acd2" stroke-width="1.51"/><path d="M420,540L540,540L540,420Z" fill="#a0b3d5" stroke="#a0b3d5" stroke-width="1.51"/><path d="M420,420L420,540L540,420Z" fill="#a4b8d8" stroke="#a4b8d8" stroke-width="1.51"/><path d="M420,420L540,420L540,300Z" fill="#a6bedb" stroke="#a6bedb" stroke-width="1.51"/><path d="M420,300L420,420L540,300Z" fill="#aac4de" stroke="#aac4de" stroke-width="1.51"/><path d="M420,300L540,300L540,180Z" fill="#aec7e0" stroke="#aec7e0" stroke-width="1.51"/><path d="M420,180L420,300L540,180Z" fill="#b4cbe2" stroke="#b4cbe2" stroke-width="1.51"/><path d="M420,180L540,180L540,60Z" fill="#b9cee3" stroke="#b9cee3" stroke-width="1.51"/><path d="M420,60L420,180L540,60Z" fill="#bed2e6" stroke="#bed2e6" stroke-width="1.51"/><path d="M420,60L540,60L540,-60Z" fill="#c3d6e8" stroke="#c3d6e8" stroke-width="1.51"/><path d="M420,-60L420,60L540,-60Z" fill="#c8daea" stroke="#c8daea" stroke-width="1.51"/><path d="M420,-60L540,-60L540,-180Z" fill="#cbdceb" stroke="#cbdceb" stroke-width="1.51"/><path d="M420,-180L420,-60L540,-180Z" fill="#d0dfed" stroke="#d0dfed" stroke-width="1.51"/><path d="M300,1260L420,1260L420,1140Z" fill="#9672a3" stroke="#9672a3" stroke-width="1.51"/><path d="M300,1140L300,1260L420,1140Z" fill="#9e77a9" stroke="#9e77a9" stroke-width="1.51"/><path d="M300,1140L420,1140L420,1020Z" fill="#a47bb2" stroke="#a47bb2" stroke-width="1.51"/><path d="M300,1020L300,1140L420,1020Z" fill="#a780b6" stroke="#a780b6" stroke-width="1.51"/><path d="M300,1020L420,1020L420,900Z" fill="#a585bc" stroke="#a585bc" stroke-width="1.51"/><path d="M300,900L300,1020L420,900Z" fill="#a88bc1" stroke="#a88bc1" stroke-width="1.51"/><path d="M300,900L420,900L420,780Z" fill="#a691c4" stroke="#a691c4" stroke-width="1.51"/><path d="M300,780L300,900L420,780Z" fill="#a897c7" stroke="#a897c7" stroke-width="1.51"/><path d="M300,780L420,780L420,660Z" fill="#a69dca" stroke="#a69dca" stroke-width="1.51"/><path d="M300,660L300,780L420,660Z" fill="#a7a3ce" stroke="#a7a3ce" stroke-width="1.51"/><path d="M300,660L420,660L420,540Z" fill="#a5aad1" stroke="#a5aad1" stroke-width="1.51"/><path d="M300,540L300,660L420,540Z" fill="#a7b0d4" stroke="#a7b0d4" stroke-width="1.51"/><path d="M300,540L420,540L420,420Z" fill="#a7b7d7" stroke="#a7b7d7" stroke-width="1.51"/><path d="M300,420L300,540L420,420Z" fill="#abbddb" stroke="#abbddb" stroke-width="1.51"/><path d="M300,420L420,420L420,300Z" fill="#acc3de" stroke="#acc3de" stroke-width="1.51"/><path d="M300,300L300,420L420,300Z" fill="#b0c9e1" stroke="#b0c9e1" stroke-width="1.51"/><path d="M300,300L420,300L420,180Z" fill="#b5cbe2" stroke="#b5cbe2" stroke-width="1.51"/><path d="M300,180L300,300L420,180Z" fill="#bad0e5" stroke="#bad0e5" stroke-width="1.51"/><path d="M300,180L420,180L420,60Z" fill="#bfd2e6" stroke="#bfd2e6" stroke-width="1.51"/><path d="M300,60L300,180L420,60Z" fill="#c4d7e8" stroke="#c4d7e8" stroke-width="1.51"/><path d="M300,60L420,60L420,-60Z" fill="#c9daea" stroke="#c9daea" stroke-width="1.51"/><path d="M300,-60L300,60L420,-60Z" fill="#cfdfec" stroke="#cfdfec" stroke-width="1.51"/><path d="M300,-60L420,-60L420,-180Z" fill="#d2e0ee" stroke="#d2e0ee" stroke-width="1.51"/><path d="M300,-180L300,-60L420,-180Z" fill="#d6e4ef" stroke="#d6e4ef" stroke-width="1.51"/><path d="M180,1260L300,1260L300,1140Z" fill="#9c77a5" stroke="#9c77a5" stroke-width="1.51"/><path d="M180,1140L180,1260L300,1140Z" fill="#a47bac" stroke="#a47bac" stroke-width="1.51"/><path d="M180,1140L300,1140L300,1020Z" fill="#ab80b5" stroke="#ab80b5" stroke-width="1.51"/><path d="M180,1020L180,1140L300,1020Z" fill="#ad85b9" stroke="#ad85b9" stroke-width="1.51"/><path d="M180,1020L300,1020L300,900Z" fill="#ac8abf" stroke="#ac8abf" stroke-width="1.51"/><path d="M180,900L180,1020L300,900Z" fill="#ae8fc4" stroke="#ae8fc4" stroke-width="1.51"/><path d="M180,900L300,900L300,780Z" fill="#ac95c7" stroke="#ac95c7" stroke-width="1.51"/><path d="M180,780L180,900L300,780Z" fill="#ae9bca" stroke="#ae9bca" stroke-width="1.51"/><path d="M180,780L300,780L300,660Z" fill="#aca2cd" stroke="#aca2cd" stroke-width="1.51"/><path d="M180,660L180,780L300,660Z" fill="#aea8d1" stroke="#aea8d1" stroke-width="1.51"/><path d="M180,660L300,660L300,540Z" fill="#acafd4" stroke="#acafd4" stroke-width="1.51"/><path d="M180,540L180,660L300,540Z" fill="#aeb5d7" stroke="#aeb5d7" stroke-width="1.51"/><path d="M180,540L300,540L300,420Z" fill="#adbcda" stroke="#adbcda" stroke-width="1.51"/><path d="M180,420L180,540L300,420Z" fill="#b1c2dd" stroke="#b1c2dd" stroke-width="1.51"/><path d="M180,420L300,420L300,300Z" fill="#b3c8e0" stroke="#b3c8e0" stroke-width="1.51"/><path d="M180,300L180,420L300,300Z" fill="#b7cee3" stroke="#b7cee3" stroke-width="1.51"/><path d="M180,300L300,300L300,180Z" fill="#bbd0e5" stroke="#bbd0e5" stroke-width="1.51"/><path d="M180,180L180,300L300,180Z" fill="#c1d5e7" stroke="#c1d5e7" stroke-width="1.51"/><path d="M180,180L300,180L300,60Z" fill="#c6d7e9" stroke="#c6d7e9" stroke-width="1.51"/><path d="M180,60L180,180L300,60Z" fill="#cbdcec" stroke="#cbdcec" stroke-width="1.51"/><path d="M180,60L300,60L300,-60Z" fill="#d0dfed" stroke="#d0dfed" stroke-width="1.51"/><path d="M180,-60L180,60L300,-60Z" fill="#d5e4f0" stroke="#d5e4f0" stroke-width="1.51"/><path d="M180,-60L300,-60L300,-180Z" fill="#d8e5f1" stroke="#d8e5f1" stroke-width="1.51"/><path d="M180,-180L180,-60L300,-180Z" fill="#dde9f3" stroke="#dde9f3" stroke-width="1.51"/><path d="M60,1260L180,1260L180,1140Z" fill="#a27ba8" stroke="#a27ba8" stroke-width="1.51"/><path d="M60,1140L60,1260L180,1140Z" fill="#ab80ae" stroke="#ab80ae" stroke-width="1.51"/><path d="M60,1140L180,1140L180,1020Z" fill="#b184b7" stroke="#b184b7" stroke-width="1.51"/><path d="M60,1020L60,1140L180,1020Z" fill="#b489bc" stroke="#b489bc" stroke-width="1.51"/><path d="M60,1020L180,1020L180,900Z" fill="#b28fc2" stroke="#b28fc2" stroke-width="1.51"/><path d="M60,900L60,1020L180,900Z" fill="#b494c6" stroke="#b494c6" stroke-width="1.51"/><path d="M60,900L180,900L180,780Z" fill="#b29aca" stroke="#b29aca" stroke-width="1.51"/><path d="M60,780L60,900L180,780Z" fill="#b5a0cd" stroke="#b5a0cd" stroke-width="1.51"/><path d="M60,780L180,780L180,660Z" fill="#b2a6d0" stroke="#b2a6d0" stroke-width="1.51"/><path d="M60,660L60,780L180,660Z" fill="#b4add3" stroke="#b4add3" stroke-width="1.51"/><path d="M60,660L180,660L180,540Z" fill="#b2b4d6" stroke="#b2b4d6" stroke-width="1.51"/><path d="M60,540L60,660L180,540Z" fill="#b5bada" stroke="#b5bada" stroke-width="1.51"/><path d="M60,540L180,540L180,420Z" fill="#b4c1dd" stroke="#b4c1dd" stroke-width="1.51"/><path d="M60,420L60,540L180,420Z" fill="#b8c6e0" stroke="#b8c6e0" stroke-width="1.51"/><path d="M60,420L180,420L180,300Z" fill="#b9cde3" stroke="#b9cde3" stroke-width="1.51"/><path d="M60,300L60,420L180,300Z" fill="#bed3e6" stroke="#bed3e6" stroke-width="1.51"/><path d="M60,300L180,300L180,180Z" fill="#c2d5e7" stroke="#c2d5e7" stroke-width="1.51"/><path d="M60,180L60,300L180,180Z" fill="#c8daea" stroke="#c8daea" stroke-width="1.51"/><path d="M60,180L180,180L180,60Z" fill="#ccdcec" stroke="#ccdcec" stroke-width="1.51"/><path d="M60,60L60,180L180,60Z" fill="#d2e1ee" stroke="#d2e1ee" stroke-width="1.51"/><path d="M60,60L180,60L180,-60Z" fill="#d6e4ef" stroke="#d6e4ef" stroke-width="1.51"/><path d="M60,-60L60,60L180,-60Z" fill="#dce9f2" stroke="#dce9f2" stroke-width="1.51"/><path d="M60,-60L180,-60L180,-180Z" fill="#deeaf3" stroke="#deeaf3" stroke-width="1.51"/><path d="M60,-180L60,-60L180,-180Z" fill="#e4eef5" stroke="#e4eef5" stroke-width="1.51"/><path d="M-60,1260L60,1260L60,1140Z" fill="#a87faa" stroke="#a87faa" stroke-width="1.51"/><path d="M-60,1140L-60,1260L60,1140Z" fill="#af83b0" stroke="#af83b0" stroke-width="1.51"/><path d="M-60,1140L60,1140L60,1020Z" fill="#b688b9" stroke="#b688b9" stroke-width="1.51"/><path d="M-60,1020L-60,1140L60,1020Z" fill="#b88cbe" stroke="#b88cbe" stroke-width="1.51"/><path d="M-60,1020L60,1020L60,900Z" fill="#b893c4" stroke="#b893c4" stroke-width="1.51"/><path d="M-60,900L-60,1020L60,900Z" fill="#b997c8" stroke="#b997c8" stroke-width="1.51"/><path d="M-60,900L60,900L60,780Z" fill="#b89ecc" stroke="#b89ecc" stroke-width="1.51"/><path d="M-60,780L-60,900L60,780Z" fill="#baa3cf" stroke="#baa3cf" stroke-width="1.51"/><path d="M-60,780L60,780L60,660Z" fill="#b8aad2" stroke="#b8aad2" stroke-width="1.51"/><path d="M-60,660L-60,780L60,660Z" fill="#b9b0d5" stroke="#b9b0d5" stroke-width="1.51"/><path d="M-60,660L60,660L60,540Z" fill="#b8b8d9" stroke="#b8b8d9" stroke-width="1.51"/><path d="M-60,540L-60,660L60,540Z" fill="#babddc" stroke="#babddc" stroke-width="1.51"/><path d="M-60,540L60,540L60,420Z" fill="#bac5df" stroke="#bac5df" stroke-width="1.51"/><path d="M-60,420L-60,540L60,420Z" fill="#bdcae2" stroke="#bdcae2" stroke-width="1.51"/><path d="M-60,420L60,420L60,300Z" fill="#bfd1e5" stroke="#bfd1e5" stroke-width="1.51"/><path d="M-60,300L-60,420L60,300Z" fill="#c3d6e8" stroke="#c3d6e8" stroke-width="1.51"/><path d="M-60,300L60,300L60,180Z" fill="#c8daea" stroke="#c8daea" stroke-width="1.51"/><path d="M-60,180L-60,300L60,180Z" fill="#cdddec" stroke="#cdddec" stroke-width="1.51"/><path d="M-60,180L60,180L60,60Z" fill="#d2e1ee" stroke="#d2e1ee" stroke-width="1.51"/><path d="M-60,60L-60,180L60,60Z" fill="#d7e4f0" stroke="#d7e4f0" stroke-width="1.51"/><path d="M-60,60L60,60L60,-60Z" fill="#dce9f2" stroke="#dce9f2" stroke-width="1.51"/><path d="M-60,-60L-60,60L60,-60Z" fill="#e1ecf4" stroke="#e1ecf4" stroke-width="1.51"/><path d="M-60,-60L60,-60L60,-180Z" fill="#e4eff6" stroke="#e4eff6" stroke-width="1.51"/><path d="M-60,-180L-60,-60L60,-180Z" fill="#e8f2f7" stroke="#e8f2f7" stroke-width="1.51"/><path d="M-180,1260L-60,1260L-60,1140Z" fill="#ac82ac" stroke="#ac82ac" stroke-width="1.51"/><path d="M-180,1140L-180,1260L-60,1140Z" fill="#b386b2" stroke="#b386b2" stroke-width="1.51"/><path d="M-180,1140L-60,1140L-60,1020Z" fill="#bb8bbb" stroke="#bb8bbb" stroke-width="1.51"/><path d="M-180,1020L-180,1140L-60,1020Z" fill="#bd90c0" stroke="#bd90c0" stroke-width="1.51"/><path d="M-180,1020L-60,1020L-60,900Z" fill="#bc96c6" stroke="#bc96c6" stroke-width="1.51"/><path d="M-180,900L-180,1020L-60,900Z" fill="#be9aca" stroke="#be9aca" stroke-width="1.51"/><path d="M-180,900L-60,900L-60,780Z" fill="#bca1ce" stroke="#bca1ce" stroke-width="1.51"/><path d="M-180,780L-180,900L-60,780Z" fill="#bea6d1" stroke="#bea6d1" stroke-width="1.51"/><path d="M-180,780L-60,780L-60,660Z" fill="#bcaed4" stroke="#bcaed4" stroke-width="1.51"/><path d="M-180,660L-180,780L-60,660Z" fill="#beb3d7" stroke="#beb3d7" stroke-width="1.51"/><path d="M-180,660L-60,660L-60,540Z" fill="#bcbcdb" stroke="#bcbcdb" stroke-width="1.51"/><path d="M-180,540L-180,660L-60,540Z" fill="#bec1de" stroke="#bec1de" stroke-width="1.51"/><path d="M-180,540L-60,540L-60,420Z" fill="#bec9e1" stroke="#bec9e1" stroke-width="1.51"/><path d="M-180,420L-180,540L-60,420Z" fill="#c2cde4" stroke="#c2cde4" stroke-width="1.51"/><path d="M-180,420L-60,420L-60,300Z" fill="#c4d5e7" stroke="#c4d5e7" stroke-width="1.51"/><path d="M-180,300L-180,420L-60,300Z" fill="#c7daea" stroke="#c7daea" stroke-width="1.51"/><path d="M-180,300L-60,300L-60,180Z" fill="#ccddec" stroke="#ccddec" stroke-width="1.51"/><path d="M-180,180L-180,300L-60,180Z" fill="#d1e1ee" stroke="#d1e1ee" stroke-width="1.51"/><path d="M-180,180L-60,180L-60,60Z" fill="#d7e4f0" stroke="#d7e4f0" stroke-width="1.51"/><path d="M-180,60L-180,180L-60,60Z" fill="#dbe8f2" stroke="#dbe8f2" stroke-width="1.51"/><path d="M-180,60L-60,60L-60,-60Z" fill="#e0ecf4" stroke="#e0ecf4" stroke-width="1.51"/><path d="M-180,-60L-180,60L-60,-60Z" fill="#e5f0f6" stroke="#e5f0f6" stroke-width="1.51"/><path d="M-180,-60L-60,-60L-60,-180Z" fill="#e9f2f8" stroke="#e9f2f8" stroke-width="1.51"/><path d="M-180,-180L-180,-60L-60,-180Z" fill="#edf5f9" stroke="#edf5f9" stroke-width="1.51"/></svg>