<svg xmlns="http://www.w3.org/2000/svg" width="1920" height="1080"><path d="M1957,1395L2242,1395L2242,1110Z" fill="#07675e" stroke="#07675e" stroke-width="1.51"/><path d="M1957,1110L1957,1395L2242,1110Z" fill="#1b7a72" stroke="#1b7a72" stroke-width="1.51"/><path d="M1957,1110L2242,1110L2242,825Z" fill="#398a81" stroke="#398a81" stroke-width="1.51"/><path d="M1957,825L1957,1110L2242,825Z" fill="#509e94" stroke="#509e94" stroke-width="1.51"/><path d="M1957,825L2242,825L2242,540Z" fill="#6ea39b" stroke="#6ea39b" stroke-width="1.51"/><path d="M1957,540L1957,825L2242,540Z" fill="#7fada7" stroke="#7fada7" stroke-width="1.51"/><path d="M1957,540L2242,540L2242,255Z" fill="#86a597" stroke="#86a597" stroke-width="1.51"/><path d="M1957,255L1957,540L2242,255Z" fill="#8daa94" stroke="#8daa94" stroke-width="1.51"/><path d="M1957,255L2242,255L2242,-30Z" fill="#81926d" stroke="#81926d" stroke-width="1.51"/><path d="M1957,-30L1957,255L2242,-30Z" fill="#838c64" stroke="#838c64" stroke-width="1.51"/><path d="M1957,-30L2242,-30L2242,-315Z" fill="#706a40" stroke="#706a40" stroke-width="1.51"/><path d="M1957,-315L1957,-30L2242,-315Z" fill="#6b6640" stroke="#6b6640" stroke-width="1.51"/><path d="M1672,1395L1957,1395L1957,1110Z" fill="#1f7f77" stroke="#1f7f77" stroke-width="1.51"/><path d="M1672,1110L1672,1395L1957,1110Z" fill="#35938a" stroke="#35938a" stroke-width="1.51"/><path d="M1672,1110L1957,1110L1957,825Z" fill="#4ba39a" stroke="#4ba39a" stroke-width="1.51"/><path d="M1672,825L1672,1110L1957,825Z" fill="#66b8ad" stroke="#66b8ad" stroke-width="1.51"/><path d="M1672,825L1957,825L1957,540Z" fill="#80bcb5" stroke="#80bcb5" stroke-width="1.51"/><path d="M1672,540L1672,825L1957,540Z" fill="#95c8c1" stroke="#95c8c1" stroke-width="1.51"/><path d="M1672,540L1957,540L1957,255Z" fill="#9abfb1" stroke="#9abfb1" stroke-width="1.51"/><path d="M1672,255L1672,540L1957,255Z" fill="#a4c5ae" stroke="#a4c5ae" stroke-width="1.51"/><path d="M1672,255L1957,255L1957,-30Z" fill="#95ab86" stroke="#95ab86" stroke-width="1.51"/><path d="M1672,-30L1672,255L1957,-30Z" fill="#9aa57c" stroke="#9aa57c" stroke-width="1.51"/><path d="M1672,-30L1957,-30L1957,-315Z" fill="#848257" stroke="#848257" stroke-width="1.51"/><path d="M1672,-315L1672,-30L1957,-315Z" fill="#827e56" stroke="#827e56" stroke-width="1.51"/><path d="M1387,1395L1672,1395L1672,1110Z" fill="#46988f" stroke="#46988f" stroke-width="1.51"/><path d="M1387,1110L1387,1395L1672,1110Z" fill="#5daba2" stroke="#5daba2" stroke-width="1.51"/><path d="M1387,1110L1672,1110L1672,825Z" fill="#6dbeb3" stroke="#6dbeb3" stroke-width="1.51"/><path d="M1387,825L1387,1110L1672,825Z" fill="#8ad1c5" stroke="#8ad1c5" stroke-width="1.51"/><path d="M1387,825L1672,825L1672,540Z" fill="#a0d8cf" stroke="#a0d8cf" stroke-width="1.51"/><path d="M1387,540L1387,825L1672,540Z" fill="#b7e1da" stroke="#b7e1da" stroke-width="1.51"/><path d="M1387,540L1672,540L1672,255Z" fill="#b8dacb" stroke="#b8dacb" stroke-width="1.51"/><path d="M1387,255L1387,540L1672,255Z" fill="#c5dec6" stroke="#c5dec6" stroke-width="1.51"/><path d="M1387,255L1672,255L1672,-30Z" fill="#b3c59f" stroke="#b3c59f" stroke-width="1.51"/><path d="M1387,-30L1387,255L1672,-30Z" fill="#babe93" stroke="#babe93" stroke-width="1.51"/><path d="M1387,-30L1672,-30L1672,-315Z" fill="#a19b6e" stroke="#a19b6e" stroke-width="1.51"/><path d="M1387,-315L1387,-30L1672,-315Z" fill="#a0956c" stroke="#a0956c" stroke-width="1.51"/><path d="M1102,1395L1387,1395L1387,1110Z" fill="#6da8a1" stroke="#6da8a1" stroke-width="1.51"/><path d="M1102,1110L1102,1395L1387,1110Z" fill="#80b8b1" stroke="#80b8b1" stroke-width="1.51"/><path d="M1102,1110L1387,1110L1387,825Z" fill="#92cec6" stroke="#92cec6" stroke-width="1.51"/><path d="M1102,825L1102,1110L1387,825Z" fill="#acded6" stroke="#acded6" stroke-width="1.51"/><path d="M1102,825L1387,825L1387,540Z" fill="#c3e8e2" stroke="#c3e8e2" stroke-width="1.51"/><path d="M1102,540L1102,825L1387,540Z" fill="#d7eeea" stroke="#d7eeea" stroke-width="1.51"/><path d="M1102,540L1387,540L1387,255Z" fill="#daeade" stroke="#daeade" stroke-width="1.51"/><path d="M1102,255L1102,540L1387,255Z" fill="#e4ebd7" stroke="#e4ebd7" stroke-width="1.51"/><path d="M1102,255L1387,255L1387,-30Z" fill="#d3d5b1" stroke="#d3d5b1" stroke-width="1.51"/><path d="M1102,-30L1102,255L1387,-30Z" fill="#d7caa3" stroke="#d7caa3" stroke-width="1.51"/><path d="M1102,-30L1387,-30L1387,-315Z" fill="#bfaa80" stroke="#bfaa80" stroke-width="1.51"/><path d="M1102,-315L1102,-30L1387,-315Z" fill="#bca17b" stroke="#bca17b" stroke-width="1.51"/><path d="M817,1395L1102,1395L1102,1110Z" fill="#87afaa" stroke="#87afaa" stroke-width="1.51"/><path d="M817,1110L817,1395L1102,1110Z" fill="#95bcb4" stroke="#95bcb4" stroke-width="1.51"/><path d="M817,1110L1102,1110L1102,825Z" fill="#acd6cf" stroke="#acd6cf" stroke-width="1.51"/><path d="M817,825L817,1110L1102,825Z" fill="#c1e2d8" stroke="#c1e2d8" stroke-width="1.51"/><path d="M817,825L1102,825L1102,540Z" fill="#dcefec" stroke="#dcefec" stroke-width="1.51"/><path d="M817,540L817,825L1102,540Z" fill="#ebf2ed" stroke="#ebf2ed" stroke-width="1.51"/><path d="M817,540L1102,540L1102,255Z" fill="#f2f1e7" stroke="#f2f1e7" stroke-width="1.51"/><path d="M817,255L817,540L1102,255Z" fill="#f6eed9" stroke="#f6eed9" stroke-width="1.51"/><path d="M817,255L1102,255L1102,-30Z" fill="#eadcbb" stroke="#eadcbb" stroke-width="1.51"/><path d="M817,-30L817,255L1102,-30Z" fill="#e8cda5" stroke="#e8cda5" stroke-width="1.51"/><path d="M817,-30L1102,-30L1102,-315Z" fill="#d5b088" stroke="#d5b088" stroke-width="1.51"/><path d="M817,-315L817,-30L1102,-315Z" fill="#cca47d" stroke="#cca47d" stroke-width="1.51"/><path d="M532,1395L817,1395L817,1110Z" fill="#8dab98" stroke="#8dab98" stroke-width="1.51"/><path d="M532,1110L532,1395L817,1110Z" fill="#96b39a" stroke="#96b39a" stroke-width="1.51"/><path d="M532,1110L817,1110L817,825Z" fill="#b2d1bc" stroke="#b2d1bc" stroke-width="1.51"/><path d="M532,825L532,1110L817,825Z" fill="#c1d9be" stroke="#c1d9be" stroke-width="1.51"/><path d="M532,825L817,825L817,540Z" fill="#e1ebd9" stroke="#e1ebd9" stroke-width="1.51"/><path d="M532,540L532,825L817,540Z" fill="#eae8d2" stroke="#eae8d2" stroke-width="1.51"/><path d="M532,540L817,540L817,255Z" fill="#f6ecd4" stroke="#f6ecd4" stroke-width="1.51"/><path d="M532,255L532,540L817,255Z" fill="#f4e5be" stroke="#f4e5be" stroke-width="1.51"/><path d="M532,255L817,255L817,-30Z" fill="#ecd8a7" stroke="#ecd8a7" stroke-width="1.51"/><path d="M532,-30L532,255L817,-30Z" fill="#e4c58b" stroke="#e4c58b" stroke-width="1.51"/><path d="M532,-30L817,-30L817,-315Z" fill="#d6ac76" stroke="#d6ac76" stroke-width="1.51"/><path d="M532,-315L532,-30L817,-315Z" fill="#c79b64" stroke="#c79b64" stroke-width="1.51"/><path d="M247,1395L532,1395L532,1110Z" fill="#889b78" stroke="#889b78" stroke-width="1.51"/><path d="M247,1110L247,1395L532,1110Z" fill="#8f9f78" stroke="#8f9f78" stroke-width="1.51"/><path d="M247,1110L532,1110L532,825Z" fill="#adc09c" stroke="#adc09c" stroke-width="1.51"/><path d="M247,825L247,1110L532,825Z" fill="#b9c49a" stroke="#b9c49a" stroke-width="1.51"/><path d="M247,825L532,825L532,540Z" fill="#dad9b7" stroke="#dad9b7" stroke-width="1.51"/><path d="M247,540L247,825L532,540Z" fill="#e0d3ae" stroke="#e0d3ae" stroke-width="1.51"/><path d="M247,540L532,540L532,255Z" fill="#eedbb2" stroke="#eedbb2" stroke-width="1.51"/><path d="M247,255L247,540L532,255Z" fill="#e9d09a" stroke="#e9d09a" stroke-width="1.51"/><path d="M247,255L532,255L532,-30Z" fill="#e2c786" stroke="#e2c786" stroke-width="1.51"/><path d="M247,-30L247,255L532,-30Z" fill="#d7b067" stroke="#d7b067" stroke-width="1.51"/><path d="M247,-30L532,-30L532,-315Z" fill="#ca9c55" stroke="#ca9c55" stroke-width="1.51"/><path d="M247,-315L247,-30L532,-315Z" fill="#b98741" stroke="#b98741" stroke-width="1.51"/><path d="M-38,1395L247,1395L247,1110Z" fill="#807f54" stroke="#807f54" stroke-width="1.51"/><path d="M-38,1110L-38,1395L247,1110Z" fill="#848156" stroke="#848156" stroke-width="1.51"/><path d="M-38,1110L247,1110L247,825Z" fill="#a4a376" stroke="#a4a376" stroke-width="1.51"/><path d="M-38,825L-38,1110L247,825Z" fill="#ada576" stroke="#ada576" stroke-width="1.51"/><path d="M-38,825L247,825L247,540Z" fill="#cfbb90" stroke="#cfbb90" stroke-width="1.51"/><path d="M-38,540L-38,825L247,540Z" fill="#d2b389" stroke="#d2b389" stroke-width="1.51"/><path d="M-38,540L247,540L247,255Z" fill="#e2bc8b" stroke="#e2bc8b" stroke-width="1.51"/><path d="M-38,255L-38,540L247,255Z" fill="#d9b076" stroke="#d9b076" stroke-width="1.51"/><path d="M-38,255L247,255L247,-30Z" fill="#d4a960" stroke="#d4a960" stroke-width="1.51"/><path d="M-38,-30L-38,255L247,-30Z" fill="#c59143" stroke="#c59143" stroke-width="1.51"/><path d="M-38,-30L247,-30L247,-315Z" fill="#ba7e2f" stroke="#ba7e2f" stroke-width="1.51"/><path d="M-38,-315L-38,-30L247,-315Z" fill="#a6691c" stroke="#a6691c" stroke-width="1.51"/><path d="M-323,1395L-38,1395L-38,1110Z" fill="#6b6640" stroke="#6b6640" stroke-width="1.51"/><path d="M-323,1110L-323,1395L-38,1110Z" fill="#6c6a47" stroke="#6c6a47" stroke-width="1.51"/><path d="M-323,1110L-38,1110L-38,825Z" fill="#8e8960" stroke="#8e8960" stroke-width="1.51"/><path d="M-323,825L-323,1110L-38,825Z" fill="#948c66" stroke="#948c66" stroke-width="1.51"/><path d="M-323,825L-38,825L-38,540Z" fill="#b8a07a" stroke="#b8a07a" stroke-width="1.51"/><path d="M-323,540L-323,825L-38,540Z" fill="#b89a79" stroke="#b89a79" stroke-width="1.51"/><path d="M-323,540L-38,540L-38,255Z" fill="#caa175" stroke="#caa175" stroke-width="1.51"/><path d="M-323,255L-323,540L-38,255Z" fill="#bf9766" stroke="#bf9766" stroke-width="1.51"/><path d="M-323,255L-38,255L-38,-30Z" fill="#bc8e4b" stroke="#bc8e4b" stroke-width="1.51"/><path d="M-323,-30L-323,255L-38,-30Z" fill="#ab7935" stroke="#ab7935" stroke-width="1.51"/><path d="M-323,-30L-38,-30L-38,-315Z" fill="#a16519" stroke="#a16519" stroke-width="1.51"/><path d="M-323,-315L-323,-30L-38,-315Z" fill="#8c520d" stroke="#8c520d" stroke-width="1.51"/></svg>