<svg xmlns="http://www.w3.org/2000/svg" width="1920" height="1080"><path d="M1980,1260L2100,1260L2100,1140Z" fill="#3e57a6" stroke="#3e57a6" stroke-width="1.51"/><path d="M1980,1140L1980,1260L2100,1140Z" fill="#4264ac" stroke="#4264ac" stroke-width="1.51"/><path d="M1980,1140L2100,1140L2100,1020Z" fill="#4b6db1" stroke="#4b6db1" stroke-width="1.51"/><path d="M1980,1020L1980,1140L2100,1020Z" fill="#537ab7" stroke="#537ab7" stroke-width="1.51"/><path d="M1980,1020L2100,1020L2100,900Z" fill="#5f81bc" stroke="#5f81bc" stroke-width="1.51"/><path d="M1980,900L1980,1020L2100,900Z" fill="#698cc1" stroke="#698cc1" stroke-width="1.51"/><path d="M1980,900L2100,900L2100,780Z" fill="#7591c5" stroke="#7591c5" stroke-width="1.51"/><path d="M1980,780L1980,900L2100,780Z" fill="#7e9aca" stroke="#7e9aca" stroke-width="1.51"/><path d="M1980,780L2100,780L2100,660Z" fill="#8a9acb" stroke="#8a9acb" stroke-width="1.51"/><path d="M1980,660L1980,780L2100,660Z" fill="#93a3d0" stroke="#93a3d0" stroke-width="1.51"/><path d="M1980,660L2100,660L2100,540Z" fill="#9da0c1" stroke="#9da0c1" stroke-width="1.51"/><path d="M1980,540L1980,660L2100,540Z" fill="#a3a7bc" stroke="#a3a7bc" stroke-width="1.51"/><path d="M1980,540L2100,540L2100,420Z" fill="#a79fae" stroke="#a79fae" stroke-width="1.51"/><path d="M1980,420L1980,540L2100,420Z" fill="#a9a1aa" stroke="#a9a1aa" stroke-width="1.51"/><path d="M1980,420L2100,420L2100,300Z" fill="#a9939d" stroke="#a9939d" stroke-width="1.51"/><path d="M1980,300L1980,420L2100,300Z" fill="#ac9399" stroke="#ac9399" stroke-width="1.51"/><path d="M1980,300L2100,300L2100,180Z" fill="#ab818b" stroke="#ab818b" stroke-width="1.51"/><path d="M1980,180L1980,300L2100,180Z" fill="#ae8187" stroke="#ae8187" stroke-width="1.51"/><path d="M1980,180L2100,180L2100,60Z" fill="#ab6b7d" stroke="#ab6b7d" stroke-width="1.51"/><path d="M1980,60L1980,180L2100,60Z" fill="#ad6a7b" stroke="#ad6a7b" stroke-width="1.51"/><path d="M1980,60L2100,60L2100,-60Z" fill="#a75670" stroke="#a75670" stroke-width="1.51"/><path d="M1980,-60L1980,60L2100,-60Z" fill="#a6566e" stroke="#a6566e" stroke-width="1.51"/><path d="M1980,-60L2100,-60L2100,-180Z" fill="#9d4465" stroke="#9d4465" stroke-width="1.51"/><path d="M1980,-180L1980,-60L2100,-180Z" fill="#994767" stroke="#994767" stroke-width="1.51"/><path d="M1860,1260L1980,1260L1980,1140Z" fill="#4267ad" stroke="#4267ad" stroke-width="1.51"/><path d="M1860,1140L1860,1260L1980,1140Z" fill="#4774b4" stroke="#4774b4" stroke-width="1.51"/><path d="M1860,1140L1980,1140L1980,1020Z" fill="#4f7db8" stroke="#4f7db8" stroke-width="1.51"/><path d="M1860,1020L1860,1140L1980,1020Z" fill="#578abf" stroke="#578abf" stroke-width="1.51"/><path d="M1860,1020L1980,1020L1980,900Z" fill="#6292c3" stroke="#6292c3" stroke-width="1.51"/><path d="M1860,900L1860,1020L1980,900Z" fill="#6d9cc9" stroke="#6d9cc9" stroke-width="1.51"/><path d="M1860,900L1980,900L1980,780Z" fill="#79a2cd" stroke="#79a2cd" stroke-width="1.51"/><path d="M1860,780L1860,900L1980,780Z" fill="#82aad1" stroke="#82aad1" stroke-width="1.51"/><path d="M1860,780L1980,780L1980,660Z" fill="#8eacd3" stroke="#8eacd3" stroke-width="1.51"/><path d="M1860,660L1860,780L1980,660Z" fill="#98b4d7" stroke="#98b4d7" stroke-width="1.51"/><path d="M1860,660L1980,660L1980,540Z" fill="#a1b2c8" stroke="#a1b2c8" stroke-width="1.51"/><path d="M1860,540L1860,660L1980,540Z" fill="#a8b8c3" stroke="#a8b8c3" stroke-width="1.51"/><path d="M1860,540L1980,540L1980,420Z" fill="#abb0b4" stroke="#abb0b4" stroke-width="1.51"/><path d="M1860,420L1860,540L1980,420Z" fill="#aeb2b1" stroke="#aeb2b1" stroke-width="1.51"/><path d="M1860,420L1980,420L1980,300Z" fill="#aea5a3" stroke="#aea5a3" stroke-width="1.51"/><path d="M1860,300L1860,420L1980,300Z" fill="#b2a4a0" stroke="#b2a4a0" stroke-width="1.51"/><path d="M1860,300L1980,300L1980,180Z" fill="#b19292" stroke="#b19292" stroke-width="1.51"/><path d="M1860,180L1860,300L1980,180Z" fill="#b4928e" stroke="#b4928e" stroke-width="1.51"/><path d="M1860,180L1980,180L1980,60Z" fill="#b27d83" stroke="#b27d83" stroke-width="1.51"/><path d="M1860,60L1860,180L1980,60Z" fill="#b47b81" stroke="#b47b81" stroke-width="1.51"/><path d="M1860,60L1980,60L1980,-60Z" fill="#ae6976" stroke="#ae6976" stroke-width="1.51"/><path d="M1860,-60L1860,60L1980,-60Z" fill="#ae6875" stroke="#ae6875" stroke-width="1.51"/><path d="M1860,-60L1980,-60L1980,-180Z" fill="#a4576c" stroke="#a4576c" stroke-width="1.51"/><path d="M1860,-180L1860,-60L1980,-180Z" fill="#a0596d" stroke="#a0596d" stroke-width="1.51"/><path d="M1740,1260L1860,1260L1860,1140Z" fill="#4e75b5" stroke="#4e75b5" stroke-width="1.51"/><path d="M1740,1140L1740,1260L1860,1140Z" fill="#5381bb" stroke="#5381bb" stroke-width="1.51"/><path d="M1740,1140L1860,1140L1860,1020Z" fill="#5a8bc0" stroke="#5a8bc0" stroke-width="1.51"/><path d="M1740,1020L1740,1140L1860,1020Z" fill="#6397c6" stroke="#6397c6" stroke-width="1.51"/><path d="M1740,1020L1860,1020L1860,900Z" fill="#6ca0cb" stroke="#6ca0cb" stroke-width="1.51"/><path d="M1740,900L1740,1020L1860,900Z" fill="#78aad0" stroke="#78aad0" stroke-width="1.51"/><path d="M1740,900L1860,900L1860,780Z" fill="#82b1d4" stroke="#82b1d4" stroke-width="1.51"/><path d="M1740,780L1740,900L1860,780Z" fill="#8db9d9" stroke="#8db9d9" stroke-width="1.51"/><path d="M1740,780L1860,780L1860,660Z" fill="#98bbda" stroke="#98bbda" stroke-width="1.51"/><path d="M1740,660L1740,780L1860,660Z" fill="#a2c2df" stroke="#a2c2df" stroke-width="1.51"/><path d="M1740,660L1860,660L1860,540Z" fill="#aac1cf" stroke="#aac1cf" stroke-width="1.51"/><path d="M1740,540L1740,660L1860,540Z" fill="#b2c7cb" stroke="#b2c7cb" stroke-width="1.51"/><path d="M1740,540L1860,540L1860,420Z" fill="#b5c0bb" stroke="#b5c0bb" stroke-width="1.51"/><path d="M1740,420L1740,540L1860,420Z" fill="#b9c1b8" stroke="#b9c1b8" stroke-width="1.51"/><path d="M1740,420L1860,420L1860,300Z" fill="#b7b4aa" stroke="#b7b4aa" stroke-width="1.51"/><path d="M1740,300L1740,420L1860,300Z" fill="#bcb3a6" stroke="#bcb3a6" stroke-width="1.51"/><path d="M1740,300L1860,300L1860,180Z" fill="#bba198" stroke="#bba198" stroke-width="1.51"/><path d="M1740,180L1740,300L1860,180Z" fill="#bfa094" stroke="#bfa094" stroke-width="1.51"/><path d="M1740,180L1860,180L1860,60Z" fill="#bc8c8a" stroke="#bc8c8a" stroke-width="1.51"/><path d="M1740,60L1740,180L1860,60Z" fill="#bf8a88" stroke="#bf8a88" stroke-width="1.51"/><path d="M1740,60L1860,60L1860,-60Z" fill="#b8787d" stroke="#b8787d" stroke-width="1.51"/><path d="M1740,-60L1740,60L1860,-60Z" fill="#b9767b" stroke="#b9767b" stroke-width="1.51"/><path d="M1740,-60L1860,-60L1860,-180Z" fill="#af6672" stroke="#af6672" stroke-width="1.51"/><path d="M1740,-180L1740,-60L1860,-180Z" fill="#ab6773" stroke="#ab6773" stroke-width="1.51"/><path d="M1620,1260L1740,1260L1740,1140Z" fill="#5a82bc" stroke="#5a82bc" stroke-width="1.51"/><path d="M1620,1140L1620,1260L1740,1140Z" fill="#608fc2" stroke="#608fc2" stroke-width="1.51"/><path d="M1620,1140L1740,1140L1740,1020Z" fill="#6599c8" stroke="#6599c8" stroke-width="1.51"/><path d="M1620,1020L1620,1140L1740,1020Z" fill="#6fa5cd" stroke="#6fa5cd" stroke-width="1.51"/><path d="M1620,1020L1740,1020L1740,900Z" fill="#77aed2" stroke="#77aed2" stroke-width="1.51"/><path d="M1620,900L1620,1020L1740,900Z" fill="#83b8d7" stroke="#83b8d7" stroke-width="1.51"/><path d="M1620,900L1740,900L1740,780Z" fill="#8dbfdc" stroke="#8dbfdc" stroke-width="1.51"/><path d="M1620,780L1620,900L1740,780Z" fill="#98c7df" stroke="#98c7df" stroke-width="1.51"/><path d="M1620,780L1740,780L1740,660Z" fill="#a2c9e2" stroke="#a2c9e2" stroke-width="1.51"/><path d="M1620,660L1620,780L1740,660Z" fill="#add1e5" stroke="#add1e5" stroke-width="1.51"/><path d="M1620,660L1740,660L1740,540Z" fill="#b4d0d7" stroke="#b4d0d7" stroke-width="1.51"/><path d="M1620,540L1620,660L1740,540Z" fill="#bdd6d1" stroke="#bdd6d1" stroke-width="1.51"/><path d="M1620,540L1740,540L1740,420Z" fill="#bfcec3" stroke="#bfcec3" stroke-width="1.51"/><path d="M1620,420L1620,540L1740,420Z" fill="#c3cfbe" stroke="#c3cfbe" stroke-width="1.51"/><path d="M1620,420L1740,420L1740,300Z" fill="#c1c3b1" stroke="#c1c3b1" stroke-width="1.51"/><path d="M1620,300L1620,420L1740,300Z" fill="#c7c1ad" stroke="#c7c1ad" stroke-width="1.51"/><path d="M1620,300L1740,300L1740,180Z" fill="#c5b09f" stroke="#c5b09f" stroke-width="1.51"/><path d="M1620,180L1620,300L1740,180Z" fill="#caae9b" stroke="#caae9b" stroke-width="1.51"/><path d="M1620,180L1740,180L1740,60Z" fill="#c69b90" stroke="#c69b90" stroke-width="1.51"/><path d="M1620,60L1620,180L1740,60Z" fill="#ca988e" stroke="#ca988e" stroke-width="1.51"/><path d="M1620,60L1740,60L1740,-60Z" fill="#c38683" stroke="#c38683" stroke-width="1.51"/><path d="M1620,-60L1620,60L1740,-60Z" fill="#c48581" stroke="#c48581" stroke-width="1.51"/><path d="M1620,-60L1740,-60L1740,-180Z" fill="#b97578" stroke="#b97578" stroke-width="1.51"/><path d="M1620,-180L1620,-60L1740,-180Z" fill="#b77579" stroke="#b77579" stroke-width="1.51"/><path d="M1500,1260L1620,1260L1620,1140Z" fill="#688dc2" stroke="#688dc2" stroke-width="1.51"/><path d="M1500,1140L1500,1260L1620,1140Z" fill="#6f99c8" stroke="#6f99c8" stroke-width="1.51"/><path d="M1500,1140L1620,1140L1620,1020Z" fill="#73a5ce" stroke="#73a5ce" stroke-width="1.51"/><path d="M1500,1020L1500,1140L1620,1020Z" fill="#7eb0d3" stroke="#7eb0d3" stroke-width="1.51"/><path d="M1500,1020L1620,1020L1620,900Z" fill="#85bad8" stroke="#85bad8" stroke-width="1.51"/><path d="M1500,900L1500,1020L1620,900Z" fill="#91c3dd" stroke="#91c3dd" stroke-width="1.51"/><path d="M1500,900L1620,900L1620,780Z" fill="#9acbe1" stroke="#9acbe1" stroke-width="1.51"/><path d="M1500,780L1500,900L1620,780Z" fill="#a6d2e5" stroke="#a6d2e5" stroke-width="1.51"/><path d="M1500,780L1620,780L1620,660Z" fill="#afd5e7" stroke="#afd5e7" stroke-width="1.51"/><path d="M1500,660L1500,780L1620,660Z" fill="#bbdceb" stroke="#bbdceb" stroke-width="1.51"/><path d="M1500,660L1620,660L1620,540Z" fill="#c1dcdc" stroke="#c1dcdc" stroke-width="1.51"/><path d="M1500,540L1500,660L1620,540Z" fill="#cae1d7" stroke="#cae1d7" stroke-width="1.51"/><path d="M1500,540L1620,540L1620,420Z" fill="#cadac8" stroke="#cadac8" stroke-width="1.51"/><path d="M1500,420L1500,540L1620,420Z" fill="#d0dac4" stroke="#d0dac4" stroke-width="1.51"/><path d="M1500,420L1620,420L1620,300Z" fill="#cdcfb6" stroke="#cdcfb6" stroke-width="1.51"/><path d="M1500,300L1500,420L1620,300Z" fill="#d3ccb2" stroke="#d3ccb2" stroke-width="1.51"/><path d="M1500,300L1620,300L1620,180Z" fill="#d1bca4" stroke="#d1bca4" stroke-width="1.51"/><path d="M1500,180L1500,300L1620,180Z" fill="#d6b9a0" stroke="#d6b9a0" stroke-width="1.51"/><path d="M1500,180L1620,180L1620,60Z" fill="#d2a796" stroke="#d2a796" stroke-width="1.51"/><path d="M1500,60L1500,180L1620,60Z" fill="#d6a293" stroke="#d6a293" stroke-width="1.51"/><path d="M1500,60L1620,60L1620,-60Z" fill="#cf9289" stroke="#cf9289" stroke-width="1.51"/><path d="M1500,-60L1500,60L1620,-60Z" fill="#d08f86" stroke="#d08f86" stroke-width="1.51"/><path d="M1500,-60L1620,-60L1620,-180Z" fill="#c5807d" stroke="#c5807d" stroke-width="1.51"/><path d="M1500,-180L1500,-60L1620,-180Z" fill="#c27f7e" stroke="#c27f7e" stroke-width="1.51"/><path d="M1380,1260L1500,1260L1500,1140Z" fill="#7697c8" stroke="#7697c8" stroke-width="1.51"/><path d="M1380,1140L1380,1260L1500,1140Z" fill="#7da3ce" stroke="#7da3ce" stroke-width="1.51"/><path d="M1380,1140L1500,1140L1500,1020Z" fill="#81afd4" stroke="#81afd4" stroke-width="1.51"/><path d="M1380,1020L1380,1140L1500,1020Z" fill="#8cbad9" stroke="#8cbad9" stroke-width="1.51"/><path d="M1380,1020L1500,1020L1500,900Z" fill="#93c5de" stroke="#93c5de" stroke-width="1.51"/><path d="M1380,900L1380,1020L1500,900Z" fill="#9fcde2" stroke="#9fcde2" stroke-width="1.51"/><path d="M1380,900L1500,900L1500,780Z" fill="#a8d6e7" stroke="#a8d6e7" stroke-width="1.51"/><path d="M1380,780L1380,900L1500,780Z" fill="#b3dceb" stroke="#b3dceb" stroke-width="1.51"/><path d="M1380,780L1500,780L1500,660Z" fill="#bce0ed" stroke="#bce0ed" stroke-width="1.51"/><path d="M1380,660L1380,780L1500,660Z" fill="#c8e6f1" stroke="#c8e6f1" stroke-width="1.51"/><path d="M1380,660L1500,660L1500,540Z" fill="#cee7e2" stroke="#cee7e2" stroke-width="1.51"/><path d="M1380,540L1380,660L1500,540Z" fill="#d6ebdc" stroke="#d6ebdc" stroke-width="1.51"/><path d="M1380,540L1500,540L1500,420Z" fill="#d7e6ce" stroke="#d7e6ce" stroke-width="1.51"/><path d="M1380,420L1380,540L1500,420Z" fill="#dce5c9" stroke="#dce5c9" stroke-width="1.51"/><path d="M1380,420L1500,420L1500,300Z" fill="#d9dabc" stroke="#d9dabc" stroke-width="1.51"/><path d="M1380,300L1380,420L1500,300Z" fill="#dfd6b7" stroke="#dfd6b7" stroke-width="1.51"/><path d="M1380,300L1500,300L1500,180Z" fill="#ddc7aa" stroke="#ddc7aa" stroke-width="1.51"/><path d="M1380,180L1380,300L1500,180Z" fill="#e2c3a5" stroke="#e2c3a5" stroke-width="1.51"/><path d="M1380,180L1500,180L1500,60Z" fill="#deb19b" stroke="#deb19b" stroke-width="1.51"/><path d="M1380,60L1380,180L1500,60Z" fill="#e2ad98" stroke="#e2ad98" stroke-width="1.51"/><path d="M1380,60L1500,60L1500,-60Z" fill="#db9c8e" stroke="#db9c8e" stroke-width="1.51"/><path d="M1380,-60L1380,60L1500,-60Z" fill="#dc998b" stroke="#dc998b" stroke-width="1.51"/><path d="M1380,-60L1500,-60L1500,-180Z" fill="#d18b83" stroke="#d18b83" stroke-width="1.51"/><path d="M1380,-180L1380,-60L1500,-180Z" fill="#ce8983" stroke="#ce8983" stroke-width="1.51"/><path d="M1260,1260L1380,1260L1380,1140Z" fill="#849ecc" stroke="#849ecc" stroke-width="1.51"/><path d="M1260,1140L1260,1260L1380,1140Z" fill="#8aa9d2" stroke="#8aa9d2" stroke-width="1.51"/><path d="M1260,1140L1380,1140L1380,1020Z" fill="#8fb6d8" stroke="#8fb6d8" stroke-width="1.51"/><path d="M1260,1020L1260,1140L1380,1020Z" fill="#99c0dc" stroke="#99c0dc" stroke-width="1.51"/><path d="M1260,1020L1380,1020L1380,900Z" fill="#a0cce2" stroke="#a0cce2" stroke-width="1.51"/><path d="M1260,900L1260,1020L1380,900Z" fill="#acd4e6" stroke="#acd4e6" stroke-width="1.51"/><path d="M1260,900L1380,900L1380,780Z" fill="#b5ddec" stroke="#b5ddec" stroke-width="1.51"/><path d="M1260,780L1260,900L1380,780Z" fill="#c0e3ef" stroke="#c0e3ef" stroke-width="1.51"/><path d="M1260,780L1380,780L1380,660Z" fill="#c9e8f1" stroke="#c9e8f1" stroke-width="1.51"/><path d="M1260,660L1260,780L1380,660Z" fill="#d5edf5" stroke="#d5edf5" stroke-width="1.51"/><path d="M1260,660L1380,660L1380,540Z" fill="#daeee6" stroke="#daeee6" stroke-width="1.51"/><path d="M1260,540L1260,660L1380,540Z" fill="#e2f2e0" stroke="#e2f2e0" stroke-width="1.51"/><path d="M1260,540L1380,540L1380,420Z" fill="#e3edd2" stroke="#e3edd2" stroke-width="1.51"/><path d="M1260,420L1260,540L1380,420Z" fill="#e8ebcd" stroke="#e8ebcd" stroke-width="1.51"/><path d="M1260,420L1380,420L1380,300Z" fill="#e5e1c0" stroke="#e5e1c0" stroke-width="1.51"/><path d="M1260,300L1260,420L1380,300Z" fill="#eaddbb" stroke="#eaddbb" stroke-width="1.51"/><path d="M1260,300L1380,300L1380,180Z" fill="#e8cead" stroke="#e8cead" stroke-width="1.51"/><path d="M1260,180L1260,300L1380,180Z" fill="#edcaa8" stroke="#edcaa8" stroke-width="1.51"/><path d="M1260,180L1380,180L1380,60Z" fill="#e9b99e" stroke="#e9b99e" stroke-width="1.51"/><path d="M1260,60L1260,180L1380,60Z" fill="#edb39b" stroke="#edb39b" stroke-width="1.51"/><path d="M1260,60L1380,60L1380,-60Z" fill="#e6a391" stroke="#e6a391" stroke-width="1.51"/><path d="M1260,-60L1260,60L1380,-60Z" fill="#e79f8e" stroke="#e79f8e" stroke-width="1.51"/><path d="M1260,-60L1380,-60L1380,-180Z" fill="#dc9186" stroke="#dc9186" stroke-width="1.51"/><path d="M1260,-180L1260,-60L1380,-180Z" fill="#d98f87" stroke="#d98f87" stroke-width="1.51"/><path d="M1140,1260L1260,1260L1260,1140Z" fill="#92a4d0" stroke="#92a4d0" stroke-width="1.51"/><path d="M1140,1140L1140,1260L1260,1140Z" fill="#98aed2" stroke="#98aed2" stroke-width="1.51"/><path d="M1140,1140L1260,1140L1260,1020Z" fill="#9dbddc" stroke="#9dbddc" stroke-width="1.51"/><path d="M1140,1020L1140,1140L1260,1020Z" fill="#a6c6dd" stroke="#a6c6dd" stroke-width="1.51"/><path d="M1140,1020L1260,1020L1260,900Z" fill="#aed3e6" stroke="#aed3e6" stroke-width="1.51"/><path d="M1140,900L1140,1020L1260,900Z" fill="#b9dae7" stroke="#b9dae7" stroke-width="1.51"/><path d="M1140,900L1260,900L1260,780Z" fill="#c2e4ef" stroke="#c2e4ef" stroke-width="1.51"/><path d="M1140,780L1140,900L1260,780Z" fill="#cde9f0" stroke="#cde9f0" stroke-width="1.51"/><path d="M1140,780L1260,780L1260,660Z" fill="#d7eef5" stroke="#d7eef5" stroke-width="1.51"/><path d="M1140,660L1140,780L1260,660Z" fill="#e1f3f6" stroke="#e1f3f6" stroke-width="1.51"/><path d="M1140,660L1260,660L1260,540Z" fill="#e7f5ea" stroke="#e7f5ea" stroke-width="1.51"/><path d="M1140,540L1140,660L1260,540Z" fill="#eef8e1" stroke="#eef8e1" stroke-width="1.51"/><path d="M1140,540L1260,540L1260,420Z" fill="#f0f4d5" stroke="#f0f4d5" stroke-width="1.51"/><path d="M1140,420L1140,540L1260,420Z" fill="#f3f1cd" stroke="#f3f1cd" stroke-width="1.51"/><path d="M1140,420L1260,420L1260,300Z" fill="#f1e8c3" stroke="#f1e8c3" stroke-width="1.51"/><path d="M1140,300L1140,420L1260,300Z" fill="#f5e3bb" stroke="#f5e3bb" stroke-width="1.51"/><path d="M1140,300L1260,300L1260,180Z" fill="#f4d4b1" stroke="#f4d4b1" stroke-width="1.51"/><path d="M1140,180L1140,300L1260,180Z" fill="#f7cfa9" stroke="#f7cfa9" stroke-width="1.51"/><path d="M1140,180L1260,180L1260,60Z" fill="#f5bfa2" stroke="#f5bfa2" stroke-width="1.51"/><path d="M1140,60L1140,180L1260,60Z" fill="#f7b89b" stroke="#f7b89b" stroke-width="1.51"/><path d="M1140,60L1260,60L1260,-60Z" fill="#f1a995" stroke="#f1a995" stroke-width="1.51"/><path d="M1140,-60L1140,60L1260,-60Z" fill="#f1a48f" stroke="#f1a48f" stroke-width="1.51"/><path d="M1140,-60L1260,-60L1260,-180Z" fill="#e7978a" stroke="#e7978a" stroke-width="1.51"/><path d="M1140,-180L1140,-60L1260,-180Z" fill="#e39487" stroke="#e39487" stroke-width="1.51"/><path d="M1020,1260L1140,1260L1140,1140Z" fill="#9da7c6" stroke="#9da7c6" stroke-width="1.51"/><path d="M1020,1140L1020,1260L1140,1140Z" fill="#a3b1c5" stroke="#a3b1c5" stroke-width="1.51"/><path d="M1020,1140L1140,1140L1140,1020Z" fill="#a8c0d1" stroke="#a8c0d1" stroke-width="1.51"/><path d="M1020,1020L1020,1140L1140,1020Z" fill="#b1c9d0" stroke="#b1c9d0" stroke-width="1.51"/><path d="M1020,1020L1140,1020L1140,900Z" fill="#b9d6db" stroke="#b9d6db" stroke-width="1.51"/><path d="M1020,900L1020,1020L1140,900Z" fill="#c3ddd9" stroke="#c3ddd9" stroke-width="1.51"/><path d="M1020,900L1140,900L1140,780Z" fill="#cce7e5" stroke="#cce7e5" stroke-width="1.51"/><path d="M1020,780L1020,900L1140,780Z" fill="#d7ece2" stroke="#d7ece2" stroke-width="1.51"/><path d="M1020,780L1140,780L1140,660Z" fill="#e0f2eb" stroke="#e0f2eb" stroke-width="1.51"/><path d="M1020,660L1020,780L1140,660Z" fill="#eaf6e8" stroke="#eaf6e8" stroke-width="1.51"/><path d="M1020,660L1140,660L1140,540Z" fill="#f0f8df" stroke="#f0f8df" stroke-width="1.51"/><path d="M1020,540L1020,660L1140,540Z" fill="#f6fbd3" stroke="#f6fbd3" stroke-width="1.51"/><path d="M1020,540L1140,540L1140,420Z" fill="#f7f7ca" stroke="#f7f7ca" stroke-width="1.51"/><path d="M1020,420L1020,540L1140,420Z" fill="#faf4bf" stroke="#faf4bf" stroke-width="1.51"/><path d="M1020,420L1140,420L1140,300Z" fill="#f8ebb8" stroke="#f8ebb8" stroke-width="1.51"/><path d="M1020,300L1020,420L1140,300Z" fill="#fce6ad" stroke="#fce6ad" stroke-width="1.51"/><path d="M1020,300L1140,300L1140,180Z" fill="#fad8a6" stroke="#fad8a6" stroke-width="1.51"/><path d="M1020,180L1020,300L1140,180Z" fill="#fdd39a" stroke="#fdd39a" stroke-width="1.51"/><path d="M1020,180L1140,180L1140,60Z" fill="#fbc297" stroke="#fbc297" stroke-width="1.51"/><path d="M1020,60L1020,180L1140,60Z" fill="#fdbb8e" stroke="#fdbb8e" stroke-width="1.51"/><path d="M1020,60L1140,60L1140,-60Z" fill="#f7ad8a" stroke="#f7ad8a" stroke-width="1.51"/><path d="M1020,-60L1020,60L1140,-60Z" fill="#f6a781" stroke="#f6a781" stroke-width="1.51"/><path d="M1020,-60L1140,-60L1140,-180Z" fill="#ed9b7f" stroke="#ed9b7f" stroke-width="1.51"/><path d="M1020,-180L1020,-60L1140,-180Z" fill="#e8977a" stroke="#e8977a" stroke-width="1.51"/><path d="M900,1260L1020,1260L1020,1140Z" fill="#a7aab9" stroke="#a7aab9" stroke-width="1.51"/><path d="M900,1140L900,1260L1020,1140Z" fill="#abb2b8" stroke="#abb2b8" stroke-width="1.51"/><path d="M900,1140L1020,1140L1020,1020Z" fill="#b2c2c4" stroke="#b2c2c4" stroke-width="1.51"/><path d="M900,1020L900,1140L1020,1020Z" fill="#b9c9c3" stroke="#b9c9c3" stroke-width="1.51"/><path d="M900,1020L1020,1020L1020,900Z" fill="#c2d9ce" stroke="#c2d9ce" stroke-width="1.51"/><path d="M900,900L900,1020L1020,900Z" fill="#cbddcc" stroke="#cbddcc" stroke-width="1.51"/><path d="M900,900L1020,900L1020,780Z" fill="#d6ead7" stroke="#d6ead7" stroke-width="1.51"/><path d="M900,780L900,900L1020,780Z" fill="#deedd4" stroke="#deedd4" stroke-width="1.51"/><path d="M900,780L1020,780L1020,660Z" fill="#e9f5dc" stroke="#e9f5dc" stroke-width="1.51"/><path d="M900,660L900,780L1020,660Z" fill="#f1f7da" stroke="#f1f7da" stroke-width="1.51"/><path d="M900,660L1020,660L1020,540Z" fill="#f7fbd1" stroke="#f7fbd1" stroke-width="1.51"/><path d="M900,540L900,660L1020,540Z" fill="#fcfcc5" stroke="#fcfcc5" stroke-width="1.51"/><path d="M900,540L1020,540L1020,420Z" fill="#fefabb" stroke="#fefabb" stroke-width="1.51"/><path d="M900,420L900,540L1020,420Z" fill="#fff5b1" stroke="#fff5b1" stroke-width="1.51"/><path d="M900,420L1020,420L1020,300Z" fill="#feeea9" stroke="#feeea9" stroke-width="1.51"/><path d="M900,300L900,420L1020,300Z" fill="#ffe79f" stroke="#ffe79f" stroke-width="1.51"/><path d="M900,300L1020,300L1020,180Z" fill="#ffdb97" stroke="#ffdb97" stroke-width="1.51"/><path d="M900,180L900,300L1020,180Z" fill="#ffd48c" stroke="#ffd48c" stroke-width="1.51"/><path d="M900,180L1020,180L1020,60Z" fill="#ffc589" stroke="#ffc589" stroke-width="1.51"/><path d="M900,60L900,180L1020,60Z" fill="#ffbc80" stroke="#ffbc80" stroke-width="1.51"/><path d="M900,60L1020,60L1020,-60Z" fill="#fcb07c" stroke="#fcb07c" stroke-width="1.51"/><path d="M900,-60L900,60L1020,-60Z" fill="#f9a873" stroke="#f9a873" stroke-width="1.51"/><path d="M900,-60L1020,-60L1020,-180Z" fill="#f19e71" stroke="#f19e71" stroke-width="1.51"/><path d="M900,-180L900,-60L1020,-180Z" fill="#eb996c" stroke="#eb996c" stroke-width="1.51"/><path d="M780,1260L900,1260L900,1140Z" fill="#aaa4ad" stroke="#aaa4ad" stroke-width="1.51"/><path d="M780,1140L780,1260L900,1140Z" fill="#acabad" stroke="#acabad" stroke-width="1.51"/><path d="M780,1140L900,1140L900,1020Z" fill="#b5bdb8" stroke="#b5bdb8" stroke-width="1.51"/><path d="M780,1020L780,1140L900,1020Z" fill="#bbc2b7" stroke="#bbc2b7" stroke-width="1.51"/><path d="M780,1020L900,1020L900,900Z" fill="#c5d3c1" stroke="#c5d3c1" stroke-width="1.51"/><path d="M780,900L780,1020L900,900Z" fill="#ccd6c0" stroke="#ccd6c0" stroke-width="1.51"/><path d="M780,900L900,900L900,780Z" fill="#d8e4ca" stroke="#d8e4ca" stroke-width="1.51"/><path d="M780,780L780,900L900,780Z" fill="#dfe5c8" stroke="#dfe5c8" stroke-width="1.51"/><path d="M780,780L900,780L900,660Z" fill="#ebefd0" stroke="#ebefd0" stroke-width="1.51"/><path d="M780,660L780,780L900,660Z" fill="#f2efce" stroke="#f2efce" stroke-width="1.51"/><path d="M780,660L900,660L900,540Z" fill="#f9f5c4" stroke="#f9f5c4" stroke-width="1.51"/><path d="M780,540L780,660L900,540Z" fill="#fcf4b9" stroke="#fcf4b9" stroke-width="1.51"/><path d="M780,540L900,540L900,420Z" fill="#fff4af" stroke="#fff4af" stroke-width="1.51"/><path d="M780,420L780,540L900,420Z" fill="#ffeea5" stroke="#ffeea5" stroke-width="1.51"/><path d="M780,420L900,420L900,300Z" fill="#ffe89d" stroke="#ffe89d" stroke-width="1.51"/><path d="M780,300L780,420L900,300Z" fill="#ffdf93" stroke="#ffdf93" stroke-width="1.51"/><path d="M780,300L900,300L900,180Z" fill="#ffd58b" stroke="#ffd58b" stroke-width="1.51"/><path d="M780,180L780,300L900,180Z" fill="#ffcc81" stroke="#ffcc81" stroke-width="1.51"/><path d="M780,180L900,180L900,60Z" fill="#ffbf7d" stroke="#ffbf7d" stroke-width="1.51"/><path d="M780,60L780,180L900,60Z" fill="#ffb574" stroke="#ffb574" stroke-width="1.51"/><path d="M780,60L900,60L900,-60Z" fill="#fbaa70" stroke="#fbaa70" stroke-width="1.51"/><path d="M780,-60L780,60L900,-60Z" fill="#f7a168" stroke="#f7a168" stroke-width="1.51"/><path d="M780,-60L900,-60L900,-180Z" fill="#f09865" stroke="#f09865" stroke-width="1.51"/><path d="M780,-180L780,-60L900,-180Z" fill="#e99161" stroke="#e99161" stroke-width="1.51"/><path d="M660,1260L780,1260L780,1140Z" fill="#ab9da2" stroke="#ab9da2" stroke-width="1.51"/><path d="M660,1140L660,1260L780,1140Z" fill="#aea2a2" stroke="#aea2a2" stroke-width="1.51"/><path d="M660,1140L780,1140L780,1020Z" fill="#b6b5ad" stroke="#b6b5ad" stroke-width="1.51"/><path d="M660,1020L660,1140L780,1020Z" fill="#bcbaac" stroke="#bcbaac" stroke-width="1.51"/><path d="M660,1020L780,1020L780,900Z" fill="#c6cbb6" stroke="#c6cbb6" stroke-width="1.51"/><path d="M660,900L660,1020L780,900Z" fill="#ceceb5" stroke="#ceceb5" stroke-width="1.51"/><path d="M660,900L780,900L780,780Z" fill="#d9ddbf" stroke="#d9ddbf" stroke-width="1.51"/><path d="M660,780L660,900L780,780Z" fill="#e0ddbd" stroke="#e0ddbd" stroke-width="1.51"/><path d="M660,780L780,780L780,660Z" fill="#ece7c4" stroke="#ece7c4" stroke-width="1.51"/><path d="M660,660L660,780L780,660Z" fill="#f3e7c2" stroke="#f3e7c2" stroke-width="1.51"/><path d="M660,660L780,660L780,540Z" fill="#f9eeb9" stroke="#f9eeb9" stroke-width="1.51"/><path d="M660,540L660,660L780,540Z" fill="#fcecad" stroke="#fcecad" stroke-width="1.51"/><path d="M660,540L780,540L780,420Z" fill="#ffeda3" stroke="#ffeda3" stroke-width="1.51"/><path d="M660,420L660,540L780,420Z" fill="#ffe599" stroke="#ffe599" stroke-width="1.51"/><path d="M660,420L780,420L780,300Z" fill="#fee191" stroke="#fee191" stroke-width="1.51"/><path d="M660,300L660,420L780,300Z" fill="#ffd787" stroke="#ffd787" stroke-width="1.51"/><path d="M660,300L780,300L780,180Z" fill="#ffce7f" stroke="#ffce7f" stroke-width="1.51"/><path d="M660,180L660,300L780,180Z" fill="#fec475" stroke="#fec475" stroke-width="1.51"/><path d="M660,180L780,180L780,60Z" fill="#feb871" stroke="#feb871" stroke-width="1.51"/><path d="M660,60L660,180L780,60Z" fill="#fdac69" stroke="#fdac69" stroke-width="1.51"/><path d="M660,60L780,60L780,-60Z" fill="#f9a265" stroke="#f9a265" stroke-width="1.51"/><path d="M660,-60L660,60L780,-60Z" fill="#f5985d" stroke="#f5985d" stroke-width="1.51"/><path d="M660,-60L780,-60L780,-180Z" fill="#ee905b" stroke="#ee905b" stroke-width="1.51"/><path d="M660,-180L660,-60L780,-180Z" fill="#e78857" stroke="#e78857" stroke-width="1.51"/><path d="M540,1260L660,1260L660,1140Z" fill="#ad9196" stroke="#ad9196" stroke-width="1.51"/><path d="M540,1140L540,1260L660,1140Z" fill="#b09696" stroke="#b09696" stroke-width="1.51"/><path d="M540,1140L660,1140L660,1020Z" fill="#b9aaa1" stroke="#b9aaa1" stroke-width="1.51"/><path d="M540,1020L540,1140L660,1020Z" fill="#bfaea0" stroke="#bfaea0" stroke-width="1.51"/><path d="M540,1020L660,1020L660,900Z" fill="#c9c0aa" stroke="#c9c0aa" stroke-width="1.51"/><path d="M540,900L540,1020L660,900Z" fill="#d0c2a9" stroke="#d0c2a9" stroke-width="1.51"/><path d="M540,900L660,900L660,780Z" fill="#dcd1b3" stroke="#dcd1b3" stroke-width="1.51"/><path d="M540,780L540,900L660,780Z" fill="#e2d1b0" stroke="#e2d1b0" stroke-width="1.51"/><path d="M540,780L660,780L660,660Z" fill="#eedbb8" stroke="#eedbb8" stroke-width="1.51"/><path d="M540,660L540,780L660,660Z" fill="#f4dab6" stroke="#f4dab6" stroke-width="1.51"/><path d="M540,660L660,660L660,540Z" fill="#fbe2ac" stroke="#fbe2ac" stroke-width="1.51"/><path d="M540,540L540,660L660,540Z" fill="#fddfa1" stroke="#fddfa1" stroke-width="1.51"/><path d="M540,540L660,540L660,420Z" fill="#ffe197" stroke="#ffe197" stroke-width="1.51"/><path d="M540,420L540,540L660,420Z" fill="#ffd98d" stroke="#ffd98d" stroke-width="1.51"/><path d="M540,420L660,420L660,300Z" fill="#ffd585" stroke="#ffd585" stroke-width="1.51"/><path d="M540,300L540,420L660,300Z" fill="#ffcb7b" stroke="#ffcb7b" stroke-width="1.51"/><path d="M540,300L660,300L660,180Z" fill="#ffc273" stroke="#ffc273" stroke-width="1.51"/><path d="M540,180L540,300L660,180Z" fill="#feb769" stroke="#feb769" stroke-width="1.51"/><path d="M540,180L660,180L660,60Z" fill="#fdac66" stroke="#fdac66" stroke-width="1.51"/><path d="M540,60L540,180L660,60Z" fill="#fb9f5e" stroke="#fb9f5e" stroke-width="1.51"/><path d="M540,60L660,60L660,-60Z" fill="#f89659" stroke="#f89659" stroke-width="1.51"/><path d="M540,-60L540,60L660,-60Z" fill="#f38b52" stroke="#f38b52" stroke-width="1.51"/><path d="M540,-60L660,-60L660,-180Z" fill="#ec834f" stroke="#ec834f" stroke-width="1.51"/><path d="M540,-180L540,-60L660,-180Z" fill="#e57b4b" stroke="#e57b4b" stroke-width="1.51"/><path d="M420,1260L540,1260L540,1140Z" fill="#ae868b" stroke="#ae868b" stroke-width="1.51"/><path d="M420,1140L420,1260L540,1140Z" fill="#b28a8b" stroke="#b28a8b" stroke-width="1.51"/><path d="M420,1140L540,1140L540,1020Z" fill="#bb9e95" stroke="#bb9e95" stroke-width="1.51"/><path d="M420,1020L420,1140L540,1020Z" fill="#c1a295" stroke="#c1a295" stroke-width="1.51"/><path d="M420,1020L540,1020L540,900Z" fill="#cbb49e" stroke="#cbb49e" stroke-width="1.51"/><path d="M420,900L420,1020L540,900Z" fill="#d2b59e" stroke="#d2b59e" stroke-width="1.51"/><path d="M420,900L540,900L540,780Z" fill="#dec5a7" stroke="#dec5a7" stroke-width="1.51"/><path d="M420,780L420,900L540,780Z" fill="#e4c4a5" stroke="#e4c4a5" stroke-width="1.51"/><path d="M420,780L540,780L540,660Z" fill="#efcfac" stroke="#efcfac" stroke-width="1.51"/><path d="M420,660L420,780L540,660Z" fill="#f6cdaa" stroke="#f6cdaa" stroke-width="1.51"/><path d="M420,660L540,660L540,540Z" fill="#fcd5a1" stroke="#fcd5a1" stroke-width="1.51"/><path d="M420,540L420,660L540,540Z" fill="#ffd395" stroke="#ffd395" stroke-width="1.51"/><path d="M420,540L540,540L540,420Z" fill="#ffd58c" stroke="#ffd58c" stroke-width="1.51"/><path d="M420,420L420,540L540,420Z" fill="#ffcc82" stroke="#ffcc82" stroke-width="1.51"/><path d="M420,420L540,420L540,300Z" fill="#fec97a" stroke="#fec97a" stroke-width="1.51"/><path d="M420,300L420,420L540,300Z" fill="#ffbe70" stroke="#ffbe70" stroke-width="1.51"/><path d="M420,300L540,300L540,180Z" fill="#feb568" stroke="#feb568" stroke-width="1.51"/><path d="M420,180L420,300L540,180Z" fill="#fdaa5e" stroke="#fdaa5e" stroke-width="1.51"/><path d="M420,180L540,180L540,60Z" fill="#fb9f5a" stroke="#fb9f5a" stroke-width="1.51"/><path d="M420,60L420,180L540,60Z" fill="#fa9253" stroke="#fa9253" stroke-width="1.51"/><path d="M420,60L540,60L540,-60Z" fill="#f5894e" stroke="#f5894e" stroke-width="1.51"/><path d="M420,-60L420,60L540,-60Z" fill="#f17d47" stroke="#f17d47" stroke-width="1.51"/><path d="M420,-60L540,-60L540,-180Z" fill="#ea7644" stroke="#ea7644" stroke-width="1.51"/><path d="M420,-180L420,-60L540,-180Z" fill="#e36d41" stroke="#e36d41" stroke-width="1.51"/><path d="M300,1260L420,1260L420,1140Z" fill="#ae7782" stroke="#ae7782" stroke-width="1.51"/><path d="M300,1140L300,1260L420,1140Z" fill="#b27b83" stroke="#b27b83" stroke-width="1.51"/><path d="M300,1140L420,1140L420,1020Z" fill="#bb908c" stroke="#bb908c" stroke-width="1.51"/><path d="M300,1020L300,1140L420,1020Z" fill="#c1938c" stroke="#c1938c" stroke-width="1.51"/><path d="M300,1020L420,1020L420,900Z" fill="#cca695" stroke="#cca695" stroke-width="1.51"/><path d="M300,900L300,1020L420,900Z" fill="#d3a695" stroke="#d3a695" stroke-width="1.51"/><path d="M300,900L420,900L420,780Z" fill="#dfb79e" stroke="#dfb79e" stroke-width="1.51"/><path d="M300,780L300,900L420,780Z" fill="#e5b59d" stroke="#e5b59d" stroke-width="1.51"/><path d="M300,780L420,780L420,660Z" fill="#f0c1a3" stroke="#f0c1a3" stroke-width="1.51"/><path d="M300,660L300,780L420,660Z" fill="#f6bea2" stroke="#f6bea2" stroke-width="1.51"/><path d="M300,660L420,660L420,540Z" fill="#fcc797" stroke="#fcc797" stroke-width="1.51"/><path d="M300,540L300,660L420,540Z" fill="#ffc38d" stroke="#ffc38d" stroke-width="1.51"/><path d="M300,540L420,540L420,420Z" fill="#ffc683" stroke="#ffc683" stroke-width="1.51"/><path d="M300,420L300,540L420,420Z" fill="#ffbd7a" stroke="#ffbd7a" stroke-width="1.51"/><path d="M300,420L420,420L420,300Z" fill="#feba71" stroke="#feba71" stroke-width="1.51"/><path d="M300,300L300,420L420,300Z" fill="#feae69" stroke="#feae69" stroke-width="1.51"/><path d="M300,300L420,300L420,180Z" fill="#fca65f" stroke="#fca65f" stroke-width="1.51"/><path d="M300,180L300,300L420,180Z" fill="#fb9a57" stroke="#fb9a57" stroke-width="1.51"/><path d="M300,180L420,180L420,60Z" fill="#fa9052" stroke="#fa9052" stroke-width="1.51"/><path d="M300,60L300,180L420,60Z" fill="#f8824b" stroke="#f8824b" stroke-width="1.51"/><path d="M300,60L420,60L420,-60Z" fill="#f37946" stroke="#f37946" stroke-width="1.51"/><path d="M300,-60L300,60L420,-60Z" fill="#ee6c40" stroke="#ee6c40" stroke-width="1.51"/><path d="M300,-60L420,-60L420,-180Z" fill="#e7663d" stroke="#e7663d" stroke-width="1.51"/><path d="M300,-180L300,-60L420,-180Z" fill="#e05b3a" stroke="#e05b3a" stroke-width="1.51"/><path d="M180,1260L300,1260L300,1140Z" fill="#ae697a" stroke="#ae697a" stroke-width="1.51"/><path d="M180,1140L180,1260L300,1140Z" fill="#b16d7b" stroke="#b16d7b" stroke-width="1.51"/><path d="M180,1140L300,1140L300,1020Z" fill="#bb8184" stroke="#bb8184" stroke-width="1.51"/><path d="M180,1020L180,1140L300,1020Z" fill="#c08584" stroke="#c08584" stroke-width="1.51"/><path d="M180,1020L300,1020L300,900Z" fill="#cc978d" stroke="#cc978d" stroke-width="1.51"/><path d="M180,900L180,1020L300,900Z" fill="#d2988d" stroke="#d2988d" stroke-width="1.51"/><path d="M180,900L300,900L300,780Z" fill="#dfa895" stroke="#dfa895" stroke-width="1.51"/><path d="M180,780L180,900L300,780Z" fill="#e4a794" stroke="#e4a794" stroke-width="1.51"/><path d="M180,780L300,780L300,660Z" fill="#f0b19a" stroke="#f0b19a" stroke-width="1.51"/><path d="M180,660L180,780L300,660Z" fill="#f5b09a" stroke="#f5b09a" stroke-width="1.51"/><path d="M180,660L300,660L300,540Z" fill="#fcb88f" stroke="#fcb88f" stroke-width="1.51"/><path d="M180,540L180,660L300,540Z" fill="#fdb585" stroke="#fdb585" stroke-width="1.51"/><path d="M180,540L300,540L300,420Z" fill="#ffb77a" stroke="#ffb77a" stroke-width="1.51"/><path d="M180,420L180,540L300,420Z" fill="#feae72" stroke="#feae72" stroke-width="1.51"/><path d="M180,420L300,420L300,300Z" fill="#fdab69" stroke="#fdab69" stroke-width="1.51"/><path d="M180,300L180,420L300,300Z" fill="#fba061" stroke="#fba061" stroke-width="1.51"/><path d="M180,300L300,300L300,180Z" fill="#fb9758" stroke="#fb9758" stroke-width="1.51"/><path d="M180,180L180,300L300,180Z" fill="#f88b50" stroke="#f88b50" stroke-width="1.51"/><path d="M180,180L300,180L300,60Z" fill="#f77f4a" stroke="#f77f4a" stroke-width="1.51"/><path d="M180,60L180,180L300,60Z" fill="#f47244" stroke="#f47244" stroke-width="1.51"/><path d="M180,60L300,60L300,-60Z" fill="#f0673f" stroke="#f0673f" stroke-width="1.51"/><path d="M180,-60L180,60L300,-60Z" fill="#eb5b39" stroke="#eb5b39" stroke-width="1.51"/><path d="M180,-60L300,-60L300,-180Z" fill="#e45336" stroke="#e45336" stroke-width="1.51"/><path d="M180,-180L180,-60L300,-180Z" fill="#dc4934" stroke="#dc4934" stroke-width="1.51"/><path d="M60,1260L180,1260L180,1140Z" fill="#a95c72" stroke="#a95c72" stroke-width="1.51"/><path d="M60,1140L60,1260L180,1140Z" fill="#ab6172" stroke="#ab6172" stroke-width="1.51"/><path d="M60,1140L180,1140L180,1020Z" fill="#b7757c" stroke="#b7757c" stroke-width="1.51"/><path d="M60,1020L60,1140L180,1020Z" fill="#bb797c" stroke="#bb797c" stroke-width="1.51"/><path d="M60,1020L180,1020L180,900Z" fill="#c88b85" stroke="#c88b85" stroke-width="1.51"/><path d="M60,900L60,1020L180,900Z" fill="#cc8c84" stroke="#cc8c84" stroke-width="1.51"/><path d="M60,900L180,900L180,780Z" fill="#da9b8d" stroke="#da9b8d" stroke-width="1.51"/><path d="M60,780L60,900L180,780Z" fill="#de9a8c" stroke="#de9a8c" stroke-width="1.51"/><path d="M60,780L180,780L180,660Z" fill="#eba592" stroke="#eba592" stroke-width="1.51"/><path d="M60,660L60,780L180,660Z" fill="#efa391" stroke="#efa391" stroke-width="1.51"/><path d="M60,660L180,660L180,540Z" fill="#f7ab87" stroke="#f7ab87" stroke-width="1.51"/><path d="M60,540L60,660L180,540Z" fill="#f7a87d" stroke="#f7a87d" stroke-width="1.51"/><path d="M60,540L180,540L180,420Z" fill="#faaa72" stroke="#faaa72" stroke-width="1.51"/><path d="M60,420L60,540L180,420Z" fill="#f7a26a" stroke="#f7a26a" stroke-width="1.51"/><path d="M60,420L180,420L180,300Z" fill="#f79e61" stroke="#f79e61" stroke-width="1.51"/><path d="M60,300L60,420L180,300Z" fill="#f59359" stroke="#f59359" stroke-width="1.51"/><path d="M60,300L180,300L180,180Z" fill="#f58a50" stroke="#f58a50" stroke-width="1.51"/><path d="M60,180L60,300L180,180Z" fill="#f17e48" stroke="#f17e48" stroke-width="1.51"/><path d="M60,180L180,180L180,60Z" fill="#f17243" stroke="#f17243" stroke-width="1.51"/><path d="M60,60L60,180L180,60Z" fill="#ed643d" stroke="#ed643d" stroke-width="1.51"/><path d="M60,60L180,60L180,-60Z" fill="#ea5938" stroke="#ea5938" stroke-width="1.51"/><path d="M60,-60L60,60L180,-60Z" fill="#e34c32" stroke="#e34c32" stroke-width="1.51"/><path d="M60,-60L180,-60L180,-180Z" fill="#dd432f" stroke="#dd432f" stroke-width="1.51"/><path d="M60,-180L60,-60L180,-180Z" fill="#d4392c" stroke="#d4392c" stroke-width="1.51"/><path d="M-60,1260L60,1260L60,1140Z" fill="#a3506a" stroke="#a3506a" stroke-width="1.51"/><path d="M-60,1140L-60,1260L60,1140Z" fill="#a4566c" stroke="#a4566c" stroke-width="1.51"/><path d="M-60,1140L60,1140L60,1020Z" fill="#b16974" stroke="#b16974" stroke-width="1.51"/><path d="M-60,1020L-60,1140L60,1020Z" fill="#b46e75" stroke="#b46e75" stroke-width="1.51"/><path d="M-60,1020L60,1020L60,900Z" fill="#c37f7c" stroke="#c37f7c" stroke-width="1.51"/><path d="M-60,900L-60,1020L60,900Z" fill="#c6817e" stroke="#c6817e" stroke-width="1.51"/><path d="M-60,900L60,900L60,780Z" fill="#d58f85" stroke="#d58f85" stroke-width="1.51"/><path d="M-60,780L-60,900L60,780Z" fill="#d88f85" stroke="#d88f85" stroke-width="1.51"/><path d="M-60,780L60,780L60,660Z" fill="#e6988a" stroke="#e6988a" stroke-width="1.51"/><path d="M-60,660L-60,780L60,660Z" fill="#e9988a" stroke="#e9988a" stroke-width="1.51"/><path d="M-60,660L60,660L60,540Z" fill="#f19f7f" stroke="#f19f7f" stroke-width="1.51"/><path d="M-60,540L-60,660L60,540Z" fill="#f09d76" stroke="#f09d76" stroke-width="1.51"/><path d="M-60,540L60,540L60,420Z" fill="#f49e6a" stroke="#f49e6a" stroke-width="1.51"/><path d="M-60,420L-60,540L60,420Z" fill="#f09763" stroke="#f09763" stroke-width="1.51"/><path d="M-60,420L60,420L60,300Z" fill="#f19259" stroke="#f19259" stroke-width="1.51"/><path d="M-60,300L-60,420L60,300Z" fill="#ed8853" stroke="#ed8853" stroke-width="1.51"/><path d="M-60,300L60,300L60,180Z" fill="#ee7d49" stroke="#ee7d49" stroke-width="1.51"/><path d="M-60,180L-60,300L60,180Z" fill="#ea7342" stroke="#ea7342" stroke-width="1.51"/><path d="M-60,180L60,180L60,60Z" fill="#ea643c" stroke="#ea643c" stroke-width="1.51"/><path d="M-60,60L-60,180L60,60Z" fill="#e55737" stroke="#e55737" stroke-width="1.51"/><path d="M-60,60L60,60L60,-60Z" fill="#e24a31" stroke="#e24a31" stroke-width="1.51"/><path d="M-60,-60L-60,60L60,-60Z" fill="#db3e2c" stroke="#db3e2c" stroke-width="1.51"/><path d="M-60,-60L60,-60L60,-180Z" fill="#d53128" stroke="#d53128" stroke-width="1.51"/><path d="M-60,-180L-60,-60L60,-180Z" fill="#cc2827" stroke="#cc2827" stroke-width="1.51"/><path d="M-180,1260L-60,1260L-60,1140Z" fill="#984867" stroke="#984867" stroke-width="1.51"/><path d="M-180,1140L-180,1260L-60,1140Z" fill="#984f6a" stroke="#984f6a" stroke-width="1.51"/><path d="M-180,1140L-60,1140L-60,1020Z" fill="#a66171" stroke="#a66171" stroke-width="1.51"/><path d="M-180,1020L-180,1140L-60,1020Z" fill="#a76774" stroke="#a76774" stroke-width="1.51"/><path d="M-180,1020L-60,1020L-60,900Z" fill="#b7777a" stroke="#b7777a" stroke-width="1.51"/><path d="M-180,900L-180,1020L-60,900Z" fill="#b9797c" stroke="#b9797c" stroke-width="1.51"/><path d="M-180,900L-60,900L-60,780Z" fill="#c98782" stroke="#c98782" stroke-width="1.51"/><path d="M-180,780L-180,900L-60,780Z" fill="#ca8784" stroke="#ca8784" stroke-width="1.51"/><path d="M-180,780L-60,780L-60,660Z" fill="#da9087" stroke="#da9087" stroke-width="1.51"/><path d="M-180,660L-180,780L-60,660Z" fill="#db9089" stroke="#db9089" stroke-width="1.51"/><path d="M-180,660L-60,660L-60,540Z" fill="#e5967c" stroke="#e5967c" stroke-width="1.51"/><path d="M-180,540L-180,660L-60,540Z" fill="#e39575" stroke="#e39575" stroke-width="1.51"/><path d="M-180,540L-60,540L-60,420Z" fill="#e99569" stroke="#e99569" stroke-width="1.51"/><path d="M-180,420L-180,540L-60,420Z" fill="#e38f63" stroke="#e38f63" stroke-width="1.51"/><path d="M-180,420L-60,420L-60,300Z" fill="#e58958" stroke="#e58958" stroke-width="1.51"/><path d="M-180,300L-180,420L-60,300Z" fill="#e18052" stroke="#e18052" stroke-width="1.51"/><path d="M-180,300L-60,300L-60,180Z" fill="#e27447" stroke="#e27447" stroke-width="1.51"/><path d="M-180,180L-180,300L-60,180Z" fill="#dd6b42" stroke="#dd6b42" stroke-width="1.51"/><path d="M-180,180L-60,180L-60,60Z" fill="#de5c3b" stroke="#de5c3b" stroke-width="1.51"/><path d="M-180,60L-180,180L-60,60Z" fill="#d85037" stroke="#d85037" stroke-width="1.51"/><path d="M-180,60L-60,60L-60,-60Z" fill="#d64030" stroke="#d64030" stroke-width="1.51"/><path d="M-180,-60L-180,60L-60,-60Z" fill="#ce352c" stroke="#ce352c" stroke-width="1.51"/><path d="M-180,-60L-60,-60L-60,-180Z" fill="#ca2627" stroke="#ca2627" stroke-width="1.51"/><path d="M-180,-180L-180,-60L-60,-180Z" fill="#bf1e27" stroke="#bf1e27" stroke-width="1.51"/></svg>