<svg xmlns="http://www.w3.org/2000/svg" width="1920" height="1080"><path d="M1957,1395L2242,1395L2242,1110Z" fill="#016452" stroke="#016452" stroke-width="1.51"/><path d="M1957,1110L1957,1395L2242,1110Z" fill="#036e60" stroke="#036e60" stroke-width="1.51"/><path d="M1957,1110L2242,1110L2242,825Z" fill="#09706d" stroke="#09706d" stroke-width="1.51"/><path d="M1957,825L1957,1110L2242,825Z" fill="#18787c" stroke="#18787c" stroke-width="1.51"/><path d="M1957,825L2242,825L2242,540Z" fill="#2a7a87" stroke="#2a7a87" stroke-width="1.51"/><path d="M1957,540L1957,825L2242,540Z" fill="#35848e" stroke="#35848e" stroke-width="1.51"/><path d="M1957,540L2242,540L2242,255Z" fill="#4a878e" stroke="#4a878e" stroke-width="1.51"/><path d="M1957,255L1957,540L2242,255Z" fill="#589095" stroke="#589095" stroke-width="1.51"/><path d="M1957,255L2242,255L2242,-30Z" fill="#699294" stroke="#699294" stroke-width="1.51"/><path d="M1957,-30L1957,255L2242,-30Z" fill="#739c9b" stroke="#739c9b" stroke-width="1.51"/><path d="M1957,-30L2242,-30L2242,-315Z" fill="#7c9c99" stroke="#7c9c99" stroke-width="1.51"/><path d="M1957,-315L1957,-30L2242,-315Z" fill="#84a5a1" stroke="#84a5a1" stroke-width="1.51"/><path d="M1672,1395L1957,1395L1957,1110Z" fill="#047063" stroke="#047063" stroke-width="1.51"/><path d="M1672,1110L1672,1395L1957,1110Z" fill="#057773" stroke="#057773" stroke-width="1.51"/><path d="M1672,1110L1957,1110L1957,825Z" fill="#0a7c7f" stroke="#0a7c7f" stroke-width="1.51"/><path d="M1672,825L1672,1110L1957,825Z" fill="#178290" stroke="#178290" stroke-width="1.51"/><path d="M1672,825L1957,825L1957,540Z" fill="#2c8699" stroke="#2c8699" stroke-width="1.51"/><path d="M1672,540L1672,825L1957,540Z" fill="#378da2" stroke="#378da2" stroke-width="1.51"/><path d="M1672,540L1957,540L1957,255Z" fill="#4f93a1" stroke="#4f93a1" stroke-width="1.51"/><path d="M1672,255L1672,540L1957,255Z" fill="#5d99a9" stroke="#5d99a9" stroke-width="1.51"/><path d="M1672,255L1957,255L1957,-30Z" fill="#6f9ea7" stroke="#6f9ea7" stroke-width="1.51"/><path d="M1672,-30L1672,255L1957,-30Z" fill="#79a5b0" stroke="#79a5b0" stroke-width="1.51"/><path d="M1672,-30L1957,-30L1957,-315Z" fill="#84a9ac" stroke="#84a9ac" stroke-width="1.51"/><path d="M1672,-315L1672,-30L1957,-315Z" fill="#8bafb5" stroke="#8bafb5" stroke-width="1.51"/><path d="M1387,1395L1672,1395L1672,1110Z" fill="#117777" stroke="#117777" stroke-width="1.51"/><path d="M1387,1110L1387,1395L1672,1110Z" fill="#197e88" stroke="#197e88" stroke-width="1.51"/><path d="M1387,1110L1672,1110L1672,825Z" fill="#138493" stroke="#138493" stroke-width="1.51"/><path d="M1387,825L1387,1110L1672,825Z" fill="#2489a5" stroke="#2489a5" stroke-width="1.51"/><path d="M1387,825L1672,825L1672,540Z" fill="#318eae" stroke="#318eae" stroke-width="1.51"/><path d="M1387,540L1387,825L1672,540Z" fill="#4094b8" stroke="#4094b8" stroke-width="1.51"/><path d="M1387,540L1672,540L1672,255Z" fill="#559bb6" stroke="#559bb6" stroke-width="1.51"/><path d="M1387,255L1387,540L1672,255Z" fill="#67a0bf" stroke="#67a0bf" stroke-width="1.51"/><path d="M1387,255L1672,255L1672,-30Z" fill="#77a6bc" stroke="#77a6bc" stroke-width="1.51"/><path d="M1387,-30L1387,255L1672,-30Z" fill="#84acc6" stroke="#84acc6" stroke-width="1.51"/><path d="M1387,-30L1672,-30L1672,-315Z" fill="#8cb0c2" stroke="#8cb0c2" stroke-width="1.51"/><path d="M1387,-315L1387,-30L1672,-315Z" fill="#95b5cb" stroke="#95b5cb" stroke-width="1.51"/><path d="M1102,1395L1387,1395L1387,1110Z" fill="#267e8b" stroke="#267e8b" stroke-width="1.51"/><path d="M1102,1110L1102,1395L1387,1110Z" fill="#2f8696" stroke="#2f8696" stroke-width="1.51"/><path d="M1102,1110L1387,1110L1387,825Z" fill="#288aa8" stroke="#288aa8" stroke-width="1.51"/><path d="M1102,825L1102,1110L1387,825Z" fill="#3890b4" stroke="#3890b4" stroke-width="1.51"/><path d="M1102,825L1387,825L1387,540Z" fill="#3f94c2" stroke="#3f94c2" stroke-width="1.51"/><path d="M1102,540L1102,825L1387,540Z" fill="#509bc7" stroke="#509bc7" stroke-width="1.51"/><path d="M1102,540L1387,540L1387,255Z" fill="#61a1ca" stroke="#61a1ca" stroke-width="1.51"/><path d="M1102,255L1102,540L1387,255Z" fill="#74a8cf" stroke="#74a8cf" stroke-width="1.51"/><path d="M1102,255L1387,255L1387,-30Z" fill="#83acd1" stroke="#83acd1" stroke-width="1.51"/><path d="M1102,-30L1102,255L1387,-30Z" fill="#91b3d5" stroke="#91b3d5" stroke-width="1.51"/><path d="M1102,-30L1387,-30L1387,-315Z" fill="#98b6d7" stroke="#98b6d7" stroke-width="1.51"/><path d="M1102,-315L1102,-30L1387,-315Z" fill="#a2bddb" stroke="#a2bddb" stroke-width="1.51"/><path d="M817,1395L1102,1395L1102,1110Z" fill="#3a8890" stroke="#3a8890" stroke-width="1.51"/><path d="M817,1110L817,1395L1102,1110Z" fill="#458f9c" stroke="#458f9c" stroke-width="1.51"/><path d="M817,1110L1102,1110L1102,825Z" fill="#3f94ae" stroke="#3f94ae" stroke-width="1.51"/><path d="M817,825L817,1110L1102,825Z" fill="#4f9aba" stroke="#4f9aba" stroke-width="1.51"/><path d="M817,825L1102,825L1102,540Z" fill="#539ec9" stroke="#539ec9" stroke-width="1.51"/><path d="M817,540L817,825L1102,540Z" fill="#64a5cd" stroke="#64a5cd" stroke-width="1.51"/><path d="M817,540L1102,540L1102,255Z" fill="#72abd0" stroke="#72abd0" stroke-width="1.51"/><path d="M817,255L817,540L1102,255Z" fill="#85b2d5" stroke="#85b2d5" stroke-width="1.51"/><path d="M817,255L1102,255L1102,-30Z" fill="#92b6d7" stroke="#92b6d7" stroke-width="1.51"/><path d="M817,-30L817,255L1102,-30Z" fill="#a1bddb" stroke="#a1bddb" stroke-width="1.51"/><path d="M817,-30L1102,-30L1102,-315Z" fill="#a6c1dd" stroke="#a6c1dd" stroke-width="1.51"/><path d="M817,-315L817,-30L1102,-315Z" fill="#b2c7e1" stroke="#b2c7e1" stroke-width="1.51"/><path d="M532,1395L817,1395L817,1110Z" fill="#569095" stroke="#569095" stroke-width="1.51"/><path d="M532,1110L532,1395L817,1110Z" fill="#6097a0" stroke="#6097a0" stroke-width="1.51"/><path d="M532,1110L817,1110L817,825Z" fill="#5d9cb2" stroke="#5d9cb2" stroke-width="1.51"/><path d="M532,825L532,1110L817,825Z" fill="#6ba2be" stroke="#6ba2be" stroke-width="1.51"/><path d="M532,825L817,825L817,540Z" fill="#6fa6ce" stroke="#6fa6ce" stroke-width="1.51"/><path d="M532,540L532,825L817,540Z" fill="#7fadd2" stroke="#7fadd2" stroke-width="1.51"/><path d="M532,540L817,540L817,255Z" fill="#8ab4d6" stroke="#8ab4d6" stroke-width="1.51"/><path d="M532,255L532,540L817,255Z" fill="#9dbad9" stroke="#9dbad9" stroke-width="1.51"/><path d="M532,255L817,255L817,-30Z" fill="#a8bedc" stroke="#a8bedc" stroke-width="1.51"/><path d="M532,-30L532,255L817,-30Z" fill="#b7c5e0" stroke="#b7c5e0" stroke-width="1.51"/><path d="M532,-30L817,-30L817,-315Z" fill="#bcc9e2" stroke="#bcc9e2" stroke-width="1.51"/><path d="M532,-315L532,-30L817,-315Z" fill="#c8cfe5" stroke="#c8cfe5" stroke-width="1.51"/><path d="M247,1395L532,1395L532,1110Z" fill="#6a9899" stroke="#6a9899" stroke-width="1.51"/><path d="M247,1110L247,1395L532,1110Z" fill="#739fa4" stroke="#739fa4" stroke-width="1.51"/><path d="M247,1110L532,1110L532,825Z" fill="#73a4b7" stroke="#73a4b7" stroke-width="1.51"/><path d="M247,825L247,1110L532,825Z" fill="#7faac3" stroke="#7faac3" stroke-width="1.51"/><path d="M247,825L532,825L532,540Z" fill="#85aed2" stroke="#85aed2" stroke-width="1.51"/><path d="M247,540L247,825L532,540Z" fill="#92b5d6" stroke="#92b5d6" stroke-width="1.51"/><path d="M247,540L532,540L532,255Z" fill="#9ebbda" stroke="#9ebbda" stroke-width="1.51"/><path d="M247,255L247,540L532,255Z" fill="#afc2de" stroke="#afc2de" stroke-width="1.51"/><path d="M247,255L532,255L532,-30Z" fill="#bbc6e0" stroke="#bbc6e0" stroke-width="1.51"/><path d="M247,-30L247,255L532,-30Z" fill="#c9cde4" stroke="#c9cde4" stroke-width="1.51"/><path d="M247,-30L532,-30L532,-315Z" fill="#cfd1e6" stroke="#cfd1e6" stroke-width="1.51"/><path d="M247,-315L247,-30L532,-315Z" fill="#d9d7ea" stroke="#d9d7ea" stroke-width="1.51"/><path d="M-38,1395L247,1395L247,1110Z" fill="#7aa09d" stroke="#7aa09d" stroke-width="1.51"/><path d="M-38,1110L-38,1395L247,1110Z" fill="#80a6a8" stroke="#80a6a8" stroke-width="1.51"/><path d="M-38,1110L247,1110L247,825Z" fill="#83acbb" stroke="#83acbb" stroke-width="1.51"/><path d="M-38,825L-38,1110L247,825Z" fill="#8db1c6" stroke="#8db1c6" stroke-width="1.51"/><path d="M-38,825L247,825L247,540Z" fill="#96b6d7" stroke="#96b6d7" stroke-width="1.51"/><path d="M-38,540L-38,825L247,540Z" fill="#a0bcda" stroke="#a0bcda" stroke-width="1.51"/><path d="M-38,540L247,540L247,255Z" fill="#aec3df" stroke="#aec3df" stroke-width="1.51"/><path d="M-38,255L-38,540L247,255Z" fill="#bcc9e2" stroke="#bcc9e2" stroke-width="1.51"/><path d="M-38,255L247,255L247,-30Z" fill="#cacee5" stroke="#cacee5" stroke-width="1.51"/><path d="M-38,-30L-38,255L247,-30Z" fill="#d6d4e8" stroke="#d6d4e8" stroke-width="1.51"/><path d="M-38,-30L247,-30L247,-315Z" fill="#ded9eb" stroke="#ded9eb" stroke-width="1.51"/><path d="M-38,-315L-38,-30L247,-315Z" fill="#e6deee" stroke="#e6deee" stroke-width="1.51"/><path d="M-323,1395L-38,1395L-38,1110Z" fill="#84a6a1" stroke="#84a6a1" stroke-width="1.51"/><path d="M-323,1110L-323,1395L-38,1110Z" fill="#8aadac" stroke="#8aadac" stroke-width="1.51"/><path d="M-323,1110L-38,1110L-38,825Z" fill="#8eb2bf" stroke="#8eb2bf" stroke-width="1.51"/><path d="M-323,825L-323,1110L-38,825Z" fill="#97b8cb" stroke="#97b8cb" stroke-width="1.51"/><path d="M-323,825L-38,825L-38,540Z" fill="#a1bcdb" stroke="#a1bcdb" stroke-width="1.51"/><path d="M-323,540L-323,825L-38,540Z" fill="#aac3df" stroke="#aac3df" stroke-width="1.51"/><path d="M-323,540L-38,540L-38,255Z" fill="#b9cae3" stroke="#b9cae3" stroke-width="1.51"/><path d="M-323,255L-323,540L-38,255Z" fill="#c6d0e6" stroke="#c6d0e6" stroke-width="1.51"/><path d="M-323,255L-38,255L-38,-30Z" fill="#d5d5e9" stroke="#d5d5e9" stroke-width="1.51"/><path d="M-323,-30L-323,255L-38,-30Z" fill="#dfdcec" stroke="#dfdcec" stroke-width="1.51"/><path d="M-323,-30L-38,-30L-38,-315Z" fill="#e8dfef" stroke="#e8dfef" stroke-width="1.51"/><path d="M-323,-315L-323,-30L-38,-315Z" fill="#efe6f2" stroke="#efe6f2" stroke-width="1.51"/></svg>