<svg xmlns="http://www.w3.org/2000/svg" width="1920" height="1080"><path d="M1980,1260L2100,1260L2100,1140Z" fill="#03466e" stroke="#03466e" stroke-width="1.51"/><path d="M1980,1140L1980,1260L2100,1140Z" fill="#034c77" stroke="#034c77" stroke-width="1.51"/><path d="M1980,1140L2100,1140L2100,1020Z" fill="#04507d" stroke="#04507d" stroke-width="1.51"/><path d="M1980,1020L1980,1140L2100,1020Z" fill="#045484" stroke="#045484" stroke-width="1.51"/><path d="M1980,1020L2100,1020L2100,900Z" fill="#045687" stroke="#045687" stroke-width="1.51"/><path d="M1980,900L1980,1020L2100,900Z" fill="#045b8e" stroke="#045b8e" stroke-width="1.51"/><path d="M1980,900L2100,900L2100,780Z" fill="#105e8f" stroke="#105e8f" stroke-width="1.51"/><path d="M1980,780L1980,900L2100,780Z" fill="#166494" stroke="#166494" stroke-width="1.51"/><path d="M1980,780L2100,780L2100,660Z" fill="#1e6893" stroke="#1e6893" stroke-width="1.51"/><path d="M1980,660L1980,780L2100,660Z" fill="#276d98" stroke="#276d98" stroke-width="1.51"/><path d="M1980,660L2100,660L2100,540Z" fill="#356f98" stroke="#356f98" stroke-width="1.51"/><path d="M1980,540L1980,660L2100,540Z" fill="#3d749d" stroke="#3d749d" stroke-width="1.51"/><path d="M1980,540L2100,540L2100,420Z" fill="#48769b" stroke="#48769b" stroke-width="1.51"/><path d="M1980,420L1980,540L2100,420Z" fill="#4e7aa1" stroke="#4e7aa1" stroke-width="1.51"/><path d="M1980,420L2100,420L2100,300Z" fill="#587b9f" stroke="#587b9f" stroke-width="1.51"/><path d="M1980,300L1980,420L2100,300Z" fill="#5f80a4" stroke="#5f80a4" stroke-width="1.51"/><path d="M1980,300L2100,300L2100,180Z" fill="#6781a3" stroke="#6781a3" stroke-width="1.51"/><path d="M1980,180L1980,300L2100,180Z" fill="#6d86a7" stroke="#6d86a7" stroke-width="1.51"/><path d="M1980,180L2100,180L2100,60Z" fill="#7387a6" stroke="#7387a6" stroke-width="1.51"/><path d="M1980,60L1980,180L2100,60Z" fill="#788cab" stroke="#788cab" stroke-width="1.51"/><path d="M1980,60L2100,60L2100,-60Z" fill="#7c8da9" stroke="#7c8da9" stroke-width="1.51"/><path d="M1980,-60L1980,60L2100,-60Z" fill="#8092ae" stroke="#8092ae" stroke-width="1.51"/><path d="M1980,-60L2100,-60L2100,-180Z" fill="#8392ad" stroke="#8392ad" stroke-width="1.51"/><path d="M1980,-180L1980,-60L2100,-180Z" fill="#8797b1" stroke="#8797b1" stroke-width="1.51"/><path d="M1860,1260L1980,1260L1980,1140Z" fill="#034d78" stroke="#034d78" stroke-width="1.51"/><path d="M1860,1140L1860,1260L1980,1140Z" fill="#035282" stroke="#035282" stroke-width="1.51"/><path d="M1860,1140L1980,1140L1980,1020Z" fill="#035787" stroke="#035787" stroke-width="1.51"/><path d="M1860,1020L1860,1140L1980,1020Z" fill="#045b8f" stroke="#045b8f" stroke-width="1.51"/><path d="M1860,1020L1980,1020L1980,900Z" fill="#045d92" stroke="#045d92" stroke-width="1.51"/><path d="M1860,900L1860,1020L1980,900Z" fill="#05629a" stroke="#05629a" stroke-width="1.51"/><path d="M1860,900L1980,900L1980,780Z" fill="#11669a" stroke="#11669a" stroke-width="1.51"/><path d="M1860,780L1860,900L1980,780Z" fill="#186b9f" stroke="#186b9f" stroke-width="1.51"/><path d="M1860,780L1980,780L1980,660Z" fill="#1f6f9e" stroke="#1f6f9e" stroke-width="1.51"/><path d="M1860,660L1860,780L1980,660Z" fill="#2974a4" stroke="#2974a4" stroke-width="1.51"/><path d="M1860,660L1980,660L1980,540Z" fill="#3877a3" stroke="#3877a3" stroke-width="1.51"/><path d="M1860,540L1860,660L1980,540Z" fill="#407ba8" stroke="#407ba8" stroke-width="1.51"/><path d="M1860,540L1980,540L1980,420Z" fill="#4b7da7" stroke="#4b7da7" stroke-width="1.51"/><path d="M1860,420L1860,540L1980,420Z" fill="#5281ac" stroke="#5281ac" stroke-width="1.51"/><path d="M1860,420L1980,420L1980,300Z" fill="#5c83ab" stroke="#5c83ab" stroke-width="1.51"/><path d="M1860,300L1860,420L1980,300Z" fill="#6387b0" stroke="#6387b0" stroke-width="1.51"/><path d="M1860,300L1980,300L1980,180Z" fill="#6b89ae" stroke="#6b89ae" stroke-width="1.51"/><path d="M1860,180L1860,300L1980,180Z" fill="#718db3" stroke="#718db3" stroke-width="1.51"/><path d="M1860,180L1980,180L1980,60Z" fill="#788fb1" stroke="#788fb1" stroke-width="1.51"/><path d="M1860,60L1860,180L1980,60Z" fill="#7d93b7" stroke="#7d93b7" stroke-width="1.51"/><path d="M1860,60L1980,60L1980,-60Z" fill="#8195b5" stroke="#8195b5" stroke-width="1.51"/><path d="M1860,-60L1860,60L1980,-60Z" fill="#8599ba" stroke="#8599ba" stroke-width="1.51"/><path d="M1860,-60L1980,-60L1980,-180Z" fill="#889ab8" stroke="#889ab8" stroke-width="1.51"/><path d="M1860,-180L1860,-60L1980,-180Z" fill="#8c9ebd" stroke="#8c9ebd" stroke-width="1.51"/><path d="M1740,1260L1860,1260L1860,1140Z" fill="#035382" stroke="#035382" stroke-width="1.51"/><path d="M1740,1140L1740,1260L1860,1140Z" fill="#03588a" stroke="#03588a" stroke-width="1.51"/><path d="M1740,1140L1860,1140L1860,1020Z" fill="#045d91" stroke="#045d91" stroke-width="1.51"/><path d="M1740,1020L1740,1140L1860,1020Z" fill="#046097" stroke="#046097" stroke-width="1.51"/><path d="M1740,1020L1860,1020L1860,900Z" fill="#04639c" stroke="#04639c" stroke-width="1.51"/><path d="M1740,900L1740,1020L1860,900Z" fill="#0467a2" stroke="#0467a2" stroke-width="1.51"/><path d="M1740,900L1860,900L1860,780Z" fill="#126ca4" stroke="#126ca4" stroke-width="1.51"/><path d="M1740,780L1740,900L1860,780Z" fill="#1871a7" stroke="#1871a7" stroke-width="1.51"/><path d="M1740,780L1860,780L1860,660Z" fill="#2176a9" stroke="#2176a9" stroke-width="1.51"/><path d="M1740,660L1740,780L1860,660Z" fill="#2b79ac" stroke="#2b79ac" stroke-width="1.51"/><path d="M1740,660L1860,660L1860,540Z" fill="#3b7dad" stroke="#3b7dad" stroke-width="1.51"/><path d="M1740,540L1740,660L1860,540Z" fill="#4281b1" stroke="#4281b1" stroke-width="1.51"/><path d="M1740,540L1860,540L1860,420Z" fill="#4e84b1" stroke="#4e84b1" stroke-width="1.51"/><path d="M1740,420L1740,540L1860,420Z" fill="#5587b5" stroke="#5587b5" stroke-width="1.51"/><path d="M1740,420L1860,420L1860,300Z" fill="#6089b5" stroke="#6089b5" stroke-width="1.51"/><path d="M1740,300L1740,420L1860,300Z" fill="#668db8" stroke="#668db8" stroke-width="1.51"/><path d="M1740,300L1860,300L1860,180Z" fill="#6f90b9" stroke="#6f90b9" stroke-width="1.51"/><path d="M1740,180L1740,300L1860,180Z" fill="#7493bc" stroke="#7493bc" stroke-width="1.51"/><path d="M1740,180L1860,180L1860,60Z" fill="#7c95bc" stroke="#7c95bc" stroke-width="1.51"/><path d="M1740,60L1740,180L1860,60Z" fill="#8099bf" stroke="#8099bf" stroke-width="1.51"/><path d="M1740,60L1860,60L1860,-60Z" fill="#859cbf" stroke="#859cbf" stroke-width="1.51"/><path d="M1740,-60L1740,60L1860,-60Z" fill="#899fc3" stroke="#899fc3" stroke-width="1.51"/><path d="M1740,-60L1860,-60L1860,-180Z" fill="#8da1c3" stroke="#8da1c3" stroke-width="1.51"/><path d="M1740,-180L1740,-60L1860,-180Z" fill="#90a4c5" stroke="#90a4c5" stroke-width="1.51"/><path d="M1620,1260L1740,1260L1740,1140Z" fill="#045789" stroke="#045789" stroke-width="1.51"/><path d="M1620,1140L1620,1260L1740,1140Z" fill="#045c91" stroke="#045c91" stroke-width="1.51"/><path d="M1620,1140L1740,1140L1740,1020Z" fill="#046198" stroke="#046198" stroke-width="1.51"/><path d="M1620,1020L1620,1140L1740,1020Z" fill="#04659e" stroke="#04659e" stroke-width="1.51"/><path d="M1620,1020L1740,1020L1740,900Z" fill="#0568a3" stroke="#0568a3" stroke-width="1.51"/><path d="M1620,900L1620,1020L1740,900Z" fill="#056ca9" stroke="#056ca9" stroke-width="1.51"/><path d="M1620,900L1740,900L1740,780Z" fill="#1370aa" stroke="#1370aa" stroke-width="1.51"/><path d="M1620,780L1620,900L1740,780Z" fill="#1a75ae" stroke="#1a75ae" stroke-width="1.51"/><path d="M1620,780L1740,780L1740,660Z" fill="#227aaf" stroke="#227aaf" stroke-width="1.51"/><path d="M1620,660L1620,780L1740,660Z" fill="#2d7eb3" stroke="#2d7eb3" stroke-width="1.51"/><path d="M1620,660L1740,660L1740,540Z" fill="#3c82b4" stroke="#3c82b4" stroke-width="1.51"/><path d="M1620,540L1620,660L1740,540Z" fill="#4486b8" stroke="#4486b8" stroke-width="1.51"/><path d="M1620,540L1740,540L1740,420Z" fill="#5189b8" stroke="#5189b8" stroke-width="1.51"/><path d="M1620,420L1620,540L1740,420Z" fill="#578cbc" stroke="#578cbc" stroke-width="1.51"/><path d="M1620,420L1740,420L1740,300Z" fill="#628ebc" stroke="#628ebc" stroke-width="1.51"/><path d="M1620,300L1620,420L1740,300Z" fill="#6992bf" stroke="#6992bf" stroke-width="1.51"/><path d="M1620,300L1740,300L1740,180Z" fill="#7294bf" stroke="#7294bf" stroke-width="1.51"/><path d="M1620,180L1620,300L1740,180Z" fill="#7798c3" stroke="#7798c3" stroke-width="1.51"/><path d="M1620,180L1740,180L1740,60Z" fill="#7f9ac3" stroke="#7f9ac3" stroke-width="1.51"/><path d="M1620,60L1620,180L1740,60Z" fill="#839ec6" stroke="#839ec6" stroke-width="1.51"/><path d="M1620,60L1740,60L1740,-60Z" fill="#88a1c6" stroke="#88a1c6" stroke-width="1.51"/><path d="M1620,-60L1620,60L1740,-60Z" fill="#8ca4ca" stroke="#8ca4ca" stroke-width="1.51"/><path d="M1620,-60L1740,-60L1740,-180Z" fill="#90a6ca" stroke="#90a6ca" stroke-width="1.51"/><path d="M1620,-180L1620,-60L1740,-180Z" fill="#93a9cd" stroke="#93a9cd" stroke-width="1.51"/><path d="M1500,1260L1620,1260L1620,1140Z" fill="#045c90" stroke="#045c90" stroke-width="1.51"/><path d="M1500,1140L1500,1260L1620,1140Z" fill="#076197" stroke="#076197" stroke-width="1.51"/><path d="M1500,1140L1620,1140L1620,1020Z" fill="#05669f" stroke="#05669f" stroke-width="1.51"/><path d="M1500,1020L1500,1140L1620,1020Z" fill="#0869a5" stroke="#0869a5" stroke-width="1.51"/><path d="M1500,1020L1620,1020L1620,900Z" fill="#056caa" stroke="#056caa" stroke-width="1.51"/><path d="M1500,900L1500,1020L1620,900Z" fill="#0970af" stroke="#0970af" stroke-width="1.51"/><path d="M1500,900L1620,900L1620,780Z" fill="#1475b2" stroke="#1475b2" stroke-width="1.51"/><path d="M1500,780L1500,900L1620,780Z" fill="#1c7ab5" stroke="#1c7ab5" stroke-width="1.51"/><path d="M1500,780L1620,780L1620,660Z" fill="#247fb7" stroke="#247fb7" stroke-width="1.51"/><path d="M1500,660L1500,780L1620,660Z" fill="#2f83ba" stroke="#2f83ba" stroke-width="1.51"/><path d="M1500,660L1620,660L1620,540Z" fill="#3e87bc" stroke="#3e87bc" stroke-width="1.51"/><path d="M1500,540L1500,660L1620,540Z" fill="#468bbf" stroke="#468bbf" stroke-width="1.51"/><path d="M1500,540L1620,540L1620,420Z" fill="#538dc0" stroke="#538dc0" stroke-width="1.51"/><path d="M1500,420L1500,540L1620,420Z" fill="#5a91c3" stroke="#5a91c3" stroke-width="1.51"/><path d="M1500,420L1620,420L1620,300Z" fill="#6593c4" stroke="#6593c4" stroke-width="1.51"/><path d="M1500,300L1500,420L1620,300Z" fill="#6c97c6" stroke="#6c97c6" stroke-width="1.51"/><path d="M1500,300L1620,300L1620,180Z" fill="#7599c7" stroke="#7599c7" stroke-width="1.51"/><path d="M1500,180L1500,300L1620,180Z" fill="#7a9dca" stroke="#7a9dca" stroke-width="1.51"/><path d="M1500,180L1620,180L1620,60Z" fill="#829fcb" stroke="#829fcb" stroke-width="1.51"/><path d="M1500,60L1500,180L1620,60Z" fill="#86a3cd" stroke="#86a3cd" stroke-width="1.51"/><path d="M1500,60L1620,60L1620,-60Z" fill="#8ca5ce" stroke="#8ca5ce" stroke-width="1.51"/><path d="M1500,-60L1500,60L1620,-60Z" fill="#8fa9d1" stroke="#8fa9d1" stroke-width="1.51"/><path d="M1500,-60L1620,-60L1620,-180Z" fill="#93abd2" stroke="#93abd2" stroke-width="1.51"/><path d="M1500,-180L1500,-60L1620,-180Z" fill="#96aed4" stroke="#96aed4" stroke-width="1.51"/><path d="M1380,1260L1500,1260L1500,1140Z" fill="#106193" stroke="#106193" stroke-width="1.51"/><path d="M1380,1140L1380,1260L1500,1140Z" fill="#14679a" stroke="#14679a" stroke-width="1.51"/><path d="M1380,1140L1500,1140L1500,1020Z" fill="#126ba3" stroke="#126ba3" stroke-width="1.51"/><path d="M1380,1020L1380,1140L1500,1020Z" fill="#1670a8" stroke="#1670a8" stroke-width="1.51"/><path d="M1380,1020L1500,1020L1500,900Z" fill="#1372ae" stroke="#1372ae" stroke-width="1.51"/><path d="M1380,900L1380,1020L1500,900Z" fill="#1877b2" stroke="#1877b2" stroke-width="1.51"/><path d="M1380,900L1500,900L1500,780Z" fill="#1e7ab5" stroke="#1e7ab5" stroke-width="1.51"/><path d="M1380,780L1380,900L1500,780Z" fill="#2580b8" stroke="#2580b8" stroke-width="1.51"/><path d="M1380,780L1500,780L1500,660Z" fill="#2a84bb" stroke="#2a84bb" stroke-width="1.51"/><path d="M1380,660L1380,780L1500,660Z" fill="#3589bd" stroke="#3589bd" stroke-width="1.51"/><path d="M1380,660L1500,660L1500,540Z" fill="#438cbf" stroke="#438cbf" stroke-width="1.51"/><path d="M1380,540L1380,660L1500,540Z" fill="#4b91c2" stroke="#4b91c2" stroke-width="1.51"/><path d="M1380,540L1500,540L1500,420Z" fill="#5793c3" stroke="#5793c3" stroke-width="1.51"/><path d="M1380,420L1380,540L1500,420Z" fill="#5f98c6" stroke="#5f98c6" stroke-width="1.51"/><path d="M1380,420L1500,420L1500,300Z" fill="#6999c7" stroke="#6999c7" stroke-width="1.51"/><path d="M1380,300L1380,420L1500,300Z" fill="#709ec9" stroke="#709ec9" stroke-width="1.51"/><path d="M1380,300L1500,300L1500,180Z" fill="#799fcb" stroke="#799fcb" stroke-width="1.51"/><path d="M1380,180L1380,300L1500,180Z" fill="#7fa4cd" stroke="#7fa4cd" stroke-width="1.51"/><path d="M1380,180L1500,180L1500,60Z" fill="#86a5ce" stroke="#86a5ce" stroke-width="1.51"/><path d="M1380,60L1380,180L1500,60Z" fill="#8baad0" stroke="#8baad0" stroke-width="1.51"/><path d="M1380,60L1500,60L1500,-60Z" fill="#90abd2" stroke="#90abd2" stroke-width="1.51"/><path d="M1380,-60L1380,60L1500,-60Z" fill="#94b0d4" stroke="#94b0d4" stroke-width="1.51"/><path d="M1380,-60L1500,-60L1500,-180Z" fill="#97b1d5" stroke="#97b1d5" stroke-width="1.51"/><path d="M1380,-180L1380,-60L1500,-180Z" fill="#9ab5d7" stroke="#9ab5d7" stroke-width="1.51"/><path d="M1260,1260L1380,1260L1380,1140Z" fill="#1a6797" stroke="#1a6797" stroke-width="1.51"/><path d="M1260,1140L1260,1260L1380,1140Z" fill="#1d6d9d" stroke="#1d6d9d" stroke-width="1.51"/><path d="M1260,1140L1380,1140L1380,1020Z" fill="#1c72a6" stroke="#1c72a6" stroke-width="1.51"/><path d="M1260,1020L1260,1140L1380,1020Z" fill="#2076ab" stroke="#2076ab" stroke-width="1.51"/><path d="M1260,1020L1380,1020L1380,900Z" fill="#1e78b1" stroke="#1e78b1" stroke-width="1.51"/><path d="M1260,900L1260,1020L1380,900Z" fill="#227db6" stroke="#227db6" stroke-width="1.51"/><path d="M1260,900L1380,900L1380,780Z" fill="#2681b9" stroke="#2681b9" stroke-width="1.51"/><path d="M1260,780L1260,900L1380,780Z" fill="#2d87bc" stroke="#2d87bc" stroke-width="1.51"/><path d="M1260,780L1380,780L1380,660Z" fill="#318bbe" stroke="#318bbe" stroke-width="1.51"/><path d="M1260,660L1260,780L1380,660Z" fill="#3b90c0" stroke="#3b90c0" stroke-width="1.51"/><path d="M1260,660L1380,660L1380,540Z" fill="#4893c3" stroke="#4893c3" stroke-width="1.51"/><path d="M1260,540L1260,660L1380,540Z" fill="#5198c5" stroke="#5198c5" stroke-width="1.51"/><path d="M1260,540L1380,540L1380,420Z" fill="#5c9ac7" stroke="#5c9ac7" stroke-width="1.51"/><path d="M1260,420L1260,540L1380,420Z" fill="#639ec9" stroke="#639ec9" stroke-width="1.51"/><path d="M1260,420L1380,420L1380,300Z" fill="#6da0cb" stroke="#6da0cb" stroke-width="1.51"/><path d="M1260,300L1260,420L1380,300Z" fill="#75a5cd" stroke="#75a5cd" stroke-width="1.51"/><path d="M1260,300L1380,300L1380,180Z" fill="#7da6ce" stroke="#7da6ce" stroke-width="1.51"/><path d="M1260,180L1260,300L1380,180Z" fill="#83abd0" stroke="#83abd0" stroke-width="1.51"/><path d="M1260,180L1380,180L1380,60Z" fill="#8bacd2" stroke="#8bacd2" stroke-width="1.51"/><path d="M1260,60L1260,180L1380,60Z" fill="#8fb1d4" stroke="#8fb1d4" stroke-width="1.51"/><path d="M1260,60L1380,60L1380,-60Z" fill="#94b2d5" stroke="#94b2d5" stroke-width="1.51"/><path d="M1260,-60L1260,60L1380,-60Z" fill="#98b7d7" stroke="#98b7d7" stroke-width="1.51"/><path d="M1260,-60L1380,-60L1380,-180Z" fill="#9bb8d9" stroke="#9bb8d9" stroke-width="1.51"/><path d="M1260,-180L1260,-60L1380,-180Z" fill="#9fbcda" stroke="#9fbcda" stroke-width="1.51"/><path d="M1140,1260L1260,1260L1260,1140Z" fill="#266d9a" stroke="#266d9a" stroke-width="1.51"/><path d="M1140,1140L1140,1260L1260,1140Z" fill="#2c72a0" stroke="#2c72a0" stroke-width="1.51"/><path d="M1140,1140L1260,1140L1260,1020Z" fill="#2977a9" stroke="#2977a9" stroke-width="1.51"/><path d="M1140,1020L1140,1140L1260,1020Z" fill="#2f7bae" stroke="#2f7bae" stroke-width="1.51"/><path d="M1140,1020L1260,1020L1260,900Z" fill="#2b7eb4" stroke="#2b7eb4" stroke-width="1.51"/><path d="M1140,900L1140,1020L1260,900Z" fill="#3183b9" stroke="#3183b9" stroke-width="1.51"/><path d="M1140,900L1260,900L1260,780Z" fill="#3287bc" stroke="#3287bc" stroke-width="1.51"/><path d="M1140,780L1140,900L1260,780Z" fill="#3a8cbf" stroke="#3a8cbf" stroke-width="1.51"/><path d="M1140,780L1260,780L1260,660Z" fill="#3b91c1" stroke="#3b91c1" stroke-width="1.51"/><path d="M1140,660L1140,780L1260,660Z" fill="#4795c4" stroke="#4795c4" stroke-width="1.51"/><path d="M1140,660L1260,660L1260,540Z" fill="#5099c6" stroke="#5099c6" stroke-width="1.51"/><path d="M1140,540L1140,660L1260,540Z" fill="#5a9dc8" stroke="#5a9dc8" stroke-width="1.51"/><path d="M1140,540L1260,540L1260,420Z" fill="#63a0ca" stroke="#63a0ca" stroke-width="1.51"/><path d="M1140,420L1140,540L1260,420Z" fill="#6ca4cc" stroke="#6ca4cc" stroke-width="1.51"/><path d="M1140,420L1260,420L1260,300Z" fill="#74a6cd" stroke="#74a6cd" stroke-width="1.51"/><path d="M1140,300L1140,420L1260,300Z" fill="#7daad0" stroke="#7daad0" stroke-width="1.51"/><path d="M1140,300L1260,300L1260,180Z" fill="#84acd1" stroke="#84acd1" stroke-width="1.51"/><path d="M1140,180L1140,300L1260,180Z" fill="#8bb0d3" stroke="#8bb0d3" stroke-width="1.51"/><path d="M1140,180L1260,180L1260,60Z" fill="#91b2d5" stroke="#91b2d5" stroke-width="1.51"/><path d="M1140,60L1140,180L1260,60Z" fill="#97b7d7" stroke="#97b7d7" stroke-width="1.51"/><path d="M1140,60L1260,60L1260,-60Z" fill="#9ab9d8" stroke="#9ab9d8" stroke-width="1.51"/><path d="M1140,-60L1140,60L1260,-60Z" fill="#a0bdda" stroke="#a0bdda" stroke-width="1.51"/><path d="M1140,-60L1260,-60L1260,-180Z" fill="#a1bedc" stroke="#a1bedc" stroke-width="1.51"/><path d="M1140,-180L1140,-60L1260,-180Z" fill="#a6c2dd" stroke="#a6c2dd" stroke-width="1.51"/><path d="M1020,1260L1140,1260L1140,1140Z" fill="#35729c" stroke="#35729c" stroke-width="1.51"/><path d="M1020,1140L1020,1260L1140,1140Z" fill="#3a77a3" stroke="#3a77a3" stroke-width="1.51"/><path d="M1020,1140L1140,1140L1140,1020Z" fill="#397cac" stroke="#397cac" stroke-width="1.51"/><path d="M1020,1020L1020,1140L1140,1020Z" fill="#3e80b1" stroke="#3e80b1" stroke-width="1.51"/><path d="M1020,1020L1140,1020L1140,900Z" fill="#3c83b7" stroke="#3c83b7" stroke-width="1.51"/><path d="M1020,900L1020,1020L1140,900Z" fill="#4188bc" stroke="#4188bc" stroke-width="1.51"/><path d="M1020,900L1140,900L1140,780Z" fill="#428cbf" stroke="#428cbf" stroke-width="1.51"/><path d="M1020,780L1020,900L1140,780Z" fill="#4991c2" stroke="#4991c2" stroke-width="1.51"/><path d="M1020,780L1140,780L1140,660Z" fill="#4a96c4" stroke="#4a96c4" stroke-width="1.51"/><path d="M1020,660L1020,780L1140,660Z" fill="#549ac7" stroke="#549ac7" stroke-width="1.51"/><path d="M1020,660L1140,660L1140,540Z" fill="#5d9ec9" stroke="#5d9ec9" stroke-width="1.51"/><path d="M1020,540L1020,660L1140,540Z" fill="#66a2cb" stroke="#66a2cb" stroke-width="1.51"/><path d="M1020,540L1140,540L1140,420Z" fill="#6ea5cd" stroke="#6ea5cd" stroke-width="1.51"/><path d="M1020,420L1020,540L1140,420Z" fill="#76a9cf" stroke="#76a9cf" stroke-width="1.51"/><path d="M1020,420L1140,420L1140,300Z" fill="#7eabd0" stroke="#7eabd0" stroke-width="1.51"/><path d="M1020,300L1020,420L1140,300Z" fill="#86afd3" stroke="#86afd3" stroke-width="1.51"/><path d="M1020,300L1140,300L1140,180Z" fill="#8db1d4" stroke="#8db1d4" stroke-width="1.51"/><path d="M1020,180L1020,300L1140,180Z" fill="#94b5d6" stroke="#94b5d6" stroke-width="1.51"/><path d="M1020,180L1140,180L1140,60Z" fill="#9ab7d8" stroke="#9ab7d8" stroke-width="1.51"/><path d="M1020,60L1020,180L1140,60Z" fill="#a0bcda" stroke="#a0bcda" stroke-width="1.51"/><path d="M1020,60L1140,60L1140,-60Z" fill="#a3bedb" stroke="#a3bedb" stroke-width="1.51"/><path d="M1020,-60L1020,60L1140,-60Z" fill="#a9c2dd" stroke="#a9c2dd" stroke-width="1.51"/><path d="M1020,-60L1140,-60L1140,-180Z" fill="#abc3df" stroke="#abc3df" stroke-width="1.51"/><path d="M1020,-180L1020,-60L1140,-180Z" fill="#afc7e0" stroke="#afc7e0" stroke-width="1.51"/><path d="M900,1260L1020,1260L1020,1140Z" fill="#42769f" stroke="#42769f" stroke-width="1.51"/><path d="M900,1140L900,1260L1020,1140Z" fill="#477ba6" stroke="#477ba6" stroke-width="1.51"/><path d="M900,1140L1020,1140L1020,1020Z" fill="#4681af" stroke="#4681af" stroke-width="1.51"/><path d="M900,1020L900,1140L1020,1020Z" fill="#4b84b4" stroke="#4b84b4" stroke-width="1.51"/><path d="M900,1020L1020,1020L1020,900Z" fill="#4988ba" stroke="#4988ba" stroke-width="1.51"/><path d="M900,900L900,1020L1020,900Z" fill="#4e8cbf" stroke="#4e8cbf" stroke-width="1.51"/><path d="M900,900L1020,900L1020,780Z" fill="#4f91c2" stroke="#4f91c2" stroke-width="1.51"/><path d="M900,780L900,900L1020,780Z" fill="#5696c5" stroke="#5696c5" stroke-width="1.51"/><path d="M900,780L1020,780L1020,660Z" fill="#579bc7" stroke="#579bc7" stroke-width="1.51"/><path d="M900,660L900,780L1020,660Z" fill="#609fca" stroke="#609fca" stroke-width="1.51"/><path d="M900,660L1020,660L1020,540Z" fill="#68a3cb" stroke="#68a3cb" stroke-width="1.51"/><path d="M900,540L900,660L1020,540Z" fill="#71a7ce" stroke="#71a7ce" stroke-width="1.51"/><path d="M900,540L1020,540L1020,420Z" fill="#78aad0" stroke="#78aad0" stroke-width="1.51"/><path d="M900,420L900,540L1020,420Z" fill="#81add2" stroke="#81add2" stroke-width="1.51"/><path d="M900,420L1020,420L1020,300Z" fill="#88b0d3" stroke="#88b0d3" stroke-width="1.51"/><path d="M900,300L900,420L1020,300Z" fill="#90b4d6" stroke="#90b4d6" stroke-width="1.51"/><path d="M900,300L1020,300L1020,180Z" fill="#97b6d7" stroke="#97b6d7" stroke-width="1.51"/><path d="M900,180L900,300L1020,180Z" fill="#9ebad9" stroke="#9ebad9" stroke-width="1.51"/><path d="M900,180L1020,180L1020,60Z" fill="#a3bcdb" stroke="#a3bcdb" stroke-width="1.51"/><path d="M900,60L900,180L1020,60Z" fill="#a9c0dd" stroke="#a9c0dd" stroke-width="1.51"/><path d="M900,60L1020,60L1020,-60Z" fill="#acc3de" stroke="#acc3de" stroke-width="1.51"/><path d="M900,-60L900,60L1020,-60Z" fill="#b2c7e0" stroke="#b2c7e0" stroke-width="1.51"/><path d="M900,-60L1020,-60L1020,-180Z" fill="#b4c9e2" stroke="#b4c9e2" stroke-width="1.51"/><path d="M900,-180L900,-60L1020,-180Z" fill="#b9cce3" stroke="#b9cce3" stroke-width="1.51"/><path d="M780,1260L900,1260L900,1140Z" fill="#4d7aa2" stroke="#4d7aa2" stroke-width="1.51"/><path d="M780,1140L780,1260L900,1140Z" fill="#527fa9" stroke="#527fa9" stroke-width="1.51"/><path d="M780,1140L900,1140L900,1020Z" fill="#5285b2" stroke="#5285b2" stroke-width="1.51"/><path d="M780,1020L780,1140L900,1020Z" fill="#5788b7" stroke="#5788b7" stroke-width="1.51"/><path d="M780,1020L900,1020L900,900Z" fill="#568cbd" stroke="#568cbd" stroke-width="1.51"/><path d="M780,900L780,1020L900,900Z" fill="#5a90c2" stroke="#5a90c2" stroke-width="1.51"/><path d="M780,900L900,900L900,780Z" fill="#5c95c5" stroke="#5c95c5" stroke-width="1.51"/><path d="M780,780L780,900L900,780Z" fill="#619ac7" stroke="#619ac7" stroke-width="1.51"/><path d="M780,780L900,780L900,660Z" fill="#639fca" stroke="#639fca" stroke-width="1.51"/><path d="M780,660L780,780L900,660Z" fill="#6ba3cc" stroke="#6ba3cc" stroke-width="1.51"/><path d="M780,660L900,660L900,540Z" fill="#73a7ce" stroke="#73a7ce" stroke-width="1.51"/><path d="M780,540L780,660L900,540Z" fill="#7babd0" stroke="#7babd0" stroke-width="1.51"/><path d="M780,540L900,540L900,420Z" fill="#83aed2" stroke="#83aed2" stroke-width="1.51"/><path d="M780,420L780,540L900,420Z" fill="#8bb2d4" stroke="#8bb2d4" stroke-width="1.51"/><path d="M780,420L900,420L900,300Z" fill="#92b4d6" stroke="#92b4d6" stroke-width="1.51"/><path d="M780,300L780,420L900,300Z" fill="#9ab8d8" stroke="#9ab8d8" stroke-width="1.51"/><path d="M780,300L900,300L900,180Z" fill="#a0bbda" stroke="#a0bbda" stroke-width="1.51"/><path d="M780,180L780,300L900,180Z" fill="#a7bedc" stroke="#a7bedc" stroke-width="1.51"/><path d="M780,180L900,180L900,60Z" fill="#adc1dd" stroke="#adc1dd" stroke-width="1.51"/><path d="M780,60L780,180L900,60Z" fill="#b2c4df" stroke="#b2c4df" stroke-width="1.51"/><path d="M780,60L900,60L900,-60Z" fill="#b6c8e1" stroke="#b6c8e1" stroke-width="1.51"/><path d="M780,-60L780,60L900,-60Z" fill="#bbcbe3" stroke="#bbcbe3" stroke-width="1.51"/><path d="M780,-60L900,-60L900,-180Z" fill="#bdcde4" stroke="#bdcde4" stroke-width="1.51"/><path d="M780,-180L780,-60L900,-180Z" fill="#c2d0e6" stroke="#c2d0e6" stroke-width="1.51"/><path d="M660,1260L780,1260L780,1140Z" fill="#587ea4" stroke="#587ea4" stroke-width="1.51"/><path d="M660,1140L660,1260L780,1140Z" fill="#5e83ab" stroke="#5e83ab" stroke-width="1.51"/><path d="M660,1140L780,1140L780,1020Z" fill="#5d89b4" stroke="#5d89b4" stroke-width="1.51"/><path d="M660,1020L660,1140L780,1020Z" fill="#638cb9" stroke="#638cb9" stroke-width="1.51"/><path d="M660,1020L780,1020L780,900Z" fill="#6190bf" stroke="#6190bf" stroke-width="1.51"/><path d="M660,900L660,1020L780,900Z" fill="#6693c4" stroke="#6693c4" stroke-width="1.51"/><path d="M660,900L780,900L780,780Z" fill="#6799c7" stroke="#6799c7" stroke-width="1.51"/><path d="M660,780L660,900L780,780Z" fill="#6d9dc9" stroke="#6d9dc9" stroke-width="1.51"/><path d="M660,780L780,780L780,660Z" fill="#6ea3cc" stroke="#6ea3cc" stroke-width="1.51"/><path d="M660,660L660,780L780,660Z" fill="#77a7ce" stroke="#77a7ce" stroke-width="1.51"/><path d="M660,660L780,660L780,540Z" fill="#7dabd1" stroke="#7dabd1" stroke-width="1.51"/><path d="M660,540L660,660L780,540Z" fill="#86afd3" stroke="#86afd3" stroke-width="1.51"/><path d="M660,540L780,540L780,420Z" fill="#8cb2d4" stroke="#8cb2d4" stroke-width="1.51"/><path d="M660,420L660,540L780,420Z" fill="#95b5d7" stroke="#95b5d7" stroke-width="1.51"/><path d="M660,420L780,420L780,300Z" fill="#9bb9d8" stroke="#9bb9d8" stroke-width="1.51"/><path d="M660,300L660,420L780,300Z" fill="#a4bcda" stroke="#a4bcda" stroke-width="1.51"/><path d="M660,300L780,300L780,180Z" fill="#a9bfdc" stroke="#a9bfdc" stroke-width="1.51"/><path d="M660,180L660,300L780,180Z" fill="#b1c2de" stroke="#b1c2de" stroke-width="1.51"/><path d="M660,180L780,180L780,60Z" fill="#b6c5e0" stroke="#b6c5e0" stroke-width="1.51"/><path d="M660,60L660,180L780,60Z" fill="#bcc8e1" stroke="#bcc8e1" stroke-width="1.51"/><path d="M660,60L780,60L780,-60Z" fill="#bfcce3" stroke="#bfcce3" stroke-width="1.51"/><path d="M660,-60L660,60L780,-60Z" fill="#c4cfe5" stroke="#c4cfe5" stroke-width="1.51"/><path d="M660,-60L780,-60L780,-180Z" fill="#c6d1e6" stroke="#c6d1e6" stroke-width="1.51"/><path d="M660,-180L660,-60L780,-180Z" fill="#cbd4e8" stroke="#cbd4e8" stroke-width="1.51"/><path d="M540,1260L660,1260L660,1140Z" fill="#6282a6" stroke="#6282a6" stroke-width="1.51"/><path d="M540,1140L540,1260L660,1140Z" fill="#6787ad" stroke="#6787ad" stroke-width="1.51"/><path d="M540,1140L660,1140L660,1020Z" fill="#688db6" stroke="#688db6" stroke-width="1.51"/><path d="M540,1020L540,1140L660,1020Z" fill="#6c90bb" stroke="#6c90bb" stroke-width="1.51"/><path d="M540,1020L660,1020L660,900Z" fill="#6c94c1" stroke="#6c94c1" stroke-width="1.51"/><path d="M540,900L540,1020L660,900Z" fill="#7097c6" stroke="#7097c6" stroke-width="1.51"/><path d="M540,900L660,900L660,780Z" fill="#729dc9" stroke="#729dc9" stroke-width="1.51"/><path d="M540,780L540,900L660,780Z" fill="#77a1cc" stroke="#77a1cc" stroke-width="1.51"/><path d="M540,780L660,780L660,660Z" fill="#79a7ce" stroke="#79a7ce" stroke-width="1.51"/><path d="M540,660L540,780L660,660Z" fill="#80abd1" stroke="#80abd1" stroke-width="1.51"/><path d="M540,660L660,660L660,540Z" fill="#87afd3" stroke="#87afd3" stroke-width="1.51"/><path d="M540,540L540,660L660,540Z" fill="#8fb3d5" stroke="#8fb3d5" stroke-width="1.51"/><path d="M540,540L660,540L660,420Z" fill="#96b6d7" stroke="#96b6d7" stroke-width="1.51"/><path d="M540,420L540,540L660,420Z" fill="#9db9d9" stroke="#9db9d9" stroke-width="1.51"/><path d="M540,420L660,420L660,300Z" fill="#a5bcdb" stroke="#a5bcdb" stroke-width="1.51"/><path d="M540,300L540,420L660,300Z" fill="#acc0dc" stroke="#acc0dc" stroke-width="1.51"/><path d="M540,300L660,300L660,180Z" fill="#b3c3de" stroke="#b3c3de" stroke-width="1.51"/><path d="M540,180L540,300L660,180Z" fill="#b9c6e0" stroke="#b9c6e0" stroke-width="1.51"/><path d="M540,180L660,180L660,60Z" fill="#bfc9e1" stroke="#bfc9e1" stroke-width="1.51"/><path d="M540,60L540,180L660,60Z" fill="#c4cce4" stroke="#c4cce4" stroke-width="1.51"/><path d="M540,60L660,60L660,-60Z" fill="#c8d0e5" stroke="#c8d0e5" stroke-width="1.51"/><path d="M540,-60L540,60L660,-60Z" fill="#cdd3e7" stroke="#cdd3e7" stroke-width="1.51"/><path d="M540,-60L660,-60L660,-180Z" fill="#cfd5e8" stroke="#cfd5e8" stroke-width="1.51"/><path d="M540,-180L540,-60L660,-180Z" fill="#d3d8ea" stroke="#d3d8ea" stroke-width="1.51"/><path d="M420,1260L540,1260L540,1140Z" fill="#6b86a9" stroke="#6b86a9" stroke-width="1.51"/><path d="M420,1140L420,1260L540,1140Z" fill="#708aaf" stroke="#708aaf" stroke-width="1.51"/><path d="M420,1140L540,1140L540,1020Z" fill="#7191b8" stroke="#7191b8" stroke-width="1.51"/><path d="M420,1020L420,1140L540,1020Z" fill="#7694bd" stroke="#7694bd" stroke-width="1.51"/><path d="M420,1020L540,1020L540,900Z" fill="#7697c4" stroke="#7697c4" stroke-width="1.51"/><path d="M420,900L420,1020L540,900Z" fill="#7a9bc8" stroke="#7a9bc8" stroke-width="1.51"/><path d="M420,900L540,900L540,780Z" fill="#7ba1cc" stroke="#7ba1cc" stroke-width="1.51"/><path d="M420,780L420,900L540,780Z" fill="#80a5ce" stroke="#80a5ce" stroke-width="1.51"/><path d="M420,780L540,780L540,660Z" fill="#82abd1" stroke="#82abd1" stroke-width="1.51"/><path d="M420,660L420,780L540,660Z" fill="#8aafd3" stroke="#8aafd3" stroke-width="1.51"/><path d="M420,660L540,660L540,540Z" fill="#91b3d5" stroke="#91b3d5" stroke-width="1.51"/><path d="M420,540L420,660L540,540Z" fill="#98b7d7" stroke="#98b7d7" stroke-width="1.51"/><path d="M420,540L540,540L540,420Z" fill="#9fbad9" stroke="#9fbad9" stroke-width="1.51"/><path d="M420,420L420,540L540,420Z" fill="#a6bddb" stroke="#a6bddb" stroke-width="1.51"/><path d="M420,420L540,420L540,300Z" fill="#adc0dd" stroke="#adc0dd" stroke-width="1.51"/><path d="M420,300L420,420L540,300Z" fill="#b5c4df" stroke="#b5c4df" stroke-width="1.51"/><path d="M420,300L540,300L540,180Z" fill="#bbc7e1" stroke="#bbc7e1" stroke-width="1.51"/><path d="M420,180L420,300L540,180Z" fill="#c2cae2" stroke="#c2cae2" stroke-width="1.51"/><path d="M420,180L540,180L540,60Z" fill="#c7cde4" stroke="#c7cde4" stroke-width="1.51"/><path d="M420,60L420,180L540,60Z" fill="#cdd0e6" stroke="#cdd0e6" stroke-width="1.51"/><path d="M420,60L540,60L540,-60Z" fill="#d0d4e8" stroke="#d0d4e8" stroke-width="1.51"/><path d="M420,-60L420,60L540,-60Z" fill="#d5d7e9" stroke="#d5d7e9" stroke-width="1.51"/><path d="M420,-60L540,-60L540,-180Z" fill="#d7d9eb" stroke="#d7d9eb" stroke-width="1.51"/><path d="M420,-180L420,-60L540,-180Z" fill="#dcdcec" stroke="#dcdcec" stroke-width="1.51"/><path d="M300,1260L420,1260L420,1140Z" fill="#7389ab" stroke="#7389ab" stroke-width="1.51"/><path d="M300,1140L300,1260L420,1140Z" fill="#788eb1" stroke="#788eb1" stroke-width="1.51"/><path d="M300,1140L420,1140L420,1020Z" fill="#7a94ba" stroke="#7a94ba" stroke-width="1.51"/><path d="M300,1020L300,1140L420,1020Z" fill="#7e97c0" stroke="#7e97c0" stroke-width="1.51"/><path d="M300,1020L420,1020L420,900Z" fill="#7e9bc6" stroke="#7e9bc6" stroke-width="1.51"/><path d="M300,900L300,1020L420,900Z" fill="#839fcb" stroke="#839fcb" stroke-width="1.51"/><path d="M300,900L420,900L420,780Z" fill="#84a4ce" stroke="#84a4ce" stroke-width="1.51"/><path d="M300,780L300,900L420,780Z" fill="#89a9d0" stroke="#89a9d0" stroke-width="1.51"/><path d="M300,780L420,780L420,660Z" fill="#8bafd3" stroke="#8bafd3" stroke-width="1.51"/><path d="M300,660L300,780L420,660Z" fill="#92b3d5" stroke="#92b3d5" stroke-width="1.51"/><path d="M300,660L420,660L420,540Z" fill="#99b7d7" stroke="#99b7d7" stroke-width="1.51"/><path d="M300,540L300,660L420,540Z" fill="#a0bbda" stroke="#a0bbda" stroke-width="1.51"/><path d="M300,540L420,540L420,420Z" fill="#a7bedb" stroke="#a7bedb" stroke-width="1.51"/><path d="M300,420L300,540L420,420Z" fill="#afc1de" stroke="#afc1de" stroke-width="1.51"/><path d="M300,420L420,420L420,300Z" fill="#b5c4df" stroke="#b5c4df" stroke-width="1.51"/><path d="M300,300L300,420L420,300Z" fill="#bdc8e1" stroke="#bdc8e1" stroke-width="1.51"/><path d="M300,300L420,300L420,180Z" fill="#c3cbe3" stroke="#c3cbe3" stroke-width="1.51"/><path d="M300,180L300,300L420,180Z" fill="#cacee4" stroke="#cacee4" stroke-width="1.51"/><path d="M300,180L420,180L420,60Z" fill="#cfd1e6" stroke="#cfd1e6" stroke-width="1.51"/><path d="M300,60L300,180L420,60Z" fill="#d5d4e8" stroke="#d5d4e8" stroke-width="1.51"/><path d="M300,60L420,60L420,-60Z" fill="#d8d8e9" stroke="#d8d8e9" stroke-width="1.51"/><path d="M300,-60L300,60L420,-60Z" fill="#dddbec" stroke="#dddbec" stroke-width="1.51"/><path d="M300,-60L420,-60L420,-180Z" fill="#dfdded" stroke="#dfdded" stroke-width="1.51"/><path d="M300,-180L300,-60L420,-180Z" fill="#e3e0ef" stroke="#e3e0ef" stroke-width="1.51"/><path d="M180,1260L300,1260L300,1140Z" fill="#798dad" stroke="#798dad" stroke-width="1.51"/><path d="M180,1140L180,1260L300,1140Z" fill="#7e92b4" stroke="#7e92b4" stroke-width="1.51"/><path d="M180,1140L300,1140L300,1020Z" fill="#8098bd" stroke="#8098bd" stroke-width="1.51"/><path d="M180,1020L180,1140L300,1020Z" fill="#849cc2" stroke="#849cc2" stroke-width="1.51"/><path d="M180,1020L300,1020L300,900Z" fill="#859fc8" stroke="#859fc8" stroke-width="1.51"/><path d="M180,900L180,1020L300,900Z" fill="#88a3cd" stroke="#88a3cd" stroke-width="1.51"/><path d="M180,900L300,900L300,780Z" fill="#8ba8d0" stroke="#8ba8d0" stroke-width="1.51"/><path d="M180,780L180,900L300,780Z" fill="#8fadd3" stroke="#8fadd3" stroke-width="1.51"/><path d="M180,780L300,780L300,660Z" fill="#91b3d5" stroke="#91b3d5" stroke-width="1.51"/><path d="M180,660L180,780L300,660Z" fill="#98b7d8" stroke="#98b7d8" stroke-width="1.51"/><path d="M180,660L300,660L300,540Z" fill="#9fbbda" stroke="#9fbbda" stroke-width="1.51"/><path d="M180,540L180,660L300,540Z" fill="#a6bfdc" stroke="#a6bfdc" stroke-width="1.51"/><path d="M180,540L300,540L300,420Z" fill="#adc2de" stroke="#adc2de" stroke-width="1.51"/><path d="M180,420L180,540L300,420Z" fill="#b4c6e0" stroke="#b4c6e0" stroke-width="1.51"/><path d="M180,420L300,420L300,300Z" fill="#bbc8e2" stroke="#bbc8e2" stroke-width="1.51"/><path d="M180,300L180,420L300,300Z" fill="#c2cce3" stroke="#c2cce3" stroke-width="1.51"/><path d="M180,300L300,300L300,180Z" fill="#c9cfe5" stroke="#c9cfe5" stroke-width="1.51"/><path d="M180,180L180,300L300,180Z" fill="#cfd2e7" stroke="#cfd2e7" stroke-width="1.51"/><path d="M180,180L300,180L300,60Z" fill="#d5d5e9" stroke="#d5d5e9" stroke-width="1.51"/><path d="M180,60L180,180L300,60Z" fill="#dad9ea" stroke="#dad9ea" stroke-width="1.51"/><path d="M180,60L300,60L300,-60Z" fill="#dedcec" stroke="#dedcec" stroke-width="1.51"/><path d="M180,-60L180,60L300,-60Z" fill="#e3dfee" stroke="#e3dfee" stroke-width="1.51"/><path d="M180,-60L300,-60L300,-180Z" fill="#e5e1ef" stroke="#e5e1ef" stroke-width="1.51"/><path d="M180,-180L180,-60L300,-180Z" fill="#e9e5f1" stroke="#e9e5f1" stroke-width="1.51"/><path d="M60,1260L180,1260L180,1140Z" fill="#7f91af" stroke="#7f91af" stroke-width="1.51"/><path d="M60,1140L60,1260L180,1140Z" fill="#8396b6" stroke="#8396b6" stroke-width="1.51"/><path d="M60,1140L180,1140L180,1020Z" fill="#869cbf" stroke="#869cbf" stroke-width="1.51"/><path d="M60,1020L60,1140L180,1020Z" fill="#8aa0c4" stroke="#8aa0c4" stroke-width="1.51"/><path d="M60,1020L180,1020L180,900Z" fill="#8ba3cb" stroke="#8ba3cb" stroke-width="1.51"/><path d="M60,900L60,1020L180,900Z" fill="#8ea7cf" stroke="#8ea7cf" stroke-width="1.51"/><path d="M60,900L180,900L180,780Z" fill="#91acd3" stroke="#91acd3" stroke-width="1.51"/><path d="M60,780L60,900L180,780Z" fill="#95b2d5" stroke="#95b2d5" stroke-width="1.51"/><path d="M60,780L180,780L180,660Z" fill="#98b7d8" stroke="#98b7d8" stroke-width="1.51"/><path d="M60,660L60,780L180,660Z" fill="#9ebbda" stroke="#9ebbda" stroke-width="1.51"/><path d="M60,660L180,660L180,540Z" fill="#a6c0dc" stroke="#a6c0dc" stroke-width="1.51"/><path d="M60,540L60,660L180,540Z" fill="#acc4de" stroke="#acc4de" stroke-width="1.51"/><path d="M60,540L180,540L180,420Z" fill="#b4c7e0" stroke="#b4c7e0" stroke-width="1.51"/><path d="M60,420L60,540L180,420Z" fill="#bacae2" stroke="#bacae2" stroke-width="1.51"/><path d="M60,420L180,420L180,300Z" fill="#c2cde4" stroke="#c2cde4" stroke-width="1.51"/><path d="M60,300L60,420L180,300Z" fill="#c8d1e6" stroke="#c8d1e6" stroke-width="1.51"/><path d="M60,300L180,300L180,180Z" fill="#cfd3e8" stroke="#cfd3e8" stroke-width="1.51"/><path d="M60,180L60,300L180,180Z" fill="#d5d7e9" stroke="#d5d7e9" stroke-width="1.51"/><path d="M60,180L180,180L180,60Z" fill="#dbd9eb" stroke="#dbd9eb" stroke-width="1.51"/><path d="M60,60L60,180L180,60Z" fill="#dfddec" stroke="#dfddec" stroke-width="1.51"/><path d="M60,60L180,60L180,-60Z" fill="#e4e0ee" stroke="#e4e0ee" stroke-width="1.51"/><path d="M60,-60L60,60L180,-60Z" fill="#e8e4f0" stroke="#e8e4f0" stroke-width="1.51"/><path d="M60,-60L180,-60L180,-180Z" fill="#ebe6f2" stroke="#ebe6f2" stroke-width="1.51"/><path d="M60,-180L60,-60L180,-180Z" fill="#eee9f3" stroke="#eee9f3" stroke-width="1.51"/><path d="M-60,1260L60,1260L60,1140Z" fill="#8495b1" stroke="#8495b1" stroke-width="1.51"/><path d="M-60,1140L-60,1260L60,1140Z" fill="#889ab8" stroke="#889ab8" stroke-width="1.51"/><path d="M-60,1140L60,1140L60,1020Z" fill="#8ba0c1" stroke="#8ba0c1" stroke-width="1.51"/><path d="M-60,1020L-60,1140L60,1020Z" fill="#8ea3c6" stroke="#8ea3c6" stroke-width="1.51"/><path d="M-60,1020L60,1020L60,900Z" fill="#90a7cd" stroke="#90a7cd" stroke-width="1.51"/><path d="M-60,900L-60,1020L60,900Z" fill="#93abd1" stroke="#93abd1" stroke-width="1.51"/><path d="M-60,900L60,900L60,780Z" fill="#96b0d5" stroke="#96b0d5" stroke-width="1.51"/><path d="M-60,780L-60,900L60,780Z" fill="#9ab5d7" stroke="#9ab5d7" stroke-width="1.51"/><path d="M-60,780L60,780L60,660Z" fill="#9dbbda" stroke="#9dbbda" stroke-width="1.51"/><path d="M-60,660L-60,780L60,660Z" fill="#a2bfdc" stroke="#a2bfdc" stroke-width="1.51"/><path d="M-60,660L60,660L60,540Z" fill="#abc3de" stroke="#abc3de" stroke-width="1.51"/><path d="M-60,540L-60,660L60,540Z" fill="#b0c7e0" stroke="#b0c7e0" stroke-width="1.51"/><path d="M-60,540L60,540L60,420Z" fill="#b9cbe2" stroke="#b9cbe2" stroke-width="1.51"/><path d="M-60,420L-60,540L60,420Z" fill="#becee4" stroke="#becee4" stroke-width="1.51"/><path d="M-60,420L60,420L60,300Z" fill="#c7d1e6" stroke="#c7d1e6" stroke-width="1.51"/><path d="M-60,300L-60,420L60,300Z" fill="#ccd4e8" stroke="#ccd4e8" stroke-width="1.51"/><path d="M-60,300L60,300L60,180Z" fill="#d4d7ea" stroke="#d4d7ea" stroke-width="1.51"/><path d="M-60,180L-60,300L60,180Z" fill="#d9daeb" stroke="#d9daeb" stroke-width="1.51"/><path d="M-60,180L60,180L60,60Z" fill="#e0dded" stroke="#e0dded" stroke-width="1.51"/><path d="M-60,60L-60,180L60,60Z" fill="#e4e1ee" stroke="#e4e1ee" stroke-width="1.51"/><path d="M-60,60L60,60L60,-60Z" fill="#e9e4f0" stroke="#e9e4f0" stroke-width="1.51"/><path d="M-60,-60L-60,60L60,-60Z" fill="#ece7f2" stroke="#ece7f2" stroke-width="1.51"/><path d="M-60,-60L60,-60L60,-180Z" fill="#f0eaf4" stroke="#f0eaf4" stroke-width="1.51"/><path d="M-60,-180L-60,-60L60,-180Z" fill="#f3edf5" stroke="#f3edf5" stroke-width="1.51"/><path d="M-180,1260L-60,1260L-60,1140Z" fill="#8898b3" stroke="#8898b3" stroke-width="1.51"/><path d="M-180,1140L-180,1260L-60,1140Z" fill="#8c9dba" stroke="#8c9dba" stroke-width="1.51"/><path d="M-180,1140L-60,1140L-60,1020Z" fill="#8fa3c3" stroke="#8fa3c3" stroke-width="1.51"/><path d="M-180,1020L-180,1140L-60,1020Z" fill="#92a6c8" stroke="#92a6c8" stroke-width="1.51"/><path d="M-180,1020L-60,1020L-60,900Z" fill="#94aacf" stroke="#94aacf" stroke-width="1.51"/><path d="M-180,900L-180,1020L-60,900Z" fill="#97aed3" stroke="#97aed3" stroke-width="1.51"/><path d="M-180,900L-60,900L-60,780Z" fill="#9ab4d7" stroke="#9ab4d7" stroke-width="1.51"/><path d="M-180,780L-180,900L-60,780Z" fill="#9eb8d9" stroke="#9eb8d9" stroke-width="1.51"/><path d="M-180,780L-60,780L-60,660Z" fill="#a1bedc" stroke="#a1bedc" stroke-width="1.51"/><path d="M-180,660L-180,780L-60,660Z" fill="#a7c2de" stroke="#a7c2de" stroke-width="1.51"/><path d="M-180,660L-60,660L-60,540Z" fill="#aec7e0" stroke="#aec7e0" stroke-width="1.51"/><path d="M-180,540L-180,660L-60,540Z" fill="#b4cae2" stroke="#b4cae2" stroke-width="1.51"/><path d="M-180,540L-60,540L-60,420Z" fill="#bccee4" stroke="#bccee4" stroke-width="1.51"/><path d="M-180,420L-180,540L-60,420Z" fill="#c2d1e6" stroke="#c2d1e6" stroke-width="1.51"/><path d="M-180,420L-60,420L-60,300Z" fill="#cad4e8" stroke="#cad4e8" stroke-width="1.51"/><path d="M-180,300L-180,420L-60,300Z" fill="#d0d8e9" stroke="#d0d8e9" stroke-width="1.51"/><path d="M-180,300L-60,300L-60,180Z" fill="#d8dbeb" stroke="#d8dbeb" stroke-width="1.51"/><path d="M-180,180L-180,300L-60,180Z" fill="#dddeed" stroke="#dddeed" stroke-width="1.51"/><path d="M-180,180L-60,180L-60,60Z" fill="#e3e1ef" stroke="#e3e1ef" stroke-width="1.51"/><path d="M-180,60L-180,180L-60,60Z" fill="#e8e4f0" stroke="#e8e4f0" stroke-width="1.51"/><path d="M-180,60L-60,60L-60,-60Z" fill="#ece8f2" stroke="#ece8f2" stroke-width="1.51"/><path d="M-180,-60L-180,60L-60,-60Z" fill="#f0ebf4" stroke="#f0ebf4" stroke-width="1.51"/><path d="M-180,-60L-60,-60L-60,-180Z" fill="#f3edf6" stroke="#f3edf6" stroke-width="1.51"/><path d="M-180,-180L-180,-60L-60,-180Z" fill="#f7f0f7" stroke="#f7f0f7" stroke-width="1.51"/></svg>