<svg xmlns="http://www.w3.org/2000/svg" width="1920" height="1080"><path d="M1957,1395L2242,1395L2242,1110Z" fill="#9e3304" stroke="#9e3304" stroke-width="1.51"/><path d="M1957,1110L1957,1395L2242,1110Z" fill="#ad3803" stroke="#ad3803" stroke-width="1.51"/><path d="M1957,1110L2242,1110L2242,825Z" fill="#b93e03" stroke="#b93e03" stroke-width="1.51"/><path d="M1957,825L1957,1110L2242,825Z" fill="#c34605" stroke="#c34605" stroke-width="1.51"/><path d="M1957,825L2242,825L2242,540Z" fill="#c65110" stroke="#c65110" stroke-width="1.51"/><path d="M1957,540L1957,825L2242,540Z" fill="#cd5a18" stroke="#cd5a18" stroke-width="1.51"/><path d="M1957,540L2242,540L2242,255Z" fill="#cb6529" stroke="#cb6529" stroke-width="1.51"/><path d="M1957,255L1957,540L2242,255Z" fill="#d16e32" stroke="#d16e32" stroke-width="1.51"/><path d="M1957,255L2242,255L2242,-30Z" fill="#ce7946" stroke="#ce7946" stroke-width="1.51"/><path d="M1957,-30L1957,255L2242,-30Z" fill="#d48150" stroke="#d48150" stroke-width="1.51"/><path d="M1957,-30L2242,-30L2242,-315Z" fill="#d18860" stroke="#d18860" stroke-width="1.51"/><path d="M1957,-315L1957,-30L2242,-315Z" fill="#d88e68" stroke="#d88e68" stroke-width="1.51"/><path d="M1672,1395L1957,1395L1957,1110Z" fill="#b13903" stroke="#b13903" stroke-width="1.51"/><path d="M1672,1110L1672,1395L1957,1110Z" fill="#c13f03" stroke="#c13f03" stroke-width="1.51"/><path d="M1672,1110L1957,1110L1957,825Z" fill="#cc4402" stroke="#cc4402" stroke-width="1.51"/><path d="M1672,825L1672,1110L1957,825Z" fill="#d74e05" stroke="#d74e05" stroke-width="1.51"/><path d="M1672,825L1957,825L1957,540Z" fill="#d95810" stroke="#d95810" stroke-width="1.51"/><path d="M1672,540L1672,825L1957,540Z" fill="#e2621a" stroke="#e2621a" stroke-width="1.51"/><path d="M1672,540L1957,540L1957,255Z" fill="#df6d2a" stroke="#df6d2a" stroke-width="1.51"/><path d="M1672,255L1672,540L1957,255Z" fill="#e67635" stroke="#e67635" stroke-width="1.51"/><path d="M1672,255L1957,255L1957,-30Z" fill="#e18148" stroke="#e18148" stroke-width="1.51"/><path d="M1672,-30L1672,255L1957,-30Z" fill="#e98a53" stroke="#e98a53" stroke-width="1.51"/><path d="M1672,-30L1957,-30L1957,-315Z" fill="#e59062" stroke="#e59062" stroke-width="1.51"/><path d="M1672,-315L1672,-30L1957,-315Z" fill="#ed976b" stroke="#ed976b" stroke-width="1.51"/><path d="M1387,1395L1672,1395L1672,1110Z" fill="#c14304" stroke="#c14304" stroke-width="1.51"/><path d="M1387,1110L1387,1395L1672,1110Z" fill="#ce4b06" stroke="#ce4b06" stroke-width="1.51"/><path d="M1387,1110L1672,1110L1672,825Z" fill="#dd4e03" stroke="#dd4e03" stroke-width="1.51"/><path d="M1387,825L1387,1110L1672,825Z" fill="#e55909" stroke="#e55909" stroke-width="1.51"/><path d="M1387,825L1672,825L1672,540Z" fill="#ea6213" stroke="#ea6213" stroke-width="1.51"/><path d="M1387,540L1387,825L1672,540Z" fill="#f06d1e" stroke="#f06d1e" stroke-width="1.51"/><path d="M1387,540L1672,540L1672,255Z" fill="#ef772e" stroke="#ef772e" stroke-width="1.51"/><path d="M1387,255L1387,540L1672,255Z" fill="#f38139" stroke="#f38139" stroke-width="1.51"/><path d="M1387,255L1672,255L1672,-30Z" fill="#f28b4c" stroke="#f28b4c" stroke-width="1.51"/><path d="M1387,-30L1387,255L1672,-30Z" fill="#f69558" stroke="#f69558" stroke-width="1.51"/><path d="M1387,-30L1672,-30L1672,-315Z" fill="#f69a67" stroke="#f69a67" stroke-width="1.51"/><path d="M1387,-315L1387,-30L1672,-315Z" fill="#fba271" stroke="#fba271" stroke-width="1.51"/><path d="M1102,1395L1387,1395L1387,1110Z" fill="#ca500c" stroke="#ca500c" stroke-width="1.51"/><path d="M1102,1110L1102,1395L1387,1110Z" fill="#d65913" stroke="#d65913" stroke-width="1.51"/><path d="M1102,1110L1387,1110L1387,825Z" fill="#e75c0d" stroke="#e75c0d" stroke-width="1.51"/><path d="M1102,825L1102,1110L1387,825Z" fill="#ed6717" stroke="#ed6717" stroke-width="1.51"/><path d="M1102,825L1387,825L1387,540Z" fill="#f36f1b" stroke="#f36f1b" stroke-width="1.51"/><path d="M1102,540L1102,825L1387,540Z" fill="#f77b29" stroke="#f77b29" stroke-width="1.51"/><path d="M1102,540L1387,540L1387,255Z" fill="#f98435" stroke="#f98435" stroke-width="1.51"/><path d="M1102,255L1102,540L1387,255Z" fill="#fa8e43" stroke="#fa8e43" stroke-width="1.51"/><path d="M1102,255L1387,255L1387,-30Z" fill="#fb9753" stroke="#fb9753" stroke-width="1.51"/><path d="M1102,-30L1102,255L1387,-30Z" fill="#fda262" stroke="#fda262" stroke-width="1.51"/><path d="M1102,-30L1387,-30L1387,-315Z" fill="#ffa76e" stroke="#ffa76e" stroke-width="1.51"/><path d="M1102,-315L1102,-30L1387,-315Z" fill="#ffaf7a" stroke="#ffaf7a" stroke-width="1.51"/><path d="M817,1395L1102,1395L1102,1110Z" fill="#d05f1d" stroke="#d05f1d" stroke-width="1.51"/><path d="M817,1110L817,1395L1102,1110Z" fill="#da6825" stroke="#da6825" stroke-width="1.51"/><path d="M817,1110L1102,1110L1102,825Z" fill="#ec6b20" stroke="#ec6b20" stroke-width="1.51"/><path d="M817,825L817,1110L1102,825Z" fill="#f17629" stroke="#f17629" stroke-width="1.51"/><path d="M817,825L1102,825L1102,540Z" fill="#f87d2b" stroke="#f87d2b" stroke-width="1.51"/><path d="M817,540L817,825L1102,540Z" fill="#fb8939" stroke="#fb8939" stroke-width="1.51"/><path d="M817,540L1102,540L1102,255Z" fill="#fd9143" stroke="#fd9143" stroke-width="1.51"/><path d="M817,255L817,540L1102,255Z" fill="#fd9c52" stroke="#fd9c52" stroke-width="1.51"/><path d="M817,255L1102,255L1102,-30Z" fill="#ffa460" stroke="#ffa460" stroke-width="1.51"/><path d="M817,-30L817,255L1102,-30Z" fill="#ffb070" stroke="#ffb070" stroke-width="1.51"/><path d="M817,-30L1102,-30L1102,-315Z" fill="#ffb47c" stroke="#ffb47c" stroke-width="1.51"/><path d="M817,-315L817,-30L1102,-315Z" fill="#ffbd89" stroke="#ffbd89" stroke-width="1.51"/><path d="M532,1395L817,1395L817,1110Z" fill="#d16c30" stroke="#d16c30" stroke-width="1.51"/><path d="M532,1110L532,1395L817,1110Z" fill="#db7538" stroke="#db7538" stroke-width="1.51"/><path d="M532,1110L817,1110L817,825Z" fill="#ee7934" stroke="#ee7934" stroke-width="1.51"/><path d="M532,825L532,1110L817,825Z" fill="#f2843d" stroke="#f2843d" stroke-width="1.51"/><path d="M532,825L817,825L817,540Z" fill="#fa8b3f" stroke="#fa8b3f" stroke-width="1.51"/><path d="M532,540L532,825L817,540Z" fill="#fc964c" stroke="#fc964c" stroke-width="1.51"/><path d="M532,540L817,540L817,255Z" fill="#fe9f55" stroke="#fe9f55" stroke-width="1.51"/><path d="M532,255L532,540L817,255Z" fill="#fda964" stroke="#fda964" stroke-width="1.51"/><path d="M532,255L817,255L817,-30Z" fill="#ffb272" stroke="#ffb272" stroke-width="1.51"/><path d="M532,-30L532,255L817,-30Z" fill="#febd82" stroke="#febd82" stroke-width="1.51"/><path d="M532,-30L817,-30L817,-315Z" fill="#ffc18d" stroke="#ffc18d" stroke-width="1.51"/><path d="M532,-315L532,-30L817,-315Z" fill="#ffc99b" stroke="#ffc99b" stroke-width="1.51"/><path d="M247,1395L532,1395L532,1110Z" fill="#d37a45" stroke="#d37a45" stroke-width="1.51"/><path d="M247,1110L247,1395L532,1110Z" fill="#de834d" stroke="#de834d" stroke-width="1.51"/><path d="M247,1110L532,1110L532,825Z" fill="#f08749" stroke="#f08749" stroke-width="1.51"/><path d="M247,825L247,1110L532,825Z" fill="#f59153" stroke="#f59153" stroke-width="1.51"/><path d="M247,825L532,825L532,540Z" fill="#fb9954" stroke="#fb9954" stroke-width="1.51"/><path d="M247,540L247,825L532,540Z" fill="#fea462" stroke="#fea462" stroke-width="1.51"/><path d="M247,540L532,540L532,255Z" fill="#ffac6a" stroke="#ffac6a" stroke-width="1.51"/><path d="M247,255L247,540L532,255Z" fill="#feb77a" stroke="#feb77a" stroke-width="1.51"/><path d="M247,255L532,255L532,-30Z" fill="#febf86" stroke="#febf86" stroke-width="1.51"/><path d="M247,-30L247,255L532,-30Z" fill="#feca98" stroke="#feca98" stroke-width="1.51"/><path d="M247,-30L532,-30L532,-315Z" fill="#ffcea2" stroke="#ffcea2" stroke-width="1.51"/><path d="M247,-315L247,-30L532,-315Z" fill="#ffd7b1" stroke="#ffd7b1" stroke-width="1.51"/><path d="M-38,1395L247,1395L247,1110Z" fill="#d68658" stroke="#d68658" stroke-width="1.51"/><path d="M-38,1110L-38,1395L247,1110Z" fill="#e18d5f" stroke="#e18d5f" stroke-width="1.51"/><path d="M-38,1110L247,1110L247,825Z" fill="#f3935d" stroke="#f3935d" stroke-width="1.51"/><path d="M-38,825L-38,1110L247,825Z" fill="#f89c66" stroke="#f89c66" stroke-width="1.51"/><path d="M-38,825L247,825L247,540Z" fill="#fea568" stroke="#fea568" stroke-width="1.51"/><path d="M-38,540L-38,825L247,540Z" fill="#ffaf74" stroke="#ffaf74" stroke-width="1.51"/><path d="M-38,540L247,540L247,255Z" fill="#ffb87e" stroke="#ffb87e" stroke-width="1.51"/><path d="M-38,255L-38,540L247,255Z" fill="#ffc18c" stroke="#ffc18c" stroke-width="1.51"/><path d="M-38,255L247,255L247,-30Z" fill="#fecb9b" stroke="#fecb9b" stroke-width="1.51"/><path d="M-38,-30L-38,255L247,-30Z" fill="#fed4ab" stroke="#fed4ab" stroke-width="1.51"/><path d="M-38,-30L247,-30L247,-315Z" fill="#fedab6" stroke="#fedab6" stroke-width="1.51"/><path d="M-38,-315L-38,-30L247,-315Z" fill="#fee1c4" stroke="#fee1c4" stroke-width="1.51"/><path d="M-323,1395L-38,1395L-38,1110Z" fill="#d88e68" stroke="#d88e68" stroke-width="1.51"/><path d="M-323,1110L-323,1395L-38,1110Z" fill="#e4956e" stroke="#e4956e" stroke-width="1.51"/><path d="M-323,1110L-38,1110L-38,825Z" fill="#f69c6d" stroke="#f69c6d" stroke-width="1.51"/><path d="M-323,825L-323,1110L-38,825Z" fill="#fba374" stroke="#fba374" stroke-width="1.51"/><path d="M-323,825L-38,825L-38,540Z" fill="#ffad79" stroke="#ffad79" stroke-width="1.51"/><path d="M-323,540L-323,825L-38,540Z" fill="#ffb684" stroke="#ffb684" stroke-width="1.51"/><path d="M-323,540L-38,540L-38,255Z" fill="#ffc18f" stroke="#ffc18f" stroke-width="1.51"/><path d="M-323,255L-323,540L-38,255Z" fill="#ffc89c" stroke="#ffc89c" stroke-width="1.51"/><path d="M-323,255L-38,255L-38,-30Z" fill="#ffd3ac" stroke="#ffd3ac" stroke-width="1.51"/><path d="M-323,-30L-323,255L-38,-30Z" fill="#ffdcba" stroke="#ffdcba" stroke-width="1.51"/><path d="M-323,-30L-38,-30L-38,-315Z" fill="#fee3c7" stroke="#fee3c7" stroke-width="1.51"/><path d="M-323,-315L-323,-30L-38,-315Z" fill="#ffe9d3" stroke="#ffe9d3" stroke-width="1.51"/></svg>