<svg xmlns="http://www.w3.org/2000/svg" width="1920" height="1080"><path d="M1230,1398L756,1412L1398,1432Z" fill="#97ba7e" stroke="#97ba7e" stroke-width="1.51"/><path d="M1922,904L1917,1010L2183,750Z" fill="#91c263" stroke="#91c263" stroke-width="1.51"/><path d="M1841,189L2184,432L2285,356Z" fill="#a8b888" stroke="#a8b888" stroke-width="1.51"/><path d="M2184,432L2183,750L2285,356Z" fill="#9cb988" stroke="#9cb988" stroke-width="1.51"/><path d="M1937,-208L1862,-79L2286,-162Z" fill="#a18165" stroke="#a18165" stroke-width="1.51"/><path d="M1841,189L2285,356L2286,-162Z" fill="#a2a27d" stroke="#a2a27d" stroke-width="1.51"/><path d="M1862,-79L1841,189L2286,-162Z" fill="#a89776" stroke="#a89776" stroke-width="1.51"/><path d="M1322,-424L1759,-353L2306,-267Z" fill="#a37a5d" stroke="#a37a5d" stroke-width="1.51"/><path d="M1759,-353L1937,-208L2306,-267Z" fill="#9c7158" stroke="#9c7158" stroke-width="1.51"/><path d="M2286,-162L2285,356L2306,-267Z" fill="#91806a" stroke="#91806a" stroke-width="1.51"/><path d="M2183,750L1917,1010L2314,1162Z" fill="#7bb24e" stroke="#7bb24e" stroke-width="1.51"/><path d="M2285,356L2183,750L2314,1162Z" fill="#8db472" stroke="#8db472" stroke-width="1.51"/><path d="M2306,-267L2285,356L2314,1162Z" fill="#98ac84" stroke="#98ac84" stroke-width="1.51"/><path d="M1816,1321L1398,1432L2315,1273Z" fill="#63a430" stroke="#63a430" stroke-width="1.51"/><path d="M2314,1162L1917,1010L2315,1273Z" fill="#5f9f2f" stroke="#5f9f2f" stroke-width="1.51"/><path d="M1917,1010L1816,1321L2315,1273Z" fill="#65a631" stroke="#65a631" stroke-width="1.51"/><path d="M1937,-208L2286,-162L2306,-267Z" fill="#926d58" stroke="#926d58" stroke-width="1.51"/><path d="M629,-438L829,-395L1322,-424Z" fill="#ce89a5" stroke="#ce89a5" stroke-width="1.51"/><path d="M1918,659L1922,904L2183,750Z" fill="#9fc879" stroke="#9fc879" stroke-width="1.51"/><path d="M1918,659L2183,750L2184,432Z" fill="#a2c486" stroke="#a2c486" stroke-width="1.51"/><path d="M1798,430L1918,659L2184,432Z" fill="#b1cc93" stroke="#b1cc93" stroke-width="1.51"/><path d="M1841,189L1798,430L2184,432Z" fill="#b7c692" stroke="#b7c692" stroke-width="1.51"/><path d="M1581,1195L1614,1259L1816,1321Z" fill="#7fb94a" stroke="#7fb94a" stroke-width="1.51"/><path d="M1581,1195L1816,1321L1917,1010Z" fill="#7fbb44" stroke="#7fbb44" stroke-width="1.51"/><path d="M1918,659L1636,710L1922,904Z" fill="#b1d785" stroke="#b1d785" stroke-width="1.51"/><path d="M1759,-353L1862,-79L1937,-208Z" fill="#ad8468" stroke="#ad8468" stroke-width="1.51"/><path d="M1636,710L1581,1195L1917,1010Z" fill="#a2d26b" stroke="#a2d26b" stroke-width="1.51"/><path d="M1798,430L1636,710L1918,659Z" fill="#bedb9b" stroke="#bedb9b" stroke-width="1.51"/><path d="M1636,710L1917,1010L1922,904Z" fill="#a3d170" stroke="#a3d170" stroke-width="1.51"/><path d="M1384,943L1581,1195L1636,710Z" fill="#b6e084" stroke="#b6e084" stroke-width="1.51"/><path d="M1614,1259L1398,1432L1816,1321Z" fill="#7bb44b" stroke="#7bb44b" stroke-width="1.51"/><path d="M1530,389L1798,430L1841,189Z" fill="#cbd5a4" stroke="#cbd5a4" stroke-width="1.51"/><path d="M1545,38L1841,189L1862,-79Z" fill="#c0b28f" stroke="#c0b28f" stroke-width="1.51"/><path d="M1759,-353L1545,38L1862,-79Z" fill="#bc997d" stroke="#bc997d" stroke-width="1.51"/><path d="M1545,38L1530,389L1841,189Z" fill="#cfcda8" stroke="#cfcda8" stroke-width="1.51"/><path d="M1412,-43L1545,38L1759,-353Z" fill="#cba390" stroke="#cba390" stroke-width="1.51"/><path d="M1530,389L1636,710L1798,430Z" fill="#cee3af" stroke="#cee3af" stroke-width="1.51"/><path d="M1322,-424L1412,-43L1759,-353Z" fill="#c88f86" stroke="#c88f86" stroke-width="1.51"/><path d="M161,1264L-331,1318L756,1412Z" fill="#a29473" stroke="#a29473" stroke-width="1.51"/><path d="M1333,117L1530,389L1545,38Z" fill="#ddd3bb" stroke="#ddd3bb" stroke-width="1.51"/><path d="M1530,389L1411,448L1636,710Z" fill="#daebbf" stroke="#daebbf" stroke-width="1.51"/><path d="M1411,448L1384,943L1636,710Z" fill="#d5edb6" stroke="#d5edb6" stroke-width="1.51"/><path d="M1384,943L1370,1208L1581,1195Z" fill="#a7d373" stroke="#a7d373" stroke-width="1.51"/><path d="M1581,1195L1370,1208L1614,1259Z" fill="#92c65f" stroke="#92c65f" stroke-width="1.51"/><path d="M1370,1208L1398,1432L1614,1259Z" fill="#8ec061" stroke="#8ec061" stroke-width="1.51"/><path d="M1136,823L1384,943L1411,448Z" fill="#e1f3c7" stroke="#e1f3c7" stroke-width="1.51"/><path d="M1322,-424L1167,-180L1412,-43Z" fill="#db9ca5" stroke="#db9ca5" stroke-width="1.51"/><path d="M1333,117L1411,448L1530,389Z" fill="#e4e2c7" stroke="#e4e2c7" stroke-width="1.51"/><path d="M1412,-43L1333,117L1545,38Z" fill="#dcc1b3" stroke="#dcc1b3" stroke-width="1.51"/><path d="M1212,1182L1370,1208L1384,943Z" fill="#b2d984" stroke="#b2d984" stroke-width="1.51"/><path d="M1370,1208L1230,1398L1398,1432Z" fill="#93bf6e" stroke="#93bf6e" stroke-width="1.51"/><path d="M1333,117L986,385L1411,448Z" fill="#f2e8de" stroke="#f2e8de" stroke-width="1.51"/><path d="M1055,613L1136,823L1411,448Z" fill="#edf6de" stroke="#edf6de" stroke-width="1.51"/><path d="M1092,-13L1333,117L1412,-43Z" fill="#e6c3c4" stroke="#e6c3c4" stroke-width="1.51"/><path d="M1167,-180L1092,-13L1412,-43Z" fill="#e5b5be" stroke="#e5b5be" stroke-width="1.51"/><path d="M986,385L1055,613L1411,448Z" fill="#f3f3e9" stroke="#f3f3e9" stroke-width="1.51"/><path d="M-76,1267L-331,1318L161,1264Z" fill="#9f7c61" stroke="#9f7c61" stroke-width="1.51"/><path d="M1212,1182L1230,1398L1370,1208Z" fill="#a2ca7c" stroke="#a2ca7c" stroke-width="1.51"/><path d="M1136,823L1212,1182L1384,943Z" fill="#cae7a4" stroke="#cae7a4" stroke-width="1.51"/><path d="M603,1340L161,1264L756,1412Z" fill="#a6ae84" stroke="#a6ae84" stroke-width="1.51"/><path d="M1092,-13L986,385L1333,117Z" fill="#f1d9de" stroke="#f1d9de" stroke-width="1.51"/><path d="M1136,823L959,993L1212,1182Z" fill="#cce6ab" stroke="#cce6ab" stroke-width="1.51"/><path d="M829,-395L1167,-180L1322,-424Z" fill="#d691a6" stroke="#d691a6" stroke-width="1.51"/><path d="M876,139L986,385L1092,-13Z" fill="#f5dae9" stroke="#f5dae9" stroke-width="1.51"/><path d="M1212,1182L756,1412L1230,1398Z" fill="#a2c586" stroke="#a2c586" stroke-width="1.51"/><path d="M959,993L756,1412L1212,1182Z" fill="#b6d497" stroke="#b6d497" stroke-width="1.51"/><path d="M1055,613L927,694L1136,823Z" fill="#eef6e1" stroke="#eef6e1" stroke-width="1.51"/><path d="M829,-395L1092,-13L1167,-180Z" fill="#e6a1bc" stroke="#e6a1bc" stroke-width="1.51"/><path d="M829,-395L709,-7L1092,-13Z" fill="#eba7c7" stroke="#eba7c7" stroke-width="1.51"/><path d="M927,694L959,993L1136,823Z" fill="#e3f1ce" stroke="#e3f1ce" stroke-width="1.51"/><path d="M709,-7L876,139L1092,-13Z" fill="#f2c4dc" stroke="#f2c4dc" stroke-width="1.51"/><path d="M596,1220L756,1412L959,993Z" fill="#b8cb95" stroke="#b8cb95" stroke-width="1.51"/><path d="M748,502L927,694L986,385Z" fill="#f8f4f6" stroke="#f8f4f6" stroke-width="1.51"/><path d="M986,385L927,694L1055,613Z" fill="#f5f7f2" stroke="#f5f7f2" stroke-width="1.51"/><path d="M927,694L480,849L959,993Z" fill="#e5eace" stroke="#e5eace" stroke-width="1.51"/><path d="M876,139L748,502L986,385Z" fill="#fbe8f2" stroke="#fbe8f2" stroke-width="1.51"/><path d="M583,-137L709,-7L829,-395Z" fill="#ea99bf" stroke="#ea99bf" stroke-width="1.51"/><path d="M480,849L596,1220L959,993Z" fill="#d2daad" stroke="#d2daad" stroke-width="1.51"/><path d="M-113,-356L375,-318L629,-438Z" fill="#ca6296" stroke="#ca6296" stroke-width="1.51"/><path d="M550,445L748,502L876,139Z" fill="#fce3f0" stroke="#fce3f0" stroke-width="1.51"/><path d="M748,502L480,849L927,694Z" fill="#f4ede6" stroke="#f4ede6" stroke-width="1.51"/><path d="M629,-438L583,-137L829,-395Z" fill="#dc85ad" stroke="#dc85ad" stroke-width="1.51"/><path d="M709,-7L550,445L876,139Z" fill="#f8d2e7" stroke="#f8d2e7" stroke-width="1.51"/><path d="M596,1220L603,1340L756,1412Z" fill="#aaba89" stroke="#aaba89" stroke-width="1.51"/><path d="M417,382L550,445L709,-7Z" fill="#f9d0e7" stroke="#f9d0e7" stroke-width="1.51"/><path d="M550,445L480,849L748,502Z" fill="#f6e5eb" stroke="#f6e5eb" stroke-width="1.51"/><path d="M480,849L362,1136L596,1220Z" fill="#c8c89f" stroke="#c8c89f" stroke-width="1.51"/><path d="M583,-137L373,-127L709,-7Z" fill="#ea9dc6" stroke="#ea9dc6" stroke-width="1.51"/><path d="M373,-127L417,382L709,-7Z" fill="#f1b5d7" stroke="#f1b5d7" stroke-width="1.51"/><path d="M205,769L480,849L550,445Z" fill="#f0d8db" stroke="#f0d8db" stroke-width="1.51"/><path d="M375,-318L583,-137L629,-438Z" fill="#dc7caa" stroke="#dc7caa" stroke-width="1.51"/><path d="M417,382L151,614L550,445Z" fill="#f5d1e6" stroke="#f5d1e6" stroke-width="1.51"/><path d="M151,614L205,769L550,445Z" fill="#f0cddb" stroke="#f0cddb" stroke-width="1.51"/><path d="M375,-318L373,-127L583,-137Z" fill="#e383b4" stroke="#e383b4" stroke-width="1.51"/><path d="M596,1220L362,1136L603,1340Z" fill="#b4ba8d" stroke="#b4ba8d" stroke-width="1.51"/><path d="M362,1136L161,1264L603,1340Z" fill="#b0af86" stroke="#b0af86" stroke-width="1.51"/><path d="M373,-127L145,338L417,382Z" fill="#f1b4d7" stroke="#f1b4d7" stroke-width="1.51"/><path d="M-9,115L145,338L373,-127Z" fill="#e999c5" stroke="#e999c5" stroke-width="1.51"/><path d="M205,769L362,1136L480,849Z" fill="#d9cab2" stroke="#d9cab2" stroke-width="1.51"/><path d="M145,338L151,614L417,382Z" fill="#f2c1da" stroke="#f2c1da" stroke-width="1.51"/><path d="M205,769L161,1264L362,1136Z" fill="#c5b493" stroke="#c5b493" stroke-width="1.51"/><path d="M-113,-356L-116,-22L373,-127Z" fill="#d65b9b" stroke="#d65b9b" stroke-width="1.51"/><path d="M-113,-356L373,-127L375,-318Z" fill="#d55e9c" stroke="#d55e9c" stroke-width="1.51"/><path d="M-116,-22L-9,115L373,-127Z" fill="#e07cb1" stroke="#e07cb1" stroke-width="1.51"/><path d="M-134,1084L161,1264L205,769Z" fill="#c3a489" stroke="#c3a489" stroke-width="1.51"/><path d="M145,338L-72,622L151,614Z" fill="#edb3cf" stroke="#edb3cf" stroke-width="1.51"/><path d="M-134,1084L-76,1267L161,1264Z" fill="#ab8b6d" stroke="#ab8b6d" stroke-width="1.51"/><path d="M151,614L-65,770L205,769Z" fill="#e6b7c1" stroke="#e6b7c1" stroke-width="1.51"/><path d="M-65,770L-134,1084L205,769Z" fill="#d5a79e" stroke="#d5a79e" stroke-width="1.51"/><path d="M-72,622L-65,770L151,614Z" fill="#e6acbd" stroke="#e6acbd" stroke-width="1.51"/><path d="M-367,473L-72,622L-9,115Z" fill="#e691b8" stroke="#e691b8" stroke-width="1.51"/><path d="M-9,115L-72,622L145,338Z" fill="#eca3c7" stroke="#eca3c7" stroke-width="1.51"/><path d="M-244,-291L-283,-110L-116,-22Z" fill="#c93d88" stroke="#c93d88" stroke-width="1.51"/><path d="M-244,-291L-116,-22L-113,-356Z" fill="#c92d83" stroke="#c92d83" stroke-width="1.51"/><path d="M-116,-22L-386,224L-9,115Z" fill="#dc6fa8" stroke="#dc6fa8" stroke-width="1.51"/><path d="M-386,224L-367,473L-9,115Z" fill="#db7fab" stroke="#db7fab" stroke-width="1.51"/><path d="M-134,1084L-280,1211L-76,1267Z" fill="#a97d62" stroke="#a97d62" stroke-width="1.51"/><path d="M-409,955L-134,1084L-65,770Z" fill="#c68e82" stroke="#c68e82" stroke-width="1.51"/><path d="M-72,622L-367,473L-65,770Z" fill="#e298b2" stroke="#e298b2" stroke-width="1.51"/><path d="M-367,473L-409,955L-65,770Z" fill="#d3919e" stroke="#d3919e" stroke-width="1.51"/><path d="M-280,1211L-331,1318L-76,1267Z" fill="#9a7157" stroke="#9a7157" stroke-width="1.51"/><path d="M-283,-110L-386,224L-116,-22Z" fill="#d05e97" stroke="#d05e97" stroke-width="1.51"/><path d="M-409,955L-280,1211L-134,1084Z" fill="#ac7f66" stroke="#ac7f66" stroke-width="1.51"/><path d="M-386,224L-283,-110L-244,-291Z" fill="#c64c8b" stroke="#c64c8b" stroke-width="1.51"/><path d="M-409,955L-331,1318L-280,1211Z" fill="#9b7556" stroke="#9b7556" stroke-width="1.51"/><path d="M-386,224L-409,955L-367,473Z" fill="#d08ca6" stroke="#d08ca6" stroke-width="1.51"/></svg>