<svg xmlns="http://www.w3.org/2000/svg" width="1920" height="1080"><path d="M1957,1395L2242,1395L2242,1110Z" fill="#710075" stroke="#710075" stroke-width="1.51"/><path d="M1957,1110L1957,1395L2242,1110Z" fill="#810178" stroke="#810178" stroke-width="1.51"/><path d="M1957,1110L2242,1110L2242,825Z" fill="#8e027a" stroke="#8e027a" stroke-width="1.51"/><path d="M1957,825L1957,1110L2242,825Z" fill="#9d1080" stroke="#9d1080" stroke-width="1.51"/><path d="M1957,825L2242,825L2242,540Z" fill="#a62386" stroke="#a62386" stroke-width="1.51"/><path d="M1957,540L1957,825L2242,540Z" fill="#b1308a" stroke="#b1308a" stroke-width="1.51"/><path d="M1957,540L2242,540L2242,255Z" fill="#b1458e" stroke="#b1458e" stroke-width="1.51"/><path d="M1957,255L1957,540L2242,255Z" fill="#b85293" stroke="#b85293" stroke-width="1.51"/><path d="M1957,255L2242,255L2242,-30Z" fill="#b36197" stroke="#b36197" stroke-width="1.51"/><path d="M1957,-30L1957,255L2242,-30Z" fill="#ba6b9b" stroke="#ba6b9b" stroke-width="1.51"/><path d="M1957,-30L2242,-30L2242,-315Z" fill="#b473a3" stroke="#b473a3" stroke-width="1.51"/><path d="M1957,-315L1957,-30L2242,-315Z" fill="#bc7baa" stroke="#bc7baa" stroke-width="1.51"/><path d="M1672,1395L1957,1395L1957,1110Z" fill="#850078" stroke="#850078" stroke-width="1.51"/><path d="M1672,1110L1672,1395L1957,1110Z" fill="#96017b" stroke="#96017b" stroke-width="1.51"/><path d="M1672,1110L1957,1110L1957,825Z" fill="#a2037d" stroke="#a2037d" stroke-width="1.51"/><path d="M1672,825L1672,1110L1957,825Z" fill="#b21283" stroke="#b21283" stroke-width="1.51"/><path d="M1672,825L1957,825L1957,540Z" fill="#ba2689" stroke="#ba2689" stroke-width="1.51"/><path d="M1672,540L1672,825L1957,540Z" fill="#c6348c" stroke="#c6348c" stroke-width="1.51"/><path d="M1672,540L1957,540L1957,255Z" fill="#c54a92" stroke="#c54a92" stroke-width="1.51"/><path d="M1672,255L1672,540L1957,255Z" fill="#cd5896" stroke="#cd5896" stroke-width="1.51"/><path d="M1672,255L1957,255L1957,-30Z" fill="#c7679b" stroke="#c7679b" stroke-width="1.51"/><path d="M1672,-30L1672,255L1957,-30Z" fill="#d0719e" stroke="#d0719e" stroke-width="1.51"/><path d="M1672,-30L1957,-30L1957,-315Z" fill="#ca7aa6" stroke="#ca7aa6" stroke-width="1.51"/><path d="M1672,-315L1672,-30L1957,-315Z" fill="#d282ac" stroke="#d282ac" stroke-width="1.51"/><path d="M1387,1395L1672,1395L1672,1110Z" fill="#99097e" stroke="#99097e" stroke-width="1.51"/><path d="M1387,1110L1387,1395L1672,1110Z" fill="#a91282" stroke="#a91282" stroke-width="1.51"/><path d="M1387,1110L1672,1110L1672,825Z" fill="#b60f82" stroke="#b60f82" stroke-width="1.51"/><path d="M1387,825L1387,1110L1672,825Z" fill="#c5208b" stroke="#c5208b" stroke-width="1.51"/><path d="M1387,825L1672,825L1672,540Z" fill="#ce2e8f" stroke="#ce2e8f" stroke-width="1.51"/><path d="M1387,540L1387,825L1672,540Z" fill="#da3e94" stroke="#da3e94" stroke-width="1.51"/><path d="M1387,540L1672,540L1672,255Z" fill="#da5197" stroke="#da5197" stroke-width="1.51"/><path d="M1387,255L1387,540L1672,255Z" fill="#e1629e" stroke="#e1629e" stroke-width="1.51"/><path d="M1387,255L1672,255L1672,-30Z" fill="#dc70a0" stroke="#dc70a0" stroke-width="1.51"/><path d="M1387,-30L1387,255L1672,-30Z" fill="#e47ba5" stroke="#e47ba5" stroke-width="1.51"/><path d="M1387,-30L1672,-30L1672,-315Z" fill="#df83ac" stroke="#df83ac" stroke-width="1.51"/><path d="M1387,-315L1387,-30L1672,-315Z" fill="#e68cb4" stroke="#e68cb4" stroke-width="1.51"/><path d="M1102,1395L1387,1395L1387,1110Z" fill="#ab1e87" stroke="#ab1e87" stroke-width="1.51"/><path d="M1102,1110L1102,1395L1387,1110Z" fill="#b82a8a" stroke="#b82a8a" stroke-width="1.51"/><path d="M1102,1110L1387,1110L1387,825Z" fill="#c8248c" stroke="#c8248c" stroke-width="1.51"/><path d="M1102,825L1102,1110L1387,825Z" fill="#d53592" stroke="#d53592" stroke-width="1.51"/><path d="M1102,825L1387,825L1387,540Z" fill="#e13d99" stroke="#e13d99" stroke-width="1.51"/><path d="M1102,540L1102,825L1387,540Z" fill="#ea4f9c" stroke="#ea4f9c" stroke-width="1.51"/><path d="M1102,540L1387,540L1387,255Z" fill="#ec5ea1" stroke="#ec5ea1" stroke-width="1.51"/><path d="M1102,255L1102,540L1387,255Z" fill="#f170a5" stroke="#f170a5" stroke-width="1.51"/><path d="M1102,255L1387,255L1387,-30Z" fill="#ef7caa" stroke="#ef7caa" stroke-width="1.51"/><path d="M1102,-30L1102,255L1387,-30Z" fill="#f38aad" stroke="#f38aad" stroke-width="1.51"/><path d="M1102,-30L1387,-30L1387,-315Z" fill="#f190b5" stroke="#f190b5" stroke-width="1.51"/><path d="M1102,-315L1102,-30L1387,-315Z" fill="#f59abc" stroke="#f59abc" stroke-width="1.51"/><path d="M817,1395L1102,1395L1102,1110Z" fill="#b5378b" stroke="#b5378b" stroke-width="1.51"/><path d="M817,1110L817,1395L1102,1110Z" fill="#c1418f" stroke="#c1418f" stroke-width="1.51"/><path d="M817,1110L1102,1110L1102,825Z" fill="#d33e90" stroke="#d33e90" stroke-width="1.51"/><path d="M817,825L817,1110L1102,825Z" fill="#de4c97" stroke="#de4c97" stroke-width="1.51"/><path d="M817,825L1102,825L1102,540Z" fill="#ec539d" stroke="#ec539d" stroke-width="1.51"/><path d="M817,540L817,825L1102,540Z" fill="#f363a1" stroke="#f363a1" stroke-width="1.51"/><path d="M817,540L1102,540L1102,255Z" fill="#f770a4" stroke="#f770a4" stroke-width="1.51"/><path d="M817,255L817,540L1102,255Z" fill="#f982aa" stroke="#f982aa" stroke-width="1.51"/><path d="M817,255L1102,255L1102,-30Z" fill="#f98dad" stroke="#f98dad" stroke-width="1.51"/><path d="M817,-30L817,255L1102,-30Z" fill="#fb9ab1" stroke="#fb9ab1" stroke-width="1.51"/><path d="M817,-30L1102,-30L1102,-315Z" fill="#fba0b9" stroke="#fba0b9" stroke-width="1.51"/><path d="M817,-315L817,-30L1102,-315Z" fill="#fdabc1" stroke="#fdabc1" stroke-width="1.51"/><path d="M532,1395L817,1395L817,1110Z" fill="#b85092" stroke="#b85092" stroke-width="1.51"/><path d="M532,1110L532,1395L817,1110Z" fill="#c35a97" stroke="#c35a97" stroke-width="1.51"/><path d="M532,1110L817,1110L817,825Z" fill="#d65897" stroke="#d65897" stroke-width="1.51"/><path d="M532,825L532,1110L817,825Z" fill="#e0669f" stroke="#e0669f" stroke-width="1.51"/><path d="M532,825L817,825L817,540Z" fill="#ef6ba4" stroke="#ef6ba4" stroke-width="1.51"/><path d="M532,540L532,825L817,540Z" fill="#f47ba8" stroke="#f47ba8" stroke-width="1.51"/><path d="M532,540L817,540L817,255Z" fill="#f986ab" stroke="#f986ab" stroke-width="1.51"/><path d="M532,255L532,540L817,255Z" fill="#fa98b2" stroke="#fa98b2" stroke-width="1.51"/><path d="M532,255L817,255L817,-30Z" fill="#faa1b4" stroke="#faa1b4" stroke-width="1.51"/><path d="M532,-30L532,255L817,-30Z" fill="#fbafba" stroke="#fbafba" stroke-width="1.51"/><path d="M532,-30L817,-30L817,-315Z" fill="#fcb3c0" stroke="#fcb3c0" stroke-width="1.51"/><path d="M532,-315L532,-30L817,-315Z" fill="#fdbfc9" stroke="#fdbfc9" stroke-width="1.51"/><path d="M247,1395L532,1395L532,1110Z" fill="#ba6298" stroke="#ba6298" stroke-width="1.51"/><path d="M247,1110L247,1395L532,1110Z" fill="#c46b9b" stroke="#c46b9b" stroke-width="1.51"/><path d="M247,1110L532,1110L532,825Z" fill="#d86c9d" stroke="#d86c9d" stroke-width="1.51"/><path d="M247,825L247,1110L532,825Z" fill="#e277a4" stroke="#e277a4" stroke-width="1.51"/><path d="M247,825L532,825L532,540Z" fill="#f07faa" stroke="#f07faa" stroke-width="1.51"/><path d="M247,540L247,825L532,540Z" fill="#f68cad" stroke="#f68cad" stroke-width="1.51"/><path d="M247,540L532,540L532,255Z" fill="#fb98b1" stroke="#fb98b1" stroke-width="1.51"/><path d="M247,255L247,540L532,255Z" fill="#fba7b7" stroke="#fba7b7" stroke-width="1.51"/><path d="M247,255L532,255L532,-30Z" fill="#fbb2ba" stroke="#fbb2ba" stroke-width="1.51"/><path d="M247,-30L247,255L532,-30Z" fill="#fcbebe" stroke="#fcbebe" stroke-width="1.51"/><path d="M247,-30L532,-30L532,-315Z" fill="#fcc4c6" stroke="#fcc4c6" stroke-width="1.51"/><path d="M247,-315L247,-30L532,-315Z" fill="#fdcecd" stroke="#fdcecd" stroke-width="1.51"/><path d="M-38,1395L247,1395L247,1110Z" fill="#bb709f" stroke="#bb709f" stroke-width="1.51"/><path d="M-38,1110L-38,1395L247,1110Z" fill="#c677a4" stroke="#c677a4" stroke-width="1.51"/><path d="M-38,1110L247,1110L247,825Z" fill="#da7aa4" stroke="#da7aa4" stroke-width="1.51"/><path d="M-38,825L-38,1110L247,825Z" fill="#e484ac" stroke="#e484ac" stroke-width="1.51"/><path d="M-38,825L247,825L247,540Z" fill="#f28db0" stroke="#f28db0" stroke-width="1.51"/><path d="M-38,540L-38,825L247,540Z" fill="#f899b6" stroke="#f899b6" stroke-width="1.51"/><path d="M-38,540L247,540L247,255Z" fill="#fca6b8" stroke="#fca6b8" stroke-width="1.51"/><path d="M-38,255L-38,540L247,255Z" fill="#fcb4bf" stroke="#fcb4bf" stroke-width="1.51"/><path d="M-38,255L247,255L247,-30Z" fill="#fcc0c1" stroke="#fcc0c1" stroke-width="1.51"/><path d="M-38,-30L-38,255L247,-30Z" fill="#fdcac7" stroke="#fdcac7" stroke-width="1.51"/><path d="M-38,-30L247,-30L247,-315Z" fill="#fdd2cd" stroke="#fdd2cd" stroke-width="1.51"/><path d="M-38,-315L-38,-30L247,-315Z" fill="#fddad6" stroke="#fddad6" stroke-width="1.51"/><path d="M-323,1395L-38,1395L-38,1110Z" fill="#bc7baa" stroke="#bc7baa" stroke-width="1.51"/><path d="M-323,1110L-323,1395L-38,1110Z" fill="#c782ae" stroke="#c782ae" stroke-width="1.51"/><path d="M-323,1110L-38,1110L-38,825Z" fill="#db86ae" stroke="#db86ae" stroke-width="1.51"/><path d="M-323,825L-323,1110L-38,825Z" fill="#e58fb6" stroke="#e58fb6" stroke-width="1.51"/><path d="M-323,825L-38,825L-38,540Z" fill="#f499bb" stroke="#f499bb" stroke-width="1.51"/><path d="M-323,540L-323,825L-38,540Z" fill="#faa4c0" stroke="#faa4c0" stroke-width="1.51"/><path d="M-323,540L-38,540L-38,255Z" fill="#fdb2c3" stroke="#fdb2c3" stroke-width="1.51"/><path d="M-323,255L-323,540L-38,255Z" fill="#febeca" stroke="#febeca" stroke-width="1.51"/><path d="M-323,255L-38,255L-38,-30Z" fill="#fdcbcc" stroke="#fdcbcc" stroke-width="1.51"/><path d="M-323,-30L-323,255L-38,-30Z" fill="#fed5d1" stroke="#fed5d1" stroke-width="1.51"/><path d="M-323,-30L-38,-30L-38,-315Z" fill="#fdddd8" stroke="#fdddd8" stroke-width="1.51"/><path d="M-323,-315L-323,-30L-38,-315Z" fill="#fee4e1" stroke="#fee4e1" stroke-width="1.51"/></svg>