<svg xmlns="http://www.w3.org/2000/svg" width="1920" height="1080"><path d="M1230,1398L756,1412L1398,1432Z" fill="#b12b64" stroke="#b12b64" stroke-width="1.51"/><path d="M1922,904L1917,1010L2183,750Z" fill="#bc125c" stroke="#bc125c" stroke-width="1.51"/><path d="M1841,189L2184,432L2285,356Z" fill="#b1527c" stroke="#b1527c" stroke-width="1.51"/><path d="M2184,432L2183,750L2285,356Z" fill="#ae3c6e" stroke="#ae3c6e" stroke-width="1.51"/><path d="M1937,-208L1862,-79L2286,-162Z" fill="#c57a92" stroke="#c57a92" stroke-width="1.51"/><path d="M1841,189L2285,356L2286,-162Z" fill="#b26281" stroke="#b26281" stroke-width="1.51"/><path d="M1862,-79L1841,189L2286,-162Z" fill="#c2708e" stroke="#c2708e" stroke-width="1.51"/><path d="M1322,-424L1759,-353L2306,-267Z" fill="#df8c9e" stroke="#df8c9e" stroke-width="1.51"/><path d="M1759,-353L1937,-208L2306,-267Z" fill="#cb8296" stroke="#cb8296" stroke-width="1.51"/><path d="M2286,-162L2285,356L2306,-267Z" fill="#ac697d" stroke="#ac697d" stroke-width="1.51"/><path d="M2183,750L1917,1010L2314,1162Z" fill="#ae0c4d" stroke="#ae0c4d" stroke-width="1.51"/><path d="M2285,356L2183,750L2314,1162Z" fill="#ae1a5b" stroke="#ae1a5b" stroke-width="1.51"/><path d="M2306,-267L2285,356L2314,1162Z" fill="#a5456c" stroke="#a5456c" stroke-width="1.51"/><path d="M1816,1321L1398,1432L2315,1273Z" fill="#a00344" stroke="#a00344" stroke-width="1.51"/><path d="M2314,1162L1917,1010L2315,1273Z" fill="#9c0440" stroke="#9c0440" stroke-width="1.51"/><path d="M1917,1010L1816,1321L2315,1273Z" fill="#a20247" stroke="#a20247" stroke-width="1.51"/><path d="M1937,-208L2286,-162L2306,-267Z" fill="#bc7b8b" stroke="#bc7b8b" stroke-width="1.51"/><path d="M629,-438L829,-395L1322,-424Z" fill="#ecafd4" stroke="#ecafd4" stroke-width="1.51"/><path d="M1918,659L1922,904L2183,750Z" fill="#c11b67" stroke="#c11b67" stroke-width="1.51"/><path d="M1918,659L2183,750L2184,432Z" fill="#b9326e" stroke="#b9326e" stroke-width="1.51"/><path d="M1798,430L1918,659L2184,432Z" fill="#c1417a" stroke="#c1417a" stroke-width="1.51"/><path d="M1841,189L1798,430L2184,432Z" fill="#be5482" stroke="#be5482" stroke-width="1.51"/><path d="M1581,1195L1614,1259L1816,1321Z" fill="#b6094d" stroke="#b6094d" stroke-width="1.51"/><path d="M1581,1195L1816,1321L1917,1010Z" fill="#b70a4e" stroke="#b70a4e" stroke-width="1.51"/><path d="M1918,659L1636,710L1922,904Z" fill="#ce216e" stroke="#ce216e" stroke-width="1.51"/><path d="M1759,-353L1862,-79L1937,-208Z" fill="#d58499" stroke="#d58499" stroke-width="1.51"/><path d="M1636,710L1581,1195L1917,1010Z" fill="#cf155c" stroke="#cf155c" stroke-width="1.51"/><path d="M1798,430L1636,710L1918,659Z" fill="#d13a7a" stroke="#d13a7a" stroke-width="1.51"/><path d="M1636,710L1917,1010L1922,904Z" fill="#cb1763" stroke="#cb1763" stroke-width="1.51"/><path d="M1384,943L1581,1195L1636,710Z" fill="#d81c69" stroke="#d81c69" stroke-width="1.51"/><path d="M1614,1259L1398,1432L1816,1321Z" fill="#b00b4d" stroke="#b00b4d" stroke-width="1.51"/><path d="M1530,389L1798,430L1841,189Z" fill="#cf5b89" stroke="#cf5b89" stroke-width="1.51"/><path d="M1545,38L1841,189L1862,-79Z" fill="#d27392" stroke="#d27392" stroke-width="1.51"/><path d="M1759,-353L1545,38L1862,-79Z" fill="#dd829a" stroke="#dd829a" stroke-width="1.51"/><path d="M1545,38L1530,389L1841,189Z" fill="#d56992" stroke="#d56992" stroke-width="1.51"/><path d="M1412,-43L1545,38L1759,-353Z" fill="#e385a3" stroke="#e385a3" stroke-width="1.51"/><path d="M1530,389L1636,710L1798,430Z" fill="#d84885" stroke="#d84885" stroke-width="1.51"/><path d="M1322,-424L1412,-43L1759,-353Z" fill="#ec91ae" stroke="#ec91ae" stroke-width="1.51"/><path d="M161,1264L-331,1318L756,1412Z" fill="#b96c88" stroke="#b96c88" stroke-width="1.51"/><path d="M1333,117L1530,389L1545,38Z" fill="#db6fa0" stroke="#db6fa0" stroke-width="1.51"/><path d="M1530,389L1411,448L1636,710Z" fill="#dd4a8e" stroke="#dd4a8e" stroke-width="1.51"/><path d="M1411,448L1384,943L1636,710Z" fill="#e13484" stroke="#e13484" stroke-width="1.51"/><path d="M1384,943L1370,1208L1581,1195Z" fill="#ce1763" stroke="#ce1763" stroke-width="1.51"/><path d="M1581,1195L1370,1208L1614,1259Z" fill="#bf115a" stroke="#bf115a" stroke-width="1.51"/><path d="M1370,1208L1398,1432L1614,1259Z" fill="#b9115a" stroke="#b9115a" stroke-width="1.51"/><path d="M1136,823L1384,943L1411,448Z" fill="#e7338e" stroke="#e7338e" stroke-width="1.51"/><path d="M1322,-424L1167,-180L1412,-43Z" fill="#ee94bc" stroke="#ee94bc" stroke-width="1.51"/><path d="M1333,117L1411,448L1530,389Z" fill="#da649e" stroke="#da649e" stroke-width="1.51"/><path d="M1412,-43L1333,117L1545,38Z" fill="#e07ca8" stroke="#e07ca8" stroke-width="1.51"/><path d="M1212,1182L1370,1208L1384,943Z" fill="#d31c6c" stroke="#d31c6c" stroke-width="1.51"/><path d="M1370,1208L1230,1398L1398,1432Z" fill="#b81560" stroke="#b81560" stroke-width="1.51"/><path d="M1333,117L986,385L1411,448Z" fill="#dc6cab" stroke="#dc6cab" stroke-width="1.51"/><path d="M1055,613L1136,823L1411,448Z" fill="#e44b9c" stroke="#e44b9c" stroke-width="1.51"/><path d="M1092,-13L1333,117L1412,-43Z" fill="#e381b4" stroke="#e381b4" stroke-width="1.51"/><path d="M1167,-180L1092,-13L1412,-43Z" fill="#e78dbb" stroke="#e78dbb" stroke-width="1.51"/><path d="M986,385L1055,613L1411,448Z" fill="#e05fa8" stroke="#e05fa8" stroke-width="1.51"/><path d="M-76,1267L-331,1318L161,1264Z" fill="#c77e93" stroke="#c77e93" stroke-width="1.51"/><path d="M1212,1182L1230,1398L1370,1208Z" fill="#c11e69" stroke="#c11e69" stroke-width="1.51"/><path d="M1136,823L1212,1182L1384,943Z" fill="#dd2b79" stroke="#dd2b79" stroke-width="1.51"/><path d="M603,1340L161,1264L756,1412Z" fill="#b25b80" stroke="#b25b80" stroke-width="1.51"/><path d="M1092,-13L986,385L1333,117Z" fill="#dd7eb7" stroke="#dd7eb7" stroke-width="1.51"/><path d="M1136,823L959,993L1212,1182Z" fill="#db397f" stroke="#db397f" stroke-width="1.51"/><path d="M829,-395L1167,-180L1322,-424Z" fill="#eea2c9" stroke="#eea2c9" stroke-width="1.51"/><path d="M876,139L986,385L1092,-13Z" fill="#d986be" stroke="#d986be" stroke-width="1.51"/><path d="M1212,1182L756,1412L1230,1398Z" fill="#b9326e" stroke="#b9326e" stroke-width="1.51"/><path d="M959,993L756,1412L1212,1182Z" fill="#c73d7a" stroke="#c73d7a" stroke-width="1.51"/><path d="M1055,613L927,694L1136,823Z" fill="#e34f9e" stroke="#e34f9e" stroke-width="1.51"/><path d="M829,-395L1092,-13L1167,-180Z" fill="#e8a1ca" stroke="#e8a1ca" stroke-width="1.51"/><path d="M829,-395L709,-7L1092,-13Z" fill="#e1a5cf" stroke="#e1a5cf" stroke-width="1.51"/><path d="M927,694L959,993L1136,823Z" fill="#e24795" stroke="#e24795" stroke-width="1.51"/><path d="M709,-7L876,139L1092,-13Z" fill="#d995c7" stroke="#d995c7" stroke-width="1.51"/><path d="M596,1220L756,1412L959,993Z" fill="#c24f80" stroke="#c24f80" stroke-width="1.51"/><path d="M748,502L927,694L986,385Z" fill="#dd6cb3" stroke="#dd6cb3" stroke-width="1.51"/><path d="M986,385L927,694L1055,613Z" fill="#e061ac" stroke="#e061ac" stroke-width="1.51"/><path d="M927,694L480,849L959,993Z" fill="#de599c" stroke="#de599c" stroke-width="1.51"/><path d="M876,139L748,502L986,385Z" fill="#d47fbc" stroke="#d47fbc" stroke-width="1.51"/><path d="M583,-137L709,-7L829,-395Z" fill="#dcb2d6" stroke="#dcb2d6" stroke-width="1.51"/><path d="M480,849L596,1220L959,993Z" fill="#d45c8c" stroke="#d45c8c" stroke-width="1.51"/><path d="M-113,-356L375,-318L629,-438Z" fill="#e2d0e6" stroke="#e2d0e6" stroke-width="1.51"/><path d="M550,445L748,502L876,139Z" fill="#d187bf" stroke="#d187bf" stroke-width="1.51"/><path d="M748,502L480,849L927,694Z" fill="#dc6aad" stroke="#dc6aad" stroke-width="1.51"/><path d="M629,-438L583,-137L829,-395Z" fill="#e0bbdb" stroke="#e0bbdb" stroke-width="1.51"/><path d="M709,-7L550,445L876,139Z" fill="#d095c7" stroke="#d095c7" stroke-width="1.51"/><path d="M596,1220L603,1340L756,1412Z" fill="#b3537e" stroke="#b3537e" stroke-width="1.51"/><path d="M417,382L550,445L709,-7Z" fill="#ca98c8" stroke="#ca98c8" stroke-width="1.51"/><path d="M550,445L480,849L748,502Z" fill="#d77ab7" stroke="#d77ab7" stroke-width="1.51"/><path d="M480,849L362,1136L596,1220Z" fill="#d0678e" stroke="#d0678e" stroke-width="1.51"/><path d="M583,-137L373,-127L709,-7Z" fill="#d5b3d7" stroke="#d5b3d7" stroke-width="1.51"/><path d="M373,-127L417,382L709,-7Z" fill="#cfa9d2" stroke="#cfa9d2" stroke-width="1.51"/><path d="M205,769L480,849L550,445Z" fill="#dd7db5" stroke="#dd7db5" stroke-width="1.51"/><path d="M375,-318L583,-137L629,-438Z" fill="#dcc2df" stroke="#dcc2df" stroke-width="1.51"/><path d="M417,382L151,614L550,445Z" fill="#d790c4" stroke="#d790c4" stroke-width="1.51"/><path d="M151,614L205,769L550,445Z" fill="#dd89be" stroke="#dd89be" stroke-width="1.51"/><path d="M375,-318L373,-127L583,-137Z" fill="#dac2df" stroke="#dac2df" stroke-width="1.51"/><path d="M596,1220L362,1136L603,1340Z" fill="#bd5f86" stroke="#bd5f86" stroke-width="1.51"/><path d="M362,1136L161,1264L603,1340Z" fill="#be6689" stroke="#be6689" stroke-width="1.51"/><path d="M373,-127L145,338L417,382Z" fill="#d0aad2" stroke="#d0aad2" stroke-width="1.51"/><path d="M-9,115L145,338L373,-127Z" fill="#d5b8da" stroke="#d5b8da" stroke-width="1.51"/><path d="M205,769L362,1136L480,849Z" fill="#dc74a0" stroke="#dc74a0" stroke-width="1.51"/><path d="M145,338L151,614L417,382Z" fill="#d89aca" stroke="#d89aca" stroke-width="1.51"/><path d="M205,769L161,1264L362,1136Z" fill="#d77595" stroke="#d77595" stroke-width="1.51"/><path d="M-113,-356L-116,-22L373,-127Z" fill="#e2d5e9" stroke="#e2d5e9" stroke-width="1.51"/><path d="M-113,-356L373,-127L375,-318Z" fill="#e1d1e6" stroke="#e1d1e6" stroke-width="1.51"/><path d="M-116,-22L-9,115L373,-127Z" fill="#dbc6e1" stroke="#dbc6e1" stroke-width="1.51"/><path d="M-134,1084L161,1264L205,769Z" fill="#de7f9a" stroke="#de7f9a" stroke-width="1.51"/><path d="M145,338L-72,622L151,614Z" fill="#e09cca" stroke="#e09cca" stroke-width="1.51"/><path d="M-134,1084L-76,1267L161,1264Z" fill="#ce7e95" stroke="#ce7e95" stroke-width="1.51"/><path d="M151,614L-65,770L205,769Z" fill="#e68cbb" stroke="#e68cbb" stroke-width="1.51"/><path d="M-65,770L-134,1084L205,769Z" fill="#e889ae" stroke="#e889ae" stroke-width="1.51"/><path d="M-72,622L-65,770L151,614Z" fill="#e795c1" stroke="#e795c1" stroke-width="1.51"/><path d="M-367,473L-72,622L-9,115Z" fill="#e0b2d6" stroke="#e0b2d6" stroke-width="1.51"/><path d="M-9,115L-72,622L145,338Z" fill="#d9add4" stroke="#d9add4" stroke-width="1.51"/><path d="M-244,-291L-283,-110L-116,-22Z" fill="#e7deed" stroke="#e7deed" stroke-width="1.51"/><path d="M-244,-291L-116,-22L-113,-356Z" fill="#e9e3f0" stroke="#e9e3f0" stroke-width="1.51"/><path d="M-116,-22L-386,224L-9,115Z" fill="#dec9e3" stroke="#dec9e3" stroke-width="1.51"/><path d="M-386,224L-367,473L-9,115Z" fill="#ddc0de" stroke="#ddc0de" stroke-width="1.51"/><path d="M-134,1084L-280,1211L-76,1267Z" fill="#d48599" stroke="#d48599" stroke-width="1.51"/><path d="M-409,955L-134,1084L-65,770Z" fill="#eb90ac" stroke="#eb90ac" stroke-width="1.51"/><path d="M-72,622L-367,473L-65,770Z" fill="#eba1c9" stroke="#eba1c9" stroke-width="1.51"/><path d="M-367,473L-409,955L-65,770Z" fill="#f19cc2" stroke="#f19cc2" stroke-width="1.51"/><path d="M-280,1211L-331,1318L-76,1267Z" fill="#cc8397" stroke="#cc8397" stroke-width="1.51"/><path d="M-283,-110L-386,224L-116,-22Z" fill="#e2d2e7" stroke="#e2d2e7" stroke-width="1.51"/><path d="M-409,955L-280,1211L-134,1084Z" fill="#e38d9f" stroke="#e38d9f" stroke-width="1.51"/><path d="M-386,224L-283,-110L-244,-291Z" fill="#e6daeb" stroke="#e6daeb" stroke-width="1.51"/><path d="M-409,955L-331,1318L-280,1211Z" fill="#db8a9c" stroke="#db8a9c" stroke-width="1.51"/><path d="M-386,224L-409,955L-367,473Z" fill="#edacd2" stroke="#edacd2" stroke-width="1.51"/></svg>