<svg xmlns="http://www.w3.org/2000/svg" width="1920" height="1080"><path d="M1980,1260L2100,1260L2100,1140Z" fill="#7b2b06" stroke="#7b2b06" stroke-width="1.51"/><path d="M1980,1140L1980,1260L2100,1140Z" fill="#832e06" stroke="#832e06" stroke-width="1.51"/><path d="M1980,1140L2100,1140L2100,1020Z" fill="#8b3005" stroke="#8b3005" stroke-width="1.51"/><path d="M1980,1020L1980,1140L2100,1020Z" fill="#933405" stroke="#933405" stroke-width="1.51"/><path d="M1980,1020L2100,1020L2100,900Z" fill="#9a3805" stroke="#9a3805" stroke-width="1.51"/><path d="M1980,900L1980,1020L2100,900Z" fill="#a23b05" stroke="#a23b05" stroke-width="1.51"/><path d="M1980,900L2100,900L2100,780Z" fill="#a64108" stroke="#a64108" stroke-width="1.51"/><path d="M1980,780L1980,900L2100,780Z" fill="#ac4509" stroke="#ac4509" stroke-width="1.51"/><path d="M1980,780L2100,780L2100,660Z" fill="#af4b0d" stroke="#af4b0d" stroke-width="1.51"/><path d="M1980,660L1980,780L2100,660Z" fill="#b4510e" stroke="#b4510e" stroke-width="1.51"/><path d="M1980,660L2100,660L2100,540Z" fill="#b55813" stroke="#b55813" stroke-width="1.51"/><path d="M1980,540L1980,660L2100,540Z" fill="#ba5d14" stroke="#ba5d14" stroke-width="1.51"/><path d="M1980,540L2100,540L2100,420Z" fill="#b9641a" stroke="#b9641a" stroke-width="1.51"/><path d="M1980,420L1980,540L2100,420Z" fill="#bd6a1e" stroke="#bd6a1e" stroke-width="1.51"/><path d="M1980,420L2100,420L2100,300Z" fill="#b97125" stroke="#b97125" stroke-width="1.51"/><path d="M1980,300L1980,420L2100,300Z" fill="#bd772a" stroke="#bd772a" stroke-width="1.51"/><path d="M1980,300L2100,300L2100,180Z" fill="#bb7b37" stroke="#bb7b37" stroke-width="1.51"/><path d="M1980,180L1980,300L2100,180Z" fill="#bf803d" stroke="#bf803d" stroke-width="1.51"/><path d="M1980,180L2100,180L2100,60Z" fill="#bc8449" stroke="#bc8449" stroke-width="1.51"/><path d="M1980,60L1980,180L2100,60Z" fill="#c0884e" stroke="#c0884e" stroke-width="1.51"/><path d="M1980,60L2100,60L2100,-60Z" fill="#be8a56" stroke="#be8a56" stroke-width="1.51"/><path d="M1980,-60L1980,60L2100,-60Z" fill="#c28d5a" stroke="#c28d5a" stroke-width="1.51"/><path d="M1980,-60L2100,-60L2100,-180Z" fill="#bf8e62" stroke="#bf8e62" stroke-width="1.51"/><path d="M1980,-180L1980,-60L2100,-180Z" fill="#c39066" stroke="#c39066" stroke-width="1.51"/><path d="M1860,1260L1980,1260L1980,1140Z" fill="#852f06" stroke="#852f06" stroke-width="1.51"/><path d="M1860,1140L1860,1260L1980,1140Z" fill="#8e3105" stroke="#8e3105" stroke-width="1.51"/><path d="M1860,1140L1980,1140L1980,1020Z" fill="#953305" stroke="#953305" stroke-width="1.51"/><path d="M1860,1020L1860,1140L1980,1020Z" fill="#9e3705" stroke="#9e3705" stroke-width="1.51"/><path d="M1860,1020L1980,1020L1980,900Z" fill="#a53b04" stroke="#a53b04" stroke-width="1.51"/><path d="M1860,900L1860,1020L1980,900Z" fill="#ad3e04" stroke="#ad3e04" stroke-width="1.51"/><path d="M1860,900L1980,900L1980,780Z" fill="#b04407" stroke="#b04407" stroke-width="1.51"/><path d="M1860,780L1860,900L1980,780Z" fill="#b74908" stroke="#b74908" stroke-width="1.51"/><path d="M1860,780L1980,780L1980,660Z" fill="#ba4f0c" stroke="#ba4f0c" stroke-width="1.51"/><path d="M1860,660L1860,780L1980,660Z" fill="#c0550e" stroke="#c0550e" stroke-width="1.51"/><path d="M1860,660L1980,660L1980,540Z" fill="#c05b12" stroke="#c05b12" stroke-width="1.51"/><path d="M1860,540L1860,660L1980,540Z" fill="#c56114" stroke="#c56114" stroke-width="1.51"/><path d="M1860,540L1980,540L1980,420Z" fill="#c4681a" stroke="#c4681a" stroke-width="1.51"/><path d="M1860,420L1860,540L1980,420Z" fill="#c86e1e" stroke="#c86e1e" stroke-width="1.51"/><path d="M1860,420L1980,420L1980,300Z" fill="#c47525" stroke="#c47525" stroke-width="1.51"/><path d="M1860,300L1860,420L1980,300Z" fill="#c97b2a" stroke="#c97b2a" stroke-width="1.51"/><path d="M1860,300L1980,300L1980,180Z" fill="#c68037" stroke="#c68037" stroke-width="1.51"/><path d="M1860,180L1860,300L1980,180Z" fill="#cb853e" stroke="#cb853e" stroke-width="1.51"/><path d="M1860,180L1980,180L1980,60Z" fill="#c7894a" stroke="#c7894a" stroke-width="1.51"/><path d="M1860,60L1860,180L1980,60Z" fill="#cc8c4f" stroke="#cc8c4f" stroke-width="1.51"/><path d="M1860,60L1980,60L1980,-60Z" fill="#c98f57" stroke="#c98f57" stroke-width="1.51"/><path d="M1860,-60L1860,60L1980,-60Z" fill="#ce925b" stroke="#ce925b" stroke-width="1.51"/><path d="M1860,-60L1980,-60L1980,-180Z" fill="#cb9363" stroke="#cb9363" stroke-width="1.51"/><path d="M1860,-180L1860,-60L1980,-180Z" fill="#cf9567" stroke="#cf9567" stroke-width="1.51"/><path d="M1740,1260L1860,1260L1860,1140Z" fill="#903205" stroke="#903205" stroke-width="1.51"/><path d="M1740,1140L1740,1260L1860,1140Z" fill="#983505" stroke="#983505" stroke-width="1.51"/><path d="M1740,1140L1860,1140L1860,1020Z" fill="#9f3704" stroke="#9f3704" stroke-width="1.51"/><path d="M1740,1020L1740,1140L1860,1020Z" fill="#a83b04" stroke="#a83b04" stroke-width="1.51"/><path d="M1740,1020L1860,1020L1860,900Z" fill="#af3e04" stroke="#af3e04" stroke-width="1.51"/><path d="M1740,900L1740,1020L1860,900Z" fill="#b74203" stroke="#b74203" stroke-width="1.51"/><path d="M1740,900L1860,900L1860,780Z" fill="#bb4806" stroke="#bb4806" stroke-width="1.51"/><path d="M1740,780L1740,900L1860,780Z" fill="#c24d07" stroke="#c24d07" stroke-width="1.51"/><path d="M1740,780L1860,780L1860,660Z" fill="#c5530b" stroke="#c5530b" stroke-width="1.51"/><path d="M1740,660L1740,780L1860,660Z" fill="#ca590d" stroke="#ca590d" stroke-width="1.51"/><path d="M1740,660L1860,660L1860,540Z" fill="#cb5f12" stroke="#cb5f12" stroke-width="1.51"/><path d="M1740,540L1740,660L1860,540Z" fill="#d06614" stroke="#d06614" stroke-width="1.51"/><path d="M1740,540L1860,540L1860,420Z" fill="#cf6d1a" stroke="#cf6d1a" stroke-width="1.51"/><path d="M1740,420L1740,540L1860,420Z" fill="#d3731e" stroke="#d3731e" stroke-width="1.51"/><path d="M1740,420L1860,420L1860,300Z" fill="#d07a25" stroke="#d07a25" stroke-width="1.51"/><path d="M1740,300L1740,420L1860,300Z" fill="#d3802a" stroke="#d3802a" stroke-width="1.51"/><path d="M1740,300L1860,300L1860,180Z" fill="#d28438" stroke="#d28438" stroke-width="1.51"/><path d="M1740,180L1740,300L1860,180Z" fill="#d58a3f" stroke="#d58a3f" stroke-width="1.51"/><path d="M1740,180L1860,180L1860,60Z" fill="#d38e4b" stroke="#d38e4b" stroke-width="1.51"/><path d="M1740,60L1740,180L1860,60Z" fill="#d79150" stroke="#d79150" stroke-width="1.51"/><path d="M1740,60L1860,60L1860,-60Z" fill="#d59358" stroke="#d59358" stroke-width="1.51"/><path d="M1740,-60L1740,60L1860,-60Z" fill="#d9975c" stroke="#d9975c" stroke-width="1.51"/><path d="M1740,-60L1860,-60L1860,-180Z" fill="#d79864" stroke="#d79864" stroke-width="1.51"/><path d="M1740,-180L1740,-60L1860,-180Z" fill="#db9a69" stroke="#db9a69" stroke-width="1.51"/><path d="M1620,1260L1740,1260L1740,1140Z" fill="#9a3705" stroke="#9a3705" stroke-width="1.51"/><path d="M1620,1140L1620,1260L1740,1140Z" fill="#a23a04" stroke="#a23a04" stroke-width="1.51"/><path d="M1620,1140L1740,1140L1740,1020Z" fill="#a93c04" stroke="#a93c04" stroke-width="1.51"/><path d="M1620,1020L1620,1140L1740,1020Z" fill="#b24004" stroke="#b24004" stroke-width="1.51"/><path d="M1620,1020L1740,1020L1740,900Z" fill="#b94303" stroke="#b94303" stroke-width="1.51"/><path d="M1620,900L1620,1020L1740,900Z" fill="#c24703" stroke="#c24703" stroke-width="1.51"/><path d="M1620,900L1740,900L1740,780Z" fill="#c54d05" stroke="#c54d05" stroke-width="1.51"/><path d="M1620,780L1620,900L1740,780Z" fill="#cc5207" stroke="#cc5207" stroke-width="1.51"/><path d="M1620,780L1740,780L1740,660Z" fill="#cf580b" stroke="#cf580b" stroke-width="1.51"/><path d="M1620,660L1620,780L1740,660Z" fill="#d55e0d" stroke="#d55e0d" stroke-width="1.51"/><path d="M1620,660L1740,660L1740,540Z" fill="#d56512" stroke="#d56512" stroke-width="1.51"/><path d="M1620,540L1620,660L1740,540Z" fill="#db6b14" stroke="#db6b14" stroke-width="1.51"/><path d="M1620,540L1740,540L1740,420Z" fill="#d9721a" stroke="#d9721a" stroke-width="1.51"/><path d="M1620,420L1620,540L1740,420Z" fill="#de781f" stroke="#de781f" stroke-width="1.51"/><path d="M1620,420L1740,420L1740,300Z" fill="#da7f26" stroke="#da7f26" stroke-width="1.51"/><path d="M1620,300L1620,420L1740,300Z" fill="#de862b" stroke="#de862b" stroke-width="1.51"/><path d="M1620,300L1740,300L1740,180Z" fill="#dc8a39" stroke="#dc8a39" stroke-width="1.51"/><path d="M1620,180L1620,300L1740,180Z" fill="#e08f40" stroke="#e08f40" stroke-width="1.51"/><path d="M1620,180L1740,180L1740,60Z" fill="#de934c" stroke="#de934c" stroke-width="1.51"/><path d="M1620,60L1620,180L1740,60Z" fill="#e29751" stroke="#e29751" stroke-width="1.51"/><path d="M1620,60L1740,60L1740,-60Z" fill="#e09959" stroke="#e09959" stroke-width="1.51"/><path d="M1620,-60L1620,60L1740,-60Z" fill="#e49d5e" stroke="#e49d5e" stroke-width="1.51"/><path d="M1620,-60L1740,-60L1740,-180Z" fill="#e29d66" stroke="#e29d66" stroke-width="1.51"/><path d="M1620,-180L1620,-60L1740,-180Z" fill="#e6a06a" stroke="#e6a06a" stroke-width="1.51"/><path d="M1500,1260L1620,1260L1620,1140Z" fill="#a43b05" stroke="#a43b05" stroke-width="1.51"/><path d="M1500,1140L1500,1260L1620,1140Z" fill="#ab3f05" stroke="#ab3f05" stroke-width="1.51"/><path d="M1500,1140L1620,1140L1620,1020Z" fill="#b44003" stroke="#b44003" stroke-width="1.51"/><path d="M1500,1020L1500,1140L1620,1020Z" fill="#bc4504" stroke="#bc4504" stroke-width="1.51"/><path d="M1500,1020L1620,1020L1620,900Z" fill="#c44803" stroke="#c44803" stroke-width="1.51"/><path d="M1500,900L1500,1020L1620,900Z" fill="#cb4c02" stroke="#cb4c02" stroke-width="1.51"/><path d="M1500,900L1620,900L1620,780Z" fill="#d05205" stroke="#d05205" stroke-width="1.51"/><path d="M1500,780L1500,900L1620,780Z" fill="#d65707" stroke="#d65707" stroke-width="1.51"/><path d="M1500,780L1620,780L1620,660Z" fill="#da5d0b" stroke="#da5d0b" stroke-width="1.51"/><path d="M1500,660L1500,780L1620,660Z" fill="#df630d" stroke="#df630d" stroke-width="1.51"/><path d="M1500,660L1620,660L1620,540Z" fill="#e06a12" stroke="#e06a12" stroke-width="1.51"/><path d="M1500,540L1500,660L1620,540Z" fill="#e47015" stroke="#e47015" stroke-width="1.51"/><path d="M1500,540L1620,540L1620,420Z" fill="#e4771a" stroke="#e4771a" stroke-width="1.51"/><path d="M1500,420L1500,540L1620,420Z" fill="#e77e1f" stroke="#e77e1f" stroke-width="1.51"/><path d="M1500,420L1620,420L1620,300Z" fill="#e58527" stroke="#e58527" stroke-width="1.51"/><path d="M1500,300L1500,420L1620,300Z" fill="#e88b2c" stroke="#e88b2c" stroke-width="1.51"/><path d="M1500,300L1620,300L1620,180Z" fill="#e78f3a" stroke="#e78f3a" stroke-width="1.51"/><path d="M1500,180L1500,300L1620,180Z" fill="#ea9542" stroke="#ea9542" stroke-width="1.51"/><path d="M1500,180L1620,180L1620,60Z" fill="#e9994e" stroke="#e9994e" stroke-width="1.51"/><path d="M1500,60L1500,180L1620,60Z" fill="#ec9d53" stroke="#ec9d53" stroke-width="1.51"/><path d="M1500,60L1620,60L1620,-60Z" fill="#eb9f5b" stroke="#eb9f5b" stroke-width="1.51"/><path d="M1500,-60L1500,60L1620,-60Z" fill="#eea360" stroke="#eea360" stroke-width="1.51"/><path d="M1500,-60L1620,-60L1620,-180Z" fill="#eda368" stroke="#eda368" stroke-width="1.51"/><path d="M1500,-180L1500,-60L1620,-180Z" fill="#f0a66d" stroke="#f0a66d" stroke-width="1.51"/><path d="M1380,1260L1500,1260L1500,1140Z" fill="#aa4207" stroke="#aa4207" stroke-width="1.51"/><path d="M1380,1140L1380,1260L1500,1140Z" fill="#b24607" stroke="#b24607" stroke-width="1.51"/><path d="M1380,1140L1500,1140L1500,1020Z" fill="#bb4705" stroke="#bb4705" stroke-width="1.51"/><path d="M1380,1020L1380,1140L1500,1020Z" fill="#c24c07" stroke="#c24c07" stroke-width="1.51"/><path d="M1380,1020L1500,1020L1500,900Z" fill="#cb4f05" stroke="#cb4f05" stroke-width="1.51"/><path d="M1380,900L1380,1020L1500,900Z" fill="#d25406" stroke="#d25406" stroke-width="1.51"/><path d="M1380,900L1500,900L1500,780Z" fill="#d75907" stroke="#d75907" stroke-width="1.51"/><path d="M1380,780L1380,900L1500,780Z" fill="#dc5f0b" stroke="#dc5f0b" stroke-width="1.51"/><path d="M1380,780L1500,780L1500,660Z" fill="#e1640e" stroke="#e1640e" stroke-width="1.51"/><path d="M1380,660L1380,780L1500,660Z" fill="#e56b11" stroke="#e56b11" stroke-width="1.51"/><path d="M1380,660L1500,660L1500,540Z" fill="#e77015" stroke="#e77015" stroke-width="1.51"/><path d="M1380,540L1380,660L1500,540Z" fill="#eb7718" stroke="#eb7718" stroke-width="1.51"/><path d="M1380,540L1500,540L1500,420Z" fill="#eb7e1d" stroke="#eb7e1d" stroke-width="1.51"/><path d="M1380,420L1380,540L1500,420Z" fill="#ee8523" stroke="#ee8523" stroke-width="1.51"/><path d="M1380,420L1500,420L1500,300Z" fill="#ec8b2a" stroke="#ec8b2a" stroke-width="1.51"/><path d="M1380,300L1380,420L1500,300Z" fill="#ee9230" stroke="#ee9230" stroke-width="1.51"/><path d="M1380,300L1500,300L1500,180Z" fill="#ee963d" stroke="#ee963d" stroke-width="1.51"/><path d="M1380,180L1380,300L1500,180Z" fill="#f09c45" stroke="#f09c45" stroke-width="1.51"/><path d="M1380,180L1500,180L1500,60Z" fill="#f0a051" stroke="#f0a051" stroke-width="1.51"/><path d="M1380,60L1380,180L1500,60Z" fill="#f2a457" stroke="#f2a457" stroke-width="1.51"/><path d="M1380,60L1500,60L1500,-60Z" fill="#f2a55e" stroke="#f2a55e" stroke-width="1.51"/><path d="M1380,-60L1380,60L1500,-60Z" fill="#f4aa63" stroke="#f4aa63" stroke-width="1.51"/><path d="M1380,-60L1500,-60L1500,-180Z" fill="#f4aa6b" stroke="#f4aa6b" stroke-width="1.51"/><path d="M1380,-180L1380,-60L1500,-180Z" fill="#f6ad70" stroke="#f6ad70" stroke-width="1.51"/><path d="M1260,1260L1380,1260L1380,1140Z" fill="#b0490a" stroke="#b0490a" stroke-width="1.51"/><path d="M1260,1140L1260,1260L1380,1140Z" fill="#b84d0b" stroke="#b84d0b" stroke-width="1.51"/><path d="M1260,1140L1380,1140L1380,1020Z" fill="#c04f09" stroke="#c04f09" stroke-width="1.51"/><path d="M1260,1020L1260,1140L1380,1020Z" fill="#c9530a" stroke="#c9530a" stroke-width="1.51"/><path d="M1260,1020L1380,1020L1380,900Z" fill="#d15708" stroke="#d15708" stroke-width="1.51"/><path d="M1260,900L1260,1020L1380,900Z" fill="#d85b09" stroke="#d85b09" stroke-width="1.51"/><path d="M1260,900L1380,900L1380,780Z" fill="#dd600c" stroke="#dd600c" stroke-width="1.51"/><path d="M1260,780L1260,900L1380,780Z" fill="#e3660f" stroke="#e3660f" stroke-width="1.51"/><path d="M1260,780L1380,780L1380,660Z" fill="#e76b12" stroke="#e76b12" stroke-width="1.51"/><path d="M1260,660L1260,780L1380,660Z" fill="#ec7215" stroke="#ec7215" stroke-width="1.51"/><path d="M1260,660L1380,660L1380,540Z" fill="#ed7818" stroke="#ed7818" stroke-width="1.51"/><path d="M1260,540L1260,660L1380,540Z" fill="#f17e1c" stroke="#f17e1c" stroke-width="1.51"/><path d="M1260,540L1380,540L1380,420Z" fill="#f18521" stroke="#f18521" stroke-width="1.51"/><path d="M1260,420L1260,540L1380,420Z" fill="#f48c26" stroke="#f48c26" stroke-width="1.51"/><path d="M1260,420L1380,420L1380,300Z" fill="#f2932d" stroke="#f2932d" stroke-width="1.51"/><path d="M1260,300L1260,420L1380,300Z" fill="#f59933" stroke="#f59933" stroke-width="1.51"/><path d="M1260,300L1380,300L1380,180Z" fill="#f49d41" stroke="#f49d41" stroke-width="1.51"/><path d="M1260,180L1260,300L1380,180Z" fill="#f7a349" stroke="#f7a349" stroke-width="1.51"/><path d="M1260,180L1380,180L1380,60Z" fill="#f5a754" stroke="#f5a754" stroke-width="1.51"/><path d="M1260,60L1260,180L1380,60Z" fill="#f9ab5a" stroke="#f9ab5a" stroke-width="1.51"/><path d="M1260,60L1380,60L1380,-60Z" fill="#f7ad62" stroke="#f7ad62" stroke-width="1.51"/><path d="M1260,-60L1260,60L1380,-60Z" fill="#fab167" stroke="#fab167" stroke-width="1.51"/><path d="M1260,-60L1380,-60L1380,-180Z" fill="#f9b16f" stroke="#f9b16f" stroke-width="1.51"/><path d="M1260,-180L1260,-60L1380,-180Z" fill="#fcb474" stroke="#fcb474" stroke-width="1.51"/><path d="M1140,1260L1260,1260L1260,1140Z" fill="#b6510e" stroke="#b6510e" stroke-width="1.51"/><path d="M1140,1140L1140,1260L1260,1140Z" fill="#bc550f" stroke="#bc550f" stroke-width="1.51"/><path d="M1140,1140L1260,1140L1260,1020Z" fill="#c6560d" stroke="#c6560d" stroke-width="1.51"/><path d="M1140,1020L1140,1140L1260,1020Z" fill="#cd5b0e" stroke="#cd5b0e" stroke-width="1.51"/><path d="M1140,1020L1260,1020L1260,900Z" fill="#d65e0d" stroke="#d65e0d" stroke-width="1.51"/><path d="M1140,900L1140,1020L1260,900Z" fill="#dd630e" stroke="#dd630e" stroke-width="1.51"/><path d="M1140,900L1260,900L1260,780Z" fill="#e36810" stroke="#e36810" stroke-width="1.51"/><path d="M1140,780L1140,900L1260,780Z" fill="#e86e13" stroke="#e86e13" stroke-width="1.51"/><path d="M1140,780L1260,780L1260,660Z" fill="#ed7316" stroke="#ed7316" stroke-width="1.51"/><path d="M1140,660L1140,780L1260,660Z" fill="#f07a19" stroke="#f07a19" stroke-width="1.51"/><path d="M1140,660L1260,660L1260,540Z" fill="#f37f1c" stroke="#f37f1c" stroke-width="1.51"/><path d="M1140,540L1140,660L1260,540Z" fill="#f68620" stroke="#f68620" stroke-width="1.51"/><path d="M1140,540L1260,540L1260,420Z" fill="#f68c24" stroke="#f68c24" stroke-width="1.51"/><path d="M1140,420L1140,540L1260,420Z" fill="#f8932a" stroke="#f8932a" stroke-width="1.51"/><path d="M1140,420L1260,420L1260,300Z" fill="#f79a30" stroke="#f79a30" stroke-width="1.51"/><path d="M1140,300L1140,420L1260,300Z" fill="#f9a136" stroke="#f9a136" stroke-width="1.51"/><path d="M1140,300L1260,300L1260,180Z" fill="#f9a444" stroke="#f9a444" stroke-width="1.51"/><path d="M1140,180L1140,300L1260,180Z" fill="#fbaa4c" stroke="#fbaa4c" stroke-width="1.51"/><path d="M1140,180L1260,180L1260,60Z" fill="#faae58" stroke="#faae58" stroke-width="1.51"/><path d="M1140,60L1140,180L1260,60Z" fill="#fcb25e" stroke="#fcb25e" stroke-width="1.51"/><path d="M1140,60L1260,60L1260,-60Z" fill="#fcb465" stroke="#fcb465" stroke-width="1.51"/><path d="M1140,-60L1140,60L1260,-60Z" fill="#feb86b" stroke="#feb86b" stroke-width="1.51"/><path d="M1140,-60L1260,-60L1260,-180Z" fill="#feb872" stroke="#feb872" stroke-width="1.51"/><path d="M1140,-180L1140,-60L1260,-180Z" fill="#ffbb78" stroke="#ffbb78" stroke-width="1.51"/><path d="M1020,1260L1140,1260L1140,1140Z" fill="#b95812" stroke="#b95812" stroke-width="1.51"/><path d="M1020,1140L1020,1260L1140,1140Z" fill="#c05d12" stroke="#c05d12" stroke-width="1.51"/><path d="M1020,1140L1140,1140L1140,1020Z" fill="#ca5e11" stroke="#ca5e11" stroke-width="1.51"/><path d="M1020,1020L1020,1140L1140,1020Z" fill="#d16412" stroke="#d16412" stroke-width="1.51"/><path d="M1020,1020L1140,1020L1140,900Z" fill="#da6611" stroke="#da6611" stroke-width="1.51"/><path d="M1020,900L1020,1020L1140,900Z" fill="#e16c12" stroke="#e16c12" stroke-width="1.51"/><path d="M1020,900L1140,900L1140,780Z" fill="#e77014" stroke="#e77014" stroke-width="1.51"/><path d="M1020,780L1020,900L1140,780Z" fill="#eb7617" stroke="#eb7617" stroke-width="1.51"/><path d="M1020,780L1140,780L1140,660Z" fill="#f17b1a" stroke="#f17b1a" stroke-width="1.51"/><path d="M1020,660L1020,780L1140,660Z" fill="#f4821d" stroke="#f4821d" stroke-width="1.51"/><path d="M1020,660L1140,660L1140,540Z" fill="#f78720" stroke="#f78720" stroke-width="1.51"/><path d="M1020,540L1020,660L1140,540Z" fill="#f98f24" stroke="#f98f24" stroke-width="1.51"/><path d="M1020,540L1140,540L1140,420Z" fill="#fa9428" stroke="#fa9428" stroke-width="1.51"/><path d="M1020,420L1020,540L1140,420Z" fill="#fc9c2e" stroke="#fc9c2e" stroke-width="1.51"/><path d="M1020,420L1140,420L1140,300Z" fill="#fba134" stroke="#fba134" stroke-width="1.51"/><path d="M1020,300L1020,420L1140,300Z" fill="#fca93a" stroke="#fca93a" stroke-width="1.51"/><path d="M1020,300L1140,300L1140,180Z" fill="#fcac48" stroke="#fcac48" stroke-width="1.51"/><path d="M1020,180L1020,300L1140,180Z" fill="#feb350" stroke="#feb350" stroke-width="1.51"/><path d="M1020,180L1140,180L1140,60Z" fill="#feb65c" stroke="#feb65c" stroke-width="1.51"/><path d="M1020,60L1020,180L1140,60Z" fill="#ffba62" stroke="#ffba62" stroke-width="1.51"/><path d="M1020,60L1140,60L1140,-60Z" fill="#ffbc69" stroke="#ffbc69" stroke-width="1.51"/><path d="M1020,-60L1020,60L1140,-60Z" fill="#ffc06f" stroke="#ffc06f" stroke-width="1.51"/><path d="M1020,-60L1140,-60L1140,-180Z" fill="#ffc076" stroke="#ffc076" stroke-width="1.51"/><path d="M1020,-180L1020,-60L1140,-180Z" fill="#ffc47c" stroke="#ffc47c" stroke-width="1.51"/><path d="M900,1260L1020,1260L1020,1140Z" fill="#bd6016" stroke="#bd6016" stroke-width="1.51"/><path d="M900,1140L900,1260L1020,1140Z" fill="#c36517" stroke="#c36517" stroke-width="1.51"/><path d="M900,1140L1020,1140L1020,1020Z" fill="#cd6615" stroke="#cd6615" stroke-width="1.51"/><path d="M900,1020L900,1140L1020,1020Z" fill="#d46c17" stroke="#d46c17" stroke-width="1.51"/><path d="M900,1020L1020,1020L1020,900Z" fill="#de6f16" stroke="#de6f16" stroke-width="1.51"/><path d="M900,900L900,1020L1020,900Z" fill="#e47418" stroke="#e47418" stroke-width="1.51"/><path d="M900,900L1020,900L1020,780Z" fill="#ea7819" stroke="#ea7819" stroke-width="1.51"/><path d="M900,780L900,900L1020,780Z" fill="#ee7f1d" stroke="#ee7f1d" stroke-width="1.51"/><path d="M900,780L1020,780L1020,660Z" fill="#f4831e" stroke="#f4831e" stroke-width="1.51"/><path d="M900,660L900,780L1020,660Z" fill="#f78a22" stroke="#f78a22" stroke-width="1.51"/><path d="M900,660L1020,660L1020,540Z" fill="#fa8f25" stroke="#fa8f25" stroke-width="1.51"/><path d="M900,540L900,660L1020,540Z" fill="#fc9729" stroke="#fc9729" stroke-width="1.51"/><path d="M900,540L1020,540L1020,420Z" fill="#fe9c2d" stroke="#fe9c2d" stroke-width="1.51"/><path d="M900,420L900,540L1020,420Z" fill="#ffa433" stroke="#ffa433" stroke-width="1.51"/><path d="M900,420L1020,420L1020,300Z" fill="#fea938" stroke="#fea938" stroke-width="1.51"/><path d="M900,300L900,420L1020,300Z" fill="#ffb13f" stroke="#ffb13f" stroke-width="1.51"/><path d="M900,300L1020,300L1020,180Z" fill="#ffb44c" stroke="#ffb44c" stroke-width="1.51"/><path d="M900,180L900,300L1020,180Z" fill="#ffba55" stroke="#ffba55" stroke-width="1.51"/><path d="M900,180L1020,180L1020,60Z" fill="#ffbd60" stroke="#ffbd60" stroke-width="1.51"/><path d="M900,60L900,180L1020,60Z" fill="#ffc266" stroke="#ffc266" stroke-width="1.51"/><path d="M900,60L1020,60L1020,-60Z" fill="#ffc36e" stroke="#ffc36e" stroke-width="1.51"/><path d="M900,-60L900,60L1020,-60Z" fill="#ffc873" stroke="#ffc873" stroke-width="1.51"/><path d="M900,-60L1020,-60L1020,-180Z" fill="#ffc87b" stroke="#ffc87b" stroke-width="1.51"/><path d="M900,-180L900,-60L1020,-180Z" fill="#ffcb81" stroke="#ffcb81" stroke-width="1.51"/><path d="M780,1260L900,1260L900,1140Z" fill="#be691d" stroke="#be691d" stroke-width="1.51"/><path d="M780,1140L780,1260L900,1140Z" fill="#c46e1f" stroke="#c46e1f" stroke-width="1.51"/><path d="M780,1140L900,1140L900,1020Z" fill="#cf701c" stroke="#cf701c" stroke-width="1.51"/><path d="M780,1020L780,1140L900,1020Z" fill="#d5751f" stroke="#d5751f" stroke-width="1.51"/><path d="M780,1020L900,1020L900,900Z" fill="#e0781d" stroke="#e0781d" stroke-width="1.51"/><path d="M780,900L780,1020L900,900Z" fill="#e57d20" stroke="#e57d20" stroke-width="1.51"/><path d="M780,900L900,900L900,780Z" fill="#ec8120" stroke="#ec8120" stroke-width="1.51"/><path d="M780,780L780,900L900,780Z" fill="#ef8725" stroke="#ef8725" stroke-width="1.51"/><path d="M780,780L900,780L900,660Z" fill="#f58c26" stroke="#f58c26" stroke-width="1.51"/><path d="M780,660L780,780L900,660Z" fill="#f7932a" stroke="#f7932a" stroke-width="1.51"/><path d="M780,660L900,660L900,540Z" fill="#fb982c" stroke="#fb982c" stroke-width="1.51"/><path d="M780,540L780,660L900,540Z" fill="#fd9f30" stroke="#fd9f30" stroke-width="1.51"/><path d="M780,540L900,540L900,420Z" fill="#ffa534" stroke="#ffa534" stroke-width="1.51"/><path d="M780,420L780,540L900,420Z" fill="#ffac3a" stroke="#ffac3a" stroke-width="1.51"/><path d="M780,420L900,420L900,300Z" fill="#ffb23f" stroke="#ffb23f" stroke-width="1.51"/><path d="M780,300L780,420L900,300Z" fill="#ffb946" stroke="#ffb946" stroke-width="1.51"/><path d="M780,300L900,300L900,180Z" fill="#ffbd52" stroke="#ffbd52" stroke-width="1.51"/><path d="M780,180L780,300L900,180Z" fill="#ffc35b" stroke="#ffc35b" stroke-width="1.51"/><path d="M780,180L900,180L900,60Z" fill="#ffc666" stroke="#ffc666" stroke-width="1.51"/><path d="M780,60L780,180L900,60Z" fill="#ffcb6d" stroke="#ffcb6d" stroke-width="1.51"/><path d="M780,60L900,60L900,-60Z" fill="#ffcc74" stroke="#ffcc74" stroke-width="1.51"/><path d="M780,-60L780,60L900,-60Z" fill="#ffd07a" stroke="#ffd07a" stroke-width="1.51"/><path d="M780,-60L900,-60L900,-180Z" fill="#ffd081" stroke="#ffd081" stroke-width="1.51"/><path d="M780,-180L780,-60L900,-180Z" fill="#ffd487" stroke="#ffd487" stroke-width="1.51"/><path d="M660,1260L780,1260L780,1140Z" fill="#be7224" stroke="#be7224" stroke-width="1.51"/><path d="M660,1140L660,1260L780,1140Z" fill="#c47626" stroke="#c47626" stroke-width="1.51"/><path d="M660,1140L780,1140L780,1020Z" fill="#cf7824" stroke="#cf7824" stroke-width="1.51"/><path d="M660,1020L660,1140L780,1020Z" fill="#d57e27" stroke="#d57e27" stroke-width="1.51"/><path d="M660,1020L780,1020L780,900Z" fill="#e08125" stroke="#e08125" stroke-width="1.51"/><path d="M660,900L660,1020L780,900Z" fill="#e58628" stroke="#e58628" stroke-width="1.51"/><path d="M660,900L780,900L780,780Z" fill="#ec8a28" stroke="#ec8a28" stroke-width="1.51"/><path d="M660,780L660,900L780,780Z" fill="#ef902d" stroke="#ef902d" stroke-width="1.51"/><path d="M660,780L780,780L780,660Z" fill="#f6952d" stroke="#f6952d" stroke-width="1.51"/><path d="M660,660L660,780L780,660Z" fill="#f89c32" stroke="#f89c32" stroke-width="1.51"/><path d="M660,660L780,660L780,540Z" fill="#fba133" stroke="#fba133" stroke-width="1.51"/><path d="M660,540L660,660L780,540Z" fill="#fda838" stroke="#fda838" stroke-width="1.51"/><path d="M660,540L780,540L780,420Z" fill="#feae3b" stroke="#feae3b" stroke-width="1.51"/><path d="M660,420L660,540L780,420Z" fill="#ffb542" stroke="#ffb542" stroke-width="1.51"/><path d="M660,420L780,420L780,300Z" fill="#febb47" stroke="#febb47" stroke-width="1.51"/><path d="M660,300L660,420L780,300Z" fill="#fec24e" stroke="#fec24e" stroke-width="1.51"/><path d="M660,300L780,300L780,180Z" fill="#ffc559" stroke="#ffc559" stroke-width="1.51"/><path d="M660,180L660,300L780,180Z" fill="#ffcb63" stroke="#ffcb63" stroke-width="1.51"/><path d="M660,180L780,180L780,60Z" fill="#ffce6d" stroke="#ffce6d" stroke-width="1.51"/><path d="M660,60L660,180L780,60Z" fill="#ffd374" stroke="#ffd374" stroke-width="1.51"/><path d="M660,60L780,60L780,-60Z" fill="#ffd47b" stroke="#ffd47b" stroke-width="1.51"/><path d="M660,-60L660,60L780,-60Z" fill="#ffd981" stroke="#ffd981" stroke-width="1.51"/><path d="M660,-60L780,-60L780,-180Z" fill="#ffd988" stroke="#ffd988" stroke-width="1.51"/><path d="M660,-180L660,-60L780,-180Z" fill="#ffdc8e" stroke="#ffdc8e" stroke-width="1.51"/><path d="M540,1260L660,1260L660,1140Z" fill="#bf792d" stroke="#bf792d" stroke-width="1.51"/><path d="M540,1140L540,1260L660,1140Z" fill="#c57d31" stroke="#c57d31" stroke-width="1.51"/><path d="M540,1140L660,1140L660,1020Z" fill="#d0802d" stroke="#d0802d" stroke-width="1.51"/><path d="M540,1020L540,1140L660,1020Z" fill="#d68533" stroke="#d68533" stroke-width="1.51"/><path d="M540,1020L660,1020L660,900Z" fill="#e1882f" stroke="#e1882f" stroke-width="1.51"/><path d="M540,900L540,1020L660,900Z" fill="#e78d34" stroke="#e78d34" stroke-width="1.51"/><path d="M540,900L660,900L660,780Z" fill="#ed9232" stroke="#ed9232" stroke-width="1.51"/><path d="M540,780L540,900L660,780Z" fill="#f19739" stroke="#f19739" stroke-width="1.51"/><path d="M540,780L660,780L660,660Z" fill="#f69d38" stroke="#f69d38" stroke-width="1.51"/><path d="M540,660L540,780L660,660Z" fill="#f9a33e" stroke="#f9a33e" stroke-width="1.51"/><path d="M540,660L660,660L660,540Z" fill="#fca93e" stroke="#fca93e" stroke-width="1.51"/><path d="M540,540L540,660L660,540Z" fill="#feaf44" stroke="#feaf44" stroke-width="1.51"/><path d="M540,540L660,540L660,420Z" fill="#ffb545" stroke="#ffb545" stroke-width="1.51"/><path d="M540,420L540,540L660,420Z" fill="#ffbc4e" stroke="#ffbc4e" stroke-width="1.51"/><path d="M540,420L660,420L660,300Z" fill="#fec250" stroke="#fec250" stroke-width="1.51"/><path d="M540,300L540,420L660,300Z" fill="#ffc859" stroke="#ffc859" stroke-width="1.51"/><path d="M540,300L660,300L660,180Z" fill="#ffcc63" stroke="#ffcc63" stroke-width="1.51"/><path d="M540,180L540,300L660,180Z" fill="#ffd26e" stroke="#ffd26e" stroke-width="1.51"/><path d="M540,180L660,180L660,60Z" fill="#ffd676" stroke="#ffd676" stroke-width="1.51"/><path d="M540,60L540,180L660,60Z" fill="#ffda7f" stroke="#ffda7f" stroke-width="1.51"/><path d="M540,60L660,60L660,-60Z" fill="#ffdc84" stroke="#ffdc84" stroke-width="1.51"/><path d="M540,-60L540,60L660,-60Z" fill="#ffe08c" stroke="#ffe08c" stroke-width="1.51"/><path d="M540,-60L660,-60L660,-180Z" fill="#ffe091" stroke="#ffe091" stroke-width="1.51"/><path d="M540,-180L540,-60L660,-180Z" fill="#ffe399" stroke="#ffe399" stroke-width="1.51"/><path d="M420,1260L540,1260L540,1140Z" fill="#c07f3a" stroke="#c07f3a" stroke-width="1.51"/><path d="M420,1140L420,1260L540,1140Z" fill="#c6833f" stroke="#c6833f" stroke-width="1.51"/><path d="M420,1140L540,1140L540,1020Z" fill="#d1863b" stroke="#d1863b" stroke-width="1.51"/><path d="M420,1020L420,1140L540,1020Z" fill="#d88b40" stroke="#d88b40" stroke-width="1.51"/><path d="M420,1020L540,1020L540,900Z" fill="#e28e3d" stroke="#e28e3d" stroke-width="1.51"/><path d="M420,900L420,1020L540,900Z" fill="#e89442" stroke="#e89442" stroke-width="1.51"/><path d="M420,900L540,900L540,780Z" fill="#ee9841" stroke="#ee9841" stroke-width="1.51"/><path d="M420,780L420,900L540,780Z" fill="#f29e47" stroke="#f29e47" stroke-width="1.51"/><path d="M420,780L540,780L540,660Z" fill="#f8a346" stroke="#f8a346" stroke-width="1.51"/><path d="M420,660L420,780L540,660Z" fill="#faa94c" stroke="#faa94c" stroke-width="1.51"/><path d="M420,660L540,660L540,540Z" fill="#fdaf4c" stroke="#fdaf4c" stroke-width="1.51"/><path d="M420,540L420,660L540,540Z" fill="#ffb553" stroke="#ffb553" stroke-width="1.51"/><path d="M420,540L540,540L540,420Z" fill="#ffbb53" stroke="#ffbb53" stroke-width="1.51"/><path d="M420,420L420,540L540,420Z" fill="#ffc25c" stroke="#ffc25c" stroke-width="1.51"/><path d="M420,420L540,420L540,300Z" fill="#ffc85e" stroke="#ffc85e" stroke-width="1.51"/><path d="M420,300L420,420L540,300Z" fill="#ffcf67" stroke="#ffcf67" stroke-width="1.51"/><path d="M420,300L540,300L540,180Z" fill="#ffd270" stroke="#ffd270" stroke-width="1.51"/><path d="M420,180L420,300L540,180Z" fill="#ffd87b" stroke="#ffd87b" stroke-width="1.51"/><path d="M420,180L540,180L540,60Z" fill="#ffdc83" stroke="#ffdc83" stroke-width="1.51"/><path d="M420,60L420,180L540,60Z" fill="#ffe08c" stroke="#ffe08c" stroke-width="1.51"/><path d="M420,60L540,60L540,-60Z" fill="#ffe291" stroke="#ffe291" stroke-width="1.51"/><path d="M420,-60L420,60L540,-60Z" fill="#ffe699" stroke="#ffe699" stroke-width="1.51"/><path d="M420,-60L540,-60L540,-180Z" fill="#ffe69e" stroke="#ffe69e" stroke-width="1.51"/><path d="M420,-180L420,-60L540,-180Z" fill="#ffeaa6" stroke="#ffeaa6" stroke-width="1.51"/><path d="M300,1260L420,1260L420,1140Z" fill="#c18547" stroke="#c18547" stroke-width="1.51"/><path d="M300,1140L300,1260L420,1140Z" fill="#c7894a" stroke="#c7894a" stroke-width="1.51"/><path d="M300,1140L420,1140L420,1020Z" fill="#d28c48" stroke="#d28c48" stroke-width="1.51"/><path d="M300,1020L300,1140L420,1020Z" fill="#d8914c" stroke="#d8914c" stroke-width="1.51"/><path d="M300,1020L420,1020L420,900Z" fill="#e3954a" stroke="#e3954a" stroke-width="1.51"/><path d="M300,900L300,1020L420,900Z" fill="#e9994e" stroke="#e9994e" stroke-width="1.51"/><path d="M300,900L420,900L420,780Z" fill="#ef9f4e" stroke="#ef9f4e" stroke-width="1.51"/><path d="M300,780L300,900L420,780Z" fill="#f3a353" stroke="#f3a353" stroke-width="1.51"/><path d="M300,780L420,780L420,660Z" fill="#f9a953" stroke="#f9a953" stroke-width="1.51"/><path d="M300,660L300,780L420,660Z" fill="#fbaf59" stroke="#fbaf59" stroke-width="1.51"/><path d="M300,660L420,660L420,540Z" fill="#feb559" stroke="#feb559" stroke-width="1.51"/><path d="M300,540L300,660L420,540Z" fill="#ffbb5f" stroke="#ffbb5f" stroke-width="1.51"/><path d="M300,540L420,540L420,420Z" fill="#ffc261" stroke="#ffc261" stroke-width="1.51"/><path d="M300,420L300,540L420,420Z" fill="#ffc868" stroke="#ffc868" stroke-width="1.51"/><path d="M300,420L420,420L420,300Z" fill="#ffce6b" stroke="#ffce6b" stroke-width="1.51"/><path d="M300,300L300,420L420,300Z" fill="#ffd473" stroke="#ffd473" stroke-width="1.51"/><path d="M300,300L420,300L420,180Z" fill="#ffd97d" stroke="#ffd97d" stroke-width="1.51"/><path d="M300,180L300,300L420,180Z" fill="#ffde87" stroke="#ffde87" stroke-width="1.51"/><path d="M300,180L420,180L420,60Z" fill="#fee290" stroke="#fee290" stroke-width="1.51"/><path d="M300,60L300,180L420,60Z" fill="#ffe698" stroke="#ffe698" stroke-width="1.51"/><path d="M300,60L420,60L420,-60Z" fill="#ffe89e" stroke="#ffe89e" stroke-width="1.51"/><path d="M300,-60L300,60L420,-60Z" fill="#ffeca5" stroke="#ffeca5" stroke-width="1.51"/><path d="M300,-60L420,-60L420,-180Z" fill="#ffedab" stroke="#ffedab" stroke-width="1.51"/><path d="M300,-180L300,-60L420,-180Z" fill="#ffefb2" stroke="#ffefb2" stroke-width="1.51"/><path d="M180,1260L300,1260L300,1140Z" fill="#c2894f" stroke="#c2894f" stroke-width="1.51"/><path d="M180,1140L180,1260L300,1140Z" fill="#c88d52" stroke="#c88d52" stroke-width="1.51"/><path d="M180,1140L300,1140L300,1020Z" fill="#d49051" stroke="#d49051" stroke-width="1.51"/><path d="M180,1020L180,1140L300,1020Z" fill="#da9454" stroke="#da9454" stroke-width="1.51"/><path d="M180,1020L300,1020L300,900Z" fill="#e59953" stroke="#e59953" stroke-width="1.51"/><path d="M180,900L180,1020L300,900Z" fill="#ea9d57" stroke="#ea9d57" stroke-width="1.51"/><path d="M180,900L300,900L300,780Z" fill="#f1a357" stroke="#f1a357" stroke-width="1.51"/><path d="M180,780L180,900L300,780Z" fill="#f4a75c" stroke="#f4a75c" stroke-width="1.51"/><path d="M180,780L300,780L300,660Z" fill="#faae5c" stroke="#faae5c" stroke-width="1.51"/><path d="M180,660L180,780L300,660Z" fill="#fcb361" stroke="#fcb361" stroke-width="1.51"/><path d="M180,660L300,660L300,540Z" fill="#ffba63" stroke="#ffba63" stroke-width="1.51"/><path d="M180,540L180,660L300,540Z" fill="#ffbf68" stroke="#ffbf68" stroke-width="1.51"/><path d="M180,540L300,540L300,420Z" fill="#ffc66a" stroke="#ffc66a" stroke-width="1.51"/><path d="M180,420L180,540L300,420Z" fill="#ffcc71" stroke="#ffcc71" stroke-width="1.51"/><path d="M180,420L300,420L300,300Z" fill="#ffd375" stroke="#ffd375" stroke-width="1.51"/><path d="M180,300L180,420L300,300Z" fill="#ffd87c" stroke="#ffd87c" stroke-width="1.51"/><path d="M180,300L300,300L300,180Z" fill="#ffdd86" stroke="#ffdd86" stroke-width="1.51"/><path d="M180,180L180,300L300,180Z" fill="#ffe290" stroke="#ffe290" stroke-width="1.51"/><path d="M180,180L300,180L300,60Z" fill="#ffe799" stroke="#ffe799" stroke-width="1.51"/><path d="M180,60L180,180L300,60Z" fill="#ffeaa1" stroke="#ffeaa1" stroke-width="1.51"/><path d="M180,60L300,60L300,-60Z" fill="#ffeda7" stroke="#ffeda7" stroke-width="1.51"/><path d="M180,-60L180,60L300,-60Z" fill="#fff0ad" stroke="#fff0ad" stroke-width="1.51"/><path d="M180,-60L300,-60L300,-180Z" fill="#fff1b4" stroke="#fff1b4" stroke-width="1.51"/><path d="M180,-180L180,-60L300,-180Z" fill="#fff3ba" stroke="#fff3ba" stroke-width="1.51"/><path d="M60,1260L180,1260L180,1140Z" fill="#c38d58" stroke="#c38d58" stroke-width="1.51"/><path d="M60,1140L60,1260L180,1140Z" fill="#c9905a" stroke="#c9905a" stroke-width="1.51"/><path d="M60,1140L180,1140L180,1020Z" fill="#d59459" stroke="#d59459" stroke-width="1.51"/><path d="M60,1020L60,1140L180,1020Z" fill="#db985d" stroke="#db985d" stroke-width="1.51"/><path d="M60,1020L180,1020L180,900Z" fill="#e69d5c" stroke="#e69d5c" stroke-width="1.51"/><path d="M60,900L60,1020L180,900Z" fill="#eca15f" stroke="#eca15f" stroke-width="1.51"/><path d="M60,900L180,900L180,780Z" fill="#f2a760" stroke="#f2a760" stroke-width="1.51"/><path d="M60,780L60,900L180,780Z" fill="#f6ab64" stroke="#f6ab64" stroke-width="1.51"/><path d="M60,780L180,780L180,660Z" fill="#fbb265" stroke="#fbb265" stroke-width="1.51"/><path d="M60,660L60,780L180,660Z" fill="#fdb76a" stroke="#fdb76a" stroke-width="1.51"/><path d="M60,660L180,660L180,540Z" fill="#ffbd6c" stroke="#ffbd6c" stroke-width="1.51"/><path d="M60,540L60,660L180,540Z" fill="#ffc370" stroke="#ffc370" stroke-width="1.51"/><path d="M60,540L180,540L180,420Z" fill="#ffca73" stroke="#ffca73" stroke-width="1.51"/><path d="M60,420L60,540L180,420Z" fill="#ffcf79" stroke="#ffcf79" stroke-width="1.51"/><path d="M60,420L180,420L180,300Z" fill="#ffd77e" stroke="#ffd77e" stroke-width="1.51"/><path d="M60,300L60,420L180,300Z" fill="#ffdc85" stroke="#ffdc85" stroke-width="1.51"/><path d="M60,300L180,300L180,180Z" fill="#ffe18f" stroke="#ffe18f" stroke-width="1.51"/><path d="M60,180L60,300L180,180Z" fill="#ffe698" stroke="#ffe698" stroke-width="1.51"/><path d="M60,180L180,180L180,60Z" fill="#ffeba2" stroke="#ffeba2" stroke-width="1.51"/><path d="M60,60L60,180L180,60Z" fill="#ffeea9" stroke="#ffeea9" stroke-width="1.51"/><path d="M60,60L180,60L180,-60Z" fill="#fff1af" stroke="#fff1af" stroke-width="1.51"/><path d="M60,-60L60,60L180,-60Z" fill="#fff4b6" stroke="#fff4b6" stroke-width="1.51"/><path d="M60,-60L180,-60L180,-180Z" fill="#fff5bd" stroke="#fff5bd" stroke-width="1.51"/><path d="M60,-180L60,-60L180,-180Z" fill="#fff7c3" stroke="#fff7c3" stroke-width="1.51"/><path d="M-60,1260L60,1260L60,1140Z" fill="#c4905f" stroke="#c4905f" stroke-width="1.51"/><path d="M-60,1140L-60,1260L60,1140Z" fill="#ca9362" stroke="#ca9362" stroke-width="1.51"/><path d="M-60,1140L60,1140L60,1020Z" fill="#d69761" stroke="#d69761" stroke-width="1.51"/><path d="M-60,1020L-60,1140L60,1020Z" fill="#dc9b65" stroke="#dc9b65" stroke-width="1.51"/><path d="M-60,1020L60,1020L60,900Z" fill="#e7a064" stroke="#e7a064" stroke-width="1.51"/><path d="M-60,900L-60,1020L60,900Z" fill="#eda367" stroke="#eda367" stroke-width="1.51"/><path d="M-60,900L60,900L60,780Z" fill="#f3aa68" stroke="#f3aa68" stroke-width="1.51"/><path d="M-60,780L-60,900L60,780Z" fill="#f7ae6d" stroke="#f7ae6d" stroke-width="1.51"/><path d="M-60,780L60,780L60,660Z" fill="#fdb46d" stroke="#fdb46d" stroke-width="1.51"/><path d="M-60,660L-60,780L60,660Z" fill="#feb972" stroke="#feb972" stroke-width="1.51"/><path d="M-60,660L60,660L60,540Z" fill="#ffc074" stroke="#ffc074" stroke-width="1.51"/><path d="M-60,540L-60,660L60,540Z" fill="#ffc579" stroke="#ffc579" stroke-width="1.51"/><path d="M-60,540L60,540L60,420Z" fill="#ffcd7b" stroke="#ffcd7b" stroke-width="1.51"/><path d="M-60,420L-60,540L60,420Z" fill="#ffd282" stroke="#ffd282" stroke-width="1.51"/><path d="M-60,420L60,420L60,300Z" fill="#ffda86" stroke="#ffda86" stroke-width="1.51"/><path d="M-60,300L-60,420L60,300Z" fill="#ffdf8d" stroke="#ffdf8d" stroke-width="1.51"/><path d="M-60,300L60,300L60,180Z" fill="#ffe497" stroke="#ffe497" stroke-width="1.51"/><path d="M-60,180L-60,300L60,180Z" fill="#ffe8a1" stroke="#ffe8a1" stroke-width="1.51"/><path d="M-60,180L60,180L60,60Z" fill="#ffeeaa" stroke="#ffeeaa" stroke-width="1.51"/><path d="M-60,60L-60,180L60,60Z" fill="#fff0b2" stroke="#fff0b2" stroke-width="1.51"/><path d="M-60,60L60,60L60,-60Z" fill="#fff4b7" stroke="#fff4b7" stroke-width="1.51"/><path d="M-60,-60L-60,60L60,-60Z" fill="#fff6bf" stroke="#fff6bf" stroke-width="1.51"/><path d="M-60,-60L60,-60L60,-180Z" fill="#fff8c5" stroke="#fff8c5" stroke-width="1.51"/><path d="M-60,-180L-60,-60L60,-180Z" fill="#fffacc" stroke="#fffacc" stroke-width="1.51"/><path d="M-180,1260L-60,1260L-60,1140Z" fill="#c59167" stroke="#c59167" stroke-width="1.51"/><path d="M-180,1140L-180,1260L-60,1140Z" fill="#cb946a" stroke="#cb946a" stroke-width="1.51"/><path d="M-180,1140L-60,1140L-60,1020Z" fill="#d79869" stroke="#d79869" stroke-width="1.51"/><path d="M-180,1020L-180,1140L-60,1020Z" fill="#dd9c6c" stroke="#dd9c6c" stroke-width="1.51"/><path d="M-180,1020L-60,1020L-60,900Z" fill="#e8a16c" stroke="#e8a16c" stroke-width="1.51"/><path d="M-180,900L-180,1020L-60,900Z" fill="#eea56f" stroke="#eea56f" stroke-width="1.51"/><path d="M-180,900L-60,900L-60,780Z" fill="#f4ab70" stroke="#f4ab70" stroke-width="1.51"/><path d="M-180,780L-180,900L-60,780Z" fill="#f8af74" stroke="#f8af74" stroke-width="1.51"/><path d="M-180,780L-60,780L-60,660Z" fill="#feb676" stroke="#feb676" stroke-width="1.51"/><path d="M-180,660L-180,780L-60,660Z" fill="#ffba7a" stroke="#ffba7a" stroke-width="1.51"/><path d="M-180,660L-60,660L-60,540Z" fill="#ffc27c" stroke="#ffc27c" stroke-width="1.51"/><path d="M-180,540L-180,660L-60,540Z" fill="#ffc681" stroke="#ffc681" stroke-width="1.51"/><path d="M-180,540L-60,540L-60,420Z" fill="#ffce84" stroke="#ffce84" stroke-width="1.51"/><path d="M-180,420L-180,540L-60,420Z" fill="#ffd38a" stroke="#ffd38a" stroke-width="1.51"/><path d="M-180,420L-60,420L-60,300Z" fill="#ffdb8e" stroke="#ffdb8e" stroke-width="1.51"/><path d="M-180,300L-180,420L-60,300Z" fill="#ffe095" stroke="#ffe095" stroke-width="1.51"/><path d="M-180,300L-60,300L-60,180Z" fill="#ffe6a0" stroke="#ffe6a0" stroke-width="1.51"/><path d="M-180,180L-180,300L-60,180Z" fill="#ffeaa9" stroke="#ffeaa9" stroke-width="1.51"/><path d="M-180,180L-60,180L-60,60Z" fill="#ffefb3" stroke="#ffefb3" stroke-width="1.51"/><path d="M-180,60L-180,180L-60,60Z" fill="#fff2ba" stroke="#fff2ba" stroke-width="1.51"/><path d="M-180,60L-60,60L-60,-60Z" fill="#fff5c0" stroke="#fff5c0" stroke-width="1.51"/><path d="M-180,-60L-180,60L-60,-60Z" fill="#fff8c7" stroke="#fff8c7" stroke-width="1.51"/><path d="M-180,-60L-60,-60L-60,-180Z" fill="#fffacd" stroke="#fffacd" stroke-width="1.51"/><path d="M-180,-180L-180,-60L-60,-180Z" fill="#fffbd4" stroke="#fffbd4" stroke-width="1.51"/></svg>