<svg xmlns="http://www.w3.org/2000/svg" width="1920" height="1080"><path d="M1957,1395L2242,1395L2242,1110Z" fill="#50218b" stroke="#50218b" stroke-width="1.51"/><path d="M1957,1110L1957,1395L2242,1110Z" fill="#582e92" stroke="#582e92" stroke-width="1.51"/><path d="M1957,1110L2242,1110L2242,825Z" fill="#5d3a97" stroke="#5d3a97" stroke-width="1.51"/><path d="M1957,825L1957,1110L2242,825Z" fill="#65469e" stroke="#65469e" stroke-width="1.51"/><path d="M1957,825L2242,825L2242,540Z" fill="#6c52a3" stroke="#6c52a3" stroke-width="1.51"/><path d="M1957,540L1957,825L2242,540Z" fill="#755ba9" stroke="#755ba9" stroke-width="1.51"/><path d="M1957,540L2242,540L2242,255Z" fill="#7d62ac" stroke="#7d62ac" stroke-width="1.51"/><path d="M1957,255L1957,540L2242,255Z" fill="#866db3" stroke="#866db3" stroke-width="1.51"/><path d="M1957,255L2242,255L2242,-30Z" fill="#8f73b6" stroke="#8f73b6" stroke-width="1.51"/><path d="M1957,-30L1957,255L2242,-30Z" fill="#977cbc" stroke="#977cbc" stroke-width="1.51"/><path d="M1957,-30L2242,-30L2242,-315Z" fill="#9d7fbd" stroke="#9d7fbd" stroke-width="1.51"/><path d="M1957,-315L1957,-30L2242,-315Z" fill="#a487c2" stroke="#a487c2" stroke-width="1.51"/><path d="M1672,1395L1957,1395L1957,1110Z" fill="#593193" stroke="#593193" stroke-width="1.51"/><path d="M1672,1110L1672,1395L1957,1110Z" fill="#603e9a" stroke="#603e9a" stroke-width="1.51"/><path d="M1672,1110L1957,1110L1957,825Z" fill="#66489e" stroke="#66489e" stroke-width="1.51"/><path d="M1672,825L1672,1110L1957,825Z" fill="#6d56a6" stroke="#6d56a6" stroke-width="1.51"/><path d="M1672,825L1957,825L1957,540Z" fill="#7460ab" stroke="#7460ab" stroke-width="1.51"/><path d="M1672,540L1672,825L1957,540Z" fill="#7c6ab1" stroke="#7c6ab1" stroke-width="1.51"/><path d="M1672,540L1957,540L1957,255Z" fill="#8570b4" stroke="#8570b4" stroke-width="1.51"/><path d="M1672,255L1672,540L1957,255Z" fill="#8e7cbb" stroke="#8e7cbb" stroke-width="1.51"/><path d="M1672,255L1957,255L1957,-30Z" fill="#9782be" stroke="#9782be" stroke-width="1.51"/><path d="M1672,-30L1672,255L1957,-30Z" fill="#9f8cc4" stroke="#9f8cc4" stroke-width="1.51"/><path d="M1672,-30L1957,-30L1957,-315Z" fill="#a58ec5" stroke="#a58ec5" stroke-width="1.51"/><path d="M1672,-315L1672,-30L1957,-315Z" fill="#ab97ca" stroke="#ab97ca" stroke-width="1.51"/><path d="M1387,1395L1672,1395L1672,1110Z" fill="#62429b" stroke="#62429b" stroke-width="1.51"/><path d="M1387,1110L1387,1395L1672,1110Z" fill="#6a4fa3" stroke="#6a4fa3" stroke-width="1.51"/><path d="M1387,1110L1672,1110L1672,825Z" fill="#6e59a7" stroke="#6e59a7" stroke-width="1.51"/><path d="M1387,825L1387,1110L1672,825Z" fill="#7667af" stroke="#7667af" stroke-width="1.51"/><path d="M1387,825L1672,825L1672,540Z" fill="#7c70b3" stroke="#7c70b3" stroke-width="1.51"/><path d="M1387,540L1387,825L1672,540Z" fill="#857bb9" stroke="#857bb9" stroke-width="1.51"/><path d="M1387,540L1672,540L1672,255Z" fill="#8d81bd" stroke="#8d81bd" stroke-width="1.51"/><path d="M1387,255L1387,540L1672,255Z" fill="#968ec3" stroke="#968ec3" stroke-width="1.51"/><path d="M1387,255L1672,255L1672,-30Z" fill="#9f93c6" stroke="#9f93c6" stroke-width="1.51"/><path d="M1387,-30L1387,255L1672,-30Z" fill="#a79ecc" stroke="#a79ecc" stroke-width="1.51"/><path d="M1387,-30L1672,-30L1672,-315Z" fill="#aca0cd" stroke="#aca0cd" stroke-width="1.51"/><path d="M1387,-315L1387,-30L1672,-315Z" fill="#b3a9d2" stroke="#b3a9d2" stroke-width="1.51"/><path d="M1102,1395L1387,1395L1387,1110Z" fill="#6c53a4" stroke="#6c53a4" stroke-width="1.51"/><path d="M1102,1110L1102,1395L1387,1110Z" fill="#745fab" stroke="#745fab" stroke-width="1.51"/><path d="M1102,1110L1387,1110L1387,825Z" fill="#776ab0" stroke="#776ab0" stroke-width="1.51"/><path d="M1102,825L1102,1110L1387,825Z" fill="#8076b7" stroke="#8076b7" stroke-width="1.51"/><path d="M1102,825L1387,825L1387,540Z" fill="#8581bc" stroke="#8581bc" stroke-width="1.51"/><path d="M1102,540L1102,825L1387,540Z" fill="#8f8bc1" stroke="#8f8bc1" stroke-width="1.51"/><path d="M1102,540L1387,540L1387,255Z" fill="#9693c6" stroke="#9693c6" stroke-width="1.51"/><path d="M1102,255L1102,540L1387,255Z" fill="#a09ecb" stroke="#a09ecb" stroke-width="1.51"/><path d="M1102,255L1387,255L1387,-30Z" fill="#a7a5d0" stroke="#a7a5d0" stroke-width="1.51"/><path d="M1102,-30L1102,255L1387,-30Z" fill="#b1aed4" stroke="#b1aed4" stroke-width="1.51"/><path d="M1102,-30L1387,-30L1387,-315Z" fill="#b5b2d7" stroke="#b5b2d7" stroke-width="1.51"/><path d="M1102,-315L1102,-30L1387,-315Z" fill="#bdb9da" stroke="#bdb9da" stroke-width="1.51"/><path d="M817,1395L1102,1395L1102,1110Z" fill="#785eaa" stroke="#785eaa" stroke-width="1.51"/><path d="M817,1110L817,1395L1102,1110Z" fill="#806ab1" stroke="#806ab1" stroke-width="1.51"/><path d="M817,1110L1102,1110L1102,825Z" fill="#8375b6" stroke="#8375b6" stroke-width="1.51"/><path d="M817,825L817,1110L1102,825Z" fill="#8c82bd" stroke="#8c82bd" stroke-width="1.51"/><path d="M817,825L1102,825L1102,540Z" fill="#918dc2" stroke="#918dc2" stroke-width="1.51"/><path d="M817,540L817,825L1102,540Z" fill="#9b97c7" stroke="#9b97c7" stroke-width="1.51"/><path d="M817,540L1102,540L1102,255Z" fill="#a29ecb" stroke="#a29ecb" stroke-width="1.51"/><path d="M817,255L817,540L1102,255Z" fill="#acaad1" stroke="#acaad1" stroke-width="1.51"/><path d="M817,255L1102,255L1102,-30Z" fill="#b3b1d5" stroke="#b3b1d5" stroke-width="1.51"/><path d="M817,-30L817,255L1102,-30Z" fill="#bcbbda" stroke="#bcbbda" stroke-width="1.51"/><path d="M817,-30L1102,-30L1102,-315Z" fill="#c1bedc" stroke="#c1bedc" stroke-width="1.51"/><path d="M817,-315L817,-30L1102,-315Z" fill="#c9c6e0" stroke="#c9c6e0" stroke-width="1.51"/><path d="M532,1395L817,1395L817,1110Z" fill="#856bb2" stroke="#856bb2" stroke-width="1.51"/><path d="M532,1110L532,1395L817,1110Z" fill="#8d77b9" stroke="#8d77b9" stroke-width="1.51"/><path d="M532,1110L817,1110L817,825Z" fill="#9082bd" stroke="#9082bd" stroke-width="1.51"/><path d="M532,825L532,1110L817,825Z" fill="#9890c5" stroke="#9890c5" stroke-width="1.51"/><path d="M532,825L817,825L817,540Z" fill="#9d9ac9" stroke="#9d9ac9" stroke-width="1.51"/><path d="M532,540L532,825L817,540Z" fill="#a7a5cf" stroke="#a7a5cf" stroke-width="1.51"/><path d="M532,540L817,540L817,255Z" fill="#aeacd3" stroke="#aeacd3" stroke-width="1.51"/><path d="M532,255L532,540L817,255Z" fill="#b7b8d9" stroke="#b7b8d9" stroke-width="1.51"/><path d="M532,255L817,255L817,-30Z" fill="#bfbedc" stroke="#bfbedc" stroke-width="1.51"/><path d="M532,-30L532,255L817,-30Z" fill="#c8c9e2" stroke="#c8c9e2" stroke-width="1.51"/><path d="M532,-30L817,-30L817,-315Z" fill="#cdcce3" stroke="#cdcce3" stroke-width="1.51"/><path d="M532,-315L532,-30L817,-315Z" fill="#d5d4e8" stroke="#d5d4e8" stroke-width="1.51"/><path d="M247,1395L532,1395L532,1110Z" fill="#9177b9" stroke="#9177b9" stroke-width="1.51"/><path d="M247,1110L247,1395L532,1110Z" fill="#9982bf" stroke="#9982bf" stroke-width="1.51"/><path d="M247,1110L532,1110L532,825Z" fill="#9c8ec4" stroke="#9c8ec4" stroke-width="1.51"/><path d="M247,825L247,1110L532,825Z" fill="#a49bcb" stroke="#a49bcb" stroke-width="1.51"/><path d="M247,825L532,825L532,540Z" fill="#a9a6d0" stroke="#a9a6d0" stroke-width="1.51"/><path d="M247,540L247,825L532,540Z" fill="#b3b0d5" stroke="#b3b0d5" stroke-width="1.51"/><path d="M247,540L532,540L532,255Z" fill="#b9b8d9" stroke="#b9b8d9" stroke-width="1.51"/><path d="M247,255L247,540L532,255Z" fill="#c3c3df" stroke="#c3c3df" stroke-width="1.51"/><path d="M247,255L532,255L532,-30Z" fill="#cbcbe4" stroke="#cbcbe4" stroke-width="1.51"/><path d="M247,-30L247,255L532,-30Z" fill="#d4d4e8" stroke="#d4d4e8" stroke-width="1.51"/><path d="M247,-30L532,-30L532,-315Z" fill="#d9d8ea" stroke="#d9d8ea" stroke-width="1.51"/><path d="M247,-315L247,-30L532,-315Z" fill="#e1e0ee" stroke="#e1e0ee" stroke-width="1.51"/><path d="M-38,1395L247,1395L247,1110Z" fill="#9c80be" stroke="#9c80be" stroke-width="1.51"/><path d="M-38,1110L-38,1395L247,1110Z" fill="#a28ac3" stroke="#a28ac3" stroke-width="1.51"/><path d="M-38,1110L247,1110L247,825Z" fill="#a798c9" stroke="#a798c9" stroke-width="1.51"/><path d="M-38,825L-38,1110L247,825Z" fill="#ada3cf" stroke="#ada3cf" stroke-width="1.51"/><path d="M-38,825L247,825L247,540Z" fill="#b4b0d5" stroke="#b4b0d5" stroke-width="1.51"/><path d="M-38,540L-38,825L247,540Z" fill="#bcb9d9" stroke="#bcb9d9" stroke-width="1.51"/><path d="M-38,540L247,540L247,255Z" fill="#c4c3df" stroke="#c4c3df" stroke-width="1.51"/><path d="M-38,255L-38,540L247,255Z" fill="#cdcce3" stroke="#cdcce3" stroke-width="1.51"/><path d="M-38,255L247,255L247,-30Z" fill="#d6d5e9" stroke="#d6d5e9" stroke-width="1.51"/><path d="M-38,-30L-38,255L247,-30Z" fill="#dedded" stroke="#dedded" stroke-width="1.51"/><path d="M-38,-30L247,-30L247,-315Z" fill="#e4e3f0" stroke="#e4e3f0" stroke-width="1.51"/><path d="M-38,-315L-38,-30L247,-315Z" fill="#eae9f3" stroke="#eae9f3" stroke-width="1.51"/><path d="M-323,1395L-38,1395L-38,1110Z" fill="#a487c2" stroke="#a487c2" stroke-width="1.51"/><path d="M-323,1110L-323,1395L-38,1110Z" fill="#a991c7" stroke="#a991c7" stroke-width="1.51"/><path d="M-323,1110L-38,1110L-38,825Z" fill="#af9fcd" stroke="#af9fcd" stroke-width="1.51"/><path d="M-323,825L-323,1110L-38,825Z" fill="#b4aad3" stroke="#b4aad3" stroke-width="1.51"/><path d="M-323,825L-38,825L-38,540Z" fill="#bbb8d9" stroke="#bbb8d9" stroke-width="1.51"/><path d="M-323,540L-323,825L-38,540Z" fill="#c3bfdd" stroke="#c3bfdd" stroke-width="1.51"/><path d="M-323,540L-38,540L-38,255Z" fill="#cccae3" stroke="#cccae3" stroke-width="1.51"/><path d="M-323,255L-323,540L-38,255Z" fill="#d4d3e7" stroke="#d4d3e7" stroke-width="1.51"/><path d="M-323,255L-38,255L-38,-30Z" fill="#dedded" stroke="#dedded" stroke-width="1.51"/><path d="M-323,-30L-323,255L-38,-30Z" fill="#e5e4f1" stroke="#e5e4f1" stroke-width="1.51"/><path d="M-323,-30L-38,-30L-38,-315Z" fill="#eceaf4" stroke="#eceaf4" stroke-width="1.51"/><path d="M-323,-315L-323,-30L-38,-315Z" fill="#f1f0f6" stroke="#f1f0f6" stroke-width="1.51"/></svg>