<svg xmlns="http://www.w3.org/2000/svg" width="1920" height="1080"><path d="M1980,1260L2100,1260L2100,1140Z" fill="#c5d4f5" stroke="#c5d4f5" stroke-width="1.51"/><path d="M1980,1140L1980,1260L2100,1140Z" fill="#acc3f1" stroke="#acc3f1" stroke-width="1.51"/><path d="M1980,1140L2100,1140L2100,1020Z" fill="#97b6ed" stroke="#97b6ed" stroke-width="1.51"/><path d="M1980,1020L1980,1140L2100,1020Z" fill="#a0a8d9" stroke="#a0a8d9" stroke-width="1.51"/><path d="M1980,1020L2100,1020L2100,900Z" fill="#c89eb5" stroke="#c89eb5" stroke-width="1.51"/><path d="M1980,900L1980,1020L2100,900Z" fill="#cb8fa0" stroke="#cb8fa0" stroke-width="1.51"/><path d="M1980,900L2100,900L2100,780Z" fill="#e08d89" stroke="#e08d89" stroke-width="1.51"/><path d="M1980,780L1980,900L2100,780Z" fill="#d09897" stroke="#d09897" stroke-width="1.51"/><path d="M1980,780L2100,780L2100,660Z" fill="#c3bfb8" stroke="#c3bfb8" stroke-width="1.51"/><path d="M1980,660L1980,780L2100,660Z" fill="#abc8c7" stroke="#abc8c7" stroke-width="1.51"/><path d="M1980,660L2100,660L2100,540Z" fill="#a2d6e1" stroke="#a2d6e1" stroke-width="1.51"/><path d="M1980,540L1980,660L2100,540Z" fill="#a0bfe5" stroke="#a0bfe5" stroke-width="1.51"/><path d="M1980,540L2100,540L2100,420Z" fill="#b4a6f3" stroke="#b4a6f3" stroke-width="1.51"/><path d="M1980,420L1980,540L2100,420Z" fill="#ae90f6" stroke="#ae90f6" stroke-width="1.51"/><path d="M1980,420L2100,420L2100,300Z" fill="#bc9be7" stroke="#bc9be7" stroke-width="1.51"/><path d="M1980,300L1980,420L2100,300Z" fill="#b3a3d4" stroke="#b3a3d4" stroke-width="1.51"/><path d="M1980,300L2100,300L2100,180Z" fill="#b8c6b1" stroke="#b8c6b1" stroke-width="1.51"/><path d="M1980,180L1980,300L2100,180Z" fill="#aacd9d" stroke="#aacd9d" stroke-width="1.51"/><path d="M1980,180L2100,180L2100,60Z" fill="#c3dc98" stroke="#c3dc98" stroke-width="1.51"/><path d="M1980,60L1980,180L2100,60Z" fill="#c6d698" stroke="#c6d698" stroke-width="1.51"/><path d="M1980,60L2100,60L2100,-60Z" fill="#e4e09a" stroke="#e4e09a" stroke-width="1.51"/><path d="M1980,-60L1980,60L2100,-60Z" fill="#e6da9b" stroke="#e6da9b" stroke-width="1.51"/><path d="M1980,-60L2100,-60L2100,-180Z" fill="#e6c2bb" stroke="#e6c2bb" stroke-width="1.51"/><path d="M1980,-180L1980,-60L2100,-180Z" fill="#d8acc8" stroke="#d8acc8" stroke-width="1.51"/><path d="M1860,1260L1980,1260L1980,1140Z" fill="#a8c0f0" stroke="#a8c0f0" stroke-width="1.51"/><path d="M1860,1140L1860,1260L1980,1140Z" fill="#8db0ec" stroke="#8db0ec" stroke-width="1.51"/><path d="M1860,1140L1980,1140L1980,1020Z" fill="#76a3e8" stroke="#76a3e8" stroke-width="1.51"/><path d="M1860,1020L1860,1140L1980,1020Z" fill="#8295d4" stroke="#8295d4" stroke-width="1.51"/><path d="M1860,1020L1980,1020L1980,900Z" fill="#af8bb0" stroke="#af8bb0" stroke-width="1.51"/><path d="M1860,900L1860,1020L1980,900Z" fill="#b37c9c" stroke="#b37c9c" stroke-width="1.51"/><path d="M1860,900L1980,900L1980,780Z" fill="#c87a85" stroke="#c87a85" stroke-width="1.51"/><path d="M1860,780L1860,900L1980,780Z" fill="#b98593" stroke="#b98593" stroke-width="1.51"/><path d="M1860,780L1980,780L1980,660Z" fill="#aaacb4" stroke="#aaacb4" stroke-width="1.51"/><path d="M1860,660L1860,780L1980,660Z" fill="#8fb4c3" stroke="#8fb4c3" stroke-width="1.51"/><path d="M1860,660L1980,660L1980,540Z" fill="#84c2dd" stroke="#84c2dd" stroke-width="1.51"/><path d="M1860,540L1860,660L1980,540Z" fill="#81ace0" stroke="#81ace0" stroke-width="1.51"/><path d="M1860,540L1980,540L1980,420Z" fill="#9794ed" stroke="#9794ed" stroke-width="1.51"/><path d="M1860,420L1860,540L1980,420Z" fill="#8e7df1" stroke="#8e7df1" stroke-width="1.51"/><path d="M1860,420L1980,420L1980,300Z" fill="#a088e2" stroke="#a088e2" stroke-width="1.51"/><path d="M1860,300L1860,420L1980,300Z" fill="#9890cf" stroke="#9890cf" stroke-width="1.51"/><path d="M1860,300L1980,300L1980,180Z" fill="#9fb3ad" stroke="#9fb3ad" stroke-width="1.51"/><path d="M1860,180L1860,300L1980,180Z" fill="#92b999" stroke="#92b999" stroke-width="1.51"/><path d="M1860,180L1980,180L1980,60Z" fill="#abc895" stroke="#abc895" stroke-width="1.51"/><path d="M1860,60L1860,180L1980,60Z" fill="#aec295" stroke="#aec295" stroke-width="1.51"/><path d="M1860,60L1980,60L1980,-60Z" fill="#cccc97" stroke="#cccc97" stroke-width="1.51"/><path d="M1860,-60L1860,60L1980,-60Z" fill="#cec598" stroke="#cec598" stroke-width="1.51"/><path d="M1860,-60L1980,-60L1980,-180Z" fill="#ceafb7" stroke="#ceafb7" stroke-width="1.51"/><path d="M1860,-180L1860,-60L1980,-180Z" fill="#bf99c4" stroke="#bf99c4" stroke-width="1.51"/><path d="M1740,1260L1860,1260L1860,1140Z" fill="#88adeb" stroke="#88adeb" stroke-width="1.51"/><path d="M1740,1140L1740,1260L1860,1140Z" fill="#869edc" stroke="#869edc" stroke-width="1.51"/><path d="M1740,1140L1860,1140L1860,1020Z" fill="#4d91e2" stroke="#4d91e2" stroke-width="1.51"/><path d="M1740,1020L1740,1140L1860,1020Z" fill="#7b84c5" stroke="#7b84c5" stroke-width="1.51"/><path d="M1740,1020L1860,1020L1860,900Z" fill="#9579ab" stroke="#9579ab" stroke-width="1.51"/><path d="M1740,900L1740,1020L1860,900Z" fill="#a96a8e" stroke="#a96a8e" stroke-width="1.51"/><path d="M1740,900L1860,900L1860,780Z" fill="#b16881" stroke="#b16881" stroke-width="1.51"/><path d="M1740,780L1740,900L1860,780Z" fill="#ae7385" stroke="#ae7385" stroke-width="1.51"/><path d="M1740,780L1860,780L1860,660Z" fill="#8f99af" stroke="#8f99af" stroke-width="1.51"/><path d="M1740,660L1740,780L1860,660Z" fill="#88a3b4" stroke="#88a3b4" stroke-width="1.51"/><path d="M1740,660L1860,660L1860,540Z" fill="#61afd7" stroke="#61afd7" stroke-width="1.51"/><path d="M1740,540L1740,660L1860,540Z" fill="#7a9ad1" stroke="#7a9ad1" stroke-width="1.51"/><path d="M1740,540L1860,540L1860,420Z" fill="#7582e8" stroke="#7582e8" stroke-width="1.51"/><path d="M1740,420L1740,540L1860,420Z" fill="#856ce1" stroke="#856ce1" stroke-width="1.51"/><path d="M1740,420L1860,420L1860,300Z" fill="#8077dc" stroke="#8077dc" stroke-width="1.51"/><path d="M1740,300L1740,420L1860,300Z" fill="#8f7fbf" stroke="#8f7fbf" stroke-width="1.51"/><path d="M1740,300L1860,300L1860,180Z" fill="#84a0a8" stroke="#84a0a8" stroke-width="1.51"/><path d="M1740,180L1740,300L1860,180Z" fill="#8aa88b" stroke="#8aa88b" stroke-width="1.51"/><path d="M1740,180L1860,180L1860,60Z" fill="#92b491" stroke="#92b491" stroke-width="1.51"/><path d="M1740,60L1740,180L1860,60Z" fill="#a6b087" stroke="#a6b087" stroke-width="1.51"/><path d="M1740,60L1860,60L1860,-60Z" fill="#b4b894" stroke="#b4b894" stroke-width="1.51"/><path d="M1740,-60L1740,60L1860,-60Z" fill="#c4b38a" stroke="#c4b38a" stroke-width="1.51"/><path d="M1740,-60L1860,-60L1860,-180Z" fill="#b49cb2" stroke="#b49cb2" stroke-width="1.51"/><path d="M1740,-180L1740,-60L1860,-180Z" fill="#b587b5" stroke="#b587b5" stroke-width="1.51"/><path d="M1620,1260L1740,1260L1740,1140Z" fill="#af9ec6" stroke="#af9ec6" stroke-width="1.51"/><path d="M1620,1140L1620,1260L1740,1140Z" fill="#ab8eb7" stroke="#ab8eb7" stroke-width="1.51"/><path d="M1620,1140L1740,1140L1740,1020Z" fill="#8481be" stroke="#8481be" stroke-width="1.51"/><path d="M1620,1020L1620,1140L1740,1020Z" fill="#9d73a1" stroke="#9d73a1" stroke-width="1.51"/><path d="M1620,1020L1740,1020L1740,900Z" fill="#ac6889" stroke="#ac6889" stroke-width="1.51"/><path d="M1620,900L1620,1020L1740,900Z" fill="#ba576c" stroke="#ba576c" stroke-width="1.51"/><path d="M1620,900L1740,900L1740,780Z" fill="#bf5560" stroke="#bf5560" stroke-width="1.51"/><path d="M1620,780L1620,900L1740,780Z" fill="#be6163" stroke="#be6163" stroke-width="1.51"/><path d="M1620,780L1740,780L1740,660Z" fill="#aa8a8c" stroke="#aa8a8c" stroke-width="1.51"/><path d="M1620,660L1620,780L1740,660Z" fill="#a79490" stroke="#a79490" stroke-width="1.51"/><path d="M1620,660L1740,660L1740,540Z" fill="#90a0b3" stroke="#90a0b3" stroke-width="1.51"/><path d="M1620,540L1620,660L1740,540Z" fill="#a08bad" stroke="#a08bad" stroke-width="1.51"/><path d="M1620,540L1740,540L1740,420Z" fill="#9d70c4" stroke="#9d70c4" stroke-width="1.51"/><path d="M1620,420L1620,540L1740,420Z" fill="#a857bd" stroke="#a857bd" stroke-width="1.51"/><path d="M1620,420L1740,420L1740,300Z" fill="#a364b8" stroke="#a364b8" stroke-width="1.51"/><path d="M1620,300L1620,420L1740,300Z" fill="#ac6e9c" stroke="#ac6e9c" stroke-width="1.51"/><path d="M1620,300L1740,300L1740,180Z" fill="#a09185" stroke="#a09185" stroke-width="1.51"/><path d="M1620,180L1620,300L1740,180Z" fill="#a39a67" stroke="#a39a67" stroke-width="1.51"/><path d="M1620,180L1740,180L1740,60Z" fill="#aba66d" stroke="#aba66d" stroke-width="1.51"/><path d="M1620,60L1620,180L1740,60Z" fill="#bba261" stroke="#bba261" stroke-width="1.51"/><path d="M1620,60L1740,60L1740,-60Z" fill="#c9aa6f" stroke="#c9aa6f" stroke-width="1.51"/><path d="M1620,-60L1620,60L1740,-60Z" fill="#d7a464" stroke="#d7a464" stroke-width="1.51"/><path d="M1620,-60L1740,-60L1740,-180Z" fill="#ca8b8f" stroke="#ca8b8f" stroke-width="1.51"/><path d="M1620,-180L1620,-60L1740,-180Z" fill="#cb7591" stroke="#cb7591" stroke-width="1.51"/><path d="M1500,1260L1620,1260L1620,1140Z" fill="#c88da2" stroke="#c88da2" stroke-width="1.51"/><path d="M1500,1140L1500,1260L1620,1140Z" fill="#c27e93" stroke="#c27e93" stroke-width="1.51"/><path d="M1500,1140L1620,1140L1620,1020Z" fill="#a2719a" stroke="#a2719a" stroke-width="1.51"/><path d="M1500,1020L1500,1140L1620,1020Z" fill="#b1627e" stroke="#b1627e" stroke-width="1.51"/><path d="M1500,1020L1620,1020L1620,900Z" fill="#bc5467" stroke="#bc5467" stroke-width="1.51"/><path d="M1500,900L1500,1020L1620,900Z" fill="#c5414a" stroke="#c5414a" stroke-width="1.51"/><path d="M1500,900L1620,900L1620,780Z" fill="#c93d3f" stroke="#c93d3f" stroke-width="1.51"/><path d="M1500,780L1500,900L1620,780Z" fill="#c94d41" stroke="#c94d41" stroke-width="1.51"/><path d="M1500,780L1620,780L1620,660Z" fill="#bc7a69" stroke="#bc7a69" stroke-width="1.51"/><path d="M1500,660L1500,780L1620,660Z" fill="#ba856c" stroke="#ba856c" stroke-width="1.51"/><path d="M1500,660L1620,660L1620,540Z" fill="#ad918f" stroke="#ad918f" stroke-width="1.51"/><path d="M1500,540L1500,660L1620,540Z" fill="#b77b89" stroke="#b77b89" stroke-width="1.51"/><path d="M1500,540L1620,540L1620,420Z" fill="#b65ca0" stroke="#b65ca0" stroke-width="1.51"/><path d="M1500,420L1500,540L1620,420Z" fill="#bd3d9a" stroke="#bd3d9a" stroke-width="1.51"/><path d="M1500,420L1620,420L1620,300Z" fill="#b94f95" stroke="#b94f95" stroke-width="1.51"/><path d="M1500,300L1500,420L1620,300Z" fill="#be5b79" stroke="#be5b79" stroke-width="1.51"/><path d="M1500,300L1620,300L1620,180Z" fill="#b48261" stroke="#b48261" stroke-width="1.51"/><path d="M1500,180L1500,300L1620,180Z" fill="#b48c41" stroke="#b48c41" stroke-width="1.51"/><path d="M1500,180L1620,180L1620,60Z" fill="#bc9847" stroke="#bc9847" stroke-width="1.51"/><path d="M1500,60L1500,180L1620,60Z" fill="#c99339" stroke="#c99339" stroke-width="1.51"/><path d="M1500,60L1620,60L1620,-60Z" fill="#d89a48" stroke="#d89a48" stroke-width="1.51"/><path d="M1500,-60L1500,60L1620,-60Z" fill="#e4953c" stroke="#e4953c" stroke-width="1.51"/><path d="M1500,-60L1620,-60L1620,-180Z" fill="#da7a6c" stroke="#da7a6c" stroke-width="1.51"/><path d="M1500,-180L1500,-60L1620,-180Z" fill="#d9616e" stroke="#d9616e" stroke-width="1.51"/><path d="M1380,1260L1500,1260L1500,1140Z" fill="#d68285" stroke="#d68285" stroke-width="1.51"/><path d="M1380,1140L1380,1260L1500,1140Z" fill="#c5838d" stroke="#c5838d" stroke-width="1.51"/><path d="M1380,1140L1500,1140L1500,1020Z" fill="#b2657f" stroke="#b2657f" stroke-width="1.51"/><path d="M1380,1020L1380,1140L1500,1020Z" fill="#b56878" stroke="#b56878" stroke-width="1.51"/><path d="M1380,1020L1500,1020L1500,900Z" fill="#c5464c" stroke="#c5464c" stroke-width="1.51"/><path d="M1380,900L1380,1020L1500,900Z" fill="#c84944" stroke="#c84944" stroke-width="1.51"/><path d="M1380,900L1500,900L1500,780Z" fill="#cf2823" stroke="#cf2823" stroke-width="1.51"/><path d="M1380,780L1380,900L1500,780Z" fill="#cc5439" stroke="#cc5439" stroke-width="1.51"/><path d="M1380,780L1500,780L1500,660Z" fill="#c66f4d" stroke="#c66f4d" stroke-width="1.51"/><path d="M1380,660L1380,780L1500,660Z" fill="#bd8b65" stroke="#bd8b65" stroke-width="1.51"/><path d="M1380,660L1500,660L1500,540Z" fill="#bc8773" stroke="#bc8773" stroke-width="1.51"/><path d="M1380,540L1380,660L1500,540Z" fill="#bb8183" stroke="#bb8183" stroke-width="1.51"/><path d="M1380,540L1500,540L1500,420Z" fill="#c44e85" stroke="#c44e85" stroke-width="1.51"/><path d="M1380,420L1380,540L1500,420Z" fill="#c14694" stroke="#c14694" stroke-width="1.51"/><path d="M1380,420L1500,420L1500,300Z" fill="#c53e7a" stroke="#c53e7a" stroke-width="1.51"/><path d="M1380,300L1380,420L1500,300Z" fill="#c16173" stroke="#c16173" stroke-width="1.51"/><path d="M1380,300L1500,300L1500,180Z" fill="#be7845" stroke="#be7845" stroke-width="1.51"/><path d="M1380,180L1380,300L1500,180Z" fill="#b69238" stroke="#b69238" stroke-width="1.51"/><path d="M1380,180L1500,180L1500,60Z" fill="#c68e22" stroke="#c68e22" stroke-width="1.51"/><path d="M1380,60L1380,180L1500,60Z" fill="#cb992f" stroke="#cb992f" stroke-width="1.51"/><path d="M1380,60L1500,60L1500,-60Z" fill="#e09023" stroke="#e09023" stroke-width="1.51"/><path d="M1380,-60L1380,60L1500,-60Z" fill="#e69b32" stroke="#e69b32" stroke-width="1.51"/><path d="M1380,-60L1500,-60L1500,-180Z" fill="#e36e4f" stroke="#e36e4f" stroke-width="1.51"/><path d="M1380,-180L1380,-60L1500,-180Z" fill="#dc6868" stroke="#dc6868" stroke-width="1.51"/><path d="M1260,1260L1380,1260L1380,1140Z" fill="#c6a3a4" stroke="#c6a3a4" stroke-width="1.51"/><path d="M1260,1140L1260,1260L1380,1140Z" fill="#b1a4ac" stroke="#b1a4ac" stroke-width="1.51"/><path d="M1260,1140L1380,1140L1380,1020Z" fill="#a0869d" stroke="#a0869d" stroke-width="1.51"/><path d="M1260,1020L1260,1140L1380,1020Z" fill="#a38896" stroke="#a38896" stroke-width="1.51"/><path d="M1260,1020L1380,1020L1380,900Z" fill="#bc6d68" stroke="#bc6d68" stroke-width="1.51"/><path d="M1260,900L1260,1020L1380,900Z" fill="#bf6f60" stroke="#bf6f60" stroke-width="1.51"/><path d="M1260,900L1380,900L1380,780Z" fill="#ca5b3e" stroke="#ca5b3e" stroke-width="1.51"/><path d="M1260,780L1260,900L1380,780Z" fill="#c37956" stroke="#c37956" stroke-width="1.51"/><path d="M1260,780L1380,780L1380,660Z" fill="#ba8f69" stroke="#ba8f69" stroke-width="1.51"/><path d="M1260,660L1260,780L1380,660Z" fill="#aaa983" stroke="#aaa983" stroke-width="1.51"/><path d="M1260,660L1380,660L1380,540Z" fill="#a9a691" stroke="#a9a691" stroke-width="1.51"/><path d="M1260,540L1260,660L1380,540Z" fill="#a6a0a1" stroke="#a6a0a1" stroke-width="1.51"/><path d="M1260,540L1380,540L1380,420Z" fill="#b675a2" stroke="#b675a2" stroke-width="1.51"/><path d="M1260,420L1260,540L1380,420Z" fill="#b16fb2" stroke="#b16fb2" stroke-width="1.51"/><path d="M1260,420L1380,420L1380,300Z" fill="#b96998" stroke="#b96998" stroke-width="1.51"/><path d="M1260,300L1260,420L1380,300Z" fill="#b28491" stroke="#b28491" stroke-width="1.51"/><path d="M1260,300L1380,300L1380,180Z" fill="#b19762" stroke="#b19762" stroke-width="1.51"/><path d="M1260,180L1260,300L1380,180Z" fill="#a5af58" stroke="#a5af58" stroke-width="1.51"/><path d="M1260,180L1380,180L1380,60Z" fill="#b9ac45" stroke="#b9ac45" stroke-width="1.51"/><path d="M1260,60L1260,180L1380,60Z" fill="#bdb751" stroke="#bdb751" stroke-width="1.51"/><path d="M1260,60L1380,60L1380,-60Z" fill="#d5b046" stroke="#d5b046" stroke-width="1.51"/><path d="M1260,-60L1260,60L1380,-60Z" fill="#d9ba53" stroke="#d9ba53" stroke-width="1.51"/><path d="M1260,-60L1380,-60L1380,-180Z" fill="#d9916c" stroke="#d9916c" stroke-width="1.51"/><path d="M1260,-180L1260,-60L1380,-180Z" fill="#d08c85" stroke="#d08c85" stroke-width="1.51"/><path d="M1140,1260L1260,1260L1260,1140Z" fill="#acc2c3" stroke="#acc2c3" stroke-width="1.51"/><path d="M1140,1140L1140,1260L1260,1140Z" fill="#91c2cb" stroke="#91c2cb" stroke-width="1.51"/><path d="M1140,1140L1260,1140L1260,1020Z" fill="#81a4bc" stroke="#81a4bc" stroke-width="1.51"/><path d="M1140,1020L1140,1140L1260,1020Z" fill="#87a7b4" stroke="#87a7b4" stroke-width="1.51"/><path d="M1140,1020L1260,1020L1260,900Z" fill="#ad8e85" stroke="#ad8e85" stroke-width="1.51"/><path d="M1140,900L1140,1020L1260,900Z" fill="#b1907c" stroke="#b1907c" stroke-width="1.51"/><path d="M1140,900L1260,900L1260,780Z" fill="#c27e5a" stroke="#c27e5a" stroke-width="1.51"/><path d="M1140,780L1140,900L1260,780Z" fill="#b59972" stroke="#b59972" stroke-width="1.51"/><path d="M1140,780L1260,780L1260,660Z" fill="#a7ae87" stroke="#a7ae87" stroke-width="1.51"/><path d="M1140,660L1140,780L1260,660Z" fill="#8dc6a1" stroke="#8dc6a1" stroke-width="1.51"/><path d="M1140,660L1260,660L1260,540Z" fill="#89c3b0" stroke="#89c3b0" stroke-width="1.51"/><path d="M1140,540L1140,660L1260,540Z" fill="#85bec0" stroke="#85bec0" stroke-width="1.51"/><path d="M1140,540L1260,540L1260,420Z" fill="#9e96c2" stroke="#9e96c2" stroke-width="1.51"/><path d="M1140,420L1140,540L1260,420Z" fill="#9891d1" stroke="#9891d1" stroke-width="1.51"/><path d="M1140,420L1260,420L1260,300Z" fill="#a58bb6" stroke="#a58bb6" stroke-width="1.51"/><path d="M1140,300L1140,420L1260,300Z" fill="#9ba3af" stroke="#9ba3af" stroke-width="1.51"/><path d="M1140,300L1260,300L1260,180Z" fill="#9bb480" stroke="#9bb480" stroke-width="1.51"/><path d="M1140,180L1140,300L1260,180Z" fill="#8acb76" stroke="#8acb76" stroke-width="1.51"/><path d="M1140,180L1260,180L1260,60Z" fill="#a4c965" stroke="#a4c965" stroke-width="1.51"/><path d="M1140,60L1140,180L1260,60Z" fill="#a6d470" stroke="#a6d470" stroke-width="1.51"/><path d="M1140,60L1260,60L1260,-60Z" fill="#c4ce67" stroke="#c4ce67" stroke-width="1.51"/><path d="M1140,-60L1140,60L1260,-60Z" fill="#c7d873" stroke="#c7d873" stroke-width="1.51"/><path d="M1140,-60L1260,-60L1260,-180Z" fill="#c9b18a" stroke="#c9b18a" stroke-width="1.51"/><path d="M1140,-180L1140,-60L1260,-180Z" fill="#beada3" stroke="#beada3" stroke-width="1.51"/><path d="M1020,1260L1140,1260L1140,1140Z" fill="#93d0dd" stroke="#93d0dd" stroke-width="1.51"/><path d="M1020,1140L1020,1260L1140,1140Z" fill="#88bdde" stroke="#88bdde" stroke-width="1.51"/><path d="M1020,1140L1140,1140L1140,1020Z" fill="#5fb2d6" stroke="#5fb2d6" stroke-width="1.51"/><path d="M1020,1020L1020,1140L1140,1020Z" fill="#7ea2c8" stroke="#7ea2c8" stroke-width="1.51"/><path d="M1020,1020L1140,1020L1140,900Z" fill="#9f9c9e" stroke="#9f9c9e" stroke-width="1.51"/><path d="M1020,900L1020,1020L1140,900Z" fill="#af8a90" stroke="#af8a90" stroke-width="1.51"/><path d="M1020,900L1140,900L1140,780Z" fill="#b98d73" stroke="#b98d73" stroke-width="1.51"/><path d="M1020,780L1020,900L1140,780Z" fill="#b49386" stroke="#b49386" stroke-width="1.51"/><path d="M1020,780L1140,780L1140,660Z" fill="#96bba1" stroke="#96bba1" stroke-width="1.51"/><path d="M1020,660L1020,780L1140,660Z" fill="#88c1b6" stroke="#88c1b6" stroke-width="1.51"/><path d="M1020,660L1140,660L1140,540Z" fill="#68d1ca" stroke="#68d1ca" stroke-width="1.51"/><path d="M1020,540L1020,660L1140,540Z" fill="#7cb9d4" stroke="#7cb9d4" stroke-width="1.51"/><path d="M1020,540L1140,540L1140,420Z" fill="#86a4db" stroke="#86a4db" stroke-width="1.51"/><path d="M1020,420L1020,540L1140,420Z" fill="#8d8be4" stroke="#8d8be4" stroke-width="1.51"/><path d="M1020,420L1140,420L1140,300Z" fill="#919ad0" stroke="#919ad0" stroke-width="1.51"/><path d="M1020,300L1020,420L1140,300Z" fill="#949ec2" stroke="#949ec2" stroke-width="1.51"/><path d="M1020,300L1140,300L1140,180Z" fill="#88c29a" stroke="#88c29a" stroke-width="1.51"/><path d="M1020,180L1020,300L1140,180Z" fill="#88c68b" stroke="#88c68b" stroke-width="1.51"/><path d="M1020,180L1140,180L1140,60Z" fill="#92d780" stroke="#92d780" stroke-width="1.51"/><path d="M1020,60L1020,180L1140,60Z" fill="#a5cf86" stroke="#a5cf86" stroke-width="1.51"/><path d="M1020,60L1140,60L1140,-60Z" fill="#b7dc82" stroke="#b7dc82" stroke-width="1.51"/><path d="M1020,-60L1020,60L1140,-60Z" fill="#c6d389" stroke="#c6d389" stroke-width="1.51"/><path d="M1020,-60L1140,-60L1140,-180Z" fill="#bcbfa4" stroke="#bcbfa4" stroke-width="1.51"/><path d="M1020,-180L1020,-60L1140,-180Z" fill="#baa7b7" stroke="#baa7b7" stroke-width="1.51"/><path d="M900,1260L1020,1260L1020,1140Z" fill="#a1b3e9" stroke="#a1b3e9" stroke-width="1.51"/><path d="M900,1140L900,1260L1020,1140Z" fill="#959fea" stroke="#959fea" stroke-width="1.51"/><path d="M900,1140L1020,1140L1020,1020Z" fill="#6f96e1" stroke="#6f96e1" stroke-width="1.51"/><path d="M900,1020L900,1140L1020,1020Z" fill="#8984d2" stroke="#8984d2" stroke-width="1.51"/><path d="M900,1020L1020,1020L1020,900Z" fill="#a87daa" stroke="#a87daa" stroke-width="1.51"/><path d="M900,900L900,1020L1020,900Z" fill="#b5699b" stroke="#b5699b" stroke-width="1.51"/><path d="M900,900L1020,900L1020,780Z" fill="#c06c7f" stroke="#c06c7f" stroke-width="1.51"/><path d="M900,780L900,900L1020,780Z" fill="#bb7292" stroke="#bb7292" stroke-width="1.51"/><path d="M900,780L1020,780L1020,660Z" fill="#a39ead" stroke="#a39ead" stroke-width="1.51"/><path d="M900,660L900,780L1020,660Z" fill="#97a4c1" stroke="#97a4c1" stroke-width="1.51"/><path d="M900,660L1020,660L1020,540Z" fill="#7eb4d6" stroke="#7eb4d6" stroke-width="1.51"/><path d="M900,540L900,660L1020,540Z" fill="#899bdf" stroke="#899bdf" stroke-width="1.51"/><path d="M900,540L1020,540L1020,420Z" fill="#8f86e6" stroke="#8f86e6" stroke-width="1.51"/><path d="M900,420L900,540L1020,420Z" fill="#926bef" stroke="#926bef" stroke-width="1.51"/><path d="M900,420L1020,420L1020,300Z" fill="#987bdb" stroke="#987bdb" stroke-width="1.51"/><path d="M900,300L900,420L1020,300Z" fill="#9c7fcd" stroke="#9c7fcd" stroke-width="1.51"/><path d="M900,300L1020,300L1020,180Z" fill="#98a5a6" stroke="#98a5a6" stroke-width="1.51"/><path d="M900,180L900,300L1020,180Z" fill="#9aa999" stroke="#9aa999" stroke-width="1.51"/><path d="M900,180L1020,180L1020,60Z" fill="#a5ba8f" stroke="#a5ba8f" stroke-width="1.51"/><path d="M900,60L900,180L1020,60Z" fill="#b5b194" stroke="#b5b194" stroke-width="1.51"/><path d="M900,60L1020,60L1020,-60Z" fill="#c6be91" stroke="#c6be91" stroke-width="1.51"/><path d="M900,-60L900,60L1020,-60Z" fill="#d3b498" stroke="#d3b498" stroke-width="1.51"/><path d="M900,-60L1020,-60L1020,-180Z" fill="#c6a1b1" stroke="#c6a1b1" stroke-width="1.51"/><path d="M900,-180L900,-60L1020,-180Z" fill="#c286c2" stroke="#c286c2" stroke-width="1.51"/><path d="M780,1260L900,1260L900,1140Z" fill="#aa94f4" stroke="#aa94f4" stroke-width="1.51"/><path d="M780,1140L780,1260L900,1140Z" fill="#9b7ff4" stroke="#9b7ff4" stroke-width="1.51"/><path d="M780,1140L900,1140L900,1020Z" fill="#7778eb" stroke="#7778eb" stroke-width="1.51"/><path d="M780,1020L780,1140L900,1020Z" fill="#8d64dc" stroke="#8d64dc" stroke-width="1.51"/><path d="M780,1020L900,1020L900,900Z" fill="#ac5ab4" stroke="#ac5ab4" stroke-width="1.51"/><path d="M780,900L780,1020L900,900Z" fill="#b83fa5" stroke="#b83fa5" stroke-width="1.51"/><path d="M780,900L900,900L900,780Z" fill="#c4428a" stroke="#c4428a" stroke-width="1.51"/><path d="M780,780L780,900L900,780Z" fill="#bf4a9c" stroke="#bf4a9c" stroke-width="1.51"/><path d="M780,780L900,780L900,660Z" fill="#ab7fb8" stroke="#ab7fb8" stroke-width="1.51"/><path d="M780,660L780,780L900,660Z" fill="#a085cc" stroke="#a085cc" stroke-width="1.51"/><path d="M780,660L900,660L900,540Z" fill="#8b97e1" stroke="#8b97e1" stroke-width="1.51"/><path d="M780,540L780,660L900,540Z" fill="#907ce9" stroke="#907ce9" stroke-width="1.51"/><path d="M780,540L900,540L900,420Z" fill="#9365f0" stroke="#9365f0" stroke-width="1.51"/><path d="M780,420L780,540L900,420Z" fill="#9242f8" stroke="#9242f8" stroke-width="1.51"/><path d="M780,420L900,420L900,300Z" fill="#9b57e4" stroke="#9b57e4" stroke-width="1.51"/><path d="M780,300L780,420L900,300Z" fill="#a05cd7" stroke="#a05cd7" stroke-width="1.51"/><path d="M780,300L900,300L900,180Z" fill="#a287b1" stroke="#a287b1" stroke-width="1.51"/><path d="M780,180L780,300L900,180Z" fill="#a48ba4" stroke="#a48ba4" stroke-width="1.51"/><path d="M780,180L900,180L900,60Z" fill="#b19c9c" stroke="#b19c9c" stroke-width="1.51"/><path d="M780,60L780,180L900,60Z" fill="#be92a0" stroke="#be92a0" stroke-width="1.51"/><path d="M780,60L900,60L900,-60Z" fill="#d09f9e" stroke="#d09f9e" stroke-width="1.51"/><path d="M780,-60L780,60L900,-60Z" fill="#db93a4" stroke="#db93a4" stroke-width="1.51"/><path d="M780,-60L900,-60L900,-180Z" fill="#cd7fbc" stroke="#cd7fbc" stroke-width="1.51"/><path d="M780,-180L780,-60L900,-180Z" fill="#c661cc" stroke="#c661cc" stroke-width="1.51"/><path d="M660,1260L780,1260L780,1140Z" fill="#af8cec" stroke="#af8cec" stroke-width="1.51"/><path d="M660,1140L660,1260L780,1140Z" fill="#a18cde" stroke="#a18cde" stroke-width="1.51"/><path d="M660,1140L780,1140L780,1020Z" fill="#7f71e3" stroke="#7f71e3" stroke-width="1.51"/><path d="M660,1020L660,1140L780,1020Z" fill="#9471c7" stroke="#9471c7" stroke-width="1.51"/><path d="M660,1020L780,1020L780,900Z" fill="#af51ad" stroke="#af51ad" stroke-width="1.51"/><path d="M660,900L660,1020L780,900Z" fill="#b95290" stroke="#b95290" stroke-width="1.51"/><path d="M660,900L780,900L780,780Z" fill="#c53583" stroke="#c53583" stroke-width="1.51"/><path d="M660,780L660,900L780,780Z" fill="#bf5d87" stroke="#bf5d87" stroke-width="1.51"/><path d="M660,780L780,780L780,660Z" fill="#af77b1" stroke="#af77b1" stroke-width="1.51"/><path d="M660,660L660,780L780,660Z" fill="#a292b6" stroke="#a292b6" stroke-width="1.51"/><path d="M660,660L780,660L780,540Z" fill="#9190d9" stroke="#9190d9" stroke-width="1.51"/><path d="M660,540L660,660L780,540Z" fill="#9789d3" stroke="#9789d3" stroke-width="1.51"/><path d="M660,540L780,540L780,420Z" fill="#985ce9" stroke="#985ce9" stroke-width="1.51"/><path d="M660,420L660,540L780,420Z" fill="#9c54e2" stroke="#9c54e2" stroke-width="1.51"/><path d="M660,420L780,420L780,300Z" fill="#9f4edd" stroke="#9f4edd" stroke-width="1.51"/><path d="M660,300L660,420L780,300Z" fill="#a56bc1" stroke="#a56bc1" stroke-width="1.51"/><path d="M660,300L780,300L780,180Z" fill="#a680aa" stroke="#a680aa" stroke-width="1.51"/><path d="M660,180L660,300L780,180Z" fill="#a3988e" stroke="#a3988e" stroke-width="1.51"/><path d="M660,180L780,180L780,60Z" fill="#b59595" stroke="#b59595" stroke-width="1.51"/><path d="M660,60L660,180L780,60Z" fill="#bc9f89" stroke="#bc9f89" stroke-width="1.51"/><path d="M660,60L780,60L780,-60Z" fill="#d29797" stroke="#d29797" stroke-width="1.51"/><path d="M660,-60L660,60L780,-60Z" fill="#d9a18d" stroke="#d9a18d" stroke-width="1.51"/><path d="M660,-60L780,-60L780,-180Z" fill="#cf77b5" stroke="#cf77b5" stroke-width="1.51"/><path d="M660,-180L660,-60L780,-180Z" fill="#c871b6" stroke="#c871b6" stroke-width="1.51"/><path d="M540,1260L660,1260L660,1140Z" fill="#b0a9ca" stroke="#b0a9ca" stroke-width="1.51"/><path d="M540,1140L540,1260L660,1140Z" fill="#a2a8bb" stroke="#a2a8bb" stroke-width="1.51"/><path d="M540,1140L660,1140L660,1020Z" fill="#868cc2" stroke="#868cc2" stroke-width="1.51"/><path d="M540,1020L540,1140L660,1020Z" fill="#958da5" stroke="#958da5" stroke-width="1.51"/><path d="M540,1020L660,1020L660,900Z" fill="#af738c" stroke="#af738c" stroke-width="1.51"/><path d="M540,900L540,1020L660,900Z" fill="#b7746f" stroke="#b7746f" stroke-width="1.51"/><path d="M540,900L660,900L660,780Z" fill="#c36163" stroke="#c36163" stroke-width="1.51"/><path d="M540,780L540,900L660,780Z" fill="#bb7d65" stroke="#bb7d65" stroke-width="1.51"/><path d="M540,780L660,780L660,660Z" fill="#ac958f" stroke="#ac958f" stroke-width="1.51"/><path d="M540,660L540,780L660,660Z" fill="#9dad93" stroke="#9dad93" stroke-width="1.51"/><path d="M540,660L660,660L660,540Z" fill="#91abb7" stroke="#91abb7" stroke-width="1.51"/><path d="M540,540L540,660L660,540Z" fill="#97a4b1" stroke="#97a4b1" stroke-width="1.51"/><path d="M540,540L660,540L660,420Z" fill="#a07cc7" stroke="#a07cc7" stroke-width="1.51"/><path d="M540,420L540,540L660,420Z" fill="#a374c2" stroke="#a374c2" stroke-width="1.51"/><path d="M540,420L660,420L660,300Z" fill="#a670bc" stroke="#a670bc" stroke-width="1.51"/><path d="M540,300L540,420L660,300Z" fill="#a688a0" stroke="#a688a0" stroke-width="1.51"/><path d="M540,300L660,300L660,180Z" fill="#a29c88" stroke="#a29c88" stroke-width="1.51"/><path d="M540,180L540,300L660,180Z" fill="#99b269" stroke="#99b269" stroke-width="1.51"/><path d="M540,180L660,180L660,60Z" fill="#acb170" stroke="#acb170" stroke-width="1.51"/><path d="M540,60L540,180L660,60Z" fill="#b2bb63" stroke="#b2bb63" stroke-width="1.51"/><path d="M540,60L660,60L660,-60Z" fill="#cbb572" stroke="#cbb572" stroke-width="1.51"/><path d="M540,-60L540,60L660,-60Z" fill="#d0be65" stroke="#d0be65" stroke-width="1.51"/><path d="M540,-60L660,-60L660,-180Z" fill="#cd9792" stroke="#cd9792" stroke-width="1.51"/><path d="M540,-180L540,-60L660,-180Z" fill="#c69194" stroke="#c69194" stroke-width="1.51"/><path d="M420,1260L540,1260L540,1140Z" fill="#abc4a6" stroke="#abc4a6" stroke-width="1.51"/><path d="M420,1140L420,1260L540,1140Z" fill="#9ac298" stroke="#9ac298" stroke-width="1.51"/><path d="M420,1140L540,1140L540,1020Z" fill="#83a6a0" stroke="#83a6a0" stroke-width="1.51"/><path d="M420,1020L420,1140L540,1020Z" fill="#8ea783" stroke="#8ea783" stroke-width="1.51"/><path d="M420,1020L540,1020L540,900Z" fill="#a9906a" stroke="#a9906a" stroke-width="1.51"/><path d="M420,900L420,1020L540,900Z" fill="#ae924a" stroke="#ae924a" stroke-width="1.51"/><path d="M420,900L540,900L540,780Z" fill="#bb813d" stroke="#bb813d" stroke-width="1.51"/><path d="M420,780L420,900L540,780Z" fill="#b19a3d" stroke="#b19a3d" stroke-width="1.51"/><path d="M420,780L540,780L540,660Z" fill="#a3af6a" stroke="#a3af6a" stroke-width="1.51"/><path d="M420,660L420,780L540,660Z" fill="#90c76d" stroke="#90c76d" stroke-width="1.51"/><path d="M420,660L540,660L540,540Z" fill="#88c493" stroke="#88c493" stroke-width="1.51"/><path d="M420,540L420,660L540,540Z" fill="#8dbe8d" stroke="#8dbe8d" stroke-width="1.51"/><path d="M420,540L540,540L540,420Z" fill="#9f97a6" stroke="#9f97a6" stroke-width="1.51"/><path d="M420,420L420,540L540,420Z" fill="#a291a1" stroke="#a291a1" stroke-width="1.51"/><path d="M420,420L540,420L540,300Z" fill="#a58d9b" stroke="#a58d9b" stroke-width="1.51"/><path d="M420,300L420,420L540,300Z" fill="#9fa47d" stroke="#9fa47d" stroke-width="1.51"/><path d="M420,300L540,300L540,180Z" fill="#97b662" stroke="#97b662" stroke-width="1.51"/><path d="M420,180L420,300L540,180Z" fill="#86cc39" stroke="#86cc39" stroke-width="1.51"/><path d="M420,180L540,180L540,60Z" fill="#9dcb42" stroke="#9dcb42" stroke-width="1.51"/><path d="M420,60L420,180L540,60Z" fill="#a0d52c" stroke="#a0d52c" stroke-width="1.51"/><path d="M420,60L540,60L540,-60Z" fill="#bdd043" stroke="#bdd043" stroke-width="1.51"/><path d="M420,-60L420,60L540,-60Z" fill="#c1da2e" stroke="#c1da2e" stroke-width="1.51"/><path d="M420,-60L540,-60L540,-180Z" fill="#c4b36d" stroke="#c4b36d" stroke-width="1.51"/><path d="M420,-180L420,-60L540,-180Z" fill="#beae70" stroke="#beae70" stroke-width="1.51"/><path d="M300,1260L420,1260L420,1140Z" fill="#b2d196" stroke="#b2d196" stroke-width="1.51"/><path d="M300,1140L300,1260L420,1140Z" fill="#adc895" stroke="#adc895" stroke-width="1.51"/><path d="M300,1140L420,1140L420,1020Z" fill="#8cb391" stroke="#8cb391" stroke-width="1.51"/><path d="M300,1020L300,1140L420,1020Z" fill="#a0ad80" stroke="#a0ad80" stroke-width="1.51"/><path d="M300,1020L420,1020L420,900Z" fill="#af9e59" stroke="#af9e59" stroke-width="1.51"/><path d="M300,900L300,1020L420,900Z" fill="#bd9745" stroke="#bd9745" stroke-width="1.51"/><path d="M300,900L420,900L420,780Z" fill="#c09025" stroke="#c09025" stroke-width="1.51"/><path d="M300,780L300,900L420,780Z" fill="#c0a037" stroke="#c0a037" stroke-width="1.51"/><path d="M300,780L420,780L420,660Z" fill="#a7bd58" stroke="#a7bd58" stroke-width="1.51"/><path d="M300,660L300,780L420,660Z" fill="#a2cd69" stroke="#a2cd69" stroke-width="1.51"/><path d="M300,660L420,660L420,540Z" fill="#8ed282" stroke="#8ed282" stroke-width="1.51"/><path d="M300,540L300,660L420,540Z" fill="#a1c48a" stroke="#a1c48a" stroke-width="1.51"/><path d="M300,540L420,540L420,420Z" fill="#a8a597" stroke="#a8a597" stroke-width="1.51"/><path d="M300,420L300,540L420,420Z" fill="#b4969e" stroke="#b4969e" stroke-width="1.51"/><path d="M300,420L420,420L420,300Z" fill="#ad9a8c" stroke="#ad9a8c" stroke-width="1.51"/><path d="M300,300L300,420L420,300Z" fill="#b0a97a" stroke="#b0a97a" stroke-width="1.51"/><path d="M300,300L420,300L420,180Z" fill="#9bc34e" stroke="#9bc34e" stroke-width="1.51"/><path d="M300,180L300,300L420,180Z" fill="#98d231" stroke="#98d231" stroke-width="1.51"/><path d="M300,180L420,180L420,60Z" fill="#9fd920" stroke="#9fd920" stroke-width="1.51"/><path d="M300,60L300,180L420,60Z" fill="#b1dc20" stroke="#b1dc20" stroke-width="1.51"/><path d="M300,60L420,60L420,-60Z" fill="#c0de1f" stroke="#c0de1f" stroke-width="1.51"/><path d="M300,-60L300,60L420,-60Z" fill="#d1e022" stroke="#d1e022" stroke-width="1.51"/><path d="M300,-60L420,-60L420,-180Z" fill="#c9c15a" stroke="#c9c15a" stroke-width="1.51"/><path d="M300,-180L300,-60L420,-180Z" fill="#ceb36d" stroke="#ceb36d" stroke-width="1.51"/><path d="M180,1260L300,1260L300,1140Z" fill="#c8d598" stroke="#c8d598" stroke-width="1.51"/><path d="M180,1140L180,1260L300,1140Z" fill="#c3cb96" stroke="#c3cb96" stroke-width="1.51"/><path d="M180,1140L300,1140L300,1020Z" fill="#a3b692" stroke="#a3b692" stroke-width="1.51"/><path d="M180,1020L180,1140L300,1020Z" fill="#b5af81" stroke="#b5af81" stroke-width="1.51"/><path d="M180,1020L300,1020L300,900Z" fill="#c2a05a" stroke="#c2a05a" stroke-width="1.51"/><path d="M180,900L180,1020L300,900Z" fill="#cf9946" stroke="#cf9946" stroke-width="1.51"/><path d="M180,900L300,900L300,780Z" fill="#d19225" stroke="#d19225" stroke-width="1.51"/><path d="M180,780L180,900L300,780Z" fill="#d2a238" stroke="#d2a238" stroke-width="1.51"/><path d="M180,780L300,780L300,660Z" fill="#bcc059" stroke="#bcc059" stroke-width="1.51"/><path d="M180,660L180,780L300,660Z" fill="#b7d06a" stroke="#b7d06a" stroke-width="1.51"/><path d="M180,660L300,660L300,540Z" fill="#a6d584" stroke="#a6d584" stroke-width="1.51"/><path d="M180,540L180,660L300,540Z" fill="#b7c78b" stroke="#b7c78b" stroke-width="1.51"/><path d="M180,540L300,540L300,420Z" fill="#bda799" stroke="#bda799" stroke-width="1.51"/><path d="M180,420L180,540L300,420Z" fill="#c898a0" stroke="#c898a0" stroke-width="1.51"/><path d="M180,420L300,420L300,300Z" fill="#c19d8e" stroke="#c19d8e" stroke-width="1.51"/><path d="M180,300L180,420L300,300Z" fill="#c4ac7c" stroke="#c4ac7c" stroke-width="1.51"/><path d="M180,300L300,300L300,180Z" fill="#b0c74f" stroke="#b0c74f" stroke-width="1.51"/><path d="M180,180L180,300L300,180Z" fill="#aed631" stroke="#aed631" stroke-width="1.51"/><path d="M180,180L300,180L300,60Z" fill="#b4dd1f" stroke="#b4dd1f" stroke-width="1.51"/><path d="M180,60L180,180L300,60Z" fill="#c6df1f" stroke="#c6df1f" stroke-width="1.51"/><path d="M180,60L300,60L300,-60Z" fill="#d4e21d" stroke="#d4e21d" stroke-width="1.51"/><path d="M180,-60L180,60L300,-60Z" fill="#e5e321" stroke="#e5e321" stroke-width="1.51"/><path d="M180,-60L300,-60L300,-180Z" fill="#ddc45b" stroke="#ddc45b" stroke-width="1.51"/><path d="M180,-180L180,-60L300,-180Z" fill="#e1b66e" stroke="#e1b66e" stroke-width="1.51"/><path d="M60,1260L180,1260L180,1140Z" fill="#ddd799" stroke="#ddd799" stroke-width="1.51"/><path d="M60,1140L60,1260L180,1140Z" fill="#d7cd99" stroke="#d7cd99" stroke-width="1.51"/><path d="M60,1140L180,1140L180,1020Z" fill="#b8b994" stroke="#b8b994" stroke-width="1.51"/><path d="M60,1020L60,1140L180,1020Z" fill="#c8b184" stroke="#c8b184" stroke-width="1.51"/><path d="M60,1020L180,1020L180,900Z" fill="#d4a25c" stroke="#d4a25c" stroke-width="1.51"/><path d="M60,900L60,1020L180,900Z" fill="#e09a48" stroke="#e09a48" stroke-width="1.51"/><path d="M60,900L180,900L180,780Z" fill="#e39326" stroke="#e39326" stroke-width="1.51"/><path d="M60,780L60,900L180,780Z" fill="#e3a339" stroke="#e3a339" stroke-width="1.51"/><path d="M60,780L180,780L180,660Z" fill="#d0c35a" stroke="#d0c35a" stroke-width="1.51"/><path d="M60,660L60,780L180,660Z" fill="#ccd36c" stroke="#ccd36c" stroke-width="1.51"/><path d="M60,660L180,660L180,540Z" fill="#bdd885" stroke="#bdd885" stroke-width="1.51"/><path d="M60,540L60,660L180,540Z" fill="#cbc98e" stroke="#cbc98e" stroke-width="1.51"/><path d="M60,540L180,540L180,420Z" fill="#d1a99b" stroke="#d1a99b" stroke-width="1.51"/><path d="M60,420L60,540L180,420Z" fill="#da98a2" stroke="#da98a2" stroke-width="1.51"/><path d="M60,420L180,420L180,300Z" fill="#d49e90" stroke="#d49e90" stroke-width="1.51"/><path d="M60,300L60,420L180,300Z" fill="#d6ad7e" stroke="#d6ad7e" stroke-width="1.51"/><path d="M60,300L180,300L180,180Z" fill="#c4ca50" stroke="#c4ca50" stroke-width="1.51"/><path d="M60,180L60,300L180,180Z" fill="#c2d932" stroke="#c2d932" stroke-width="1.51"/><path d="M60,180L180,180L180,60Z" fill="#c9e01f" stroke="#c9e01f" stroke-width="1.51"/><path d="M60,60L60,180L180,60Z" fill="#dae220" stroke="#dae220" stroke-width="1.51"/><path d="M60,60L180,60L180,-60Z" fill="#e9e51d" stroke="#e9e51d" stroke-width="1.51"/><path d="M60,-60L60,60L180,-60Z" fill="#f8e623" stroke="#f8e623" stroke-width="1.51"/><path d="M60,-60L180,-60L180,-180Z" fill="#f0c65c" stroke="#f0c65c" stroke-width="1.51"/><path d="M60,-180L60,-60L180,-180Z" fill="#f3b770" stroke="#f3b770" stroke-width="1.51"/><path d="M-60,1260L60,1260L60,1140Z" fill="#dfc4af" stroke="#dfc4af" stroke-width="1.51"/><path d="M-60,1140L-60,1260L60,1140Z" fill="#ceb0b6" stroke="#ceb0b6" stroke-width="1.51"/><path d="M-60,1140L60,1140L60,1020Z" fill="#b9a6a8" stroke="#b9a6a8" stroke-width="1.51"/><path d="M-60,1020L-60,1140L60,1020Z" fill="#bf94a0" stroke="#bf94a0" stroke-width="1.51"/><path d="M-60,1020L60,1020L60,900Z" fill="#d58d72" stroke="#d58d72" stroke-width="1.51"/><path d="M-60,900L-60,1020L60,900Z" fill="#da7a69" stroke="#da7a69" stroke-width="1.51"/><path d="M-60,900L60,900L60,780Z" fill="#e57d45" stroke="#e57d45" stroke-width="1.51"/><path d="M-60,780L-60,900L60,780Z" fill="#de845e" stroke="#de845e" stroke-width="1.51"/><path d="M-60,780L60,780L60,660Z" fill="#d2af72" stroke="#d2af72" stroke-width="1.51"/><path d="M-60,660L-60,780L60,660Z" fill="#c7b68c" stroke="#c7b68c" stroke-width="1.51"/><path d="M-60,660L60,660L60,540Z" fill="#c0c69b" stroke="#c0c69b" stroke-width="1.51"/><path d="M-60,540L-60,660L60,540Z" fill="#c3acab" stroke="#c3acab" stroke-width="1.51"/><path d="M-60,540L60,540L60,420Z" fill="#d095ae" stroke="#d095ae" stroke-width="1.51"/><path d="M-60,420L-60,540L60,420Z" fill="#ce79bd" stroke="#ce79bd" stroke-width="1.51"/><path d="M-60,420L60,420L60,300Z" fill="#d389a3" stroke="#d389a3" stroke-width="1.51"/><path d="M-60,300L-60,420L60,300Z" fill="#ce8f9a" stroke="#ce8f9a" stroke-width="1.51"/><path d="M-60,300L60,300L60,180Z" fill="#c8b76a" stroke="#c8b76a" stroke-width="1.51"/><path d="M-60,180L-60,300L60,180Z" fill="#c1bc60" stroke="#c1bc60" stroke-width="1.51"/><path d="M-60,180L60,180L60,60Z" fill="#cfcd4b" stroke="#cfcd4b" stroke-width="1.51"/><path d="M-60,60L-60,180L60,60Z" fill="#d9c459" stroke="#d9c459" stroke-width="1.51"/><path d="M-60,60L60,60L60,-60Z" fill="#edd14c" stroke="#edd14c" stroke-width="1.51"/><path d="M-60,-60L-60,60L60,-60Z" fill="#f5c75c" stroke="#f5c75c" stroke-width="1.51"/><path d="M-60,-60L60,-60L60,-180Z" fill="#f2b275" stroke="#f2b275" stroke-width="1.51"/><path d="M-60,-180L-60,-60L60,-180Z" fill="#ec988f" stroke="#ec988f" stroke-width="1.51"/><path d="M-180,1260L-60,1260L-60,1140Z" fill="#d4a6cb" stroke="#d4a6cb" stroke-width="1.51"/><path d="M-180,1140L-180,1260L-60,1140Z" fill="#c292d1" stroke="#c292d1" stroke-width="1.51"/><path d="M-180,1140L-60,1140L-60,1020Z" fill="#ab89c3" stroke="#ab89c3" stroke-width="1.51"/><path d="M-180,1020L-180,1140L-60,1020Z" fill="#b377ba" stroke="#b377ba" stroke-width="1.51"/><path d="M-180,1020L-60,1020L-60,900Z" fill="#cc6e8e" stroke="#cc6e8e" stroke-width="1.51"/><path d="M-180,900L-180,1020L-60,900Z" fill="#d15784" stroke="#d15784" stroke-width="1.51"/><path d="M-180,900L-60,900L-60,780Z" fill="#dd5964" stroke="#dd5964" stroke-width="1.51"/><path d="M-180,780L-180,900L-60,780Z" fill="#d6627b" stroke="#d6627b" stroke-width="1.51"/><path d="M-180,780L-60,780L-60,660Z" fill="#cb9290" stroke="#cb9290" stroke-width="1.51"/><path d="M-180,660L-180,780L-60,660Z" fill="#bf99a9" stroke="#bf99a9" stroke-width="1.51"/><path d="M-180,660L-60,660L-60,540Z" fill="#b7aab8" stroke="#b7aab8" stroke-width="1.51"/><path d="M-180,540L-180,660L-60,540Z" fill="#b78fc6" stroke="#b78fc6" stroke-width="1.51"/><path d="M-180,540L-60,540L-60,420Z" fill="#c276c9" stroke="#c276c9" stroke-width="1.51"/><path d="M-180,420L-180,540L-60,420Z" fill="#bd57d7" stroke="#bd57d7" stroke-width="1.51"/><path d="M-180,420L-60,420L-60,300Z" fill="#c669be" stroke="#c669be" stroke-width="1.51"/><path d="M-180,300L-180,420L-60,300Z" fill="#c270b5" stroke="#c270b5" stroke-width="1.51"/><path d="M-180,300L-60,300L-60,180Z" fill="#c29a89" stroke="#c29a89" stroke-width="1.51"/><path d="M-180,180L-180,300L-60,180Z" fill="#bc9f80" stroke="#bc9f80" stroke-width="1.51"/><path d="M-180,180L-60,180L-60,60Z" fill="#ccb071" stroke="#ccb071" stroke-width="1.51"/><path d="M-180,60L-180,180L-60,60Z" fill="#d4a77b" stroke="#d4a77b" stroke-width="1.51"/><path d="M-180,60L-60,60L-60,-60Z" fill="#eab373" stroke="#eab373" stroke-width="1.51"/><path d="M-180,-60L-180,60L-60,-60Z" fill="#f1a87f" stroke="#f1a87f" stroke-width="1.51"/><path d="M-180,-60L-60,-60L-60,-180Z" fill="#eb9394" stroke="#eb9394" stroke-width="1.51"/><path d="M-180,-180L-180,-60L-60,-180Z" fill="#e277aa" stroke="#e277aa" stroke-width="1.51"/></svg>