<svg xmlns="http://www.w3.org/2000/svg" width="1920" height="1080"><path d="M1980,1260L2100,1260L2100,1140Z" fill="#093e7f" stroke="#093e7f" stroke-width="1.51"/><path d="M1980,1140L1980,1260L2100,1140Z" fill="#094387" stroke="#094387" stroke-width="1.51"/><path d="M1980,1140L2100,1140L2100,1020Z" fill="#0b488d" stroke="#0b488d" stroke-width="1.51"/><path d="M1980,1020L1980,1140L2100,1020Z" fill="#0e4d92" stroke="#0e4d92" stroke-width="1.51"/><path d="M1980,1020L2100,1020L2100,900Z" fill="#135295" stroke="#135295" stroke-width="1.51"/><path d="M1980,900L1980,1020L2100,900Z" fill="#16569a" stroke="#16569a" stroke-width="1.51"/><path d="M1980,900L2100,900L2100,780Z" fill="#1f5b9a" stroke="#1f5b9a" stroke-width="1.51"/><path d="M1980,780L1980,900L2100,780Z" fill="#2260a0" stroke="#2260a0" stroke-width="1.51"/><path d="M1980,780L2100,780L2100,660Z" fill="#2964a0" stroke="#2964a0" stroke-width="1.51"/><path d="M1980,660L1980,780L2100,660Z" fill="#2f69a4" stroke="#2f69a4" stroke-width="1.51"/><path d="M1980,660L2100,660L2100,540Z" fill="#386ca4" stroke="#386ca4" stroke-width="1.51"/><path d="M1980,540L1980,660L2100,540Z" fill="#3d71a9" stroke="#3d71a9" stroke-width="1.51"/><path d="M1980,540L2100,540L2100,420Z" fill="#4775a9" stroke="#4775a9" stroke-width="1.51"/><path d="M1980,420L1980,540L2100,420Z" fill="#4e79ad" stroke="#4e79ad" stroke-width="1.51"/><path d="M1980,420L2100,420L2100,300Z" fill="#587cac" stroke="#587cac" stroke-width="1.51"/><path d="M1980,300L1980,420L2100,300Z" fill="#5e81b0" stroke="#5e81b0" stroke-width="1.51"/><path d="M1980,300L2100,300L2100,180Z" fill="#6682b0" stroke="#6682b0" stroke-width="1.51"/><path d="M1980,180L1980,300L2100,180Z" fill="#6c86b5" stroke="#6c86b5" stroke-width="1.51"/><path d="M1980,180L2100,180L2100,60Z" fill="#7287b4" stroke="#7287b4" stroke-width="1.51"/><path d="M1980,60L1980,180L2100,60Z" fill="#768ab8" stroke="#768ab8" stroke-width="1.51"/><path d="M1980,60L2100,60L2100,-60Z" fill="#7a8bb6" stroke="#7a8bb6" stroke-width="1.51"/><path d="M1980,-60L1980,60L2100,-60Z" fill="#7e8fbb" stroke="#7e8fbb" stroke-width="1.51"/><path d="M1980,-60L2100,-60L2100,-180Z" fill="#818fb9" stroke="#818fb9" stroke-width="1.51"/><path d="M1980,-180L1980,-60L2100,-180Z" fill="#8593bd" stroke="#8593bd" stroke-width="1.51"/><path d="M1860,1260L1980,1260L1980,1140Z" fill="#094489" stroke="#094489" stroke-width="1.51"/><path d="M1860,1140L1860,1260L1980,1140Z" fill="#094991" stroke="#094991" stroke-width="1.51"/><path d="M1860,1140L1980,1140L1980,1020Z" fill="#0b4e97" stroke="#0b4e97" stroke-width="1.51"/><path d="M1860,1020L1860,1140L1980,1020Z" fill="#0e539c" stroke="#0e539c" stroke-width="1.51"/><path d="M1860,1020L1980,1020L1980,900Z" fill="#14589f" stroke="#14589f" stroke-width="1.51"/><path d="M1860,900L1860,1020L1980,900Z" fill="#165da4" stroke="#165da4" stroke-width="1.51"/><path d="M1860,900L1980,900L1980,780Z" fill="#2062a5" stroke="#2062a5" stroke-width="1.51"/><path d="M1860,780L1860,900L1980,780Z" fill="#2367aa" stroke="#2367aa" stroke-width="1.51"/><path d="M1860,780L1980,780L1980,660Z" fill="#2b6baa" stroke="#2b6baa" stroke-width="1.51"/><path d="M1860,660L1860,780L1980,660Z" fill="#3070af" stroke="#3070af" stroke-width="1.51"/><path d="M1860,660L1980,660L1980,540Z" fill="#3a73af" stroke="#3a73af" stroke-width="1.51"/><path d="M1860,540L1860,660L1980,540Z" fill="#3f78b4" stroke="#3f78b4" stroke-width="1.51"/><path d="M1860,540L1980,540L1980,420Z" fill="#4a7cb3" stroke="#4a7cb3" stroke-width="1.51"/><path d="M1860,420L1860,540L1980,420Z" fill="#5180b8" stroke="#5180b8" stroke-width="1.51"/><path d="M1860,420L1980,420L1980,300Z" fill="#5b84b7" stroke="#5b84b7" stroke-width="1.51"/><path d="M1860,300L1860,420L1980,300Z" fill="#6288bb" stroke="#6288bb" stroke-width="1.51"/><path d="M1860,300L1980,300L1980,180Z" fill="#6a89bb" stroke="#6a89bb" stroke-width="1.51"/><path d="M1860,180L1860,300L1980,180Z" fill="#6f8dbf" stroke="#6f8dbf" stroke-width="1.51"/><path d="M1860,180L1980,180L1980,60Z" fill="#768ebf" stroke="#768ebf" stroke-width="1.51"/><path d="M1860,60L1860,180L1980,60Z" fill="#7a92c3" stroke="#7a92c3" stroke-width="1.51"/><path d="M1860,60L1980,60L1980,-60Z" fill="#7e93c1" stroke="#7e93c1" stroke-width="1.51"/><path d="M1860,-60L1860,60L1980,-60Z" fill="#8296c5" stroke="#8296c5" stroke-width="1.51"/><path d="M1860,-60L1980,-60L1980,-180Z" fill="#8697c4" stroke="#8697c4" stroke-width="1.51"/><path d="M1860,-180L1860,-60L1980,-180Z" fill="#899bc8" stroke="#899bc8" stroke-width="1.51"/><path d="M1740,1260L1860,1260L1860,1140Z" fill="#0b4b91" stroke="#0b4b91" stroke-width="1.51"/><path d="M1740,1140L1740,1260L1860,1140Z" fill="#0d5098" stroke="#0d5098" stroke-width="1.51"/><path d="M1740,1140L1860,1140L1860,1020Z" fill="#0d559f" stroke="#0d559f" stroke-width="1.51"/><path d="M1740,1020L1740,1140L1860,1020Z" fill="#125aa4" stroke="#125aa4" stroke-width="1.51"/><path d="M1740,1020L1860,1020L1860,900Z" fill="#155fa7" stroke="#155fa7" stroke-width="1.51"/><path d="M1740,900L1740,1020L1860,900Z" fill="#1964ab" stroke="#1964ab" stroke-width="1.51"/><path d="M1740,900L1860,900L1860,780Z" fill="#2169ad" stroke="#2169ad" stroke-width="1.51"/><path d="M1740,780L1740,900L1860,780Z" fill="#266eb1" stroke="#266eb1" stroke-width="1.51"/><path d="M1740,780L1860,780L1860,660Z" fill="#2d72b2" stroke="#2d72b2" stroke-width="1.51"/><path d="M1740,660L1740,780L1860,660Z" fill="#3377b6" stroke="#3377b6" stroke-width="1.51"/><path d="M1740,660L1860,660L1860,540Z" fill="#3c7ab7" stroke="#3c7ab7" stroke-width="1.51"/><path d="M1740,540L1740,660L1860,540Z" fill="#427fbb" stroke="#427fbb" stroke-width="1.51"/><path d="M1740,540L1860,540L1860,420Z" fill="#4c83bb" stroke="#4c83bb" stroke-width="1.51"/><path d="M1740,420L1740,540L1860,420Z" fill="#5487bf" stroke="#5487bf" stroke-width="1.51"/><path d="M1740,420L1860,420L1860,300Z" fill="#5e8bbf" stroke="#5e8bbf" stroke-width="1.51"/><path d="M1740,300L1740,420L1860,300Z" fill="#658fc2" stroke="#658fc2" stroke-width="1.51"/><path d="M1740,300L1860,300L1860,180Z" fill="#6d90c3" stroke="#6d90c3" stroke-width="1.51"/><path d="M1740,180L1740,300L1860,180Z" fill="#7294c6" stroke="#7294c6" stroke-width="1.51"/><path d="M1740,180L1860,180L1860,60Z" fill="#7995c7" stroke="#7995c7" stroke-width="1.51"/><path d="M1740,60L1740,180L1860,60Z" fill="#7d99ca" stroke="#7d99ca" stroke-width="1.51"/><path d="M1740,60L1860,60L1860,-60Z" fill="#819ac9" stroke="#819ac9" stroke-width="1.51"/><path d="M1740,-60L1740,60L1860,-60Z" fill="#859dcc" stroke="#859dcc" stroke-width="1.51"/><path d="M1740,-60L1860,-60L1860,-180Z" fill="#899ecc" stroke="#899ecc" stroke-width="1.51"/><path d="M1740,-180L1740,-60L1860,-180Z" fill="#8da2cf" stroke="#8da2cf" stroke-width="1.51"/><path d="M1620,1260L1740,1260L1740,1140Z" fill="#115196" stroke="#115196" stroke-width="1.51"/><path d="M1620,1140L1620,1260L1740,1140Z" fill="#13569d" stroke="#13569d" stroke-width="1.51"/><path d="M1620,1140L1740,1140L1740,1020Z" fill="#135ba4" stroke="#135ba4" stroke-width="1.51"/><path d="M1620,1020L1620,1140L1740,1020Z" fill="#1760a8" stroke="#1760a8" stroke-width="1.51"/><path d="M1620,1020L1740,1020L1740,900Z" fill="#1a65ac" stroke="#1a65ac" stroke-width="1.51"/><path d="M1620,900L1620,1020L1740,900Z" fill="#1e6ab0" stroke="#1e6ab0" stroke-width="1.51"/><path d="M1620,900L1740,900L1740,780Z" fill="#256fb2" stroke="#256fb2" stroke-width="1.51"/><path d="M1620,780L1620,900L1740,780Z" fill="#2974b6" stroke="#2974b6" stroke-width="1.51"/><path d="M1620,780L1740,780L1740,660Z" fill="#3079b7" stroke="#3079b7" stroke-width="1.51"/><path d="M1620,660L1620,780L1740,660Z" fill="#367ebb" stroke="#367ebb" stroke-width="1.51"/><path d="M1620,660L1740,660L1740,540Z" fill="#3f81bc" stroke="#3f81bc" stroke-width="1.51"/><path d="M1620,540L1620,660L1740,540Z" fill="#4586c0" stroke="#4586c0" stroke-width="1.51"/><path d="M1620,540L1740,540L1740,420Z" fill="#4f8ac0" stroke="#4f8ac0" stroke-width="1.51"/><path d="M1620,420L1620,540L1740,420Z" fill="#568ec4" stroke="#568ec4" stroke-width="1.51"/><path d="M1620,420L1740,420L1740,300Z" fill="#6192c4" stroke="#6192c4" stroke-width="1.51"/><path d="M1620,300L1620,420L1740,300Z" fill="#6896c7" stroke="#6896c7" stroke-width="1.51"/><path d="M1620,300L1740,300L1740,180Z" fill="#7097c8" stroke="#7097c8" stroke-width="1.51"/><path d="M1620,180L1620,300L1740,180Z" fill="#759bcc" stroke="#759bcc" stroke-width="1.51"/><path d="M1620,180L1740,180L1740,60Z" fill="#7c9ccc" stroke="#7c9ccc" stroke-width="1.51"/><path d="M1620,60L1620,180L1740,60Z" fill="#80a0cf" stroke="#80a0cf" stroke-width="1.51"/><path d="M1620,60L1740,60L1740,-60Z" fill="#84a1ce" stroke="#84a1ce" stroke-width="1.51"/><path d="M1620,-60L1620,60L1740,-60Z" fill="#88a5d2" stroke="#88a5d2" stroke-width="1.51"/><path d="M1620,-60L1740,-60L1740,-180Z" fill="#8ca5d1" stroke="#8ca5d1" stroke-width="1.51"/><path d="M1620,-180L1620,-60L1740,-180Z" fill="#90a9d4" stroke="#90a9d4" stroke-width="1.51"/><path d="M1500,1260L1620,1260L1620,1140Z" fill="#16589b" stroke="#16589b" stroke-width="1.51"/><path d="M1500,1140L1500,1260L1620,1140Z" fill="#195da2" stroke="#195da2" stroke-width="1.51"/><path d="M1500,1140L1620,1140L1620,1020Z" fill="#1862a9" stroke="#1862a9" stroke-width="1.51"/><path d="M1500,1020L1500,1140L1620,1020Z" fill="#1c67ad" stroke="#1c67ad" stroke-width="1.51"/><path d="M1500,1020L1620,1020L1620,900Z" fill="#1e6cb1" stroke="#1e6cb1" stroke-width="1.51"/><path d="M1500,900L1500,1020L1620,900Z" fill="#2271b5" stroke="#2271b5" stroke-width="1.51"/><path d="M1500,900L1620,900L1620,780Z" fill="#2876b7" stroke="#2876b7" stroke-width="1.51"/><path d="M1500,780L1500,900L1620,780Z" fill="#2d7bba" stroke="#2d7bba" stroke-width="1.51"/><path d="M1500,780L1620,780L1620,660Z" fill="#3280bc" stroke="#3280bc" stroke-width="1.51"/><path d="M1500,660L1500,780L1620,660Z" fill="#3985c0" stroke="#3985c0" stroke-width="1.51"/><path d="M1500,660L1620,660L1620,540Z" fill="#4288c1" stroke="#4288c1" stroke-width="1.51"/><path d="M1500,540L1500,660L1620,540Z" fill="#488dc5" stroke="#488dc5" stroke-width="1.51"/><path d="M1500,540L1620,540L1620,420Z" fill="#5291c6" stroke="#5291c6" stroke-width="1.51"/><path d="M1500,420L1500,540L1620,420Z" fill="#5995c9" stroke="#5995c9" stroke-width="1.51"/><path d="M1500,420L1620,420L1620,300Z" fill="#6499c9" stroke="#6499c9" stroke-width="1.51"/><path d="M1500,300L1500,420L1620,300Z" fill="#6b9dcc" stroke="#6b9dcc" stroke-width="1.51"/><path d="M1500,300L1620,300L1620,180Z" fill="#739ecd" stroke="#739ecd" stroke-width="1.51"/><path d="M1500,180L1500,300L1620,180Z" fill="#78a2d0" stroke="#78a2d0" stroke-width="1.51"/><path d="M1500,180L1620,180L1620,60Z" fill="#7fa4d1" stroke="#7fa4d1" stroke-width="1.51"/><path d="M1500,60L1500,180L1620,60Z" fill="#83a7d4" stroke="#83a7d4" stroke-width="1.51"/><path d="M1500,60L1620,60L1620,-60Z" fill="#88a8d4" stroke="#88a8d4" stroke-width="1.51"/><path d="M1500,-60L1500,60L1620,-60Z" fill="#8bacd6" stroke="#8bacd6" stroke-width="1.51"/><path d="M1500,-60L1620,-60L1620,-180Z" fill="#90acd6" stroke="#90acd6" stroke-width="1.51"/><path d="M1500,-180L1500,-60L1620,-180Z" fill="#93b0d9" stroke="#93b0d9" stroke-width="1.51"/><path d="M1380,1260L1500,1260L1500,1140Z" fill="#1e5e9f" stroke="#1e5e9f" stroke-width="1.51"/><path d="M1380,1140L1380,1260L1500,1140Z" fill="#2163a5" stroke="#2163a5" stroke-width="1.51"/><path d="M1380,1140L1500,1140L1500,1020Z" fill="#2168ad" stroke="#2168ad" stroke-width="1.51"/><path d="M1380,1020L1380,1140L1500,1020Z" fill="#256db0" stroke="#256db0" stroke-width="1.51"/><path d="M1380,1020L1500,1020L1500,900Z" fill="#2672b5" stroke="#2672b5" stroke-width="1.51"/><path d="M1380,900L1380,1020L1500,900Z" fill="#2a77b9" stroke="#2a77b9" stroke-width="1.51"/><path d="M1380,900L1500,900L1500,780Z" fill="#2f7cbb" stroke="#2f7cbb" stroke-width="1.51"/><path d="M1380,780L1380,900L1500,780Z" fill="#3481be" stroke="#3481be" stroke-width="1.51"/><path d="M1380,780L1500,780L1500,660Z" fill="#3886c1" stroke="#3886c1" stroke-width="1.51"/><path d="M1380,660L1380,780L1500,660Z" fill="#3f8bc3" stroke="#3f8bc3" stroke-width="1.51"/><path d="M1380,660L1500,660L1500,540Z" fill="#478fc5" stroke="#478fc5" stroke-width="1.51"/><path d="M1380,540L1380,660L1500,540Z" fill="#4d94c8" stroke="#4d94c8" stroke-width="1.51"/><path d="M1380,540L1500,540L1500,420Z" fill="#5697ca" stroke="#5697ca" stroke-width="1.51"/><path d="M1380,420L1380,540L1500,420Z" fill="#5e9ccc" stroke="#5e9ccc" stroke-width="1.51"/><path d="M1380,420L1500,420L1500,300Z" fill="#68a0cd" stroke="#68a0cd" stroke-width="1.51"/><path d="M1380,300L1380,420L1500,300Z" fill="#6fa4cf" stroke="#6fa4cf" stroke-width="1.51"/><path d="M1380,300L1500,300L1500,180Z" fill="#77a5d1" stroke="#77a5d1" stroke-width="1.51"/><path d="M1380,180L1380,300L1500,180Z" fill="#7da9d4" stroke="#7da9d4" stroke-width="1.51"/><path d="M1380,180L1500,180L1500,60Z" fill="#84abd5" stroke="#84abd5" stroke-width="1.51"/><path d="M1380,60L1380,180L1500,60Z" fill="#88aed7" stroke="#88aed7" stroke-width="1.51"/><path d="M1380,60L1500,60L1500,-60Z" fill="#8cafd8" stroke="#8cafd8" stroke-width="1.51"/><path d="M1380,-60L1380,60L1500,-60Z" fill="#90b3da" stroke="#90b3da" stroke-width="1.51"/><path d="M1380,-60L1500,-60L1500,-180Z" fill="#94b4da" stroke="#94b4da" stroke-width="1.51"/><path d="M1380,-180L1380,-60L1500,-180Z" fill="#98b8dc" stroke="#98b8dc" stroke-width="1.51"/><path d="M1260,1260L1380,1260L1380,1140Z" fill="#2664a2" stroke="#2664a2" stroke-width="1.51"/><path d="M1260,1140L1260,1260L1380,1140Z" fill="#296aa9" stroke="#296aa9" stroke-width="1.51"/><path d="M1260,1140L1380,1140L1380,1020Z" fill="#296eb0" stroke="#296eb0" stroke-width="1.51"/><path d="M1260,1020L1260,1140L1380,1020Z" fill="#2c74b4" stroke="#2c74b4" stroke-width="1.51"/><path d="M1260,1020L1380,1020L1380,900Z" fill="#2d79b8" stroke="#2d79b8" stroke-width="1.51"/><path d="M1260,900L1260,1020L1380,900Z" fill="#317ebc" stroke="#317ebc" stroke-width="1.51"/><path d="M1260,900L1380,900L1380,780Z" fill="#3583be" stroke="#3583be" stroke-width="1.51"/><path d="M1260,780L1260,900L1380,780Z" fill="#3a88c2" stroke="#3a88c2" stroke-width="1.51"/><path d="M1260,780L1380,780L1380,660Z" fill="#3e8dc3" stroke="#3e8dc3" stroke-width="1.51"/><path d="M1260,660L1260,780L1380,660Z" fill="#4492c7" stroke="#4492c7" stroke-width="1.51"/><path d="M1260,660L1380,660L1380,540Z" fill="#4c95c8" stroke="#4c95c8" stroke-width="1.51"/><path d="M1260,540L1260,660L1380,540Z" fill="#529bcb" stroke="#529bcb" stroke-width="1.51"/><path d="M1260,540L1380,540L1380,420Z" fill="#5b9ecd" stroke="#5b9ecd" stroke-width="1.51"/><path d="M1260,420L1260,540L1380,420Z" fill="#62a3d0" stroke="#62a3d0" stroke-width="1.51"/><path d="M1260,420L1380,420L1380,300Z" fill="#6ca6d0" stroke="#6ca6d0" stroke-width="1.51"/><path d="M1260,300L1260,420L1380,300Z" fill="#73abd3" stroke="#73abd3" stroke-width="1.51"/><path d="M1260,300L1380,300L1380,180Z" fill="#7cacd4" stroke="#7cacd4" stroke-width="1.51"/><path d="M1260,180L1260,300L1380,180Z" fill="#81b1d7" stroke="#81b1d7" stroke-width="1.51"/><path d="M1260,180L1380,180L1380,60Z" fill="#88b1d8" stroke="#88b1d8" stroke-width="1.51"/><path d="M1260,60L1260,180L1380,60Z" fill="#8cb6db" stroke="#8cb6db" stroke-width="1.51"/><path d="M1260,60L1380,60L1380,-60Z" fill="#90b6db" stroke="#90b6db" stroke-width="1.51"/><path d="M1260,-60L1260,60L1380,-60Z" fill="#94badd" stroke="#94badd" stroke-width="1.51"/><path d="M1260,-60L1380,-60L1380,-180Z" fill="#98bbdd" stroke="#98bbdd" stroke-width="1.51"/><path d="M1260,-180L1260,-60L1380,-180Z" fill="#9cbfe0" stroke="#9cbfe0" stroke-width="1.51"/><path d="M1140,1260L1260,1260L1260,1140Z" fill="#2e6aa6" stroke="#2e6aa6" stroke-width="1.51"/><path d="M1140,1140L1140,1260L1260,1140Z" fill="#326fac" stroke="#326fac" stroke-width="1.51"/><path d="M1140,1140L1260,1140L1260,1020Z" fill="#3175b3" stroke="#3175b3" stroke-width="1.51"/><path d="M1140,1020L1140,1140L1260,1020Z" fill="#3679b7" stroke="#3679b7" stroke-width="1.51"/><path d="M1140,1020L1260,1020L1260,900Z" fill="#357fbb" stroke="#357fbb" stroke-width="1.51"/><path d="M1140,900L1140,1020L1260,900Z" fill="#3a84bf" stroke="#3a84bf" stroke-width="1.51"/><path d="M1140,900L1260,900L1260,780Z" fill="#3c89c2" stroke="#3c89c2" stroke-width="1.51"/><path d="M1140,780L1140,900L1260,780Z" fill="#428ec5" stroke="#428ec5" stroke-width="1.51"/><path d="M1140,780L1260,780L1260,660Z" fill="#4593c7" stroke="#4593c7" stroke-width="1.51"/><path d="M1140,660L1140,780L1260,660Z" fill="#4c98ca" stroke="#4c98ca" stroke-width="1.51"/><path d="M1140,660L1260,660L1260,540Z" fill="#529ccb" stroke="#529ccb" stroke-width="1.51"/><path d="M1140,540L1140,660L1260,540Z" fill="#59a0ce" stroke="#59a0ce" stroke-width="1.51"/><path d="M1140,540L1260,540L1260,420Z" fill="#60a5d0" stroke="#60a5d0" stroke-width="1.51"/><path d="M1140,420L1140,540L1260,420Z" fill="#69a9d3" stroke="#69a9d3" stroke-width="1.51"/><path d="M1140,420L1260,420L1260,300Z" fill="#72add4" stroke="#72add4" stroke-width="1.51"/><path d="M1140,300L1140,420L1260,300Z" fill="#7ab1d6" stroke="#7ab1d6" stroke-width="1.51"/><path d="M1140,300L1260,300L1260,180Z" fill="#81b3d8" stroke="#81b3d8" stroke-width="1.51"/><path d="M1140,180L1140,300L1260,180Z" fill="#87b6da" stroke="#87b6da" stroke-width="1.51"/><path d="M1140,180L1260,180L1260,60Z" fill="#8db8dc" stroke="#8db8dc" stroke-width="1.51"/><path d="M1140,60L1140,180L1260,60Z" fill="#92bbde" stroke="#92bbde" stroke-width="1.51"/><path d="M1140,60L1260,60L1260,-60Z" fill="#95bdde" stroke="#95bdde" stroke-width="1.51"/><path d="M1140,-60L1140,60L1260,-60Z" fill="#9ac0e0" stroke="#9ac0e0" stroke-width="1.51"/><path d="M1140,-60L1260,-60L1260,-180Z" fill="#9dc1e1" stroke="#9dc1e1" stroke-width="1.51"/><path d="M1140,-180L1140,-60L1260,-180Z" fill="#a2c5e3" stroke="#a2c5e3" stroke-width="1.51"/><path d="M1020,1260L1140,1260L1140,1140Z" fill="#386fa9" stroke="#386fa9" stroke-width="1.51"/><path d="M1020,1140L1020,1260L1140,1140Z" fill="#3c74af" stroke="#3c74af" stroke-width="1.51"/><path d="M1020,1140L1140,1140L1140,1020Z" fill="#3b7ab7" stroke="#3b7ab7" stroke-width="1.51"/><path d="M1020,1020L1020,1140L1140,1020Z" fill="#3f7fba" stroke="#3f7fba" stroke-width="1.51"/><path d="M1020,1020L1140,1020L1140,900Z" fill="#3f84bf" stroke="#3f84bf" stroke-width="1.51"/><path d="M1020,900L1020,1020L1140,900Z" fill="#4489c3" stroke="#4489c3" stroke-width="1.51"/><path d="M1020,900L1140,900L1140,780Z" fill="#468fc5" stroke="#468fc5" stroke-width="1.51"/><path d="M1020,780L1020,900L1140,780Z" fill="#4b94c8" stroke="#4b94c8" stroke-width="1.51"/><path d="M1020,780L1140,780L1140,660Z" fill="#4e99cb" stroke="#4e99cb" stroke-width="1.51"/><path d="M1020,660L1020,780L1140,660Z" fill="#549ecd" stroke="#549ecd" stroke-width="1.51"/><path d="M1020,660L1140,660L1140,540Z" fill="#5aa1cf" stroke="#5aa1cf" stroke-width="1.51"/><path d="M1020,540L1020,660L1140,540Z" fill="#61a6d2" stroke="#61a6d2" stroke-width="1.51"/><path d="M1020,540L1140,540L1140,420Z" fill="#68aad4" stroke="#68aad4" stroke-width="1.51"/><path d="M1020,420L1020,540L1140,420Z" fill="#70afd6" stroke="#70afd6" stroke-width="1.51"/><path d="M1020,420L1140,420L1140,300Z" fill="#79b3d7" stroke="#79b3d7" stroke-width="1.51"/><path d="M1020,300L1020,420L1140,300Z" fill="#80b7d9" stroke="#80b7d9" stroke-width="1.51"/><path d="M1020,300L1140,300L1140,180Z" fill="#87b9db" stroke="#87b9db" stroke-width="1.51"/><path d="M1020,180L1020,300L1140,180Z" fill="#8ebdde" stroke="#8ebdde" stroke-width="1.51"/><path d="M1020,180L1140,180L1140,60Z" fill="#94bedf" stroke="#94bedf" stroke-width="1.51"/><path d="M1020,60L1020,180L1140,60Z" fill="#98c2e1" stroke="#98c2e1" stroke-width="1.51"/><path d="M1020,60L1140,60L1140,-60Z" fill="#9cc3e2" stroke="#9cc3e2" stroke-width="1.51"/><path d="M1020,-60L1020,60L1140,-60Z" fill="#a0c6e4" stroke="#a0c6e4" stroke-width="1.51"/><path d="M1020,-60L1140,-60L1140,-180Z" fill="#a4c7e4" stroke="#a4c7e4" stroke-width="1.51"/><path d="M1020,-180L1020,-60L1140,-180Z" fill="#a8cbe6" stroke="#a8cbe6" stroke-width="1.51"/><path d="M900,1260L1020,1260L1020,1140Z" fill="#4174ac" stroke="#4174ac" stroke-width="1.51"/><path d="M900,1140L900,1260L1020,1140Z" fill="#4679b2" stroke="#4679b2" stroke-width="1.51"/><path d="M900,1140L1020,1140L1020,1020Z" fill="#447fba" stroke="#447fba" stroke-width="1.51"/><path d="M900,1020L900,1140L1020,1020Z" fill="#4984bd" stroke="#4984bd" stroke-width="1.51"/><path d="M900,1020L1020,1020L1020,900Z" fill="#498ac2" stroke="#498ac2" stroke-width="1.51"/><path d="M900,900L900,1020L1020,900Z" fill="#4e8fc6" stroke="#4e8fc6" stroke-width="1.51"/><path d="M900,900L1020,900L1020,780Z" fill="#4f94c8" stroke="#4f94c8" stroke-width="1.51"/><path d="M900,780L900,900L1020,780Z" fill="#5599cb" stroke="#5599cb" stroke-width="1.51"/><path d="M900,780L1020,780L1020,660Z" fill="#569ece" stroke="#569ece" stroke-width="1.51"/><path d="M900,660L900,780L1020,660Z" fill="#5da3d0" stroke="#5da3d0" stroke-width="1.51"/><path d="M900,660L1020,660L1020,540Z" fill="#62a7d2" stroke="#62a7d2" stroke-width="1.51"/><path d="M900,540L900,660L1020,540Z" fill="#69acd5" stroke="#69acd5" stroke-width="1.51"/><path d="M900,540L1020,540L1020,420Z" fill="#70b0d7" stroke="#70b0d7" stroke-width="1.51"/><path d="M900,420L900,540L1020,420Z" fill="#78b4d9" stroke="#78b4d9" stroke-width="1.51"/><path d="M900,420L1020,420L1020,300Z" fill="#80b8da" stroke="#80b8da" stroke-width="1.51"/><path d="M900,300L900,420L1020,300Z" fill="#88bddc" stroke="#88bddc" stroke-width="1.51"/><path d="M900,300L1020,300L1020,180Z" fill="#8ebede" stroke="#8ebede" stroke-width="1.51"/><path d="M900,180L900,300L1020,180Z" fill="#95c2e1" stroke="#95c2e1" stroke-width="1.51"/><path d="M900,180L1020,180L1020,60Z" fill="#9bc4e2" stroke="#9bc4e2" stroke-width="1.51"/><path d="M900,60L900,180L1020,60Z" fill="#a0c7e4" stroke="#a0c7e4" stroke-width="1.51"/><path d="M900,60L1020,60L1020,-60Z" fill="#a2c9e5" stroke="#a2c9e5" stroke-width="1.51"/><path d="M900,-60L900,60L1020,-60Z" fill="#a8cce7" stroke="#a8cce7" stroke-width="1.51"/><path d="M900,-60L1020,-60L1020,-180Z" fill="#aacde7" stroke="#aacde7" stroke-width="1.51"/><path d="M900,-180L900,-60L1020,-180Z" fill="#afd1e9" stroke="#afd1e9" stroke-width="1.51"/><path d="M780,1260L900,1260L900,1140Z" fill="#4c79ae" stroke="#4c79ae" stroke-width="1.51"/><path d="M780,1140L780,1260L900,1140Z" fill="#527eb4" stroke="#527eb4" stroke-width="1.51"/><path d="M780,1140L900,1140L900,1020Z" fill="#5084bc" stroke="#5084bc" stroke-width="1.51"/><path d="M780,1020L780,1140L900,1020Z" fill="#5689bf" stroke="#5689bf" stroke-width="1.51"/><path d="M780,1020L900,1020L900,900Z" fill="#548fc5" stroke="#548fc5" stroke-width="1.51"/><path d="M780,900L780,1020L900,900Z" fill="#5a94c8" stroke="#5a94c8" stroke-width="1.51"/><path d="M780,900L900,900L900,780Z" fill="#5a99cb" stroke="#5a99cb" stroke-width="1.51"/><path d="M780,780L780,900L900,780Z" fill="#619ecd" stroke="#619ecd" stroke-width="1.51"/><path d="M780,780L900,780L900,660Z" fill="#61a4d0" stroke="#61a4d0" stroke-width="1.51"/><path d="M780,660L780,780L900,660Z" fill="#69a9d2" stroke="#69a9d2" stroke-width="1.51"/><path d="M780,660L900,660L900,540Z" fill="#6dacd5" stroke="#6dacd5" stroke-width="1.51"/><path d="M780,540L780,660L900,540Z" fill="#74b1d7" stroke="#74b1d7" stroke-width="1.51"/><path d="M780,540L900,540L900,420Z" fill="#7ab5d9" stroke="#7ab5d9" stroke-width="1.51"/><path d="M780,420L780,540L900,420Z" fill="#83badb" stroke="#83badb" stroke-width="1.51"/><path d="M780,420L900,420L900,300Z" fill="#89bedd" stroke="#89bedd" stroke-width="1.51"/><path d="M780,300L780,420L900,300Z" fill="#92c2de" stroke="#92c2de" stroke-width="1.51"/><path d="M780,300L900,300L900,180Z" fill="#97c4e1" stroke="#97c4e1" stroke-width="1.51"/><path d="M780,180L780,300L900,180Z" fill="#9fc8e3" stroke="#9fc8e3" stroke-width="1.51"/><path d="M780,180L900,180L900,60Z" fill="#a3c9e5" stroke="#a3c9e5" stroke-width="1.51"/><path d="M780,60L780,180L900,60Z" fill="#a9cde6" stroke="#a9cde6" stroke-width="1.51"/><path d="M780,60L900,60L900,-60Z" fill="#abcee7" stroke="#abcee7" stroke-width="1.51"/><path d="M780,-60L780,60L900,-60Z" fill="#b1d2e8" stroke="#b1d2e8" stroke-width="1.51"/><path d="M780,-60L900,-60L900,-180Z" fill="#b3d3ea" stroke="#b3d3ea" stroke-width="1.51"/><path d="M780,-180L780,-60L900,-180Z" fill="#b9d7eb" stroke="#b9d7eb" stroke-width="1.51"/><path d="M660,1260L780,1260L780,1140Z" fill="#577eb0" stroke="#577eb0" stroke-width="1.51"/><path d="M660,1140L660,1260L780,1140Z" fill="#5d83b7" stroke="#5d83b7" stroke-width="1.51"/><path d="M660,1140L780,1140L780,1020Z" fill="#5c89be" stroke="#5c89be" stroke-width="1.51"/><path d="M660,1020L660,1140L780,1020Z" fill="#618ec2" stroke="#618ec2" stroke-width="1.51"/><path d="M660,1020L780,1020L780,900Z" fill="#6094c7" stroke="#6094c7" stroke-width="1.51"/><path d="M660,900L660,1020L780,900Z" fill="#6699ca" stroke="#6699ca" stroke-width="1.51"/><path d="M660,900L780,900L780,780Z" fill="#669fcd" stroke="#669fcd" stroke-width="1.51"/><path d="M660,780L660,900L780,780Z" fill="#6ca4d0" stroke="#6ca4d0" stroke-width="1.51"/><path d="M660,780L780,780L780,660Z" fill="#6da9d2" stroke="#6da9d2" stroke-width="1.51"/><path d="M660,660L660,780L780,660Z" fill="#74aed5" stroke="#74aed5" stroke-width="1.51"/><path d="M660,660L780,660L780,540Z" fill="#77b2d7" stroke="#77b2d7" stroke-width="1.51"/><path d="M660,540L660,660L780,540Z" fill="#7fb7da" stroke="#7fb7da" stroke-width="1.51"/><path d="M660,540L780,540L780,420Z" fill="#84bbdb" stroke="#84bbdb" stroke-width="1.51"/><path d="M660,420L660,540L780,420Z" fill="#8dbfde" stroke="#8dbfde" stroke-width="1.51"/><path d="M660,420L780,420L780,300Z" fill="#93c3df" stroke="#93c3df" stroke-width="1.51"/><path d="M660,300L660,420L780,300Z" fill="#9cc8e1" stroke="#9cc8e1" stroke-width="1.51"/><path d="M660,300L780,300L780,180Z" fill="#a1c9e2" stroke="#a1c9e2" stroke-width="1.51"/><path d="M660,180L660,300L780,180Z" fill="#a8cde5" stroke="#a8cde5" stroke-width="1.51"/><path d="M660,180L780,180L780,60Z" fill="#adcfe6" stroke="#adcfe6" stroke-width="1.51"/><path d="M660,60L660,180L780,60Z" fill="#b2d2e8" stroke="#b2d2e8" stroke-width="1.51"/><path d="M660,60L780,60L780,-60Z" fill="#b4d4e9" stroke="#b4d4e9" stroke-width="1.51"/><path d="M660,-60L660,60L780,-60Z" fill="#bad7eb" stroke="#bad7eb" stroke-width="1.51"/><path d="M660,-60L780,-60L780,-180Z" fill="#bcd8eb" stroke="#bcd8eb" stroke-width="1.51"/><path d="M660,-180L660,-60L780,-180Z" fill="#c2dced" stroke="#c2dced" stroke-width="1.51"/><path d="M540,1260L660,1260L660,1140Z" fill="#6183b3" stroke="#6183b3" stroke-width="1.51"/><path d="M540,1140L540,1260L660,1140Z" fill="#6688b9" stroke="#6688b9" stroke-width="1.51"/><path d="M540,1140L660,1140L660,1020Z" fill="#668ec1" stroke="#668ec1" stroke-width="1.51"/><path d="M540,1020L540,1140L660,1020Z" fill="#6b93c5" stroke="#6b93c5" stroke-width="1.51"/><path d="M540,1020L660,1020L660,900Z" fill="#6a99c9" stroke="#6a99c9" stroke-width="1.51"/><path d="M540,900L540,1020L660,900Z" fill="#6f9dcd" stroke="#6f9dcd" stroke-width="1.51"/><path d="M540,900L660,900L660,780Z" fill="#70a3cf" stroke="#70a3cf" stroke-width="1.51"/><path d="M540,780L540,900L660,780Z" fill="#76a8d2" stroke="#76a8d2" stroke-width="1.51"/><path d="M540,780L660,780L660,660Z" fill="#77aed5" stroke="#77aed5" stroke-width="1.51"/><path d="M540,660L540,780L660,660Z" fill="#7db3d7" stroke="#7db3d7" stroke-width="1.51"/><path d="M540,660L660,660L660,540Z" fill="#81b7d9" stroke="#81b7d9" stroke-width="1.51"/><path d="M540,540L540,660L660,540Z" fill="#88bbdc" stroke="#88bbdc" stroke-width="1.51"/><path d="M540,540L660,540L660,420Z" fill="#8dc0de" stroke="#8dc0de" stroke-width="1.51"/><path d="M540,420L540,540L660,420Z" fill="#95c4e0" stroke="#95c4e0" stroke-width="1.51"/><path d="M540,420L660,420L660,300Z" fill="#9cc8e1" stroke="#9cc8e1" stroke-width="1.51"/><path d="M540,300L540,420L660,300Z" fill="#a4cce3" stroke="#a4cce3" stroke-width="1.51"/><path d="M540,300L660,300L660,180Z" fill="#aacfe5" stroke="#aacfe5" stroke-width="1.51"/><path d="M540,180L540,300L660,180Z" fill="#b1d2e7" stroke="#b1d2e7" stroke-width="1.51"/><path d="M540,180L660,180L660,60Z" fill="#b5d4e9" stroke="#b5d4e9" stroke-width="1.51"/><path d="M540,60L540,180L660,60Z" fill="#bbd7eb" stroke="#bbd7eb" stroke-width="1.51"/><path d="M540,60L660,60L660,-60Z" fill="#bdd9eb" stroke="#bdd9eb" stroke-width="1.51"/><path d="M540,-60L540,60L660,-60Z" fill="#c2dced" stroke="#c2dced" stroke-width="1.51"/><path d="M540,-60L660,-60L660,-180Z" fill="#c4ddee" stroke="#c4ddee" stroke-width="1.51"/><path d="M540,-180L540,-60L660,-180Z" fill="#cae1f0" stroke="#cae1f0" stroke-width="1.51"/><path d="M420,1260L540,1260L540,1140Z" fill="#6a86b5" stroke="#6a86b5" stroke-width="1.51"/><path d="M420,1140L420,1260L540,1140Z" fill="#6e8abc" stroke="#6e8abc" stroke-width="1.51"/><path d="M420,1140L540,1140L540,1020Z" fill="#6f91c3" stroke="#6f91c3" stroke-width="1.51"/><path d="M420,1020L420,1140L540,1020Z" fill="#7395c7" stroke="#7395c7" stroke-width="1.51"/><path d="M420,1020L540,1020L540,900Z" fill="#749ccc" stroke="#749ccc" stroke-width="1.51"/><path d="M420,900L420,1020L540,900Z" fill="#78a0cf" stroke="#78a0cf" stroke-width="1.51"/><path d="M420,900L540,900L540,780Z" fill="#7aa7d2" stroke="#7aa7d2" stroke-width="1.51"/><path d="M420,780L420,900L540,780Z" fill="#7eabd5" stroke="#7eabd5" stroke-width="1.51"/><path d="M420,780L540,780L540,660Z" fill="#80b1d7" stroke="#80b1d7" stroke-width="1.51"/><path d="M420,660L420,780L540,660Z" fill="#86b5da" stroke="#86b5da" stroke-width="1.51"/><path d="M420,660L540,660L540,540Z" fill="#8abadc" stroke="#8abadc" stroke-width="1.51"/><path d="M420,540L420,660L540,540Z" fill="#90bedf" stroke="#90bedf" stroke-width="1.51"/><path d="M420,540L540,540L540,420Z" fill="#96c3e0" stroke="#96c3e0" stroke-width="1.51"/><path d="M420,420L420,540L540,420Z" fill="#9ec7e3" stroke="#9ec7e3" stroke-width="1.51"/><path d="M420,420L540,420L540,300Z" fill="#a5cce3" stroke="#a5cce3" stroke-width="1.51"/><path d="M420,300L420,420L540,300Z" fill="#accfe5" stroke="#accfe5" stroke-width="1.51"/><path d="M420,300L540,300L540,180Z" fill="#b2d2e8" stroke="#b2d2e8" stroke-width="1.51"/><path d="M420,180L420,300L540,180Z" fill="#b9d5ea" stroke="#b9d5ea" stroke-width="1.51"/><path d="M420,180L540,180L540,60Z" fill="#bed7eb" stroke="#bed7eb" stroke-width="1.51"/><path d="M420,60L420,180L540,60Z" fill="#c3daed" stroke="#c3daed" stroke-width="1.51"/><path d="M420,60L540,60L540,-60Z" fill="#c5dcee" stroke="#c5dcee" stroke-width="1.51"/><path d="M420,-60L420,60L540,-60Z" fill="#cadff0" stroke="#cadff0" stroke-width="1.51"/><path d="M420,-60L540,-60L540,-180Z" fill="#cde1f0" stroke="#cde1f0" stroke-width="1.51"/><path d="M420,-180L420,-60L540,-180Z" fill="#d2e4f2" stroke="#d2e4f2" stroke-width="1.51"/><path d="M300,1260L420,1260L420,1140Z" fill="#7289b8" stroke="#7289b8" stroke-width="1.51"/><path d="M300,1140L300,1260L420,1140Z" fill="#768dbf" stroke="#768dbf" stroke-width="1.51"/><path d="M300,1140L420,1140L420,1020Z" fill="#7794c6" stroke="#7794c6" stroke-width="1.51"/><path d="M300,1020L300,1140L420,1020Z" fill="#7b99ca" stroke="#7b99ca" stroke-width="1.51"/><path d="M300,1020L420,1020L420,900Z" fill="#7c9fcf" stroke="#7c9fcf" stroke-width="1.51"/><path d="M300,900L300,1020L420,900Z" fill="#80a4d2" stroke="#80a4d2" stroke-width="1.51"/><path d="M300,900L420,900L420,780Z" fill="#82aad5" stroke="#82aad5" stroke-width="1.51"/><path d="M300,780L300,900L420,780Z" fill="#87aed8" stroke="#87aed8" stroke-width="1.51"/><path d="M300,780L420,780L420,660Z" fill="#88b5da" stroke="#88b5da" stroke-width="1.51"/><path d="M300,660L300,780L420,660Z" fill="#8eb9dd" stroke="#8eb9dd" stroke-width="1.51"/><path d="M300,660L420,660L420,540Z" fill="#92bedf" stroke="#92bedf" stroke-width="1.51"/><path d="M300,540L300,660L420,540Z" fill="#98c2e2" stroke="#98c2e2" stroke-width="1.51"/><path d="M300,540L420,540L420,420Z" fill="#9ec7e3" stroke="#9ec7e3" stroke-width="1.51"/><path d="M300,420L300,540L420,420Z" fill="#a6cae5" stroke="#a6cae5" stroke-width="1.51"/><path d="M300,420L420,420L420,300Z" fill="#accfe6" stroke="#accfe6" stroke-width="1.51"/><path d="M300,300L300,420L420,300Z" fill="#b4d3e8" stroke="#b4d3e8" stroke-width="1.51"/><path d="M300,300L420,300L420,180Z" fill="#bad5ea" stroke="#bad5ea" stroke-width="1.51"/><path d="M300,180L300,300L420,180Z" fill="#c0d8ed" stroke="#c0d8ed" stroke-width="1.51"/><path d="M300,180L420,180L420,60Z" fill="#c5dbef" stroke="#c5dbef" stroke-width="1.51"/><path d="M300,60L300,180L420,60Z" fill="#caddf1" stroke="#caddf1" stroke-width="1.51"/><path d="M300,60L420,60L420,-60Z" fill="#cde0f1" stroke="#cde0f1" stroke-width="1.51"/><path d="M300,-60L300,60L420,-60Z" fill="#d2e2f3" stroke="#d2e2f3" stroke-width="1.51"/><path d="M300,-60L420,-60L420,-180Z" fill="#d4e4f4" stroke="#d4e4f4" stroke-width="1.51"/><path d="M300,-180L300,-60L420,-180Z" fill="#d9e7f6" stroke="#d9e7f6" stroke-width="1.51"/><path d="M180,1260L300,1260L300,1140Z" fill="#778cba" stroke="#778cba" stroke-width="1.51"/><path d="M180,1140L180,1260L300,1140Z" fill="#7b90c0" stroke="#7b90c0" stroke-width="1.51"/><path d="M180,1140L300,1140L300,1020Z" fill="#7d97c8" stroke="#7d97c8" stroke-width="1.51"/><path d="M180,1020L180,1140L300,1020Z" fill="#809bcb" stroke="#809bcb" stroke-width="1.51"/><path d="M180,1020L300,1020L300,900Z" fill="#82a2d1" stroke="#82a2d1" stroke-width="1.51"/><path d="M180,900L180,1020L300,900Z" fill="#85a6d4" stroke="#85a6d4" stroke-width="1.51"/><path d="M180,900L300,900L300,780Z" fill="#88add7" stroke="#88add7" stroke-width="1.51"/><path d="M180,780L180,900L300,780Z" fill="#8bb1d9" stroke="#8bb1d9" stroke-width="1.51"/><path d="M180,780L300,780L300,660Z" fill="#8eb8dc" stroke="#8eb8dc" stroke-width="1.51"/><path d="M180,660L180,780L300,660Z" fill="#93bcde" stroke="#93bcde" stroke-width="1.51"/><path d="M180,660L300,660L300,540Z" fill="#98c1e1" stroke="#98c1e1" stroke-width="1.51"/><path d="M180,540L180,660L300,540Z" fill="#9dc5e3" stroke="#9dc5e3" stroke-width="1.51"/><path d="M180,540L300,540L300,420Z" fill="#a4cae5" stroke="#a4cae5" stroke-width="1.51"/><path d="M180,420L180,540L300,420Z" fill="#aacde7" stroke="#aacde7" stroke-width="1.51"/><path d="M180,420L300,420L300,300Z" fill="#b2d2e8" stroke="#b2d2e8" stroke-width="1.51"/><path d="M180,300L180,420L300,300Z" fill="#b8d6ea" stroke="#b8d6ea" stroke-width="1.51"/><path d="M180,300L300,300L300,180Z" fill="#bfd8ec" stroke="#bfd8ec" stroke-width="1.51"/><path d="M180,180L180,300L300,180Z" fill="#c5dbee" stroke="#c5dbee" stroke-width="1.51"/><path d="M180,180L300,180L300,60Z" fill="#cbdef0" stroke="#cbdef0" stroke-width="1.51"/><path d="M180,60L180,180L300,60Z" fill="#cfe0f2" stroke="#cfe0f2" stroke-width="1.51"/><path d="M180,60L300,60L300,-60Z" fill="#d2e3f3" stroke="#d2e3f3" stroke-width="1.51"/><path d="M180,-60L180,60L300,-60Z" fill="#d6e5f5" stroke="#d6e5f5" stroke-width="1.51"/><path d="M180,-60L300,-60L300,-180Z" fill="#dae7f6" stroke="#dae7f6" stroke-width="1.51"/><path d="M180,-180L180,-60L300,-180Z" fill="#deeaf7" stroke="#deeaf7" stroke-width="1.51"/><path d="M60,1260L180,1260L180,1140Z" fill="#7d8fbc" stroke="#7d8fbc" stroke-width="1.51"/><path d="M60,1140L60,1260L180,1140Z" fill="#8093c2" stroke="#8093c2" stroke-width="1.51"/><path d="M60,1140L180,1140L180,1020Z" fill="#829aca" stroke="#829aca" stroke-width="1.51"/><path d="M60,1020L60,1140L180,1020Z" fill="#869fcd" stroke="#869fcd" stroke-width="1.51"/><path d="M60,1020L180,1020L180,900Z" fill="#87a5d2" stroke="#87a5d2" stroke-width="1.51"/><path d="M60,900L60,1020L180,900Z" fill="#8aaad5" stroke="#8aaad5" stroke-width="1.51"/><path d="M60,900L180,900L180,780Z" fill="#8db0d8" stroke="#8db0d8" stroke-width="1.51"/><path d="M60,780L60,900L180,780Z" fill="#91b4db" stroke="#91b4db" stroke-width="1.51"/><path d="M60,780L180,780L180,660Z" fill="#94bbde" stroke="#94bbde" stroke-width="1.51"/><path d="M60,660L60,780L180,660Z" fill="#99bfe0" stroke="#99bfe0" stroke-width="1.51"/><path d="M60,660L180,660L180,540Z" fill="#9ec4e2" stroke="#9ec4e2" stroke-width="1.51"/><path d="M60,540L60,660L180,540Z" fill="#a3c8e5" stroke="#a3c8e5" stroke-width="1.51"/><path d="M60,540L180,540L180,420Z" fill="#a9cde7" stroke="#a9cde7" stroke-width="1.51"/><path d="M60,420L60,540L180,420Z" fill="#afd1e9" stroke="#afd1e9" stroke-width="1.51"/><path d="M60,420L180,420L180,300Z" fill="#b7d6ea" stroke="#b7d6ea" stroke-width="1.51"/><path d="M60,300L60,420L180,300Z" fill="#bdd9eb" stroke="#bdd9eb" stroke-width="1.51"/><path d="M60,300L180,300L180,180Z" fill="#c4dcee" stroke="#c4dcee" stroke-width="1.51"/><path d="M60,180L60,300L180,180Z" fill="#cadff0" stroke="#cadff0" stroke-width="1.51"/><path d="M60,180L180,180L180,60Z" fill="#d0e1f2" stroke="#d0e1f2" stroke-width="1.51"/><path d="M60,60L60,180L180,60Z" fill="#d4e4f4" stroke="#d4e4f4" stroke-width="1.51"/><path d="M60,60L180,60L180,-60Z" fill="#d7e6f4" stroke="#d7e6f4" stroke-width="1.51"/><path d="M60,-60L60,60L180,-60Z" fill="#dbe9f6" stroke="#dbe9f6" stroke-width="1.51"/><path d="M60,-60L180,-60L180,-180Z" fill="#dfebf7" stroke="#dfebf7" stroke-width="1.51"/><path d="M60,-180L60,-60L180,-180Z" fill="#e3eef9" stroke="#e3eef9" stroke-width="1.51"/><path d="M-60,1260L60,1260L60,1140Z" fill="#8192bd" stroke="#8192bd" stroke-width="1.51"/><path d="M-60,1140L-60,1260L60,1140Z" fill="#8596c3" stroke="#8596c3" stroke-width="1.51"/><path d="M-60,1140L60,1140L60,1020Z" fill="#879dcb" stroke="#879dcb" stroke-width="1.51"/><path d="M-60,1020L-60,1140L60,1020Z" fill="#8ba1ce" stroke="#8ba1ce" stroke-width="1.51"/><path d="M-60,1020L60,1020L60,900Z" fill="#8ca8d4" stroke="#8ca8d4" stroke-width="1.51"/><path d="M-60,900L-60,1020L60,900Z" fill="#90acd7" stroke="#90acd7" stroke-width="1.51"/><path d="M-60,900L60,900L60,780Z" fill="#92b3da" stroke="#92b3da" stroke-width="1.51"/><path d="M-60,780L-60,900L60,780Z" fill="#96b7dc" stroke="#96b7dc" stroke-width="1.51"/><path d="M-60,780L60,780L60,660Z" fill="#99bedf" stroke="#99bedf" stroke-width="1.51"/><path d="M-60,660L-60,780L60,660Z" fill="#9ec2e1" stroke="#9ec2e1" stroke-width="1.51"/><path d="M-60,660L60,660L60,540Z" fill="#a2c7e4" stroke="#a2c7e4" stroke-width="1.51"/><path d="M-60,540L-60,660L60,540Z" fill="#a8cbe6" stroke="#a8cbe6" stroke-width="1.51"/><path d="M-60,540L60,540L60,420Z" fill="#aed0e8" stroke="#aed0e8" stroke-width="1.51"/><path d="M-60,420L-60,540L60,420Z" fill="#b5d4ea" stroke="#b5d4ea" stroke-width="1.51"/><path d="M-60,420L60,420L60,300Z" fill="#bcd9eb" stroke="#bcd9eb" stroke-width="1.51"/><path d="M-60,300L-60,420L60,300Z" fill="#c3dced" stroke="#c3dced" stroke-width="1.51"/><path d="M-60,300L60,300L60,180Z" fill="#c9dfef" stroke="#c9dfef" stroke-width="1.51"/><path d="M-60,180L-60,300L60,180Z" fill="#cfe2f1" stroke="#cfe2f1" stroke-width="1.51"/><path d="M-60,180L60,180L60,60Z" fill="#d4e4f4" stroke="#d4e4f4" stroke-width="1.51"/><path d="M-60,60L-60,180L60,60Z" fill="#d9e7f5" stroke="#d9e7f5" stroke-width="1.51"/><path d="M-60,60L60,60L60,-60Z" fill="#dce9f6" stroke="#dce9f6" stroke-width="1.51"/><path d="M-60,-60L-60,60L60,-60Z" fill="#e0ecf8" stroke="#e0ecf8" stroke-width="1.51"/><path d="M-60,-60L60,-60L60,-180Z" fill="#e3eef9" stroke="#e3eef9" stroke-width="1.51"/><path d="M-60,-180L-60,-60L60,-180Z" fill="#e8f1fa" stroke="#e8f1fa" stroke-width="1.51"/><path d="M-180,1260L-60,1260L-60,1140Z" fill="#8695bf" stroke="#8695bf" stroke-width="1.51"/><path d="M-180,1140L-180,1260L-60,1140Z" fill="#8b99c5" stroke="#8b99c5" stroke-width="1.51"/><path d="M-180,1140L-60,1140L-60,1020Z" fill="#8ca0cd" stroke="#8ca0cd" stroke-width="1.51"/><path d="M-180,1020L-180,1140L-60,1020Z" fill="#90a5d0" stroke="#90a5d0" stroke-width="1.51"/><path d="M-180,1020L-60,1020L-60,900Z" fill="#91abd5" stroke="#91abd5" stroke-width="1.51"/><path d="M-180,900L-180,1020L-60,900Z" fill="#95b0d8" stroke="#95b0d8" stroke-width="1.51"/><path d="M-180,900L-60,900L-60,780Z" fill="#97b6db" stroke="#97b6db" stroke-width="1.51"/><path d="M-180,780L-180,900L-60,780Z" fill="#9cbbde" stroke="#9cbbde" stroke-width="1.51"/><path d="M-180,780L-60,780L-60,660Z" fill="#9ec1e1" stroke="#9ec1e1" stroke-width="1.51"/><path d="M-180,660L-180,780L-60,660Z" fill="#a3c5e3" stroke="#a3c5e3" stroke-width="1.51"/><path d="M-180,660L-60,660L-60,540Z" fill="#a8cae5" stroke="#a8cae5" stroke-width="1.51"/><path d="M-180,540L-180,660L-60,540Z" fill="#adcee8" stroke="#adcee8" stroke-width="1.51"/><path d="M-180,540L-60,540L-60,420Z" fill="#b3d4ea" stroke="#b3d4ea" stroke-width="1.51"/><path d="M-180,420L-180,540L-60,420Z" fill="#bad7ec" stroke="#bad7ec" stroke-width="1.51"/><path d="M-180,420L-60,420L-60,300Z" fill="#c1dced" stroke="#c1dced" stroke-width="1.51"/><path d="M-180,300L-180,420L-60,300Z" fill="#c8e0ee" stroke="#c8e0ee" stroke-width="1.51"/><path d="M-180,300L-60,300L-60,180Z" fill="#cee2f1" stroke="#cee2f1" stroke-width="1.51"/><path d="M-180,180L-180,300L-60,180Z" fill="#d4e5f3" stroke="#d4e5f3" stroke-width="1.51"/><path d="M-180,180L-60,180L-60,60Z" fill="#d9e8f5" stroke="#d9e8f5" stroke-width="1.51"/><path d="M-180,60L-180,180L-60,60Z" fill="#deeaf7" stroke="#deeaf7" stroke-width="1.51"/><path d="M-180,60L-60,60L-60,-60Z" fill="#e1edf8" stroke="#e1edf8" stroke-width="1.51"/><path d="M-180,-60L-180,60L-60,-60Z" fill="#e5eff9" stroke="#e5eff9" stroke-width="1.51"/><path d="M-180,-60L-60,-60L-60,-180Z" fill="#e8f1fa" stroke="#e8f1fa" stroke-width="1.51"/><path d="M-180,-180L-180,-60L-60,-180Z" fill="#edf4fc" stroke="#edf4fc" stroke-width="1.51"/></svg>