<svg xmlns="http://www.w3.org/2000/svg" width="1920" height="1080"><path d="M1980,1260L2100,1260L2100,1140Z" fill="#015544" stroke="#015544" stroke-width="1.51"/><path d="M1980,1140L1980,1260L2100,1140Z" fill="#015c4a" stroke="#015c4a" stroke-width="1.51"/><path d="M1980,1140L2100,1140L2100,1020Z" fill="#026050" stroke="#026050" stroke-width="1.51"/><path d="M1980,1020L1980,1140L2100,1020Z" fill="#036557" stroke="#036557" stroke-width="1.51"/><path d="M1980,1020L2100,1020L2100,900Z" fill="#04675e" stroke="#04675e" stroke-width="1.51"/><path d="M1980,900L1980,1020L2100,900Z" fill="#046b66" stroke="#046b66" stroke-width="1.51"/><path d="M1980,900L2100,900L2100,780Z" fill="#126b6e" stroke="#126b6e" stroke-width="1.51"/><path d="M1980,780L1980,900L2100,780Z" fill="#187075" stroke="#187075" stroke-width="1.51"/><path d="M1980,780L2100,780L2100,660Z" fill="#21707e" stroke="#21707e" stroke-width="1.51"/><path d="M1980,660L1980,780L2100,660Z" fill="#277582" stroke="#277582" stroke-width="1.51"/><path d="M1980,660L2100,660L2100,540Z" fill="#317882" stroke="#317882" stroke-width="1.51"/><path d="M1980,540L1980,660L2100,540Z" fill="#367d86" stroke="#367d86" stroke-width="1.51"/><path d="M1980,540L2100,540L2100,420Z" fill="#417e86" stroke="#417e86" stroke-width="1.51"/><path d="M1980,420L1980,540L2100,420Z" fill="#49838a" stroke="#49838a" stroke-width="1.51"/><path d="M1980,420L2100,420L2100,300Z" fill="#558489" stroke="#558489" stroke-width="1.51"/><path d="M1980,300L1980,420L2100,300Z" fill="#5c8a8d" stroke="#5c8a8d" stroke-width="1.51"/><path d="M1980,300L2100,300L2100,180Z" fill="#648b8c" stroke="#648b8c" stroke-width="1.51"/><path d="M1980,180L1980,300L2100,180Z" fill="#698f90" stroke="#698f90" stroke-width="1.51"/><path d="M1980,180L2100,180L2100,60Z" fill="#709090" stroke="#709090" stroke-width="1.51"/><path d="M1980,60L1980,180L2100,60Z" fill="#749593" stroke="#749593" stroke-width="1.51"/><path d="M1980,60L2100,60L2100,-60Z" fill="#799592" stroke="#799592" stroke-width="1.51"/><path d="M1980,-60L1980,60L2100,-60Z" fill="#7d9a96" stroke="#7d9a96" stroke-width="1.51"/><path d="M1980,-60L2100,-60L2100,-180Z" fill="#7f9b95" stroke="#7f9b95" stroke-width="1.51"/><path d="M1980,-180L1980,-60L2100,-180Z" fill="#839f99" stroke="#839f99" stroke-width="1.51"/><path d="M1860,1260L1980,1260L1980,1140Z" fill="#015d4b" stroke="#015d4b" stroke-width="1.51"/><path d="M1860,1140L1860,1260L1980,1140Z" fill="#016451" stroke="#016451" stroke-width="1.51"/><path d="M1860,1140L1980,1140L1980,1020Z" fill="#026857" stroke="#026857" stroke-width="1.51"/><path d="M1860,1020L1860,1140L1980,1020Z" fill="#036d5e" stroke="#036d5e" stroke-width="1.51"/><path d="M1860,1020L1980,1020L1980,900Z" fill="#046f66" stroke="#046f66" stroke-width="1.51"/><path d="M1860,900L1860,1020L1980,900Z" fill="#05736d" stroke="#05736d" stroke-width="1.51"/><path d="M1860,900L1980,900L1980,780Z" fill="#147475" stroke="#147475" stroke-width="1.51"/><path d="M1860,780L1860,900L1980,780Z" fill="#1a787d" stroke="#1a787d" stroke-width="1.51"/><path d="M1860,780L1980,780L1980,660Z" fill="#237985" stroke="#237985" stroke-width="1.51"/><path d="M1860,660L1860,780L1980,660Z" fill="#2a7d8a" stroke="#2a7d8a" stroke-width="1.51"/><path d="M1860,660L1980,660L1980,540Z" fill="#33808a" stroke="#33808a" stroke-width="1.51"/><path d="M1860,540L1860,660L1980,540Z" fill="#38858e" stroke="#38858e" stroke-width="1.51"/><path d="M1860,540L1980,540L1980,420Z" fill="#44878e" stroke="#44878e" stroke-width="1.51"/><path d="M1860,420L1860,540L1980,420Z" fill="#4d8c92" stroke="#4d8c92" stroke-width="1.51"/><path d="M1860,420L1980,420L1980,300Z" fill="#598d91" stroke="#598d91" stroke-width="1.51"/><path d="M1860,300L1860,420L1980,300Z" fill="#609295" stroke="#609295" stroke-width="1.51"/><path d="M1860,300L1980,300L1980,180Z" fill="#689394" stroke="#689394" stroke-width="1.51"/><path d="M1860,180L1860,300L1980,180Z" fill="#6d9898" stroke="#6d9898" stroke-width="1.51"/><path d="M1860,180L1980,180L1980,60Z" fill="#749998" stroke="#749998" stroke-width="1.51"/><path d="M1860,60L1860,180L1980,60Z" fill="#789d9b" stroke="#789d9b" stroke-width="1.51"/><path d="M1860,60L1980,60L1980,-60Z" fill="#7d9e9a" stroke="#7d9e9a" stroke-width="1.51"/><path d="M1860,-60L1860,60L1980,-60Z" fill="#81a39e" stroke="#81a39e" stroke-width="1.51"/><path d="M1860,-60L1980,-60L1980,-180Z" fill="#84a49d" stroke="#84a49d" stroke-width="1.51"/><path d="M1860,-180L1860,-60L1980,-180Z" fill="#87a8a1" stroke="#87a8a1" stroke-width="1.51"/><path d="M1740,1260L1860,1260L1860,1140Z" fill="#026453" stroke="#026453" stroke-width="1.51"/><path d="M1740,1140L1740,1260L1860,1140Z" fill="#03695a" stroke="#03695a" stroke-width="1.51"/><path d="M1740,1140L1860,1140L1860,1020Z" fill="#026f5f" stroke="#026f5f" stroke-width="1.51"/><path d="M1740,1020L1740,1140L1860,1020Z" fill="#047267" stroke="#047267" stroke-width="1.51"/><path d="M1740,1020L1860,1020L1860,900Z" fill="#05756e" stroke="#05756e" stroke-width="1.51"/><path d="M1740,900L1740,1020L1860,900Z" fill="#057976" stroke="#057976" stroke-width="1.51"/><path d="M1740,900L1860,900L1860,780Z" fill="#157a7e" stroke="#157a7e" stroke-width="1.51"/><path d="M1740,780L1740,900L1860,780Z" fill="#1a7e86" stroke="#1a7e86" stroke-width="1.51"/><path d="M1740,780L1860,780L1860,660Z" fill="#247f8e" stroke="#247f8e" stroke-width="1.51"/><path d="M1740,660L1740,780L1860,660Z" fill="#2b8393" stroke="#2b8393" stroke-width="1.51"/><path d="M1740,660L1860,660L1860,540Z" fill="#358793" stroke="#358793" stroke-width="1.51"/><path d="M1740,540L1740,660L1860,540Z" fill="#3a8b98" stroke="#3a8b98" stroke-width="1.51"/><path d="M1740,540L1860,540L1860,420Z" fill="#468e96" stroke="#468e96" stroke-width="1.51"/><path d="M1740,420L1740,540L1860,420Z" fill="#4f919b" stroke="#4f919b" stroke-width="1.51"/><path d="M1740,420L1860,420L1860,300Z" fill="#5c949a" stroke="#5c949a" stroke-width="1.51"/><path d="M1740,300L1740,420L1860,300Z" fill="#63989f" stroke="#63989f" stroke-width="1.51"/><path d="M1740,300L1860,300L1860,180Z" fill="#6b9a9d" stroke="#6b9a9d" stroke-width="1.51"/><path d="M1740,180L1740,300L1860,180Z" fill="#719ea2" stroke="#719ea2" stroke-width="1.51"/><path d="M1740,180L1860,180L1860,60Z" fill="#78a0a0" stroke="#78a0a0" stroke-width="1.51"/><path d="M1740,60L1740,180L1860,60Z" fill="#7ca3a5" stroke="#7ca3a5" stroke-width="1.51"/><path d="M1740,60L1860,60L1860,-60Z" fill="#81a5a3" stroke="#81a5a3" stroke-width="1.51"/><path d="M1740,-60L1740,60L1860,-60Z" fill="#84a9a8" stroke="#84a9a8" stroke-width="1.51"/><path d="M1740,-60L1860,-60L1860,-180Z" fill="#88aba6" stroke="#88aba6" stroke-width="1.51"/><path d="M1740,-180L1740,-60L1860,-180Z" fill="#8baeab" stroke="#8baeab" stroke-width="1.51"/><path d="M1620,1260L1740,1260L1740,1140Z" fill="#04685d" stroke="#04685d" stroke-width="1.51"/><path d="M1620,1140L1620,1260L1740,1140Z" fill="#046d64" stroke="#046d64" stroke-width="1.51"/><path d="M1620,1140L1740,1140L1740,1020Z" fill="#047369" stroke="#047369" stroke-width="1.51"/><path d="M1620,1020L1620,1140L1740,1020Z" fill="#057671" stroke="#057671" stroke-width="1.51"/><path d="M1620,1020L1740,1020L1740,900Z" fill="#057978" stroke="#057978" stroke-width="1.51"/><path d="M1620,900L1620,1020L1740,900Z" fill="#047d80" stroke="#047d80" stroke-width="1.51"/><path d="M1620,900L1740,900L1740,780Z" fill="#147e88" stroke="#147e88" stroke-width="1.51"/><path d="M1620,780L1620,900L1740,780Z" fill="#1a8290" stroke="#1a8290" stroke-width="1.51"/><path d="M1620,780L1740,780L1740,660Z" fill="#248498" stroke="#248498" stroke-width="1.51"/><path d="M1620,660L1620,780L1740,660Z" fill="#2b879d" stroke="#2b879d" stroke-width="1.51"/><path d="M1620,660L1740,660L1740,540Z" fill="#368b9d" stroke="#368b9d" stroke-width="1.51"/><path d="M1620,540L1620,660L1740,540Z" fill="#3b8fa2" stroke="#3b8fa2" stroke-width="1.51"/><path d="M1620,540L1740,540L1740,420Z" fill="#4892a1" stroke="#4892a1" stroke-width="1.51"/><path d="M1620,420L1620,540L1740,420Z" fill="#5195a5" stroke="#5195a5" stroke-width="1.51"/><path d="M1620,420L1740,420L1740,300Z" fill="#5e98a5" stroke="#5e98a5" stroke-width="1.51"/><path d="M1620,300L1620,420L1740,300Z" fill="#659ca9" stroke="#659ca9" stroke-width="1.51"/><path d="M1620,300L1740,300L1740,180Z" fill="#6e9ea8" stroke="#6e9ea8" stroke-width="1.51"/><path d="M1620,180L1620,300L1740,180Z" fill="#73a2ac" stroke="#73a2ac" stroke-width="1.51"/><path d="M1620,180L1740,180L1740,60Z" fill="#7ba4ab" stroke="#7ba4ab" stroke-width="1.51"/><path d="M1620,60L1620,180L1740,60Z" fill="#7fa7af" stroke="#7fa7af" stroke-width="1.51"/><path d="M1620,60L1740,60L1740,-60Z" fill="#84a9ae" stroke="#84a9ae" stroke-width="1.51"/><path d="M1620,-60L1620,60L1740,-60Z" fill="#88adb2" stroke="#88adb2" stroke-width="1.51"/><path d="M1620,-60L1740,-60L1740,-180Z" fill="#8bafb1" stroke="#8bafb1" stroke-width="1.51"/><path d="M1620,-180L1620,-60L1740,-180Z" fill="#8eb2b5" stroke="#8eb2b5" stroke-width="1.51"/><path d="M1500,1260L1620,1260L1620,1140Z" fill="#046c67" stroke="#046c67" stroke-width="1.51"/><path d="M1500,1140L1500,1260L1620,1140Z" fill="#08716e" stroke="#08716e" stroke-width="1.51"/><path d="M1500,1140L1620,1140L1620,1020Z" fill="#057773" stroke="#057773" stroke-width="1.51"/><path d="M1500,1020L1500,1140L1620,1020Z" fill="#087a7b" stroke="#087a7b" stroke-width="1.51"/><path d="M1500,1020L1620,1020L1620,900Z" fill="#047e82" stroke="#047e82" stroke-width="1.51"/><path d="M1500,900L1500,1020L1620,900Z" fill="#06818a" stroke="#06818a" stroke-width="1.51"/><path d="M1500,900L1620,900L1620,780Z" fill="#138392" stroke="#138392" stroke-width="1.51"/><path d="M1500,780L1500,900L1620,780Z" fill="#1b869b" stroke="#1b869b" stroke-width="1.51"/><path d="M1500,780L1620,780L1620,660Z" fill="#2388a3" stroke="#2388a3" stroke-width="1.51"/><path d="M1500,660L1500,780L1620,660Z" fill="#2c8ba8" stroke="#2c8ba8" stroke-width="1.51"/><path d="M1500,660L1620,660L1620,540Z" fill="#3690a7" stroke="#3690a7" stroke-width="1.51"/><path d="M1500,540L1500,660L1620,540Z" fill="#3d93ad" stroke="#3d93ad" stroke-width="1.51"/><path d="M1500,540L1620,540L1620,420Z" fill="#4996ab" stroke="#4996ab" stroke-width="1.51"/><path d="M1500,420L1500,540L1620,420Z" fill="#5399b0" stroke="#5399b0" stroke-width="1.51"/><path d="M1500,420L1620,420L1620,300Z" fill="#609daf" stroke="#609daf" stroke-width="1.51"/><path d="M1500,300L1500,420L1620,300Z" fill="#68a0b4" stroke="#68a0b4" stroke-width="1.51"/><path d="M1500,300L1620,300L1620,180Z" fill="#71a3b2" stroke="#71a3b2" stroke-width="1.51"/><path d="M1500,180L1500,300L1620,180Z" fill="#77a6b7" stroke="#77a6b7" stroke-width="1.51"/><path d="M1500,180L1620,180L1620,60Z" fill="#7ea9b6" stroke="#7ea9b6" stroke-width="1.51"/><path d="M1500,60L1500,180L1620,60Z" fill="#82abba" stroke="#82abba" stroke-width="1.51"/><path d="M1500,60L1620,60L1620,-60Z" fill="#87aeb9" stroke="#87aeb9" stroke-width="1.51"/><path d="M1500,-60L1500,60L1620,-60Z" fill="#8bb1bd" stroke="#8bb1bd" stroke-width="1.51"/><path d="M1500,-60L1620,-60L1620,-180Z" fill="#8eb3bc" stroke="#8eb3bc" stroke-width="1.51"/><path d="M1500,-180L1500,-60L1620,-180Z" fill="#92b6c0" stroke="#92b6c0" stroke-width="1.51"/><path d="M1380,1260L1500,1260L1500,1140Z" fill="#126f71" stroke="#126f71" stroke-width="1.51"/><path d="M1380,1140L1380,1260L1500,1140Z" fill="#167478" stroke="#167478" stroke-width="1.51"/><path d="M1380,1140L1500,1140L1500,1020Z" fill="#137a7d" stroke="#137a7d" stroke-width="1.51"/><path d="M1380,1020L1380,1140L1500,1020Z" fill="#177d86" stroke="#177d86" stroke-width="1.51"/><path d="M1380,1020L1500,1020L1500,900Z" fill="#13818c" stroke="#13818c" stroke-width="1.51"/><path d="M1380,900L1380,1020L1500,900Z" fill="#168495" stroke="#168495" stroke-width="1.51"/><path d="M1380,900L1500,900L1500,780Z" fill="#1d869c" stroke="#1d869c" stroke-width="1.51"/><path d="M1380,780L1380,900L1500,780Z" fill="#2489a5" stroke="#2489a5" stroke-width="1.51"/><path d="M1380,780L1500,780L1500,660Z" fill="#2a8bad" stroke="#2a8bad" stroke-width="1.51"/><path d="M1380,660L1380,780L1500,660Z" fill="#338eb3" stroke="#338eb3" stroke-width="1.51"/><path d="M1380,660L1500,660L1500,540Z" fill="#3c92b2" stroke="#3c92b2" stroke-width="1.51"/><path d="M1380,540L1380,660L1500,540Z" fill="#4396b7" stroke="#4396b7" stroke-width="1.51"/><path d="M1380,540L1500,540L1500,420Z" fill="#4f99b6" stroke="#4f99b6" stroke-width="1.51"/><path d="M1380,420L1380,540L1500,420Z" fill="#599cbb" stroke="#599cbb" stroke-width="1.51"/><path d="M1380,420L1500,420L1500,300Z" fill="#669fba" stroke="#669fba" stroke-width="1.51"/><path d="M1380,300L1380,420L1500,300Z" fill="#6ea3bf" stroke="#6ea3bf" stroke-width="1.51"/><path d="M1380,300L1500,300L1500,180Z" fill="#76a6bd" stroke="#76a6bd" stroke-width="1.51"/><path d="M1380,180L1380,300L1500,180Z" fill="#7da9c2" stroke="#7da9c2" stroke-width="1.51"/><path d="M1380,180L1500,180L1500,60Z" fill="#83acc1" stroke="#83acc1" stroke-width="1.51"/><path d="M1380,60L1380,180L1500,60Z" fill="#89aec5" stroke="#89aec5" stroke-width="1.51"/><path d="M1380,60L1500,60L1500,-60Z" fill="#8db1c4" stroke="#8db1c4" stroke-width="1.51"/><path d="M1380,-60L1380,60L1500,-60Z" fill="#91b3c8" stroke="#91b3c8" stroke-width="1.51"/><path d="M1380,-60L1500,-60L1500,-180Z" fill="#94b6c7" stroke="#94b6c7" stroke-width="1.51"/><path d="M1380,-180L1380,-60L1500,-180Z" fill="#98b9cb" stroke="#98b9cb" stroke-width="1.51"/><path d="M1260,1260L1380,1260L1380,1140Z" fill="#1c727b" stroke="#1c727b" stroke-width="1.51"/><path d="M1260,1140L1260,1260L1380,1140Z" fill="#217782" stroke="#217782" stroke-width="1.51"/><path d="M1260,1140L1380,1140L1380,1020Z" fill="#1f7d87" stroke="#1f7d87" stroke-width="1.51"/><path d="M1260,1020L1260,1140L1380,1020Z" fill="#228190" stroke="#228190" stroke-width="1.51"/><path d="M1260,1020L1380,1020L1380,900Z" fill="#1e8497" stroke="#1e8497" stroke-width="1.51"/><path d="M1260,900L1260,1020L1380,900Z" fill="#2187a0" stroke="#2187a0" stroke-width="1.51"/><path d="M1260,900L1380,900L1380,780Z" fill="#2689a7" stroke="#2689a7" stroke-width="1.51"/><path d="M1260,780L1260,900L1380,780Z" fill="#2c8cb0" stroke="#2c8cb0" stroke-width="1.51"/><path d="M1260,780L1380,780L1380,660Z" fill="#318eb8" stroke="#318eb8" stroke-width="1.51"/><path d="M1260,660L1260,780L1380,660Z" fill="#3a91be" stroke="#3a91be" stroke-width="1.51"/><path d="M1260,660L1380,660L1380,540Z" fill="#4395bd" stroke="#4395bd" stroke-width="1.51"/><path d="M1260,540L1260,660L1380,540Z" fill="#4a99c2" stroke="#4a99c2" stroke-width="1.51"/><path d="M1260,540L1380,540L1380,420Z" fill="#559cc1" stroke="#559cc1" stroke-width="1.51"/><path d="M1260,420L1260,540L1380,420Z" fill="#5f9fc6" stroke="#5f9fc6" stroke-width="1.51"/><path d="M1260,420L1380,420L1380,300Z" fill="#6ca2c5" stroke="#6ca2c5" stroke-width="1.51"/><path d="M1260,300L1260,420L1380,300Z" fill="#74a6ca" stroke="#74a6ca" stroke-width="1.51"/><path d="M1260,300L1380,300L1380,180Z" fill="#7ca9c8" stroke="#7ca9c8" stroke-width="1.51"/><path d="M1260,180L1260,300L1380,180Z" fill="#83accd" stroke="#83accd" stroke-width="1.51"/><path d="M1260,180L1380,180L1380,60Z" fill="#89afcc" stroke="#89afcc" stroke-width="1.51"/><path d="M1260,60L1260,180L1380,60Z" fill="#8fb1d1" stroke="#8fb1d1" stroke-width="1.51"/><path d="M1260,60L1380,60L1380,-60Z" fill="#93b3cf" stroke="#93b3cf" stroke-width="1.51"/><path d="M1260,-60L1260,60L1380,-60Z" fill="#98b6d4" stroke="#98b6d4" stroke-width="1.51"/><path d="M1260,-60L1380,-60L1380,-180Z" fill="#9ab9d2" stroke="#9ab9d2" stroke-width="1.51"/><path d="M1260,-180L1260,-60L1380,-180Z" fill="#9fbcd7" stroke="#9fbcd7" stroke-width="1.51"/><path d="M1140,1260L1260,1260L1260,1140Z" fill="#267683" stroke="#267683" stroke-width="1.51"/><path d="M1140,1140L1140,1260L1260,1140Z" fill="#2b7c88" stroke="#2b7c88" stroke-width="1.51"/><path d="M1140,1140L1260,1140L1260,1020Z" fill="#29818f" stroke="#29818f" stroke-width="1.51"/><path d="M1140,1020L1140,1140L1260,1020Z" fill="#2d8595" stroke="#2d8595" stroke-width="1.51"/><path d="M1140,1020L1260,1020L1260,900Z" fill="#29889f" stroke="#29889f" stroke-width="1.51"/><path d="M1140,900L1140,1020L1260,900Z" fill="#2d8ca5" stroke="#2d8ca5" stroke-width="1.51"/><path d="M1140,900L1260,900L1260,780Z" fill="#2f8daf" stroke="#2f8daf" stroke-width="1.51"/><path d="M1140,780L1140,900L1260,780Z" fill="#3791b6" stroke="#3791b6" stroke-width="1.51"/><path d="M1140,780L1260,780L1260,660Z" fill="#3a91c0" stroke="#3a91c0" stroke-width="1.51"/><path d="M1140,660L1140,780L1260,660Z" fill="#4395c4" stroke="#4395c4" stroke-width="1.51"/><path d="M1140,660L1260,660L1260,540Z" fill="#4a99c5" stroke="#4a99c5" stroke-width="1.51"/><path d="M1140,540L1140,660L1260,540Z" fill="#529dc8" stroke="#529dc8" stroke-width="1.51"/><path d="M1140,540L1260,540L1260,420Z" fill="#5ca0ca" stroke="#5ca0ca" stroke-width="1.51"/><path d="M1140,420L1140,540L1260,420Z" fill="#67a4cc" stroke="#67a4cc" stroke-width="1.51"/><path d="M1140,420L1260,420L1260,300Z" fill="#72a6cd" stroke="#72a6cd" stroke-width="1.51"/><path d="M1140,300L1140,420L1260,300Z" fill="#7baad0" stroke="#7baad0" stroke-width="1.51"/><path d="M1140,300L1260,300L1260,180Z" fill="#83acd1" stroke="#83acd1" stroke-width="1.51"/><path d="M1140,180L1140,300L1260,180Z" fill="#8ab0d3" stroke="#8ab0d3" stroke-width="1.51"/><path d="M1140,180L1260,180L1260,60Z" fill="#90b2d5" stroke="#90b2d5" stroke-width="1.51"/><path d="M1140,60L1140,180L1260,60Z" fill="#96b6d7" stroke="#96b6d7" stroke-width="1.51"/><path d="M1140,60L1260,60L1260,-60Z" fill="#9ab7d8" stroke="#9ab7d8" stroke-width="1.51"/><path d="M1140,-60L1140,60L1260,-60Z" fill="#9fbbda" stroke="#9fbbda" stroke-width="1.51"/><path d="M1140,-60L1260,-60L1260,-180Z" fill="#a1bddb" stroke="#a1bddb" stroke-width="1.51"/><path d="M1140,-180L1140,-60L1260,-180Z" fill="#a5c1dd" stroke="#a5c1dd" stroke-width="1.51"/><path d="M1020,1260L1140,1260L1140,1140Z" fill="#307a86" stroke="#307a86" stroke-width="1.51"/><path d="M1020,1140L1020,1260L1140,1140Z" fill="#35818a" stroke="#35818a" stroke-width="1.51"/><path d="M1020,1140L1140,1140L1140,1020Z" fill="#338692" stroke="#338692" stroke-width="1.51"/><path d="M1020,1020L1020,1140L1140,1020Z" fill="#388a98" stroke="#388a98" stroke-width="1.51"/><path d="M1020,1020L1140,1020L1140,900Z" fill="#348da2" stroke="#348da2" stroke-width="1.51"/><path d="M1020,900L1020,1020L1140,900Z" fill="#3991a8" stroke="#3991a8" stroke-width="1.51"/><path d="M1020,900L1140,900L1140,780Z" fill="#3b91b2" stroke="#3b91b2" stroke-width="1.51"/><path d="M1020,780L1020,900L1140,780Z" fill="#4295b9" stroke="#4295b9" stroke-width="1.51"/><path d="M1020,780L1140,780L1140,660Z" fill="#4596c3" stroke="#4596c3" stroke-width="1.51"/><path d="M1020,660L1020,780L1140,660Z" fill="#4e9ac7" stroke="#4e9ac7" stroke-width="1.51"/><path d="M1020,660L1140,660L1140,540Z" fill="#549ec9" stroke="#549ec9" stroke-width="1.51"/><path d="M1020,540L1020,660L1140,540Z" fill="#5ca2cb" stroke="#5ca2cb" stroke-width="1.51"/><path d="M1020,540L1140,540L1140,420Z" fill="#64a5cd" stroke="#64a5cd" stroke-width="1.51"/><path d="M1020,420L1020,540L1140,420Z" fill="#6fa9cf" stroke="#6fa9cf" stroke-width="1.51"/><path d="M1020,420L1140,420L1140,300Z" fill="#7aabd1" stroke="#7aabd1" stroke-width="1.51"/><path d="M1020,300L1020,420L1140,300Z" fill="#83afd3" stroke="#83afd3" stroke-width="1.51"/><path d="M1020,300L1140,300L1140,180Z" fill="#8ab1d4" stroke="#8ab1d4" stroke-width="1.51"/><path d="M1020,180L1020,300L1140,180Z" fill="#91b5d6" stroke="#91b5d6" stroke-width="1.51"/><path d="M1020,180L1140,180L1140,60Z" fill="#97b7d8" stroke="#97b7d8" stroke-width="1.51"/><path d="M1020,60L1020,180L1140,60Z" fill="#9dbbda" stroke="#9dbbda" stroke-width="1.51"/><path d="M1020,60L1140,60L1140,-60Z" fill="#a1bcdb" stroke="#a1bcdb" stroke-width="1.51"/><path d="M1020,-60L1020,60L1140,-60Z" fill="#a6c0dd" stroke="#a6c0dd" stroke-width="1.51"/><path d="M1020,-60L1140,-60L1140,-180Z" fill="#a8c2de" stroke="#a8c2de" stroke-width="1.51"/><path d="M1020,-180L1020,-60L1140,-180Z" fill="#acc6e0" stroke="#acc6e0" stroke-width="1.51"/><path d="M900,1260L1020,1260L1020,1140Z" fill="#397f88" stroke="#397f88" stroke-width="1.51"/><path d="M900,1140L900,1260L1020,1140Z" fill="#3f858d" stroke="#3f858d" stroke-width="1.51"/><path d="M900,1140L1020,1140L1020,1020Z" fill="#3d8b95" stroke="#3d8b95" stroke-width="1.51"/><path d="M900,1020L900,1140L1020,1020Z" fill="#428e9b" stroke="#428e9b" stroke-width="1.51"/><path d="M900,1020L1020,1020L1020,900Z" fill="#3f91a5" stroke="#3f91a5" stroke-width="1.51"/><path d="M900,900L900,1020L1020,900Z" fill="#4495ab" stroke="#4495ab" stroke-width="1.51"/><path d="M900,900L1020,900L1020,780Z" fill="#4596b5" stroke="#4596b5" stroke-width="1.51"/><path d="M900,780L900,900L1020,780Z" fill="#4d9abc" stroke="#4d9abc" stroke-width="1.51"/><path d="M900,780L1020,780L1020,660Z" fill="#4f9bc6" stroke="#4f9bc6" stroke-width="1.51"/><path d="M900,660L900,780L1020,660Z" fill="#589fc9" stroke="#589fc9" stroke-width="1.51"/><path d="M900,660L1020,660L1020,540Z" fill="#5da3cb" stroke="#5da3cb" stroke-width="1.51"/><path d="M900,540L900,660L1020,540Z" fill="#65a7ce" stroke="#65a7ce" stroke-width="1.51"/><path d="M900,540L1020,540L1020,420Z" fill="#6daad0" stroke="#6daad0" stroke-width="1.51"/><path d="M900,420L900,540L1020,420Z" fill="#78aed2" stroke="#78aed2" stroke-width="1.51"/><path d="M900,420L1020,420L1020,300Z" fill="#82b0d4" stroke="#82b0d4" stroke-width="1.51"/><path d="M900,300L900,420L1020,300Z" fill="#8bb4d6" stroke="#8bb4d6" stroke-width="1.51"/><path d="M900,300L1020,300L1020,180Z" fill="#91b6d7" stroke="#91b6d7" stroke-width="1.51"/><path d="M900,180L900,300L1020,180Z" fill="#99bad9" stroke="#99bad9" stroke-width="1.51"/><path d="M900,180L1020,180L1020,60Z" fill="#9ebcdb" stroke="#9ebcdb" stroke-width="1.51"/><path d="M900,60L900,180L1020,60Z" fill="#a5bfdd" stroke="#a5bfdd" stroke-width="1.51"/><path d="M900,60L1020,60L1020,-60Z" fill="#a8c1de" stroke="#a8c1de" stroke-width="1.51"/><path d="M900,-60L900,60L1020,-60Z" fill="#adc5e0" stroke="#adc5e0" stroke-width="1.51"/><path d="M900,-60L1020,-60L1020,-180Z" fill="#afc7e1" stroke="#afc7e1" stroke-width="1.51"/><path d="M900,-180L900,-60L1020,-180Z" fill="#b4cbe3" stroke="#b4cbe3" stroke-width="1.51"/><path d="M780,1260L900,1260L900,1140Z" fill="#47848b" stroke="#47848b" stroke-width="1.51"/><path d="M780,1140L780,1260L900,1140Z" fill="#4d898f" stroke="#4d898f" stroke-width="1.51"/><path d="M780,1140L900,1140L900,1020Z" fill="#4b8f97" stroke="#4b8f97" stroke-width="1.51"/><path d="M780,1020L780,1140L900,1020Z" fill="#51929d" stroke="#51929d" stroke-width="1.51"/><path d="M780,1020L900,1020L900,900Z" fill="#4e96a7" stroke="#4e96a7" stroke-width="1.51"/><path d="M780,900L780,1020L900,900Z" fill="#5499ad" stroke="#5499ad" stroke-width="1.51"/><path d="M780,900L900,900L900,780Z" fill="#559bb8" stroke="#559bb8" stroke-width="1.51"/><path d="M780,780L780,900L900,780Z" fill="#5c9ebe" stroke="#5c9ebe" stroke-width="1.51"/><path d="M780,780L900,780L900,660Z" fill="#5ea0c9" stroke="#5ea0c9" stroke-width="1.51"/><path d="M780,660L780,780L900,660Z" fill="#67a3cc" stroke="#67a3cc" stroke-width="1.51"/><path d="M780,660L900,660L900,540Z" fill="#6ba7ce" stroke="#6ba7ce" stroke-width="1.51"/><path d="M780,540L780,660L900,540Z" fill="#73abd0" stroke="#73abd0" stroke-width="1.51"/><path d="M780,540L900,540L900,420Z" fill="#7aaed2" stroke="#7aaed2" stroke-width="1.51"/><path d="M780,420L780,540L900,420Z" fill="#85b2d4" stroke="#85b2d4" stroke-width="1.51"/><path d="M780,420L900,420L900,300Z" fill="#8db5d6" stroke="#8db5d6" stroke-width="1.51"/><path d="M780,300L780,420L900,300Z" fill="#97b8d8" stroke="#97b8d8" stroke-width="1.51"/><path d="M780,300L900,300L900,180Z" fill="#9dbbda" stroke="#9dbbda" stroke-width="1.51"/><path d="M780,180L780,300L900,180Z" fill="#a4bedc" stroke="#a4bedc" stroke-width="1.51"/><path d="M780,180L900,180L900,60Z" fill="#a9c1dd" stroke="#a9c1dd" stroke-width="1.51"/><path d="M780,60L780,180L900,60Z" fill="#b0c3df" stroke="#b0c3df" stroke-width="1.51"/><path d="M780,60L900,60L900,-60Z" fill="#b2c6e0" stroke="#b2c6e0" stroke-width="1.51"/><path d="M780,-60L780,60L900,-60Z" fill="#b9c9e2" stroke="#b9c9e2" stroke-width="1.51"/><path d="M780,-60L900,-60L900,-180Z" fill="#bacce3" stroke="#bacce3" stroke-width="1.51"/><path d="M780,-180L780,-60L900,-180Z" fill="#bfcfe5" stroke="#bfcfe5" stroke-width="1.51"/><path d="M660,1260L780,1260L780,1140Z" fill="#54888d" stroke="#54888d" stroke-width="1.51"/><path d="M660,1140L660,1260L780,1140Z" fill="#5a8d91" stroke="#5a8d91" stroke-width="1.51"/><path d="M660,1140L780,1140L780,1020Z" fill="#599399" stroke="#599399" stroke-width="1.51"/><path d="M660,1020L660,1140L780,1020Z" fill="#5e969f" stroke="#5e969f" stroke-width="1.51"/><path d="M660,1020L780,1020L780,900Z" fill="#5c9aa9" stroke="#5c9aa9" stroke-width="1.51"/><path d="M660,900L660,1020L780,900Z" fill="#629daf" stroke="#629daf" stroke-width="1.51"/><path d="M660,900L780,900L780,780Z" fill="#639fba" stroke="#639fba" stroke-width="1.51"/><path d="M660,780L660,900L780,780Z" fill="#6aa2c0" stroke="#6aa2c0" stroke-width="1.51"/><path d="M660,780L780,780L780,660Z" fill="#6ca4cb" stroke="#6ca4cb" stroke-width="1.51"/><path d="M660,660L660,780L780,660Z" fill="#75a7ce" stroke="#75a7ce" stroke-width="1.51"/><path d="M660,660L780,660L780,540Z" fill="#78abd1" stroke="#78abd1" stroke-width="1.51"/><path d="M660,540L660,660L780,540Z" fill="#80afd3" stroke="#80afd3" stroke-width="1.51"/><path d="M660,540L780,540L780,420Z" fill="#86b3d4" stroke="#86b3d4" stroke-width="1.51"/><path d="M660,420L660,540L780,420Z" fill="#91b6d7" stroke="#91b6d7" stroke-width="1.51"/><path d="M660,420L780,420L780,300Z" fill="#99b9d8" stroke="#99b9d8" stroke-width="1.51"/><path d="M660,300L660,420L780,300Z" fill="#a3bcda" stroke="#a3bcda" stroke-width="1.51"/><path d="M660,300L780,300L780,180Z" fill="#a8bfdc" stroke="#a8bfdc" stroke-width="1.51"/><path d="M660,180L660,300L780,180Z" fill="#b0c2de" stroke="#b0c2de" stroke-width="1.51"/><path d="M660,180L780,180L780,60Z" fill="#b4c5e0" stroke="#b4c5e0" stroke-width="1.51"/><path d="M660,60L660,180L780,60Z" fill="#bbc7e1" stroke="#bbc7e1" stroke-width="1.51"/><path d="M660,60L780,60L780,-60Z" fill="#bdcae3" stroke="#bdcae3" stroke-width="1.51"/><path d="M660,-60L660,60L780,-60Z" fill="#c4cde4" stroke="#c4cde4" stroke-width="1.51"/><path d="M660,-60L780,-60L780,-180Z" fill="#c4d0e6" stroke="#c4d0e6" stroke-width="1.51"/><path d="M660,-180L660,-60L780,-180Z" fill="#cad3e7" stroke="#cad3e7" stroke-width="1.51"/><path d="M540,1260L660,1260L660,1140Z" fill="#5f8c8f" stroke="#5f8c8f" stroke-width="1.51"/><path d="M540,1140L540,1260L660,1140Z" fill="#649193" stroke="#649193" stroke-width="1.51"/><path d="M540,1140L660,1140L660,1020Z" fill="#64979b" stroke="#64979b" stroke-width="1.51"/><path d="M540,1020L540,1140L660,1020Z" fill="#689aa2" stroke="#689aa2" stroke-width="1.51"/><path d="M540,1020L660,1020L660,900Z" fill="#689eab" stroke="#689eab" stroke-width="1.51"/><path d="M540,900L540,1020L660,900Z" fill="#6ca1b1" stroke="#6ca1b1" stroke-width="1.51"/><path d="M540,900L660,900L660,780Z" fill="#6fa3bc" stroke="#6fa3bc" stroke-width="1.51"/><path d="M540,780L540,900L660,780Z" fill="#75a6c3" stroke="#75a6c3" stroke-width="1.51"/><path d="M540,780L660,780L660,660Z" fill="#79a8cd" stroke="#79a8cd" stroke-width="1.51"/><path d="M540,660L540,780L660,660Z" fill="#7fabd1" stroke="#7fabd1" stroke-width="1.51"/><path d="M540,660L660,660L660,540Z" fill="#84afd3" stroke="#84afd3" stroke-width="1.51"/><path d="M540,540L540,660L660,540Z" fill="#8ab3d5" stroke="#8ab3d5" stroke-width="1.51"/><path d="M540,540L660,540L660,420Z" fill="#92b6d7" stroke="#92b6d7" stroke-width="1.51"/><path d="M540,420L540,540L660,420Z" fill="#9bb9d9" stroke="#9bb9d9" stroke-width="1.51"/><path d="M540,420L660,420L660,300Z" fill="#a4bcdb" stroke="#a4bcdb" stroke-width="1.51"/><path d="M540,300L540,420L660,300Z" fill="#acc0dc" stroke="#acc0dc" stroke-width="1.51"/><path d="M540,300L660,300L660,180Z" fill="#b3c3de" stroke="#b3c3de" stroke-width="1.51"/><path d="M540,180L540,300L660,180Z" fill="#b9c6e0" stroke="#b9c6e0" stroke-width="1.51"/><path d="M540,180L660,180L660,60Z" fill="#bfc9e1" stroke="#bfc9e1" stroke-width="1.51"/><path d="M540,60L540,180L660,60Z" fill="#c4cbe4" stroke="#c4cbe4" stroke-width="1.51"/><path d="M540,60L660,60L660,-60Z" fill="#c8cee4" stroke="#c8cee4" stroke-width="1.51"/><path d="M540,-60L540,60L660,-60Z" fill="#cdd1e7" stroke="#cdd1e7" stroke-width="1.51"/><path d="M540,-60L660,-60L660,-180Z" fill="#cfd4e7" stroke="#cfd4e7" stroke-width="1.51"/><path d="M540,-180L540,-60L660,-180Z" fill="#d3d7ea" stroke="#d3d7ea" stroke-width="1.51"/><path d="M420,1260L540,1260L540,1140Z" fill="#688f91" stroke="#688f91" stroke-width="1.51"/><path d="M420,1140L420,1260L540,1140Z" fill="#6c9595" stroke="#6c9595" stroke-width="1.51"/><path d="M420,1140L540,1140L540,1020Z" fill="#6d9b9e" stroke="#6d9b9e" stroke-width="1.51"/><path d="M420,1020L420,1140L540,1020Z" fill="#719ea3" stroke="#719ea3" stroke-width="1.51"/><path d="M420,1020L540,1020L540,900Z" fill="#72a2ae" stroke="#72a2ae" stroke-width="1.51"/><path d="M420,900L420,1020L540,900Z" fill="#76a5b3" stroke="#76a5b3" stroke-width="1.51"/><path d="M420,900L540,900L540,780Z" fill="#79a7be" stroke="#79a7be" stroke-width="1.51"/><path d="M420,780L420,900L540,780Z" fill="#7faac5" stroke="#7faac5" stroke-width="1.51"/><path d="M420,780L540,780L540,660Z" fill="#82acd0" stroke="#82acd0" stroke-width="1.51"/><path d="M420,660L420,780L540,660Z" fill="#89afd3" stroke="#89afd3" stroke-width="1.51"/><path d="M420,660L540,660L540,540Z" fill="#8db3d5" stroke="#8db3d5" stroke-width="1.51"/><path d="M420,540L420,660L540,540Z" fill="#94b7d7" stroke="#94b7d7" stroke-width="1.51"/><path d="M420,540L540,540L540,420Z" fill="#9bbad9" stroke="#9bbad9" stroke-width="1.51"/><path d="M420,420L420,540L540,420Z" fill="#a4bddb" stroke="#a4bddb" stroke-width="1.51"/><path d="M420,420L540,420L540,300Z" fill="#adc0dd" stroke="#adc0dd" stroke-width="1.51"/><path d="M420,300L420,420L540,300Z" fill="#b5c4df" stroke="#b5c4df" stroke-width="1.51"/><path d="M420,300L540,300L540,180Z" fill="#bbc7e1" stroke="#bbc7e1" stroke-width="1.51"/><path d="M420,180L420,300L540,180Z" fill="#c2cae2" stroke="#c2cae2" stroke-width="1.51"/><path d="M420,180L540,180L540,60Z" fill="#c7cde4" stroke="#c7cde4" stroke-width="1.51"/><path d="M420,60L420,180L540,60Z" fill="#cdcfe5" stroke="#cdcfe5" stroke-width="1.51"/><path d="M420,60L540,60L540,-60Z" fill="#d0d2e7" stroke="#d0d2e7" stroke-width="1.51"/><path d="M420,-60L420,60L540,-60Z" fill="#d5d5e8" stroke="#d5d5e8" stroke-width="1.51"/><path d="M420,-60L540,-60L540,-180Z" fill="#d7d8ea" stroke="#d7d8ea" stroke-width="1.51"/><path d="M420,-180L420,-60L540,-180Z" fill="#dcdbeb" stroke="#dcdbeb" stroke-width="1.51"/><path d="M300,1260L420,1260L420,1140Z" fill="#709393" stroke="#709393" stroke-width="1.51"/><path d="M300,1140L300,1260L420,1140Z" fill="#749998" stroke="#749998" stroke-width="1.51"/><path d="M300,1140L420,1140L420,1020Z" fill="#769f9f" stroke="#769f9f" stroke-width="1.51"/><path d="M300,1020L300,1140L420,1020Z" fill="#7aa2a6" stroke="#7aa2a6" stroke-width="1.51"/><path d="M300,1020L420,1020L420,900Z" fill="#7aa6b0" stroke="#7aa6b0" stroke-width="1.51"/><path d="M300,900L300,1020L420,900Z" fill="#7ea9b6" stroke="#7ea9b6" stroke-width="1.51"/><path d="M300,900L420,900L420,780Z" fill="#81abc0" stroke="#81abc0" stroke-width="1.51"/><path d="M300,780L300,900L420,780Z" fill="#87aec7" stroke="#87aec7" stroke-width="1.51"/><path d="M300,780L420,780L420,660Z" fill="#8bb0d2" stroke="#8bb0d2" stroke-width="1.51"/><path d="M300,660L300,780L420,660Z" fill="#91b3d5" stroke="#91b3d5" stroke-width="1.51"/><path d="M300,660L420,660L420,540Z" fill="#96b7d7" stroke="#96b7d7" stroke-width="1.51"/><path d="M300,540L300,660L420,540Z" fill="#9cbbda" stroke="#9cbbda" stroke-width="1.51"/><path d="M300,540L420,540L420,420Z" fill="#a3bedb" stroke="#a3bedb" stroke-width="1.51"/><path d="M300,420L300,540L420,420Z" fill="#acc1de" stroke="#acc1de" stroke-width="1.51"/><path d="M300,420L420,420L420,300Z" fill="#b5c4df" stroke="#b5c4df" stroke-width="1.51"/><path d="M300,300L300,420L420,300Z" fill="#bdc8e1" stroke="#bdc8e1" stroke-width="1.51"/><path d="M300,300L420,300L420,180Z" fill="#c3cbe3" stroke="#c3cbe3" stroke-width="1.51"/><path d="M300,180L300,300L420,180Z" fill="#cacee4" stroke="#cacee4" stroke-width="1.51"/><path d="M300,180L420,180L420,60Z" fill="#cfd1e6" stroke="#cfd1e6" stroke-width="1.51"/><path d="M300,60L300,180L420,60Z" fill="#d5d3e8" stroke="#d5d3e8" stroke-width="1.51"/><path d="M300,60L420,60L420,-60Z" fill="#d8d6e9" stroke="#d8d6e9" stroke-width="1.51"/><path d="M300,-60L300,60L420,-60Z" fill="#ddd9eb" stroke="#ddd9eb" stroke-width="1.51"/><path d="M300,-60L420,-60L420,-180Z" fill="#dfdcec" stroke="#dfdcec" stroke-width="1.51"/><path d="M300,-180L300,-60L420,-180Z" fill="#e3dfee" stroke="#e3dfee" stroke-width="1.51"/><path d="M180,1260L300,1260L300,1140Z" fill="#769794" stroke="#769794" stroke-width="1.51"/><path d="M180,1140L180,1260L300,1140Z" fill="#7a9c99" stroke="#7a9c99" stroke-width="1.51"/><path d="M180,1140L300,1140L300,1020Z" fill="#7ca3a1" stroke="#7ca3a1" stroke-width="1.51"/><path d="M180,1020L180,1140L300,1020Z" fill="#7fa6a8" stroke="#7fa6a8" stroke-width="1.51"/><path d="M180,1020L300,1020L300,900Z" fill="#80a9b1" stroke="#80a9b1" stroke-width="1.51"/><path d="M180,900L180,1020L300,900Z" fill="#84acb8" stroke="#84acb8" stroke-width="1.51"/><path d="M180,900L300,900L300,780Z" fill="#88aec2" stroke="#88aec2" stroke-width="1.51"/><path d="M180,780L180,900L300,780Z" fill="#8db1c9" stroke="#8db1c9" stroke-width="1.51"/><path d="M180,780L300,780L300,660Z" fill="#91b3d4" stroke="#91b3d4" stroke-width="1.51"/><path d="M180,660L180,780L300,660Z" fill="#97b6d7" stroke="#97b6d7" stroke-width="1.51"/><path d="M180,660L300,660L300,540Z" fill="#9cbbd9" stroke="#9cbbd9" stroke-width="1.51"/><path d="M180,540L180,660L300,540Z" fill="#a2bedc" stroke="#a2bedc" stroke-width="1.51"/><path d="M180,540L300,540L300,420Z" fill="#a9c2dd" stroke="#a9c2dd" stroke-width="1.51"/><path d="M180,420L180,540L300,420Z" fill="#b2c5e0" stroke="#b2c5e0" stroke-width="1.51"/><path d="M180,420L300,420L300,300Z" fill="#bbc8e1" stroke="#bbc8e1" stroke-width="1.51"/><path d="M180,300L180,420L300,300Z" fill="#c2cbe3" stroke="#c2cbe3" stroke-width="1.51"/><path d="M180,300L300,300L300,180Z" fill="#c9cee5" stroke="#c9cee5" stroke-width="1.51"/><path d="M180,180L180,300L300,180Z" fill="#cfd1e6" stroke="#cfd1e6" stroke-width="1.51"/><path d="M180,180L300,180L300,60Z" fill="#d5d4e8" stroke="#d5d4e8" stroke-width="1.51"/><path d="M180,60L180,180L300,60Z" fill="#dad7ea" stroke="#dad7ea" stroke-width="1.51"/><path d="M180,60L300,60L300,-60Z" fill="#ded9eb" stroke="#ded9eb" stroke-width="1.51"/><path d="M180,-60L180,60L300,-60Z" fill="#e3dced" stroke="#e3dced" stroke-width="1.51"/><path d="M180,-60L300,-60L300,-180Z" fill="#e5dfee" stroke="#e5dfee" stroke-width="1.51"/><path d="M180,-180L180,-60L300,-180Z" fill="#e9e2f0" stroke="#e9e2f0" stroke-width="1.51"/><path d="M60,1260L180,1260L180,1140Z" fill="#7c9a96" stroke="#7c9a96" stroke-width="1.51"/><path d="M60,1140L60,1260L180,1140Z" fill="#7f9f9b" stroke="#7f9f9b" stroke-width="1.51"/><path d="M60,1140L180,1140L180,1020Z" fill="#82a6a3" stroke="#82a6a3" stroke-width="1.51"/><path d="M60,1020L60,1140L180,1020Z" fill="#85a9a9" stroke="#85a9a9" stroke-width="1.51"/><path d="M60,1020L180,1020L180,900Z" fill="#87acb3" stroke="#87acb3" stroke-width="1.51"/><path d="M60,900L60,1020L180,900Z" fill="#8ab0ba" stroke="#8ab0ba" stroke-width="1.51"/><path d="M60,900L180,900L180,780Z" fill="#8eb1c4" stroke="#8eb1c4" stroke-width="1.51"/><path d="M60,780L60,900L180,780Z" fill="#93b4cb" stroke="#93b4cb" stroke-width="1.51"/><path d="M60,780L180,780L180,660Z" fill="#98b6d6" stroke="#98b6d6" stroke-width="1.51"/><path d="M60,660L60,780L180,660Z" fill="#9db9d9" stroke="#9db9d9" stroke-width="1.51"/><path d="M60,660L180,660L180,540Z" fill="#a3bedb" stroke="#a3bedb" stroke-width="1.51"/><path d="M60,540L60,660L180,540Z" fill="#a8c2de" stroke="#a8c2de" stroke-width="1.51"/><path d="M60,540L180,540L180,420Z" fill="#b0c5df" stroke="#b0c5df" stroke-width="1.51"/><path d="M60,420L60,540L180,420Z" fill="#b7c8e2" stroke="#b7c8e2" stroke-width="1.51"/><path d="M60,420L180,420L180,300Z" fill="#c1cbe3" stroke="#c1cbe3" stroke-width="1.51"/><path d="M60,300L60,420L180,300Z" fill="#c8cfe5" stroke="#c8cfe5" stroke-width="1.51"/><path d="M60,300L180,300L180,180Z" fill="#cfd1e7" stroke="#cfd1e7" stroke-width="1.51"/><path d="M60,180L60,300L180,180Z" fill="#d5d5e8" stroke="#d5d5e8" stroke-width="1.51"/><path d="M60,180L180,180L180,60Z" fill="#dbd7ea" stroke="#dbd7ea" stroke-width="1.51"/><path d="M60,60L60,180L180,60Z" fill="#e0daec" stroke="#e0daec" stroke-width="1.51"/><path d="M60,60L180,60L180,-60Z" fill="#e4dced" stroke="#e4dced" stroke-width="1.51"/><path d="M60,-60L60,60L180,-60Z" fill="#e8e0ef" stroke="#e8e0ef" stroke-width="1.51"/><path d="M60,-60L180,-60L180,-180Z" fill="#ebe2f0" stroke="#ebe2f0" stroke-width="1.51"/><path d="M60,-180L60,-60L180,-180Z" fill="#eee6f2" stroke="#eee6f2" stroke-width="1.51"/><path d="M-60,1260L60,1260L60,1140Z" fill="#809d98" stroke="#809d98" stroke-width="1.51"/><path d="M-60,1140L-60,1260L60,1140Z" fill="#83a39d" stroke="#83a39d" stroke-width="1.51"/><path d="M-60,1140L60,1140L60,1020Z" fill="#87a9a5" stroke="#87a9a5" stroke-width="1.51"/><path d="M-60,1020L-60,1140L60,1020Z" fill="#89adab" stroke="#89adab" stroke-width="1.51"/><path d="M-60,1020L60,1020L60,900Z" fill="#8cb0b5" stroke="#8cb0b5" stroke-width="1.51"/><path d="M-60,900L-60,1020L60,900Z" fill="#8eb3bc" stroke="#8eb3bc" stroke-width="1.51"/><path d="M-60,900L60,900L60,780Z" fill="#93b5c6" stroke="#93b5c6" stroke-width="1.51"/><path d="M-60,780L-60,900L60,780Z" fill="#98b8cd" stroke="#98b8cd" stroke-width="1.51"/><path d="M-60,780L60,780L60,660Z" fill="#9dbad8" stroke="#9dbad8" stroke-width="1.51"/><path d="M-60,660L-60,780L60,660Z" fill="#a2bddb" stroke="#a2bddb" stroke-width="1.51"/><path d="M-60,660L60,660L60,540Z" fill="#a8c2dd" stroke="#a8c2dd" stroke-width="1.51"/><path d="M-60,540L-60,660L60,540Z" fill="#acc6e0" stroke="#acc6e0" stroke-width="1.51"/><path d="M-60,540L60,540L60,420Z" fill="#b5c9e1" stroke="#b5c9e1" stroke-width="1.51"/><path d="M-60,420L-60,540L60,420Z" fill="#bccce4" stroke="#bccce4" stroke-width="1.51"/><path d="M-60,420L60,420L60,300Z" fill="#c6cfe5" stroke="#c6cfe5" stroke-width="1.51"/><path d="M-60,300L-60,420L60,300Z" fill="#ccd3e7" stroke="#ccd3e7" stroke-width="1.51"/><path d="M-60,300L60,300L60,180Z" fill="#d4d5e9" stroke="#d4d5e9" stroke-width="1.51"/><path d="M-60,180L-60,300L60,180Z" fill="#d9d9ea" stroke="#d9d9ea" stroke-width="1.51"/><path d="M-60,180L60,180L60,60Z" fill="#e0dbec" stroke="#e0dbec" stroke-width="1.51"/><path d="M-60,60L-60,180L60,60Z" fill="#e4deee" stroke="#e4deee" stroke-width="1.51"/><path d="M-60,60L60,60L60,-60Z" fill="#e9e0ef" stroke="#e9e0ef" stroke-width="1.51"/><path d="M-60,-60L-60,60L60,-60Z" fill="#ece4f1" stroke="#ece4f1" stroke-width="1.51"/><path d="M-60,-60L60,-60L60,-180Z" fill="#f0e6f2" stroke="#f0e6f2" stroke-width="1.51"/><path d="M-60,-180L-60,-60L60,-180Z" fill="#f3eaf4" stroke="#f3eaf4" stroke-width="1.51"/><path d="M-180,1260L-60,1260L-60,1140Z" fill="#84a19a" stroke="#84a19a" stroke-width="1.51"/><path d="M-180,1140L-180,1260L-60,1140Z" fill="#87a79f" stroke="#87a79f" stroke-width="1.51"/><path d="M-180,1140L-60,1140L-60,1020Z" fill="#8aada7" stroke="#8aada7" stroke-width="1.51"/><path d="M-180,1020L-180,1140L-60,1020Z" fill="#8db1ad" stroke="#8db1ad" stroke-width="1.51"/><path d="M-180,1020L-60,1020L-60,900Z" fill="#8fb4b8" stroke="#8fb4b8" stroke-width="1.51"/><path d="M-180,900L-180,1020L-60,900Z" fill="#92b7bd" stroke="#92b7bd" stroke-width="1.51"/><path d="M-180,900L-60,900L-60,780Z" fill="#97b9c9" stroke="#97b9c9" stroke-width="1.51"/><path d="M-180,780L-180,900L-60,780Z" fill="#9cbccf" stroke="#9cbccf" stroke-width="1.51"/><path d="M-180,780L-60,780L-60,660Z" fill="#a1beda" stroke="#a1beda" stroke-width="1.51"/><path d="M-180,660L-180,780L-60,660Z" fill="#a6c1dd" stroke="#a6c1dd" stroke-width="1.51"/><path d="M-180,660L-60,660L-60,540Z" fill="#abc5e0" stroke="#abc5e0" stroke-width="1.51"/><path d="M-180,540L-180,660L-60,540Z" fill="#b0c9e2" stroke="#b0c9e2" stroke-width="1.51"/><path d="M-180,540L-60,540L-60,420Z" fill="#b8cde4" stroke="#b8cde4" stroke-width="1.51"/><path d="M-180,420L-180,540L-60,420Z" fill="#c0d0e6" stroke="#c0d0e6" stroke-width="1.51"/><path d="M-180,420L-60,420L-60,300Z" fill="#cad3e8" stroke="#cad3e8" stroke-width="1.51"/><path d="M-180,300L-180,420L-60,300Z" fill="#d0d7e9" stroke="#d0d7e9" stroke-width="1.51"/><path d="M-180,300L-60,300L-60,180Z" fill="#d8d9eb" stroke="#d8d9eb" stroke-width="1.51"/><path d="M-180,180L-180,300L-60,180Z" fill="#ddddec" stroke="#ddddec" stroke-width="1.51"/><path d="M-180,180L-60,180L-60,60Z" fill="#e3dfee" stroke="#e3dfee" stroke-width="1.51"/><path d="M-180,60L-180,180L-60,60Z" fill="#e8e2f0" stroke="#e8e2f0" stroke-width="1.51"/><path d="M-180,60L-60,60L-60,-60Z" fill="#ece4f1" stroke="#ece4f1" stroke-width="1.51"/><path d="M-180,-60L-180,60L-60,-60Z" fill="#f0e8f3" stroke="#f0e8f3" stroke-width="1.51"/><path d="M-180,-60L-60,-60L-60,-180Z" fill="#f3eaf4" stroke="#f3eaf4" stroke-width="1.51"/><path d="M-180,-180L-180,-60L-60,-180Z" fill="#f7eef6" stroke="#f7eef6" stroke-width="1.51"/></svg>