<svg xmlns="http://www.w3.org/2000/svg" width="1920" height="1080"><path d="M1230,1398L756,1412L1398,1432Z" fill="#7faa82" stroke="#7faa82" stroke-width="1.51"/><path d="M1922,904L1917,1010L2183,750Z" fill="#75b477" stroke="#75b477" stroke-width="1.51"/><path d="M1841,189L2184,432L2285,356Z" fill="#87a48b" stroke="#87a48b" stroke-width="1.51"/><path d="M2184,432L2183,750L2285,356Z" fill="#87a98b" stroke="#87a98b" stroke-width="1.51"/><path d="M1937,-208L1862,-79L2286,-162Z" fill="#696f6e" stroke="#696f6e" stroke-width="1.51"/><path d="M1841,189L2285,356L2286,-162Z" fill="#758b7e" stroke="#758b7e" stroke-width="1.51"/><path d="M1862,-79L1841,189L2286,-162Z" fill="#74867c" stroke="#74867c" stroke-width="1.51"/><path d="M1322,-424L1759,-353L2306,-267Z" fill="#6b696a" stroke="#6b696a" stroke-width="1.51"/><path d="M1759,-353L1937,-208L2306,-267Z" fill="#625f64" stroke="#625f64" stroke-width="1.51"/><path d="M2286,-162L2285,356L2306,-267Z" fill="#5f6968" stroke="#5f6968" stroke-width="1.51"/><path d="M2183,750L1917,1010L2314,1162Z" fill="#5ca162" stroke="#5ca162" stroke-width="1.51"/><path d="M2285,356L2183,750L2314,1162Z" fill="#74a276" stroke="#74a276" stroke-width="1.51"/><path d="M2306,-267L2285,356L2314,1162Z" fill="#7f9883" stroke="#7f9883" stroke-width="1.51"/><path d="M1816,1321L1398,1432L2315,1273Z" fill="#399049" stroke="#399049" stroke-width="1.51"/><path d="M2314,1162L1917,1010L2315,1273Z" fill="#378946" stroke="#378946" stroke-width="1.51"/><path d="M1917,1010L1816,1321L2315,1273Z" fill="#3c924b" stroke="#3c924b" stroke-width="1.51"/><path d="M1937,-208L2286,-162L2306,-267Z" fill="#59595f" stroke="#59595f" stroke-width="1.51"/><path d="M629,-438L829,-395L1322,-424Z" fill="#9f7ca2" stroke="#9f7ca2" stroke-width="1.51"/><path d="M1918,659L1922,904L2183,750Z" fill="#84ba85" stroke="#84ba85" stroke-width="1.51"/><path d="M1918,659L2183,750L2184,432Z" fill="#89b68d" stroke="#89b68d" stroke-width="1.51"/><path d="M1798,430L1918,659L2184,432Z" fill="#9bc19d" stroke="#9bc19d" stroke-width="1.51"/><path d="M1841,189L1798,430L2184,432Z" fill="#99b79a" stroke="#99b79a" stroke-width="1.51"/><path d="M1581,1195L1614,1259L1816,1321Z" fill="#5da963" stroke="#5da963" stroke-width="1.51"/><path d="M1581,1195L1816,1321L1917,1010Z" fill="#5bac61" stroke="#5bac61" stroke-width="1.51"/><path d="M1918,659L1636,710L1922,904Z" fill="#98cd95" stroke="#98cd95" stroke-width="1.51"/><path d="M1759,-353L1862,-79L1937,-208Z" fill="#747576" stroke="#747576" stroke-width="1.51"/><path d="M1636,710L1581,1195L1917,1010Z" fill="#89c986" stroke="#89c986" stroke-width="1.51"/><path d="M1798,430L1636,710L1918,659Z" fill="#aad4a9" stroke="#aad4a9" stroke-width="1.51"/><path d="M1636,710L1917,1010L1922,904Z" fill="#89c787" stroke="#89c787" stroke-width="1.51"/><path d="M1384,943L1581,1195L1636,710Z" fill="#a4da9e" stroke="#a4da9e" stroke-width="1.51"/><path d="M1614,1259L1398,1432L1816,1321Z" fill="#5aa261" stroke="#5aa261" stroke-width="1.51"/><path d="M1530,389L1798,430L1841,189Z" fill="#afc9ad" stroke="#afc9ad" stroke-width="1.51"/><path d="M1545,38L1841,189L1862,-79Z" fill="#94a497" stroke="#94a497" stroke-width="1.51"/><path d="M1759,-353L1545,38L1862,-79Z" fill="#888d8b" stroke="#888d8b" stroke-width="1.51"/><path d="M1545,38L1530,389L1841,189Z" fill="#afc0b0" stroke="#afc0b0" stroke-width="1.51"/><path d="M1412,-43L1545,38L1759,-353Z" fill="#9a999d" stroke="#9a999d" stroke-width="1.51"/><path d="M1530,389L1636,710L1798,430Z" fill="#bfddbc" stroke="#bfddbc" stroke-width="1.51"/><path d="M1322,-424L1412,-43L1759,-353Z" fill="#968494" stroke="#968494" stroke-width="1.51"/><path d="M161,1264L-331,1318L756,1412Z" fill="#6e8077" stroke="#6e8077" stroke-width="1.51"/><path d="M1333,117L1530,389L1545,38Z" fill="#bfc8c0" stroke="#bfc8c0" stroke-width="1.51"/><path d="M1530,389L1411,448L1636,710Z" fill="#cfe7cb" stroke="#cfe7cb" stroke-width="1.51"/><path d="M1411,448L1384,943L1636,710Z" fill="#c8e8c1" stroke="#c8e8c1" stroke-width="1.51"/><path d="M1384,943L1370,1208L1581,1195Z" fill="#8dca8b" stroke="#8dca8b" stroke-width="1.51"/><path d="M1581,1195L1370,1208L1614,1259Z" fill="#76b977" stroke="#76b977" stroke-width="1.51"/><path d="M1370,1208L1398,1432L1614,1259Z" fill="#71b074" stroke="#71b074" stroke-width="1.51"/><path d="M1136,823L1384,943L1411,448Z" fill="#d3eecd" stroke="#d3eecd" stroke-width="1.51"/><path d="M1322,-424L1167,-180L1412,-43Z" fill="#aa93ab" stroke="#aa93ab" stroke-width="1.51"/><path d="M1333,117L1411,448L1530,389Z" fill="#cfdacc" stroke="#cfdacc" stroke-width="1.51"/><path d="M1412,-43L1333,117L1545,38Z" fill="#b5b6b8" stroke="#b5b6b8" stroke-width="1.51"/><path d="M1212,1182L1370,1208L1384,943Z" fill="#99cf97" stroke="#99cf97" stroke-width="1.51"/><path d="M1370,1208L1230,1398L1398,1432Z" fill="#76af7a" stroke="#76af7a" stroke-width="1.51"/><path d="M1333,117L986,385L1411,448Z" fill="#dfdfdc" stroke="#dfdfdc" stroke-width="1.51"/><path d="M1055,613L1136,823L1411,448Z" fill="#e4f3e0" stroke="#e4f3e0" stroke-width="1.51"/><path d="M1092,-13L1333,117L1412,-43Z" fill="#c0b9c4" stroke="#c0b9c4" stroke-width="1.51"/><path d="M1167,-180L1092,-13L1412,-43Z" fill="#baacbf" stroke="#baacbf" stroke-width="1.51"/><path d="M986,385L1055,613L1411,448Z" fill="#ebf0e9" stroke="#ebf0e9" stroke-width="1.51"/><path d="M-76,1267L-331,1318L161,1264Z" fill="#676a6b" stroke="#676a6b" stroke-width="1.51"/><path d="M1212,1182L1230,1398L1370,1208Z" fill="#87bd88" stroke="#87bd88" stroke-width="1.51"/><path d="M1136,823L1212,1182L1384,943Z" fill="#b8e1b2" stroke="#b8e1b2" stroke-width="1.51"/><path d="M603,1340L161,1264L756,1412Z" fill="#7f9a86" stroke="#7f9a86" stroke-width="1.51"/><path d="M1092,-13L986,385L1333,117Z" fill="#d6ceda" stroke="#d6ceda" stroke-width="1.51"/><path d="M1136,823L959,993L1212,1182Z" fill="#bde1b8" stroke="#bde1b8" stroke-width="1.51"/><path d="M829,-395L1167,-180L1322,-424Z" fill="#a686a8" stroke="#a686a8" stroke-width="1.51"/><path d="M876,139L986,385L1092,-13Z" fill="#ded1e4" stroke="#ded1e4" stroke-width="1.51"/><path d="M1212,1182L756,1412L1230,1398Z" fill="#8ab68d" stroke="#8ab68d" stroke-width="1.51"/><path d="M959,993L756,1412L1212,1182Z" fill="#a2cba3" stroke="#a2cba3" stroke-width="1.51"/><path d="M1055,613L927,694L1136,823Z" fill="#e6f3e2" stroke="#e6f3e2" stroke-width="1.51"/><path d="M829,-395L1092,-13L1167,-180Z" fill="#ba99be" stroke="#ba99be" stroke-width="1.51"/><path d="M829,-395L709,-7L1092,-13Z" fill="#bf9fc7" stroke="#bf9fc7" stroke-width="1.51"/><path d="M927,694L959,993L1136,823Z" fill="#d9eed5" stroke="#d9eed5" stroke-width="1.51"/><path d="M709,-7L876,139L1092,-13Z" fill="#d0bcd8" stroke="#d0bcd8" stroke-width="1.51"/><path d="M596,1220L756,1412L959,993Z" fill="#9dbe9e" stroke="#9dbe9e" stroke-width="1.51"/><path d="M748,502L927,694L986,385Z" fill="#f5f1f5" stroke="#f5f1f5" stroke-width="1.51"/><path d="M986,385L927,694L1055,613Z" fill="#f4f6f3" stroke="#f4f6f3" stroke-width="1.51"/><path d="M927,694L480,849L959,993Z" fill="#d6e4d3" stroke="#d6e4d3" stroke-width="1.51"/><path d="M876,139L748,502L986,385Z" fill="#ede0ed" stroke="#ede0ed" stroke-width="1.51"/><path d="M583,-137L709,-7L829,-395Z" fill="#b78ebe" stroke="#b78ebe" stroke-width="1.51"/><path d="M480,849L596,1220L959,993Z" fill="#bacfb7" stroke="#bacfb7" stroke-width="1.51"/><path d="M-113,-356L375,-318L629,-438Z" fill="#865492" stroke="#865492" stroke-width="1.51"/><path d="M550,445L748,502L876,139Z" fill="#ead9ea" stroke="#ead9ea" stroke-width="1.51"/><path d="M748,502L480,849L927,694Z" fill="#e6e6e4" stroke="#e6e6e4" stroke-width="1.51"/><path d="M629,-438L583,-137L829,-395Z" fill="#a678ab" stroke="#a678ab" stroke-width="1.51"/><path d="M709,-7L550,445L876,139Z" fill="#dac4df" stroke="#dac4df" stroke-width="1.51"/><path d="M596,1220L603,1340L756,1412Z" fill="#89a78d" stroke="#89a78d" stroke-width="1.51"/><path d="M417,382L550,445L709,-7Z" fill="#d9c2df" stroke="#d9c2df" stroke-width="1.51"/><path d="M550,445L480,849L748,502Z" fill="#e5dde7" stroke="#e5dde7" stroke-width="1.51"/><path d="M480,849L362,1136L596,1220Z" fill="#a6baa7" stroke="#a6baa7" stroke-width="1.51"/><path d="M583,-137L373,-127L709,-7Z" fill="#b692c1" stroke="#b692c1" stroke-width="1.51"/><path d="M373,-127L417,382L709,-7Z" fill="#c3a6ce" stroke="#c3a6ce" stroke-width="1.51"/><path d="M205,769L480,849L550,445Z" fill="#d4cdd7" stroke="#d4cdd7" stroke-width="1.51"/><path d="M375,-318L583,-137L629,-438Z" fill="#a06fa8" stroke="#a06fa8" stroke-width="1.51"/><path d="M417,382L151,614L550,445Z" fill="#d9c7e0" stroke="#d9c7e0" stroke-width="1.51"/><path d="M151,614L205,769L550,445Z" fill="#d2c4d7" stroke="#d2c4d7" stroke-width="1.51"/><path d="M375,-318L373,-127L583,-137Z" fill="#a678b2" stroke="#a678b2" stroke-width="1.51"/><path d="M596,1220L362,1136L603,1340Z" fill="#8fa992" stroke="#8fa992" stroke-width="1.51"/><path d="M362,1136L161,1264L603,1340Z" fill="#849b8b" stroke="#849b8b" stroke-width="1.51"/><path d="M373,-127L145,338L417,382Z" fill="#c1a4cd" stroke="#c1a4cd" stroke-width="1.51"/><path d="M-9,115L145,338L373,-127Z" fill="#ae8cbe" stroke="#ae8cbe" stroke-width="1.51"/><path d="M205,769L362,1136L480,849Z" fill="#b6beb8" stroke="#b6beb8" stroke-width="1.51"/><path d="M145,338L151,614L417,382Z" fill="#ceb6d6" stroke="#ceb6d6" stroke-width="1.51"/><path d="M205,769L161,1264L362,1136Z" fill="#99a69d" stroke="#99a69d" stroke-width="1.51"/><path d="M-113,-356L-116,-22L373,-127Z" fill="#8c579c" stroke="#8c579c" stroke-width="1.51"/><path d="M-113,-356L373,-127L375,-318Z" fill="#8e579c" stroke="#8e579c" stroke-width="1.51"/><path d="M-116,-22L-9,115L373,-127Z" fill="#9d73ad" stroke="#9d73ad" stroke-width="1.51"/><path d="M-134,1084L161,1264L205,769Z" fill="#929895" stroke="#929895" stroke-width="1.51"/><path d="M145,338L-72,622L151,614Z" fill="#c6adce" stroke="#c6adce" stroke-width="1.51"/><path d="M-134,1084L-76,1267L161,1264Z" fill="#747b78" stroke="#747b78" stroke-width="1.51"/><path d="M151,614L-65,770L205,769Z" fill="#bcaec1" stroke="#bcaec1" stroke-width="1.51"/><path d="M-65,770L-134,1084L205,769Z" fill="#a69da7" stroke="#a69da7" stroke-width="1.51"/><path d="M-72,622L-65,770L151,614Z" fill="#baa4bf" stroke="#baa4bf" stroke-width="1.51"/><path d="M-367,473L-72,622L-9,115Z" fill="#b488b9" stroke="#b488b9" stroke-width="1.51"/><path d="M-9,115L-72,622L145,338Z" fill="#bc98c4" stroke="#bc98c4" stroke-width="1.51"/><path d="M-244,-291L-283,-110L-116,-22Z" fill="#7d3d8b" stroke="#7d3d8b" stroke-width="1.51"/><path d="M-244,-291L-116,-22L-113,-356Z" fill="#7b3488" stroke="#7b3488" stroke-width="1.51"/><path d="M-116,-22L-386,224L-9,115Z" fill="#9a65a6" stroke="#9a65a6" stroke-width="1.51"/><path d="M-386,224L-367,473L-9,115Z" fill="#a171a8" stroke="#a171a8" stroke-width="1.51"/><path d="M-134,1084L-280,1211L-76,1267Z" fill="#6f6d70" stroke="#6f6d70" stroke-width="1.51"/><path d="M-409,955L-134,1084L-65,770Z" fill="#948391" stroke="#948391" stroke-width="1.51"/><path d="M-72,622L-367,473L-65,770Z" fill="#b490b6" stroke="#b490b6" stroke-width="1.51"/><path d="M-367,473L-409,955L-65,770Z" fill="#a185a1" stroke="#a185a1" stroke-width="1.51"/><path d="M-280,1211L-331,1318L-76,1267Z" fill="#5f5e62" stroke="#5f5e62" stroke-width="1.51"/><path d="M-283,-110L-386,224L-116,-22Z" fill="#895496" stroke="#895496" stroke-width="1.51"/><path d="M-409,955L-280,1211L-134,1084Z" fill="#756f74" stroke="#756f74" stroke-width="1.51"/><path d="M-386,224L-283,-110L-244,-291Z" fill="#7c468a" stroke="#7c468a" stroke-width="1.51"/><path d="M-409,955L-331,1318L-280,1211Z" fill="#626363" stroke="#626363" stroke-width="1.51"/><path d="M-386,224L-409,955L-367,473Z" fill="#a180a5" stroke="#a180a5" stroke-width="1.51"/></svg>