<svg xmlns="http://www.w3.org/2000/svg" width="1920" height="1080"><path d="M1230,1398L756,1412L1398,1432Z" fill="#a7b3b0" stroke="#a7b3b0" stroke-width="1.51"/><path d="M1922,904L1917,1010L2183,750Z" fill="#8abead" stroke="#8abead" stroke-width="1.51"/><path d="M1841,189L2184,432L2285,356Z" fill="#adb0a5" stroke="#adb0a5" stroke-width="1.51"/><path d="M2184,432L2183,750L2285,356Z" fill="#aeb3b7" stroke="#aeb3b7" stroke-width="1.51"/><path d="M1937,-208L1862,-79L2286,-162Z" fill="#af7d7f" stroke="#af7d7f" stroke-width="1.51"/><path d="M1841,189L2285,356L2286,-162Z" fill="#b3958f" stroke="#b3958f" stroke-width="1.51"/><path d="M1862,-79L1841,189L2286,-162Z" fill="#b89080" stroke="#b89080" stroke-width="1.51"/><path d="M1322,-424L1759,-353L2306,-267Z" fill="#a88275" stroke="#a88275" stroke-width="1.51"/><path d="M1759,-353L1937,-208L2306,-267Z" fill="#a67580" stroke="#a67580" stroke-width="1.51"/><path d="M2286,-162L2285,356L2306,-267Z" fill="#b56d7c" stroke="#b56d7c" stroke-width="1.51"/><path d="M2183,750L1917,1010L2314,1162Z" fill="#78abb0" stroke="#78abb0" stroke-width="1.51"/><path d="M2285,356L2183,750L2314,1162Z" fill="#a2aba7" stroke="#a2aba7" stroke-width="1.51"/><path d="M2306,-267L2285,356L2314,1162Z" fill="#b2a3a8" stroke="#b2a3a8" stroke-width="1.51"/><path d="M1816,1321L1398,1432L2315,1273Z" fill="#51a1b3" stroke="#51a1b3" stroke-width="1.51"/><path d="M2314,1162L1917,1010L2315,1273Z" fill="#5a9bae" stroke="#5a9bae" stroke-width="1.51"/><path d="M1917,1010L1816,1321L2315,1273Z" fill="#52a4b2" stroke="#52a4b2" stroke-width="1.51"/><path d="M1937,-208L2286,-162L2306,-267Z" fill="#a76781" stroke="#a76781" stroke-width="1.51"/><path d="M629,-438L829,-395L1322,-424Z" fill="#d9917c" stroke="#d9917c" stroke-width="1.51"/><path d="M1918,659L1922,904L2183,750Z" fill="#9ec4aa" stroke="#9ec4aa" stroke-width="1.51"/><path d="M1918,659L2183,750L2184,432Z" fill="#a5c0b9" stroke="#a5c0b9" stroke-width="1.51"/><path d="M1798,430L1918,659L2184,432Z" fill="#b0ceb5" stroke="#b0ceb5" stroke-width="1.51"/><path d="M1841,189L1798,430L2184,432Z" fill="#b5c5a1" stroke="#b5c5a1" stroke-width="1.51"/><path d="M1581,1195L1614,1259L1816,1321Z" fill="#70b7ad" stroke="#70b7ad" stroke-width="1.51"/><path d="M1581,1195L1816,1321L1917,1010Z" fill="#69bea8" stroke="#69bea8" stroke-width="1.51"/><path d="M1918,659L1636,710L1922,904Z" fill="#a8d9a0" stroke="#a8d9a0" stroke-width="1.51"/><path d="M1759,-353L1862,-79L1937,-208Z" fill="#b48a79" stroke="#b48a79" stroke-width="1.51"/><path d="M1636,710L1581,1195L1917,1010Z" fill="#91d2a5" stroke="#91d2a5" stroke-width="1.51"/><path d="M1798,430L1636,710L1918,659Z" fill="#b8e1ac" stroke="#b8e1ac" stroke-width="1.51"/><path d="M1636,710L1917,1010L1922,904Z" fill="#96d2a3" stroke="#96d2a3" stroke-width="1.51"/><path d="M1384,943L1581,1195L1636,710Z" fill="#a9dca4" stroke="#a9dca4" stroke-width="1.51"/><path d="M1614,1259L1398,1432L1816,1321Z" fill="#71adb2" stroke="#71adb2" stroke-width="1.51"/><path d="M1530,389L1798,430L1841,189Z" fill="#c4d698" stroke="#c4d698" stroke-width="1.51"/><path d="M1545,38L1841,189L1862,-79Z" fill="#c7b07c" stroke="#c7b07c" stroke-width="1.51"/><path d="M1759,-353L1545,38L1862,-79Z" fill="#c59b75" stroke="#c59b75" stroke-width="1.51"/><path d="M1545,38L1530,389L1841,189Z" fill="#cfca8a" stroke="#cfca8a" stroke-width="1.51"/><path d="M1412,-43L1545,38L1759,-353Z" fill="#d3a274" stroke="#d3a274" stroke-width="1.51"/><path d="M1530,389L1636,710L1798,430Z" fill="#c9e6ae" stroke="#c9e6ae" stroke-width="1.51"/><path d="M1322,-424L1412,-43L1759,-353Z" fill="#cd9677" stroke="#cd9677" stroke-width="1.51"/><path d="M161,1264L-331,1318L756,1412Z" fill="#b38986" stroke="#b38986" stroke-width="1.51"/><path d="M1333,117L1530,389L1545,38Z" fill="#e0ce85" stroke="#e0ce85" stroke-width="1.51"/><path d="M1530,389L1411,448L1636,710Z" fill="#d6ecae" stroke="#d6ecae" stroke-width="1.51"/><path d="M1411,448L1384,943L1636,710Z" fill="#d1eca1" stroke="#d1eca1" stroke-width="1.51"/><path d="M1384,943L1370,1208L1581,1195Z" fill="#98d4a3" stroke="#98d4a3" stroke-width="1.51"/><path d="M1581,1195L1370,1208L1614,1259Z" fill="#86c4ab" stroke="#86c4ab" stroke-width="1.51"/><path d="M1370,1208L1398,1432L1614,1259Z" fill="#88baae" stroke="#88baae" stroke-width="1.51"/><path d="M1136,823L1384,943L1411,448Z" fill="#e0f29a" stroke="#e0f29a" stroke-width="1.51"/><path d="M1322,-424L1167,-180L1412,-43Z" fill="#e3a372" stroke="#e3a372" stroke-width="1.51"/><path d="M1333,117L1411,448L1530,389Z" fill="#e2e093" stroke="#e2e093" stroke-width="1.51"/><path d="M1412,-43L1333,117L1545,38Z" fill="#e4bb78" stroke="#e4bb78" stroke-width="1.51"/><path d="M1212,1182L1370,1208L1384,943Z" fill="#a8daa0" stroke="#a8daa0" stroke-width="1.51"/><path d="M1370,1208L1230,1398L1398,1432Z" fill="#95b8af" stroke="#95b8af" stroke-width="1.51"/><path d="M1333,117L986,385L1411,448Z" fill="#f3e88f" stroke="#f3e88f" stroke-width="1.51"/><path d="M1055,613L1136,823L1411,448Z" fill="#eff9a6" stroke="#eff9a6" stroke-width="1.51"/><path d="M1092,-13L1333,117L1412,-43Z" fill="#f1bf74" stroke="#f1bf74" stroke-width="1.51"/><path d="M1167,-180L1092,-13L1412,-43Z" fill="#f3b36e" stroke="#f3b36e" stroke-width="1.51"/><path d="M986,385L1055,613L1411,448Z" fill="#f7f7ab" stroke="#f7f7ab" stroke-width="1.51"/><path d="M-76,1267L-331,1318L161,1264Z" fill="#ad7b80" stroke="#ad7b80" stroke-width="1.51"/><path d="M1212,1182L1230,1398L1370,1208Z" fill="#a1c7a9" stroke="#a1c7a9" stroke-width="1.51"/><path d="M1136,823L1212,1182L1384,943Z" fill="#c3e69e" stroke="#c3e69e" stroke-width="1.51"/><path d="M603,1340L161,1264L756,1412Z" fill="#b0a59b" stroke="#b0a59b" stroke-width="1.51"/><path d="M1092,-13L986,385L1333,117Z" fill="#f9d786" stroke="#f9d786" stroke-width="1.51"/><path d="M1136,823L959,993L1212,1182Z" fill="#c7e8a8" stroke="#c7e8a8" stroke-width="1.51"/><path d="M829,-395L1167,-180L1322,-424Z" fill="#e09a78" stroke="#e09a78" stroke-width="1.51"/><path d="M876,139L986,385L1092,-13Z" fill="#ffda91" stroke="#ffda91" stroke-width="1.51"/><path d="M1212,1182L756,1412L1230,1398Z" fill="#a5c0b9" stroke="#a5c0b9" stroke-width="1.51"/><path d="M959,993L756,1412L1212,1182Z" fill="#b3d7b5" stroke="#b3d7b5" stroke-width="1.51"/><path d="M1055,613L927,694L1136,823Z" fill="#f1f9a9" stroke="#f1f9a9" stroke-width="1.51"/><path d="M829,-395L1092,-13L1167,-180Z" fill="#f3aa7f" stroke="#f3aa7f" stroke-width="1.51"/><path d="M829,-395L709,-7L1092,-13Z" fill="#f9ac7a" stroke="#f9ac7a" stroke-width="1.51"/><path d="M927,694L959,993L1136,823Z" fill="#e3f3ab" stroke="#e3f3ab" stroke-width="1.51"/><path d="M709,-7L876,139L1092,-13Z" fill="#ffc481" stroke="#ffc481" stroke-width="1.51"/><path d="M596,1220L756,1412L959,993Z" fill="#b5cba6" stroke="#b5cba6" stroke-width="1.51"/><path d="M748,502L927,694L986,385Z" fill="#fffab7" stroke="#fffab7" stroke-width="1.51"/><path d="M986,385L927,694L1055,613Z" fill="#fcfebb" stroke="#fcfebb" stroke-width="1.51"/><path d="M927,694L480,849L959,993Z" fill="#e4ea9f" stroke="#e4ea9f" stroke-width="1.51"/><path d="M876,139L748,502L986,385Z" fill="#ffea9d" stroke="#ffea9d" stroke-width="1.51"/><path d="M583,-137L709,-7L829,-395Z" fill="#f39e6d" stroke="#f39e6d" stroke-width="1.51"/><path d="M480,849L596,1220L959,993Z" fill="#ccda99" stroke="#ccda99" stroke-width="1.51"/><path d="M-113,-356L375,-318L629,-438Z" fill="#d96451" stroke="#d96451" stroke-width="1.51"/><path d="M550,445L748,502L876,139Z" fill="#ffe492" stroke="#ffe492" stroke-width="1.51"/><path d="M748,502L480,849L927,694Z" fill="#f6ef9b" stroke="#f6ef9b" stroke-width="1.51"/><path d="M629,-438L583,-137L829,-395Z" fill="#e48e6b" stroke="#e48e6b" stroke-width="1.51"/><path d="M709,-7L550,445L876,139Z" fill="#ffd07f" stroke="#ffd07f" stroke-width="1.51"/><path d="M596,1220L603,1340L756,1412Z" fill="#aeb3a4" stroke="#aeb3a4" stroke-width="1.51"/><path d="M417,382L550,445L709,-7Z" fill="#fece7b" stroke="#fece7b" stroke-width="1.51"/><path d="M550,445L480,849L748,502Z" fill="#fce799" stroke="#fce799" stroke-width="1.51"/><path d="M480,849L362,1136L596,1220Z" fill="#c8c68a" stroke="#c8c68a" stroke-width="1.51"/><path d="M583,-137L373,-127L709,-7Z" fill="#f99b5e" stroke="#f99b5e" stroke-width="1.51"/><path d="M373,-127L417,382L709,-7Z" fill="#fdaf64" stroke="#fdaf64" stroke-width="1.51"/><path d="M205,769L480,849L550,445Z" fill="#f8d583" stroke="#f8d583" stroke-width="1.51"/><path d="M375,-318L583,-137L629,-438Z" fill="#e68360" stroke="#e68360" stroke-width="1.51"/><path d="M417,382L151,614L550,445Z" fill="#ffd087" stroke="#ffd087" stroke-width="1.51"/><path d="M151,614L205,769L550,445Z" fill="#fccc83" stroke="#fccc83" stroke-width="1.51"/><path d="M375,-318L373,-127L583,-137Z" fill="#f0865a" stroke="#f0865a" stroke-width="1.51"/><path d="M596,1220L362,1136L603,1340Z" fill="#b7b694" stroke="#b7b694" stroke-width="1.51"/><path d="M362,1136L161,1264L603,1340Z" fill="#b9a88b" stroke="#b9a88b" stroke-width="1.51"/><path d="M373,-127L145,338L417,382Z" fill="#fdad62" stroke="#fdad62" stroke-width="1.51"/><path d="M-9,115L145,338L373,-127Z" fill="#fa9153" stroke="#fa9153" stroke-width="1.51"/><path d="M205,769L362,1136L480,849Z" fill="#ddc480" stroke="#ddc480" stroke-width="1.51"/><path d="M145,338L151,614L417,382Z" fill="#ffbf7b" stroke="#ffbf7b" stroke-width="1.51"/><path d="M205,769L161,1264L362,1136Z" fill="#ccb17b" stroke="#ccb17b" stroke-width="1.51"/><path d="M-113,-356L-116,-22L373,-127Z" fill="#e95c48" stroke="#e95c48" stroke-width="1.51"/><path d="M-113,-356L373,-127L375,-318Z" fill="#e5644f" stroke="#e5644f" stroke-width="1.51"/><path d="M-116,-22L-9,115L373,-127Z" fill="#f57447" stroke="#f57447" stroke-width="1.51"/><path d="M-134,1084L161,1264L205,769Z" fill="#cda273" stroke="#cda273" stroke-width="1.51"/><path d="M145,338L-72,622L151,614Z" fill="#feb57e" stroke="#feb57e" stroke-width="1.51"/><path d="M-134,1084L-76,1267L161,1264Z" fill="#b68b7a" stroke="#b68b7a" stroke-width="1.51"/><path d="M151,614L-65,770L205,769Z" fill="#f5b46e" stroke="#f5b46e" stroke-width="1.51"/><path d="M-65,770L-134,1084L205,769Z" fill="#dea672" stroke="#dea672" stroke-width="1.51"/><path d="M-72,622L-65,770L151,614Z" fill="#f3af75" stroke="#f3af75" stroke-width="1.51"/><path d="M-367,473L-72,622L-9,115Z" fill="#f09c73" stroke="#f09c73" stroke-width="1.51"/><path d="M-9,115L-72,622L145,338Z" fill="#f8a46a" stroke="#f8a46a" stroke-width="1.51"/><path d="M-244,-291L-283,-110L-116,-22Z" fill="#db4a4b" stroke="#db4a4b" stroke-width="1.51"/><path d="M-244,-291L-116,-22L-113,-356Z" fill="#d9454e" stroke="#d9454e" stroke-width="1.51"/><path d="M-116,-22L-386,224L-9,115Z" fill="#ea7556" stroke="#ea7556" stroke-width="1.51"/><path d="M-386,224L-367,473L-9,115Z" fill="#e58664" stroke="#e58664" stroke-width="1.51"/><path d="M-134,1084L-280,1211L-76,1267Z" fill="#b0847b" stroke="#b0847b" stroke-width="1.51"/><path d="M-409,955L-134,1084L-65,770Z" fill="#ca9577" stroke="#ca9577" stroke-width="1.51"/><path d="M-72,622L-367,473L-65,770Z" fill="#eda37d" stroke="#eda37d" stroke-width="1.51"/><path d="M-367,473L-409,955L-65,770Z" fill="#db9971" stroke="#db9971" stroke-width="1.51"/><path d="M-280,1211L-331,1318L-76,1267Z" fill="#a4737f" stroke="#a4737f" stroke-width="1.51"/><path d="M-283,-110L-386,224L-116,-22Z" fill="#df614e" stroke="#df614e" stroke-width="1.51"/><path d="M-409,955L-280,1211L-134,1084Z" fill="#b18776" stroke="#b18776" stroke-width="1.51"/><path d="M-386,224L-283,-110L-244,-291Z" fill="#d84d47" stroke="#d84d47" stroke-width="1.51"/><path d="M-409,955L-331,1318L-280,1211Z" fill="#a17c76" stroke="#a17c76" stroke-width="1.51"/><path d="M-386,224L-409,955L-367,473Z" fill="#dc947f" stroke="#dc947f" stroke-width="1.51"/></svg>