<svg xmlns="http://www.w3.org/2000/svg" width="1920" height="1080"><path d="M2040,1380L2280,1380L2280,1140Z" fill="#744fff" stroke="#744fff" stroke-width="1.51"/><path d="M2040,1140L2040,1380L2280,1140Z" fill="#6f60ff" stroke="#6f60ff" stroke-width="1.51"/><path d="M2040,1140L2280,1140L2280,900Z" fill="#6b6cff" stroke="#6b6cff" stroke-width="1.51"/><path d="M2040,900L2040,1140L2280,900Z" fill="#647aff" stroke="#647aff" stroke-width="1.51"/><path d="M2040,900L2280,900L2280,660Z" fill="#6184fe" stroke="#6184fe" stroke-width="1.51"/><path d="M2040,660L2040,900L2280,660Z" fill="#628efb" stroke="#628efb" stroke-width="1.51"/><path d="M2040,660L2280,660L2280,420Z" fill="#6d92f4" stroke="#6d92f4" stroke-width="1.51"/><path d="M2040,420L2040,660L2280,420Z" fill="#6c9cf1" stroke="#6c9cf1" stroke-width="1.51"/><path d="M2040,420L2280,420L2280,180Z" fill="#75a1ea" stroke="#75a1ea" stroke-width="1.51"/><path d="M2040,180L2040,420L2280,180Z" fill="#73abe7" stroke="#73abe7" stroke-width="1.51"/><path d="M2040,180L2280,180L2280,-60Z" fill="#8c99ea" stroke="#8c99ea" stroke-width="1.51"/><path d="M2040,-60L2040,180L2280,-60Z" fill="#9493ed" stroke="#9493ed" stroke-width="1.51"/><path d="M2040,-60L2280,-60L2280,-300Z" fill="#a976f3" stroke="#a976f3" stroke-width="1.51"/><path d="M2040,-300L2040,-60L2280,-300Z" fill="#af6ef5" stroke="#af6ef5" stroke-width="1.51"/><path d="M1800,1380L2040,1380L2040,1140Z" fill="#6e63ff" stroke="#6e63ff" stroke-width="1.51"/><path d="M1800,1140L1800,1380L2040,1140Z" fill="#6872ff" stroke="#6872ff" stroke-width="1.51"/><path d="M1800,1140L2040,1140L2040,900Z" fill="#627dff" stroke="#627dff" stroke-width="1.51"/><path d="M1800,900L1800,1140L2040,900Z" fill="#588aff" stroke="#588aff" stroke-width="1.51"/><path d="M1800,900L2040,900L2040,660Z" fill="#5494fe" stroke="#5494fe" stroke-width="1.51"/><path d="M1800,660L1800,900L2040,660Z" fill="#539dfa" stroke="#539dfa" stroke-width="1.51"/><path d="M1800,660L2040,660L2040,420Z" fill="#5fa2f4" stroke="#5fa2f4" stroke-width="1.51"/><path d="M1800,420L1800,660L2040,420Z" fill="#5dacf0" stroke="#5dacf0" stroke-width="1.51"/><path d="M1800,420L2040,420L2040,180Z" fill="#67b1ea" stroke="#67b1ea" stroke-width="1.51"/><path d="M1800,180L1800,420L2040,180Z" fill="#63bae6" stroke="#63bae6" stroke-width="1.51"/><path d="M1800,180L2040,180L2040,-60Z" fill="#82a9e9" stroke="#82a9e9" stroke-width="1.51"/><path d="M1800,-60L1800,180L2040,-60Z" fill="#8ba4ec" stroke="#8ba4ec" stroke-width="1.51"/><path d="M1800,-60L2040,-60L2040,-300Z" fill="#a388f2" stroke="#a388f2" stroke-width="1.51"/><path d="M1800,-300L1800,-60L2040,-300Z" fill="#aa81f5" stroke="#aa81f5" stroke-width="1.51"/><path d="M1560,1380L1800,1380L1800,1140Z" fill="#6775ff" stroke="#6775ff" stroke-width="1.51"/><path d="M1560,1140L1560,1380L1800,1140Z" fill="#5e83ff" stroke="#5e83ff" stroke-width="1.51"/><path d="M1560,1140L1800,1140L1800,900Z" fill="#568eff" stroke="#568eff" stroke-width="1.51"/><path d="M1560,900L1560,1140L1800,900Z" fill="#489aff" stroke="#489aff" stroke-width="1.51"/><path d="M1560,900L1800,900L1800,660Z" fill="#41a3fe" stroke="#41a3fe" stroke-width="1.51"/><path d="M1560,660L1560,900L1800,660Z" fill="#3dadfa" stroke="#3dadfa" stroke-width="1.51"/><path d="M1560,660L1800,660L1800,420Z" fill="#4cb1f3" stroke="#4cb1f3" stroke-width="1.51"/><path d="M1560,420L1560,660L1800,420Z" fill="#47bbf0" stroke="#47bbf0" stroke-width="1.51"/><path d="M1560,420L1800,420L1800,180Z" fill="#54c0e9" stroke="#54c0e9" stroke-width="1.51"/><path d="M1560,180L1560,420L1800,180Z" fill="#4dc9e6" stroke="#4dc9e6" stroke-width="1.51"/><path d="M1560,180L1800,180L1800,-60Z" fill="#75b9e9" stroke="#75b9e9" stroke-width="1.51"/><path d="M1560,-60L1560,180L1800,-60Z" fill="#80b3ec" stroke="#80b3ec" stroke-width="1.51"/><path d="M1560,-60L1800,-60L1800,-300Z" fill="#9c99f2" stroke="#9c99f2" stroke-width="1.51"/><path d="M1560,-300L1560,-60L1800,-300Z" fill="#a493f5" stroke="#a493f5" stroke-width="1.51"/><path d="M1320,1380L1560,1380L1560,1140Z" fill="#5c85ff" stroke="#5c85ff" stroke-width="1.51"/><path d="M1320,1140L1320,1380L1560,1140Z" fill="#5492fe" stroke="#5492fe" stroke-width="1.51"/><path d="M1320,1140L1560,1140L1560,900Z" fill="#449dff" stroke="#449dff" stroke-width="1.51"/><path d="M1320,900L1320,1140L1560,900Z" fill="#34a8fe" stroke="#34a8fe" stroke-width="1.51"/><path d="M1320,900L1560,900L1560,660Z" fill="#1ab2fe" stroke="#1ab2fe" stroke-width="1.51"/><path d="M1320,660L1320,900L1560,660Z" fill="#1abaf9" stroke="#1abaf9" stroke-width="1.51"/><path d="M1320,660L1560,660L1560,420Z" fill="#2dc0f3" stroke="#2dc0f3" stroke-width="1.51"/><path d="M1320,420L1320,660L1560,420Z" fill="#29c9ef" stroke="#29c9ef" stroke-width="1.51"/><path d="M1320,420L1560,420L1560,180Z" fill="#35cee9" stroke="#35cee9" stroke-width="1.51"/><path d="M1320,180L1320,420L1560,180Z" fill="#2ed7e4" stroke="#2ed7e4" stroke-width="1.51"/><path d="M1320,180L1560,180L1560,-60Z" fill="#64c7e9" stroke="#64c7e9" stroke-width="1.51"/><path d="M1320,-60L1320,180L1560,-60Z" fill="#75c2eb" stroke="#75c2eb" stroke-width="1.51"/><path d="M1320,-60L1560,-60L1560,-300Z" fill="#94a9f2" stroke="#94a9f2" stroke-width="1.51"/><path d="M1320,-300L1320,-60L1560,-300Z" fill="#9ea3f4" stroke="#9ea3f4" stroke-width="1.51"/><path d="M1080,1380L1320,1380L1320,1140Z" fill="#6190fa" stroke="#6190fa" stroke-width="1.51"/><path d="M1080,1140L1080,1380L1320,1140Z" fill="#5d9bf8" stroke="#5d9bf8" stroke-width="1.51"/><path d="M1080,1140L1320,1140L1320,900Z" fill="#48a7fa" stroke="#48a7fa" stroke-width="1.51"/><path d="M1080,900L1080,1140L1320,900Z" fill="#3eb2f7" stroke="#3eb2f7" stroke-width="1.51"/><path d="M1080,900L1320,900L1320,660Z" fill="#1dbcf8" stroke="#1dbcf8" stroke-width="1.51"/><path d="M1080,660L1080,900L1320,660Z" fill="#26c4f2" stroke="#26c4f2" stroke-width="1.51"/><path d="M1080,660L1320,660L1320,420Z" fill="#2acaee" stroke="#2acaee" stroke-width="1.51"/><path d="M1080,420L1080,660L1320,420Z" fill="#2dd2e8" stroke="#2dd2e8" stroke-width="1.51"/><path d="M1080,420L1320,420L1320,180Z" fill="#2ed9e3" stroke="#2ed9e3" stroke-width="1.51"/><path d="M1080,180L1080,420L1320,180Z" fill="#2de1dd" stroke="#2de1dd" stroke-width="1.51"/><path d="M1080,180L1320,180L1320,-60Z" fill="#62d2e3" stroke="#62d2e3" stroke-width="1.51"/><path d="M1080,-60L1080,180L1320,-60Z" fill="#77cce4" stroke="#77cce4" stroke-width="1.51"/><path d="M1080,-60L1320,-60L1320,-300Z" fill="#95b5ec" stroke="#95b5ec" stroke-width="1.51"/><path d="M1080,-300L1080,-60L1320,-300Z" fill="#a2aded" stroke="#a2aded" stroke-width="1.51"/><path d="M840,1380L1080,1380L1080,1140Z" fill="#689af3" stroke="#689af3" stroke-width="1.51"/><path d="M840,1140L840,1380L1080,1140Z" fill="#63a5f1" stroke="#63a5f1" stroke-width="1.51"/><path d="M840,1140L1080,1140L1080,900Z" fill="#4fb1f3" stroke="#4fb1f3" stroke-width="1.51"/><path d="M840,900L840,1140L1080,900Z" fill="#45bbf0" stroke="#45bbf0" stroke-width="1.51"/><path d="M840,900L1080,900L1080,660Z" fill="#27c6f1" stroke="#27c6f1" stroke-width="1.51"/><path d="M840,660L840,900L1080,660Z" fill="#2ccdeb" stroke="#2ccdeb" stroke-width="1.51"/><path d="M840,660L1080,660L1080,420Z" fill="#2dd4e7" stroke="#2dd4e7" stroke-width="1.51"/><path d="M840,420L840,660L1080,420Z" fill="#2edce1" stroke="#2edce1" stroke-width="1.51"/><path d="M840,420L1080,420L1080,180Z" fill="#2ce2dc" stroke="#2ce2dc" stroke-width="1.51"/><path d="M840,180L840,420L1080,180Z" fill="#28ead6" stroke="#28ead6" stroke-width="1.51"/><path d="M840,180L1080,180L1080,-60Z" fill="#62dcdc" stroke="#62dcdc" stroke-width="1.51"/><path d="M840,-60L840,180L1080,-60Z" fill="#78d5dc" stroke="#78d5dc" stroke-width="1.51"/><path d="M840,-60L1080,-60L1080,-300Z" fill="#98bfe5" stroke="#98bfe5" stroke-width="1.51"/><path d="M840,-300L840,-60L1080,-300Z" fill="#a5b7e6" stroke="#a5b7e6" stroke-width="1.51"/><path d="M600,1380L840,1380L840,1140Z" fill="#6ea4ed" stroke="#6ea4ed" stroke-width="1.51"/><path d="M600,1140L600,1380L840,1140Z" fill="#68afeb" stroke="#68afeb" stroke-width="1.51"/><path d="M600,1140L840,1140L840,900Z" fill="#54baec" stroke="#54baec" stroke-width="1.51"/><path d="M600,900L600,1140L840,900Z" fill="#49c5ea" stroke="#49c5ea" stroke-width="1.51"/><path d="M600,900L840,900L840,660Z" fill="#2ccfea" stroke="#2ccfea" stroke-width="1.51"/><path d="M600,660L600,900L840,660Z" fill="#2ed7e4" stroke="#2ed7e4" stroke-width="1.51"/><path d="M600,660L840,660L840,420Z" fill="#2ddde0" stroke="#2ddde0" stroke-width="1.51"/><path d="M600,420L600,660L840,420Z" fill="#2be6da" stroke="#2be6da" stroke-width="1.51"/><path d="M600,420L840,420L840,180Z" fill="#26ecd5" stroke="#26ecd5" stroke-width="1.51"/><path d="M600,180L600,420L840,180Z" fill="#1ef4cf" stroke="#1ef4cf" stroke-width="1.51"/><path d="M600,180L840,180L840,-60Z" fill="#61e6d4" stroke="#61e6d4" stroke-width="1.51"/><path d="M600,-60L600,180L840,-60Z" fill="#79e0d6" stroke="#79e0d6" stroke-width="1.51"/><path d="M600,-60L840,-60L840,-300Z" fill="#99c9df" stroke="#99c9df" stroke-width="1.51"/><path d="M600,-300L600,-60L840,-300Z" fill="#a7c2e0" stroke="#a7c2e0" stroke-width="1.51"/><path d="M360,1380L600,1380L600,1140Z" fill="#72aee7" stroke="#72aee7" stroke-width="1.51"/><path d="M360,1140L360,1380L600,1140Z" fill="#71b4e6" stroke="#71b4e6" stroke-width="1.51"/><path d="M360,1140L600,1140L600,900Z" fill="#58c4e6" stroke="#58c4e6" stroke-width="1.51"/><path d="M360,900L360,1140L600,900Z" fill="#55cae5" stroke="#55cae5" stroke-width="1.51"/><path d="M360,900L600,900L600,660Z" fill="#2ed9e3" stroke="#2ed9e3" stroke-width="1.51"/><path d="M360,660L360,900L600,660Z" fill="#3edce0" stroke="#3edce0" stroke-width="1.51"/><path d="M360,660L600,660L600,420Z" fill="#2ae7d8" stroke="#2ae7d8" stroke-width="1.51"/><path d="M360,420L360,660L600,420Z" fill="#3aebd5" stroke="#3aebd5" stroke-width="1.51"/><path d="M360,420L600,420L600,180Z" fill="#1bf6cd" stroke="#1bf6cd" stroke-width="1.51"/><path d="M360,180L360,420L600,180Z" fill="#2ffac9" stroke="#2ffac9" stroke-width="1.51"/><path d="M360,180L600,180L600,-60Z" fill="#5ff0cd" stroke="#5ff0cd" stroke-width="1.51"/><path d="M360,-60L360,180L600,-60Z" fill="#7fe5d1" stroke="#7fe5d1" stroke-width="1.51"/><path d="M360,-60L600,-60L600,-300Z" fill="#9bd3d8" stroke="#9bd3d8" stroke-width="1.51"/><path d="M360,-300L360,-60L600,-300Z" fill="#acc7db" stroke="#acc7db" stroke-width="1.51"/><path d="M120,1380L360,1380L360,1140Z" fill="#8a9eea" stroke="#8a9eea" stroke-width="1.51"/><path d="M120,1140L120,1380L360,1140Z" fill="#8d9fec" stroke="#8d9fec" stroke-width="1.51"/><path d="M120,1140L360,1140L360,900Z" fill="#79b6e9" stroke="#79b6e9" stroke-width="1.51"/><path d="M120,900L120,1140L360,900Z" fill="#7db6ec" stroke="#7db6ec" stroke-width="1.51"/><path d="M120,900L360,900L360,660Z" fill="#65cbe7" stroke="#65cbe7" stroke-width="1.51"/><path d="M120,660L120,900L360,660Z" fill="#73c9e6" stroke="#73c9e6" stroke-width="1.51"/><path d="M120,660L360,660L360,420Z" fill="#66d9dd" stroke="#66d9dd" stroke-width="1.51"/><path d="M120,420L120,660L360,420Z" fill="#75d8db" stroke="#75d8db" stroke-width="1.51"/><path d="M120,420L360,420L360,180Z" fill="#65e8d2" stroke="#65e8d2" stroke-width="1.51"/><path d="M120,180L120,420L360,180Z" fill="#74e7d1" stroke="#74e7d1" stroke-width="1.51"/><path d="M120,180L360,180L360,-60Z" fill="#85e2d2" stroke="#85e2d2" stroke-width="1.51"/><path d="M120,-60L120,180L360,-60Z" fill="#a0d1d8" stroke="#a0d1d8" stroke-width="1.51"/><path d="M120,-60L360,-60L360,-300Z" fill="#b1c4dc" stroke="#b1c4dc" stroke-width="1.51"/><path d="M120,-300L120,-60L360,-300Z" fill="#c3b1e1" stroke="#c3b1e1" stroke-width="1.51"/><path d="M-120,1380L120,1380L120,1140Z" fill="#9f88f0" stroke="#9f88f0" stroke-width="1.51"/><path d="M-120,1140L-120,1380L120,1140Z" fill="#a289f2" stroke="#a289f2" stroke-width="1.51"/><path d="M-120,1140L120,1140L120,900Z" fill="#94a1f0" stroke="#94a1f0" stroke-width="1.51"/><path d="M-120,900L-120,1140L120,900Z" fill="#97a2f2" stroke="#97a2f2" stroke-width="1.51"/><path d="M-120,900L120,900L120,660Z" fill="#88b7ee" stroke="#88b7ee" stroke-width="1.51"/><path d="M-120,660L-120,900L120,660Z" fill="#93b5ec" stroke="#93b5ec" stroke-width="1.51"/><path d="M-120,660L120,660L120,420Z" fill="#8cc6e3" stroke="#8cc6e3" stroke-width="1.51"/><path d="M-120,420L-120,660L120,420Z" fill="#96c5e2" stroke="#96c5e2" stroke-width="1.51"/><path d="M-120,420L120,420L120,180Z" fill="#8ed5d9" stroke="#8ed5d9" stroke-width="1.51"/><path d="M-120,180L-120,420L120,180Z" fill="#98d4d8" stroke="#98d4d8" stroke-width="1.51"/><path d="M-120,180L120,180L120,-60Z" fill="#a4ced9" stroke="#a4ced9" stroke-width="1.51"/><path d="M-120,-60L-120,180L120,-60Z" fill="#b8bcde" stroke="#b8bcde" stroke-width="1.51"/><path d="M-120,-60L120,-60L120,-300Z" fill="#c6aee3" stroke="#c6aee3" stroke-width="1.51"/><path d="M-120,-300L-120,-60L120,-300Z" fill="#d59ae8" stroke="#d59ae8" stroke-width="1.51"/><path d="M-360,1380L-120,1380L-120,1140Z" fill="#b06df6" stroke="#b06df6" stroke-width="1.51"/><path d="M-360,1140L-360,1380L-120,1140Z" fill="#b36ef8" stroke="#b36ef8" stroke-width="1.51"/><path d="M-360,1140L-120,1140L-120,900Z" fill="#a98af6" stroke="#a98af6" stroke-width="1.51"/><path d="M-360,900L-360,1140L-120,900Z" fill="#ab8af7" stroke="#ab8af7" stroke-width="1.51"/><path d="M-360,900L-120,900L-120,660Z" fill="#a1a2f4" stroke="#a1a2f4" stroke-width="1.51"/><path d="M-360,660L-360,900L-120,660Z" fill="#a9a0f2" stroke="#a9a0f2" stroke-width="1.51"/><path d="M-360,660L-120,660L-120,420Z" fill="#a6b1ea" stroke="#a6b1ea" stroke-width="1.51"/><path d="M-360,420L-360,660L-120,420Z" fill="#aeb0e8" stroke="#aeb0e8" stroke-width="1.51"/><path d="M-360,420L-120,420L-120,180Z" fill="#a9c1df" stroke="#a9c1df" stroke-width="1.51"/><path d="M-360,180L-360,420L-120,180Z" fill="#b2bfde" stroke="#b2bfde" stroke-width="1.51"/><path d="M-360,180L-120,180L-120,-60Z" fill="#bcb8df" stroke="#bcb8df" stroke-width="1.51"/><path d="M-360,-60L-360,180L-120,-60Z" fill="#cca6e4" stroke="#cca6e4" stroke-width="1.51"/><path d="M-360,-60L-120,-60L-120,-300Z" fill="#d895e9" stroke="#d895e9" stroke-width="1.51"/><path d="M-360,-300L-360,-60L-120,-300Z" fill="#e47eee" stroke="#e47eee" stroke-width="1.51"/></svg>