<svg xmlns="http://www.w3.org/2000/svg" width="1920" height="1080"><path d="M1230,1398L756,1412L1398,1432Z" fill="#7c4c8e" stroke="#7c4c8e" stroke-width="1.51"/><path d="M1922,904L1917,1010L2183,750Z" fill="#883d93" stroke="#883d93" stroke-width="1.51"/><path d="M1841,189L2184,432L2285,356Z" fill="#8f6aa3" stroke="#8f6aa3" stroke-width="1.51"/><path d="M2184,432L2183,750L2285,356Z" fill="#7e5894" stroke="#7e5894" stroke-width="1.51"/><path d="M1937,-208L1862,-79L2286,-162Z" fill="#b182b5" stroke="#b182b5" stroke-width="1.51"/><path d="M1841,189L2285,356L2286,-162Z" fill="#9872a6" stroke="#9872a6" stroke-width="1.51"/><path d="M1862,-79L1841,189L2286,-162Z" fill="#a97eb3" stroke="#a97eb3" stroke-width="1.51"/><path d="M1322,-424L1759,-353L2306,-267Z" fill="#bc94c4" stroke="#bc94c4" stroke-width="1.51"/><path d="M1759,-353L1937,-208L2306,-267Z" fill="#b888b9" stroke="#b888b9" stroke-width="1.51"/><path d="M2286,-162L2285,356L2306,-267Z" fill="#94739e" stroke="#94739e" stroke-width="1.51"/><path d="M2183,750L1917,1010L2314,1162Z" fill="#7e3187" stroke="#7e3187" stroke-width="1.51"/><path d="M2285,356L2183,750L2314,1162Z" fill="#774187" stroke="#774187" stroke-width="1.51"/><path d="M2306,-267L2285,356L2314,1162Z" fill="#7b5c91" stroke="#7b5c91" stroke-width="1.51"/><path d="M1816,1321L1398,1432L2315,1273Z" fill="#7d1e7f" stroke="#7d1e7f" stroke-width="1.51"/><path d="M2314,1162L1917,1010L2315,1273Z" fill="#781e7a" stroke="#781e7a" stroke-width="1.51"/><path d="M1917,1010L1816,1321L2315,1273Z" fill="#831d82" stroke="#831d82" stroke-width="1.51"/><path d="M1937,-208L2286,-162L2306,-267Z" fill="#a97fab" stroke="#a97fab" stroke-width="1.51"/><path d="M629,-438L829,-395L1322,-424Z" fill="#c1c9e2" stroke="#c1c9e2" stroke-width="1.51"/><path d="M1918,659L1922,904L2183,750Z" fill="#894898" stroke="#894898" stroke-width="1.51"/><path d="M1918,659L2183,750L2184,432Z" fill="#865399" stroke="#865399" stroke-width="1.51"/><path d="M1798,430L1918,659L2184,432Z" fill="#8d62a5" stroke="#8d62a5" stroke-width="1.51"/><path d="M1841,189L1798,430L2184,432Z" fill="#946fac" stroke="#946fac" stroke-width="1.51"/><path d="M1581,1195L1614,1259L1816,1321Z" fill="#852f8e" stroke="#852f8e" stroke-width="1.51"/><path d="M1581,1195L1816,1321L1917,1010Z" fill="#86308f" stroke="#86308f" stroke-width="1.51"/><path d="M1918,659L1636,710L1922,904Z" fill="#8a53a1" stroke="#8a53a1" stroke-width="1.51"/><path d="M1759,-353L1862,-79L1937,-208Z" fill="#b68dbf" stroke="#b68dbf" stroke-width="1.51"/><path d="M1636,710L1581,1195L1917,1010Z" fill="#88459d" stroke="#88459d" stroke-width="1.51"/><path d="M1798,430L1636,710L1918,659Z" fill="#8c63aa" stroke="#8c63aa" stroke-width="1.51"/><path d="M1636,710L1917,1010L1922,904Z" fill="#89489c" stroke="#89489c" stroke-width="1.51"/><path d="M1384,943L1581,1195L1636,710Z" fill="#8a52a4" stroke="#8a52a4" stroke-width="1.51"/><path d="M1614,1259L1398,1432L1816,1321Z" fill="#802f89" stroke="#802f89" stroke-width="1.51"/><path d="M1530,389L1798,430L1841,189Z" fill="#957ab7" stroke="#957ab7" stroke-width="1.51"/><path d="M1545,38L1841,189L1862,-79Z" fill="#a687be" stroke="#a687be" stroke-width="1.51"/><path d="M1759,-353L1545,38L1862,-79Z" fill="#b190c4" stroke="#b190c4" stroke-width="1.51"/><path d="M1545,38L1530,389L1841,189Z" fill="#9c86be" stroke="#9c86be" stroke-width="1.51"/><path d="M1412,-43L1545,38L1759,-353Z" fill="#b198c9" stroke="#b198c9" stroke-width="1.51"/><path d="M1530,389L1636,710L1798,430Z" fill="#8e71b3" stroke="#8e71b3" stroke-width="1.51"/><path d="M1322,-424L1412,-43L1759,-353Z" fill="#b9a2ce" stroke="#b9a2ce" stroke-width="1.51"/><path d="M161,1264L-331,1318L756,1412Z" fill="#a379ac" stroke="#a379ac" stroke-width="1.51"/><path d="M1333,117L1530,389L1545,38Z" fill="#9e90c3" stroke="#9e90c3" stroke-width="1.51"/><path d="M1530,389L1411,448L1636,710Z" fill="#8e77b6" stroke="#8e77b6" stroke-width="1.51"/><path d="M1411,448L1384,943L1636,710Z" fill="#8c6ab0" stroke="#8c6ab0" stroke-width="1.51"/><path d="M1384,943L1370,1208L1581,1195Z" fill="#894a9e" stroke="#894a9e" stroke-width="1.51"/><path d="M1581,1195L1370,1208L1614,1259Z" fill="#873d95" stroke="#873d95" stroke-width="1.51"/><path d="M1370,1208L1398,1432L1614,1259Z" fill="#863b91" stroke="#863b91" stroke-width="1.51"/><path d="M1136,823L1384,943L1411,448Z" fill="#8c70b3" stroke="#8c70b3" stroke-width="1.51"/><path d="M1322,-424L1167,-180L1412,-43Z" fill="#b7abd3" stroke="#b7abd3" stroke-width="1.51"/><path d="M1333,117L1411,448L1530,389Z" fill="#968cc1" stroke="#968cc1" stroke-width="1.51"/><path d="M1412,-43L1333,117L1545,38Z" fill="#a798c8" stroke="#a798c8" stroke-width="1.51"/><path d="M1212,1182L1370,1208L1384,943Z" fill="#8a51a2" stroke="#8a51a2" stroke-width="1.51"/><path d="M1370,1208L1230,1398L1398,1432Z" fill="#82418f" stroke="#82418f" stroke-width="1.51"/><path d="M1333,117L986,385L1411,448Z" fill="#9596c6" stroke="#9596c6" stroke-width="1.51"/><path d="M1055,613L1136,823L1411,448Z" fill="#8d80bb" stroke="#8d80bb" stroke-width="1.51"/><path d="M1092,-13L1333,117L1412,-43Z" fill="#a8a2cd" stroke="#a8a2cd" stroke-width="1.51"/><path d="M1167,-180L1092,-13L1412,-43Z" fill="#aea9d1" stroke="#aea9d1" stroke-width="1.51"/><path d="M986,385L1055,613L1411,448Z" fill="#8f8fc3" stroke="#8f8fc3" stroke-width="1.51"/><path d="M-76,1267L-331,1318L161,1264Z" fill="#b485b7" stroke="#b485b7" stroke-width="1.51"/><path d="M1212,1182L1230,1398L1370,1208Z" fill="#894a99" stroke="#894a99" stroke-width="1.51"/><path d="M1136,823L1212,1182L1384,943Z" fill="#8b60ab" stroke="#8b60ab" stroke-width="1.51"/><path d="M603,1340L161,1264L756,1412Z" fill="#946fa6" stroke="#946fa6" stroke-width="1.51"/><path d="M1092,-13L986,385L1333,117Z" fill="#9ea4ce" stroke="#9ea4ce" stroke-width="1.51"/><path d="M1136,823L959,993L1212,1182Z" fill="#8c67af" stroke="#8c67af" stroke-width="1.51"/><path d="M829,-395L1167,-180L1322,-424Z" fill="#bcbbdb" stroke="#bcbbdb" stroke-width="1.51"/><path d="M876,139L986,385L1092,-13Z" fill="#9dadd2" stroke="#9dadd2" stroke-width="1.51"/><path d="M1212,1182L756,1412L1230,1398Z" fill="#865399" stroke="#865399" stroke-width="1.51"/><path d="M959,993L756,1412L1212,1182Z" fill="#8c62a6" stroke="#8c62a6" stroke-width="1.51"/><path d="M1055,613L927,694L1136,823Z" fill="#8d83bc" stroke="#8d83bc" stroke-width="1.51"/><path d="M829,-395L1092,-13L1167,-180Z" fill="#b5bbda" stroke="#b5bbda" stroke-width="1.51"/><path d="M829,-395L709,-7L1092,-13Z" fill="#b4c1dd" stroke="#b4c1dd" stroke-width="1.51"/><path d="M927,694L959,993L1136,823Z" fill="#8d7ab8" stroke="#8d7ab8" stroke-width="1.51"/><path d="M709,-7L876,139L1092,-13Z" fill="#a8b8d8" stroke="#a8b8d8" stroke-width="1.51"/><path d="M596,1220L756,1412L959,993Z" fill="#926cab" stroke="#926cab" stroke-width="1.51"/><path d="M748,502L927,694L986,385Z" fill="#8f9bc9" stroke="#8f9bc9" stroke-width="1.51"/><path d="M986,385L927,694L1055,613Z" fill="#8c93c4" stroke="#8c93c4" stroke-width="1.51"/><path d="M927,694L480,849L959,993Z" fill="#9185be" stroke="#9185be" stroke-width="1.51"/><path d="M876,139L748,502L986,385Z" fill="#96a9d0" stroke="#96a9d0" stroke-width="1.51"/><path d="M583,-137L709,-7L829,-395Z" fill="#bbcde3" stroke="#bbcde3" stroke-width="1.51"/><path d="M480,849L596,1220L959,993Z" fill="#947dba" stroke="#947dba" stroke-width="1.51"/><path d="M-113,-356L375,-318L629,-438Z" fill="#d5e3ef" stroke="#d5e3ef" stroke-width="1.51"/><path d="M550,445L748,502L876,139Z" fill="#99b0d3" stroke="#99b0d3" stroke-width="1.51"/><path d="M748,502L480,849L927,694Z" fill="#9397c7" stroke="#9397c7" stroke-width="1.51"/><path d="M629,-438L583,-137L829,-395Z" fill="#c3d3e7" stroke="#c3d3e7" stroke-width="1.51"/><path d="M709,-7L550,445L876,139Z" fill="#a2bad9" stroke="#a2bad9" stroke-width="1.51"/><path d="M596,1220L603,1340L756,1412Z" fill="#916ba5" stroke="#916ba5" stroke-width="1.51"/><path d="M417,382L550,445L709,-7Z" fill="#a1bedb" stroke="#a1bedb" stroke-width="1.51"/><path d="M550,445L480,849L748,502Z" fill="#96a4cd" stroke="#96a4cd" stroke-width="1.51"/><path d="M480,849L362,1136L596,1220Z" fill="#9c82bb" stroke="#9c82bb" stroke-width="1.51"/><path d="M583,-137L373,-127L709,-7Z" fill="#bacfe5" stroke="#bacfe5" stroke-width="1.51"/><path d="M373,-127L417,382L709,-7Z" fill="#b1c9e1" stroke="#b1c9e1" stroke-width="1.51"/><path d="M205,769L480,849L550,445Z" fill="#9fa2cd" stroke="#9fa2cd" stroke-width="1.51"/><path d="M375,-318L583,-137L629,-438Z" fill="#c7d9ea" stroke="#c7d9ea" stroke-width="1.51"/><path d="M417,382L151,614L550,445Z" fill="#a2b5d6" stroke="#a2b5d6" stroke-width="1.51"/><path d="M151,614L205,769L550,445Z" fill="#a4acd2" stroke="#a4acd2" stroke-width="1.51"/><path d="M375,-318L373,-127L583,-137Z" fill="#c6d8e9" stroke="#c6d8e9" stroke-width="1.51"/><path d="M596,1220L362,1136L603,1340Z" fill="#9a75af" stroke="#9a75af" stroke-width="1.51"/><path d="M362,1136L161,1264L603,1340Z" fill="#a079b1" stroke="#a079b1" stroke-width="1.51"/><path d="M373,-127L145,338L417,382Z" fill="#b2cae1" stroke="#b2cae1" stroke-width="1.51"/><path d="M-9,115L145,338L373,-127Z" fill="#bed2e6" stroke="#bed2e6" stroke-width="1.51"/><path d="M205,769L362,1136L480,849Z" fill="#a291c5" stroke="#a291c5" stroke-width="1.51"/><path d="M145,338L151,614L417,382Z" fill="#aabcda" stroke="#aabcda" stroke-width="1.51"/><path d="M205,769L161,1264L362,1136Z" fill="#a789c0" stroke="#a789c0" stroke-width="1.51"/><path d="M-113,-356L-116,-22L373,-127Z" fill="#d6e4f0" stroke="#d6e4f0" stroke-width="1.51"/><path d="M-113,-356L373,-127L375,-318Z" fill="#d4e2ee" stroke="#d4e2ee" stroke-width="1.51"/><path d="M-116,-22L-9,115L373,-127Z" fill="#cadbeb" stroke="#cadbeb" stroke-width="1.51"/><path d="M-134,1084L161,1264L205,769Z" fill="#ae90c5" stroke="#ae90c5" stroke-width="1.51"/><path d="M145,338L-72,622L151,614Z" fill="#aebbda" stroke="#aebbda" stroke-width="1.51"/><path d="M-134,1084L-76,1267L161,1264Z" fill="#b187bb" stroke="#b187bb" stroke-width="1.51"/><path d="M151,614L-65,770L205,769Z" fill="#adaad1" stroke="#adaad1" stroke-width="1.51"/><path d="M-65,770L-134,1084L205,769Z" fill="#b29fcd" stroke="#b29fcd" stroke-width="1.51"/><path d="M-72,622L-65,770L151,614Z" fill="#b2b1d5" stroke="#b2b1d5" stroke-width="1.51"/><path d="M-367,473L-72,622L-9,115Z" fill="#bdcce3" stroke="#bdcce3" stroke-width="1.51"/><path d="M-9,115L-72,622L145,338Z" fill="#b7cae2" stroke="#b7cae2" stroke-width="1.51"/><path d="M-244,-291L-283,-110L-116,-22Z" fill="#dfebf3" stroke="#dfebf3" stroke-width="1.51"/><path d="M-244,-291L-116,-22L-113,-356Z" fill="#e2edf5" stroke="#e2edf5" stroke-width="1.51"/><path d="M-116,-22L-386,224L-9,115Z" fill="#cedeec" stroke="#cedeec" stroke-width="1.51"/><path d="M-386,224L-367,473L-9,115Z" fill="#c5d8e9" stroke="#c5d8e9" stroke-width="1.51"/><path d="M-134,1084L-280,1211L-76,1267Z" fill="#b78dbe" stroke="#b78dbe" stroke-width="1.51"/><path d="M-409,955L-134,1084L-65,770Z" fill="#b9a0cd" stroke="#b9a0cd" stroke-width="1.51"/><path d="M-72,622L-367,473L-65,770Z" fill="#b9bada" stroke="#b9bada" stroke-width="1.51"/><path d="M-367,473L-409,955L-65,770Z" fill="#bcb3d7" stroke="#bcb3d7" stroke-width="1.51"/><path d="M-280,1211L-331,1318L-76,1267Z" fill="#b989ba" stroke="#b989ba" stroke-width="1.51"/><path d="M-283,-110L-386,224L-116,-22Z" fill="#d5e3ef" stroke="#d5e3ef" stroke-width="1.51"/><path d="M-409,955L-280,1211L-134,1084Z" fill="#bb96c7" stroke="#bb96c7" stroke-width="1.51"/><path d="M-386,224L-283,-110L-244,-291Z" fill="#dde9f2" stroke="#dde9f2" stroke-width="1.51"/><path d="M-409,955L-331,1318L-280,1211Z" fill="#bd92c3" stroke="#bd92c3" stroke-width="1.51"/><path d="M-386,224L-409,955L-367,473Z" fill="#bfc5e0" stroke="#bfc5e0" stroke-width="1.51"/></svg>