<svg xmlns="http://www.w3.org/2000/svg" width="1920" height="1080"><path d="M1980,1260L2100,1260L2100,1140Z" fill="#5f006f" stroke="#5f006f" stroke-width="1.51"/><path d="M1980,1140L1980,1260L2100,1140Z" fill="#660072" stroke="#660072" stroke-width="1.51"/><path d="M1980,1140L2100,1140L2100,1020Z" fill="#6e0073" stroke="#6e0073" stroke-width="1.51"/><path d="M1980,1020L1980,1140L2100,1020Z" fill="#760075" stroke="#760075" stroke-width="1.51"/><path d="M1980,1020L2100,1020L2100,900Z" fill="#7e0075" stroke="#7e0075" stroke-width="1.51"/><path d="M1980,900L1980,1020L2100,900Z" fill="#860077" stroke="#860077" stroke-width="1.51"/><path d="M1980,900L2100,900L2100,780Z" fill="#8d097b" stroke="#8d097b" stroke-width="1.51"/><path d="M1980,780L1980,900L2100,780Z" fill="#94107e" stroke="#94107e" stroke-width="1.51"/><path d="M1980,780L2100,780L2100,660Z" fill="#9b1882" stroke="#9b1882" stroke-width="1.51"/><path d="M1980,660L1980,780L2100,660Z" fill="#a12085" stroke="#a12085" stroke-width="1.51"/><path d="M1980,660L2100,660L2100,540Z" fill="#a22c86" stroke="#a22c86" stroke-width="1.51"/><path d="M1980,540L1980,660L2100,540Z" fill="#a83288" stroke="#a83288" stroke-width="1.51"/><path d="M1980,540L2100,540L2100,420Z" fill="#a83d8a" stroke="#a83d8a" stroke-width="1.51"/><path d="M1980,420L1980,540L2100,420Z" fill="#ac448d" stroke="#ac448d" stroke-width="1.51"/><path d="M1980,420L2100,420L2100,300Z" fill="#a94f90" stroke="#a94f90" stroke-width="1.51"/><path d="M1980,300L1980,420L2100,300Z" fill="#ad5693" stroke="#ad5693" stroke-width="1.51"/><path d="M1980,300L2100,300L2100,180Z" fill="#aa5d94" stroke="#aa5d94" stroke-width="1.51"/><path d="M1980,180L1980,300L2100,180Z" fill="#ae6296" stroke="#ae6296" stroke-width="1.51"/><path d="M1980,180L2100,180L2100,60Z" fill="#ab6898" stroke="#ab6898" stroke-width="1.51"/><path d="M1980,60L1980,180L2100,60Z" fill="#ae6c9c" stroke="#ae6c9c" stroke-width="1.51"/><path d="M1980,60L2100,60L2100,-60Z" fill="#ac71a0" stroke="#ac71a0" stroke-width="1.51"/><path d="M1980,-60L1980,60L2100,-60Z" fill="#af75a4" stroke="#af75a4" stroke-width="1.51"/><path d="M1980,-60L2100,-60L2100,-180Z" fill="#ad78a8" stroke="#ad78a8" stroke-width="1.51"/><path d="M1980,-180L1980,-60L2100,-180Z" fill="#b07bab" stroke="#b07bab" stroke-width="1.51"/><path d="M1860,1260L1980,1260L1980,1140Z" fill="#680072" stroke="#680072" stroke-width="1.51"/><path d="M1860,1140L1860,1260L1980,1140Z" fill="#700074" stroke="#700074" stroke-width="1.51"/><path d="M1860,1140L1980,1140L1980,1020Z" fill="#770076" stroke="#770076" stroke-width="1.51"/><path d="M1860,1020L1860,1140L1980,1020Z" fill="#800177" stroke="#800177" stroke-width="1.51"/><path d="M1860,1020L1980,1020L1980,900Z" fill="#870078" stroke="#870078" stroke-width="1.51"/><path d="M1860,900L1860,1020L1980,900Z" fill="#90007a" stroke="#90007a" stroke-width="1.51"/><path d="M1860,900L1980,900L1980,780Z" fill="#960a7e" stroke="#960a7e" stroke-width="1.51"/><path d="M1860,780L1860,900L1980,780Z" fill="#9e1281" stroke="#9e1281" stroke-width="1.51"/><path d="M1860,780L1980,780L1980,660Z" fill="#a41a85" stroke="#a41a85" stroke-width="1.51"/><path d="M1860,660L1860,780L1980,660Z" fill="#aa2287" stroke="#aa2287" stroke-width="1.51"/><path d="M1860,660L1980,660L1980,540Z" fill="#ac2e89" stroke="#ac2e89" stroke-width="1.51"/><path d="M1860,540L1860,660L1980,540Z" fill="#b2358a" stroke="#b2358a" stroke-width="1.51"/><path d="M1860,540L1980,540L1980,420Z" fill="#b23f8d" stroke="#b23f8d" stroke-width="1.51"/><path d="M1860,420L1860,540L1980,420Z" fill="#b6478f" stroke="#b6478f" stroke-width="1.51"/><path d="M1860,420L1980,420L1980,300Z" fill="#b35293" stroke="#b35293" stroke-width="1.51"/><path d="M1860,300L1860,420L1980,300Z" fill="#b75995" stroke="#b75995" stroke-width="1.51"/><path d="M1860,300L1980,300L1980,180Z" fill="#b46097" stroke="#b46097" stroke-width="1.51"/><path d="M1860,180L1860,300L1980,180Z" fill="#b86599" stroke="#b86599" stroke-width="1.51"/><path d="M1860,180L1980,180L1980,60Z" fill="#b56b9b" stroke="#b56b9b" stroke-width="1.51"/><path d="M1860,60L1860,180L1980,60Z" fill="#b9709e" stroke="#b9709e" stroke-width="1.51"/><path d="M1860,60L1980,60L1980,-60Z" fill="#b674a3" stroke="#b674a3" stroke-width="1.51"/><path d="M1860,-60L1860,60L1980,-60Z" fill="#ba78a7" stroke="#ba78a7" stroke-width="1.51"/><path d="M1860,-60L1980,-60L1980,-180Z" fill="#b77bab" stroke="#b77bab" stroke-width="1.51"/><path d="M1860,-180L1860,-60L1980,-180Z" fill="#bb7fae" stroke="#bb7fae" stroke-width="1.51"/><path d="M1740,1260L1860,1260L1860,1140Z" fill="#720075" stroke="#720075" stroke-width="1.51"/><path d="M1740,1140L1740,1260L1860,1140Z" fill="#7a0076" stroke="#7a0076" stroke-width="1.51"/><path d="M1740,1140L1860,1140L1860,1020Z" fill="#810178" stroke="#810178" stroke-width="1.51"/><path d="M1740,1020L1740,1140L1860,1020Z" fill="#8a0179" stroke="#8a0179" stroke-width="1.51"/><path d="M1740,1020L1860,1020L1860,900Z" fill="#91017a" stroke="#91017a" stroke-width="1.51"/><path d="M1740,900L1740,1020L1860,900Z" fill="#9a017c" stroke="#9a017c" stroke-width="1.51"/><path d="M1740,900L1860,900L1860,780Z" fill="#a00c80" stroke="#a00c80" stroke-width="1.51"/><path d="M1740,780L1740,900L1860,780Z" fill="#a81383" stroke="#a81383" stroke-width="1.51"/><path d="M1740,780L1860,780L1860,660Z" fill="#ae1c87" stroke="#ae1c87" stroke-width="1.51"/><path d="M1740,660L1740,780L1860,660Z" fill="#b52489" stroke="#b52489" stroke-width="1.51"/><path d="M1740,660L1860,660L1860,540Z" fill="#b6308b" stroke="#b6308b" stroke-width="1.51"/><path d="M1740,540L1740,660L1860,540Z" fill="#bc378c" stroke="#bc378c" stroke-width="1.51"/><path d="M1740,540L1860,540L1860,420Z" fill="#bc428f" stroke="#bc428f" stroke-width="1.51"/><path d="M1740,420L1740,540L1860,420Z" fill="#c04a91" stroke="#c04a91" stroke-width="1.51"/><path d="M1740,420L1860,420L1860,300Z" fill="#bd5595" stroke="#bd5595" stroke-width="1.51"/><path d="M1740,300L1740,420L1860,300Z" fill="#c15c97" stroke="#c15c97" stroke-width="1.51"/><path d="M1740,300L1860,300L1860,180Z" fill="#be6399" stroke="#be6399" stroke-width="1.51"/><path d="M1740,180L1740,300L1860,180Z" fill="#c3699b" stroke="#c3699b" stroke-width="1.51"/><path d="M1740,180L1860,180L1860,60Z" fill="#c06f9d" stroke="#c06f9d" stroke-width="1.51"/><path d="M1740,60L1740,180L1860,60Z" fill="#c373a0" stroke="#c373a0" stroke-width="1.51"/><path d="M1740,60L1860,60L1860,-60Z" fill="#c177a5" stroke="#c177a5" stroke-width="1.51"/><path d="M1740,-60L1740,60L1860,-60Z" fill="#c57ca9" stroke="#c57ca9" stroke-width="1.51"/><path d="M1740,-60L1860,-60L1860,-180Z" fill="#c27fad" stroke="#c27fad" stroke-width="1.51"/><path d="M1740,-180L1740,-60L1860,-180Z" fill="#c683b0" stroke="#c683b0" stroke-width="1.51"/><path d="M1620,1260L1740,1260L1740,1140Z" fill="#7d0076" stroke="#7d0076" stroke-width="1.51"/><path d="M1620,1140L1620,1260L1740,1140Z" fill="#850078" stroke="#850078" stroke-width="1.51"/><path d="M1620,1140L1740,1140L1740,1020Z" fill="#8c007a" stroke="#8c007a" stroke-width="1.51"/><path d="M1620,1020L1620,1140L1740,1020Z" fill="#94017b" stroke="#94017b" stroke-width="1.51"/><path d="M1620,1020L1740,1020L1740,900Z" fill="#9c007c" stroke="#9c007c" stroke-width="1.51"/><path d="M1620,900L1620,1020L1740,900Z" fill="#a4017d" stroke="#a4017d" stroke-width="1.51"/><path d="M1620,900L1740,900L1740,780Z" fill="#aa0d81" stroke="#aa0d81" stroke-width="1.51"/><path d="M1620,780L1620,900L1740,780Z" fill="#b21484" stroke="#b21484" stroke-width="1.51"/><path d="M1620,780L1740,780L1740,660Z" fill="#b91d88" stroke="#b91d88" stroke-width="1.51"/><path d="M1620,660L1620,780L1740,660Z" fill="#bf268a" stroke="#bf268a" stroke-width="1.51"/><path d="M1620,660L1740,660L1740,540Z" fill="#c1328c" stroke="#c1328c" stroke-width="1.51"/><path d="M1620,540L1620,660L1740,540Z" fill="#c7398e" stroke="#c7398e" stroke-width="1.51"/><path d="M1620,540L1740,540L1740,420Z" fill="#c74490" stroke="#c74490" stroke-width="1.51"/><path d="M1620,420L1620,540L1740,420Z" fill="#cb4c93" stroke="#cb4c93" stroke-width="1.51"/><path d="M1620,420L1740,420L1740,300Z" fill="#c85896" stroke="#c85896" stroke-width="1.51"/><path d="M1620,300L1620,420L1740,300Z" fill="#cc5f99" stroke="#cc5f99" stroke-width="1.51"/><path d="M1620,300L1740,300L1740,180Z" fill="#c9669b" stroke="#c9669b" stroke-width="1.51"/><path d="M1620,180L1620,300L1740,180Z" fill="#ce6c9c" stroke="#ce6c9c" stroke-width="1.51"/><path d="M1620,180L1740,180L1740,60Z" fill="#cb729e" stroke="#cb729e" stroke-width="1.51"/><path d="M1620,60L1620,180L1740,60Z" fill="#cf76a1" stroke="#cf76a1" stroke-width="1.51"/><path d="M1620,60L1740,60L1740,-60Z" fill="#cc7ba7" stroke="#cc7ba7" stroke-width="1.51"/><path d="M1620,-60L1620,60L1740,-60Z" fill="#d07faa" stroke="#d07faa" stroke-width="1.51"/><path d="M1620,-60L1740,-60L1740,-180Z" fill="#cd82ae" stroke="#cd82ae" stroke-width="1.51"/><path d="M1620,-180L1620,-60L1740,-180Z" fill="#d186b1" stroke="#d186b1" stroke-width="1.51"/><path d="M1500,1260L1620,1260L1620,1140Z" fill="#870078" stroke="#870078" stroke-width="1.51"/><path d="M1500,1140L1500,1260L1620,1140Z" fill="#8f017a" stroke="#8f017a" stroke-width="1.51"/><path d="M1500,1140L1620,1140L1620,1020Z" fill="#96017b" stroke="#96017b" stroke-width="1.51"/><path d="M1500,1020L1500,1140L1620,1020Z" fill="#9e037d" stroke="#9e037d" stroke-width="1.51"/><path d="M1500,1020L1620,1020L1620,900Z" fill="#a6017d" stroke="#a6017d" stroke-width="1.51"/><path d="M1500,900L1500,1020L1620,900Z" fill="#ae037f" stroke="#ae037f" stroke-width="1.51"/><path d="M1500,900L1620,900L1620,780Z" fill="#b50f82" stroke="#b50f82" stroke-width="1.51"/><path d="M1500,780L1500,900L1620,780Z" fill="#bc1786" stroke="#bc1786" stroke-width="1.51"/><path d="M1500,780L1620,780L1620,660Z" fill="#c31f8a" stroke="#c31f8a" stroke-width="1.51"/><path d="M1500,660L1500,780L1620,660Z" fill="#c9288c" stroke="#c9288c" stroke-width="1.51"/><path d="M1500,660L1620,660L1620,540Z" fill="#cb348d" stroke="#cb348d" stroke-width="1.51"/><path d="M1500,540L1500,660L1620,540Z" fill="#d13c8f" stroke="#d13c8f" stroke-width="1.51"/><path d="M1500,540L1620,540L1620,420Z" fill="#d14792" stroke="#d14792" stroke-width="1.51"/><path d="M1500,420L1500,540L1620,420Z" fill="#d54f95" stroke="#d54f95" stroke-width="1.51"/><path d="M1500,420L1620,420L1620,300Z" fill="#d35b97" stroke="#d35b97" stroke-width="1.51"/><path d="M1500,300L1500,420L1620,300Z" fill="#d6629a" stroke="#d6629a" stroke-width="1.51"/><path d="M1500,300L1620,300L1620,180Z" fill="#d4699c" stroke="#d4699c" stroke-width="1.51"/><path d="M1500,180L1500,300L1620,180Z" fill="#d86f9e" stroke="#d86f9e" stroke-width="1.51"/><path d="M1500,180L1620,180L1620,60Z" fill="#d675a0" stroke="#d675a0" stroke-width="1.51"/><path d="M1500,60L1500,180L1620,60Z" fill="#d97aa3" stroke="#d97aa3" stroke-width="1.51"/><path d="M1500,60L1620,60L1620,-60Z" fill="#d77ea8" stroke="#d77ea8" stroke-width="1.51"/><path d="M1500,-60L1500,60L1620,-60Z" fill="#db83ac" stroke="#db83ac" stroke-width="1.51"/><path d="M1500,-60L1620,-60L1620,-180Z" fill="#d886b0" stroke="#d886b0" stroke-width="1.51"/><path d="M1500,-180L1500,-60L1620,-180Z" fill="#dc8ab3" stroke="#dc8ab3" stroke-width="1.51"/><path d="M1380,1260L1500,1260L1500,1140Z" fill="#90097c" stroke="#90097c" stroke-width="1.51"/><path d="M1380,1140L1380,1260L1500,1140Z" fill="#980e7f" stroke="#980e7f" stroke-width="1.51"/><path d="M1380,1140L1500,1140L1500,1020Z" fill="#9f0c7f" stroke="#9f0c7f" stroke-width="1.51"/><path d="M1380,1020L1380,1140L1500,1020Z" fill="#a71082" stroke="#a71082" stroke-width="1.51"/><path d="M1380,1020L1500,1020L1500,900Z" fill="#af0e81" stroke="#af0e81" stroke-width="1.51"/><path d="M1380,900L1380,1020L1500,900Z" fill="#b71284" stroke="#b71284" stroke-width="1.51"/><path d="M1380,900L1500,900L1500,780Z" fill="#be1986" stroke="#be1986" stroke-width="1.51"/><path d="M1380,780L1380,900L1500,780Z" fill="#c6218b" stroke="#c6218b" stroke-width="1.51"/><path d="M1380,780L1500,780L1500,660Z" fill="#cc278e" stroke="#cc278e" stroke-width="1.51"/><path d="M1380,660L1380,780L1500,660Z" fill="#d33091" stroke="#d33091" stroke-width="1.51"/><path d="M1380,660L1500,660L1500,540Z" fill="#d43a91" stroke="#d43a91" stroke-width="1.51"/><path d="M1380,540L1380,660L1500,540Z" fill="#db4295" stroke="#db4295" stroke-width="1.51"/><path d="M1380,540L1500,540L1500,420Z" fill="#db4c96" stroke="#db4c96" stroke-width="1.51"/><path d="M1380,420L1380,540L1500,420Z" fill="#df569a" stroke="#df569a" stroke-width="1.51"/><path d="M1380,420L1500,420L1500,300Z" fill="#dc609c" stroke="#dc609c" stroke-width="1.51"/><path d="M1380,300L1380,420L1500,300Z" fill="#e068a0" stroke="#e068a0" stroke-width="1.51"/><path d="M1380,300L1500,300L1500,180Z" fill="#dd6fa0" stroke="#dd6fa0" stroke-width="1.51"/><path d="M1380,180L1380,300L1500,180Z" fill="#e275a3" stroke="#e275a3" stroke-width="1.51"/><path d="M1380,180L1500,180L1500,60Z" fill="#df7ba4" stroke="#df7ba4" stroke-width="1.51"/><path d="M1380,60L1380,180L1500,60Z" fill="#e380a8" stroke="#e380a8" stroke-width="1.51"/><path d="M1380,60L1500,60L1500,-60Z" fill="#e084ac" stroke="#e084ac" stroke-width="1.51"/><path d="M1380,-60L1380,60L1500,-60Z" fill="#e489b1" stroke="#e489b1" stroke-width="1.51"/><path d="M1380,-60L1500,-60L1500,-180Z" fill="#e28cb4" stroke="#e28cb4" stroke-width="1.51"/><path d="M1380,-180L1380,-60L1500,-180Z" fill="#e690b8" stroke="#e690b8" stroke-width="1.51"/><path d="M1260,1260L1380,1260L1380,1140Z" fill="#991481" stroke="#991481" stroke-width="1.51"/><path d="M1260,1140L1260,1260L1380,1140Z" fill="#a11884" stroke="#a11884" stroke-width="1.51"/><path d="M1260,1140L1380,1140L1380,1020Z" fill="#a81784" stroke="#a81784" stroke-width="1.51"/><path d="M1260,1020L1260,1140L1380,1020Z" fill="#b11b86" stroke="#b11b86" stroke-width="1.51"/><path d="M1260,1020L1380,1020L1380,900Z" fill="#b81986" stroke="#b81986" stroke-width="1.51"/><path d="M1260,900L1260,1020L1380,900Z" fill="#c11d89" stroke="#c11d89" stroke-width="1.51"/><path d="M1260,900L1380,900L1380,780Z" fill="#c7228b" stroke="#c7228b" stroke-width="1.51"/><path d="M1260,780L1260,900L1380,780Z" fill="#cf2990" stroke="#cf2990" stroke-width="1.51"/><path d="M1260,780L1380,780L1380,660Z" fill="#d62f93" stroke="#d62f93" stroke-width="1.51"/><path d="M1260,660L1260,780L1380,660Z" fill="#dc3797" stroke="#dc3797" stroke-width="1.51"/><path d="M1260,660L1380,660L1380,540Z" fill="#de4197" stroke="#de4197" stroke-width="1.51"/><path d="M1260,540L1260,660L1380,540Z" fill="#e5499a" stroke="#e5499a" stroke-width="1.51"/><path d="M1260,540L1380,540L1380,420Z" fill="#e4539b" stroke="#e4539b" stroke-width="1.51"/><path d="M1260,420L1260,540L1380,420Z" fill="#e85c9f" stroke="#e85c9f" stroke-width="1.51"/><path d="M1260,420L1380,420L1380,300Z" fill="#e666a1" stroke="#e666a1" stroke-width="1.51"/><path d="M1260,300L1260,420L1380,300Z" fill="#ea6ea5" stroke="#ea6ea5" stroke-width="1.51"/><path d="M1260,300L1380,300L1380,180Z" fill="#e775a5" stroke="#e775a5" stroke-width="1.51"/><path d="M1260,180L1260,300L1380,180Z" fill="#eb7ca8" stroke="#eb7ca8" stroke-width="1.51"/><path d="M1260,180L1380,180L1380,60Z" fill="#e981a9" stroke="#e981a9" stroke-width="1.51"/><path d="M1260,60L1260,180L1380,60Z" fill="#ec87ae" stroke="#ec87ae" stroke-width="1.51"/><path d="M1260,60L1380,60L1380,-60Z" fill="#ea8ab1" stroke="#ea8ab1" stroke-width="1.51"/><path d="M1260,-60L1260,60L1380,-60Z" fill="#ee90b6" stroke="#ee90b6" stroke-width="1.51"/><path d="M1260,-60L1380,-60L1380,-180Z" fill="#eb92b9" stroke="#eb92b9" stroke-width="1.51"/><path d="M1260,-180L1260,-60L1380,-180Z" fill="#ef97bd" stroke="#ef97bd" stroke-width="1.51"/><path d="M1140,1260L1260,1260L1260,1140Z" fill="#a21f85" stroke="#a21f85" stroke-width="1.51"/><path d="M1140,1140L1140,1260L1260,1140Z" fill="#a72487" stroke="#a72487" stroke-width="1.51"/><path d="M1140,1140L1260,1140L1260,1020Z" fill="#b12288" stroke="#b12288" stroke-width="1.51"/><path d="M1140,1020L1140,1140L1260,1020Z" fill="#b72789" stroke="#b72789" stroke-width="1.51"/><path d="M1140,1020L1260,1020L1260,900Z" fill="#c1248a" stroke="#c1248a" stroke-width="1.51"/><path d="M1140,900L1140,1020L1260,900Z" fill="#c72a8c" stroke="#c72a8c" stroke-width="1.51"/><path d="M1140,900L1260,900L1260,780Z" fill="#d02c8f" stroke="#d02c8f" stroke-width="1.51"/><path d="M1140,780L1140,900L1260,780Z" fill="#d63593" stroke="#d63593" stroke-width="1.51"/><path d="M1140,780L1260,780L1260,660Z" fill="#df3897" stroke="#df3897" stroke-width="1.51"/><path d="M1140,660L1140,780L1260,660Z" fill="#e3429a" stroke="#e3429a" stroke-width="1.51"/><path d="M1140,660L1260,660L1260,540Z" fill="#e7499b" stroke="#e7499b" stroke-width="1.51"/><path d="M1140,540L1140,660L1260,540Z" fill="#eb529d" stroke="#eb529d" stroke-width="1.51"/><path d="M1140,540L1260,540L1260,420Z" fill="#ed5a9f" stroke="#ed5a9f" stroke-width="1.51"/><path d="M1140,420L1140,540L1260,420Z" fill="#ef64a2" stroke="#ef64a2" stroke-width="1.51"/><path d="M1140,420L1260,420L1260,300Z" fill="#ee6da5" stroke="#ee6da5" stroke-width="1.51"/><path d="M1140,300L1140,420L1260,300Z" fill="#f076a8" stroke="#f076a8" stroke-width="1.51"/><path d="M1140,300L1260,300L1260,180Z" fill="#f07ca9" stroke="#f07ca9" stroke-width="1.51"/><path d="M1140,180L1140,300L1260,180Z" fill="#f283ab" stroke="#f283ab" stroke-width="1.51"/><path d="M1140,180L1260,180L1260,60Z" fill="#f188ad" stroke="#f188ad" stroke-width="1.51"/><path d="M1140,60L1140,180L1260,60Z" fill="#f38eb1" stroke="#f38eb1" stroke-width="1.51"/><path d="M1140,60L1260,60L1260,-60Z" fill="#f291b5" stroke="#f291b5" stroke-width="1.51"/><path d="M1140,-60L1140,60L1260,-60Z" fill="#f497b9" stroke="#f497b9" stroke-width="1.51"/><path d="M1140,-60L1260,-60L1260,-180Z" fill="#f499bd" stroke="#f499bd" stroke-width="1.51"/><path d="M1140,-180L1140,-60L1260,-180Z" fill="#f69ec0" stroke="#f69ec0" stroke-width="1.51"/><path d="M1020,1260L1140,1260L1140,1140Z" fill="#a62b87" stroke="#a62b87" stroke-width="1.51"/><path d="M1020,1140L1020,1260L1140,1140Z" fill="#ac3089" stroke="#ac3089" stroke-width="1.51"/><path d="M1020,1140L1140,1140L1140,1020Z" fill="#b52f8a" stroke="#b52f8a" stroke-width="1.51"/><path d="M1020,1020L1020,1140L1140,1020Z" fill="#bc338c" stroke="#bc338c" stroke-width="1.51"/><path d="M1020,1020L1140,1020L1140,900Z" fill="#c6328c" stroke="#c6328c" stroke-width="1.51"/><path d="M1020,900L1020,1020L1140,900Z" fill="#cc368e" stroke="#cc368e" stroke-width="1.51"/><path d="M1020,900L1140,900L1140,780Z" fill="#d53991" stroke="#d53991" stroke-width="1.51"/><path d="M1020,780L1020,900L1140,780Z" fill="#db4095" stroke="#db4095" stroke-width="1.51"/><path d="M1020,780L1140,780L1140,660Z" fill="#e44499" stroke="#e44499" stroke-width="1.51"/><path d="M1020,660L1020,780L1140,660Z" fill="#e84c9c" stroke="#e84c9c" stroke-width="1.51"/><path d="M1020,660L1140,660L1140,540Z" fill="#ec549c" stroke="#ec549c" stroke-width="1.51"/><path d="M1020,540L1020,660L1140,540Z" fill="#f05c9f" stroke="#f05c9f" stroke-width="1.51"/><path d="M1020,540L1140,540L1140,420Z" fill="#f264a1" stroke="#f264a1" stroke-width="1.51"/><path d="M1020,420L1020,540L1140,420Z" fill="#f46da4" stroke="#f46da4" stroke-width="1.51"/><path d="M1020,420L1140,420L1140,300Z" fill="#f376a7" stroke="#f376a7" stroke-width="1.51"/><path d="M1020,300L1020,420L1140,300Z" fill="#f57ea9" stroke="#f57ea9" stroke-width="1.51"/><path d="M1020,300L1140,300L1140,180Z" fill="#f484ab" stroke="#f484ab" stroke-width="1.51"/><path d="M1020,180L1020,300L1140,180Z" fill="#f68bad" stroke="#f68bad" stroke-width="1.51"/><path d="M1020,180L1140,180L1140,60Z" fill="#f690af" stroke="#f690af" stroke-width="1.51"/><path d="M1020,60L1020,180L1140,60Z" fill="#f796b2" stroke="#f796b2" stroke-width="1.51"/><path d="M1020,60L1140,60L1140,-60Z" fill="#f799b7" stroke="#f799b7" stroke-width="1.51"/><path d="M1020,-60L1020,60L1140,-60Z" fill="#f99fbb" stroke="#f99fbb" stroke-width="1.51"/><path d="M1020,-60L1140,-60L1140,-180Z" fill="#f8a1bf" stroke="#f8a1bf" stroke-width="1.51"/><path d="M1020,-180L1020,-60L1140,-180Z" fill="#faa6c2" stroke="#faa6c2" stroke-width="1.51"/><path d="M900,1260L1020,1260L1020,1140Z" fill="#ab3689" stroke="#ab3689" stroke-width="1.51"/><path d="M900,1140L900,1260L1020,1140Z" fill="#b13b8b" stroke="#b13b8b" stroke-width="1.51"/><path d="M900,1140L1020,1140L1020,1020Z" fill="#ba398c" stroke="#ba398c" stroke-width="1.51"/><path d="M900,1020L900,1140L1020,1020Z" fill="#c03f8e" stroke="#c03f8e" stroke-width="1.51"/><path d="M900,1020L1020,1020L1020,900Z" fill="#cb3d8e" stroke="#cb3d8e" stroke-width="1.51"/><path d="M900,900L900,1020L1020,900Z" fill="#d14290" stroke="#d14290" stroke-width="1.51"/><path d="M900,900L1020,900L1020,780Z" fill="#da4494" stroke="#da4494" stroke-width="1.51"/><path d="M900,780L900,900L1020,780Z" fill="#e04c97" stroke="#e04c97" stroke-width="1.51"/><path d="M900,780L1020,780L1020,660Z" fill="#e94e9b" stroke="#e94e9b" stroke-width="1.51"/><path d="M900,660L900,780L1020,660Z" fill="#ed579e" stroke="#ed579e" stroke-width="1.51"/><path d="M900,660L1020,660L1020,540Z" fill="#f15d9f" stroke="#f15d9f" stroke-width="1.51"/><path d="M900,540L900,660L1020,540Z" fill="#f566a1" stroke="#f566a1" stroke-width="1.51"/><path d="M900,540L1020,540L1020,420Z" fill="#f76da2" stroke="#f76da2" stroke-width="1.51"/><path d="M900,420L900,540L1020,420Z" fill="#f876a5" stroke="#f876a5" stroke-width="1.51"/><path d="M900,420L1020,420L1020,300Z" fill="#f87fa8" stroke="#f87fa8" stroke-width="1.51"/><path d="M900,300L900,420L1020,300Z" fill="#f987ab" stroke="#f987ab" stroke-width="1.51"/><path d="M900,300L1020,300L1020,180Z" fill="#f98dad" stroke="#f98dad" stroke-width="1.51"/><path d="M900,180L900,300L1020,180Z" fill="#fb94af" stroke="#fb94af" stroke-width="1.51"/><path d="M900,180L1020,180L1020,60Z" fill="#fa98b0" stroke="#fa98b0" stroke-width="1.51"/><path d="M900,60L900,180L1020,60Z" fill="#fb9eb4" stroke="#fb9eb4" stroke-width="1.51"/><path d="M900,60L1020,60L1020,-60Z" fill="#fca1b9" stroke="#fca1b9" stroke-width="1.51"/><path d="M900,-60L900,60L1020,-60Z" fill="#fda7bd" stroke="#fda7bd" stroke-width="1.51"/><path d="M900,-60L1020,-60L1020,-180Z" fill="#fda9c1" stroke="#fda9c1" stroke-width="1.51"/><path d="M900,-180L900,-60L1020,-180Z" fill="#feaec4" stroke="#feaec4" stroke-width="1.51"/><path d="M780,1260L900,1260L900,1140Z" fill="#ad438d" stroke="#ad438d" stroke-width="1.51"/><path d="M780,1140L780,1260L900,1140Z" fill="#b2488f" stroke="#b2488f" stroke-width="1.51"/><path d="M780,1140L900,1140L900,1020Z" fill="#bc4790" stroke="#bc4790" stroke-width="1.51"/><path d="M780,1020L780,1140L900,1020Z" fill="#c24c92" stroke="#c24c92" stroke-width="1.51"/><path d="M780,1020L900,1020L900,900Z" fill="#cc4b92" stroke="#cc4b92" stroke-width="1.51"/><path d="M780,900L780,1020L900,900Z" fill="#d25094" stroke="#d25094" stroke-width="1.51"/><path d="M780,900L900,900L900,780Z" fill="#dc5298" stroke="#dc5298" stroke-width="1.51"/><path d="M780,780L780,900L900,780Z" fill="#e1599b" stroke="#e1599b" stroke-width="1.51"/><path d="M780,780L900,780L900,660Z" fill="#ea5b9f" stroke="#ea5b9f" stroke-width="1.51"/><path d="M780,660L780,780L900,660Z" fill="#ee64a2" stroke="#ee64a2" stroke-width="1.51"/><path d="M780,660L900,660L900,540Z" fill="#f269a3" stroke="#f269a3" stroke-width="1.51"/><path d="M780,540L780,660L900,540Z" fill="#f672a5" stroke="#f672a5" stroke-width="1.51"/><path d="M780,540L900,540L900,420Z" fill="#f878a6" stroke="#f878a6" stroke-width="1.51"/><path d="M780,420L780,540L900,420Z" fill="#f982a9" stroke="#f982a9" stroke-width="1.51"/><path d="M780,420L900,420L900,300Z" fill="#f989ac" stroke="#f989ac" stroke-width="1.51"/><path d="M780,300L780,420L900,300Z" fill="#fa92af" stroke="#fa92af" stroke-width="1.51"/><path d="M780,300L900,300L900,180Z" fill="#fa97b1" stroke="#fa97b1" stroke-width="1.51"/><path d="M780,180L780,300L900,180Z" fill="#fb9eb3" stroke="#fb9eb3" stroke-width="1.51"/><path d="M780,180L900,180L900,60Z" fill="#fba2b4" stroke="#fba2b4" stroke-width="1.51"/><path d="M780,60L780,180L900,60Z" fill="#fca9b8" stroke="#fca9b8" stroke-width="1.51"/><path d="M780,60L900,60L900,-60Z" fill="#fcabbd" stroke="#fcabbd" stroke-width="1.51"/><path d="M780,-60L780,60L900,-60Z" fill="#fdb1c1" stroke="#fdb1c1" stroke-width="1.51"/><path d="M780,-60L900,-60L900,-180Z" fill="#feb3c5" stroke="#feb3c5" stroke-width="1.51"/><path d="M780,-180L780,-60L900,-180Z" fill="#feb8c9" stroke="#feb8c9" stroke-width="1.51"/><path d="M660,1260L780,1260L780,1140Z" fill="#ae4e91" stroke="#ae4e91" stroke-width="1.51"/><path d="M660,1140L660,1260L780,1140Z" fill="#b35393" stroke="#b35393" stroke-width="1.51"/><path d="M660,1140L780,1140L780,1020Z" fill="#bd5294" stroke="#bd5294" stroke-width="1.51"/><path d="M660,1020L660,1140L780,1020Z" fill="#c25896" stroke="#c25896" stroke-width="1.51"/><path d="M660,1020L780,1020L780,900Z" fill="#ce5796" stroke="#ce5796" stroke-width="1.51"/><path d="M660,900L660,1020L780,900Z" fill="#d35c98" stroke="#d35c98" stroke-width="1.51"/><path d="M660,900L780,900L780,780Z" fill="#dd5e9c" stroke="#dd5e9c" stroke-width="1.51"/><path d="M660,780L660,900L780,780Z" fill="#e2659f" stroke="#e2659f" stroke-width="1.51"/><path d="M660,780L780,780L780,660Z" fill="#ec67a3" stroke="#ec67a3" stroke-width="1.51"/><path d="M660,660L660,780L780,660Z" fill="#ef70a6" stroke="#ef70a6" stroke-width="1.51"/><path d="M660,660L780,660L780,540Z" fill="#f375a7" stroke="#f375a7" stroke-width="1.51"/><path d="M660,540L660,660L780,540Z" fill="#f67da8" stroke="#f67da8" stroke-width="1.51"/><path d="M660,540L780,540L780,420Z" fill="#f983aa" stroke="#f983aa" stroke-width="1.51"/><path d="M660,420L660,540L780,420Z" fill="#fa8cad" stroke="#fa8cad" stroke-width="1.51"/><path d="M660,420L780,420L780,300Z" fill="#fa94b1" stroke="#fa94b1" stroke-width="1.51"/><path d="M660,300L660,420L780,300Z" fill="#fa9cb3" stroke="#fa9cb3" stroke-width="1.51"/><path d="M660,300L780,300L780,180Z" fill="#fba1b5" stroke="#fba1b5" stroke-width="1.51"/><path d="M660,180L660,300L780,180Z" fill="#fba8b7" stroke="#fba8b7" stroke-width="1.51"/><path d="M660,180L780,180L780,60Z" fill="#fcacb9" stroke="#fcacb9" stroke-width="1.51"/><path d="M660,60L660,180L780,60Z" fill="#fcb2bc" stroke="#fcb2bc" stroke-width="1.51"/><path d="M660,60L780,60L780,-60Z" fill="#fdb5c1" stroke="#fdb5c1" stroke-width="1.51"/><path d="M660,-60L660,60L780,-60Z" fill="#fdbbc5" stroke="#fdbbc5" stroke-width="1.51"/><path d="M660,-60L780,-60L780,-180Z" fill="#febcc9" stroke="#febcc9" stroke-width="1.51"/><path d="M660,-180L660,-60L780,-180Z" fill="#fec2cd" stroke="#fec2cd" stroke-width="1.51"/><path d="M540,1260L660,1260L660,1140Z" fill="#ae5894" stroke="#ae5894" stroke-width="1.51"/><path d="M540,1140L540,1260L660,1140Z" fill="#b35c96" stroke="#b35c96" stroke-width="1.51"/><path d="M540,1140L660,1140L660,1020Z" fill="#be5d97" stroke="#be5d97" stroke-width="1.51"/><path d="M540,1020L540,1140L660,1020Z" fill="#c36199" stroke="#c36199" stroke-width="1.51"/><path d="M540,1020L660,1020L660,900Z" fill="#ce6199" stroke="#ce6199" stroke-width="1.51"/><path d="M540,900L540,1020L660,900Z" fill="#d4669b" stroke="#d4669b" stroke-width="1.51"/><path d="M540,900L660,900L660,780Z" fill="#de699f" stroke="#de699f" stroke-width="1.51"/><path d="M540,780L540,900L660,780Z" fill="#e36fa2" stroke="#e36fa2" stroke-width="1.51"/><path d="M540,780L660,780L660,660Z" fill="#ec72a6" stroke="#ec72a6" stroke-width="1.51"/><path d="M540,660L540,780L660,660Z" fill="#f079a9" stroke="#f079a9" stroke-width="1.51"/><path d="M540,660L660,660L660,540Z" fill="#f47faa" stroke="#f47faa" stroke-width="1.51"/><path d="M540,540L540,660L660,540Z" fill="#f786ab" stroke="#f786ab" stroke-width="1.51"/><path d="M540,540L660,540L660,420Z" fill="#f98dad" stroke="#f98dad" stroke-width="1.51"/><path d="M540,420L540,540L660,420Z" fill="#fa95b0" stroke="#fa95b0" stroke-width="1.51"/><path d="M540,420L660,420L660,300Z" fill="#fa9db3" stroke="#fa9db3" stroke-width="1.51"/><path d="M540,300L540,420L660,300Z" fill="#fba5b7" stroke="#fba5b7" stroke-width="1.51"/><path d="M540,300L660,300L660,180Z" fill="#fbaab8" stroke="#fbaab8" stroke-width="1.51"/><path d="M540,180L540,300L660,180Z" fill="#fcb1ba" stroke="#fcb1ba" stroke-width="1.51"/><path d="M540,180L660,180L660,60Z" fill="#fbb5bc" stroke="#fbb5bc" stroke-width="1.51"/><path d="M540,60L540,180L660,60Z" fill="#fcbbbf" stroke="#fcbbbf" stroke-width="1.51"/><path d="M540,60L660,60L660,-60Z" fill="#fcbec4" stroke="#fcbec4" stroke-width="1.51"/><path d="M540,-60L540,60L660,-60Z" fill="#fdc3c8" stroke="#fdc3c8" stroke-width="1.51"/><path d="M540,-60L660,-60L660,-180Z" fill="#fdc5cc" stroke="#fdc5cc" stroke-width="1.51"/><path d="M540,-180L540,-60L660,-180Z" fill="#fecad0" stroke="#fecad0" stroke-width="1.51"/><path d="M420,1260L540,1260L540,1140Z" fill="#af6096" stroke="#af6096" stroke-width="1.51"/><path d="M420,1140L420,1260L540,1140Z" fill="#b46498" stroke="#b46498" stroke-width="1.51"/><path d="M420,1140L540,1140L540,1020Z" fill="#be659a" stroke="#be659a" stroke-width="1.51"/><path d="M420,1020L420,1140L540,1020Z" fill="#c46a9b" stroke="#c46a9b" stroke-width="1.51"/><path d="M420,1020L540,1020L540,900Z" fill="#cf6a9c" stroke="#cf6a9c" stroke-width="1.51"/><path d="M420,900L420,1020L540,900Z" fill="#d56e9d" stroke="#d56e9d" stroke-width="1.51"/><path d="M420,900L540,900L540,780Z" fill="#df71a1" stroke="#df71a1" stroke-width="1.51"/><path d="M420,780L420,900L540,780Z" fill="#e477a4" stroke="#e477a4" stroke-width="1.51"/><path d="M420,780L540,780L540,660Z" fill="#ed7aa9" stroke="#ed7aa9" stroke-width="1.51"/><path d="M420,660L420,780L540,660Z" fill="#f182ab" stroke="#f182ab" stroke-width="1.51"/><path d="M420,660L540,660L540,540Z" fill="#f587ac" stroke="#f587ac" stroke-width="1.51"/><path d="M420,540L420,660L540,540Z" fill="#f88fad" stroke="#f88fad" stroke-width="1.51"/><path d="M420,540L540,540L540,420Z" fill="#fa95b0" stroke="#fa95b0" stroke-width="1.51"/><path d="M420,420L420,540L540,420Z" fill="#fb9db2" stroke="#fb9db2" stroke-width="1.51"/><path d="M420,420L540,420L540,300Z" fill="#fba5b6" stroke="#fba5b6" stroke-width="1.51"/><path d="M420,300L420,420L540,300Z" fill="#fbadb9" stroke="#fbadb9" stroke-width="1.51"/><path d="M420,300L540,300L540,180Z" fill="#fbb2bb" stroke="#fbb2bb" stroke-width="1.51"/><path d="M420,180L420,300L540,180Z" fill="#fcb9bc" stroke="#fcb9bc" stroke-width="1.51"/><path d="M420,180L540,180L540,60Z" fill="#fcbdbe" stroke="#fcbdbe" stroke-width="1.51"/><path d="M420,60L420,180L540,60Z" fill="#fcc3c1" stroke="#fcc3c1" stroke-width="1.51"/><path d="M420,60L540,60L540,-60Z" fill="#fcc5c7" stroke="#fcc5c7" stroke-width="1.51"/><path d="M420,-60L420,60L540,-60Z" fill="#fdcbca" stroke="#fdcbca" stroke-width="1.51"/><path d="M420,-60L540,-60L540,-180Z" fill="#fdcdcf" stroke="#fdcdcf" stroke-width="1.51"/><path d="M420,-180L420,-60L540,-180Z" fill="#fed2d2" stroke="#fed2d2" stroke-width="1.51"/><path d="M300,1260L420,1260L420,1140Z" fill="#b06898" stroke="#b06898" stroke-width="1.51"/><path d="M300,1140L300,1260L420,1140Z" fill="#b56c9b" stroke="#b56c9b" stroke-width="1.51"/><path d="M300,1140L420,1140L420,1020Z" fill="#bf6d9c" stroke="#bf6d9c" stroke-width="1.51"/><path d="M300,1020L300,1140L420,1020Z" fill="#c5719e" stroke="#c5719e" stroke-width="1.51"/><path d="M300,1020L420,1020L420,900Z" fill="#d0729e" stroke="#d0729e" stroke-width="1.51"/><path d="M300,900L300,1020L420,900Z" fill="#d676a0" stroke="#d676a0" stroke-width="1.51"/><path d="M300,900L420,900L420,780Z" fill="#e07aa3" stroke="#e07aa3" stroke-width="1.51"/><path d="M300,780L300,900L420,780Z" fill="#e57fa7" stroke="#e57fa7" stroke-width="1.51"/><path d="M300,780L420,780L420,660Z" fill="#ee83ab" stroke="#ee83ab" stroke-width="1.51"/><path d="M300,660L300,780L420,660Z" fill="#f18aae" stroke="#f18aae" stroke-width="1.51"/><path d="M300,660L420,660L420,540Z" fill="#f690ae" stroke="#f690ae" stroke-width="1.51"/><path d="M300,540L300,660L420,540Z" fill="#f996b0" stroke="#f996b0" stroke-width="1.51"/><path d="M300,540L420,540L420,420Z" fill="#fb9db2" stroke="#fb9db2" stroke-width="1.51"/><path d="M300,420L300,540L420,420Z" fill="#fca5b5" stroke="#fca5b5" stroke-width="1.51"/><path d="M300,420L420,420L420,300Z" fill="#fbadb8" stroke="#fbadb8" stroke-width="1.51"/><path d="M300,300L300,420L420,300Z" fill="#fbb4bc" stroke="#fbb4bc" stroke-width="1.51"/><path d="M300,300L420,300L420,180Z" fill="#fcbabd" stroke="#fcbabd" stroke-width="1.51"/><path d="M300,180L300,300L420,180Z" fill="#fcc0bf" stroke="#fcc0bf" stroke-width="1.51"/><path d="M300,180L420,180L420,60Z" fill="#fcc5c0" stroke="#fcc5c0" stroke-width="1.51"/><path d="M300,60L300,180L420,60Z" fill="#fccac4" stroke="#fccac4" stroke-width="1.51"/><path d="M300,60L420,60L420,-60Z" fill="#fdcdc9" stroke="#fdcdc9" stroke-width="1.51"/><path d="M300,-60L300,60L420,-60Z" fill="#fdd2cd" stroke="#fdd2cd" stroke-width="1.51"/><path d="M300,-60L420,-60L420,-180Z" fill="#fdd5d1" stroke="#fdd5d1" stroke-width="1.51"/><path d="M300,-180L300,-60L420,-180Z" fill="#fdd9d5" stroke="#fdd9d5" stroke-width="1.51"/><path d="M180,1260L300,1260L300,1140Z" fill="#b16e9e" stroke="#b16e9e" stroke-width="1.51"/><path d="M180,1140L180,1260L300,1140Z" fill="#b571a0" stroke="#b571a0" stroke-width="1.51"/><path d="M180,1140L300,1140L300,1020Z" fill="#c073a1" stroke="#c073a1" stroke-width="1.51"/><path d="M180,1020L180,1140L300,1020Z" fill="#c677a3" stroke="#c677a3" stroke-width="1.51"/><path d="M180,1020L300,1020L300,900Z" fill="#d178a3" stroke="#d178a3" stroke-width="1.51"/><path d="M180,900L180,1020L300,900Z" fill="#d77ca5" stroke="#d77ca5" stroke-width="1.51"/><path d="M180,900L300,900L300,780Z" fill="#e180a8" stroke="#e180a8" stroke-width="1.51"/><path d="M180,780L180,900L300,780Z" fill="#e685ac" stroke="#e685ac" stroke-width="1.51"/><path d="M180,780L300,780L300,660Z" fill="#ef89b0" stroke="#ef89b0" stroke-width="1.51"/><path d="M180,660L180,780L300,660Z" fill="#f38fb3" stroke="#f38fb3" stroke-width="1.51"/><path d="M180,660L300,660L300,540Z" fill="#f796b3" stroke="#f796b3" stroke-width="1.51"/><path d="M180,540L180,660L300,540Z" fill="#fa9cb6" stroke="#fa9cb6" stroke-width="1.51"/><path d="M180,540L300,540L300,420Z" fill="#fca3b7" stroke="#fca3b7" stroke-width="1.51"/><path d="M180,420L180,540L300,420Z" fill="#fcaabb" stroke="#fcaabb" stroke-width="1.51"/><path d="M180,420L300,420L300,300Z" fill="#fcb2bd" stroke="#fcb2bd" stroke-width="1.51"/><path d="M180,300L180,420L300,300Z" fill="#fcb9c1" stroke="#fcb9c1" stroke-width="1.51"/><path d="M180,300L300,300L300,180Z" fill="#fcbfc2" stroke="#fcbfc2" stroke-width="1.51"/><path d="M180,180L180,300L300,180Z" fill="#fdc5c4" stroke="#fdc5c4" stroke-width="1.51"/><path d="M180,180L300,180L300,60Z" fill="#fdcac5" stroke="#fdcac5" stroke-width="1.51"/><path d="M180,60L180,180L300,60Z" fill="#fdcfca" stroke="#fdcfca" stroke-width="1.51"/><path d="M180,60L300,60L300,-60Z" fill="#fdd3ce" stroke="#fdd3ce" stroke-width="1.51"/><path d="M180,-60L180,60L300,-60Z" fill="#fdd8d3" stroke="#fdd8d3" stroke-width="1.51"/><path d="M180,-60L300,-60L300,-180Z" fill="#fedad6" stroke="#fedad6" stroke-width="1.51"/><path d="M180,-180L180,-60L300,-180Z" fill="#fededa" stroke="#fededa" stroke-width="1.51"/><path d="M60,1260L180,1260L180,1140Z" fill="#b173a3" stroke="#b173a3" stroke-width="1.51"/><path d="M60,1140L60,1260L180,1140Z" fill="#b676a6" stroke="#b676a6" stroke-width="1.51"/><path d="M60,1140L180,1140L180,1020Z" fill="#c179a6" stroke="#c179a6" stroke-width="1.51"/><path d="M60,1020L60,1140L180,1020Z" fill="#c67ca9" stroke="#c67ca9" stroke-width="1.51"/><path d="M60,1020L180,1020L180,900Z" fill="#d27ea8" stroke="#d27ea8" stroke-width="1.51"/><path d="M60,900L60,1020L180,900Z" fill="#d781ab" stroke="#d781ab" stroke-width="1.51"/><path d="M60,900L180,900L180,780Z" fill="#e185ae" stroke="#e185ae" stroke-width="1.51"/><path d="M60,780L60,900L180,780Z" fill="#e68ab2" stroke="#e68ab2" stroke-width="1.51"/><path d="M60,780L180,780L180,660Z" fill="#f08fb5" stroke="#f08fb5" stroke-width="1.51"/><path d="M60,660L60,780L180,660Z" fill="#f395b9" stroke="#f395b9" stroke-width="1.51"/><path d="M60,660L180,660L180,540Z" fill="#f89bb9" stroke="#f89bb9" stroke-width="1.51"/><path d="M60,540L60,660L180,540Z" fill="#fba1bc" stroke="#fba1bc" stroke-width="1.51"/><path d="M60,540L180,540L180,420Z" fill="#fda9bd" stroke="#fda9bd" stroke-width="1.51"/><path d="M60,420L60,540L180,420Z" fill="#fdafc1" stroke="#fdafc1" stroke-width="1.51"/><path d="M60,420L180,420L180,300Z" fill="#fdb8c3" stroke="#fdb8c3" stroke-width="1.51"/><path d="M60,300L60,420L180,300Z" fill="#fcbec7" stroke="#fcbec7" stroke-width="1.51"/><path d="M60,300L180,300L180,180Z" fill="#fcc5c7" stroke="#fcc5c7" stroke-width="1.51"/><path d="M60,180L60,300L180,180Z" fill="#fdcaca" stroke="#fdcaca" stroke-width="1.51"/><path d="M60,180L180,180L180,60Z" fill="#fdd0cb" stroke="#fdd0cb" stroke-width="1.51"/><path d="M60,60L60,180L180,60Z" fill="#fdd4d0" stroke="#fdd4d0" stroke-width="1.51"/><path d="M60,60L180,60L180,-60Z" fill="#fdd8d4" stroke="#fdd8d4" stroke-width="1.51"/><path d="M60,-60L60,60L180,-60Z" fill="#fdddd9" stroke="#fdddd9" stroke-width="1.51"/><path d="M60,-60L180,-60L180,-180Z" fill="#fedfdc" stroke="#fedfdc" stroke-width="1.51"/><path d="M60,-180L60,-60L180,-180Z" fill="#fee3e0" stroke="#fee3e0" stroke-width="1.51"/><path d="M-60,1260L60,1260L60,1140Z" fill="#b178a8" stroke="#b178a8" stroke-width="1.51"/><path d="M-60,1140L-60,1260L60,1140Z" fill="#b67baa" stroke="#b67baa" stroke-width="1.51"/><path d="M-60,1140L60,1140L60,1020Z" fill="#c17eab" stroke="#c17eab" stroke-width="1.51"/><path d="M-60,1020L-60,1140L60,1020Z" fill="#c781ad" stroke="#c781ad" stroke-width="1.51"/><path d="M-60,1020L60,1020L60,900Z" fill="#d283ad" stroke="#d283ad" stroke-width="1.51"/><path d="M-60,900L-60,1020L60,900Z" fill="#d886b0" stroke="#d886b0" stroke-width="1.51"/><path d="M-60,900L60,900L60,780Z" fill="#e28bb3" stroke="#e28bb3" stroke-width="1.51"/><path d="M-60,780L-60,900L60,780Z" fill="#e78fb7" stroke="#e78fb7" stroke-width="1.51"/><path d="M-60,780L60,780L60,660Z" fill="#f194bb" stroke="#f194bb" stroke-width="1.51"/><path d="M-60,660L-60,780L60,660Z" fill="#f49abe" stroke="#f49abe" stroke-width="1.51"/><path d="M-60,660L60,660L60,540Z" fill="#f8a1be" stroke="#f8a1be" stroke-width="1.51"/><path d="M-60,540L-60,660L60,540Z" fill="#fca6c0" stroke="#fca6c0" stroke-width="1.51"/><path d="M-60,540L60,540L60,420Z" fill="#fdaec2" stroke="#fdaec2" stroke-width="1.51"/><path d="M-60,420L-60,540L60,420Z" fill="#feb4c6" stroke="#feb4c6" stroke-width="1.51"/><path d="M-60,420L60,420L60,300Z" fill="#fdbdc8" stroke="#fdbdc8" stroke-width="1.51"/><path d="M-60,300L-60,420L60,300Z" fill="#fdc3cc" stroke="#fdc3cc" stroke-width="1.51"/><path d="M-60,300L60,300L60,180Z" fill="#fdcacd" stroke="#fdcacd" stroke-width="1.51"/><path d="M-60,180L-60,300L60,180Z" fill="#fecfcf" stroke="#fecfcf" stroke-width="1.51"/><path d="M-60,180L60,180L60,60Z" fill="#fdd5d0" stroke="#fdd5d0" stroke-width="1.51"/><path d="M-60,60L-60,180L60,60Z" fill="#fdd9d5" stroke="#fdd9d5" stroke-width="1.51"/><path d="M-60,60L60,60L60,-60Z" fill="#fdddd9" stroke="#fdddd9" stroke-width="1.51"/><path d="M-60,-60L-60,60L60,-60Z" fill="#fee1de" stroke="#fee1de" stroke-width="1.51"/><path d="M-60,-60L60,-60L60,-180Z" fill="#fee4e1" stroke="#fee4e1" stroke-width="1.51"/><path d="M-60,-180L-60,-60L60,-180Z" fill="#fee8e5" stroke="#fee8e5" stroke-width="1.51"/><path d="M-180,1260L-60,1260L-60,1140Z" fill="#b27cac" stroke="#b27cac" stroke-width="1.51"/><path d="M-180,1140L-180,1260L-60,1140Z" fill="#b780af" stroke="#b780af" stroke-width="1.51"/><path d="M-180,1140L-60,1140L-60,1020Z" fill="#c282b0" stroke="#c282b0" stroke-width="1.51"/><path d="M-180,1020L-180,1140L-60,1020Z" fill="#c885b2" stroke="#c885b2" stroke-width="1.51"/><path d="M-180,1020L-60,1020L-60,900Z" fill="#d387b2" stroke="#d387b2" stroke-width="1.51"/><path d="M-180,900L-180,1020L-60,900Z" fill="#d98bb4" stroke="#d98bb4" stroke-width="1.51"/><path d="M-180,900L-60,900L-60,780Z" fill="#e38fb7" stroke="#e38fb7" stroke-width="1.51"/><path d="M-180,780L-180,900L-60,780Z" fill="#e894bb" stroke="#e894bb" stroke-width="1.51"/><path d="M-180,780L-60,780L-60,660Z" fill="#f299bf" stroke="#f299bf" stroke-width="1.51"/><path d="M-180,660L-180,780L-60,660Z" fill="#f59fc2" stroke="#f59fc2" stroke-width="1.51"/><path d="M-180,660L-60,660L-60,540Z" fill="#f9a5c2" stroke="#f9a5c2" stroke-width="1.51"/><path d="M-180,540L-180,660L-60,540Z" fill="#fcabc5" stroke="#fcabc5" stroke-width="1.51"/><path d="M-180,540L-60,540L-60,420Z" fill="#feb2c6" stroke="#feb2c6" stroke-width="1.51"/><path d="M-180,420L-180,540L-60,420Z" fill="#ffb9ca" stroke="#ffb9ca" stroke-width="1.51"/><path d="M-180,420L-60,420L-60,300Z" fill="#fec2cd" stroke="#fec2cd" stroke-width="1.51"/><path d="M-180,300L-180,420L-60,300Z" fill="#fec8d0" stroke="#fec8d0" stroke-width="1.51"/><path d="M-180,300L-60,300L-60,180Z" fill="#feced1" stroke="#feced1" stroke-width="1.51"/><path d="M-180,180L-180,300L-60,180Z" fill="#fed4d4" stroke="#fed4d4" stroke-width="1.51"/><path d="M-180,180L-60,180L-60,60Z" fill="#fed9d5" stroke="#fed9d5" stroke-width="1.51"/><path d="M-180,60L-180,180L-60,60Z" fill="#fdddd9" stroke="#fdddd9" stroke-width="1.51"/><path d="M-180,60L-60,60L-60,-60Z" fill="#fee1de" stroke="#fee1de" stroke-width="1.51"/><path d="M-180,-60L-180,60L-60,-60Z" fill="#fee6e2" stroke="#fee6e2" stroke-width="1.51"/><path d="M-180,-60L-60,-60L-60,-180Z" fill="#fee9e6" stroke="#fee9e6" stroke-width="1.51"/><path d="M-180,-180L-180,-60L-60,-180Z" fill="#feedea" stroke="#feedea" stroke-width="1.51"/></svg>