<svg xmlns="http://www.w3.org/2000/svg" width="1920" height="1080"><path d="M1957,1395L2242,1395L2242,1110Z" fill="#006528" stroke="#006528" stroke-width="1.51"/><path d="M1957,1110L1957,1395L2242,1110Z" fill="#07702f" stroke="#07702f" stroke-width="1.51"/><path d="M1957,1110L2242,1110L2242,825Z" fill="#157638" stroke="#157638" stroke-width="1.51"/><path d="M1957,825L1957,1110L2242,825Z" fill="#1d8343" stroke="#1d8343" stroke-width="1.51"/><path d="M1957,825L2242,825L2242,540Z" fill="#2b8852" stroke="#2b8852" stroke-width="1.51"/><path d="M1957,540L1957,825L2242,540Z" fill="#34915d" stroke="#34915d" stroke-width="1.51"/><path d="M1957,540L2242,540L2242,255Z" fill="#459369" stroke="#459369" stroke-width="1.51"/><path d="M1957,255L1957,540L2242,255Z" fill="#519d73" stroke="#519d73" stroke-width="1.51"/><path d="M1957,255L2242,255L2242,-30Z" fill="#639f7b" stroke="#639f7b" stroke-width="1.51"/><path d="M1957,-30L1957,255L2242,-30Z" fill="#6fa983" stroke="#6fa983" stroke-width="1.51"/><path d="M1957,-30L2242,-30L2242,-315Z" fill="#78a787" stroke="#78a787" stroke-width="1.51"/><path d="M1957,-315L1957,-30L2242,-315Z" fill="#7fae8d" stroke="#7fae8d" stroke-width="1.51"/><path d="M1672,1395L1957,1395L1957,1110Z" fill="#0a7331" stroke="#0a7331" stroke-width="1.51"/><path d="M1672,1110L1672,1395L1957,1110Z" fill="#157d39" stroke="#157d39" stroke-width="1.51"/><path d="M1672,1110L1957,1110L1957,825Z" fill="#1d8441" stroke="#1d8441" stroke-width="1.51"/><path d="M1672,825L1672,1110L1957,825Z" fill="#278f4d" stroke="#278f4d" stroke-width="1.51"/><path d="M1672,825L1957,825L1957,540Z" fill="#32975c" stroke="#32975c" stroke-width="1.51"/><path d="M1672,540L1672,825L1957,540Z" fill="#3d9e67" stroke="#3d9e67" stroke-width="1.51"/><path d="M1672,540L1957,540L1957,255Z" fill="#4da273" stroke="#4da273" stroke-width="1.51"/><path d="M1672,255L1672,540L1957,255Z" fill="#5aab7d" stroke="#5aab7d" stroke-width="1.51"/><path d="M1672,255L1957,255L1957,-30Z" fill="#6bae85" stroke="#6bae85" stroke-width="1.51"/><path d="M1672,-30L1672,255L1957,-30Z" fill="#78b68e" stroke="#78b68e" stroke-width="1.51"/><path d="M1672,-30L1957,-30L1957,-315Z" fill="#81b692" stroke="#81b692" stroke-width="1.51"/><path d="M1672,-315L1672,-30L1957,-315Z" fill="#88bc98" stroke="#88bc98" stroke-width="1.51"/><path d="M1387,1395L1672,1395L1672,1110Z" fill="#1a7f3e" stroke="#1a7f3e" stroke-width="1.51"/><path d="M1387,1110L1387,1395L1672,1110Z" fill="#238a49" stroke="#238a49" stroke-width="1.51"/><path d="M1387,1110L1672,1110L1672,825Z" fill="#29914e" stroke="#29914e" stroke-width="1.51"/><path d="M1387,825L1387,1110L1672,825Z" fill="#339d5d" stroke="#339d5d" stroke-width="1.51"/><path d="M1387,825L1672,825L1672,540Z" fill="#3ca369" stroke="#3ca369" stroke-width="1.51"/><path d="M1387,540L1387,825L1672,540Z" fill="#48ac78" stroke="#48ac78" stroke-width="1.51"/><path d="M1387,540L1672,540L1672,255Z" fill="#56af81" stroke="#56af81" stroke-width="1.51"/><path d="M1387,255L1387,540L1672,255Z" fill="#64b88f" stroke="#64b88f" stroke-width="1.51"/><path d="M1387,255L1672,255L1672,-30Z" fill="#75bb93" stroke="#75bb93" stroke-width="1.51"/><path d="M1387,-30L1387,255L1672,-30Z" fill="#83c49f" stroke="#83c49f" stroke-width="1.51"/><path d="M1387,-30L1672,-30L1672,-315Z" fill="#8ac3a0" stroke="#8ac3a0" stroke-width="1.51"/><path d="M1387,-315L1387,-30L1672,-315Z" fill="#93caaa" stroke="#93caaa" stroke-width="1.51"/><path d="M1102,1395L1387,1395L1387,1110Z" fill="#288c51" stroke="#288c51" stroke-width="1.51"/><path d="M1102,1110L1102,1395L1387,1110Z" fill="#32955c" stroke="#32955c" stroke-width="1.51"/><path d="M1102,1110L1387,1110L1387,825Z" fill="#369e61" stroke="#369e61" stroke-width="1.51"/><path d="M1102,825L1102,1110L1387,825Z" fill="#41a870" stroke="#41a870" stroke-width="1.51"/><path d="M1102,825L1387,825L1387,540Z" fill="#48b17d" stroke="#48b17d" stroke-width="1.51"/><path d="M1102,540L1102,825L1387,540Z" fill="#54b88b" stroke="#54b88b" stroke-width="1.51"/><path d="M1102,540L1387,540L1387,255Z" fill="#61bd95" stroke="#61bd95" stroke-width="1.51"/><path d="M1102,255L1102,540L1387,255Z" fill="#6fc4a2" stroke="#6fc4a2" stroke-width="1.51"/><path d="M1102,255L1387,255L1387,-30Z" fill="#80c9a8" stroke="#80c9a8" stroke-width="1.51"/><path d="M1102,-30L1102,255L1387,-30Z" fill="#8ed0b3" stroke="#8ed0b3" stroke-width="1.51"/><path d="M1102,-30L1387,-30L1387,-315Z" fill="#95d1b5" stroke="#95d1b5" stroke-width="1.51"/><path d="M1102,-315L1102,-30L1387,-315Z" fill="#9ed5be" stroke="#9ed5be" stroke-width="1.51"/><path d="M817,1395L1102,1395L1102,1110Z" fill="#3a9463" stroke="#3a9463" stroke-width="1.51"/><path d="M817,1110L817,1395L1102,1110Z" fill="#449d6d" stroke="#449d6d" stroke-width="1.51"/><path d="M817,1110L1102,1110L1102,825Z" fill="#47a673" stroke="#47a673" stroke-width="1.51"/><path d="M817,825L817,1110L1102,825Z" fill="#52b082" stroke="#52b082" stroke-width="1.51"/><path d="M817,825L1102,825L1102,540Z" fill="#57b98f" stroke="#57b98f" stroke-width="1.51"/><path d="M817,540L817,825L1102,540Z" fill="#63c09d" stroke="#63c09d" stroke-width="1.51"/><path d="M817,540L1102,540L1102,255Z" fill="#6ec5a8" stroke="#6ec5a8" stroke-width="1.51"/><path d="M817,255L817,540L1102,255Z" fill="#7dccb4" stroke="#7dccb4" stroke-width="1.51"/><path d="M817,255L1102,255L1102,-30Z" fill="#8cd1bb" stroke="#8cd1bb" stroke-width="1.51"/><path d="M817,-30L817,255L1102,-30Z" fill="#9bd8c6" stroke="#9bd8c6" stroke-width="1.51"/><path d="M817,-30L1102,-30L1102,-315Z" fill="#a2d9c8" stroke="#a2d9c8" stroke-width="1.51"/><path d="M817,-315L817,-30L1102,-315Z" fill="#acddd0" stroke="#acddd0" stroke-width="1.51"/><path d="M532,1395L817,1395L817,1110Z" fill="#4f9d72" stroke="#4f9d72" stroke-width="1.51"/><path d="M532,1110L532,1395L817,1110Z" fill="#5aa67b" stroke="#5aa67b" stroke-width="1.51"/><path d="M532,1110L817,1110L817,825Z" fill="#5caf82" stroke="#5caf82" stroke-width="1.51"/><path d="M532,825L532,1110L817,825Z" fill="#68b990" stroke="#68b990" stroke-width="1.51"/><path d="M532,825L817,825L817,540Z" fill="#6cc29f" stroke="#6cc29f" stroke-width="1.51"/><path d="M532,540L532,825L817,540Z" fill="#79c9ac" stroke="#79c9ac" stroke-width="1.51"/><path d="M532,540L817,540L817,255Z" fill="#82ceb7" stroke="#82ceb7" stroke-width="1.51"/><path d="M532,255L532,540L817,255Z" fill="#92d5c3" stroke="#92d5c3" stroke-width="1.51"/><path d="M532,255L817,255L817,-30Z" fill="#9fdaca" stroke="#9fdaca" stroke-width="1.51"/><path d="M532,-30L532,255L817,-30Z" fill="#afe1d5" stroke="#afe1d5" stroke-width="1.51"/><path d="M532,-30L817,-30L817,-315Z" fill="#b4e2d8" stroke="#b4e2d8" stroke-width="1.51"/><path d="M532,-315L532,-30L817,-315Z" fill="#bfe6e0" stroke="#bfe6e0" stroke-width="1.51"/><path d="M247,1395L532,1395L532,1110Z" fill="#64a57d" stroke="#64a57d" stroke-width="1.51"/><path d="M247,1110L247,1395L532,1110Z" fill="#70ae86" stroke="#70ae86" stroke-width="1.51"/><path d="M247,1110L532,1110L532,825Z" fill="#71b78e" stroke="#71b78e" stroke-width="1.51"/><path d="M247,825L247,1110L532,825Z" fill="#7ec29b" stroke="#7ec29b" stroke-width="1.51"/><path d="M247,825L532,825L532,540Z" fill="#81caab" stroke="#81caab" stroke-width="1.51"/><path d="M247,540L247,825L532,540Z" fill="#8ed1b7" stroke="#8ed1b7" stroke-width="1.51"/><path d="M247,540L532,540L532,255Z" fill="#96d6c4" stroke="#96d6c4" stroke-width="1.51"/><path d="M247,255L247,540L532,255Z" fill="#a6ddcf" stroke="#a6ddcf" stroke-width="1.51"/><path d="M247,255L532,255L532,-30Z" fill="#b3e2d7" stroke="#b3e2d7" stroke-width="1.51"/><path d="M247,-30L247,255L532,-30Z" fill="#c3e9e0" stroke="#c3e9e0" stroke-width="1.51"/><path d="M247,-30L532,-30L532,-315Z" fill="#c7eae4" stroke="#c7eae4" stroke-width="1.51"/><path d="M247,-315L247,-30L532,-315Z" fill="#d3eeeb" stroke="#d3eeeb" stroke-width="1.51"/><path d="M-38,1395L247,1395L247,1110Z" fill="#76ab87" stroke="#76ab87" stroke-width="1.51"/><path d="M-38,1110L-38,1395L247,1110Z" fill="#7db38e" stroke="#7db38e" stroke-width="1.51"/><path d="M-38,1110L247,1110L247,825Z" fill="#83be98" stroke="#83be98" stroke-width="1.51"/><path d="M-38,825L-38,1110L247,825Z" fill="#8bc7a4" stroke="#8bc7a4" stroke-width="1.51"/><path d="M-38,825L247,825L247,540Z" fill="#93d1b5" stroke="#93d1b5" stroke-width="1.51"/><path d="M-38,540L-38,825L247,540Z" fill="#9cd6c0" stroke="#9cd6c0" stroke-width="1.51"/><path d="M-38,540L247,540L247,255Z" fill="#a8dcce" stroke="#a8dcce" stroke-width="1.51"/><path d="M-38,255L-38,540L247,255Z" fill="#b4e2d8" stroke="#b4e2d8" stroke-width="1.51"/><path d="M-38,255L247,255L247,-30Z" fill="#c4e9e1" stroke="#c4e9e1" stroke-width="1.51"/><path d="M-38,-30L-38,255L247,-30Z" fill="#d0eee9" stroke="#d0eee9" stroke-width="1.51"/><path d="M-38,-30L247,-30L247,-315Z" fill="#d8f0ef" stroke="#d8f0ef" stroke-width="1.51"/><path d="M-38,-315L-38,-30L247,-315Z" fill="#e0f3f4" stroke="#e0f3f4" stroke-width="1.51"/><path d="M-323,1395L-38,1395L-38,1110Z" fill="#7faf8d" stroke="#7faf8d" stroke-width="1.51"/><path d="M-323,1110L-323,1395L-38,1110Z" fill="#86b693" stroke="#86b693" stroke-width="1.51"/><path d="M-323,1110L-38,1110L-38,825Z" fill="#8dc19e" stroke="#8dc19e" stroke-width="1.51"/><path d="M-323,825L-323,1110L-38,825Z" fill="#94caa9" stroke="#94caa9" stroke-width="1.51"/><path d="M-323,825L-38,825L-38,540Z" fill="#9dd4bc" stroke="#9dd4bc" stroke-width="1.51"/><path d="M-323,540L-323,825L-38,540Z" fill="#a5d9c5" stroke="#a5d9c5" stroke-width="1.51"/><path d="M-323,540L-38,540L-38,255Z" fill="#b1e0d5" stroke="#b1e0d5" stroke-width="1.51"/><path d="M-323,255L-323,540L-38,255Z" fill="#bde5dd" stroke="#bde5dd" stroke-width="1.51"/><path d="M-323,255L-38,255L-38,-30Z" fill="#cdece8" stroke="#cdece8" stroke-width="1.51"/><path d="M-323,-30L-323,255L-38,-30Z" fill="#d9f1ee" stroke="#d9f1ee" stroke-width="1.51"/><path d="M-323,-30L-38,-30L-38,-315Z" fill="#e2f4f6" stroke="#e2f4f6" stroke-width="1.51"/><path d="M-323,-315L-323,-30L-38,-315Z" fill="#e9f6fa" stroke="#e9f6fa" stroke-width="1.51"/></svg>