<svg xmlns="http://www.w3.org/2000/svg" width="1920" height="1080"><path d="M1980,1260L2100,1260L2100,1140Z" fill="#141414" stroke="#141414" stroke-width="1.51"/><path d="M1980,1140L1980,1260L2100,1140Z" fill="#191919" stroke="#191919" stroke-width="1.51"/><path d="M1980,1140L2100,1140L2100,1020Z" fill="#1e1e1e" stroke="#1e1e1e" stroke-width="1.51"/><path d="M1980,1020L1980,1140L2100,1020Z" fill="#242424" stroke="#242424" stroke-width="1.51"/><path d="M1980,1020L2100,1020L2100,900Z" fill="#2b2b2b" stroke="#2b2b2b" stroke-width="1.51"/><path d="M1980,900L1980,1020L2100,900Z" fill="#313131" stroke="#313131" stroke-width="1.51"/><path d="M1980,900L2100,900L2100,780Z" fill="#363636" stroke="#363636" stroke-width="1.51"/><path d="M1980,780L1980,900L2100,780Z" fill="#3a3a3a" stroke="#3a3a3a" stroke-width="1.51"/><path d="M1980,780L2100,780L2100,660Z" fill="#3f3f3f" stroke="#3f3f3f" stroke-width="1.51"/><path d="M1980,660L1980,780L2100,660Z" fill="#444444" stroke="#444444" stroke-width="1.51"/><path d="M1980,660L2100,660L2100,540Z" fill="#484848" stroke="#484848" stroke-width="1.51"/><path d="M1980,540L1980,660L2100,540Z" fill="#4e4e4e" stroke="#4e4e4e" stroke-width="1.51"/><path d="M1980,540L2100,540L2100,420Z" fill="#525252" stroke="#525252" stroke-width="1.51"/><path d="M1980,420L1980,540L2100,420Z" fill="#585858" stroke="#585858" stroke-width="1.51"/><path d="M1980,420L2100,420L2100,300Z" fill="#5d5d5d" stroke="#5d5d5d" stroke-width="1.51"/><path d="M1980,300L1980,420L2100,300Z" fill="#636363" stroke="#636363" stroke-width="1.51"/><path d="M1980,300L2100,300L2100,180Z" fill="#666666" stroke="#666666" stroke-width="1.51"/><path d="M1980,180L1980,300L2100,180Z" fill="#6a6a6a" stroke="#6a6a6a" stroke-width="1.51"/><path d="M1980,180L2100,180L2100,60Z" fill="#6d6d6d" stroke="#6d6d6d" stroke-width="1.51"/><path d="M1980,60L1980,180L2100,60Z" fill="#717171" stroke="#717171" stroke-width="1.51"/><path d="M1980,60L2100,60L2100,-60Z" fill="#737373" stroke="#737373" stroke-width="1.51"/><path d="M1980,-60L1980,60L2100,-60Z" fill="#787878" stroke="#787878" stroke-width="1.51"/><path d="M1980,-60L2100,-60L2100,-180Z" fill="#787878" stroke="#787878" stroke-width="1.51"/><path d="M1980,-180L1980,-60L2100,-180Z" fill="#7c7c7c" stroke="#7c7c7c" stroke-width="1.51"/><path d="M1860,1260L1980,1260L1980,1140Z" fill="#1a1a1a" stroke="#1a1a1a" stroke-width="1.51"/><path d="M1860,1140L1860,1260L1980,1140Z" fill="#1f1f1f" stroke="#1f1f1f" stroke-width="1.51"/><path d="M1860,1140L1980,1140L1980,1020Z" fill="#232323" stroke="#232323" stroke-width="1.51"/><path d="M1860,1020L1860,1140L1980,1020Z" fill="#2a2a2a" stroke="#2a2a2a" stroke-width="1.51"/><path d="M1860,1020L1980,1020L1980,900Z" fill="#313131" stroke="#313131" stroke-width="1.51"/><path d="M1860,900L1860,1020L1980,900Z" fill="#383838" stroke="#383838" stroke-width="1.51"/><path d="M1860,900L1980,900L1980,780Z" fill="#3c3c3c" stroke="#3c3c3c" stroke-width="1.51"/><path d="M1860,780L1860,900L1980,780Z" fill="#414141" stroke="#414141" stroke-width="1.51"/><path d="M1860,780L1980,780L1980,660Z" fill="#454545" stroke="#454545" stroke-width="1.51"/><path d="M1860,660L1860,780L1980,660Z" fill="#4b4b4b" stroke="#4b4b4b" stroke-width="1.51"/><path d="M1860,660L1980,660L1980,540Z" fill="#4f4f4f" stroke="#4f4f4f" stroke-width="1.51"/><path d="M1860,540L1860,660L1980,540Z" fill="#555555" stroke="#555555" stroke-width="1.51"/><path d="M1860,540L1980,540L1980,420Z" fill="#595959" stroke="#595959" stroke-width="1.51"/><path d="M1860,420L1860,540L1980,420Z" fill="#5f5f5f" stroke="#5f5f5f" stroke-width="1.51"/><path d="M1860,420L1980,420L1980,300Z" fill="#646464" stroke="#646464" stroke-width="1.51"/><path d="M1860,300L1860,420L1980,300Z" fill="#6a6a6a" stroke="#6a6a6a" stroke-width="1.51"/><path d="M1860,300L1980,300L1980,180Z" fill="#6d6d6d" stroke="#6d6d6d" stroke-width="1.51"/><path d="M1860,180L1860,300L1980,180Z" fill="#727272" stroke="#727272" stroke-width="1.51"/><path d="M1860,180L1980,180L1980,60Z" fill="#747474" stroke="#747474" stroke-width="1.51"/><path d="M1860,60L1860,180L1980,60Z" fill="#797979" stroke="#797979" stroke-width="1.51"/><path d="M1860,60L1980,60L1980,-60Z" fill="#7a7a7a" stroke="#7a7a7a" stroke-width="1.51"/><path d="M1860,-60L1860,60L1980,-60Z" fill="#7f7f7f" stroke="#7f7f7f" stroke-width="1.51"/><path d="M1860,-60L1980,-60L1980,-180Z" fill="#808080" stroke="#808080" stroke-width="1.51"/><path d="M1860,-180L1860,-60L1980,-180Z" fill="#848484" stroke="#848484" stroke-width="1.51"/><path d="M1740,1260L1860,1260L1860,1140Z" fill="#212121" stroke="#212121" stroke-width="1.51"/><path d="M1740,1140L1740,1260L1860,1140Z" fill="#262626" stroke="#262626" stroke-width="1.51"/><path d="M1740,1140L1860,1140L1860,1020Z" fill="#2a2a2a" stroke="#2a2a2a" stroke-width="1.51"/><path d="M1740,1020L1740,1140L1860,1020Z" fill="#313131" stroke="#313131" stroke-width="1.51"/><path d="M1740,1020L1860,1020L1860,900Z" fill="#383838" stroke="#383838" stroke-width="1.51"/><path d="M1740,900L1740,1020L1860,900Z" fill="#404040" stroke="#404040" stroke-width="1.51"/><path d="M1740,900L1860,900L1860,780Z" fill="#444444" stroke="#444444" stroke-width="1.51"/><path d="M1740,780L1740,900L1860,780Z" fill="#494949" stroke="#494949" stroke-width="1.51"/><path d="M1740,780L1860,780L1860,660Z" fill="#4d4d4d" stroke="#4d4d4d" stroke-width="1.51"/><path d="M1740,660L1740,780L1860,660Z" fill="#535353" stroke="#535353" stroke-width="1.51"/><path d="M1740,660L1860,660L1860,540Z" fill="#575757" stroke="#575757" stroke-width="1.51"/><path d="M1740,540L1740,660L1860,540Z" fill="#5d5d5d" stroke="#5d5d5d" stroke-width="1.51"/><path d="M1740,540L1860,540L1860,420Z" fill="#616161" stroke="#616161" stroke-width="1.51"/><path d="M1740,420L1740,540L1860,420Z" fill="#686868" stroke="#686868" stroke-width="1.51"/><path d="M1740,420L1860,420L1860,300Z" fill="#6c6c6c" stroke="#6c6c6c" stroke-width="1.51"/><path d="M1740,300L1740,420L1860,300Z" fill="#737373" stroke="#737373" stroke-width="1.51"/><path d="M1740,300L1860,300L1860,180Z" fill="#757575" stroke="#757575" stroke-width="1.51"/><path d="M1740,180L1740,300L1860,180Z" fill="#7b7b7b" stroke="#7b7b7b" stroke-width="1.51"/><path d="M1740,180L1860,180L1860,60Z" fill="#7d7d7d" stroke="#7d7d7d" stroke-width="1.51"/><path d="M1740,60L1740,180L1860,60Z" fill="#828282" stroke="#828282" stroke-width="1.51"/><path d="M1740,60L1860,60L1860,-60Z" fill="#838383" stroke="#838383" stroke-width="1.51"/><path d="M1740,-60L1740,60L1860,-60Z" fill="#888888" stroke="#888888" stroke-width="1.51"/><path d="M1740,-60L1860,-60L1860,-180Z" fill="#888888" stroke="#888888" stroke-width="1.51"/><path d="M1740,-180L1740,-60L1860,-180Z" fill="#8d8d8d" stroke="#8d8d8d" stroke-width="1.51"/><path d="M1620,1260L1740,1260L1740,1140Z" fill="#292929" stroke="#292929" stroke-width="1.51"/><path d="M1620,1140L1620,1260L1740,1140Z" fill="#2f2f2f" stroke="#2f2f2f" stroke-width="1.51"/><path d="M1620,1140L1740,1140L1740,1020Z" fill="#333333" stroke="#333333" stroke-width="1.51"/><path d="M1620,1020L1620,1140L1740,1020Z" fill="#3a3a3a" stroke="#3a3a3a" stroke-width="1.51"/><path d="M1620,1020L1740,1020L1740,900Z" fill="#414141" stroke="#414141" stroke-width="1.51"/><path d="M1620,900L1620,1020L1740,900Z" fill="#494949" stroke="#494949" stroke-width="1.51"/><path d="M1620,900L1740,900L1740,780Z" fill="#4d4d4d" stroke="#4d4d4d" stroke-width="1.51"/><path d="M1620,780L1620,900L1740,780Z" fill="#535353" stroke="#535353" stroke-width="1.51"/><path d="M1620,780L1740,780L1740,660Z" fill="#565656" stroke="#565656" stroke-width="1.51"/><path d="M1620,660L1620,780L1740,660Z" fill="#5d5d5d" stroke="#5d5d5d" stroke-width="1.51"/><path d="M1620,660L1740,660L1740,540Z" fill="#606060" stroke="#606060" stroke-width="1.51"/><path d="M1620,540L1620,660L1740,540Z" fill="#676767" stroke="#676767" stroke-width="1.51"/><path d="M1620,540L1740,540L1740,420Z" fill="#6b6b6b" stroke="#6b6b6b" stroke-width="1.51"/><path d="M1620,420L1620,540L1740,420Z" fill="#727272" stroke="#727272" stroke-width="1.51"/><path d="M1620,420L1740,420L1740,300Z" fill="#767676" stroke="#767676" stroke-width="1.51"/><path d="M1620,300L1620,420L1740,300Z" fill="#7d7d7d" stroke="#7d7d7d" stroke-width="1.51"/><path d="M1620,300L1740,300L1740,180Z" fill="#7f7f7f" stroke="#7f7f7f" stroke-width="1.51"/><path d="M1620,180L1620,300L1740,180Z" fill="#858585" stroke="#858585" stroke-width="1.51"/><path d="M1620,180L1740,180L1740,60Z" fill="#878787" stroke="#878787" stroke-width="1.51"/><path d="M1620,60L1620,180L1740,60Z" fill="#8c8c8c" stroke="#8c8c8c" stroke-width="1.51"/><path d="M1620,60L1740,60L1740,-60Z" fill="#8d8d8d" stroke="#8d8d8d" stroke-width="1.51"/><path d="M1620,-60L1620,60L1740,-60Z" fill="#939393" stroke="#939393" stroke-width="1.51"/><path d="M1620,-60L1740,-60L1740,-180Z" fill="#939393" stroke="#939393" stroke-width="1.51"/><path d="M1620,-180L1620,-60L1740,-180Z" fill="#979797" stroke="#979797" stroke-width="1.51"/><path d="M1500,1260L1620,1260L1620,1140Z" fill="#323232" stroke="#323232" stroke-width="1.51"/><path d="M1500,1140L1500,1260L1620,1140Z" fill="#373737" stroke="#373737" stroke-width="1.51"/><path d="M1500,1140L1620,1140L1620,1020Z" fill="#3c3c3c" stroke="#3c3c3c" stroke-width="1.51"/><path d="M1500,1020L1500,1140L1620,1020Z" fill="#434343" stroke="#434343" stroke-width="1.51"/><path d="M1500,1020L1620,1020L1620,900Z" fill="#4a4a4a" stroke="#4a4a4a" stroke-width="1.51"/><path d="M1500,900L1500,1020L1620,900Z" fill="#525252" stroke="#525252" stroke-width="1.51"/><path d="M1500,900L1620,900L1620,780Z" fill="#565656" stroke="#565656" stroke-width="1.51"/><path d="M1500,780L1500,900L1620,780Z" fill="#5c5c5c" stroke="#5c5c5c" stroke-width="1.51"/><path d="M1500,780L1620,780L1620,660Z" fill="#606060" stroke="#606060" stroke-width="1.51"/><path d="M1500,660L1500,780L1620,660Z" fill="#666666" stroke="#666666" stroke-width="1.51"/><path d="M1500,660L1620,660L1620,540Z" fill="#6a6a6a" stroke="#6a6a6a" stroke-width="1.51"/><path d="M1500,540L1500,660L1620,540Z" fill="#717171" stroke="#717171" stroke-width="1.51"/><path d="M1500,540L1620,540L1620,420Z" fill="#757575" stroke="#757575" stroke-width="1.51"/><path d="M1500,420L1500,540L1620,420Z" fill="#7c7c7c" stroke="#7c7c7c" stroke-width="1.51"/><path d="M1500,420L1620,420L1620,300Z" fill="#818181" stroke="#818181" stroke-width="1.51"/><path d="M1500,300L1500,420L1620,300Z" fill="#878787" stroke="#878787" stroke-width="1.51"/><path d="M1500,300L1620,300L1620,180Z" fill="#898989" stroke="#898989" stroke-width="1.51"/><path d="M1500,180L1500,300L1620,180Z" fill="#8f8f8f" stroke="#8f8f8f" stroke-width="1.51"/><path d="M1500,180L1620,180L1620,60Z" fill="#919191" stroke="#919191" stroke-width="1.51"/><path d="M1500,60L1500,180L1620,60Z" fill="#979797" stroke="#979797" stroke-width="1.51"/><path d="M1500,60L1620,60L1620,-60Z" fill="#989898" stroke="#989898" stroke-width="1.51"/><path d="M1500,-60L1500,60L1620,-60Z" fill="#9d9d9d" stroke="#9d9d9d" stroke-width="1.51"/><path d="M1500,-60L1620,-60L1620,-180Z" fill="#9d9d9d" stroke="#9d9d9d" stroke-width="1.51"/><path d="M1500,-180L1500,-60L1620,-180Z" fill="#a2a2a2" stroke="#a2a2a2" stroke-width="1.51"/><path d="M1380,1260L1500,1260L1500,1140Z" fill="#383838" stroke="#383838" stroke-width="1.51"/><path d="M1380,1140L1380,1260L1500,1140Z" fill="#3d3d3d" stroke="#3d3d3d" stroke-width="1.51"/><path d="M1380,1140L1500,1140L1500,1020Z" fill="#434343" stroke="#434343" stroke-width="1.51"/><path d="M1380,1020L1380,1140L1500,1020Z" fill="#494949" stroke="#494949" stroke-width="1.51"/><path d="M1380,1020L1500,1020L1500,900Z" fill="#515151" stroke="#515151" stroke-width="1.51"/><path d="M1380,900L1380,1020L1500,900Z" fill="#585858" stroke="#585858" stroke-width="1.51"/><path d="M1380,900L1500,900L1500,780Z" fill="#5d5d5d" stroke="#5d5d5d" stroke-width="1.51"/><path d="M1380,780L1380,900L1500,780Z" fill="#626262" stroke="#626262" stroke-width="1.51"/><path d="M1380,780L1500,780L1500,660Z" fill="#676767" stroke="#676767" stroke-width="1.51"/><path d="M1380,660L1380,780L1500,660Z" fill="#6d6d6d" stroke="#6d6d6d" stroke-width="1.51"/><path d="M1380,660L1500,660L1500,540Z" fill="#727272" stroke="#727272" stroke-width="1.51"/><path d="M1380,540L1380,660L1500,540Z" fill="#787878" stroke="#787878" stroke-width="1.51"/><path d="M1380,540L1500,540L1500,420Z" fill="#7d7d7d" stroke="#7d7d7d" stroke-width="1.51"/><path d="M1380,420L1380,540L1500,420Z" fill="#838383" stroke="#838383" stroke-width="1.51"/><path d="M1380,420L1500,420L1500,300Z" fill="#888888" stroke="#888888" stroke-width="1.51"/><path d="M1380,300L1380,420L1500,300Z" fill="#8e8e8e" stroke="#8e8e8e" stroke-width="1.51"/><path d="M1380,300L1500,300L1500,180Z" fill="#919191" stroke="#919191" stroke-width="1.51"/><path d="M1380,180L1380,300L1500,180Z" fill="#969696" stroke="#969696" stroke-width="1.51"/><path d="M1380,180L1500,180L1500,60Z" fill="#999999" stroke="#999999" stroke-width="1.51"/><path d="M1380,60L1380,180L1500,60Z" fill="#9e9e9e" stroke="#9e9e9e" stroke-width="1.51"/><path d="M1380,60L1500,60L1500,-60Z" fill="#a0a0a0" stroke="#a0a0a0" stroke-width="1.51"/><path d="M1380,-60L1380,60L1500,-60Z" fill="#a4a4a4" stroke="#a4a4a4" stroke-width="1.51"/><path d="M1380,-60L1500,-60L1500,-180Z" fill="#a5a5a5" stroke="#a5a5a5" stroke-width="1.51"/><path d="M1380,-180L1380,-60L1500,-180Z" fill="#a9a9a9" stroke="#a9a9a9" stroke-width="1.51"/><path d="M1260,1260L1380,1260L1380,1140Z" fill="#3e3e3e" stroke="#3e3e3e" stroke-width="1.51"/><path d="M1260,1140L1260,1260L1380,1140Z" fill="#434343" stroke="#434343" stroke-width="1.51"/><path d="M1260,1140L1380,1140L1380,1020Z" fill="#494949" stroke="#494949" stroke-width="1.51"/><path d="M1260,1020L1260,1140L1380,1020Z" fill="#505050" stroke="#505050" stroke-width="1.51"/><path d="M1260,1020L1380,1020L1380,900Z" fill="#585858" stroke="#585858" stroke-width="1.51"/><path d="M1260,900L1260,1020L1380,900Z" fill="#5f5f5f" stroke="#5f5f5f" stroke-width="1.51"/><path d="M1260,900L1380,900L1380,780Z" fill="#646464" stroke="#646464" stroke-width="1.51"/><path d="M1260,780L1260,900L1380,780Z" fill="#696969" stroke="#696969" stroke-width="1.51"/><path d="M1260,780L1380,780L1380,660Z" fill="#6e6e6e" stroke="#6e6e6e" stroke-width="1.51"/><path d="M1260,660L1260,780L1380,660Z" fill="#737373" stroke="#737373" stroke-width="1.51"/><path d="M1260,660L1380,660L1380,540Z" fill="#787878" stroke="#787878" stroke-width="1.51"/><path d="M1260,540L1260,660L1380,540Z" fill="#7e7e7e" stroke="#7e7e7e" stroke-width="1.51"/><path d="M1260,540L1380,540L1380,420Z" fill="#848484" stroke="#848484" stroke-width="1.51"/><path d="M1260,420L1260,540L1380,420Z" fill="#898989" stroke="#898989" stroke-width="1.51"/><path d="M1260,420L1380,420L1380,300Z" fill="#8f8f8f" stroke="#8f8f8f" stroke-width="1.51"/><path d="M1260,300L1260,420L1380,300Z" fill="#959595" stroke="#959595" stroke-width="1.51"/><path d="M1260,300L1380,300L1380,180Z" fill="#989898" stroke="#989898" stroke-width="1.51"/><path d="M1260,180L1260,300L1380,180Z" fill="#9d9d9d" stroke="#9d9d9d" stroke-width="1.51"/><path d="M1260,180L1380,180L1380,60Z" fill="#a0a0a0" stroke="#a0a0a0" stroke-width="1.51"/><path d="M1260,60L1260,180L1380,60Z" fill="#a5a5a5" stroke="#a5a5a5" stroke-width="1.51"/><path d="M1260,60L1380,60L1380,-60Z" fill="#a7a7a7" stroke="#a7a7a7" stroke-width="1.51"/><path d="M1260,-60L1260,60L1380,-60Z" fill="#ababab" stroke="#ababab" stroke-width="1.51"/><path d="M1260,-60L1380,-60L1380,-180Z" fill="#acacac" stroke="#acacac" stroke-width="1.51"/><path d="M1260,-180L1260,-60L1380,-180Z" fill="#b0b0b0" stroke="#b0b0b0" stroke-width="1.51"/><path d="M1140,1260L1260,1260L1260,1140Z" fill="#454545" stroke="#454545" stroke-width="1.51"/><path d="M1140,1140L1140,1260L1260,1140Z" fill="#4a4a4a" stroke="#4a4a4a" stroke-width="1.51"/><path d="M1140,1140L1260,1140L1260,1020Z" fill="#4f4f4f" stroke="#4f4f4f" stroke-width="1.51"/><path d="M1140,1020L1140,1140L1260,1020Z" fill="#565656" stroke="#565656" stroke-width="1.51"/><path d="M1140,1020L1260,1020L1260,900Z" fill="#5e5e5e" stroke="#5e5e5e" stroke-width="1.51"/><path d="M1140,900L1140,1020L1260,900Z" fill="#666666" stroke="#666666" stroke-width="1.51"/><path d="M1140,900L1260,900L1260,780Z" fill="#6b6b6b" stroke="#6b6b6b" stroke-width="1.51"/><path d="M1140,780L1140,900L1260,780Z" fill="#707070" stroke="#707070" stroke-width="1.51"/><path d="M1140,780L1260,780L1260,660Z" fill="#757575" stroke="#757575" stroke-width="1.51"/><path d="M1140,660L1140,780L1260,660Z" fill="#7a7a7a" stroke="#7a7a7a" stroke-width="1.51"/><path d="M1140,660L1260,660L1260,540Z" fill="#7f7f7f" stroke="#7f7f7f" stroke-width="1.51"/><path d="M1140,540L1140,660L1260,540Z" fill="#858585" stroke="#858585" stroke-width="1.51"/><path d="M1140,540L1260,540L1260,420Z" fill="#8b8b8b" stroke="#8b8b8b" stroke-width="1.51"/><path d="M1140,420L1140,540L1260,420Z" fill="#919191" stroke="#919191" stroke-width="1.51"/><path d="M1140,420L1260,420L1260,300Z" fill="#969696" stroke="#969696" stroke-width="1.51"/><path d="M1140,300L1140,420L1260,300Z" fill="#9c9c9c" stroke="#9c9c9c" stroke-width="1.51"/><path d="M1140,300L1260,300L1260,180Z" fill="#a0a0a0" stroke="#a0a0a0" stroke-width="1.51"/><path d="M1140,180L1140,300L1260,180Z" fill="#a5a5a5" stroke="#a5a5a5" stroke-width="1.51"/><path d="M1140,180L1260,180L1260,60Z" fill="#a8a8a8" stroke="#a8a8a8" stroke-width="1.51"/><path d="M1140,60L1140,180L1260,60Z" fill="#acacac" stroke="#acacac" stroke-width="1.51"/><path d="M1140,60L1260,60L1260,-60Z" fill="#aeaeae" stroke="#aeaeae" stroke-width="1.51"/><path d="M1140,-60L1140,60L1260,-60Z" fill="#b3b3b3" stroke="#b3b3b3" stroke-width="1.51"/><path d="M1140,-60L1260,-60L1260,-180Z" fill="#b4b4b4" stroke="#b4b4b4" stroke-width="1.51"/><path d="M1140,-180L1140,-60L1260,-180Z" fill="#b8b8b8" stroke="#b8b8b8" stroke-width="1.51"/><path d="M1020,1260L1140,1260L1140,1140Z" fill="#4a4a4a" stroke="#4a4a4a" stroke-width="1.51"/><path d="M1020,1140L1020,1260L1140,1140Z" fill="#505050" stroke="#505050" stroke-width="1.51"/><path d="M1020,1140L1140,1140L1140,1020Z" fill="#555555" stroke="#555555" stroke-width="1.51"/><path d="M1020,1020L1020,1140L1140,1020Z" fill="#5d5d5d" stroke="#5d5d5d" stroke-width="1.51"/><path d="M1020,1020L1140,1020L1140,900Z" fill="#656565" stroke="#656565" stroke-width="1.51"/><path d="M1020,900L1020,1020L1140,900Z" fill="#6c6c6c" stroke="#6c6c6c" stroke-width="1.51"/><path d="M1020,900L1140,900L1140,780Z" fill="#717171" stroke="#717171" stroke-width="1.51"/><path d="M1020,780L1020,900L1140,780Z" fill="#777777" stroke="#777777" stroke-width="1.51"/><path d="M1020,780L1140,780L1140,660Z" fill="#7b7b7b" stroke="#7b7b7b" stroke-width="1.51"/><path d="M1020,660L1020,780L1140,660Z" fill="#818181" stroke="#818181" stroke-width="1.51"/><path d="M1020,660L1140,660L1140,540Z" fill="#868686" stroke="#868686" stroke-width="1.51"/><path d="M1020,540L1020,660L1140,540Z" fill="#8c8c8c" stroke="#8c8c8c" stroke-width="1.51"/><path d="M1020,540L1140,540L1140,420Z" fill="#919191" stroke="#919191" stroke-width="1.51"/><path d="M1020,420L1020,540L1140,420Z" fill="#989898" stroke="#989898" stroke-width="1.51"/><path d="M1020,420L1140,420L1140,300Z" fill="#9d9d9d" stroke="#9d9d9d" stroke-width="1.51"/><path d="M1020,300L1020,420L1140,300Z" fill="#a4a4a4" stroke="#a4a4a4" stroke-width="1.51"/><path d="M1020,300L1140,300L1140,180Z" fill="#a6a6a6" stroke="#a6a6a6" stroke-width="1.51"/><path d="M1020,180L1020,300L1140,180Z" fill="#acacac" stroke="#acacac" stroke-width="1.51"/><path d="M1020,180L1140,180L1140,60Z" fill="#afafaf" stroke="#afafaf" stroke-width="1.51"/><path d="M1020,60L1020,180L1140,60Z" fill="#b4b4b4" stroke="#b4b4b4" stroke-width="1.51"/><path d="M1020,60L1140,60L1140,-60Z" fill="#b5b5b5" stroke="#b5b5b5" stroke-width="1.51"/><path d="M1020,-60L1020,60L1140,-60Z" fill="#bababa" stroke="#bababa" stroke-width="1.51"/><path d="M1020,-60L1140,-60L1140,-180Z" fill="#bbbbbb" stroke="#bbbbbb" stroke-width="1.51"/><path d="M1020,-180L1020,-60L1140,-180Z" fill="#bfbfbf" stroke="#bfbfbf" stroke-width="1.51"/><path d="M900,1260L1020,1260L1020,1140Z" fill="#515151" stroke="#515151" stroke-width="1.51"/><path d="M900,1140L900,1260L1020,1140Z" fill="#575757" stroke="#575757" stroke-width="1.51"/><path d="M900,1140L1020,1140L1020,1020Z" fill="#5c5c5c" stroke="#5c5c5c" stroke-width="1.51"/><path d="M900,1020L900,1140L1020,1020Z" fill="#646464" stroke="#646464" stroke-width="1.51"/><path d="M900,1020L1020,1020L1020,900Z" fill="#6c6c6c" stroke="#6c6c6c" stroke-width="1.51"/><path d="M900,900L900,1020L1020,900Z" fill="#737373" stroke="#737373" stroke-width="1.51"/><path d="M900,900L1020,900L1020,780Z" fill="#787878" stroke="#787878" stroke-width="1.51"/><path d="M900,780L900,900L1020,780Z" fill="#7e7e7e" stroke="#7e7e7e" stroke-width="1.51"/><path d="M900,780L1020,780L1020,660Z" fill="#838383" stroke="#838383" stroke-width="1.51"/><path d="M900,660L900,780L1020,660Z" fill="#898989" stroke="#898989" stroke-width="1.51"/><path d="M900,660L1020,660L1020,540Z" fill="#8d8d8d" stroke="#8d8d8d" stroke-width="1.51"/><path d="M900,540L900,660L1020,540Z" fill="#949494" stroke="#949494" stroke-width="1.51"/><path d="M900,540L1020,540L1020,420Z" fill="#999999" stroke="#999999" stroke-width="1.51"/><path d="M900,420L900,540L1020,420Z" fill="#9f9f9f" stroke="#9f9f9f" stroke-width="1.51"/><path d="M900,420L1020,420L1020,300Z" fill="#a5a5a5" stroke="#a5a5a5" stroke-width="1.51"/><path d="M900,300L900,420L1020,300Z" fill="#ababab" stroke="#ababab" stroke-width="1.51"/><path d="M900,300L1020,300L1020,180Z" fill="#aeaeae" stroke="#aeaeae" stroke-width="1.51"/><path d="M900,180L900,300L1020,180Z" fill="#b4b4b4" stroke="#b4b4b4" stroke-width="1.51"/><path d="M900,180L1020,180L1020,60Z" fill="#b6b6b6" stroke="#b6b6b6" stroke-width="1.51"/><path d="M900,60L900,180L1020,60Z" fill="#bbbbbb" stroke="#bbbbbb" stroke-width="1.51"/><path d="M900,60L1020,60L1020,-60Z" fill="#bdbdbd" stroke="#bdbdbd" stroke-width="1.51"/><path d="M900,-60L900,60L1020,-60Z" fill="#c2c2c2" stroke="#c2c2c2" stroke-width="1.51"/><path d="M900,-60L1020,-60L1020,-180Z" fill="#c3c3c3" stroke="#c3c3c3" stroke-width="1.51"/><path d="M900,-180L900,-60L1020,-180Z" fill="#c7c7c7" stroke="#c7c7c7" stroke-width="1.51"/><path d="M780,1260L900,1260L900,1140Z" fill="#585858" stroke="#585858" stroke-width="1.51"/><path d="M780,1140L780,1260L900,1140Z" fill="#5e5e5e" stroke="#5e5e5e" stroke-width="1.51"/><path d="M780,1140L900,1140L900,1020Z" fill="#636363" stroke="#636363" stroke-width="1.51"/><path d="M780,1020L780,1140L900,1020Z" fill="#6b6b6b" stroke="#6b6b6b" stroke-width="1.51"/><path d="M780,1020L900,1020L900,900Z" fill="#737373" stroke="#737373" stroke-width="1.51"/><path d="M780,900L780,1020L900,900Z" fill="#7b7b7b" stroke="#7b7b7b" stroke-width="1.51"/><path d="M780,900L900,900L900,780Z" fill="#808080" stroke="#808080" stroke-width="1.51"/><path d="M780,780L780,900L900,780Z" fill="#858585" stroke="#858585" stroke-width="1.51"/><path d="M780,780L900,780L900,660Z" fill="#8a8a8a" stroke="#8a8a8a" stroke-width="1.51"/><path d="M780,660L780,780L900,660Z" fill="#909090" stroke="#909090" stroke-width="1.51"/><path d="M780,660L900,660L900,540Z" fill="#959595" stroke="#959595" stroke-width="1.51"/><path d="M780,540L780,660L900,540Z" fill="#9b9b9b" stroke="#9b9b9b" stroke-width="1.51"/><path d="M780,540L900,540L900,420Z" fill="#a0a0a0" stroke="#a0a0a0" stroke-width="1.51"/><path d="M780,420L780,540L900,420Z" fill="#a7a7a7" stroke="#a7a7a7" stroke-width="1.51"/><path d="M780,420L900,420L900,300Z" fill="#acacac" stroke="#acacac" stroke-width="1.51"/><path d="M780,300L780,420L900,300Z" fill="#b3b3b3" stroke="#b3b3b3" stroke-width="1.51"/><path d="M780,300L900,300L900,180Z" fill="#b6b6b6" stroke="#b6b6b6" stroke-width="1.51"/><path d="M780,180L780,300L900,180Z" fill="#bbbbbb" stroke="#bbbbbb" stroke-width="1.51"/><path d="M780,180L900,180L900,60Z" fill="#bebebe" stroke="#bebebe" stroke-width="1.51"/><path d="M780,60L780,180L900,60Z" fill="#c3c3c3" stroke="#c3c3c3" stroke-width="1.51"/><path d="M780,60L900,60L900,-60Z" fill="#c5c5c5" stroke="#c5c5c5" stroke-width="1.51"/><path d="M780,-60L780,60L900,-60Z" fill="#cacaca" stroke="#cacaca" stroke-width="1.51"/><path d="M780,-60L900,-60L900,-180Z" fill="#cbcbcb" stroke="#cbcbcb" stroke-width="1.51"/><path d="M780,-180L780,-60L900,-180Z" fill="#cfcfcf" stroke="#cfcfcf" stroke-width="1.51"/><path d="M660,1260L780,1260L780,1140Z" fill="#5f5f5f" stroke="#5f5f5f" stroke-width="1.51"/><path d="M660,1140L660,1260L780,1140Z" fill="#656565" stroke="#656565" stroke-width="1.51"/><path d="M660,1140L780,1140L780,1020Z" fill="#6a6a6a" stroke="#6a6a6a" stroke-width="1.51"/><path d="M660,1020L660,1140L780,1020Z" fill="#727272" stroke="#727272" stroke-width="1.51"/><path d="M660,1020L780,1020L780,900Z" fill="#7a7a7a" stroke="#7a7a7a" stroke-width="1.51"/><path d="M660,900L660,1020L780,900Z" fill="#828282" stroke="#828282" stroke-width="1.51"/><path d="M660,900L780,900L780,780Z" fill="#878787" stroke="#878787" stroke-width="1.51"/><path d="M660,780L660,900L780,780Z" fill="#8d8d8d" stroke="#8d8d8d" stroke-width="1.51"/><path d="M660,780L780,780L780,660Z" fill="#919191" stroke="#919191" stroke-width="1.51"/><path d="M660,660L660,780L780,660Z" fill="#989898" stroke="#989898" stroke-width="1.51"/><path d="M660,660L780,660L780,540Z" fill="#9c9c9c" stroke="#9c9c9c" stroke-width="1.51"/><path d="M660,540L660,660L780,540Z" fill="#a3a3a3" stroke="#a3a3a3" stroke-width="1.51"/><path d="M660,540L780,540L780,420Z" fill="#a8a8a8" stroke="#a8a8a8" stroke-width="1.51"/><path d="M660,420L660,540L780,420Z" fill="#afafaf" stroke="#afafaf" stroke-width="1.51"/><path d="M660,420L780,420L780,300Z" fill="#b4b4b4" stroke="#b4b4b4" stroke-width="1.51"/><path d="M660,300L660,420L780,300Z" fill="#bbbbbb" stroke="#bbbbbb" stroke-width="1.51"/><path d="M660,300L780,300L780,180Z" fill="#bdbdbd" stroke="#bdbdbd" stroke-width="1.51"/><path d="M660,180L660,300L780,180Z" fill="#c3c3c3" stroke="#c3c3c3" stroke-width="1.51"/><path d="M660,180L780,180L780,60Z" fill="#c6c6c6" stroke="#c6c6c6" stroke-width="1.51"/><path d="M660,60L660,180L780,60Z" fill="#cbcbcb" stroke="#cbcbcb" stroke-width="1.51"/><path d="M660,60L780,60L780,-60Z" fill="#cdcdcd" stroke="#cdcdcd" stroke-width="1.51"/><path d="M660,-60L660,60L780,-60Z" fill="#d2d2d2" stroke="#d2d2d2" stroke-width="1.51"/><path d="M660,-60L780,-60L780,-180Z" fill="#d3d3d3" stroke="#d3d3d3" stroke-width="1.51"/><path d="M660,-180L660,-60L780,-180Z" fill="#d7d7d7" stroke="#d7d7d7" stroke-width="1.51"/><path d="M540,1260L660,1260L660,1140Z" fill="#656565" stroke="#656565" stroke-width="1.51"/><path d="M540,1140L540,1260L660,1140Z" fill="#6a6a6a" stroke="#6a6a6a" stroke-width="1.51"/><path d="M540,1140L660,1140L660,1020Z" fill="#717171" stroke="#717171" stroke-width="1.51"/><path d="M540,1020L540,1140L660,1020Z" fill="#777777" stroke="#777777" stroke-width="1.51"/><path d="M540,1020L660,1020L660,900Z" fill="#818181" stroke="#818181" stroke-width="1.51"/><path d="M540,900L540,1020L660,900Z" fill="#888888" stroke="#888888" stroke-width="1.51"/><path d="M540,900L660,900L660,780Z" fill="#8e8e8e" stroke="#8e8e8e" stroke-width="1.51"/><path d="M540,780L540,900L660,780Z" fill="#939393" stroke="#939393" stroke-width="1.51"/><path d="M540,780L660,780L660,660Z" fill="#999999" stroke="#999999" stroke-width="1.51"/><path d="M540,660L540,780L660,660Z" fill="#9e9e9e" stroke="#9e9e9e" stroke-width="1.51"/><path d="M540,660L660,660L660,540Z" fill="#a4a4a4" stroke="#a4a4a4" stroke-width="1.51"/><path d="M540,540L540,660L660,540Z" fill="#a9a9a9" stroke="#a9a9a9" stroke-width="1.51"/><path d="M540,540L660,540L660,420Z" fill="#afafaf" stroke="#afafaf" stroke-width="1.51"/><path d="M540,420L540,540L660,420Z" fill="#b5b5b5" stroke="#b5b5b5" stroke-width="1.51"/><path d="M540,420L660,420L660,300Z" fill="#bbbbbb" stroke="#bbbbbb" stroke-width="1.51"/><path d="M540,300L540,420L660,300Z" fill="#c1c1c1" stroke="#c1c1c1" stroke-width="1.51"/><path d="M540,300L660,300L660,180Z" fill="#c5c5c5" stroke="#c5c5c5" stroke-width="1.51"/><path d="M540,180L540,300L660,180Z" fill="#c9c9c9" stroke="#c9c9c9" stroke-width="1.51"/><path d="M540,180L660,180L660,60Z" fill="#cdcdcd" stroke="#cdcdcd" stroke-width="1.51"/><path d="M540,60L540,180L660,60Z" fill="#d1d1d1" stroke="#d1d1d1" stroke-width="1.51"/><path d="M540,60L660,60L660,-60Z" fill="#d4d4d4" stroke="#d4d4d4" stroke-width="1.51"/><path d="M540,-60L540,60L660,-60Z" fill="#d8d8d8" stroke="#d8d8d8" stroke-width="1.51"/><path d="M540,-60L660,-60L660,-180Z" fill="#dadada" stroke="#dadada" stroke-width="1.51"/><path d="M540,-180L540,-60L660,-180Z" fill="#dddddd" stroke="#dddddd" stroke-width="1.51"/><path d="M420,1260L540,1260L540,1140Z" fill="#6a6a6a" stroke="#6a6a6a" stroke-width="1.51"/><path d="M420,1140L420,1260L540,1140Z" fill="#707070" stroke="#707070" stroke-width="1.51"/><path d="M420,1140L540,1140L540,1020Z" fill="#767676" stroke="#767676" stroke-width="1.51"/><path d="M420,1020L420,1140L540,1020Z" fill="#7d7d7d" stroke="#7d7d7d" stroke-width="1.51"/><path d="M420,1020L540,1020L540,900Z" fill="#868686" stroke="#868686" stroke-width="1.51"/><path d="M420,900L420,1020L540,900Z" fill="#8d8d8d" stroke="#8d8d8d" stroke-width="1.51"/><path d="M420,900L540,900L540,780Z" fill="#939393" stroke="#939393" stroke-width="1.51"/><path d="M420,780L420,900L540,780Z" fill="#989898" stroke="#989898" stroke-width="1.51"/><path d="M420,780L540,780L540,660Z" fill="#9e9e9e" stroke="#9e9e9e" stroke-width="1.51"/><path d="M420,660L420,780L540,660Z" fill="#a3a3a3" stroke="#a3a3a3" stroke-width="1.51"/><path d="M420,660L540,660L540,540Z" fill="#a9a9a9" stroke="#a9a9a9" stroke-width="1.51"/><path d="M420,540L420,660L540,540Z" fill="#afafaf" stroke="#afafaf" stroke-width="1.51"/><path d="M420,540L540,540L540,420Z" fill="#b5b5b5" stroke="#b5b5b5" stroke-width="1.51"/><path d="M420,420L420,540L540,420Z" fill="#bbbbbb" stroke="#bbbbbb" stroke-width="1.51"/><path d="M420,420L540,420L540,300Z" fill="#c1c1c1" stroke="#c1c1c1" stroke-width="1.51"/><path d="M420,300L420,420L540,300Z" fill="#c7c7c7" stroke="#c7c7c7" stroke-width="1.51"/><path d="M420,300L540,300L540,180Z" fill="#cacaca" stroke="#cacaca" stroke-width="1.51"/><path d="M420,180L420,300L540,180Z" fill="#cfcfcf" stroke="#cfcfcf" stroke-width="1.51"/><path d="M420,180L540,180L540,60Z" fill="#d3d3d3" stroke="#d3d3d3" stroke-width="1.51"/><path d="M420,60L420,180L540,60Z" fill="#d7d7d7" stroke="#d7d7d7" stroke-width="1.51"/><path d="M420,60L540,60L540,-60Z" fill="#dadada" stroke="#dadada" stroke-width="1.51"/><path d="M420,-60L420,60L540,-60Z" fill="#dedede" stroke="#dedede" stroke-width="1.51"/><path d="M420,-60L540,-60L540,-180Z" fill="#e0e0e0" stroke="#e0e0e0" stroke-width="1.51"/><path d="M420,-180L420,-60L540,-180Z" fill="#e3e3e3" stroke="#e3e3e3" stroke-width="1.51"/><path d="M300,1260L420,1260L420,1140Z" fill="#6f6f6f" stroke="#6f6f6f" stroke-width="1.51"/><path d="M300,1140L300,1260L420,1140Z" fill="#757575" stroke="#757575" stroke-width="1.51"/><path d="M300,1140L420,1140L420,1020Z" fill="#7b7b7b" stroke="#7b7b7b" stroke-width="1.51"/><path d="M300,1020L300,1140L420,1020Z" fill="#828282" stroke="#828282" stroke-width="1.51"/><path d="M300,1020L420,1020L420,900Z" fill="#8b8b8b" stroke="#8b8b8b" stroke-width="1.51"/><path d="M300,900L300,1020L420,900Z" fill="#929292" stroke="#929292" stroke-width="1.51"/><path d="M300,900L420,900L420,780Z" fill="#989898" stroke="#989898" stroke-width="1.51"/><path d="M300,780L300,900L420,780Z" fill="#9d9d9d" stroke="#9d9d9d" stroke-width="1.51"/><path d="M300,780L420,780L420,660Z" fill="#a3a3a3" stroke="#a3a3a3" stroke-width="1.51"/><path d="M300,660L300,780L420,660Z" fill="#a9a9a9" stroke="#a9a9a9" stroke-width="1.51"/><path d="M300,660L420,660L420,540Z" fill="#aeaeae" stroke="#aeaeae" stroke-width="1.51"/><path d="M300,540L300,660L420,540Z" fill="#b4b4b4" stroke="#b4b4b4" stroke-width="1.51"/><path d="M300,540L420,540L420,420Z" fill="#bababa" stroke="#bababa" stroke-width="1.51"/><path d="M300,420L300,540L420,420Z" fill="#c0c0c0" stroke="#c0c0c0" stroke-width="1.51"/><path d="M300,420L420,420L420,300Z" fill="#c6c6c6" stroke="#c6c6c6" stroke-width="1.51"/><path d="M300,300L300,420L420,300Z" fill="#cccccc" stroke="#cccccc" stroke-width="1.51"/><path d="M300,300L420,300L420,180Z" fill="#d0d0d0" stroke="#d0d0d0" stroke-width="1.51"/><path d="M300,180L300,300L420,180Z" fill="#d5d5d5" stroke="#d5d5d5" stroke-width="1.51"/><path d="M300,180L420,180L420,60Z" fill="#d8d8d8" stroke="#d8d8d8" stroke-width="1.51"/><path d="M300,60L300,180L420,60Z" fill="#dddddd" stroke="#dddddd" stroke-width="1.51"/><path d="M300,60L420,60L420,-60Z" fill="#dfdfdf" stroke="#dfdfdf" stroke-width="1.51"/><path d="M300,-60L300,60L420,-60Z" fill="#e4e4e4" stroke="#e4e4e4" stroke-width="1.51"/><path d="M300,-60L420,-60L420,-180Z" fill="#e5e5e5" stroke="#e5e5e5" stroke-width="1.51"/><path d="M300,-180L300,-60L420,-180Z" fill="#e9e9e9" stroke="#e9e9e9" stroke-width="1.51"/><path d="M180,1260L300,1260L300,1140Z" fill="#737373" stroke="#737373" stroke-width="1.51"/><path d="M180,1140L180,1260L300,1140Z" fill="#797979" stroke="#797979" stroke-width="1.51"/><path d="M180,1140L300,1140L300,1020Z" fill="#7f7f7f" stroke="#7f7f7f" stroke-width="1.51"/><path d="M180,1020L180,1140L300,1020Z" fill="#868686" stroke="#868686" stroke-width="1.51"/><path d="M180,1020L300,1020L300,900Z" fill="#909090" stroke="#909090" stroke-width="1.51"/><path d="M180,900L180,1020L300,900Z" fill="#979797" stroke="#979797" stroke-width="1.51"/><path d="M180,900L300,900L300,780Z" fill="#9d9d9d" stroke="#9d9d9d" stroke-width="1.51"/><path d="M180,780L180,900L300,780Z" fill="#a2a2a2" stroke="#a2a2a2" stroke-width="1.51"/><path d="M180,780L300,780L300,660Z" fill="#a8a8a8" stroke="#a8a8a8" stroke-width="1.51"/><path d="M180,660L180,780L300,660Z" fill="#adadad" stroke="#adadad" stroke-width="1.51"/><path d="M180,660L300,660L300,540Z" fill="#b3b3b3" stroke="#b3b3b3" stroke-width="1.51"/><path d="M180,540L180,660L300,540Z" fill="#b9b9b9" stroke="#b9b9b9" stroke-width="1.51"/><path d="M180,540L300,540L300,420Z" fill="#bfbfbf" stroke="#bfbfbf" stroke-width="1.51"/><path d="M180,420L180,540L300,420Z" fill="#c5c5c5" stroke="#c5c5c5" stroke-width="1.51"/><path d="M180,420L300,420L300,300Z" fill="#cbcbcb" stroke="#cbcbcb" stroke-width="1.51"/><path d="M180,300L180,420L300,300Z" fill="#d1d1d1" stroke="#d1d1d1" stroke-width="1.51"/><path d="M180,300L300,300L300,180Z" fill="#d5d5d5" stroke="#d5d5d5" stroke-width="1.51"/><path d="M180,180L180,300L300,180Z" fill="#d9d9d9" stroke="#d9d9d9" stroke-width="1.51"/><path d="M180,180L300,180L300,60Z" fill="#dddddd" stroke="#dddddd" stroke-width="1.51"/><path d="M180,60L180,180L300,60Z" fill="#e1e1e1" stroke="#e1e1e1" stroke-width="1.51"/><path d="M180,60L300,60L300,-60Z" fill="#e4e4e4" stroke="#e4e4e4" stroke-width="1.51"/><path d="M180,-60L180,60L300,-60Z" fill="#e8e8e8" stroke="#e8e8e8" stroke-width="1.51"/><path d="M180,-60L300,-60L300,-180Z" fill="#eaeaea" stroke="#eaeaea" stroke-width="1.51"/><path d="M180,-180L180,-60L300,-180Z" fill="#ededed" stroke="#ededed" stroke-width="1.51"/><path d="M60,1260L180,1260L180,1140Z" fill="#777777" stroke="#777777" stroke-width="1.51"/><path d="M60,1140L60,1260L180,1140Z" fill="#7d7d7d" stroke="#7d7d7d" stroke-width="1.51"/><path d="M60,1140L180,1140L180,1020Z" fill="#838383" stroke="#838383" stroke-width="1.51"/><path d="M60,1020L60,1140L180,1020Z" fill="#8a8a8a" stroke="#8a8a8a" stroke-width="1.51"/><path d="M60,1020L180,1020L180,900Z" fill="#949494" stroke="#949494" stroke-width="1.51"/><path d="M60,900L60,1020L180,900Z" fill="#9b9b9b" stroke="#9b9b9b" stroke-width="1.51"/><path d="M60,900L180,900L180,780Z" fill="#a1a1a1" stroke="#a1a1a1" stroke-width="1.51"/><path d="M60,780L60,900L180,780Z" fill="#a6a6a6" stroke="#a6a6a6" stroke-width="1.51"/><path d="M60,780L180,780L180,660Z" fill="#acacac" stroke="#acacac" stroke-width="1.51"/><path d="M60,660L60,780L180,660Z" fill="#b1b1b1" stroke="#b1b1b1" stroke-width="1.51"/><path d="M60,660L180,660L180,540Z" fill="#b7b7b7" stroke="#b7b7b7" stroke-width="1.51"/><path d="M60,540L60,660L180,540Z" fill="#bdbdbd" stroke="#bdbdbd" stroke-width="1.51"/><path d="M60,540L180,540L180,420Z" fill="#c3c3c3" stroke="#c3c3c3" stroke-width="1.51"/><path d="M60,420L60,540L180,420Z" fill="#c9c9c9" stroke="#c9c9c9" stroke-width="1.51"/><path d="M60,420L180,420L180,300Z" fill="#d0d0d0" stroke="#d0d0d0" stroke-width="1.51"/><path d="M60,300L60,420L180,300Z" fill="#d5d5d5" stroke="#d5d5d5" stroke-width="1.51"/><path d="M60,300L180,300L180,180Z" fill="#d9d9d9" stroke="#d9d9d9" stroke-width="1.51"/><path d="M60,180L60,300L180,180Z" fill="#dedede" stroke="#dedede" stroke-width="1.51"/><path d="M60,180L180,180L180,60Z" fill="#e2e2e2" stroke="#e2e2e2" stroke-width="1.51"/><path d="M60,60L60,180L180,60Z" fill="#e6e6e6" stroke="#e6e6e6" stroke-width="1.51"/><path d="M60,60L180,60L180,-60Z" fill="#e9e9e9" stroke="#e9e9e9" stroke-width="1.51"/><path d="M60,-60L60,60L180,-60Z" fill="#ededed" stroke="#ededed" stroke-width="1.51"/><path d="M60,-60L180,-60L180,-180Z" fill="#efefef" stroke="#efefef" stroke-width="1.51"/><path d="M60,-180L60,-60L180,-180Z" fill="#f2f2f2" stroke="#f2f2f2" stroke-width="1.51"/><path d="M-60,1260L60,1260L60,1140Z" fill="#7b7b7b" stroke="#7b7b7b" stroke-width="1.51"/><path d="M-60,1140L-60,1260L60,1140Z" fill="#808080" stroke="#808080" stroke-width="1.51"/><path d="M-60,1140L60,1140L60,1020Z" fill="#878787" stroke="#878787" stroke-width="1.51"/><path d="M-60,1020L-60,1140L60,1020Z" fill="#8d8d8d" stroke="#8d8d8d" stroke-width="1.51"/><path d="M-60,1020L60,1020L60,900Z" fill="#979797" stroke="#979797" stroke-width="1.51"/><path d="M-60,900L-60,1020L60,900Z" fill="#9e9e9e" stroke="#9e9e9e" stroke-width="1.51"/><path d="M-60,900L60,900L60,780Z" fill="#a5a5a5" stroke="#a5a5a5" stroke-width="1.51"/><path d="M-60,780L-60,900L60,780Z" fill="#a9a9a9" stroke="#a9a9a9" stroke-width="1.51"/><path d="M-60,780L60,780L60,660Z" fill="#b0b0b0" stroke="#b0b0b0" stroke-width="1.51"/><path d="M-60,660L-60,780L60,660Z" fill="#b5b5b5" stroke="#b5b5b5" stroke-width="1.51"/><path d="M-60,660L60,660L60,540Z" fill="#bbbbbb" stroke="#bbbbbb" stroke-width="1.51"/><path d="M-60,540L-60,660L60,540Z" fill="#c0c0c0" stroke="#c0c0c0" stroke-width="1.51"/><path d="M-60,540L60,540L60,420Z" fill="#c7c7c7" stroke="#c7c7c7" stroke-width="1.51"/><path d="M-60,420L-60,540L60,420Z" fill="#cccccc" stroke="#cccccc" stroke-width="1.51"/><path d="M-60,420L60,420L60,300Z" fill="#d4d4d4" stroke="#d4d4d4" stroke-width="1.51"/><path d="M-60,300L-60,420L60,300Z" fill="#d9d9d9" stroke="#d9d9d9" stroke-width="1.51"/><path d="M-60,300L60,300L60,180Z" fill="#dddddd" stroke="#dddddd" stroke-width="1.51"/><path d="M-60,180L-60,300L60,180Z" fill="#e1e1e1" stroke="#e1e1e1" stroke-width="1.51"/><path d="M-60,180L60,180L60,60Z" fill="#e6e6e6" stroke="#e6e6e6" stroke-width="1.51"/><path d="M-60,60L-60,180L60,60Z" fill="#e9e9e9" stroke="#e9e9e9" stroke-width="1.51"/><path d="M-60,60L60,60L60,-60Z" fill="#ededed" stroke="#ededed" stroke-width="1.51"/><path d="M-60,-60L-60,60L60,-60Z" fill="#f0f0f0" stroke="#f0f0f0" stroke-width="1.51"/><path d="M-60,-60L60,-60L60,-180Z" fill="#f3f3f3" stroke="#f3f3f3" stroke-width="1.51"/><path d="M-60,-180L-60,-60L60,-180Z" fill="#f5f5f5" stroke="#f5f5f5" stroke-width="1.51"/><path d="M-180,1260L-60,1260L-60,1140Z" fill="#7e7e7e" stroke="#7e7e7e" stroke-width="1.51"/><path d="M-180,1140L-180,1260L-60,1140Z" fill="#828282" stroke="#828282" stroke-width="1.51"/><path d="M-180,1140L-60,1140L-60,1020Z" fill="#8a8a8a" stroke="#8a8a8a" stroke-width="1.51"/><path d="M-180,1020L-180,1140L-60,1020Z" fill="#909090" stroke="#909090" stroke-width="1.51"/><path d="M-180,1020L-60,1020L-60,900Z" fill="#9a9a9a" stroke="#9a9a9a" stroke-width="1.51"/><path d="M-180,900L-180,1020L-60,900Z" fill="#a1a1a1" stroke="#a1a1a1" stroke-width="1.51"/><path d="M-180,900L-60,900L-60,780Z" fill="#a8a8a8" stroke="#a8a8a8" stroke-width="1.51"/><path d="M-180,780L-180,900L-60,780Z" fill="#acacac" stroke="#acacac" stroke-width="1.51"/><path d="M-180,780L-60,780L-60,660Z" fill="#b3b3b3" stroke="#b3b3b3" stroke-width="1.51"/><path d="M-180,660L-180,780L-60,660Z" fill="#b7b7b7" stroke="#b7b7b7" stroke-width="1.51"/><path d="M-180,660L-60,660L-60,540Z" fill="#bebebe" stroke="#bebebe" stroke-width="1.51"/><path d="M-180,540L-180,660L-60,540Z" fill="#c3c3c3" stroke="#c3c3c3" stroke-width="1.51"/><path d="M-180,540L-60,540L-60,420Z" fill="#cacaca" stroke="#cacaca" stroke-width="1.51"/><path d="M-180,420L-180,540L-60,420Z" fill="#cfcfcf" stroke="#cfcfcf" stroke-width="1.51"/><path d="M-180,420L-60,420L-60,300Z" fill="#d7d7d7" stroke="#d7d7d7" stroke-width="1.51"/><path d="M-180,300L-180,420L-60,300Z" fill="#dcdcdc" stroke="#dcdcdc" stroke-width="1.51"/><path d="M-180,300L-60,300L-60,180Z" fill="#e0e0e0" stroke="#e0e0e0" stroke-width="1.51"/><path d="M-180,180L-180,300L-60,180Z" fill="#e4e4e4" stroke="#e4e4e4" stroke-width="1.51"/><path d="M-180,180L-60,180L-60,60Z" fill="#e9e9e9" stroke="#e9e9e9" stroke-width="1.51"/><path d="M-180,60L-180,180L-60,60Z" fill="#ececec" stroke="#ececec" stroke-width="1.51"/><path d="M-180,60L-60,60L-60,-60Z" fill="#f0f0f0" stroke="#f0f0f0" stroke-width="1.51"/><path d="M-180,-60L-180,60L-60,-60Z" fill="#f3f3f3" stroke="#f3f3f3" stroke-width="1.51"/><path d="M-180,-60L-60,-60L-60,-180Z" fill="#f6f6f6" stroke="#f6f6f6" stroke-width="1.51"/><path d="M-180,-180L-180,-60L-60,-180Z" fill="#f8f8f8" stroke="#f8f8f8" stroke-width="1.51"/></svg>