<svg xmlns="http://www.w3.org/2000/svg" width="1920" height="1080"><path d="M1957,1395L2242,1395L2242,1110Z" fill="#a80001" stroke="#a80001" stroke-width="1.51"/><path d="M1957,1110L1957,1395L2242,1110Z" fill="#b70c05" stroke="#b70c05" stroke-width="1.51"/><path d="M1957,1110L2242,1110L2242,825Z" fill="#bd2012" stroke="#bd2012" stroke-width="1.51"/><path d="M1957,825L1957,1110L2242,825Z" fill="#ca2e1b" stroke="#ca2e1b" stroke-width="1.51"/><path d="M1957,825L2242,825L2242,540Z" fill="#ca4227" stroke="#ca4227" stroke-width="1.51"/><path d="M1957,540L1957,825L2242,540Z" fill="#d44c2a" stroke="#d44c2a" stroke-width="1.51"/><path d="M1957,540L2242,540L2242,255Z" fill="#d15d34" stroke="#d15d34" stroke-width="1.51"/><path d="M1957,255L1957,540L2242,255Z" fill="#da683c" stroke="#da683c" stroke-width="1.51"/><path d="M1957,255L2242,255L2242,-30Z" fill="#d47347" stroke="#d47347" stroke-width="1.51"/><path d="M1957,-30L1957,255L2242,-30Z" fill="#dd7a4c" stroke="#dd7a4c" stroke-width="1.51"/><path d="M1957,-30L2242,-30L2242,-315Z" fill="#d77f5a" stroke="#d77f5a" stroke-width="1.51"/><path d="M1957,-315L1957,-30L2242,-315Z" fill="#e18662" stroke="#e18662" stroke-width="1.51"/><path d="M1672,1395L1957,1395L1957,1110Z" fill="#ba1007" stroke="#ba1007" stroke-width="1.51"/><path d="M1672,1110L1672,1395L1957,1110Z" fill="#c61f11" stroke="#c61f11" stroke-width="1.51"/><path d="M1672,1110L1957,1110L1957,825Z" fill="#cf2a19" stroke="#cf2a19" stroke-width="1.51"/><path d="M1672,825L1672,1110L1957,825Z" fill="#d83a25" stroke="#d83a25" stroke-width="1.51"/><path d="M1672,825L1957,825L1957,540Z" fill="#dc4b2e" stroke="#dc4b2e" stroke-width="1.51"/><path d="M1672,540L1672,825L1957,540Z" fill="#e35734" stroke="#e35734" stroke-width="1.51"/><path d="M1672,540L1957,540L1957,255Z" fill="#e3663b" stroke="#e3663b" stroke-width="1.51"/><path d="M1672,255L1672,540L1957,255Z" fill="#e87347" stroke="#e87347" stroke-width="1.51"/><path d="M1672,255L1957,255L1957,-30Z" fill="#e67c4f" stroke="#e67c4f" stroke-width="1.51"/><path d="M1672,-30L1672,255L1957,-30Z" fill="#eb8557" stroke="#eb8557" stroke-width="1.51"/><path d="M1672,-30L1957,-30L1957,-315Z" fill="#e98962" stroke="#e98962" stroke-width="1.51"/><path d="M1672,-315L1672,-30L1957,-315Z" fill="#ef906d" stroke="#ef906d" stroke-width="1.51"/><path d="M1387,1395L1672,1395L1672,1110Z" fill="#c72716" stroke="#c72716" stroke-width="1.51"/><path d="M1387,1110L1387,1395L1672,1110Z" fill="#d23621" stroke="#d23621" stroke-width="1.51"/><path d="M1387,1110L1672,1110L1672,825Z" fill="#dc3b27" stroke="#dc3b27" stroke-width="1.51"/><path d="M1387,825L1387,1110L1672,825Z" fill="#e44d34" stroke="#e44d34" stroke-width="1.51"/><path d="M1387,825L1672,825L1672,540Z" fill="#e8593b" stroke="#e8593b" stroke-width="1.51"/><path d="M1387,540L1387,825L1672,540Z" fill="#ee6743" stroke="#ee6743" stroke-width="1.51"/><path d="M1387,540L1672,540L1672,255Z" fill="#ef7349" stroke="#ef7349" stroke-width="1.51"/><path d="M1387,255L1387,540L1672,255Z" fill="#f28257" stroke="#f28257" stroke-width="1.51"/><path d="M1387,255L1672,255L1672,-30Z" fill="#f2895c" stroke="#f2895c" stroke-width="1.51"/><path d="M1387,-30L1387,255L1672,-30Z" fill="#f59466" stroke="#f59466" stroke-width="1.51"/><path d="M1387,-30L1672,-30L1672,-315Z" fill="#f5966f" stroke="#f5966f" stroke-width="1.51"/><path d="M1387,-315L1387,-30L1672,-315Z" fill="#f89f7d" stroke="#f89f7d" stroke-width="1.51"/><path d="M1102,1395L1387,1395L1387,1110Z" fill="#d04026" stroke="#d04026" stroke-width="1.51"/><path d="M1102,1110L1102,1395L1387,1110Z" fill="#da4b2d" stroke="#da4b2d" stroke-width="1.51"/><path d="M1102,1110L1387,1110L1387,825Z" fill="#e55136" stroke="#e55136" stroke-width="1.51"/><path d="M1102,825L1102,1110L1387,825Z" fill="#ec6040" stroke="#ec6040" stroke-width="1.51"/><path d="M1102,825L1387,825L1387,540Z" fill="#f16c4a" stroke="#f16c4a" stroke-width="1.51"/><path d="M1102,540L1102,825L1387,540Z" fill="#f67950" stroke="#f67950" stroke-width="1.51"/><path d="M1102,540L1387,540L1387,255Z" fill="#f78459" stroke="#f78459" stroke-width="1.51"/><path d="M1102,255L1102,540L1387,255Z" fill="#f99264" stroke="#f99264" stroke-width="1.51"/><path d="M1102,255L1387,255L1387,-30Z" fill="#f99a6d" stroke="#f99a6d" stroke-width="1.51"/><path d="M1102,-30L1102,255L1387,-30Z" fill="#fba474" stroke="#fba474" stroke-width="1.51"/><path d="M1102,-30L1387,-30L1387,-315Z" fill="#fca680" stroke="#fca680" stroke-width="1.51"/><path d="M1102,-315L1102,-30L1387,-315Z" fill="#feaf8a" stroke="#feaf8a" stroke-width="1.51"/><path d="M817,1395L1102,1395L1102,1110Z" fill="#d6522c" stroke="#d6522c" stroke-width="1.51"/><path d="M817,1110L817,1395L1102,1110Z" fill="#df5d35" stroke="#df5d35" stroke-width="1.51"/><path d="M817,1110L1102,1110L1102,825Z" fill="#ea623c" stroke="#ea623c" stroke-width="1.51"/><path d="M817,825L817,1110L1102,825Z" fill="#f07148" stroke="#f07148" stroke-width="1.51"/><path d="M817,825L1102,825L1102,540Z" fill="#f67c51" stroke="#f67c51" stroke-width="1.51"/><path d="M817,540L817,825L1102,540Z" fill="#fa8958" stroke="#fa8958" stroke-width="1.51"/><path d="M817,540L1102,540L1102,255Z" fill="#fc9460" stroke="#fc9460" stroke-width="1.51"/><path d="M817,255L817,540L1102,255Z" fill="#fda26c" stroke="#fda26c" stroke-width="1.51"/><path d="M817,255L1102,255L1102,-30Z" fill="#fda974" stroke="#fda974" stroke-width="1.51"/><path d="M817,-30L817,255L1102,-30Z" fill="#feb37d" stroke="#feb37d" stroke-width="1.51"/><path d="M817,-30L1102,-30L1102,-315Z" fill="#ffb588" stroke="#ffb588" stroke-width="1.51"/><path d="M817,-315L817,-30L1102,-315Z" fill="#ffbe94" stroke="#ffbe94" stroke-width="1.51"/><path d="M532,1395L817,1395L817,1110Z" fill="#d9663b" stroke="#d9663b" stroke-width="1.51"/><path d="M532,1110L532,1395L817,1110Z" fill="#e27245" stroke="#e27245" stroke-width="1.51"/><path d="M532,1110L817,1110L817,825Z" fill="#ed764b" stroke="#ed764b" stroke-width="1.51"/><path d="M532,825L532,1110L817,825Z" fill="#f28559" stroke="#f28559" stroke-width="1.51"/><path d="M532,825L817,825L817,540Z" fill="#f88e61" stroke="#f88e61" stroke-width="1.51"/><path d="M532,540L532,825L817,540Z" fill="#fb9c69" stroke="#fb9c69" stroke-width="1.51"/><path d="M532,540L817,540L817,255Z" fill="#fda66f" stroke="#fda66f" stroke-width="1.51"/><path d="M532,255L532,540L817,255Z" fill="#fdb47d" stroke="#fdb47d" stroke-width="1.51"/><path d="M532,255L817,255L817,-30Z" fill="#fdba84" stroke="#fdba84" stroke-width="1.51"/><path d="M532,-30L532,255L817,-30Z" fill="#fdc58e" stroke="#fdc58e" stroke-width="1.51"/><path d="M532,-30L817,-30L817,-315Z" fill="#ffc798" stroke="#ffc798" stroke-width="1.51"/><path d="M532,-315L532,-30L817,-315Z" fill="#ffd0a5" stroke="#ffd0a5" stroke-width="1.51"/><path d="M247,1395L532,1395L532,1110Z" fill="#dc7547" stroke="#dc7547" stroke-width="1.51"/><path d="M247,1110L247,1395L532,1110Z" fill="#e47d4f" stroke="#e47d4f" stroke-width="1.51"/><path d="M247,1110L532,1110L532,825Z" fill="#ef8558" stroke="#ef8558" stroke-width="1.51"/><path d="M247,825L247,1110L532,825Z" fill="#f49063" stroke="#f49063" stroke-width="1.51"/><path d="M247,825L532,825L532,540Z" fill="#fa9c6d" stroke="#fa9c6d" stroke-width="1.51"/><path d="M247,540L247,825L532,540Z" fill="#fca674" stroke="#fca674" stroke-width="1.51"/><path d="M247,540L532,540L532,255Z" fill="#feb37c" stroke="#feb37c" stroke-width="1.51"/><path d="M247,255L247,540L532,255Z" fill="#fdbf88" stroke="#fdbf88" stroke-width="1.51"/><path d="M247,255L532,255L532,-30Z" fill="#fdc791" stroke="#fdc791" stroke-width="1.51"/><path d="M247,-30L247,255L532,-30Z" fill="#fdd099" stroke="#fdd099" stroke-width="1.51"/><path d="M247,-30L532,-30L532,-315Z" fill="#fed4a5" stroke="#fed4a5" stroke-width="1.51"/><path d="M247,-315L247,-30L532,-315Z" fill="#fedbb0" stroke="#fedbb0" stroke-width="1.51"/><path d="M-38,1395L247,1395L247,1110Z" fill="#de7e52" stroke="#de7e52" stroke-width="1.51"/><path d="M-38,1110L-38,1395L247,1110Z" fill="#e6865d" stroke="#e6865d" stroke-width="1.51"/><path d="M-38,1110L247,1110L247,825Z" fill="#f28e63" stroke="#f28e63" stroke-width="1.51"/><path d="M-38,825L-38,1110L247,825Z" fill="#f69971" stroke="#f69971" stroke-width="1.51"/><path d="M-38,825L247,825L247,540Z" fill="#fba679" stroke="#fba679" stroke-width="1.51"/><path d="M-38,540L-38,825L247,540Z" fill="#feaf82" stroke="#feaf82" stroke-width="1.51"/><path d="M-38,540L247,540L247,255Z" fill="#ffbc89" stroke="#ffbc89" stroke-width="1.51"/><path d="M-38,255L-38,540L247,255Z" fill="#ffc897" stroke="#ffc897" stroke-width="1.51"/><path d="M-38,255L247,255L247,-30Z" fill="#fed09d" stroke="#fed09d" stroke-width="1.51"/><path d="M-38,-30L-38,255L247,-30Z" fill="#fed8a7" stroke="#fed8a7" stroke-width="1.51"/><path d="M-38,-30L247,-30L247,-315Z" fill="#feddb1" stroke="#feddb1" stroke-width="1.51"/><path d="M-38,-315L-38,-30L247,-315Z" fill="#fee4bf" stroke="#fee4bf" stroke-width="1.51"/><path d="M-323,1395L-38,1395L-38,1110Z" fill="#e18662" stroke="#e18662" stroke-width="1.51"/><path d="M-323,1110L-323,1395L-38,1110Z" fill="#ea8d6c" stroke="#ea8d6c" stroke-width="1.51"/><path d="M-323,1110L-38,1110L-38,825Z" fill="#f49673" stroke="#f49673" stroke-width="1.51"/><path d="M-323,825L-323,1110L-38,825Z" fill="#f9a080" stroke="#f9a080" stroke-width="1.51"/><path d="M-323,825L-38,825L-38,540Z" fill="#fdae89" stroke="#fdae89" stroke-width="1.51"/><path d="M-323,540L-323,825L-38,540Z" fill="#ffb691" stroke="#ffb691" stroke-width="1.51"/><path d="M-323,540L-38,540L-38,255Z" fill="#ffc499" stroke="#ffc499" stroke-width="1.51"/><path d="M-323,255L-323,540L-38,255Z" fill="#ffcea6" stroke="#ffcea6" stroke-width="1.51"/><path d="M-323,255L-38,255L-38,-30Z" fill="#fed8ae" stroke="#fed8ae" stroke-width="1.51"/><path d="M-323,-30L-323,255L-38,-30Z" fill="#ffdfb7" stroke="#ffdfb7" stroke-width="1.51"/><path d="M-323,-30L-38,-30L-38,-315Z" fill="#fee5c2" stroke="#fee5c2" stroke-width="1.51"/><path d="M-323,-315L-323,-30L-38,-315Z" fill="#ffebcf" stroke="#ffebcf" stroke-width="1.51"/></svg>