<svg xmlns="http://www.w3.org/2000/svg" width="1920" height="1080"><path d="M1230,1398L756,1412L1398,1432Z" fill="#2e649b" stroke="#2e649b" stroke-width="1.51"/><path d="M1922,904L1917,1010L2183,750Z" fill="#2a5aa6" stroke="#2a5aa6" stroke-width="1.51"/><path d="M1841,189L2184,432L2285,356Z" fill="#5679a3" stroke="#5679a3" stroke-width="1.51"/><path d="M2184,432L2183,750L2285,356Z" fill="#3a6d9b" stroke="#3a6d9b" stroke-width="1.51"/><path d="M1937,-208L1862,-79L2286,-162Z" fill="#928ea6" stroke="#928ea6" stroke-width="1.51"/><path d="M1841,189L2285,356L2286,-162Z" fill="#71819e" stroke="#71819e" stroke-width="1.51"/><path d="M1862,-79L1841,189L2286,-162Z" fill="#888da7" stroke="#888da7" stroke-width="1.51"/><path d="M1322,-424L1759,-353L2306,-267Z" fill="#9ba1b6" stroke="#9ba1b6" stroke-width="1.51"/><path d="M1759,-353L1937,-208L2306,-267Z" fill="#9992ac" stroke="#9992ac" stroke-width="1.51"/><path d="M2286,-162L2285,356L2306,-267Z" fill="#7a818f" stroke="#7a818f" stroke-width="1.51"/><path d="M2183,750L1917,1010L2314,1162Z" fill="#234c97" stroke="#234c97" stroke-width="1.51"/><path d="M2285,356L2183,750L2314,1162Z" fill="#235c96" stroke="#235c96" stroke-width="1.51"/><path d="M2306,-267L2285,356L2314,1162Z" fill="#426d93" stroke="#426d93" stroke-width="1.51"/><path d="M1816,1321L1398,1432L2315,1273Z" fill="#233c92" stroke="#233c92" stroke-width="1.51"/><path d="M2314,1162L1917,1010L2315,1273Z" fill="#203b8c" stroke="#203b8c" stroke-width="1.51"/><path d="M1917,1010L1816,1321L2315,1273Z" fill="#263d98" stroke="#263d98" stroke-width="1.51"/><path d="M1937,-208L2286,-162L2306,-267Z" fill="#8e8a99" stroke="#8e8a99" stroke-width="1.51"/><path d="M629,-438L829,-395L1322,-424Z" fill="#aedbcb" stroke="#aedbcb" stroke-width="1.51"/><path d="M1918,659L1922,904L2183,750Z" fill="#2d65ab" stroke="#2d65ab" stroke-width="1.51"/><path d="M1918,659L2183,750L2184,432Z" fill="#376ca6" stroke="#376ca6" stroke-width="1.51"/><path d="M1798,430L1918,659L2184,432Z" fill="#4378ae" stroke="#4378ae" stroke-width="1.51"/><path d="M1841,189L1798,430L2184,432Z" fill="#5681ac" stroke="#5681ac" stroke-width="1.51"/><path d="M1581,1195L1614,1259L1816,1321Z" fill="#264c9f" stroke="#264c9f" stroke-width="1.51"/><path d="M1581,1195L1816,1321L1917,1010Z" fill="#264da0" stroke="#264da0" stroke-width="1.51"/><path d="M1918,659L1636,710L1922,904Z" fill="#2b71b0" stroke="#2b71b0" stroke-width="1.51"/><path d="M1759,-353L1862,-79L1937,-208Z" fill="#989bab" stroke="#989bab" stroke-width="1.51"/><path d="M1636,710L1581,1195L1917,1010Z" fill="#2362aa" stroke="#2362aa" stroke-width="1.51"/><path d="M1798,430L1636,710L1918,659Z" fill="#367eb3" stroke="#367eb3" stroke-width="1.51"/><path d="M1636,710L1917,1010L1922,904Z" fill="#2765ac" stroke="#2765ac" stroke-width="1.51"/><path d="M1384,943L1581,1195L1636,710Z" fill="#2371b1" stroke="#2371b1" stroke-width="1.51"/><path d="M1614,1259L1398,1432L1816,1321Z" fill="#244b9a" stroke="#244b9a" stroke-width="1.51"/><path d="M1530,389L1798,430L1841,189Z" fill="#568fb2" stroke="#568fb2" stroke-width="1.51"/><path d="M1545,38L1841,189L1862,-79Z" fill="#839bae" stroke="#839bae" stroke-width="1.51"/><path d="M1759,-353L1545,38L1862,-79Z" fill="#92a1ae" stroke="#92a1ae" stroke-width="1.51"/><path d="M1545,38L1530,389L1841,189Z" fill="#6a9bb3" stroke="#6a9bb3" stroke-width="1.51"/><path d="M1412,-43L1545,38L1759,-353Z" fill="#93acb3" stroke="#93acb3" stroke-width="1.51"/><path d="M1530,389L1636,710L1798,430Z" fill="#3d8cb6" stroke="#3d8cb6" stroke-width="1.51"/><path d="M1322,-424L1412,-43L1759,-353Z" fill="#9db6ba" stroke="#9db6ba" stroke-width="1.51"/><path d="M161,1264L-331,1318L756,1412Z" fill="#8388a1" stroke="#8388a1" stroke-width="1.51"/><path d="M1333,117L1530,389L1545,38Z" fill="#6fa8b8" stroke="#6fa8b8" stroke-width="1.51"/><path d="M1530,389L1411,448L1636,710Z" fill="#3b95bb" stroke="#3b95bb" stroke-width="1.51"/><path d="M1411,448L1384,943L1636,710Z" fill="#2a8cbc" stroke="#2a8cbc" stroke-width="1.51"/><path d="M1384,943L1370,1208L1581,1195Z" fill="#2667ad" stroke="#2667ad" stroke-width="1.51"/><path d="M1581,1195L1370,1208L1614,1259Z" fill="#2859a6" stroke="#2859a6" stroke-width="1.51"/><path d="M1370,1208L1398,1432L1614,1259Z" fill="#2a57a4" stroke="#2a57a4" stroke-width="1.51"/><path d="M1136,823L1384,943L1411,448Z" fill="#2395c1" stroke="#2395c1" stroke-width="1.51"/><path d="M1322,-424L1167,-180L1412,-43Z" fill="#9ec4bb" stroke="#9ec4bb" stroke-width="1.51"/><path d="M1333,117L1411,448L1530,389Z" fill="#58a5bb" stroke="#58a5bb" stroke-width="1.51"/><path d="M1412,-43L1333,117L1545,38Z" fill="#86b3b8" stroke="#86b3b8" stroke-width="1.51"/><path d="M1212,1182L1370,1208L1384,943Z" fill="#2671b1" stroke="#2671b1" stroke-width="1.51"/><path d="M1370,1208L1230,1398L1398,1432Z" fill="#285ea2" stroke="#285ea2" stroke-width="1.51"/><path d="M1333,117L986,385L1411,448Z" fill="#59b1bf" stroke="#59b1bf" stroke-width="1.51"/><path d="M1055,613L1136,823L1411,448Z" fill="#32a3c2" stroke="#32a3c2" stroke-width="1.51"/><path d="M1092,-13L1333,117L1412,-43Z" fill="#89bebb" stroke="#89bebb" stroke-width="1.51"/><path d="M1167,-180L1092,-13L1412,-43Z" fill="#94c4bb" stroke="#94c4bb" stroke-width="1.51"/><path d="M986,385L1055,613L1411,448Z" fill="#44aec2" stroke="#44aec2" stroke-width="1.51"/><path d="M-76,1267L-331,1318L161,1264Z" fill="#9590a6" stroke="#9590a6" stroke-width="1.51"/><path d="M1212,1182L1230,1398L1370,1208Z" fill="#2e67ac" stroke="#2e67ac" stroke-width="1.51"/><path d="M1136,823L1212,1182L1384,943Z" fill="#2780b7" stroke="#2780b7" stroke-width="1.51"/><path d="M603,1340L161,1264L756,1412Z" fill="#657ea1" stroke="#657ea1" stroke-width="1.51"/><path d="M1092,-13L986,385L1333,117Z" fill="#78bebe" stroke="#78bebe" stroke-width="1.51"/><path d="M1136,823L959,993L1212,1182Z" fill="#3086b8" stroke="#3086b8" stroke-width="1.51"/><path d="M829,-395L1167,-180L1322,-424Z" fill="#a6d1c4" stroke="#a6d1c4" stroke-width="1.51"/><path d="M876,139L986,385L1092,-13Z" fill="#7ac6be" stroke="#7ac6be" stroke-width="1.51"/><path d="M1212,1182L756,1412L1230,1398Z" fill="#376ca6" stroke="#376ca6" stroke-width="1.51"/><path d="M959,993L756,1412L1212,1182Z" fill="#3c7bb0" stroke="#3c7bb0" stroke-width="1.51"/><path d="M1055,613L927,694L1136,823Z" fill="#34a5c2" stroke="#34a5c2" stroke-width="1.51"/><path d="M829,-395L1092,-13L1167,-180Z" fill="#a3d2bb" stroke="#a3d2bb" stroke-width="1.51"/><path d="M829,-395L709,-7L1092,-13Z" fill="#a5d7bb" stroke="#a5d7bb" stroke-width="1.51"/><path d="M927,694L959,993L1136,823Z" fill="#329cc0" stroke="#329cc0" stroke-width="1.51"/><path d="M709,-7L876,139L1092,-13Z" fill="#94d1bc" stroke="#94d1bc" stroke-width="1.51"/><path d="M596,1220L756,1412L959,993Z" fill="#4f80ad" stroke="#4f80ad" stroke-width="1.51"/><path d="M748,502L927,694L986,385Z" fill="#4cb9c3" stroke="#4cb9c3" stroke-width="1.51"/><path d="M986,385L927,694L1055,613Z" fill="#3fb2c4" stroke="#3fb2c4" stroke-width="1.51"/><path d="M927,694L480,849L959,993Z" fill="#49a2be" stroke="#49a2be" stroke-width="1.51"/><path d="M876,139L748,502L986,385Z" fill="#66c2c0" stroke="#66c2c0" stroke-width="1.51"/><path d="M583,-137L709,-7L829,-395Z" fill="#b2deb8" stroke="#b2deb8" stroke-width="1.51"/><path d="M480,849L596,1220L959,993Z" fill="#5493b4" stroke="#5493b4" stroke-width="1.51"/><path d="M-113,-356L375,-318L629,-438Z" fill="#dcf1c0" stroke="#dcf1c0" stroke-width="1.51"/><path d="M550,445L748,502L876,139Z" fill="#6fc5be" stroke="#6fc5be" stroke-width="1.51"/><path d="M748,502L480,849L927,694Z" fill="#54b3c0" stroke="#54b3c0" stroke-width="1.51"/><path d="M629,-438L583,-137L829,-395Z" fill="#b9e1c0" stroke="#b9e1c0" stroke-width="1.51"/><path d="M709,-7L550,445L876,139Z" fill="#88cfbb" stroke="#88cfbb" stroke-width="1.51"/><path d="M596,1220L603,1340L756,1412Z" fill="#577ba5" stroke="#577ba5" stroke-width="1.51"/><path d="M417,382L550,445L709,-7Z" fill="#87d0bb" stroke="#87d0bb" stroke-width="1.51"/><path d="M550,445L480,849L748,502Z" fill="#64bdbf" stroke="#64bdbf" stroke-width="1.51"/><path d="M480,849L362,1136L596,1220Z" fill="#6a95b1" stroke="#6a95b1" stroke-width="1.51"/><path d="M583,-137L373,-127L709,-7Z" fill="#b5e1b6" stroke="#b5e1b6" stroke-width="1.51"/><path d="M373,-127L417,382L709,-7Z" fill="#aadcb7" stroke="#aadcb7" stroke-width="1.51"/><path d="M205,769L480,849L550,445Z" fill="#78bdbd" stroke="#78bdbd" stroke-width="1.51"/><path d="M375,-318L583,-137L629,-438Z" fill="#c4e7bd" stroke="#c4e7bd" stroke-width="1.51"/><path d="M417,382L151,614L550,445Z" fill="#87cdbd" stroke="#87cdbd" stroke-width="1.51"/><path d="M151,614L205,769L550,445Z" fill="#87c8bd" stroke="#87c8bd" stroke-width="1.51"/><path d="M375,-318L373,-127L583,-137Z" fill="#c7e8b5" stroke="#c7e8b5" stroke-width="1.51"/><path d="M596,1220L362,1136L603,1340Z" fill="#6786ab" stroke="#6786ab" stroke-width="1.51"/><path d="M362,1136L161,1264L603,1340Z" fill="#7789a9" stroke="#7789a9" stroke-width="1.51"/><path d="M373,-127L145,338L417,382Z" fill="#acddb7" stroke="#acddb7" stroke-width="1.51"/><path d="M-9,115L145,338L373,-127Z" fill="#c2e6b5" stroke="#c2e6b5" stroke-width="1.51"/><path d="M205,769L362,1136L480,849Z" fill="#7aaab6" stroke="#7aaab6" stroke-width="1.51"/><path d="M145,338L151,614L417,382Z" fill="#99d4bb" stroke="#99d4bb" stroke-width="1.51"/><path d="M205,769L161,1264L362,1136Z" fill="#849fb0" stroke="#849fb0" stroke-width="1.51"/><path d="M-113,-356L-116,-22L373,-127Z" fill="#e2f3b2" stroke="#e2f3b2" stroke-width="1.51"/><path d="M-113,-356L373,-127L375,-318Z" fill="#def3b7" stroke="#def3b7" stroke-width="1.51"/><path d="M-116,-22L-9,115L373,-127Z" fill="#d4eeb3" stroke="#d4eeb3" stroke-width="1.51"/><path d="M-134,1084L161,1264L205,769Z" fill="#8da3b0" stroke="#8da3b0" stroke-width="1.51"/><path d="M145,338L-72,622L151,614Z" fill="#9cd3bc" stroke="#9cd3bc" stroke-width="1.51"/><path d="M-134,1084L-76,1267L161,1264Z" fill="#9296aa" stroke="#9296aa" stroke-width="1.51"/><path d="M151,614L-65,770L205,769Z" fill="#93c4bb" stroke="#93c4bb" stroke-width="1.51"/><path d="M-65,770L-134,1084L205,769Z" fill="#95b7b7" stroke="#95b7b7" stroke-width="1.51"/><path d="M-72,622L-65,770L151,614Z" fill="#9acabb" stroke="#9acabb" stroke-width="1.51"/><path d="M-367,473L-72,622L-9,115Z" fill="#b2debb" stroke="#b2debb" stroke-width="1.51"/><path d="M-9,115L-72,622L145,338Z" fill="#adddb8" stroke="#adddb8" stroke-width="1.51"/><path d="M-244,-291L-283,-110L-116,-22Z" fill="#ebf7b7" stroke="#ebf7b7" stroke-width="1.51"/><path d="M-244,-291L-116,-22L-113,-356Z" fill="#eff9b5" stroke="#eff9b5" stroke-width="1.51"/><path d="M-116,-22L-386,224L-9,115Z" fill="#d4eeb7" stroke="#d4eeb7" stroke-width="1.51"/><path d="M-386,224L-367,473L-9,115Z" fill="#c0e5be" stroke="#c0e5be" stroke-width="1.51"/><path d="M-134,1084L-280,1211L-76,1267Z" fill="#999aad" stroke="#999aad" stroke-width="1.51"/><path d="M-409,955L-134,1084L-65,770Z" fill="#9cb3b9" stroke="#9cb3b9" stroke-width="1.51"/><path d="M-72,622L-367,473L-65,770Z" fill="#a4d1bf" stroke="#a4d1bf" stroke-width="1.51"/><path d="M-367,473L-409,955L-65,770Z" fill="#a2c9c4" stroke="#a2c9c4" stroke-width="1.51"/><path d="M-280,1211L-331,1318L-76,1267Z" fill="#9993ad" stroke="#9993ad" stroke-width="1.51"/><path d="M-283,-110L-386,224L-116,-22Z" fill="#dff3bb" stroke="#dff3bb" stroke-width="1.51"/><path d="M-409,955L-280,1211L-134,1084Z" fill="#9ba4b6" stroke="#9ba4b6" stroke-width="1.51"/><path d="M-386,224L-283,-110L-244,-291Z" fill="#e7f6bd" stroke="#e7f6bd" stroke-width="1.51"/><path d="M-409,955L-331,1318L-280,1211Z" fill="#9c9eb7" stroke="#9c9eb7" stroke-width="1.51"/><path d="M-386,224L-409,955L-367,473Z" fill="#abd8cb" stroke="#abd8cb" stroke-width="1.51"/></svg>