<svg xmlns="http://www.w3.org/2000/svg" width="1920" height="1080"><path d="M1957,1395L2242,1395L2242,1110Z" fill="#0960a3" stroke="#0960a3" stroke-width="1.51"/><path d="M1957,1110L1957,1395L2242,1110Z" fill="#126cad" stroke="#126cad" stroke-width="1.51"/><path d="M1957,1110L2242,1110L2242,825Z" fill="#2174ae" stroke="#2174ae" stroke-width="1.51"/><path d="M1957,825L1957,1110L2242,825Z" fill="#2a81b8" stroke="#2a81b8" stroke-width="1.51"/><path d="M1957,825L2242,825L2242,540Z" fill="#3c88b7" stroke="#3c88b7" stroke-width="1.51"/><path d="M1957,540L1957,825L2242,540Z" fill="#4892ba" stroke="#4892ba" stroke-width="1.51"/><path d="M1957,540L2242,540L2242,255Z" fill="#5d94ae" stroke="#5d94ae" stroke-width="1.51"/><path d="M1957,255L1957,540L2242,255Z" fill="#689db2" stroke="#689db2" stroke-width="1.51"/><path d="M1957,255L2242,255L2242,-30Z" fill="#769cae" stroke="#769cae" stroke-width="1.51"/><path d="M1957,-30L1957,255L2242,-30Z" fill="#80a4b7" stroke="#80a4b7" stroke-width="1.51"/><path d="M1957,-30L2242,-30L2242,-315Z" fill="#85a1b9" stroke="#85a1b9" stroke-width="1.51"/><path d="M1957,-315L1957,-30L2242,-315Z" fill="#8ba9c3" stroke="#8ba9c3" stroke-width="1.51"/><path d="M1672,1395L1957,1395L1957,1110Z" fill="#156faf" stroke="#156faf" stroke-width="1.51"/><path d="M1672,1110L1672,1395L1957,1110Z" fill="#1f7bb6" stroke="#1f7bb6" stroke-width="1.51"/><path d="M1672,1110L1957,1110L1957,825Z" fill="#2784ba" stroke="#2784ba" stroke-width="1.51"/><path d="M1672,825L1672,1110L1957,825Z" fill="#3290c1" stroke="#3290c1" stroke-width="1.51"/><path d="M1672,825L1957,825L1957,540Z" fill="#4198c2" stroke="#4198c2" stroke-width="1.51"/><path d="M1672,540L1672,825L1957,540Z" fill="#4fa1c2" stroke="#4fa1c2" stroke-width="1.51"/><path d="M1672,540L1957,540L1957,255Z" fill="#62a4ba" stroke="#62a4ba" stroke-width="1.51"/><path d="M1672,255L1672,540L1957,255Z" fill="#6eacba" stroke="#6eacba" stroke-width="1.51"/><path d="M1672,255L1957,255L1957,-30Z" fill="#7dadba" stroke="#7dadba" stroke-width="1.51"/><path d="M1672,-30L1672,255L1957,-30Z" fill="#86b4bf" stroke="#86b4bf" stroke-width="1.51"/><path d="M1672,-30L1957,-30L1957,-315Z" fill="#8cb2c5" stroke="#8cb2c5" stroke-width="1.51"/><path d="M1672,-315L1672,-30L1957,-315Z" fill="#92b9cb" stroke="#92b9cb" stroke-width="1.51"/><path d="M1387,1395L1672,1395L1672,1110Z" fill="#257eb7" stroke="#257eb7" stroke-width="1.51"/><path d="M1387,1110L1387,1395L1672,1110Z" fill="#2f8abe" stroke="#2f8abe" stroke-width="1.51"/><path d="M1387,1110L1672,1110L1672,825Z" fill="#3393c2" stroke="#3393c2" stroke-width="1.51"/><path d="M1387,825L1387,1110L1672,825Z" fill="#3e9fc9" stroke="#3e9fc9" stroke-width="1.51"/><path d="M1387,825L1672,825L1672,540Z" fill="#4aa7ca" stroke="#4aa7ca" stroke-width="1.51"/><path d="M1387,540L1387,825L1672,540Z" fill="#58b1ca" stroke="#58b1ca" stroke-width="1.51"/><path d="M1387,540L1672,540L1672,255Z" fill="#6ab3c2" stroke="#6ab3c2" stroke-width="1.51"/><path d="M1387,255L1387,540L1672,255Z" fill="#77bcc2" stroke="#77bcc2" stroke-width="1.51"/><path d="M1387,255L1672,255L1672,-30Z" fill="#84bcc1" stroke="#84bcc1" stroke-width="1.51"/><path d="M1387,-30L1387,255L1672,-30Z" fill="#8fc5c7" stroke="#8fc5c7" stroke-width="1.51"/><path d="M1387,-30L1672,-30L1672,-315Z" fill="#94c2cd" stroke="#94c2cd" stroke-width="1.51"/><path d="M1387,-315L1387,-30L1672,-315Z" fill="#9bc9d3" stroke="#9bc9d3" stroke-width="1.51"/><path d="M1102,1395L1387,1395L1387,1110Z" fill="#378cbe" stroke="#378cbe" stroke-width="1.51"/><path d="M1102,1110L1102,1395L1387,1110Z" fill="#4497c0" stroke="#4497c0" stroke-width="1.51"/><path d="M1102,1110L1387,1110L1387,825Z" fill="#42a2c9" stroke="#42a2c9" stroke-width="1.51"/><path d="M1102,825L1102,1110L1387,825Z" fill="#50accb" stroke="#50accb" stroke-width="1.51"/><path d="M1102,825L1387,825L1387,540Z" fill="#57b7d1" stroke="#57b7d1" stroke-width="1.51"/><path d="M1102,540L1102,825L1387,540Z" fill="#66becc" stroke="#66becc" stroke-width="1.51"/><path d="M1102,540L1387,540L1387,255Z" fill="#74c3c8" stroke="#74c3c8" stroke-width="1.51"/><path d="M1102,255L1102,540L1387,255Z" fill="#83cac4" stroke="#83cac4" stroke-width="1.51"/><path d="M1102,255L1387,255L1387,-30Z" fill="#8eccc8" stroke="#8eccc8" stroke-width="1.51"/><path d="M1102,-30L1102,255L1387,-30Z" fill="#9ad2c9" stroke="#9ad2c9" stroke-width="1.51"/><path d="M1102,-30L1387,-30L1387,-315Z" fill="#9ed2d3" stroke="#9ed2d3" stroke-width="1.51"/><path d="M1102,-315L1102,-30L1387,-315Z" fill="#a6d7d5" stroke="#a6d7d5" stroke-width="1.51"/><path d="M817,1395L1102,1395L1102,1110Z" fill="#4f96b9" stroke="#4f96b9" stroke-width="1.51"/><path d="M817,1110L817,1395L1102,1110Z" fill="#5aa0bb" stroke="#5aa0bb" stroke-width="1.51"/><path d="M817,1110L1102,1110L1102,825Z" fill="#58acc3" stroke="#58acc3" stroke-width="1.51"/><path d="M817,825L817,1110L1102,825Z" fill="#65b6c5" stroke="#65b6c5" stroke-width="1.51"/><path d="M817,825L1102,825L1102,540Z" fill="#69c1cb" stroke="#69c1cb" stroke-width="1.51"/><path d="M817,540L817,825L1102,540Z" fill="#78c8c6" stroke="#78c8c6" stroke-width="1.51"/><path d="M817,540L1102,540L1102,255Z" fill="#83cdc2" stroke="#83cdc2" stroke-width="1.51"/><path d="M817,255L817,540L1102,255Z" fill="#91d3be" stroke="#91d3be" stroke-width="1.51"/><path d="M817,255L1102,255L1102,-30Z" fill="#9bd6c2" stroke="#9bd6c2" stroke-width="1.51"/><path d="M817,-30L817,255L1102,-30Z" fill="#a7dcc3" stroke="#a7dcc3" stroke-width="1.51"/><path d="M817,-30L1102,-30L1102,-315Z" fill="#aadccd" stroke="#aadccd" stroke-width="1.51"/><path d="M817,-315L817,-30L1102,-315Z" fill="#b3e1cf" stroke="#b3e1cf" stroke-width="1.51"/><path d="M532,1395L817,1395L817,1110Z" fill="#669cb3" stroke="#669cb3" stroke-width="1.51"/><path d="M532,1110L532,1395L817,1110Z" fill="#70a6b5" stroke="#70a6b5" stroke-width="1.51"/><path d="M532,1110L817,1110L817,825Z" fill="#6fb3be" stroke="#6fb3be" stroke-width="1.51"/><path d="M532,825L532,1110L817,825Z" fill="#7abcc0" stroke="#7abcc0" stroke-width="1.51"/><path d="M532,825L817,825L817,540Z" fill="#7ec8c5" stroke="#7ec8c5" stroke-width="1.51"/><path d="M532,540L532,825L817,540Z" fill="#8bcfc0" stroke="#8bcfc0" stroke-width="1.51"/><path d="M532,540L817,540L817,255Z" fill="#94d4bc" stroke="#94d4bc" stroke-width="1.51"/><path d="M532,255L532,540L817,255Z" fill="#a2dab8" stroke="#a2dab8" stroke-width="1.51"/><path d="M532,255L817,255L817,-30Z" fill="#abddbc" stroke="#abddbc" stroke-width="1.51"/><path d="M532,-30L532,255L817,-30Z" fill="#b7e3bc" stroke="#b7e3bc" stroke-width="1.51"/><path d="M532,-30L817,-30L817,-315Z" fill="#bae4c7" stroke="#bae4c7" stroke-width="1.51"/><path d="M532,-315L532,-30L817,-315Z" fill="#c3e8c9" stroke="#c3e8c9" stroke-width="1.51"/><path d="M247,1395L532,1395L532,1110Z" fill="#78a2b4" stroke="#78a2b4" stroke-width="1.51"/><path d="M247,1110L247,1395L532,1110Z" fill="#80abbb" stroke="#80abbb" stroke-width="1.51"/><path d="M247,1110L532,1110L532,825Z" fill="#81b9bf" stroke="#81b9bf" stroke-width="1.51"/><path d="M247,825L247,1110L532,825Z" fill="#8bc2c5" stroke="#8bc2c5" stroke-width="1.51"/><path d="M247,825L532,825L532,540Z" fill="#90cec6" stroke="#90cec6" stroke-width="1.51"/><path d="M247,540L247,825L532,540Z" fill="#9bd4c6" stroke="#9bd4c6" stroke-width="1.51"/><path d="M247,540L532,540L532,255Z" fill="#a4dbbd" stroke="#a4dbbd" stroke-width="1.51"/><path d="M247,255L247,540L532,255Z" fill="#b1e0bd" stroke="#b1e0bd" stroke-width="1.51"/><path d="M247,255L532,255L532,-30Z" fill="#bae4bc" stroke="#bae4bc" stroke-width="1.51"/><path d="M247,-30L247,255L532,-30Z" fill="#c6e8c2" stroke="#c6e8c2" stroke-width="1.51"/><path d="M247,-30L532,-30L532,-315Z" fill="#c9eac8" stroke="#c9eac8" stroke-width="1.51"/><path d="M247,-315L247,-30L532,-315Z" fill="#d2edce" stroke="#d2edce" stroke-width="1.51"/><path d="M-38,1395L247,1395L247,1110Z" fill="#84a6bc" stroke="#84a6bc" stroke-width="1.51"/><path d="M-38,1110L-38,1395L247,1110Z" fill="#8aafc3" stroke="#8aafc3" stroke-width="1.51"/><path d="M-38,1110L247,1110L247,825Z" fill="#8dbdc6" stroke="#8dbdc6" stroke-width="1.51"/><path d="M-38,825L-38,1110L247,825Z" fill="#95c6cd" stroke="#95c6cd" stroke-width="1.51"/><path d="M-38,825L247,825L247,540Z" fill="#9dd3ce" stroke="#9dd3ce" stroke-width="1.51"/><path d="M-38,540L-38,825L247,540Z" fill="#a6d8ce" stroke="#a6d8ce" stroke-width="1.51"/><path d="M-38,540L247,540L247,255Z" fill="#b0e0c5" stroke="#b0e0c5" stroke-width="1.51"/><path d="M-38,255L-38,540L247,255Z" fill="#bbe4c5" stroke="#bbe4c5" stroke-width="1.51"/><path d="M-38,255L247,255L247,-30Z" fill="#c6e9c4" stroke="#c6e9c4" stroke-width="1.51"/><path d="M-38,-30L-38,255L247,-30Z" fill="#d0edca" stroke="#d0edca" stroke-width="1.51"/><path d="M-38,-30L247,-30L247,-315Z" fill="#d5efcf" stroke="#d5efcf" stroke-width="1.51"/><path d="M-38,-315L-38,-30L247,-315Z" fill="#dcf1d6" stroke="#dcf1d6" stroke-width="1.51"/><path d="M-323,1395L-38,1395L-38,1110Z" fill="#8caac4" stroke="#8caac4" stroke-width="1.51"/><path d="M-323,1110L-323,1395L-38,1110Z" fill="#92b2cb" stroke="#92b2cb" stroke-width="1.51"/><path d="M-323,1110L-38,1110L-38,825Z" fill="#96c1cf" stroke="#96c1cf" stroke-width="1.51"/><path d="M-323,825L-323,1110L-38,825Z" fill="#9dc9d5" stroke="#9dc9d5" stroke-width="1.51"/><path d="M-323,825L-38,825L-38,540Z" fill="#a5d6d6" stroke="#a5d6d6" stroke-width="1.51"/><path d="M-323,540L-323,825L-38,540Z" fill="#aedcd6" stroke="#aedcd6" stroke-width="1.51"/><path d="M-323,540L-38,540L-38,255Z" fill="#b9e3cd" stroke="#b9e3cd" stroke-width="1.51"/><path d="M-323,255L-323,540L-38,255Z" fill="#c3e8cd" stroke="#c3e8cd" stroke-width="1.51"/><path d="M-323,255L-38,255L-38,-30Z" fill="#cfeccc" stroke="#cfeccc" stroke-width="1.51"/><path d="M-323,-30L-323,255L-38,-30Z" fill="#d9f0d2" stroke="#d9f0d2" stroke-width="1.51"/><path d="M-323,-30L-38,-30L-38,-315Z" fill="#def2d8" stroke="#def2d8" stroke-width="1.51"/><path d="M-323,-315L-323,-30L-38,-315Z" fill="#e5f5df" stroke="#e5f5df" stroke-width="1.51"/></svg>