<svg xmlns="http://www.w3.org/2000/svg" width="1920" height="1080"><path d="M1980,1260L2100,1260L2100,1140Z" fill="#bcc213" stroke="#bcc213" stroke-width="1.51"/><path d="M1980,1140L1980,1260L2100,1140Z" fill="#a5b310" stroke="#a5b310" stroke-width="1.51"/><path d="M1980,1140L2100,1140L2100,1020Z" fill="#93a80e" stroke="#93a80e" stroke-width="1.51"/><path d="M1980,1020L1980,1140L2100,1020Z" fill="#7c990b" stroke="#7c990b" stroke-width="1.51"/><path d="M1980,1020L2100,1020L2100,900Z" fill="#a4b441" stroke="#a4b441" stroke-width="1.51"/><path d="M1980,900L1980,1020L2100,900Z" fill="#abb852" stroke="#abb852" stroke-width="1.51"/><path d="M1980,900L2100,900L2100,780Z" fill="#d3d47a" stroke="#d3d47a" stroke-width="1.51"/><path d="M1980,780L1980,900L2100,780Z" fill="#d8d88b" stroke="#d8d88b" stroke-width="1.51"/><path d="M1980,780L2100,780L2100,660Z" fill="#dad695" stroke="#dad695" stroke-width="1.51"/><path d="M1980,660L1980,780L2100,660Z" fill="#c6c891" stroke="#c6c891" stroke-width="1.51"/><path d="M1980,660L2100,660L2100,540Z" fill="#bbbc91" stroke="#bbbc91" stroke-width="1.51"/><path d="M1980,540L1980,660L2100,540Z" fill="#a7ae8d" stroke="#a7ae8d" stroke-width="1.51"/><path d="M1980,540L2100,540L2100,420Z" fill="#a6b28b" stroke="#a6b28b" stroke-width="1.51"/><path d="M1980,420L1980,540L2100,420Z" fill="#9cb286" stroke="#9cb286" stroke-width="1.51"/><path d="M1980,420L2100,420L2100,300Z" fill="#a5c682" stroke="#a5c682" stroke-width="1.51"/><path d="M1980,300L1980,420L2100,300Z" fill="#9bc77c" stroke="#9bc77c" stroke-width="1.51"/><path d="M1980,300L2100,300L2100,180Z" fill="#a7d677" stroke="#a7d677" stroke-width="1.51"/><path d="M1980,180L1980,300L2100,180Z" fill="#a2d170" stroke="#a2d170" stroke-width="1.51"/><path d="M1980,180L2100,180L2100,60Z" fill="#b6d867" stroke="#b6d867" stroke-width="1.51"/><path d="M1980,60L1980,180L2100,60Z" fill="#b1d260" stroke="#b1d260" stroke-width="1.51"/><path d="M1980,60L2100,60L2100,-60Z" fill="#c3d957" stroke="#c3d957" stroke-width="1.51"/><path d="M1980,-60L1980,60L2100,-60Z" fill="#b6d24e" stroke="#b6d24e" stroke-width="1.51"/><path d="M1980,-60L2100,-60L2100,-180Z" fill="#b6d540" stroke="#b6d540" stroke-width="1.51"/><path d="M1980,-180L1980,-60L2100,-180Z" fill="#a9cd36" stroke="#a9cd36" stroke-width="1.51"/><path d="M1860,1260L1980,1260L1980,1140Z" fill="#a1b010" stroke="#a1b010" stroke-width="1.51"/><path d="M1860,1140L1860,1260L1980,1140Z" fill="#8aa20d" stroke="#8aa20d" stroke-width="1.51"/><path d="M1860,1140L1980,1140L1980,1020Z" fill="#77960a" stroke="#77960a" stroke-width="1.51"/><path d="M1860,1020L1860,1140L1980,1020Z" fill="#618808" stroke="#618808" stroke-width="1.51"/><path d="M1860,1020L1980,1020L1980,900Z" fill="#89a23c" stroke="#89a23c" stroke-width="1.51"/><path d="M1860,900L1860,1020L1980,900Z" fill="#8fa74d" stroke="#8fa74d" stroke-width="1.51"/><path d="M1860,900L1980,900L1980,780Z" fill="#b6c274" stroke="#b6c274" stroke-width="1.51"/><path d="M1860,780L1860,900L1980,780Z" fill="#bbc784" stroke="#bbc784" stroke-width="1.51"/><path d="M1860,780L1980,780L1980,660Z" fill="#bdc58e" stroke="#bdc58e" stroke-width="1.51"/><path d="M1860,660L1860,780L1980,660Z" fill="#a9b78a" stroke="#a9b78a" stroke-width="1.51"/><path d="M1860,660L1980,660L1980,540Z" fill="#9dab8a" stroke="#9dab8a" stroke-width="1.51"/><path d="M1860,540L1860,660L1980,540Z" fill="#899d85" stroke="#899d85" stroke-width="1.51"/><path d="M1860,540L1980,540L1980,420Z" fill="#89a184" stroke="#89a184" stroke-width="1.51"/><path d="M1860,420L1860,540L1980,420Z" fill="#7ea27e" stroke="#7ea27e" stroke-width="1.51"/><path d="M1860,420L1980,420L1980,300Z" fill="#88b47a" stroke="#88b47a" stroke-width="1.51"/><path d="M1860,300L1860,420L1980,300Z" fill="#7db575" stroke="#7db575" stroke-width="1.51"/><path d="M1860,300L1980,300L1980,180Z" fill="#88c470" stroke="#88c470" stroke-width="1.51"/><path d="M1860,180L1860,300L1980,180Z" fill="#83bf69" stroke="#83bf69" stroke-width="1.51"/><path d="M1860,180L1980,180L1980,60Z" fill="#98c661" stroke="#98c661" stroke-width="1.51"/><path d="M1860,60L1860,180L1980,60Z" fill="#93c15a" stroke="#93c15a" stroke-width="1.51"/><path d="M1860,60L1980,60L1980,-60Z" fill="#a6c752" stroke="#a6c752" stroke-width="1.51"/><path d="M1860,-60L1860,60L1980,-60Z" fill="#99c049" stroke="#99c049" stroke-width="1.51"/><path d="M1860,-60L1980,-60L1980,-180Z" fill="#9ac33c" stroke="#9ac33c" stroke-width="1.51"/><path d="M1860,-180L1860,-60L1980,-180Z" fill="#8cbc32" stroke="#8cbc32" stroke-width="1.51"/><path d="M1740,1260L1860,1260L1860,1140Z" fill="#86a00c" stroke="#86a00c" stroke-width="1.51"/><path d="M1740,1140L1740,1260L1860,1140Z" fill="#6f920a" stroke="#6f920a" stroke-width="1.51"/><path d="M1740,1140L1860,1140L1860,1020Z" fill="#5d8607" stroke="#5d8607" stroke-width="1.51"/><path d="M1740,1020L1740,1140L1860,1020Z" fill="#467805" stroke="#467805" stroke-width="1.51"/><path d="M1740,1020L1860,1020L1860,900Z" fill="#6e9236" stroke="#6e9236" stroke-width="1.51"/><path d="M1740,900L1740,1020L1860,900Z" fill="#739747" stroke="#739747" stroke-width="1.51"/><path d="M1740,900L1860,900L1860,780Z" fill="#9ab16d" stroke="#9ab16d" stroke-width="1.51"/><path d="M1740,780L1740,900L1860,780Z" fill="#9eb67c" stroke="#9eb67c" stroke-width="1.51"/><path d="M1740,780L1860,780L1860,660Z" fill="#a0b486" stroke="#a0b486" stroke-width="1.51"/><path d="M1740,660L1740,780L1860,660Z" fill="#8ca682" stroke="#8ca682" stroke-width="1.51"/><path d="M1740,660L1860,660L1860,540Z" fill="#819b82" stroke="#819b82" stroke-width="1.51"/><path d="M1740,540L1740,660L1860,540Z" fill="#6b8d7e" stroke="#6b8d7e" stroke-width="1.51"/><path d="M1740,540L1860,540L1860,420Z" fill="#6b917c" stroke="#6b917c" stroke-width="1.51"/><path d="M1740,420L1740,540L1860,420Z" fill="#609177" stroke="#609177" stroke-width="1.51"/><path d="M1740,420L1860,420L1860,300Z" fill="#69a373" stroke="#69a373" stroke-width="1.51"/><path d="M1740,300L1740,420L1860,300Z" fill="#5da46e" stroke="#5da46e" stroke-width="1.51"/><path d="M1740,300L1860,300L1860,180Z" fill="#69b36a" stroke="#69b36a" stroke-width="1.51"/><path d="M1740,180L1740,300L1860,180Z" fill="#64ae63" stroke="#64ae63" stroke-width="1.51"/><path d="M1740,180L1860,180L1860,60Z" fill="#7bb55b" stroke="#7bb55b" stroke-width="1.51"/><path d="M1740,60L1740,180L1860,60Z" fill="#76af54" stroke="#76af54" stroke-width="1.51"/><path d="M1740,60L1860,60L1860,-60Z" fill="#8ab64c" stroke="#8ab64c" stroke-width="1.51"/><path d="M1740,-60L1740,60L1860,-60Z" fill="#7caf44" stroke="#7caf44" stroke-width="1.51"/><path d="M1740,-60L1860,-60L1860,-180Z" fill="#7eb137" stroke="#7eb137" stroke-width="1.51"/><path d="M1740,-180L1740,-60L1860,-180Z" fill="#6faa2d" stroke="#6faa2d" stroke-width="1.51"/><path d="M1620,1260L1740,1260L1740,1140Z" fill="#88a128" stroke="#88a128" stroke-width="1.51"/><path d="M1620,1140L1620,1260L1740,1140Z" fill="#849f34" stroke="#849f34" stroke-width="1.51"/><path d="M1620,1140L1740,1140L1740,1020Z" fill="#5e8722" stroke="#5e8722" stroke-width="1.51"/><path d="M1620,1020L1620,1140L1740,1020Z" fill="#5a852c" stroke="#5a852c" stroke-width="1.51"/><path d="M1620,1020L1740,1020L1740,900Z" fill="#6e9346" stroke="#6e9346" stroke-width="1.51"/><path d="M1620,900L1620,1020L1740,900Z" fill="#86a462" stroke="#86a462" stroke-width="1.51"/><path d="M1620,900L1740,900L1740,780Z" fill="#99b37b" stroke="#99b37b" stroke-width="1.51"/><path d="M1620,780L1620,900L1740,780Z" fill="#b1c498" stroke="#b1c498" stroke-width="1.51"/><path d="M1620,780L1740,780L1740,660Z" fill="#9fb694" stroke="#9fb694" stroke-width="1.51"/><path d="M1620,660L1620,780L1740,660Z" fill="#9db49e" stroke="#9db49e" stroke-width="1.51"/><path d="M1620,660L1740,660L1740,540Z" fill="#7e9c8f" stroke="#7e9c8f" stroke-width="1.51"/><path d="M1620,540L1620,660L1740,540Z" fill="#7c9b99" stroke="#7c9b99" stroke-width="1.51"/><path d="M1620,540L1740,540L1740,420Z" fill="#689389" stroke="#689389" stroke-width="1.51"/><path d="M1620,420L1620,540L1740,420Z" fill="#709f92" stroke="#709f92" stroke-width="1.51"/><path d="M1620,420L1740,420L1740,300Z" fill="#67a581" stroke="#67a581" stroke-width="1.51"/><path d="M1620,300L1620,420L1740,300Z" fill="#6fb289" stroke="#6fb289" stroke-width="1.51"/><path d="M1620,300L1740,300L1740,180Z" fill="#67b578" stroke="#67b578" stroke-width="1.51"/><path d="M1620,180L1620,300L1740,180Z" fill="#77bc7f" stroke="#77bc7f" stroke-width="1.51"/><path d="M1620,180L1740,180L1740,60Z" fill="#7ab66a" stroke="#7ab66a" stroke-width="1.51"/><path d="M1620,60L1620,180L1740,60Z" fill="#8abe71" stroke="#8abe71" stroke-width="1.51"/><path d="M1620,60L1740,60L1740,-60Z" fill="#8bb85c" stroke="#8bb85c" stroke-width="1.51"/><path d="M1620,-60L1620,60L1740,-60Z" fill="#90bd61" stroke="#90bd61" stroke-width="1.51"/><path d="M1620,-60L1740,-60L1740,-180Z" fill="#7eb348" stroke="#7eb348" stroke-width="1.51"/><path d="M1620,-180L1620,-60L1740,-180Z" fill="#84b84d" stroke="#84b84d" stroke-width="1.51"/><path d="M1500,1260L1620,1260L1620,1140Z" fill="#a6b551" stroke="#a6b551" stroke-width="1.51"/><path d="M1500,1140L1500,1260L1620,1140Z" fill="#a1b45a" stroke="#a1b45a" stroke-width="1.51"/><path d="M1500,1140L1620,1140L1620,1020Z" fill="#7c9b48" stroke="#7c9b48" stroke-width="1.51"/><path d="M1500,1020L1500,1140L1620,1020Z" fill="#779a50" stroke="#779a50" stroke-width="1.51"/><path d="M1500,1020L1620,1020L1620,900Z" fill="#8ba768" stroke="#8ba768" stroke-width="1.51"/><path d="M1500,900L1500,1020L1620,900Z" fill="#a2b985" stroke="#a2b985" stroke-width="1.51"/><path d="M1500,900L1620,900L1620,780Z" fill="#b5c79e" stroke="#b5c79e" stroke-width="1.51"/><path d="M1500,780L1500,900L1620,780Z" fill="#cdd9bd" stroke="#cdd9bd" stroke-width="1.51"/><path d="M1500,780L1620,780L1620,660Z" fill="#bbcab8" stroke="#bbcab8" stroke-width="1.51"/><path d="M1500,660L1500,780L1620,660Z" fill="#b8c9c2" stroke="#b8c9c2" stroke-width="1.51"/><path d="M1500,660L1620,660L1620,540Z" fill="#98b0b3" stroke="#98b0b3" stroke-width="1.51"/><path d="M1500,540L1500,660L1620,540Z" fill="#95afbc" stroke="#95afbc" stroke-width="1.51"/><path d="M1500,540L1620,540L1620,420Z" fill="#81a6ac" stroke="#81a6ac" stroke-width="1.51"/><path d="M1500,420L1500,540L1620,420Z" fill="#8ab4b5" stroke="#8ab4b5" stroke-width="1.51"/><path d="M1500,420L1620,420L1620,300Z" fill="#82baa4" stroke="#82baa4" stroke-width="1.51"/><path d="M1500,300L1500,420L1620,300Z" fill="#8ac8ad" stroke="#8ac8ad" stroke-width="1.51"/><path d="M1500,300L1620,300L1620,180Z" fill="#84ca9b" stroke="#84ca9b" stroke-width="1.51"/><path d="M1500,180L1500,300L1620,180Z" fill="#94d2a2" stroke="#94d2a2" stroke-width="1.51"/><path d="M1500,180L1620,180L1620,60Z" fill="#97cb8d" stroke="#97cb8d" stroke-width="1.51"/><path d="M1500,60L1500,180L1620,60Z" fill="#a6d395" stroke="#a6d395" stroke-width="1.51"/><path d="M1500,60L1620,60L1620,-60Z" fill="#a8cd80" stroke="#a8cd80" stroke-width="1.51"/><path d="M1500,-60L1500,60L1620,-60Z" fill="#aed285" stroke="#aed285" stroke-width="1.51"/><path d="M1500,-60L1620,-60L1620,-180Z" fill="#9cc86d" stroke="#9cc86d" stroke-width="1.51"/><path d="M1500,-180L1500,-60L1620,-180Z" fill="#a2ce72" stroke="#a2ce72" stroke-width="1.51"/><path d="M1380,1260L1500,1260L1500,1140Z" fill="#c4ca75" stroke="#c4ca75" stroke-width="1.51"/><path d="M1380,1140L1380,1260L1500,1140Z" fill="#bfc87e" stroke="#bfc87e" stroke-width="1.51"/><path d="M1380,1140L1500,1140L1500,1020Z" fill="#98b06a" stroke="#98b06a" stroke-width="1.51"/><path d="M1380,1020L1380,1140L1500,1020Z" fill="#93ae73" stroke="#93ae73" stroke-width="1.51"/><path d="M1380,1020L1500,1020L1500,900Z" fill="#a6bc8b" stroke="#a6bc8b" stroke-width="1.51"/><path d="M1380,900L1380,1020L1500,900Z" fill="#becea9" stroke="#becea9" stroke-width="1.51"/><path d="M1380,900L1500,900L1500,780Z" fill="#d2dcc2" stroke="#d2dcc2" stroke-width="1.51"/><path d="M1380,780L1380,900L1500,780Z" fill="#e9eee2" stroke="#e9eee2" stroke-width="1.51"/><path d="M1380,780L1500,780L1500,660Z" fill="#d6dfdc" stroke="#d6dfdc" stroke-width="1.51"/><path d="M1380,660L1380,780L1500,660Z" fill="#d3dee7" stroke="#d3dee7" stroke-width="1.51"/><path d="M1380,660L1500,660L1500,540Z" fill="#b2c5d7" stroke="#b2c5d7" stroke-width="1.51"/><path d="M1380,540L1380,660L1500,540Z" fill="#afc4e1" stroke="#afc4e1" stroke-width="1.51"/><path d="M1380,540L1500,540L1500,420Z" fill="#9bbbd0" stroke="#9bbbd0" stroke-width="1.51"/><path d="M1380,420L1380,540L1500,420Z" fill="#a4c8da" stroke="#a4c8da" stroke-width="1.51"/><path d="M1380,420L1500,420L1500,300Z" fill="#9dcfc8" stroke="#9dcfc8" stroke-width="1.51"/><path d="M1380,300L1380,420L1500,300Z" fill="#a6ddd1" stroke="#a6ddd1" stroke-width="1.51"/><path d="M1380,300L1500,300L1500,180Z" fill="#a0e0bf" stroke="#a0e0bf" stroke-width="1.51"/><path d="M1380,180L1380,300L1500,180Z" fill="#b0e7c7" stroke="#b0e7c7" stroke-width="1.51"/><path d="M1380,180L1500,180L1500,60Z" fill="#b4e1b1" stroke="#b4e1b1" stroke-width="1.51"/><path d="M1380,60L1380,180L1500,60Z" fill="#c3e8b9" stroke="#c3e8b9" stroke-width="1.51"/><path d="M1380,60L1500,60L1500,-60Z" fill="#c5e2a4" stroke="#c5e2a4" stroke-width="1.51"/><path d="M1380,-60L1380,60L1500,-60Z" fill="#cbe8aa" stroke="#cbe8aa" stroke-width="1.51"/><path d="M1380,-60L1500,-60L1500,-180Z" fill="#badd91" stroke="#badd91" stroke-width="1.51"/><path d="M1380,-180L1380,-60L1500,-180Z" fill="#c0e397" stroke="#c0e397" stroke-width="1.51"/><path d="M1260,1260L1380,1260L1380,1140Z" fill="#d9d993" stroke="#d9d993" stroke-width="1.51"/><path d="M1260,1140L1260,1260L1380,1140Z" fill="#c4ca8e" stroke="#c4ca8e" stroke-width="1.51"/><path d="M1260,1140L1380,1140L1380,1020Z" fill="#acbe88" stroke="#acbe88" stroke-width="1.51"/><path d="M1260,1020L1260,1140L1380,1020Z" fill="#97b083" stroke="#97b083" stroke-width="1.51"/><path d="M1260,1020L1380,1020L1380,900Z" fill="#bacba9" stroke="#bacba9" stroke-width="1.51"/><path d="M1260,900L1260,1020L1380,900Z" fill="#c2d0ba" stroke="#c2d0ba" stroke-width="1.51"/><path d="M1260,900L1380,900L1380,780Z" fill="#e5ebe1" stroke="#e5ebe1" stroke-width="1.51"/><path d="M1260,780L1260,900L1380,780Z" fill="#ecf0f3" stroke="#ecf0f3" stroke-width="1.51"/><path d="M1260,780L1380,780L1380,660Z" fill="#e9eefc" stroke="#e9eefc" stroke-width="1.51"/><path d="M1260,660L1260,780L1380,660Z" fill="#d5e0f8" stroke="#d5e0f8" stroke-width="1.51"/><path d="M1260,660L1380,660L1380,540Z" fill="#c4d4f5" stroke="#c4d4f5" stroke-width="1.51"/><path d="M1260,540L1260,660L1380,540Z" fill="#b0c6f1" stroke="#b0c6f1" stroke-width="1.51"/><path d="M1260,540L1380,540L1380,420Z" fill="#accaee" stroke="#accaee" stroke-width="1.51"/><path d="M1260,420L1260,540L1380,420Z" fill="#a5cbea" stroke="#a5cbea" stroke-width="1.51"/><path d="M1260,420L1380,420L1380,300Z" fill="#afdee6" stroke="#afdee6" stroke-width="1.51"/><path d="M1260,300L1260,420L1380,300Z" fill="#a7dfe2" stroke="#a7dfe2" stroke-width="1.51"/><path d="M1260,300L1380,300L1380,180Z" fill="#b3efde" stroke="#b3efde" stroke-width="1.51"/><path d="M1260,180L1260,300L1380,180Z" fill="#b2e9d8" stroke="#b2e9d8" stroke-width="1.51"/><path d="M1260,180L1380,180L1380,60Z" fill="#c8f0d0" stroke="#c8f0d0" stroke-width="1.51"/><path d="M1260,60L1260,180L1380,60Z" fill="#c7ebca" stroke="#c7ebca" stroke-width="1.51"/><path d="M1260,60L1380,60L1380,-60Z" fill="#d9f1c2" stroke="#d9f1c2" stroke-width="1.51"/><path d="M1260,-60L1260,60L1380,-60Z" fill="#cfeabb" stroke="#cfeabb" stroke-width="1.51"/><path d="M1260,-60L1380,-60L1380,-180Z" fill="#ceedaf" stroke="#ceedaf" stroke-width="1.51"/><path d="M1260,-180L1260,-60L1380,-180Z" fill="#c4e5a8" stroke="#c4e5a8" stroke-width="1.51"/><path d="M1140,1260L1260,1260L1260,1140Z" fill="#c5c791" stroke="#c5c791" stroke-width="1.51"/><path d="M1140,1140L1140,1260L1260,1140Z" fill="#afb98c" stroke="#afb98c" stroke-width="1.51"/><path d="M1140,1140L1260,1140L1260,1020Z" fill="#98ad85" stroke="#98ad85" stroke-width="1.51"/><path d="M1140,1020L1140,1140L1260,1020Z" fill="#829f80" stroke="#829f80" stroke-width="1.51"/><path d="M1140,1020L1260,1020L1260,900Z" fill="#a5baa6" stroke="#a5baa6" stroke-width="1.51"/><path d="M1140,900L1140,1020L1260,900Z" fill="#abbfb6" stroke="#abbfb6" stroke-width="1.51"/><path d="M1140,900L1260,900L1260,780Z" fill="#cedade" stroke="#cedade" stroke-width="1.51"/><path d="M1140,780L1140,900L1260,780Z" fill="#d4dfef" stroke="#d4dfef" stroke-width="1.51"/><path d="M1140,780L1260,780L1260,660Z" fill="#d2ddf8" stroke="#d2ddf8" stroke-width="1.51"/><path d="M1140,660L1140,780L1260,660Z" fill="#bdcff4" stroke="#bdcff4" stroke-width="1.51"/><path d="M1140,660L1260,660L1260,540Z" fill="#abc3f1" stroke="#abc3f1" stroke-width="1.51"/><path d="M1140,540L1140,660L1260,540Z" fill="#95b5ed" stroke="#95b5ed" stroke-width="1.51"/><path d="M1140,540L1260,540L1260,420Z" fill="#92b9ea" stroke="#92b9ea" stroke-width="1.51"/><path d="M1140,420L1140,540L1260,420Z" fill="#8abae6" stroke="#8abae6" stroke-width="1.51"/><path d="M1140,420L1260,420L1260,300Z" fill="#95cde2" stroke="#95cde2" stroke-width="1.51"/><path d="M1140,300L1140,420L1260,300Z" fill="#8dcede" stroke="#8dcede" stroke-width="1.51"/><path d="M1140,300L1260,300L1260,180Z" fill="#9bdeda" stroke="#9bdeda" stroke-width="1.51"/><path d="M1140,180L1140,300L1260,180Z" fill="#9ad8d4" stroke="#9ad8d4" stroke-width="1.51"/><path d="M1140,180L1260,180L1260,60Z" fill="#b1dfcc" stroke="#b1dfcc" stroke-width="1.51"/><path d="M1140,60L1140,180L1260,60Z" fill="#afd9c7" stroke="#afd9c7" stroke-width="1.51"/><path d="M1140,60L1260,60L1260,-60Z" fill="#c4e0bf" stroke="#c4e0bf" stroke-width="1.51"/><path d="M1140,-60L1140,60L1260,-60Z" fill="#b9d9b8" stroke="#b9d9b8" stroke-width="1.51"/><path d="M1140,-60L1260,-60L1260,-180Z" fill="#b9dbac" stroke="#b9dbac" stroke-width="1.51"/><path d="M1140,-180L1140,-60L1260,-180Z" fill="#aed4a5" stroke="#aed4a5" stroke-width="1.51"/><path d="M1020,1260L1140,1260L1140,1140Z" fill="#b0b78e" stroke="#b0b78e" stroke-width="1.51"/><path d="M1020,1140L1020,1260L1140,1140Z" fill="#9ba989" stroke="#9ba989" stroke-width="1.51"/><path d="M1020,1140L1140,1140L1140,1020Z" fill="#849d82" stroke="#849d82" stroke-width="1.51"/><path d="M1020,1020L1020,1140L1140,1020Z" fill="#6e8f7d" stroke="#6e8f7d" stroke-width="1.51"/><path d="M1020,1020L1140,1020L1140,900Z" fill="#8fa9a2" stroke="#8fa9a2" stroke-width="1.51"/><path d="M1020,900L1020,1020L1140,900Z" fill="#95aeb3" stroke="#95aeb3" stroke-width="1.51"/><path d="M1020,900L1140,900L1140,780Z" fill="#b7c9da" stroke="#b7c9da" stroke-width="1.51"/><path d="M1020,780L1020,900L1140,780Z" fill="#bdceeb" stroke="#bdceeb" stroke-width="1.51"/><path d="M1020,780L1140,780L1140,660Z" fill="#b9ccf3" stroke="#b9ccf3" stroke-width="1.51"/><path d="M1020,660L1020,780L1140,660Z" fill="#a4bef0" stroke="#a4bef0" stroke-width="1.51"/><path d="M1020,660L1140,660L1140,540Z" fill="#91b2ed" stroke="#91b2ed" stroke-width="1.51"/><path d="M1020,540L1020,660L1140,540Z" fill="#79a5e9" stroke="#79a5e9" stroke-width="1.51"/><path d="M1020,540L1140,540L1140,420Z" fill="#76a9e6" stroke="#76a9e6" stroke-width="1.51"/><path d="M1020,420L1020,540L1140,420Z" fill="#6daae1" stroke="#6daae1" stroke-width="1.51"/><path d="M1020,420L1140,420L1140,300Z" fill="#7abcde" stroke="#7abcde" stroke-width="1.51"/><path d="M1020,300L1020,420L1140,300Z" fill="#71bdda" stroke="#71bdda" stroke-width="1.51"/><path d="M1020,300L1140,300L1140,180Z" fill="#80cdd6" stroke="#80cdd6" stroke-width="1.51"/><path d="M1020,180L1020,300L1140,180Z" fill="#80c7d0" stroke="#80c7d0" stroke-width="1.51"/><path d="M1020,180L1140,180L1140,60Z" fill="#99cec8" stroke="#99cec8" stroke-width="1.51"/><path d="M1020,60L1020,180L1140,60Z" fill="#98c8c3" stroke="#98c8c3" stroke-width="1.51"/><path d="M1020,60L1140,60L1140,-60Z" fill="#adcfbc" stroke="#adcfbc" stroke-width="1.51"/><path d="M1020,-60L1020,60L1140,-60Z" fill="#a3c7b4" stroke="#a3c7b4" stroke-width="1.51"/><path d="M1020,-60L1140,-60L1140,-180Z" fill="#a3caa9" stroke="#a3caa9" stroke-width="1.51"/><path d="M1020,-180L1020,-60L1140,-180Z" fill="#99c3a2" stroke="#99c3a2" stroke-width="1.51"/><path d="M900,1260L1020,1260L1020,1140Z" fill="#9ca68b" stroke="#9ca68b" stroke-width="1.51"/><path d="M900,1140L900,1260L1020,1140Z" fill="#8a9d86" stroke="#8a9d86" stroke-width="1.51"/><path d="M900,1140L1020,1140L1020,1020Z" fill="#6f8d7f" stroke="#6f8d7f" stroke-width="1.51"/><path d="M900,1020L900,1140L1020,1020Z" fill="#5b847a" stroke="#5b847a" stroke-width="1.51"/><path d="M900,1020L1020,1020L1020,900Z" fill="#79999f" stroke="#79999f" stroke-width="1.51"/><path d="M900,900L900,1020L1020,900Z" fill="#82a3af" stroke="#82a3af" stroke-width="1.51"/><path d="M900,900L1020,900L1020,780Z" fill="#9fb8d6" stroke="#9fb8d6" stroke-width="1.51"/><path d="M900,780L900,900L1020,780Z" fill="#a9c2e7" stroke="#a9c2e7" stroke-width="1.51"/><path d="M900,780L1020,780L1020,660Z" fill="#a0bbef" stroke="#a0bbef" stroke-width="1.51"/><path d="M900,660L900,780L1020,660Z" fill="#8eb3eb" stroke="#8eb3eb" stroke-width="1.51"/><path d="M900,660L1020,660L1020,540Z" fill="#74a2e8" stroke="#74a2e8" stroke-width="1.51"/><path d="M900,540L900,660L1020,540Z" fill="#5f9ae4" stroke="#5f9ae4" stroke-width="1.51"/><path d="M900,540L1020,540L1020,420Z" fill="#5499e1" stroke="#5499e1" stroke-width="1.51"/><path d="M900,420L900,540L1020,420Z" fill="#519edd" stroke="#519edd" stroke-width="1.51"/><path d="M900,420L1020,420L1020,300Z" fill="#5aacda" stroke="#5aacda" stroke-width="1.51"/><path d="M900,300L900,420L1020,300Z" fill="#56b2d6" stroke="#56b2d6" stroke-width="1.51"/><path d="M900,300L1020,300L1020,180Z" fill="#62bcd2" stroke="#62bcd2" stroke-width="1.51"/><path d="M900,180L900,300L1020,180Z" fill="#68bbcc" stroke="#68bbcc" stroke-width="1.51"/><path d="M900,180L1020,180L1020,60Z" fill="#80bdc5" stroke="#80bdc5" stroke-width="1.51"/><path d="M900,60L900,180L1020,60Z" fill="#84bcbf" stroke="#84bcbf" stroke-width="1.51"/><path d="M900,60L1020,60L1020,-60Z" fill="#97beb8" stroke="#97beb8" stroke-width="1.51"/><path d="M900,-60L900,60L1020,-60Z" fill="#90bcb1" stroke="#90bcb1" stroke-width="1.51"/><path d="M900,-60L1020,-60L1020,-180Z" fill="#8db9a6" stroke="#8db9a6" stroke-width="1.51"/><path d="M900,-180L900,-60L1020,-180Z" fill="#86b79e" stroke="#86b79e" stroke-width="1.51"/><path d="M780,1260L900,1260L900,1140Z" fill="#99ae86" stroke="#99ae86" stroke-width="1.51"/><path d="M780,1140L780,1260L900,1140Z" fill="#8aaa80" stroke="#8aaa80" stroke-width="1.51"/><path d="M780,1140L900,1140L900,1020Z" fill="#6b947a" stroke="#6b947a" stroke-width="1.51"/><path d="M780,1020L780,1140L900,1020Z" fill="#5b9075" stroke="#5b9075" stroke-width="1.51"/><path d="M780,1020L900,1020L900,900Z" fill="#75a19a" stroke="#75a19a" stroke-width="1.51"/><path d="M780,900L780,1020L900,900Z" fill="#83b0aa" stroke="#83b0aa" stroke-width="1.51"/><path d="M780,900L900,900L900,780Z" fill="#9dc0d1" stroke="#9dc0d1" stroke-width="1.51"/><path d="M780,780L780,900L900,780Z" fill="#abd0e2" stroke="#abd0e2" stroke-width="1.51"/><path d="M780,780L900,780L900,660Z" fill="#9ec4ea" stroke="#9ec4ea" stroke-width="1.51"/><path d="M780,660L780,780L900,660Z" fill="#91c0e6" stroke="#91c0e6" stroke-width="1.51"/><path d="M780,660L900,660L900,540Z" fill="#72aae3" stroke="#72aae3" stroke-width="1.51"/><path d="M780,540L780,660L900,540Z" fill="#63a7e0" stroke="#63a7e0" stroke-width="1.51"/><path d="M780,540L900,540L900,420Z" fill="#52a0dd" stroke="#52a0dd" stroke-width="1.51"/><path d="M780,420L780,540L900,420Z" fill="#55abd9" stroke="#55abd9" stroke-width="1.51"/><path d="M780,420L900,420L900,300Z" fill="#56b3d5" stroke="#56b3d5" stroke-width="1.51"/><path d="M780,300L780,420L900,300Z" fill="#57bed1" stroke="#57bed1" stroke-width="1.51"/><path d="M780,300L900,300L900,180Z" fill="#5ec3cd" stroke="#5ec3cd" stroke-width="1.51"/><path d="M780,180L780,300L900,180Z" fill="#68c8c7" stroke="#68c8c7" stroke-width="1.51"/><path d="M780,180L900,180L900,60Z" fill="#7cc4c0" stroke="#7cc4c0" stroke-width="1.51"/><path d="M780,60L780,180L900,60Z" fill="#84c9ba" stroke="#84c9ba" stroke-width="1.51"/><path d="M780,60L900,60L900,-60Z" fill="#93c5b3" stroke="#93c5b3" stroke-width="1.51"/><path d="M780,-60L780,60L900,-60Z" fill="#90c9ab" stroke="#90c9ab" stroke-width="1.51"/><path d="M780,-60L900,-60L900,-180Z" fill="#89c1a1" stroke="#89c1a1" stroke-width="1.51"/><path d="M780,-180L780,-60L900,-180Z" fill="#85c499" stroke="#85c499" stroke-width="1.51"/><path d="M660,1260L780,1260L780,1140Z" fill="#98bb80" stroke="#98bb80" stroke-width="1.51"/><path d="M660,1140L660,1260L780,1140Z" fill="#89b77a" stroke="#89b77a" stroke-width="1.51"/><path d="M660,1140L780,1140L780,1020Z" fill="#6aa175" stroke="#6aa175" stroke-width="1.51"/><path d="M660,1020L660,1140L780,1020Z" fill="#599c6f" stroke="#599c6f" stroke-width="1.51"/><path d="M660,1020L780,1020L780,900Z" fill="#75ad94" stroke="#75ad94" stroke-width="1.51"/><path d="M660,900L660,1020L780,900Z" fill="#83bca4" stroke="#83bca4" stroke-width="1.51"/><path d="M660,900L780,900L780,780Z" fill="#9ececb" stroke="#9ececb" stroke-width="1.51"/><path d="M660,780L660,900L780,780Z" fill="#acdddc" stroke="#acdddc" stroke-width="1.51"/><path d="M660,780L780,780L780,660Z" fill="#9fd1e5" stroke="#9fd1e5" stroke-width="1.51"/><path d="M660,660L660,780L780,660Z" fill="#92cde1" stroke="#92cde1" stroke-width="1.51"/><path d="M660,660L780,660L780,540Z" fill="#75b7de" stroke="#75b7de" stroke-width="1.51"/><path d="M660,540L660,660L780,540Z" fill="#66b3db" stroke="#66b3db" stroke-width="1.51"/><path d="M660,540L780,540L780,420Z" fill="#55add8" stroke="#55add8" stroke-width="1.51"/><path d="M660,420L660,540L780,420Z" fill="#57b7d4" stroke="#57b7d4" stroke-width="1.51"/><path d="M660,420L780,420L780,300Z" fill="#57c0d0" stroke="#57c0d0" stroke-width="1.51"/><path d="M660,300L660,420L780,300Z" fill="#57cbcc" stroke="#57cbcc" stroke-width="1.51"/><path d="M660,300L780,300L780,180Z" fill="#5cd0c8" stroke="#5cd0c8" stroke-width="1.51"/><path d="M660,180L660,300L780,180Z" fill="#67d5c2" stroke="#67d5c2" stroke-width="1.51"/><path d="M660,180L780,180L780,60Z" fill="#7bd1ba" stroke="#7bd1ba" stroke-width="1.51"/><path d="M660,60L660,180L780,60Z" fill="#83d6b4" stroke="#83d6b4" stroke-width="1.51"/><path d="M660,60L780,60L780,-60Z" fill="#93d2ad" stroke="#93d2ad" stroke-width="1.51"/><path d="M660,-60L660,60L780,-60Z" fill="#8fd6a5" stroke="#8fd6a5" stroke-width="1.51"/><path d="M660,-60L780,-60L780,-180Z" fill="#88cd9b" stroke="#88cd9b" stroke-width="1.51"/><path d="M660,-180L660,-60L780,-180Z" fill="#84d193" stroke="#84d193" stroke-width="1.51"/><path d="M540,1260L660,1260L660,1140Z" fill="#97c879" stroke="#97c879" stroke-width="1.51"/><path d="M540,1140L540,1260L660,1140Z" fill="#87c374" stroke="#87c374" stroke-width="1.51"/><path d="M540,1140L660,1140L660,1020Z" fill="#67ad6f" stroke="#67ad6f" stroke-width="1.51"/><path d="M540,1020L540,1140L660,1020Z" fill="#55a869" stroke="#55a869" stroke-width="1.51"/><path d="M540,1020L660,1020L660,900Z" fill="#74ba8f" stroke="#74ba8f" stroke-width="1.51"/><path d="M540,900L540,1020L660,900Z" fill="#82c99f" stroke="#82c99f" stroke-width="1.51"/><path d="M540,900L660,900L660,780Z" fill="#9edbc6" stroke="#9edbc6" stroke-width="1.51"/><path d="M540,780L540,900L660,780Z" fill="#acead7" stroke="#acead7" stroke-width="1.51"/><path d="M540,780L660,780L660,660Z" fill="#a0dee0" stroke="#a0dee0" stroke-width="1.51"/><path d="M540,660L540,780L660,660Z" fill="#93dadc" stroke="#93dadc" stroke-width="1.51"/><path d="M540,660L660,660L660,540Z" fill="#77c4da" stroke="#77c4da" stroke-width="1.51"/><path d="M540,540L540,660L660,540Z" fill="#68c0d6" stroke="#68c0d6" stroke-width="1.51"/><path d="M540,540L660,540L660,420Z" fill="#56b9d3" stroke="#56b9d3" stroke-width="1.51"/><path d="M540,420L540,540L660,420Z" fill="#57c4cf" stroke="#57c4cf" stroke-width="1.51"/><path d="M540,420L660,420L660,300Z" fill="#56cccb" stroke="#56cccb" stroke-width="1.51"/><path d="M540,300L540,420L660,300Z" fill="#54d7c7" stroke="#54d7c7" stroke-width="1.51"/><path d="M540,300L660,300L660,180Z" fill="#59dcc3" stroke="#59dcc3" stroke-width="1.51"/><path d="M540,180L540,300L660,180Z" fill="#64e1bd" stroke="#64e1bd" stroke-width="1.51"/><path d="M540,180L660,180L660,60Z" fill="#79deb5" stroke="#79deb5" stroke-width="1.51"/><path d="M540,60L540,180L660,60Z" fill="#81e3af" stroke="#81e3af" stroke-width="1.51"/><path d="M540,60L660,60L660,-60Z" fill="#91dfa8" stroke="#91dfa8" stroke-width="1.51"/><path d="M540,-60L540,60L660,-60Z" fill="#8de2a0" stroke="#8de2a0" stroke-width="1.51"/><path d="M540,-60L660,-60L660,-180Z" fill="#86da95" stroke="#86da95" stroke-width="1.51"/><path d="M540,-180L540,-60L660,-180Z" fill="#81dd8d" stroke="#81dd8d" stroke-width="1.51"/><path d="M420,1260L540,1260L540,1140Z" fill="#9bcf71" stroke="#9bcf71" stroke-width="1.51"/><path d="M420,1140L420,1260L540,1140Z" fill="#90c66b" stroke="#90c66b" stroke-width="1.51"/><path d="M420,1140L540,1140L540,1020Z" fill="#6cb467" stroke="#6cb467" stroke-width="1.51"/><path d="M420,1020L420,1140L540,1020Z" fill="#60ab61" stroke="#60ab61" stroke-width="1.51"/><path d="M420,1020L540,1020L540,900Z" fill="#79c088" stroke="#79c088" stroke-width="1.51"/><path d="M420,900L420,1020L540,900Z" fill="#8dcc97" stroke="#8dcc97" stroke-width="1.51"/><path d="M420,900L540,900L540,780Z" fill="#a5e2bf" stroke="#a5e2bf" stroke-width="1.51"/><path d="M420,780L420,900L540,780Z" fill="#b8edcf" stroke="#b8edcf" stroke-width="1.51"/><path d="M420,780L540,780L540,660Z" fill="#a8e5d9" stroke="#a8e5d9" stroke-width="1.51"/><path d="M420,660L420,780L540,660Z" fill="#a0ddd4" stroke="#a0ddd4" stroke-width="1.51"/><path d="M420,660L540,660L540,540Z" fill="#80cad3" stroke="#80cad3" stroke-width="1.51"/><path d="M420,540L420,660L540,540Z" fill="#79c2ce" stroke="#79c2ce" stroke-width="1.51"/><path d="M420,540L540,540L540,420Z" fill="#63c0cc" stroke="#63c0cc" stroke-width="1.51"/><path d="M420,420L420,540L540,420Z" fill="#6ac7c7" stroke="#6ac7c7" stroke-width="1.51"/><path d="M420,420L540,420L540,300Z" fill="#61d3c4" stroke="#61d3c4" stroke-width="1.51"/><path d="M420,300L420,420L540,300Z" fill="#68dabf" stroke="#68dabf" stroke-width="1.51"/><path d="M420,300L540,300L540,180Z" fill="#63e3bc" stroke="#63e3bc" stroke-width="1.51"/><path d="M420,180L420,300L540,180Z" fill="#75e4b4" stroke="#75e4b4" stroke-width="1.51"/><path d="M420,180L540,180L540,60Z" fill="#80e5ae" stroke="#80e5ae" stroke-width="1.51"/><path d="M420,60L420,180L540,60Z" fill="#8ee6a6" stroke="#8ee6a6" stroke-width="1.51"/><path d="M420,60L540,60L540,-60Z" fill="#97e7a0" stroke="#97e7a0" stroke-width="1.51"/><path d="M420,-60L420,60L540,-60Z" fill="#98e597" stroke="#98e597" stroke-width="1.51"/><path d="M420,-60L540,-60L540,-180Z" fill="#8be18d" stroke="#8be18d" stroke-width="1.51"/><path d="M420,-180L420,-60L540,-180Z" fill="#8be083" stroke="#8be083" stroke-width="1.51"/><path d="M300,1260L420,1260L420,1140Z" fill="#a5d068" stroke="#a5d068" stroke-width="1.51"/><path d="M300,1140L300,1260L420,1140Z" fill="#9ac761" stroke="#9ac761" stroke-width="1.51"/><path d="M300,1140L420,1140L420,1020Z" fill="#78b55e" stroke="#78b55e" stroke-width="1.51"/><path d="M300,1020L300,1140L420,1020Z" fill="#6cac58" stroke="#6cac58" stroke-width="1.51"/><path d="M300,1020L420,1020L420,900Z" fill="#86c17f" stroke="#86c17f" stroke-width="1.51"/><path d="M300,900L300,1020L420,900Z" fill="#99cc8e" stroke="#99cc8e" stroke-width="1.51"/><path d="M300,900L420,900L420,780Z" fill="#b2e3b7" stroke="#b2e3b7" stroke-width="1.51"/><path d="M300,780L300,900L420,780Z" fill="#c4eec6" stroke="#c4eec6" stroke-width="1.51"/><path d="M300,780L420,780L420,660Z" fill="#b6e6d0" stroke="#b6e6d0" stroke-width="1.51"/><path d="M300,660L300,780L420,660Z" fill="#aeddcc" stroke="#aeddcc" stroke-width="1.51"/><path d="M300,660L420,660L420,540Z" fill="#91cbcb" stroke="#91cbcb" stroke-width="1.51"/><path d="M300,540L300,660L420,540Z" fill="#89c3c6" stroke="#89c3c6" stroke-width="1.51"/><path d="M300,540L420,540L420,420Z" fill="#77c1c4" stroke="#77c1c4" stroke-width="1.51"/><path d="M300,420L300,540L420,420Z" fill="#7dc7bf" stroke="#7dc7bf" stroke-width="1.51"/><path d="M300,420L420,420L420,300Z" fill="#76d4bc" stroke="#76d4bc" stroke-width="1.51"/><path d="M300,300L300,420L420,300Z" fill="#7bdbb6" stroke="#7bdbb6" stroke-width="1.51"/><path d="M300,300L420,300L420,180Z" fill="#77e4b3" stroke="#77e4b3" stroke-width="1.51"/><path d="M300,180L300,300L420,180Z" fill="#85e5ac" stroke="#85e5ac" stroke-width="1.51"/><path d="M300,180L420,180L420,60Z" fill="#90e6a5" stroke="#90e6a5" stroke-width="1.51"/><path d="M300,60L300,180L420,60Z" fill="#9be69e" stroke="#9be69e" stroke-width="1.51"/><path d="M300,60L420,60L420,-60Z" fill="#a3e897" stroke="#a3e897" stroke-width="1.51"/><path d="M300,-60L300,60L420,-60Z" fill="#a4e68e" stroke="#a4e68e" stroke-width="1.51"/><path d="M300,-60L420,-60L420,-180Z" fill="#97e284" stroke="#97e284" stroke-width="1.51"/><path d="M300,-180L300,-60L420,-180Z" fill="#97e17a" stroke="#97e17a" stroke-width="1.51"/><path d="M180,1260L300,1260L300,1140Z" fill="#afd15e" stroke="#afd15e" stroke-width="1.51"/><path d="M180,1140L180,1260L300,1140Z" fill="#a3c857" stroke="#a3c857" stroke-width="1.51"/><path d="M180,1140L300,1140L300,1020Z" fill="#82b655" stroke="#82b655" stroke-width="1.51"/><path d="M180,1020L180,1140L300,1020Z" fill="#77ad4e" stroke="#77ad4e" stroke-width="1.51"/><path d="M180,1020L300,1020L300,900Z" fill="#92c276" stroke="#92c276" stroke-width="1.51"/><path d="M180,900L180,1020L300,900Z" fill="#a4cd85" stroke="#a4cd85" stroke-width="1.51"/><path d="M180,900L300,900L300,780Z" fill="#bee3ae" stroke="#bee3ae" stroke-width="1.51"/><path d="M180,780L180,900L300,780Z" fill="#d0eebd" stroke="#d0eebd" stroke-width="1.51"/><path d="M180,780L300,780L300,660Z" fill="#c3e6c8" stroke="#c3e6c8" stroke-width="1.51"/><path d="M180,660L180,780L300,660Z" fill="#bbdec3" stroke="#bbdec3" stroke-width="1.51"/><path d="M180,660L300,660L300,540Z" fill="#a0ccc3" stroke="#a0ccc3" stroke-width="1.51"/><path d="M180,540L180,660L300,540Z" fill="#98c3bd" stroke="#98c3bd" stroke-width="1.51"/><path d="M180,540L300,540L300,420Z" fill="#87c1bc" stroke="#87c1bc" stroke-width="1.51"/><path d="M180,420L180,540L300,420Z" fill="#8cc8b6" stroke="#8cc8b6" stroke-width="1.51"/><path d="M180,420L300,420L300,300Z" fill="#86d5b4" stroke="#86d5b4" stroke-width="1.51"/><path d="M180,300L180,420L300,300Z" fill="#8adcad" stroke="#8adcad" stroke-width="1.51"/><path d="M180,300L300,300L300,180Z" fill="#88e6aa" stroke="#88e6aa" stroke-width="1.51"/><path d="M180,180L180,300L300,180Z" fill="#94e6a2" stroke="#94e6a2" stroke-width="1.51"/><path d="M180,180L300,180L300,60Z" fill="#9de79c" stroke="#9de79c" stroke-width="1.51"/><path d="M180,60L180,180L300,60Z" fill="#a7e894" stroke="#a7e894" stroke-width="1.51"/><path d="M180,60L300,60L300,-60Z" fill="#afe98e" stroke="#afe98e" stroke-width="1.51"/><path d="M180,-60L180,60L300,-60Z" fill="#afe784" stroke="#afe784" stroke-width="1.51"/><path d="M180,-60L300,-60L300,-180Z" fill="#a3e37b" stroke="#a3e37b" stroke-width="1.51"/><path d="M180,-180L180,-60L300,-180Z" fill="#a2e270" stroke="#a2e270" stroke-width="1.51"/><path d="M60,1260L180,1260L180,1140Z" fill="#b5d153" stroke="#b5d153" stroke-width="1.51"/><path d="M60,1140L60,1260L180,1140Z" fill="#a3c74b" stroke="#a3c74b" stroke-width="1.51"/><path d="M60,1140L180,1140L180,1020Z" fill="#89b64a" stroke="#89b64a" stroke-width="1.51"/><path d="M60,1020L60,1140L180,1020Z" fill="#78ac43" stroke="#78ac43" stroke-width="1.51"/><path d="M60,1020L180,1020L180,900Z" fill="#99c26d" stroke="#99c26d" stroke-width="1.51"/><path d="M60,900L60,1020L180,900Z" fill="#a5cc7a" stroke="#a5cc7a" stroke-width="1.51"/><path d="M60,900L180,900L180,780Z" fill="#c5e3a4" stroke="#c5e3a4" stroke-width="1.51"/><path d="M60,780L60,900L180,780Z" fill="#d2edb3" stroke="#d2edb3" stroke-width="1.51"/><path d="M60,780L180,780L180,660Z" fill="#cbe6be" stroke="#cbe6be" stroke-width="1.51"/><path d="M60,660L60,780L180,660Z" fill="#beddb8" stroke="#beddb8" stroke-width="1.51"/><path d="M60,660L180,660L180,540Z" fill="#a9ccb9" stroke="#a9ccb9" stroke-width="1.51"/><path d="M60,540L60,660L180,540Z" fill="#9bc2b3" stroke="#9bc2b3" stroke-width="1.51"/><path d="M60,540L180,540L180,420Z" fill="#92c1b3" stroke="#92c1b3" stroke-width="1.51"/><path d="M60,420L60,540L180,420Z" fill="#90c7ac" stroke="#90c7ac" stroke-width="1.51"/><path d="M60,420L180,420L180,300Z" fill="#91d5aa" stroke="#91d5aa" stroke-width="1.51"/><path d="M60,300L60,420L180,300Z" fill="#8edba3" stroke="#8edba3" stroke-width="1.51"/><path d="M60,300L180,300L180,180Z" fill="#92e5a1" stroke="#92e5a1" stroke-width="1.51"/><path d="M60,180L60,300L180,180Z" fill="#97e598" stroke="#97e598" stroke-width="1.51"/><path d="M60,180L180,180L180,60Z" fill="#a6e792" stroke="#a6e792" stroke-width="1.51"/><path d="M60,60L60,180L180,60Z" fill="#a9e689" stroke="#a9e689" stroke-width="1.51"/><path d="M60,60L180,60L180,-60Z" fill="#b7e984" stroke="#b7e984" stroke-width="1.51"/><path d="M60,-60L60,60L180,-60Z" fill="#b0e679" stroke="#b0e679" stroke-width="1.51"/><path d="M60,-60L180,-60L180,-180Z" fill="#aae470" stroke="#aae470" stroke-width="1.51"/><path d="M60,-180L60,-60L180,-180Z" fill="#a3e165" stroke="#a3e165" stroke-width="1.51"/><path d="M-60,1260L60,1260L60,1140Z" fill="#accd44" stroke="#accd44" stroke-width="1.51"/><path d="M-60,1140L-60,1260L60,1140Z" fill="#9bc43c" stroke="#9bc43c" stroke-width="1.51"/><path d="M-60,1140L60,1140L60,1020Z" fill="#81b23c" stroke="#81b23c" stroke-width="1.51"/><path d="M-60,1020L-60,1140L60,1020Z" fill="#6fa835" stroke="#6fa835" stroke-width="1.51"/><path d="M-60,1020L60,1020L60,900Z" fill="#91bf60" stroke="#91bf60" stroke-width="1.51"/><path d="M-60,900L-60,1020L60,900Z" fill="#9dc96e" stroke="#9dc96e" stroke-width="1.51"/><path d="M-60,900L60,900L60,780Z" fill="#bee098" stroke="#bee098" stroke-width="1.51"/><path d="M-60,780L-60,900L60,780Z" fill="#caeaa6" stroke="#caeaa6" stroke-width="1.51"/><path d="M-60,780L60,780L60,660Z" fill="#c4e3b2" stroke="#c4e3b2" stroke-width="1.51"/><path d="M-60,660L-60,780L60,660Z" fill="#b6d9ac" stroke="#b6d9ac" stroke-width="1.51"/><path d="M-60,660L60,660L60,540Z" fill="#a2c8ad" stroke="#a2c8ad" stroke-width="1.51"/><path d="M-60,540L-60,660L60,540Z" fill="#95bfa7" stroke="#95bfa7" stroke-width="1.51"/><path d="M-60,540L60,540L60,420Z" fill="#8cbea7" stroke="#8cbea7" stroke-width="1.51"/><path d="M-60,420L-60,540L60,420Z" fill="#89c3a0" stroke="#89c3a0" stroke-width="1.51"/><path d="M-60,420L60,420L60,300Z" fill="#8ad29e" stroke="#8ad29e" stroke-width="1.51"/><path d="M-60,300L-60,420L60,300Z" fill="#86d797" stroke="#86d797" stroke-width="1.51"/><path d="M-60,300L60,300L60,180Z" fill="#8be294" stroke="#8be294" stroke-width="1.51"/><path d="M-60,180L-60,300L60,180Z" fill="#8ee18c" stroke="#8ee18c" stroke-width="1.51"/><path d="M-60,180L60,180L60,60Z" fill="#9ee386" stroke="#9ee386" stroke-width="1.51"/><path d="M-60,60L-60,180L60,60Z" fill="#a1e37d" stroke="#a1e37d" stroke-width="1.51"/><path d="M-60,60L60,60L60,-60Z" fill="#afe577" stroke="#afe577" stroke-width="1.51"/><path d="M-60,-60L-60,60L60,-60Z" fill="#a8e36c" stroke="#a8e36c" stroke-width="1.51"/><path d="M-60,-60L60,-60L60,-180Z" fill="#a2e063" stroke="#a2e063" stroke-width="1.51"/><path d="M-60,-180L-60,-60L60,-180Z" fill="#9bde57" stroke="#9bde57" stroke-width="1.51"/><path d="M-180,1260L-60,1260L-60,1140Z" fill="#a4cb34" stroke="#a4cb34" stroke-width="1.51"/><path d="M-180,1140L-180,1260L-60,1140Z" fill="#93c12b" stroke="#93c12b" stroke-width="1.51"/><path d="M-180,1140L-60,1140L-60,1020Z" fill="#78b02d" stroke="#78b02d" stroke-width="1.51"/><path d="M-180,1020L-180,1140L-60,1020Z" fill="#66a625" stroke="#66a625" stroke-width="1.51"/><path d="M-180,1020L-60,1020L-60,900Z" fill="#89bc53" stroke="#89bc53" stroke-width="1.51"/><path d="M-180,900L-180,1020L-60,900Z" fill="#96c661" stroke="#96c661" stroke-width="1.51"/><path d="M-180,900L-60,900L-60,780Z" fill="#b7dd8b" stroke="#b7dd8b" stroke-width="1.51"/><path d="M-180,780L-180,900L-60,780Z" fill="#c3e79a" stroke="#c3e79a" stroke-width="1.51"/><path d="M-180,780L-60,780L-60,660Z" fill="#bde0a6" stroke="#bde0a6" stroke-width="1.51"/><path d="M-180,660L-180,780L-60,660Z" fill="#b0d6a0" stroke="#b0d6a0" stroke-width="1.51"/><path d="M-180,660L-60,660L-60,540Z" fill="#9cc5a1" stroke="#9cc5a1" stroke-width="1.51"/><path d="M-180,540L-180,660L-60,540Z" fill="#8fbc9b" stroke="#8fbc9b" stroke-width="1.51"/><path d="M-180,540L-60,540L-60,420Z" fill="#85bb9b" stroke="#85bb9b" stroke-width="1.51"/><path d="M-180,420L-180,540L-60,420Z" fill="#82c094" stroke="#82c094" stroke-width="1.51"/><path d="M-180,420L-60,420L-60,300Z" fill="#83cf92" stroke="#83cf92" stroke-width="1.51"/><path d="M-180,300L-180,420L-60,300Z" fill="#7fd48b" stroke="#7fd48b" stroke-width="1.51"/><path d="M-180,300L-60,300L-60,180Z" fill="#83df88" stroke="#83df88" stroke-width="1.51"/><path d="M-180,180L-180,300L-60,180Z" fill="#87de7f" stroke="#87de7f" stroke-width="1.51"/><path d="M-180,180L-60,180L-60,60Z" fill="#96e079" stroke="#96e079" stroke-width="1.51"/><path d="M-180,60L-180,180L-60,60Z" fill="#99e070" stroke="#99e070" stroke-width="1.51"/><path d="M-180,60L-60,60L-60,-60Z" fill="#a7e26a" stroke="#a7e26a" stroke-width="1.51"/><path d="M-180,-60L-180,60L-60,-60Z" fill="#a0e05e" stroke="#a0e05e" stroke-width="1.51"/><path d="M-180,-60L-60,-60L-60,-180Z" fill="#9add55" stroke="#9add55" stroke-width="1.51"/><path d="M-180,-180L-180,-60L-60,-180Z" fill="#92db48" stroke="#92db48" stroke-width="1.51"/></svg>