<svg xmlns="http://www.w3.org/2000/svg" width="1920" height="1080"><path d="M1980,1260L2100,1260L2100,1140Z" fill="#0e8144" stroke="#0e8144" stroke-width="1.51"/><path d="M1980,1140L1980,1260L2100,1140Z" fill="#138b49" stroke="#138b49" stroke-width="1.51"/><path d="M1980,1140L2100,1140L2100,1020Z" fill="#29914c" stroke="#29914c" stroke-width="1.51"/><path d="M1980,1020L1980,1140L2100,1020Z" fill="#359a51" stroke="#359a51" stroke-width="1.51"/><path d="M1980,1020L2100,1020L2100,900Z" fill="#469e52" stroke="#469e52" stroke-width="1.51"/><path d="M1980,900L1980,1020L2100,900Z" fill="#52a655" stroke="#52a655" stroke-width="1.51"/><path d="M1980,900L2100,900L2100,780Z" fill="#62a955" stroke="#62a955" stroke-width="1.51"/><path d="M1980,780L1980,900L2100,780Z" fill="#6bb05b" stroke="#6bb05b" stroke-width="1.51"/><path d="M1980,780L2100,780L2100,660Z" fill="#77b260" stroke="#77b260" stroke-width="1.51"/><path d="M1980,660L1980,780L2100,660Z" fill="#80b866" stroke="#80b866" stroke-width="1.51"/><path d="M1980,660L2100,660L2100,540Z" fill="#87b971" stroke="#87b971" stroke-width="1.51"/><path d="M1980,540L1980,660L2100,540Z" fill="#8ebf79" stroke="#8ebf79" stroke-width="1.51"/><path d="M1980,540L2100,540L2100,420Z" fill="#91b977" stroke="#91b977" stroke-width="1.51"/><path d="M1980,420L1980,540L2100,420Z" fill="#95ba73" stroke="#95ba73" stroke-width="1.51"/><path d="M1980,420L2100,420L2100,300Z" fill="#93ae64" stroke="#93ae64" stroke-width="1.51"/><path d="M1980,300L1980,420L2100,300Z" fill="#97ac61" stroke="#97ac61" stroke-width="1.51"/><path d="M1980,300L2100,300L2100,180Z" fill="#979c54" stroke="#979c54" stroke-width="1.51"/><path d="M1980,180L1980,300L2100,180Z" fill="#9a9b52" stroke="#9a9b52" stroke-width="1.51"/><path d="M1980,180L2100,180L2100,60Z" fill="#998948" stroke="#998948" stroke-width="1.51"/><path d="M1980,60L1980,180L2100,60Z" fill="#9b8646" stroke="#9b8646" stroke-width="1.51"/><path d="M1980,60L2100,60L2100,-60Z" fill="#95763c" stroke="#95763c" stroke-width="1.51"/><path d="M1980,-60L1980,60L2100,-60Z" fill="#95743b" stroke="#95743b" stroke-width="1.51"/><path d="M1980,-60L2100,-60L2100,-180Z" fill="#8c6633" stroke="#8c6633" stroke-width="1.51"/><path d="M1980,-180L1980,-60L2100,-180Z" fill="#896635" stroke="#896635" stroke-width="1.51"/><path d="M1860,1260L1980,1260L1980,1140Z" fill="#158d4a" stroke="#158d4a" stroke-width="1.51"/><path d="M1860,1140L1860,1260L1980,1140Z" fill="#1e974f" stroke="#1e974f" stroke-width="1.51"/><path d="M1860,1140L1980,1140L1980,1020Z" fill="#2f9d53" stroke="#2f9d53" stroke-width="1.51"/><path d="M1860,1020L1860,1140L1980,1020Z" fill="#3da657" stroke="#3da657" stroke-width="1.51"/><path d="M1860,1020L1980,1020L1980,900Z" fill="#4cab59" stroke="#4cab59" stroke-width="1.51"/><path d="M1860,900L1860,1020L1980,900Z" fill="#5ab25c" stroke="#5ab25c" stroke-width="1.51"/><path d="M1860,900L1980,900L1980,780Z" fill="#68b65c" stroke="#68b65c" stroke-width="1.51"/><path d="M1860,780L1860,900L1980,780Z" fill="#73bc61" stroke="#73bc61" stroke-width="1.51"/><path d="M1860,780L1980,780L1980,660Z" fill="#7dbe67" stroke="#7dbe67" stroke-width="1.51"/><path d="M1860,660L1860,780L1980,660Z" fill="#88c46d" stroke="#88c46d" stroke-width="1.51"/><path d="M1860,660L1980,660L1980,540Z" fill="#8ec578" stroke="#8ec578" stroke-width="1.51"/><path d="M1860,540L1860,660L1980,540Z" fill="#96cb81" stroke="#96cb81" stroke-width="1.51"/><path d="M1860,540L1980,540L1980,420Z" fill="#99c67e" stroke="#99c67e" stroke-width="1.51"/><path d="M1860,420L1860,540L1980,420Z" fill="#9dc67a" stroke="#9dc67a" stroke-width="1.51"/><path d="M1860,420L1980,420L1980,300Z" fill="#9bbb6b" stroke="#9bbb6b" stroke-width="1.51"/><path d="M1860,300L1860,420L1980,300Z" fill="#a0b868" stroke="#a0b868" stroke-width="1.51"/><path d="M1860,300L1980,300L1980,180Z" fill="#9fa95b" stroke="#9fa95b" stroke-width="1.51"/><path d="M1860,180L1860,300L1980,180Z" fill="#a3a758" stroke="#a3a758" stroke-width="1.51"/><path d="M1860,180L1980,180L1980,60Z" fill="#a1954f" stroke="#a1954f" stroke-width="1.51"/><path d="M1860,60L1860,180L1980,60Z" fill="#a4924c" stroke="#a4924c" stroke-width="1.51"/><path d="M1860,60L1980,60L1980,-60Z" fill="#9e8243" stroke="#9e8243" stroke-width="1.51"/><path d="M1860,-60L1860,60L1980,-60Z" fill="#9f8041" stroke="#9f8041" stroke-width="1.51"/><path d="M1860,-60L1980,-60L1980,-180Z" fill="#957239" stroke="#957239" stroke-width="1.51"/><path d="M1860,-180L1860,-60L1980,-180Z" fill="#92713b" stroke="#92713b" stroke-width="1.51"/><path d="M1740,1260L1860,1260L1860,1140Z" fill="#2c964f" stroke="#2c964f" stroke-width="1.51"/><path d="M1740,1140L1740,1260L1860,1140Z" fill="#36a054" stroke="#36a054" stroke-width="1.51"/><path d="M1740,1140L1860,1140L1860,1020Z" fill="#40a758" stroke="#40a758" stroke-width="1.51"/><path d="M1740,1020L1740,1140L1860,1020Z" fill="#4faf5c" stroke="#4faf5c" stroke-width="1.51"/><path d="M1740,1020L1860,1020L1860,900Z" fill="#5ab45e" stroke="#5ab45e" stroke-width="1.51"/><path d="M1740,900L1740,1020L1860,900Z" fill="#69bb60" stroke="#69bb60" stroke-width="1.51"/><path d="M1740,900L1860,900L1860,780Z" fill="#75bf61" stroke="#75bf61" stroke-width="1.51"/><path d="M1740,780L1740,900L1860,780Z" fill="#81c566" stroke="#81c566" stroke-width="1.51"/><path d="M1740,780L1860,780L1860,660Z" fill="#8ac86d" stroke="#8ac86d" stroke-width="1.51"/><path d="M1740,660L1740,780L1860,660Z" fill="#96ce72" stroke="#96ce72" stroke-width="1.51"/><path d="M1740,660L1860,660L1860,540Z" fill="#9bcf7d" stroke="#9bcf7d" stroke-width="1.51"/><path d="M1740,540L1740,660L1860,540Z" fill="#a4d485" stroke="#a4d485" stroke-width="1.51"/><path d="M1740,540L1860,540L1860,420Z" fill="#a5d084" stroke="#a5d084" stroke-width="1.51"/><path d="M1740,420L1740,540L1860,420Z" fill="#abcf7f" stroke="#abcf7f" stroke-width="1.51"/><path d="M1740,420L1860,420L1860,300Z" fill="#a7c470" stroke="#a7c470" stroke-width="1.51"/><path d="M1740,300L1740,420L1860,300Z" fill="#adc16d" stroke="#adc16d" stroke-width="1.51"/><path d="M1740,300L1860,300L1860,180Z" fill="#abb260" stroke="#abb260" stroke-width="1.51"/><path d="M1740,180L1740,300L1860,180Z" fill="#b0af5d" stroke="#b0af5d" stroke-width="1.51"/><path d="M1740,180L1860,180L1860,60Z" fill="#ac9e54" stroke="#ac9e54" stroke-width="1.51"/><path d="M1740,60L1740,180L1860,60Z" fill="#b19a51" stroke="#b19a51" stroke-width="1.51"/><path d="M1740,60L1860,60L1860,-60Z" fill="#aa8b48" stroke="#aa8b48" stroke-width="1.51"/><path d="M1740,-60L1740,60L1860,-60Z" fill="#ab8845" stroke="#ab8845" stroke-width="1.51"/><path d="M1740,-60L1860,-60L1860,-180Z" fill="#a07a3e" stroke="#a07a3e" stroke-width="1.51"/><path d="M1740,-180L1740,-60L1860,-180Z" fill="#9e793f" stroke="#9e793f" stroke-width="1.51"/><path d="M1620,1260L1740,1260L1740,1140Z" fill="#3fa054" stroke="#3fa054" stroke-width="1.51"/><path d="M1620,1140L1620,1260L1740,1140Z" fill="#48a958" stroke="#48a958" stroke-width="1.51"/><path d="M1620,1140L1740,1140L1740,1020Z" fill="#51b05c" stroke="#51b05c" stroke-width="1.51"/><path d="M1620,1020L1620,1140L1740,1020Z" fill="#5fb860" stroke="#5fb860" stroke-width="1.51"/><path d="M1620,1020L1740,1020L1740,900Z" fill="#6abe62" stroke="#6abe62" stroke-width="1.51"/><path d="M1620,900L1620,1020L1740,900Z" fill="#78c465" stroke="#78c465" stroke-width="1.51"/><path d="M1620,900L1740,900L1740,780Z" fill="#83c966" stroke="#83c966" stroke-width="1.51"/><path d="M1620,780L1620,900L1740,780Z" fill="#90cf6a" stroke="#90cf6a" stroke-width="1.51"/><path d="M1620,780L1740,780L1740,660Z" fill="#98d271" stroke="#98d271" stroke-width="1.51"/><path d="M1620,660L1620,780L1740,660Z" fill="#a4d777" stroke="#a4d777" stroke-width="1.51"/><path d="M1620,660L1740,660L1740,540Z" fill="#a9d982" stroke="#a9d982" stroke-width="1.51"/><path d="M1620,540L1620,660L1740,540Z" fill="#b2dd8a" stroke="#b2dd8a" stroke-width="1.51"/><path d="M1620,540L1740,540L1740,420Z" fill="#b3d989" stroke="#b3d989" stroke-width="1.51"/><path d="M1620,420L1620,540L1740,420Z" fill="#b8d883" stroke="#b8d883" stroke-width="1.51"/><path d="M1620,420L1740,420L1740,300Z" fill="#b4ce75" stroke="#b4ce75" stroke-width="1.51"/><path d="M1620,300L1620,420L1740,300Z" fill="#baca71" stroke="#baca71" stroke-width="1.51"/><path d="M1620,300L1740,300L1740,180Z" fill="#b8bc65" stroke="#b8bc65" stroke-width="1.51"/><path d="M1620,180L1620,300L1740,180Z" fill="#bdb861" stroke="#bdb861" stroke-width="1.51"/><path d="M1620,180L1740,180L1740,60Z" fill="#b9a758" stroke="#b9a758" stroke-width="1.51"/><path d="M1620,60L1620,180L1740,60Z" fill="#bea255" stroke="#bea255" stroke-width="1.51"/><path d="M1620,60L1740,60L1740,-60Z" fill="#b6944c" stroke="#b6944c" stroke-width="1.51"/><path d="M1620,-60L1620,60L1740,-60Z" fill="#b8904a" stroke="#b8904a" stroke-width="1.51"/><path d="M1620,-60L1740,-60L1740,-180Z" fill="#ad8342" stroke="#ad8342" stroke-width="1.51"/><path d="M1620,-180L1620,-60L1740,-180Z" fill="#aa8143" stroke="#aa8143" stroke-width="1.51"/><path d="M1500,1260L1620,1260L1620,1140Z" fill="#52a756" stroke="#52a756" stroke-width="1.51"/><path d="M1500,1140L1500,1260L1620,1140Z" fill="#5bb05a" stroke="#5bb05a" stroke-width="1.51"/><path d="M1500,1140L1620,1140L1620,1020Z" fill="#63b85f" stroke="#63b85f" stroke-width="1.51"/><path d="M1500,1020L1500,1140L1620,1020Z" fill="#70bf62" stroke="#70bf62" stroke-width="1.51"/><path d="M1500,1020L1620,1020L1620,900Z" fill="#7ac665" stroke="#7ac665" stroke-width="1.51"/><path d="M1500,900L1500,1020L1620,900Z" fill="#88cb67" stroke="#88cb67" stroke-width="1.51"/><path d="M1500,900L1620,900L1620,780Z" fill="#93d168" stroke="#93d168" stroke-width="1.51"/><path d="M1500,780L1500,900L1620,780Z" fill="#9fd66c" stroke="#9fd66c" stroke-width="1.51"/><path d="M1500,780L1620,780L1620,660Z" fill="#a7d974" stroke="#a7d974" stroke-width="1.51"/><path d="M1500,660L1500,780L1620,660Z" fill="#b2de78" stroke="#b2de78" stroke-width="1.51"/><path d="M1500,660L1620,660L1620,540Z" fill="#b8e085" stroke="#b8e085" stroke-width="1.51"/><path d="M1500,540L1500,660L1620,540Z" fill="#c1e48c" stroke="#c1e48c" stroke-width="1.51"/><path d="M1500,540L1620,540L1620,420Z" fill="#c2e08c" stroke="#c2e08c" stroke-width="1.51"/><path d="M1500,420L1500,540L1620,420Z" fill="#c7df85" stroke="#c7df85" stroke-width="1.51"/><path d="M1500,420L1620,420L1620,300Z" fill="#c3d578" stroke="#c3d578" stroke-width="1.51"/><path d="M1500,300L1500,420L1620,300Z" fill="#c8d173" stroke="#c8d173" stroke-width="1.51"/><path d="M1500,300L1620,300L1620,180Z" fill="#c6c367" stroke="#c6c367" stroke-width="1.51"/><path d="M1500,180L1500,300L1620,180Z" fill="#cabe63" stroke="#cabe63" stroke-width="1.51"/><path d="M1500,180L1620,180L1620,60Z" fill="#c7ae5a" stroke="#c7ae5a" stroke-width="1.51"/><path d="M1500,60L1500,180L1620,60Z" fill="#cba957" stroke="#cba957" stroke-width="1.51"/><path d="M1500,60L1620,60L1620,-60Z" fill="#c39a4e" stroke="#c39a4e" stroke-width="1.51"/><path d="M1500,-60L1500,60L1620,-60Z" fill="#c4964b" stroke="#c4964b" stroke-width="1.51"/><path d="M1500,-60L1620,-60L1620,-180Z" fill="#b98944" stroke="#b98944" stroke-width="1.51"/><path d="M1500,-180L1500,-60L1620,-180Z" fill="#b78745" stroke="#b78745" stroke-width="1.51"/><path d="M1380,1260L1500,1260L1500,1140Z" fill="#63ae58" stroke="#63ae58" stroke-width="1.51"/><path d="M1380,1140L1380,1260L1500,1140Z" fill="#6cb75d" stroke="#6cb75d" stroke-width="1.51"/><path d="M1380,1140L1500,1140L1500,1020Z" fill="#74bf61" stroke="#74bf61" stroke-width="1.51"/><path d="M1380,1020L1380,1140L1500,1020Z" fill="#80c665" stroke="#80c665" stroke-width="1.51"/><path d="M1380,1020L1500,1020L1500,900Z" fill="#8acd67" stroke="#8acd67" stroke-width="1.51"/><path d="M1380,900L1380,1020L1500,900Z" fill="#97d269" stroke="#97d269" stroke-width="1.51"/><path d="M1380,900L1500,900L1500,780Z" fill="#a2d869" stroke="#a2d869" stroke-width="1.51"/><path d="M1380,780L1380,900L1500,780Z" fill="#aedd6f" stroke="#aedd6f" stroke-width="1.51"/><path d="M1380,780L1500,780L1500,660Z" fill="#b6e075" stroke="#b6e075" stroke-width="1.51"/><path d="M1380,660L1380,780L1500,660Z" fill="#c1e57b" stroke="#c1e57b" stroke-width="1.51"/><path d="M1380,660L1500,660L1500,540Z" fill="#c7e786" stroke="#c7e786" stroke-width="1.51"/><path d="M1380,540L1380,660L1500,540Z" fill="#d0eb90" stroke="#d0eb90" stroke-width="1.51"/><path d="M1380,540L1500,540L1500,420Z" fill="#d1e78d" stroke="#d1e78d" stroke-width="1.51"/><path d="M1380,420L1380,540L1500,420Z" fill="#d5e589" stroke="#d5e589" stroke-width="1.51"/><path d="M1380,420L1500,420L1500,300Z" fill="#d1dc79" stroke="#d1dc79" stroke-width="1.51"/><path d="M1380,300L1380,420L1500,300Z" fill="#d6d776" stroke="#d6d776" stroke-width="1.51"/><path d="M1380,300L1500,300L1500,180Z" fill="#d3c969" stroke="#d3c969" stroke-width="1.51"/><path d="M1380,180L1380,300L1500,180Z" fill="#d8c566" stroke="#d8c566" stroke-width="1.51"/><path d="M1380,180L1500,180L1500,60Z" fill="#d4b55c" stroke="#d4b55c" stroke-width="1.51"/><path d="M1380,60L1380,180L1500,60Z" fill="#d8af5a" stroke="#d8af5a" stroke-width="1.51"/><path d="M1380,60L1500,60L1500,-60Z" fill="#d0a050" stroke="#d0a050" stroke-width="1.51"/><path d="M1380,-60L1380,60L1500,-60Z" fill="#d19c4e" stroke="#d19c4e" stroke-width="1.51"/><path d="M1380,-60L1500,-60L1500,-180Z" fill="#c68f46" stroke="#c68f46" stroke-width="1.51"/><path d="M1380,-180L1380,-60L1500,-180Z" fill="#c48c47" stroke="#c48c47" stroke-width="1.51"/><path d="M1260,1260L1380,1260L1380,1140Z" fill="#71b35f" stroke="#71b35f" stroke-width="1.51"/><path d="M1260,1140L1260,1260L1380,1140Z" fill="#79bc64" stroke="#79bc64" stroke-width="1.51"/><path d="M1260,1140L1380,1140L1380,1020Z" fill="#82c468" stroke="#82c468" stroke-width="1.51"/><path d="M1260,1020L1260,1140L1380,1020Z" fill="#8dcc6d" stroke="#8dcc6d" stroke-width="1.51"/><path d="M1260,1020L1380,1020L1380,900Z" fill="#97d26e" stroke="#97d26e" stroke-width="1.51"/><path d="M1260,900L1260,1020L1380,900Z" fill="#a4d871" stroke="#a4d871" stroke-width="1.51"/><path d="M1260,900L1380,900L1380,780Z" fill="#afdd71" stroke="#afdd71" stroke-width="1.51"/><path d="M1260,780L1260,900L1380,780Z" fill="#bbe277" stroke="#bbe277" stroke-width="1.51"/><path d="M1260,780L1380,780L1380,660Z" fill="#c3e67d" stroke="#c3e67d" stroke-width="1.51"/><path d="M1260,660L1260,780L1380,660Z" fill="#ceea83" stroke="#ceea83" stroke-width="1.51"/><path d="M1260,660L1380,660L1380,540Z" fill="#d4ed8e" stroke="#d4ed8e" stroke-width="1.51"/><path d="M1260,540L1260,660L1380,540Z" fill="#ddf198" stroke="#ddf198" stroke-width="1.51"/><path d="M1260,540L1380,540L1380,420Z" fill="#dded95" stroke="#dded95" stroke-width="1.51"/><path d="M1260,420L1260,540L1380,420Z" fill="#e2eb91" stroke="#e2eb91" stroke-width="1.51"/><path d="M1260,420L1380,420L1380,300Z" fill="#dee181" stroke="#dee181" stroke-width="1.51"/><path d="M1260,300L1260,420L1380,300Z" fill="#e2dd7e" stroke="#e2dd7e" stroke-width="1.51"/><path d="M1260,300L1380,300L1380,180Z" fill="#e0ce70" stroke="#e0ce70" stroke-width="1.51"/><path d="M1260,180L1260,300L1380,180Z" fill="#e4ca6e" stroke="#e4ca6e" stroke-width="1.51"/><path d="M1260,180L1380,180L1380,60Z" fill="#e0b963" stroke="#e0b963" stroke-width="1.51"/><path d="M1260,60L1260,180L1380,60Z" fill="#e4b362" stroke="#e4b362" stroke-width="1.51"/><path d="M1260,60L1380,60L1380,-60Z" fill="#dca557" stroke="#dca557" stroke-width="1.51"/><path d="M1260,-60L1260,60L1380,-60Z" fill="#dda056" stroke="#dda056" stroke-width="1.51"/><path d="M1260,-60L1380,-60L1380,-180Z" fill="#d2934d" stroke="#d2934d" stroke-width="1.51"/><path d="M1260,-180L1260,-60L1380,-180Z" fill="#cf914f" stroke="#cf914f" stroke-width="1.51"/><path d="M1140,1260L1260,1260L1260,1140Z" fill="#7fb967" stroke="#7fb967" stroke-width="1.51"/><path d="M1140,1140L1140,1260L1260,1140Z" fill="#86c16d" stroke="#86c16d" stroke-width="1.51"/><path d="M1140,1140L1260,1140L1260,1020Z" fill="#8fca6f" stroke="#8fca6f" stroke-width="1.51"/><path d="M1140,1020L1140,1140L1260,1020Z" fill="#9ad175" stroke="#9ad175" stroke-width="1.51"/><path d="M1140,1020L1260,1020L1260,900Z" fill="#a5d876" stroke="#a5d876" stroke-width="1.51"/><path d="M1140,900L1140,1020L1260,900Z" fill="#b0dd7a" stroke="#b0dd7a" stroke-width="1.51"/><path d="M1140,900L1260,900L1260,780Z" fill="#bce379" stroke="#bce379" stroke-width="1.51"/><path d="M1140,780L1140,900L1260,780Z" fill="#c7e780" stroke="#c7e780" stroke-width="1.51"/><path d="M1140,780L1260,780L1260,660Z" fill="#d0eb85" stroke="#d0eb85" stroke-width="1.51"/><path d="M1140,660L1140,780L1260,660Z" fill="#daef8d" stroke="#daef8d" stroke-width="1.51"/><path d="M1140,660L1260,660L1260,540Z" fill="#e1f296" stroke="#e1f296" stroke-width="1.51"/><path d="M1140,540L1140,660L1260,540Z" fill="#e9f6a1" stroke="#e9f6a1" stroke-width="1.51"/><path d="M1140,540L1260,540L1260,420Z" fill="#eaf29d" stroke="#eaf29d" stroke-width="1.51"/><path d="M1140,420L1140,540L1260,420Z" fill="#eef09a" stroke="#eef09a" stroke-width="1.51"/><path d="M1140,420L1260,420L1260,300Z" fill="#eae689" stroke="#eae689" stroke-width="1.51"/><path d="M1140,300L1140,420L1260,300Z" fill="#eee187" stroke="#eee187" stroke-width="1.51"/><path d="M1140,300L1260,300L1260,180Z" fill="#ecd378" stroke="#ecd378" stroke-width="1.51"/><path d="M1140,180L1140,300L1260,180Z" fill="#f0ce77" stroke="#f0ce77" stroke-width="1.51"/><path d="M1140,180L1260,180L1260,60Z" fill="#ecbe6b" stroke="#ecbe6b" stroke-width="1.51"/><path d="M1140,60L1140,180L1260,60Z" fill="#efb86a" stroke="#efb86a" stroke-width="1.51"/><path d="M1140,60L1260,60L1260,-60Z" fill="#e8a95f" stroke="#e8a95f" stroke-width="1.51"/><path d="M1140,-60L1140,60L1260,-60Z" fill="#e8a45e" stroke="#e8a45e" stroke-width="1.51"/><path d="M1140,-60L1260,-60L1260,-180Z" fill="#de9754" stroke="#de9754" stroke-width="1.51"/><path d="M1140,-180L1140,-60L1260,-180Z" fill="#da9458" stroke="#da9458" stroke-width="1.51"/><path d="M1020,1260L1140,1260L1140,1140Z" fill="#89bd72" stroke="#89bd72" stroke-width="1.51"/><path d="M1020,1140L1020,1260L1140,1140Z" fill="#8fc579" stroke="#8fc579" stroke-width="1.51"/><path d="M1020,1140L1140,1140L1140,1020Z" fill="#99cf7c" stroke="#99cf7c" stroke-width="1.51"/><path d="M1020,1020L1020,1140L1140,1020Z" fill="#a3d582" stroke="#a3d582" stroke-width="1.51"/><path d="M1020,1020L1140,1020L1140,900Z" fill="#afdc82" stroke="#afdc82" stroke-width="1.51"/><path d="M1020,900L1020,1020L1140,900Z" fill="#bae187" stroke="#bae187" stroke-width="1.51"/><path d="M1020,900L1140,900L1140,780Z" fill="#c6e785" stroke="#c6e785" stroke-width="1.51"/><path d="M1020,780L1020,900L1140,780Z" fill="#d0eb8d" stroke="#d0eb8d" stroke-width="1.51"/><path d="M1020,780L1140,780L1140,660Z" fill="#daf092" stroke="#daf092" stroke-width="1.51"/><path d="M1020,660L1020,780L1140,660Z" fill="#e4f39a" stroke="#e4f39a" stroke-width="1.51"/><path d="M1020,660L1140,660L1140,540Z" fill="#ebf7a3" stroke="#ebf7a3" stroke-width="1.51"/><path d="M1020,540L1020,660L1140,540Z" fill="#f2faae" stroke="#f2faae" stroke-width="1.51"/><path d="M1020,540L1140,540L1140,420Z" fill="#f4f7aa" stroke="#f4f7aa" stroke-width="1.51"/><path d="M1020,420L1020,540L1140,420Z" fill="#f7f4a6" stroke="#f7f4a6" stroke-width="1.51"/><path d="M1020,420L1140,420L1140,300Z" fill="#f4eb95" stroke="#f4eb95" stroke-width="1.51"/><path d="M1020,300L1020,420L1140,300Z" fill="#f8e594" stroke="#f8e594" stroke-width="1.51"/><path d="M1020,300L1140,300L1140,180Z" fill="#f6d785" stroke="#f6d785" stroke-width="1.51"/><path d="M1020,180L1020,300L1140,180Z" fill="#f9d284" stroke="#f9d284" stroke-width="1.51"/><path d="M1020,180L1140,180L1140,60Z" fill="#f6c277" stroke="#f6c277" stroke-width="1.51"/><path d="M1020,60L1020,180L1140,60Z" fill="#f8bb77" stroke="#f8bb77" stroke-width="1.51"/><path d="M1020,60L1140,60L1140,-60Z" fill="#f2ad6b" stroke="#f2ad6b" stroke-width="1.51"/><path d="M1020,-60L1020,60L1140,-60Z" fill="#f1a76b" stroke="#f1a76b" stroke-width="1.51"/><path d="M1020,-60L1140,-60L1140,-180Z" fill="#e79b60" stroke="#e79b60" stroke-width="1.51"/><path d="M1020,-180L1020,-60L1140,-180Z" fill="#e39764" stroke="#e39764" stroke-width="1.51"/><path d="M900,1260L1020,1260L1020,1140Z" fill="#92c27f" stroke="#92c27f" stroke-width="1.51"/><path d="M900,1140L900,1260L1020,1140Z" fill="#98c882" stroke="#98c882" stroke-width="1.51"/><path d="M900,1140L1020,1140L1020,1020Z" fill="#a3d388" stroke="#a3d388" stroke-width="1.51"/><path d="M900,1020L900,1140L1020,1020Z" fill="#acd78b" stroke="#acd78b" stroke-width="1.51"/><path d="M900,1020L1020,1020L1020,900Z" fill="#b9e08f" stroke="#b9e08f" stroke-width="1.51"/><path d="M900,900L900,1020L1020,900Z" fill="#c2e390" stroke="#c2e390" stroke-width="1.51"/><path d="M900,900L1020,900L1020,780Z" fill="#d0eb92" stroke="#d0eb92" stroke-width="1.51"/><path d="M900,780L900,900L1020,780Z" fill="#d8ed96" stroke="#d8ed96" stroke-width="1.51"/><path d="M900,780L1020,780L1020,660Z" fill="#e4f49f" stroke="#e4f49f" stroke-width="1.51"/><path d="M900,660L900,780L1020,660Z" fill="#ecf5a3" stroke="#ecf5a3" stroke-width="1.51"/><path d="M900,660L1020,660L1020,540Z" fill="#f4fbb0" stroke="#f4fbb0" stroke-width="1.51"/><path d="M900,540L900,660L1020,540Z" fill="#fafcb7" stroke="#fafcb7" stroke-width="1.51"/><path d="M900,540L1020,540L1020,420Z" fill="#fefbb6" stroke="#fefbb6" stroke-width="1.51"/><path d="M900,420L900,540L1020,420Z" fill="#fff5af" stroke="#fff5af" stroke-width="1.51"/><path d="M900,420L1020,420L1020,300Z" fill="#feeea2" stroke="#feeea2" stroke-width="1.51"/><path d="M900,300L900,420L1020,300Z" fill="#ffe79d" stroke="#ffe79d" stroke-width="1.51"/><path d="M900,300L1020,300L1020,180Z" fill="#ffdb92" stroke="#ffdb92" stroke-width="1.51"/><path d="M900,180L900,300L1020,180Z" fill="#ffd48c" stroke="#ffd48c" stroke-width="1.51"/><path d="M900,180L1020,180L1020,60Z" fill="#ffc584" stroke="#ffc584" stroke-width="1.51"/><path d="M900,60L900,180L1020,60Z" fill="#ffbc80" stroke="#ffbc80" stroke-width="1.51"/><path d="M900,60L1020,60L1020,-60Z" fill="#fbb077" stroke="#fbb077" stroke-width="1.51"/><path d="M900,-60L900,60L1020,-60Z" fill="#f9a873" stroke="#f9a873" stroke-width="1.51"/><path d="M900,-60L1020,-60L1020,-180Z" fill="#f19e6d" stroke="#f19e6d" stroke-width="1.51"/><path d="M900,-180L900,-60L1020,-180Z" fill="#eb996c" stroke="#eb996c" stroke-width="1.51"/><path d="M780,1260L900,1260L900,1140Z" fill="#95bc76" stroke="#95bc76" stroke-width="1.51"/><path d="M780,1140L780,1260L900,1140Z" fill="#99c176" stroke="#99c176" stroke-width="1.51"/><path d="M780,1140L900,1140L900,1020Z" fill="#a6cd7f" stroke="#a6cd7f" stroke-width="1.51"/><path d="M780,1020L780,1140L900,1020Z" fill="#add07e" stroke="#add07e" stroke-width="1.51"/><path d="M780,1020L900,1020L900,900Z" fill="#bbdb86" stroke="#bbdb86" stroke-width="1.51"/><path d="M780,900L780,1020L900,900Z" fill="#c3dc83" stroke="#c3dc83" stroke-width="1.51"/><path d="M780,900L900,900L900,780Z" fill="#d2e58a" stroke="#d2e58a" stroke-width="1.51"/><path d="M780,780L780,900L900,780Z" fill="#d9e689" stroke="#d9e689" stroke-width="1.51"/><path d="M780,780L900,780L900,660Z" fill="#e5ee96" stroke="#e5ee96" stroke-width="1.51"/><path d="M780,660L780,780L900,660Z" fill="#ecee96" stroke="#ecee96" stroke-width="1.51"/><path d="M780,660L900,660L900,540Z" fill="#f6f5a7" stroke="#f6f5a7" stroke-width="1.51"/><path d="M780,540L780,660L900,540Z" fill="#faf4a9" stroke="#faf4a9" stroke-width="1.51"/><path d="M780,540L900,540L900,420Z" fill="#fff4ad" stroke="#fff4ad" stroke-width="1.51"/><path d="M780,420L780,540L900,420Z" fill="#ffeea2" stroke="#ffeea2" stroke-width="1.51"/><path d="M780,420L900,420L900,300Z" fill="#ffe899" stroke="#ffe899" stroke-width="1.51"/><path d="M780,300L780,420L900,300Z" fill="#ffdf90" stroke="#ffdf90" stroke-width="1.51"/><path d="M780,300L900,300L900,180Z" fill="#ffd589" stroke="#ffd589" stroke-width="1.51"/><path d="M780,180L780,300L900,180Z" fill="#ffcc80" stroke="#ffcc80" stroke-width="1.51"/><path d="M780,180L900,180L900,60Z" fill="#ffbf7c" stroke="#ffbf7c" stroke-width="1.51"/><path d="M780,60L780,180L900,60Z" fill="#feb573" stroke="#feb573" stroke-width="1.51"/><path d="M780,60L900,60L900,-60Z" fill="#fbaa6f" stroke="#fbaa6f" stroke-width="1.51"/><path d="M780,-60L780,60L900,-60Z" fill="#f7a167" stroke="#f7a167" stroke-width="1.51"/><path d="M780,-60L900,-60L900,-180Z" fill="#f09864" stroke="#f09864" stroke-width="1.51"/><path d="M780,-180L780,-60L900,-180Z" fill="#e99160" stroke="#e99160" stroke-width="1.51"/><path d="M660,1260L780,1260L780,1140Z" fill="#96b56a" stroke="#96b56a" stroke-width="1.51"/><path d="M660,1140L660,1260L780,1140Z" fill="#9bb969" stroke="#9bb969" stroke-width="1.51"/><path d="M660,1140L780,1140L780,1020Z" fill="#a7c673" stroke="#a7c673" stroke-width="1.51"/><path d="M660,1020L660,1140L780,1020Z" fill="#aec872" stroke="#aec872" stroke-width="1.51"/><path d="M660,1020L780,1020L780,900Z" fill="#bbd379" stroke="#bbd379" stroke-width="1.51"/><path d="M660,900L660,1020L780,900Z" fill="#c3d476" stroke="#c3d476" stroke-width="1.51"/><path d="M660,900L780,900L780,780Z" fill="#d2de7c" stroke="#d2de7c" stroke-width="1.51"/><path d="M660,780L660,900L780,780Z" fill="#d9de7c" stroke="#d9de7c" stroke-width="1.51"/><path d="M660,780L780,780L780,660Z" fill="#e5e689" stroke="#e5e689" stroke-width="1.51"/><path d="M660,660L660,780L780,660Z" fill="#ece588" stroke="#ece588" stroke-width="1.51"/><path d="M660,660L780,660L780,540Z" fill="#f5ed99" stroke="#f5ed99" stroke-width="1.51"/><path d="M660,540L660,660L780,540Z" fill="#faec9c" stroke="#faec9c" stroke-width="1.51"/><path d="M660,540L780,540L780,420Z" fill="#ffeda0" stroke="#ffeda0" stroke-width="1.51"/><path d="M660,420L660,540L780,420Z" fill="#ffe595" stroke="#ffe595" stroke-width="1.51"/><path d="M660,420L780,420L780,300Z" fill="#fee18c" stroke="#fee18c" stroke-width="1.51"/><path d="M660,300L660,420L780,300Z" fill="#fed783" stroke="#fed783" stroke-width="1.51"/><path d="M660,300L780,300L780,180Z" fill="#ffce7c" stroke="#ffce7c" stroke-width="1.51"/><path d="M660,180L660,300L780,180Z" fill="#fec473" stroke="#fec473" stroke-width="1.51"/><path d="M660,180L780,180L780,60Z" fill="#feb86f" stroke="#feb86f" stroke-width="1.51"/><path d="M660,60L660,180L780,60Z" fill="#fdac67" stroke="#fdac67" stroke-width="1.51"/><path d="M660,60L780,60L780,-60Z" fill="#f9a262" stroke="#f9a262" stroke-width="1.51"/><path d="M660,-60L660,60L780,-60Z" fill="#f5985b" stroke="#f5985b" stroke-width="1.51"/><path d="M660,-60L780,-60L780,-180Z" fill="#ee9058" stroke="#ee9058" stroke-width="1.51"/><path d="M660,-180L660,-60L780,-180Z" fill="#e68854" stroke="#e68854" stroke-width="1.51"/><path d="M540,1260L660,1260L660,1140Z" fill="#98aa5f" stroke="#98aa5f" stroke-width="1.51"/><path d="M540,1140L540,1260L660,1140Z" fill="#9dad5f" stroke="#9dad5f" stroke-width="1.51"/><path d="M540,1140L660,1140L660,1020Z" fill="#a9bb68" stroke="#a9bb68" stroke-width="1.51"/><path d="M540,1020L540,1140L660,1020Z" fill="#b0bc67" stroke="#b0bc67" stroke-width="1.51"/><path d="M540,1020L660,1020L660,900Z" fill="#bdc86e" stroke="#bdc86e" stroke-width="1.51"/><path d="M540,900L540,1020L660,900Z" fill="#c5c86c" stroke="#c5c86c" stroke-width="1.51"/><path d="M540,900L660,900L660,780Z" fill="#d3d371" stroke="#d3d371" stroke-width="1.51"/><path d="M540,780L540,900L660,780Z" fill="#dad271" stroke="#dad271" stroke-width="1.51"/><path d="M540,780L660,780L660,660Z" fill="#e6db7d" stroke="#e6db7d" stroke-width="1.51"/><path d="M540,660L540,780L660,660Z" fill="#edd97e" stroke="#edd97e" stroke-width="1.51"/><path d="M540,660L660,660L660,540Z" fill="#f6e18e" stroke="#f6e18e" stroke-width="1.51"/><path d="M540,540L540,660L660,540Z" fill="#fbdf92" stroke="#fbdf92" stroke-width="1.51"/><path d="M540,540L660,540L660,420Z" fill="#ffe195" stroke="#ffe195" stroke-width="1.51"/><path d="M540,420L540,540L660,420Z" fill="#ffd98b" stroke="#ffd98b" stroke-width="1.51"/><path d="M540,420L660,420L660,300Z" fill="#fed581" stroke="#fed581" stroke-width="1.51"/><path d="M540,300L540,420L660,300Z" fill="#fecb78" stroke="#fecb78" stroke-width="1.51"/><path d="M540,300L660,300L660,180Z" fill="#fec271" stroke="#fec271" stroke-width="1.51"/><path d="M540,180L540,300L660,180Z" fill="#feb768" stroke="#feb768" stroke-width="1.51"/><path d="M540,180L660,180L660,60Z" fill="#fdac64" stroke="#fdac64" stroke-width="1.51"/><path d="M540,60L540,180L660,60Z" fill="#fba05d" stroke="#fba05d" stroke-width="1.51"/><path d="M540,60L660,60L660,-60Z" fill="#f79658" stroke="#f79658" stroke-width="1.51"/><path d="M540,-60L540,60L660,-60Z" fill="#f38b51" stroke="#f38b51" stroke-width="1.51"/><path d="M540,-60L660,-60L660,-180Z" fill="#ec844e" stroke="#ec844e" stroke-width="1.51"/><path d="M540,-180L540,-60L660,-180Z" fill="#e57b4a" stroke="#e57b4a" stroke-width="1.51"/><path d="M420,1260L540,1260L540,1140Z" fill="#9a9f55" stroke="#9a9f55" stroke-width="1.51"/><path d="M420,1140L420,1260L540,1140Z" fill="#9fa255" stroke="#9fa255" stroke-width="1.51"/><path d="M420,1140L540,1140L540,1020Z" fill="#abb05e" stroke="#abb05e" stroke-width="1.51"/><path d="M420,1020L420,1140L540,1020Z" fill="#b2b05d" stroke="#b2b05d" stroke-width="1.51"/><path d="M420,1020L540,1020L540,900Z" fill="#bfbd64" stroke="#bfbd64" stroke-width="1.51"/><path d="M420,900L420,1020L540,900Z" fill="#c7bc62" stroke="#c7bc62" stroke-width="1.51"/><path d="M420,900L540,900L540,780Z" fill="#d4c767" stroke="#d4c767" stroke-width="1.51"/><path d="M420,780L420,900L540,780Z" fill="#dbc567" stroke="#dbc567" stroke-width="1.51"/><path d="M420,780L540,780L540,660Z" fill="#e7cf73" stroke="#e7cf73" stroke-width="1.51"/><path d="M420,660L420,780L540,660Z" fill="#eecd74" stroke="#eecd74" stroke-width="1.51"/><path d="M420,660L540,660L540,540Z" fill="#f7d584" stroke="#f7d584" stroke-width="1.51"/><path d="M420,540L420,660L540,540Z" fill="#fcd287" stroke="#fcd287" stroke-width="1.51"/><path d="M420,540L540,540L540,420Z" fill="#ffd58b" stroke="#ffd58b" stroke-width="1.51"/><path d="M420,420L420,540L540,420Z" fill="#ffcc81" stroke="#ffcc81" stroke-width="1.51"/><path d="M420,420L540,420L540,300Z" fill="#fec977" stroke="#fec977" stroke-width="1.51"/><path d="M420,300L420,420L540,300Z" fill="#febe6e" stroke="#febe6e" stroke-width="1.51"/><path d="M420,300L540,300L540,180Z" fill="#feb566" stroke="#feb566" stroke-width="1.51"/><path d="M420,180L420,300L540,180Z" fill="#fdaa5e" stroke="#fdaa5e" stroke-width="1.51"/><path d="M420,180L540,180L540,60Z" fill="#fb9f5a" stroke="#fb9f5a" stroke-width="1.51"/><path d="M420,60L420,180L540,60Z" fill="#fa9253" stroke="#fa9253" stroke-width="1.51"/><path d="M420,60L540,60L540,-60Z" fill="#f5894e" stroke="#f5894e" stroke-width="1.51"/><path d="M420,-60L420,60L540,-60Z" fill="#f17d47" stroke="#f17d47" stroke-width="1.51"/><path d="M420,-60L540,-60L540,-180Z" fill="#ea7644" stroke="#ea7644" stroke-width="1.51"/><path d="M420,-180L420,-60L540,-180Z" fill="#e36d41" stroke="#e36d41" stroke-width="1.51"/><path d="M300,1260L420,1260L420,1140Z" fill="#9c924d" stroke="#9c924d" stroke-width="1.51"/><path d="M300,1140L300,1260L420,1140Z" fill="#a1944e" stroke="#a1944e" stroke-width="1.51"/><path d="M300,1140L420,1140L420,1020Z" fill="#aca256" stroke="#aca256" stroke-width="1.51"/><path d="M300,1020L300,1140L420,1020Z" fill="#b3a256" stroke="#b3a256" stroke-width="1.51"/><path d="M300,1020L420,1020L420,900Z" fill="#c0af5c" stroke="#c0af5c" stroke-width="1.51"/><path d="M300,900L300,1020L420,900Z" fill="#c7ad5a" stroke="#c7ad5a" stroke-width="1.51"/><path d="M300,900L420,900L420,780Z" fill="#d5b95f" stroke="#d5b95f" stroke-width="1.51"/><path d="M300,780L300,900L420,780Z" fill="#dcb75f" stroke="#dcb75f" stroke-width="1.51"/><path d="M300,780L420,780L420,660Z" fill="#e7c06a" stroke="#e7c06a" stroke-width="1.51"/><path d="M300,660L300,780L420,660Z" fill="#eebe6c" stroke="#eebe6c" stroke-width="1.51"/><path d="M300,660L420,660L420,540Z" fill="#f7c77b" stroke="#f7c77b" stroke-width="1.51"/><path d="M300,540L300,660L420,540Z" fill="#fcc37f" stroke="#fcc37f" stroke-width="1.51"/><path d="M300,540L420,540L420,420Z" fill="#ffc682" stroke="#ffc682" stroke-width="1.51"/><path d="M300,420L300,540L420,420Z" fill="#ffbd79" stroke="#ffbd79" stroke-width="1.51"/><path d="M300,420L420,420L420,300Z" fill="#feba6f" stroke="#feba6f" stroke-width="1.51"/><path d="M300,300L300,420L420,300Z" fill="#fdae67" stroke="#fdae67" stroke-width="1.51"/><path d="M300,300L420,300L420,180Z" fill="#fca65e" stroke="#fca65e" stroke-width="1.51"/><path d="M300,180L300,300L420,180Z" fill="#fb9a57" stroke="#fb9a57" stroke-width="1.51"/><path d="M300,180L420,180L420,60Z" fill="#fa9052" stroke="#fa9052" stroke-width="1.51"/><path d="M300,60L300,180L420,60Z" fill="#f8824b" stroke="#f8824b" stroke-width="1.51"/><path d="M300,60L420,60L420,-60Z" fill="#f37946" stroke="#f37946" stroke-width="1.51"/><path d="M300,-60L300,60L420,-60Z" fill="#ee6c40" stroke="#ee6c40" stroke-width="1.51"/><path d="M300,-60L420,-60L420,-180Z" fill="#e7663d" stroke="#e7663d" stroke-width="1.51"/><path d="M300,-180L300,-60L420,-180Z" fill="#e05b3a" stroke="#e05b3a" stroke-width="1.51"/><path d="M180,1260L300,1260L300,1140Z" fill="#9c8445" stroke="#9c8445" stroke-width="1.51"/><path d="M180,1140L180,1260L300,1140Z" fill="#a08746" stroke="#a08746" stroke-width="1.51"/><path d="M180,1140L300,1140L300,1020Z" fill="#ad954e" stroke="#ad954e" stroke-width="1.51"/><path d="M180,1020L180,1140L300,1020Z" fill="#b2954e" stroke="#b2954e" stroke-width="1.51"/><path d="M180,1020L300,1020L300,900Z" fill="#c0a154" stroke="#c0a154" stroke-width="1.51"/><path d="M180,900L180,1020L300,900Z" fill="#c6a053" stroke="#c6a053" stroke-width="1.51"/><path d="M180,900L300,900L300,780Z" fill="#d5ab57" stroke="#d5ab57" stroke-width="1.51"/><path d="M180,780L180,900L300,780Z" fill="#daa958" stroke="#daa958" stroke-width="1.51"/><path d="M180,780L300,780L300,660Z" fill="#e7b262" stroke="#e7b262" stroke-width="1.51"/><path d="M180,660L180,780L300,660Z" fill="#ecb064" stroke="#ecb064" stroke-width="1.51"/><path d="M180,660L300,660L300,540Z" fill="#f7b873" stroke="#f7b873" stroke-width="1.51"/><path d="M180,540L180,660L300,540Z" fill="#fab577" stroke="#fab577" stroke-width="1.51"/><path d="M180,540L300,540L300,420Z" fill="#ffb77a" stroke="#ffb77a" stroke-width="1.51"/><path d="M180,420L180,540L300,420Z" fill="#fdae71" stroke="#fdae71" stroke-width="1.51"/><path d="M180,420L300,420L300,300Z" fill="#fdab66" stroke="#fdab66" stroke-width="1.51"/><path d="M180,300L180,420L300,300Z" fill="#fba05f" stroke="#fba05f" stroke-width="1.51"/><path d="M180,300L300,300L300,180Z" fill="#fb9757" stroke="#fb9757" stroke-width="1.51"/><path d="M180,180L180,300L300,180Z" fill="#f88b50" stroke="#f88b50" stroke-width="1.51"/><path d="M180,180L300,180L300,60Z" fill="#f77f4a" stroke="#f77f4a" stroke-width="1.51"/><path d="M180,60L180,180L300,60Z" fill="#f47244" stroke="#f47244" stroke-width="1.51"/><path d="M180,60L300,60L300,-60Z" fill="#f0673f" stroke="#f0673f" stroke-width="1.51"/><path d="M180,-60L180,60L300,-60Z" fill="#eb5b39" stroke="#eb5b39" stroke-width="1.51"/><path d="M180,-60L300,-60L300,-180Z" fill="#e45336" stroke="#e45336" stroke-width="1.51"/><path d="M180,-180L180,-60L300,-180Z" fill="#dc4934" stroke="#dc4934" stroke-width="1.51"/><path d="M60,1260L180,1260L180,1140Z" fill="#98793e" stroke="#98793e" stroke-width="1.51"/><path d="M60,1140L60,1260L180,1140Z" fill="#9b7c3e" stroke="#9b7c3e" stroke-width="1.51"/><path d="M60,1140L180,1140L180,1020Z" fill="#a88946" stroke="#a88946" stroke-width="1.51"/><path d="M60,1020L60,1140L180,1020Z" fill="#ad8a46" stroke="#ad8a46" stroke-width="1.51"/><path d="M60,1020L180,1020L180,900Z" fill="#bc954c" stroke="#bc954c" stroke-width="1.51"/><path d="M60,900L60,1020L180,900Z" fill="#c1944a" stroke="#c1944a" stroke-width="1.51"/><path d="M60,900L180,900L180,780Z" fill="#d09e4f" stroke="#d09e4f" stroke-width="1.51"/><path d="M60,780L60,900L180,780Z" fill="#d49d50" stroke="#d49d50" stroke-width="1.51"/><path d="M60,780L180,780L180,660Z" fill="#e2a55b" stroke="#e2a55b" stroke-width="1.51"/><path d="M60,660L60,780L180,660Z" fill="#e6a35c" stroke="#e6a35c" stroke-width="1.51"/><path d="M60,660L180,660L180,540Z" fill="#f2ab6b" stroke="#f2ab6b" stroke-width="1.51"/><path d="M60,540L60,660L180,540Z" fill="#f4a86f" stroke="#f4a86f" stroke-width="1.51"/><path d="M60,540L180,540L180,420Z" fill="#faaa72" stroke="#faaa72" stroke-width="1.51"/><path d="M60,420L60,540L180,420Z" fill="#f7a269" stroke="#f7a269" stroke-width="1.51"/><path d="M60,420L180,420L180,300Z" fill="#f79e5f" stroke="#f79e5f" stroke-width="1.51"/><path d="M60,300L60,420L180,300Z" fill="#f49357" stroke="#f49357" stroke-width="1.51"/><path d="M60,300L180,300L180,180Z" fill="#f58a4f" stroke="#f58a4f" stroke-width="1.51"/><path d="M60,180L60,300L180,180Z" fill="#f17e48" stroke="#f17e48" stroke-width="1.51"/><path d="M60,180L180,180L180,60Z" fill="#f17243" stroke="#f17243" stroke-width="1.51"/><path d="M60,60L60,180L180,60Z" fill="#ed643d" stroke="#ed643d" stroke-width="1.51"/><path d="M60,60L180,60L180,-60Z" fill="#ea5938" stroke="#ea5938" stroke-width="1.51"/><path d="M60,-60L60,60L180,-60Z" fill="#e34c32" stroke="#e34c32" stroke-width="1.51"/><path d="M60,-60L180,-60L180,-180Z" fill="#dd432f" stroke="#dd432f" stroke-width="1.51"/><path d="M60,-180L60,-60L180,-180Z" fill="#d4392c" stroke="#d4392c" stroke-width="1.51"/><path d="M-60,1260L60,1260L60,1140Z" fill="#936e37" stroke="#936e37" stroke-width="1.51"/><path d="M-60,1140L-60,1260L60,1140Z" fill="#957239" stroke="#957239" stroke-width="1.51"/><path d="M-60,1140L60,1140L60,1020Z" fill="#a37e3f" stroke="#a37e3f" stroke-width="1.51"/><path d="M-60,1020L-60,1140L60,1020Z" fill="#a77f40" stroke="#a77f40" stroke-width="1.51"/><path d="M-60,1020L60,1020L60,900Z" fill="#b68a45" stroke="#b68a45" stroke-width="1.51"/><path d="M-60,900L-60,1020L60,900Z" fill="#ba8944" stroke="#ba8944" stroke-width="1.51"/><path d="M-60,900L60,900L60,780Z" fill="#ca9347" stroke="#ca9347" stroke-width="1.51"/><path d="M-60,780L-60,900L60,780Z" fill="#ce9249" stroke="#ce9249" stroke-width="1.51"/><path d="M-60,780L60,780L60,660Z" fill="#dc9953" stroke="#dc9953" stroke-width="1.51"/><path d="M-60,660L-60,780L60,660Z" fill="#df9855" stroke="#df9855" stroke-width="1.51"/><path d="M-60,660L60,660L60,540Z" fill="#ec9f63" stroke="#ec9f63" stroke-width="1.51"/><path d="M-60,540L-60,660L60,540Z" fill="#ee9d69" stroke="#ee9d69" stroke-width="1.51"/><path d="M-60,540L60,540L60,420Z" fill="#f49e6a" stroke="#f49e6a" stroke-width="1.51"/><path d="M-60,420L-60,540L60,420Z" fill="#f09762" stroke="#f09762" stroke-width="1.51"/><path d="M-60,420L60,420L60,300Z" fill="#f19257" stroke="#f19257" stroke-width="1.51"/><path d="M-60,300L-60,420L60,300Z" fill="#ed8851" stroke="#ed8851" stroke-width="1.51"/><path d="M-60,300L60,300L60,180Z" fill="#ee7d48" stroke="#ee7d48" stroke-width="1.51"/><path d="M-60,180L-60,300L60,180Z" fill="#ea7342" stroke="#ea7342" stroke-width="1.51"/><path d="M-60,180L60,180L60,60Z" fill="#ea643c" stroke="#ea643c" stroke-width="1.51"/><path d="M-60,60L-60,180L60,60Z" fill="#e55737" stroke="#e55737" stroke-width="1.51"/><path d="M-60,60L60,60L60,-60Z" fill="#e24a31" stroke="#e24a31" stroke-width="1.51"/><path d="M-60,-60L-60,60L60,-60Z" fill="#db3e2c" stroke="#db3e2c" stroke-width="1.51"/><path d="M-60,-60L60,-60L60,-180Z" fill="#d53128" stroke="#d53128" stroke-width="1.51"/><path d="M-60,-180L-60,-60L60,-180Z" fill="#cc2827" stroke="#cc2827" stroke-width="1.51"/><path d="M-180,1260L-60,1260L-60,1140Z" fill="#886636" stroke="#886636" stroke-width="1.51"/><path d="M-180,1140L-180,1260L-60,1140Z" fill="#896a38" stroke="#896a38" stroke-width="1.51"/><path d="M-180,1140L-60,1140L-60,1020Z" fill="#98753e" stroke="#98753e" stroke-width="1.51"/><path d="M-180,1020L-180,1140L-60,1020Z" fill="#9b7740" stroke="#9b7740" stroke-width="1.51"/><path d="M-180,1020L-60,1020L-60,900Z" fill="#ab8143" stroke="#ab8143" stroke-width="1.51"/><path d="M-180,900L-180,1020L-60,900Z" fill="#ae8244" stroke="#ae8244" stroke-width="1.51"/><path d="M-180,900L-60,900L-60,780Z" fill="#bf8a46" stroke="#bf8a46" stroke-width="1.51"/><path d="M-180,780L-180,900L-60,780Z" fill="#c18a49" stroke="#c18a49" stroke-width="1.51"/><path d="M-180,780L-60,780L-60,660Z" fill="#d19151" stroke="#d19151" stroke-width="1.51"/><path d="M-180,660L-180,780L-60,660Z" fill="#d39055" stroke="#d39055" stroke-width="1.51"/><path d="M-180,660L-60,660L-60,540Z" fill="#e09661" stroke="#e09661" stroke-width="1.51"/><path d="M-180,540L-180,660L-60,540Z" fill="#e19568" stroke="#e19568" stroke-width="1.51"/><path d="M-180,540L-60,540L-60,420Z" fill="#e89568" stroke="#e89568" stroke-width="1.51"/><path d="M-180,420L-180,540L-60,420Z" fill="#e38f61" stroke="#e38f61" stroke-width="1.51"/><path d="M-180,420L-60,420L-60,300Z" fill="#e58955" stroke="#e58955" stroke-width="1.51"/><path d="M-180,300L-180,420L-60,300Z" fill="#e08050" stroke="#e08050" stroke-width="1.51"/><path d="M-180,300L-60,300L-60,180Z" fill="#e27446" stroke="#e27446" stroke-width="1.51"/><path d="M-180,180L-180,300L-60,180Z" fill="#dd6b42" stroke="#dd6b42" stroke-width="1.51"/><path d="M-180,180L-60,180L-60,60Z" fill="#de5c3b" stroke="#de5c3b" stroke-width="1.51"/><path d="M-180,60L-180,180L-60,60Z" fill="#d85037" stroke="#d85037" stroke-width="1.51"/><path d="M-180,60L-60,60L-60,-60Z" fill="#d64030" stroke="#d64030" stroke-width="1.51"/><path d="M-180,-60L-180,60L-60,-60Z" fill="#ce352c" stroke="#ce352c" stroke-width="1.51"/><path d="M-180,-60L-60,-60L-60,-180Z" fill="#ca2627" stroke="#ca2627" stroke-width="1.51"/><path d="M-180,-180L-180,-60L-60,-180Z" fill="#bf1e27" stroke="#bf1e27" stroke-width="1.51"/></svg>