<svg xmlns="http://www.w3.org/2000/svg" width="1920" height="1080"><path d="M1980,1260L2100,1260L2100,1140Z" fill="#653ffe" stroke="#653ffe" stroke-width="1.51"/><path d="M1980,1140L1980,1260L2100,1140Z" fill="#7634fe" stroke="#7634fe" stroke-width="1.51"/><path d="M1980,1140L2100,1140L2100,1020Z" fill="#8133fa" stroke="#8133fa" stroke-width="1.51"/><path d="M1980,1020L1980,1140L2100,1020Z" fill="#8d2df6" stroke="#8d2df6" stroke-width="1.51"/><path d="M1980,1020L2100,1020L2100,900Z" fill="#9433ef" stroke="#9433ef" stroke-width="1.51"/><path d="M1980,900L1980,1020L2100,900Z" fill="#9143f2" stroke="#9143f2" stroke-width="1.51"/><path d="M1980,900L2100,900L2100,780Z" fill="#6f6af9" stroke="#6f6af9" stroke-width="1.51"/><path d="M1980,780L1980,900L2100,780Z" fill="#6476fd" stroke="#6476fd" stroke-width="1.51"/><path d="M1980,780L2100,780L2100,660Z" fill="#828ae0" stroke="#828ae0" stroke-width="1.51"/><path d="M1980,660L1980,780L2100,660Z" fill="#9c91cc" stroke="#9c91cc" stroke-width="1.51"/><path d="M1980,660L2100,660L2100,540Z" fill="#b39fa6" stroke="#b39fa6" stroke-width="1.51"/><path d="M1980,540L1980,660L2100,540Z" fill="#bf87ab" stroke="#bf87ab" stroke-width="1.51"/><path d="M1980,540L2100,540L2100,420Z" fill="#c459b2" stroke="#c459b2" stroke-width="1.51"/><path d="M1980,420L1980,540L2100,420Z" fill="#cb2fb6" stroke="#cb2fb6" stroke-width="1.51"/><path d="M1980,420L2100,420L2100,300Z" fill="#c968b0" stroke="#c968b0" stroke-width="1.51"/><path d="M1980,300L1980,420L2100,300Z" fill="#d07dad" stroke="#d07dad" stroke-width="1.51"/><path d="M1980,300L2100,300L2100,180Z" fill="#c2a1b1" stroke="#c2a1b1" stroke-width="1.51"/><path d="M1980,180L1980,300L2100,180Z" fill="#b7a0c3" stroke="#b7a0c3" stroke-width="1.51"/><path d="M1980,180L2100,180L2100,60Z" fill="#84a4ea" stroke="#84a4ea" stroke-width="1.51"/><path d="M1980,60L1980,180L2100,60Z" fill="#77a1f5" stroke="#77a1f5" stroke-width="1.51"/><path d="M1980,60L2100,60L2100,-60Z" fill="#af7dc2" stroke="#af7dc2" stroke-width="1.51"/><path d="M1980,-60L1980,60L2100,-60Z" fill="#c665aa" stroke="#c665aa" stroke-width="1.51"/><path d="M1980,-60L2100,-60L2100,-180Z" fill="#cc5da3" stroke="#cc5da3" stroke-width="1.51"/><path d="M1980,-180L1980,-60L2100,-180Z" fill="#cb6fbd" stroke="#cb6fbd" stroke-width="1.51"/><path d="M1860,1260L1980,1260L1980,1140Z" fill="#7932fe" stroke="#7932fe" stroke-width="1.51"/><path d="M1860,1140L1860,1260L1980,1140Z" fill="#8822fe" stroke="#8822fe" stroke-width="1.51"/><path d="M1860,1140L1980,1140L1980,1020Z" fill="#911ffa" stroke="#911ffa" stroke-width="1.51"/><path d="M1860,1020L1860,1140L1980,1020Z" fill="#9c14f6" stroke="#9c14f6" stroke-width="1.51"/><path d="M1860,1020L1980,1020L1980,900Z" fill="#a31eef" stroke="#a31eef" stroke-width="1.51"/><path d="M1860,900L1860,1020L1980,900Z" fill="#a036f2" stroke="#a036f2" stroke-width="1.51"/><path d="M1860,900L1980,900L1980,780Z" fill="#8363f9" stroke="#8363f9" stroke-width="1.51"/><path d="M1860,780L1860,900L1980,780Z" fill="#7a70fd" stroke="#7a70fd" stroke-width="1.51"/><path d="M1860,780L1980,780L1980,660Z" fill="#9485e0" stroke="#9485e0" stroke-width="1.51"/><path d="M1860,660L1860,780L1980,660Z" fill="#ab8ccc" stroke="#ab8ccc" stroke-width="1.51"/><path d="M1860,660L1980,660L1980,540Z" fill="#c19aa7" stroke="#c19aa7" stroke-width="1.51"/><path d="M1860,540L1860,660L1980,540Z" fill="#cb82ab" stroke="#cb82ab" stroke-width="1.51"/><path d="M1860,540L1980,540L1980,420Z" fill="#d04eb2" stroke="#d04eb2" stroke-width="1.51"/><path d="M1860,420L1860,540L1980,420Z" fill="#d614b6" stroke="#d614b6" stroke-width="1.51"/><path d="M1860,420L1980,420L1980,300Z" fill="#d55fb1" stroke="#d55fb1" stroke-width="1.51"/><path d="M1860,300L1860,420L1980,300Z" fill="#dc76ad" stroke="#dc76ad" stroke-width="1.51"/><path d="M1860,300L1980,300L1980,180Z" fill="#d09bb1" stroke="#d09bb1" stroke-width="1.51"/><path d="M1860,180L1860,300L1980,180Z" fill="#c59bc3" stroke="#c59bc3" stroke-width="1.51"/><path d="M1860,180L1980,180L1980,60Z" fill="#97a0ea" stroke="#97a0ea" stroke-width="1.51"/><path d="M1860,60L1860,180L1980,60Z" fill="#8d9cf5" stroke="#8d9cf5" stroke-width="1.51"/><path d="M1860,60L1980,60L1980,-60Z" fill="#bd77c2" stroke="#bd77c2" stroke-width="1.51"/><path d="M1860,-60L1860,60L1980,-60Z" fill="#d15daa" stroke="#d15daa" stroke-width="1.51"/><path d="M1860,-60L1980,-60L1980,-180Z" fill="#d853a3" stroke="#d853a3" stroke-width="1.51"/><path d="M1860,-180L1860,-60L1980,-180Z" fill="#d767bd" stroke="#d767bd" stroke-width="1.51"/><path d="M1740,1260L1860,1260L1860,1140Z" fill="#882bfa" stroke="#882bfa" stroke-width="1.51"/><path d="M1740,1140L1740,1260L1860,1140Z" fill="#9520f7" stroke="#9520f7" stroke-width="1.51"/><path d="M1740,1140L1860,1140L1860,1020Z" fill="#9e11f6" stroke="#9e11f6" stroke-width="1.51"/><path d="M1740,1020L1740,1140L1860,1020Z" fill="#a711f0" stroke="#a711f0" stroke-width="1.51"/><path d="M1740,1020L1860,1020L1860,900Z" fill="#ae10eb" stroke="#ae10eb" stroke-width="1.51"/><path d="M1740,900L1740,1020L1860,900Z" fill="#aa36ec" stroke="#aa36ec" stroke-width="1.51"/><path d="M1740,900L1860,900L1860,780Z" fill="#9261f5" stroke="#9261f5" stroke-width="1.51"/><path d="M1740,780L1740,900L1860,780Z" fill="#8871f6" stroke="#8871f6" stroke-width="1.51"/><path d="M1740,780L1860,780L1860,660Z" fill="#a084dc" stroke="#a084dc" stroke-width="1.51"/><path d="M1740,660L1740,780L1860,660Z" fill="#b38dc5" stroke="#b38dc5" stroke-width="1.51"/><path d="M1740,660L1860,660L1860,540Z" fill="#ca99a2" stroke="#ca99a2" stroke-width="1.51"/><path d="M1740,540L1740,660L1860,540Z" fill="#d283a4" stroke="#d283a4" stroke-width="1.51"/><path d="M1740,540L1860,540L1860,420Z" fill="#d84aaf" stroke="#d84aaf" stroke-width="1.51"/><path d="M1740,420L1740,540L1860,420Z" fill="#dc15b0" stroke="#dc15b0" stroke-width="1.51"/><path d="M1740,420L1860,420L1860,300Z" fill="#dd5cad" stroke="#dd5cad" stroke-width="1.51"/><path d="M1740,300L1740,420L1860,300Z" fill="#e277a7" stroke="#e277a7" stroke-width="1.51"/><path d="M1740,300L1860,300L1860,180Z" fill="#d99aad" stroke="#d99aad" stroke-width="1.51"/><path d="M1740,180L1740,300L1860,180Z" fill="#cd9cbd" stroke="#cd9cbd" stroke-width="1.51"/><path d="M1740,180L1860,180L1860,60Z" fill="#a49fe5" stroke="#a49fe5" stroke-width="1.51"/><path d="M1740,60L1740,180L1860,60Z" fill="#989eee" stroke="#989eee" stroke-width="1.51"/><path d="M1740,60L1860,60L1860,-60Z" fill="#c675be" stroke="#c675be" stroke-width="1.51"/><path d="M1740,-60L1740,60L1860,-60Z" fill="#d85ea4" stroke="#d85ea4" stroke-width="1.51"/><path d="M1740,-60L1860,-60L1860,-180Z" fill="#df509f" stroke="#df509f" stroke-width="1.51"/><path d="M1740,-180L1740,-60L1860,-180Z" fill="#de68b7" stroke="#de68b7" stroke-width="1.51"/><path d="M1620,1260L1740,1260L1740,1140Z" fill="#942bf3" stroke="#942bf3" stroke-width="1.51"/><path d="M1620,1140L1620,1260L1740,1140Z" fill="#a020f1" stroke="#a020f1" stroke-width="1.51"/><path d="M1620,1140L1740,1140L1740,1020Z" fill="#a810ef" stroke="#a810ef" stroke-width="1.51"/><path d="M1620,1020L1620,1140L1740,1020Z" fill="#b110e9" stroke="#b110e9" stroke-width="1.51"/><path d="M1620,1020L1740,1020L1740,900Z" fill="#b710e4" stroke="#b710e4" stroke-width="1.51"/><path d="M1620,900L1620,1020L1740,900Z" fill="#b436e5" stroke="#b436e5" stroke-width="1.51"/><path d="M1620,900L1740,900L1740,780Z" fill="#9d62ee" stroke="#9d62ee" stroke-width="1.51"/><path d="M1620,780L1620,900L1740,780Z" fill="#9472f0" stroke="#9472f0" stroke-width="1.51"/><path d="M1620,780L1740,780L1740,660Z" fill="#a986d5" stroke="#a986d5" stroke-width="1.51"/><path d="M1620,660L1620,780L1740,660Z" fill="#bb8fbe" stroke="#bb8fbe" stroke-width="1.51"/><path d="M1620,660L1740,660L1740,540Z" fill="#d09b9b" stroke="#d09b9b" stroke-width="1.51"/><path d="M1620,540L1620,660L1740,540Z" fill="#d8859e" stroke="#d8859e" stroke-width="1.51"/><path d="M1620,540L1740,540L1740,420Z" fill="#de4ca8" stroke="#de4ca8" stroke-width="1.51"/><path d="M1620,420L1620,540L1740,420Z" fill="#e217a9" stroke="#e217a9" stroke-width="1.51"/><path d="M1620,420L1740,420L1740,300Z" fill="#e35ea6" stroke="#e35ea6" stroke-width="1.51"/><path d="M1620,300L1620,420L1740,300Z" fill="#e879a0" stroke="#e879a0" stroke-width="1.51"/><path d="M1620,300L1740,300L1740,180Z" fill="#df9ca5" stroke="#df9ca5" stroke-width="1.51"/><path d="M1620,180L1620,300L1740,180Z" fill="#d39eb6" stroke="#d39eb6" stroke-width="1.51"/><path d="M1620,180L1740,180L1740,60Z" fill="#aea1de" stroke="#aea1de" stroke-width="1.51"/><path d="M1620,60L1620,180L1740,60Z" fill="#a39fe8" stroke="#a39fe8" stroke-width="1.51"/><path d="M1620,60L1740,60L1740,-60Z" fill="#cd77b7" stroke="#cd77b7" stroke-width="1.51"/><path d="M1620,-60L1620,60L1740,-60Z" fill="#dd609d" stroke="#dd609d" stroke-width="1.51"/><path d="M1620,-60L1740,-60L1740,-180Z" fill="#e55298" stroke="#e55298" stroke-width="1.51"/><path d="M1620,-180L1620,-60L1740,-180Z" fill="#e46ab0" stroke="#e46ab0" stroke-width="1.51"/><path d="M1500,1260L1620,1260L1620,1140Z" fill="#9340f2" stroke="#9340f2" stroke-width="1.51"/><path d="M1500,1140L1500,1260L1620,1140Z" fill="#9449f4" stroke="#9449f4" stroke-width="1.51"/><path d="M1500,1140L1620,1140L1620,1020Z" fill="#a833ee" stroke="#a833ee" stroke-width="1.51"/><path d="M1500,1020L1500,1140L1620,1020Z" fill="#a745ed" stroke="#a745ed" stroke-width="1.51"/><path d="M1500,1020L1620,1020L1620,900Z" fill="#b634e3" stroke="#b634e3" stroke-width="1.51"/><path d="M1500,900L1500,1020L1620,900Z" fill="#a958e8" stroke="#a958e8" stroke-width="1.51"/><path d="M1500,900L1620,900L1620,780Z" fill="#9a6fed" stroke="#9a6fed" stroke-width="1.51"/><path d="M1500,780L1500,900L1620,780Z" fill="#8387f3" stroke="#8387f3" stroke-width="1.51"/><path d="M1500,780L1620,780L1620,660Z" fill="#a691d3" stroke="#a691d3" stroke-width="1.51"/><path d="M1500,660L1500,780L1620,660Z" fill="#ada3c1" stroke="#ada3c1" stroke-width="1.51"/><path d="M1500,660L1620,660L1620,540Z" fill="#cca799" stroke="#cca799" stroke-width="1.51"/><path d="M1500,540L1500,660L1620,540Z" fill="#cd9a9f" stroke="#cd9a9f" stroke-width="1.51"/><path d="M1500,540L1620,540L1620,420Z" fill="#dc5ea6" stroke="#dc5ea6" stroke-width="1.51"/><path d="M1500,420L1500,540L1620,420Z" fill="#db4bac" stroke="#db4bac" stroke-width="1.51"/><path d="M1500,420L1620,420L1620,300Z" fill="#e16ea4" stroke="#e16ea4" stroke-width="1.51"/><path d="M1500,300L1500,420L1620,300Z" fill="#de90a2" stroke="#de90a2" stroke-width="1.51"/><path d="M1500,300L1620,300L1620,180Z" fill="#dba8a3" stroke="#dba8a3" stroke-width="1.51"/><path d="M1500,180L1500,300L1620,180Z" fill="#c6b2b8" stroke="#c6b2b8" stroke-width="1.51"/><path d="M1500,180L1620,180L1620,60Z" fill="#a9acdc" stroke="#a9acdc" stroke-width="1.51"/><path d="M1500,60L1500,180L1620,60Z" fill="#90b2ea" stroke="#90b2ea" stroke-width="1.51"/><path d="M1500,60L1620,60L1620,-60Z" fill="#ca84b5" stroke="#ca84b5" stroke-width="1.51"/><path d="M1500,-60L1500,60L1620,-60Z" fill="#d4799f" stroke="#d4799f" stroke-width="1.51"/><path d="M1500,-60L1620,-60L1620,-180Z" fill="#e36396" stroke="#e36396" stroke-width="1.51"/><path d="M1500,-180L1500,-60L1620,-180Z" fill="#db83b2" stroke="#db83b2" stroke-width="1.51"/><path d="M1380,1260L1500,1260L1500,1140Z" fill="#7a65f9" stroke="#7a65f9" stroke-width="1.51"/><path d="M1380,1140L1380,1260L1500,1140Z" fill="#7b6bfb" stroke="#7b6bfb" stroke-width="1.51"/><path d="M1380,1140L1500,1140L1500,1020Z" fill="#935ef5" stroke="#935ef5" stroke-width="1.51"/><path d="M1380,1020L1380,1140L1500,1020Z" fill="#916af4" stroke="#916af4" stroke-width="1.51"/><path d="M1380,1020L1500,1020L1500,900Z" fill="#a460ea" stroke="#a460ea" stroke-width="1.51"/><path d="M1380,900L1380,1020L1500,900Z" fill="#9378ef" stroke="#9378ef" stroke-width="1.51"/><path d="M1380,900L1500,900L1500,780Z" fill="#7e8bf4" stroke="#7e8bf4" stroke-width="1.51"/><path d="M1380,780L1380,900L1500,780Z" fill="#5aa0fa" stroke="#5aa0fa" stroke-width="1.51"/><path d="M1380,780L1500,780L1500,660Z" fill="#89aada" stroke="#89aada" stroke-width="1.51"/><path d="M1380,660L1380,780L1500,660Z" fill="#91bbc7" stroke="#91bbc7" stroke-width="1.51"/><path d="M1380,660L1500,660L1500,540Z" fill="#b5c09e" stroke="#b5c09e" stroke-width="1.51"/><path d="M1380,540L1380,660L1500,540Z" fill="#b8b4a5" stroke="#b8b4a5" stroke-width="1.51"/><path d="M1380,540L1500,540L1500,420Z" fill="#cd7fac" stroke="#cd7fac" stroke-width="1.51"/><path d="M1380,420L1380,540L1500,420Z" fill="#cd71b2" stroke="#cd71b2" stroke-width="1.51"/><path d="M1380,420L1500,420L1500,300Z" fill="#d18da9" stroke="#d18da9" stroke-width="1.51"/><path d="M1380,300L1380,420L1500,300Z" fill="#ccaca7" stroke="#ccaca7" stroke-width="1.51"/><path d="M1380,300L1500,300L1500,180Z" fill="#c6c2a8" stroke="#c6c2a8" stroke-width="1.51"/><path d="M1380,180L1380,300L1500,180Z" fill="#adcbbd" stroke="#adcbbd" stroke-width="1.51"/><path d="M1380,180L1500,180L1500,60Z" fill="#89c4e3" stroke="#89c4e3" stroke-width="1.51"/><path d="M1380,60L1380,180L1500,60Z" fill="#64caf1" stroke="#64caf1" stroke-width="1.51"/><path d="M1380,60L1500,60L1500,-60Z" fill="#b69fbb" stroke="#b69fbb" stroke-width="1.51"/><path d="M1380,-60L1380,60L1500,-60Z" fill="#c396a5" stroke="#c396a5" stroke-width="1.51"/><path d="M1380,-60L1500,-60L1500,-180Z" fill="#d4849c" stroke="#d4849c" stroke-width="1.51"/><path d="M1380,-180L1380,-60L1500,-180Z" fill="#c89fb8" stroke="#c89fb8" stroke-width="1.51"/><path d="M1260,1260L1380,1260L1380,1140Z" fill="#697ff8" stroke="#697ff8" stroke-width="1.51"/><path d="M1260,1140L1260,1260L1380,1140Z" fill="#8781eb" stroke="#8781eb" stroke-width="1.51"/><path d="M1260,1140L1380,1140L1380,1020Z" fill="#857af4" stroke="#857af4" stroke-width="1.51"/><path d="M1260,1020L1260,1140L1380,1020Z" fill="#9b80e4" stroke="#9b80e4" stroke-width="1.51"/><path d="M1260,1020L1380,1020L1380,900Z" fill="#987de9" stroke="#987de9" stroke-width="1.51"/><path d="M1260,900L1260,1020L1380,900Z" fill="#9b8edf" stroke="#9b8edf" stroke-width="1.51"/><path d="M1260,900L1380,900L1380,780Z" fill="#67a3f3" stroke="#67a3f3" stroke-width="1.51"/><path d="M1260,780L1260,900L1380,780Z" fill="#64b4e9" stroke="#64b4e9" stroke-width="1.51"/><path d="M1260,780L1380,780L1380,660Z" fill="#6fc1d8" stroke="#6fc1d8" stroke-width="1.51"/><path d="M1260,660L1260,780L1380,660Z" fill="#90cfb5" stroke="#90cfb5" stroke-width="1.51"/><path d="M1260,660L1380,660L1380,540Z" fill="#a2d69b" stroke="#a2d69b" stroke-width="1.51"/><path d="M1260,540L1260,660L1380,540Z" fill="#b6c992" stroke="#b6c992" stroke-width="1.51"/><path d="M1260,540L1380,540L1380,420Z" fill="#c29aaa" stroke="#c29aaa" stroke-width="1.51"/><path d="M1260,420L1260,540L1380,420Z" fill="#d08aa1" stroke="#d08aa1" stroke-width="1.51"/><path d="M1260,420L1380,420L1380,300Z" fill="#c5a7a7" stroke="#c5a7a7" stroke-width="1.51"/><path d="M1260,300L1260,420L1380,300Z" fill="#cbc295" stroke="#cbc295" stroke-width="1.51"/><path d="M1260,300L1380,300L1380,180Z" fill="#b4d9a5" stroke="#b4d9a5" stroke-width="1.51"/><path d="M1260,180L1260,300L1380,180Z" fill="#aae0ab" stroke="#aae0ab" stroke-width="1.51"/><path d="M1260,180L1380,180L1380,60Z" fill="#69dae1" stroke="#69dae1" stroke-width="1.51"/><path d="M1260,60L1260,180L1380,60Z" fill="#64dedf" stroke="#64dedf" stroke-width="1.51"/><path d="M1260,60L1380,60L1380,-60Z" fill="#a6b7b9" stroke="#a6b7b9" stroke-width="1.51"/><path d="M1260,-60L1260,60L1380,-60Z" fill="#c4ac93" stroke="#c4ac93" stroke-width="1.51"/><path d="M1260,-60L1380,-60L1380,-180Z" fill="#c99e99" stroke="#c99e99" stroke-width="1.51"/><path d="M1260,-180L1260,-60L1380,-180Z" fill="#c9b6a6" stroke="#c9b6a6" stroke-width="1.51"/><path d="M1140,1260L1260,1260L1260,1140Z" fill="#9a8fd0" stroke="#9a8fd0" stroke-width="1.51"/><path d="M1140,1140L1140,1260L1260,1140Z" fill="#ac91c3" stroke="#ac91c3" stroke-width="1.51"/><path d="M1140,1140L1260,1140L1260,1020Z" fill="#ae8bcc" stroke="#ae8bcc" stroke-width="1.51"/><path d="M1140,1020L1140,1140L1260,1020Z" fill="#bb91bb" stroke="#bb91bb" stroke-width="1.51"/><path d="M1140,1020L1260,1020L1260,900Z" fill="#ba8dc1" stroke="#ba8dc1" stroke-width="1.51"/><path d="M1140,900L1140,1020L1260,900Z" fill="#ba9eb6" stroke="#ba9eb6" stroke-width="1.51"/><path d="M1140,900L1260,900L1260,780Z" fill="#96b3ca" stroke="#96b3ca" stroke-width="1.51"/><path d="M1140,780L1140,900L1260,780Z" fill="#90c4bf" stroke="#90c4bf" stroke-width="1.51"/><path d="M1140,780L1260,780L1260,660Z" fill="#94d2ae" stroke="#94d2ae" stroke-width="1.51"/><path d="M1140,660L1140,780L1260,660Z" fill="#a6e088" stroke="#a6e088" stroke-width="1.51"/><path d="M1140,660L1260,660L1260,540Z" fill="#b3e96a" stroke="#b3e96a" stroke-width="1.51"/><path d="M1140,540L1140,660L1260,540Z" fill="#c5db61" stroke="#c5db61" stroke-width="1.51"/><path d="M1140,540L1260,540L1260,420Z" fill="#d5ac80" stroke="#d5ac80" stroke-width="1.51"/><path d="M1140,420L1140,540L1260,420Z" fill="#e19c77" stroke="#e19c77" stroke-width="1.51"/><path d="M1140,420L1260,420L1260,300Z" fill="#d7b97c" stroke="#d7b97c" stroke-width="1.51"/><path d="M1140,300L1140,420L1260,300Z" fill="#d9d465" stroke="#d9d465" stroke-width="1.51"/><path d="M1140,300L1260,300L1260,180Z" fill="#c5ec75" stroke="#c5ec75" stroke-width="1.51"/><path d="M1140,180L1140,300L1260,180Z" fill="#bcf17b" stroke="#bcf17b" stroke-width="1.51"/><path d="M1140,180L1260,180L1260,60Z" fill="#91ecb5" stroke="#91ecb5" stroke-width="1.51"/><path d="M1140,60L1140,180L1260,60Z" fill="#8cefb3" stroke="#8cefb3" stroke-width="1.51"/><path d="M1140,60L1260,60L1260,-60Z" fill="#bdc98e" stroke="#bdc98e" stroke-width="1.51"/><path d="M1140,-60L1140,60L1260,-60Z" fill="#d3be65" stroke="#d3be65" stroke-width="1.51"/><path d="M1140,-60L1260,-60L1260,-180Z" fill="#dab16e" stroke="#dab16e" stroke-width="1.51"/><path d="M1140,-180L1140,-60L1260,-180Z" fill="#dac779" stroke="#dac779" stroke-width="1.51"/><path d="M1020,1260L1140,1260L1140,1140Z" fill="#b69fa8" stroke="#b69fa8" stroke-width="1.51"/><path d="M1020,1140L1020,1260L1140,1140Z" fill="#c392a8" stroke="#c392a8" stroke-width="1.51"/><path d="M1020,1140L1140,1140L1140,1020Z" fill="#c79ca4" stroke="#c79ca4" stroke-width="1.51"/><path d="M1020,1020L1020,1140L1140,1020Z" fill="#cf92a0" stroke="#cf92a0" stroke-width="1.51"/><path d="M1020,1020L1140,1020L1140,900Z" fill="#d09f99" stroke="#d09f99" stroke-width="1.51"/><path d="M1020,900L1020,1020L1140,900Z" fill="#cea09b" stroke="#cea09b" stroke-width="1.51"/><path d="M1020,900L1140,900L1140,780Z" fill="#b1c4a0" stroke="#b1c4a0" stroke-width="1.51"/><path d="M1020,780L1020,900L1140,780Z" fill="#abc6a3" stroke="#abc6a3" stroke-width="1.51"/><path d="M1020,780L1140,780L1140,660Z" fill="#a9e380" stroke="#a9e380" stroke-width="1.51"/><path d="M1020,660L1020,780L1140,660Z" fill="#bae367" stroke="#bae367" stroke-width="1.51"/><path d="M1020,660L1140,660L1140,540Z" fill="#befb1a" stroke="#befb1a" stroke-width="1.51"/><path d="M1020,540L1020,660L1140,540Z" fill="#d4de39" stroke="#d4de39" stroke-width="1.51"/><path d="M1020,540L1140,540L1140,420Z" fill="#e2bf4f" stroke="#e2bf4f" stroke-width="1.51"/><path d="M1020,420L1020,540L1140,420Z" fill="#ee9e5a" stroke="#ee9e5a" stroke-width="1.51"/><path d="M1020,420L1140,420L1140,300Z" fill="#e4cc48" stroke="#e4cc48" stroke-width="1.51"/><path d="M1020,300L1020,420L1140,300Z" fill="#e7d63e" stroke="#e7d63e" stroke-width="1.51"/><path d="M1020,300L1140,300L1140,180Z" fill="#d1fe32" stroke="#d1fe32" stroke-width="1.51"/><path d="M1020,180L1020,300L1140,180Z" fill="#cef457" stroke="#cef457" stroke-width="1.51"/><path d="M1020,180L1140,180L1140,60Z" fill="#a6fe86" stroke="#a6fe86" stroke-width="1.51"/><path d="M1020,60L1020,180L1140,60Z" fill="#a7f295" stroke="#a7f295" stroke-width="1.51"/><path d="M1020,60L1140,60L1140,-60Z" fill="#cbdb5d" stroke="#cbdb5d" stroke-width="1.51"/><path d="M1020,-60L1020,60L1140,-60Z" fill="#e1c043" stroke="#e1c043" stroke-width="1.51"/><path d="M1020,-60L1140,-60L1140,-180Z" fill="#e5c435" stroke="#e5c435" stroke-width="1.51"/><path d="M1020,-180L1020,-60L1140,-180Z" fill="#e9ca59" stroke="#e9ca59" stroke-width="1.51"/><path d="M900,1260L1020,1260L1020,1140Z" fill="#c478ae" stroke="#c478ae" stroke-width="1.51"/><path d="M900,1140L900,1260L1020,1140Z" fill="#cd63b0" stroke="#cd63b0" stroke-width="1.51"/><path d="M900,1140L1020,1140L1020,1020Z" fill="#d372aa" stroke="#d372aa" stroke-width="1.51"/><path d="M900,1020L900,1140L1020,1020Z" fill="#d961a9" stroke="#d961a9" stroke-width="1.51"/><path d="M900,1020L1020,1020L1020,900Z" fill="#dc759f" stroke="#dc759f" stroke-width="1.51"/><path d="M900,900L900,1020L1020,900Z" fill="#d972a4" stroke="#d972a4" stroke-width="1.51"/><path d="M900,900L1020,900L1020,780Z" fill="#c39fa6" stroke="#c39fa6" stroke-width="1.51"/><path d="M900,780L900,900L1020,780Z" fill="#be9fac" stroke="#be9fac" stroke-width="1.51"/><path d="M900,780L1020,780L1020,660Z" fill="#c2c08a" stroke="#c2c08a" stroke-width="1.51"/><path d="M900,660L900,780L1020,660Z" fill="#d0bd77" stroke="#d0bd77" stroke-width="1.51"/><path d="M900,660L1020,660L1020,540Z" fill="#d7d83d" stroke="#d7d83d" stroke-width="1.51"/><path d="M900,540L900,660L1020,540Z" fill="#e7b551" stroke="#e7b551" stroke-width="1.51"/><path d="M900,540L1020,540L1020,420Z" fill="#f0975c" stroke="#f0975c" stroke-width="1.51"/><path d="M900,420L900,540L1020,420Z" fill="#f86d67" stroke="#f86d67" stroke-width="1.51"/><path d="M900,420L1020,420L1020,300Z" fill="#f4a557" stroke="#f4a557" stroke-width="1.51"/><path d="M900,300L900,420L1020,300Z" fill="#f8ad54" stroke="#f8ad54" stroke-width="1.51"/><path d="M900,300L1020,300L1020,180Z" fill="#e8da4b" stroke="#e8da4b" stroke-width="1.51"/><path d="M900,180L900,300L1020,180Z" fill="#e4cd6a" stroke="#e4cd6a" stroke-width="1.51"/><path d="M900,180L1020,180L1020,60Z" fill="#c4db90" stroke="#c4db90" stroke-width="1.51"/><path d="M900,60L900,180L1020,60Z" fill="#c3cba1" stroke="#c3cba1" stroke-width="1.51"/><path d="M900,60L1020,60L1020,-60Z" fill="#dfb66a" stroke="#dfb66a" stroke-width="1.51"/><path d="M900,-60L900,60L1020,-60Z" fill="#ef9556" stroke="#ef9556" stroke-width="1.51"/><path d="M900,-60L1020,-60L1020,-180Z" fill="#f49c48" stroke="#f49c48" stroke-width="1.51"/><path d="M900,-180L900,-60L1020,-180Z" fill="#f89f69" stroke="#f89f69" stroke-width="1.51"/><path d="M780,1260L900,1260L900,1140Z" fill="#cb3fb5" stroke="#cb3fb5" stroke-width="1.51"/><path d="M780,1140L780,1260L900,1140Z" fill="#d31cb6" stroke="#d31cb6" stroke-width="1.51"/><path d="M780,1140L900,1140L900,1020Z" fill="#da30b1" stroke="#da30b1" stroke-width="1.51"/><path d="M780,1020L780,1140L900,1020Z" fill="#de0baf" stroke="#de0baf" stroke-width="1.51"/><path d="M780,1020L900,1020L900,900Z" fill="#e333a7" stroke="#e333a7" stroke-width="1.51"/><path d="M780,900L780,1020L900,900Z" fill="#e039ab" stroke="#e039ab" stroke-width="1.51"/><path d="M780,900L900,900L900,780Z" fill="#cf73af" stroke="#cf73af" stroke-width="1.51"/><path d="M780,780L780,900L900,780Z" fill="#c978b4" stroke="#c978b4" stroke-width="1.51"/><path d="M780,780L900,780L900,660Z" fill="#d29895" stroke="#d29895" stroke-width="1.51"/><path d="M780,660L780,780L900,660Z" fill="#de9781" stroke="#de9781" stroke-width="1.51"/><path d="M780,660L900,660L900,540Z" fill="#e9af54" stroke="#e9af54" stroke-width="1.51"/><path d="M780,540L780,660L900,540Z" fill="#f38e5f" stroke="#f38e5f" stroke-width="1.51"/><path d="M780,540L900,540L900,420Z" fill="#fa6469" stroke="#fa6469" stroke-width="1.51"/><path d="M780,420L780,540L900,420Z" fill="#ff2471" stroke="#ff2471" stroke-width="1.51"/><path d="M780,420L900,420L900,300Z" fill="#fe7566" stroke="#fe7566" stroke-width="1.51"/><path d="M780,300L780,420L900,300Z" fill="#ff8262" stroke="#ff8262" stroke-width="1.51"/><path d="M780,300L900,300L900,180Z" fill="#f9b15f" stroke="#f9b15f" stroke-width="1.51"/><path d="M780,180L780,300L900,180Z" fill="#f3a777" stroke="#f3a777" stroke-width="1.51"/><path d="M780,180L900,180L900,60Z" fill="#d8b39c" stroke="#d8b39c" stroke-width="1.51"/><path d="M780,60L780,180L900,60Z" fill="#d3a7aa" stroke="#d3a7aa" stroke-width="1.51"/><path d="M780,60L900,60L900,-60Z" fill="#ec8b77" stroke="#ec8b77" stroke-width="1.51"/><path d="M780,-60L780,60L900,-60Z" fill="#f86862" stroke="#f86862" stroke-width="1.51"/><path d="M780,-60L900,-60L900,-180Z" fill="#fe6a58" stroke="#fe6a58" stroke-width="1.51"/><path d="M780,-180L780,-60L900,-180Z" fill="#ff7274" stroke="#ff7274" stroke-width="1.51"/><path d="M660,1260L780,1260L780,1140Z" fill="#ce59b2" stroke="#ce59b2" stroke-width="1.51"/><path d="M660,1140L660,1260L780,1140Z" fill="#d566b0" stroke="#d566b0" stroke-width="1.51"/><path d="M660,1140L780,1140L780,1020Z" fill="#dd4fae" stroke="#dd4fae" stroke-width="1.51"/><path d="M660,1020L660,1140L780,1020Z" fill="#e164a9" stroke="#e164a9" stroke-width="1.51"/><path d="M660,1020L780,1020L780,900Z" fill="#e652a4" stroke="#e652a4" stroke-width="1.51"/><path d="M660,900L660,1020L780,900Z" fill="#e175a3" stroke="#e175a3" stroke-width="1.51"/><path d="M660,900L780,900L780,780Z" fill="#d086ac" stroke="#d086ac" stroke-width="1.51"/><path d="M660,780L660,900L780,780Z" fill="#c6a2ac" stroke="#c6a2ac" stroke-width="1.51"/><path d="M660,780L780,780L780,660Z" fill="#d2a990" stroke="#d2a990" stroke-width="1.51"/><path d="M660,660L660,780L780,660Z" fill="#d8c076" stroke="#d8c076" stroke-width="1.51"/><path d="M660,660L780,660L780,540Z" fill="#e8c14b" stroke="#e8c14b" stroke-width="1.51"/><path d="M660,540L660,660L780,540Z" fill="#eeb94f" stroke="#eeb94f" stroke-width="1.51"/><path d="M660,540L780,540L780,420Z" fill="#fb7b64" stroke="#fb7b64" stroke-width="1.51"/><path d="M660,420L660,540L780,420Z" fill="#ff7067" stroke="#ff7067" stroke-width="1.51"/><path d="M660,420L780,420L780,300Z" fill="#ff8a60" stroke="#ff8a60" stroke-width="1.51"/><path d="M660,300L660,420L780,300Z" fill="#ffb053" stroke="#ffb053" stroke-width="1.51"/><path d="M660,300L780,300L780,180Z" fill="#f8c257" stroke="#f8c257" stroke-width="1.51"/><path d="M660,180L660,300L780,180Z" fill="#ecd169" stroke="#ecd169" stroke-width="1.51"/><path d="M660,180L780,180L780,60Z" fill="#d6c497" stroke="#d6c497" stroke-width="1.51"/><path d="M660,60L660,180L780,60Z" fill="#cbcfa0" stroke="#cbcfa0" stroke-width="1.51"/><path d="M660,60L780,60L780,-60Z" fill="#ec9e72" stroke="#ec9e72" stroke-width="1.51"/><path d="M660,-60L660,60L780,-60Z" fill="#f69954" stroke="#f69954" stroke-width="1.51"/><path d="M660,-60L780,-60L780,-180Z" fill="#ff8052" stroke="#ff8052" stroke-width="1.51"/><path d="M660,-180L660,-60L780,-180Z" fill="#ffa268" stroke="#ffa268" stroke-width="1.51"/><path d="M540,1260L660,1260L660,1140Z" fill="#d188ab" stroke="#d188ab" stroke-width="1.51"/><path d="M540,1140L540,1260L660,1140Z" fill="#d794a9" stroke="#d794a9" stroke-width="1.51"/><path d="M540,1140L660,1140L660,1020Z" fill="#e083a7" stroke="#e083a7" stroke-width="1.51"/><path d="M540,1020L540,1140L660,1020Z" fill="#e393a1" stroke="#e393a1" stroke-width="1.51"/><path d="M540,1020L660,1020L660,900Z" fill="#e9869c" stroke="#e9869c" stroke-width="1.51"/><path d="M540,900L540,1020L660,900Z" fill="#e2a29b" stroke="#e2a29b" stroke-width="1.51"/><path d="M540,900L660,900L660,780Z" fill="#cfb0a3" stroke="#cfb0a3" stroke-width="1.51"/><path d="M540,780L540,900L660,780Z" fill="#c1caa3" stroke="#c1caa3" stroke-width="1.51"/><path d="M540,780L660,780L660,660Z" fill="#ccd185" stroke="#ccd185" stroke-width="1.51"/><path d="M540,660L540,780L660,660Z" fill="#d0e766" stroke="#d0e766" stroke-width="1.51"/><path d="M540,660L660,660L660,540Z" fill="#e0e92f" stroke="#e0e92f" stroke-width="1.51"/><path d="M540,540L540,660L660,540Z" fill="#e8e136" stroke="#e8e136" stroke-width="1.51"/><path d="M540,540L660,540L660,420Z" fill="#fba956" stroke="#fba956" stroke-width="1.51"/><path d="M540,420L540,540L660,420Z" fill="#ffa059" stroke="#ffa059" stroke-width="1.51"/><path d="M540,420L660,420L660,300Z" fill="#feb650" stroke="#feb650" stroke-width="1.51"/><path d="M540,300L540,420L660,300Z" fill="#fbda3c" stroke="#fbda3c" stroke-width="1.51"/><path d="M540,300L660,300L660,180Z" fill="#f1eb3f" stroke="#f1eb3f" stroke-width="1.51"/><path d="M540,180L540,300L660,180Z" fill="#e3f955" stroke="#e3f955" stroke-width="1.51"/><path d="M540,180L660,180L660,60Z" fill="#ceec8b" stroke="#ceec8b" stroke-width="1.51"/><path d="M540,60L540,180L660,60Z" fill="#c0f694" stroke="#c0f694" stroke-width="1.51"/><path d="M540,60L660,60L660,-60Z" fill="#e9c764" stroke="#e9c764" stroke-width="1.51"/><path d="M540,-60L540,60L660,-60Z" fill="#f4c341" stroke="#f4c341" stroke-width="1.51"/><path d="M540,-60L660,-60L660,-180Z" fill="#ffae40" stroke="#ffae40" stroke-width="1.51"/><path d="M540,-180L540,-60L660,-180Z" fill="#fccd58" stroke="#fccd58" stroke-width="1.51"/><path d="M420,1260L540,1260L540,1140Z" fill="#c19fba" stroke="#c19fba" stroke-width="1.51"/><path d="M420,1140L420,1260L540,1140Z" fill="#be9dc6" stroke="#be9dc6" stroke-width="1.51"/><path d="M420,1140L540,1140L540,1020Z" fill="#d29bb5" stroke="#d29bb5" stroke-width="1.51"/><path d="M420,1020L420,1140L540,1020Z" fill="#cc9dbe" stroke="#cc9dbe" stroke-width="1.51"/><path d="M420,1020L540,1020L540,900Z" fill="#dc9eaa" stroke="#dc9eaa" stroke-width="1.51"/><path d="M420,900L420,1020L540,900Z" fill="#cbabb9" stroke="#cbabb9" stroke-width="1.51"/><path d="M420,900L540,900L540,780Z" fill="#bdc4b2" stroke="#bdc4b2" stroke-width="1.51"/><path d="M420,780L420,900L540,780Z" fill="#a2d1c1" stroke="#a2d1c1" stroke-width="1.51"/><path d="M420,780L540,780L540,660Z" fill="#b8e494" stroke="#b8e494" stroke-width="1.51"/><path d="M420,660L420,780L540,660Z" fill="#b6ee89" stroke="#b6ee89" stroke-width="1.51"/><path d="M420,660L540,660L540,540Z" fill="#cefc42" stroke="#cefc42" stroke-width="1.51"/><path d="M420,540L420,660L540,540Z" fill="#d4e861" stroke="#d4e861" stroke-width="1.51"/><path d="M420,540L540,540L540,420Z" fill="#efbe64" stroke="#efbe64" stroke-width="1.51"/><path d="M420,420L420,540L540,420Z" fill="#f0a979" stroke="#f0a979" stroke-width="1.51"/><path d="M420,420L540,420L540,300Z" fill="#f2cc5e" stroke="#f2cc5e" stroke-width="1.51"/><path d="M420,300L420,420L540,300Z" fill="#e9e164" stroke="#e9e164" stroke-width="1.51"/><path d="M420,300L540,300L540,180Z" fill="#e1ff50" stroke="#e1ff50" stroke-width="1.51"/><path d="M420,180L420,300L540,180Z" fill="#ccff7b" stroke="#ccff7b" stroke-width="1.51"/><path d="M420,180L540,180L540,60Z" fill="#b7ff9a" stroke="#b7ff9a" stroke-width="1.51"/><path d="M420,60L420,180L540,60Z" fill="#9efcb5" stroke="#9efcb5" stroke-width="1.51"/><path d="M420,60L540,60L540,-60Z" fill="#dadb72" stroke="#dadb72" stroke-width="1.51"/><path d="M420,-60L420,60L540,-60Z" fill="#e2cb66" stroke="#e2cb66" stroke-width="1.51"/><path d="M420,-60L540,-60L540,-180Z" fill="#f3c34e" stroke="#f3c34e" stroke-width="1.51"/><path d="M420,-180L420,-60L540,-180Z" fill="#ead47a" stroke="#ead47a" stroke-width="1.51"/><path d="M300,1260L420,1260L420,1140Z" fill="#9ba2df" stroke="#9ba2df" stroke-width="1.51"/><path d="M300,1140L300,1260L420,1140Z" fill="#95a0eb" stroke="#95a0eb" stroke-width="1.51"/><path d="M300,1140L420,1140L420,1020Z" fill="#b19eda" stroke="#b19eda" stroke-width="1.51"/><path d="M300,1020L300,1140L420,1020Z" fill="#a8a0e3" stroke="#a8a0e3" stroke-width="1.51"/><path d="M300,1020L420,1020L420,900Z" fill="#bea1cf" stroke="#bea1cf" stroke-width="1.51"/><path d="M300,900L300,1020L420,900Z" fill="#a7adde" stroke="#a7adde" stroke-width="1.51"/><path d="M300,900L420,900L420,780Z" fill="#96c6d8" stroke="#96c6d8" stroke-width="1.51"/><path d="M300,780L300,900L420,780Z" fill="#6bd2e8" stroke="#6bd2e8" stroke-width="1.51"/><path d="M300,780L420,780L420,660Z" fill="#92e5bb" stroke="#92e5bb" stroke-width="1.51"/><path d="M300,660L300,780L420,660Z" fill="#92eeb2" stroke="#92eeb2" stroke-width="1.51"/><path d="M300,660L420,660L420,540Z" fill="#b4fc77" stroke="#b4fc77" stroke-width="1.51"/><path d="M300,540L300,660L420,540Z" fill="#bae88d" stroke="#bae88d" stroke-width="1.51"/><path d="M300,540L420,540L420,420Z" fill="#dac08d" stroke="#dac08d" stroke-width="1.51"/><path d="M300,420L300,540L420,420Z" fill="#daab9f" stroke="#daab9f" stroke-width="1.51"/><path d="M300,420L420,420L420,300Z" fill="#dccd89" stroke="#dccd89" stroke-width="1.51"/><path d="M300,300L300,420L420,300Z" fill="#d1e190" stroke="#d1e190" stroke-width="1.51"/><path d="M300,300L420,300L420,180Z" fill="#c7ff82" stroke="#c7ff82" stroke-width="1.51"/><path d="M300,180L300,300L420,180Z" fill="#acffa7" stroke="#acffa7" stroke-width="1.51"/><path d="M300,180L420,180L420,60Z" fill="#8dffc3" stroke="#8dffc3" stroke-width="1.51"/><path d="M300,60L300,180L420,60Z" fill="#63fcdd" stroke="#63fcdd" stroke-width="1.51"/><path d="M300,60L420,60L420,-60Z" fill="#bfdc9c" stroke="#bfdc9c" stroke-width="1.51"/><path d="M300,-60L300,60L420,-60Z" fill="#cbcb8f" stroke="#cbcb8f" stroke-width="1.51"/><path d="M300,-60L420,-60L420,-180Z" fill="#dfc47a" stroke="#dfc47a" stroke-width="1.51"/><path d="M300,-180L300,-60L420,-180Z" fill="#d0d5a3" stroke="#d0d5a3" stroke-width="1.51"/><path d="M180,1260L300,1260L300,1140Z" fill="#899aeb" stroke="#899aeb" stroke-width="1.51"/><path d="M180,1140L180,1260L300,1140Z" fill="#a68bdb" stroke="#a68bdb" stroke-width="1.51"/><path d="M180,1140L300,1140L300,1020Z" fill="#a196e7" stroke="#a196e7" stroke-width="1.51"/><path d="M180,1020L180,1140L300,1020Z" fill="#b78bd3" stroke="#b78bd3" stroke-width="1.51"/><path d="M180,1020L300,1020L300,900Z" fill="#b099dc" stroke="#b099dc" stroke-width="1.51"/><path d="M180,900L180,1020L300,900Z" fill="#b698ce" stroke="#b698ce" stroke-width="1.51"/><path d="M180,900L300,900L300,780Z" fill="#84bee5" stroke="#84bee5" stroke-width="1.51"/><path d="M180,780L180,900L300,780Z" fill="#8abfd8" stroke="#8abfd8" stroke-width="1.51"/><path d="M180,780L300,780L300,660Z" fill="#83dcc9" stroke="#83dcc9" stroke-width="1.51"/><path d="M180,660L180,780L300,660Z" fill="#a7dba3" stroke="#a7dba3" stroke-width="1.51"/><path d="M180,660L300,660L300,540Z" fill="#acf388" stroke="#acf388" stroke-width="1.51"/><path d="M180,540L180,660L300,540Z" fill="#c8d57f" stroke="#c8d57f" stroke-width="1.51"/><path d="M180,540L300,540L300,420Z" fill="#d1b79b" stroke="#d1b79b" stroke-width="1.51"/><path d="M180,420L180,540L300,420Z" fill="#e29590" stroke="#e29590" stroke-width="1.51"/><path d="M180,420L300,420L300,300Z" fill="#d3c498" stroke="#d3c498" stroke-width="1.51"/><path d="M180,300L180,420L300,300Z" fill="#dcce81" stroke="#dcce81" stroke-width="1.51"/><path d="M180,300L300,300L300,180Z" fill="#bff693" stroke="#bff693" stroke-width="1.51"/><path d="M180,180L180,300L300,180Z" fill="#bfec97" stroke="#bfec97" stroke-width="1.51"/><path d="M180,180L300,180L300,60Z" fill="#7df6d2" stroke="#7df6d2" stroke-width="1.51"/><path d="M180,60L180,180L300,60Z" fill="#89eacd" stroke="#89eacd" stroke-width="1.51"/><path d="M180,60L300,60L300,-60Z" fill="#b5d4aa" stroke="#b5d4aa" stroke-width="1.51"/><path d="M180,-60L180,60L300,-60Z" fill="#d5b781" stroke="#d5b781" stroke-width="1.51"/><path d="M180,-60L300,-60L300,-180Z" fill="#d7bc89" stroke="#d7bc89" stroke-width="1.51"/><path d="M180,-180L180,-60L300,-180Z" fill="#dcc194" stroke="#dcc194" stroke-width="1.51"/><path d="M60,1260L180,1260L180,1140Z" fill="#bb74ba" stroke="#bb74ba" stroke-width="1.51"/><path d="M60,1140L60,1260L180,1140Z" fill="#cd61ab" stroke="#cd61ab" stroke-width="1.51"/><path d="M60,1140L180,1140L180,1020Z" fill="#cb6eb7" stroke="#cb6eb7" stroke-width="1.51"/><path d="M60,1020L60,1140L180,1020Z" fill="#d85fa3" stroke="#d85fa3" stroke-width="1.51"/><path d="M60,1020L180,1020L180,900Z" fill="#d570ac" stroke="#d570ac" stroke-width="1.51"/><path d="M60,900L60,1020L180,900Z" fill="#d8709e" stroke="#d8709e" stroke-width="1.51"/><path d="M60,900L180,900L180,780Z" fill="#bc9bb4" stroke="#bc9bb4" stroke-width="1.51"/><path d="M60,780L60,900L180,780Z" fill="#be9da7" stroke="#be9da7" stroke-width="1.51"/><path d="M60,780L180,780L180,660Z" fill="#bbbc98" stroke="#bbbc98" stroke-width="1.51"/><path d="M60,660L60,780L180,660Z" fill="#cfbb71" stroke="#cfbb71" stroke-width="1.51"/><path d="M60,660L180,660L180,540Z" fill="#d3d352" stroke="#d3d352" stroke-width="1.51"/><path d="M60,540L60,660L180,540Z" fill="#e5b34a" stroke="#e5b34a" stroke-width="1.51"/><path d="M60,540L180,540L180,420Z" fill="#ec936b" stroke="#ec936b" stroke-width="1.51"/><path d="M60,420L60,540L180,420Z" fill="#f76b62" stroke="#f76b62" stroke-width="1.51"/><path d="M60,420L180,420L180,300Z" fill="#efa167" stroke="#efa167" stroke-width="1.51"/><path d="M60,300L60,420L180,300Z" fill="#f6ab4e" stroke="#f6ab4e" stroke-width="1.51"/><path d="M60,300L180,300L180,180Z" fill="#e4d65e" stroke="#e4d65e" stroke-width="1.51"/><path d="M60,180L60,300L180,180Z" fill="#e3cb63" stroke="#e3cb63" stroke-width="1.51"/><path d="M60,180L180,180L180,60Z" fill="#bdd69f" stroke="#bdd69f" stroke-width="1.51"/><path d="M60,60L60,180L180,60Z" fill="#c2c99b" stroke="#c2c99b" stroke-width="1.51"/><path d="M60,60L180,60L180,-60Z" fill="#dab279" stroke="#dab279" stroke-width="1.51"/><path d="M60,-60L60,60L180,-60Z" fill="#ee9450" stroke="#ee9450" stroke-width="1.51"/><path d="M60,-60L180,-60L180,-180Z" fill="#f09859" stroke="#f09859" stroke-width="1.51"/><path d="M60,-180L60,-60L180,-180Z" fill="#f69d63" stroke="#f69d63" stroke-width="1.51"/><path d="M-60,1260L60,1260L60,1140Z" fill="#d54891" stroke="#d54891" stroke-width="1.51"/><path d="M-60,1140L-60,1260L60,1140Z" fill="#d853a1" stroke="#d853a1" stroke-width="1.51"/><path d="M-60,1140L60,1140L60,1020Z" fill="#e23c8d" stroke="#e23c8d" stroke-width="1.51"/><path d="M-60,1020L-60,1140L60,1020Z" fill="#e3509a" stroke="#e3509a" stroke-width="1.51"/><path d="M-60,1020L60,1020L60,900Z" fill="#ea4083" stroke="#ea4083" stroke-width="1.51"/><path d="M-60,900L-60,1020L60,900Z" fill="#e36395" stroke="#e36395" stroke-width="1.51"/><path d="M-60,900L60,900L60,780Z" fill="#d87a8a" stroke="#d87a8a" stroke-width="1.51"/><path d="M-60,780L-60,900L60,780Z" fill="#cb949d" stroke="#cb949d" stroke-width="1.51"/><path d="M-60,780L60,780L60,660Z" fill="#d89e6d" stroke="#d89e6d" stroke-width="1.51"/><path d="M-60,660L-60,780L60,660Z" fill="#dbb267" stroke="#dbb267" stroke-width="1.51"/><path d="M-60,660L60,660L60,540Z" fill="#eab60e" stroke="#eab60e" stroke-width="1.51"/><path d="M-60,540L-60,660L60,540Z" fill="#f0ab3f" stroke="#f0ab3f" stroke-width="1.51"/><path d="M-60,540L60,540L60,420Z" fill="#fc6e41" stroke="#fc6e41" stroke-width="1.51"/><path d="M-60,420L-60,540L60,420Z" fill="#ff5d59" stroke="#ff5d59" stroke-width="1.51"/><path d="M-60,420L60,420L60,300Z" fill="#ff7d3b" stroke="#ff7d3b" stroke-width="1.51"/><path d="M-60,300L-60,420L60,300Z" fill="#ffa143" stroke="#ffa143" stroke-width="1.51"/><path d="M-60,300L60,300L60,180Z" fill="#fab826" stroke="#fab826" stroke-width="1.51"/><path d="M-60,180L-60,300L60,180Z" fill="#efc359" stroke="#efc359" stroke-width="1.51"/><path d="M-60,180L60,180L60,60Z" fill="#deb973" stroke="#deb973" stroke-width="1.51"/><path d="M-60,60L-60,180L60,60Z" fill="#d1c191" stroke="#d1c191" stroke-width="1.51"/><path d="M-60,60L60,60L60,-60Z" fill="#ef924d" stroke="#ef924d" stroke-width="1.51"/><path d="M-60,-60L-60,60L60,-60Z" fill="#f78946" stroke="#f78946" stroke-width="1.51"/><path d="M-60,-60L60,-60L60,-180Z" fill="#ff732b" stroke="#ff732b" stroke-width="1.51"/><path d="M-60,-180L-60,-60L60,-180Z" fill="#ff9359" stroke="#ff9359" stroke-width="1.51"/><path d="M-180,1260L-60,1260L-60,1140Z" fill="#cb73c3" stroke="#cb73c3" stroke-width="1.51"/><path d="M-180,1140L-180,1260L-60,1140Z" fill="#d07cd4" stroke="#d07cd4" stroke-width="1.51"/><path d="M-180,1140L-60,1140L-60,1020Z" fill="#db6cbf" stroke="#db6cbf" stroke-width="1.51"/><path d="M-180,1020L-180,1140L-60,1020Z" fill="#dd7bcd" stroke="#dd7bcd" stroke-width="1.51"/><path d="M-180,1020L-60,1020L-60,900Z" fill="#e56fb4" stroke="#e56fb4" stroke-width="1.51"/><path d="M-180,900L-180,1020L-60,900Z" fill="#dd8bc8" stroke="#dd8bc8" stroke-width="1.51"/><path d="M-180,900L-60,900L-60,780Z" fill="#cc9cbc" stroke="#cc9cbc" stroke-width="1.51"/><path d="M-180,780L-180,900L-60,780Z" fill="#bdb5d1" stroke="#bdb5d1" stroke-width="1.51"/><path d="M-180,780L-60,780L-60,660Z" fill="#cdbea0" stroke="#cdbea0" stroke-width="1.51"/><path d="M-180,660L-180,780L-60,660Z" fill="#d4d39c" stroke="#d4d39c" stroke-width="1.51"/><path d="M-180,660L-60,660L-60,540Z" fill="#e5d65c" stroke="#e5d65c" stroke-width="1.51"/><path d="M-180,540L-180,660L-60,540Z" fill="#eecc77" stroke="#eecc77" stroke-width="1.51"/><path d="M-180,540L-60,540L-60,420Z" fill="#fc9373" stroke="#fc9373" stroke-width="1.51"/><path d="M-180,420L-180,540L-60,420Z" fill="#ff868a" stroke="#ff868a" stroke-width="1.51"/><path d="M-180,420L-60,420L-60,300Z" fill="#ffa16f" stroke="#ffa16f" stroke-width="1.51"/><path d="M-180,300L-180,420L-60,300Z" fill="#ffc37a" stroke="#ffc37a" stroke-width="1.51"/><path d="M-180,300L-60,300L-60,180Z" fill="#f5d868" stroke="#f5d868" stroke-width="1.51"/><path d="M-180,180L-180,300L-60,180Z" fill="#e9e490" stroke="#e9e490" stroke-width="1.51"/><path d="M-180,180L-60,180L-60,60Z" fill="#d0d9a8" stroke="#d0d9a8" stroke-width="1.51"/><path d="M-180,60L-180,180L-60,60Z" fill="#c1e2c6" stroke="#c1e2c6" stroke-width="1.51"/><path d="M-180,60L-60,60L-60,-60Z" fill="#eab381" stroke="#eab381" stroke-width="1.51"/><path d="M-180,-60L-180,60L-60,-60Z" fill="#f8ac7a" stroke="#f8ac7a" stroke-width="1.51"/><path d="M-180,-60L-60,-60L-60,-180Z" fill="#ff9861" stroke="#ff9861" stroke-width="1.51"/><path d="M-180,-180L-180,-60L-60,-180Z" fill="#ffb68d" stroke="#ffb68d" stroke-width="1.51"/></svg>