<svg xmlns="http://www.w3.org/2000/svg" width="1920" height="1080"><path d="M1957,1395L2242,1395L2242,1110Z" fill="#552c86" stroke="#552c86" stroke-width="1.51"/><path d="M1957,1110L1957,1395L2242,1110Z" fill="#674897" stroke="#674897" stroke-width="1.51"/><path d="M1957,1110L2242,1110L2242,825Z" fill="#775ba0" stroke="#775ba0" stroke-width="1.51"/><path d="M1957,825L1957,1110L2242,825Z" fill="#8a71b1" stroke="#8a71b1" stroke-width="1.51"/><path d="M1957,825L2242,825L2242,540Z" fill="#947bb4" stroke="#947bb4" stroke-width="1.51"/><path d="M1957,540L1957,825L2242,540Z" fill="#a38cbf" stroke="#a38cbf" stroke-width="1.51"/><path d="M1957,540L2242,540L2242,255Z" fill="#a683ac" stroke="#a683ac" stroke-width="1.51"/><path d="M1957,255L1957,540L2242,255Z" fill="#b088a5" stroke="#b088a5" stroke-width="1.51"/><path d="M1957,255L2242,255L2242,-30Z" fill="#ab6b7a" stroke="#ab6b7a" stroke-width="1.51"/><path d="M1957,-30L1957,255L2242,-30Z" fill="#af6972" stroke="#af6972" stroke-width="1.51"/><path d="M1957,-30L2242,-30L2242,-315Z" fill="#994854" stroke="#994854" stroke-width="1.51"/><path d="M1957,-315L1957,-30L2242,-315Z" fill="#964856" stroke="#964856" stroke-width="1.51"/><path d="M1672,1395L1957,1395L1957,1110Z" fill="#6b4f9b" stroke="#6b4f9b" stroke-width="1.51"/><path d="M1672,1110L1672,1395L1957,1110Z" fill="#7d6ba9" stroke="#7d6ba9" stroke-width="1.51"/><path d="M1672,1110L1957,1110L1957,825Z" fill="#8c7eb4" stroke="#8c7eb4" stroke-width="1.51"/><path d="M1672,825L1672,1110L1957,825Z" fill="#9f95c3" stroke="#9f95c3" stroke-width="1.51"/><path d="M1672,825L1957,825L1957,540Z" fill="#a99fc9" stroke="#a99fc9" stroke-width="1.51"/><path d="M1672,540L1672,825L1957,540Z" fill="#b8b1d1" stroke="#b8b1d1" stroke-width="1.51"/><path d="M1672,540L1957,540L1957,255Z" fill="#bba7c0" stroke="#bba7c0" stroke-width="1.51"/><path d="M1672,255L1672,540L1957,255Z" fill="#c5adb7" stroke="#c5adb7" stroke-width="1.51"/><path d="M1672,255L1957,255L1957,-30Z" fill="#c1908c" stroke="#c1908c" stroke-width="1.51"/><path d="M1672,-30L1672,255L1957,-30Z" fill="#c58e81" stroke="#c58e81" stroke-width="1.51"/><path d="M1672,-30L1957,-30L1957,-315Z" fill="#b06c65" stroke="#b06c65" stroke-width="1.51"/><path d="M1672,-315L1672,-30L1957,-315Z" fill="#ad6e65" stroke="#ad6e65" stroke-width="1.51"/><path d="M1387,1395L1672,1395L1672,1110Z" fill="#846bad" stroke="#846bad" stroke-width="1.51"/><path d="M1387,1110L1387,1395L1672,1110Z" fill="#9586bb" stroke="#9586bb" stroke-width="1.51"/><path d="M1387,1110L1672,1110L1672,825Z" fill="#a49bc7" stroke="#a49bc7" stroke-width="1.51"/><path d="M1387,825L1387,1110L1672,825Z" fill="#b7b1d5" stroke="#b7b1d5" stroke-width="1.51"/><path d="M1387,825L1672,825L1672,540Z" fill="#c1bedc" stroke="#c1bedc" stroke-width="1.51"/><path d="M1387,540L1387,825L1672,540Z" fill="#d0cee4" stroke="#d0cee4" stroke-width="1.51"/><path d="M1387,540L1672,540L1672,255Z" fill="#d4c6d2" stroke="#d4c6d2" stroke-width="1.51"/><path d="M1387,255L1387,540L1672,255Z" fill="#ddcac8" stroke="#ddcac8" stroke-width="1.51"/><path d="M1387,255L1672,255L1672,-30Z" fill="#daae9e" stroke="#daae9e" stroke-width="1.51"/><path d="M1387,-30L1387,255L1672,-30Z" fill="#deab91" stroke="#deab91" stroke-width="1.51"/><path d="M1387,-30L1672,-30L1672,-315Z" fill="#c98b75" stroke="#c98b75" stroke-width="1.51"/><path d="M1387,-315L1387,-30L1672,-315Z" fill="#c58974" stroke="#c58974" stroke-width="1.51"/><path d="M1102,1395L1387,1395L1387,1110Z" fill="#9982bb" stroke="#9982bb" stroke-width="1.51"/><path d="M1102,1110L1102,1395L1387,1110Z" fill="#a89ac6" stroke="#a89ac6" stroke-width="1.51"/><path d="M1102,1110L1387,1110L1387,825Z" fill="#b8b3d5" stroke="#b8b3d5" stroke-width="1.51"/><path d="M1102,825L1102,1110L1387,825Z" fill="#c9c7e0" stroke="#c9c7e0" stroke-width="1.51"/><path d="M1102,825L1387,825L1387,540Z" fill="#d5d6e9" stroke="#d5d6e9" stroke-width="1.51"/><path d="M1102,540L1102,825L1387,540Z" fill="#e3e4ef" stroke="#e3e4ef" stroke-width="1.51"/><path d="M1102,540L1387,540L1387,255Z" fill="#e8dfe0" stroke="#e8dfe0" stroke-width="1.51"/><path d="M1102,255L1102,540L1387,255Z" fill="#efe0d3" stroke="#efe0d3" stroke-width="1.51"/><path d="M1102,255L1387,255L1387,-30Z" fill="#eec7aa" stroke="#eec7aa" stroke-width="1.51"/><path d="M1102,-30L1102,255L1387,-30Z" fill="#f0c19b" stroke="#f0c19b" stroke-width="1.51"/><path d="M1102,-30L1387,-30L1387,-315Z" fill="#dda280" stroke="#dda280" stroke-width="1.51"/><path d="M1102,-315L1102,-30L1387,-315Z" fill="#d79e7e" stroke="#d79e7e" stroke-width="1.51"/><path d="M817,1395L1102,1395L1102,1110Z" fill="#a890c2" stroke="#a890c2" stroke-width="1.51"/><path d="M817,1110L817,1395L1102,1110Z" fill="#b6a4c6" stroke="#b6a4c6" stroke-width="1.51"/><path d="M817,1110L1102,1110L1102,825Z" fill="#c8c3dc" stroke="#c8c3dc" stroke-width="1.51"/><path d="M817,825L817,1110L1102,825Z" fill="#d8d0e0" stroke="#d8d0e0" stroke-width="1.51"/><path d="M817,825L1102,825L1102,540Z" fill="#e6e6f1" stroke="#e6e6f1" stroke-width="1.51"/><path d="M817,540L817,825L1102,540Z" fill="#f1eeef" stroke="#f1eeef" stroke-width="1.51"/><path d="M817,540L1102,540L1102,255Z" fill="#f7efe6" stroke="#f7efe6" stroke-width="1.51"/><path d="M817,255L817,540L1102,255Z" fill="#fcead2" stroke="#fcead2" stroke-width="1.51"/><path d="M817,255L1102,255L1102,-30Z" fill="#fdd7b0" stroke="#fdd7b0" stroke-width="1.51"/><path d="M817,-30L817,255L1102,-30Z" fill="#fcca9a" stroke="#fcca9a" stroke-width="1.51"/><path d="M817,-30L1102,-30L1102,-315Z" fill="#ecb286" stroke="#ecb286" stroke-width="1.51"/><path d="M817,-315L817,-30L1102,-315Z" fill="#e3a87d" stroke="#e3a87d" stroke-width="1.51"/><path d="M532,1395L817,1395L817,1110Z" fill="#af8aaa" stroke="#af8aaa" stroke-width="1.51"/><path d="M532,1110L532,1395L817,1110Z" fill="#bb97a6" stroke="#bb97a6" stroke-width="1.51"/><path d="M532,1110L817,1110L817,825Z" fill="#cfbcc3" stroke="#cfbcc3" stroke-width="1.51"/><path d="M532,825L532,1110L817,825Z" fill="#ddc4bf" stroke="#ddc4bf" stroke-width="1.51"/><path d="M532,825L817,825L817,540Z" fill="#ecdfd7" stroke="#ecdfd7" stroke-width="1.51"/><path d="M532,540L532,825L817,540Z" fill="#f5e1cc" stroke="#f5e1cc" stroke-width="1.51"/><path d="M532,540L817,540L817,255Z" fill="#fde8cc" stroke="#fde8cc" stroke-width="1.51"/><path d="M532,255L532,540L817,255Z" fill="#ffddb0" stroke="#ffddb0" stroke-width="1.51"/><path d="M532,255L817,255L817,-30Z" fill="#ffd096" stroke="#ffd096" stroke-width="1.51"/><path d="M532,-30L532,255L817,-30Z" fill="#fbbe79" stroke="#fbbe79" stroke-width="1.51"/><path d="M532,-30L817,-30L817,-315Z" fill="#ecab6d" stroke="#ecab6d" stroke-width="1.51"/><path d="M532,-315L532,-30L817,-315Z" fill="#e09c5c" stroke="#e09c5c" stroke-width="1.51"/><path d="M247,1395L532,1395L532,1110Z" fill="#b37785" stroke="#b37785" stroke-width="1.51"/><path d="M247,1110L247,1395L532,1110Z" fill="#bc8280" stroke="#bc8280" stroke-width="1.51"/><path d="M247,1110L532,1110L532,825Z" fill="#d4a99c" stroke="#d4a99c" stroke-width="1.51"/><path d="M247,825L247,1110L532,825Z" fill="#dfaf98" stroke="#dfaf98" stroke-width="1.51"/><path d="M247,825L532,825L532,540Z" fill="#f1cdaf" stroke="#f1cdaf" stroke-width="1.51"/><path d="M247,540L247,825L532,540Z" fill="#f7cca4" stroke="#f7cca4" stroke-width="1.51"/><path d="M247,540L532,540L532,255Z" fill="#ffd5a4" stroke="#ffd5a4" stroke-width="1.51"/><path d="M247,255L247,540L532,255Z" fill="#fec888" stroke="#fec888" stroke-width="1.51"/><path d="M247,255L532,255L532,-30Z" fill="#febd6e" stroke="#febd6e" stroke-width="1.51"/><path d="M247,-30L247,255L532,-30Z" fill="#f6a950" stroke="#f6a950" stroke-width="1.51"/><path d="M247,-30L532,-30L532,-315Z" fill="#e99944" stroke="#e99944" stroke-width="1.51"/><path d="M247,-315L247,-30L532,-315Z" fill="#da8733" stroke="#da8733" stroke-width="1.51"/><path d="M-38,1395L247,1395L247,1110Z" fill="#aa5e64" stroke="#aa5e64" stroke-width="1.51"/><path d="M-38,1110L-38,1395L247,1110Z" fill="#af6964" stroke="#af6964" stroke-width="1.51"/><path d="M-38,1110L247,1110L247,825Z" fill="#cc8f7a" stroke="#cc8f7a" stroke-width="1.51"/><path d="M-38,825L-38,1110L247,825Z" fill="#d2957a" stroke="#d2957a" stroke-width="1.51"/><path d="M-38,825L247,825L247,540Z" fill="#e9b28b" stroke="#e9b28b" stroke-width="1.51"/><path d="M-38,540L-38,825L247,540Z" fill="#eab186" stroke="#eab186" stroke-width="1.51"/><path d="M-38,540L247,540L247,255Z" fill="#f7bb81" stroke="#f7bb81" stroke-width="1.51"/><path d="M-38,255L-38,540L247,255Z" fill="#f0ad6a" stroke="#f0ad6a" stroke-width="1.51"/><path d="M-38,255L247,255L247,-30Z" fill="#f2a34a" stroke="#f2a34a" stroke-width="1.51"/><path d="M-38,-30L-38,255L247,-30Z" fill="#e68f30" stroke="#e68f30" stroke-width="1.51"/><path d="M-38,-30L247,-30L247,-315Z" fill="#db7f1b" stroke="#db7f1b" stroke-width="1.51"/><path d="M-38,-315L-38,-30L247,-315Z" fill="#c96d0d" stroke="#c96d0d" stroke-width="1.51"/><path d="M-323,1395L-38,1395L-38,1110Z" fill="#964857" stroke="#964857" stroke-width="1.51"/><path d="M-323,1110L-323,1395L-38,1110Z" fill="#99555b" stroke="#99555b" stroke-width="1.51"/><path d="M-323,1110L-38,1110L-38,825Z" fill="#b87a6c" stroke="#b87a6c" stroke-width="1.51"/><path d="M-323,825L-323,1110L-38,825Z" fill="#bb8071" stroke="#bb8071" stroke-width="1.51"/><path d="M-323,825L-38,825L-38,540Z" fill="#d59c7d" stroke="#d59c7d" stroke-width="1.51"/><path d="M-323,540L-323,825L-38,540Z" fill="#d39c7d" stroke="#d39c7d" stroke-width="1.51"/><path d="M-323,540L-38,540L-38,255Z" fill="#e2a473" stroke="#e2a473" stroke-width="1.51"/><path d="M-323,255L-323,540L-38,255Z" fill="#d89962" stroke="#d89962" stroke-width="1.51"/><path d="M-323,255L-38,255L-38,-30Z" fill="#dd8d3d" stroke="#dd8d3d" stroke-width="1.51"/><path d="M-323,-30L-323,255L-38,-30Z" fill="#ce7a29" stroke="#ce7a29" stroke-width="1.51"/><path d="M-323,-30L-38,-30L-38,-315Z" fill="#c5690b" stroke="#c5690b" stroke-width="1.51"/><path d="M-323,-315L-323,-30L-38,-315Z" fill="#b25907" stroke="#b25907" stroke-width="1.51"/></svg>