<svg xmlns="http://www.w3.org/2000/svg" width="1920" height="1080"><path d="M1980,1260L2100,1260L2100,1140Z" fill="#ff004a" stroke="#ff004a" stroke-width="1.51"/><path d="M1980,1140L1980,1260L2100,1140Z" fill="#ff0135" stroke="#ff0135" stroke-width="1.51"/><path d="M1980,1140L2100,1140L2100,1020Z" fill="#ff0e33" stroke="#ff0e33" stroke-width="1.51"/><path d="M1980,1020L1980,1140L2100,1020Z" fill="#ff162b" stroke="#ff162b" stroke-width="1.51"/><path d="M1980,1020L2100,1020L2100,900Z" fill="#ff2034" stroke="#ff2034" stroke-width="1.51"/><path d="M1980,900L1980,1020L2100,900Z" fill="#ff262c" stroke="#ff262c" stroke-width="1.51"/><path d="M1980,900L2100,900L2100,780Z" fill="#ff2f35" stroke="#ff2f35" stroke-width="1.51"/><path d="M1980,780L1980,900L2100,780Z" fill="#ff332c" stroke="#ff332c" stroke-width="1.51"/><path d="M1980,780L2100,780L2100,660Z" fill="#ff3f36" stroke="#ff3f36" stroke-width="1.51"/><path d="M1980,660L1980,780L2100,660Z" fill="#ff452e" stroke="#ff452e" stroke-width="1.51"/><path d="M1980,660L2100,660L2100,540Z" fill="#ff5038" stroke="#ff5038" stroke-width="1.51"/><path d="M1980,540L1980,660L2100,540Z" fill="#ff5730" stroke="#ff5730" stroke-width="1.51"/><path d="M1980,540L2100,540L2100,420Z" fill="#ff643b" stroke="#ff643b" stroke-width="1.51"/><path d="M1980,420L1980,540L2100,420Z" fill="#ff6a32" stroke="#ff6a32" stroke-width="1.51"/><path d="M1980,420L2100,420L2100,300Z" fill="#ff703d" stroke="#ff703d" stroke-width="1.51"/><path d="M1980,300L1980,420L2100,300Z" fill="#ff7233" stroke="#ff7233" stroke-width="1.51"/><path d="M1980,300L2100,300L2100,180Z" fill="#ff783e" stroke="#ff783e" stroke-width="1.51"/><path d="M1980,180L1980,300L2100,180Z" fill="#ff7c35" stroke="#ff7c35" stroke-width="1.51"/><path d="M1980,180L2100,180L2100,60Z" fill="#ff8440" stroke="#ff8440" stroke-width="1.51"/><path d="M1980,60L1980,180L2100,60Z" fill="#ff8736" stroke="#ff8736" stroke-width="1.51"/><path d="M1980,60L2100,60L2100,-60Z" fill="#ff9342" stroke="#ff9342" stroke-width="1.51"/><path d="M1980,-60L1980,60L2100,-60Z" fill="#ff9939" stroke="#ff9939" stroke-width="1.51"/><path d="M1980,-60L2100,-60L2100,-180Z" fill="#ffa044" stroke="#ffa044" stroke-width="1.51"/><path d="M1980,-180L1980,-60L2100,-180Z" fill="#ffa13a" stroke="#ffa13a" stroke-width="1.51"/><path d="M1860,1260L1980,1260L1980,1140Z" fill="#ff0131" stroke="#ff0131" stroke-width="1.51"/><path d="M1860,1140L1860,1260L1980,1140Z" fill="#ff0318" stroke="#ff0318" stroke-width="1.51"/><path d="M1860,1140L1980,1140L1980,1020Z" fill="#ff1015" stroke="#ff1015" stroke-width="1.51"/><path d="M1860,1020L1860,1140L1980,1020Z" fill="#ff1803" stroke="#ff1803" stroke-width="1.51"/><path d="M1860,1020L1980,1020L1980,900Z" fill="#ff2115" stroke="#ff2115" stroke-width="1.51"/><path d="M1860,900L1860,1020L1980,900Z" fill="#ff2703" stroke="#ff2703" stroke-width="1.51"/><path d="M1860,900L1980,900L1980,780Z" fill="#ff3016" stroke="#ff3016" stroke-width="1.51"/><path d="M1860,780L1860,900L1980,780Z" fill="#ff3303" stroke="#ff3303" stroke-width="1.51"/><path d="M1860,780L1980,780L1980,660Z" fill="#ff3f17" stroke="#ff3f17" stroke-width="1.51"/><path d="M1860,660L1860,780L1980,660Z" fill="#ff4503" stroke="#ff4503" stroke-width="1.51"/><path d="M1860,660L1980,660L1980,540Z" fill="#ff5017" stroke="#ff5017" stroke-width="1.51"/><path d="M1860,540L1860,660L1980,540Z" fill="#ff5702" stroke="#ff5702" stroke-width="1.51"/><path d="M1860,540L1980,540L1980,420Z" fill="#ff6419" stroke="#ff6419" stroke-width="1.51"/><path d="M1860,420L1860,540L1980,420Z" fill="#ff6a01" stroke="#ff6a01" stroke-width="1.51"/><path d="M1860,420L1980,420L1980,300Z" fill="#ff7019" stroke="#ff7019" stroke-width="1.51"/><path d="M1860,300L1860,420L1980,300Z" fill="#ff7201" stroke="#ff7201" stroke-width="1.51"/><path d="M1860,300L1980,300L1980,180Z" fill="#ff781a" stroke="#ff781a" stroke-width="1.51"/><path d="M1860,180L1860,300L1980,180Z" fill="#ff7c00" stroke="#ff7c00" stroke-width="1.51"/><path d="M1860,180L1980,180L1980,60Z" fill="#ff831a" stroke="#ff831a" stroke-width="1.51"/><path d="M1860,60L1860,180L1980,60Z" fill="#ff8700" stroke="#ff8700" stroke-width="1.51"/><path d="M1860,60L1980,60L1980,-60Z" fill="#ff931b" stroke="#ff931b" stroke-width="1.51"/><path d="M1860,-60L1860,60L1980,-60Z" fill="#ff9900" stroke="#ff9900" stroke-width="1.51"/><path d="M1860,-60L1980,-60L1980,-180Z" fill="#ffa01c" stroke="#ffa01c" stroke-width="1.51"/><path d="M1860,-180L1860,-60L1980,-180Z" fill="#ffa100" stroke="#ffa100" stroke-width="1.51"/><path d="M1740,1260L1860,1260L1860,1140Z" fill="#ff0f27" stroke="#ff0f27" stroke-width="1.51"/><path d="M1740,1140L1740,1260L1860,1140Z" fill="#ff1516" stroke="#ff1516" stroke-width="1.51"/><path d="M1740,1140L1860,1140L1860,1020Z" fill="#ff1900" stroke="#ff1900" stroke-width="1.51"/><path d="M1740,1020L1740,1140L1860,1020Z" fill="#ff2200" stroke="#ff2200" stroke-width="1.51"/><path d="M1740,1020L1860,1020L1860,900Z" fill="#ff2700" stroke="#ff2700" stroke-width="1.51"/><path d="M1740,900L1740,1020L1860,900Z" fill="#ff2e00" stroke="#ff2e00" stroke-width="1.51"/><path d="M1740,900L1860,900L1860,780Z" fill="#ff3400" stroke="#ff3400" stroke-width="1.51"/><path d="M1740,780L1740,900L1860,780Z" fill="#ff3900" stroke="#ff3900" stroke-width="1.51"/><path d="M1740,780L1860,780L1860,660Z" fill="#ff4200" stroke="#ff4200" stroke-width="1.51"/><path d="M1740,660L1740,780L1860,660Z" fill="#ff4900" stroke="#ff4900" stroke-width="1.51"/><path d="M1740,660L1860,660L1860,540Z" fill="#ff5200" stroke="#ff5200" stroke-width="1.51"/><path d="M1740,540L1740,660L1860,540Z" fill="#ff5a00" stroke="#ff5a00" stroke-width="1.51"/><path d="M1740,540L1860,540L1860,420Z" fill="#ff6600" stroke="#ff6600" stroke-width="1.51"/><path d="M1740,420L1740,540L1860,420Z" fill="#ff6d00" stroke="#ff6d00" stroke-width="1.51"/><path d="M1740,420L1860,420L1860,300Z" fill="#ff7200" stroke="#ff7200" stroke-width="1.51"/><path d="M1740,300L1740,420L1860,300Z" fill="#ff7500" stroke="#ff7500" stroke-width="1.51"/><path d="M1740,300L1860,300L1860,180Z" fill="#ff7a00" stroke="#ff7a00" stroke-width="1.51"/><path d="M1740,180L1740,300L1860,180Z" fill="#ff7f00" stroke="#ff7f00" stroke-width="1.51"/><path d="M1740,180L1860,180L1860,60Z" fill="#ff8500" stroke="#ff8500" stroke-width="1.51"/><path d="M1740,60L1740,180L1860,60Z" fill="#ff8a00" stroke="#ff8a00" stroke-width="1.51"/><path d="M1740,60L1860,60L1860,-60Z" fill="#ff9500" stroke="#ff9500" stroke-width="1.51"/><path d="M1740,-60L1740,60L1860,-60Z" fill="#ff9b00" stroke="#ff9b00" stroke-width="1.51"/><path d="M1740,-60L1860,-60L1860,-180Z" fill="#ffa100" stroke="#ffa100" stroke-width="1.51"/><path d="M1740,-180L1740,-60L1860,-180Z" fill="#ffa300" stroke="#ffa300" stroke-width="1.51"/><path d="M1620,1260L1740,1260L1740,1140Z" fill="#ff1c27" stroke="#ff1c27" stroke-width="1.51"/><path d="M1620,1140L1620,1260L1740,1140Z" fill="#ff2017" stroke="#ff2017" stroke-width="1.51"/><path d="M1620,1140L1740,1140L1740,1020Z" fill="#ff2200" stroke="#ff2200" stroke-width="1.51"/><path d="M1620,1020L1620,1140L1740,1020Z" fill="#ff2900" stroke="#ff2900" stroke-width="1.51"/><path d="M1620,1020L1740,1020L1740,900Z" fill="#ff2e00" stroke="#ff2e00" stroke-width="1.51"/><path d="M1620,900L1620,1020L1740,900Z" fill="#ff3400" stroke="#ff3400" stroke-width="1.51"/><path d="M1620,900L1740,900L1740,780Z" fill="#ff3900" stroke="#ff3900" stroke-width="1.51"/><path d="M1620,780L1620,900L1740,780Z" fill="#ff3e00" stroke="#ff3e00" stroke-width="1.51"/><path d="M1620,780L1740,780L1740,660Z" fill="#ff4600" stroke="#ff4600" stroke-width="1.51"/><path d="M1620,660L1620,780L1740,660Z" fill="#ff4e00" stroke="#ff4e00" stroke-width="1.51"/><path d="M1620,660L1740,660L1740,540Z" fill="#ff5600" stroke="#ff5600" stroke-width="1.51"/><path d="M1620,540L1620,660L1740,540Z" fill="#ff5e00" stroke="#ff5e00" stroke-width="1.51"/><path d="M1620,540L1740,540L1740,420Z" fill="#ff6900" stroke="#ff6900" stroke-width="1.51"/><path d="M1620,420L1620,540L1740,420Z" fill="#ff7000" stroke="#ff7000" stroke-width="1.51"/><path d="M1620,420L1740,420L1740,300Z" fill="#ff7500" stroke="#ff7500" stroke-width="1.51"/><path d="M1620,300L1620,420L1740,300Z" fill="#ff7800" stroke="#ff7800" stroke-width="1.51"/><path d="M1620,300L1740,300L1740,180Z" fill="#ff7d00" stroke="#ff7d00" stroke-width="1.51"/><path d="M1620,180L1620,300L1740,180Z" fill="#ff8100" stroke="#ff8100" stroke-width="1.51"/><path d="M1620,180L1740,180L1740,60Z" fill="#ff8800" stroke="#ff8800" stroke-width="1.51"/><path d="M1620,60L1620,180L1740,60Z" fill="#ff8d00" stroke="#ff8d00" stroke-width="1.51"/><path d="M1620,60L1740,60L1740,-60Z" fill="#ff9700" stroke="#ff9700" stroke-width="1.51"/><path d="M1620,-60L1620,60L1740,-60Z" fill="#ff9e00" stroke="#ff9e00" stroke-width="1.51"/><path d="M1620,-60L1740,-60L1740,-180Z" fill="#ffa400" stroke="#ffa400" stroke-width="1.51"/><path d="M1620,-180L1620,-60L1740,-180Z" fill="#ffa600" stroke="#ffa600" stroke-width="1.51"/><path d="M1500,1260L1620,1260L1620,1140Z" fill="#ff2628" stroke="#ff2628" stroke-width="1.51"/><path d="M1500,1140L1500,1260L1620,1140Z" fill="#ff2917" stroke="#ff2917" stroke-width="1.51"/><path d="M1500,1140L1620,1140L1620,1020Z" fill="#ff2b00" stroke="#ff2b00" stroke-width="1.51"/><path d="M1500,1020L1500,1140L1620,1020Z" fill="#ff3100" stroke="#ff3100" stroke-width="1.51"/><path d="M1500,1020L1620,1020L1620,900Z" fill="#ff3500" stroke="#ff3500" stroke-width="1.51"/><path d="M1500,900L1500,1020L1620,900Z" fill="#ff3a00" stroke="#ff3a00" stroke-width="1.51"/><path d="M1500,900L1620,900L1620,780Z" fill="#ff3f00" stroke="#ff3f00" stroke-width="1.51"/><path d="M1500,780L1500,900L1620,780Z" fill="#ff4300" stroke="#ff4300" stroke-width="1.51"/><path d="M1500,780L1620,780L1620,660Z" fill="#ff4b00" stroke="#ff4b00" stroke-width="1.51"/><path d="M1500,660L1500,780L1620,660Z" fill="#ff5200" stroke="#ff5200" stroke-width="1.51"/><path d="M1500,660L1620,660L1620,540Z" fill="#ff5a00" stroke="#ff5a00" stroke-width="1.51"/><path d="M1500,540L1500,660L1620,540Z" fill="#ff6200" stroke="#ff6200" stroke-width="1.51"/><path d="M1500,540L1620,540L1620,420Z" fill="#ff6d00" stroke="#ff6d00" stroke-width="1.51"/><path d="M1500,420L1500,540L1620,420Z" fill="#ff7300" stroke="#ff7300" stroke-width="1.51"/><path d="M1500,420L1620,420L1620,300Z" fill="#ff7800" stroke="#ff7800" stroke-width="1.51"/><path d="M1500,300L1500,420L1620,300Z" fill="#ff7c00" stroke="#ff7c00" stroke-width="1.51"/><path d="M1500,300L1620,300L1620,180Z" fill="#ff8000" stroke="#ff8000" stroke-width="1.51"/><path d="M1500,180L1500,300L1620,180Z" fill="#ff8500" stroke="#ff8500" stroke-width="1.51"/><path d="M1500,180L1620,180L1620,60Z" fill="#ff8b00" stroke="#ff8b00" stroke-width="1.51"/><path d="M1500,60L1500,180L1620,60Z" fill="#ff9000" stroke="#ff9000" stroke-width="1.51"/><path d="M1500,60L1620,60L1620,-60Z" fill="#ff9a00" stroke="#ff9a00" stroke-width="1.51"/><path d="M1500,-60L1500,60L1620,-60Z" fill="#ffa100" stroke="#ffa100" stroke-width="1.51"/><path d="M1500,-60L1620,-60L1620,-180Z" fill="#ffa700" stroke="#ffa700" stroke-width="1.51"/><path d="M1500,-180L1500,-60L1620,-180Z" fill="#ffa800" stroke="#ffa800" stroke-width="1.51"/><path d="M1380,1260L1500,1260L1500,1140Z" fill="#ff2e29" stroke="#ff2e29" stroke-width="1.51"/><path d="M1380,1140L1380,1260L1500,1140Z" fill="#ff3217" stroke="#ff3217" stroke-width="1.51"/><path d="M1380,1140L1500,1140L1500,1020Z" fill="#ff3300" stroke="#ff3300" stroke-width="1.51"/><path d="M1380,1020L1380,1140L1500,1020Z" fill="#ff3800" stroke="#ff3800" stroke-width="1.51"/><path d="M1380,1020L1500,1020L1500,900Z" fill="#ff3b00" stroke="#ff3b00" stroke-width="1.51"/><path d="M1380,900L1380,1020L1500,900Z" fill="#ff4000" stroke="#ff4000" stroke-width="1.51"/><path d="M1380,900L1500,900L1500,780Z" fill="#ff4500" stroke="#ff4500" stroke-width="1.51"/><path d="M1380,780L1380,900L1500,780Z" fill="#ff4900" stroke="#ff4900" stroke-width="1.51"/><path d="M1380,780L1500,780L1500,660Z" fill="#ff5000" stroke="#ff5000" stroke-width="1.51"/><path d="M1380,660L1380,780L1500,660Z" fill="#ff5700" stroke="#ff5700" stroke-width="1.51"/><path d="M1380,660L1500,660L1500,540Z" fill="#ff5e00" stroke="#ff5e00" stroke-width="1.51"/><path d="M1380,540L1380,660L1500,540Z" fill="#ff6600" stroke="#ff6600" stroke-width="1.51"/><path d="M1380,540L1500,540L1500,420Z" fill="#ff7100" stroke="#ff7100" stroke-width="1.51"/><path d="M1380,420L1380,540L1500,420Z" fill="#ff7700" stroke="#ff7700" stroke-width="1.51"/><path d="M1380,420L1500,420L1500,300Z" fill="#ff7c00" stroke="#ff7c00" stroke-width="1.51"/><path d="M1380,300L1380,420L1500,300Z" fill="#ff7f00" stroke="#ff7f00" stroke-width="1.51"/><path d="M1380,300L1500,300L1500,180Z" fill="#ff8400" stroke="#ff8400" stroke-width="1.51"/><path d="M1380,180L1380,300L1500,180Z" fill="#ff8800" stroke="#ff8800" stroke-width="1.51"/><path d="M1380,180L1500,180L1500,60Z" fill="#ff8e00" stroke="#ff8e00" stroke-width="1.51"/><path d="M1380,60L1380,180L1500,60Z" fill="#ff9300" stroke="#ff9300" stroke-width="1.51"/><path d="M1380,60L1500,60L1500,-60Z" fill="#ff9d00" stroke="#ff9d00" stroke-width="1.51"/><path d="M1380,-60L1380,60L1500,-60Z" fill="#ffa400" stroke="#ffa400" stroke-width="1.51"/><path d="M1380,-60L1500,-60L1500,-180Z" fill="#ffaa00" stroke="#ffaa00" stroke-width="1.51"/><path d="M1380,-180L1380,-60L1500,-180Z" fill="#ffac00" stroke="#ffac00" stroke-width="1.51"/><path d="M1260,1260L1380,1260L1380,1140Z" fill="#ff3729" stroke="#ff3729" stroke-width="1.51"/><path d="M1260,1140L1260,1260L1380,1140Z" fill="#ff3b18" stroke="#ff3b18" stroke-width="1.51"/><path d="M1260,1140L1380,1140L1380,1020Z" fill="#ff3b00" stroke="#ff3b00" stroke-width="1.51"/><path d="M1260,1020L1260,1140L1380,1020Z" fill="#ff4100" stroke="#ff4100" stroke-width="1.51"/><path d="M1260,1020L1380,1020L1380,900Z" fill="#ff4200" stroke="#ff4200" stroke-width="1.51"/><path d="M1260,900L1260,1020L1380,900Z" fill="#ff4800" stroke="#ff4800" stroke-width="1.51"/><path d="M1260,900L1380,900L1380,780Z" fill="#ff4b00" stroke="#ff4b00" stroke-width="1.51"/><path d="M1260,780L1260,900L1380,780Z" fill="#ff5000" stroke="#ff5000" stroke-width="1.51"/><path d="M1260,780L1380,780L1380,660Z" fill="#ff5600" stroke="#ff5600" stroke-width="1.51"/><path d="M1260,660L1260,780L1380,660Z" fill="#ff5d00" stroke="#ff5d00" stroke-width="1.51"/><path d="M1260,660L1380,660L1380,540Z" fill="#ff6300" stroke="#ff6300" stroke-width="1.51"/><path d="M1260,540L1260,660L1380,540Z" fill="#ff6c00" stroke="#ff6c00" stroke-width="1.51"/><path d="M1260,540L1380,540L1380,420Z" fill="#ff7500" stroke="#ff7500" stroke-width="1.51"/><path d="M1260,420L1260,540L1380,420Z" fill="#ff7c00" stroke="#ff7c00" stroke-width="1.51"/><path d="M1260,420L1380,420L1380,300Z" fill="#ff8000" stroke="#ff8000" stroke-width="1.51"/><path d="M1260,300L1260,420L1380,300Z" fill="#ff8400" stroke="#ff8400" stroke-width="1.51"/><path d="M1260,300L1380,300L1380,180Z" fill="#ff8800" stroke="#ff8800" stroke-width="1.51"/><path d="M1260,180L1260,300L1380,180Z" fill="#ff8d00" stroke="#ff8d00" stroke-width="1.51"/><path d="M1260,180L1380,180L1380,60Z" fill="#ff9200" stroke="#ff9200" stroke-width="1.51"/><path d="M1260,60L1260,180L1380,60Z" fill="#ff9800" stroke="#ff9800" stroke-width="1.51"/><path d="M1260,60L1380,60L1380,-60Z" fill="#ffa100" stroke="#ffa100" stroke-width="1.51"/><path d="M1260,-60L1260,60L1380,-60Z" fill="#ffa800" stroke="#ffa800" stroke-width="1.51"/><path d="M1260,-60L1380,-60L1380,-180Z" fill="#ffad00" stroke="#ffad00" stroke-width="1.51"/><path d="M1260,-180L1260,-60L1380,-180Z" fill="#ffb000" stroke="#ffb000" stroke-width="1.51"/><path d="M1140,1260L1260,1260L1260,1140Z" fill="#ff432a" stroke="#ff432a" stroke-width="1.51"/><path d="M1140,1140L1140,1260L1260,1140Z" fill="#ff4718" stroke="#ff4718" stroke-width="1.51"/><path d="M1140,1140L1260,1140L1260,1020Z" fill="#ff4700" stroke="#ff4700" stroke-width="1.51"/><path d="M1140,1020L1140,1140L1260,1020Z" fill="#ff4c00" stroke="#ff4c00" stroke-width="1.51"/><path d="M1140,1020L1260,1020L1260,900Z" fill="#ff4d00" stroke="#ff4d00" stroke-width="1.51"/><path d="M1140,900L1140,1020L1260,900Z" fill="#ff5200" stroke="#ff5200" stroke-width="1.51"/><path d="M1140,900L1260,900L1260,780Z" fill="#ff5500" stroke="#ff5500" stroke-width="1.51"/><path d="M1140,780L1140,900L1260,780Z" fill="#ff5900" stroke="#ff5900" stroke-width="1.51"/><path d="M1140,780L1260,780L1260,660Z" fill="#ff5f00" stroke="#ff5f00" stroke-width="1.51"/><path d="M1140,660L1140,780L1260,660Z" fill="#ff6600" stroke="#ff6600" stroke-width="1.51"/><path d="M1140,660L1260,660L1260,540Z" fill="#ff6b00" stroke="#ff6b00" stroke-width="1.51"/><path d="M1140,540L1140,660L1260,540Z" fill="#ff7300" stroke="#ff7300" stroke-width="1.51"/><path d="M1140,540L1260,540L1260,420Z" fill="#ff7c00" stroke="#ff7c00" stroke-width="1.51"/><path d="M1140,420L1140,540L1260,420Z" fill="#ff8300" stroke="#ff8300" stroke-width="1.51"/><path d="M1140,420L1260,420L1260,300Z" fill="#ff8700" stroke="#ff8700" stroke-width="1.51"/><path d="M1140,300L1140,420L1260,300Z" fill="#ff8b00" stroke="#ff8b00" stroke-width="1.51"/><path d="M1140,300L1260,300L1260,180Z" fill="#ff8e00" stroke="#ff8e00" stroke-width="1.51"/><path d="M1140,180L1140,300L1260,180Z" fill="#ff9400" stroke="#ff9400" stroke-width="1.51"/><path d="M1140,180L1260,180L1260,60Z" fill="#ff9900" stroke="#ff9900" stroke-width="1.51"/><path d="M1140,60L1140,180L1260,60Z" fill="#ff9e00" stroke="#ff9e00" stroke-width="1.51"/><path d="M1140,60L1260,60L1260,-60Z" fill="#ffa700" stroke="#ffa700" stroke-width="1.51"/><path d="M1140,-60L1140,60L1260,-60Z" fill="#ffaf00" stroke="#ffaf00" stroke-width="1.51"/><path d="M1140,-60L1260,-60L1260,-180Z" fill="#ffb400" stroke="#ffb400" stroke-width="1.51"/><path d="M1140,-180L1140,-60L1260,-180Z" fill="#ffb600" stroke="#ffb600" stroke-width="1.51"/><path d="M1020,1260L1140,1260L1140,1140Z" fill="#ff4e2b" stroke="#ff4e2b" stroke-width="1.51"/><path d="M1020,1140L1020,1260L1140,1140Z" fill="#ff5219" stroke="#ff5219" stroke-width="1.51"/><path d="M1020,1140L1140,1140L1140,1020Z" fill="#ff5000" stroke="#ff5000" stroke-width="1.51"/><path d="M1020,1020L1020,1140L1140,1020Z" fill="#ff5700" stroke="#ff5700" stroke-width="1.51"/><path d="M1020,1020L1140,1020L1140,900Z" fill="#ff5600" stroke="#ff5600" stroke-width="1.51"/><path d="M1020,900L1020,1020L1140,900Z" fill="#ff5c00" stroke="#ff5c00" stroke-width="1.51"/><path d="M1020,900L1140,900L1140,780Z" fill="#ff5d00" stroke="#ff5d00" stroke-width="1.51"/><path d="M1020,780L1020,900L1140,780Z" fill="#ff6300" stroke="#ff6300" stroke-width="1.51"/><path d="M1020,780L1140,780L1140,660Z" fill="#ff6600" stroke="#ff6600" stroke-width="1.51"/><path d="M1020,660L1020,780L1140,660Z" fill="#ff6e00" stroke="#ff6e00" stroke-width="1.51"/><path d="M1020,660L1140,660L1140,540Z" fill="#ff7300" stroke="#ff7300" stroke-width="1.51"/><path d="M1020,540L1020,660L1140,540Z" fill="#ff7c00" stroke="#ff7c00" stroke-width="1.51"/><path d="M1020,540L1140,540L1140,420Z" fill="#ff8300" stroke="#ff8300" stroke-width="1.51"/><path d="M1020,420L1020,540L1140,420Z" fill="#ff8b00" stroke="#ff8b00" stroke-width="1.51"/><path d="M1020,420L1140,420L1140,300Z" fill="#ff8d00" stroke="#ff8d00" stroke-width="1.51"/><path d="M1020,300L1020,420L1140,300Z" fill="#ff9200" stroke="#ff9200" stroke-width="1.51"/><path d="M1020,300L1140,300L1140,180Z" fill="#ff9500" stroke="#ff9500" stroke-width="1.51"/><path d="M1020,180L1020,300L1140,180Z" fill="#ff9b00" stroke="#ff9b00" stroke-width="1.51"/><path d="M1020,180L1140,180L1140,60Z" fill="#ff9f00" stroke="#ff9f00" stroke-width="1.51"/><path d="M1020,60L1020,180L1140,60Z" fill="#ffa500" stroke="#ffa500" stroke-width="1.51"/><path d="M1020,60L1140,60L1140,-60Z" fill="#ffad00" stroke="#ffad00" stroke-width="1.51"/><path d="M1020,-60L1020,60L1140,-60Z" fill="#ffb600" stroke="#ffb600" stroke-width="1.51"/><path d="M1020,-60L1140,-60L1140,-180Z" fill="#ffb900" stroke="#ffb900" stroke-width="1.51"/><path d="M1020,-180L1020,-60L1140,-180Z" fill="#ffbd00" stroke="#ffbd00" stroke-width="1.51"/><path d="M900,1260L1020,1260L1020,1140Z" fill="#ff5b2d" stroke="#ff5b2d" stroke-width="1.51"/><path d="M900,1140L900,1260L1020,1140Z" fill="#ff601a" stroke="#ff601a" stroke-width="1.51"/><path d="M900,1140L1020,1140L1020,1020Z" fill="#ff5e00" stroke="#ff5e00" stroke-width="1.51"/><path d="M900,1020L900,1140L1020,1020Z" fill="#ff6400" stroke="#ff6400" stroke-width="1.51"/><path d="M900,1020L1020,1020L1020,900Z" fill="#ff6300" stroke="#ff6300" stroke-width="1.51"/><path d="M900,900L900,1020L1020,900Z" fill="#ff6900" stroke="#ff6900" stroke-width="1.51"/><path d="M900,900L1020,900L1020,780Z" fill="#ff6900" stroke="#ff6900" stroke-width="1.51"/><path d="M900,780L900,900L1020,780Z" fill="#ff6f00" stroke="#ff6f00" stroke-width="1.51"/><path d="M900,780L1020,780L1020,660Z" fill="#ff7200" stroke="#ff7200" stroke-width="1.51"/><path d="M900,660L900,780L1020,660Z" fill="#ff7900" stroke="#ff7900" stroke-width="1.51"/><path d="M900,660L1020,660L1020,540Z" fill="#ff7d00" stroke="#ff7d00" stroke-width="1.51"/><path d="M900,540L900,660L1020,540Z" fill="#ff8600" stroke="#ff8600" stroke-width="1.51"/><path d="M900,540L1020,540L1020,420Z" fill="#ff8d00" stroke="#ff8d00" stroke-width="1.51"/><path d="M900,420L900,540L1020,420Z" fill="#ff9500" stroke="#ff9500" stroke-width="1.51"/><path d="M900,420L1020,420L1020,300Z" fill="#ff9700" stroke="#ff9700" stroke-width="1.51"/><path d="M900,300L900,420L1020,300Z" fill="#ff9c00" stroke="#ff9c00" stroke-width="1.51"/><path d="M900,300L1020,300L1020,180Z" fill="#ff9e00" stroke="#ff9e00" stroke-width="1.51"/><path d="M900,180L900,300L1020,180Z" fill="#ffa500" stroke="#ffa500" stroke-width="1.51"/><path d="M900,180L1020,180L1020,60Z" fill="#ffa800" stroke="#ffa800" stroke-width="1.51"/><path d="M900,60L900,180L1020,60Z" fill="#ffaf00" stroke="#ffaf00" stroke-width="1.51"/><path d="M900,60L1020,60L1020,-60Z" fill="#ffb600" stroke="#ffb600" stroke-width="1.51"/><path d="M900,-60L900,60L1020,-60Z" fill="#ffbf00" stroke="#ffbf00" stroke-width="1.51"/><path d="M900,-60L1020,-60L1020,-180Z" fill="#ffc200" stroke="#ffc200" stroke-width="1.51"/><path d="M900,-180L900,-60L1020,-180Z" fill="#ffc600" stroke="#ffc600" stroke-width="1.51"/><path d="M780,1260L900,1260L900,1140Z" fill="#ff682e" stroke="#ff682e" stroke-width="1.51"/><path d="M780,1140L780,1260L900,1140Z" fill="#ff6b1b" stroke="#ff6b1b" stroke-width="1.51"/><path d="M780,1140L900,1140L900,1020Z" fill="#ff6a00" stroke="#ff6a00" stroke-width="1.51"/><path d="M780,1020L780,1140L900,1020Z" fill="#ff6f00" stroke="#ff6f00" stroke-width="1.51"/><path d="M780,1020L900,1020L900,900Z" fill="#ff6f00" stroke="#ff6f00" stroke-width="1.51"/><path d="M780,900L780,1020L900,900Z" fill="#ff7300" stroke="#ff7300" stroke-width="1.51"/><path d="M780,900L900,900L900,780Z" fill="#ff7500" stroke="#ff7500" stroke-width="1.51"/><path d="M780,780L780,900L900,780Z" fill="#ff7900" stroke="#ff7900" stroke-width="1.51"/><path d="M780,780L900,780L900,660Z" fill="#ff7d00" stroke="#ff7d00" stroke-width="1.51"/><path d="M780,660L780,780L900,660Z" fill="#ff8300" stroke="#ff8300" stroke-width="1.51"/><path d="M780,660L900,660L900,540Z" fill="#ff8800" stroke="#ff8800" stroke-width="1.51"/><path d="M780,540L780,660L900,540Z" fill="#ff8f00" stroke="#ff8f00" stroke-width="1.51"/><path d="M780,540L900,540L900,420Z" fill="#ff9700" stroke="#ff9700" stroke-width="1.51"/><path d="M780,420L780,540L900,420Z" fill="#ff9e00" stroke="#ff9e00" stroke-width="1.51"/><path d="M780,420L900,420L900,300Z" fill="#ffa100" stroke="#ffa100" stroke-width="1.51"/><path d="M780,300L780,420L900,300Z" fill="#ffa500" stroke="#ffa500" stroke-width="1.51"/><path d="M780,300L900,300L900,180Z" fill="#ffa800" stroke="#ffa800" stroke-width="1.51"/><path d="M780,180L780,300L900,180Z" fill="#ffad00" stroke="#ffad00" stroke-width="1.51"/><path d="M780,180L900,180L900,60Z" fill="#ffb100" stroke="#ffb100" stroke-width="1.51"/><path d="M780,60L780,180L900,60Z" fill="#ffb700" stroke="#ffb700" stroke-width="1.51"/><path d="M780,60L900,60L900,-60Z" fill="#ffc000" stroke="#ffc000" stroke-width="1.51"/><path d="M780,-60L780,60L900,-60Z" fill="#ffc700" stroke="#ffc700" stroke-width="1.51"/><path d="M780,-60L900,-60L900,-180Z" fill="#ffcb00" stroke="#ffcb00" stroke-width="1.51"/><path d="M780,-180L780,-60L900,-180Z" fill="#ffce00" stroke="#ffce00" stroke-width="1.51"/><path d="M660,1260L780,1260L780,1140Z" fill="#ff6f2f" stroke="#ff6f2f" stroke-width="1.51"/><path d="M660,1140L660,1260L780,1140Z" fill="#ff701b" stroke="#ff701b" stroke-width="1.51"/><path d="M660,1140L780,1140L780,1020Z" fill="#ff7100" stroke="#ff7100" stroke-width="1.51"/><path d="M660,1020L660,1140L780,1020Z" fill="#ff7400" stroke="#ff7400" stroke-width="1.51"/><path d="M660,1020L780,1020L780,900Z" fill="#ff7500" stroke="#ff7500" stroke-width="1.51"/><path d="M660,900L660,1020L780,900Z" fill="#ff7900" stroke="#ff7900" stroke-width="1.51"/><path d="M660,900L780,900L780,780Z" fill="#ff7b00" stroke="#ff7b00" stroke-width="1.51"/><path d="M660,780L660,900L780,780Z" fill="#ff7e00" stroke="#ff7e00" stroke-width="1.51"/><path d="M660,780L780,780L780,660Z" fill="#ff8300" stroke="#ff8300" stroke-width="1.51"/><path d="M660,660L660,780L780,660Z" fill="#ff8800" stroke="#ff8800" stroke-width="1.51"/><path d="M660,660L780,660L780,540Z" fill="#ff8d00" stroke="#ff8d00" stroke-width="1.51"/><path d="M660,540L660,660L780,540Z" fill="#ff9400" stroke="#ff9400" stroke-width="1.51"/><path d="M660,540L780,540L780,420Z" fill="#ff9d00" stroke="#ff9d00" stroke-width="1.51"/><path d="M660,420L660,540L780,420Z" fill="#ffa300" stroke="#ffa300" stroke-width="1.51"/><path d="M660,420L780,420L780,300Z" fill="#ffa600" stroke="#ffa600" stroke-width="1.51"/><path d="M660,300L660,420L780,300Z" fill="#ffaa00" stroke="#ffaa00" stroke-width="1.51"/><path d="M660,300L780,300L780,180Z" fill="#ffad00" stroke="#ffad00" stroke-width="1.51"/><path d="M660,180L660,300L780,180Z" fill="#ffb200" stroke="#ffb200" stroke-width="1.51"/><path d="M660,180L780,180L780,60Z" fill="#ffb700" stroke="#ffb700" stroke-width="1.51"/><path d="M660,60L660,180L780,60Z" fill="#ffbc00" stroke="#ffbc00" stroke-width="1.51"/><path d="M660,60L780,60L780,-60Z" fill="#ffc500" stroke="#ffc500" stroke-width="1.51"/><path d="M660,-60L660,60L780,-60Z" fill="#ffcb00" stroke="#ffcb00" stroke-width="1.51"/><path d="M660,-60L780,-60L780,-180Z" fill="#ffd100" stroke="#ffd100" stroke-width="1.51"/><path d="M660,-180L660,-60L780,-180Z" fill="#fed300" stroke="#fed300" stroke-width="1.51"/><path d="M540,1260L660,1260L660,1140Z" fill="#ff7430" stroke="#ff7430" stroke-width="1.51"/><path d="M540,1140L540,1260L660,1140Z" fill="#ff761b" stroke="#ff761b" stroke-width="1.51"/><path d="M540,1140L660,1140L660,1020Z" fill="#ff7600" stroke="#ff7600" stroke-width="1.51"/><path d="M540,1020L540,1140L660,1020Z" fill="#ff7900" stroke="#ff7900" stroke-width="1.51"/><path d="M540,1020L660,1020L660,900Z" fill="#ff7a00" stroke="#ff7a00" stroke-width="1.51"/><path d="M540,900L540,1020L660,900Z" fill="#ff7e00" stroke="#ff7e00" stroke-width="1.51"/><path d="M540,900L660,900L660,780Z" fill="#ff8000" stroke="#ff8000" stroke-width="1.51"/><path d="M540,780L540,900L660,780Z" fill="#ff8300" stroke="#ff8300" stroke-width="1.51"/><path d="M540,780L660,780L660,660Z" fill="#ff8800" stroke="#ff8800" stroke-width="1.51"/><path d="M540,660L540,780L660,660Z" fill="#ff8d00" stroke="#ff8d00" stroke-width="1.51"/><path d="M540,660L660,660L660,540Z" fill="#ff9200" stroke="#ff9200" stroke-width="1.51"/><path d="M540,540L540,660L660,540Z" fill="#ff9900" stroke="#ff9900" stroke-width="1.51"/><path d="M540,540L660,540L660,420Z" fill="#ffa100" stroke="#ffa100" stroke-width="1.51"/><path d="M540,420L540,540L660,420Z" fill="#ffa700" stroke="#ffa700" stroke-width="1.51"/><path d="M540,420L660,420L660,300Z" fill="#ffab00" stroke="#ffab00" stroke-width="1.51"/><path d="M540,300L540,420L660,300Z" fill="#ffae00" stroke="#ffae00" stroke-width="1.51"/><path d="M540,300L660,300L660,180Z" fill="#ffb200" stroke="#ffb200" stroke-width="1.51"/><path d="M540,180L540,300L660,180Z" fill="#ffb600" stroke="#ffb600" stroke-width="1.51"/><path d="M540,180L660,180L660,60Z" fill="#ffbb00" stroke="#ffbb00" stroke-width="1.51"/><path d="M540,60L540,180L660,60Z" fill="#ffc000" stroke="#ffc000" stroke-width="1.51"/><path d="M540,60L660,60L660,-60Z" fill="#ffc900" stroke="#ffc900" stroke-width="1.51"/><path d="M540,-60L540,60L660,-60Z" fill="#ffd000" stroke="#ffd000" stroke-width="1.51"/><path d="M540,-60L660,-60L660,-180Z" fill="#ffd500" stroke="#ffd500" stroke-width="1.51"/><path d="M540,-180L540,-60L660,-180Z" fill="#fed700" stroke="#fed700" stroke-width="1.51"/><path d="M420,1260L540,1260L540,1140Z" fill="#ff7a30" stroke="#ff7a30" stroke-width="1.51"/><path d="M420,1140L420,1260L540,1140Z" fill="#ff7c1c" stroke="#ff7c1c" stroke-width="1.51"/><path d="M420,1140L540,1140L540,1020Z" fill="#ff7c00" stroke="#ff7c00" stroke-width="1.51"/><path d="M420,1020L420,1140L540,1020Z" fill="#ff8000" stroke="#ff8000" stroke-width="1.51"/><path d="M420,1020L540,1020L540,900Z" fill="#ff8000" stroke="#ff8000" stroke-width="1.51"/><path d="M420,900L420,1020L540,900Z" fill="#ff8400" stroke="#ff8400" stroke-width="1.51"/><path d="M420,900L540,900L540,780Z" fill="#ff8600" stroke="#ff8600" stroke-width="1.51"/><path d="M420,780L420,900L540,780Z" fill="#ff8900" stroke="#ff8900" stroke-width="1.51"/><path d="M420,780L540,780L540,660Z" fill="#ff8d00" stroke="#ff8d00" stroke-width="1.51"/><path d="M420,660L420,780L540,660Z" fill="#ff9300" stroke="#ff9300" stroke-width="1.51"/><path d="M420,660L540,660L540,540Z" fill="#ff9800" stroke="#ff9800" stroke-width="1.51"/><path d="M420,540L420,660L540,540Z" fill="#ff9f00" stroke="#ff9f00" stroke-width="1.51"/><path d="M420,540L540,540L540,420Z" fill="#ffa600" stroke="#ffa600" stroke-width="1.51"/><path d="M420,420L420,540L540,420Z" fill="#ffad00" stroke="#ffad00" stroke-width="1.51"/><path d="M420,420L540,420L540,300Z" fill="#ffb000" stroke="#ffb000" stroke-width="1.51"/><path d="M420,300L420,420L540,300Z" fill="#ffb400" stroke="#ffb400" stroke-width="1.51"/><path d="M420,300L540,300L540,180Z" fill="#ffb700" stroke="#ffb700" stroke-width="1.51"/><path d="M420,180L420,300L540,180Z" fill="#ffbc00" stroke="#ffbc00" stroke-width="1.51"/><path d="M420,180L540,180L540,60Z" fill="#ffc000" stroke="#ffc000" stroke-width="1.51"/><path d="M420,60L420,180L540,60Z" fill="#ffc600" stroke="#ffc600" stroke-width="1.51"/><path d="M420,60L540,60L540,-60Z" fill="#ffce00" stroke="#ffce00" stroke-width="1.51"/><path d="M420,-60L420,60L540,-60Z" fill="#ffd500" stroke="#ffd500" stroke-width="1.51"/><path d="M420,-60L540,-60L540,-180Z" fill="#ffda00" stroke="#ffda00" stroke-width="1.51"/><path d="M420,-180L420,-60L540,-180Z" fill="#fddc00" stroke="#fddc00" stroke-width="1.51"/><path d="M300,1260L420,1260L420,1140Z" fill="#ff8131" stroke="#ff8131" stroke-width="1.51"/><path d="M300,1140L300,1260L420,1140Z" fill="#ff831c" stroke="#ff831c" stroke-width="1.51"/><path d="M300,1140L420,1140L420,1020Z" fill="#ff8300" stroke="#ff8300" stroke-width="1.51"/><path d="M300,1020L300,1140L420,1020Z" fill="#ff8600" stroke="#ff8600" stroke-width="1.51"/><path d="M300,1020L420,1020L420,900Z" fill="#ff8700" stroke="#ff8700" stroke-width="1.51"/><path d="M300,900L300,1020L420,900Z" fill="#ff8b00" stroke="#ff8b00" stroke-width="1.51"/><path d="M300,900L420,900L420,780Z" fill="#ff8c00" stroke="#ff8c00" stroke-width="1.51"/><path d="M300,780L300,900L420,780Z" fill="#ff9000" stroke="#ff9000" stroke-width="1.51"/><path d="M300,780L420,780L420,660Z" fill="#ff9400" stroke="#ff9400" stroke-width="1.51"/><path d="M300,660L300,780L420,660Z" fill="#ff9900" stroke="#ff9900" stroke-width="1.51"/><path d="M300,660L420,660L420,540Z" fill="#ff9e00" stroke="#ff9e00" stroke-width="1.51"/><path d="M300,540L300,660L420,540Z" fill="#ffa500" stroke="#ffa500" stroke-width="1.51"/><path d="M300,540L420,540L420,420Z" fill="#ffac00" stroke="#ffac00" stroke-width="1.51"/><path d="M300,420L300,540L420,420Z" fill="#ffb300" stroke="#ffb300" stroke-width="1.51"/><path d="M300,420L420,420L420,300Z" fill="#ffb600" stroke="#ffb600" stroke-width="1.51"/><path d="M300,300L300,420L420,300Z" fill="#ffba00" stroke="#ffba00" stroke-width="1.51"/><path d="M300,300L420,300L420,180Z" fill="#ffbd00" stroke="#ffbd00" stroke-width="1.51"/><path d="M300,180L300,300L420,180Z" fill="#ffc200" stroke="#ffc200" stroke-width="1.51"/><path d="M300,180L420,180L420,60Z" fill="#ffc600" stroke="#ffc600" stroke-width="1.51"/><path d="M300,60L300,180L420,60Z" fill="#ffcc00" stroke="#ffcc00" stroke-width="1.51"/><path d="M300,60L420,60L420,-60Z" fill="#ffd400" stroke="#ffd400" stroke-width="1.51"/><path d="M300,-60L300,60L420,-60Z" fill="#ffdb00" stroke="#ffdb00" stroke-width="1.51"/><path d="M300,-60L420,-60L420,-180Z" fill="#fee000" stroke="#fee000" stroke-width="1.51"/><path d="M300,-180L300,-60L420,-180Z" fill="#fde200" stroke="#fde200" stroke-width="1.51"/><path d="M180,1260L300,1260L300,1140Z" fill="#ff8a32" stroke="#ff8a32" stroke-width="1.51"/><path d="M180,1140L180,1260L300,1140Z" fill="#ff8d1d" stroke="#ff8d1d" stroke-width="1.51"/><path d="M180,1140L300,1140L300,1020Z" fill="#ff8b00" stroke="#ff8b00" stroke-width="1.51"/><path d="M180,1020L180,1140L300,1020Z" fill="#ff9000" stroke="#ff9000" stroke-width="1.51"/><path d="M180,1020L300,1020L300,900Z" fill="#ff8f00" stroke="#ff8f00" stroke-width="1.51"/><path d="M180,900L180,1020L300,900Z" fill="#ff9400" stroke="#ff9400" stroke-width="1.51"/><path d="M180,900L300,900L300,780Z" fill="#ff9500" stroke="#ff9500" stroke-width="1.51"/><path d="M180,780L180,900L300,780Z" fill="#ff9900" stroke="#ff9900" stroke-width="1.51"/><path d="M180,780L300,780L300,660Z" fill="#ff9c00" stroke="#ff9c00" stroke-width="1.51"/><path d="M180,660L180,780L300,660Z" fill="#ffa200" stroke="#ffa200" stroke-width="1.51"/><path d="M180,660L300,660L300,540Z" fill="#ffa600" stroke="#ffa600" stroke-width="1.51"/><path d="M180,540L180,660L300,540Z" fill="#ffae00" stroke="#ffae00" stroke-width="1.51"/><path d="M180,540L300,540L300,420Z" fill="#ffb400" stroke="#ffb400" stroke-width="1.51"/><path d="M180,420L180,540L300,420Z" fill="#ffbc00" stroke="#ffbc00" stroke-width="1.51"/><path d="M180,420L300,420L300,300Z" fill="#ffbd00" stroke="#ffbd00" stroke-width="1.51"/><path d="M180,300L180,420L300,300Z" fill="#ffc200" stroke="#ffc200" stroke-width="1.51"/><path d="M180,300L300,300L300,180Z" fill="#ffc400" stroke="#ffc400" stroke-width="1.51"/><path d="M180,180L180,300L300,180Z" fill="#ffca00" stroke="#ffca00" stroke-width="1.51"/><path d="M180,180L300,180L300,60Z" fill="#ffce00" stroke="#ffce00" stroke-width="1.51"/><path d="M180,60L180,180L300,60Z" fill="#ffd400" stroke="#ffd400" stroke-width="1.51"/><path d="M180,60L300,60L300,-60Z" fill="#ffdc00" stroke="#ffdc00" stroke-width="1.51"/><path d="M180,-60L180,60L300,-60Z" fill="#ffe400" stroke="#ffe400" stroke-width="1.51"/><path d="M180,-60L300,-60L300,-180Z" fill="#fee700" stroke="#fee700" stroke-width="1.51"/><path d="M180,-180L180,-60L300,-180Z" fill="#fceb00" stroke="#fceb00" stroke-width="1.51"/><path d="M60,1260L180,1260L180,1140Z" fill="#ff9534" stroke="#ff9534" stroke-width="1.51"/><path d="M60,1140L60,1260L180,1140Z" fill="#ff991e" stroke="#ff991e" stroke-width="1.51"/><path d="M60,1140L180,1140L180,1020Z" fill="#ff9600" stroke="#ff9600" stroke-width="1.51"/><path d="M60,1020L60,1140L180,1020Z" fill="#ff9c00" stroke="#ff9c00" stroke-width="1.51"/><path d="M60,1020L180,1020L180,900Z" fill="#ff9a00" stroke="#ff9a00" stroke-width="1.51"/><path d="M60,900L60,1020L180,900Z" fill="#ffa000" stroke="#ffa000" stroke-width="1.51"/><path d="M60,900L180,900L180,780Z" fill="#ff9f00" stroke="#ff9f00" stroke-width="1.51"/><path d="M60,780L60,900L180,780Z" fill="#ffa500" stroke="#ffa500" stroke-width="1.51"/><path d="M60,780L180,780L180,660Z" fill="#ffa600" stroke="#ffa600" stroke-width="1.51"/><path d="M60,660L60,780L180,660Z" fill="#ffad00" stroke="#ffad00" stroke-width="1.51"/><path d="M60,660L180,660L180,540Z" fill="#ffb000" stroke="#ffb000" stroke-width="1.51"/><path d="M60,540L60,660L180,540Z" fill="#ffb900" stroke="#ffb900" stroke-width="1.51"/><path d="M60,540L180,540L180,420Z" fill="#ffbe00" stroke="#ffbe00" stroke-width="1.51"/><path d="M60,420L60,540L180,420Z" fill="#ffc600" stroke="#ffc600" stroke-width="1.51"/><path d="M60,420L180,420L180,300Z" fill="#ffc700" stroke="#ffc700" stroke-width="1.51"/><path d="M60,300L60,420L180,300Z" fill="#ffcd00" stroke="#ffcd00" stroke-width="1.51"/><path d="M60,300L180,300L180,180Z" fill="#ffce00" stroke="#ffce00" stroke-width="1.51"/><path d="M60,180L60,300L180,180Z" fill="#ffd500" stroke="#ffd500" stroke-width="1.51"/><path d="M60,180L180,180L180,60Z" fill="#ffd800" stroke="#ffd800" stroke-width="1.51"/><path d="M60,60L60,180L180,60Z" fill="#ffdf00" stroke="#ffdf00" stroke-width="1.51"/><path d="M60,60L180,60L180,-60Z" fill="#ffe600" stroke="#ffe600" stroke-width="1.51"/><path d="M60,-60L60,60L180,-60Z" fill="#ffee00" stroke="#ffee00" stroke-width="1.51"/><path d="M60,-60L180,-60L180,-180Z" fill="#fef100" stroke="#fef100" stroke-width="1.51"/><path d="M60,-180L60,-60L180,-180Z" fill="#fcf500" stroke="#fcf500" stroke-width="1.51"/><path d="M-60,1260L60,1260L60,1140Z" fill="#ff9f35" stroke="#ff9f35" stroke-width="1.51"/><path d="M-60,1140L-60,1260L60,1140Z" fill="#ffa01e" stroke="#ffa01e" stroke-width="1.51"/><path d="M-60,1140L60,1140L60,1020Z" fill="#ffa100" stroke="#ffa100" stroke-width="1.51"/><path d="M-60,1020L-60,1140L60,1020Z" fill="#ffa300" stroke="#ffa300" stroke-width="1.51"/><path d="M-60,1020L60,1020L60,900Z" fill="#ffa500" stroke="#ffa500" stroke-width="1.51"/><path d="M-60,900L-60,1020L60,900Z" fill="#ffa700" stroke="#ffa700" stroke-width="1.51"/><path d="M-60,900L60,900L60,780Z" fill="#ffa900" stroke="#ffa900" stroke-width="1.51"/><path d="M-60,780L-60,900L60,780Z" fill="#ffac00" stroke="#ffac00" stroke-width="1.51"/><path d="M-60,780L60,780L60,660Z" fill="#ffb000" stroke="#ffb000" stroke-width="1.51"/><path d="M-60,660L-60,780L60,660Z" fill="#ffb400" stroke="#ffb400" stroke-width="1.51"/><path d="M-60,660L60,660L60,540Z" fill="#ffba00" stroke="#ffba00" stroke-width="1.51"/><path d="M-60,540L-60,660L60,540Z" fill="#ffbf00" stroke="#ffbf00" stroke-width="1.51"/><path d="M-60,540L60,540L60,420Z" fill="#ffc800" stroke="#ffc800" stroke-width="1.51"/><path d="M-60,420L-60,540L60,420Z" fill="#ffcd00" stroke="#ffcd00" stroke-width="1.51"/><path d="M-60,420L60,420L60,300Z" fill="#ffd100" stroke="#ffd100" stroke-width="1.51"/><path d="M-60,300L-60,420L60,300Z" fill="#ffd300" stroke="#ffd300" stroke-width="1.51"/><path d="M-60,300L60,300L60,180Z" fill="#ffd800" stroke="#ffd800" stroke-width="1.51"/><path d="M-60,180L-60,300L60,180Z" fill="#ffdb00" stroke="#ffdb00" stroke-width="1.51"/><path d="M-60,180L60,180L60,60Z" fill="#ffe100" stroke="#ffe100" stroke-width="1.51"/><path d="M-60,60L-60,180L60,60Z" fill="#ffe500" stroke="#ffe500" stroke-width="1.51"/><path d="M-60,60L60,60L60,-60Z" fill="#ffef00" stroke="#ffef00" stroke-width="1.51"/><path d="M-60,-60L-60,60L60,-60Z" fill="#fef500" stroke="#fef500" stroke-width="1.51"/><path d="M-60,-60L60,-60L60,-180Z" fill="#fefb00" stroke="#fefb00" stroke-width="1.51"/><path d="M-60,-180L-60,-60L60,-180Z" fill="#fbfc00" stroke="#fbfc00" stroke-width="1.51"/><path d="M-180,1260L-60,1260L-60,1140Z" fill="#ffa135" stroke="#ffa135" stroke-width="1.51"/><path d="M-180,1140L-180,1260L-60,1140Z" fill="#ffa11e" stroke="#ffa11e" stroke-width="1.51"/><path d="M-180,1140L-60,1140L-60,1020Z" fill="#ffa200" stroke="#ffa200" stroke-width="1.51"/><path d="M-180,1020L-180,1140L-60,1020Z" fill="#ffa400" stroke="#ffa400" stroke-width="1.51"/><path d="M-180,1020L-60,1020L-60,900Z" fill="#ffa600" stroke="#ffa600" stroke-width="1.51"/><path d="M-180,900L-180,1020L-60,900Z" fill="#ffa800" stroke="#ffa800" stroke-width="1.51"/><path d="M-180,900L-60,900L-60,780Z" fill="#ffab00" stroke="#ffab00" stroke-width="1.51"/><path d="M-180,780L-180,900L-60,780Z" fill="#ffad00" stroke="#ffad00" stroke-width="1.51"/><path d="M-180,780L-60,780L-60,660Z" fill="#ffb200" stroke="#ffb200" stroke-width="1.51"/><path d="M-180,660L-180,780L-60,660Z" fill="#ffb600" stroke="#ffb600" stroke-width="1.51"/><path d="M-180,660L-60,660L-60,540Z" fill="#ffbb00" stroke="#ffbb00" stroke-width="1.51"/><path d="M-180,540L-180,660L-60,540Z" fill="#ffc100" stroke="#ffc100" stroke-width="1.51"/><path d="M-180,540L-60,540L-60,420Z" fill="#ffc900" stroke="#ffc900" stroke-width="1.51"/><path d="M-180,420L-180,540L-60,420Z" fill="#fdce00" stroke="#fdce00" stroke-width="1.51"/><path d="M-180,420L-60,420L-60,300Z" fill="#fed200" stroke="#fed200" stroke-width="1.51"/><path d="M-180,300L-180,420L-60,300Z" fill="#fdd500" stroke="#fdd500" stroke-width="1.51"/><path d="M-180,300L-60,300L-60,180Z" fill="#fdd900" stroke="#fdd900" stroke-width="1.51"/><path d="M-180,180L-180,300L-60,180Z" fill="#fcdc00" stroke="#fcdc00" stroke-width="1.51"/><path d="M-180,180L-60,180L-60,60Z" fill="#fce200" stroke="#fce200" stroke-width="1.51"/><path d="M-180,60L-180,180L-60,60Z" fill="#fbe600" stroke="#fbe600" stroke-width="1.51"/><path d="M-180,60L-60,60L-60,-60Z" fill="#fcf000" stroke="#fcf000" stroke-width="1.51"/><path d="M-180,-60L-180,60L-60,-60Z" fill="#fbf600" stroke="#fbf600" stroke-width="1.51"/><path d="M-180,-60L-60,-60L-60,-180Z" fill="#fafc00" stroke="#fafc00" stroke-width="1.51"/><path d="M-180,-180L-180,-60L-60,-180Z" fill="#f8fd00" stroke="#f8fd00" stroke-width="1.51"/></svg>