<svg xmlns="http://www.w3.org/2000/svg" width="1920" height="1080"><path d="M1230,1398L756,1412L1398,1432Z" fill="#967caf" stroke="#967caf" stroke-width="1.51"/><path d="M1922,904L1917,1010L2183,750Z" fill="#907bb6" stroke="#907bb6" stroke-width="1.51"/><path d="M1841,189L2184,432L2285,356Z" fill="#ac7f9e" stroke="#ac7f9e" stroke-width="1.51"/><path d="M2184,432L2183,750L2285,356Z" fill="#9f81ad" stroke="#9f81ad" stroke-width="1.51"/><path d="M1937,-208L1862,-79L2286,-162Z" fill="#a0535b" stroke="#a0535b" stroke-width="1.51"/><path d="M1841,189L2285,356L2286,-162Z" fill="#ab6875" stroke="#ab6875" stroke-width="1.51"/><path d="M1862,-79L1841,189L2286,-162Z" fill="#af6567" stroke="#af6567" stroke-width="1.51"/><path d="M1322,-424L1759,-353L2306,-267Z" fill="#9a605f" stroke="#9a605f" stroke-width="1.51"/><path d="M1759,-353L1937,-208L2306,-267Z" fill="#944a57" stroke="#944a57" stroke-width="1.51"/><path d="M2286,-162L2285,356L2306,-267Z" fill="#94494d" stroke="#94494d" stroke-width="1.51"/><path d="M2183,750L1917,1010L2314,1162Z" fill="#7d61a5" stroke="#7d61a5" stroke-width="1.51"/><path d="M2285,356L2183,750L2314,1162Z" fill="#8a71a5" stroke="#8a71a5" stroke-width="1.51"/><path d="M2306,-267L2285,356L2314,1162Z" fill="#9a7695" stroke="#9a7695" stroke-width="1.51"/><path d="M1816,1321L1398,1432L2315,1273Z" fill="#684a98" stroke="#684a98" stroke-width="1.51"/><path d="M2314,1162L1917,1010L2315,1273Z" fill="#644690" stroke="#644690" stroke-width="1.51"/><path d="M1917,1010L1816,1321L2315,1273Z" fill="#6b4d9a" stroke="#6b4d9a" stroke-width="1.51"/><path d="M1937,-208L2286,-162L2306,-267Z" fill="#8d3c4c" stroke="#8d3c4c" stroke-width="1.51"/><path d="M629,-438L829,-395L1322,-424Z" fill="#c79778" stroke="#c79778" stroke-width="1.51"/><path d="M1918,659L1922,904L2183,750Z" fill="#9b87bd" stroke="#9b87bd" stroke-width="1.51"/><path d="M1918,659L2183,750L2184,432Z" fill="#a287be" stroke="#a287be" stroke-width="1.51"/><path d="M1798,430L1918,659L2184,432Z" fill="#b29cc3" stroke="#b29cc3" stroke-width="1.51"/><path d="M1841,189L1798,430L2184,432Z" fill="#b897ac" stroke="#b897ac" stroke-width="1.51"/><path d="M1581,1195L1614,1259L1816,1321Z" fill="#806aaa" stroke="#806aaa" stroke-width="1.51"/><path d="M1581,1195L1816,1321L1917,1010Z" fill="#8070ab" stroke="#8070ab" stroke-width="1.51"/><path d="M1918,659L1636,710L1922,904Z" fill="#aaa2ca" stroke="#aaa2ca" stroke-width="1.51"/><path d="M1759,-353L1862,-79L1937,-208Z" fill="#a76461" stroke="#a76461" stroke-width="1.51"/><path d="M1636,710L1581,1195L1917,1010Z" fill="#9e94c3" stroke="#9e94c3" stroke-width="1.51"/><path d="M1798,430L1636,710L1918,659Z" fill="#b9b2d1" stroke="#b9b2d1" stroke-width="1.51"/><path d="M1636,710L1917,1010L1922,904Z" fill="#9e94c2" stroke="#9e94c2" stroke-width="1.51"/><path d="M1384,943L1581,1195L1636,710Z" fill="#b0a9d1" stroke="#b0a9d1" stroke-width="1.51"/><path d="M1614,1259L1398,1432L1816,1321Z" fill="#7d61a7" stroke="#7d61a7" stroke-width="1.51"/><path d="M1530,389L1798,430L1841,189Z" fill="#c9b1b7" stroke="#c9b1b7" stroke-width="1.51"/><path d="M1545,38L1841,189L1862,-79Z" fill="#c68f80" stroke="#c68f80" stroke-width="1.51"/><path d="M1759,-353L1545,38L1862,-79Z" fill="#ba7b6c" stroke="#ba7b6c" stroke-width="1.51"/><path d="M1545,38L1530,389L1841,189Z" fill="#d4aca2" stroke="#d4aca2" stroke-width="1.51"/><path d="M1412,-43L1545,38L1759,-353Z" fill="#ca8c75" stroke="#ca8c75" stroke-width="1.51"/><path d="M1530,389L1636,710L1798,430Z" fill="#cac1d7" stroke="#cac1d7" stroke-width="1.51"/><path d="M1322,-424L1412,-43L1759,-353Z" fill="#be8272" stroke="#be8272" stroke-width="1.51"/><path d="M161,1264L-331,1318L756,1412Z" fill="#a95b66" stroke="#a95b66" stroke-width="1.51"/><path d="M1333,117L1530,389L1545,38Z" fill="#e1baa7" stroke="#e1baa7" stroke-width="1.51"/><path d="M1530,389L1411,448L1636,710Z" fill="#d6cfe1" stroke="#d6cfe1" stroke-width="1.51"/><path d="M1411,448L1384,943L1636,710Z" fill="#cbcae2" stroke="#cbcae2" stroke-width="1.51"/><path d="M1384,943L1370,1208L1581,1195Z" fill="#a198c4" stroke="#a198c4" stroke-width="1.51"/><path d="M1581,1195L1370,1208L1614,1259Z" fill="#917fb8" stroke="#917fb8" stroke-width="1.51"/><path d="M1370,1208L1398,1432L1614,1259Z" fill="#8d75b3" stroke="#8d75b3" stroke-width="1.51"/><path d="M1136,823L1384,943L1411,448Z" fill="#d3d4e8" stroke="#d3d4e8" stroke-width="1.51"/><path d="M1322,-424L1167,-180L1412,-43Z" fill="#d2987b" stroke="#d2987b" stroke-width="1.51"/><path d="M1333,117L1411,448L1530,389Z" fill="#e2cbc5" stroke="#e2cbc5" stroke-width="1.51"/><path d="M1412,-43L1333,117L1545,38Z" fill="#e0ab8f" stroke="#e0ab8f" stroke-width="1.51"/><path d="M1212,1182L1370,1208L1384,943Z" fill="#aaa3ca" stroke="#aaa3ca" stroke-width="1.51"/><path d="M1370,1208L1230,1398L1398,1432Z" fill="#9176b4" stroke="#9176b4" stroke-width="1.51"/><path d="M1333,117L986,385L1411,448Z" fill="#eedacc" stroke="#eedacc" stroke-width="1.51"/><path d="M1055,613L1136,823L1411,448Z" fill="#e3e4f0" stroke="#e3e4f0" stroke-width="1.51"/><path d="M1092,-13L1333,117L1412,-43Z" fill="#e9b591" stroke="#e9b591" stroke-width="1.51"/><path d="M1167,-180L1092,-13L1412,-43Z" fill="#e5ac85" stroke="#e5ac85" stroke-width="1.51"/><path d="M986,385L1055,613L1411,448Z" fill="#eeeaea" stroke="#eeeaea" stroke-width="1.51"/><path d="M-76,1267L-331,1318L161,1264Z" fill="#9c4f59" stroke="#9c4f59" stroke-width="1.51"/><path d="M1212,1182L1230,1398L1370,1208Z" fill="#9e8bbf" stroke="#9e8bbf" stroke-width="1.51"/><path d="M1136,823L1212,1182L1384,943Z" fill="#bfbcda" stroke="#bfbcda" stroke-width="1.51"/><path d="M603,1340L161,1264L756,1412Z" fill="#af748b" stroke="#af748b" stroke-width="1.51"/><path d="M1092,-13L986,385L1333,117Z" fill="#f6d0ae" stroke="#f6d0ae" stroke-width="1.51"/><path d="M1136,823L959,993L1212,1182Z" fill="#c5c0db" stroke="#c5c0db" stroke-width="1.51"/><path d="M829,-395L1167,-180L1322,-424Z" fill="#cd987c" stroke="#cd987c" stroke-width="1.51"/><path d="M876,139L986,385L1092,-13Z" fill="#fed9b2" stroke="#fed9b2" stroke-width="1.51"/><path d="M1212,1182L756,1412L1230,1398Z" fill="#a288be" stroke="#a288be" stroke-width="1.51"/><path d="M959,993L756,1412L1212,1182Z" fill="#b4a7cc" stroke="#b4a7cc" stroke-width="1.51"/><path d="M1055,613L927,694L1136,823Z" fill="#e5e6f1" stroke="#e5e6f1" stroke-width="1.51"/><path d="M829,-395L1092,-13L1167,-180Z" fill="#e2a982" stroke="#e2a982" stroke-width="1.51"/><path d="M829,-395L709,-7L1092,-13Z" fill="#ecaf7d" stroke="#ecaf7d" stroke-width="1.51"/><path d="M927,694L959,993L1136,823Z" fill="#dbdaea" stroke="#dbdaea" stroke-width="1.51"/><path d="M709,-7L876,139L1092,-13Z" fill="#fbc693" stroke="#fbc693" stroke-width="1.51"/><path d="M596,1220L756,1412L959,993Z" fill="#b99eb6" stroke="#b99eb6" stroke-width="1.51"/><path d="M748,502L927,694L986,385Z" fill="#f9f3ec" stroke="#f9f3ec" stroke-width="1.51"/><path d="M986,385L927,694L1055,613Z" fill="#f4f3f6" stroke="#f4f3f6" stroke-width="1.51"/><path d="M927,694L480,849L959,993Z" fill="#e1d5d7" stroke="#e1d5d7" stroke-width="1.51"/><path d="M876,139L748,502L986,385Z" fill="#fde8cc" stroke="#fde8cc" stroke-width="1.51"/><path d="M583,-137L709,-7L829,-395Z" fill="#e6a568" stroke="#e6a568" stroke-width="1.51"/><path d="M480,849L596,1220L959,993Z" fill="#cfb9bd" stroke="#cfb9bd" stroke-width="1.51"/><path d="M-113,-356L375,-318L629,-438Z" fill="#c4752b" stroke="#c4752b" stroke-width="1.51"/><path d="M550,445L748,502L876,139Z" fill="#fee3bf" stroke="#fee3bf" stroke-width="1.51"/><path d="M748,502L480,849L927,694Z" fill="#f1e2d7" stroke="#f1e2d7" stroke-width="1.51"/><path d="M629,-438L583,-137L829,-395Z" fill="#d49560" stroke="#d49560" stroke-width="1.51"/><path d="M709,-7L550,445L876,139Z" fill="#ffd29b" stroke="#ffd29b" stroke-width="1.51"/><path d="M596,1220L603,1340L756,1412Z" fill="#ae829f" stroke="#ae829f" stroke-width="1.51"/><path d="M417,382L550,445L709,-7Z" fill="#ffd197" stroke="#ffd197" stroke-width="1.51"/><path d="M550,445L480,849L748,502Z" fill="#f9e1c8" stroke="#f9e1c8" stroke-width="1.51"/><path d="M480,849L362,1136L596,1220Z" fill="#cda49d" stroke="#cda49d" stroke-width="1.51"/><path d="M583,-137L373,-127L709,-7Z" fill="#eea557" stroke="#eea557" stroke-width="1.51"/><path d="M373,-127L417,382L709,-7Z" fill="#fbb769" stroke="#fbb769" stroke-width="1.51"/><path d="M205,769L480,849L550,445Z" fill="#f4ceac" stroke="#f4ceac" stroke-width="1.51"/><path d="M375,-318L583,-137L629,-438Z" fill="#d58d4c" stroke="#d58d4c" stroke-width="1.51"/><path d="M417,382L151,614L550,445Z" fill="#ffd2a1" stroke="#ffd2a1" stroke-width="1.51"/><path d="M151,614L205,769L550,445Z" fill="#f8caa0" stroke="#f8caa0" stroke-width="1.51"/><path d="M375,-318L373,-127L583,-137Z" fill="#e19242" stroke="#e19242" stroke-width="1.51"/><path d="M596,1220L362,1136L603,1340Z" fill="#ba8a95" stroke="#ba8a95" stroke-width="1.51"/><path d="M362,1136L161,1264L603,1340Z" fill="#b97d81" stroke="#b97d81" stroke-width="1.51"/><path d="M373,-127L145,338L417,382Z" fill="#fbb666" stroke="#fbb666" stroke-width="1.51"/><path d="M-9,115L145,338L373,-127Z" fill="#f09e42" stroke="#f09e42" stroke-width="1.51"/><path d="M205,769L362,1136L480,849Z" fill="#deb099" stroke="#deb099" stroke-width="1.51"/><path d="M145,338L151,614L417,382Z" fill="#fac38b" stroke="#fac38b" stroke-width="1.51"/><path d="M205,769L161,1264L362,1136Z" fill="#ca9281" stroke="#ca9281" stroke-width="1.51"/><path d="M-113,-356L-116,-22L373,-127Z" fill="#cf720f" stroke="#cf720f" stroke-width="1.51"/><path d="M-113,-356L373,-127L375,-318Z" fill="#ce7620" stroke="#ce7620" stroke-width="1.51"/><path d="M-116,-22L-9,115L373,-127Z" fill="#e28720" stroke="#e28720" stroke-width="1.51"/><path d="M-134,1084L161,1264L205,769Z" fill="#c58572" stroke="#c58572" stroke-width="1.51"/><path d="M145,338L-72,622L151,614Z" fill="#f3b886" stroke="#f3b886" stroke-width="1.51"/><path d="M-134,1084L-76,1267L161,1264Z" fill="#aa6461" stroke="#aa6461" stroke-width="1.51"/><path d="M151,614L-65,770L205,769Z" fill="#e8ae86" stroke="#e8ae86" stroke-width="1.51"/><path d="M-65,770L-134,1084L205,769Z" fill="#d2967b" stroke="#d2967b" stroke-width="1.51"/><path d="M-72,622L-65,770L151,614Z" fill="#e4ab83" stroke="#e4ab83" stroke-width="1.51"/><path d="M-367,473L-72,622L-9,115Z" fill="#e0a06c" stroke="#e0a06c" stroke-width="1.51"/><path d="M-9,115L-72,622L145,338Z" fill="#edab6b" stroke="#edab6b" stroke-width="1.51"/><path d="M-244,-291L-283,-110L-116,-22Z" fill="#bd620a" stroke="#bd620a" stroke-width="1.51"/><path d="M-244,-291L-116,-22L-113,-356Z" fill="#b85d07" stroke="#b85d07" stroke-width="1.51"/><path d="M-116,-22L-386,224L-9,115Z" fill="#d78332" stroke="#d78332" stroke-width="1.51"/><path d="M-386,224L-367,473L-9,115Z" fill="#d49052" stroke="#d49052" stroke-width="1.51"/><path d="M-134,1084L-280,1211L-76,1267Z" fill="#a15d5e" stroke="#a15d5e" stroke-width="1.51"/><path d="M-409,955L-134,1084L-65,770Z" fill="#bc8070" stroke="#bc8070" stroke-width="1.51"/><path d="M-72,622L-367,473L-65,770Z" fill="#daa17e" stroke="#daa17e" stroke-width="1.51"/><path d="M-367,473L-409,955L-65,770Z" fill="#c79379" stroke="#c79379" stroke-width="1.51"/><path d="M-280,1211L-331,1318L-76,1267Z" fill="#924956" stroke="#924956" stroke-width="1.51"/><path d="M-283,-110L-386,224L-116,-22Z" fill="#c97422" stroke="#c97422" stroke-width="1.51"/><path d="M-409,955L-280,1211L-134,1084Z" fill="#a26763" stroke="#a26763" stroke-width="1.51"/><path d="M-386,224L-283,-110L-244,-291Z" fill="#be660d" stroke="#be660d" stroke-width="1.51"/><path d="M-409,955L-331,1318L-280,1211Z" fill="#93585c" stroke="#93585c" stroke-width="1.51"/><path d="M-386,224L-409,955L-367,473Z" fill="#c9997c" stroke="#c9997c" stroke-width="1.51"/></svg>