<svg xmlns="http://www.w3.org/2000/svg" width="1920" height="1080"><path d="M1980,1260L2100,1260L2100,1140Z" fill="#bcebc1" stroke="#bcebc1" stroke-width="1.51"/><path d="M1980,1140L1980,1260L2100,1140Z" fill="#c6e9b0" stroke="#c6e9b0" stroke-width="1.51"/><path d="M1980,1140L2100,1140L2100,1020Z" fill="#cde7a3" stroke="#cde7a3" stroke-width="1.51"/><path d="M1980,1020L1980,1140L2100,1020Z" fill="#d5e592" stroke="#d5e592" stroke-width="1.51"/><path d="M1980,1020L2100,1020L2100,900Z" fill="#d9de8d" stroke="#d9de8d" stroke-width="1.51"/><path d="M1980,900L1980,1020L2100,900Z" fill="#ded489" stroke="#ded489" stroke-width="1.51"/><path d="M1980,900L2100,900L2100,780Z" fill="#dec194" stroke="#dec194" stroke-width="1.51"/><path d="M1980,780L1980,900L2100,780Z" fill="#e2b78f" stroke="#e2b78f" stroke-width="1.51"/><path d="M1980,780L2100,780L2100,660Z" fill="#e0a499" stroke="#e0a499" stroke-width="1.51"/><path d="M1980,660L1980,780L2100,660Z" fill="#e39994" stroke="#e39994" stroke-width="1.51"/><path d="M1980,660L2100,660L2100,540Z" fill="#dfada8" stroke="#dfada8" stroke-width="1.51"/><path d="M1980,540L1980,660L2100,540Z" fill="#e1b6aa" stroke="#e1b6aa" stroke-width="1.51"/><path d="M1980,540L2100,540L2100,420Z" fill="#dbccbf" stroke="#dbccbf" stroke-width="1.51"/><path d="M1980,420L1980,540L2100,420Z" fill="#dcd4c0" stroke="#dcd4c0" stroke-width="1.51"/><path d="M1980,420L2100,420L2100,300Z" fill="#d2e9d5" stroke="#d2e9d5" stroke-width="1.51"/><path d="M1980,300L1980,420L2100,300Z" fill="#cee7ce" stroke="#cee7ce" stroke-width="1.51"/><path d="M1980,300L2100,300L2100,180Z" fill="#bae5d3" stroke="#bae5d3" stroke-width="1.51"/><path d="M1980,180L1980,300L2100,180Z" fill="#b7e3cc" stroke="#b7e3cc" stroke-width="1.51"/><path d="M1980,180L2100,180L2100,60Z" fill="#a0e1d1" stroke="#a0e1d1" stroke-width="1.51"/><path d="M1980,60L1980,180L2100,60Z" fill="#9ddfca" stroke="#9ddfca" stroke-width="1.51"/><path d="M1980,60L2100,60L2100,-60Z" fill="#a4d5c4" stroke="#a4d5c4" stroke-width="1.51"/><path d="M1980,-60L1980,60L2100,-60Z" fill="#b4ccb5" stroke="#b4ccb5" stroke-width="1.51"/><path d="M1980,-60L2100,-60L2100,-180Z" fill="#c5bcaa" stroke="#c5bcaa" stroke-width="1.51"/><path d="M1980,-180L1980,-60L2100,-180Z" fill="#d0b39b" stroke="#d0b39b" stroke-width="1.51"/><path d="M1860,1260L1980,1260L1980,1140Z" fill="#c8e8ae" stroke="#c8e8ae" stroke-width="1.51"/><path d="M1860,1140L1860,1260L1980,1140Z" fill="#d1e79d" stroke="#d1e79d" stroke-width="1.51"/><path d="M1860,1140L1980,1140L1980,1020Z" fill="#d7e58f" stroke="#d7e58f" stroke-width="1.51"/><path d="M1860,1020L1860,1140L1980,1020Z" fill="#dde37e" stroke="#dde37e" stroke-width="1.51"/><path d="M1860,1020L1980,1020L1980,900Z" fill="#e1dc7a" stroke="#e1dc7a" stroke-width="1.51"/><path d="M1860,900L1860,1020L1980,900Z" fill="#e5d275" stroke="#e5d275" stroke-width="1.51"/><path d="M1860,900L1980,900L1980,780Z" fill="#e5bf81" stroke="#e5bf81" stroke-width="1.51"/><path d="M1860,780L1860,900L1980,780Z" fill="#e8b57d" stroke="#e8b57d" stroke-width="1.51"/><path d="M1860,780L1980,780L1980,660Z" fill="#e7a187" stroke="#e7a187" stroke-width="1.51"/><path d="M1860,660L1860,780L1980,660Z" fill="#e99683" stroke="#e99683" stroke-width="1.51"/><path d="M1860,660L1980,660L1980,540Z" fill="#e7aa96" stroke="#e7aa96" stroke-width="1.51"/><path d="M1860,540L1860,660L1980,540Z" fill="#e9b498" stroke="#e9b498" stroke-width="1.51"/><path d="M1860,540L1980,540L1980,420Z" fill="#e4c9ac" stroke="#e4c9ac" stroke-width="1.51"/><path d="M1860,420L1860,540L1980,420Z" fill="#e6d2ae" stroke="#e6d2ae" stroke-width="1.51"/><path d="M1860,420L1980,420L1980,300Z" fill="#dee6c3" stroke="#dee6c3" stroke-width="1.51"/><path d="M1860,300L1860,420L1980,300Z" fill="#dae5bb" stroke="#dae5bb" stroke-width="1.51"/><path d="M1860,300L1980,300L1980,180Z" fill="#c7e2c0" stroke="#c7e2c0" stroke-width="1.51"/><path d="M1860,180L1860,300L1980,180Z" fill="#c3e1ba" stroke="#c3e1ba" stroke-width="1.51"/><path d="M1860,180L1980,180L1980,60Z" fill="#b0dfbe" stroke="#b0dfbe" stroke-width="1.51"/><path d="M1860,60L1860,180L1980,60Z" fill="#acddb7" stroke="#acddb7" stroke-width="1.51"/><path d="M1860,60L1980,60L1980,-60Z" fill="#b2d2b2" stroke="#b2d2b2" stroke-width="1.51"/><path d="M1860,-60L1860,60L1980,-60Z" fill="#bfcaa3" stroke="#bfcaa3" stroke-width="1.51"/><path d="M1860,-60L1980,-60L1980,-180Z" fill="#ceb998" stroke="#ceb998" stroke-width="1.51"/><path d="M1860,-180L1860,-60L1980,-180Z" fill="#d8b089" stroke="#d8b089" stroke-width="1.51"/><path d="M1740,1260L1860,1260L1860,1140Z" fill="#d2e69a" stroke="#d2e69a" stroke-width="1.51"/><path d="M1740,1140L1740,1260L1860,1140Z" fill="#d9e589" stroke="#d9e589" stroke-width="1.51"/><path d="M1740,1140L1860,1140L1860,1020Z" fill="#dfe37b" stroke="#dfe37b" stroke-width="1.51"/><path d="M1740,1020L1740,1140L1860,1020Z" fill="#e4e169" stroke="#e4e169" stroke-width="1.51"/><path d="M1740,1020L1860,1020L1860,900Z" fill="#e8da64" stroke="#e8da64" stroke-width="1.51"/><path d="M1740,900L1740,1020L1860,900Z" fill="#ebd060" stroke="#ebd060" stroke-width="1.51"/><path d="M1740,900L1860,900L1860,780Z" fill="#ecbd6d" stroke="#ecbd6d" stroke-width="1.51"/><path d="M1740,780L1740,900L1860,780Z" fill="#eeb26a" stroke="#eeb26a" stroke-width="1.51"/><path d="M1740,780L1860,780L1860,660Z" fill="#ed9f74" stroke="#ed9f74" stroke-width="1.51"/><path d="M1740,660L1740,780L1860,660Z" fill="#ef9470" stroke="#ef9470" stroke-width="1.51"/><path d="M1740,660L1860,660L1860,540Z" fill="#eea784" stroke="#eea784" stroke-width="1.51"/><path d="M1740,540L1740,660L1860,540Z" fill="#f0b185" stroke="#f0b185" stroke-width="1.51"/><path d="M1740,540L1860,540L1860,420Z" fill="#edc79a" stroke="#edc79a" stroke-width="1.51"/><path d="M1740,420L1740,540L1860,420Z" fill="#eed09b" stroke="#eed09b" stroke-width="1.51"/><path d="M1740,420L1860,420L1860,300Z" fill="#e8e4af" stroke="#e8e4af" stroke-width="1.51"/><path d="M1740,300L1740,420L1860,300Z" fill="#e3e2a8" stroke="#e3e2a8" stroke-width="1.51"/><path d="M1740,300L1860,300L1860,180Z" fill="#d2e0ad" stroke="#d2e0ad" stroke-width="1.51"/><path d="M1740,180L1740,300L1860,180Z" fill="#cedfa6" stroke="#cedfa6" stroke-width="1.51"/><path d="M1740,180L1860,180L1860,60Z" fill="#bcddab" stroke="#bcddab" stroke-width="1.51"/><path d="M1740,60L1740,180L1860,60Z" fill="#b7dba4" stroke="#b7dba4" stroke-width="1.51"/><path d="M1740,60L1860,60L1860,-60Z" fill="#bdd09f" stroke="#bdd09f" stroke-width="1.51"/><path d="M1740,-60L1740,60L1860,-60Z" fill="#c9c790" stroke="#c9c790" stroke-width="1.51"/><path d="M1740,-60L1860,-60L1860,-180Z" fill="#d6b786" stroke="#d6b786" stroke-width="1.51"/><path d="M1740,-180L1740,-60L1860,-180Z" fill="#dfae77" stroke="#dfae77" stroke-width="1.51"/><path d="M1620,1260L1740,1260L1740,1140Z" fill="#dae486" stroke="#dae486" stroke-width="1.51"/><path d="M1620,1140L1620,1260L1740,1140Z" fill="#e0e079" stroke="#e0e079" stroke-width="1.51"/><path d="M1620,1140L1740,1140L1740,1020Z" fill="#e5e166" stroke="#e5e166" stroke-width="1.51"/><path d="M1620,1020L1620,1140L1740,1020Z" fill="#eadd57" stroke="#eadd57" stroke-width="1.51"/><path d="M1620,1020L1740,1020L1740,900Z" fill="#edd84d" stroke="#edd84d" stroke-width="1.51"/><path d="M1620,900L1620,1020L1740,900Z" fill="#f0cb4e" stroke="#f0cb4e" stroke-width="1.51"/><path d="M1620,900L1740,900L1740,780Z" fill="#f1ba59" stroke="#f1ba59" stroke-width="1.51"/><path d="M1620,780L1620,900L1740,780Z" fill="#f3ad59" stroke="#f3ad59" stroke-width="1.51"/><path d="M1620,780L1740,780L1740,660Z" fill="#f29c62" stroke="#f29c62" stroke-width="1.51"/><path d="M1620,660L1620,780L1740,660Z" fill="#f38e62" stroke="#f38e62" stroke-width="1.51"/><path d="M1620,660L1740,660L1740,540Z" fill="#f3a571" stroke="#f3a571" stroke-width="1.51"/><path d="M1620,540L1620,660L1740,540Z" fill="#f5ac76" stroke="#f5ac76" stroke-width="1.51"/><path d="M1620,540L1740,540L1740,420Z" fill="#f3c487" stroke="#f3c487" stroke-width="1.51"/><path d="M1620,420L1620,540L1740,420Z" fill="#f4cb8b" stroke="#f4cb8b" stroke-width="1.51"/><path d="M1620,420L1740,420L1740,300Z" fill="#f0e29c" stroke="#f0e29c" stroke-width="1.51"/><path d="M1620,300L1620,420L1740,300Z" fill="#ebdd98" stroke="#ebdd98" stroke-width="1.51"/><path d="M1620,300L1740,300L1740,180Z" fill="#dbde9a" stroke="#dbde9a" stroke-width="1.51"/><path d="M1620,180L1620,300L1740,180Z" fill="#d6da97" stroke="#d6da97" stroke-width="1.51"/><path d="M1620,180L1740,180L1740,60Z" fill="#c6db98" stroke="#c6db98" stroke-width="1.51"/><path d="M1620,60L1620,180L1740,60Z" fill="#c1d695" stroke="#c1d695" stroke-width="1.51"/><path d="M1620,60L1740,60L1740,-60Z" fill="#c6ce8c" stroke="#c6ce8c" stroke-width="1.51"/><path d="M1620,-60L1620,60L1740,-60Z" fill="#d0c281" stroke="#d0c281" stroke-width="1.51"/><path d="M1620,-60L1740,-60L1740,-180Z" fill="#ddb573" stroke="#ddb573" stroke-width="1.51"/><path d="M1620,-180L1620,-60L1740,-180Z" fill="#e4a967" stroke="#e4a967" stroke-width="1.51"/><path d="M1500,1260L1620,1260L1620,1140Z" fill="#dfd587" stroke="#dfd587" stroke-width="1.51"/><path d="M1500,1140L1500,1260L1620,1140Z" fill="#e3cd7e" stroke="#e3cd7e" stroke-width="1.51"/><path d="M1500,1140L1620,1140L1620,1020Z" fill="#e9d167" stroke="#e9d167" stroke-width="1.51"/><path d="M1500,1020L1500,1140L1620,1020Z" fill="#ecca5e" stroke="#ecca5e" stroke-width="1.51"/><path d="M1500,1020L1620,1020L1620,900Z" fill="#f0c850" stroke="#f0c850" stroke-width="1.51"/><path d="M1500,900L1500,1020L1620,900Z" fill="#f2b856" stroke="#f2b856" stroke-width="1.51"/><path d="M1500,900L1620,900L1620,780Z" fill="#f2aa5a" stroke="#f2aa5a" stroke-width="1.51"/><path d="M1500,780L1500,900L1620,780Z" fill="#f3995f" stroke="#f3995f" stroke-width="1.51"/><path d="M1500,780L1620,780L1620,660Z" fill="#f38b62" stroke="#f38b62" stroke-width="1.51"/><path d="M1500,660L1500,780L1620,660Z" fill="#f27866" stroke="#f27866" stroke-width="1.51"/><path d="M1500,660L1620,660L1620,540Z" fill="#f49471" stroke="#f49471" stroke-width="1.51"/><path d="M1500,540L1500,660L1620,540Z" fill="#f5987a" stroke="#f5987a" stroke-width="1.51"/><path d="M1500,540L1620,540L1620,420Z" fill="#f5b487" stroke="#f5b487" stroke-width="1.51"/><path d="M1500,420L1500,540L1620,420Z" fill="#f5b78f" stroke="#f5b78f" stroke-width="1.51"/><path d="M1500,420L1620,420L1620,300Z" fill="#f3d29c" stroke="#f3d29c" stroke-width="1.51"/><path d="M1500,300L1500,420L1620,300Z" fill="#edca9d" stroke="#edca9d" stroke-width="1.51"/><path d="M1500,300L1620,300L1620,180Z" fill="#dfce9a" stroke="#dfce9a" stroke-width="1.51"/><path d="M1500,180L1500,300L1620,180Z" fill="#d9c79b" stroke="#d9c79b" stroke-width="1.51"/><path d="M1500,180L1620,180L1620,60Z" fill="#cacb98" stroke="#cacb98" stroke-width="1.51"/><path d="M1500,60L1500,180L1620,60Z" fill="#c4c499" stroke="#c4c499" stroke-width="1.51"/><path d="M1500,60L1620,60L1620,-60Z" fill="#cabf8c" stroke="#cabf8c" stroke-width="1.51"/><path d="M1500,-60L1500,60L1620,-60Z" fill="#d2b085" stroke="#d2b085" stroke-width="1.51"/><path d="M1500,-60L1620,-60L1620,-180Z" fill="#dfa573" stroke="#dfa573" stroke-width="1.51"/><path d="M1500,-180L1500,-60L1620,-180Z" fill="#e4956c" stroke="#e4956c" stroke-width="1.51"/><path d="M1380,1260L1500,1260L1500,1140Z" fill="#e1c28b" stroke="#e1c28b" stroke-width="1.51"/><path d="M1380,1140L1380,1260L1500,1140Z" fill="#e6ba82" stroke="#e6ba82" stroke-width="1.51"/><path d="M1380,1140L1500,1140L1500,1020Z" fill="#ebbe6d" stroke="#ebbe6d" stroke-width="1.51"/><path d="M1380,1020L1380,1140L1500,1020Z" fill="#eeb764" stroke="#eeb764" stroke-width="1.51"/><path d="M1380,1020L1500,1020L1500,900Z" fill="#f2b557" stroke="#f2b557" stroke-width="1.51"/><path d="M1380,900L1380,1020L1500,900Z" fill="#f3a45c" stroke="#f3a45c" stroke-width="1.51"/><path d="M1380,900L1500,900L1500,780Z" fill="#f39660" stroke="#f39660" stroke-width="1.51"/><path d="M1380,780L1380,900L1500,780Z" fill="#f38464" stroke="#f38464" stroke-width="1.51"/><path d="M1380,780L1500,780L1500,660Z" fill="#f27466" stroke="#f27466" stroke-width="1.51"/><path d="M1380,660L1380,780L1500,660Z" fill="#f15f69" stroke="#f15f69" stroke-width="1.51"/><path d="M1380,660L1500,660L1500,540Z" fill="#f47e75" stroke="#f47e75" stroke-width="1.51"/><path d="M1380,540L1380,660L1500,540Z" fill="#f5827d" stroke="#f5827d" stroke-width="1.51"/><path d="M1380,540L1500,540L1500,420Z" fill="#f69f8a" stroke="#f69f8a" stroke-width="1.51"/><path d="M1380,420L1380,540L1500,420Z" fill="#f6a392" stroke="#f6a392" stroke-width="1.51"/><path d="M1380,420L1500,420L1500,300Z" fill="#f5bea0" stroke="#f5bea0" stroke-width="1.51"/><path d="M1380,300L1380,420L1500,300Z" fill="#efb7a0" stroke="#efb7a0" stroke-width="1.51"/><path d="M1380,300L1500,300L1500,180Z" fill="#e1bb9d" stroke="#e1bb9d" stroke-width="1.51"/><path d="M1380,180L1380,300L1500,180Z" fill="#dbb49e" stroke="#dbb49e" stroke-width="1.51"/><path d="M1380,180L1500,180L1500,60Z" fill="#cdb99c" stroke="#cdb99c" stroke-width="1.51"/><path d="M1380,60L1380,180L1500,60Z" fill="#c7b19c" stroke="#c7b19c" stroke-width="1.51"/><path d="M1380,60L1500,60L1500,-60Z" fill="#ccac8f" stroke="#ccac8f" stroke-width="1.51"/><path d="M1380,-60L1380,60L1500,-60Z" fill="#d39d88" stroke="#d39d88" stroke-width="1.51"/><path d="M1380,-60L1500,-60L1500,-180Z" fill="#df9177" stroke="#df9177" stroke-width="1.51"/><path d="M1380,-180L1380,-60L1500,-180Z" fill="#e4806f" stroke="#e4806f" stroke-width="1.51"/><path d="M1260,1260L1380,1260L1380,1140Z" fill="#e3af8f" stroke="#e3af8f" stroke-width="1.51"/><path d="M1260,1140L1260,1260L1380,1140Z" fill="#e7a786" stroke="#e7a786" stroke-width="1.51"/><path d="M1260,1140L1380,1140L1380,1020Z" fill="#ecab72" stroke="#ecab72" stroke-width="1.51"/><path d="M1260,1020L1260,1140L1380,1020Z" fill="#f0a369" stroke="#f0a369" stroke-width="1.51"/><path d="M1260,1020L1380,1020L1380,900Z" fill="#f3a15d" stroke="#f3a15d" stroke-width="1.51"/><path d="M1260,900L1260,1020L1380,900Z" fill="#f38f61" stroke="#f38f61" stroke-width="1.51"/><path d="M1260,900L1380,900L1380,780Z" fill="#f38064" stroke="#f38064" stroke-width="1.51"/><path d="M1260,780L1260,900L1380,780Z" fill="#f26d68" stroke="#f26d68" stroke-width="1.51"/><path d="M1260,780L1380,780L1380,660Z" fill="#f15c6a" stroke="#f15c6a" stroke-width="1.51"/><path d="M1260,660L1260,780L1380,660Z" fill="#ef426d" stroke="#ef426d" stroke-width="1.51"/><path d="M1260,660L1380,660L1380,540Z" fill="#f36679" stroke="#f36679" stroke-width="1.51"/><path d="M1260,540L1260,660L1380,540Z" fill="#f46b81" stroke="#f46b81" stroke-width="1.51"/><path d="M1260,540L1380,540L1380,420Z" fill="#f68a8e" stroke="#f68a8e" stroke-width="1.51"/><path d="M1260,420L1260,540L1380,420Z" fill="#f68e96" stroke="#f68e96" stroke-width="1.51"/><path d="M1260,420L1380,420L1380,300Z" fill="#f6aaa3" stroke="#f6aaa3" stroke-width="1.51"/><path d="M1260,300L1260,420L1380,300Z" fill="#efa3a3" stroke="#efa3a3" stroke-width="1.51"/><path d="M1260,300L1380,300L1380,180Z" fill="#e2a8a1" stroke="#e2a8a1" stroke-width="1.51"/><path d="M1260,180L1260,300L1380,180Z" fill="#dca1a1" stroke="#dca1a1" stroke-width="1.51"/><path d="M1260,180L1380,180L1380,60Z" fill="#cfa69f" stroke="#cfa69f" stroke-width="1.51"/><path d="M1260,60L1260,180L1380,60Z" fill="#c99f9f" stroke="#c99f9f" stroke-width="1.51"/><path d="M1260,60L1380,60L1380,-60Z" fill="#ce9992" stroke="#ce9992" stroke-width="1.51"/><path d="M1260,-60L1260,60L1380,-60Z" fill="#d4898b" stroke="#d4898b" stroke-width="1.51"/><path d="M1260,-60L1380,-60L1380,-180Z" fill="#df7c7a" stroke="#df7c7a" stroke-width="1.51"/><path d="M1260,-180L1260,-60L1380,-180Z" fill="#e36a73" stroke="#e36a73" stroke-width="1.51"/><path d="M1140,1260L1260,1260L1260,1140Z" fill="#e49b92" stroke="#e49b92" stroke-width="1.51"/><path d="M1140,1140L1140,1260L1260,1140Z" fill="#e79a8b" stroke="#e79a8b" stroke-width="1.51"/><path d="M1140,1140L1260,1140L1260,1020Z" fill="#ed9776" stroke="#ed9776" stroke-width="1.51"/><path d="M1140,1020L1140,1140L1260,1020Z" fill="#f0956f" stroke="#f0956f" stroke-width="1.51"/><path d="M1140,1020L1260,1020L1260,900Z" fill="#f38c62" stroke="#f38c62" stroke-width="1.51"/><path d="M1140,900L1140,1020L1260,900Z" fill="#f38167" stroke="#f38167" stroke-width="1.51"/><path d="M1140,900L1260,900L1260,780Z" fill="#f26968" stroke="#f26968" stroke-width="1.51"/><path d="M1140,780L1140,900L1260,780Z" fill="#f15c6d" stroke="#f15c6d" stroke-width="1.51"/><path d="M1140,780L1260,780L1260,660Z" fill="#ef3c6d" stroke="#ef3c6d" stroke-width="1.51"/><path d="M1140,660L1140,780L1260,660Z" fill="#ee2471" stroke="#ee2471" stroke-width="1.51"/><path d="M1140,660L1260,660L1260,540Z" fill="#f14a7b" stroke="#f14a7b" stroke-width="1.51"/><path d="M1140,540L1140,660L1260,540Z" fill="#f25985" stroke="#f25985" stroke-width="1.51"/><path d="M1140,540L1260,540L1260,420Z" fill="#f57491" stroke="#f57491" stroke-width="1.51"/><path d="M1140,420L1140,540L1260,420Z" fill="#f57f9a" stroke="#f57f9a" stroke-width="1.51"/><path d="M1140,420L1260,420L1260,300Z" fill="#f696a6" stroke="#f696a6" stroke-width="1.51"/><path d="M1140,300L1140,420L1260,300Z" fill="#ef95a8" stroke="#ef95a8" stroke-width="1.51"/><path d="M1140,300L1260,300L1260,180Z" fill="#e394a3" stroke="#e394a3" stroke-width="1.51"/><path d="M1140,180L1140,300L1260,180Z" fill="#dc94a6" stroke="#dc94a6" stroke-width="1.51"/><path d="M1140,180L1260,180L1260,60Z" fill="#d093a1" stroke="#d093a1" stroke-width="1.51"/><path d="M1140,60L1140,180L1260,60Z" fill="#c992a3" stroke="#c992a3" stroke-width="1.51"/><path d="M1140,60L1260,60L1260,-60Z" fill="#ce8595" stroke="#ce8595" stroke-width="1.51"/><path d="M1140,-60L1140,60L1260,-60Z" fill="#d37c90" stroke="#d37c90" stroke-width="1.51"/><path d="M1140,-60L1260,-60L1260,-180Z" fill="#de667d" stroke="#de667d" stroke-width="1.51"/><path d="M1140,-180L1140,-60L1260,-180Z" fill="#e25a77" stroke="#e25a77" stroke-width="1.51"/><path d="M1020,1260L1140,1260L1140,1140Z" fill="#e3a99e" stroke="#e3a99e" stroke-width="1.51"/><path d="M1020,1140L1020,1260L1140,1140Z" fill="#e7ae9a" stroke="#e7ae9a" stroke-width="1.51"/><path d="M1020,1140L1140,1140L1140,1020Z" fill="#eda482" stroke="#eda482" stroke-width="1.51"/><path d="M1020,1020L1020,1140L1140,1020Z" fill="#f1aa7d" stroke="#f1aa7d" stroke-width="1.51"/><path d="M1020,1020L1140,1020L1140,900Z" fill="#f49a6e" stroke="#f49a6e" stroke-width="1.51"/><path d="M1020,900L1020,1020L1140,900Z" fill="#f59775" stroke="#f59775" stroke-width="1.51"/><path d="M1020,900L1140,900L1140,780Z" fill="#f37974" stroke="#f37974" stroke-width="1.51"/><path d="M1020,780L1020,900L1140,780Z" fill="#f4757a" stroke="#f4757a" stroke-width="1.51"/><path d="M1020,780L1140,780L1140,660Z" fill="#f15278" stroke="#f15278" stroke-width="1.51"/><path d="M1020,660L1020,780L1140,660Z" fill="#f14c7f" stroke="#f14c7f" stroke-width="1.51"/><path d="M1020,660L1140,660L1140,540Z" fill="#f35d87" stroke="#f35d87" stroke-width="1.51"/><path d="M1020,540L1020,660L1140,540Z" fill="#f57393" stroke="#f57393" stroke-width="1.51"/><path d="M1020,540L1140,540L1140,420Z" fill="#f5839d" stroke="#f5839d" stroke-width="1.51"/><path d="M1020,420L1020,540L1140,420Z" fill="#f696a9" stroke="#f696a9" stroke-width="1.51"/><path d="M1020,420L1140,420L1140,300Z" fill="#f5a4b2" stroke="#f5a4b2" stroke-width="1.51"/><path d="M1020,300L1020,420L1140,300Z" fill="#eeaab7" stroke="#eeaab7" stroke-width="1.51"/><path d="M1020,300L1140,300L1140,180Z" fill="#e1a2b0" stroke="#e1a2b0" stroke-width="1.51"/><path d="M1020,180L1020,300L1140,180Z" fill="#dba8b5" stroke="#dba8b5" stroke-width="1.51"/><path d="M1020,180L1140,180L1140,60Z" fill="#cea0ae" stroke="#cea0ae" stroke-width="1.51"/><path d="M1020,60L1020,180L1140,60Z" fill="#c7a6b2" stroke="#c7a6b2" stroke-width="1.51"/><path d="M1020,60L1140,60L1140,-60Z" fill="#cd93a1" stroke="#cd93a1" stroke-width="1.51"/><path d="M1020,-60L1020,60L1140,-60Z" fill="#d3919e" stroke="#d3919e" stroke-width="1.51"/><path d="M1020,-60L1140,-60L1140,-180Z" fill="#df7589" stroke="#df7589" stroke-width="1.51"/><path d="M1020,-180L1020,-60L1140,-180Z" fill="#e57285" stroke="#e57285" stroke-width="1.51"/><path d="M900,1260L1020,1260L1020,1140Z" fill="#e1bdad" stroke="#e1bdad" stroke-width="1.51"/><path d="M900,1140L900,1260L1020,1140Z" fill="#e5c2a8" stroke="#e5c2a8" stroke-width="1.51"/><path d="M900,1140L1020,1140L1020,1020Z" fill="#edb990" stroke="#edb990" stroke-width="1.51"/><path d="M900,1020L900,1140L1020,1020Z" fill="#f0be8b" stroke="#f0be8b" stroke-width="1.51"/><path d="M900,1020L1020,1020L1020,900Z" fill="#f5af7c" stroke="#f5af7c" stroke-width="1.51"/><path d="M900,900L900,1020L1020,900Z" fill="#f5ab82" stroke="#f5ab82" stroke-width="1.51"/><path d="M900,900L1020,900L1020,780Z" fill="#f58f82" stroke="#f58f82" stroke-width="1.51"/><path d="M900,780L900,900L1020,780Z" fill="#f68b88" stroke="#f68b88" stroke-width="1.51"/><path d="M900,780L1020,780L1020,660Z" fill="#f46d86" stroke="#f46d86" stroke-width="1.51"/><path d="M900,660L900,780L1020,660Z" fill="#f4688c" stroke="#f4688c" stroke-width="1.51"/><path d="M900,660L1020,660L1020,540Z" fill="#f57795" stroke="#f57795" stroke-width="1.51"/><path d="M900,540L900,660L1020,540Z" fill="#f68aa1" stroke="#f68aa1" stroke-width="1.51"/><path d="M900,540L1020,540L1020,420Z" fill="#f69aab" stroke="#f69aab" stroke-width="1.51"/><path d="M900,420L900,540L1020,420Z" fill="#f5abb7" stroke="#f5abb7" stroke-width="1.51"/><path d="M900,420L1020,420L1020,300Z" fill="#f4b9c1" stroke="#f4b9c1" stroke-width="1.51"/><path d="M900,300L900,420L1020,300Z" fill="#edbfc5" stroke="#edbfc5" stroke-width="1.51"/><path d="M900,300L1020,300L1020,180Z" fill="#e0b7bf" stroke="#e0b7bf" stroke-width="1.51"/><path d="M900,180L900,300L1020,180Z" fill="#d8bcc3" stroke="#d8bcc3" stroke-width="1.51"/><path d="M900,180L1020,180L1020,60Z" fill="#cbb4bd" stroke="#cbb4bd" stroke-width="1.51"/><path d="M900,60L900,180L1020,60Z" fill="#c3b9c1" stroke="#c3b9c1" stroke-width="1.51"/><path d="M900,60L1020,60L1020,-60Z" fill="#cba7b0" stroke="#cba7b0" stroke-width="1.51"/><path d="M900,-60L900,60L1020,-60Z" fill="#d2a5ac" stroke="#d2a5ac" stroke-width="1.51"/><path d="M900,-60L1020,-60L1020,-180Z" fill="#e08b97" stroke="#e08b97" stroke-width="1.51"/><path d="M900,-180L900,-60L1020,-180Z" fill="#e68893" stroke="#e68893" stroke-width="1.51"/><path d="M780,1260L900,1260L900,1140Z" fill="#ded1bc" stroke="#ded1bc" stroke-width="1.51"/><path d="M780,1140L780,1260L900,1140Z" fill="#e1d6b7" stroke="#e1d6b7" stroke-width="1.51"/><path d="M780,1140L900,1140L900,1020Z" fill="#ebcd9f" stroke="#ebcd9f" stroke-width="1.51"/><path d="M780,1020L780,1140L900,1020Z" fill="#eed29a" stroke="#eed29a" stroke-width="1.51"/><path d="M780,1020L900,1020L900,900Z" fill="#f5c38a" stroke="#f5c38a" stroke-width="1.51"/><path d="M780,900L780,1020L900,900Z" fill="#f5c090" stroke="#f5c090" stroke-width="1.51"/><path d="M780,900L900,900L900,780Z" fill="#f6a48f" stroke="#f6a48f" stroke-width="1.51"/><path d="M780,780L780,900L900,780Z" fill="#f6a196" stroke="#f6a196" stroke-width="1.51"/><path d="M780,780L900,780L900,660Z" fill="#f68494" stroke="#f68494" stroke-width="1.51"/><path d="M780,660L780,780L900,660Z" fill="#f5809b" stroke="#f5809b" stroke-width="1.51"/><path d="M780,660L900,660L900,540Z" fill="#f68da4" stroke="#f68da4" stroke-width="1.51"/><path d="M780,540L780,660L900,540Z" fill="#f6a0b0" stroke="#f6a0b0" stroke-width="1.51"/><path d="M780,540L900,540L900,420Z" fill="#f6afba" stroke="#f6afba" stroke-width="1.51"/><path d="M780,420L780,540L900,420Z" fill="#f4c0c6" stroke="#f4c0c6" stroke-width="1.51"/><path d="M780,420L900,420L900,300Z" fill="#f2cdd0" stroke="#f2cdd0" stroke-width="1.51"/><path d="M780,300L780,420L900,300Z" fill="#e9d3d4" stroke="#e9d3d4" stroke-width="1.51"/><path d="M780,300L900,300L900,180Z" fill="#dccace" stroke="#dccace" stroke-width="1.51"/><path d="M780,180L780,300L900,180Z" fill="#d3d0d2" stroke="#d3d0d2" stroke-width="1.51"/><path d="M780,180L900,180L900,60Z" fill="#c7c8cc" stroke="#c7c8cc" stroke-width="1.51"/><path d="M780,60L780,180L900,60Z" fill="#bccdd0" stroke="#bccdd0" stroke-width="1.51"/><path d="M780,60L900,60L900,-60Z" fill="#c7bbbf" stroke="#c7bbbf" stroke-width="1.51"/><path d="M780,-60L780,60L900,-60Z" fill="#ceb9bb" stroke="#ceb9bb" stroke-width="1.51"/><path d="M780,-60L900,-60L900,-180Z" fill="#dfa0a6" stroke="#dfa0a6" stroke-width="1.51"/><path d="M780,-180L780,-60L900,-180Z" fill="#e59da2" stroke="#e59da2" stroke-width="1.51"/><path d="M660,1260L780,1260L780,1140Z" fill="#d9e4cb" stroke="#d9e4cb" stroke-width="1.51"/><path d="M660,1140L660,1260L780,1140Z" fill="#dbe6c3" stroke="#dbe6c3" stroke-width="1.51"/><path d="M660,1140L780,1140L780,1020Z" fill="#e8e1ad" stroke="#e8e1ad" stroke-width="1.51"/><path d="M660,1020L660,1140L780,1020Z" fill="#eae2a5" stroke="#eae2a5" stroke-width="1.51"/><path d="M660,1020L780,1020L780,900Z" fill="#f3d798" stroke="#f3d798" stroke-width="1.51"/><path d="M660,900L660,1020L780,900Z" fill="#f1d09c" stroke="#f1d09c" stroke-width="1.51"/><path d="M660,900L780,900L780,780Z" fill="#f6b99e" stroke="#f6b99e" stroke-width="1.51"/><path d="M660,780L660,900L780,780Z" fill="#f4b2a1" stroke="#f4b2a1" stroke-width="1.51"/><path d="M660,780L780,780L780,660Z" fill="#f69aa2" stroke="#f69aa2" stroke-width="1.51"/><path d="M660,660L660,780L780,660Z" fill="#f493a6" stroke="#f493a6" stroke-width="1.51"/><path d="M660,660L780,660L780,540Z" fill="#f6a3b2" stroke="#f6a3b2" stroke-width="1.51"/><path d="M660,540L660,660L780,540Z" fill="#f3b1bc" stroke="#f3b1bc" stroke-width="1.51"/><path d="M660,540L780,540L780,420Z" fill="#f4c3c9" stroke="#f4c3c9" stroke-width="1.51"/><path d="M660,420L660,540L780,420Z" fill="#efd1d2" stroke="#efd1d2" stroke-width="1.51"/><path d="M660,420L780,420L780,300Z" fill="#eee2df" stroke="#eee2df" stroke-width="1.51"/><path d="M660,300L660,420L780,300Z" fill="#e3e4e0" stroke="#e3e4e0" stroke-width="1.51"/><path d="M660,300L780,300L780,180Z" fill="#d7dedd" stroke="#d7dedd" stroke-width="1.51"/><path d="M660,180L660,300L780,180Z" fill="#cce0de" stroke="#cce0de" stroke-width="1.51"/><path d="M660,180L780,180L780,60Z" fill="#c0dbdb" stroke="#c0dbdb" stroke-width="1.51"/><path d="M660,60L660,180L780,60Z" fill="#b3dddc" stroke="#b3dddc" stroke-width="1.51"/><path d="M660,60L780,60L780,-60Z" fill="#c2cece" stroke="#c2cece" stroke-width="1.51"/><path d="M660,-60L660,60L780,-60Z" fill="#c8c9c7" stroke="#c8c9c7" stroke-width="1.51"/><path d="M660,-60L780,-60L780,-180Z" fill="#deb4b4" stroke="#deb4b4" stroke-width="1.51"/><path d="M660,-180L660,-60L780,-180Z" fill="#e2aead" stroke="#e2aead" stroke-width="1.51"/><path d="M540,1260L660,1260L660,1140Z" fill="#cce6cc" stroke="#cce6cc" stroke-width="1.51"/><path d="M540,1140L540,1260L660,1140Z" fill="#cde4c1" stroke="#cde4c1" stroke-width="1.51"/><path d="M540,1140L660,1140L660,1020Z" fill="#dce2ae" stroke="#dce2ae" stroke-width="1.51"/><path d="M540,1020L540,1140L660,1020Z" fill="#dce0a4" stroke="#dce0a4" stroke-width="1.51"/><path d="M540,1020L660,1020L660,900Z" fill="#e8d999" stroke="#e8d999" stroke-width="1.51"/><path d="M540,900L540,1020L660,900Z" fill="#e4ce9a" stroke="#e4ce9a" stroke-width="1.51"/><path d="M540,900L660,900L660,780Z" fill="#ebbb9f" stroke="#ebbb9f" stroke-width="1.51"/><path d="M540,780L540,900L660,780Z" fill="#e7b1a0" stroke="#e7b1a0" stroke-width="1.51"/><path d="M540,780L660,780L660,660Z" fill="#ec9da3" stroke="#ec9da3" stroke-width="1.51"/><path d="M540,660L540,780L660,660Z" fill="#e792a4" stroke="#e792a4" stroke-width="1.51"/><path d="M540,660L660,660L660,540Z" fill="#eba6b3" stroke="#eba6b3" stroke-width="1.51"/><path d="M540,540L540,660L660,540Z" fill="#e6b0ba" stroke="#e6b0ba" stroke-width="1.51"/><path d="M540,540L660,540L660,420Z" fill="#e8c5ca" stroke="#e8c5ca" stroke-width="1.51"/><path d="M540,420L540,540L660,420Z" fill="#e1cfd1" stroke="#e1cfd1" stroke-width="1.51"/><path d="M540,420L660,420L660,300Z" fill="#e1e3e0" stroke="#e1e3e0" stroke-width="1.51"/><path d="M540,300L540,420L660,300Z" fill="#d4e2df" stroke="#d4e2df" stroke-width="1.51"/><path d="M540,300L660,300L660,180Z" fill="#c9e0de" stroke="#c9e0de" stroke-width="1.51"/><path d="M540,180L540,300L660,180Z" fill="#bcdedd" stroke="#bcdedd" stroke-width="1.51"/><path d="M540,180L660,180L660,60Z" fill="#b1dcdc" stroke="#b1dcdc" stroke-width="1.51"/><path d="M540,60L540,180L660,60Z" fill="#a2dada" stroke="#a2dada" stroke-width="1.51"/><path d="M540,60L660,60L660,-60Z" fill="#b4cfcf" stroke="#b4cfcf" stroke-width="1.51"/><path d="M540,-60L540,60L660,-60Z" fill="#b9c7c6" stroke="#b9c7c6" stroke-width="1.51"/><path d="M540,-60L660,-60L660,-180Z" fill="#d2b6b5" stroke="#d2b6b5" stroke-width="1.51"/><path d="M540,-180L540,-60L660,-180Z" fill="#d5adac" stroke="#d5adac" stroke-width="1.51"/><path d="M420,1260L540,1260L540,1140Z" fill="#bce3ca" stroke="#bce3ca" stroke-width="1.51"/><path d="M420,1140L420,1260L540,1140Z" fill="#bee1c0" stroke="#bee1c0" stroke-width="1.51"/><path d="M420,1140L540,1140L540,1020Z" fill="#cee0ad" stroke="#cee0ad" stroke-width="1.51"/><path d="M420,1020L420,1140L540,1020Z" fill="#cedea2" stroke="#cedea2" stroke-width="1.51"/><path d="M420,1020L540,1020L540,900Z" fill="#dad798" stroke="#dad798" stroke-width="1.51"/><path d="M420,900L420,1020L540,900Z" fill="#d7cc99" stroke="#d7cc99" stroke-width="1.51"/><path d="M420,900L540,900L540,780Z" fill="#deba9d" stroke="#deba9d" stroke-width="1.51"/><path d="M420,780L420,900L540,780Z" fill="#dbaf9f" stroke="#dbaf9f" stroke-width="1.51"/><path d="M420,780L540,780L540,660Z" fill="#df9ca2" stroke="#df9ca2" stroke-width="1.51"/><path d="M420,660L420,780L540,660Z" fill="#db91a3" stroke="#db91a3" stroke-width="1.51"/><path d="M420,660L540,660L540,540Z" fill="#dea5b1" stroke="#dea5b1" stroke-width="1.51"/><path d="M420,540L420,660L540,540Z" fill="#d9afb9" stroke="#d9afb9" stroke-width="1.51"/><path d="M420,540L540,540L540,420Z" fill="#dac4c8" stroke="#dac4c8" stroke-width="1.51"/><path d="M420,420L420,540L540,420Z" fill="#d3cdcf" stroke="#d3cdcf" stroke-width="1.51"/><path d="M420,420L540,420L540,300Z" fill="#d1e1df" stroke="#d1e1df" stroke-width="1.51"/><path d="M420,300L420,420L540,300Z" fill="#c4dfdd" stroke="#c4dfdd" stroke-width="1.51"/><path d="M420,300L540,300L540,180Z" fill="#b9dedc" stroke="#b9dedc" stroke-width="1.51"/><path d="M420,180L420,300L540,180Z" fill="#acdcdb" stroke="#acdcdb" stroke-width="1.51"/><path d="M420,180L540,180L540,60Z" fill="#a0dadb" stroke="#a0dadb" stroke-width="1.51"/><path d="M420,60L420,180L540,60Z" fill="#90d8d9" stroke="#90d8d9" stroke-width="1.51"/><path d="M420,60L540,60L540,-60Z" fill="#a3cdcd" stroke="#a3cdcd" stroke-width="1.51"/><path d="M420,-60L420,60L540,-60Z" fill="#aac4c4" stroke="#aac4c4" stroke-width="1.51"/><path d="M420,-60L540,-60L540,-180Z" fill="#c4b4b4" stroke="#c4b4b4" stroke-width="1.51"/><path d="M420,-180L420,-60L540,-180Z" fill="#c8abaa" stroke="#c8abaa" stroke-width="1.51"/><path d="M300,1260L420,1260L420,1140Z" fill="#ace1c9" stroke="#ace1c9" stroke-width="1.51"/><path d="M300,1140L300,1260L420,1140Z" fill="#aedfbf" stroke="#aedfbf" stroke-width="1.51"/><path d="M300,1140L420,1140L420,1020Z" fill="#bfddab" stroke="#bfddab" stroke-width="1.51"/><path d="M300,1020L300,1140L420,1020Z" fill="#c0dba1" stroke="#c0dba1" stroke-width="1.51"/><path d="M300,1020L420,1020L420,900Z" fill="#cdd497" stroke="#cdd497" stroke-width="1.51"/><path d="M300,900L300,1020L420,900Z" fill="#caca98" stroke="#caca98" stroke-width="1.51"/><path d="M300,900L420,900L420,780Z" fill="#d1b89c" stroke="#d1b89c" stroke-width="1.51"/><path d="M300,780L300,900L420,780Z" fill="#cead9d" stroke="#cead9d" stroke-width="1.51"/><path d="M300,780L420,780L420,660Z" fill="#d39ba0" stroke="#d39ba0" stroke-width="1.51"/><path d="M300,660L300,780L420,660Z" fill="#cf90a1" stroke="#cf90a1" stroke-width="1.51"/><path d="M300,660L420,660L420,540Z" fill="#d2a3b0" stroke="#d2a3b0" stroke-width="1.51"/><path d="M300,540L300,660L420,540Z" fill="#ccadb7" stroke="#ccadb7" stroke-width="1.51"/><path d="M300,540L420,540L420,420Z" fill="#ccc2c7" stroke="#ccc2c7" stroke-width="1.51"/><path d="M300,420L300,540L420,420Z" fill="#c4cbce" stroke="#c4cbce" stroke-width="1.51"/><path d="M300,420L420,420L420,300Z" fill="#c2dfdd" stroke="#c2dfdd" stroke-width="1.51"/><path d="M300,300L300,420L420,300Z" fill="#b4dddc" stroke="#b4dddc" stroke-width="1.51"/><path d="M300,300L420,300L420,180Z" fill="#a9dbdb" stroke="#a9dbdb" stroke-width="1.51"/><path d="M300,180L300,300L420,180Z" fill="#9ad9da" stroke="#9ad9da" stroke-width="1.51"/><path d="M300,180L420,180L420,60Z" fill="#8ed8d9" stroke="#8ed8d9" stroke-width="1.51"/><path d="M300,60L300,180L420,60Z" fill="#7cd5d8" stroke="#7cd5d8" stroke-width="1.51"/><path d="M300,60L420,60L420,-60Z" fill="#93cbcc" stroke="#93cbcc" stroke-width="1.51"/><path d="M300,-60L300,60L420,-60Z" fill="#9bc2c3" stroke="#9bc2c3" stroke-width="1.51"/><path d="M300,-60L420,-60L420,-180Z" fill="#b7b2b2" stroke="#b7b2b2" stroke-width="1.51"/><path d="M300,-180L300,-60L420,-180Z" fill="#bba9a9" stroke="#bba9a9" stroke-width="1.51"/><path d="M180,1260L300,1260L300,1140Z" fill="#9bdec7" stroke="#9bdec7" stroke-width="1.51"/><path d="M180,1140L180,1260L300,1140Z" fill="#a5dabb" stroke="#a5dabb" stroke-width="1.51"/><path d="M180,1140L300,1140L300,1020Z" fill="#b0dbaa" stroke="#b0dbaa" stroke-width="1.51"/><path d="M180,1020L180,1140L300,1020Z" fill="#b7d79d" stroke="#b7d79d" stroke-width="1.51"/><path d="M180,1020L300,1020L300,900Z" fill="#bfd295" stroke="#bfd295" stroke-width="1.51"/><path d="M180,900L180,1020L300,900Z" fill="#c1c594" stroke="#c1c594" stroke-width="1.51"/><path d="M180,900L300,900L300,780Z" fill="#c4b69b" stroke="#c4b69b" stroke-width="1.51"/><path d="M180,780L180,900L300,780Z" fill="#c6a999" stroke="#c6a999" stroke-width="1.51"/><path d="M180,780L300,780L300,660Z" fill="#c7999f" stroke="#c7999f" stroke-width="1.51"/><path d="M180,660L180,780L300,660Z" fill="#c78c9e" stroke="#c78c9e" stroke-width="1.51"/><path d="M180,660L300,660L300,540Z" fill="#c4a2ae" stroke="#c4a2ae" stroke-width="1.51"/><path d="M180,540L180,660L300,540Z" fill="#c3a9b3" stroke="#c3a9b3" stroke-width="1.51"/><path d="M180,540L300,540L300,420Z" fill="#bec0c5" stroke="#bec0c5" stroke-width="1.51"/><path d="M180,420L180,540L300,420Z" fill="#bcc7ca" stroke="#bcc7ca" stroke-width="1.51"/><path d="M180,420L300,420L300,300Z" fill="#b2dddc" stroke="#b2dddc" stroke-width="1.51"/><path d="M180,300L180,420L300,300Z" fill="#abd8d8" stroke="#abd8d8" stroke-width="1.51"/><path d="M180,300L300,300L300,180Z" fill="#97d9d9" stroke="#97d9d9" stroke-width="1.51"/><path d="M180,180L180,300L300,180Z" fill="#90d5d6" stroke="#90d5d6" stroke-width="1.51"/><path d="M180,180L300,180L300,60Z" fill="#79d5d7" stroke="#79d5d7" stroke-width="1.51"/><path d="M180,60L180,180L300,60Z" fill="#71d0d3" stroke="#71d0d3" stroke-width="1.51"/><path d="M180,60L300,60L300,-60Z" fill="#80c9ca" stroke="#80c9ca" stroke-width="1.51"/><path d="M180,-60L180,60L300,-60Z" fill="#92bebf" stroke="#92bebf" stroke-width="1.51"/><path d="M180,-60L300,-60L300,-180Z" fill="#a9b0b1" stroke="#a9b0b1" stroke-width="1.51"/><path d="M180,-180L180,-60L300,-180Z" fill="#b3a5a5" stroke="#b3a5a5" stroke-width="1.51"/><path d="M60,1260L180,1260L180,1140Z" fill="#aed1b9" stroke="#aed1b9" stroke-width="1.51"/><path d="M60,1140L60,1260L180,1140Z" fill="#bccbaa" stroke="#bccbaa" stroke-width="1.51"/><path d="M60,1140L180,1140L180,1020Z" fill="#bfce9c" stroke="#bfce9c" stroke-width="1.51"/><path d="M60,1020L60,1140L180,1020Z" fill="#cac78d" stroke="#cac78d" stroke-width="1.51"/><path d="M60,1020L180,1020L180,900Z" fill="#cbc588" stroke="#cbc588" stroke-width="1.51"/><path d="M60,900L60,1020L180,900Z" fill="#d1b584" stroke="#d1b584" stroke-width="1.51"/><path d="M60,900L180,900L180,780Z" fill="#cfa88d" stroke="#cfa88d" stroke-width="1.51"/><path d="M60,780L60,900L180,780Z" fill="#d49889" stroke="#d49889" stroke-width="1.51"/><path d="M60,780L180,780L180,660Z" fill="#d08a92" stroke="#d08a92" stroke-width="1.51"/><path d="M60,660L60,780L180,660Z" fill="#d3798e" stroke="#d3798e" stroke-width="1.51"/><path d="M60,660L180,660L180,540Z" fill="#cf93a1" stroke="#cf93a1" stroke-width="1.51"/><path d="M60,540L60,660L180,540Z" fill="#d397a3" stroke="#d397a3" stroke-width="1.51"/><path d="M60,540L180,540L180,420Z" fill="#cbb2b7" stroke="#cbb2b7" stroke-width="1.51"/><path d="M60,420L60,540L180,420Z" fill="#cfb6b9" stroke="#cfb6b9" stroke-width="1.51"/><path d="M60,420L180,420L180,300Z" fill="#c3cfce" stroke="#c3cfce" stroke-width="1.51"/><path d="M60,300L60,420L180,300Z" fill="#c3c8c7" stroke="#c3c8c7" stroke-width="1.51"/><path d="M60,300L180,300L180,180Z" fill="#abcbcb" stroke="#abcbcb" stroke-width="1.51"/><path d="M60,180L60,300L180,180Z" fill="#acc5c5" stroke="#acc5c5" stroke-width="1.51"/><path d="M60,180L180,180L180,60Z" fill="#92c8c9" stroke="#92c8c9" stroke-width="1.51"/><path d="M60,60L60,180L180,60Z" fill="#93c1c2" stroke="#93c1c2" stroke-width="1.51"/><path d="M60,60L180,60L180,-60Z" fill="#96bcbc" stroke="#96bcbc" stroke-width="1.51"/><path d="M60,-60L60,60L180,-60Z" fill="#a9aeae" stroke="#a9aeae" stroke-width="1.51"/><path d="M60,-60L180,-60L180,-180Z" fill="#b6a3a3" stroke="#b6a3a3" stroke-width="1.51"/><path d="M60,-180L60,-60L180,-180Z" fill="#c39495" stroke="#c39495" stroke-width="1.51"/><path d="M-60,1260L60,1260L60,1140Z" fill="#c3c1a8" stroke="#c3c1a8" stroke-width="1.51"/><path d="M-60,1140L-60,1260L60,1140Z" fill="#cdba99" stroke="#cdba99" stroke-width="1.51"/><path d="M-60,1140L60,1140L60,1020Z" fill="#d0bd8c" stroke="#d0bd8c" stroke-width="1.51"/><path d="M-60,1020L-60,1140L60,1020Z" fill="#d9b77c" stroke="#d9b77c" stroke-width="1.51"/><path d="M-60,1020L60,1020L60,900Z" fill="#dab477" stroke="#dab477" stroke-width="1.51"/><path d="M-60,900L-60,1020L60,900Z" fill="#dea474" stroke="#dea474" stroke-width="1.51"/><path d="M-60,900L60,900L60,780Z" fill="#db967d" stroke="#db967d" stroke-width="1.51"/><path d="M-60,780L-60,900L60,780Z" fill="#df857a" stroke="#df857a" stroke-width="1.51"/><path d="M-60,780L60,780L60,660Z" fill="#db7782" stroke="#db7782" stroke-width="1.51"/><path d="M-60,660L-60,780L60,660Z" fill="#de647e" stroke="#de647e" stroke-width="1.51"/><path d="M-60,660L60,660L60,540Z" fill="#db8091" stroke="#db8091" stroke-width="1.51"/><path d="M-60,540L-60,660L60,540Z" fill="#df8493" stroke="#df8493" stroke-width="1.51"/><path d="M-60,540L60,540L60,420Z" fill="#dba0a7" stroke="#dba0a7" stroke-width="1.51"/><path d="M-60,420L-60,540L60,420Z" fill="#dea4a9" stroke="#dea4a9" stroke-width="1.51"/><path d="M-60,420L60,420L60,300Z" fill="#d6bebd" stroke="#d6bebd" stroke-width="1.51"/><path d="M-60,300L-60,420L60,300Z" fill="#d5b7b6" stroke="#d5b7b6" stroke-width="1.51"/><path d="M-60,300L60,300L60,180Z" fill="#c1bbba" stroke="#c1bbba" stroke-width="1.51"/><path d="M-60,180L-60,300L60,180Z" fill="#c0b4b4" stroke="#c0b4b4" stroke-width="1.51"/><path d="M-60,180L60,180L60,60Z" fill="#abb8b8" stroke="#abb8b8" stroke-width="1.51"/><path d="M-60,60L-60,180L60,60Z" fill="#abb1b2" stroke="#abb1b2" stroke-width="1.51"/><path d="M-60,60L60,60L60,-60Z" fill="#acabac" stroke="#acabac" stroke-width="1.51"/><path d="M-60,-60L-60,60L60,-60Z" fill="#bb9d9e" stroke="#bb9d9e" stroke-width="1.51"/><path d="M-60,-60L60,-60L60,-180Z" fill="#c59293" stroke="#c59293" stroke-width="1.51"/><path d="M-60,-180L-60,-60L60,-180Z" fill="#cf8285" stroke="#cf8285" stroke-width="1.51"/><path d="M-180,1260L-60,1260L-60,1140Z" fill="#d3b198" stroke="#d3b198" stroke-width="1.51"/><path d="M-180,1140L-180,1260L-60,1140Z" fill="#dcaa89" stroke="#dcaa89" stroke-width="1.51"/><path d="M-180,1140L-60,1140L-60,1020Z" fill="#dead7b" stroke="#dead7b" stroke-width="1.51"/><path d="M-180,1020L-180,1140L-60,1020Z" fill="#e5a66c" stroke="#e5a66c" stroke-width="1.51"/><path d="M-180,1020L-60,1020L-60,900Z" fill="#e5a367" stroke="#e5a367" stroke-width="1.51"/><path d="M-180,900L-180,1020L-60,900Z" fill="#e99364" stroke="#e99364" stroke-width="1.51"/><path d="M-180,900L-60,900L-60,780Z" fill="#e6836d" stroke="#e6836d" stroke-width="1.51"/><path d="M-180,780L-180,900L-60,780Z" fill="#e9726a" stroke="#e9726a" stroke-width="1.51"/><path d="M-180,780L-60,780L-60,660Z" fill="#e46172" stroke="#e46172" stroke-width="1.51"/><path d="M-180,660L-180,780L-60,660Z" fill="#e64a6f" stroke="#e64a6f" stroke-width="1.51"/><path d="M-180,660L-60,660L-60,540Z" fill="#e66b81" stroke="#e66b81" stroke-width="1.51"/><path d="M-180,540L-180,660L-60,540Z" fill="#ea7083" stroke="#ea7083" stroke-width="1.51"/><path d="M-180,540L-60,540L-60,420Z" fill="#e88d96" stroke="#e88d96" stroke-width="1.51"/><path d="M-180,420L-180,540L-60,420Z" fill="#eb9298" stroke="#eb9298" stroke-width="1.51"/><path d="M-180,420L-60,420L-60,300Z" fill="#e6adac" stroke="#e6adac" stroke-width="1.51"/><path d="M-180,300L-180,420L-60,300Z" fill="#e4a6a6" stroke="#e4a6a6" stroke-width="1.51"/><path d="M-180,300L-60,300L-60,180Z" fill="#d2aaaa" stroke="#d2aaaa" stroke-width="1.51"/><path d="M-180,180L-180,300L-60,180Z" fill="#d1a4a4" stroke="#d1a4a4" stroke-width="1.51"/><path d="M-180,180L-60,180L-60,60Z" fill="#bea8a8" stroke="#bea8a8" stroke-width="1.51"/><path d="M-180,60L-180,180L-60,60Z" fill="#bda1a1" stroke="#bda1a1" stroke-width="1.51"/><path d="M-180,60L-60,60L-60,-60Z" fill="#be9b9b" stroke="#be9b9b" stroke-width="1.51"/><path d="M-180,-60L-180,60L-60,-60Z" fill="#c98c8e" stroke="#c98c8e" stroke-width="1.51"/><path d="M-180,-60L-60,-60L-60,-180Z" fill="#d17f83" stroke="#d17f83" stroke-width="1.51"/><path d="M-180,-180L-180,-60L-60,-180Z" fill="#da6f75" stroke="#da6f75" stroke-width="1.51"/></svg>