<svg xmlns="http://www.w3.org/2000/svg" width="1920" height="1080"><path d="M1980,1260L2100,1260L2100,1140Z" fill="#800411" stroke="#800411" stroke-width="1.51"/><path d="M1980,1140L1980,1260L2100,1140Z" fill="#8b0712" stroke="#8b0712" stroke-width="1.51"/><path d="M1980,1140L2100,1140L2100,1020Z" fill="#920913" stroke="#920913" stroke-width="1.51"/><path d="M1980,1020L1980,1140L2100,1020Z" fill="#9a0b14" stroke="#9a0b14" stroke-width="1.51"/><path d="M1980,1020L2100,1020L2100,900Z" fill="#9d0c15" stroke="#9d0c15" stroke-width="1.51"/><path d="M1980,900L1980,1020L2100,900Z" fill="#a50e17" stroke="#a50e17" stroke-width="1.51"/><path d="M1980,900L2100,900L2100,780Z" fill="#a81519" stroke="#a81519" stroke-width="1.51"/><path d="M1980,780L1980,900L2100,780Z" fill="#b01a1b" stroke="#b01a1b" stroke-width="1.51"/><path d="M1980,780L2100,780L2100,660Z" fill="#b3201e" stroke="#b3201e" stroke-width="1.51"/><path d="M1980,660L1980,780L2100,660Z" fill="#b92720" stroke="#b92720" stroke-width="1.51"/><path d="M1980,660L2100,660L2100,540Z" fill="#b73126" stroke="#b73126" stroke-width="1.51"/><path d="M1980,540L1980,660L2100,540Z" fill="#bd3729" stroke="#bd3729" stroke-width="1.51"/><path d="M1980,540L2100,540L2100,420Z" fill="#ba402f" stroke="#ba402f" stroke-width="1.51"/><path d="M1980,420L1980,540L2100,420Z" fill="#bf4634" stroke="#bf4634" stroke-width="1.51"/><path d="M1980,420L2100,420L2100,300Z" fill="#bb4d3b" stroke="#bb4d3b" stroke-width="1.51"/><path d="M1980,300L1980,420L2100,300Z" fill="#bf533f" stroke="#bf533f" stroke-width="1.51"/><path d="M1980,300L2100,300L2100,180Z" fill="#bc5a47" stroke="#bc5a47" stroke-width="1.51"/><path d="M1980,180L1980,300L2100,180Z" fill="#c1604c" stroke="#c1604c" stroke-width="1.51"/><path d="M1980,180L2100,180L2100,60Z" fill="#be6754" stroke="#be6754" stroke-width="1.51"/><path d="M1980,60L1980,180L2100,60Z" fill="#c36c5a" stroke="#c36c5a" stroke-width="1.51"/><path d="M1980,60L2100,60L2100,-60Z" fill="#c17262" stroke="#c17262" stroke-width="1.51"/><path d="M1980,-60L1980,60L2100,-60Z" fill="#c67767" stroke="#c67767" stroke-width="1.51"/><path d="M1980,-60L2100,-60L2100,-180Z" fill="#c37b6d" stroke="#c37b6d" stroke-width="1.51"/><path d="M1980,-180L1980,-60L2100,-180Z" fill="#c87f71" stroke="#c87f71" stroke-width="1.51"/><path d="M1860,1260L1980,1260L1980,1140Z" fill="#8d0813" stroke="#8d0813" stroke-width="1.51"/><path d="M1860,1140L1860,1260L1980,1140Z" fill="#970b14" stroke="#970b14" stroke-width="1.51"/><path d="M1860,1140L1980,1140L1980,1020Z" fill="#9f0d15" stroke="#9f0d15" stroke-width="1.51"/><path d="M1860,1020L1860,1140L1980,1020Z" fill="#a70f16" stroke="#a70f16" stroke-width="1.51"/><path d="M1860,1020L1980,1020L1980,900Z" fill="#aa1017" stroke="#aa1017" stroke-width="1.51"/><path d="M1860,900L1860,1020L1980,900Z" fill="#b21218" stroke="#b21218" stroke-width="1.51"/><path d="M1860,900L1980,900L1980,780Z" fill="#b5191a" stroke="#b5191a" stroke-width="1.51"/><path d="M1860,780L1860,900L1980,780Z" fill="#bd1d1c" stroke="#bd1d1c" stroke-width="1.51"/><path d="M1860,780L1980,780L1980,660Z" fill="#c0241f" stroke="#c0241f" stroke-width="1.51"/><path d="M1860,660L1860,780L1980,660Z" fill="#c62b22" stroke="#c62b22" stroke-width="1.51"/><path d="M1860,660L1980,660L1980,540Z" fill="#c43528" stroke="#c43528" stroke-width="1.51"/><path d="M1860,540L1860,660L1980,540Z" fill="#ca3b2b" stroke="#ca3b2b" stroke-width="1.51"/><path d="M1860,540L1980,540L1980,420Z" fill="#c74431" stroke="#c74431" stroke-width="1.51"/><path d="M1860,420L1860,540L1980,420Z" fill="#cc4a35" stroke="#cc4a35" stroke-width="1.51"/><path d="M1860,420L1980,420L1980,300Z" fill="#c8513d" stroke="#c8513d" stroke-width="1.51"/><path d="M1860,300L1860,420L1980,300Z" fill="#cd5741" stroke="#cd5741" stroke-width="1.51"/><path d="M1860,300L1980,300L1980,180Z" fill="#ca5f49" stroke="#ca5f49" stroke-width="1.51"/><path d="M1860,180L1860,300L1980,180Z" fill="#cf654f" stroke="#cf654f" stroke-width="1.51"/><path d="M1860,180L1980,180L1980,60Z" fill="#cb6c57" stroke="#cb6c57" stroke-width="1.51"/><path d="M1860,60L1860,180L1980,60Z" fill="#d1715c" stroke="#d1715c" stroke-width="1.51"/><path d="M1860,60L1980,60L1980,-60Z" fill="#cf7764" stroke="#cf7764" stroke-width="1.51"/><path d="M1860,-60L1860,60L1980,-60Z" fill="#d47d6a" stroke="#d47d6a" stroke-width="1.51"/><path d="M1860,-60L1980,-60L1980,-180Z" fill="#d1806f" stroke="#d1806f" stroke-width="1.51"/><path d="M1860,-180L1860,-60L1980,-180Z" fill="#d68473" stroke="#d68473" stroke-width="1.51"/><path d="M1740,1260L1860,1260L1860,1140Z" fill="#980b14" stroke="#980b14" stroke-width="1.51"/><path d="M1740,1140L1740,1260L1860,1140Z" fill="#a10e15" stroke="#a10e15" stroke-width="1.51"/><path d="M1740,1140L1860,1140L1860,1020Z" fill="#aa1016" stroke="#aa1016" stroke-width="1.51"/><path d="M1740,1020L1740,1140L1860,1020Z" fill="#b01217" stroke="#b01217" stroke-width="1.51"/><path d="M1740,1020L1860,1020L1860,900Z" fill="#b51318" stroke="#b51318" stroke-width="1.51"/><path d="M1740,900L1740,1020L1860,900Z" fill="#bc151a" stroke="#bc151a" stroke-width="1.51"/><path d="M1740,900L1860,900L1860,780Z" fill="#c11b1c" stroke="#c11b1c" stroke-width="1.51"/><path d="M1740,780L1740,900L1860,780Z" fill="#c7201e" stroke="#c7201e" stroke-width="1.51"/><path d="M1740,780L1860,780L1860,660Z" fill="#cc2621" stroke="#cc2621" stroke-width="1.51"/><path d="M1740,660L1740,780L1860,660Z" fill="#d02d24" stroke="#d02d24" stroke-width="1.51"/><path d="M1740,660L1860,660L1860,540Z" fill="#d03929" stroke="#d03929" stroke-width="1.51"/><path d="M1740,540L1740,660L1860,540Z" fill="#d43e2d" stroke="#d43e2d" stroke-width="1.51"/><path d="M1740,540L1860,540L1860,420Z" fill="#d34833" stroke="#d34833" stroke-width="1.51"/><path d="M1740,420L1740,540L1860,420Z" fill="#d64d37" stroke="#d64d37" stroke-width="1.51"/><path d="M1740,420L1860,420L1860,300Z" fill="#d4553f" stroke="#d4553f" stroke-width="1.51"/><path d="M1740,300L1740,420L1860,300Z" fill="#d75a43" stroke="#d75a43" stroke-width="1.51"/><path d="M1740,300L1860,300L1860,180Z" fill="#d6634b" stroke="#d6634b" stroke-width="1.51"/><path d="M1740,180L1740,300L1860,180Z" fill="#d96851" stroke="#d96851" stroke-width="1.51"/><path d="M1740,180L1860,180L1860,60Z" fill="#d77059" stroke="#d77059" stroke-width="1.51"/><path d="M1740,60L1740,180L1860,60Z" fill="#db755e" stroke="#db755e" stroke-width="1.51"/><path d="M1740,60L1860,60L1860,-60Z" fill="#db7c67" stroke="#db7c67" stroke-width="1.51"/><path d="M1740,-60L1740,60L1860,-60Z" fill="#de806c" stroke="#de806c" stroke-width="1.51"/><path d="M1740,-60L1860,-60L1860,-180Z" fill="#dd8572" stroke="#dd8572" stroke-width="1.51"/><path d="M1740,-180L1740,-60L1860,-180Z" fill="#e18876" stroke="#e18876" stroke-width="1.51"/><path d="M1620,1260L1740,1260L1740,1140Z" fill="#9f0d16" stroke="#9f0d16" stroke-width="1.51"/><path d="M1620,1140L1620,1260L1740,1140Z" fill="#a81016" stroke="#a81016" stroke-width="1.51"/><path d="M1620,1140L1740,1140L1740,1020Z" fill="#b11217" stroke="#b11217" stroke-width="1.51"/><path d="M1620,1020L1620,1140L1740,1020Z" fill="#b81319" stroke="#b81319" stroke-width="1.51"/><path d="M1620,1020L1740,1020L1740,900Z" fill="#bd151a" stroke="#bd151a" stroke-width="1.51"/><path d="M1620,900L1620,1020L1740,900Z" fill="#c3161b" stroke="#c3161b" stroke-width="1.51"/><path d="M1620,900L1740,900L1740,780Z" fill="#c81d1d" stroke="#c81d1d" stroke-width="1.51"/><path d="M1620,780L1620,900L1740,780Z" fill="#ce221f" stroke="#ce221f" stroke-width="1.51"/><path d="M1620,780L1740,780L1740,660Z" fill="#d32822" stroke="#d32822" stroke-width="1.51"/><path d="M1620,660L1620,780L1740,660Z" fill="#d72f25" stroke="#d72f25" stroke-width="1.51"/><path d="M1620,660L1740,660L1740,540Z" fill="#d73b2b" stroke="#d73b2b" stroke-width="1.51"/><path d="M1620,540L1620,660L1740,540Z" fill="#db402e" stroke="#db402e" stroke-width="1.51"/><path d="M1620,540L1740,540L1740,420Z" fill="#db4a35" stroke="#db4a35" stroke-width="1.51"/><path d="M1620,420L1620,540L1740,420Z" fill="#de4f39" stroke="#de4f39" stroke-width="1.51"/><path d="M1620,420L1740,420L1740,300Z" fill="#dc5841" stroke="#dc5841" stroke-width="1.51"/><path d="M1620,300L1620,420L1740,300Z" fill="#df5d45" stroke="#df5d45" stroke-width="1.51"/><path d="M1620,300L1740,300L1740,180Z" fill="#de654d" stroke="#de654d" stroke-width="1.51"/><path d="M1620,180L1620,300L1740,180Z" fill="#e16b53" stroke="#e16b53" stroke-width="1.51"/><path d="M1620,180L1740,180L1740,60Z" fill="#df735b" stroke="#df735b" stroke-width="1.51"/><path d="M1620,60L1620,180L1740,60Z" fill="#e37760" stroke="#e37760" stroke-width="1.51"/><path d="M1620,60L1740,60L1740,-60Z" fill="#e37f69" stroke="#e37f69" stroke-width="1.51"/><path d="M1620,-60L1620,60L1740,-60Z" fill="#e6836e" stroke="#e6836e" stroke-width="1.51"/><path d="M1620,-60L1740,-60L1740,-180Z" fill="#e58874" stroke="#e58874" stroke-width="1.51"/><path d="M1620,-180L1620,-60L1740,-180Z" fill="#e98b78" stroke="#e98b78" stroke-width="1.51"/><path d="M1500,1260L1620,1260L1620,1140Z" fill="#a60e17" stroke="#a60e17" stroke-width="1.51"/><path d="M1500,1140L1500,1260L1620,1140Z" fill="#b01318" stroke="#b01318" stroke-width="1.51"/><path d="M1500,1140L1620,1140L1620,1020Z" fill="#b91319" stroke="#b91319" stroke-width="1.51"/><path d="M1500,1020L1500,1140L1620,1020Z" fill="#bf171b" stroke="#bf171b" stroke-width="1.51"/><path d="M1500,1020L1620,1020L1620,900Z" fill="#c4161b" stroke="#c4161b" stroke-width="1.51"/><path d="M1500,900L1500,1020L1620,900Z" fill="#cb1a1d" stroke="#cb1a1d" stroke-width="1.51"/><path d="M1500,900L1620,900L1620,780Z" fill="#d01f1f" stroke="#d01f1f" stroke-width="1.51"/><path d="M1500,780L1500,900L1620,780Z" fill="#d62521" stroke="#d62521" stroke-width="1.51"/><path d="M1500,780L1620,780L1620,660Z" fill="#db2a24" stroke="#db2a24" stroke-width="1.51"/><path d="M1500,660L1500,780L1620,660Z" fill="#df3227" stroke="#df3227" stroke-width="1.51"/><path d="M1500,660L1620,660L1620,540Z" fill="#df3d2d" stroke="#df3d2d" stroke-width="1.51"/><path d="M1500,540L1500,660L1620,540Z" fill="#e34331" stroke="#e34331" stroke-width="1.51"/><path d="M1500,540L1620,540L1620,420Z" fill="#e24c36" stroke="#e24c36" stroke-width="1.51"/><path d="M1500,420L1500,540L1620,420Z" fill="#e5523b" stroke="#e5523b" stroke-width="1.51"/><path d="M1500,420L1620,420L1620,300Z" fill="#e35a42" stroke="#e35a42" stroke-width="1.51"/><path d="M1500,300L1500,420L1620,300Z" fill="#e66047" stroke="#e66047" stroke-width="1.51"/><path d="M1500,300L1620,300L1620,180Z" fill="#e5684f" stroke="#e5684f" stroke-width="1.51"/><path d="M1500,180L1500,300L1620,180Z" fill="#e96e55" stroke="#e96e55" stroke-width="1.51"/><path d="M1500,180L1620,180L1620,60Z" fill="#e7765d" stroke="#e7765d" stroke-width="1.51"/><path d="M1500,60L1500,180L1620,60Z" fill="#eb7b62" stroke="#eb7b62" stroke-width="1.51"/><path d="M1500,60L1620,60L1620,-60Z" fill="#eb826a" stroke="#eb826a" stroke-width="1.51"/><path d="M1500,-60L1500,60L1620,-60Z" fill="#ee8771" stroke="#ee8771" stroke-width="1.51"/><path d="M1500,-60L1620,-60L1620,-180Z" fill="#ed8b76" stroke="#ed8b76" stroke-width="1.51"/><path d="M1500,-180L1500,-60L1620,-180Z" fill="#f18e7a" stroke="#f18e7a" stroke-width="1.51"/><path d="M1380,1260L1500,1260L1500,1140Z" fill="#ae161a" stroke="#ae161a" stroke-width="1.51"/><path d="M1380,1140L1380,1260L1500,1140Z" fill="#b71b1b" stroke="#b71b1b" stroke-width="1.51"/><path d="M1380,1140L1500,1140L1500,1020Z" fill="#c01b1c" stroke="#c01b1c" stroke-width="1.51"/><path d="M1380,1020L1380,1140L1500,1020Z" fill="#c71f1e" stroke="#c71f1e" stroke-width="1.51"/><path d="M1380,1020L1500,1020L1500,900Z" fill="#cc1e1e" stroke="#cc1e1e" stroke-width="1.51"/><path d="M1380,900L1380,1020L1500,900Z" fill="#d22220" stroke="#d22220" stroke-width="1.51"/><path d="M1380,900L1500,900L1500,780Z" fill="#d72622" stroke="#d72622" stroke-width="1.51"/><path d="M1380,780L1380,900L1500,780Z" fill="#dd2c24" stroke="#dd2c24" stroke-width="1.51"/><path d="M1380,780L1500,780L1500,660Z" fill="#e23027" stroke="#e23027" stroke-width="1.51"/><path d="M1380,660L1380,780L1500,660Z" fill="#e6382a" stroke="#e6382a" stroke-width="1.51"/><path d="M1380,660L1500,660L1500,540Z" fill="#e74230" stroke="#e74230" stroke-width="1.51"/><path d="M1380,540L1380,660L1500,540Z" fill="#eb4834" stroke="#eb4834" stroke-width="1.51"/><path d="M1380,540L1500,540L1500,420Z" fill="#ea513a" stroke="#ea513a" stroke-width="1.51"/><path d="M1380,420L1380,540L1500,420Z" fill="#ed573f" stroke="#ed573f" stroke-width="1.51"/><path d="M1380,420L1500,420L1500,300Z" fill="#eb5f46" stroke="#eb5f46" stroke-width="1.51"/><path d="M1380,300L1380,420L1500,300Z" fill="#ee654b" stroke="#ee654b" stroke-width="1.51"/><path d="M1380,300L1500,300L1500,180Z" fill="#ed6d52" stroke="#ed6d52" stroke-width="1.51"/><path d="M1380,180L1380,300L1500,180Z" fill="#f07358" stroke="#f07358" stroke-width="1.51"/><path d="M1380,180L1500,180L1500,60Z" fill="#ef7a60" stroke="#ef7a60" stroke-width="1.51"/><path d="M1380,60L1380,180L1500,60Z" fill="#f28066" stroke="#f28066" stroke-width="1.51"/><path d="M1380,60L1500,60L1500,-60Z" fill="#f2866e" stroke="#f2866e" stroke-width="1.51"/><path d="M1380,-60L1380,60L1500,-60Z" fill="#f68c74" stroke="#f68c74" stroke-width="1.51"/><path d="M1380,-60L1500,-60L1500,-180Z" fill="#f5907a" stroke="#f5907a" stroke-width="1.51"/><path d="M1380,-180L1380,-60L1500,-180Z" fill="#f8937e" stroke="#f8937e" stroke-width="1.51"/><path d="M1260,1260L1380,1260L1380,1140Z" fill="#b41e1d" stroke="#b41e1d" stroke-width="1.51"/><path d="M1260,1140L1260,1260L1380,1140Z" fill="#be221e" stroke="#be221e" stroke-width="1.51"/><path d="M1260,1140L1380,1140L1380,1020Z" fill="#c7231f" stroke="#c7231f" stroke-width="1.51"/><path d="M1260,1020L1260,1140L1380,1020Z" fill="#ce2621" stroke="#ce2621" stroke-width="1.51"/><path d="M1260,1020L1380,1020L1380,900Z" fill="#d32621" stroke="#d32621" stroke-width="1.51"/><path d="M1260,900L1260,1020L1380,900Z" fill="#d92923" stroke="#d92923" stroke-width="1.51"/><path d="M1260,900L1380,900L1380,780Z" fill="#de2d25" stroke="#de2d25" stroke-width="1.51"/><path d="M1260,780L1260,900L1380,780Z" fill="#e43227" stroke="#e43227" stroke-width="1.51"/><path d="M1260,780L1380,780L1380,660Z" fill="#e9372a" stroke="#e9372a" stroke-width="1.51"/><path d="M1260,660L1260,780L1380,660Z" fill="#ee3e2d" stroke="#ee3e2d" stroke-width="1.51"/><path d="M1260,660L1380,660L1380,540Z" fill="#ee4733" stroke="#ee4733" stroke-width="1.51"/><path d="M1260,540L1260,660L1380,540Z" fill="#f24e37" stroke="#f24e37" stroke-width="1.51"/><path d="M1260,540L1380,540L1380,420Z" fill="#f1563d" stroke="#f1563d" stroke-width="1.51"/><path d="M1260,420L1260,540L1380,420Z" fill="#f45c42" stroke="#f45c42" stroke-width="1.51"/><path d="M1260,420L1380,420L1380,300Z" fill="#f26449" stroke="#f26449" stroke-width="1.51"/><path d="M1260,300L1260,420L1380,300Z" fill="#f56a4e" stroke="#f56a4e" stroke-width="1.51"/><path d="M1260,300L1380,300L1380,180Z" fill="#f47256" stroke="#f47256" stroke-width="1.51"/><path d="M1260,180L1260,300L1380,180Z" fill="#f7785c" stroke="#f7785c" stroke-width="1.51"/><path d="M1260,180L1380,180L1380,60Z" fill="#f57f64" stroke="#f57f64" stroke-width="1.51"/><path d="M1260,60L1260,180L1380,60Z" fill="#f98569" stroke="#f98569" stroke-width="1.51"/><path d="M1260,60L1380,60L1380,-60Z" fill="#f98c72" stroke="#f98c72" stroke-width="1.51"/><path d="M1260,-60L1260,60L1380,-60Z" fill="#fc9178" stroke="#fc9178" stroke-width="1.51"/><path d="M1260,-60L1380,-60L1380,-180Z" fill="#fb957d" stroke="#fb957d" stroke-width="1.51"/><path d="M1260,-180L1260,-60L1380,-180Z" fill="#ff9882" stroke="#ff9882" stroke-width="1.51"/><path d="M1140,1260L1260,1260L1260,1140Z" fill="#ba2620" stroke="#ba2620" stroke-width="1.51"/><path d="M1140,1140L1140,1260L1260,1140Z" fill="#c22c23" stroke="#c22c23" stroke-width="1.51"/><path d="M1140,1140L1260,1140L1260,1020Z" fill="#cd2b23" stroke="#cd2b23" stroke-width="1.51"/><path d="M1140,1020L1140,1140L1260,1020Z" fill="#d23026" stroke="#d23026" stroke-width="1.51"/><path d="M1140,1020L1260,1020L1260,900Z" fill="#d92e25" stroke="#d92e25" stroke-width="1.51"/><path d="M1140,900L1140,1020L1260,900Z" fill="#dd3328" stroke="#dd3328" stroke-width="1.51"/><path d="M1140,900L1260,900L1260,780Z" fill="#e43529" stroke="#e43529" stroke-width="1.51"/><path d="M1140,780L1140,900L1260,780Z" fill="#e93c2c" stroke="#e93c2c" stroke-width="1.51"/><path d="M1140,780L1260,780L1260,660Z" fill="#f03e2e" stroke="#f03e2e" stroke-width="1.51"/><path d="M1140,660L1140,780L1260,660Z" fill="#f24733" stroke="#f24733" stroke-width="1.51"/><path d="M1140,660L1260,660L1260,540Z" fill="#f44e37" stroke="#f44e37" stroke-width="1.51"/><path d="M1140,540L1140,660L1260,540Z" fill="#f6553c" stroke="#f6553c" stroke-width="1.51"/><path d="M1140,540L1260,540L1260,420Z" fill="#f75c41" stroke="#f75c41" stroke-width="1.51"/><path d="M1140,420L1140,540L1260,420Z" fill="#f76447" stroke="#f76447" stroke-width="1.51"/><path d="M1140,420L1260,420L1260,300Z" fill="#f86a4d" stroke="#f86a4d" stroke-width="1.51"/><path d="M1140,300L1140,420L1260,300Z" fill="#f87153" stroke="#f87153" stroke-width="1.51"/><path d="M1140,300L1260,300L1260,180Z" fill="#fa785a" stroke="#fa785a" stroke-width="1.51"/><path d="M1140,180L1140,300L1260,180Z" fill="#fa7e61" stroke="#fa7e61" stroke-width="1.51"/><path d="M1140,180L1260,180L1260,60Z" fill="#fb8568" stroke="#fb8568" stroke-width="1.51"/><path d="M1140,60L1140,180L1260,60Z" fill="#fc8b6f" stroke="#fc8b6f" stroke-width="1.51"/><path d="M1140,60L1260,60L1260,-60Z" fill="#ff9176" stroke="#ff9176" stroke-width="1.51"/><path d="M1140,-60L1140,60L1260,-60Z" fill="#ff977d" stroke="#ff977d" stroke-width="1.51"/><path d="M1140,-60L1260,-60L1260,-180Z" fill="#ff9b82" stroke="#ff9b82" stroke-width="1.51"/><path d="M1140,-180L1140,-60L1260,-180Z" fill="#ff9f87" stroke="#ff9f87" stroke-width="1.51"/><path d="M1020,1260L1140,1260L1140,1140Z" fill="#bd3226" stroke="#bd3226" stroke-width="1.51"/><path d="M1020,1140L1020,1260L1140,1140Z" fill="#c43729" stroke="#c43729" stroke-width="1.51"/><path d="M1020,1140L1140,1140L1140,1020Z" fill="#d03728" stroke="#d03728" stroke-width="1.51"/><path d="M1020,1020L1020,1140L1140,1020Z" fill="#d43b2b" stroke="#d43b2b" stroke-width="1.51"/><path d="M1020,1020L1140,1020L1140,900Z" fill="#db3a2b" stroke="#db3a2b" stroke-width="1.51"/><path d="M1020,900L1020,1020L1140,900Z" fill="#e03f2e" stroke="#e03f2e" stroke-width="1.51"/><path d="M1020,900L1140,900L1140,780Z" fill="#e7402f" stroke="#e7402f" stroke-width="1.51"/><path d="M1020,780L1020,900L1140,780Z" fill="#eb4732" stroke="#eb4732" stroke-width="1.51"/><path d="M1020,780L1140,780L1140,660Z" fill="#f24934" stroke="#f24934" stroke-width="1.51"/><path d="M1020,660L1020,780L1140,660Z" fill="#f45138" stroke="#f45138" stroke-width="1.51"/><path d="M1020,660L1140,660L1140,540Z" fill="#f6583d" stroke="#f6583d" stroke-width="1.51"/><path d="M1020,540L1020,660L1140,540Z" fill="#f85f42" stroke="#f85f42" stroke-width="1.51"/><path d="M1020,540L1140,540L1140,420Z" fill="#f96547" stroke="#f96547" stroke-width="1.51"/><path d="M1020,420L1020,540L1140,420Z" fill="#fa6c4d" stroke="#fa6c4d" stroke-width="1.51"/><path d="M1020,420L1140,420L1140,300Z" fill="#fa7253" stroke="#fa7253" stroke-width="1.51"/><path d="M1020,300L1020,420L1140,300Z" fill="#fa7959" stroke="#fa7959" stroke-width="1.51"/><path d="M1020,300L1140,300L1140,180Z" fill="#fb7f60" stroke="#fb7f60" stroke-width="1.51"/><path d="M1020,180L1020,300L1140,180Z" fill="#fc8667" stroke="#fc8667" stroke-width="1.51"/><path d="M1020,180L1140,180L1140,60Z" fill="#fd8d6e" stroke="#fd8d6e" stroke-width="1.51"/><path d="M1020,60L1020,180L1140,60Z" fill="#fe9375" stroke="#fe9375" stroke-width="1.51"/><path d="M1020,60L1140,60L1140,-60Z" fill="#ff997d" stroke="#ff997d" stroke-width="1.51"/><path d="M1020,-60L1020,60L1140,-60Z" fill="#ff9f84" stroke="#ff9f84" stroke-width="1.51"/><path d="M1020,-60L1140,-60L1140,-180Z" fill="#ffa288" stroke="#ffa288" stroke-width="1.51"/><path d="M1020,-180L1020,-60L1140,-180Z" fill="#ffa68e" stroke="#ffa68e" stroke-width="1.51"/><path d="M900,1260L1020,1260L1020,1140Z" fill="#bf3b2c" stroke="#bf3b2c" stroke-width="1.51"/><path d="M900,1140L900,1260L1020,1140Z" fill="#c6412f" stroke="#c6412f" stroke-width="1.51"/><path d="M900,1140L1020,1140L1020,1020Z" fill="#d2412e" stroke="#d2412e" stroke-width="1.51"/><path d="M900,1020L900,1140L1020,1020Z" fill="#d64532" stroke="#d64532" stroke-width="1.51"/><path d="M900,1020L1020,1020L1020,900Z" fill="#de4431" stroke="#de4431" stroke-width="1.51"/><path d="M900,900L900,1020L1020,900Z" fill="#e24934" stroke="#e24934" stroke-width="1.51"/><path d="M900,900L1020,900L1020,780Z" fill="#e94a35" stroke="#e94a35" stroke-width="1.51"/><path d="M900,780L900,900L1020,780Z" fill="#ed5039" stroke="#ed5039" stroke-width="1.51"/><path d="M900,780L1020,780L1020,660Z" fill="#f4523a" stroke="#f4523a" stroke-width="1.51"/><path d="M900,660L900,780L1020,660Z" fill="#f65a3f" stroke="#f65a3f" stroke-width="1.51"/><path d="M900,660L1020,660L1020,540Z" fill="#f86043" stroke="#f86043" stroke-width="1.51"/><path d="M900,540L900,660L1020,540Z" fill="#fa6748" stroke="#fa6748" stroke-width="1.51"/><path d="M900,540L1020,540L1020,420Z" fill="#fb6d4d" stroke="#fb6d4d" stroke-width="1.51"/><path d="M900,420L900,540L1020,420Z" fill="#fc7453" stroke="#fc7453" stroke-width="1.51"/><path d="M900,420L1020,420L1020,300Z" fill="#fb7a59" stroke="#fb7a59" stroke-width="1.51"/><path d="M900,300L900,420L1020,300Z" fill="#fc8160" stroke="#fc8160" stroke-width="1.51"/><path d="M900,300L1020,300L1020,180Z" fill="#fd8767" stroke="#fd8767" stroke-width="1.51"/><path d="M900,180L900,300L1020,180Z" fill="#fe8e6e" stroke="#fe8e6e" stroke-width="1.51"/><path d="M900,180L1020,180L1020,60Z" fill="#fe9475" stroke="#fe9475" stroke-width="1.51"/><path d="M900,60L900,180L1020,60Z" fill="#ff9a7c" stroke="#ff9a7c" stroke-width="1.51"/><path d="M900,60L1020,60L1020,-60Z" fill="#ffa083" stroke="#ffa083" stroke-width="1.51"/><path d="M900,-60L900,60L1020,-60Z" fill="#ffa68b" stroke="#ffa68b" stroke-width="1.51"/><path d="M900,-60L1020,-60L1020,-180Z" fill="#ffa98f" stroke="#ffa98f" stroke-width="1.51"/><path d="M900,-180L900,-60L1020,-180Z" fill="#ffad95" stroke="#ffad95" stroke-width="1.51"/><path d="M780,1260L900,1260L900,1140Z" fill="#c04533" stroke="#c04533" stroke-width="1.51"/><path d="M780,1140L780,1260L900,1140Z" fill="#c74a36" stroke="#c74a36" stroke-width="1.51"/><path d="M780,1140L900,1140L900,1020Z" fill="#d34a35" stroke="#d34a35" stroke-width="1.51"/><path d="M780,1020L780,1140L900,1020Z" fill="#d74e39" stroke="#d74e39" stroke-width="1.51"/><path d="M780,1020L900,1020L900,900Z" fill="#df4e38" stroke="#df4e38" stroke-width="1.51"/><path d="M780,900L780,1020L900,900Z" fill="#e3523c" stroke="#e3523c" stroke-width="1.51"/><path d="M780,900L900,900L900,780Z" fill="#eb543c" stroke="#eb543c" stroke-width="1.51"/><path d="M780,780L780,900L900,780Z" fill="#ee5941" stroke="#ee5941" stroke-width="1.51"/><path d="M780,780L900,780L900,660Z" fill="#f65c41" stroke="#f65c41" stroke-width="1.51"/><path d="M780,660L780,780L900,660Z" fill="#f76347" stroke="#f76347" stroke-width="1.51"/><path d="M780,660L900,660L900,540Z" fill="#f9694a" stroke="#f9694a" stroke-width="1.51"/><path d="M780,540L780,660L900,540Z" fill="#fb6f50" stroke="#fb6f50" stroke-width="1.51"/><path d="M780,540L900,540L900,420Z" fill="#fc7654" stroke="#fc7654" stroke-width="1.51"/><path d="M780,420L780,540L900,420Z" fill="#fc7c5c" stroke="#fc7c5c" stroke-width="1.51"/><path d="M780,420L900,420L900,300Z" fill="#fc8261" stroke="#fc8261" stroke-width="1.51"/><path d="M780,300L780,420L900,300Z" fill="#fc8868" stroke="#fc8868" stroke-width="1.51"/><path d="M780,300L900,300L900,180Z" fill="#fd8f6e" stroke="#fd8f6e" stroke-width="1.51"/><path d="M780,180L780,300L900,180Z" fill="#fd9576" stroke="#fd9576" stroke-width="1.51"/><path d="M780,180L900,180L900,60Z" fill="#fe9b7c" stroke="#fe9b7c" stroke-width="1.51"/><path d="M780,60L780,180L900,60Z" fill="#ffa184" stroke="#ffa184" stroke-width="1.51"/><path d="M780,60L900,60L900,-60Z" fill="#ffa78b" stroke="#ffa78b" stroke-width="1.51"/><path d="M780,-60L780,60L900,-60Z" fill="#ffad93" stroke="#ffad93" stroke-width="1.51"/><path d="M780,-60L900,-60L900,-180Z" fill="#ffb097" stroke="#ffb097" stroke-width="1.51"/><path d="M780,-180L780,-60L900,-180Z" fill="#ffb59d" stroke="#ffb59d" stroke-width="1.51"/><path d="M660,1260L780,1260L780,1140Z" fill="#c14d3a" stroke="#c14d3a" stroke-width="1.51"/><path d="M660,1140L660,1260L780,1140Z" fill="#c8523e" stroke="#c8523e" stroke-width="1.51"/><path d="M660,1140L780,1140L780,1020Z" fill="#d4533d" stroke="#d4533d" stroke-width="1.51"/><path d="M660,1020L660,1140L780,1020Z" fill="#d85841" stroke="#d85841" stroke-width="1.51"/><path d="M660,1020L780,1020L780,900Z" fill="#e05740" stroke="#e05740" stroke-width="1.51"/><path d="M660,900L660,1020L780,900Z" fill="#e45b44" stroke="#e45b44" stroke-width="1.51"/><path d="M660,900L780,900L780,780Z" fill="#eb5d44" stroke="#eb5d44" stroke-width="1.51"/><path d="M660,780L660,900L780,780Z" fill="#ef6348" stroke="#ef6348" stroke-width="1.51"/><path d="M660,780L780,780L780,660Z" fill="#f66549" stroke="#f66549" stroke-width="1.51"/><path d="M660,660L660,780L780,660Z" fill="#f86c4f" stroke="#f86c4f" stroke-width="1.51"/><path d="M660,660L780,660L780,540Z" fill="#fa7252" stroke="#fa7252" stroke-width="1.51"/><path d="M660,540L660,660L780,540Z" fill="#fb7858" stroke="#fb7858" stroke-width="1.51"/><path d="M660,540L780,540L780,420Z" fill="#fc7e5c" stroke="#fc7e5c" stroke-width="1.51"/><path d="M660,420L660,540L780,420Z" fill="#fc8463" stroke="#fc8463" stroke-width="1.51"/><path d="M660,420L780,420L780,300Z" fill="#fc8a69" stroke="#fc8a69" stroke-width="1.51"/><path d="M660,300L660,420L780,300Z" fill="#fc9070" stroke="#fc9070" stroke-width="1.51"/><path d="M660,300L780,300L780,180Z" fill="#fd9676" stroke="#fd9676" stroke-width="1.51"/><path d="M660,180L660,300L780,180Z" fill="#fd9d7e" stroke="#fd9d7e" stroke-width="1.51"/><path d="M660,180L780,180L780,60Z" fill="#fda385" stroke="#fda385" stroke-width="1.51"/><path d="M660,60L660,180L780,60Z" fill="#fea98d" stroke="#fea98d" stroke-width="1.51"/><path d="M660,60L780,60L780,-60Z" fill="#ffaf93" stroke="#ffaf93" stroke-width="1.51"/><path d="M660,-60L660,60L780,-60Z" fill="#ffb49c" stroke="#ffb49c" stroke-width="1.51"/><path d="M660,-60L780,-60L780,-180Z" fill="#ffb89f" stroke="#ffb89f" stroke-width="1.51"/><path d="M660,-180L660,-60L780,-180Z" fill="#ffbca6" stroke="#ffbca6" stroke-width="1.51"/><path d="M540,1260L660,1260L660,1140Z" fill="#c15642" stroke="#c15642" stroke-width="1.51"/><path d="M540,1140L540,1260L660,1140Z" fill="#c95b46" stroke="#c95b46" stroke-width="1.51"/><path d="M540,1140L660,1140L660,1020Z" fill="#d45c45" stroke="#d45c45" stroke-width="1.51"/><path d="M540,1020L540,1140L660,1020Z" fill="#d96049" stroke="#d96049" stroke-width="1.51"/><path d="M540,1020L660,1020L660,900Z" fill="#e06048" stroke="#e06048" stroke-width="1.51"/><path d="M540,900L540,1020L660,900Z" fill="#e5644c" stroke="#e5644c" stroke-width="1.51"/><path d="M540,900L660,900L660,780Z" fill="#ec664c" stroke="#ec664c" stroke-width="1.51"/><path d="M540,780L540,900L660,780Z" fill="#f06c50" stroke="#f06c50" stroke-width="1.51"/><path d="M540,780L660,780L660,660Z" fill="#f76e51" stroke="#f76e51" stroke-width="1.51"/><path d="M540,660L540,780L660,660Z" fill="#f97557" stroke="#f97557" stroke-width="1.51"/><path d="M540,660L660,660L660,540Z" fill="#fa7a5b" stroke="#fa7a5b" stroke-width="1.51"/><path d="M540,540L540,660L660,540Z" fill="#fc8061" stroke="#fc8061" stroke-width="1.51"/><path d="M540,540L660,540L660,420Z" fill="#fd8665" stroke="#fd8665" stroke-width="1.51"/><path d="M540,420L540,540L660,420Z" fill="#fd8c6c" stroke="#fd8c6c" stroke-width="1.51"/><path d="M540,420L660,420L660,300Z" fill="#fc9271" stroke="#fc9271" stroke-width="1.51"/><path d="M540,300L540,420L660,300Z" fill="#fd9878" stroke="#fd9878" stroke-width="1.51"/><path d="M540,300L660,300L660,180Z" fill="#fd9e7f" stroke="#fd9e7f" stroke-width="1.51"/><path d="M540,180L540,300L660,180Z" fill="#fda587" stroke="#fda587" stroke-width="1.51"/><path d="M540,180L660,180L660,60Z" fill="#fdab8d" stroke="#fdab8d" stroke-width="1.51"/><path d="M540,60L540,180L660,60Z" fill="#feb195" stroke="#feb195" stroke-width="1.51"/><path d="M540,60L660,60L660,-60Z" fill="#ffb69c" stroke="#ffb69c" stroke-width="1.51"/><path d="M540,-60L540,60L660,-60Z" fill="#ffbca4" stroke="#ffbca4" stroke-width="1.51"/><path d="M540,-60L660,-60L660,-180Z" fill="#ffbfa8" stroke="#ffbfa8" stroke-width="1.51"/><path d="M540,-180L540,-60L660,-180Z" fill="#ffc4af" stroke="#ffc4af" stroke-width="1.51"/><path d="M420,1260L540,1260L540,1140Z" fill="#c35e4b" stroke="#c35e4b" stroke-width="1.51"/><path d="M420,1140L420,1260L540,1140Z" fill="#ca644e" stroke="#ca644e" stroke-width="1.51"/><path d="M420,1140L540,1140L540,1020Z" fill="#d6654e" stroke="#d6654e" stroke-width="1.51"/><path d="M420,1020L420,1140L540,1020Z" fill="#db6a52" stroke="#db6a52" stroke-width="1.51"/><path d="M420,1020L540,1020L540,900Z" fill="#e26951" stroke="#e26951" stroke-width="1.51"/><path d="M420,900L420,1020L540,900Z" fill="#e76e55" stroke="#e76e55" stroke-width="1.51"/><path d="M420,900L540,900L540,780Z" fill="#ee6f55" stroke="#ee6f55" stroke-width="1.51"/><path d="M420,780L420,900L540,780Z" fill="#f27559" stroke="#f27559" stroke-width="1.51"/><path d="M420,780L540,780L540,660Z" fill="#f9775a" stroke="#f9775a" stroke-width="1.51"/><path d="M420,660L420,780L540,660Z" fill="#fa7e60" stroke="#fa7e60" stroke-width="1.51"/><path d="M420,660L540,660L540,540Z" fill="#fc8364" stroke="#fc8364" stroke-width="1.51"/><path d="M420,540L420,660L540,540Z" fill="#fd896a" stroke="#fd896a" stroke-width="1.51"/><path d="M420,540L540,540L540,420Z" fill="#fe8e6e" stroke="#fe8e6e" stroke-width="1.51"/><path d="M420,420L420,540L540,420Z" fill="#fe9575" stroke="#fe9575" stroke-width="1.51"/><path d="M420,420L540,420L540,300Z" fill="#fd9a7b" stroke="#fd9a7b" stroke-width="1.51"/><path d="M420,300L420,420L540,300Z" fill="#fda182" stroke="#fda182" stroke-width="1.51"/><path d="M420,300L540,300L540,180Z" fill="#fda688" stroke="#fda688" stroke-width="1.51"/><path d="M420,180L420,300L540,180Z" fill="#fdad90" stroke="#fdad90" stroke-width="1.51"/><path d="M420,180L540,180L540,60Z" fill="#fdb397" stroke="#fdb397" stroke-width="1.51"/><path d="M420,60L420,180L540,60Z" fill="#fdb99f" stroke="#fdb99f" stroke-width="1.51"/><path d="M420,60L540,60L540,-60Z" fill="#febea6" stroke="#febea6" stroke-width="1.51"/><path d="M420,-60L420,60L540,-60Z" fill="#ffc5ae" stroke="#ffc5ae" stroke-width="1.51"/><path d="M420,-60L540,-60L540,-180Z" fill="#ffc7b2" stroke="#ffc7b2" stroke-width="1.51"/><path d="M420,-180L420,-60L540,-180Z" fill="#ffccb8" stroke="#ffccb8" stroke-width="1.51"/><path d="M300,1260L420,1260L420,1140Z" fill="#c36753" stroke="#c36753" stroke-width="1.51"/><path d="M300,1140L300,1260L420,1140Z" fill="#cb6c57" stroke="#cb6c57" stroke-width="1.51"/><path d="M300,1140L420,1140L420,1020Z" fill="#d76e57" stroke="#d76e57" stroke-width="1.51"/><path d="M300,1020L300,1140L420,1020Z" fill="#dc725a" stroke="#dc725a" stroke-width="1.51"/><path d="M300,1020L420,1020L420,900Z" fill="#e3725a" stroke="#e3725a" stroke-width="1.51"/><path d="M300,900L300,1020L420,900Z" fill="#e8765e" stroke="#e8765e" stroke-width="1.51"/><path d="M300,900L420,900L420,780Z" fill="#ef785e" stroke="#ef785e" stroke-width="1.51"/><path d="M300,780L300,900L420,780Z" fill="#f37d62" stroke="#f37d62" stroke-width="1.51"/><path d="M300,780L420,780L420,660Z" fill="#f98063" stroke="#f98063" stroke-width="1.51"/><path d="M300,660L300,780L420,660Z" fill="#fb8669" stroke="#fb8669" stroke-width="1.51"/><path d="M300,660L420,660L420,540Z" fill="#fc8b6d" stroke="#fc8b6d" stroke-width="1.51"/><path d="M300,540L300,660L420,540Z" fill="#fe9173" stroke="#fe9173" stroke-width="1.51"/><path d="M300,540L420,540L420,420Z" fill="#fe9777" stroke="#fe9777" stroke-width="1.51"/><path d="M300,420L300,540L420,420Z" fill="#fe9d7e" stroke="#fe9d7e" stroke-width="1.51"/><path d="M300,420L420,420L420,300Z" fill="#fda284" stroke="#fda284" stroke-width="1.51"/><path d="M300,300L300,420L420,300Z" fill="#fda88b" stroke="#fda88b" stroke-width="1.51"/><path d="M300,300L420,300L420,180Z" fill="#fdae92" stroke="#fdae92" stroke-width="1.51"/><path d="M300,180L300,300L420,180Z" fill="#fdb59a" stroke="#fdb59a" stroke-width="1.51"/><path d="M300,180L420,180L420,60Z" fill="#fcbba0" stroke="#fcbba0" stroke-width="1.51"/><path d="M300,60L300,180L420,60Z" fill="#fdc0a8" stroke="#fdc0a8" stroke-width="1.51"/><path d="M300,60L420,60L420,-60Z" fill="#fdc6af" stroke="#fdc6af" stroke-width="1.51"/><path d="M300,-60L300,60L420,-60Z" fill="#fdccb8" stroke="#fdccb8" stroke-width="1.51"/><path d="M300,-60L420,-60L420,-180Z" fill="#fecfbc" stroke="#fecfbc" stroke-width="1.51"/><path d="M300,-180L300,-60L420,-180Z" fill="#ffd3c2" stroke="#ffd3c2" stroke-width="1.51"/><path d="M180,1260L300,1260L300,1140Z" fill="#c56e5c" stroke="#c56e5c" stroke-width="1.51"/><path d="M180,1140L180,1260L300,1140Z" fill="#cd7360" stroke="#cd7360" stroke-width="1.51"/><path d="M180,1140L300,1140L300,1020Z" fill="#d9755f" stroke="#d9755f" stroke-width="1.51"/><path d="M180,1020L180,1140L300,1020Z" fill="#de7964" stroke="#de7964" stroke-width="1.51"/><path d="M180,1020L300,1020L300,900Z" fill="#e57a62" stroke="#e57a62" stroke-width="1.51"/><path d="M180,900L180,1020L300,900Z" fill="#ea7e67" stroke="#ea7e67" stroke-width="1.51"/><path d="M180,900L300,900L300,780Z" fill="#f18067" stroke="#f18067" stroke-width="1.51"/><path d="M180,780L180,900L300,780Z" fill="#f5856c" stroke="#f5856c" stroke-width="1.51"/><path d="M180,780L300,780L300,660Z" fill="#fb886c" stroke="#fb886c" stroke-width="1.51"/><path d="M180,660L180,780L300,660Z" fill="#fe8e73" stroke="#fe8e73" stroke-width="1.51"/><path d="M180,660L300,660L300,540Z" fill="#fe9376" stroke="#fe9376" stroke-width="1.51"/><path d="M180,540L180,660L300,540Z" fill="#ff997d" stroke="#ff997d" stroke-width="1.51"/><path d="M180,540L300,540L300,420Z" fill="#ff9e81" stroke="#ff9e81" stroke-width="1.51"/><path d="M180,420L180,540L300,420Z" fill="#ffa488" stroke="#ffa488" stroke-width="1.51"/><path d="M180,420L300,420L300,300Z" fill="#fea98d" stroke="#fea98d" stroke-width="1.51"/><path d="M180,300L180,420L300,300Z" fill="#ffb095" stroke="#ffb095" stroke-width="1.51"/><path d="M180,300L300,300L300,180Z" fill="#feb69b" stroke="#feb69b" stroke-width="1.51"/><path d="M180,180L180,300L300,180Z" fill="#febca4" stroke="#febca4" stroke-width="1.51"/><path d="M180,180L300,180L300,60Z" fill="#fdc2aa" stroke="#fdc2aa" stroke-width="1.51"/><path d="M180,60L180,180L300,60Z" fill="#fec8b2" stroke="#fec8b2" stroke-width="1.51"/><path d="M180,60L300,60L300,-60Z" fill="#fecdb9" stroke="#fecdb9" stroke-width="1.51"/><path d="M180,-60L180,60L300,-60Z" fill="#fed3c2" stroke="#fed3c2" stroke-width="1.51"/><path d="M180,-60L300,-60L300,-180Z" fill="#fed6c5" stroke="#fed6c5" stroke-width="1.51"/><path d="M180,-180L180,-60L300,-180Z" fill="#ffdbcc" stroke="#ffdbcc" stroke-width="1.51"/><path d="M60,1260L180,1260L180,1140Z" fill="#c77665" stroke="#c77665" stroke-width="1.51"/><path d="M60,1140L60,1260L180,1140Z" fill="#cf7b69" stroke="#cf7b69" stroke-width="1.51"/><path d="M60,1140L180,1140L180,1020Z" fill="#db7d68" stroke="#db7d68" stroke-width="1.51"/><path d="M60,1020L60,1140L180,1020Z" fill="#e0816c" stroke="#e0816c" stroke-width="1.51"/><path d="M60,1020L180,1020L180,900Z" fill="#e7816c" stroke="#e7816c" stroke-width="1.51"/><path d="M60,900L60,1020L180,900Z" fill="#ec8570" stroke="#ec8570" stroke-width="1.51"/><path d="M60,900L180,900L180,780Z" fill="#f38870" stroke="#f38870" stroke-width="1.51"/><path d="M60,780L60,900L180,780Z" fill="#f78d75" stroke="#f78d75" stroke-width="1.51"/><path d="M60,780L180,780L180,660Z" fill="#fe9076" stroke="#fe9076" stroke-width="1.51"/><path d="M60,660L60,780L180,660Z" fill="#ff967b" stroke="#ff967b" stroke-width="1.51"/><path d="M60,660L180,660L180,540Z" fill="#ff9b80" stroke="#ff9b80" stroke-width="1.51"/><path d="M60,540L60,660L180,540Z" fill="#ffa186" stroke="#ffa186" stroke-width="1.51"/><path d="M60,540L180,540L180,420Z" fill="#ffa68a" stroke="#ffa68a" stroke-width="1.51"/><path d="M60,420L60,540L180,420Z" fill="#ffac91" stroke="#ffac91" stroke-width="1.51"/><path d="M60,420L180,420L180,300Z" fill="#ffb197" stroke="#ffb197" stroke-width="1.51"/><path d="M60,300L60,420L180,300Z" fill="#ffb79e" stroke="#ffb79e" stroke-width="1.51"/><path d="M60,300L180,300L180,180Z" fill="#ffbda5" stroke="#ffbda5" stroke-width="1.51"/><path d="M60,180L60,300L180,180Z" fill="#ffc4ad" stroke="#ffc4ad" stroke-width="1.51"/><path d="M60,180L180,180L180,60Z" fill="#fdc9b4" stroke="#fdc9b4" stroke-width="1.51"/><path d="M60,60L60,180L180,60Z" fill="#fecfbc" stroke="#fecfbc" stroke-width="1.51"/><path d="M60,60L180,60L180,-60Z" fill="#fed5c3" stroke="#fed5c3" stroke-width="1.51"/><path d="M60,-60L60,60L180,-60Z" fill="#fedbcc" stroke="#fedbcc" stroke-width="1.51"/><path d="M60,-60L180,-60L180,-180Z" fill="#fedecf" stroke="#fedecf" stroke-width="1.51"/><path d="M60,-180L60,-60L180,-180Z" fill="#ffe2d6" stroke="#ffe2d6" stroke-width="1.51"/><path d="M-60,1260L60,1260L60,1140Z" fill="#c97c6d" stroke="#c97c6d" stroke-width="1.51"/><path d="M-60,1140L-60,1260L60,1140Z" fill="#d0806f" stroke="#d0806f" stroke-width="1.51"/><path d="M-60,1140L60,1140L60,1020Z" fill="#dd8370" stroke="#dd8370" stroke-width="1.51"/><path d="M-60,1020L-60,1140L60,1020Z" fill="#e18673" stroke="#e18673" stroke-width="1.51"/><path d="M-60,1020L60,1020L60,900Z" fill="#e98873" stroke="#e98873" stroke-width="1.51"/><path d="M-60,900L-60,1020L60,900Z" fill="#ee8b76" stroke="#ee8b76" stroke-width="1.51"/><path d="M-60,900L60,900L60,780Z" fill="#f58e78" stroke="#f58e78" stroke-width="1.51"/><path d="M-60,780L-60,900L60,780Z" fill="#f9927c" stroke="#f9927c" stroke-width="1.51"/><path d="M-60,780L60,780L60,660Z" fill="#ff967e" stroke="#ff967e" stroke-width="1.51"/><path d="M-60,660L-60,780L60,660Z" fill="#ff9b82" stroke="#ff9b82" stroke-width="1.51"/><path d="M-60,660L60,660L60,540Z" fill="#ffa188" stroke="#ffa188" stroke-width="1.51"/><path d="M-60,540L-60,660L60,540Z" fill="#ffa68d" stroke="#ffa68d" stroke-width="1.51"/><path d="M-60,540L60,540L60,420Z" fill="#ffad92" stroke="#ffad92" stroke-width="1.51"/><path d="M-60,420L-60,540L60,420Z" fill="#ffb298" stroke="#ffb298" stroke-width="1.51"/><path d="M-60,420L60,420L60,300Z" fill="#ffb89f" stroke="#ffb89f" stroke-width="1.51"/><path d="M-60,300L-60,420L60,300Z" fill="#ffbda5" stroke="#ffbda5" stroke-width="1.51"/><path d="M-60,300L60,300L60,180Z" fill="#ffc4ad" stroke="#ffc4ad" stroke-width="1.51"/><path d="M-60,180L-60,300L60,180Z" fill="#ffc9b4" stroke="#ffc9b4" stroke-width="1.51"/><path d="M-60,180L60,180L60,60Z" fill="#fed0bc" stroke="#fed0bc" stroke-width="1.51"/><path d="M-60,60L-60,180L60,60Z" fill="#fed5c3" stroke="#fed5c3" stroke-width="1.51"/><path d="M-60,60L60,60L60,-60Z" fill="#fedbcb" stroke="#fedbcb" stroke-width="1.51"/><path d="M-60,-60L-60,60L60,-60Z" fill="#fee0d3" stroke="#fee0d3" stroke-width="1.51"/><path d="M-60,-60L60,-60L60,-180Z" fill="#fee4d8" stroke="#fee4d8" stroke-width="1.51"/><path d="M-60,-180L-60,-60L60,-180Z" fill="#ffe8dd" stroke="#ffe8dd" stroke-width="1.51"/><path d="M-180,1260L-60,1260L-60,1140Z" fill="#ca8072" stroke="#ca8072" stroke-width="1.51"/><path d="M-180,1140L-180,1260L-60,1140Z" fill="#d28475" stroke="#d28475" stroke-width="1.51"/><path d="M-180,1140L-60,1140L-60,1020Z" fill="#de8776" stroke="#de8776" stroke-width="1.51"/><path d="M-180,1020L-180,1140L-60,1020Z" fill="#e38a79" stroke="#e38a79" stroke-width="1.51"/><path d="M-180,1020L-60,1020L-60,900Z" fill="#eb8c79" stroke="#eb8c79" stroke-width="1.51"/><path d="M-180,900L-180,1020L-60,900Z" fill="#ef8f7c" stroke="#ef8f7c" stroke-width="1.51"/><path d="M-180,900L-60,900L-60,780Z" fill="#f6927d" stroke="#f6927d" stroke-width="1.51"/><path d="M-180,780L-180,900L-60,780Z" fill="#fa9681" stroke="#fa9681" stroke-width="1.51"/><path d="M-180,780L-60,780L-60,660Z" fill="#ff9a83" stroke="#ff9a83" stroke-width="1.51"/><path d="M-180,660L-180,780L-60,660Z" fill="#ff9f88" stroke="#ff9f88" stroke-width="1.51"/><path d="M-180,660L-60,660L-60,540Z" fill="#ffa58d" stroke="#ffa58d" stroke-width="1.51"/><path d="M-180,540L-180,660L-60,540Z" fill="#ffaa92" stroke="#ffaa92" stroke-width="1.51"/><path d="M-180,540L-60,540L-60,420Z" fill="#ffb198" stroke="#ffb198" stroke-width="1.51"/><path d="M-180,420L-180,540L-60,420Z" fill="#ffb69e" stroke="#ffb69e" stroke-width="1.51"/><path d="M-180,420L-60,420L-60,300Z" fill="#ffbba5" stroke="#ffbba5" stroke-width="1.51"/><path d="M-180,300L-180,420L-60,300Z" fill="#ffc1ab" stroke="#ffc1ab" stroke-width="1.51"/><path d="M-180,300L-60,300L-60,180Z" fill="#ffc8b3" stroke="#ffc8b3" stroke-width="1.51"/><path d="M-180,180L-180,300L-60,180Z" fill="#ffcdba" stroke="#ffcdba" stroke-width="1.51"/><path d="M-180,180L-60,180L-60,60Z" fill="#ffd4c2" stroke="#ffd4c2" stroke-width="1.51"/><path d="M-180,60L-180,180L-60,60Z" fill="#ffd9c9" stroke="#ffd9c9" stroke-width="1.51"/><path d="M-180,60L-60,60L-60,-60Z" fill="#ffdfd1" stroke="#ffdfd1" stroke-width="1.51"/><path d="M-180,-60L-180,60L-60,-60Z" fill="#ffe4d9" stroke="#ffe4d9" stroke-width="1.51"/><path d="M-180,-60L-60,-60L-60,-180Z" fill="#ffe8de" stroke="#ffe8de" stroke-width="1.51"/><path d="M-180,-180L-180,-60L-60,-180Z" fill="#ffece3" stroke="#ffece3" stroke-width="1.51"/></svg>