<svg xmlns="http://www.w3.org/2000/svg" width="1920" height="1080"><path d="M1957,1395L2242,1395L2242,1110Z" fill="#8e003c" stroke="#8e003c" stroke-width="1.51"/><path d="M1957,1110L1957,1395L2242,1110Z" fill="#9f0245" stroke="#9f0245" stroke-width="1.51"/><path d="M1957,1110L2242,1110L2242,825Z" fill="#ab0949" stroke="#ab0949" stroke-width="1.51"/><path d="M1957,825L1957,1110L2242,825Z" fill="#b70f57" stroke="#b70f57" stroke-width="1.51"/><path d="M1957,825L2242,825L2242,540Z" fill="#b62163" stroke="#b62163" stroke-width="1.51"/><path d="M1957,540L1957,825L2242,540Z" fill="#bc306f" stroke="#bc306f" stroke-width="1.51"/><path d="M1957,540L2242,540L2242,255Z" fill="#b14575" stroke="#b14575" stroke-width="1.51"/><path d="M1957,255L1957,540L2242,255Z" fill="#b5517e" stroke="#b5517e" stroke-width="1.51"/><path d="M1957,255L2242,255L2242,-30Z" fill="#b05f80" stroke="#b05f80" stroke-width="1.51"/><path d="M1957,-30L1957,255L2242,-30Z" fill="#ba6888" stroke="#ba6888" stroke-width="1.51"/><path d="M1957,-30L2242,-30L2242,-315Z" fill="#bb758a" stroke="#bb758a" stroke-width="1.51"/><path d="M1957,-315L1957,-30L2242,-315Z" fill="#c67f93" stroke="#c67f93" stroke-width="1.51"/><path d="M1672,1395L1957,1395L1957,1110Z" fill="#a30346" stroke="#a30346" stroke-width="1.51"/><path d="M1672,1110L1672,1395L1957,1110Z" fill="#b4094d" stroke="#b4094d" stroke-width="1.51"/><path d="M1672,1110L1957,1110L1957,825Z" fill="#c00e53" stroke="#c00e53" stroke-width="1.51"/><path d="M1672,825L1672,1110L1957,825Z" fill="#cc165f" stroke="#cc165f" stroke-width="1.51"/><path d="M1672,825L1957,825L1957,540Z" fill="#cc266f" stroke="#cc266f" stroke-width="1.51"/><path d="M1672,540L1672,825L1957,540Z" fill="#d23678" stroke="#d23678" stroke-width="1.51"/><path d="M1672,540L1957,540L1957,255Z" fill="#c74b80" stroke="#c74b80" stroke-width="1.51"/><path d="M1672,255L1672,540L1957,255Z" fill="#cb5987" stroke="#cb5987" stroke-width="1.51"/><path d="M1672,255L1957,255L1957,-30Z" fill="#c6668b" stroke="#c6668b" stroke-width="1.51"/><path d="M1672,-30L1672,255L1957,-30Z" fill="#d07191" stroke="#d07191" stroke-width="1.51"/><path d="M1672,-30L1957,-30L1957,-315Z" fill="#d17e96" stroke="#d17e96" stroke-width="1.51"/><path d="M1672,-315L1672,-30L1957,-315Z" fill="#dd889c" stroke="#dd889c" stroke-width="1.51"/><path d="M1387,1395L1672,1395L1672,1110Z" fill="#b50c52" stroke="#b50c52" stroke-width="1.51"/><path d="M1387,1110L1387,1395L1672,1110Z" fill="#c3135d" stroke="#c3135d" stroke-width="1.51"/><path d="M1387,1110L1672,1110L1672,825Z" fill="#d3175f" stroke="#d3175f" stroke-width="1.51"/><path d="M1387,825L1387,1110L1672,825Z" fill="#db1f6f" stroke="#db1f6f" stroke-width="1.51"/><path d="M1387,825L1672,825L1672,540Z" fill="#de2c7b" stroke="#de2c7b" stroke-width="1.51"/><path d="M1387,540L1387,825L1672,540Z" fill="#e03c89" stroke="#e03c89" stroke-width="1.51"/><path d="M1387,540L1672,540L1672,255Z" fill="#d9528d" stroke="#d9528d" stroke-width="1.51"/><path d="M1387,255L1387,540L1672,255Z" fill="#d95f98" stroke="#d95f98" stroke-width="1.51"/><path d="M1387,255L1672,255L1672,-30Z" fill="#d86e99" stroke="#d86e99" stroke-width="1.51"/><path d="M1387,-30L1387,255L1672,-30Z" fill="#de78a3" stroke="#de78a3" stroke-width="1.51"/><path d="M1387,-30L1672,-30L1672,-315Z" fill="#e386a3" stroke="#e386a3" stroke-width="1.51"/><path d="M1387,-315L1387,-30L1672,-315Z" fill="#eb8fae" stroke="#eb8fae" stroke-width="1.51"/><path d="M1102,1395L1387,1395L1387,1110Z" fill="#be1a66" stroke="#be1a66" stroke-width="1.51"/><path d="M1102,1110L1102,1395L1387,1110Z" fill="#c8296f" stroke="#c8296f" stroke-width="1.51"/><path d="M1102,1110L1387,1110L1387,825Z" fill="#dc2374" stroke="#dc2374" stroke-width="1.51"/><path d="M1102,825L1102,1110L1387,825Z" fill="#e03282" stroke="#e03282" stroke-width="1.51"/><path d="M1102,825L1387,825L1387,540Z" fill="#e73690" stroke="#e73690" stroke-width="1.51"/><path d="M1102,540L1102,825L1387,540Z" fill="#e44a9c" stroke="#e44a9c" stroke-width="1.51"/><path d="M1102,540L1387,540L1387,255Z" fill="#e15aa3" stroke="#e15aa3" stroke-width="1.51"/><path d="M1102,255L1102,540L1387,255Z" fill="#dc6bac" stroke="#dc6bac" stroke-width="1.51"/><path d="M1102,255L1387,255L1387,-30Z" fill="#df75ae" stroke="#df75ae" stroke-width="1.51"/><path d="M1102,-30L1102,255L1387,-30Z" fill="#e082b7" stroke="#e082b7" stroke-width="1.51"/><path d="M1102,-30L1387,-30L1387,-315Z" fill="#eb8db9" stroke="#eb8db9" stroke-width="1.51"/><path d="M1102,-315L1102,-30L1387,-315Z" fill="#ed9ac2" stroke="#ed9ac2" stroke-width="1.51"/><path d="M817,1395L1102,1395L1102,1110Z" fill="#bc3874" stroke="#bc3874" stroke-width="1.51"/><path d="M817,1110L817,1395L1102,1110Z" fill="#c5437c" stroke="#c5437c" stroke-width="1.51"/><path d="M817,1110L1102,1110L1102,825Z" fill="#da4182" stroke="#da4182" stroke-width="1.51"/><path d="M817,825L817,1110L1102,825Z" fill="#dd4c90" stroke="#dd4c90" stroke-width="1.51"/><path d="M817,825L1102,825L1102,540Z" fill="#e34f9f" stroke="#e34f9f" stroke-width="1.51"/><path d="M817,540L817,825L1102,540Z" fill="#e060aa" stroke="#e060aa" stroke-width="1.51"/><path d="M817,540L1102,540L1102,255Z" fill="#dc6cb2" stroke="#dc6cb2" stroke-width="1.51"/><path d="M817,255L817,540L1102,255Z" fill="#d67cba" stroke="#d67cba" stroke-width="1.51"/><path d="M817,255L1102,255L1102,-30Z" fill="#d985be" stroke="#d985be" stroke-width="1.51"/><path d="M817,-30L817,255L1102,-30Z" fill="#da92c5" stroke="#da92c5" stroke-width="1.51"/><path d="M817,-30L1102,-30L1102,-315Z" fill="#e49dc9" stroke="#e49dc9" stroke-width="1.51"/><path d="M817,-315L817,-30L1102,-315Z" fill="#e6a9d1" stroke="#e6a9d1" stroke-width="1.51"/><path d="M532,1395L817,1395L817,1110Z" fill="#b74f7d" stroke="#b74f7d" stroke-width="1.51"/><path d="M532,1110L532,1395L817,1110Z" fill="#bf5984" stroke="#bf5984" stroke-width="1.51"/><path d="M532,1110L817,1110L817,825Z" fill="#d5598b" stroke="#d5598b" stroke-width="1.51"/><path d="M532,825L532,1110L817,825Z" fill="#d76398" stroke="#d76398" stroke-width="1.51"/><path d="M532,825L817,825L817,540Z" fill="#dd66a9" stroke="#dd66a9" stroke-width="1.51"/><path d="M532,540L532,825L817,540Z" fill="#d975b3" stroke="#d975b3" stroke-width="1.51"/><path d="M532,540L817,540L817,255Z" fill="#d57fbc" stroke="#d57fbc" stroke-width="1.51"/><path d="M532,255L532,540L817,255Z" fill="#cd8ec3" stroke="#cd8ec3" stroke-width="1.51"/><path d="M532,255L817,255L817,-30Z" fill="#d097c8" stroke="#d097c8" stroke-width="1.51"/><path d="M532,-30L532,255L817,-30Z" fill="#cfa3ce" stroke="#cfa3ce" stroke-width="1.51"/><path d="M532,-30L817,-30L817,-315Z" fill="#daadd3" stroke="#daadd3" stroke-width="1.51"/><path d="M532,-315L532,-30L817,-315Z" fill="#dab9da" stroke="#dab9da" stroke-width="1.51"/><path d="M247,1395L532,1395L532,1110Z" fill="#b76085" stroke="#b76085" stroke-width="1.51"/><path d="M247,1110L247,1395L532,1110Z" fill="#c4698c" stroke="#c4698c" stroke-width="1.51"/><path d="M247,1110L532,1110L532,825Z" fill="#d56b93" stroke="#d56b93" stroke-width="1.51"/><path d="M247,825L247,1110L532,825Z" fill="#dc74a0" stroke="#dc74a0" stroke-width="1.51"/><path d="M247,825L532,825L532,540Z" fill="#de78b1" stroke="#de78b1" stroke-width="1.51"/><path d="M247,540L247,825L532,540Z" fill="#dd85bb" stroke="#dd85bb" stroke-width="1.51"/><path d="M247,540L532,540L532,255Z" fill="#d48fc4" stroke="#d48fc4" stroke-width="1.51"/><path d="M247,255L247,540L532,255Z" fill="#d09dcb" stroke="#d09dcb" stroke-width="1.51"/><path d="M247,255L532,255L532,-30Z" fill="#cfa6d0" stroke="#cfa6d0" stroke-width="1.51"/><path d="M247,-30L247,255L532,-30Z" fill="#d2b2d6" stroke="#d2b2d6" stroke-width="1.51"/><path d="M247,-30L532,-30L532,-315Z" fill="#d8bcdc" stroke="#d8bcdc" stroke-width="1.51"/><path d="M247,-315L247,-30L532,-315Z" fill="#ddc8e2" stroke="#ddc8e2" stroke-width="1.51"/><path d="M-38,1395L247,1395L247,1110Z" fill="#be708c" stroke="#be708c" stroke-width="1.51"/><path d="M-38,1110L-38,1395L247,1110Z" fill="#cc7993" stroke="#cc7993" stroke-width="1.51"/><path d="M-38,1110L247,1110L247,825Z" fill="#dd7c9b" stroke="#dd7c9b" stroke-width="1.51"/><path d="M-38,825L-38,1110L247,825Z" fill="#e484a7" stroke="#e484a7" stroke-width="1.51"/><path d="M-38,825L247,825L247,540Z" fill="#e588b9" stroke="#e588b9" stroke-width="1.51"/><path d="M-38,540L-38,825L247,540Z" fill="#e595c2" stroke="#e595c2" stroke-width="1.51"/><path d="M-38,540L247,540L247,255Z" fill="#da9fcc" stroke="#da9fcc" stroke-width="1.51"/><path d="M-38,255L-38,540L247,255Z" fill="#d7acd3" stroke="#d7acd3" stroke-width="1.51"/><path d="M-38,255L247,255L247,-30Z" fill="#d4b5d8" stroke="#d4b5d8" stroke-width="1.51"/><path d="M-38,-30L-38,255L247,-30Z" fill="#d9c1de" stroke="#d9c1de" stroke-width="1.51"/><path d="M-38,-30L247,-30L247,-315Z" fill="#ddcce4" stroke="#ddcce4" stroke-width="1.51"/><path d="M-38,-315L-38,-30L247,-315Z" fill="#e3d8ea" stroke="#e3d8ea" stroke-width="1.51"/><path d="M-323,1395L-38,1395L-38,1110Z" fill="#c77f93" stroke="#c77f93" stroke-width="1.51"/><path d="M-323,1110L-323,1395L-38,1110Z" fill="#d38699" stroke="#d38699" stroke-width="1.51"/><path d="M-323,1110L-38,1110L-38,825Z" fill="#e58ba2" stroke="#e58ba2" stroke-width="1.51"/><path d="M-323,825L-323,1110L-38,825Z" fill="#ec91ad" stroke="#ec91ad" stroke-width="1.51"/><path d="M-323,825L-38,825L-38,540Z" fill="#ee98c0" stroke="#ee98c0" stroke-width="1.51"/><path d="M-323,540L-323,825L-38,540Z" fill="#eda1c9" stroke="#eda1c9" stroke-width="1.51"/><path d="M-323,540L-38,540L-38,255Z" fill="#e2aed4" stroke="#e2aed4" stroke-width="1.51"/><path d="M-323,255L-323,540L-38,255Z" fill="#dfb9d9" stroke="#dfb9d9" stroke-width="1.51"/><path d="M-323,255L-38,255L-38,-30Z" fill="#dcc4e0" stroke="#dcc4e0" stroke-width="1.51"/><path d="M-323,-30L-323,255L-38,-30Z" fill="#e0cee5" stroke="#e0cee5" stroke-width="1.51"/><path d="M-323,-30L-38,-30L-38,-315Z" fill="#e5dbec" stroke="#e5dbec" stroke-width="1.51"/><path d="M-323,-315L-323,-30L-38,-315Z" fill="#eae4f0" stroke="#eae4f0" stroke-width="1.51"/></svg>