<svg xmlns="http://www.w3.org/2000/svg" width="1920" height="1080"><path d="M1980,1260L2100,1260L2100,1140Z" fill="#3b7c1d" stroke="#3b7c1d" stroke-width="1.51"/><path d="M1980,1140L1980,1260L2100,1140Z" fill="#43851f" stroke="#43851f" stroke-width="1.51"/><path d="M1980,1140L2100,1140L2100,1020Z" fill="#4c8d25" stroke="#4c8d25" stroke-width="1.51"/><path d="M1980,1020L1980,1140L2100,1020Z" fill="#55962a" stroke="#55962a" stroke-width="1.51"/><path d="M1980,1020L2100,1020L2100,900Z" fill="#609c35" stroke="#609c35" stroke-width="1.51"/><path d="M1980,900L1980,1020L2100,900Z" fill="#6aa43f" stroke="#6aa43f" stroke-width="1.51"/><path d="M1980,900L2100,900L2100,780Z" fill="#76aa4f" stroke="#76aa4f" stroke-width="1.51"/><path d="M1980,780L1980,900L2100,780Z" fill="#80b059" stroke="#80b059" stroke-width="1.51"/><path d="M1980,780L2100,780L2100,660Z" fill="#88b26a" stroke="#88b26a" stroke-width="1.51"/><path d="M1980,660L1980,780L2100,660Z" fill="#92b875" stroke="#92b875" stroke-width="1.51"/><path d="M1980,660L2100,660L2100,540Z" fill="#93b57e" stroke="#93b57e" stroke-width="1.51"/><path d="M1980,540L1980,660L2100,540Z" fill="#99ba84" stroke="#99ba84" stroke-width="1.51"/><path d="M1980,540L2100,540L2100,420Z" fill="#9ab386" stroke="#9ab386" stroke-width="1.51"/><path d="M1980,420L1980,540L2100,420Z" fill="#9eb487" stroke="#9eb487" stroke-width="1.51"/><path d="M1980,420L2100,420L2100,300Z" fill="#9cab83" stroke="#9cab83" stroke-width="1.51"/><path d="M1980,300L1980,420L2100,300Z" fill="#9faa83" stroke="#9faa83" stroke-width="1.51"/><path d="M1980,300L2100,300L2100,180Z" fill="#999d7c" stroke="#999d7c" stroke-width="1.51"/><path d="M1980,180L1980,300L2100,180Z" fill="#9b9b7b" stroke="#9b9b7b" stroke-width="1.51"/><path d="M1980,180L2100,180L2100,60Z" fill="#95896f" stroke="#95896f" stroke-width="1.51"/><path d="M1980,60L1980,180L2100,60Z" fill="#97866c" stroke="#97866c" stroke-width="1.51"/><path d="M1980,60L2100,60L2100,-60Z" fill="#8f735f" stroke="#8f735f" stroke-width="1.51"/><path d="M1980,-60L1980,60L2100,-60Z" fill="#916f5b" stroke="#916f5b" stroke-width="1.51"/><path d="M1980,-60L2100,-60L2100,-180Z" fill="#875e4e" stroke="#875e4e" stroke-width="1.51"/><path d="M1980,-180L1980,-60L2100,-180Z" fill="#835e4a" stroke="#835e4a" stroke-width="1.51"/><path d="M1860,1260L1980,1260L1980,1140Z" fill="#44871f" stroke="#44871f" stroke-width="1.51"/><path d="M1860,1140L1860,1260L1980,1140Z" fill="#4d9122" stroke="#4d9122" stroke-width="1.51"/><path d="M1860,1140L1980,1140L1980,1020Z" fill="#569827" stroke="#569827" stroke-width="1.51"/><path d="M1860,1020L1860,1140L1980,1020Z" fill="#60a12d" stroke="#60a12d" stroke-width="1.51"/><path d="M1860,1020L1980,1020L1980,900Z" fill="#6aa837" stroke="#6aa837" stroke-width="1.51"/><path d="M1860,900L1860,1020L1980,900Z" fill="#75b043" stroke="#75b043" stroke-width="1.51"/><path d="M1860,900L1980,900L1980,780Z" fill="#80b652" stroke="#80b652" stroke-width="1.51"/><path d="M1860,780L1860,900L1980,780Z" fill="#8abd5d" stroke="#8abd5d" stroke-width="1.51"/><path d="M1860,780L1980,780L1980,660Z" fill="#93be6e" stroke="#93be6e" stroke-width="1.51"/><path d="M1860,660L1860,780L1980,660Z" fill="#9dc47a" stroke="#9dc47a" stroke-width="1.51"/><path d="M1860,660L1980,660L1980,540Z" fill="#9ec282" stroke="#9ec282" stroke-width="1.51"/><path d="M1860,540L1860,660L1980,540Z" fill="#a4c689" stroke="#a4c689" stroke-width="1.51"/><path d="M1860,540L1980,540L1980,420Z" fill="#a4bf8b" stroke="#a4bf8b" stroke-width="1.51"/><path d="M1860,420L1860,540L1980,420Z" fill="#a9c08c" stroke="#a9c08c" stroke-width="1.51"/><path d="M1860,420L1980,420L1980,300Z" fill="#a7b788" stroke="#a7b788" stroke-width="1.51"/><path d="M1860,300L1860,420L1980,300Z" fill="#aab688" stroke="#aab688" stroke-width="1.51"/><path d="M1860,300L1980,300L1980,180Z" fill="#a4a981" stroke="#a4a981" stroke-width="1.51"/><path d="M1860,180L1860,300L1980,180Z" fill="#a6a780" stroke="#a6a780" stroke-width="1.51"/><path d="M1860,180L1980,180L1980,60Z" fill="#a09574" stroke="#a09574" stroke-width="1.51"/><path d="M1860,60L1860,180L1980,60Z" fill="#a29171" stroke="#a29171" stroke-width="1.51"/><path d="M1860,60L1980,60L1980,-60Z" fill="#9a7e63" stroke="#9a7e63" stroke-width="1.51"/><path d="M1860,-60L1860,60L1980,-60Z" fill="#9b7a60" stroke="#9b7a60" stroke-width="1.51"/><path d="M1860,-60L1980,-60L1980,-180Z" fill="#916952" stroke="#916952" stroke-width="1.51"/><path d="M1860,-180L1860,-60L1980,-180Z" fill="#8e694f" stroke="#8e694f" stroke-width="1.51"/><path d="M1740,1260L1860,1260L1860,1140Z" fill="#519226" stroke="#519226" stroke-width="1.51"/><path d="M1740,1140L1740,1260L1860,1140Z" fill="#5a9b2a" stroke="#5a9b2a" stroke-width="1.51"/><path d="M1740,1140L1860,1140L1860,1020Z" fill="#62a32e" stroke="#62a32e" stroke-width="1.51"/><path d="M1740,1020L1740,1140L1860,1020Z" fill="#6cac35" stroke="#6cac35" stroke-width="1.51"/><path d="M1740,1020L1860,1020L1860,900Z" fill="#76b33e" stroke="#76b33e" stroke-width="1.51"/><path d="M1740,900L1740,1020L1860,900Z" fill="#81bb4a" stroke="#81bb4a" stroke-width="1.51"/><path d="M1740,900L1860,900L1860,780Z" fill="#8cc159" stroke="#8cc159" stroke-width="1.51"/><path d="M1740,780L1740,900L1860,780Z" fill="#97c765" stroke="#97c765" stroke-width="1.51"/><path d="M1740,780L1860,780L1860,660Z" fill="#9fc975" stroke="#9fc975" stroke-width="1.51"/><path d="M1740,660L1740,780L1860,660Z" fill="#a9cf82" stroke="#a9cf82" stroke-width="1.51"/><path d="M1740,660L1860,660L1860,540Z" fill="#aacc89" stroke="#aacc89" stroke-width="1.51"/><path d="M1740,540L1740,660L1860,540Z" fill="#b1d191" stroke="#b1d191" stroke-width="1.51"/><path d="M1740,540L1860,540L1860,420Z" fill="#b0ca92" stroke="#b0ca92" stroke-width="1.51"/><path d="M1740,420L1740,540L1860,420Z" fill="#b5cb94" stroke="#b5cb94" stroke-width="1.51"/><path d="M1740,420L1860,420L1860,300Z" fill="#b3c28f" stroke="#b3c28f" stroke-width="1.51"/><path d="M1740,300L1740,420L1860,300Z" fill="#b6c090" stroke="#b6c090" stroke-width="1.51"/><path d="M1740,300L1860,300L1860,180Z" fill="#b0b388" stroke="#b0b388" stroke-width="1.51"/><path d="M1740,180L1740,300L1860,180Z" fill="#b3b189" stroke="#b3b189" stroke-width="1.51"/><path d="M1740,180L1860,180L1860,60Z" fill="#ab9f7b" stroke="#ab9f7b" stroke-width="1.51"/><path d="M1740,60L1740,180L1860,60Z" fill="#ae9b79" stroke="#ae9b79" stroke-width="1.51"/><path d="M1740,60L1860,60L1860,-60Z" fill="#a6886a" stroke="#a6886a" stroke-width="1.51"/><path d="M1740,-60L1740,60L1860,-60Z" fill="#a78468" stroke="#a78468" stroke-width="1.51"/><path d="M1740,-60L1860,-60L1860,-180Z" fill="#9d7259" stroke="#9d7259" stroke-width="1.51"/><path d="M1740,-180L1740,-60L1860,-180Z" fill="#9a7256" stroke="#9a7256" stroke-width="1.51"/><path d="M1620,1260L1740,1260L1740,1140Z" fill="#5d9c2e" stroke="#5d9c2e" stroke-width="1.51"/><path d="M1620,1140L1620,1260L1740,1140Z" fill="#67a634" stroke="#67a634" stroke-width="1.51"/><path d="M1620,1140L1740,1140L1740,1020Z" fill="#6ead36" stroke="#6ead36" stroke-width="1.51"/><path d="M1620,1020L1620,1140L1740,1020Z" fill="#79b63f" stroke="#79b63f" stroke-width="1.51"/><path d="M1620,1020L1740,1020L1740,900Z" fill="#82bd46" stroke="#82bd46" stroke-width="1.51"/><path d="M1620,900L1620,1020L1740,900Z" fill="#8ec554" stroke="#8ec554" stroke-width="1.51"/><path d="M1620,900L1740,900L1740,780Z" fill="#98cb61" stroke="#98cb61" stroke-width="1.51"/><path d="M1620,780L1620,900L1740,780Z" fill="#a3d26f" stroke="#a3d26f" stroke-width="1.51"/><path d="M1620,780L1740,780L1740,660Z" fill="#abd37e" stroke="#abd37e" stroke-width="1.51"/><path d="M1620,660L1620,780L1740,660Z" fill="#b6da8b" stroke="#b6da8b" stroke-width="1.51"/><path d="M1620,660L1740,660L1740,540Z" fill="#b7d791" stroke="#b7d791" stroke-width="1.51"/><path d="M1620,540L1620,660L1740,540Z" fill="#bedb9b" stroke="#bedb9b" stroke-width="1.51"/><path d="M1620,540L1740,540L1740,420Z" fill="#bdd59a" stroke="#bdd59a" stroke-width="1.51"/><path d="M1620,420L1620,540L1740,420Z" fill="#c2d69e" stroke="#c2d69e" stroke-width="1.51"/><path d="M1620,420L1740,420L1740,300Z" fill="#c0cd97" stroke="#c0cd97" stroke-width="1.51"/><path d="M1620,300L1620,420L1740,300Z" fill="#c3cb9a" stroke="#c3cb9a" stroke-width="1.51"/><path d="M1620,300L1740,300L1740,180Z" fill="#bcbe90" stroke="#bcbe90" stroke-width="1.51"/><path d="M1620,180L1620,300L1740,180Z" fill="#bfbb92" stroke="#bfbb92" stroke-width="1.51"/><path d="M1620,180L1740,180L1740,60Z" fill="#b8a983" stroke="#b8a983" stroke-width="1.51"/><path d="M1620,60L1620,180L1740,60Z" fill="#baa582" stroke="#baa582" stroke-width="1.51"/><path d="M1620,60L1740,60L1740,-60Z" fill="#b29272" stroke="#b29272" stroke-width="1.51"/><path d="M1620,-60L1620,60L1740,-60Z" fill="#b48d71" stroke="#b48d71" stroke-width="1.51"/><path d="M1620,-60L1740,-60L1740,-180Z" fill="#a97c61" stroke="#a97c61" stroke-width="1.51"/><path d="M1620,-180L1620,-60L1740,-180Z" fill="#a67c5f" stroke="#a67c5f" stroke-width="1.51"/><path d="M1500,1260L1620,1260L1620,1140Z" fill="#6ba53e" stroke="#6ba53e" stroke-width="1.51"/><path d="M1500,1140L1500,1260L1620,1140Z" fill="#75af46" stroke="#75af46" stroke-width="1.51"/><path d="M1500,1140L1620,1140L1620,1020Z" fill="#7db746" stroke="#7db746" stroke-width="1.51"/><path d="M1500,1020L1500,1140L1620,1020Z" fill="#88c050" stroke="#88c050" stroke-width="1.51"/><path d="M1500,1020L1620,1020L1620,900Z" fill="#90c756" stroke="#90c756" stroke-width="1.51"/><path d="M1500,900L1500,1020L1620,900Z" fill="#9dcf65" stroke="#9dcf65" stroke-width="1.51"/><path d="M1500,900L1620,900L1620,780Z" fill="#a6d571" stroke="#a6d571" stroke-width="1.51"/><path d="M1500,780L1500,900L1620,780Z" fill="#b2db80" stroke="#b2db80" stroke-width="1.51"/><path d="M1500,780L1620,780L1620,660Z" fill="#b9dd8d" stroke="#b9dd8d" stroke-width="1.51"/><path d="M1500,660L1500,780L1620,660Z" fill="#c4e39c" stroke="#c4e39c" stroke-width="1.51"/><path d="M1500,660L1620,660L1620,540Z" fill="#c4e1a1" stroke="#c4e1a1" stroke-width="1.51"/><path d="M1500,540L1500,660L1620,540Z" fill="#cce5ac" stroke="#cce5ac" stroke-width="1.51"/><path d="M1500,540L1620,540L1620,420Z" fill="#cadeaa" stroke="#cadeaa" stroke-width="1.51"/><path d="M1500,420L1500,540L1620,420Z" fill="#d0dfaf" stroke="#d0dfaf" stroke-width="1.51"/><path d="M1500,420L1620,420L1620,300Z" fill="#cdd6a7" stroke="#cdd6a7" stroke-width="1.51"/><path d="M1500,300L1500,420L1620,300Z" fill="#d0d4aa" stroke="#d0d4aa" stroke-width="1.51"/><path d="M1500,300L1620,300L1620,180Z" fill="#c9c79f" stroke="#c9c79f" stroke-width="1.51"/><path d="M1500,180L1500,300L1620,180Z" fill="#cdc4a2" stroke="#cdc4a2" stroke-width="1.51"/><path d="M1500,180L1620,180L1620,60Z" fill="#c5b292" stroke="#c5b292" stroke-width="1.51"/><path d="M1500,60L1500,180L1620,60Z" fill="#c7ae92" stroke="#c7ae92" stroke-width="1.51"/><path d="M1500,60L1620,60L1620,-60Z" fill="#be9b81" stroke="#be9b81" stroke-width="1.51"/><path d="M1500,-60L1500,60L1620,-60Z" fill="#c19680" stroke="#c19680" stroke-width="1.51"/><path d="M1500,-60L1620,-60L1620,-180Z" fill="#b6846f" stroke="#b6846f" stroke-width="1.51"/><path d="M1500,-180L1500,-60L1620,-180Z" fill="#b3846e" stroke="#b3846e" stroke-width="1.51"/><path d="M1380,1260L1500,1260L1500,1140Z" fill="#79af4f" stroke="#79af4f" stroke-width="1.51"/><path d="M1380,1140L1380,1260L1500,1140Z" fill="#83b757" stroke="#83b757" stroke-width="1.51"/><path d="M1380,1140L1500,1140L1500,1020Z" fill="#8bc058" stroke="#8bc058" stroke-width="1.51"/><path d="M1380,1020L1380,1140L1500,1020Z" fill="#95c862" stroke="#95c862" stroke-width="1.51"/><path d="M1380,1020L1500,1020L1500,900Z" fill="#9ed067" stroke="#9ed067" stroke-width="1.51"/><path d="M1380,900L1380,1020L1500,900Z" fill="#aad776" stroke="#aad776" stroke-width="1.51"/><path d="M1380,900L1500,900L1500,780Z" fill="#b4df82" stroke="#b4df82" stroke-width="1.51"/><path d="M1380,780L1380,900L1500,780Z" fill="#bfe491" stroke="#bfe491" stroke-width="1.51"/><path d="M1380,780L1500,780L1500,660Z" fill="#c6e79e" stroke="#c6e79e" stroke-width="1.51"/><path d="M1380,660L1380,780L1500,660Z" fill="#d1ecad" stroke="#d1ecad" stroke-width="1.51"/><path d="M1380,660L1500,660L1500,540Z" fill="#d2eab2" stroke="#d2eab2" stroke-width="1.51"/><path d="M1380,540L1380,660L1500,540Z" fill="#d9edbc" stroke="#d9edbc" stroke-width="1.51"/><path d="M1380,540L1500,540L1500,420Z" fill="#d8e8bb" stroke="#d8e8bb" stroke-width="1.51"/><path d="M1380,420L1380,540L1500,420Z" fill="#dde7c0" stroke="#dde7c0" stroke-width="1.51"/><path d="M1380,420L1500,420L1500,300Z" fill="#dadfb7" stroke="#dadfb7" stroke-width="1.51"/><path d="M1380,300L1380,420L1500,300Z" fill="#dddcbb" stroke="#dddcbb" stroke-width="1.51"/><path d="M1380,300L1500,300L1500,180Z" fill="#d7d0b0" stroke="#d7d0b0" stroke-width="1.51"/><path d="M1380,180L1380,300L1500,180Z" fill="#d9ccb3" stroke="#d9ccb3" stroke-width="1.51"/><path d="M1380,180L1500,180L1500,60Z" fill="#d2bba2" stroke="#d2bba2" stroke-width="1.51"/><path d="M1380,60L1380,180L1500,60Z" fill="#d4b6a3" stroke="#d4b6a3" stroke-width="1.51"/><path d="M1380,60L1500,60L1500,-60Z" fill="#cba391" stroke="#cba391" stroke-width="1.51"/><path d="M1380,-60L1380,60L1500,-60Z" fill="#ce9d90" stroke="#ce9d90" stroke-width="1.51"/><path d="M1380,-60L1500,-60L1500,-180Z" fill="#c38c7e" stroke="#c38c7e" stroke-width="1.51"/><path d="M1380,-180L1380,-60L1500,-180Z" fill="#c08b7e" stroke="#c08b7e" stroke-width="1.51"/><path d="M1260,1260L1380,1260L1380,1140Z" fill="#86b461" stroke="#86b461" stroke-width="1.51"/><path d="M1260,1140L1260,1260L1380,1140Z" fill="#8fbc69" stroke="#8fbc69" stroke-width="1.51"/><path d="M1260,1140L1380,1140L1380,1020Z" fill="#98c66a" stroke="#98c66a" stroke-width="1.51"/><path d="M1260,1020L1260,1140L1380,1020Z" fill="#a2cd74" stroke="#a2cd74" stroke-width="1.51"/><path d="M1260,1020L1380,1020L1380,900Z" fill="#abd67a" stroke="#abd67a" stroke-width="1.51"/><path d="M1260,900L1260,1020L1380,900Z" fill="#b6dd89" stroke="#b6dd89" stroke-width="1.51"/><path d="M1260,900L1380,900L1380,780Z" fill="#c1e494" stroke="#c1e494" stroke-width="1.51"/><path d="M1260,780L1260,900L1380,780Z" fill="#cbe9a3" stroke="#cbe9a3" stroke-width="1.51"/><path d="M1260,780L1380,780L1380,660Z" fill="#d3ecb0" stroke="#d3ecb0" stroke-width="1.51"/><path d="M1260,660L1260,780L1380,660Z" fill="#dcf1bf" stroke="#dcf1bf" stroke-width="1.51"/><path d="M1260,660L1380,660L1380,540Z" fill="#ddf0c4" stroke="#ddf0c4" stroke-width="1.51"/><path d="M1260,540L1260,660L1380,540Z" fill="#e3f2cf" stroke="#e3f2cf" stroke-width="1.51"/><path d="M1260,540L1380,540L1380,420Z" fill="#e3edcd" stroke="#e3edcd" stroke-width="1.51"/><path d="M1260,420L1260,540L1380,420Z" fill="#e7ecd2" stroke="#e7ecd2" stroke-width="1.51"/><path d="M1260,420L1380,420L1380,300Z" fill="#e6e5ca" stroke="#e6e5ca" stroke-width="1.51"/><path d="M1260,300L1260,420L1380,300Z" fill="#e8e1cd" stroke="#e8e1cd" stroke-width="1.51"/><path d="M1260,300L1380,300L1380,180Z" fill="#e2d5c2" stroke="#e2d5c2" stroke-width="1.51"/><path d="M1260,180L1260,300L1380,180Z" fill="#e4d1c5" stroke="#e4d1c5" stroke-width="1.51"/><path d="M1260,180L1380,180L1380,60Z" fill="#ddc0b4" stroke="#ddc0b4" stroke-width="1.51"/><path d="M1260,60L1260,180L1380,60Z" fill="#debab4" stroke="#debab4" stroke-width="1.51"/><path d="M1260,60L1380,60L1380,-60Z" fill="#d7a8a2" stroke="#d7a8a2" stroke-width="1.51"/><path d="M1260,-60L1260,60L1380,-60Z" fill="#d8a1a2" stroke="#d8a1a2" stroke-width="1.51"/><path d="M1260,-60L1380,-60L1380,-180Z" fill="#ce908f" stroke="#ce908f" stroke-width="1.51"/><path d="M1260,-180L1260,-60L1380,-180Z" fill="#ca8e8f" stroke="#ca8e8f" stroke-width="1.51"/><path d="M1140,1260L1260,1260L1260,1140Z" fill="#91b973" stroke="#91b973" stroke-width="1.51"/><path d="M1140,1140L1140,1260L1260,1140Z" fill="#9ac07a" stroke="#9ac07a" stroke-width="1.51"/><path d="M1140,1140L1260,1140L1260,1020Z" fill="#a3cb7d" stroke="#a3cb7d" stroke-width="1.51"/><path d="M1140,1020L1140,1140L1260,1020Z" fill="#acd185" stroke="#acd185" stroke-width="1.51"/><path d="M1140,1020L1260,1020L1260,900Z" fill="#b7db8d" stroke="#b7db8d" stroke-width="1.51"/><path d="M1140,900L1140,1020L1260,900Z" fill="#c1e19a" stroke="#c1e19a" stroke-width="1.51"/><path d="M1140,900L1260,900L1260,780Z" fill="#cce9a7" stroke="#cce9a7" stroke-width="1.51"/><path d="M1140,780L1140,900L1260,780Z" fill="#d5edb4" stroke="#d5edb4" stroke-width="1.51"/><path d="M1140,780L1260,780L1260,660Z" fill="#def1c2" stroke="#def1c2" stroke-width="1.51"/><path d="M1140,660L1140,780L1260,660Z" fill="#e6f5d0" stroke="#e6f5d0" stroke-width="1.51"/><path d="M1140,660L1260,660L1260,540Z" fill="#e8f5d6" stroke="#e8f5d6" stroke-width="1.51"/><path d="M1140,540L1140,660L1260,540Z" fill="#edf6e0" stroke="#edf6e0" stroke-width="1.51"/><path d="M1140,540L1260,540L1260,420Z" fill="#eef2e0" stroke="#eef2e0" stroke-width="1.51"/><path d="M1140,420L1140,540L1260,420Z" fill="#f1f0e3" stroke="#f1f0e3" stroke-width="1.51"/><path d="M1140,420L1260,420L1260,300Z" fill="#f0e9dc" stroke="#f0e9dc" stroke-width="1.51"/><path d="M1140,300L1140,420L1260,300Z" fill="#f1e5de" stroke="#f1e5de" stroke-width="1.51"/><path d="M1140,300L1260,300L1260,180Z" fill="#ecdad4" stroke="#ecdad4" stroke-width="1.51"/><path d="M1140,180L1140,300L1260,180Z" fill="#edd5d6" stroke="#edd5d6" stroke-width="1.51"/><path d="M1140,180L1260,180L1260,60Z" fill="#e7c4c6" stroke="#e7c4c6" stroke-width="1.51"/><path d="M1140,60L1140,180L1260,60Z" fill="#e8bdc5" stroke="#e8bdc5" stroke-width="1.51"/><path d="M1140,60L1260,60L1260,-60Z" fill="#e1acb4" stroke="#e1acb4" stroke-width="1.51"/><path d="M1140,-60L1140,60L1260,-60Z" fill="#e1a4b2" stroke="#e1a4b2" stroke-width="1.51"/><path d="M1140,-60L1260,-60L1260,-180Z" fill="#d894a1" stroke="#d894a1" stroke-width="1.51"/><path d="M1140,-180L1140,-60L1260,-180Z" fill="#d3919f" stroke="#d3919f" stroke-width="1.51"/><path d="M1020,1260L1140,1260L1140,1140Z" fill="#97bb7e" stroke="#97bb7e" stroke-width="1.51"/><path d="M1020,1140L1020,1260L1140,1140Z" fill="#9fc184" stroke="#9fc184" stroke-width="1.51"/><path d="M1020,1140L1140,1140L1140,1020Z" fill="#aacc88" stroke="#aacc88" stroke-width="1.51"/><path d="M1020,1020L1020,1140L1140,1020Z" fill="#b1d28f" stroke="#b1d28f" stroke-width="1.51"/><path d="M1020,1020L1140,1020L1140,900Z" fill="#bddd97" stroke="#bddd97" stroke-width="1.51"/><path d="M1020,900L1020,1020L1140,900Z" fill="#c6e1a4" stroke="#c6e1a4" stroke-width="1.51"/><path d="M1020,900L1140,900L1140,780Z" fill="#d2ebb2" stroke="#d2ebb2" stroke-width="1.51"/><path d="M1020,780L1020,900L1140,780Z" fill="#daeebe" stroke="#daeebe" stroke-width="1.51"/><path d="M1020,780L1140,780L1140,660Z" fill="#e3f3cd" stroke="#e3f3cd" stroke-width="1.51"/><path d="M1020,660L1020,780L1140,660Z" fill="#ebf5da" stroke="#ebf5da" stroke-width="1.51"/><path d="M1020,660L1140,660L1140,540Z" fill="#eef6e2" stroke="#eef6e2" stroke-width="1.51"/><path d="M1020,540L1020,660L1140,540Z" fill="#f2f7ea" stroke="#f2f7ea" stroke-width="1.51"/><path d="M1020,540L1140,540L1140,420Z" fill="#f3f4eb" stroke="#f3f4eb" stroke-width="1.51"/><path d="M1020,420L1020,540L1140,420Z" fill="#f5f1ed" stroke="#f5f1ed" stroke-width="1.51"/><path d="M1020,420L1140,420L1140,300Z" fill="#f5ebe7" stroke="#f5ebe7" stroke-width="1.51"/><path d="M1020,300L1020,420L1140,300Z" fill="#f5e5e8" stroke="#f5e5e8" stroke-width="1.51"/><path d="M1020,300L1140,300L1140,180Z" fill="#f1dbdf" stroke="#f1dbdf" stroke-width="1.51"/><path d="M1020,180L1020,300L1140,180Z" fill="#f1d5e0" stroke="#f1d5e0" stroke-width="1.51"/><path d="M1020,180L1140,180L1140,60Z" fill="#ecc5d1" stroke="#ecc5d1" stroke-width="1.51"/><path d="M1020,60L1020,180L1140,60Z" fill="#ecbdce" stroke="#ecbdce" stroke-width="1.51"/><path d="M1020,60L1140,60L1140,-60Z" fill="#e6adbe" stroke="#e6adbe" stroke-width="1.51"/><path d="M1020,-60L1020,60L1140,-60Z" fill="#e5a4bb" stroke="#e5a4bb" stroke-width="1.51"/><path d="M1020,-60L1140,-60L1140,-180Z" fill="#dd95ab" stroke="#dd95ab" stroke-width="1.51"/><path d="M1020,-180L1020,-60L1140,-180Z" fill="#d791a8" stroke="#d791a8" stroke-width="1.51"/><path d="M900,1260L1020,1260L1020,1140Z" fill="#9cbb88" stroke="#9cbb88" stroke-width="1.51"/><path d="M900,1140L900,1260L1020,1140Z" fill="#a3c18b" stroke="#a3c18b" stroke-width="1.51"/><path d="M900,1140L1020,1140L1020,1020Z" fill="#afcd91" stroke="#afcd91" stroke-width="1.51"/><path d="M900,1020L900,1140L1020,1020Z" fill="#b6d297" stroke="#b6d297" stroke-width="1.51"/><path d="M900,1020L1020,1020L1020,900Z" fill="#c2dda1" stroke="#c2dda1" stroke-width="1.51"/><path d="M900,900L900,1020L1020,900Z" fill="#cae1ab" stroke="#cae1ab" stroke-width="1.51"/><path d="M900,900L1020,900L1020,780Z" fill="#d7ebbb" stroke="#d7ebbb" stroke-width="1.51"/><path d="M900,780L900,900L1020,780Z" fill="#deedc5" stroke="#deedc5" stroke-width="1.51"/><path d="M900,780L1020,780L1020,660Z" fill="#e8f3d7" stroke="#e8f3d7" stroke-width="1.51"/><path d="M900,660L900,780L1020,660Z" fill="#eff5e2" stroke="#eff5e2" stroke-width="1.51"/><path d="M900,660L1020,660L1020,540Z" fill="#f2f7eb" stroke="#f2f7eb" stroke-width="1.51"/><path d="M900,540L900,660L1020,540Z" fill="#f6f6f2" stroke="#f6f6f2" stroke-width="1.51"/><path d="M900,540L1020,540L1020,420Z" fill="#f8f4f5" stroke="#f8f4f5" stroke-width="1.51"/><path d="M900,420L900,540L1020,420Z" fill="#f9f0f5" stroke="#f9f0f5" stroke-width="1.51"/><path d="M900,420L1020,420L1020,300Z" fill="#faebf1" stroke="#faebf1" stroke-width="1.51"/><path d="M900,300L900,420L1020,300Z" fill="#f9e5ef" stroke="#f9e5ef" stroke-width="1.51"/><path d="M900,300L1020,300L1020,180Z" fill="#f6dbe9" stroke="#f6dbe9" stroke-width="1.51"/><path d="M900,180L900,300L1020,180Z" fill="#f5d4e7" stroke="#f5d4e7" stroke-width="1.51"/><path d="M900,180L1020,180L1020,60Z" fill="#f0c5da" stroke="#f0c5da" stroke-width="1.51"/><path d="M900,60L900,180L1020,60Z" fill="#efbdd6" stroke="#efbdd6" stroke-width="1.51"/><path d="M900,60L1020,60L1020,-60Z" fill="#eaadc8" stroke="#eaadc8" stroke-width="1.51"/><path d="M900,-60L900,60L1020,-60Z" fill="#e9a3c2" stroke="#e9a3c2" stroke-width="1.51"/><path d="M900,-60L1020,-60L1020,-180Z" fill="#e195b4" stroke="#e195b4" stroke-width="1.51"/><path d="M900,-180L900,-60L1020,-180Z" fill="#db90af" stroke="#db90af" stroke-width="1.51"/><path d="M780,1260L900,1260L900,1140Z" fill="#9fb788" stroke="#9fb788" stroke-width="1.51"/><path d="M780,1140L780,1260L900,1140Z" fill="#a5bc89" stroke="#a5bc89" stroke-width="1.51"/><path d="M780,1140L900,1140L900,1020Z" fill="#b1c892" stroke="#b1c892" stroke-width="1.51"/><path d="M780,1020L780,1140L900,1020Z" fill="#b8cd95" stroke="#b8cd95" stroke-width="1.51"/><path d="M780,1020L900,1020L900,900Z" fill="#c4d9a2" stroke="#c4d9a2" stroke-width="1.51"/><path d="M780,900L780,1020L900,900Z" fill="#ccdca9" stroke="#ccdca9" stroke-width="1.51"/><path d="M780,900L900,900L900,780Z" fill="#d9e6bc" stroke="#d9e6bc" stroke-width="1.51"/><path d="M780,780L780,900L900,780Z" fill="#e0e8c4" stroke="#e0e8c4" stroke-width="1.51"/><path d="M780,780L900,780L900,660Z" fill="#eaeed8" stroke="#eaeed8" stroke-width="1.51"/><path d="M780,660L780,780L900,660Z" fill="#f0efe0" stroke="#f0efe0" stroke-width="1.51"/><path d="M780,660L900,660L900,540Z" fill="#f4f2ec" stroke="#f4f2ec" stroke-width="1.51"/><path d="M780,540L780,660L900,540Z" fill="#f7f1f0" stroke="#f7f1f0" stroke-width="1.51"/><path d="M780,540L900,540L900,420Z" fill="#faeff5" stroke="#faeff5" stroke-width="1.51"/><path d="M780,420L780,540L900,420Z" fill="#fbebf2" stroke="#fbebf2" stroke-width="1.51"/><path d="M780,420L900,420L900,300Z" fill="#fce6f1" stroke="#fce6f1" stroke-width="1.51"/><path d="M780,300L780,420L900,300Z" fill="#fbdfed" stroke="#fbdfed" stroke-width="1.51"/><path d="M780,300L900,300L900,180Z" fill="#f7d6e9" stroke="#f7d6e9" stroke-width="1.51"/><path d="M780,180L780,300L900,180Z" fill="#f6cfe5" stroke="#f6cfe5" stroke-width="1.51"/><path d="M780,180L900,180L900,60Z" fill="#f2c0da" stroke="#f2c0da" stroke-width="1.51"/><path d="M780,60L780,180L900,60Z" fill="#f0b7d4" stroke="#f0b7d4" stroke-width="1.51"/><path d="M780,60L900,60L900,-60Z" fill="#eba7c8" stroke="#eba7c8" stroke-width="1.51"/><path d="M780,-60L780,60L900,-60Z" fill="#ea9dc0" stroke="#ea9dc0" stroke-width="1.51"/><path d="M780,-60L900,-60L900,-180Z" fill="#e28fb4" stroke="#e28fb4" stroke-width="1.51"/><path d="M780,-180L780,-60L900,-180Z" fill="#db8aad" stroke="#db8aad" stroke-width="1.51"/><path d="M660,1260L780,1260L780,1140Z" fill="#a1b286" stroke="#a1b286" stroke-width="1.51"/><path d="M660,1140L660,1260L780,1140Z" fill="#a6b687" stroke="#a6b687" stroke-width="1.51"/><path d="M660,1140L780,1140L780,1020Z" fill="#b3c390" stroke="#b3c390" stroke-width="1.51"/><path d="M660,1020L660,1140L780,1020Z" fill="#b9c793" stroke="#b9c793" stroke-width="1.51"/><path d="M660,1020L780,1020L780,900Z" fill="#c6d4a0" stroke="#c6d4a0" stroke-width="1.51"/><path d="M660,900L660,1020L780,900Z" fill="#cdd6a7" stroke="#cdd6a7" stroke-width="1.51"/><path d="M660,900L780,900L780,780Z" fill="#dbe1ba" stroke="#dbe1ba" stroke-width="1.51"/><path d="M660,780L660,900L780,780Z" fill="#e1e2c1" stroke="#e1e2c1" stroke-width="1.51"/><path d="M660,780L780,780L780,660Z" fill="#ece9d6" stroke="#ece9d6" stroke-width="1.51"/><path d="M660,660L660,780L780,660Z" fill="#f1e9de" stroke="#f1e9de" stroke-width="1.51"/><path d="M660,660L780,660L780,540Z" fill="#f6ecea" stroke="#f6ecea" stroke-width="1.51"/><path d="M660,540L660,660L780,540Z" fill="#f8eaed" stroke="#f8eaed" stroke-width="1.51"/><path d="M660,540L780,540L780,420Z" fill="#fbeaf3" stroke="#fbeaf3" stroke-width="1.51"/><path d="M660,420L660,540L780,420Z" fill="#fbe4f0" stroke="#fbe4f0" stroke-width="1.51"/><path d="M660,420L780,420L780,300Z" fill="#fde1ef" stroke="#fde1ef" stroke-width="1.51"/><path d="M660,300L660,420L780,300Z" fill="#fbd9eb" stroke="#fbd9eb" stroke-width="1.51"/><path d="M660,300L780,300L780,180Z" fill="#f9d1e7" stroke="#f9d1e7" stroke-width="1.51"/><path d="M660,180L660,300L780,180Z" fill="#f6c8e2" stroke="#f6c8e2" stroke-width="1.51"/><path d="M660,180L780,180L780,60Z" fill="#f3bbd8" stroke="#f3bbd8" stroke-width="1.51"/><path d="M660,60L660,180L780,60Z" fill="#f0b0d1" stroke="#f0b0d1" stroke-width="1.51"/><path d="M660,60L780,60L780,-60Z" fill="#eca2c6" stroke="#eca2c6" stroke-width="1.51"/><path d="M660,-60L660,60L780,-60Z" fill="#e996be" stroke="#e996be" stroke-width="1.51"/><path d="M660,-60L780,-60L780,-180Z" fill="#e389b2" stroke="#e389b2" stroke-width="1.51"/><path d="M660,-180L660,-60L780,-180Z" fill="#db83ab" stroke="#db83ab" stroke-width="1.51"/><path d="M540,1260L660,1260L660,1140Z" fill="#9fa982" stroke="#9fa982" stroke-width="1.51"/><path d="M540,1140L540,1260L660,1140Z" fill="#a4ac83" stroke="#a4ac83" stroke-width="1.51"/><path d="M540,1140L660,1140L660,1020Z" fill="#b1bb8c" stroke="#b1bb8c" stroke-width="1.51"/><path d="M540,1020L540,1140L660,1020Z" fill="#b7bd8f" stroke="#b7bd8f" stroke-width="1.51"/><path d="M540,1020L660,1020L660,900Z" fill="#c4cb9b" stroke="#c4cb9b" stroke-width="1.51"/><path d="M540,900L540,1020L660,900Z" fill="#cbcca3" stroke="#cbcca3" stroke-width="1.51"/><path d="M540,900L660,900L660,780Z" fill="#d9d8b5" stroke="#d9d8b5" stroke-width="1.51"/><path d="M540,780L540,900L660,780Z" fill="#ded7bd" stroke="#ded7bd" stroke-width="1.51"/><path d="M540,780L660,780L660,660Z" fill="#eae0d1" stroke="#eae0d1" stroke-width="1.51"/><path d="M540,660L540,780L660,660Z" fill="#efded9" stroke="#efded9" stroke-width="1.51"/><path d="M540,660L660,660L660,540Z" fill="#f4e3e5" stroke="#f4e3e5" stroke-width="1.51"/><path d="M540,540L540,660L660,540Z" fill="#f5e0e8" stroke="#f5e0e8" stroke-width="1.51"/><path d="M540,540L660,540L660,420Z" fill="#f9e0ed" stroke="#f9e0ed" stroke-width="1.51"/><path d="M540,420L540,540L660,420Z" fill="#f8daeb" stroke="#f8daeb" stroke-width="1.51"/><path d="M540,420L660,420L660,300Z" fill="#fbd7ea" stroke="#fbd7ea" stroke-width="1.51"/><path d="M540,300L540,420L660,300Z" fill="#f8cee6" stroke="#f8cee6" stroke-width="1.51"/><path d="M540,300L660,300L660,180Z" fill="#f6c7e2" stroke="#f6c7e2" stroke-width="1.51"/><path d="M540,180L540,300L660,180Z" fill="#f3bedd" stroke="#f3bedd" stroke-width="1.51"/><path d="M540,180L660,180L660,60Z" fill="#f0b1d3" stroke="#f0b1d3" stroke-width="1.51"/><path d="M540,60L540,180L660,60Z" fill="#eda6cc" stroke="#eda6cc" stroke-width="1.51"/><path d="M540,60L660,60L660,-60Z" fill="#e998c1" stroke="#e998c1" stroke-width="1.51"/><path d="M540,-60L540,60L660,-60Z" fill="#e58cb9" stroke="#e58cb9" stroke-width="1.51"/><path d="M540,-60L660,-60L660,-180Z" fill="#df80ad" stroke="#df80ad" stroke-width="1.51"/><path d="M540,-180L540,-60L660,-180Z" fill="#d779a6" stroke="#d779a6" stroke-width="1.51"/><path d="M420,1260L540,1260L540,1140Z" fill="#9da07e" stroke="#9da07e" stroke-width="1.51"/><path d="M420,1140L420,1260L540,1140Z" fill="#a2a27d" stroke="#a2a27d" stroke-width="1.51"/><path d="M420,1140L540,1140L540,1020Z" fill="#afb187" stroke="#afb187" stroke-width="1.51"/><path d="M420,1020L420,1140L540,1020Z" fill="#b5b289" stroke="#b5b289" stroke-width="1.51"/><path d="M420,1020L540,1020L540,900Z" fill="#c2c197" stroke="#c2c197" stroke-width="1.51"/><path d="M420,900L420,1020L540,900Z" fill="#c8c19d" stroke="#c8c19d" stroke-width="1.51"/><path d="M420,900L540,900L540,780Z" fill="#d7ceb1" stroke="#d7ceb1" stroke-width="1.51"/><path d="M420,780L420,900L540,780Z" fill="#dcccb6" stroke="#dcccb6" stroke-width="1.51"/><path d="M420,780L540,780L540,660Z" fill="#e7d5cc" stroke="#e7d5cc" stroke-width="1.51"/><path d="M420,660L420,780L540,660Z" fill="#ecd3d2" stroke="#ecd3d2" stroke-width="1.51"/><path d="M420,660L540,660L540,540Z" fill="#f1d8e0" stroke="#f1d8e0" stroke-width="1.51"/><path d="M420,540L420,660L540,540Z" fill="#f3d4e2" stroke="#f3d4e2" stroke-width="1.51"/><path d="M420,540L540,540L540,420Z" fill="#f6d6e8" stroke="#f6d6e8" stroke-width="1.51"/><path d="M420,420L420,540L540,420Z" fill="#f6cee4" stroke="#f6cee4" stroke-width="1.51"/><path d="M420,420L540,420L540,300Z" fill="#f8cde5" stroke="#f8cde5" stroke-width="1.51"/><path d="M420,300L420,420L540,300Z" fill="#f5c3df" stroke="#f5c3df" stroke-width="1.51"/><path d="M420,300L540,300L540,180Z" fill="#f3bddd" stroke="#f3bddd" stroke-width="1.51"/><path d="M420,180L420,300L540,180Z" fill="#f0b2d7" stroke="#f0b2d7" stroke-width="1.51"/><path d="M420,180L540,180L540,60Z" fill="#eda7ce" stroke="#eda7ce" stroke-width="1.51"/><path d="M420,60L420,180L540,60Z" fill="#e99ac6" stroke="#e99ac6" stroke-width="1.51"/><path d="M420,60L540,60L540,-60Z" fill="#e58dbc" stroke="#e58dbc" stroke-width="1.51"/><path d="M420,-60L420,60L540,-60Z" fill="#e280b3" stroke="#e280b3" stroke-width="1.51"/><path d="M420,-60L540,-60L540,-180Z" fill="#dc74a9" stroke="#dc74a9" stroke-width="1.51"/><path d="M420,-180L420,-60L540,-180Z" fill="#d36ca0" stroke="#d36ca0" stroke-width="1.51"/><path d="M300,1260L420,1260L420,1140Z" fill="#9b9274" stroke="#9b9274" stroke-width="1.51"/><path d="M300,1140L300,1260L420,1140Z" fill="#9f9473" stroke="#9f9473" stroke-width="1.51"/><path d="M300,1140L420,1140L420,1020Z" fill="#ada37e" stroke="#ada37e" stroke-width="1.51"/><path d="M300,1020L300,1140L420,1020Z" fill="#b1a47f" stroke="#b1a47f" stroke-width="1.51"/><path d="M300,1020L420,1020L420,900Z" fill="#bfb38d" stroke="#bfb38d" stroke-width="1.51"/><path d="M300,900L300,1020L420,900Z" fill="#c5b292" stroke="#c5b292" stroke-width="1.51"/><path d="M300,900L420,900L420,780Z" fill="#d4c0a7" stroke="#d4c0a7" stroke-width="1.51"/><path d="M300,780L300,900L420,780Z" fill="#d8beac" stroke="#d8beac" stroke-width="1.51"/><path d="M300,780L420,780L420,660Z" fill="#e4c7c2" stroke="#e4c7c2" stroke-width="1.51"/><path d="M300,660L300,780L420,660Z" fill="#e9c4c7" stroke="#e9c4c7" stroke-width="1.51"/><path d="M300,660L420,660L420,540Z" fill="#eecad5" stroke="#eecad5" stroke-width="1.51"/><path d="M300,540L300,660L420,540Z" fill="#efc5d6" stroke="#efc5d6" stroke-width="1.51"/><path d="M300,540L420,540L420,420Z" fill="#f3c7de" stroke="#f3c7de" stroke-width="1.51"/><path d="M300,420L300,540L420,420Z" fill="#f2bfd9" stroke="#f2bfd9" stroke-width="1.51"/><path d="M300,420L420,420L420,300Z" fill="#f4beda" stroke="#f4beda" stroke-width="1.51"/><path d="M300,300L300,420L420,300Z" fill="#f1b3d4" stroke="#f1b3d4" stroke-width="1.51"/><path d="M300,300L420,300L420,180Z" fill="#efaed2" stroke="#efaed2" stroke-width="1.51"/><path d="M300,180L300,300L420,180Z" fill="#eca3cc" stroke="#eca3cc" stroke-width="1.51"/><path d="M300,180L420,180L420,60Z" fill="#e998c4" stroke="#e998c4" stroke-width="1.51"/><path d="M300,60L300,180L420,60Z" fill="#e58bbb" stroke="#e58bbb" stroke-width="1.51"/><path d="M300,60L420,60L420,-60Z" fill="#e17eb2" stroke="#e17eb2" stroke-width="1.51"/><path d="M300,-60L300,60L420,-60Z" fill="#dc6fa8" stroke="#dc6fa8" stroke-width="1.51"/><path d="M300,-60L420,-60L420,-180Z" fill="#d6649f" stroke="#d6649f" stroke-width="1.51"/><path d="M300,-180L300,-60L420,-180Z" fill="#cd5c95" stroke="#cd5c95" stroke-width="1.51"/><path d="M180,1260L300,1260L300,1140Z" fill="#97846b" stroke="#97846b" stroke-width="1.51"/><path d="M180,1140L180,1260L300,1140Z" fill="#9b8669" stroke="#9b8669" stroke-width="1.51"/><path d="M180,1140L300,1140L300,1020Z" fill="#a99574" stroke="#a99574" stroke-width="1.51"/><path d="M180,1020L180,1140L300,1020Z" fill="#ae9574" stroke="#ae9574" stroke-width="1.51"/><path d="M180,1020L300,1020L300,900Z" fill="#bca483" stroke="#bca483" stroke-width="1.51"/><path d="M180,900L180,1020L300,900Z" fill="#c1a388" stroke="#c1a388" stroke-width="1.51"/><path d="M180,900L300,900L300,780Z" fill="#d0b19c" stroke="#d0b19c" stroke-width="1.51"/><path d="M180,780L180,900L300,780Z" fill="#d4aea1" stroke="#d4aea1" stroke-width="1.51"/><path d="M180,780L300,780L300,660Z" fill="#e0b8b7" stroke="#e0b8b7" stroke-width="1.51"/><path d="M180,660L180,780L300,660Z" fill="#e4b5bc" stroke="#e4b5bc" stroke-width="1.51"/><path d="M180,660L300,660L300,540Z" fill="#eabaca" stroke="#eabaca" stroke-width="1.51"/><path d="M180,540L180,660L300,540Z" fill="#ebb5cb" stroke="#ebb5cb" stroke-width="1.51"/><path d="M180,540L300,540L300,420Z" fill="#efb7d3" stroke="#efb7d3" stroke-width="1.51"/><path d="M180,420L180,540L300,420Z" fill="#edafce" stroke="#edafce" stroke-width="1.51"/><path d="M180,420L300,420L300,300Z" fill="#f0aed0" stroke="#f0aed0" stroke-width="1.51"/><path d="M180,300L180,420L300,300Z" fill="#eca3c9" stroke="#eca3c9" stroke-width="1.51"/><path d="M180,300L300,300L300,180Z" fill="#eb9ec8" stroke="#eb9ec8" stroke-width="1.51"/><path d="M180,180L180,300L300,180Z" fill="#e793c1" stroke="#e793c1" stroke-width="1.51"/><path d="M180,180L300,180L300,60Z" fill="#e488b9" stroke="#e488b9" stroke-width="1.51"/><path d="M180,60L180,180L300,60Z" fill="#df7ab0" stroke="#df7ab0" stroke-width="1.51"/><path d="M180,60L300,60L300,-60Z" fill="#db6da7" stroke="#db6da7" stroke-width="1.51"/><path d="M180,-60L180,60L300,-60Z" fill="#d65e9d" stroke="#d65e9d" stroke-width="1.51"/><path d="M180,-60L300,-60L300,-180Z" fill="#d05394" stroke="#d05394" stroke-width="1.51"/><path d="M180,-180L180,-60L300,-180Z" fill="#c7498b" stroke="#c7498b" stroke-width="1.51"/><path d="M60,1260L180,1260L180,1140Z" fill="#93765f" stroke="#93765f" stroke-width="1.51"/><path d="M60,1140L60,1260L180,1140Z" fill="#97765e" stroke="#97765e" stroke-width="1.51"/><path d="M60,1140L180,1140L180,1020Z" fill="#a58669" stroke="#a58669" stroke-width="1.51"/><path d="M60,1020L60,1140L180,1020Z" fill="#a98669" stroke="#a98669" stroke-width="1.51"/><path d="M60,1020L180,1020L180,900Z" fill="#b89578" stroke="#b89578" stroke-width="1.51"/><path d="M60,900L60,1020L180,900Z" fill="#bd937c" stroke="#bd937c" stroke-width="1.51"/><path d="M60,900L180,900L180,780Z" fill="#cca190" stroke="#cca190" stroke-width="1.51"/><path d="M60,780L60,900L180,780Z" fill="#d09e95" stroke="#d09e95" stroke-width="1.51"/><path d="M60,780L180,780L180,660Z" fill="#dca8ab" stroke="#dca8ab" stroke-width="1.51"/><path d="M60,660L60,780L180,660Z" fill="#e0a4af" stroke="#e0a4af" stroke-width="1.51"/><path d="M60,660L180,660L180,540Z" fill="#e6aabe" stroke="#e6aabe" stroke-width="1.51"/><path d="M60,540L60,660L180,540Z" fill="#e7a5be" stroke="#e7a5be" stroke-width="1.51"/><path d="M60,540L180,540L180,420Z" fill="#eaa7c6" stroke="#eaa7c6" stroke-width="1.51"/><path d="M60,420L60,540L180,420Z" fill="#e99ec1" stroke="#e99ec1" stroke-width="1.51"/><path d="M60,420L180,420L180,300Z" fill="#eb9ec3" stroke="#eb9ec3" stroke-width="1.51"/><path d="M60,300L60,420L180,300Z" fill="#e892bc" stroke="#e892bc" stroke-width="1.51"/><path d="M60,300L180,300L180,180Z" fill="#e68dbb" stroke="#e68dbb" stroke-width="1.51"/><path d="M60,180L60,300L180,180Z" fill="#e281b4" stroke="#e281b4" stroke-width="1.51"/><path d="M60,180L180,180L180,60Z" fill="#de76ad" stroke="#de76ad" stroke-width="1.51"/><path d="M60,60L60,180L180,60Z" fill="#d968a3" stroke="#d968a3" stroke-width="1.51"/><path d="M60,60L180,60L180,-60Z" fill="#d55b9b" stroke="#d55b9b" stroke-width="1.51"/><path d="M60,-60L60,60L180,-60Z" fill="#d04a91" stroke="#d04a91" stroke-width="1.51"/><path d="M60,-60L180,-60L180,-180Z" fill="#ca3e88" stroke="#ca3e88" stroke-width="1.51"/><path d="M60,-180L60,-60L180,-180Z" fill="#c1327f" stroke="#c1327f" stroke-width="1.51"/><path d="M-60,1260L60,1260L60,1140Z" fill="#8f6654" stroke="#8f6654" stroke-width="1.51"/><path d="M-60,1140L-60,1260L60,1140Z" fill="#916852" stroke="#916852" stroke-width="1.51"/><path d="M-60,1140L60,1140L60,1020Z" fill="#a0765d" stroke="#a0765d" stroke-width="1.51"/><path d="M-60,1020L-60,1140L60,1020Z" fill="#a3785d" stroke="#a3785d" stroke-width="1.51"/><path d="M-60,1020L60,1020L60,900Z" fill="#b3856c" stroke="#b3856c" stroke-width="1.51"/><path d="M-60,900L-60,1020L60,900Z" fill="#b78570" stroke="#b78570" stroke-width="1.51"/><path d="M-60,900L60,900L60,780Z" fill="#c79184" stroke="#c79184" stroke-width="1.51"/><path d="M-60,780L-60,900L60,780Z" fill="#ca8f88" stroke="#ca8f88" stroke-width="1.51"/><path d="M-60,780L60,780L60,660Z" fill="#d8979e" stroke="#d8979e" stroke-width="1.51"/><path d="M-60,660L-60,780L60,660Z" fill="#da95a3" stroke="#da95a3" stroke-width="1.51"/><path d="M-60,660L60,660L60,540Z" fill="#e199b1" stroke="#e199b1" stroke-width="1.51"/><path d="M-60,540L-60,660L60,540Z" fill="#e095b1" stroke="#e095b1" stroke-width="1.51"/><path d="M-60,540L60,540L60,420Z" fill="#e696b9" stroke="#e696b9" stroke-width="1.51"/><path d="M-60,420L-60,540L60,420Z" fill="#e38eb4" stroke="#e38eb4" stroke-width="1.51"/><path d="M-60,420L60,420L60,300Z" fill="#e68cb6" stroke="#e68cb6" stroke-width="1.51"/><path d="M-60,300L-60,420L60,300Z" fill="#e182af" stroke="#e182af" stroke-width="1.51"/><path d="M-60,300L60,300L60,180Z" fill="#e07bae" stroke="#e07bae" stroke-width="1.51"/><path d="M-60,180L-60,300L60,180Z" fill="#db71a7" stroke="#db71a7" stroke-width="1.51"/><path d="M-60,180L60,180L60,60Z" fill="#d864a0" stroke="#d864a0" stroke-width="1.51"/><path d="M-60,60L-60,180L60,60Z" fill="#d25797" stroke="#d25797" stroke-width="1.51"/><path d="M-60,60L60,60L60,-60Z" fill="#cf468f" stroke="#cf468f" stroke-width="1.51"/><path d="M-60,-60L-60,60L60,-60Z" fill="#c83585" stroke="#c83585" stroke-width="1.51"/><path d="M-60,-60L60,-60L60,-180Z" fill="#c3217c" stroke="#c3217c" stroke-width="1.51"/><path d="M-60,-180L-60,-60L60,-180Z" fill="#b81673" stroke="#b81673" stroke-width="1.51"/><path d="M-180,1260L-60,1260L-60,1140Z" fill="#835e4a" stroke="#835e4a" stroke-width="1.51"/><path d="M-180,1140L-180,1260L-60,1140Z" fill="#846248" stroke="#846248" stroke-width="1.51"/><path d="M-180,1140L-60,1140L-60,1020Z" fill="#946e53" stroke="#946e53" stroke-width="1.51"/><path d="M-180,1020L-180,1140L-60,1020Z" fill="#967153" stroke="#967153" stroke-width="1.51"/><path d="M-180,1020L-60,1020L-60,900Z" fill="#a77d61" stroke="#a77d61" stroke-width="1.51"/><path d="M-180,900L-180,1020L-60,900Z" fill="#a97e65" stroke="#a97e65" stroke-width="1.51"/><path d="M-180,900L-60,900L-60,780Z" fill="#bb8879" stroke="#bb8879" stroke-width="1.51"/><path d="M-180,780L-180,900L-60,780Z" fill="#bc887d" stroke="#bc887d" stroke-width="1.51"/><path d="M-180,780L-60,780L-60,660Z" fill="#cb8e93" stroke="#cb8e93" stroke-width="1.51"/><path d="M-180,660L-180,780L-60,660Z" fill="#cc8e98" stroke="#cc8e98" stroke-width="1.51"/><path d="M-180,660L-60,660L-60,540Z" fill="#d591a5" stroke="#d591a5" stroke-width="1.51"/><path d="M-180,540L-180,660L-60,540Z" fill="#d28ea6" stroke="#d28ea6" stroke-width="1.51"/><path d="M-180,540L-60,540L-60,420Z" fill="#d98dad" stroke="#d98dad" stroke-width="1.51"/><path d="M-180,420L-180,540L-60,420Z" fill="#d588a9" stroke="#d588a9" stroke-width="1.51"/><path d="M-180,420L-60,420L-60,300Z" fill="#da84aa" stroke="#da84aa" stroke-width="1.51"/><path d="M-180,300L-180,420L-60,300Z" fill="#d37ca4" stroke="#d37ca4" stroke-width="1.51"/><path d="M-180,300L-60,300L-60,180Z" fill="#d473a3" stroke="#d473a3" stroke-width="1.51"/><path d="M-180,180L-180,300L-60,180Z" fill="#cd6b9c" stroke="#cd6b9c" stroke-width="1.51"/><path d="M-180,180L-60,180L-60,60Z" fill="#cc5c95" stroke="#cc5c95" stroke-width="1.51"/><path d="M-180,60L-180,180L-60,60Z" fill="#c4518c" stroke="#c4518c" stroke-width="1.51"/><path d="M-180,60L-60,60L-60,-60Z" fill="#c23e84" stroke="#c23e84" stroke-width="1.51"/><path d="M-180,-60L-180,60L-60,-60Z" fill="#ba307a" stroke="#ba307a" stroke-width="1.51"/><path d="M-180,-60L-60,-60L-60,-180Z" fill="#b61571" stroke="#b61571" stroke-width="1.51"/><path d="M-180,-180L-180,-60L-60,-180Z" fill="#ab0f68" stroke="#ab0f68" stroke-width="1.51"/></svg>