<svg xmlns="http://www.w3.org/2000/svg" width="1920" height="1080"><path d="M2040,1380L2280,1380L2280,1140Z" fill="#cbe7a7" stroke="#cbe7a7" stroke-width="1.51"/><path d="M2040,1140L2040,1380L2280,1140Z" fill="#d9e58b" stroke="#d9e58b" stroke-width="1.51"/><path d="M2040,1140L2280,1140L2280,900Z" fill="#ded984" stroke="#ded984" stroke-width="1.51"/><path d="M2040,900L2040,1140L2280,900Z" fill="#e5c87c" stroke="#e5c87c" stroke-width="1.51"/><path d="M2040,900L2280,900L2280,660Z" fill="#e4a98e" stroke="#e4a98e" stroke-width="1.51"/><path d="M2040,660L2040,900L2280,660Z" fill="#e89886" stroke="#e89886" stroke-width="1.51"/><path d="M2040,660L2280,660L2280,420Z" fill="#e2b7a7" stroke="#e2b7a7" stroke-width="1.51"/><path d="M2040,420L2040,660L2280,420Z" fill="#e6c7a9" stroke="#e6c7a9" stroke-width="1.51"/><path d="M2040,420L2280,420L2280,180Z" fill="#d8e7cb" stroke="#d8e7cb" stroke-width="1.51"/><path d="M2040,180L2040,420L2280,180Z" fill="#d2e4bf" stroke="#d2e4bf" stroke-width="1.51"/><path d="M2040,180L2280,180L2280,-60Z" fill="#b2e1c7" stroke="#b2e1c7" stroke-width="1.51"/><path d="M2040,-60L2040,180L2280,-60Z" fill="#acdebc" stroke="#acdebc" stroke-width="1.51"/><path d="M2040,-60L2280,-60L2280,-300Z" fill="#b5cdb3" stroke="#b5cdb3" stroke-width="1.51"/><path d="M2040,-300L2040,-60L2280,-300Z" fill="#cabe9b" stroke="#cabe9b" stroke-width="1.51"/><path d="M1800,1380L2040,1380L2040,1140Z" fill="#dbe486" stroke="#dbe486" stroke-width="1.51"/><path d="M1800,1140L1800,1380L2040,1140Z" fill="#e5e168" stroke="#e5e168" stroke-width="1.51"/><path d="M1800,1140L2040,1140L2040,900Z" fill="#ead561" stroke="#ead561" stroke-width="1.51"/><path d="M1800,900L1800,1140L2040,900Z" fill="#efc45a" stroke="#efc45a" stroke-width="1.51"/><path d="M1800,900L2040,900L2040,660Z" fill="#eea56f" stroke="#eea56f" stroke-width="1.51"/><path d="M1800,660L1800,900L2040,660Z" fill="#f19368" stroke="#f19368" stroke-width="1.51"/><path d="M1800,660L2040,660L2040,420Z" fill="#efb388" stroke="#efb388" stroke-width="1.51"/><path d="M1800,420L1800,660L2040,420Z" fill="#f2c389" stroke="#f2c389" stroke-width="1.51"/><path d="M1800,420L2040,420L2040,180Z" fill="#e9e3ab" stroke="#e9e3ab" stroke-width="1.51"/><path d="M1800,180L1800,420L2040,180Z" fill="#e2e09f" stroke="#e2e09f" stroke-width="1.51"/><path d="M1800,180L2040,180L2040,-60Z" fill="#c6dda8" stroke="#c6dda8" stroke-width="1.51"/><path d="M1800,-60L1800,180L2040,-60Z" fill="#c0da9c" stroke="#c0da9c" stroke-width="1.51"/><path d="M1800,-60L2040,-60L2040,-300Z" fill="#c6c994" stroke="#c6c994" stroke-width="1.51"/><path d="M1800,-300L1800,-60L2040,-300Z" fill="#d7ba7c" stroke="#d7ba7c" stroke-width="1.51"/><path d="M1560,1380L1800,1380L1800,1140Z" fill="#e4d576" stroke="#e4d576" stroke-width="1.51"/><path d="M1560,1140L1560,1380L1800,1140Z" fill="#ebc868" stroke="#ebc868" stroke-width="1.51"/><path d="M1560,1140L1800,1140L1800,900Z" fill="#f1c651" stroke="#f1c651" stroke-width="1.51"/><path d="M1560,900L1560,1140L1800,900Z" fill="#f3ab5a" stroke="#f3ab5a" stroke-width="1.51"/><path d="M1560,900L1800,900L1800,660Z" fill="#f39460" stroke="#f39460" stroke-width="1.51"/><path d="M1560,660L1560,900L1800,660Z" fill="#f27666" stroke="#f27666" stroke-width="1.51"/><path d="M1560,660L1800,660L1800,420Z" fill="#f5a379" stroke="#f5a379" stroke-width="1.51"/><path d="M1560,420L1560,660L1800,420Z" fill="#f6a887" stroke="#f6a887" stroke-width="1.51"/><path d="M1560,420L1800,420L1800,180Z" fill="#f3d49c" stroke="#f3d49c" stroke-width="1.51"/><path d="M1560,180L1560,420L1800,180Z" fill="#e8c79c" stroke="#e8c79c" stroke-width="1.51"/><path d="M1560,180L1800,180L1800,-60Z" fill="#d1ce98" stroke="#d1ce98" stroke-width="1.51"/><path d="M1560,-60L1560,180L1800,-60Z" fill="#c8c299" stroke="#c8c299" stroke-width="1.51"/><path d="M1560,-60L1800,-60L1800,-300Z" fill="#d0ba85" stroke="#d0ba85" stroke-width="1.51"/><path d="M1560,-300L1560,-60L1800,-300Z" fill="#dca179" stroke="#dca179" stroke-width="1.51"/><path d="M1320,1380L1560,1380L1560,1140Z" fill="#e8b57e" stroke="#e8b57e" stroke-width="1.51"/><path d="M1320,1140L1320,1380L1560,1140Z" fill="#eda871" stroke="#eda871" stroke-width="1.51"/><path d="M1320,1140L1560,1140L1560,900Z" fill="#f3a55c" stroke="#f3a55c" stroke-width="1.51"/><path d="M1320,900L1320,1140L1560,900Z" fill="#f38863" stroke="#f38863" stroke-width="1.51"/><path d="M1320,900L1560,900L1560,660Z" fill="#f26f67" stroke="#f26f67" stroke-width="1.51"/><path d="M1320,660L1320,900L1560,660Z" fill="#ef4a6c" stroke="#ef4a6c" stroke-width="1.51"/><path d="M1320,660L1560,660L1560,420Z" fill="#f57f7f" stroke="#f57f7f" stroke-width="1.51"/><path d="M1320,420L1320,660L1560,420Z" fill="#f5868d" stroke="#f5868d" stroke-width="1.51"/><path d="M1320,420L1560,420L1560,180Z" fill="#f5b3a1" stroke="#f5b3a1" stroke-width="1.51"/><path d="M1320,180L1320,420L1560,180Z" fill="#eaa7a2" stroke="#eaa7a2" stroke-width="1.51"/><path d="M1320,180L1560,180L1560,-60Z" fill="#d5af9e" stroke="#d5af9e" stroke-width="1.51"/><path d="M1320,-60L1320,180L1560,-60Z" fill="#cba39f" stroke="#cba39f" stroke-width="1.51"/><path d="M1320,-60L1560,-60L1560,-300Z" fill="#d39a8a" stroke="#d39a8a" stroke-width="1.51"/><path d="M1320,-300L1320,-60L1560,-300Z" fill="#dc7f7f" stroke="#dc7f7f" stroke-width="1.51"/><path d="M1080,1380L1320,1380L1320,1140Z" fill="#e89685" stroke="#e89685" stroke-width="1.51"/><path d="M1080,1140L1080,1380L1320,1140Z" fill="#eea07d" stroke="#eea07d" stroke-width="1.51"/><path d="M1080,1140L1320,1140L1320,900Z" fill="#f38564" stroke="#f38564" stroke-width="1.51"/><path d="M1080,900L1080,1140L1320,900Z" fill="#f47f6f" stroke="#f47f6f" stroke-width="1.51"/><path d="M1080,900L1320,900L1320,660Z" fill="#ef446d" stroke="#ef446d" stroke-width="1.51"/><path d="M1080,660L1080,900L1320,660Z" fill="#ef3a77" stroke="#ef3a77" stroke-width="1.51"/><path d="M1080,660L1320,660L1320,420Z" fill="#f25985" stroke="#f25985" stroke-width="1.51"/><path d="M1080,420L1080,660L1320,420Z" fill="#f57c98" stroke="#f57c98" stroke-width="1.51"/><path d="M1080,420L1320,420L1320,180Z" fill="#f593a7" stroke="#f593a7" stroke-width="1.51"/><path d="M1080,180L1080,420L1320,180Z" fill="#ea9eae" stroke="#ea9eae" stroke-width="1.51"/><path d="M1080,180L1320,180L1320,-60Z" fill="#d691a3" stroke="#d691a3" stroke-width="1.51"/><path d="M1080,-60L1080,180L1320,-60Z" fill="#cb9baa" stroke="#cb9baa" stroke-width="1.51"/><path d="M1080,-60L1320,-60L1320,-300Z" fill="#d27b8f" stroke="#d27b8f" stroke-width="1.51"/><path d="M1080,-300L1080,-60L1320,-300Z" fill="#dc768a" stroke="#dc768a" stroke-width="1.51"/><path d="M840,1380L1080,1380L1080,1140Z" fill="#e8b99c" stroke="#e8b99c" stroke-width="1.51"/><path d="M840,1140L840,1380L1080,1140Z" fill="#edc294" stroke="#edc294" stroke-width="1.51"/><path d="M840,1140L1080,1140L1080,900Z" fill="#f5a87b" stroke="#f5a87b" stroke-width="1.51"/><path d="M840,900L840,1140L1080,900Z" fill="#f6a386" stroke="#f6a386" stroke-width="1.51"/><path d="M840,900L1080,900L1080,660Z" fill="#f47384" stroke="#f47384" stroke-width="1.51"/><path d="M840,660L840,900L1080,660Z" fill="#f46c8e" stroke="#f46c8e" stroke-width="1.51"/><path d="M840,660L1080,660L1080,420Z" fill="#f6839c" stroke="#f6839c" stroke-width="1.51"/><path d="M840,420L840,660L1080,420Z" fill="#f6a1b0" stroke="#f6a1b0" stroke-width="1.51"/><path d="M840,420L1080,420L1080,180Z" fill="#f4b7bf" stroke="#f4b7bf" stroke-width="1.51"/><path d="M840,180L840,420L1080,180Z" fill="#e7c1c6" stroke="#e7c1c6" stroke-width="1.51"/><path d="M840,180L1080,180L1080,-60Z" fill="#d3b3bb" stroke="#d3b3bb" stroke-width="1.51"/><path d="M840,-60L840,180L1080,-60Z" fill="#c5bcc3" stroke="#c5bcc3" stroke-width="1.51"/><path d="M840,-60L1080,-60L1080,-300Z" fill="#d19ea7" stroke="#d19ea7" stroke-width="1.51"/><path d="M840,-300L840,-60L1080,-300Z" fill="#dc9aa2" stroke="#dc9aa2" stroke-width="1.51"/><path d="M600,1380L840,1380L840,1140Z" fill="#e3d9b4" stroke="#e3d9b4" stroke-width="1.51"/><path d="M600,1140L600,1380L840,1140Z" fill="#e9e3ad" stroke="#e9e3ad" stroke-width="1.51"/><path d="M600,1140L840,1140L840,900Z" fill="#f4ca92" stroke="#f4ca92" stroke-width="1.51"/><path d="M600,900L600,1140L840,900Z" fill="#f5c59d" stroke="#f5c59d" stroke-width="1.51"/><path d="M600,900L840,900L840,660Z" fill="#f6989b" stroke="#f6989b" stroke-width="1.51"/><path d="M600,660L600,900L840,660Z" fill="#f693a5" stroke="#f693a5" stroke-width="1.51"/><path d="M600,660L840,660L840,420Z" fill="#f5a7b4" stroke="#f5a7b4" stroke-width="1.51"/><path d="M600,420L600,660L840,420Z" fill="#f4c4c9" stroke="#f4c4c9" stroke-width="1.51"/><path d="M600,420L840,420L840,180Z" fill="#efd9d8" stroke="#efd9d8" stroke-width="1.51"/><path d="M600,180L600,420L840,180Z" fill="#e0e2e0" stroke="#e0e2e0" stroke-width="1.51"/><path d="M600,180L840,180L840,-60Z" fill="#cbd3d4" stroke="#cbd3d4" stroke-width="1.51"/><path d="M600,-60L600,180L840,-60Z" fill="#badddc" stroke="#badddc" stroke-width="1.51"/><path d="M600,-60L840,-60L840,-300Z" fill="#ccbfc0" stroke="#ccbfc0" stroke-width="1.51"/><path d="M600,-300L600,-60L840,-300Z" fill="#d8bbba" stroke="#d8bbba" stroke-width="1.51"/><path d="M360,1380L600,1380L600,1140Z" fill="#d1e3bc" stroke="#d1e3bc" stroke-width="1.51"/><path d="M360,1140L360,1380L600,1140Z" fill="#d2e0ab" stroke="#d2e0ab" stroke-width="1.51"/><path d="M360,1140L600,1140L600,900Z" fill="#e5d49a" stroke="#e5d49a" stroke-width="1.51"/><path d="M360,900L360,1140L600,900Z" fill="#e0c39c" stroke="#e0c39c" stroke-width="1.51"/><path d="M360,900L600,900L600,660Z" fill="#e9a4a2" stroke="#e9a4a2" stroke-width="1.51"/><path d="M360,660L360,900L600,660Z" fill="#e292a4" stroke="#e292a4" stroke-width="1.51"/><path d="M360,660L600,660L600,420Z" fill="#e7b2bc" stroke="#e7b2bc" stroke-width="1.51"/><path d="M360,420L360,660L600,420Z" fill="#ddc2c7" stroke="#ddc2c7" stroke-width="1.51"/><path d="M360,420L600,420L600,180Z" fill="#dde3e1" stroke="#dde3e1" stroke-width="1.51"/><path d="M360,180L360,420L600,180Z" fill="#c7e0de" stroke="#c7e0de" stroke-width="1.51"/><path d="M360,180L600,180L600,-60Z" fill="#b6dddc" stroke="#b6dddc" stroke-width="1.51"/><path d="M360,-60L360,180L600,-60Z" fill="#9edadb" stroke="#9edadb" stroke-width="1.51"/><path d="M360,-60L600,-60L600,-300Z" fill="#b9c8c8" stroke="#b9c8c8" stroke-width="1.51"/><path d="M360,-300L360,-60L600,-300Z" fill="#c2b9b9" stroke="#c2b9b9" stroke-width="1.51"/><path d="M120,1380L360,1380L360,1140Z" fill="#b9dfba" stroke="#b9dfba" stroke-width="1.51"/><path d="M120,1140L120,1380L360,1140Z" fill="#badca9" stroke="#badca9" stroke-width="1.51"/><path d="M120,1140L360,1140L360,900Z" fill="#cfd098" stroke="#cfd098" stroke-width="1.51"/><path d="M120,900L120,1140L360,900Z" fill="#cac09a" stroke="#cac09a" stroke-width="1.51"/><path d="M120,900L360,900L360,660Z" fill="#d4a2a0" stroke="#d4a2a0" stroke-width="1.51"/><path d="M120,660L120,900L360,660Z" fill="#ce91a1" stroke="#ce91a1" stroke-width="1.51"/><path d="M120,660L360,660L360,420Z" fill="#d1b0b9" stroke="#d1b0b9" stroke-width="1.51"/><path d="M120,420L120,660L360,420Z" fill="#c7bfc5" stroke="#c7bfc5" stroke-width="1.51"/><path d="M120,420L360,420L360,180Z" fill="#c3dfde" stroke="#c3dfde" stroke-width="1.51"/><path d="M120,180L120,420L360,180Z" fill="#addcdb" stroke="#addcdb" stroke-width="1.51"/><path d="M120,180L360,180L360,-60Z" fill="#9ad9da" stroke="#9ad9da" stroke-width="1.51"/><path d="M120,-60L120,180L360,-60Z" fill="#7fd6d8" stroke="#7fd6d8" stroke-width="1.51"/><path d="M120,-60L360,-60L360,-300Z" fill="#a0c5c5" stroke="#a0c5c5" stroke-width="1.51"/><path d="M120,-300L120,-60L360,-300Z" fill="#abb6b6" stroke="#abb6b6" stroke-width="1.51"/><path d="M-120,1380L120,1380L120,1140Z" fill="#aed6b2" stroke="#aed6b2" stroke-width="1.51"/><path d="M-120,1140L-120,1380L120,1140Z" fill="#c2cc99" stroke="#c2cc99" stroke-width="1.51"/><path d="M-120,1140L120,1140L120,900Z" fill="#c4c790" stroke="#c4c790" stroke-width="1.51"/><path d="M-120,900L-120,1140L120,900Z" fill="#cfaf8a" stroke="#cfaf8a" stroke-width="1.51"/><path d="M-120,900L120,900L120,660Z" fill="#ca9998" stroke="#ca9998" stroke-width="1.51"/><path d="M-120,660L-120,900L120,660Z" fill="#d17e91" stroke="#d17e91" stroke-width="1.51"/><path d="M-120,660L120,660L120,420Z" fill="#c7a7b1" stroke="#c7a7b1" stroke-width="1.51"/><path d="M-120,420L-120,660L120,420Z" fill="#cdaeb4" stroke="#cdaeb4" stroke-width="1.51"/><path d="M-120,420L120,420L120,180Z" fill="#b9d6d5" stroke="#b9d6d5" stroke-width="1.51"/><path d="M-120,180L-120,420L120,180Z" fill="#b8cbca" stroke="#b8cbca" stroke-width="1.51"/><path d="M-120,180L120,180L120,-60Z" fill="#8fcfd1" stroke="#8fcfd1" stroke-width="1.51"/><path d="M-120,-60L-120,180L120,-60Z" fill="#90c5c7" stroke="#90c5c7" stroke-width="1.51"/><path d="M-120,-60L120,-60L120,-300Z" fill="#95bcbd" stroke="#95bcbd" stroke-width="1.51"/><path d="M-120,-300L-120,-60L120,-300Z" fill="#b3a5a6" stroke="#b3a5a6" stroke-width="1.51"/><path d="M-360,1380L-120,1380L-120,1140Z" fill="#cebb96" stroke="#cebb96" stroke-width="1.51"/><path d="M-360,1140L-360,1380L-120,1140Z" fill="#dcb07d" stroke="#dcb07d" stroke-width="1.51"/><path d="M-360,1140L-120,1140L-120,900Z" fill="#ddac74" stroke="#ddac74" stroke-width="1.51"/><path d="M-360,900L-360,1140L-120,900Z" fill="#e4926f" stroke="#e4926f" stroke-width="1.51"/><path d="M-360,900L-120,900L-120,660Z" fill="#dd7a7d" stroke="#dd7a7d" stroke-width="1.51"/><path d="M-360,660L-360,900L-120,660Z" fill="#e15a77" stroke="#e15a77" stroke-width="1.51"/><path d="M-360,660L-120,660L-120,420Z" fill="#de8895" stroke="#de8895" stroke-width="1.51"/><path d="M-360,420L-360,660L-120,420Z" fill="#e59099" stroke="#e59099" stroke-width="1.51"/><path d="M-360,420L-120,420L-120,180Z" fill="#dabab9" stroke="#dabab9" stroke-width="1.51"/><path d="M-360,180L-360,420L-120,180Z" fill="#d7afae" stroke="#d7afae" stroke-width="1.51"/><path d="M-360,180L-120,180L-120,-60Z" fill="#b7b5b5" stroke="#b7b5b5" stroke-width="1.51"/><path d="M-360,-60L-360,180L-120,-60Z" fill="#b6abab" stroke="#b6abab" stroke-width="1.51"/><path d="M-360,-60L-120,-60L-120,-300Z" fill="#b7a1a1" stroke="#b7a1a1" stroke-width="1.51"/><path d="M-360,-300L-360,-60L-120,-300Z" fill="#cb898b" stroke="#cb898b" stroke-width="1.51"/></svg>