<svg xmlns="http://www.w3.org/2000/svg" width="1920" height="1080"><path d="M1957,1395L2242,1395L2242,1110Z" fill="#990b14" stroke="#990b14" stroke-width="1.51"/><path d="M1957,1110L1957,1395L2242,1110Z" fill="#a91016" stroke="#a91016" stroke-width="1.51"/><path d="M1957,1110L2242,1110L2242,825Z" fill="#ae1318" stroke="#ae1318" stroke-width="1.51"/><path d="M1957,825L1957,1110L2242,825Z" fill="#be1d1c" stroke="#be1d1c" stroke-width="1.51"/><path d="M1957,825L2242,825L2242,540Z" fill="#c02b22" stroke="#c02b22" stroke-width="1.51"/><path d="M1957,540L1957,825L2242,540Z" fill="#cb3829" stroke="#cb3829" stroke-width="1.51"/><path d="M1957,540L2242,540L2242,255Z" fill="#c54734" stroke="#c54734" stroke-width="1.51"/><path d="M1957,255L1957,540L2242,255Z" fill="#cf533d" stroke="#cf533d" stroke-width="1.51"/><path d="M1957,255L2242,255L2242,-30Z" fill="#c8604b" stroke="#c8604b" stroke-width="1.51"/><path d="M1957,-30L1957,255L2242,-30Z" fill="#d26b55" stroke="#d26b55" stroke-width="1.51"/><path d="M1957,-30L2242,-30L2242,-315Z" fill="#cc7764" stroke="#cc7764" stroke-width="1.51"/><path d="M1957,-315L1957,-30L2242,-315Z" fill="#d7816e" stroke="#d7816e" stroke-width="1.51"/><path d="M1672,1395L1957,1395L1957,1110Z" fill="#ac1017" stroke="#ac1017" stroke-width="1.51"/><path d="M1672,1110L1672,1395L1957,1110Z" fill="#b91419" stroke="#b91419" stroke-width="1.51"/><path d="M1672,1110L1957,1110L1957,825Z" fill="#c2181b" stroke="#c2181b" stroke-width="1.51"/><path d="M1672,825L1672,1110L1957,825Z" fill="#ce211f" stroke="#ce211f" stroke-width="1.51"/><path d="M1672,825L1957,825L1957,540Z" fill="#d43026" stroke="#d43026" stroke-width="1.51"/><path d="M1672,540L1672,825L1957,540Z" fill="#dc3c2c" stroke="#dc3c2c" stroke-width="1.51"/><path d="M1672,540L1957,540L1957,255Z" fill="#da4d38" stroke="#da4d38" stroke-width="1.51"/><path d="M1672,255L1672,540L1957,255Z" fill="#e05840" stroke="#e05840" stroke-width="1.51"/><path d="M1672,255L1957,255L1957,-30Z" fill="#dd674f" stroke="#dd674f" stroke-width="1.51"/><path d="M1672,-30L1672,255L1957,-30Z" fill="#e37159" stroke="#e37159" stroke-width="1.51"/><path d="M1672,-30L1957,-30L1957,-315Z" fill="#e27e68" stroke="#e27e68" stroke-width="1.51"/><path d="M1672,-315L1672,-30L1957,-315Z" fill="#e98772" stroke="#e98772" stroke-width="1.51"/><path d="M1387,1395L1672,1395L1672,1110Z" fill="#bb191b" stroke="#bb191b" stroke-width="1.51"/><path d="M1387,1110L1387,1395L1672,1110Z" fill="#c8201e" stroke="#c8201e" stroke-width="1.51"/><path d="M1387,1110L1672,1110L1672,825Z" fill="#d1201f" stroke="#d1201f" stroke-width="1.51"/><path d="M1387,825L1387,1110L1672,825Z" fill="#dd2b24" stroke="#dd2b24" stroke-width="1.51"/><path d="M1387,825L1672,825L1672,540Z" fill="#e3372a" stroke="#e3372a" stroke-width="1.51"/><path d="M1387,540L1387,825L1672,540Z" fill="#eb4531" stroke="#eb4531" stroke-width="1.51"/><path d="M1387,540L1672,540L1672,255Z" fill="#e9543c" stroke="#e9543c" stroke-width="1.51"/><path d="M1387,255L1387,540L1672,255Z" fill="#ee6046" stroke="#ee6046" stroke-width="1.51"/><path d="M1387,255L1672,255L1672,-30Z" fill="#ec6e54" stroke="#ec6e54" stroke-width="1.51"/><path d="M1387,-30L1387,255L1672,-30Z" fill="#f17a5f" stroke="#f17a5f" stroke-width="1.51"/><path d="M1387,-30L1672,-30L1672,-315Z" fill="#f1866e" stroke="#f1866e" stroke-width="1.51"/><path d="M1387,-315L1387,-30L1672,-315Z" fill="#f79078" stroke="#f79078" stroke-width="1.51"/><path d="M1102,1395L1387,1395L1387,1110Z" fill="#c82821" stroke="#c82821" stroke-width="1.51"/><path d="M1102,1110L1102,1395L1387,1110Z" fill="#d23327" stroke="#d23327" stroke-width="1.51"/><path d="M1102,1110L1387,1110L1387,825Z" fill="#df2f26" stroke="#df2f26" stroke-width="1.51"/><path d="M1102,825L1102,1110L1387,825Z" fill="#e83d2d" stroke="#e83d2d" stroke-width="1.51"/><path d="M1102,825L1387,825L1387,540Z" fill="#f14430" stroke="#f14430" stroke-width="1.51"/><path d="M1102,540L1102,825L1387,540Z" fill="#f5543a" stroke="#f5543a" stroke-width="1.51"/><path d="M1102,540L1387,540L1387,255Z" fill="#f75f43" stroke="#f75f43" stroke-width="1.51"/><path d="M1102,255L1102,540L1387,255Z" fill="#f86d4f" stroke="#f86d4f" stroke-width="1.51"/><path d="M1102,255L1387,255L1387,-30Z" fill="#f9795b" stroke="#f9795b" stroke-width="1.51"/><path d="M1102,-30L1102,255L1387,-30Z" fill="#fb8668" stroke="#fb8668" stroke-width="1.51"/><path d="M1102,-30L1387,-30L1387,-315Z" fill="#fe9075" stroke="#fe9075" stroke-width="1.51"/><path d="M1102,-315L1102,-30L1387,-315Z" fill="#ff9c82" stroke="#ff9c82" stroke-width="1.51"/><path d="M817,1395L1102,1395L1102,1110Z" fill="#ce3e2d" stroke="#ce3e2d" stroke-width="1.51"/><path d="M817,1110L817,1395L1102,1110Z" fill="#d74733" stroke="#d74733" stroke-width="1.51"/><path d="M817,1110L1102,1110L1102,825Z" fill="#e44532" stroke="#e44532" stroke-width="1.51"/><path d="M817,825L817,1110L1102,825Z" fill="#ec5139" stroke="#ec5139" stroke-width="1.51"/><path d="M817,825L1102,825L1102,540Z" fill="#f6573c" stroke="#f6573c" stroke-width="1.51"/><path d="M817,540L817,825L1102,540Z" fill="#f96546" stroke="#f96546" stroke-width="1.51"/><path d="M817,540L1102,540L1102,255Z" fill="#fb704f" stroke="#fb704f" stroke-width="1.51"/><path d="M817,255L817,540L1102,255Z" fill="#fc7d5b" stroke="#fc7d5b" stroke-width="1.51"/><path d="M817,255L1102,255L1102,-30Z" fill="#fd8868" stroke="#fd8868" stroke-width="1.51"/><path d="M817,-30L817,255L1102,-30Z" fill="#fe9575" stroke="#fe9575" stroke-width="1.51"/><path d="M817,-30L1102,-30L1102,-315Z" fill="#ff9f82" stroke="#ff9f82" stroke-width="1.51"/><path d="M817,-315L817,-30L1102,-315Z" fill="#ffaa8f" stroke="#ffaa8f" stroke-width="1.51"/><path d="M532,1395L817,1395L817,1110Z" fill="#cf503b" stroke="#cf503b" stroke-width="1.51"/><path d="M532,1110L532,1395L817,1110Z" fill="#d85942" stroke="#d85942" stroke-width="1.51"/><path d="M532,1110L817,1110L817,825Z" fill="#e65841" stroke="#e65841" stroke-width="1.51"/><path d="M532,825L532,1110L817,825Z" fill="#ee6349" stroke="#ee6349" stroke-width="1.51"/><path d="M532,825L817,825L817,540Z" fill="#f8694c" stroke="#f8694c" stroke-width="1.51"/><path d="M532,540L532,825L817,540Z" fill="#fa7656" stroke="#fa7656" stroke-width="1.51"/><path d="M532,540L817,540L817,255Z" fill="#fc805f" stroke="#fc805f" stroke-width="1.51"/><path d="M532,255L532,540L817,255Z" fill="#fc8d6b" stroke="#fc8d6b" stroke-width="1.51"/><path d="M532,255L817,255L817,-30Z" fill="#fd9777" stroke="#fd9777" stroke-width="1.51"/><path d="M532,-30L532,255L817,-30Z" fill="#fda485" stroke="#fda485" stroke-width="1.51"/><path d="M532,-30L817,-30L817,-315Z" fill="#ffad92" stroke="#ffad92" stroke-width="1.51"/><path d="M532,-315L532,-30L817,-315Z" fill="#ffb9a0" stroke="#ffb9a0" stroke-width="1.51"/><path d="M247,1395L532,1395L532,1110Z" fill="#d2624c" stroke="#d2624c" stroke-width="1.51"/><path d="M247,1110L247,1395L532,1110Z" fill="#db6b53" stroke="#db6b53" stroke-width="1.51"/><path d="M247,1110L532,1110L532,825Z" fill="#e96a51" stroke="#e96a51" stroke-width="1.51"/><path d="M247,825L247,1110L532,825Z" fill="#f0755a" stroke="#f0755a" stroke-width="1.51"/><path d="M247,825L532,825L532,540Z" fill="#fa7a5d" stroke="#fa7a5d" stroke-width="1.51"/><path d="M247,540L247,825L532,540Z" fill="#fd8768" stroke="#fd8768" stroke-width="1.51"/><path d="M247,540L532,540L532,255Z" fill="#fd9070" stroke="#fd9070" stroke-width="1.51"/><path d="M247,255L247,540L532,255Z" fill="#fd9d7e" stroke="#fd9d7e" stroke-width="1.51"/><path d="M247,255L532,255L532,-30Z" fill="#fda789" stroke="#fda789" stroke-width="1.51"/><path d="M247,-30L247,255L532,-30Z" fill="#fdb498" stroke="#fdb498" stroke-width="1.51"/><path d="M247,-30L532,-30L532,-315Z" fill="#ffbda4" stroke="#ffbda4" stroke-width="1.51"/><path d="M247,-315L247,-30L532,-315Z" fill="#ffc9b3" stroke="#ffc9b3" stroke-width="1.51"/><path d="M-38,1395L247,1395L247,1110Z" fill="#d4735d" stroke="#d4735d" stroke-width="1.51"/><path d="M-38,1110L-38,1395L247,1110Z" fill="#de7b65" stroke="#de7b65" stroke-width="1.51"/><path d="M-38,1110L247,1110L247,825Z" fill="#eb7b63" stroke="#eb7b63" stroke-width="1.51"/><path d="M-38,825L-38,1110L247,825Z" fill="#f4856d" stroke="#f4856d" stroke-width="1.51"/><path d="M-38,825L247,825L247,540Z" fill="#fd8b6f" stroke="#fd8b6f" stroke-width="1.51"/><path d="M-38,540L-38,825L247,540Z" fill="#ff987b" stroke="#ff987b" stroke-width="1.51"/><path d="M-38,540L247,540L247,255Z" fill="#ffa083" stroke="#ffa083" stroke-width="1.51"/><path d="M-38,255L-38,540L247,255Z" fill="#ffad91" stroke="#ffad91" stroke-width="1.51"/><path d="M-38,255L247,255L247,-30Z" fill="#fdb79c" stroke="#fdb79c" stroke-width="1.51"/><path d="M-38,-30L-38,255L247,-30Z" fill="#fdc3ab" stroke="#fdc3ab" stroke-width="1.51"/><path d="M-38,-30L247,-30L247,-315Z" fill="#feccb7" stroke="#feccb7" stroke-width="1.51"/><path d="M-38,-315L-38,-30L247,-315Z" fill="#fed8c7" stroke="#fed8c7" stroke-width="1.51"/><path d="M-323,1395L-38,1395L-38,1110Z" fill="#d8816e" stroke="#d8816e" stroke-width="1.51"/><path d="M-323,1110L-323,1395L-38,1110Z" fill="#e28774" stroke="#e28774" stroke-width="1.51"/><path d="M-323,1110L-38,1110L-38,825Z" fill="#ef8a74" stroke="#ef8a74" stroke-width="1.51"/><path d="M-323,825L-323,1110L-38,825Z" fill="#f8927c" stroke="#f8927c" stroke-width="1.51"/><path d="M-323,825L-38,825L-38,540Z" fill="#ff9a81" stroke="#ff9a81" stroke-width="1.51"/><path d="M-323,540L-323,825L-38,540Z" fill="#ffa48a" stroke="#ffa48a" stroke-width="1.51"/><path d="M-323,540L-38,540L-38,255Z" fill="#ffaf95" stroke="#ffaf95" stroke-width="1.51"/><path d="M-323,255L-323,540L-38,255Z" fill="#ffb9a1" stroke="#ffb9a1" stroke-width="1.51"/><path d="M-323,255L-38,255L-38,-30Z" fill="#ffc5ae" stroke="#ffc5ae" stroke-width="1.51"/><path d="M-323,-30L-323,255L-38,-30Z" fill="#ffcfbc" stroke="#ffcfbc" stroke-width="1.51"/><path d="M-323,-30L-38,-30L-38,-315Z" fill="#fedaca" stroke="#fedaca" stroke-width="1.51"/><path d="M-323,-315L-323,-30L-38,-315Z" fill="#ffe4d7" stroke="#ffe4d7" stroke-width="1.51"/></svg>