<svg xmlns="http://www.w3.org/2000/svg" width="1920" height="1080"><path d="M2040,1380L2280,1380L2280,1140Z" fill="#916ae1" stroke="#916ae1" stroke-width="1.51"/><path d="M2040,1140L2040,1380L2280,1140Z" fill="#797ce2" stroke="#797ce2" stroke-width="1.51"/><path d="M2040,1140L2280,1140L2280,900Z" fill="#8279d2" stroke="#8279d2" stroke-width="1.51"/><path d="M2040,900L2040,1140L2280,900Z" fill="#7c7fc8" stroke="#7c7fc8" stroke-width="1.51"/><path d="M2040,900L2280,900L2280,660Z" fill="#8f7eba" stroke="#8f7eba" stroke-width="1.51"/><path d="M2040,660L2040,900L2280,660Z" fill="#9192bd" stroke="#9192bd" stroke-width="1.51"/><path d="M2040,660L2280,660L2280,420Z" fill="#b0a6c2" stroke="#b0a6c2" stroke-width="1.51"/><path d="M2040,420L2040,660L2280,420Z" fill="#afb3c3" stroke="#afb3c3" stroke-width="1.51"/><path d="M2040,420L2280,420L2280,180Z" fill="#c6aec4" stroke="#c6aec4" stroke-width="1.51"/><path d="M2040,180L2040,420L2280,180Z" fill="#c4b5c4" stroke="#c4b5c4" stroke-width="1.51"/><path d="M2040,180L2280,180L2280,-60Z" fill="#d48fbe" stroke="#d48fbe" stroke-width="1.51"/><path d="M2040,-60L2040,180L2280,-60Z" fill="#ce7fb9" stroke="#ce7fb9" stroke-width="1.51"/><path d="M2040,-60L2280,-60L2280,-300Z" fill="#d05db8" stroke="#d05db8" stroke-width="1.51"/><path d="M2040,-300L2040,-60L2280,-300Z" fill="#ba7dc2" stroke="#ba7dc2" stroke-width="1.51"/><path d="M1800,1380L2040,1380L2040,1140Z" fill="#727fe2" stroke="#727fe2" stroke-width="1.51"/><path d="M1800,1140L1800,1380L2040,1140Z" fill="#5a8cdf" stroke="#5a8cdf" stroke-width="1.51"/><path d="M1800,1140L2040,1140L2040,900Z" fill="#5e8cd2" stroke="#5e8cd2" stroke-width="1.51"/><path d="M1800,900L1800,1140L2040,900Z" fill="#5f8ec5" stroke="#5f8ec5" stroke-width="1.51"/><path d="M1800,900L2040,900L2040,660Z" fill="#7191ba" stroke="#7191ba" stroke-width="1.51"/><path d="M1800,660L1800,900L2040,660Z" fill="#78a1b9" stroke="#78a1b9" stroke-width="1.51"/><path d="M1800,660L2040,660L2040,420Z" fill="#92b8c1" stroke="#92b8c1" stroke-width="1.51"/><path d="M1800,420L1800,660L2040,420Z" fill="#96c2bf" stroke="#96c2bf" stroke-width="1.51"/><path d="M1800,420L2040,420L2040,180Z" fill="#aac1c3" stroke="#aac1c3" stroke-width="1.51"/><path d="M1800,180L1800,420L2040,180Z" fill="#acc5c0" stroke="#acc5c0" stroke-width="1.51"/><path d="M1800,180L2040,180L2040,-60Z" fill="#bda4be" stroke="#bda4be" stroke-width="1.51"/><path d="M1800,-60L1800,180L2040,-60Z" fill="#bc92b6" stroke="#bc92b6" stroke-width="1.51"/><path d="M1800,-60L2040,-60L2040,-300Z" fill="#bc78b8" stroke="#bc78b8" stroke-width="1.51"/><path d="M1800,-300L1800,-60L2040,-300Z" fill="#a78fbf" stroke="#a78fbf" stroke-width="1.51"/><path d="M1560,1380L1800,1380L1800,1140Z" fill="#7581d1" stroke="#7581d1" stroke-width="1.51"/><path d="M1560,1140L1560,1380L1800,1140Z" fill="#678aca" stroke="#678aca" stroke-width="1.51"/><path d="M1560,1140L1800,1140L1800,900Z" fill="#618ec1" stroke="#618ec1" stroke-width="1.51"/><path d="M1560,900L1560,1140L1800,900Z" fill="#698db0" stroke="#698db0" stroke-width="1.51"/><path d="M1560,900L1800,900L1800,660Z" fill="#7193aa" stroke="#7193aa" stroke-width="1.51"/><path d="M1560,660L1560,900L1800,660Z" fill="#7d9fa5" stroke="#7d9fa5" stroke-width="1.51"/><path d="M1560,660L1800,660L1800,420Z" fill="#8fbab0" stroke="#8fbab0" stroke-width="1.51"/><path d="M1560,420L1560,660L1800,420Z" fill="#98c1aa" stroke="#98c1aa" stroke-width="1.51"/><path d="M1560,420L1800,420L1800,180Z" fill="#a7c3b2" stroke="#a7c3b2" stroke-width="1.51"/><path d="M1560,180L1560,420L1800,180Z" fill="#aec4ab" stroke="#aec4ab" stroke-width="1.51"/><path d="M1560,180L1800,180L1800,-60Z" fill="#baa7ac" stroke="#baa7ac" stroke-width="1.51"/><path d="M1560,-60L1560,180L1800,-60Z" fill="#bc91a1" stroke="#bc91a1" stroke-width="1.51"/><path d="M1560,-60L1800,-60L1800,-300Z" fill="#ba7ba7" stroke="#ba7ba7" stroke-width="1.51"/><path d="M1560,-300L1560,-60L1800,-300Z" fill="#a98eab" stroke="#a98eab" stroke-width="1.51"/><path d="M1320,1380L1560,1380L1560,1140Z" fill="#7d80bc" stroke="#7d80bc" stroke-width="1.51"/><path d="M1320,1140L1320,1380L1560,1140Z" fill="#728dba" stroke="#728dba" stroke-width="1.51"/><path d="M1320,1140L1560,1140L1560,900Z" fill="#6a8cad" stroke="#6a8cad" stroke-width="1.51"/><path d="M1320,900L1320,1140L1560,900Z" fill="#7190a1" stroke="#7190a1" stroke-width="1.51"/><path d="M1320,900L1560,900L1560,660Z" fill="#769196" stroke="#769196" stroke-width="1.51"/><path d="M1320,660L1320,900L1560,660Z" fill="#82a395" stroke="#82a395" stroke-width="1.51"/><path d="M1320,660L1560,660L1560,420Z" fill="#91b99b" stroke="#91b99b" stroke-width="1.51"/><path d="M1320,420L1320,660L1560,420Z" fill="#9cc599" stroke="#9cc599" stroke-width="1.51"/><path d="M1320,420L1560,420L1560,180Z" fill="#a8c29d" stroke="#a8c29d" stroke-width="1.51"/><path d="M1320,180L1320,420L1560,180Z" fill="#b1c899" stroke="#b1c899" stroke-width="1.51"/><path d="M1320,180L1560,180L1560,-60Z" fill="#baa598" stroke="#baa598" stroke-width="1.51"/><path d="M1320,-60L1320,180L1560,-60Z" fill="#c09591" stroke="#c09591" stroke-width="1.51"/><path d="M1320,-60L1560,-60L1560,-300Z" fill="#ba7b93" stroke="#ba7b93" stroke-width="1.51"/><path d="M1320,-300L1320,-60L1560,-300Z" fill="#ae929a" stroke="#ae929a" stroke-width="1.51"/><path d="M1080,1380L1320,1380L1320,1140Z" fill="#9196bd" stroke="#9196bd" stroke-width="1.51"/><path d="M1080,1140L1080,1380L1320,1140Z" fill="#89a7bf" stroke="#89a7bf" stroke-width="1.51"/><path d="M1080,1140L1320,1140L1320,900Z" fill="#7ca2ae" stroke="#7ca2ae" stroke-width="1.51"/><path d="M1080,900L1080,1140L1320,900Z" fill="#85aaa5" stroke="#85aaa5" stroke-width="1.51"/><path d="M1080,900L1320,900L1320,660Z" fill="#86a795" stroke="#86a795" stroke-width="1.51"/><path d="M1080,660L1080,900L1320,660Z" fill="#95bd98" stroke="#95bd98" stroke-width="1.51"/><path d="M1080,660L1320,660L1320,420Z" fill="#a0d09a" stroke="#a0d09a" stroke-width="1.51"/><path d="M1080,420L1080,660L1320,420Z" fill="#aee09b" stroke="#aee09b" stroke-width="1.51"/><path d="M1080,420L1320,420L1320,180Z" fill="#b7d99b" stroke="#b7d99b" stroke-width="1.51"/><path d="M1080,180L1080,420L1320,180Z" fill="#c3e39c" stroke="#c3e39c" stroke-width="1.51"/><path d="M1080,180L1320,180L1320,-60Z" fill="#cabc97" stroke="#cabc97" stroke-width="1.51"/><path d="M1080,-60L1080,180L1320,-60Z" fill="#d3b194" stroke="#d3b194" stroke-width="1.51"/><path d="M1080,-60L1320,-60L1320,-300Z" fill="#cb9293" stroke="#cb9293" stroke-width="1.51"/><path d="M1080,-300L1080,-60L1320,-300Z" fill="#c1ad9e" stroke="#c1ad9e" stroke-width="1.51"/><path d="M840,1380L1080,1380L1080,1140Z" fill="#a6b0c2" stroke="#a6b0c2" stroke-width="1.51"/><path d="M840,1140L840,1380L1080,1140Z" fill="#9dbec3" stroke="#9dbec3" stroke-width="1.51"/><path d="M840,1140L1080,1140L1080,900Z" fill="#90bdb2" stroke="#90bdb2" stroke-width="1.51"/><path d="M840,900L840,1140L1080,900Z" fill="#97c1a8" stroke="#97c1a8" stroke-width="1.51"/><path d="M840,900L1080,900L1080,660Z" fill="#98c298" stroke="#98c298" stroke-width="1.51"/><path d="M840,660L840,900L1080,660Z" fill="#a6d49b" stroke="#a6d49b" stroke-width="1.51"/><path d="M840,660L1080,660L1080,420Z" fill="#b2eb9c" stroke="#b2eb9c" stroke-width="1.51"/><path d="M840,420L840,660L1080,420Z" fill="#bff89d" stroke="#bff89d" stroke-width="1.51"/><path d="M840,420L1080,420L1080,180Z" fill="#c8f59d" stroke="#c8f59d" stroke-width="1.51"/><path d="M840,180L840,420L1080,180Z" fill="#d5fb9e" stroke="#d5fb9e" stroke-width="1.51"/><path d="M840,180L1080,180L1080,-60Z" fill="#ddd899" stroke="#ddd899" stroke-width="1.51"/><path d="M840,-60L840,180L1080,-60Z" fill="#e5c897" stroke="#e5c897" stroke-width="1.51"/><path d="M840,-60L1080,-60L1080,-300Z" fill="#dfad96" stroke="#dfad96" stroke-width="1.51"/><path d="M840,-300L840,-60L1080,-300Z" fill="#d3c4a1" stroke="#d3c4a1" stroke-width="1.51"/><path d="M600,1380L840,1380L840,1140Z" fill="#b5b5c3" stroke="#b5b5c3" stroke-width="1.51"/><path d="M600,1140L600,1380L840,1140Z" fill="#abbfc3" stroke="#abbfc3" stroke-width="1.51"/><path d="M600,1140L840,1140L840,900Z" fill="#a0c2b3" stroke="#a0c2b3" stroke-width="1.51"/><path d="M600,900L600,1140L840,900Z" fill="#a6c3a9" stroke="#a6c3a9" stroke-width="1.51"/><path d="M600,900L840,900L840,660Z" fill="#a7c899" stroke="#a7c899" stroke-width="1.51"/><path d="M600,660L600,900L840,660Z" fill="#b4d69b" stroke="#b4d69b" stroke-width="1.51"/><path d="M600,660L840,660L840,420Z" fill="#c1f19d" stroke="#c1f19d" stroke-width="1.51"/><path d="M600,420L600,660L840,420Z" fill="#cdfa9e" stroke="#cdfa9e" stroke-width="1.51"/><path d="M600,420L840,420L840,180Z" fill="#d7fb9d" stroke="#d7fb9d" stroke-width="1.51"/><path d="M600,180L600,420L840,180Z" fill="#e2fd9e" stroke="#e2fd9e" stroke-width="1.51"/><path d="M600,180L840,180L840,-60Z" fill="#eade9a" stroke="#eade9a" stroke-width="1.51"/><path d="M600,-60L600,180L840,-60Z" fill="#f1c997" stroke="#f1c997" stroke-width="1.51"/><path d="M600,-60L840,-60L840,-300Z" fill="#ecb297" stroke="#ecb297" stroke-width="1.51"/><path d="M600,-300L600,-60L840,-300Z" fill="#e0c5a2" stroke="#e0c5a2" stroke-width="1.51"/><path d="M360,1380L600,1380L600,1140Z" fill="#c3b7c4" stroke="#c3b7c4" stroke-width="1.51"/><path d="M360,1140L360,1380L600,1140Z" fill="#babac2" stroke="#babac2" stroke-width="1.51"/><path d="M360,1140L600,1140L600,900Z" fill="#afc4b3" stroke="#afc4b3" stroke-width="1.51"/><path d="M360,900L360,1140L600,900Z" fill="#b4bda8" stroke="#b4bda8" stroke-width="1.51"/><path d="M360,900L600,900L600,660Z" fill="#b5ca9a" stroke="#b5ca9a" stroke-width="1.51"/><path d="M360,660L360,900L600,660Z" fill="#c2d19a" stroke="#c2d19a" stroke-width="1.51"/><path d="M360,660L600,660L600,420Z" fill="#cff49d" stroke="#cff49d" stroke-width="1.51"/><path d="M360,420L360,660L600,420Z" fill="#dcf59c" stroke="#dcf59c" stroke-width="1.51"/><path d="M360,420L600,420L600,180Z" fill="#e5fd9e" stroke="#e5fd9e" stroke-width="1.51"/><path d="M360,180L360,420L600,180Z" fill="#f0f89d" stroke="#f0f89d" stroke-width="1.51"/><path d="M360,180L600,180L600,-60Z" fill="#f7df9a" stroke="#f7df9a" stroke-width="1.51"/><path d="M360,-60L360,180L600,-60Z" fill="#fdc396" stroke="#fdc396" stroke-width="1.51"/><path d="M360,-60L600,-60L600,-300Z" fill="#f8b398" stroke="#f8b398" stroke-width="1.51"/><path d="M360,-300L360,-60L600,-300Z" fill="#ebbfa1" stroke="#ebbfa1" stroke-width="1.51"/><path d="M120,1380L360,1380L360,1140Z" fill="#cb94bd" stroke="#cb94bd" stroke-width="1.51"/><path d="M120,1140L120,1380L360,1140Z" fill="#c190ba" stroke="#c190ba" stroke-width="1.51"/><path d="M120,1140L360,1140L360,900Z" fill="#baa3ad" stroke="#baa3ad" stroke-width="1.51"/><path d="M120,900L120,1140L360,900Z" fill="#bc95a0" stroke="#bc95a0" stroke-width="1.51"/><path d="M120,900L360,900L360,660Z" fill="#c0a994" stroke="#c0a994" stroke-width="1.51"/><path d="M120,660L120,900L360,660Z" fill="#cba994" stroke="#cba994" stroke-width="1.51"/><path d="M120,660L360,660L360,420Z" fill="#dcd298" stroke="#dcd298" stroke-width="1.51"/><path d="M120,420L120,660L360,420Z" fill="#e6cc97" stroke="#e6cc97" stroke-width="1.51"/><path d="M120,420L360,420L360,180Z" fill="#f1db9a" stroke="#f1db9a" stroke-width="1.51"/><path d="M120,180L120,420L360,180Z" fill="#f8ce98" stroke="#f8ce98" stroke-width="1.51"/><path d="M120,180L360,180L360,-60Z" fill="#ffbc96" stroke="#ffbc96" stroke-width="1.51"/><path d="M120,-60L120,180L360,-60Z" fill="#ff9691" stroke="#ff9691" stroke-width="1.51"/><path d="M120,-60L360,-60L360,-300Z" fill="#fc8d92" stroke="#fc8d92" stroke-width="1.51"/><path d="M120,-300L120,-60L360,-300Z" fill="#ef939a" stroke="#ef939a" stroke-width="1.51"/><path d="M-120,1380L120,1380L120,1140Z" fill="#cd65b4" stroke="#cd65b4" stroke-width="1.51"/><path d="M-120,1140L-120,1380L120,1140Z" fill="#c072b6" stroke="#c072b6" stroke-width="1.51"/><path d="M-120,1140L120,1140L120,900Z" fill="#bf78a5" stroke="#bf78a5" stroke-width="1.51"/><path d="M-120,900L-120,1140L120,900Z" fill="#bc789d" stroke="#bc789d" stroke-width="1.51"/><path d="M-120,900L120,900L120,660Z" fill="#c57f8d" stroke="#c57f8d" stroke-width="1.51"/><path d="M-120,660L-120,900L120,660Z" fill="#cb8c91" stroke="#cb8c91" stroke-width="1.51"/><path d="M-120,660L120,660L120,420Z" fill="#e3a892" stroke="#e3a892" stroke-width="1.51"/><path d="M-120,420L-120,660L120,420Z" fill="#e7af95" stroke="#e7af95" stroke-width="1.51"/><path d="M-120,420L120,420L120,180Z" fill="#f6b094" stroke="#f6b094" stroke-width="1.51"/><path d="M-120,180L-120,420L120,180Z" fill="#f9b096" stroke="#f9b096" stroke-width="1.51"/><path d="M-120,180L120,180L120,-60Z" fill="#ff8e8f" stroke="#ff8e8f" stroke-width="1.51"/><path d="M-120,-60L-120,180L120,-60Z" fill="#fd748e" stroke="#fd748e" stroke-width="1.51"/><path d="M-120,-60L120,-60L120,-300Z" fill="#fb578b" stroke="#fb578b" stroke-width="1.51"/><path d="M-120,-300L-120,-60L120,-300Z" fill="#ed7297" stroke="#ed7297" stroke-width="1.51"/><path d="M-360,1380L-120,1380L-120,1140Z" fill="#b682c4" stroke="#b682c4" stroke-width="1.51"/><path d="M-360,1140L-360,1380L-120,1140Z" fill="#9c99cb" stroke="#9c99cb" stroke-width="1.51"/><path d="M-360,1140L-120,1140L-120,900Z" fill="#a691b5" stroke="#a691b5" stroke-width="1.51"/><path d="M-360,900L-360,1140L-120,900Z" fill="#9a9cb2" stroke="#9a9cb2" stroke-width="1.51"/><path d="M-360,900L-120,900L-120,660Z" fill="#ad979c" stroke="#ad979c" stroke-width="1.51"/><path d="M-360,660L-360,900L-120,660Z" fill="#aab0a5" stroke="#aab0a5" stroke-width="1.51"/><path d="M-360,660L-120,660L-120,420Z" fill="#cac0a2" stroke="#cac0a2" stroke-width="1.51"/><path d="M-360,420L-360,660L-120,420Z" fill="#c5d2aa" stroke="#c5d2aa" stroke-width="1.51"/><path d="M-360,420L-120,420L-120,180Z" fill="#dfc8a3" stroke="#dfc8a3" stroke-width="1.51"/><path d="M-360,180L-360,420L-120,180Z" fill="#d9d5aa" stroke="#d9d5aa" stroke-width="1.51"/><path d="M-360,180L-120,180L-120,-60Z" fill="#eca99e" stroke="#eca99e" stroke-width="1.51"/><path d="M-360,-60L-360,180L-120,-60Z" fill="#e4a0a2" stroke="#e4a0a2" stroke-width="1.51"/><path d="M-360,-60L-120,-60L-120,-300Z" fill="#e97a9a" stroke="#e97a9a" stroke-width="1.51"/><path d="M-360,-300L-360,-60L-120,-300Z" fill="#d29dab" stroke="#d29dab" stroke-width="1.51"/></svg>