<svg xmlns="http://www.w3.org/2000/svg" width="1920" height="1080"><path d="M1980,1260L2100,1260L2100,1140Z" fill="#ff7500" stroke="#ff7500" stroke-width="1.51"/><path d="M1980,1140L1980,1260L2100,1140Z" fill="#ff5d00" stroke="#ff5d00" stroke-width="1.51"/><path d="M1980,1140L2100,1140L2100,1020Z" fill="#ff5926" stroke="#ff5926" stroke-width="1.51"/><path d="M1980,1020L1980,1140L2100,1020Z" fill="#ff4d38" stroke="#ff4d38" stroke-width="1.51"/><path d="M1980,1020L2100,1020L2100,900Z" fill="#ff585b" stroke="#ff585b" stroke-width="1.51"/><path d="M1980,900L1980,1020L2100,900Z" fill="#f96b57" stroke="#f96b57" stroke-width="1.51"/><path d="M1980,900L2100,900L2100,780Z" fill="#dda84b" stroke="#dda84b" stroke-width="1.51"/><path d="M1980,780L1980,900L2100,780Z" fill="#cdb640" stroke="#cdb640" stroke-width="1.51"/><path d="M1980,780L2100,780L2100,660Z" fill="#d4a462" stroke="#d4a462" stroke-width="1.51"/><path d="M1980,660L1980,780L2100,660Z" fill="#de8272" stroke="#de8272" stroke-width="1.51"/><path d="M1980,660L2100,660L2100,540Z" fill="#e65293" stroke="#e65293" stroke-width="1.51"/><path d="M1980,540L1980,660L2100,540Z" fill="#e05990" stroke="#e05990" stroke-width="1.51"/><path d="M1980,540L2100,540L2100,420Z" fill="#d17e91" stroke="#d17e91" stroke-width="1.51"/><path d="M1980,420L1980,540L2100,420Z" fill="#ca828e" stroke="#ca828e" stroke-width="1.51"/><path d="M1980,420L2100,420L2100,300Z" fill="#e37971" stroke="#e37971" stroke-width="1.51"/><path d="M1980,300L1980,420L2100,300Z" fill="#f0645e" stroke="#f0645e" stroke-width="1.51"/><path d="M1980,300L2100,300L2100,180Z" fill="#fd6942" stroke="#fd6942" stroke-width="1.51"/><path d="M1980,180L1980,300L2100,180Z" fill="#f77d38" stroke="#f77d38" stroke-width="1.51"/><path d="M1980,180L2100,180L2100,60Z" fill="#e5b41c" stroke="#e5b41c" stroke-width="1.51"/><path d="M1980,60L1980,180L2100,60Z" fill="#e0bb11" stroke="#e0bb11" stroke-width="1.51"/><path d="M1980,60L2100,60L2100,-60Z" fill="#f59661" stroke="#f59661" stroke-width="1.51"/><path d="M1980,-60L1980,60L2100,-60Z" fill="#fd7377" stroke="#fd7377" stroke-width="1.51"/><path d="M1980,-60L2100,-60L2100,-180Z" fill="#fd7391" stroke="#fd7391" stroke-width="1.51"/><path d="M1980,-180L1980,-60L2100,-180Z" fill="#f3858d" stroke="#f3858d" stroke-width="1.51"/><path d="M1860,1260L1980,1260L1980,1140Z" fill="#ff5800" stroke="#ff5800" stroke-width="1.51"/><path d="M1860,1140L1860,1260L1980,1140Z" fill="#ff3700" stroke="#ff3700" stroke-width="1.51"/><path d="M1860,1140L1980,1140L1980,1020Z" fill="#ff3123" stroke="#ff3123" stroke-width="1.51"/><path d="M1860,1020L1860,1140L1980,1020Z" fill="#ff1634" stroke="#ff1634" stroke-width="1.51"/><path d="M1860,1020L1980,1020L1980,900Z" fill="#ff2e55" stroke="#ff2e55" stroke-width="1.51"/><path d="M1860,900L1860,1020L1980,900Z" fill="#fa4c51" stroke="#fa4c51" stroke-width="1.51"/><path d="M1860,900L1980,900L1980,780Z" fill="#e09245" stroke="#e09245" stroke-width="1.51"/><path d="M1860,780L1860,900L1980,780Z" fill="#d3a23a" stroke="#d3a23a" stroke-width="1.51"/><path d="M1860,780L1980,780L1980,660Z" fill="#d88e5b" stroke="#d88e5b" stroke-width="1.51"/><path d="M1860,660L1860,780L1980,660Z" fill="#e1696b" stroke="#e1696b" stroke-width="1.51"/><path d="M1860,660L1980,660L1980,540Z" fill="#e7268b" stroke="#e7268b" stroke-width="1.51"/><path d="M1860,540L1860,660L1980,540Z" fill="#e23488" stroke="#e23488" stroke-width="1.51"/><path d="M1860,540L1980,540L1980,420Z" fill="#d4658a" stroke="#d4658a" stroke-width="1.51"/><path d="M1860,420L1860,540L1980,420Z" fill="#ce6a86" stroke="#ce6a86" stroke-width="1.51"/><path d="M1860,420L1980,420L1980,300Z" fill="#e55f6a" stroke="#e55f6a" stroke-width="1.51"/><path d="M1860,300L1860,420L1980,300Z" fill="#f14357" stroke="#f14357" stroke-width="1.51"/><path d="M1860,300L1980,300L1980,180Z" fill="#fd483d" stroke="#fd483d" stroke-width="1.51"/><path d="M1860,180L1860,300L1980,180Z" fill="#f86233" stroke="#f86233" stroke-width="1.51"/><path d="M1860,180L1980,180L1980,60Z" fill="#e99e18" stroke="#e99e18" stroke-width="1.51"/><path d="M1860,60L1860,180L1980,60Z" fill="#e5a609" stroke="#e5a609" stroke-width="1.51"/><path d="M1860,60L1980,60L1980,-60Z" fill="#f77e5b" stroke="#f77e5b" stroke-width="1.51"/><path d="M1860,-60L1860,60L1980,-60Z" fill="#ff5570" stroke="#ff5570" stroke-width="1.51"/><path d="M1860,-60L1980,-60L1980,-180Z" fill="#fe5389" stroke="#fe5389" stroke-width="1.51"/><path d="M1860,-180L1860,-60L1980,-180Z" fill="#f66b85" stroke="#f66b85" stroke-width="1.51"/><path d="M1740,1260L1860,1260L1860,1140Z" fill="#ff4a25" stroke="#ff4a25" stroke-width="1.51"/><path d="M1740,1140L1740,1260L1860,1140Z" fill="#ff3230" stroke="#ff3230" stroke-width="1.51"/><path d="M1740,1140L1860,1140L1860,1020Z" fill="#ff0f37" stroke="#ff0f37" stroke-width="1.51"/><path d="M1740,1020L1740,1140L1860,1020Z" fill="#ff0850" stroke="#ff0850" stroke-width="1.51"/><path d="M1740,1020L1860,1020L1860,900Z" fill="#ff0464" stroke="#ff0464" stroke-width="1.51"/><path d="M1740,900L1740,1020L1860,900Z" fill="#f8496d" stroke="#f8496d" stroke-width="1.51"/><path d="M1740,900L1860,900L1860,780Z" fill="#e08958" stroke="#e08958" stroke-width="1.51"/><path d="M1740,780L1740,900L1860,780Z" fill="#d1a05d" stroke="#d1a05d" stroke-width="1.51"/><path d="M1740,780L1860,780L1860,660Z" fill="#d8856c" stroke="#d8856c" stroke-width="1.51"/><path d="M1740,660L1740,780L1860,660Z" fill="#dd6887" stroke="#dd6887" stroke-width="1.51"/><path d="M1740,660L1860,660L1860,540Z" fill="#e4009a" stroke="#e4009a" stroke-width="1.51"/><path d="M1740,540L1740,660L1860,540Z" fill="#dc32a3" stroke="#dc32a3" stroke-width="1.51"/><path d="M1740,540L1860,540L1860,420Z" fill="#d25a99" stroke="#d25a99" stroke-width="1.51"/><path d="M1740,420L1740,540L1860,420Z" fill="#c869a2" stroke="#c869a2" stroke-width="1.51"/><path d="M1740,420L1860,420L1860,300Z" fill="#e35379" stroke="#e35379" stroke-width="1.51"/><path d="M1740,300L1740,420L1860,300Z" fill="#ef4073" stroke="#ef4073" stroke-width="1.51"/><path d="M1740,300L1860,300L1860,180Z" fill="#fd374e" stroke="#fd374e" stroke-width="1.51"/><path d="M1740,180L1740,300L1860,180Z" fill="#f75f52" stroke="#f75f52" stroke-width="1.51"/><path d="M1740,180L1860,180L1860,60Z" fill="#ea9537" stroke="#ea9537" stroke-width="1.51"/><path d="M1740,60L1740,180L1860,60Z" fill="#e4a542" stroke="#e4a542" stroke-width="1.51"/><path d="M1740,60L1860,60L1860,-60Z" fill="#f6746c" stroke="#f6746c" stroke-width="1.51"/><path d="M1740,-60L1740,60L1860,-60Z" fill="#fb538b" stroke="#fb538b" stroke-width="1.51"/><path d="M1740,-60L1860,-60L1860,-180Z" fill="#fc4598" stroke="#fc4598" stroke-width="1.51"/><path d="M1740,-180L1740,-60L1860,-180Z" fill="#f169a1" stroke="#f169a1" stroke-width="1.51"/><path d="M1620,1260L1740,1260L1740,1140Z" fill="#ff4848" stroke="#ff4848" stroke-width="1.51"/><path d="M1620,1140L1620,1260L1740,1140Z" fill="#ff3050" stroke="#ff3050" stroke-width="1.51"/><path d="M1620,1140L1740,1140L1740,1020Z" fill="#ff0755" stroke="#ff0755" stroke-width="1.51"/><path d="M1620,1020L1620,1140L1740,1020Z" fill="#ff026d" stroke="#ff026d" stroke-width="1.51"/><path d="M1620,1020L1740,1020L1740,900Z" fill="#ff0181" stroke="#ff0181" stroke-width="1.51"/><path d="M1620,900L1620,1020L1740,900Z" fill="#f74a8b" stroke="#f74a8b" stroke-width="1.51"/><path d="M1620,900L1740,900L1740,780Z" fill="#df8a78" stroke="#df8a78" stroke-width="1.51"/><path d="M1620,780L1620,900L1740,780Z" fill="#cfa17e" stroke="#cfa17e" stroke-width="1.51"/><path d="M1620,780L1740,780L1740,660Z" fill="#d4868b" stroke="#d4868b" stroke-width="1.51"/><path d="M1620,660L1620,780L1740,660Z" fill="#d969a6" stroke="#d969a6" stroke-width="1.51"/><path d="M1620,660L1740,660L1740,540Z" fill="#df00b7" stroke="#df00b7" stroke-width="1.51"/><path d="M1620,540L1620,660L1740,540Z" fill="#d634c1" stroke="#d634c1" stroke-width="1.51"/><path d="M1620,540L1740,540L1740,420Z" fill="#cb5cb6" stroke="#cb5cb6" stroke-width="1.51"/><path d="M1620,420L1620,540L1740,420Z" fill="#c16bc1" stroke="#c16bc1" stroke-width="1.51"/><path d="M1620,420L1740,420L1740,300Z" fill="#e05397" stroke="#e05397" stroke-width="1.51"/><path d="M1620,300L1620,420L1740,300Z" fill="#ed4090" stroke="#ed4090" stroke-width="1.51"/><path d="M1620,300L1740,300L1740,180Z" fill="#fd366c" stroke="#fd366c" stroke-width="1.51"/><path d="M1620,180L1620,300L1740,180Z" fill="#f75f71" stroke="#f75f71" stroke-width="1.51"/><path d="M1620,180L1740,180L1740,60Z" fill="#e9955c" stroke="#e9955c" stroke-width="1.51"/><path d="M1620,60L1620,180L1740,60Z" fill="#e4a567" stroke="#e4a567" stroke-width="1.51"/><path d="M1620,60L1740,60L1740,-60Z" fill="#f4748a" stroke="#f4748a" stroke-width="1.51"/><path d="M1620,-60L1620,60L1740,-60Z" fill="#f953aa" stroke="#f953aa" stroke-width="1.51"/><path d="M1620,-60L1740,-60L1740,-180Z" fill="#f745b6" stroke="#f745b6" stroke-width="1.51"/><path d="M1620,-180L1620,-60L1740,-180Z" fill="#ed6bc0" stroke="#ed6bc0" stroke-width="1.51"/><path d="M1500,1260L1620,1260L1620,1140Z" fill="#fa6657" stroke="#fa6657" stroke-width="1.51"/><path d="M1500,1140L1500,1260L1620,1140Z" fill="#f36d50" stroke="#f36d50" stroke-width="1.51"/><path d="M1500,1140L1620,1140L1620,1020Z" fill="#f94763" stroke="#f94763" stroke-width="1.51"/><path d="M1500,1020L1500,1140L1620,1020Z" fill="#f1606f" stroke="#f1606f" stroke-width="1.51"/><path d="M1500,1020L1620,1020L1620,900Z" fill="#f74791" stroke="#f74791" stroke-width="1.51"/><path d="M1500,900L1500,1020L1620,900Z" fill="#e67a8e" stroke="#e67a8e" stroke-width="1.51"/><path d="M1500,900L1620,900L1620,780Z" fill="#d39d87" stroke="#d39d87" stroke-width="1.51"/><path d="M1500,780L1500,900L1620,780Z" fill="#b4bf80" stroke="#b4bf80" stroke-width="1.51"/><path d="M1500,780L1620,780L1620,660Z" fill="#c7999b" stroke="#c7999b" stroke-width="1.51"/><path d="M1500,660L1500,780L1620,660Z" fill="#c48fa9" stroke="#c48fa9" stroke-width="1.51"/><path d="M1500,660L1620,660L1620,540Z" fill="#d343c7" stroke="#d343c7" stroke-width="1.51"/><path d="M1500,540L1500,660L1620,540Z" fill="#c46bc5" stroke="#c46bc5" stroke-width="1.51"/><path d="M1500,540L1620,540L1620,420Z" fill="#bc73c7" stroke="#bc73c7" stroke-width="1.51"/><path d="M1500,420L1500,540L1620,420Z" fill="#a88ec5" stroke="#a88ec5" stroke-width="1.51"/><path d="M1500,420L1620,420L1620,300Z" fill="#d56da6" stroke="#d56da6" stroke-width="1.51"/><path d="M1500,300L1500,420L1620,300Z" fill="#dc7393" stroke="#dc7393" stroke-width="1.51"/><path d="M1500,300L1620,300L1620,180Z" fill="#f55a7a" stroke="#f55a7a" stroke-width="1.51"/><path d="M1500,180L1500,300L1620,180Z" fill="#e68973" stroke="#e68973" stroke-width="1.51"/><path d="M1500,180L1620,180L1620,60Z" fill="#dea86c" stroke="#dea86c" stroke-width="1.51"/><path d="M1500,60L1500,180L1620,60Z" fill="#cbc467" stroke="#cbc467" stroke-width="1.51"/><path d="M1500,60L1620,60L1620,-60Z" fill="#e98a9a" stroke="#e98a9a" stroke-width="1.51"/><path d="M1500,-60L1500,60L1620,-60Z" fill="#e682ad" stroke="#e682ad" stroke-width="1.51"/><path d="M1500,-60L1620,-60L1620,-180Z" fill="#ec66c7" stroke="#ec66c7" stroke-width="1.51"/><path d="M1500,-180L1500,-60L1620,-180Z" fill="#d893c4" stroke="#d893c4" stroke-width="1.51"/><path d="M1380,1260L1500,1260L1500,1140Z" fill="#e09b4a" stroke="#e09b4a" stroke-width="1.51"/><path d="M1380,1140L1380,1260L1500,1140Z" fill="#d89f41" stroke="#d89f41" stroke-width="1.51"/><path d="M1380,1140L1500,1140L1500,1020Z" fill="#e28658" stroke="#e28658" stroke-width="1.51"/><path d="M1380,1020L1380,1140L1500,1020Z" fill="#d89665" stroke="#d89665" stroke-width="1.51"/><path d="M1380,1020L1500,1020L1500,900Z" fill="#e08789" stroke="#e08789" stroke-width="1.51"/><path d="M1380,900L1380,1020L1500,900Z" fill="#c9aa85" stroke="#c9aa85" stroke-width="1.51"/><path d="M1380,900L1500,900L1500,780Z" fill="#aec67e" stroke="#aec67e" stroke-width="1.51"/><path d="M1380,780L1380,900L1500,780Z" fill="#7ee574" stroke="#7ee574" stroke-width="1.51"/><path d="M1380,780L1500,780L1500,660Z" fill="#a1c193" stroke="#a1c193" stroke-width="1.51"/><path d="M1380,660L1380,780L1500,660Z" fill="#9fb8a1" stroke="#9fb8a1" stroke-width="1.51"/><path d="M1380,660L1500,660L1500,540Z" fill="#b980c2" stroke="#b980c2" stroke-width="1.51"/><path d="M1380,540L1380,660L1500,540Z" fill="#a49abf" stroke="#a49abf" stroke-width="1.51"/><path d="M1380,540L1500,540L1500,420Z" fill="#9aa0c1" stroke="#9aa0c1" stroke-width="1.51"/><path d="M1380,420L1380,540L1500,420Z" fill="#7bb6be" stroke="#7bb6be" stroke-width="1.51"/><path d="M1380,420L1500,420L1500,300Z" fill="#b79da0" stroke="#b79da0" stroke-width="1.51"/><path d="M1380,300L1380,420L1500,300Z" fill="#bfa28b" stroke="#bfa28b" stroke-width="1.51"/><path d="M1380,300L1500,300L1500,180Z" fill="#dc9272" stroke="#dc9272" stroke-width="1.51"/><path d="M1380,180L1380,300L1500,180Z" fill="#c7b668" stroke="#c7b668" stroke-width="1.51"/><path d="M1380,180L1500,180L1500,60Z" fill="#bad15f" stroke="#bad15f" stroke-width="1.51"/><path d="M1380,60L1380,180L1500,60Z" fill="#9cea58" stroke="#9cea58" stroke-width="1.51"/><path d="M1380,60L1500,60L1500,-60Z" fill="#cab892" stroke="#cab892" stroke-width="1.51"/><path d="M1380,-60L1380,60L1500,-60Z" fill="#c8b1a5" stroke="#c8b1a5" stroke-width="1.51"/><path d="M1380,-60L1500,-60L1500,-180Z" fill="#d09cc1" stroke="#d09cc1" stroke-width="1.51"/><path d="M1380,-180L1380,-60L1500,-180Z" fill="#b4bfbd" stroke="#b4bfbd" stroke-width="1.51"/><path d="M1260,1260L1380,1260L1380,1140Z" fill="#c9b743" stroke="#c9b743" stroke-width="1.51"/><path d="M1260,1140L1260,1260L1380,1140Z" fill="#d39d50" stroke="#d39d50" stroke-width="1.51"/><path d="M1260,1140L1380,1140L1380,1020Z" fill="#cda454" stroke="#cda454" stroke-width="1.51"/><path d="M1260,1020L1260,1140L1380,1020Z" fill="#d29472" stroke="#d29472" stroke-width="1.51"/><path d="M1260,1020L1380,1020L1380,900Z" fill="#c9a587" stroke="#c9a587" stroke-width="1.51"/><path d="M1260,900L1260,1020L1380,900Z" fill="#c1a792" stroke="#c1a792" stroke-width="1.51"/><path d="M1260,900L1380,900L1380,780Z" fill="#87de7b" stroke="#87de7b" stroke-width="1.51"/><path d="M1260,780L1260,900L1380,780Z" fill="#73e283" stroke="#73e283" stroke-width="1.51"/><path d="M1260,780L1380,780L1380,660Z" fill="#76d990" stroke="#76d990" stroke-width="1.51"/><path d="M1260,660L1260,780L1380,660Z" fill="#94b6ae" stroke="#94b6ae" stroke-width="1.51"/><path d="M1260,660L1380,660L1380,540Z" fill="#9e9dc1" stroke="#9e9dc1" stroke-width="1.51"/><path d="M1260,540L1260,660L1380,540Z" fill="#9898cc" stroke="#9898cc" stroke-width="1.51"/><path d="M1260,540L1380,540L1380,420Z" fill="#73b9c0" stroke="#73b9c0" stroke-width="1.51"/><path d="M1260,420L1260,540L1380,420Z" fill="#6ab4cb" stroke="#6ab4cb" stroke-width="1.51"/><path d="M1260,420L1380,420L1380,300Z" fill="#9ab79e" stroke="#9ab79e" stroke-width="1.51"/><path d="M1260,300L1260,420L1380,300Z" fill="#b7a098" stroke="#b7a098" stroke-width="1.51"/><path d="M1260,300L1380,300L1380,180Z" fill="#c5ae6f" stroke="#c5ae6f" stroke-width="1.51"/><path d="M1260,180L1260,300L1380,180Z" fill="#c1b476" stroke="#c1b476" stroke-width="1.51"/><path d="M1260,180L1380,180L1380,60Z" fill="#94e959" stroke="#94e959" stroke-width="1.51"/><path d="M1260,60L1260,180L1380,60Z" fill="#94e868" stroke="#94e868" stroke-width="1.51"/><path d="M1260,60L1380,60L1380,-60Z" fill="#abd28f" stroke="#abd28f" stroke-width="1.51"/><path d="M1260,-60L1260,60L1380,-60Z" fill="#bfafb2" stroke="#bfafb2" stroke-width="1.51"/><path d="M1260,-60L1380,-60L1380,-180Z" fill="#b5b8bf" stroke="#b5b8bf" stroke-width="1.51"/><path d="M1260,-180L1260,-60L1380,-180Z" fill="#a9bdc9" stroke="#a9bdc9" stroke-width="1.51"/><path d="M1140,1260L1260,1260L1260,1140Z" fill="#dc866e" stroke="#dc866e" stroke-width="1.51"/><path d="M1140,1140L1140,1260L1260,1140Z" fill="#e26675" stroke="#e26675" stroke-width="1.51"/><path d="M1140,1140L1260,1140L1260,1020Z" fill="#dd6f79" stroke="#dd6f79" stroke-width="1.51"/><path d="M1140,1020L1140,1140L1260,1020Z" fill="#de5a93" stroke="#de5a93" stroke-width="1.51"/><path d="M1140,1020L1260,1020L1260,900Z" fill="#d771a8" stroke="#d771a8" stroke-width="1.51"/><path d="M1140,900L1140,1020L1260,900Z" fill="#cf75b2" stroke="#cf75b2" stroke-width="1.51"/><path d="M1140,900L1260,900L1260,780Z" fill="#a8b3a0" stroke="#a8b3a0" stroke-width="1.51"/><path d="M1140,780L1140,900L1260,780Z" fill="#99b8a7" stroke="#99b8a7" stroke-width="1.51"/><path d="M1140,780L1260,780L1260,660Z" fill="#97afb3" stroke="#97afb3" stroke-width="1.51"/><path d="M1140,660L1140,780L1260,660Z" fill="#a589ce" stroke="#a589ce" stroke-width="1.51"/><path d="M1140,660L1260,660L1260,540Z" fill="#a86ce0" stroke="#a86ce0" stroke-width="1.51"/><path d="M1140,540L1140,660L1260,540Z" fill="#9f67ea" stroke="#9f67ea" stroke-width="1.51"/><path d="M1140,540L1260,540L1260,420Z" fill="#878ee0" stroke="#878ee0" stroke-width="1.51"/><path d="M1140,420L1140,540L1260,420Z" fill="#7d8ae9" stroke="#7d8ae9" stroke-width="1.51"/><path d="M1140,420L1260,420L1260,300Z" fill="#ac8abf" stroke="#ac8abf" stroke-width="1.51"/><path d="M1140,300L1140,420L1260,300Z" fill="#c46eb7" stroke="#c46eb7" stroke-width="1.51"/><path d="M1140,300L1260,300L1260,180Z" fill="#d67d91" stroke="#d67d91" stroke-width="1.51"/><path d="M1140,180L1140,300L1260,180Z" fill="#d28398" stroke="#d28398" stroke-width="1.51"/><path d="M1140,180L1260,180L1260,60Z" fill="#b7be84" stroke="#b7be84" stroke-width="1.51"/><path d="M1140,60L1140,180L1260,60Z" fill="#b5bd90" stroke="#b5bd90" stroke-width="1.51"/><path d="M1140,60L1260,60L1260,-60Z" fill="#c2a4b2" stroke="#c2a4b2" stroke-width="1.51"/><path d="M1140,-60L1140,60L1260,-60Z" fill="#cb7dd2" stroke="#cb7dd2" stroke-width="1.51"/><path d="M1140,-60L1260,-60L1260,-180Z" fill="#c288df" stroke="#c288df" stroke-width="1.51"/><path d="M1140,-180L1140,-60L1260,-180Z" fill="#b78ee9" stroke="#b78ee9" stroke-width="1.51"/><path d="M1020,1260L1140,1260L1140,1140Z" fill="#e8438e" stroke="#e8438e" stroke-width="1.51"/><path d="M1020,1140L1020,1260L1140,1140Z" fill="#e5348b" stroke="#e5348b" stroke-width="1.51"/><path d="M1020,1140L1140,1140L1140,1020Z" fill="#e50098" stroke="#e50098" stroke-width="1.51"/><path d="M1020,1020L1020,1140L1140,1020Z" fill="#df1ca8" stroke="#df1ca8" stroke-width="1.51"/><path d="M1020,1020L1140,1020L1140,900Z" fill="#dd0ac6" stroke="#dd0ac6" stroke-width="1.51"/><path d="M1020,900L1020,1020L1140,900Z" fill="#d04ec7" stroke="#d04ec7" stroke-width="1.51"/><path d="M1020,900L1140,900L1140,780Z" fill="#b884c0" stroke="#b884c0" stroke-width="1.51"/><path d="M1020,780L1020,900L1140,780Z" fill="#a29ebe" stroke="#a29ebe" stroke-width="1.51"/><path d="M1020,780L1140,780L1140,660Z" fill="#a782d3" stroke="#a782d3" stroke-width="1.51"/><path d="M1020,660L1020,780L1140,660Z" fill="#a56be3" stroke="#a56be3" stroke-width="1.51"/><path d="M1020,660L1140,660L1140,540Z" fill="#a71cfd" stroke="#a71cfd" stroke-width="1.51"/><path d="M1020,540L1020,660L1140,540Z" fill="#9941ff" stroke="#9941ff" stroke-width="1.51"/><path d="M1020,540L1140,540L1140,420Z" fill="#8b5cfe" stroke="#8b5cfe" stroke-width="1.51"/><path d="M1020,420L1020,540L1140,420Z" fill="#786dff" stroke="#786dff" stroke-width="1.51"/><path d="M1020,420L1140,420L1140,300Z" fill="#b353dd" stroke="#b353dd" stroke-width="1.51"/><path d="M1020,300L1020,420L1140,300Z" fill="#c346cd" stroke="#c346cd" stroke-width="1.51"/><path d="M1020,300L1140,300L1140,180Z" fill="#de33b0" stroke="#de33b0" stroke-width="1.51"/><path d="M1020,180L1020,300L1140,180Z" fill="#d560ae" stroke="#d560ae" stroke-width="1.51"/><path d="M1020,180L1140,180L1140,60Z" fill="#ca8fa7" stroke="#ca8fa7" stroke-width="1.51"/><path d="M1020,60L1020,180L1140,60Z" fill="#bfa1a9" stroke="#bfa1a9" stroke-width="1.51"/><path d="M1020,60L1140,60L1140,-60Z" fill="#ce70d2" stroke="#ce70d2" stroke-width="1.51"/><path d="M1020,-60L1020,60L1140,-60Z" fill="#cb58e7" stroke="#cb58e7" stroke-width="1.51"/><path d="M1020,-60L1140,-60L1140,-180Z" fill="#c648fe" stroke="#c648fe" stroke-width="1.51"/><path d="M1020,-180L1020,-60L1140,-180Z" fill="#b66dff" stroke="#b66dff" stroke-width="1.51"/><path d="M900,1260L1020,1260L1020,1140Z" fill="#dc608f" stroke="#dc608f" stroke-width="1.51"/><path d="M900,1140L900,1260L1020,1140Z" fill="#d95b8a" stroke="#d95b8a" stroke-width="1.51"/><path d="M900,1140L1020,1140L1020,1020Z" fill="#db4299" stroke="#db4299" stroke-width="1.51"/><path d="M900,1020L900,1140L1020,1020Z" fill="#d34fa8" stroke="#d34fa8" stroke-width="1.51"/><path d="M900,1020L1020,1020L1020,900Z" fill="#d145c7" stroke="#d145c7" stroke-width="1.51"/><path d="M900,900L900,1020L1020,900Z" fill="#c16cc7" stroke="#c16cc7" stroke-width="1.51"/><path d="M900,900L1020,900L1020,780Z" fill="#a795c1" stroke="#a795c1" stroke-width="1.51"/><path d="M900,780L900,900L1020,780Z" fill="#88b0bd" stroke="#88b0bd" stroke-width="1.51"/><path d="M900,780L1020,780L1020,660Z" fill="#9392d4" stroke="#9392d4" stroke-width="1.51"/><path d="M900,660L900,780L1020,660Z" fill="#9181e3" stroke="#9181e3" stroke-width="1.51"/><path d="M900,660L1020,660L1020,540Z" fill="#9646ff" stroke="#9646ff" stroke-width="1.51"/><path d="M900,540L900,660L1020,540Z" fill="#8560ff" stroke="#8560ff" stroke-width="1.51"/><path d="M900,540L1020,540L1020,420Z" fill="#7470ff" stroke="#7470ff" stroke-width="1.51"/><path d="M900,420L900,540L1020,420Z" fill="#5882ff" stroke="#5882ff" stroke-width="1.51"/><path d="M900,420L1020,420L1020,300Z" fill="#a36ade" stroke="#a36ade" stroke-width="1.51"/><path d="M900,300L900,420L1020,300Z" fill="#b465cc" stroke="#b465cc" stroke-width="1.51"/><path d="M900,300L1020,300L1020,180Z" fill="#d255b1" stroke="#d255b1" stroke-width="1.51"/><path d="M900,180L900,300L1020,180Z" fill="#c67aae" stroke="#c67aae" stroke-width="1.51"/><path d="M900,180L1020,180L1020,60Z" fill="#baa0a7" stroke="#baa0a7" stroke-width="1.51"/><path d="M900,60L900,180L1020,60Z" fill="#aab4a7" stroke="#aab4a7" stroke-width="1.51"/><path d="M900,60L1020,60L1020,-60Z" fill="#be85d3" stroke="#be85d3" stroke-width="1.51"/><path d="M900,-60L900,60L1020,-60Z" fill="#ba75e7" stroke="#ba75e7" stroke-width="1.51"/><path d="M900,-60L1020,-60L1020,-180Z" fill="#b664ff" stroke="#b664ff" stroke-width="1.51"/><path d="M900,-180L900,-60L1020,-180Z" fill="#a286ff" stroke="#a286ff" stroke-width="1.51"/><path d="M780,1260L900,1260L900,1140Z" fill="#ce7b8e" stroke="#ce7b8e" stroke-width="1.51"/><path d="M780,1140L780,1260L900,1140Z" fill="#cd7487" stroke="#cd7487" stroke-width="1.51"/><path d="M780,1140L900,1140L900,1020Z" fill="#cd6498" stroke="#cd6498" stroke-width="1.51"/><path d="M780,1020L780,1140L900,1020Z" fill="#c76aa5" stroke="#c76aa5" stroke-width="1.51"/><path d="M780,1020L900,1020L900,900Z" fill="#c266c7" stroke="#c266c7" stroke-width="1.51"/><path d="M780,900L780,1020L900,900Z" fill="#b382c5" stroke="#b382c5" stroke-width="1.51"/><path d="M780,900L900,900L900,780Z" fill="#8fa9c0" stroke="#8fa9c0" stroke-width="1.51"/><path d="M780,780L780,900L900,780Z" fill="#6dc0ba" stroke="#6dc0ba" stroke-width="1.51"/><path d="M780,780L900,780L900,660Z" fill="#78a5d3" stroke="#78a5d3" stroke-width="1.51"/><path d="M780,660L780,780L900,660Z" fill="#7c93e1" stroke="#7c93e1" stroke-width="1.51"/><path d="M780,660L900,660L900,540Z" fill="#8164ff" stroke="#8164ff" stroke-width="1.51"/><path d="M780,540L780,660L900,540Z" fill="#7175fd" stroke="#7175fd" stroke-width="1.51"/><path d="M780,540L900,540L900,420Z" fill="#5186ff" stroke="#5186ff" stroke-width="1.51"/><path d="M780,420L780,540L900,420Z" fill="#2a93fd" stroke="#2a93fd" stroke-width="1.51"/><path d="M780,420L900,420L900,300Z" fill="#8e81de" stroke="#8e81de" stroke-width="1.51"/><path d="M780,300L780,420L900,300Z" fill="#a67bca" stroke="#a67bca" stroke-width="1.51"/><path d="M780,300L900,300L900,180Z" fill="#c472b0" stroke="#c472b0" stroke-width="1.51"/><path d="M780,180L780,300L900,180Z" fill="#b88eab" stroke="#b88eab" stroke-width="1.51"/><path d="M780,180L900,180L900,60Z" fill="#a4b3a6" stroke="#a4b3a6" stroke-width="1.51"/><path d="M780,60L780,180L900,60Z" fill="#94c4a4" stroke="#94c4a4" stroke-width="1.51"/><path d="M780,60L900,60L900,-60Z" fill="#aa9ad2" stroke="#aa9ad2" stroke-width="1.51"/><path d="M780,-60L780,60L900,-60Z" fill="#ab8ae5" stroke="#ab8ae5" stroke-width="1.51"/><path d="M780,-60L900,-60L900,-180Z" fill="#a37eff" stroke="#a37eff" stroke-width="1.51"/><path d="M780,-180L780,-60L900,-180Z" fill="#8e99fd" stroke="#8e99fd" stroke-width="1.51"/><path d="M660,1260L780,1260L780,1140Z" fill="#de7275" stroke="#de7275" stroke-width="1.51"/><path d="M660,1140L660,1260L780,1140Z" fill="#e75c66" stroke="#e75c66" stroke-width="1.51"/><path d="M660,1140L780,1140L780,1020Z" fill="#de5980" stroke="#de5980" stroke-width="1.51"/><path d="M660,1020L660,1140L780,1020Z" fill="#e44f84" stroke="#e44f84" stroke-width="1.51"/><path d="M660,1020L780,1020L780,900Z" fill="#d75aae" stroke="#d75aae" stroke-width="1.51"/><path d="M660,900L660,1020L780,900Z" fill="#d76ca3" stroke="#d76ca3" stroke-width="1.51"/><path d="M660,900L780,900L780,780Z" fill="#aca3a7" stroke="#aca3a7" stroke-width="1.51"/><path d="M660,780L660,900L780,780Z" fill="#a6b297" stroke="#a6b297" stroke-width="1.51"/><path d="M660,780L780,780L780,660Z" fill="#9c9fba" stroke="#9c9fba" stroke-width="1.51"/><path d="M660,660L660,780L780,660Z" fill="#b281be" stroke="#b281be" stroke-width="1.51"/><path d="M660,660L780,660L780,540Z" fill="#a758e6" stroke="#a758e6" stroke-width="1.51"/><path d="M660,540L660,660L780,540Z" fill="#ae5dda" stroke="#ae5dda" stroke-width="1.51"/><path d="M660,540L780,540L780,420Z" fill="#887de5" stroke="#887de5" stroke-width="1.51"/><path d="M660,420L660,540L780,420Z" fill="#9182d9" stroke="#9182d9" stroke-width="1.51"/><path d="M660,420L780,420L780,300Z" fill="#ad78c4" stroke="#ad78c4" stroke-width="1.51"/><path d="M660,300L660,420L780,300Z" fill="#cd65a8" stroke="#cd65a8" stroke-width="1.51"/><path d="M660,300L780,300L780,180Z" fill="#d76898" stroke="#d76898" stroke-width="1.51"/><path d="M660,180L660,300L780,180Z" fill="#d97b89" stroke="#d97b89" stroke-width="1.51"/><path d="M660,180L780,180L780,60Z" fill="#bcae8c" stroke="#bcae8c" stroke-width="1.51"/><path d="M660,60L660,180L780,60Z" fill="#c0b680" stroke="#c0b680" stroke-width="1.51"/><path d="M660,60L780,60L780,-60Z" fill="#c493b9" stroke="#c493b9" stroke-width="1.51"/><path d="M660,-60L660,60L780,-60Z" fill="#d674c2" stroke="#d674c2" stroke-width="1.51"/><path d="M660,-60L780,-60L780,-180Z" fill="#c274e5" stroke="#c274e5" stroke-width="1.51"/><path d="M660,-180L660,-60L780,-180Z" fill="#c586d9" stroke="#c586d9" stroke-width="1.51"/><path d="M540,1260L660,1260L660,1140Z" fill="#f65954" stroke="#f65954" stroke-width="1.51"/><path d="M540,1140L540,1260L660,1140Z" fill="#fd3946" stroke="#fd3946" stroke-width="1.51"/><path d="M540,1140L660,1140L660,1020Z" fill="#f53460" stroke="#f53460" stroke-width="1.51"/><path d="M540,1020L540,1140L660,1020Z" fill="#fc1d64" stroke="#fc1d64" stroke-width="1.51"/><path d="M540,1020L660,1020L660,900Z" fill="#f4348d" stroke="#f4348d" stroke-width="1.51"/><path d="M540,900L540,1020L660,900Z" fill="#f34f82" stroke="#f34f82" stroke-width="1.51"/><path d="M540,900L660,900L660,780Z" fill="#d19284" stroke="#d19284" stroke-width="1.51"/><path d="M540,780L540,900L660,780Z" fill="#cba374" stroke="#cba374" stroke-width="1.51"/><path d="M540,780L660,780L660,660Z" fill="#c58f97" stroke="#c58f97" stroke-width="1.51"/><path d="M540,660L540,780L660,660Z" fill="#d66c9c" stroke="#d66c9c" stroke-width="1.51"/><path d="M540,660L660,660L660,540Z" fill="#d031c3" stroke="#d031c3" stroke-width="1.51"/><path d="M540,540L540,660L660,540Z" fill="#d43bb8" stroke="#d43bb8" stroke-width="1.51"/><path d="M540,540L660,540L660,420Z" fill="#ba68c3" stroke="#ba68c3" stroke-width="1.51"/><path d="M540,420L540,540L660,420Z" fill="#be6eb7" stroke="#be6eb7" stroke-width="1.51"/><path d="M540,420L660,420L660,300Z" fill="#d261a3" stroke="#d261a3" stroke-width="1.51"/><path d="M540,300L540,420L660,300Z" fill="#e94787" stroke="#e94787" stroke-width="1.51"/><path d="M540,300L660,300L660,180Z" fill="#f14b77" stroke="#f14b77" stroke-width="1.51"/><path d="M540,180L540,300L660,180Z" fill="#f46368" stroke="#f46368" stroke-width="1.51"/><path d="M540,180L660,180L660,60Z" fill="#dc9e69" stroke="#dc9e69" stroke-width="1.51"/><path d="M540,60L540,180L660,60Z" fill="#dfa75c" stroke="#dfa75c" stroke-width="1.51"/><path d="M540,60L660,60L660,-60Z" fill="#e77f96" stroke="#e77f96" stroke-width="1.51"/><path d="M540,-60L540,60L660,-60Z" fill="#f558a0" stroke="#f558a0" stroke-width="1.51"/><path d="M540,-60L660,-60L660,-180Z" fill="#e958c3" stroke="#e958c3" stroke-width="1.51"/><path d="M540,-180L540,-60L660,-180Z" fill="#ea6eb7" stroke="#ea6eb7" stroke-width="1.51"/><path d="M420,1260L540,1260L540,1140Z" fill="#fb6b3c" stroke="#fb6b3c" stroke-width="1.51"/><path d="M420,1140L420,1260L540,1140Z" fill="#f77033" stroke="#f77033" stroke-width="1.51"/><path d="M420,1140L540,1140L540,1020Z" fill="#fb4d4b" stroke="#fb4d4b" stroke-width="1.51"/><path d="M420,1020L420,1140L540,1020Z" fill="#f76357" stroke="#f76357" stroke-width="1.51"/><path d="M420,1020L540,1020L540,900Z" fill="#fb4c79" stroke="#fb4c79" stroke-width="1.51"/><path d="M420,900L420,1020L540,900Z" fill="#ed7d75" stroke="#ed7d75" stroke-width="1.51"/><path d="M420,900L540,900L540,780Z" fill="#d6a06e" stroke="#d6a06e" stroke-width="1.51"/><path d="M420,780L420,900L540,780Z" fill="#bdc264" stroke="#bdc264" stroke-width="1.51"/><path d="M420,780L540,780L540,660Z" fill="#cc9c82" stroke="#cc9c82" stroke-width="1.51"/><path d="M420,660L420,780L540,660Z" fill="#cf9191" stroke="#cf9191" stroke-width="1.51"/><path d="M420,660L540,660L540,540Z" fill="#db47b0" stroke="#db47b0" stroke-width="1.51"/><path d="M420,540L420,660L540,540Z" fill="#d06cae" stroke="#d06cae" stroke-width="1.51"/><path d="M420,540L540,540L540,420Z" fill="#c576af" stroke="#c576af" stroke-width="1.51"/><path d="M420,420L420,540L540,420Z" fill="#b790ac" stroke="#b790ac" stroke-width="1.51"/><path d="M420,420L540,420L540,300Z" fill="#da708f" stroke="#da708f" stroke-width="1.51"/><path d="M420,300L420,420L540,300Z" fill="#e4767b" stroke="#e4767b" stroke-width="1.51"/><path d="M420,300L540,300L540,180Z" fill="#f85e63" stroke="#f85e63" stroke-width="1.51"/><path d="M420,180L420,300L540,180Z" fill="#ed8c59" stroke="#ed8c59" stroke-width="1.51"/><path d="M420,180L540,180L540,60Z" fill="#e1ab50" stroke="#e1ab50" stroke-width="1.51"/><path d="M420,60L420,180L540,60Z" fill="#d2c747" stroke="#d2c747" stroke-width="1.51"/><path d="M420,60L540,60L540,-60Z" fill="#ed8e81" stroke="#ed8e81" stroke-width="1.51"/><path d="M420,-60L420,60L540,-60Z" fill="#f08595" stroke="#f08595" stroke-width="1.51"/><path d="M420,-60L540,-60L540,-180Z" fill="#f269af" stroke="#f269af" stroke-width="1.51"/><path d="M420,-180L420,-60L540,-180Z" fill="#e395ab" stroke="#e395ab" stroke-width="1.51"/><path d="M300,1260L420,1260L420,1140Z" fill="#ec9d26" stroke="#ec9d26" stroke-width="1.51"/><path d="M300,1140L300,1260L420,1140Z" fill="#e8a116" stroke="#e8a116" stroke-width="1.51"/><path d="M300,1140L420,1140L420,1020Z" fill="#ee873c" stroke="#ee873c" stroke-width="1.51"/><path d="M300,1020L300,1140L420,1020Z" fill="#e9974a" stroke="#e9974a" stroke-width="1.51"/><path d="M300,1020L420,1020L420,900Z" fill="#ee8871" stroke="#ee8871" stroke-width="1.51"/><path d="M300,900L300,1020L420,900Z" fill="#ddab6b" stroke="#ddab6b" stroke-width="1.51"/><path d="M300,900L420,900L420,780Z" fill="#bfc862" stroke="#bfc862" stroke-width="1.51"/><path d="M300,780L300,900L420,780Z" fill="#9be855" stroke="#9be855" stroke-width="1.51"/><path d="M300,780L420,780L420,660Z" fill="#b5c478" stroke="#b5c478" stroke-width="1.51"/><path d="M300,660L300,780L420,660Z" fill="#b9ba88" stroke="#b9ba88" stroke-width="1.51"/><path d="M300,660L420,660L420,540Z" fill="#ce81aa" stroke="#ce81aa" stroke-width="1.51"/><path d="M300,540L300,660L420,540Z" fill="#bf9ba7" stroke="#bf9ba7" stroke-width="1.51"/><path d="M300,540L420,540L420,420Z" fill="#b3a1a9" stroke="#b3a1a9" stroke-width="1.51"/><path d="M300,420L300,540L420,420Z" fill="#9eb8a6" stroke="#9eb8a6" stroke-width="1.51"/><path d="M300,420L420,420L420,300Z" fill="#ca9e87" stroke="#ca9e87" stroke-width="1.51"/><path d="M300,300L300,420L420,300Z" fill="#d4a472" stroke="#d4a472" stroke-width="1.51"/><path d="M300,300L420,300L420,180Z" fill="#ea9358" stroke="#ea9358" stroke-width="1.51"/><path d="M300,180L300,300L420,180Z" fill="#dab84b" stroke="#dab84b" stroke-width="1.51"/><path d="M300,180L420,180L420,60Z" fill="#c9d43c" stroke="#c9d43c" stroke-width="1.51"/><path d="M300,60L300,180L420,60Z" fill="#b3ee2d" stroke="#b3ee2d" stroke-width="1.51"/><path d="M300,60L420,60L420,-60Z" fill="#dbba78" stroke="#dbba78" stroke-width="1.51"/><path d="M300,-60L300,60L420,-60Z" fill="#deb38c" stroke="#deb38c" stroke-width="1.51"/><path d="M300,-60L420,-60L420,-180Z" fill="#e49da8" stroke="#e49da8" stroke-width="1.51"/><path d="M300,-180L300,-60L420,-180Z" fill="#cfc0a4" stroke="#cfc0a4" stroke-width="1.51"/><path d="M180,1260L300,1260L300,1140Z" fill="#e5b129" stroke="#e5b129" stroke-width="1.51"/><path d="M180,1140L180,1260L300,1140Z" fill="#ee9740" stroke="#ee9740" stroke-width="1.51"/><path d="M180,1140L300,1140L300,1020Z" fill="#e89c40" stroke="#e89c40" stroke-width="1.51"/><path d="M180,1020L180,1140L300,1020Z" fill="#ee8d65" stroke="#ee8d65" stroke-width="1.51"/><path d="M180,1020L300,1020L300,900Z" fill="#e79d76" stroke="#e79d76" stroke-width="1.51"/><path d="M180,900L180,1020L300,900Z" fill="#e1a284" stroke="#e1a284" stroke-width="1.51"/><path d="M180,900L300,900L300,780Z" fill="#b2d967" stroke="#b2d967" stroke-width="1.51"/><path d="M180,780L180,900L300,780Z" fill="#a3e073" stroke="#a3e073" stroke-width="1.51"/><path d="M180,780L300,780L300,660Z" fill="#a6d57e" stroke="#a6d57e" stroke-width="1.51"/><path d="M180,660L180,780L300,660Z" fill="#bcb2a0" stroke="#bcb2a0" stroke-width="1.51"/><path d="M180,660L300,660L300,540Z" fill="#c595b1" stroke="#c595b1" stroke-width="1.51"/><path d="M180,540L180,660L300,540Z" fill="#c092be" stroke="#c092be" stroke-width="1.51"/><path d="M180,540L300,540L300,420Z" fill="#a5b3af" stroke="#a5b3af" stroke-width="1.51"/><path d="M180,420L180,540L300,420Z" fill="#9fb1bd" stroke="#9fb1bd" stroke-width="1.51"/><path d="M180,420L300,420L300,300Z" fill="#bfb18d" stroke="#bfb18d" stroke-width="1.51"/><path d="M180,300L180,420L300,300Z" fill="#d79b8b" stroke="#d79b8b" stroke-width="1.51"/><path d="M180,300L300,300L300,180Z" fill="#e3a75c" stroke="#e3a75c" stroke-width="1.51"/><path d="M180,180L180,300L300,180Z" fill="#dfaf67" stroke="#dfaf67" stroke-width="1.51"/><path d="M180,180L300,180L300,60Z" fill="#bce541" stroke="#bce541" stroke-width="1.51"/><path d="M180,60L180,180L300,60Z" fill="#bce656" stroke="#bce656" stroke-width="1.51"/><path d="M180,60L300,60L300,-60Z" fill="#d0cc7d" stroke="#d0cc7d" stroke-width="1.51"/><path d="M180,-60L180,60L300,-60Z" fill="#e1aaa4" stroke="#e1aaa4" stroke-width="1.51"/><path d="M180,-60L300,-60L300,-180Z" fill="#dab1ae" stroke="#dab1ae" stroke-width="1.51"/><path d="M180,-180L180,-60L300,-180Z" fill="#d1b8bc" stroke="#d1b8bc" stroke-width="1.51"/><path d="M60,1260L180,1260L180,1140Z" fill="#f88366" stroke="#f88366" stroke-width="1.51"/><path d="M60,1140L60,1260L180,1140Z" fill="#fe6272" stroke="#fe6272" stroke-width="1.51"/><path d="M60,1140L180,1140L180,1020Z" fill="#f96a72" stroke="#f96a72" stroke-width="1.51"/><path d="M60,1020L60,1140L180,1020Z" fill="#fb5490" stroke="#fb5490" stroke-width="1.51"/><path d="M60,1020L180,1020L180,900Z" fill="#f56ba1" stroke="#f56ba1" stroke-width="1.51"/><path d="M60,900L60,1020L180,900Z" fill="#ee72af" stroke="#ee72af" stroke-width="1.51"/><path d="M60,900L180,900L180,780Z" fill="#cbb498" stroke="#cbb498" stroke-width="1.51"/><path d="M60,780L60,900L180,780Z" fill="#bebca3" stroke="#bebca3" stroke-width="1.51"/><path d="M60,780L180,780L180,660Z" fill="#beb0ac" stroke="#beb0ac" stroke-width="1.51"/><path d="M60,660L60,780L180,660Z" fill="#ca89ca" stroke="#ca89ca" stroke-width="1.51"/><path d="M60,660L180,660L180,540Z" fill="#cd66da" stroke="#cd66da" stroke-width="1.51"/><path d="M60,540L60,660L180,540Z" fill="#c663e7" stroke="#c663e7" stroke-width="1.51"/><path d="M60,540L180,540L180,420Z" fill="#b28cd9" stroke="#b28cd9" stroke-width="1.51"/><path d="M60,420L60,540L180,420Z" fill="#aa8ae6" stroke="#aa8ae6" stroke-width="1.51"/><path d="M60,420L180,420L180,300Z" fill="#cf88b8" stroke="#cf88b8" stroke-width="1.51"/><path d="M60,300L60,420L180,300Z" fill="#e36bb4" stroke="#e36bb4" stroke-width="1.51"/><path d="M60,300L180,300L180,180Z" fill="#f3798b" stroke="#f3798b" stroke-width="1.51"/><path d="M60,180L60,300L180,180Z" fill="#f08295" stroke="#f08295" stroke-width="1.51"/><path d="M60,180L180,180L180,60Z" fill="#d8bf7c" stroke="#d8bf7c" stroke-width="1.51"/><path d="M60,60L60,180L180,60Z" fill="#d7c08c" stroke="#d7c08c" stroke-width="1.51"/><path d="M60,60L180,60L180,-60Z" fill="#e4a4ab" stroke="#e4a4ab" stroke-width="1.51"/><path d="M60,-60L60,60L180,-60Z" fill="#ed7bcf" stroke="#ed7bcf" stroke-width="1.51"/><path d="M60,-60L180,-60L180,-180Z" fill="#e684d9" stroke="#e684d9" stroke-width="1.51"/><path d="M60,-180L60,-60L180,-180Z" fill="#dd8de6" stroke="#dd8de6" stroke-width="1.51"/><path d="M-60,1260L60,1260L60,1140Z" fill="#ff4b8f" stroke="#ff4b8f" stroke-width="1.51"/><path d="M-60,1140L-60,1260L60,1140Z" fill="#ff528a" stroke="#ff528a" stroke-width="1.51"/><path d="M-60,1140L60,1140L60,1020Z" fill="#ff0c99" stroke="#ff0c99" stroke-width="1.51"/><path d="M-60,1020L-60,1140L60,1020Z" fill="#fa41a7" stroke="#fa41a7" stroke-width="1.51"/><path d="M-60,1020L60,1020L60,900Z" fill="#fb12c7" stroke="#fb12c7" stroke-width="1.51"/><path d="M-60,900L-60,1020L60,900Z" fill="#ec65c7" stroke="#ec65c7" stroke-width="1.51"/><path d="M-60,900L60,900L60,780Z" fill="#d78ec0" stroke="#d78ec0" stroke-width="1.51"/><path d="M-60,780L-60,900L60,780Z" fill="#bdb3bc" stroke="#bdb3bc" stroke-width="1.51"/><path d="M-60,780L60,780L60,660Z" fill="#c88bd3" stroke="#c88bd3" stroke-width="1.51"/><path d="M-60,660L-60,780L60,660Z" fill="#c57fe3" stroke="#c57fe3" stroke-width="1.51"/><path d="M-60,660L60,660L60,540Z" fill="#cc1dff" stroke="#cc1dff" stroke-width="1.51"/><path d="M-60,540L-60,660L60,540Z" fill="#bd57ff" stroke="#bd57ff" stroke-width="1.51"/><path d="M-60,540L60,540L60,420Z" fill="#b363ff" stroke="#b363ff" stroke-width="1.51"/><path d="M-60,420L-60,540L60,420Z" fill="#a081ff" stroke="#a081ff" stroke-width="1.51"/><path d="M-60,420L60,420L60,300Z" fill="#d35ade" stroke="#d35ade" stroke-width="1.51"/><path d="M-60,300L-60,420L60,300Z" fill="#e05ecc" stroke="#e05ecc" stroke-width="1.51"/><path d="M-60,300L60,300L60,180Z" fill="#fb3ab1" stroke="#fb3ab1" stroke-width="1.51"/><path d="M-60,180L-60,300L60,180Z" fill="#ef76ad" stroke="#ef76ad" stroke-width="1.51"/><path d="M-60,180L60,180L60,60Z" fill="#e79aa7" stroke="#e79aa7" stroke-width="1.51"/><path d="M-60,60L-60,180L60,60Z" fill="#d8b7a6" stroke="#d8b7a6" stroke-width="1.51"/><path d="M-60,60L60,60L60,-60Z" fill="#ec79d2" stroke="#ec79d2" stroke-width="1.51"/><path d="M-60,-60L-60,60L60,-60Z" fill="#e96fe7" stroke="#e96fe7" stroke-width="1.51"/><path d="M-60,-60L60,-60L60,-180Z" fill="#e84eff" stroke="#e84eff" stroke-width="1.51"/><path d="M-60,-180L-60,-60L60,-180Z" fill="#d783ff" stroke="#d783ff" stroke-width="1.51"/><path d="M-180,1260L-60,1260L-60,1140Z" fill="#f1888c" stroke="#f1888c" stroke-width="1.51"/><path d="M-180,1140L-180,1260L-60,1140Z" fill="#ec8c86" stroke="#ec8c86" stroke-width="1.51"/><path d="M-180,1140L-60,1140L-60,1020Z" fill="#f17096" stroke="#f17096" stroke-width="1.51"/><path d="M-180,1020L-180,1140L-60,1020Z" fill="#e882a5" stroke="#e882a5" stroke-width="1.51"/><path d="M-180,1020L-60,1020L-60,900Z" fill="#ea72c6" stroke="#ea72c6" stroke-width="1.51"/><path d="M-180,900L-180,1020L-60,900Z" fill="#d699c5" stroke="#d699c5" stroke-width="1.51"/><path d="M-180,900L-60,900L-60,780Z" fill="#bcb8be" stroke="#bcb8be" stroke-width="1.51"/><path d="M-180,780L-180,900L-60,780Z" fill="#95d9ba" stroke="#95d9ba" stroke-width="1.51"/><path d="M-180,780L-60,780L-60,660Z" fill="#aab5d2" stroke="#aab5d2" stroke-width="1.51"/><path d="M-180,660L-180,780L-60,660Z" fill="#a7aae2" stroke="#a7aae2" stroke-width="1.51"/><path d="M-180,660L-60,660L-60,540Z" fill="#b76eff" stroke="#b76eff" stroke-width="1.51"/><path d="M-180,540L-180,660L-60,540Z" fill="#a38aff" stroke="#a38aff" stroke-width="1.51"/><path d="M-180,540L-60,540L-60,420Z" fill="#9692ff" stroke="#9692ff" stroke-width="1.51"/><path d="M-180,420L-180,540L-60,420Z" fill="#78aafe" stroke="#78aafe" stroke-width="1.51"/><path d="M-180,420L-60,420L-60,300Z" fill="#bd8ddd" stroke="#bd8ddd" stroke-width="1.51"/><path d="M-180,300L-180,420L-60,300Z" fill="#ca92cb" stroke="#ca92cb" stroke-width="1.51"/><path d="M-180,300L-60,300L-60,180Z" fill="#e97eaf" stroke="#e97eaf" stroke-width="1.51"/><path d="M-180,180L-180,300L-60,180Z" fill="#d9a6ab" stroke="#d9a6ab" stroke-width="1.51"/><path d="M-180,180L-60,180L-60,60Z" fill="#ccc3a4" stroke="#ccc3a4" stroke-width="1.51"/><path d="M-180,60L-180,180L-60,60Z" fill="#b6dda2" stroke="#b6dda2" stroke-width="1.51"/><path d="M-180,60L-60,60L-60,-60Z" fill="#d5a9d1" stroke="#d5a9d1" stroke-width="1.51"/><path d="M-180,-60L-180,60L-60,-60Z" fill="#d1a1e6" stroke="#d1a1e6" stroke-width="1.51"/><path d="M-180,-60L-60,-60L-60,-180Z" fill="#d38aff" stroke="#d38aff" stroke-width="1.51"/><path d="M-180,-180L-180,-60L-60,-180Z" fill="#bab0fe" stroke="#bab0fe" stroke-width="1.51"/></svg>