<svg xmlns="http://www.w3.org/2000/svg" width="1920" height="1080"><path d="M1230,1398L756,1412L1398,1432Z" fill="#75a098" stroke="#75a098" stroke-width="1.51"/><path d="M1922,904L1917,1010L2183,750Z" fill="#5aa49b" stroke="#5aa49b" stroke-width="1.51"/><path d="M1841,189L2184,432L2285,356Z" fill="#89a48c" stroke="#89a48c" stroke-width="1.51"/><path d="M2184,432L2183,750L2285,356Z" fill="#82a198" stroke="#82a198" stroke-width="1.51"/><path d="M1937,-208L1862,-79L2286,-162Z" fill="#747047" stroke="#747047" stroke-width="1.51"/><path d="M1841,189L2285,356L2286,-162Z" fill="#808e69" stroke="#808e69" stroke-width="1.51"/><path d="M1862,-79L1841,189L2286,-162Z" fill="#838459" stroke="#838459" stroke-width="1.51"/><path d="M1322,-424L1759,-353L2306,-267Z" fill="#6c6f4e" stroke="#6c6f4e" stroke-width="1.51"/><path d="M1759,-353L1937,-208L2306,-267Z" fill="#686440" stroke="#686440" stroke-width="1.51"/><path d="M2286,-162L2285,356L2306,-267Z" fill="#716b3f" stroke="#716b3f" stroke-width="1.51"/><path d="M2183,750L1917,1010L2314,1162Z" fill="#429086" stroke="#429086" stroke-width="1.51"/><path d="M2285,356L2183,750L2314,1162Z" fill="#66988e" stroke="#66988e" stroke-width="1.51"/><path d="M2306,-267L2285,356L2314,1162Z" fill="#809785" stroke="#809785" stroke-width="1.51"/><path d="M1816,1321L1398,1432L2315,1273Z" fill="#1d7b73" stroke="#1d7b73" stroke-width="1.51"/><path d="M2314,1162L1917,1010L2315,1273Z" fill="#1c776e" stroke="#1c776e" stroke-width="1.51"/><path d="M1917,1010L1816,1321L2315,1273Z" fill="#1e7d75" stroke="#1e7d75" stroke-width="1.51"/><path d="M1937,-208L2286,-162L2306,-267Z" fill="#645d36" stroke="#645d36" stroke-width="1.51"/><path d="M629,-438L829,-395L1322,-424Z" fill="#ac8f75" stroke="#ac8f75" stroke-width="1.51"/><path d="M1918,659L1922,904L2183,750Z" fill="#70aca4" stroke="#70aca4" stroke-width="1.51"/><path d="M1918,659L2183,750L2184,432Z" fill="#7faaa4" stroke="#7faaa4" stroke-width="1.51"/><path d="M1798,430L1918,659L2184,432Z" fill="#91b7ae" stroke="#91b7ae" stroke-width="1.51"/><path d="M1841,189L1798,430L2184,432Z" fill="#95b49e" stroke="#95b49e" stroke-width="1.51"/><path d="M1581,1195L1614,1259L1816,1321Z" fill="#3e958c" stroke="#3e958c" stroke-width="1.51"/><path d="M1581,1195L1816,1321L1917,1010Z" fill="#38968e" stroke="#38968e" stroke-width="1.51"/><path d="M1918,659L1636,710L1922,904Z" fill="#7fbeb7" stroke="#7fbeb7" stroke-width="1.51"/><path d="M1759,-353L1862,-79L1937,-208Z" fill="#7a7750" stroke="#7a7750" stroke-width="1.51"/><path d="M1636,710L1581,1195L1917,1010Z" fill="#64b7ad" stroke="#64b7ad" stroke-width="1.51"/><path d="M1798,430L1636,710L1918,659Z" fill="#97c7c1" stroke="#97c7c1" stroke-width="1.51"/><path d="M1636,710L1917,1010L1922,904Z" fill="#69b5ac" stroke="#69b5ac" stroke-width="1.51"/><path d="M1384,943L1581,1195L1636,710Z" fill="#7ecbbf" stroke="#7ecbbf" stroke-width="1.51"/><path d="M1614,1259L1398,1432L1816,1321Z" fill="#3e9187" stroke="#3e9187" stroke-width="1.51"/><path d="M1530,389L1798,430L1841,189Z" fill="#a9c8b0" stroke="#a9c8b0" stroke-width="1.51"/><path d="M1545,38L1841,189L1862,-79Z" fill="#9ba47b" stroke="#9ba47b" stroke-width="1.51"/><path d="M1759,-353L1545,38L1862,-79Z" fill="#918c62" stroke="#918c62" stroke-width="1.51"/><path d="M1545,38L1530,389L1841,189Z" fill="#aec3a1" stroke="#aec3a1" stroke-width="1.51"/><path d="M1412,-43L1545,38L1759,-353Z" fill="#a29c6f" stroke="#a29c6f" stroke-width="1.51"/><path d="M1530,389L1636,710L1798,430Z" fill="#aed4cb" stroke="#aed4cb" stroke-width="1.51"/><path d="M1322,-424L1412,-43L1759,-353Z" fill="#988e67" stroke="#988e67" stroke-width="1.51"/><path d="M161,1264L-331,1318L756,1412Z" fill="#7e7f56" stroke="#7e7f56" stroke-width="1.51"/><path d="M1333,117L1530,389L1545,38Z" fill="#c0cfaa" stroke="#c0cfaa" stroke-width="1.51"/><path d="M1530,389L1411,448L1636,710Z" fill="#bde0d8" stroke="#bde0d8" stroke-width="1.51"/><path d="M1411,448L1384,943L1636,710Z" fill="#b0dfd8" stroke="#b0dfd8" stroke-width="1.51"/><path d="M1384,943L1370,1208L1581,1195Z" fill="#6db9b0" stroke="#6db9b0" stroke-width="1.51"/><path d="M1581,1195L1370,1208L1614,1259Z" fill="#55a79d" stroke="#55a79d" stroke-width="1.51"/><path d="M1370,1208L1398,1432L1614,1259Z" fill="#56a097" stroke="#56a097" stroke-width="1.51"/><path d="M1136,823L1384,943L1411,448Z" fill="#bfe7e1" stroke="#bfe7e1" stroke-width="1.51"/><path d="M1322,-424L1167,-180L1412,-43Z" fill="#b39e77" stroke="#b39e77" stroke-width="1.51"/><path d="M1333,117L1411,448L1530,389Z" fill="#cbdec5" stroke="#cbdec5" stroke-width="1.51"/><path d="M1412,-43L1333,117L1545,38Z" fill="#bebc90" stroke="#bebc90" stroke-width="1.51"/><path d="M1212,1182L1370,1208L1384,943Z" fill="#7dc0b8" stroke="#7dc0b8" stroke-width="1.51"/><path d="M1370,1208L1230,1398L1398,1432Z" fill="#64a199" stroke="#64a199" stroke-width="1.51"/><path d="M1333,117L986,385L1411,448Z" fill="#dfe7d0" stroke="#dfe7d0" stroke-width="1.51"/><path d="M1055,613L1136,823L1411,448Z" fill="#d8eeea" stroke="#d8eeea" stroke-width="1.51"/><path d="M1092,-13L1333,117L1412,-43Z" fill="#cec096" stroke="#cec096" stroke-width="1.51"/><path d="M1167,-180L1092,-13L1412,-43Z" fill="#ccb287" stroke="#ccb287" stroke-width="1.51"/><path d="M986,385L1055,613L1411,448Z" fill="#e6f0e8" stroke="#e6f0e8" stroke-width="1.51"/><path d="M-76,1267L-331,1318L161,1264Z" fill="#716c45" stroke="#716c45" stroke-width="1.51"/><path d="M1212,1182L1230,1398L1370,1208Z" fill="#73aea7" stroke="#73aea7" stroke-width="1.51"/><path d="M1136,823L1212,1182L1384,943Z" fill="#9dd5cd" stroke="#9dd5cd" stroke-width="1.51"/><path d="M603,1340L161,1264L756,1412Z" fill="#869b7b" stroke="#869b7b" stroke-width="1.51"/><path d="M1092,-13L986,385L1333,117Z" fill="#e1dab8" stroke="#e1dab8" stroke-width="1.51"/><path d="M1136,823L959,993L1212,1182Z" fill="#a6d6cf" stroke="#a6d6cf" stroke-width="1.51"/><path d="M829,-395L1167,-180L1322,-424Z" fill="#b19577" stroke="#b19577" stroke-width="1.51"/><path d="M876,139L986,385L1092,-13Z" fill="#ecddbd" stroke="#ecddbd" stroke-width="1.51"/><path d="M1212,1182L756,1412L1230,1398Z" fill="#7faba5" stroke="#7faba5" stroke-width="1.51"/><path d="M959,993L756,1412L1212,1182Z" fill="#95beb9" stroke="#95beb9" stroke-width="1.51"/><path d="M1055,613L927,694L1136,823Z" fill="#dbefec" stroke="#dbefec" stroke-width="1.51"/><path d="M829,-395L1092,-13L1167,-180Z" fill="#caa682" stroke="#caa682" stroke-width="1.51"/><path d="M829,-395L709,-7L1092,-13Z" fill="#d5ad82" stroke="#d5ad82" stroke-width="1.51"/><path d="M927,694L959,993L1136,823Z" fill="#cae8e2" stroke="#cae8e2" stroke-width="1.51"/><path d="M709,-7L876,139L1092,-13Z" fill="#e6c99e" stroke="#e6c99e" stroke-width="1.51"/><path d="M596,1220L756,1412L959,993Z" fill="#96b8a7" stroke="#96b8a7" stroke-width="1.51"/><path d="M748,502L927,694L986,385Z" fill="#f6f3ed" stroke="#f6f3ed" stroke-width="1.51"/><path d="M986,385L927,694L1055,613Z" fill="#f0f4f3" stroke="#f0f4f3" stroke-width="1.51"/><path d="M927,694L480,849L959,993Z" fill="#cee4d5" stroke="#cee4d5" stroke-width="1.51"/><path d="M876,139L748,502L986,385Z" fill="#f6ecd4" stroke="#f6ecd4" stroke-width="1.51"/><path d="M583,-137L709,-7L829,-395Z" fill="#cfa470" stroke="#cfa470" stroke-width="1.51"/><path d="M480,849L596,1220L959,993Z" fill="#b2d0b8" stroke="#b2d0b8" stroke-width="1.51"/><path d="M-113,-356L375,-318L629,-438Z" fill="#a07335" stroke="#a07335" stroke-width="1.51"/><path d="M550,445L748,502L876,139Z" fill="#f6e9ca" stroke="#f6e9ca" stroke-width="1.51"/><path d="M748,502L480,849L927,694Z" fill="#e6ecdb" stroke="#e6ecdb" stroke-width="1.51"/><path d="M629,-438L583,-137L829,-395Z" fill="#ba9364" stroke="#ba9364" stroke-width="1.51"/><path d="M709,-7L550,445L876,139Z" fill="#eedbac" stroke="#eedbac" stroke-width="1.51"/><path d="M596,1220L603,1340L756,1412Z" fill="#8ba68e" stroke="#8ba68e" stroke-width="1.51"/><path d="M417,382L550,445L709,-7Z" fill="#eed9a8" stroke="#eed9a8" stroke-width="1.51"/><path d="M550,445L480,849L748,502Z" fill="#ede7cf" stroke="#ede7cf" stroke-width="1.51"/><path d="M480,849L362,1136L596,1220Z" fill="#a5bc9a" stroke="#a5bc9a" stroke-width="1.51"/><path d="M583,-137L373,-127L709,-7Z" fill="#d4a866" stroke="#d4a866" stroke-width="1.51"/><path d="M373,-127L417,382L709,-7Z" fill="#e0bf7f" stroke="#e0bf7f" stroke-width="1.51"/><path d="M205,769L480,849L550,445Z" fill="#ddd9b5" stroke="#ddd9b5" stroke-width="1.51"/><path d="M375,-318L583,-137L629,-438Z" fill="#b78c54" stroke="#b78c54" stroke-width="1.51"/><path d="M417,382L151,614L550,445Z" fill="#ebd7ae" stroke="#ebd7ae" stroke-width="1.51"/><path d="M151,614L205,769L550,445Z" fill="#e2cfa9" stroke="#e2cfa9" stroke-width="1.51"/><path d="M375,-318L373,-127L583,-137Z" fill="#c19350" stroke="#c19350" stroke-width="1.51"/><path d="M596,1220L362,1136L603,1340Z" fill="#91a98b" stroke="#91a98b" stroke-width="1.51"/><path d="M362,1136L161,1264L603,1340Z" fill="#8c9e77" stroke="#8c9e77" stroke-width="1.51"/><path d="M373,-127L145,338L417,382Z" fill="#dfbe7c" stroke="#dfbe7c" stroke-width="1.51"/><path d="M-9,115L145,338L373,-127Z" fill="#d1a358" stroke="#d1a358" stroke-width="1.51"/><path d="M205,769L362,1136L480,849Z" fill="#bac49c" stroke="#bac49c" stroke-width="1.51"/><path d="M145,338L151,614L417,382Z" fill="#e5c697" stroke="#e5c697" stroke-width="1.51"/><path d="M205,769L161,1264L362,1136Z" fill="#a1a77d" stroke="#a1a77d" stroke-width="1.51"/><path d="M-113,-356L-116,-22L373,-127Z" fill="#ac6e20" stroke="#ac6e20" stroke-width="1.51"/><path d="M-113,-356L373,-127L375,-318Z" fill="#aa732c" stroke="#aa732c" stroke-width="1.51"/><path d="M-116,-22L-9,115L373,-127Z" fill="#c18635" stroke="#c18635" stroke-width="1.51"/><path d="M-134,1084L161,1264L205,769Z" fill="#9c986b" stroke="#9c986b" stroke-width="1.51"/><path d="M145,338L-72,622L151,614Z" fill="#ddb68c" stroke="#ddb68c" stroke-width="1.51"/><path d="M-134,1084L-76,1267L161,1264Z" fill="#7e7b51" stroke="#7e7b51" stroke-width="1.51"/><path d="M151,614L-65,770L205,769Z" fill="#ceb489" stroke="#ceb489" stroke-width="1.51"/><path d="M-65,770L-134,1084L205,769Z" fill="#afa277" stroke="#afa277" stroke-width="1.51"/><path d="M-72,622L-65,770L151,614Z" fill="#cbad85" stroke="#cbad85" stroke-width="1.51"/><path d="M-367,473L-72,622L-9,115Z" fill="#c89e6f" stroke="#c89e6f" stroke-width="1.51"/><path d="M-9,115L-72,622L145,338Z" fill="#d7ac74" stroke="#d7ac74" stroke-width="1.51"/><path d="M-244,-291L-283,-110L-116,-22Z" fill="#975d15" stroke="#975d15" stroke-width="1.51"/><path d="M-244,-291L-116,-22L-113,-356Z" fill="#92570f" stroke="#92570f" stroke-width="1.51"/><path d="M-116,-22L-386,224L-9,115Z" fill="#b5833e" stroke="#b5833e" stroke-width="1.51"/><path d="M-386,224L-367,473L-9,115Z" fill="#b88f58" stroke="#b88f58" stroke-width="1.51"/><path d="M-134,1084L-280,1211L-76,1267Z" fill="#75714b" stroke="#75714b" stroke-width="1.51"/><path d="M-409,955L-134,1084L-65,770Z" fill="#948c66" stroke="#948c66" stroke-width="1.51"/><path d="M-72,622L-367,473L-65,770Z" fill="#c09f7b" stroke="#c09f7b" stroke-width="1.51"/><path d="M-367,473L-409,955L-65,770Z" fill="#a99474" stroke="#a99474" stroke-width="1.51"/><path d="M-280,1211L-331,1318L-76,1267Z" fill="#666340" stroke="#666340" stroke-width="1.51"/><path d="M-283,-110L-386,224L-116,-22Z" fill="#a4712d" stroke="#a4712d" stroke-width="1.51"/><path d="M-409,955L-280,1211L-134,1084Z" fill="#767654" stroke="#767654" stroke-width="1.51"/><path d="M-386,224L-283,-110L-244,-291Z" fill="#98611a" stroke="#98611a" stroke-width="1.51"/><path d="M-409,955L-331,1318L-280,1211Z" fill="#656849" stroke="#656849" stroke-width="1.51"/><path d="M-386,224L-409,955L-367,473Z" fill="#af9177" stroke="#af9177" stroke-width="1.51"/></svg>