<svg xmlns="http://www.w3.org/2000/svg" width="1920" height="1080"><path d="M1980,1260L2100,1260L2100,1140Z" fill="#fff6ab" stroke="#fff6ab" stroke-width="1.51"/><path d="M1980,1140L1980,1260L2100,1140Z" fill="#fffbda" stroke="#fffbda" stroke-width="1.51"/><path d="M1980,1140L2100,1140L2100,1020Z" fill="#ffc6a5" stroke="#ffc6a5" stroke-width="1.51"/><path d="M1980,1020L1980,1140L2100,1020Z" fill="#ffada3" stroke="#ffada3" stroke-width="1.51"/><path d="M1980,1020L2100,1020L2100,900Z" fill="#ffc1a1" stroke="#ffc1a1" stroke-width="1.51"/><path d="M1980,900L1980,1020L2100,900Z" fill="#ffddc6" stroke="#ffddc6" stroke-width="1.51"/><path d="M1980,900L2100,900L2100,780Z" fill="#f0ebc6" stroke="#f0ebc6" stroke-width="1.51"/><path d="M1980,780L1980,900L2100,780Z" fill="#d9dcd5" stroke="#d9dcd5" stroke-width="1.51"/><path d="M1980,780L2100,780L2100,660Z" fill="#bfc5bf" stroke="#bfc5bf" stroke-width="1.51"/><path d="M1980,660L1980,780L2100,660Z" fill="#d1d6d3" stroke="#d1d6d3" stroke-width="1.51"/><path d="M1980,660L2100,660L2100,540Z" fill="#fdf5c8" stroke="#fdf5c8" stroke-width="1.51"/><path d="M1980,540L1980,660L2100,540Z" fill="#fce6d9" stroke="#fce6d9" stroke-width="1.51"/><path d="M1980,540L2100,540L2100,420Z" fill="#efacc1" stroke="#efacc1" stroke-width="1.51"/><path d="M1980,420L1980,540L2100,420Z" fill="#e99ed0" stroke="#e99ed0" stroke-width="1.51"/><path d="M1980,420L2100,420L2100,300Z" fill="#fad5c6" stroke="#fad5c6" stroke-width="1.51"/><path d="M1980,300L1980,420L2100,300Z" fill="#fef2da" stroke="#fef2da" stroke-width="1.51"/><path d="M1980,300L2100,300L2100,180Z" fill="#dffabc" stroke="#dffabc" stroke-width="1.51"/><path d="M1980,180L1980,300L2100,180Z" fill="#c6fcc6" stroke="#c6fcc6" stroke-width="1.51"/><path d="M1980,180L2100,180L2100,60Z" fill="#cffab6" stroke="#cffab6" stroke-width="1.51"/><path d="M1980,60L1980,180L2100,60Z" fill="#e3fbd0" stroke="#e3fbd0" stroke-width="1.51"/><path d="M1980,60L2100,60L2100,-60Z" fill="#fff0b6" stroke="#fff0b6" stroke-width="1.51"/><path d="M1980,-60L1980,60L2100,-60Z" fill="#ffe3a8" stroke="#ffe3a8" stroke-width="1.51"/><path d="M1980,-60L2100,-60L2100,-180Z" fill="#ffc657" stroke="#ffc657" stroke-width="1.51"/><path d="M1980,-180L1980,-60L2100,-180Z" fill="#ffd68b" stroke="#ffd68b" stroke-width="1.51"/><path d="M1860,1260L1980,1260L1980,1140Z" fill="#fffbe1" stroke="#fffbe1" stroke-width="1.51"/><path d="M1860,1140L1860,1260L1980,1140Z" fill="#ffeef0" stroke="#ffeef0" stroke-width="1.51"/><path d="M1860,1140L1980,1140L1980,1020Z" fill="#ffcad8" stroke="#ffcad8" stroke-width="1.51"/><path d="M1860,1020L1860,1140L1980,1020Z" fill="#ff9eb8" stroke="#ff9eb8" stroke-width="1.51"/><path d="M1860,1020L1980,1020L1980,900Z" fill="#ffc5d5" stroke="#ffc5d5" stroke-width="1.51"/><path d="M1860,900L1860,1020L1980,900Z" fill="#ffd0db" stroke="#ffd0db" stroke-width="1.51"/><path d="M1860,900L1980,900L1980,780Z" fill="#ecf0fb" stroke="#ecf0fb" stroke-width="1.51"/><path d="M1860,780L1860,900L1980,780Z" fill="#d7cfea" stroke="#d7cfea" stroke-width="1.51"/><path d="M1860,780L1980,780L1980,660Z" fill="#b7c9f2" stroke="#b7c9f2" stroke-width="1.51"/><path d="M1860,660L1860,780L1980,660Z" fill="#cfc9e9" stroke="#cfc9e9" stroke-width="1.51"/><path d="M1860,660L1980,660L1980,540Z" fill="#fafafe" stroke="#fafafe" stroke-width="1.51"/><path d="M1860,540L1860,660L1980,540Z" fill="#fad8ef" stroke="#fad8ef" stroke-width="1.51"/><path d="M1860,540L1980,540L1980,420Z" fill="#ebb1f4" stroke="#ebb1f4" stroke-width="1.51"/><path d="M1860,420L1860,540L1980,420Z" fill="#e58fe4" stroke="#e58fe4" stroke-width="1.51"/><path d="M1860,420L1980,420L1980,300Z" fill="#f7d9fa" stroke="#f7d9fa" stroke-width="1.51"/><path d="M1860,300L1860,420L1980,300Z" fill="#fde4f0" stroke="#fde4f0" stroke-width="1.51"/><path d="M1860,300L1980,300L1980,180Z" fill="#dbfef1" stroke="#dbfef1" stroke-width="1.51"/><path d="M1860,180L1860,300L1980,180Z" fill="#c7efdc" stroke="#c7efdc" stroke-width="1.51"/><path d="M1860,180L1980,180L1980,60Z" fill="#caffeb" stroke="#caffeb" stroke-width="1.51"/><path d="M1860,60L1860,180L1980,60Z" fill="#e2eee6" stroke="#e2eee6" stroke-width="1.51"/><path d="M1860,60L1980,60L1980,-60Z" fill="#fff5eb" stroke="#fff5eb" stroke-width="1.51"/><path d="M1860,-60L1860,60L1980,-60Z" fill="#ffd5bf" stroke="#ffd5bf" stroke-width="1.51"/><path d="M1860,-60L1980,-60L1980,-180Z" fill="#ffc98f" stroke="#ffc98f" stroke-width="1.51"/><path d="M1860,-180L1860,-60L1980,-180Z" fill="#ffc8a2" stroke="#ffc8a2" stroke-width="1.51"/><path d="M1740,1260L1860,1260L1860,1140Z" fill="#ffc8bc" stroke="#ffc8bc" stroke-width="1.51"/><path d="M1740,1140L1740,1260L1860,1140Z" fill="#ffb9ca" stroke="#ffb9ca" stroke-width="1.51"/><path d="M1740,1140L1860,1140L1860,1020Z" fill="#ff95b3" stroke="#ff95b3" stroke-width="1.51"/><path d="M1740,1020L1740,1140L1860,1020Z" fill="#ff6195" stroke="#ff6195" stroke-width="1.51"/><path d="M1740,1020L1860,1020L1860,900Z" fill="#ff90b0" stroke="#ff90b0" stroke-width="1.51"/><path d="M1740,900L1740,1020L1860,900Z" fill="#ff9ab7" stroke="#ff9ab7" stroke-width="1.51"/><path d="M1740,900L1860,900L1860,780Z" fill="#f1bdd5" stroke="#f1bdd5" stroke-width="1.51"/><path d="M1740,780L1740,900L1860,780Z" fill="#df9cc5" stroke="#df9cc5" stroke-width="1.51"/><path d="M1740,780L1860,780L1860,660Z" fill="#bf98cc" stroke="#bf98cc" stroke-width="1.51"/><path d="M1740,660L1740,780L1860,660Z" fill="#d796c3" stroke="#d796c3" stroke-width="1.51"/><path d="M1740,660L1860,660L1860,540Z" fill="#fec7d7" stroke="#fec7d7" stroke-width="1.51"/><path d="M1740,540L1740,660L1860,540Z" fill="#fea3c9" stroke="#fea3c9" stroke-width="1.51"/><path d="M1740,540L1860,540L1860,420Z" fill="#ea79ce" stroke="#ea79ce" stroke-width="1.51"/><path d="M1740,420L1740,540L1860,420Z" fill="#e550bf" stroke="#e550bf" stroke-width="1.51"/><path d="M1740,420L1860,420L1860,300Z" fill="#f8a5d4" stroke="#f8a5d4" stroke-width="1.51"/><path d="M1740,300L1740,420L1860,300Z" fill="#ffb0cb" stroke="#ffb0cb" stroke-width="1.51"/><path d="M1740,300L1860,300L1860,180Z" fill="#e3cdcb" stroke="#e3cdcb" stroke-width="1.51"/><path d="M1740,180L1740,300L1860,180Z" fill="#d4beb7" stroke="#d4beb7" stroke-width="1.51"/><path d="M1740,180L1860,180L1860,60Z" fill="#d4cec5" stroke="#d4cec5" stroke-width="1.51"/><path d="M1740,60L1740,180L1860,60Z" fill="#ebbbc1" stroke="#ebbbc1" stroke-width="1.51"/><path d="M1740,60L1860,60L1860,-60Z" fill="#ffc2c6" stroke="#ffc2c6" stroke-width="1.51"/><path d="M1740,-60L1740,60L1860,-60Z" fill="#ffa19b" stroke="#ffa19b" stroke-width="1.51"/><path d="M1740,-60L1860,-60L1860,-180Z" fill="#ff956d" stroke="#ff956d" stroke-width="1.51"/><path d="M1740,-180L1740,-60L1860,-180Z" fill="#ff9380" stroke="#ff9380" stroke-width="1.51"/><path d="M1620,1260L1740,1260L1740,1140Z" fill="#ffa8a6" stroke="#ffa8a6" stroke-width="1.51"/><path d="M1620,1140L1620,1260L1740,1140Z" fill="#ffbccc" stroke="#ffbccc" stroke-width="1.51"/><path d="M1620,1140L1740,1140L1740,1020Z" fill="#ff719e" stroke="#ff719e" stroke-width="1.51"/><path d="M1620,1020L1620,1140L1740,1020Z" fill="#ff6597" stroke="#ff6597" stroke-width="1.51"/><path d="M1620,1020L1740,1020L1740,900Z" fill="#ff6b9a" stroke="#ff6b9a" stroke-width="1.51"/><path d="M1620,900L1620,1020L1740,900Z" fill="#ff9db9" stroke="#ff9db9" stroke-width="1.51"/><path d="M1620,900L1740,900L1740,780Z" fill="#f69dbe" stroke="#f69dbe" stroke-width="1.51"/><path d="M1620,780L1620,900L1740,780Z" fill="#de9fc7" stroke="#de9fc7" stroke-width="1.51"/><path d="M1620,780L1740,780L1740,660Z" fill="#c679b5" stroke="#c679b5" stroke-width="1.51"/><path d="M1620,660L1620,780L1740,660Z" fill="#d799c5" stroke="#d799c5" stroke-width="1.51"/><path d="M1620,660L1740,660L1740,540Z" fill="#ffa7c1" stroke="#ffa7c1" stroke-width="1.51"/><path d="M1620,540L1620,660L1740,540Z" fill="#fea6cb" stroke="#fea6cb" stroke-width="1.51"/><path d="M1620,540L1740,540L1740,420Z" fill="#ec51b7" stroke="#ec51b7" stroke-width="1.51"/><path d="M1620,420L1620,540L1740,420Z" fill="#e555c1" stroke="#e555c1" stroke-width="1.51"/><path d="M1620,420L1740,420L1740,300Z" fill="#fb83bd" stroke="#fb83bd" stroke-width="1.51"/><path d="M1620,300L1620,420L1740,300Z" fill="#ffb3cd" stroke="#ffb3cd" stroke-width="1.51"/><path d="M1620,300L1740,300L1740,180Z" fill="#eaaeb5" stroke="#eaaeb5" stroke-width="1.51"/><path d="M1620,180L1620,300L1740,180Z" fill="#d3c1b9" stroke="#d3c1b9" stroke-width="1.51"/><path d="M1620,180L1740,180L1740,60Z" fill="#ddb0af" stroke="#ddb0af" stroke-width="1.51"/><path d="M1620,60L1620,180L1740,60Z" fill="#ebbfc3" stroke="#ebbfc3" stroke-width="1.51"/><path d="M1620,60L1740,60L1740,-60Z" fill="#ffa2b0" stroke="#ffa2b0" stroke-width="1.51"/><path d="M1620,-60L1620,60L1740,-60Z" fill="#ffa49d" stroke="#ffa49d" stroke-width="1.51"/><path d="M1620,-60L1740,-60L1740,-180Z" fill="#ff7359" stroke="#ff7359" stroke-width="1.51"/><path d="M1620,-180L1620,-60L1740,-180Z" fill="#ff9682" stroke="#ff9682" stroke-width="1.51"/><path d="M1500,1260L1620,1260L1620,1140Z" fill="#ffdcca" stroke="#ffdcca" stroke-width="1.51"/><path d="M1500,1140L1500,1260L1620,1140Z" fill="#fff1f2" stroke="#fff1f2" stroke-width="1.51"/><path d="M1500,1140L1620,1140L1620,1020Z" fill="#ffabc2" stroke="#ffabc2" stroke-width="1.51"/><path d="M1500,1020L1500,1140L1620,1020Z" fill="#ffa1bb" stroke="#ffa1bb" stroke-width="1.51"/><path d="M1500,1020L1620,1020L1620,900Z" fill="#ffa6be" stroke="#ffa6be" stroke-width="1.51"/><path d="M1500,900L1500,1020L1620,900Z" fill="#ffd3de" stroke="#ffd3de" stroke-width="1.51"/><path d="M1500,900L1620,900L1620,780Z" fill="#eed1e4" stroke="#eed1e4" stroke-width="1.51"/><path d="M1500,780L1500,900L1620,780Z" fill="#d7d2ed" stroke="#d7d2ed" stroke-width="1.51"/><path d="M1500,780L1620,780L1620,660Z" fill="#bbacdb" stroke="#bbacdb" stroke-width="1.51"/><path d="M1500,660L1500,780L1620,660Z" fill="#cfcceb" stroke="#cfcceb" stroke-width="1.51"/><path d="M1500,660L1620,660L1620,540Z" fill="#fbdbe6" stroke="#fbdbe6" stroke-width="1.51"/><path d="M1500,540L1500,660L1620,540Z" fill="#fadbf1" stroke="#fadbf1" stroke-width="1.51"/><path d="M1500,540L1620,540L1620,420Z" fill="#ea90dd" stroke="#ea90dd" stroke-width="1.51"/><path d="M1500,420L1500,540L1620,420Z" fill="#e593e7" stroke="#e593e7" stroke-width="1.51"/><path d="M1500,420L1620,420L1620,300Z" fill="#f7bae3" stroke="#f7bae3" stroke-width="1.51"/><path d="M1500,300L1500,420L1620,300Z" fill="#fde7f3" stroke="#fde7f3" stroke-width="1.51"/><path d="M1500,300L1620,300L1620,180Z" fill="#dfe0da" stroke="#dfe0da" stroke-width="1.51"/><path d="M1500,180L1500,300L1620,180Z" fill="#c6f2de" stroke="#c6f2de" stroke-width="1.51"/><path d="M1500,180L1620,180L1620,60Z" fill="#cfe1d4" stroke="#cfe1d4" stroke-width="1.51"/><path d="M1500,60L1500,180L1620,60Z" fill="#e2f1e9" stroke="#e2f1e9" stroke-width="1.51"/><path d="M1500,60L1620,60L1620,-60Z" fill="#ffd6d5" stroke="#ffd6d5" stroke-width="1.51"/><path d="M1500,-60L1500,60L1620,-60Z" fill="#ffd8c1" stroke="#ffd8c1" stroke-width="1.51"/><path d="M1500,-60L1620,-60L1620,-180Z" fill="#ffaa7b" stroke="#ffaa7b" stroke-width="1.51"/><path d="M1500,-180L1500,-60L1620,-180Z" fill="#ffcba5" stroke="#ffcba5" stroke-width="1.51"/><path d="M1380,1260L1500,1260L1500,1140Z" fill="#f0f0df" stroke="#f0f0df" stroke-width="1.51"/><path d="M1380,1140L1380,1260L1500,1140Z" fill="#e0e8f8" stroke="#e0e8f8" stroke-width="1.51"/><path d="M1380,1140L1500,1140L1500,1020Z" fill="#f3c0d6" stroke="#f3c0d6" stroke-width="1.51"/><path d="M1380,1020L1380,1140L1500,1020Z" fill="#ea9bc0" stroke="#ea9bc0" stroke-width="1.51"/><path d="M1380,1020L1500,1020L1500,900Z" fill="#f3bbd2" stroke="#f3bbd2" stroke-width="1.51"/><path d="M1380,900L1380,1020L1500,900Z" fill="#e3cbe3" stroke="#e3cbe3" stroke-width="1.51"/><path d="M1380,900L1500,900L1500,780Z" fill="#dce5f9" stroke="#dce5f9" stroke-width="1.51"/><path d="M1380,780L1380,900L1500,780Z" fill="#b6caf2" stroke="#b6caf2" stroke-width="1.51"/><path d="M1380,780L1500,780L1500,660Z" fill="#a5bfef" stroke="#a5bfef" stroke-width="1.51"/><path d="M1380,660L1380,780L1500,660Z" fill="#adc4f1" stroke="#adc4f1" stroke-width="1.51"/><path d="M1380,660L1500,660L1500,540Z" fill="#eaeffb" stroke="#eaeffb" stroke-width="1.51"/><path d="M1380,540L1380,660L1500,540Z" fill="#dcd3f6" stroke="#dcd3f6" stroke-width="1.51"/><path d="M1380,540L1500,540L1500,420Z" fill="#dba6f1" stroke="#dba6f1" stroke-width="1.51"/><path d="M1380,420L1380,540L1500,420Z" fill="#c88dec" stroke="#c88dec" stroke-width="1.51"/><path d="M1380,420L1500,420L1500,300Z" fill="#e7cef7" stroke="#e7cef7" stroke-width="1.51"/><path d="M1380,300L1380,420L1500,300Z" fill="#dedff9" stroke="#dedff9" stroke-width="1.51"/><path d="M1380,300L1500,300L1500,180Z" fill="#caf3ef" stroke="#caf3ef" stroke-width="1.51"/><path d="M1380,180L1380,300L1500,180Z" fill="#a3e9e4" stroke="#a3e9e4" stroke-width="1.51"/><path d="M1380,180L1500,180L1500,60Z" fill="#b9f4e9" stroke="#b9f4e9" stroke-width="1.51"/><path d="M1380,60L1380,180L1500,60Z" fill="#c1e9ee" stroke="#c1e9ee" stroke-width="1.51"/><path d="M1380,60L1500,60L1500,-60Z" fill="#efeae9" stroke="#efeae9" stroke-width="1.51"/><path d="M1380,-60L1380,60L1500,-60Z" fill="#e5d0c7" stroke="#e5d0c7" stroke-width="1.51"/><path d="M1380,-60L1500,-60L1500,-180Z" fill="#fbbf8e" stroke="#fbbf8e" stroke-width="1.51"/><path d="M1380,-180L1380,-60L1500,-180Z" fill="#e9c3ab" stroke="#e9c3ab" stroke-width="1.51"/><path d="M1260,1260L1380,1260L1380,1140Z" fill="#c7d0d8" stroke="#c7d0d8" stroke-width="1.51"/><path d="M1260,1140L1260,1260L1380,1140Z" fill="#b4c9f1" stroke="#b4c9f1" stroke-width="1.51"/><path d="M1260,1140L1380,1140L1380,1020Z" fill="#caa1cf" stroke="#caa1cf" stroke-width="1.51"/><path d="M1260,1020L1260,1140L1380,1020Z" fill="#c27db9" stroke="#c27db9" stroke-width="1.51"/><path d="M1260,1020L1380,1020L1380,900Z" fill="#cb9ccb" stroke="#cb9ccb" stroke-width="1.51"/><path d="M1260,900L1260,1020L1380,900Z" fill="#b8acdc" stroke="#b8acdc" stroke-width="1.51"/><path d="M1260,900L1380,900L1380,780Z" fill="#afc5f1" stroke="#afc5f1" stroke-width="1.51"/><path d="M1260,780L1260,900L1380,780Z" fill="#86acea" stroke="#86acea" stroke-width="1.51"/><path d="M1260,780L1380,780L1380,660Z" fill="#72a1e8" stroke="#72a1e8" stroke-width="1.51"/><path d="M1260,660L1260,780L1380,660Z" fill="#7ca6e9" stroke="#7ca6e9" stroke-width="1.51"/><path d="M1260,660L1380,660L1380,540Z" fill="#becff4" stroke="#becff4" stroke-width="1.51"/><path d="M1260,540L1260,660L1380,540Z" fill="#afb4ef" stroke="#afb4ef" stroke-width="1.51"/><path d="M1260,540L1380,540L1380,420Z" fill="#af89e9" stroke="#af89e9" stroke-width="1.51"/><path d="M1260,420L1260,540L1380,420Z" fill="#9a70e3" stroke="#9a70e3" stroke-width="1.51"/><path d="M1260,420L1380,420L1380,300Z" fill="#bbb0f0" stroke="#bbb0f0" stroke-width="1.51"/><path d="M1260,300L1260,420L1380,300Z" fill="#b2c0f1" stroke="#b2c0f1" stroke-width="1.51"/><path d="M1260,300L1380,300L1380,180Z" fill="#9dd3e8" stroke="#9dd3e8" stroke-width="1.51"/><path d="M1260,180L1260,300L1380,180Z" fill="#70cadd" stroke="#70cadd" stroke-width="1.51"/><path d="M1260,180L1380,180L1380,60Z" fill="#8ad4e2" stroke="#8ad4e2" stroke-width="1.51"/><path d="M1260,60L1260,180L1380,60Z" fill="#93c9e7" stroke="#93c9e7" stroke-width="1.51"/><path d="M1260,60L1380,60L1380,-60Z" fill="#c5cae2" stroke="#c5cae2" stroke-width="1.51"/><path d="M1260,-60L1260,60L1380,-60Z" fill="#bdb1c1" stroke="#bdb1c1" stroke-width="1.51"/><path d="M1260,-60L1380,-60L1380,-180Z" fill="#d6a08a" stroke="#d6a08a" stroke-width="1.51"/><path d="M1260,-180L1260,-60L1380,-180Z" fill="#c3a4a5" stroke="#c3a4a5" stroke-width="1.51"/><path d="M1140,1260L1260,1260L1260,1140Z" fill="#ccd4d9" stroke="#ccd4d9" stroke-width="1.51"/><path d="M1140,1140L1140,1260L1260,1140Z" fill="#d7e2f7" stroke="#d7e2f7" stroke-width="1.51"/><path d="M1140,1140L1260,1140L1260,1020Z" fill="#cfa5d0" stroke="#cfa5d0" stroke-width="1.51"/><path d="M1140,1020L1140,1140L1260,1020Z" fill="#e294bf" stroke="#e294bf" stroke-width="1.51"/><path d="M1140,1020L1260,1020L1260,900Z" fill="#d0a0cc" stroke="#d0a0cc" stroke-width="1.51"/><path d="M1140,900L1140,1020L1260,900Z" fill="#dac4e2" stroke="#dac4e2" stroke-width="1.51"/><path d="M1140,900L1260,900L1260,780Z" fill="#b4caf2" stroke="#b4caf2" stroke-width="1.51"/><path d="M1140,780L1140,900L1260,780Z" fill="#adc4f1" stroke="#adc4f1" stroke-width="1.51"/><path d="M1140,780L1260,780L1260,660Z" fill="#78a5e9" stroke="#78a5e9" stroke-width="1.51"/><path d="M1140,660L1140,780L1260,660Z" fill="#a4beef" stroke="#a4beef" stroke-width="1.51"/><path d="M1140,660L1260,660L1260,540Z" fill="#c3d3f5" stroke="#c3d3f5" stroke-width="1.51"/><path d="M1140,540L1140,660L1260,540Z" fill="#d3cdf5" stroke="#d3cdf5" stroke-width="1.51"/><path d="M1140,540L1260,540L1260,420Z" fill="#b48dea" stroke="#b48dea" stroke-width="1.51"/><path d="M1140,420L1140,540L1260,420Z" fill="#bf87ea" stroke="#bf87ea" stroke-width="1.51"/><path d="M1140,420L1260,420L1260,300Z" fill="#c0b4f0" stroke="#c0b4f0" stroke-width="1.51"/><path d="M1140,300L1140,420L1260,300Z" fill="#d5d9f7" stroke="#d5d9f7" stroke-width="1.51"/><path d="M1140,300L1260,300L1260,180Z" fill="#a2d8e9" stroke="#a2d8e9" stroke-width="1.51"/><path d="M1140,180L1140,300L1260,180Z" fill="#99e3e3" stroke="#99e3e3" stroke-width="1.51"/><path d="M1140,180L1260,180L1260,60Z" fill="#90d8e3" stroke="#90d8e3" stroke-width="1.51"/><path d="M1140,60L1140,180L1260,60Z" fill="#b8e2ed" stroke="#b8e2ed" stroke-width="1.51"/><path d="M1140,60L1260,60L1260,-60Z" fill="#cacee3" stroke="#cacee3" stroke-width="1.51"/><path d="M1140,-60L1140,60L1260,-60Z" fill="#ddcac6" stroke="#ddcac6" stroke-width="1.51"/><path d="M1140,-60L1260,-60L1260,-180Z" fill="#dba48a" stroke="#dba48a" stroke-width="1.51"/><path d="M1140,-180L1140,-60L1260,-180Z" fill="#e1bdaa" stroke="#e1bdaa" stroke-width="1.51"/><path d="M1020,1260L1140,1260L1140,1140Z" fill="#f5f3e0" stroke="#f5f3e0" stroke-width="1.51"/><path d="M1020,1140L1020,1260L1140,1140Z" fill="#fefbfd" stroke="#fefbfd" stroke-width="1.51"/><path d="M1020,1140L1140,1140L1140,1020Z" fill="#f8c3d7" stroke="#f8c3d7" stroke-width="1.51"/><path d="M1020,1020L1020,1140L1140,1020Z" fill="#ffacc5" stroke="#ffacc5" stroke-width="1.51"/><path d="M1020,1020L1140,1020L1140,900Z" fill="#f9bed3" stroke="#f9bed3" stroke-width="1.51"/><path d="M1020,900L1020,1020L1140,900Z" fill="#ffdde8" stroke="#ffdde8" stroke-width="1.51"/><path d="M1020,900L1140,900L1140,780Z" fill="#e1e8fa" stroke="#e1e8fa" stroke-width="1.51"/><path d="M1020,780L1020,900L1140,780Z" fill="#d5ddf7" stroke="#d5ddf7" stroke-width="1.51"/><path d="M1020,780L1140,780L1140,660Z" fill="#abc2f0" stroke="#abc2f0" stroke-width="1.51"/><path d="M1020,660L1020,780L1140,660Z" fill="#cdd6f6" stroke="#cdd6f6" stroke-width="1.51"/><path d="M1020,660L1140,660L1140,540Z" fill="#eff2fc" stroke="#eff2fc" stroke-width="1.51"/><path d="M1020,540L1020,660L1140,540Z" fill="#f9e6fc" stroke="#f9e6fc" stroke-width="1.51"/><path d="M1020,540L1140,540L1140,420Z" fill="#e0aaf2" stroke="#e0aaf2" stroke-width="1.51"/><path d="M1020,420L1020,540L1140,420Z" fill="#e59ef1" stroke="#e59ef1" stroke-width="1.51"/><path d="M1020,420L1140,420L1140,300Z" fill="#ecd2f8" stroke="#ecd2f8" stroke-width="1.51"/><path d="M1020,300L1020,420L1140,300Z" fill="#fcf2fe" stroke="#fcf2fe" stroke-width="1.51"/><path d="M1020,300L1140,300L1140,180Z" fill="#d0f7f0" stroke="#d0f7f0" stroke-width="1.51"/><path d="M1020,180L1020,300L1140,180Z" fill="#c3fce9" stroke="#c3fce9" stroke-width="1.51"/><path d="M1020,180L1140,180L1140,60Z" fill="#bef7ea" stroke="#bef7ea" stroke-width="1.51"/><path d="M1020,60L1020,180L1140,60Z" fill="#e0fbf3" stroke="#e0fbf3" stroke-width="1.51"/><path d="M1020,60L1140,60L1140,-60Z" fill="#f5edea" stroke="#f5edea" stroke-width="1.51"/><path d="M1020,-60L1020,60L1140,-60Z" fill="#ffe3cc" stroke="#ffe3cc" stroke-width="1.51"/><path d="M1020,-60L1140,-60L1140,-180Z" fill="#ffc28f" stroke="#ffc28f" stroke-width="1.51"/><path d="M1020,-180L1020,-60L1140,-180Z" fill="#ffd5af" stroke="#ffd5af" stroke-width="1.51"/><path d="M900,1260L1020,1260L1020,1140Z" fill="#f7d4dd" stroke="#f7d4dd" stroke-width="1.51"/><path d="M900,1140L900,1260L1020,1140Z" fill="#f1c4f6" stroke="#f1c4f6" stroke-width="1.51"/><path d="M900,1140L1020,1140L1020,1020Z" fill="#f6a2d4" stroke="#f6a2d4" stroke-width="1.51"/><path d="M900,1020L900,1140L1020,1020Z" fill="#f370be" stroke="#f370be" stroke-width="1.51"/><path d="M900,1020L1020,1020L1020,900Z" fill="#f79dd0" stroke="#f79dd0" stroke-width="1.51"/><path d="M900,900L900,1020L1020,900Z" fill="#f0a6e1" stroke="#f0a6e1" stroke-width="1.51"/><path d="M900,900L1020,900L1020,780Z" fill="#e3c9f6" stroke="#e3c9f6" stroke-width="1.51"/><path d="M900,780L900,900L1020,780Z" fill="#c8a7ef" stroke="#c8a7ef" stroke-width="1.51"/><path d="M900,780L1020,780L1020,660Z" fill="#ada4ed" stroke="#ada4ed" stroke-width="1.51"/><path d="M900,660L900,780L1020,660Z" fill="#bfa2ee" stroke="#bfa2ee" stroke-width="1.51"/><path d="M900,660L1020,660L1020,540Z" fill="#f1d3f9" stroke="#f1d3f9" stroke-width="1.51"/><path d="M900,540L900,660L1020,540Z" fill="#eaaff4" stroke="#eaaff4" stroke-width="1.51"/><path d="M900,540L1020,540L1020,420Z" fill="#de88ee" stroke="#de88ee" stroke-width="1.51"/><path d="M900,420L900,540L1020,420Z" fill="#d162e8" stroke="#d162e8" stroke-width="1.51"/><path d="M900,420L1020,420L1020,300Z" fill="#ecb2f5" stroke="#ecb2f5" stroke-width="1.51"/><path d="M900,300L900,420L1020,300Z" fill="#eebbf6" stroke="#eebbf6" stroke-width="1.51"/><path d="M900,300L1020,300L1020,180Z" fill="#d4d8ec" stroke="#d4d8ec" stroke-width="1.51"/><path d="M900,180L900,300L1020,180Z" fill="#bbc8e2" stroke="#bbc8e2" stroke-width="1.51"/><path d="M900,180L1020,180L1020,60Z" fill="#c4d9e7" stroke="#c4d9e7" stroke-width="1.51"/><path d="M900,60L900,180L1020,60Z" fill="#d5c6ec" stroke="#d5c6ec" stroke-width="1.51"/><path d="M900,60L1020,60L1020,-60Z" fill="#f6cee7" stroke="#f6cee7" stroke-width="1.51"/><path d="M900,-60L900,60L1020,-60Z" fill="#f2acc5" stroke="#f2acc5" stroke-width="1.51"/><path d="M900,-60L1020,-60L1020,-180Z" fill="#fea18e" stroke="#fea18e" stroke-width="1.51"/><path d="M900,-180L900,-60L1020,-180Z" fill="#f59eaa" stroke="#f59eaa" stroke-width="1.51"/><path d="M780,1260L900,1260L900,1140Z" fill="#e89dd6" stroke="#e89dd6" stroke-width="1.51"/><path d="M780,1140L780,1260L900,1140Z" fill="#e9aaf2" stroke="#e9aaf2" stroke-width="1.51"/><path d="M780,1140L900,1140L900,1020Z" fill="#e366cc" stroke="#e366cc" stroke-width="1.51"/><path d="M780,1020L780,1140L900,1020Z" fill="#e94eba" stroke="#e94eba" stroke-width="1.51"/><path d="M780,1020L900,1020L900,900Z" fill="#e35fc8" stroke="#e35fc8" stroke-width="1.51"/><path d="M780,900L780,1020L900,900Z" fill="#e78add" stroke="#e78add" stroke-width="1.51"/><path d="M780,900L900,900L900,780Z" fill="#d393ee" stroke="#d393ee" stroke-width="1.51"/><path d="M780,780L780,900L900,780Z" fill="#c08eeb" stroke="#c08eeb" stroke-width="1.51"/><path d="M780,780L900,780L900,660Z" fill="#9c6fe4" stroke="#9c6fe4" stroke-width="1.51"/><path d="M780,660L780,780L900,660Z" fill="#b788e9" stroke="#b788e9" stroke-width="1.51"/><path d="M780,660L900,660L900,540Z" fill="#e19cf1" stroke="#e19cf1" stroke-width="1.51"/><path d="M780,540L780,660L900,540Z" fill="#e294f0" stroke="#e294f0" stroke-width="1.51"/><path d="M780,540L900,540L900,420Z" fill="#c947e5" stroke="#c947e5" stroke-width="1.51"/><path d="M780,420L780,540L900,420Z" fill="#c73ee4" stroke="#c73ee4" stroke-width="1.51"/><path d="M780,420L900,420L900,300Z" fill="#d978ec" stroke="#d978ec" stroke-width="1.51"/><path d="M780,300L780,420L900,300Z" fill="#e6a1f2" stroke="#e6a1f2" stroke-width="1.51"/><path d="M780,300L900,300L900,180Z" fill="#c7a3e5" stroke="#c7a3e5" stroke-width="1.51"/><path d="M780,180L780,300L900,180Z" fill="#b6afde" stroke="#b6afde" stroke-width="1.51"/><path d="M780,180L900,180L900,60Z" fill="#b9a5df" stroke="#b9a5df" stroke-width="1.51"/><path d="M780,60L780,180L900,60Z" fill="#cfade8" stroke="#cfade8" stroke-width="1.51"/><path d="M780,60L900,60L900,-60Z" fill="#e696e0" stroke="#e696e0" stroke-width="1.51"/><path d="M780,-60L780,60L900,-60Z" fill="#ea91c2" stroke="#ea91c2" stroke-width="1.51"/><path d="M780,-60L900,-60L900,-180Z" fill="#ec6589" stroke="#ec6589" stroke-width="1.51"/><path d="M780,-180L780,-60L900,-180Z" fill="#ed83a7" stroke="#ed83a7" stroke-width="1.51"/><path d="M660,1260L780,1260L780,1140Z" fill="#f5ccdc" stroke="#f5ccdc" stroke-width="1.51"/><path d="M660,1140L660,1260L780,1140Z" fill="#f8e1fa" stroke="#f8e1fa" stroke-width="1.51"/><path d="M660,1140L780,1140L780,1020Z" fill="#f499d2" stroke="#f499d2" stroke-width="1.51"/><path d="M660,1020L660,1140L780,1020Z" fill="#fd90c2" stroke="#fd90c2" stroke-width="1.51"/><path d="M660,1020L780,1020L780,900Z" fill="#f494cf" stroke="#f494cf" stroke-width="1.51"/><path d="M660,900L660,1020L780,900Z" fill="#f8c2e5" stroke="#f8c2e5" stroke-width="1.51"/><path d="M660,900L780,900L780,780Z" fill="#e1c1f5" stroke="#e1c1f5" stroke-width="1.51"/><path d="M660,780L660,900L780,780Z" fill="#cfc3f3" stroke="#cfc3f3" stroke-width="1.51"/><path d="M660,780L780,780L780,660Z" fill="#ab9ceb" stroke="#ab9ceb" stroke-width="1.51"/><path d="M660,660L660,780L780,660Z" fill="#c7bdf2" stroke="#c7bdf2" stroke-width="1.51"/><path d="M660,660L780,660L780,540Z" fill="#efcbf7" stroke="#efcbf7" stroke-width="1.51"/><path d="M660,540L660,660L780,540Z" fill="#f3cbf8" stroke="#f3cbf8" stroke-width="1.51"/><path d="M660,540L780,540L780,420Z" fill="#db7fed" stroke="#db7fed" stroke-width="1.51"/><path d="M660,420L660,540L780,420Z" fill="#dc82ed" stroke="#dc82ed" stroke-width="1.51"/><path d="M660,420L780,420L780,300Z" fill="#e9a9f3" stroke="#e9a9f3" stroke-width="1.51"/><path d="M660,300L660,420L780,300Z" fill="#f6d8fa" stroke="#f6d8fa" stroke-width="1.51"/><path d="M660,300L780,300L780,180Z" fill="#d2d0eb" stroke="#d2d0eb" stroke-width="1.51"/><path d="M660,180L660,300L780,180Z" fill="#c0e3e6" stroke="#c0e3e6" stroke-width="1.51"/><path d="M660,180L780,180L780,60Z" fill="#c3d1e5" stroke="#c3d1e5" stroke-width="1.51"/><path d="M660,60L660,180L780,60Z" fill="#dbe2f0" stroke="#dbe2f0" stroke-width="1.51"/><path d="M660,60L780,60L780,-60Z" fill="#f4c5e6" stroke="#f4c5e6" stroke-width="1.51"/><path d="M660,-60L660,60L780,-60Z" fill="#fac8c9" stroke="#fac8c9" stroke-width="1.51"/><path d="M660,-60L780,-60L780,-180Z" fill="#fc998d" stroke="#fc998d" stroke-width="1.51"/><path d="M660,-180L660,-60L780,-180Z" fill="#fdbbad" stroke="#fdbbad" stroke-width="1.51"/><path d="M540,1260L660,1260L660,1140Z" fill="#fbfce0" stroke="#fbfce0" stroke-width="1.51"/><path d="M540,1140L540,1260L660,1140Z" fill="#edfff6" stroke="#edfff6" stroke-width="1.51"/><path d="M540,1140L660,1140L660,1020Z" fill="#feccd7" stroke="#feccd7" stroke-width="1.51"/><path d="M540,1020L540,1140L660,1020Z" fill="#f7b2bf" stroke="#f7b2bf" stroke-width="1.51"/><path d="M540,1020L660,1020L660,900Z" fill="#ffc7d4" stroke="#ffc7d4" stroke-width="1.51"/><path d="M540,900L540,1020L660,900Z" fill="#efe2e2" stroke="#efe2e2" stroke-width="1.51"/><path d="M540,900L660,900L660,780Z" fill="#e8f1fa" stroke="#e8f1fa" stroke-width="1.51"/><path d="M540,780L540,900L660,780Z" fill="#c3e1f1" stroke="#c3e1f1" stroke-width="1.51"/><path d="M540,780L660,780L660,660Z" fill="#b2caf1" stroke="#b2caf1" stroke-width="1.51"/><path d="M540,660L540,780L660,660Z" fill="#bbdaef" stroke="#bbdaef" stroke-width="1.51"/><path d="M540,660L660,660L660,540Z" fill="#f6fbfd" stroke="#f6fbfd" stroke-width="1.51"/><path d="M540,540L540,660L660,540Z" fill="#e9eaf5" stroke="#e9eaf5" stroke-width="1.51"/><path d="M540,540L660,540L660,420Z" fill="#e7b2f3" stroke="#e7b2f3" stroke-width="1.51"/><path d="M540,420L540,540L660,420Z" fill="#d7a4eb" stroke="#d7a4eb" stroke-width="1.51"/><path d="M540,420L660,420L660,300Z" fill="#f3daf9" stroke="#f3daf9" stroke-width="1.51"/><path d="M540,300L540,420L660,300Z" fill="#ebf6f7" stroke="#ebf6f7" stroke-width="1.51"/><path d="M540,300L660,300L660,180Z" fill="#d6fff0" stroke="#d6fff0" stroke-width="1.51"/><path d="M540,180L540,300L660,180Z" fill="#aeffe2" stroke="#aeffe2" stroke-width="1.51"/><path d="M540,180L660,180L660,60Z" fill="#c5ffea" stroke="#c5ffea" stroke-width="1.51"/><path d="M540,60L540,180L660,60Z" fill="#cdffec" stroke="#cdffec" stroke-width="1.51"/><path d="M540,60L660,60L660,-60Z" fill="#fbf6ea" stroke="#fbf6ea" stroke-width="1.51"/><path d="M540,-60L540,60L660,-60Z" fill="#f1e7c5" stroke="#f1e7c5" stroke-width="1.51"/><path d="M540,-60L660,-60L660,-180Z" fill="#ffcb8e" stroke="#ffcb8e" stroke-width="1.51"/><path d="M540,-180L540,-60L660,-180Z" fill="#f5daa8" stroke="#f5daa8" stroke-width="1.51"/><path d="M420,1260L540,1260L540,1140Z" fill="#d2fdd0" stroke="#d2fdd0" stroke-width="1.51"/><path d="M420,1140L420,1260L540,1140Z" fill="#c0ffe7" stroke="#c0ffe7" stroke-width="1.51"/><path d="M420,1140L540,1140L540,1020Z" fill="#d9cec8" stroke="#d9cec8" stroke-width="1.51"/><path d="M420,1020L420,1140L540,1020Z" fill="#d4b6b0" stroke="#d4b6b0" stroke-width="1.51"/><path d="M420,1020L540,1020L540,900Z" fill="#dac9c4" stroke="#dac9c4" stroke-width="1.51"/><path d="M420,900L420,1020L540,900Z" fill="#c7e4d3" stroke="#c7e4d3" stroke-width="1.51"/><path d="M420,900L540,900L540,780Z" fill="#bcf2ea" stroke="#bcf2ea" stroke-width="1.51"/><path d="M420,780L420,900L540,780Z" fill="#94e2e1" stroke="#94e2e1" stroke-width="1.51"/><path d="M420,780L540,780L540,660Z" fill="#83cbe2" stroke="#83cbe2" stroke-width="1.51"/><path d="M420,660L420,780L540,660Z" fill="#8bdbe0" stroke="#8bdbe0" stroke-width="1.51"/><path d="M420,660L540,660L540,540Z" fill="#cbfcec" stroke="#cbfcec" stroke-width="1.51"/><path d="M420,540L420,660L540,540Z" fill="#beece6" stroke="#beece6" stroke-width="1.51"/><path d="M420,540L540,540L540,420Z" fill="#c2b5e3" stroke="#c2b5e3" stroke-width="1.51"/><path d="M420,420L420,540L540,420Z" fill="#b1a8dc" stroke="#b1a8dc" stroke-width="1.51"/><path d="M420,420L540,420L540,300Z" fill="#cbdce9" stroke="#cbdce9" stroke-width="1.51"/><path d="M420,300L420,420L540,300Z" fill="#bff8e7" stroke="#bff8e7" stroke-width="1.51"/><path d="M420,300L540,300L540,180Z" fill="#a6ffe0" stroke="#a6ffe0" stroke-width="1.51"/><path d="M420,180L420,300L540,180Z" fill="#74ffd3" stroke="#74ffd3" stroke-width="1.51"/><path d="M420,180L540,180L540,60Z" fill="#92ffda" stroke="#92ffda" stroke-width="1.51"/><path d="M420,60L420,180L540,60Z" fill="#9cffdd" stroke="#9cffdd" stroke-width="1.51"/><path d="M420,60L540,60L540,-60Z" fill="#d2f7da" stroke="#d2f7da" stroke-width="1.51"/><path d="M420,-60L420,60L540,-60Z" fill="#c8e9b6" stroke="#c8e9b6" stroke-width="1.51"/><path d="M420,-60L540,-60L540,-180Z" fill="#e2cd7f" stroke="#e2cd7f" stroke-width="1.51"/><path d="M420,-180L420,-60L540,-180Z" fill="#cedc99" stroke="#cedc99" stroke-width="1.51"/><path d="M300,1260L420,1260L420,1140Z" fill="#befdc9" stroke="#befdc9" stroke-width="1.51"/><path d="M300,1140L300,1260L420,1140Z" fill="#ccffea" stroke="#ccffea" stroke-width="1.51"/><path d="M300,1140L420,1140L420,1020Z" fill="#c8cfc1" stroke="#c8cfc1" stroke-width="1.51"/><path d="M300,1020L300,1140L420,1020Z" fill="#ddb5b3" stroke="#ddb5b3" stroke-width="1.51"/><path d="M300,1020L420,1020L420,900Z" fill="#cacbbe" stroke="#cacbbe" stroke-width="1.51"/><path d="M300,900L300,1020L420,900Z" fill="#d1e3d6" stroke="#d1e3d6" stroke-width="1.51"/><path d="M300,900L420,900L420,780Z" fill="#a8f2e4" stroke="#a8f2e4" stroke-width="1.51"/><path d="M300,780L300,900L420,780Z" fill="#a1e1e5" stroke="#a1e1e5" stroke-width="1.51"/><path d="M300,780L420,780L420,660Z" fill="#6acbdb" stroke="#6acbdb" stroke-width="1.51"/><path d="M300,660L300,780L420,660Z" fill="#98dbe4" stroke="#98dbe4" stroke-width="1.51"/><path d="M300,660L420,660L420,540Z" fill="#b7fce6" stroke="#b7fce6" stroke-width="1.51"/><path d="M300,540L300,660L420,540Z" fill="#c9ebe9" stroke="#c9ebe9" stroke-width="1.51"/><path d="M300,540L420,540L420,420Z" fill="#b1b7dd" stroke="#b1b7dd" stroke-width="1.51"/><path d="M300,420L300,540L420,420Z" fill="#bba7df" stroke="#bba7df" stroke-width="1.51"/><path d="M300,420L420,420L420,300Z" fill="#b8dde2" stroke="#b8dde2" stroke-width="1.51"/><path d="M300,300L300,420L420,300Z" fill="#cbf7eb" stroke="#cbf7eb" stroke-width="1.51"/><path d="M300,300L420,300L420,180Z" fill="#8fffd9" stroke="#8fffd9" stroke-width="1.51"/><path d="M300,180L300,300L420,180Z" fill="#84ffd6" stroke="#84ffd6" stroke-width="1.51"/><path d="M300,180L420,180L420,60Z" fill="#77ffd3" stroke="#77ffd3" stroke-width="1.51"/><path d="M300,60L300,180L420,60Z" fill="#a9ffe0" stroke="#a9ffe0" stroke-width="1.51"/><path d="M300,60L420,60L420,-60Z" fill="#bff8d4" stroke="#bff8d4" stroke-width="1.51"/><path d="M300,-60L300,60L420,-60Z" fill="#d2e8b9" stroke="#d2e8b9" stroke-width="1.51"/><path d="M300,-60L420,-60L420,-180Z" fill="#d2ce78" stroke="#d2ce78" stroke-width="1.51"/><path d="M300,-180L300,-60L420,-180Z" fill="#d8db9c" stroke="#d8db9c" stroke-width="1.51"/><path d="M180,1260L300,1260L300,1140Z" fill="#eafcd9" stroke="#eafcd9" stroke-width="1.51"/><path d="M180,1140L180,1260L300,1140Z" fill="#f7fffa" stroke="#f7fffa" stroke-width="1.51"/><path d="M180,1140L300,1140L300,1020Z" fill="#efcdd1" stroke="#efcdd1" stroke-width="1.51"/><path d="M180,1020L180,1140L300,1020Z" fill="#ffb1c2" stroke="#ffb1c2" stroke-width="1.51"/><path d="M180,1020L300,1020L300,900Z" fill="#f0c8cd" stroke="#f0c8cd" stroke-width="1.51"/><path d="M180,900L180,1020L300,900Z" fill="#f9e1e6" stroke="#f9e1e6" stroke-width="1.51"/><path d="M180,900L300,900L300,780Z" fill="#d6f1f3" stroke="#d6f1f3" stroke-width="1.51"/><path d="M180,780L180,900L300,780Z" fill="#cee1f5" stroke="#cee1f5" stroke-width="1.51"/><path d="M180,780L300,780L300,660Z" fill="#9fcbea" stroke="#9fcbea" stroke-width="1.51"/><path d="M180,660L180,780L300,660Z" fill="#c5daf3" stroke="#c5daf3" stroke-width="1.51"/><path d="M180,660L300,660L300,540Z" fill="#e4fbf6" stroke="#e4fbf6" stroke-width="1.51"/><path d="M180,540L180,660L300,540Z" fill="#f3eaf9" stroke="#f3eaf9" stroke-width="1.51"/><path d="M180,540L300,540L300,420Z" fill="#d8b3ec" stroke="#d8b3ec" stroke-width="1.51"/><path d="M180,420L180,540L300,420Z" fill="#e0a3ef" stroke="#e0a3ef" stroke-width="1.51"/><path d="M180,420L300,420L300,300Z" fill="#e2dbf2" stroke="#e2dbf2" stroke-width="1.51"/><path d="M180,300L180,420L300,300Z" fill="#f5f6fb" stroke="#f5f6fb" stroke-width="1.51"/><path d="M180,300L300,300L300,180Z" fill="#c3ffe9" stroke="#c3ffe9" stroke-width="1.51"/><path d="M180,180L180,300L300,180Z" fill="#baffe6" stroke="#baffe6" stroke-width="1.51"/><path d="M180,180L300,180L300,60Z" fill="#b1ffe3" stroke="#b1ffe3" stroke-width="1.51"/><path d="M180,60L180,180L300,60Z" fill="#d8fff0" stroke="#d8fff0" stroke-width="1.51"/><path d="M180,60L300,60L300,-60Z" fill="#eaf6e3" stroke="#eaf6e3" stroke-width="1.51"/><path d="M180,-60L180,60L300,-60Z" fill="#fae7c9" stroke="#fae7c9" stroke-width="1.51"/><path d="M180,-60L300,-60L300,-180Z" fill="#f7cb88" stroke="#f7cb88" stroke-width="1.51"/><path d="M180,-180L180,-60L300,-180Z" fill="#fedaac" stroke="#fedaac" stroke-width="1.51"/><path d="M60,1260L180,1260L180,1140Z" fill="#ffeec4" stroke="#ffeec4" stroke-width="1.51"/><path d="M60,1140L60,1260L180,1140Z" fill="#ffe7cc" stroke="#ffe7cc" stroke-width="1.51"/><path d="M60,1140L180,1140L180,1020Z" fill="#ffbdbc" stroke="#ffbdbc" stroke-width="1.51"/><path d="M60,1020L60,1140L180,1020Z" fill="#ff9896" stroke="#ff9896" stroke-width="1.51"/><path d="M60,1020L180,1020L180,900Z" fill="#ffb8b9" stroke="#ffb8b9" stroke-width="1.51"/><path d="M60,900L60,1020L180,900Z" fill="#ffcab8" stroke="#ffcab8" stroke-width="1.51"/><path d="M60,900L180,900L180,780Z" fill="#eee3de" stroke="#eee3de" stroke-width="1.51"/><path d="M60,780L60,900L180,780Z" fill="#dbc9c7" stroke="#dbc9c7" stroke-width="1.51"/><path d="M60,780L180,780L180,660Z" fill="#bbbdd6" stroke="#bbbdd6" stroke-width="1.51"/><path d="M60,660L60,780L180,660Z" fill="#d4c3c5" stroke="#d4c3c5" stroke-width="1.51"/><path d="M60,660L180,660L180,540Z" fill="#fbede0" stroke="#fbede0" stroke-width="1.51"/><path d="M60,540L60,660L180,540Z" fill="#fcd2cb" stroke="#fcd2cb" stroke-width="1.51"/><path d="M60,540L180,540L180,420Z" fill="#eca3d8" stroke="#eca3d8" stroke-width="1.51"/><path d="M60,420L60,540L180,420Z" fill="#e889c2" stroke="#e889c2" stroke-width="1.51"/><path d="M60,420L180,420L180,300Z" fill="#f7ccdd" stroke="#f7ccdd" stroke-width="1.51"/><path d="M60,300L60,420L180,300Z" fill="#ffdecc" stroke="#ffdecc" stroke-width="1.51"/><path d="M60,300L180,300L180,180Z" fill="#ddf2d4" stroke="#ddf2d4" stroke-width="1.51"/><path d="M60,180L60,300L180,180Z" fill="#cbe9b8" stroke="#cbe9b8" stroke-width="1.51"/><path d="M60,180L180,180L180,60Z" fill="#cdf2ce" stroke="#cdf2ce" stroke-width="1.51"/><path d="M60,60L60,180L180,60Z" fill="#e5e8c2" stroke="#e5e8c2" stroke-width="1.51"/><path d="M60,60L180,60L180,-60Z" fill="#ffe8ce" stroke="#ffe8ce" stroke-width="1.51"/><path d="M60,-60L60,60L180,-60Z" fill="#ffcf9b" stroke="#ffcf9b" stroke-width="1.51"/><path d="M60,-60L180,-60L180,-180Z" fill="#ffbd73" stroke="#ffbd73" stroke-width="1.51"/><path d="M60,-180L60,-60L180,-180Z" fill="#ffc27e" stroke="#ffc27e" stroke-width="1.51"/><path d="M-60,1260L60,1260L60,1140Z" fill="#ffd186" stroke="#ffd186" stroke-width="1.51"/><path d="M-60,1140L-60,1260L60,1140Z" fill="#ffca8e" stroke="#ffca8e" stroke-width="1.51"/><path d="M-60,1140L60,1140L60,1020Z" fill="#ffa081" stroke="#ffa081" stroke-width="1.51"/><path d="M-60,1020L-60,1140L60,1020Z" fill="#ff795c" stroke="#ff795c" stroke-width="1.51"/><path d="M-60,1020L60,1020L60,900Z" fill="#ff9b7e" stroke="#ff9b7e" stroke-width="1.51"/><path d="M-60,900L-60,1020L60,900Z" fill="#ffac7c" stroke="#ffac7c" stroke-width="1.51"/><path d="M-60,900L60,900L60,780Z" fill="#f6c6a1" stroke="#f6c6a1" stroke-width="1.51"/><path d="M-60,780L-60,900L60,780Z" fill="#e6ad8b" stroke="#e6ad8b" stroke-width="1.51"/><path d="M-60,780L60,780L60,660Z" fill="#c8a19b" stroke="#c8a19b" stroke-width="1.51"/><path d="M-60,660L-60,780L60,660Z" fill="#dfa78a" stroke="#dfa78a" stroke-width="1.51"/><path d="M-60,660L60,660L60,540Z" fill="#ffd0a3" stroke="#ffd0a3" stroke-width="1.51"/><path d="M-60,540L-60,660L60,540Z" fill="#ffb58e" stroke="#ffb58e" stroke-width="1.51"/><path d="M-60,540L60,540L60,420Z" fill="#f0859d" stroke="#f0859d" stroke-width="1.51"/><path d="M-60,420L-60,540L60,420Z" fill="#ed6889" stroke="#ed6889" stroke-width="1.51"/><path d="M-60,420L60,420L60,300Z" fill="#fdafa1" stroke="#fdafa1" stroke-width="1.51"/><path d="M-60,300L-60,420L60,300Z" fill="#ffc18f" stroke="#ffc18f" stroke-width="1.51"/><path d="M-60,300L60,300L60,180Z" fill="#e7d597" stroke="#e7d597" stroke-width="1.51"/><path d="M-60,180L-60,300L60,180Z" fill="#d8ce7a" stroke="#d8ce7a" stroke-width="1.51"/><path d="M-60,180L60,180L60,60Z" fill="#d9d691" stroke="#d9d691" stroke-width="1.51"/><path d="M-60,60L-60,180L60,60Z" fill="#f0cc84" stroke="#f0cc84" stroke-width="1.51"/><path d="M-60,60L60,60L60,-60Z" fill="#ffcb91" stroke="#ffcb91" stroke-width="1.51"/><path d="M-60,-60L-60,60L60,-60Z" fill="#ffb35d" stroke="#ffb35d" stroke-width="1.51"/><path d="M-60,-60L60,-60L60,-180Z" fill="#ffa130" stroke="#ffa130" stroke-width="1.51"/><path d="M-60,-180L-60,-60L60,-180Z" fill="#ffa63d" stroke="#ffa63d" stroke-width="1.51"/><path d="M-180,1260L-60,1260L-60,1140Z" fill="#ffda99" stroke="#ffda99" stroke-width="1.51"/><path d="M-180,1140L-180,1260L-60,1140Z" fill="#ffe6c9" stroke="#ffe6c9" stroke-width="1.51"/><path d="M-180,1140L-60,1140L-60,1020Z" fill="#ffa993" stroke="#ffa993" stroke-width="1.51"/><path d="M-180,1020L-180,1140L-60,1020Z" fill="#ff9794" stroke="#ff9794" stroke-width="1.51"/><path d="M-180,1020L-60,1020L-60,900Z" fill="#ffa48f" stroke="#ffa48f" stroke-width="1.51"/><path d="M-180,900L-180,1020L-60,900Z" fill="#ffc8b6" stroke="#ffc8b6" stroke-width="1.51"/><path d="M-180,900L-60,900L-60,780Z" fill="#f3cfb4" stroke="#f3cfb4" stroke-width="1.51"/><path d="M-180,780L-180,900L-60,780Z" fill="#dcc8c5" stroke="#dcc8c5" stroke-width="1.51"/><path d="M-180,780L-60,780L-60,660Z" fill="#c4a9ac" stroke="#c4a9ac" stroke-width="1.51"/><path d="M-180,660L-180,780L-60,660Z" fill="#d4c2c3" stroke="#d4c2c3" stroke-width="1.51"/><path d="M-180,660L-60,660L-60,540Z" fill="#ffd9b6" stroke="#ffd9b6" stroke-width="1.51"/><path d="M-180,540L-180,660L-60,540Z" fill="#fcd1c9" stroke="#fcd1c9" stroke-width="1.51"/><path d="M-180,540L-60,540L-60,420Z" fill="#ee8eaf" stroke="#ee8eaf" stroke-width="1.51"/><path d="M-180,420L-180,540L-60,420Z" fill="#e888c0" stroke="#e888c0" stroke-width="1.51"/><path d="M-180,420L-60,420L-60,300Z" fill="#fbb8b3" stroke="#fbb8b3" stroke-width="1.51"/><path d="M-180,300L-180,420L-60,300Z" fill="#ffddca" stroke="#ffddca" stroke-width="1.51"/><path d="M-180,300L-60,300L-60,180Z" fill="#e4dea9" stroke="#e4dea9" stroke-width="1.51"/><path d="M-180,180L-180,300L-60,180Z" fill="#cbe8b6" stroke="#cbe8b6" stroke-width="1.51"/><path d="M-180,180L-60,180L-60,60Z" fill="#d5dea3" stroke="#d5dea3" stroke-width="1.51"/><path d="M-180,60L-180,180L-60,60Z" fill="#e6e7c0" stroke="#e6e7c0" stroke-width="1.51"/><path d="M-180,60L-60,60L-60,-60Z" fill="#ffd4a4" stroke="#ffd4a4" stroke-width="1.51"/><path d="M-180,-60L-180,60L-60,-60Z" fill="#ffce99" stroke="#ffce99" stroke-width="1.51"/><path d="M-180,-60L-60,-60L-60,-180Z" fill="#ffa946" stroke="#ffa946" stroke-width="1.51"/><path d="M-180,-180L-180,-60L-60,-180Z" fill="#ffc17c" stroke="#ffc17c" stroke-width="1.51"/></svg>