<svg xmlns="http://www.w3.org/2000/svg" width="1920" height="1080"><path d="M1980,1260L2100,1260L2100,1140Z" fill="#4c97db" stroke="#4c97db" stroke-width="1.51"/><path d="M1980,1140L1980,1260L2100,1140Z" fill="#4c99d8" stroke="#4c99d8" stroke-width="1.51"/><path d="M1980,1140L2100,1140L2100,1020Z" fill="#4c9bd6" stroke="#4c9bd6" stroke-width="1.51"/><path d="M1980,1020L1980,1140L2100,1020Z" fill="#4d9ed3" stroke="#4d9ed3" stroke-width="1.51"/><path d="M1980,1020L2100,1020L2100,900Z" fill="#4ca0d0" stroke="#4ca0d0" stroke-width="1.51"/><path d="M1980,900L1980,1020L2100,900Z" fill="#4ca2ce" stroke="#4ca2ce" stroke-width="1.51"/><path d="M1980,900L2100,900L2100,780Z" fill="#729cc1" stroke="#729cc1" stroke-width="1.51"/><path d="M1980,780L1980,900L2100,780Z" fill="#8199b8" stroke="#8199b8" stroke-width="1.51"/><path d="M1980,780L2100,780L2100,660Z" fill="#9a91a9" stroke="#9a91a9" stroke-width="1.51"/><path d="M1980,660L1980,780L2100,660Z" fill="#a48ea1" stroke="#a48ea1" stroke-width="1.51"/><path d="M1980,660L2100,660L2100,540Z" fill="#b78593" stroke="#b78593" stroke-width="1.51"/><path d="M1980,540L1980,660L2100,540Z" fill="#bf828a" stroke="#bf828a" stroke-width="1.51"/><path d="M1980,540L2100,540L2100,420Z" fill="#c47a8d" stroke="#c47a8d" stroke-width="1.51"/><path d="M1980,420L1980,540L2100,420Z" fill="#c07a95" stroke="#c07a95" stroke-width="1.51"/><path d="M1980,420L2100,420L2100,300Z" fill="#b774a9" stroke="#b774a9" stroke-width="1.51"/><path d="M1980,300L1980,420L2100,300Z" fill="#b274b1" stroke="#b274b1" stroke-width="1.51"/><path d="M1980,300L2100,300L2100,180Z" fill="#a76fc5" stroke="#a76fc5" stroke-width="1.51"/><path d="M1980,180L1980,300L2100,180Z" fill="#a16ecd" stroke="#a16ecd" stroke-width="1.51"/><path d="M1980,180L2100,180L2100,60Z" fill="#946bdd" stroke="#946bdd" stroke-width="1.51"/><path d="M1980,60L1980,180L2100,60Z" fill="#986ed7" stroke="#986ed7" stroke-width="1.51"/><path d="M1980,60L2100,60L2100,-60Z" fill="#9d70cd" stroke="#9d70cd" stroke-width="1.51"/><path d="M1980,-60L1980,60L2100,-60Z" fill="#a172c6" stroke="#a172c6" stroke-width="1.51"/><path d="M1980,-60L2100,-60L2100,-180Z" fill="#a575bd" stroke="#a575bd" stroke-width="1.51"/><path d="M1980,-180L1980,-60L2100,-180Z" fill="#a778b6" stroke="#a778b6" stroke-width="1.51"/><path d="M1860,1260L1980,1260L1980,1140Z" fill="#4c9ad8" stroke="#4c9ad8" stroke-width="1.51"/><path d="M1860,1140L1860,1260L1980,1140Z" fill="#4c9cd5" stroke="#4c9cd5" stroke-width="1.51"/><path d="M1860,1140L1980,1140L1980,1020Z" fill="#4c9ed3" stroke="#4c9ed3" stroke-width="1.51"/><path d="M1860,1020L1860,1140L1980,1020Z" fill="#4ca1cf" stroke="#4ca1cf" stroke-width="1.51"/><path d="M1860,1020L1980,1020L1980,900Z" fill="#4ca3cd" stroke="#4ca3cd" stroke-width="1.51"/><path d="M1860,900L1860,1020L1980,900Z" fill="#4ba5ca" stroke="#4ba5ca" stroke-width="1.51"/><path d="M1860,900L1980,900L1980,780Z" fill="#729fbe" stroke="#729fbe" stroke-width="1.51"/><path d="M1860,780L1860,900L1980,780Z" fill="#809cb4" stroke="#809cb4" stroke-width="1.51"/><path d="M1860,780L1980,780L1980,660Z" fill="#9a94a6" stroke="#9a94a6" stroke-width="1.51"/><path d="M1860,660L1860,780L1980,660Z" fill="#a4929d" stroke="#a4929d" stroke-width="1.51"/><path d="M1860,660L1980,660L1980,540Z" fill="#b78990" stroke="#b78990" stroke-width="1.51"/><path d="M1860,540L1860,660L1980,540Z" fill="#be8687" stroke="#be8687" stroke-width="1.51"/><path d="M1860,540L1980,540L1980,420Z" fill="#c37e8a" stroke="#c37e8a" stroke-width="1.51"/><path d="M1860,420L1860,540L1980,420Z" fill="#bf7e92" stroke="#bf7e92" stroke-width="1.51"/><path d="M1860,420L1980,420L1980,300Z" fill="#b778a6" stroke="#b778a6" stroke-width="1.51"/><path d="M1860,300L1860,420L1980,300Z" fill="#b278ae" stroke="#b278ae" stroke-width="1.51"/><path d="M1860,300L1980,300L1980,180Z" fill="#a773c2" stroke="#a773c2" stroke-width="1.51"/><path d="M1860,180L1860,300L1980,180Z" fill="#a172c9" stroke="#a172c9" stroke-width="1.51"/><path d="M1860,180L1980,180L1980,60Z" fill="#946eda" stroke="#946eda" stroke-width="1.51"/><path d="M1860,60L1860,180L1980,60Z" fill="#9871d3" stroke="#9871d3" stroke-width="1.51"/><path d="M1860,60L1980,60L1980,-60Z" fill="#9e73ca" stroke="#9e73ca" stroke-width="1.51"/><path d="M1860,-60L1860,60L1980,-60Z" fill="#a176c3" stroke="#a176c3" stroke-width="1.51"/><path d="M1860,-60L1980,-60L1980,-180Z" fill="#a578ba" stroke="#a578ba" stroke-width="1.51"/><path d="M1860,-180L1860,-60L1980,-180Z" fill="#a77bb3" stroke="#a77bb3" stroke-width="1.51"/><path d="M1740,1260L1860,1260L1860,1140Z" fill="#4c9dd4" stroke="#4c9dd4" stroke-width="1.51"/><path d="M1740,1140L1740,1260L1860,1140Z" fill="#4c9fd2" stroke="#4c9fd2" stroke-width="1.51"/><path d="M1740,1140L1860,1140L1860,1020Z" fill="#4ca1cf" stroke="#4ca1cf" stroke-width="1.51"/><path d="M1740,1020L1740,1140L1860,1020Z" fill="#4ca4cc" stroke="#4ca4cc" stroke-width="1.51"/><path d="M1740,1020L1860,1020L1860,900Z" fill="#4ba6ca" stroke="#4ba6ca" stroke-width="1.51"/><path d="M1740,900L1740,1020L1860,900Z" fill="#4ba8c7" stroke="#4ba8c7" stroke-width="1.51"/><path d="M1740,900L1860,900L1860,780Z" fill="#71a2ba" stroke="#71a2ba" stroke-width="1.51"/><path d="M1740,780L1740,900L1860,780Z" fill="#80a0b1" stroke="#80a0b1" stroke-width="1.51"/><path d="M1740,780L1860,780L1860,660Z" fill="#9997a3" stroke="#9997a3" stroke-width="1.51"/><path d="M1740,660L1740,780L1860,660Z" fill="#a3959a" stroke="#a3959a" stroke-width="1.51"/><path d="M1740,660L1860,660L1860,540Z" fill="#b68c8c" stroke="#b68c8c" stroke-width="1.51"/><path d="M1740,540L1740,660L1860,540Z" fill="#be8a83" stroke="#be8a83" stroke-width="1.51"/><path d="M1740,540L1860,540L1860,420Z" fill="#c38286" stroke="#c38286" stroke-width="1.51"/><path d="M1740,420L1740,540L1860,420Z" fill="#bf818f" stroke="#bf818f" stroke-width="1.51"/><path d="M1740,420L1860,420L1860,300Z" fill="#b77ca2" stroke="#b77ca2" stroke-width="1.51"/><path d="M1740,300L1740,420L1860,300Z" fill="#b27bab" stroke="#b27bab" stroke-width="1.51"/><path d="M1740,300L1860,300L1860,180Z" fill="#a776be" stroke="#a776be" stroke-width="1.51"/><path d="M1740,180L1740,300L1860,180Z" fill="#a176c7" stroke="#a176c7" stroke-width="1.51"/><path d="M1740,180L1860,180L1860,60Z" fill="#9572d6" stroke="#9572d6" stroke-width="1.51"/><path d="M1740,60L1740,180L1860,60Z" fill="#9975d0" stroke="#9975d0" stroke-width="1.51"/><path d="M1740,60L1860,60L1860,-60Z" fill="#9e77c6" stroke="#9e77c6" stroke-width="1.51"/><path d="M1740,-60L1740,60L1860,-60Z" fill="#a17ac0" stroke="#a17ac0" stroke-width="1.51"/><path d="M1740,-60L1860,-60L1860,-180Z" fill="#a57cb7" stroke="#a57cb7" stroke-width="1.51"/><path d="M1740,-180L1740,-60L1860,-180Z" fill="#a77fb0" stroke="#a77fb0" stroke-width="1.51"/><path d="M1620,1260L1740,1260L1740,1140Z" fill="#4ca0d1" stroke="#4ca0d1" stroke-width="1.51"/><path d="M1620,1140L1620,1260L1740,1140Z" fill="#4ca2ce" stroke="#4ca2ce" stroke-width="1.51"/><path d="M1620,1140L1740,1140L1740,1020Z" fill="#4ca4cc" stroke="#4ca4cc" stroke-width="1.51"/><path d="M1620,1020L1620,1140L1740,1020Z" fill="#4ca7c9" stroke="#4ca7c9" stroke-width="1.51"/><path d="M1620,1020L1740,1020L1740,900Z" fill="#4ba9c6" stroke="#4ba9c6" stroke-width="1.51"/><path d="M1620,900L1620,1020L1740,900Z" fill="#4aabc4" stroke="#4aabc4" stroke-width="1.51"/><path d="M1620,900L1740,900L1740,780Z" fill="#70a5b6" stroke="#70a5b6" stroke-width="1.51"/><path d="M1620,780L1620,900L1740,780Z" fill="#7fa3ad" stroke="#7fa3ad" stroke-width="1.51"/><path d="M1620,780L1740,780L1740,660Z" fill="#989b9f" stroke="#989b9f" stroke-width="1.51"/><path d="M1620,660L1620,780L1740,660Z" fill="#a29897" stroke="#a29897" stroke-width="1.51"/><path d="M1620,660L1740,660L1740,540Z" fill="#b59088" stroke="#b59088" stroke-width="1.51"/><path d="M1620,540L1620,660L1740,540Z" fill="#bd8d80" stroke="#bd8d80" stroke-width="1.51"/><path d="M1620,540L1740,540L1740,420Z" fill="#c28683" stroke="#c28683" stroke-width="1.51"/><path d="M1620,420L1620,540L1740,420Z" fill="#be858b" stroke="#be858b" stroke-width="1.51"/><path d="M1620,420L1740,420L1740,300Z" fill="#b7809f" stroke="#b7809f" stroke-width="1.51"/><path d="M1620,300L1620,420L1740,300Z" fill="#b27fa7" stroke="#b27fa7" stroke-width="1.51"/><path d="M1620,300L1740,300L1740,180Z" fill="#a87abb" stroke="#a87abb" stroke-width="1.51"/><path d="M1620,180L1620,300L1740,180Z" fill="#a279c3" stroke="#a279c3" stroke-width="1.51"/><path d="M1620,180L1740,180L1740,60Z" fill="#9676d3" stroke="#9676d3" stroke-width="1.51"/><path d="M1620,60L1620,180L1740,60Z" fill="#9979cd" stroke="#9979cd" stroke-width="1.51"/><path d="M1620,60L1740,60L1740,-60Z" fill="#9e7bc3" stroke="#9e7bc3" stroke-width="1.51"/><path d="M1620,-60L1620,60L1740,-60Z" fill="#a17dbc" stroke="#a17dbc" stroke-width="1.51"/><path d="M1620,-60L1740,-60L1740,-180Z" fill="#a580b3" stroke="#a580b3" stroke-width="1.51"/><path d="M1620,-180L1620,-60L1740,-180Z" fill="#a783ac" stroke="#a783ac" stroke-width="1.51"/><path d="M1500,1260L1620,1260L1620,1140Z" fill="#4ca3cd" stroke="#4ca3cd" stroke-width="1.51"/><path d="M1500,1140L1500,1260L1620,1140Z" fill="#55a3c9" stroke="#55a3c9" stroke-width="1.51"/><path d="M1500,1140L1620,1140L1620,1020Z" fill="#4ba7c8" stroke="#4ba7c8" stroke-width="1.51"/><path d="M1500,1020L1500,1140L1620,1020Z" fill="#54a8c3" stroke="#54a8c3" stroke-width="1.51"/><path d="M1500,1020L1620,1020L1620,900Z" fill="#4aacc3" stroke="#4aacc3" stroke-width="1.51"/><path d="M1500,900L1500,1020L1620,900Z" fill="#52adbe" stroke="#52adbe" stroke-width="1.51"/><path d="M1500,900L1620,900L1620,780Z" fill="#6fa8b3" stroke="#6fa8b3" stroke-width="1.51"/><path d="M1500,780L1500,900L1620,780Z" fill="#83a4a8" stroke="#83a4a8" stroke-width="1.51"/><path d="M1500,780L1620,780L1620,660Z" fill="#979e9c" stroke="#979e9c" stroke-width="1.51"/><path d="M1500,660L1500,780L1620,660Z" fill="#a59a91" stroke="#a59a91" stroke-width="1.51"/><path d="M1500,660L1620,660L1620,540Z" fill="#b49385" stroke="#b49385" stroke-width="1.51"/><path d="M1500,540L1500,660L1620,540Z" fill="#bf8f7a" stroke="#bf8f7a" stroke-width="1.51"/><path d="M1500,540L1620,540L1620,420Z" fill="#c1897f" stroke="#c1897f" stroke-width="1.51"/><path d="M1500,420L1500,540L1620,420Z" fill="#c08786" stroke="#c08786" stroke-width="1.51"/><path d="M1500,420L1620,420L1620,300Z" fill="#b6839b" stroke="#b6839b" stroke-width="1.51"/><path d="M1500,300L1500,420L1620,300Z" fill="#b581a2" stroke="#b581a2" stroke-width="1.51"/><path d="M1500,300L1620,300L1620,180Z" fill="#a77eb7" stroke="#a77eb7" stroke-width="1.51"/><path d="M1500,180L1500,300L1620,180Z" fill="#a57bbe" stroke="#a57bbe" stroke-width="1.51"/><path d="M1500,180L1620,180L1620,60Z" fill="#9679d0" stroke="#9679d0" stroke-width="1.51"/><path d="M1500,60L1500,180L1620,60Z" fill="#9d7ac8" stroke="#9d7ac8" stroke-width="1.51"/><path d="M1500,60L1620,60L1620,-60Z" fill="#9e7ec0" stroke="#9e7ec0" stroke-width="1.51"/><path d="M1500,-60L1500,60L1620,-60Z" fill="#a57fb7" stroke="#a57fb7" stroke-width="1.51"/><path d="M1500,-60L1620,-60L1620,-180Z" fill="#a583b0" stroke="#a583b0" stroke-width="1.51"/><path d="M1500,-180L1500,-60L1620,-180Z" fill="#aa84a7" stroke="#aa84a7" stroke-width="1.51"/><path d="M1380,1260L1500,1260L1500,1140Z" fill="#6f9ec0" stroke="#6f9ec0" stroke-width="1.51"/><path d="M1380,1140L1380,1260L1500,1140Z" fill="#7a9dba" stroke="#7a9dba" stroke-width="1.51"/><path d="M1380,1140L1500,1140L1500,1020Z" fill="#6ea2bb" stroke="#6ea2bb" stroke-width="1.51"/><path d="M1380,1020L1380,1140L1500,1020Z" fill="#79a2b4" stroke="#79a2b4" stroke-width="1.51"/><path d="M1380,1020L1500,1020L1500,900Z" fill="#6da7b5" stroke="#6da7b5" stroke-width="1.51"/><path d="M1380,900L1380,1020L1500,900Z" fill="#77a6af" stroke="#77a6af" stroke-width="1.51"/><path d="M1380,900L1500,900L1500,780Z" fill="#87a4a6" stroke="#87a4a6" stroke-width="1.51"/><path d="M1380,780L1380,900L1500,780Z" fill="#9a9e99" stroke="#9a9e99" stroke-width="1.51"/><path d="M1380,780L1500,780L1500,660Z" fill="#a8998f" stroke="#a8998f" stroke-width="1.51"/><path d="M1380,660L1380,780L1500,660Z" fill="#b69382" stroke="#b69382" stroke-width="1.51"/><path d="M1380,660L1500,660L1500,540Z" fill="#c18e78" stroke="#c18e78" stroke-width="1.51"/><path d="M1380,540L1380,660L1500,540Z" fill="#cd876c" stroke="#cd876c" stroke-width="1.51"/><path d="M1380,540L1500,540L1500,420Z" fill="#cd8372" stroke="#cd8372" stroke-width="1.51"/><path d="M1380,420L1380,540L1500,420Z" fill="#cf7e77" stroke="#cf7e77" stroke-width="1.51"/><path d="M1380,420L1500,420L1500,300Z" fill="#c37d8f" stroke="#c37d8f" stroke-width="1.51"/><path d="M1380,300L1380,420L1500,300Z" fill="#c57893" stroke="#c57893" stroke-width="1.51"/><path d="M1380,300L1500,300L1500,180Z" fill="#b777ab" stroke="#b777ab" stroke-width="1.51"/><path d="M1380,180L1380,300L1500,180Z" fill="#b872af" stroke="#b872af" stroke-width="1.51"/><path d="M1380,180L1500,180L1500,60Z" fill="#a972c3" stroke="#a972c3" stroke-width="1.51"/><path d="M1380,60L1380,180L1500,60Z" fill="#b271b9" stroke="#b271b9" stroke-width="1.51"/><path d="M1380,60L1500,60L1500,-60Z" fill="#af78b3" stroke="#af78b3" stroke-width="1.51"/><path d="M1380,-60L1380,60L1500,-60Z" fill="#b776a8" stroke="#b776a8" stroke-width="1.51"/><path d="M1380,-60L1500,-60L1500,-180Z" fill="#b57da3" stroke="#b57da3" stroke-width="1.51"/><path d="M1380,-180L1380,-60L1500,-180Z" fill="#bb7c99" stroke="#bb7c99" stroke-width="1.51"/><path d="M1260,1260L1380,1260L1380,1140Z" fill="#8c97b1" stroke="#8c97b1" stroke-width="1.51"/><path d="M1260,1140L1260,1260L1380,1140Z" fill="#9496aa" stroke="#9496aa" stroke-width="1.51"/><path d="M1260,1140L1380,1140L1380,1020Z" fill="#8b9cac" stroke="#8b9cac" stroke-width="1.51"/><path d="M1260,1020L1260,1140L1380,1020Z" fill="#939ba5" stroke="#939ba5" stroke-width="1.51"/><path d="M1260,1020L1380,1020L1380,900Z" fill="#8aa0a6" stroke="#8aa0a6" stroke-width="1.51"/><path d="M1260,900L1260,1020L1380,900Z" fill="#92a0a0" stroke="#92a0a0" stroke-width="1.51"/><path d="M1260,900L1380,900L1380,780Z" fill="#9e9d97" stroke="#9e9d97" stroke-width="1.51"/><path d="M1260,780L1260,900L1380,780Z" fill="#ad978a" stroke="#ad978a" stroke-width="1.51"/><path d="M1260,780L1380,780L1380,660Z" fill="#b99280" stroke="#b99280" stroke-width="1.51"/><path d="M1260,660L1260,780L1380,660Z" fill="#c58b74" stroke="#c58b74" stroke-width="1.51"/><path d="M1260,660L1380,660L1380,540Z" fill="#cf8669" stroke="#cf8669" stroke-width="1.51"/><path d="M1260,540L1260,660L1380,540Z" fill="#da7e5d" stroke="#da7e5d" stroke-width="1.51"/><path d="M1260,540L1380,540L1380,420Z" fill="#da7a64" stroke="#da7a64" stroke-width="1.51"/><path d="M1260,420L1260,540L1380,420Z" fill="#db7569" stroke="#db7569" stroke-width="1.51"/><path d="M1260,420L1380,420L1380,300Z" fill="#d27480" stroke="#d27480" stroke-width="1.51"/><path d="M1260,300L1260,420L1380,300Z" fill="#d36e85" stroke="#d36e85" stroke-width="1.51"/><path d="M1260,300L1380,300L1380,180Z" fill="#c86d9c" stroke="#c86d9c" stroke-width="1.51"/><path d="M1260,180L1260,300L1380,180Z" fill="#c967a0" stroke="#c967a0" stroke-width="1.51"/><path d="M1260,180L1380,180L1380,60Z" fill="#bc68b4" stroke="#bc68b4" stroke-width="1.51"/><path d="M1260,60L1260,180L1380,60Z" fill="#c366aa" stroke="#c366aa" stroke-width="1.51"/><path d="M1260,60L1380,60L1380,-60Z" fill="#c16ea4" stroke="#c16ea4" stroke-width="1.51"/><path d="M1260,-60L1260,60L1380,-60Z" fill="#c76c9a" stroke="#c76c9a" stroke-width="1.51"/><path d="M1260,-60L1380,-60L1380,-180Z" fill="#c57494" stroke="#c57494" stroke-width="1.51"/><path d="M1260,-180L1260,-60L1380,-180Z" fill="#cb728a" stroke="#cb728a" stroke-width="1.51"/><path d="M1140,1260L1260,1260L1260,1140Z" fill="#a290a2" stroke="#a290a2" stroke-width="1.51"/><path d="M1140,1140L1140,1260L1260,1140Z" fill="#a88f9b" stroke="#a88f9b" stroke-width="1.51"/><path d="M1140,1140L1260,1140L1260,1020Z" fill="#a1959d" stroke="#a1959d" stroke-width="1.51"/><path d="M1140,1020L1140,1140L1260,1020Z" fill="#a79496" stroke="#a79496" stroke-width="1.51"/><path d="M1140,1020L1260,1020L1260,900Z" fill="#a09a97" stroke="#a09a97" stroke-width="1.51"/><path d="M1140,900L1140,1020L1260,900Z" fill="#a69991" stroke="#a69991" stroke-width="1.51"/><path d="M1140,900L1260,900L1260,780Z" fill="#b09688" stroke="#b09688" stroke-width="1.51"/><path d="M1140,780L1140,900L1260,780Z" fill="#be8f7b" stroke="#be8f7b" stroke-width="1.51"/><path d="M1140,780L1260,780L1260,660Z" fill="#c88a71" stroke="#c88a71" stroke-width="1.51"/><path d="M1140,660L1140,780L1260,660Z" fill="#d38365" stroke="#d38365" stroke-width="1.51"/><path d="M1140,660L1260,660L1260,540Z" fill="#dc7d5a" stroke="#dc7d5a" stroke-width="1.51"/><path d="M1140,540L1140,660L1260,540Z" fill="#e6754d" stroke="#e6754d" stroke-width="1.51"/><path d="M1140,540L1260,540L1260,420Z" fill="#e67155" stroke="#e67155" stroke-width="1.51"/><path d="M1140,420L1140,540L1260,420Z" fill="#e76b5a" stroke="#e76b5a" stroke-width="1.51"/><path d="M1140,420L1260,420L1260,300Z" fill="#df6972" stroke="#df6972" stroke-width="1.51"/><path d="M1140,300L1140,420L1260,300Z" fill="#e06376" stroke="#e06376" stroke-width="1.51"/><path d="M1140,300L1260,300L1260,180Z" fill="#d6628e" stroke="#d6628e" stroke-width="1.51"/><path d="M1140,180L1140,300L1260,180Z" fill="#d75b92" stroke="#d75b92" stroke-width="1.51"/><path d="M1140,180L1260,180L1260,60Z" fill="#cc5ca5" stroke="#cc5ca5" stroke-width="1.51"/><path d="M1140,60L1140,180L1260,60Z" fill="#d35a9b" stroke="#d35a9b" stroke-width="1.51"/><path d="M1140,60L1260,60L1260,-60Z" fill="#d06396" stroke="#d06396" stroke-width="1.51"/><path d="M1140,-60L1140,60L1260,-60Z" fill="#d6618b" stroke="#d6618b" stroke-width="1.51"/><path d="M1140,-60L1260,-60L1260,-180Z" fill="#d36a86" stroke="#d36a86" stroke-width="1.51"/><path d="M1140,-180L1140,-60L1260,-180Z" fill="#d8687b" stroke="#d8687b" stroke-width="1.51"/><path d="M1020,1260L1140,1260L1140,1140Z" fill="#b58893" stroke="#b58893" stroke-width="1.51"/><path d="M1020,1140L1020,1260L1140,1140Z" fill="#ba878d" stroke="#ba878d" stroke-width="1.51"/><path d="M1020,1140L1140,1140L1140,1020Z" fill="#b48d8e" stroke="#b48d8e" stroke-width="1.51"/><path d="M1020,1020L1020,1140L1140,1020Z" fill="#b98d87" stroke="#b98d87" stroke-width="1.51"/><path d="M1020,1020L1140,1020L1140,900Z" fill="#b29388" stroke="#b29388" stroke-width="1.51"/><path d="M1020,900L1020,1020L1140,900Z" fill="#b79282" stroke="#b79282" stroke-width="1.51"/><path d="M1020,900L1140,900L1140,780Z" fill="#c08e79" stroke="#c08e79" stroke-width="1.51"/><path d="M1020,780L1020,900L1140,780Z" fill="#cc886c" stroke="#cc886c" stroke-width="1.51"/><path d="M1020,780L1140,780L1140,660Z" fill="#d58262" stroke="#d58262" stroke-width="1.51"/><path d="M1020,660L1020,780L1140,660Z" fill="#df7a56" stroke="#df7a56" stroke-width="1.51"/><path d="M1020,660L1140,660L1140,540Z" fill="#e8744b" stroke="#e8744b" stroke-width="1.51"/><path d="M1020,540L1020,660L1140,540Z" fill="#f16b3e" stroke="#f16b3e" stroke-width="1.51"/><path d="M1020,540L1140,540L1140,420Z" fill="#f16646" stroke="#f16646" stroke-width="1.51"/><path d="M1020,420L1020,540L1140,420Z" fill="#f25f4b" stroke="#f25f4b" stroke-width="1.51"/><path d="M1020,420L1140,420L1140,300Z" fill="#eb5e64" stroke="#eb5e64" stroke-width="1.51"/><path d="M1020,300L1020,420L1140,300Z" fill="#ec5668" stroke="#ec5668" stroke-width="1.51"/><path d="M1020,300L1140,300L1140,180Z" fill="#e3557f" stroke="#e3557f" stroke-width="1.51"/><path d="M1020,180L1020,300L1140,180Z" fill="#e44d84" stroke="#e44d84" stroke-width="1.51"/><path d="M1020,180L1140,180L1140,60Z" fill="#da4f97" stroke="#da4f97" stroke-width="1.51"/><path d="M1020,60L1020,180L1140,60Z" fill="#e04c8d" stroke="#e04c8d" stroke-width="1.51"/><path d="M1020,60L1140,60L1140,-60Z" fill="#de5687" stroke="#de5687" stroke-width="1.51"/><path d="M1020,-60L1020,60L1140,-60Z" fill="#e3547d" stroke="#e3547d" stroke-width="1.51"/><path d="M1020,-60L1140,-60L1140,-180Z" fill="#e05e78" stroke="#e05e78" stroke-width="1.51"/><path d="M1020,-180L1020,-60L1140,-180Z" fill="#e45c6d" stroke="#e45c6d" stroke-width="1.51"/><path d="M900,1260L1020,1260L1020,1140Z" fill="#c48084" stroke="#c48084" stroke-width="1.51"/><path d="M900,1140L900,1260L1020,1140Z" fill="#c58084" stroke="#c58084" stroke-width="1.51"/><path d="M900,1140L1020,1140L1020,1020Z" fill="#c3857f" stroke="#c3857f" stroke-width="1.51"/><path d="M900,1020L900,1140L1020,1020Z" fill="#c4857e" stroke="#c4857e" stroke-width="1.51"/><path d="M900,1020L1020,1020L1020,900Z" fill="#c28b7a" stroke="#c28b7a" stroke-width="1.51"/><path d="M900,900L900,1020L1020,900Z" fill="#c38b79" stroke="#c38b79" stroke-width="1.51"/><path d="M900,900L1020,900L1020,780Z" fill="#cf866a" stroke="#cf866a" stroke-width="1.51"/><path d="M900,780L900,900L1020,780Z" fill="#d68063" stroke="#d68063" stroke-width="1.51"/><path d="M900,780L1020,780L1020,660Z" fill="#e17953" stroke="#e17953" stroke-width="1.51"/><path d="M900,660L900,780L1020,660Z" fill="#e8714d" stroke="#e8714d" stroke-width="1.51"/><path d="M900,660L1020,660L1020,540Z" fill="#f2693b" stroke="#f2693b" stroke-width="1.51"/><path d="M900,540L900,660L1020,540Z" fill="#f96035" stroke="#f96035" stroke-width="1.51"/><path d="M900,540L1020,540L1020,420Z" fill="#fb5936" stroke="#fb5936" stroke-width="1.51"/><path d="M900,420L900,540L1020,420Z" fill="#fa5343" stroke="#fa5343" stroke-width="1.51"/><path d="M900,420L1020,420L1020,300Z" fill="#f64f55" stroke="#f64f55" stroke-width="1.51"/><path d="M900,300L900,420L1020,300Z" fill="#f44860" stroke="#f44860" stroke-width="1.51"/><path d="M900,300L1020,300L1020,180Z" fill="#ef4571" stroke="#ef4571" stroke-width="1.51"/><path d="M900,180L900,300L1020,180Z" fill="#ed3e7b" stroke="#ed3e7b" stroke-width="1.51"/><path d="M900,180L1020,180L1020,60Z" fill="#e73d89" stroke="#e73d89" stroke-width="1.51"/><path d="M900,60L900,180L1020,60Z" fill="#e93c84" stroke="#e93c84" stroke-width="1.51"/><path d="M900,60L1020,60L1020,-60Z" fill="#ea4779" stroke="#ea4779" stroke-width="1.51"/><path d="M900,-60L900,60L1020,-60Z" fill="#ec4675" stroke="#ec4675" stroke-width="1.51"/><path d="M900,-60L1020,-60L1020,-180Z" fill="#ec506a" stroke="#ec506a" stroke-width="1.51"/><path d="M900,-180L900,-60L1020,-180Z" fill="#ed5065" stroke="#ed5065" stroke-width="1.51"/><path d="M780,1260L900,1260L900,1140Z" fill="#c17b91" stroke="#c17b91" stroke-width="1.51"/><path d="M780,1140L780,1260L900,1140Z" fill="#be7c96" stroke="#be7c96" stroke-width="1.51"/><path d="M780,1140L900,1140L900,1020Z" fill="#c1818c" stroke="#c1818c" stroke-width="1.51"/><path d="M780,1020L780,1140L900,1020Z" fill="#be8190" stroke="#be8190" stroke-width="1.51"/><path d="M780,1020L900,1020L900,900Z" fill="#c08687" stroke="#c08687" stroke-width="1.51"/><path d="M780,900L780,1020L900,900Z" fill="#bd878b" stroke="#bd878b" stroke-width="1.51"/><path d="M780,900L900,900L900,780Z" fill="#cc8178" stroke="#cc8178" stroke-width="1.51"/><path d="M780,780L780,900L900,780Z" fill="#d17b76" stroke="#d17b76" stroke-width="1.51"/><path d="M780,780L900,780L900,660Z" fill="#e07361" stroke="#e07361" stroke-width="1.51"/><path d="M780,660L780,780L900,660Z" fill="#e46c60" stroke="#e46c60" stroke-width="1.51"/><path d="M780,660L900,660L900,540Z" fill="#f1624b" stroke="#f1624b" stroke-width="1.51"/><path d="M780,540L780,660L900,540Z" fill="#f55a49" stroke="#f55a49" stroke-width="1.51"/><path d="M780,540L900,540L900,420Z" fill="#fa5146" stroke="#fa5146" stroke-width="1.51"/><path d="M780,420L780,540L900,420Z" fill="#f74c56" stroke="#f74c56" stroke-width="1.51"/><path d="M780,420L900,420L900,300Z" fill="#f44762" stroke="#f44762" stroke-width="1.51"/><path d="M780,300L780,420L900,300Z" fill="#f04271" stroke="#f04271" stroke-width="1.51"/><path d="M780,300L900,300L900,180Z" fill="#ed3c7e" stroke="#ed3c7e" stroke-width="1.51"/><path d="M780,180L780,300L900,180Z" fill="#e8378c" stroke="#e8378c" stroke-width="1.51"/><path d="M780,180L900,180L900,60Z" fill="#e43395" stroke="#e43395" stroke-width="1.51"/><path d="M780,60L780,180L900,60Z" fill="#e33596" stroke="#e33596" stroke-width="1.51"/><path d="M780,60L900,60L900,-60Z" fill="#e73e86" stroke="#e73e86" stroke-width="1.51"/><path d="M780,-60L780,60L900,-60Z" fill="#e64086" stroke="#e64086" stroke-width="1.51"/><path d="M780,-60L900,-60L900,-180Z" fill="#ea4976" stroke="#ea4976" stroke-width="1.51"/><path d="M780,-180L780,-60L900,-180Z" fill="#e84a76" stroke="#e84a76" stroke-width="1.51"/><path d="M660,1260L780,1260L780,1140Z" fill="#b977a3" stroke="#b977a3" stroke-width="1.51"/><path d="M660,1140L660,1260L780,1140Z" fill="#b678a8" stroke="#b678a8" stroke-width="1.51"/><path d="M660,1140L780,1140L780,1020Z" fill="#b97d9e" stroke="#b97d9e" stroke-width="1.51"/><path d="M660,1020L660,1140L780,1020Z" fill="#b67da2" stroke="#b67da2" stroke-width="1.51"/><path d="M660,1020L780,1020L780,900Z" fill="#b88299" stroke="#b88299" stroke-width="1.51"/><path d="M660,900L660,1020L780,900Z" fill="#b5839d" stroke="#b5839d" stroke-width="1.51"/><path d="M660,900L780,900L780,780Z" fill="#c67d8a" stroke="#c67d8a" stroke-width="1.51"/><path d="M660,780L660,900L780,780Z" fill="#cb7788" stroke="#cb7788" stroke-width="1.51"/><path d="M660,780L780,780L780,660Z" fill="#db6e73" stroke="#db6e73" stroke-width="1.51"/><path d="M660,660L660,780L780,660Z" fill="#e06772" stroke="#e06772" stroke-width="1.51"/><path d="M660,660L780,660L780,540Z" fill="#ed5d5d" stroke="#ed5d5d" stroke-width="1.51"/><path d="M660,540L660,660L780,540Z" fill="#f1545d" stroke="#f1545d" stroke-width="1.51"/><path d="M660,540L780,540L780,420Z" fill="#f64b58" stroke="#f64b58" stroke-width="1.51"/><path d="M660,420L660,540L780,420Z" fill="#f24568" stroke="#f24568" stroke-width="1.51"/><path d="M660,420L780,420L780,300Z" fill="#ef4174" stroke="#ef4174" stroke-width="1.51"/><path d="M660,300L660,420L780,300Z" fill="#eb3b83" stroke="#eb3b83" stroke-width="1.51"/><path d="M660,300L780,300L780,180Z" fill="#e6358f" stroke="#e6358f" stroke-width="1.51"/><path d="M660,180L660,300L780,180Z" fill="#e12f9e" stroke="#e12f9e" stroke-width="1.51"/><path d="M660,180L780,180L780,60Z" fill="#dd2ca6" stroke="#dd2ca6" stroke-width="1.51"/><path d="M660,60L660,180L780,60Z" fill="#dc2ea7" stroke="#dc2ea7" stroke-width="1.51"/><path d="M660,60L780,60L780,-60Z" fill="#e13897" stroke="#e13897" stroke-width="1.51"/><path d="M660,-60L660,60L780,-60Z" fill="#e03997" stroke="#e03997" stroke-width="1.51"/><path d="M660,-60L780,-60L780,-180Z" fill="#e44387" stroke="#e44387" stroke-width="1.51"/><path d="M660,-180L660,-60L780,-180Z" fill="#e34488" stroke="#e34488" stroke-width="1.51"/><path d="M540,1260L660,1260L660,1140Z" fill="#b073b5" stroke="#b073b5" stroke-width="1.51"/><path d="M540,1140L540,1260L660,1140Z" fill="#ac74ba" stroke="#ac74ba" stroke-width="1.51"/><path d="M540,1140L660,1140L660,1020Z" fill="#b079b0" stroke="#b079b0" stroke-width="1.51"/><path d="M540,1020L540,1140L660,1020Z" fill="#ac7ab5" stroke="#ac7ab5" stroke-width="1.51"/><path d="M540,1020L660,1020L660,900Z" fill="#af7fab" stroke="#af7fab" stroke-width="1.51"/><path d="M540,900L540,1020L660,900Z" fill="#ac7fb0" stroke="#ac7fb0" stroke-width="1.51"/><path d="M540,900L660,900L660,780Z" fill="#bf799c" stroke="#bf799c" stroke-width="1.51"/><path d="M540,780L540,900L660,780Z" fill="#c4739a" stroke="#c4739a" stroke-width="1.51"/><path d="M540,780L660,780L660,660Z" fill="#d56a86" stroke="#d56a86" stroke-width="1.51"/><path d="M540,660L540,780L660,660Z" fill="#da6384" stroke="#da6384" stroke-width="1.51"/><path d="M540,660L660,660L660,540Z" fill="#e95770" stroke="#e95770" stroke-width="1.51"/><path d="M540,540L540,660L660,540Z" fill="#ed4e6f" stroke="#ed4e6f" stroke-width="1.51"/><path d="M540,540L660,540L660,420Z" fill="#f2446a" stroke="#f2446a" stroke-width="1.51"/><path d="M540,420L540,540L660,420Z" fill="#ee3f7a" stroke="#ee3f7a" stroke-width="1.51"/><path d="M540,420L660,420L660,300Z" fill="#ea3a86" stroke="#ea3a86" stroke-width="1.51"/><path d="M540,300L540,420L660,300Z" fill="#e53494" stroke="#e53494" stroke-width="1.51"/><path d="M540,300L660,300L660,180Z" fill="#e02ea0" stroke="#e02ea0" stroke-width="1.51"/><path d="M540,180L540,300L660,180Z" fill="#da28af" stroke="#da28af" stroke-width="1.51"/><path d="M540,180L660,180L660,60Z" fill="#d525b8" stroke="#d525b8" stroke-width="1.51"/><path d="M540,60L540,180L660,60Z" fill="#d427b9" stroke="#d427b9" stroke-width="1.51"/><path d="M540,60L660,60L660,-60Z" fill="#da32a8" stroke="#da32a8" stroke-width="1.51"/><path d="M540,-60L540,60L660,-60Z" fill="#d933a9" stroke="#d933a9" stroke-width="1.51"/><path d="M540,-60L660,-60L660,-180Z" fill="#de3d99" stroke="#de3d99" stroke-width="1.51"/><path d="M540,-180L540,-60L660,-180Z" fill="#dd3e9a" stroke="#dd3e9a" stroke-width="1.51"/><path d="M420,1260L540,1260L540,1140Z" fill="#a470c7" stroke="#a470c7" stroke-width="1.51"/><path d="M420,1140L420,1260L540,1140Z" fill="#a071cc" stroke="#a071cc" stroke-width="1.51"/><path d="M420,1140L540,1140L540,1020Z" fill="#a575c2" stroke="#a575c2" stroke-width="1.51"/><path d="M420,1020L420,1140L540,1020Z" fill="#a176c7" stroke="#a176c7" stroke-width="1.51"/><path d="M420,1020L540,1020L540,900Z" fill="#a57bbd" stroke="#a57bbd" stroke-width="1.51"/><path d="M420,900L420,1020L540,900Z" fill="#a17cc2" stroke="#a17cc2" stroke-width="1.51"/><path d="M420,900L540,900L540,780Z" fill="#b675ae" stroke="#b675ae" stroke-width="1.51"/><path d="M420,780L420,900L540,780Z" fill="#bc6fac" stroke="#bc6fac" stroke-width="1.51"/><path d="M420,780L540,780L540,660Z" fill="#cf6597" stroke="#cf6597" stroke-width="1.51"/><path d="M420,660L420,780L540,660Z" fill="#d45e96" stroke="#d45e96" stroke-width="1.51"/><path d="M420,660L540,660L540,540Z" fill="#e35281" stroke="#e35281" stroke-width="1.51"/><path d="M420,540L420,660L540,540Z" fill="#e84880" stroke="#e84880" stroke-width="1.51"/><path d="M420,540L540,540L540,420Z" fill="#ed3d7c" stroke="#ed3d7c" stroke-width="1.51"/><path d="M420,420L420,540L540,420Z" fill="#e8378b" stroke="#e8378b" stroke-width="1.51"/><path d="M420,420L540,420L540,300Z" fill="#e43297" stroke="#e43297" stroke-width="1.51"/><path d="M420,300L420,420L540,300Z" fill="#dd2ca6" stroke="#dd2ca6" stroke-width="1.51"/><path d="M420,300L540,300L540,180Z" fill="#d826b2" stroke="#d826b2" stroke-width="1.51"/><path d="M420,180L420,300L540,180Z" fill="#d120c1" stroke="#d120c1" stroke-width="1.51"/><path d="M420,180L540,180L540,60Z" fill="#cb1cc9" stroke="#cb1cc9" stroke-width="1.51"/><path d="M420,60L420,180L540,60Z" fill="#ca1fca" stroke="#ca1fca" stroke-width="1.51"/><path d="M420,60L540,60L540,-60Z" fill="#d12aba" stroke="#d12aba" stroke-width="1.51"/><path d="M420,-60L420,60L540,-60Z" fill="#d02dba" stroke="#d02dba" stroke-width="1.51"/><path d="M420,-60L540,-60L540,-180Z" fill="#d636ab" stroke="#d636ab" stroke-width="1.51"/><path d="M420,-180L420,-60L540,-180Z" fill="#d538ab" stroke="#d538ab" stroke-width="1.51"/><path d="M300,1260L420,1260L420,1140Z" fill="#966dda" stroke="#966dda" stroke-width="1.51"/><path d="M300,1140L300,1260L420,1140Z" fill="#956fda" stroke="#956fda" stroke-width="1.51"/><path d="M300,1140L420,1140L420,1020Z" fill="#9772d5" stroke="#9772d5" stroke-width="1.51"/><path d="M300,1020L300,1140L420,1020Z" fill="#9674d4" stroke="#9674d4" stroke-width="1.51"/><path d="M300,1020L420,1020L420,900Z" fill="#9878cf" stroke="#9878cf" stroke-width="1.51"/><path d="M300,900L300,1020L420,900Z" fill="#977ad0" stroke="#977ad0" stroke-width="1.51"/><path d="M300,900L420,900L420,780Z" fill="#ac72c0" stroke="#ac72c0" stroke-width="1.51"/><path d="M300,780L300,900L420,780Z" fill="#b46dba" stroke="#b46dba" stroke-width="1.51"/><path d="M300,780L420,780L420,660Z" fill="#c761aa" stroke="#c761aa" stroke-width="1.51"/><path d="M300,660L300,780L420,660Z" fill="#ce5ba4" stroke="#ce5ba4" stroke-width="1.51"/><path d="M300,660L420,660L420,540Z" fill="#dd4c93" stroke="#dd4c93" stroke-width="1.51"/><path d="M300,540L300,660L420,540Z" fill="#e3448e" stroke="#e3448e" stroke-width="1.51"/><path d="M300,540L420,540L420,420Z" fill="#e7368e" stroke="#e7368e" stroke-width="1.51"/><path d="M300,420L300,540L420,420Z" fill="#e33398" stroke="#e33398" stroke-width="1.51"/><path d="M300,420L420,420L420,300Z" fill="#dc2ba9" stroke="#dc2ba9" stroke-width="1.51"/><path d="M300,300L300,420L420,300Z" fill="#d727b3" stroke="#d727b3" stroke-width="1.51"/><path d="M300,300L420,300L420,180Z" fill="#cf1ec4" stroke="#cf1ec4" stroke-width="1.51"/><path d="M300,180L300,300L420,180Z" fill="#c91ace" stroke="#c91ace" stroke-width="1.51"/><path d="M300,180L420,180L420,60Z" fill="#c013db" stroke="#c013db" stroke-width="1.51"/><path d="M300,60L300,180L420,60Z" fill="#c21bd8" stroke="#c21bd8" stroke-width="1.51"/><path d="M300,60L420,60L420,-60Z" fill="#c724cc" stroke="#c724cc" stroke-width="1.51"/><path d="M300,-60L300,60L420,-60Z" fill="#c929c8" stroke="#c929c8" stroke-width="1.51"/><path d="M300,-60L420,-60L420,-180Z" fill="#cd30bc" stroke="#cd30bc" stroke-width="1.51"/><path d="M300,-180L300,-60L420,-180Z" fill="#ce35b8" stroke="#ce35b8" stroke-width="1.51"/><path d="M180,1260L300,1260L300,1140Z" fill="#996fd4" stroke="#996fd4" stroke-width="1.51"/><path d="M180,1140L180,1260L300,1140Z" fill="#9b72cf" stroke="#9b72cf" stroke-width="1.51"/><path d="M180,1140L300,1140L300,1020Z" fill="#9974cf" stroke="#9974cf" stroke-width="1.51"/><path d="M180,1020L180,1140L300,1020Z" fill="#9c77ca" stroke="#9c77ca" stroke-width="1.51"/><path d="M180,1020L300,1020L300,900Z" fill="#9a7aca" stroke="#9a7aca" stroke-width="1.51"/><path d="M180,900L180,1020L300,900Z" fill="#9c7dc5" stroke="#9c7dc5" stroke-width="1.51"/><path d="M180,900L300,900L300,780Z" fill="#ad74bb" stroke="#ad74bb" stroke-width="1.51"/><path d="M180,780L180,900L300,780Z" fill="#b870af" stroke="#b870af" stroke-width="1.51"/><path d="M180,780L300,780L300,660Z" fill="#c864a4" stroke="#c864a4" stroke-width="1.51"/><path d="M180,660L180,780L300,660Z" fill="#d05f99" stroke="#d05f99" stroke-width="1.51"/><path d="M180,660L300,660L300,540Z" fill="#de508e" stroke="#de508e" stroke-width="1.51"/><path d="M180,540L180,660L300,540Z" fill="#e54a83" stroke="#e54a83" stroke-width="1.51"/><path d="M180,540L300,540L300,420Z" fill="#e83b88" stroke="#e83b88" stroke-width="1.51"/><path d="M180,420L180,540L300,420Z" fill="#e53a8e" stroke="#e53a8e" stroke-width="1.51"/><path d="M180,420L300,420L300,300Z" fill="#dd30a3" stroke="#dd30a3" stroke-width="1.51"/><path d="M180,300L180,420L300,300Z" fill="#da30a9" stroke="#da30a9" stroke-width="1.51"/><path d="M180,300L300,300L300,180Z" fill="#d025be" stroke="#d025be" stroke-width="1.51"/><path d="M180,180L180,300L300,180Z" fill="#cd25c4" stroke="#cd25c4" stroke-width="1.51"/><path d="M180,180L300,180L300,60Z" fill="#c21cd6" stroke="#c21cd6" stroke-width="1.51"/><path d="M180,60L180,180L300,60Z" fill="#c625cd" stroke="#c625cd" stroke-width="1.51"/><path d="M180,60L300,60L300,-60Z" fill="#c92ac6" stroke="#c92ac6" stroke-width="1.51"/><path d="M180,-60L180,60L300,-60Z" fill="#cc30bd" stroke="#cc30bd" stroke-width="1.51"/><path d="M180,-60L300,-60L300,-180Z" fill="#cf35b7" stroke="#cf35b7" stroke-width="1.51"/><path d="M180,-180L180,-60L300,-180Z" fill="#d13bae" stroke="#d13bae" stroke-width="1.51"/><path d="M60,1260L180,1260L180,1140Z" fill="#9f72c9" stroke="#9f72c9" stroke-width="1.51"/><path d="M60,1140L60,1260L180,1140Z" fill="#a175c5" stroke="#a175c5" stroke-width="1.51"/><path d="M60,1140L180,1140L180,1020Z" fill="#9f78c4" stroke="#9f78c4" stroke-width="1.51"/><path d="M60,1020L60,1140L180,1020Z" fill="#a17abf" stroke="#a17abf" stroke-width="1.51"/><path d="M60,1020L180,1020L180,900Z" fill="#9f7dbf" stroke="#9f7dbf" stroke-width="1.51"/><path d="M60,900L60,1020L180,900Z" fill="#a180bb" stroke="#a180bb" stroke-width="1.51"/><path d="M60,900L180,900L180,780Z" fill="#b278b0" stroke="#b278b0" stroke-width="1.51"/><path d="M60,780L60,900L180,780Z" fill="#bb74a5" stroke="#bb74a5" stroke-width="1.51"/><path d="M60,780L180,780L180,660Z" fill="#cb6899" stroke="#cb6899" stroke-width="1.51"/><path d="M60,660L60,780L180,660Z" fill="#d3648f" stroke="#d3648f" stroke-width="1.51"/><path d="M60,660L180,660L180,540Z" fill="#e05583" stroke="#e05583" stroke-width="1.51"/><path d="M60,540L60,660L180,540Z" fill="#e75079" stroke="#e75079" stroke-width="1.51"/><path d="M60,540L180,540L180,420Z" fill="#ea427e" stroke="#ea427e" stroke-width="1.51"/><path d="M60,420L60,540L180,420Z" fill="#e74184" stroke="#e74184" stroke-width="1.51"/><path d="M60,420L180,420L180,300Z" fill="#e03899" stroke="#e03899" stroke-width="1.51"/><path d="M60,300L60,420L180,300Z" fill="#dd379f" stroke="#dd379f" stroke-width="1.51"/><path d="M60,300L180,300L180,180Z" fill="#d42eb4" stroke="#d42eb4" stroke-width="1.51"/><path d="M60,180L60,300L180,180Z" fill="#d12dba" stroke="#d12dba" stroke-width="1.51"/><path d="M60,180L180,180L180,60Z" fill="#c726cb" stroke="#c726cb" stroke-width="1.51"/><path d="M60,60L60,180L180,60Z" fill="#cb2dc3" stroke="#cb2dc3" stroke-width="1.51"/><path d="M60,60L180,60L180,-60Z" fill="#cd32bc" stroke="#cd32bc" stroke-width="1.51"/><path d="M60,-60L60,60L180,-60Z" fill="#d037b3" stroke="#d037b3" stroke-width="1.51"/><path d="M60,-60L180,-60L180,-180Z" fill="#d23cac" stroke="#d23cac" stroke-width="1.51"/><path d="M60,-180L60,-60L180,-180Z" fill="#d441a4" stroke="#d441a4" stroke-width="1.51"/><path d="M-60,1260L60,1260L60,1140Z" fill="#a475bf" stroke="#a475bf" stroke-width="1.51"/><path d="M-60,1140L-60,1260L60,1140Z" fill="#a578ba" stroke="#a578ba" stroke-width="1.51"/><path d="M-60,1140L60,1140L60,1020Z" fill="#a47bba" stroke="#a47bba" stroke-width="1.51"/><path d="M-60,1020L-60,1140L60,1020Z" fill="#a57eb5" stroke="#a57eb5" stroke-width="1.51"/><path d="M-60,1020L60,1020L60,900Z" fill="#a480b5" stroke="#a480b5" stroke-width="1.51"/><path d="M-60,900L-60,1020L60,900Z" fill="#a583b0" stroke="#a583b0" stroke-width="1.51"/><path d="M-60,900L60,900L60,780Z" fill="#b57ba6" stroke="#b57ba6" stroke-width="1.51"/><path d="M-60,780L-60,900L60,780Z" fill="#be779a" stroke="#be779a" stroke-width="1.51"/><path d="M-60,780L60,780L60,660Z" fill="#cd6c8f" stroke="#cd6c8f" stroke-width="1.51"/><path d="M-60,660L-60,780L60,660Z" fill="#d56884" stroke="#d56884" stroke-width="1.51"/><path d="M-60,660L60,660L60,540Z" fill="#e15b79" stroke="#e15b79" stroke-width="1.51"/><path d="M-60,540L-60,660L60,540Z" fill="#e8556f" stroke="#e8556f" stroke-width="1.51"/><path d="M-60,540L60,540L60,420Z" fill="#eb4874" stroke="#eb4874" stroke-width="1.51"/><path d="M-60,420L-60,540L60,420Z" fill="#e94779" stroke="#e94779" stroke-width="1.51"/><path d="M-60,420L60,420L60,300Z" fill="#e23f8f" stroke="#e23f8f" stroke-width="1.51"/><path d="M-60,300L-60,420L60,300Z" fill="#df3e94" stroke="#df3e94" stroke-width="1.51"/><path d="M-60,300L60,300L60,180Z" fill="#d735aa" stroke="#d735aa" stroke-width="1.51"/><path d="M-60,180L-60,300L60,180Z" fill="#d434af" stroke="#d434af" stroke-width="1.51"/><path d="M-60,180L60,180L60,60Z" fill="#cb2ec1" stroke="#cb2ec1" stroke-width="1.51"/><path d="M-60,60L-60,180L60,60Z" fill="#ce34b9" stroke="#ce34b9" stroke-width="1.51"/><path d="M-60,60L60,60L60,-60Z" fill="#d038b2" stroke="#d038b2" stroke-width="1.51"/><path d="M-60,-60L-60,60L60,-60Z" fill="#d33da9" stroke="#d33da9" stroke-width="1.51"/><path d="M-60,-60L60,-60L60,-180Z" fill="#d542a2" stroke="#d542a2" stroke-width="1.51"/><path d="M-60,-180L-60,-60L60,-180Z" fill="#d7479a" stroke="#d7479a" stroke-width="1.51"/><path d="M-180,1260L-60,1260L-60,1140Z" fill="#a879b5" stroke="#a879b5" stroke-width="1.51"/><path d="M-180,1140L-180,1260L-60,1140Z" fill="#a97bb0" stroke="#a97bb0" stroke-width="1.51"/><path d="M-180,1140L-60,1140L-60,1020Z" fill="#a87eb0" stroke="#a87eb0" stroke-width="1.51"/><path d="M-180,1020L-180,1140L-60,1020Z" fill="#a981aa" stroke="#a981aa" stroke-width="1.51"/><path d="M-180,1020L-60,1020L-60,900Z" fill="#a784aa" stroke="#a784aa" stroke-width="1.51"/><path d="M-180,900L-180,1020L-60,900Z" fill="#a886a5" stroke="#a886a5" stroke-width="1.51"/><path d="M-180,900L-60,900L-60,780Z" fill="#b87f9b" stroke="#b87f9b" stroke-width="1.51"/><path d="M-180,780L-180,900L-60,780Z" fill="#c07b90" stroke="#c07b90" stroke-width="1.51"/><path d="M-180,780L-60,780L-60,660Z" fill="#cf7085" stroke="#cf7085" stroke-width="1.51"/><path d="M-180,660L-180,780L-60,660Z" fill="#d66c7a" stroke="#d66c7a" stroke-width="1.51"/><path d="M-180,660L-60,660L-60,540Z" fill="#e35f6f" stroke="#e35f6f" stroke-width="1.51"/><path d="M-180,540L-180,660L-60,540Z" fill="#e95a64" stroke="#e95a64" stroke-width="1.51"/><path d="M-180,540L-60,540L-60,420Z" fill="#ec4e6a" stroke="#ec4e6a" stroke-width="1.51"/><path d="M-180,420L-180,540L-60,420Z" fill="#ea4d6f" stroke="#ea4d6f" stroke-width="1.51"/><path d="M-180,420L-60,420L-60,300Z" fill="#e44585" stroke="#e44585" stroke-width="1.51"/><path d="M-180,300L-180,420L-60,300Z" fill="#e1448a" stroke="#e1448a" stroke-width="1.51"/><path d="M-180,300L-60,300L-60,180Z" fill="#da3ca0" stroke="#da3ca0" stroke-width="1.51"/><path d="M-180,180L-180,300L-60,180Z" fill="#d73ba5" stroke="#d73ba5" stroke-width="1.51"/><path d="M-180,180L-60,180L-60,60Z" fill="#ce35b7" stroke="#ce35b7" stroke-width="1.51"/><path d="M-180,60L-180,180L-60,60Z" fill="#d13aaf" stroke="#d13aaf" stroke-width="1.51"/><path d="M-180,60L-60,60L-60,-60Z" fill="#d33ea8" stroke="#d33ea8" stroke-width="1.51"/><path d="M-180,-60L-180,60L-60,-60Z" fill="#d6439f" stroke="#d6439f" stroke-width="1.51"/><path d="M-180,-60L-60,-60L-60,-180Z" fill="#d84899" stroke="#d84899" stroke-width="1.51"/><path d="M-180,-180L-180,-60L-60,-180Z" fill="#d94c90" stroke="#d94c90" stroke-width="1.51"/></svg>