<svg xmlns="http://www.w3.org/2000/svg" width="1920" height="1080"><path d="M1980,1260L2100,1260L2100,1140Z" fill="#f7be22" stroke="#f7be22" stroke-width="1.51"/><path d="M1980,1140L1980,1260L2100,1140Z" fill="#f8c821" stroke="#f8c821" stroke-width="1.51"/><path d="M1980,1140L2100,1140L2100,1020Z" fill="#f8d020" stroke="#f8d020" stroke-width="1.51"/><path d="M1980,1020L1980,1140L2100,1020Z" fill="#f2c345" stroke="#f2c345" stroke-width="1.51"/><path d="M1980,1020L2100,1020L2100,900Z" fill="#e49c73" stroke="#e49c73" stroke-width="1.51"/><path d="M1980,900L1980,1020L2100,900Z" fill="#dc8e86" stroke="#dc8e86" stroke-width="1.51"/><path d="M1980,900L2100,900L2100,780Z" fill="#cc729d" stroke="#cc729d" stroke-width="1.51"/><path d="M1980,780L1980,900L2100,780Z" fill="#d18a93" stroke="#d18a93" stroke-width="1.51"/><path d="M1980,780L2100,780L2100,660Z" fill="#d9aa7b" stroke="#d9aa7b" stroke-width="1.51"/><path d="M1980,660L1980,780L2100,660Z" fill="#dbc06e" stroke="#dbc06e" stroke-width="1.51"/><path d="M1980,660L2100,660L2100,540Z" fill="#dec566" stroke="#dec566" stroke-width="1.51"/><path d="M1980,540L1980,660L2100,540Z" fill="#dfb975" stroke="#dfb975" stroke-width="1.51"/><path d="M1980,540L2100,540L2100,420Z" fill="#de928d" stroke="#de928d" stroke-width="1.51"/><path d="M1980,420L1980,540L2100,420Z" fill="#dd8599" stroke="#dd8599" stroke-width="1.51"/><path d="M1980,420L2100,420L2100,300Z" fill="#d57d9c" stroke="#d57d9c" stroke-width="1.51"/><path d="M1980,300L1980,420L2100,300Z" fill="#d18b9a" stroke="#d18b9a" stroke-width="1.51"/><path d="M1980,300L2100,300L2100,180Z" fill="#c79893" stroke="#c79893" stroke-width="1.51"/><path d="M1980,180L1980,300L2100,180Z" fill="#c1a491" stroke="#c1a491" stroke-width="1.51"/><path d="M1980,180L2100,180L2100,60Z" fill="#cc978f" stroke="#cc978f" stroke-width="1.51"/><path d="M1980,60L1980,180L2100,60Z" fill="#d39391" stroke="#d39391" stroke-width="1.51"/><path d="M1980,60L2100,60L2100,-60Z" fill="#e17e90" stroke="#e17e90" stroke-width="1.51"/><path d="M1980,-60L1980,60L2100,-60Z" fill="#e77c91" stroke="#e77c91" stroke-width="1.51"/><path d="M1980,-60L2100,-60L2100,-180Z" fill="#dc9a89" stroke="#dc9a89" stroke-width="1.51"/><path d="M1980,-180L1980,-60L2100,-180Z" fill="#d5ae86" stroke="#d5ae86" stroke-width="1.51"/><path d="M1860,1260L1980,1260L1980,1140Z" fill="#f8ca20" stroke="#f8ca20" stroke-width="1.51"/><path d="M1860,1140L1860,1260L1980,1140Z" fill="#f8d31f" stroke="#f8d31f" stroke-width="1.51"/><path d="M1860,1140L1980,1140L1980,1020Z" fill="#f8db1e" stroke="#f8db1e" stroke-width="1.51"/><path d="M1860,1020L1860,1140L1980,1020Z" fill="#f3ce46" stroke="#f3ce46" stroke-width="1.51"/><path d="M1860,1020L1980,1020L1980,900Z" fill="#e5a775" stroke="#e5a775" stroke-width="1.51"/><path d="M1860,900L1860,1020L1980,900Z" fill="#dd9988" stroke="#dd9988" stroke-width="1.51"/><path d="M1860,900L1980,900L1980,780Z" fill="#cd7fa0" stroke="#cd7fa0" stroke-width="1.51"/><path d="M1860,780L1860,900L1980,780Z" fill="#d29596" stroke="#d29596" stroke-width="1.51"/><path d="M1860,780L1980,780L1980,660Z" fill="#d9b67d" stroke="#d9b67d" stroke-width="1.51"/><path d="M1860,660L1860,780L1980,660Z" fill="#dbcb6f" stroke="#dbcb6f" stroke-width="1.51"/><path d="M1860,660L1980,660L1980,540Z" fill="#ded068" stroke="#ded068" stroke-width="1.51"/><path d="M1860,540L1860,660L1980,540Z" fill="#dfc377" stroke="#dfc377" stroke-width="1.51"/><path d="M1860,540L1980,540L1980,420Z" fill="#df9e8f" stroke="#df9e8f" stroke-width="1.51"/><path d="M1860,420L1860,540L1980,420Z" fill="#de909b" stroke="#de909b" stroke-width="1.51"/><path d="M1860,420L1980,420L1980,300Z" fill="#d68a9f" stroke="#d68a9f" stroke-width="1.51"/><path d="M1860,300L1860,420L1980,300Z" fill="#d2969d" stroke="#d2969d" stroke-width="1.51"/><path d="M1860,300L1980,300L1980,180Z" fill="#c7a396" stroke="#c7a396" stroke-width="1.51"/><path d="M1860,180L1860,300L1980,180Z" fill="#c0ae94" stroke="#c0ae94" stroke-width="1.51"/><path d="M1860,180L1980,180L1980,60Z" fill="#cca292" stroke="#cca292" stroke-width="1.51"/><path d="M1860,60L1860,180L1980,60Z" fill="#d49f93" stroke="#d49f93" stroke-width="1.51"/><path d="M1860,60L1980,60L1980,-60Z" fill="#e28b93" stroke="#e28b93" stroke-width="1.51"/><path d="M1860,-60L1860,60L1980,-60Z" fill="#e98894" stroke="#e98894" stroke-width="1.51"/><path d="M1860,-60L1980,-60L1980,-180Z" fill="#dda68c" stroke="#dda68c" stroke-width="1.51"/><path d="M1860,-180L1860,-60L1980,-180Z" fill="#d6b989" stroke="#d6b989" stroke-width="1.51"/><path d="M1740,1260L1860,1260L1860,1140Z" fill="#f8d51f" stroke="#f8d51f" stroke-width="1.51"/><path d="M1740,1140L1740,1260L1860,1140Z" fill="#f5d03b" stroke="#f5d03b" stroke-width="1.51"/><path d="M1740,1140L1860,1140L1860,1020Z" fill="#f8e61c" stroke="#f8e61c" stroke-width="1.51"/><path d="M1740,1020L1740,1140L1860,1020Z" fill="#f0cc58" stroke="#f0cc58" stroke-width="1.51"/><path d="M1740,1020L1860,1020L1860,900Z" fill="#e6b277" stroke="#e6b277" stroke-width="1.51"/><path d="M1740,900L1740,1020L1860,900Z" fill="#d89795" stroke="#d89795" stroke-width="1.51"/><path d="M1740,900L1860,900L1860,780Z" fill="#ce8aa3" stroke="#ce8aa3" stroke-width="1.51"/><path d="M1740,780L1740,900L1860,780Z" fill="#cd93a2" stroke="#cd93a2" stroke-width="1.51"/><path d="M1740,780L1860,780L1860,660Z" fill="#d9c07f" stroke="#d9c07f" stroke-width="1.51"/><path d="M1740,660L1740,780L1860,660Z" fill="#d7c97e" stroke="#d7c97e" stroke-width="1.51"/><path d="M1740,660L1860,660L1860,540Z" fill="#dddb6a" stroke="#dddb6a" stroke-width="1.51"/><path d="M1740,540L1740,660L1860,540Z" fill="#dbc185" stroke="#dbc185" stroke-width="1.51"/><path d="M1740,540L1860,540L1860,420Z" fill="#e0a992" stroke="#e0a992" stroke-width="1.51"/><path d="M1740,420L1740,540L1860,420Z" fill="#d98ea8" stroke="#d98ea8" stroke-width="1.51"/><path d="M1740,420L1860,420L1860,300Z" fill="#d795a2" stroke="#d795a2" stroke-width="1.51"/><path d="M1740,300L1740,420L1860,300Z" fill="#cc94aa" stroke="#cc94aa" stroke-width="1.51"/><path d="M1740,300L1860,300L1860,180Z" fill="#c7ae99" stroke="#c7ae99" stroke-width="1.51"/><path d="M1740,180L1740,300L1860,180Z" fill="#baaca1" stroke="#baaca1" stroke-width="1.51"/><path d="M1740,180L1860,180L1860,60Z" fill="#ccad95" stroke="#ccad95" stroke-width="1.51"/><path d="M1740,60L1740,180L1860,60Z" fill="#ce9ca0" stroke="#ce9ca0" stroke-width="1.51"/><path d="M1740,60L1860,60L1860,-60Z" fill="#e39796" stroke="#e39796" stroke-width="1.51"/><path d="M1740,-60L1740,60L1860,-60Z" fill="#e486a1" stroke="#e486a1" stroke-width="1.51"/><path d="M1740,-60L1860,-60L1860,-180Z" fill="#ddb18e" stroke="#ddb18e" stroke-width="1.51"/><path d="M1740,-180L1740,-60L1860,-180Z" fill="#d0b796" stroke="#d0b796" stroke-width="1.51"/><path d="M1620,1260L1740,1260L1740,1140Z" fill="#ecb35e" stroke="#ecb35e" stroke-width="1.51"/><path d="M1620,1140L1620,1260L1740,1140Z" fill="#e8ae6e" stroke="#e8ae6e" stroke-width="1.51"/><path d="M1620,1140L1740,1140L1740,1020Z" fill="#edc561" stroke="#edc561" stroke-width="1.51"/><path d="M1620,1020L1620,1140L1740,1020Z" fill="#e1aa82" stroke="#e1aa82" stroke-width="1.51"/><path d="M1620,1020L1740,1020L1740,900Z" fill="#d4929a" stroke="#d4929a" stroke-width="1.51"/><path d="M1620,900L1620,1020L1740,900Z" fill="#c174b5" stroke="#c174b5" stroke-width="1.51"/><path d="M1620,900L1740,900L1740,780Z" fill="#b569c2" stroke="#b569c2" stroke-width="1.51"/><path d="M1620,780L1620,900L1740,780Z" fill="#b471c2" stroke="#b471c2" stroke-width="1.51"/><path d="M1620,780L1740,780L1740,660Z" fill="#c8a0a2" stroke="#c8a0a2" stroke-width="1.51"/><path d="M1620,660L1620,780L1740,660Z" fill="#c5a7a3" stroke="#c5a7a3" stroke-width="1.51"/><path d="M1620,660L1740,660L1740,540Z" fill="#cfbb91" stroke="#cfbb91" stroke-width="1.51"/><path d="M1620,540L1620,660L1740,540Z" fill="#c99fa8" stroke="#c99fa8" stroke-width="1.51"/><path d="M1620,540L1740,540L1740,420Z" fill="#cb89b3" stroke="#cb89b3" stroke-width="1.51"/><path d="M1620,420L1620,540L1740,420Z" fill="#bf6bc8" stroke="#bf6bc8" stroke-width="1.51"/><path d="M1620,420L1740,420L1740,300Z" fill="#c074c2" stroke="#c074c2" stroke-width="1.51"/><path d="M1620,300L1620,420L1740,300Z" fill="#b273c9" stroke="#b273c9" stroke-width="1.51"/><path d="M1620,300L1740,300L1740,180Z" fill="#b18fb9" stroke="#b18fb9" stroke-width="1.51"/><path d="M1620,180L1620,300L1740,180Z" fill="#a28cc2" stroke="#a28cc2" stroke-width="1.51"/><path d="M1620,180L1740,180L1740,60Z" fill="#b78eb5" stroke="#b78eb5" stroke-width="1.51"/><path d="M1620,60L1620,180L1740,60Z" fill="#b67bc0" stroke="#b67bc0" stroke-width="1.51"/><path d="M1620,60L1740,60L1740,-60Z" fill="#cd75b6" stroke="#cd75b6" stroke-width="1.51"/><path d="M1620,-60L1620,60L1740,-60Z" fill="#cb61c0" stroke="#cb61c0" stroke-width="1.51"/><path d="M1620,-60L1740,-60L1740,-180Z" fill="#c991b0" stroke="#c991b0" stroke-width="1.51"/><path d="M1620,-180L1620,-60L1740,-180Z" fill="#bb96b8" stroke="#bb96b8" stroke-width="1.51"/><path d="M1500,1260L1620,1260L1620,1140Z" fill="#dd9085" stroke="#dd9085" stroke-width="1.51"/><path d="M1500,1140L1500,1260L1620,1140Z" fill="#d78b92" stroke="#d78b92" stroke-width="1.51"/><path d="M1500,1140L1620,1140L1620,1020Z" fill="#dea289" stroke="#dea289" stroke-width="1.51"/><path d="M1500,1020L1500,1140L1620,1020Z" fill="#ce87a4" stroke="#ce87a4" stroke-width="1.51"/><path d="M1500,1020L1620,1020L1620,900Z" fill="#bd6fba" stroke="#bd6fba" stroke-width="1.51"/><path d="M1500,900L1500,1020L1620,900Z" fill="#a251d4" stroke="#a251d4" stroke-width="1.51"/><path d="M1500,900L1620,900L1620,780Z" fill="#9145e0" stroke="#9145e0" stroke-width="1.51"/><path d="M1500,780L1500,900L1620,780Z" fill="#8f4fe0" stroke="#8f4fe0" stroke-width="1.51"/><path d="M1500,780L1620,780L1620,660Z" fill="#af7fc3" stroke="#af7fc3" stroke-width="1.51"/><path d="M1500,660L1500,780L1620,660Z" fill="#ad87c3" stroke="#ad87c3" stroke-width="1.51"/><path d="M1500,660L1620,660L1620,540Z" fill="#bb99b4" stroke="#bb99b4" stroke-width="1.51"/><path d="M1500,540L1500,660L1620,540Z" fill="#af7ec9" stroke="#af7ec9" stroke-width="1.51"/><path d="M1500,540L1620,540L1620,420Z" fill="#af66d2" stroke="#af66d2" stroke-width="1.51"/><path d="M1500,420L1500,540L1620,420Z" fill="#9b46e6" stroke="#9b46e6" stroke-width="1.51"/><path d="M1500,420L1620,420L1620,300Z" fill="#9e51e0" stroke="#9e51e0" stroke-width="1.51"/><path d="M1500,300L1500,420L1620,300Z" fill="#8b50e8" stroke="#8b50e8" stroke-width="1.51"/><path d="M1500,300L1620,300L1620,180Z" fill="#906ed9" stroke="#906ed9" stroke-width="1.51"/><path d="M1500,180L1500,300L1620,180Z" fill="#7c6de1" stroke="#7c6de1" stroke-width="1.51"/><path d="M1500,180L1620,180L1620,60Z" fill="#986dd5" stroke="#986dd5" stroke-width="1.51"/><path d="M1500,60L1500,180L1620,60Z" fill="#9359df" stroke="#9359df" stroke-width="1.51"/><path d="M1500,60L1620,60L1620,-60Z" fill="#b04fd5" stroke="#b04fd5" stroke-width="1.51"/><path d="M1500,-60L1500,60L1620,-60Z" fill="#aa36de" stroke="#aa36de" stroke-width="1.51"/><path d="M1500,-60L1620,-60L1620,-180Z" fill="#ae6ecf" stroke="#ae6ecf" stroke-width="1.51"/><path d="M1500,-180L1500,-60L1620,-180Z" fill="#9d75d7" stroke="#9d75d7" stroke-width="1.51"/><path d="M1380,1260L1500,1260L1500,1140Z" fill="#cc76a0" stroke="#cc76a0" stroke-width="1.51"/><path d="M1380,1140L1380,1260L1500,1140Z" fill="#d0889a" stroke="#d0889a" stroke-width="1.51"/><path d="M1380,1140L1500,1140L1500,1020Z" fill="#ce88a4" stroke="#ce88a4" stroke-width="1.51"/><path d="M1380,1020L1380,1140L1500,1020Z" fill="#c685ad" stroke="#c685ad" stroke-width="1.51"/><path d="M1380,1020L1500,1020L1500,900Z" fill="#a354d3" stroke="#a354d3" stroke-width="1.51"/><path d="M1380,900L1380,1020L1500,900Z" fill="#964fdc" stroke="#964fdc" stroke-width="1.51"/><path d="M1380,900L1500,900L1500,780Z" fill="#6228f9" stroke="#6228f9" stroke-width="1.51"/><path d="M1380,780L1380,900L1500,780Z" fill="#814ee9" stroke="#814ee9" stroke-width="1.51"/><path d="M1380,780L1500,780L1500,660Z" fill="#9367dc" stroke="#9367dc" stroke-width="1.51"/><path d="M1380,660L1380,780L1500,660Z" fill="#a384cb" stroke="#a384cb" stroke-width="1.51"/><path d="M1380,660L1500,660L1500,540Z" fill="#a481ce" stroke="#a481ce" stroke-width="1.51"/><path d="M1380,540L1380,660L1500,540Z" fill="#a57cd1" stroke="#a57cd1" stroke-width="1.51"/><path d="M1380,540L1500,540L1500,420Z" fill="#8f4ceb" stroke="#8f4ceb" stroke-width="1.51"/><path d="M1380,420L1380,540L1500,420Z" fill="#8e45ee" stroke="#8e45ee" stroke-width="1.51"/><path d="M1380,420L1500,420L1500,300Z" fill="#7534f9" stroke="#7534f9" stroke-width="1.51"/><path d="M1380,300L1380,420L1500,300Z" fill="#7c4ff0" stroke="#7c4ff0" stroke-width="1.51"/><path d="M1380,300L1500,300L1500,180Z" fill="#6657f2" stroke="#6657f2" stroke-width="1.51"/><path d="M1380,180L1380,300L1500,180Z" fill="#6b6be9" stroke="#6b6be9" stroke-width="1.51"/><path d="M1380,180L1500,180L1500,60Z" fill="#7255ee" stroke="#7255ee" stroke-width="1.51"/><path d="M1380,60L1380,180L1500,60Z" fill="#8658e7" stroke="#8658e7" stroke-width="1.51"/><path d="M1380,60L1500,60L1500,-60Z" fill="#8e30ed" stroke="#8e30ed" stroke-width="1.51"/><path d="M1380,-60L1380,60L1500,-60Z" fill="#9f35e6" stroke="#9f35e6" stroke-width="1.51"/><path d="M1380,-60L1500,-60L1500,-180Z" fill="#8e55e8" stroke="#8e55e8" stroke-width="1.51"/><path d="M1380,-180L1380,-60L1500,-180Z" fill="#9173e0" stroke="#9173e0" stroke-width="1.51"/><path d="M1260,1260L1380,1260L1380,1140Z" fill="#d59a8a" stroke="#d59a8a" stroke-width="1.51"/><path d="M1260,1140L1260,1260L1380,1140Z" fill="#d8ac84" stroke="#d8ac84" stroke-width="1.51"/><path d="M1260,1140L1380,1140L1380,1020Z" fill="#d6ac8e" stroke="#d6ac8e" stroke-width="1.51"/><path d="M1260,1020L1260,1140L1380,1020Z" fill="#cfa897" stroke="#cfa897" stroke-width="1.51"/><path d="M1260,1020L1380,1020L1380,900Z" fill="#b47ac0" stroke="#b47ac0" stroke-width="1.51"/><path d="M1260,900L1260,1020L1380,900Z" fill="#aa74c9" stroke="#aa74c9" stroke-width="1.51"/><path d="M1260,900L1380,900L1380,780Z" fill="#8653e6" stroke="#8653e6" stroke-width="1.51"/><path d="M1260,780L1260,900L1380,780Z" fill="#9972d6" stroke="#9972d6" stroke-width="1.51"/><path d="M1260,780L1380,780L1380,660Z" fill="#a589c8" stroke="#a589c8" stroke-width="1.51"/><path d="M1260,660L1260,780L1380,660Z" fill="#afa6b7" stroke="#afa6b7" stroke-width="1.51"/><path d="M1260,660L1380,660L1380,540Z" fill="#b1a3b9" stroke="#b1a3b9" stroke-width="1.51"/><path d="M1260,540L1260,660L1380,540Z" fill="#b29ebd" stroke="#b29ebd" stroke-width="1.51"/><path d="M1260,540L1380,540L1380,420Z" fill="#a572d8" stroke="#a572d8" stroke-width="1.51"/><path d="M1260,420L1260,540L1380,420Z" fill="#a66cdb" stroke="#a66cdb" stroke-width="1.51"/><path d="M1260,420L1380,420L1380,300Z" fill="#935ee6" stroke="#935ee6" stroke-width="1.51"/><path d="M1260,300L1260,420L1380,300Z" fill="#9673dd" stroke="#9673dd" stroke-width="1.51"/><path d="M1260,300L1380,300L1380,180Z" fill="#8379de" stroke="#8379de" stroke-width="1.51"/><path d="M1260,180L1260,300L1380,180Z" fill="#848bd5" stroke="#848bd5" stroke-width="1.51"/><path d="M1260,180L1380,180L1380,60Z" fill="#8c78da" stroke="#8c78da" stroke-width="1.51"/><path d="M1260,60L1260,180L1380,60Z" fill="#9c7bd4" stroke="#9c7bd4" stroke-width="1.51"/><path d="M1260,60L1380,60L1380,-60Z" fill="#a65dda" stroke="#a65dda" stroke-width="1.51"/><path d="M1260,-60L1260,60L1380,-60Z" fill="#b462d4" stroke="#b462d4" stroke-width="1.51"/><path d="M1260,-60L1380,-60L1380,-180Z" fill="#a479d5" stroke="#a479d5" stroke-width="1.51"/><path d="M1260,-180L1260,-60L1380,-180Z" fill="#a295cc" stroke="#a295cc" stroke-width="1.51"/><path d="M1140,1260L1260,1260L1260,1140Z" fill="#dbbd71" stroke="#dbbd71" stroke-width="1.51"/><path d="M1140,1140L1140,1260L1260,1140Z" fill="#dcce68" stroke="#dcce68" stroke-width="1.51"/><path d="M1140,1140L1260,1140L1260,1020Z" fill="#dbce74" stroke="#dbce74" stroke-width="1.51"/><path d="M1140,1020L1140,1140L1260,1020Z" fill="#d4ca7e" stroke="#d4ca7e" stroke-width="1.51"/><path d="M1140,1020L1260,1020L1260,900Z" fill="#c09dab" stroke="#c09dab" stroke-width="1.51"/><path d="M1140,900L1140,1020L1260,900Z" fill="#b797b5" stroke="#b797b5" stroke-width="1.51"/><path d="M1140,900L1260,900L1260,780Z" fill="#9c77d3" stroke="#9c77d3" stroke-width="1.51"/><path d="M1140,780L1140,900L1260,780Z" fill="#a994c2" stroke="#a994c2" stroke-width="1.51"/><path d="M1140,780L1260,780L1260,660Z" fill="#b1abb4" stroke="#b1abb4" stroke-width="1.51"/><path d="M1140,660L1140,780L1260,660Z" fill="#b6c7a1" stroke="#b6c7a1" stroke-width="1.51"/><path d="M1140,660L1260,660L1260,540Z" fill="#b8c4a3" stroke="#b8c4a3" stroke-width="1.51"/><path d="M1140,540L1140,660L1260,540Z" fill="#bbc0a7" stroke="#bbc0a7" stroke-width="1.51"/><path d="M1140,540L1260,540L1260,420Z" fill="#b594c4" stroke="#b594c4" stroke-width="1.51"/><path d="M1140,420L1140,540L1260,420Z" fill="#b68fc7" stroke="#b68fc7" stroke-width="1.51"/><path d="M1140,420L1260,420L1260,300Z" fill="#a781d3" stroke="#a781d3" stroke-width="1.51"/><path d="M1140,300L1140,420L1260,300Z" fill="#a795c9" stroke="#a795c9" stroke-width="1.51"/><path d="M1140,300L1260,300L1260,180Z" fill="#9699cb" stroke="#9699cb" stroke-width="1.51"/><path d="M1140,180L1140,300L1260,180Z" fill="#92abc1" stroke="#92abc1" stroke-width="1.51"/><path d="M1140,180L1260,180L1260,60Z" fill="#9d99c7" stroke="#9d99c7" stroke-width="1.51"/><path d="M1140,60L1140,180L1260,60Z" fill="#ab9cc0" stroke="#ab9cc0" stroke-width="1.51"/><path d="M1140,60L1260,60L1260,-60Z" fill="#b882c7" stroke="#b882c7" stroke-width="1.51"/><path d="M1140,-60L1140,60L1260,-60Z" fill="#c387c0" stroke="#c387c0" stroke-width="1.51"/><path d="M1140,-60L1260,-60L1260,-180Z" fill="#b29cc1" stroke="#b29cc1" stroke-width="1.51"/><path d="M1140,-180L1140,-60L1260,-180Z" fill="#adb6b7" stroke="#adb6b7" stroke-width="1.51"/><path d="M1020,1260L1140,1260L1140,1140Z" fill="#ddce63" stroke="#ddce63" stroke-width="1.51"/><path d="M1020,1140L1020,1260L1140,1140Z" fill="#dfca6e" stroke="#dfca6e" stroke-width="1.51"/><path d="M1020,1140L1140,1140L1140,1020Z" fill="#dddf65" stroke="#dddf65" stroke-width="1.51"/><path d="M1020,1020L1020,1140L1140,1020Z" fill="#d7c583" stroke="#d7c583" stroke-width="1.51"/><path d="M1020,1020L1140,1020L1140,900Z" fill="#c5ada1" stroke="#c5ada1" stroke-width="1.51"/><path d="M1020,900L1020,1020L1140,900Z" fill="#b992b9" stroke="#b992b9" stroke-width="1.51"/><path d="M1020,900L1140,900L1140,780Z" fill="#a688ca" stroke="#a688ca" stroke-width="1.51"/><path d="M1020,780L1020,900L1140,780Z" fill="#ab8fc6" stroke="#ab8fc6" stroke-width="1.51"/><path d="M1020,780L1140,780L1140,660Z" fill="#b6bba9" stroke="#b6bba9" stroke-width="1.51"/><path d="M1020,660L1020,780L1140,660Z" fill="#b9c2a5" stroke="#b9c2a5" stroke-width="1.51"/><path d="M1020,660L1140,660L1140,540Z" fill="#bcd598" stroke="#bcd598" stroke-width="1.51"/><path d="M1020,540L1020,660L1140,540Z" fill="#bdbbab" stroke="#bdbbab" stroke-width="1.51"/><path d="M1020,540L1140,540L1140,420Z" fill="#bca5ba" stroke="#bca5ba" stroke-width="1.51"/><path d="M1020,420L1020,540L1140,420Z" fill="#b78acb" stroke="#b78acb" stroke-width="1.51"/><path d="M1020,420L1140,420L1140,300Z" fill="#b092c9" stroke="#b092c9" stroke-width="1.51"/><path d="M1020,300L1020,420L1140,300Z" fill="#a890cd" stroke="#a890cd" stroke-width="1.51"/><path d="M1020,300L1140,300L1140,180Z" fill="#9da9c1" stroke="#9da9c1" stroke-width="1.51"/><path d="M1020,180L1020,300L1140,180Z" fill="#94a7c5" stroke="#94a7c5" stroke-width="1.51"/><path d="M1020,180L1140,180L1140,60Z" fill="#a4a9bd" stroke="#a4a9bd" stroke-width="1.51"/><path d="M1020,60L1020,180L1140,60Z" fill="#ad98c4" stroke="#ad98c4" stroke-width="1.51"/><path d="M1020,60L1140,60L1140,-60Z" fill="#bf93bd" stroke="#bf93bd" stroke-width="1.51"/><path d="M1020,-60L1020,60L1140,-60Z" fill="#c582c4" stroke="#c582c4" stroke-width="1.51"/><path d="M1020,-60L1140,-60L1140,-180Z" fill="#b9acb7" stroke="#b9acb7" stroke-width="1.51"/><path d="M1020,-180L1020,-60L1140,-180Z" fill="#b0b1bb" stroke="#b0b1bb" stroke-width="1.51"/><path d="M900,1260L1020,1260L1020,1140Z" fill="#dfae7e" stroke="#dfae7e" stroke-width="1.51"/><path d="M900,1140L900,1260L1020,1140Z" fill="#e0a987" stroke="#e0a987" stroke-width="1.51"/><path d="M900,1140L1020,1140L1020,1020Z" fill="#e0c082" stroke="#e0c082" stroke-width="1.51"/><path d="M900,1020L900,1140L1020,1020Z" fill="#d7a59b" stroke="#d7a59b" stroke-width="1.51"/><path d="M900,1020L1020,1020L1020,900Z" fill="#c28db6" stroke="#c28db6" stroke-width="1.51"/><path d="M900,900L900,1020L1020,900Z" fill="#b171cd" stroke="#b171cd" stroke-width="1.51"/><path d="M900,900L1020,900L1020,780Z" fill="#9b67dd" stroke="#9b67dd" stroke-width="1.51"/><path d="M900,780L900,900L1020,780Z" fill="#a16fd9" stroke="#a16fd9" stroke-width="1.51"/><path d="M900,780L1020,780L1020,660Z" fill="#b49cbe" stroke="#b49cbe" stroke-width="1.51"/><path d="M900,660L900,780L1020,660Z" fill="#b8a4bb" stroke="#b8a4bb" stroke-width="1.51"/><path d="M900,660L1020,660L1020,540Z" fill="#bdb6af" stroke="#bdb6af" stroke-width="1.51"/><path d="M900,540L900,660L1020,540Z" fill="#bb9cc0" stroke="#bb9cc0" stroke-width="1.51"/><path d="M900,540L1020,540L1020,420Z" fill="#b685cf" stroke="#b685cf" stroke-width="1.51"/><path d="M900,420L900,540L1020,420Z" fill="#ae68df" stroke="#ae68df" stroke-width="1.51"/><path d="M900,420L1020,420L1020,300Z" fill="#a771dd" stroke="#a771dd" stroke-width="1.51"/><path d="M900,300L900,420L1020,300Z" fill="#9e70e1" stroke="#9e70e1" stroke-width="1.51"/><path d="M900,300L1020,300L1020,180Z" fill="#978bd5" stroke="#978bd5" stroke-width="1.51"/><path d="M900,180L900,300L1020,180Z" fill="#8d89d9" stroke="#8d89d9" stroke-width="1.51"/><path d="M900,180L1020,180L1020,60Z" fill="#9e8ad1" stroke="#9e8ad1" stroke-width="1.51"/><path d="M900,60L900,180L1020,60Z" fill="#a478d8" stroke="#a478d8" stroke-width="1.51"/><path d="M900,60L1020,60L1020,-60Z" fill="#b872d1" stroke="#b872d1" stroke-width="1.51"/><path d="M900,-60L900,60L1020,-60Z" fill="#bb5ed7" stroke="#bb5ed7" stroke-width="1.51"/><path d="M900,-60L1020,-60L1020,-180Z" fill="#b48dcc" stroke="#b48dcc" stroke-width="1.51"/><path d="M900,-180L900,-60L1020,-180Z" fill="#ab92d0" stroke="#ab92d0" stroke-width="1.51"/><path d="M780,1260L900,1260L900,1140Z" fill="#de8c95" stroke="#de8c95" stroke-width="1.51"/><path d="M780,1140L780,1260L900,1140Z" fill="#dd879d" stroke="#dd879d" stroke-width="1.51"/><path d="M780,1140L900,1140L900,1020Z" fill="#df9f99" stroke="#df9f99" stroke-width="1.51"/><path d="M780,1020L780,1140L900,1020Z" fill="#d383b0" stroke="#d383b0" stroke-width="1.51"/><path d="M780,1020L900,1020L900,900Z" fill="#bb6bca" stroke="#bb6bca" stroke-width="1.51"/><path d="M780,900L780,1020L900,900Z" fill="#a54bdf" stroke="#a54bdf" stroke-width="1.51"/><path d="M780,900L900,900L900,780Z" fill="#8a41f0" stroke="#8a41f0" stroke-width="1.51"/><path d="M780,780L780,900L900,780Z" fill="#924aec" stroke="#924aec" stroke-width="1.51"/><path d="M780,780L900,780L900,660Z" fill="#ad7cd2" stroke="#ad7cd2" stroke-width="1.51"/><path d="M780,660L780,780L900,660Z" fill="#b184cf" stroke="#b184cf" stroke-width="1.51"/><path d="M780,660L900,660L900,540Z" fill="#ba96c4" stroke="#ba96c4" stroke-width="1.51"/><path d="M780,540L780,660L900,540Z" fill="#b37bd4" stroke="#b37bd4" stroke-width="1.51"/><path d="M780,540L900,540L900,420Z" fill="#ab62e2" stroke="#ab62e2" stroke-width="1.51"/><path d="M780,420L780,540L900,420Z" fill="#9e40f2" stroke="#9e40f2" stroke-width="1.51"/><path d="M780,420L900,420L900,300Z" fill="#984cf0" stroke="#984cf0" stroke-width="1.51"/><path d="M780,300L780,420L900,300Z" fill="#8d4cf4" stroke="#8d4cf4" stroke-width="1.51"/><path d="M780,300L900,300L900,180Z" fill="#8a6be8" stroke="#8a6be8" stroke-width="1.51"/><path d="M780,180L780,300L900,180Z" fill="#7e6aec" stroke="#7e6aec" stroke-width="1.51"/><path d="M780,180L900,180L900,60Z" fill="#936ae5" stroke="#936ae5" stroke-width="1.51"/><path d="M780,60L780,180L900,60Z" fill="#9655eb" stroke="#9655eb" stroke-width="1.51"/><path d="M780,60L900,60L900,-60Z" fill="#ac4be4" stroke="#ac4be4" stroke-width="1.51"/><path d="M780,-60L780,60L900,-60Z" fill="#ad2dea" stroke="#ad2dea" stroke-width="1.51"/><path d="M780,-60L900,-60L900,-180Z" fill="#aa6bdf" stroke="#aa6bdf" stroke-width="1.51"/><path d="M780,-180L780,-60L900,-180Z" fill="#a172e3" stroke="#a172e3" stroke-width="1.51"/><path d="M660,1260L780,1260L780,1140Z" fill="#d77f9f" stroke="#d77f9f" stroke-width="1.51"/><path d="M660,1140L660,1260L780,1140Z" fill="#d58b9f" stroke="#d58b9f" stroke-width="1.51"/><path d="M660,1140L780,1140L780,1020Z" fill="#d992a3" stroke="#d992a3" stroke-width="1.51"/><path d="M660,1020L660,1140L780,1020Z" fill="#cb88b1" stroke="#cb88b1" stroke-width="1.51"/><path d="M660,1020L780,1020L780,900Z" fill="#b15dd3" stroke="#b15dd3" stroke-width="1.51"/><path d="M660,900L660,1020L780,900Z" fill="#9b52e1" stroke="#9b52e1" stroke-width="1.51"/><path d="M660,900L780,900L780,780Z" fill="#7931f9" stroke="#7931f9" stroke-width="1.51"/><path d="M660,780L660,900L780,780Z" fill="#8750ed" stroke="#8750ed" stroke-width="1.51"/><path d="M660,780L780,780L780,660Z" fill="#a26fdc" stroke="#a26fdc" stroke-width="1.51"/><path d="M660,660L660,780L780,660Z" fill="#a887d0" stroke="#a887d0" stroke-width="1.51"/><path d="M660,660L780,660L780,540Z" fill="#b18acd" stroke="#b18acd" stroke-width="1.51"/><path d="M660,540L660,660L780,540Z" fill="#aa7fd6" stroke="#aa7fd6" stroke-width="1.51"/><path d="M660,540L780,540L780,420Z" fill="#9f54eb" stroke="#9f54eb" stroke-width="1.51"/><path d="M660,420L660,540L780,420Z" fill="#9448f3" stroke="#9448f3" stroke-width="1.51"/><path d="M660,420L780,420L780,300Z" fill="#893df9" stroke="#893df9" stroke-width="1.51"/><path d="M660,300L660,420L780,300Z" fill="#8252f5" stroke="#8252f5" stroke-width="1.51"/><path d="M660,300L780,300L780,180Z" fill="#7b5ff2" stroke="#7b5ff2" stroke-width="1.51"/><path d="M660,180L660,300L780,180Z" fill="#716eee" stroke="#716eee" stroke-width="1.51"/><path d="M660,180L780,180L780,60Z" fill="#845dee" stroke="#845dee" stroke-width="1.51"/><path d="M660,60L660,180L780,60Z" fill="#8b5aec" stroke="#8b5aec" stroke-width="1.51"/><path d="M660,60L780,60L780,-60Z" fill="#9f3aed" stroke="#9f3aed" stroke-width="1.51"/><path d="M660,-60L660,60L780,-60Z" fill="#a438eb" stroke="#a438eb" stroke-width="1.51"/><path d="M660,-60L780,-60L780,-180Z" fill="#9e5ee8" stroke="#9e5ee8" stroke-width="1.51"/><path d="M660,-180L660,-60L780,-180Z" fill="#9676e4" stroke="#9676e4" stroke-width="1.51"/><path d="M540,1260L660,1260L660,1140Z" fill="#ce9199" stroke="#ce9199" stroke-width="1.51"/><path d="M540,1140L540,1260L660,1140Z" fill="#cb9c99" stroke="#cb9c99" stroke-width="1.51"/><path d="M540,1140L660,1140L660,1020Z" fill="#cfa29d" stroke="#cfa29d" stroke-width="1.51"/><path d="M540,1020L540,1140L660,1020Z" fill="#c198ac" stroke="#c198ac" stroke-width="1.51"/><path d="M540,1020L660,1020L660,900Z" fill="#a971ce" stroke="#a971ce" stroke-width="1.51"/><path d="M540,900L540,1020L660,900Z" fill="#9266dc" stroke="#9266dc" stroke-width="1.51"/><path d="M540,900L660,900L660,780Z" fill="#704bf4" stroke="#704bf4" stroke-width="1.51"/><path d="M540,780L540,900L660,780Z" fill="#7d64e8" stroke="#7d64e8" stroke-width="1.51"/><path d="M540,780L660,780L660,660Z" fill="#9880d6" stroke="#9880d6" stroke-width="1.51"/><path d="M540,660L540,780L660,660Z" fill="#9c97cb" stroke="#9c97cb" stroke-width="1.51"/><path d="M540,660L660,660L660,540Z" fill="#a69ac8" stroke="#a69ac8" stroke-width="1.51"/><path d="M540,540L540,660L660,540Z" fill="#9f8fd0" stroke="#9f8fd0" stroke-width="1.51"/><path d="M540,540L660,540L660,420Z" fill="#9669e6" stroke="#9669e6" stroke-width="1.51"/><path d="M540,420L540,540L660,420Z" fill="#8b5dee" stroke="#8b5dee" stroke-width="1.51"/><path d="M540,420L660,420L660,300Z" fill="#8055f4" stroke="#8055f4" stroke-width="1.51"/><path d="M540,300L540,420L660,300Z" fill="#7765f0" stroke="#7765f0" stroke-width="1.51"/><path d="M540,300L660,300L660,180Z" fill="#6f70ed" stroke="#6f70ed" stroke-width="1.51"/><path d="M540,180L540,300L660,180Z" fill="#637ee9" stroke="#637ee9" stroke-width="1.51"/><path d="M540,180L660,180L660,60Z" fill="#7a6fe9" stroke="#7a6fe9" stroke-width="1.51"/><path d="M540,60L540,180L660,60Z" fill="#816de7" stroke="#816de7" stroke-width="1.51"/><path d="M540,60L660,60L660,-60Z" fill="#9754e8" stroke="#9754e8" stroke-width="1.51"/><path d="M540,-60L540,60L660,-60Z" fill="#9c52e6" stroke="#9c52e6" stroke-width="1.51"/><path d="M540,-60L660,-60L660,-180Z" fill="#9571e3" stroke="#9571e3" stroke-width="1.51"/><path d="M540,-180L540,-60L660,-180Z" fill="#8a86df" stroke="#8a86df" stroke-width="1.51"/><path d="M420,1260L540,1260L540,1140Z" fill="#c4a093" stroke="#c4a093" stroke-width="1.51"/><path d="M420,1140L420,1260L540,1140Z" fill="#c0ac92" stroke="#c0ac92" stroke-width="1.51"/><path d="M420,1140L540,1140L540,1020Z" fill="#c4b297" stroke="#c4b297" stroke-width="1.51"/><path d="M420,1020L420,1140L540,1020Z" fill="#b6a8a6" stroke="#b6a8a6" stroke-width="1.51"/><path d="M420,1020L540,1020L540,900Z" fill="#9f81c9" stroke="#9f81c9" stroke-width="1.51"/><path d="M420,900L420,1020L540,900Z" fill="#8877d7" stroke="#8877d7" stroke-width="1.51"/><path d="M420,900L540,900L540,780Z" fill="#655def" stroke="#655def" stroke-width="1.51"/><path d="M420,780L420,900L540,780Z" fill="#7274e4" stroke="#7274e4" stroke-width="1.51"/><path d="M420,780L540,780L540,660Z" fill="#8c90d2" stroke="#8c90d2" stroke-width="1.51"/><path d="M420,660L420,780L540,660Z" fill="#8fa6c5" stroke="#8fa6c5" stroke-width="1.51"/><path d="M420,660L540,660L540,540Z" fill="#99a8c3" stroke="#99a8c3" stroke-width="1.51"/><path d="M420,540L420,660L540,540Z" fill="#929ecb" stroke="#929ecb" stroke-width="1.51"/><path d="M420,540L540,540L540,420Z" fill="#8c7ae1" stroke="#8c7ae1" stroke-width="1.51"/><path d="M420,420L420,540L540,420Z" fill="#816fe9" stroke="#816fe9" stroke-width="1.51"/><path d="M420,420L540,420L540,300Z" fill="#7667f0" stroke="#7667f0" stroke-width="1.51"/><path d="M420,300L420,420L540,300Z" fill="#6b76eb" stroke="#6b76eb" stroke-width="1.51"/><path d="M420,300L540,300L540,180Z" fill="#6180e8" stroke="#6180e8" stroke-width="1.51"/><path d="M420,180L420,300L540,180Z" fill="#518ce4" stroke="#518ce4" stroke-width="1.51"/><path d="M420,180L540,180L540,60Z" fill="#6d7fe4" stroke="#6d7fe4" stroke-width="1.51"/><path d="M420,60L420,180L540,60Z" fill="#767de2" stroke="#767de2" stroke-width="1.51"/><path d="M420,60L540,60L540,-60Z" fill="#8e67e4" stroke="#8e67e4" stroke-width="1.51"/><path d="M420,-60L420,60L540,-60Z" fill="#9466e2" stroke="#9466e2" stroke-width="1.51"/><path d="M420,-60L540,-60L540,-180Z" fill="#8a81de" stroke="#8a81de" stroke-width="1.51"/><path d="M420,-180L420,-60L540,-180Z" fill="#7d95da" stroke="#7d95da" stroke-width="1.51"/><path d="M300,1260L420,1260L420,1140Z" fill="#c7a091" stroke="#c7a091" stroke-width="1.51"/><path d="M300,1140L300,1260L420,1140Z" fill="#cda192" stroke="#cda192" stroke-width="1.51"/><path d="M300,1140L420,1140L420,1020Z" fill="#c7b195" stroke="#c7b195" stroke-width="1.51"/><path d="M300,1020L300,1140L420,1020Z" fill="#c39da5" stroke="#c39da5" stroke-width="1.51"/><path d="M300,1020L420,1020L420,900Z" fill="#a381c6" stroke="#a381c6" stroke-width="1.51"/><path d="M300,900L300,1020L420,900Z" fill="#976bd6" stroke="#976bd6" stroke-width="1.51"/><path d="M300,900L420,900L420,780Z" fill="#6d5ced" stroke="#6d5ced" stroke-width="1.51"/><path d="M300,780L300,900L420,780Z" fill="#8368e3" stroke="#8368e3" stroke-width="1.51"/><path d="M300,780L420,780L420,660Z" fill="#928fcf" stroke="#928fcf" stroke-width="1.51"/><path d="M300,660L300,780L420,660Z" fill="#9f9cc5" stroke="#9f9cc5" stroke-width="1.51"/><path d="M300,660L420,660L420,540Z" fill="#9ea8c0" stroke="#9ea8c0" stroke-width="1.51"/><path d="M300,540L300,660L420,540Z" fill="#a294ca" stroke="#a294ca" stroke-width="1.51"/><path d="M300,540L420,540L420,420Z" fill="#9279df" stroke="#9279df" stroke-width="1.51"/><path d="M300,420L300,540L420,420Z" fill="#9162e8" stroke="#9162e8" stroke-width="1.51"/><path d="M300,420L420,420L420,300Z" fill="#7d66ed" stroke="#7d66ed" stroke-width="1.51"/><path d="M300,300L300,420L420,300Z" fill="#7e6aea" stroke="#7e6aea" stroke-width="1.51"/><path d="M300,300L420,300L420,180Z" fill="#697fe6" stroke="#697fe6" stroke-width="1.51"/><path d="M300,180L300,300L420,180Z" fill="#6a82e3" stroke="#6a82e3" stroke-width="1.51"/><path d="M300,180L420,180L420,60Z" fill="#747ee2" stroke="#747ee2" stroke-width="1.51"/><path d="M300,60L300,180L420,60Z" fill="#8771e1" stroke="#8771e1" stroke-width="1.51"/><path d="M300,60L420,60L420,-60Z" fill="#9466e1" stroke="#9466e1" stroke-width="1.51"/><path d="M300,-60L300,60L420,-60Z" fill="#a158e1" stroke="#a158e1" stroke-width="1.51"/><path d="M300,-60L420,-60L420,-180Z" fill="#9080dc" stroke="#9080dc" stroke-width="1.51"/><path d="M300,-180L300,-60L420,-180Z" fill="#8f8bd9" stroke="#8f8bd9" stroke-width="1.51"/><path d="M180,1260L300,1260L300,1140Z" fill="#d69191" stroke="#d69191" stroke-width="1.51"/><path d="M180,1140L180,1260L300,1140Z" fill="#db9293" stroke="#db9293" stroke-width="1.51"/><path d="M180,1140L300,1140L300,1020Z" fill="#d7a395" stroke="#d7a395" stroke-width="1.51"/><path d="M180,1020L180,1140L300,1020Z" fill="#d28ea6" stroke="#d28ea6" stroke-width="1.51"/><path d="M180,1020L300,1020L300,900Z" fill="#b371c6" stroke="#b371c6" stroke-width="1.51"/><path d="M180,900L180,1020L300,900Z" fill="#a758d6" stroke="#a758d6" stroke-width="1.51"/><path d="M180,900L300,900L300,780Z" fill="#8249ec" stroke="#8249ec" stroke-width="1.51"/><path d="M180,780L180,900L300,780Z" fill="#9557e3" stroke="#9557e3" stroke-width="1.51"/><path d="M180,780L300,780L300,660Z" fill="#a481cf" stroke="#a481cf" stroke-width="1.51"/><path d="M180,660L180,780L300,660Z" fill="#b18ec5" stroke="#b18ec5" stroke-width="1.51"/><path d="M180,660L300,660L300,540Z" fill="#b19bc0" stroke="#b19bc0" stroke-width="1.51"/><path d="M180,540L180,660L300,540Z" fill="#b486ca" stroke="#b486ca" stroke-width="1.51"/><path d="M180,540L300,540L300,420Z" fill="#a368df" stroke="#a368df" stroke-width="1.51"/><path d="M180,420L180,540L300,420Z" fill="#a24ee8" stroke="#a24ee8" stroke-width="1.51"/><path d="M180,420L300,420L300,300Z" fill="#9054ed" stroke="#9054ed" stroke-width="1.51"/><path d="M180,300L180,420L300,300Z" fill="#9158ea" stroke="#9158ea" stroke-width="1.51"/><path d="M180,300L300,300L300,180Z" fill="#8170e5" stroke="#8170e5" stroke-width="1.51"/><path d="M180,180L180,300L300,180Z" fill="#8274e3" stroke="#8274e3" stroke-width="1.51"/><path d="M180,180L300,180L300,60Z" fill="#8a6fe1" stroke="#8a6fe1" stroke-width="1.51"/><path d="M180,60L180,180L300,60Z" fill="#9961e1" stroke="#9961e1" stroke-width="1.51"/><path d="M180,60L300,60L300,-60Z" fill="#a453e1" stroke="#a453e1" stroke-width="1.51"/><path d="M180,-60L180,60L300,-60Z" fill="#b040e1" stroke="#b040e1" stroke-width="1.51"/><path d="M180,-60L300,-60L300,-180Z" fill="#a271dc" stroke="#a271dc" stroke-width="1.51"/><path d="M180,-180L180,-60L300,-180Z" fill="#a27cd9" stroke="#a27cd9" stroke-width="1.51"/><path d="M60,1260L180,1260L180,1140Z" fill="#e38192" stroke="#e38192" stroke-width="1.51"/><path d="M60,1140L60,1260L180,1140Z" fill="#e88393" stroke="#e88393" stroke-width="1.51"/><path d="M60,1140L180,1140L180,1020Z" fill="#e59496" stroke="#e59496" stroke-width="1.51"/><path d="M60,1020L60,1140L180,1020Z" fill="#e07fa6" stroke="#e07fa6" stroke-width="1.51"/><path d="M60,1020L180,1020L180,900Z" fill="#c25ec6" stroke="#c25ec6" stroke-width="1.51"/><path d="M60,900L60,1020L180,900Z" fill="#b543d6" stroke="#b543d6" stroke-width="1.51"/><path d="M60,900L180,900L180,780Z" fill="#932eec" stroke="#932eec" stroke-width="1.51"/><path d="M60,780L60,900L180,780Z" fill="#a441e2" stroke="#a441e2" stroke-width="1.51"/><path d="M60,780L180,780L180,660Z" fill="#b471cf" stroke="#b471cf" stroke-width="1.51"/><path d="M60,660L60,780L180,660Z" fill="#c17fc5" stroke="#c17fc5" stroke-width="1.51"/><path d="M60,660L180,660L180,540Z" fill="#c18cc0" stroke="#c18cc0" stroke-width="1.51"/><path d="M60,540L60,660L180,540Z" fill="#c276ca" stroke="#c276ca" stroke-width="1.51"/><path d="M60,540L180,540L180,420Z" fill="#b355de" stroke="#b355de" stroke-width="1.51"/><path d="M60,420L60,540L180,420Z" fill="#b035e7" stroke="#b035e7" stroke-width="1.51"/><path d="M60,420L180,420L180,300Z" fill="#a03cec" stroke="#a03cec" stroke-width="1.51"/><path d="M60,300L60,420L180,300Z" fill="#a143e9" stroke="#a143e9" stroke-width="1.51"/><path d="M60,300L180,300L180,180Z" fill="#9460e4" stroke="#9460e4" stroke-width="1.51"/><path d="M60,180L60,300L180,180Z" fill="#9465e2" stroke="#9465e2" stroke-width="1.51"/><path d="M60,180L180,180L180,60Z" fill="#9c5ee1" stroke="#9c5ee1" stroke-width="1.51"/><path d="M60,60L60,180L180,60Z" fill="#a84ee1" stroke="#a84ee1" stroke-width="1.51"/><path d="M60,60L180,60L180,-60Z" fill="#b339e0" stroke="#b339e0" stroke-width="1.51"/><path d="M60,-60L60,60L180,-60Z" fill="#bd1ae0" stroke="#bd1ae0" stroke-width="1.51"/><path d="M60,-60L180,-60L180,-180Z" fill="#b25edb" stroke="#b25edb" stroke-width="1.51"/><path d="M60,-180L60,-60L180,-180Z" fill="#b26dd9" stroke="#b26dd9" stroke-width="1.51"/><path d="M-60,1260L60,1260L60,1140Z" fill="#e1948d" stroke="#e1948d" stroke-width="1.51"/><path d="M-60,1140L-60,1260L60,1140Z" fill="#dda48c" stroke="#dda48c" stroke-width="1.51"/><path d="M-60,1140L60,1140L60,1020Z" fill="#e2a691" stroke="#e2a691" stroke-width="1.51"/><path d="M-60,1020L-60,1140L60,1020Z" fill="#d4a0a0" stroke="#d4a0a0" stroke-width="1.51"/><path d="M-60,1020L60,1020L60,900Z" fill="#c072c3" stroke="#c072c3" stroke-width="1.51"/><path d="M-60,900L-60,1020L60,900Z" fill="#ad6cd1" stroke="#ad6cd1" stroke-width="1.51"/><path d="M-60,900L60,900L60,780Z" fill="#9349e9" stroke="#9349e9" stroke-width="1.51"/><path d="M-60,780L-60,900L60,780Z" fill="#9c6ade" stroke="#9c6ade" stroke-width="1.51"/><path d="M-60,780L60,780L60,660Z" fill="#b283cb" stroke="#b283cb" stroke-width="1.51"/><path d="M-60,660L-60,780L60,660Z" fill="#b49fbf" stroke="#b49fbf" stroke-width="1.51"/><path d="M-60,660L60,660L60,540Z" fill="#be9dbc" stroke="#be9dbc" stroke-width="1.51"/><path d="M-60,540L-60,660L60,540Z" fill="#b797c5" stroke="#b797c5" stroke-width="1.51"/><path d="M-60,540L60,540L60,420Z" fill="#b26adb" stroke="#b26adb" stroke-width="1.51"/><path d="M-60,420L-60,540L60,420Z" fill="#a863e3" stroke="#a863e3" stroke-width="1.51"/><path d="M-60,420L60,420L60,300Z" fill="#a054e9" stroke="#a054e9" stroke-width="1.51"/><path d="M-60,300L-60,420L60,300Z" fill="#986be5" stroke="#986be5" stroke-width="1.51"/><path d="M-60,300L60,300L60,180Z" fill="#9272e1" stroke="#9272e1" stroke-width="1.51"/><path d="M-60,180L-60,300L60,180Z" fill="#8784dd" stroke="#8784dd" stroke-width="1.51"/><path d="M-60,180L60,180L60,60Z" fill="#9a71dd" stroke="#9a71dd" stroke-width="1.51"/><path d="M-60,60L-60,180L60,60Z" fill="#9f73dc" stroke="#9f73dc" stroke-width="1.51"/><path d="M-60,60L60,60L60,-60Z" fill="#b253dd" stroke="#b253dd" stroke-width="1.51"/><path d="M-60,-60L-60,60L60,-60Z" fill="#b658dc" stroke="#b658dc" stroke-width="1.51"/><path d="M-60,-60L60,-60L60,-180Z" fill="#b072d8" stroke="#b072d8" stroke-width="1.51"/><path d="M-60,-180L-60,-60L60,-180Z" fill="#a68ed4" stroke="#a68ed4" stroke-width="1.51"/><path d="M-180,1260L-60,1260L-60,1140Z" fill="#d4b286" stroke="#d4b286" stroke-width="1.51"/><path d="M-180,1140L-180,1260L-60,1140Z" fill="#cec284" stroke="#cec284" stroke-width="1.51"/><path d="M-180,1140L-60,1140L-60,1020Z" fill="#d4c489" stroke="#d4c489" stroke-width="1.51"/><path d="M-180,1020L-180,1140L-60,1020Z" fill="#c6be98" stroke="#c6be98" stroke-width="1.51"/><path d="M-180,1020L-60,1020L-60,900Z" fill="#b592bd" stroke="#b592bd" stroke-width="1.51"/><path d="M-180,900L-180,1020L-60,900Z" fill="#a18ccc" stroke="#a18ccc" stroke-width="1.51"/><path d="M-180,900L-60,900L-60,780Z" fill="#896de4" stroke="#896de4" stroke-width="1.51"/><path d="M-180,780L-180,900L-60,780Z" fill="#8f89d9" stroke="#8f89d9" stroke-width="1.51"/><path d="M-180,780L-60,780L-60,660Z" fill="#a4a1c6" stroke="#a4a1c6" stroke-width="1.51"/><path d="M-180,660L-180,780L-60,660Z" fill="#a3bbb9" stroke="#a3bbb9" stroke-width="1.51"/><path d="M-180,660L-60,660L-60,540Z" fill="#aebab6" stroke="#aebab6" stroke-width="1.51"/><path d="M-180,540L-180,660L-60,540Z" fill="#a7b4bf" stroke="#a7b4bf" stroke-width="1.51"/><path d="M-180,540L-60,540L-60,420Z" fill="#a68ad6" stroke="#a68ad6" stroke-width="1.51"/><path d="M-180,420L-180,540L-60,420Z" fill="#9d85de" stroke="#9d85de" stroke-width="1.51"/><path d="M-180,420L-60,420L-60,300Z" fill="#9677e5" stroke="#9677e5" stroke-width="1.51"/><path d="M-180,300L-180,420L-60,300Z" fill="#8b8ae0" stroke="#8b8ae0" stroke-width="1.51"/><path d="M-180,300L-60,300L-60,180Z" fill="#8390dd" stroke="#8390dd" stroke-width="1.51"/><path d="M-180,180L-180,300L-60,180Z" fill="#74a1d8" stroke="#74a1d8" stroke-width="1.51"/><path d="M-180,180L-60,180L-60,60Z" fill="#8c8fd9" stroke="#8c8fd9" stroke-width="1.51"/><path d="M-180,60L-180,180L-60,60Z" fill="#9292d7" stroke="#9292d7" stroke-width="1.51"/><path d="M-180,60L-60,60L-60,-60Z" fill="#a978d8" stroke="#a978d8" stroke-width="1.51"/><path d="M-180,-60L-180,60L-60,-60Z" fill="#ad7dd7" stroke="#ad7dd7" stroke-width="1.51"/><path d="M-180,-60L-60,-60L-60,-180Z" fill="#a492d3" stroke="#a492d3" stroke-width="1.51"/><path d="M-180,-180L-180,-60L-60,-180Z" fill="#96abcf" stroke="#96abcf" stroke-width="1.51"/></svg>