<svg xmlns="http://www.w3.org/2000/svg" width="1920" height="1080"><path d="M1230,1398L756,1412L1398,1432Z" fill="#c74829" stroke="#c74829" stroke-width="1.51"/><path d="M1922,904L1917,1010L2183,750Z" fill="#ce341e" stroke="#ce341e" stroke-width="1.51"/><path d="M1841,189L2184,432L2285,356Z" fill="#d66a3e" stroke="#d66a3e" stroke-width="1.51"/><path d="M2184,432L2183,750L2285,356Z" fill="#ca542f" stroke="#ca542f" stroke-width="1.51"/><path d="M1937,-208L1862,-79L2286,-162Z" fill="#e2835c" stroke="#e2835c" stroke-width="1.51"/><path d="M1841,189L2285,356L2286,-162Z" fill="#d57549" stroke="#d57549" stroke-width="1.51"/><path d="M1862,-79L1841,189L2286,-162Z" fill="#e18053" stroke="#e18053" stroke-width="1.51"/><path d="M1322,-424L1759,-353L2306,-267Z" fill="#f09374" stroke="#f09374" stroke-width="1.51"/><path d="M1759,-353L1937,-208L2306,-267Z" fill="#e58967" stroke="#e58967" stroke-width="1.51"/><path d="M2286,-162L2285,356L2306,-267Z" fill="#ca7851" stroke="#ca7851" stroke-width="1.51"/><path d="M2183,750L1917,1010L2314,1162Z" fill="#c02616" stroke="#c02616" stroke-width="1.51"/><path d="M2285,356L2183,750L2314,1162Z" fill="#c13e26" stroke="#c13e26" stroke-width="1.51"/><path d="M2306,-267L2285,356L2314,1162Z" fill="#c55c36" stroke="#c55c36" stroke-width="1.51"/><path d="M1816,1321L1398,1432L2315,1273Z" fill="#b61108" stroke="#b61108" stroke-width="1.51"/><path d="M2314,1162L1917,1010L2315,1273Z" fill="#b11209" stroke="#b11209" stroke-width="1.51"/><path d="M1917,1010L1816,1321L2315,1273Z" fill="#b90e06" stroke="#b90e06" stroke-width="1.51"/><path d="M1937,-208L2286,-162L2306,-267Z" fill="#d68260" stroke="#d68260" stroke-width="1.51"/><path d="M629,-438L829,-395L1322,-424Z" fill="#ffc3a0" stroke="#ffc3a0" stroke-width="1.51"/><path d="M1918,659L1922,904L2183,750Z" fill="#d34127" stroke="#d34127" stroke-width="1.51"/><path d="M1918,659L2183,750L2184,432Z" fill="#d14e2b" stroke="#d14e2b" stroke-width="1.51"/><path d="M1798,430L1918,659L2184,432Z" fill="#dc5b32" stroke="#dc5b32" stroke-width="1.51"/><path d="M1841,189L1798,430L2184,432Z" fill="#e06c40" stroke="#e06c40" stroke-width="1.51"/><path d="M1581,1195L1614,1259L1816,1321Z" fill="#c72012" stroke="#c72012" stroke-width="1.51"/><path d="M1581,1195L1816,1321L1917,1010Z" fill="#c82113" stroke="#c82113" stroke-width="1.51"/><path d="M1918,659L1636,710L1922,904Z" fill="#dd492e" stroke="#dd492e" stroke-width="1.51"/><path d="M1759,-353L1862,-79L1937,-208Z" fill="#eb8d69" stroke="#eb8d69" stroke-width="1.51"/><path d="M1636,710L1581,1195L1917,1010Z" fill="#d93723" stroke="#d93723" stroke-width="1.51"/><path d="M1798,430L1636,710L1918,659Z" fill="#e35a35" stroke="#e35a35" stroke-width="1.51"/><path d="M1636,710L1917,1010L1922,904Z" fill="#d83d26" stroke="#d83d26" stroke-width="1.51"/><path d="M1384,943L1581,1195L1636,710Z" fill="#e1462e" stroke="#e1462e" stroke-width="1.51"/><path d="M1614,1259L1398,1432L1816,1321Z" fill="#c12414" stroke="#c12414" stroke-width="1.51"/><path d="M1530,389L1798,430L1841,189Z" fill="#eb764a" stroke="#eb764a" stroke-width="1.51"/><path d="M1545,38L1841,189L1862,-79Z" fill="#ec8659" stroke="#ec8659" stroke-width="1.51"/><path d="M1759,-353L1545,38L1862,-79Z" fill="#f08f68" stroke="#f08f68" stroke-width="1.51"/><path d="M1545,38L1530,389L1841,189Z" fill="#ef8356" stroke="#ef8356" stroke-width="1.51"/><path d="M1412,-43L1545,38L1759,-353Z" fill="#f5966f" stroke="#f5966f" stroke-width="1.51"/><path d="M1530,389L1636,710L1798,430Z" fill="#eb673f" stroke="#eb673f" stroke-width="1.51"/><path d="M1322,-424L1412,-43L1759,-353Z" fill="#f9a07f" stroke="#f9a07f" stroke-width="1.51"/><path d="M161,1264L-331,1318L756,1412Z" fill="#da7c50" stroke="#da7c50" stroke-width="1.51"/><path d="M1333,117L1530,389L1545,38Z" fill="#f48e61" stroke="#f48e61" stroke-width="1.51"/><path d="M1530,389L1411,448L1636,710Z" fill="#ef6f46" stroke="#ef6f46" stroke-width="1.51"/><path d="M1411,448L1384,943L1636,710Z" fill="#ed6241" stroke="#ed6241" stroke-width="1.51"/><path d="M1384,943L1370,1208L1581,1195Z" fill="#da3f28" stroke="#da3f28" stroke-width="1.51"/><path d="M1581,1195L1370,1208L1614,1259Z" fill="#cf321d" stroke="#cf321d" stroke-width="1.51"/><path d="M1370,1208L1398,1432L1614,1259Z" fill="#cc321d" stroke="#cc321d" stroke-width="1.51"/><path d="M1136,823L1384,943L1411,448Z" fill="#f16a49" stroke="#f16a49" stroke-width="1.51"/><path d="M1322,-424L1167,-180L1412,-43Z" fill="#fda987" stroke="#fda987" stroke-width="1.51"/><path d="M1333,117L1411,448L1530,389Z" fill="#f4895c" stroke="#f4895c" stroke-width="1.51"/><path d="M1412,-43L1333,117L1545,38Z" fill="#f7986b" stroke="#f7986b" stroke-width="1.51"/><path d="M1212,1182L1370,1208L1384,943Z" fill="#de482f" stroke="#de482f" stroke-width="1.51"/><path d="M1370,1208L1230,1398L1398,1432Z" fill="#cb3c24" stroke="#cb3c24" stroke-width="1.51"/><path d="M1333,117L986,385L1411,448Z" fill="#f99364" stroke="#f99364" stroke-width="1.51"/><path d="M1055,613L1136,823L1411,448Z" fill="#f67950" stroke="#f67950" stroke-width="1.51"/><path d="M1092,-13L1333,117L1412,-43Z" fill="#faa175" stroke="#faa175" stroke-width="1.51"/><path d="M1167,-180L1092,-13L1412,-43Z" fill="#fda97e" stroke="#fda97e" stroke-width="1.51"/><path d="M986,385L1055,613L1411,448Z" fill="#f98859" stroke="#f98859" stroke-width="1.51"/><path d="M-76,1267L-331,1318L161,1264Z" fill="#e38560" stroke="#e38560" stroke-width="1.51"/><path d="M1212,1182L1230,1398L1370,1208Z" fill="#d54328" stroke="#d54328" stroke-width="1.51"/><path d="M1136,823L1212,1182L1384,943Z" fill="#e85739" stroke="#e85739" stroke-width="1.51"/><path d="M603,1340L161,1264L756,1412Z" fill="#d77144" stroke="#d77144" stroke-width="1.51"/><path d="M1092,-13L986,385L1333,117Z" fill="#fba270" stroke="#fba270" stroke-width="1.51"/><path d="M1136,823L959,993L1212,1182Z" fill="#ea5e3c" stroke="#ea5e3c" stroke-width="1.51"/><path d="M829,-395L1167,-180L1322,-424Z" fill="#ffb794" stroke="#ffb794" stroke-width="1.51"/><path d="M876,139L986,385L1092,-13Z" fill="#fda974" stroke="#fda974" stroke-width="1.51"/><path d="M1212,1182L756,1412L1230,1398Z" fill="#d24d2b" stroke="#d24d2b" stroke-width="1.51"/><path d="M959,993L756,1412L1212,1182Z" fill="#df5932" stroke="#df5932" stroke-width="1.51"/><path d="M1055,613L927,694L1136,823Z" fill="#f67b51" stroke="#f67b51" stroke-width="1.51"/><path d="M829,-395L1092,-13L1167,-180Z" fill="#ffb78d" stroke="#ffb78d" stroke-width="1.51"/><path d="M829,-395L709,-7L1092,-13Z" fill="#ffbd8f" stroke="#ffbd8f" stroke-width="1.51"/><path d="M927,694L959,993L1136,823Z" fill="#f3734b" stroke="#f3734b" stroke-width="1.51"/><path d="M709,-7L876,139L1092,-13Z" fill="#ffb57f" stroke="#ffb57f" stroke-width="1.51"/><path d="M596,1220L756,1412L959,993Z" fill="#e0683d" stroke="#e0683d" stroke-width="1.51"/><path d="M748,502L927,694L986,385Z" fill="#fd935e" stroke="#fd935e" stroke-width="1.51"/><path d="M986,385L927,694L1055,613Z" fill="#fb8a57" stroke="#fb8a57" stroke-width="1.51"/><path d="M927,694L480,849L959,993Z" fill="#f48055" stroke="#f48055" stroke-width="1.51"/><path d="M876,139L748,502L986,385Z" fill="#fda66f" stroke="#fda66f" stroke-width="1.51"/><path d="M583,-137L709,-7L829,-395Z" fill="#ffca9d" stroke="#ffca9d" stroke-width="1.51"/><path d="M480,849L596,1220L959,993Z" fill="#ee794d" stroke="#ee794d" stroke-width="1.51"/><path d="M-113,-356L375,-318L629,-438Z" fill="#ffe1bc" stroke="#ffe1bc" stroke-width="1.51"/><path d="M550,445L748,502L876,139Z" fill="#fdad76" stroke="#fdad76" stroke-width="1.51"/><path d="M748,502L480,849L927,694Z" fill="#fa9262" stroke="#fa9262" stroke-width="1.51"/><path d="M629,-438L583,-137L829,-395Z" fill="#ffd0a9" stroke="#ffd0a9" stroke-width="1.51"/><path d="M709,-7L550,445L876,139Z" fill="#fdb982" stroke="#fdb982" stroke-width="1.51"/><path d="M596,1220L603,1340L756,1412Z" fill="#d76a3e" stroke="#d76a3e" stroke-width="1.51"/><path d="M417,382L550,445L709,-7Z" fill="#fdbe86" stroke="#fdbe86" stroke-width="1.51"/><path d="M550,445L480,849L748,502Z" fill="#fca16d" stroke="#fca16d" stroke-width="1.51"/><path d="M480,849L362,1136L596,1220Z" fill="#ec8053" stroke="#ec8053" stroke-width="1.51"/><path d="M583,-137L373,-127L709,-7Z" fill="#fece9e" stroke="#fece9e" stroke-width="1.51"/><path d="M373,-127L417,382L709,-7Z" fill="#fdc993" stroke="#fdc993" stroke-width="1.51"/><path d="M205,769L480,849L550,445Z" fill="#fba170" stroke="#fba170" stroke-width="1.51"/><path d="M375,-318L583,-137L629,-438Z" fill="#ffd6af" stroke="#ffd6af" stroke-width="1.51"/><path d="M417,382L151,614L550,445Z" fill="#feb27c" stroke="#feb27c" stroke-width="1.51"/><path d="M151,614L205,769L550,445Z" fill="#fdaa76" stroke="#fdaa76" stroke-width="1.51"/><path d="M375,-318L373,-127L583,-137Z" fill="#fed6ab" stroke="#fed6ab" stroke-width="1.51"/><path d="M596,1220L362,1136L603,1340Z" fill="#e17547" stroke="#e17547" stroke-width="1.51"/><path d="M362,1136L161,1264L603,1340Z" fill="#e17a4c" stroke="#e17a4c" stroke-width="1.51"/><path d="M373,-127L145,338L417,382Z" fill="#fdca93" stroke="#fdca93" stroke-width="1.51"/><path d="M-9,115L145,338L373,-127Z" fill="#fdd29f" stroke="#fdd29f" stroke-width="1.51"/><path d="M205,769L362,1136L480,849Z" fill="#f49063" stroke="#f49063" stroke-width="1.51"/><path d="M145,338L151,614L417,382Z" fill="#feba84" stroke="#feba84" stroke-width="1.51"/><path d="M205,769L161,1264L362,1136Z" fill="#ee895c" stroke="#ee895c" stroke-width="1.51"/><path d="M-113,-356L-116,-22L373,-127Z" fill="#fee2bb" stroke="#fee2bb" stroke-width="1.51"/><path d="M-113,-356L373,-127L375,-318Z" fill="#fee1b9" stroke="#fee1b9" stroke-width="1.51"/><path d="M-116,-22L-9,115L373,-127Z" fill="#fedaac" stroke="#fedaac" stroke-width="1.51"/><path d="M-134,1084L161,1264L205,769Z" fill="#f28f66" stroke="#f28f66" stroke-width="1.51"/><path d="M145,338L-72,622L151,614Z" fill="#ffb786" stroke="#ffb786" stroke-width="1.51"/><path d="M-134,1084L-76,1267L161,1264Z" fill="#e78861" stroke="#e78861" stroke-width="1.51"/><path d="M151,614L-65,770L205,769Z" fill="#fca87d" stroke="#fca87d" stroke-width="1.51"/><path d="M-65,770L-134,1084L205,769Z" fill="#f89f78" stroke="#f89f78" stroke-width="1.51"/><path d="M-72,622L-65,770L151,614Z" fill="#feaf84" stroke="#feaf84" stroke-width="1.51"/><path d="M-367,473L-72,622L-9,115Z" fill="#ffc99d" stroke="#ffc99d" stroke-width="1.51"/><path d="M-9,115L-72,622L145,338Z" fill="#ffc898" stroke="#ffc898" stroke-width="1.51"/><path d="M-244,-291L-283,-110L-116,-22Z" fill="#ffe7c8" stroke="#ffe7c8" stroke-width="1.51"/><path d="M-244,-291L-116,-22L-113,-356Z" fill="#fee9cb" stroke="#fee9cb" stroke-width="1.51"/><path d="M-116,-22L-386,224L-9,115Z" fill="#fedcb2" stroke="#fedcb2" stroke-width="1.51"/><path d="M-386,224L-367,473L-9,115Z" fill="#ffd5ae" stroke="#ffd5ae" stroke-width="1.51"/><path d="M-134,1084L-280,1211L-76,1267Z" fill="#e98c6a" stroke="#e98c6a" stroke-width="1.51"/><path d="M-409,955L-134,1084L-65,770Z" fill="#f89e7d" stroke="#f89e7d" stroke-width="1.51"/><path d="M-72,622L-367,473L-65,770Z" fill="#ffb68f" stroke="#ffb68f" stroke-width="1.51"/><path d="M-367,473L-409,955L-65,770Z" fill="#ffb090" stroke="#ffb090" stroke-width="1.51"/><path d="M-280,1211L-331,1318L-76,1267Z" fill="#e58968" stroke="#e58968" stroke-width="1.51"/><path d="M-283,-110L-386,224L-116,-22Z" fill="#ffe1bb" stroke="#ffe1bb" stroke-width="1.51"/><path d="M-409,955L-280,1211L-134,1084Z" fill="#f29575" stroke="#f29575" stroke-width="1.51"/><path d="M-386,224L-283,-110L-244,-291Z" fill="#ffe6c5" stroke="#ffe6c5" stroke-width="1.51"/><path d="M-409,955L-331,1318L-280,1211Z" fill="#ed9273" stroke="#ed9273" stroke-width="1.51"/><path d="M-386,224L-409,955L-367,473Z" fill="#ffc09c" stroke="#ffc09c" stroke-width="1.51"/></svg>