<svg xmlns="http://www.w3.org/2000/svg" width="1920" height="1080"><path d="M1230,1398L756,1412L1398,1432Z" fill="#859ac0" stroke="#859ac0" stroke-width="1.51"/><path d="M1922,904L1917,1010L2183,750Z" fill="#6f9fcb" stroke="#6f9fcb" stroke-width="1.51"/><path d="M1841,189L2184,432L2285,356Z" fill="#a09bb8" stroke="#a09bb8" stroke-width="1.51"/><path d="M2184,432L2183,750L2285,356Z" fill="#919cbe" stroke="#919cbe" stroke-width="1.51"/><path d="M1937,-208L1862,-79L2286,-162Z" fill="#965f77" stroke="#965f77" stroke-width="1.51"/><path d="M1841,189L2285,356L2286,-162Z" fill="#9e7e92" stroke="#9e7e92" stroke-width="1.51"/><path d="M1862,-79L1841,189L2286,-162Z" fill="#a07487" stroke="#a07487" stroke-width="1.51"/><path d="M1322,-424L1759,-353L2306,-267Z" fill="#885d71" stroke="#885d71" stroke-width="1.51"/><path d="M1759,-353L1937,-208L2306,-267Z" fill="#8d516c" stroke="#8d516c" stroke-width="1.51"/><path d="M2286,-162L2285,356L2306,-267Z" fill="#8a5669" stroke="#8a5669" stroke-width="1.51"/><path d="M2183,750L1917,1010L2314,1162Z" fill="#598bbd" stroke="#598bbd" stroke-width="1.51"/><path d="M2285,356L2183,750L2314,1162Z" fill="#7790b7" stroke="#7790b7" stroke-width="1.51"/><path d="M2306,-267L2285,356L2314,1162Z" fill="#8e8da7" stroke="#8e8da7" stroke-width="1.51"/><path d="M1816,1321L1398,1432L2315,1273Z" fill="#3279b5" stroke="#3279b5" stroke-width="1.51"/><path d="M2314,1162L1917,1010L2315,1273Z" fill="#3073ac" stroke="#3073ac" stroke-width="1.51"/><path d="M1917,1010L1816,1321L2315,1273Z" fill="#347cb8" stroke="#347cb8" stroke-width="1.51"/><path d="M1937,-208L2286,-162L2306,-267Z" fill="#884964" stroke="#884964" stroke-width="1.51"/><path d="M629,-438L829,-395L1322,-424Z" fill="#bd8181" stroke="#bd8181" stroke-width="1.51"/><path d="M1918,659L1922,904L2183,750Z" fill="#83a8d0" stroke="#83a8d0" stroke-width="1.51"/><path d="M1918,659L2183,750L2184,432Z" fill="#91a8d0" stroke="#91a8d0" stroke-width="1.51"/><path d="M1798,430L1918,659L2184,432Z" fill="#a0b4d3" stroke="#a0b4d3" stroke-width="1.51"/><path d="M1841,189L1798,430L2184,432Z" fill="#a7acc2" stroke="#a7acc2" stroke-width="1.51"/><path d="M1581,1195L1614,1259L1816,1321Z" fill="#5292c3" stroke="#5292c3" stroke-width="1.51"/><path d="M1581,1195L1816,1321L1917,1010Z" fill="#4892c3" stroke="#4892c3" stroke-width="1.51"/><path d="M1918,659L1636,710L1922,904Z" fill="#8db9d8" stroke="#8db9d8" stroke-width="1.51"/><path d="M1759,-353L1862,-79L1937,-208Z" fill="#9b6577" stroke="#9b6577" stroke-width="1.51"/><path d="M1636,710L1581,1195L1917,1010Z" fill="#75b1d4" stroke="#75b1d4" stroke-width="1.51"/><path d="M1798,430L1636,710L1918,659Z" fill="#a3c4de" stroke="#a3c4de" stroke-width="1.51"/><path d="M1636,710L1917,1010L1922,904Z" fill="#79afd3" stroke="#79afd3" stroke-width="1.51"/><path d="M1384,943L1581,1195L1636,710Z" fill="#90c3de" stroke="#90c3de" stroke-width="1.51"/><path d="M1614,1259L1398,1432L1816,1321Z" fill="#568dc1" stroke="#568dc1" stroke-width="1.51"/><path d="M1530,389L1798,430L1841,189Z" fill="#b7bec9" stroke="#b7bec9" stroke-width="1.51"/><path d="M1545,38L1841,189L1862,-79Z" fill="#b29499" stroke="#b29499" stroke-width="1.51"/><path d="M1759,-353L1545,38L1862,-79Z" fill="#ab7b84" stroke="#ab7b84" stroke-width="1.51"/><path d="M1545,38L1530,389L1841,189Z" fill="#c2b5b6" stroke="#c2b5b6" stroke-width="1.51"/><path d="M1412,-43L1545,38L1759,-353Z" fill="#bb898b" stroke="#bb898b" stroke-width="1.51"/><path d="M1530,389L1636,710L1798,430Z" fill="#b8d1e1" stroke="#b8d1e1" stroke-width="1.51"/><path d="M1322,-424L1412,-43L1759,-353Z" fill="#b67b80" stroke="#b67b80" stroke-width="1.51"/><path d="M161,1264L-331,1318L756,1412Z" fill="#9c6f86" stroke="#9c6f86" stroke-width="1.51"/><path d="M1333,117L1530,389L1545,38Z" fill="#d3bfb9" stroke="#d3bfb9" stroke-width="1.51"/><path d="M1530,389L1411,448L1636,710Z" fill="#c7dce8" stroke="#c7dce8" stroke-width="1.51"/><path d="M1411,448L1384,943L1636,710Z" fill="#bcdae9" stroke="#bcdae9" stroke-width="1.51"/><path d="M1384,943L1370,1208L1581,1195Z" fill="#7db3d5" stroke="#7db3d5" stroke-width="1.51"/><path d="M1581,1195L1370,1208L1614,1259Z" fill="#6aa2cd" stroke="#6aa2cd" stroke-width="1.51"/><path d="M1370,1208L1398,1432L1614,1259Z" fill="#6d9cc9" stroke="#6d9cc9" stroke-width="1.51"/><path d="M1136,823L1384,943L1411,448Z" fill="#cae1ee" stroke="#cae1ee" stroke-width="1.51"/><path d="M1322,-424L1167,-180L1412,-43Z" fill="#ce8c8a" stroke="#ce8c8a" stroke-width="1.51"/><path d="M1333,117L1411,448L1530,389Z" fill="#d7d3d2" stroke="#d7d3d2" stroke-width="1.51"/><path d="M1412,-43L1333,117L1545,38Z" fill="#d2aaa4" stroke="#d2aaa4" stroke-width="1.51"/><path d="M1212,1182L1370,1208L1384,943Z" fill="#8cbad9" stroke="#8cbad9" stroke-width="1.51"/><path d="M1370,1208L1230,1398L1398,1432Z" fill="#799dca" stroke="#799dca" stroke-width="1.51"/><path d="M1333,117L986,385L1411,448Z" fill="#e9ddd7" stroke="#e9ddd7" stroke-width="1.51"/><path d="M1055,613L1136,823L1411,448Z" fill="#dfebf3" stroke="#dfebf3" stroke-width="1.51"/><path d="M1092,-13L1333,117L1412,-43Z" fill="#e0afa6" stroke="#e0afa6" stroke-width="1.51"/><path d="M1167,-180L1092,-13L1412,-43Z" fill="#dea29a" stroke="#dea29a" stroke-width="1.51"/><path d="M986,385L1055,613L1411,448Z" fill="#ecedee" stroke="#ecedee" stroke-width="1.51"/><path d="M-76,1267L-331,1318L161,1264Z" fill="#945a73" stroke="#945a73" stroke-width="1.51"/><path d="M1212,1182L1230,1398L1370,1208Z" fill="#86abd2" stroke="#86abd2" stroke-width="1.51"/><path d="M1136,823L1212,1182L1384,943Z" fill="#abcfe4" stroke="#abcfe4" stroke-width="1.51"/><path d="M603,1340L161,1264L756,1412Z" fill="#a28fa7" stroke="#a28fa7" stroke-width="1.51"/><path d="M1092,-13L986,385L1333,117Z" fill="#efccbd" stroke="#efccbd" stroke-width="1.51"/><path d="M1136,823L959,993L1212,1182Z" fill="#b2d2e5" stroke="#b2d2e5" stroke-width="1.51"/><path d="M829,-395L1167,-180L1322,-424Z" fill="#c78686" stroke="#c78686" stroke-width="1.51"/><path d="M876,139L986,385L1092,-13Z" fill="#f8d1c0" stroke="#f8d1c0" stroke-width="1.51"/><path d="M1212,1182L756,1412L1230,1398Z" fill="#92a9d1" stroke="#92a9d1" stroke-width="1.51"/><path d="M959,993L756,1412L1212,1182Z" fill="#a0bcda" stroke="#a0bcda" stroke-width="1.51"/><path d="M1055,613L927,694L1136,823Z" fill="#e2edf3" stroke="#e2edf3" stroke-width="1.51"/><path d="M829,-395L1092,-13L1167,-180Z" fill="#e0978f" stroke="#e0978f" stroke-width="1.51"/><path d="M829,-395L709,-7L1092,-13Z" fill="#e89d90" stroke="#e89d90" stroke-width="1.51"/><path d="M927,694L959,993L1136,823Z" fill="#d2e4ef" stroke="#d2e4ef" stroke-width="1.51"/><path d="M709,-7L876,139L1092,-13Z" fill="#f4b9a7" stroke="#f4b9a7" stroke-width="1.51"/><path d="M596,1220L756,1412L959,993Z" fill="#a6b2ca" stroke="#a6b2ca" stroke-width="1.51"/><path d="M748,502L927,694L986,385Z" fill="#f9f2ef" stroke="#f9f2ef" stroke-width="1.51"/><path d="M986,385L927,694L1055,613Z" fill="#f3f5f6" stroke="#f3f5f6" stroke-width="1.51"/><path d="M927,694L480,849L959,993Z" fill="#d7dde0" stroke="#d7dde0" stroke-width="1.51"/><path d="M876,139L748,502L986,385Z" fill="#fce4d7" stroke="#fce4d7" stroke-width="1.51"/><path d="M583,-137L709,-7L829,-395Z" fill="#e48f7e" stroke="#e48f7e" stroke-width="1.51"/><path d="M480,849L596,1220L959,993Z" fill="#bfc5ce" stroke="#bfc5ce" stroke-width="1.51"/><path d="M-113,-356L375,-318L629,-438Z" fill="#b95348" stroke="#b95348" stroke-width="1.51"/><path d="M550,445L748,502L876,139Z" fill="#fddfcd" stroke="#fddfcd" stroke-width="1.51"/><path d="M748,502L480,849L927,694Z" fill="#ede5e0" stroke="#ede5e0" stroke-width="1.51"/><path d="M629,-438L583,-137L829,-395Z" fill="#d07d72" stroke="#d07d72" stroke-width="1.51"/><path d="M709,-7L550,445L876,139Z" fill="#fbc9b0" stroke="#fbc9b0" stroke-width="1.51"/><path d="M596,1220L603,1340L756,1412Z" fill="#a19eb9" stroke="#a19eb9" stroke-width="1.51"/><path d="M417,382L550,445L709,-7Z" fill="#fbc7ac" stroke="#fbc7ac" stroke-width="1.51"/><path d="M550,445L480,849L748,502Z" fill="#f5ded4" stroke="#f5ded4" stroke-width="1.51"/><path d="M480,849L362,1136L596,1220Z" fill="#baadb3" stroke="#baadb3" stroke-width="1.51"/><path d="M583,-137L373,-127L709,-7Z" fill="#e88e76" stroke="#e88e76" stroke-width="1.51"/><path d="M373,-127L417,382L709,-7Z" fill="#f3a687" stroke="#f3a687" stroke-width="1.51"/><path d="M205,769L480,849L550,445Z" fill="#edcabc" stroke="#edcabc" stroke-width="1.51"/><path d="M375,-318L583,-137L629,-438Z" fill="#d27162" stroke="#d27162" stroke-width="1.51"/><path d="M417,382L151,614L550,445Z" fill="#f9c8b3" stroke="#f9c8b3" stroke-width="1.51"/><path d="M151,614L205,769L550,445Z" fill="#f0c1b1" stroke="#f0c1b1" stroke-width="1.51"/><path d="M375,-318L373,-127L583,-137Z" fill="#dc7560" stroke="#dc7560" stroke-width="1.51"/><path d="M596,1220L362,1136L603,1340Z" fill="#a89dae" stroke="#a89dae" stroke-width="1.51"/><path d="M362,1136L161,1264L603,1340Z" fill="#a88e9c" stroke="#a88e9c" stroke-width="1.51"/><path d="M373,-127L145,338L417,382Z" fill="#f2a384" stroke="#f2a384" stroke-width="1.51"/><path d="M-9,115L145,338L373,-127Z" fill="#e78569" stroke="#e78569" stroke-width="1.51"/><path d="M205,769L362,1136L480,849Z" fill="#cfb2ad" stroke="#cfb2ad" stroke-width="1.51"/><path d="M145,338L151,614L417,382Z" fill="#f4b6a1" stroke="#f4b6a1" stroke-width="1.51"/><path d="M205,769L161,1264L362,1136Z" fill="#b7969a" stroke="#b7969a" stroke-width="1.51"/><path d="M-113,-356L-116,-22L373,-127Z" fill="#c94940" stroke="#c94940" stroke-width="1.51"/><path d="M-113,-356L373,-127L375,-318Z" fill="#c94f44" stroke="#c94f44" stroke-width="1.51"/><path d="M-116,-22L-9,115L373,-127Z" fill="#d96651" stroke="#d96651" stroke-width="1.51"/><path d="M-134,1084L161,1264L205,769Z" fill="#b4878b" stroke="#b4878b" stroke-width="1.51"/><path d="M145,338L-72,622L151,614Z" fill="#eda89a" stroke="#eda89a" stroke-width="1.51"/><path d="M-134,1084L-76,1267L161,1264Z" fill="#9c6a7b" stroke="#9c6a7b" stroke-width="1.51"/><path d="M151,614L-65,770L205,769Z" fill="#dfa49b" stroke="#dfa49b" stroke-width="1.51"/><path d="M-65,770L-134,1084L205,769Z" fill="#c7908f" stroke="#c7908f" stroke-width="1.51"/><path d="M-72,622L-65,770L151,614Z" fill="#df9d95" stroke="#df9d95" stroke-width="1.51"/><path d="M-367,473L-72,622L-9,115Z" fill="#e08a7d" stroke="#e08a7d" stroke-width="1.51"/><path d="M-9,115L-72,622L145,338Z" fill="#e99784" stroke="#e99784" stroke-width="1.51"/><path d="M-244,-291L-283,-110L-116,-22Z" fill="#b83134" stroke="#b83134" stroke-width="1.51"/><path d="M-244,-291L-116,-22L-113,-356Z" fill="#b7252f" stroke="#b7252f" stroke-width="1.51"/><path d="M-116,-22L-386,224L-9,115Z" fill="#d36150" stroke="#d36150" stroke-width="1.51"/><path d="M-386,224L-367,473L-9,115Z" fill="#d07567" stroke="#d07567" stroke-width="1.51"/><path d="M-134,1084L-280,1211L-76,1267Z" fill="#975e72" stroke="#975e72" stroke-width="1.51"/><path d="M-409,955L-134,1084L-65,770Z" fill="#b3797f" stroke="#b3797f" stroke-width="1.51"/><path d="M-72,622L-367,473L-65,770Z" fill="#da8f8a" stroke="#da8f8a" stroke-width="1.51"/><path d="M-367,473L-409,955L-65,770Z" fill="#c18384" stroke="#c18384" stroke-width="1.51"/><path d="M-280,1211L-331,1318L-76,1267Z" fill="#8a516c" stroke="#8a516c" stroke-width="1.51"/><path d="M-283,-110L-386,224L-116,-22Z" fill="#c04e45" stroke="#c04e45" stroke-width="1.51"/><path d="M-409,955L-280,1211L-134,1084Z" fill="#936474" stroke="#936474" stroke-width="1.51"/><path d="M-386,224L-283,-110L-244,-291Z" fill="#b33b39" stroke="#b33b39" stroke-width="1.51"/><path d="M-409,955L-331,1318L-280,1211Z" fill="#81576d" stroke="#81576d" stroke-width="1.51"/><path d="M-386,224L-409,955L-367,473Z" fill="#c08384" stroke="#c08384" stroke-width="1.51"/></svg>