<svg xmlns="http://www.w3.org/2000/svg" width="1920" height="1080"><path d="M1980,1260L2100,1260L2100,1140Z" fill="#015148" stroke="#015148" stroke-width="1.51"/><path d="M1980,1140L1980,1260L2100,1140Z" fill="#015b51" stroke="#015b51" stroke-width="1.51"/><path d="M1980,1140L2100,1140L2100,1020Z" fill="#0e635a" stroke="#0e635a" stroke-width="1.51"/><path d="M1980,1020L1980,1140L2100,1020Z" fill="#156d63" stroke="#156d63" stroke-width="1.51"/><path d="M1980,1020L2100,1020L2100,900Z" fill="#25756c" stroke="#25756c" stroke-width="1.51"/><path d="M1980,900L1980,1020L2100,900Z" fill="#318075" stroke="#318075" stroke-width="1.51"/><path d="M1980,900L2100,900L2100,780Z" fill="#42897e" stroke="#42897e" stroke-width="1.51"/><path d="M1980,780L1980,900L2100,780Z" fill="#4e9186" stroke="#4e9186" stroke-width="1.51"/><path d="M1980,780L2100,780L2100,660Z" fill="#5f948b" stroke="#5f948b" stroke-width="1.51"/><path d="M1980,660L1980,780L2100,660Z" fill="#699c93" stroke="#699c93" stroke-width="1.51"/><path d="M1980,660L2100,660L2100,540Z" fill="#749b93" stroke="#749b93" stroke-width="1.51"/><path d="M1980,540L1980,660L2100,540Z" fill="#7ca099" stroke="#7ca099" stroke-width="1.51"/><path d="M1980,540L2100,540L2100,420Z" fill="#819c91" stroke="#819c91" stroke-width="1.51"/><path d="M1980,420L1980,540L2100,420Z" fill="#839e8f" stroke="#839e8f" stroke-width="1.51"/><path d="M1980,420L2100,420L2100,300Z" fill="#82977f" stroke="#82977f" stroke-width="1.51"/><path d="M1980,300L1980,420L2100,300Z" fill="#82967b" stroke="#82967b" stroke-width="1.51"/><path d="M1980,300L2100,300L2100,180Z" fill="#7c8a66" stroke="#7c8a66" stroke-width="1.51"/><path d="M1980,180L1980,300L2100,180Z" fill="#7d8862" stroke="#7d8862" stroke-width="1.51"/><path d="M1980,180L2100,180L2100,60Z" fill="#75754b" stroke="#75754b" stroke-width="1.51"/><path d="M1980,60L1980,180L2100,60Z" fill="#757145" stroke="#757145" stroke-width="1.51"/><path d="M1980,60L2100,60L2100,-60Z" fill="#696036" stroke="#696036" stroke-width="1.51"/><path d="M1980,-60L1980,60L2100,-60Z" fill="#665e35" stroke="#665e35" stroke-width="1.51"/><path d="M1980,-60L2100,-60L2100,-180Z" fill="#584f2b" stroke="#584f2b" stroke-width="1.51"/><path d="M1980,-180L1980,-60L2100,-180Z" fill="#534e2d" stroke="#534e2d" stroke-width="1.51"/><path d="M1860,1260L1980,1260L1980,1140Z" fill="#015c53" stroke="#015c53" stroke-width="1.51"/><path d="M1860,1140L1860,1260L1980,1140Z" fill="#04665d" stroke="#04665d" stroke-width="1.51"/><path d="M1860,1140L1980,1140L1980,1020Z" fill="#0f6e66" stroke="#0f6e66" stroke-width="1.51"/><path d="M1860,1020L1860,1140L1980,1020Z" fill="#197870" stroke="#197870" stroke-width="1.51"/><path d="M1860,1020L1980,1020L1980,900Z" fill="#278078" stroke="#278078" stroke-width="1.51"/><path d="M1860,900L1860,1020L1980,900Z" fill="#358b82" stroke="#358b82" stroke-width="1.51"/><path d="M1860,900L1980,900L1980,780Z" fill="#46948a" stroke="#46948a" stroke-width="1.51"/><path d="M1860,780L1860,900L1980,780Z" fill="#539d93" stroke="#539d93" stroke-width="1.51"/><path d="M1860,780L1980,780L1980,660Z" fill="#64a098" stroke="#64a098" stroke-width="1.51"/><path d="M1860,660L1860,780L1980,660Z" fill="#70a8a1" stroke="#70a8a1" stroke-width="1.51"/><path d="M1860,660L1980,660L1980,540Z" fill="#7aa6a0" stroke="#7aa6a0" stroke-width="1.51"/><path d="M1860,540L1860,660L1980,540Z" fill="#82aca7" stroke="#82aca7" stroke-width="1.51"/><path d="M1860,540L1980,540L1980,420Z" fill="#87a89e" stroke="#87a89e" stroke-width="1.51"/><path d="M1860,420L1860,540L1980,420Z" fill="#8aaa9c" stroke="#8aaa9c" stroke-width="1.51"/><path d="M1860,420L1980,420L1980,300Z" fill="#88a38c" stroke="#88a38c" stroke-width="1.51"/><path d="M1860,300L1860,420L1980,300Z" fill="#8aa288" stroke="#8aa288" stroke-width="1.51"/><path d="M1860,300L1980,300L1980,180Z" fill="#839573" stroke="#839573" stroke-width="1.51"/><path d="M1860,180L1860,300L1980,180Z" fill="#84946e" stroke="#84946e" stroke-width="1.51"/><path d="M1860,180L1980,180L1980,60Z" fill="#7d8057" stroke="#7d8057" stroke-width="1.51"/><path d="M1860,60L1860,180L1980,60Z" fill="#7d7c52" stroke="#7d7c52" stroke-width="1.51"/><path d="M1860,60L1980,60L1980,-60Z" fill="#716b42" stroke="#716b42" stroke-width="1.51"/><path d="M1860,-60L1860,60L1980,-60Z" fill="#6f6941" stroke="#6f6941" stroke-width="1.51"/><path d="M1860,-60L1980,-60L1980,-180Z" fill="#5f5936" stroke="#5f5936" stroke-width="1.51"/><path d="M1860,-180L1860,-60L1980,-180Z" fill="#5a5939" stroke="#5a5939" stroke-width="1.51"/><path d="M1740,1260L1860,1260L1860,1140Z" fill="#0e685f" stroke="#0e685f" stroke-width="1.51"/><path d="M1740,1140L1740,1260L1860,1140Z" fill="#147269" stroke="#147269" stroke-width="1.51"/><path d="M1740,1140L1860,1140L1860,1020Z" fill="#1b7a72" stroke="#1b7a72" stroke-width="1.51"/><path d="M1740,1020L1740,1140L1860,1020Z" fill="#25847c" stroke="#25847c" stroke-width="1.51"/><path d="M1740,1020L1860,1020L1860,900Z" fill="#318d85" stroke="#318d85" stroke-width="1.51"/><path d="M1740,900L1740,1020L1860,900Z" fill="#3f988f" stroke="#3f988f" stroke-width="1.51"/><path d="M1740,900L1860,900L1860,780Z" fill="#4fa197" stroke="#4fa197" stroke-width="1.51"/><path d="M1740,780L1740,900L1860,780Z" fill="#5daaa0" stroke="#5daaa0" stroke-width="1.51"/><path d="M1740,780L1860,780L1860,660Z" fill="#6dada5" stroke="#6dada5" stroke-width="1.51"/><path d="M1740,660L1740,780L1860,660Z" fill="#79b5ad" stroke="#79b5ad" stroke-width="1.51"/><path d="M1740,660L1860,660L1860,540Z" fill="#83b3ad" stroke="#83b3ad" stroke-width="1.51"/><path d="M1740,540L1740,660L1860,540Z" fill="#8cb9b4" stroke="#8cb9b4" stroke-width="1.51"/><path d="M1740,540L1860,540L1860,420Z" fill="#91b5ab" stroke="#91b5ab" stroke-width="1.51"/><path d="M1740,420L1740,540L1860,420Z" fill="#95b7a9" stroke="#95b7a9" stroke-width="1.51"/><path d="M1740,420L1860,420L1860,300Z" fill="#92b099" stroke="#92b099" stroke-width="1.51"/><path d="M1740,300L1740,420L1860,300Z" fill="#94af94" stroke="#94af94" stroke-width="1.51"/><path d="M1740,300L1860,300L1860,180Z" fill="#8da27f" stroke="#8da27f" stroke-width="1.51"/><path d="M1740,180L1740,300L1860,180Z" fill="#8fa17a" stroke="#8fa17a" stroke-width="1.51"/><path d="M1740,180L1860,180L1860,60Z" fill="#878c63" stroke="#878c63" stroke-width="1.51"/><path d="M1740,60L1740,180L1860,60Z" fill="#88885d" stroke="#88885d" stroke-width="1.51"/><path d="M1740,60L1860,60L1860,-60Z" fill="#7b774d" stroke="#7b774d" stroke-width="1.51"/><path d="M1740,-60L1740,60L1860,-60Z" fill="#79754d" stroke="#79754d" stroke-width="1.51"/><path d="M1740,-60L1860,-60L1860,-180Z" fill="#696542" stroke="#696542" stroke-width="1.51"/><path d="M1740,-180L1740,-60L1860,-180Z" fill="#646444" stroke="#646444" stroke-width="1.51"/><path d="M1620,1260L1740,1260L1740,1140Z" fill="#1b746b" stroke="#1b746b" stroke-width="1.51"/><path d="M1620,1140L1620,1260L1740,1140Z" fill="#237e75" stroke="#237e75" stroke-width="1.51"/><path d="M1620,1140L1740,1140L1740,1020Z" fill="#26867e" stroke="#26867e" stroke-width="1.51"/><path d="M1620,1020L1620,1140L1740,1020Z" fill="#329088" stroke="#329088" stroke-width="1.51"/><path d="M1620,1020L1740,1020L1740,900Z" fill="#3b9991" stroke="#3b9991" stroke-width="1.51"/><path d="M1620,900L1620,1020L1740,900Z" fill="#4aa49b" stroke="#4aa49b" stroke-width="1.51"/><path d="M1620,900L1740,900L1740,780Z" fill="#59aea4" stroke="#59aea4" stroke-width="1.51"/><path d="M1620,780L1620,900L1740,780Z" fill="#67b7ad" stroke="#67b7ad" stroke-width="1.51"/><path d="M1620,780L1740,780L1740,660Z" fill="#77bab2" stroke="#77bab2" stroke-width="1.51"/><path d="M1620,660L1620,780L1740,660Z" fill="#84c2bb" stroke="#84c2bb" stroke-width="1.51"/><path d="M1620,660L1740,660L1740,540Z" fill="#8dc1bb" stroke="#8dc1bb" stroke-width="1.51"/><path d="M1620,540L1620,660L1740,540Z" fill="#98c6c1" stroke="#98c6c1" stroke-width="1.51"/><path d="M1620,540L1740,540L1740,420Z" fill="#9bc2b8" stroke="#9bc2b8" stroke-width="1.51"/><path d="M1620,420L1620,540L1740,420Z" fill="#a0c4b6" stroke="#a0c4b6" stroke-width="1.51"/><path d="M1620,420L1740,420L1740,300Z" fill="#9cbda6" stroke="#9cbda6" stroke-width="1.51"/><path d="M1620,300L1620,420L1740,300Z" fill="#9fbca1" stroke="#9fbca1" stroke-width="1.51"/><path d="M1620,300L1740,300L1740,180Z" fill="#97af8c" stroke="#97af8c" stroke-width="1.51"/><path d="M1620,180L1620,300L1740,180Z" fill="#9aae87" stroke="#9aae87" stroke-width="1.51"/><path d="M1620,180L1740,180L1740,60Z" fill="#92996f" stroke="#92996f" stroke-width="1.51"/><path d="M1620,60L1620,180L1740,60Z" fill="#939569" stroke="#939569" stroke-width="1.51"/><path d="M1620,60L1740,60L1740,-60Z" fill="#868359" stroke="#868359" stroke-width="1.51"/><path d="M1620,-60L1620,60L1740,-60Z" fill="#848158" stroke="#848158" stroke-width="1.51"/><path d="M1620,-60L1740,-60L1740,-180Z" fill="#73714d" stroke="#73714d" stroke-width="1.51"/><path d="M1620,-180L1620,-60L1740,-180Z" fill="#6f704f" stroke="#6f704f" stroke-width="1.51"/><path d="M1500,1260L1620,1260L1620,1140Z" fill="#308077" stroke="#308077" stroke-width="1.51"/><path d="M1500,1140L1500,1260L1620,1140Z" fill="#398b81" stroke="#398b81" stroke-width="1.51"/><path d="M1500,1140L1620,1140L1620,1020Z" fill="#3b938a" stroke="#3b938a" stroke-width="1.51"/><path d="M1500,1020L1500,1140L1620,1020Z" fill="#479e95" stroke="#479e95" stroke-width="1.51"/><path d="M1500,1020L1620,1020L1620,900Z" fill="#4da69d" stroke="#4da69d" stroke-width="1.51"/><path d="M1500,900L1500,1020L1620,900Z" fill="#5eb2a8" stroke="#5eb2a8" stroke-width="1.51"/><path d="M1500,900L1620,900L1620,780Z" fill="#69bbb0" stroke="#69bbb0" stroke-width="1.51"/><path d="M1500,780L1500,900L1620,780Z" fill="#79c4ba" stroke="#79c4ba" stroke-width="1.51"/><path d="M1500,780L1620,780L1620,660Z" fill="#87c7bf" stroke="#87c7bf" stroke-width="1.51"/><path d="M1500,660L1500,780L1620,660Z" fill="#95cfc8" stroke="#95cfc8" stroke-width="1.51"/><path d="M1500,660L1620,660L1620,540Z" fill="#9dcec7" stroke="#9dcec7" stroke-width="1.51"/><path d="M1500,540L1500,660L1620,540Z" fill="#a9d4ce" stroke="#a9d4ce" stroke-width="1.51"/><path d="M1500,540L1620,540L1620,420Z" fill="#aad0c5" stroke="#aad0c5" stroke-width="1.51"/><path d="M1500,420L1500,540L1620,420Z" fill="#b1d2c3" stroke="#b1d2c3" stroke-width="1.51"/><path d="M1500,420L1620,420L1620,300Z" fill="#accab2" stroke="#accab2" stroke-width="1.51"/><path d="M1500,300L1500,420L1620,300Z" fill="#b0caae" stroke="#b0caae" stroke-width="1.51"/><path d="M1500,300L1620,300L1620,180Z" fill="#a6bc98" stroke="#a6bc98" stroke-width="1.51"/><path d="M1500,180L1500,300L1620,180Z" fill="#aabb93" stroke="#aabb93" stroke-width="1.51"/><path d="M1500,180L1620,180L1620,60Z" fill="#a0a67b" stroke="#a0a67b" stroke-width="1.51"/><path d="M1500,60L1500,180L1620,60Z" fill="#a3a275" stroke="#a3a275" stroke-width="1.51"/><path d="M1500,60L1620,60L1620,-60Z" fill="#949064" stroke="#949064" stroke-width="1.51"/><path d="M1500,-60L1500,60L1620,-60Z" fill="#948d64" stroke="#948d64" stroke-width="1.51"/><path d="M1500,-60L1620,-60L1620,-180Z" fill="#817d58" stroke="#817d58" stroke-width="1.51"/><path d="M1500,-180L1500,-60L1620,-180Z" fill="#7e7d5a" stroke="#7e7d5a" stroke-width="1.51"/><path d="M1380,1260L1500,1260L1500,1140Z" fill="#438d83" stroke="#438d83" stroke-width="1.51"/><path d="M1380,1140L1380,1260L1500,1140Z" fill="#4c978d" stroke="#4c978d" stroke-width="1.51"/><path d="M1380,1140L1500,1140L1500,1020Z" fill="#4ea097" stroke="#4ea097" stroke-width="1.51"/><path d="M1380,1020L1380,1140L1500,1020Z" fill="#59aaa0" stroke="#59aaa0" stroke-width="1.51"/><path d="M1380,1020L1500,1020L1500,900Z" fill="#60b4aa" stroke="#60b4aa" stroke-width="1.51"/><path d="M1380,900L1380,1020L1500,900Z" fill="#6fbeb4" stroke="#6fbeb4" stroke-width="1.51"/><path d="M1380,900L1500,900L1500,780Z" fill="#7bc9bd" stroke="#7bc9bd" stroke-width="1.51"/><path d="M1380,780L1380,900L1500,780Z" fill="#8bd1c6" stroke="#8bd1c6" stroke-width="1.51"/><path d="M1380,780L1500,780L1500,660Z" fill="#98d5cc" stroke="#98d5cc" stroke-width="1.51"/><path d="M1380,660L1380,780L1500,660Z" fill="#a6dcd4" stroke="#a6dcd4" stroke-width="1.51"/><path d="M1380,660L1500,660L1500,540Z" fill="#aedcd5" stroke="#aedcd5" stroke-width="1.51"/><path d="M1380,540L1380,660L1500,540Z" fill="#b9e1da" stroke="#b9e1da" stroke-width="1.51"/><path d="M1380,540L1500,540L1500,420Z" fill="#bbddd2" stroke="#bbddd2" stroke-width="1.51"/><path d="M1380,420L1380,540L1500,420Z" fill="#c1dfcf" stroke="#c1dfcf" stroke-width="1.51"/><path d="M1380,420L1500,420L1500,300Z" fill="#bcd8bf" stroke="#bcd8bf" stroke-width="1.51"/><path d="M1380,300L1380,420L1500,300Z" fill="#c0d6ba" stroke="#c0d6ba" stroke-width="1.51"/><path d="M1380,300L1500,300L1500,180Z" fill="#b6c9a4" stroke="#b6c9a4" stroke-width="1.51"/><path d="M1380,180L1380,300L1500,180Z" fill="#bac79f" stroke="#bac79f" stroke-width="1.51"/><path d="M1380,180L1500,180L1500,60Z" fill="#b0b387" stroke="#b0b387" stroke-width="1.51"/><path d="M1380,60L1380,180L1500,60Z" fill="#b3ae80" stroke="#b3ae80" stroke-width="1.51"/><path d="M1380,60L1500,60L1500,-60Z" fill="#a49d70" stroke="#a49d70" stroke-width="1.51"/><path d="M1380,-60L1380,60L1500,-60Z" fill="#a3996f" stroke="#a3996f" stroke-width="1.51"/><path d="M1380,-60L1500,-60L1500,-180Z" fill="#918a64" stroke="#918a64" stroke-width="1.51"/><path d="M1380,-180L1380,-60L1500,-180Z" fill="#8d8865" stroke="#8d8865" stroke-width="1.51"/><path d="M1260,1260L1380,1260L1380,1140Z" fill="#56958c" stroke="#56958c" stroke-width="1.51"/><path d="M1260,1140L1260,1260L1380,1140Z" fill="#5f9e95" stroke="#5f9e95" stroke-width="1.51"/><path d="M1260,1140L1380,1140L1380,1020Z" fill="#62a8a0" stroke="#62a8a0" stroke-width="1.51"/><path d="M1260,1020L1260,1140L1380,1020Z" fill="#6db1a9" stroke="#6db1a9" stroke-width="1.51"/><path d="M1260,1020L1380,1020L1380,900Z" fill="#73bcb4" stroke="#73bcb4" stroke-width="1.51"/><path d="M1260,900L1260,1020L1380,900Z" fill="#82c6bd" stroke="#82c6bd" stroke-width="1.51"/><path d="M1260,900L1380,900L1380,780Z" fill="#8ed2c7" stroke="#8ed2c7" stroke-width="1.51"/><path d="M1260,780L1260,900L1380,780Z" fill="#9dd9cf" stroke="#9dd9cf" stroke-width="1.51"/><path d="M1260,780L1380,780L1380,660Z" fill="#aaded5" stroke="#aaded5" stroke-width="1.51"/><path d="M1260,660L1260,780L1380,660Z" fill="#b8e4dd" stroke="#b8e4dd" stroke-width="1.51"/><path d="M1260,660L1380,660L1380,540Z" fill="#bfe4de" stroke="#bfe4de" stroke-width="1.51"/><path d="M1260,540L1260,660L1380,540Z" fill="#cae8e3" stroke="#cae8e3" stroke-width="1.51"/><path d="M1260,540L1380,540L1380,420Z" fill="#cce6dc" stroke="#cce6dc" stroke-width="1.51"/><path d="M1260,420L1260,540L1380,420Z" fill="#d1e6d9" stroke="#d1e6d9" stroke-width="1.51"/><path d="M1260,420L1380,420L1380,300Z" fill="#cde0c9" stroke="#cde0c9" stroke-width="1.51"/><path d="M1260,300L1260,420L1380,300Z" fill="#d0dec3" stroke="#d0dec3" stroke-width="1.51"/><path d="M1260,300L1380,300L1380,180Z" fill="#c7d2ae" stroke="#c7d2ae" stroke-width="1.51"/><path d="M1260,180L1260,300L1380,180Z" fill="#cacfa8" stroke="#cacfa8" stroke-width="1.51"/><path d="M1260,180L1380,180L1380,60Z" fill="#c0bb90" stroke="#c0bb90" stroke-width="1.51"/><path d="M1260,60L1260,180L1380,60Z" fill="#c2b589" stroke="#c2b589" stroke-width="1.51"/><path d="M1260,60L1380,60L1380,-60Z" fill="#b3a479" stroke="#b3a479" stroke-width="1.51"/><path d="M1260,-60L1260,60L1380,-60Z" fill="#b2a077" stroke="#b2a077" stroke-width="1.51"/><path d="M1260,-60L1380,-60L1380,-180Z" fill="#9f916c" stroke="#9f916c" stroke-width="1.51"/><path d="M1260,-180L1260,-60L1380,-180Z" fill="#9c8f6d" stroke="#9c8f6d" stroke-width="1.51"/><path d="M1140,1260L1260,1260L1260,1140Z" fill="#689c94" stroke="#689c94" stroke-width="1.51"/><path d="M1140,1140L1140,1260L1260,1140Z" fill="#70a49d" stroke="#70a49d" stroke-width="1.51"/><path d="M1140,1140L1260,1140L1260,1020Z" fill="#74b0a8" stroke="#74b0a8" stroke-width="1.51"/><path d="M1140,1020L1140,1140L1260,1020Z" fill="#7eb8b1" stroke="#7eb8b1" stroke-width="1.51"/><path d="M1140,1020L1260,1020L1260,900Z" fill="#85c4bc" stroke="#85c4bc" stroke-width="1.51"/><path d="M1140,900L1140,1020L1260,900Z" fill="#94ccc4" stroke="#94ccc4" stroke-width="1.51"/><path d="M1140,900L1260,900L1260,780Z" fill="#9fd9d0" stroke="#9fd9d0" stroke-width="1.51"/><path d="M1140,780L1140,900L1260,780Z" fill="#aedfd7" stroke="#aedfd7" stroke-width="1.51"/><path d="M1140,780L1260,780L1260,660Z" fill="#bbe5de" stroke="#bbe5de" stroke-width="1.51"/><path d="M1140,660L1140,780L1260,660Z" fill="#c8eae5" stroke="#c8eae5" stroke-width="1.51"/><path d="M1140,660L1260,660L1260,540Z" fill="#d0ece7" stroke="#d0ece7" stroke-width="1.51"/><path d="M1140,540L1140,660L1260,540Z" fill="#daefeb" stroke="#daefeb" stroke-width="1.51"/><path d="M1140,540L1260,540L1260,420Z" fill="#dcede5" stroke="#dcede5" stroke-width="1.51"/><path d="M1140,420L1140,540L1260,420Z" fill="#e1ede1" stroke="#e1ede1" stroke-width="1.51"/><path d="M1140,420L1260,420L1260,300Z" fill="#dde8d2" stroke="#dde8d2" stroke-width="1.51"/><path d="M1140,300L1140,420L1260,300Z" fill="#e0e4ca" stroke="#e0e4ca" stroke-width="1.51"/><path d="M1140,300L1260,300L1260,180Z" fill="#d6d9b6" stroke="#d6d9b6" stroke-width="1.51"/><path d="M1140,180L1140,300L1260,180Z" fill="#d9d5af" stroke="#d9d5af" stroke-width="1.51"/><path d="M1140,180L1260,180L1260,60Z" fill="#cfc298" stroke="#cfc298" stroke-width="1.51"/><path d="M1140,60L1140,180L1260,60Z" fill="#d0bb90" stroke="#d0bb90" stroke-width="1.51"/><path d="M1140,60L1260,60L1260,-60Z" fill="#c2ab81" stroke="#c2ab81" stroke-width="1.51"/><path d="M1140,-60L1140,60L1260,-60Z" fill="#c0a67e" stroke="#c0a67e" stroke-width="1.51"/><path d="M1140,-60L1260,-60L1260,-180Z" fill="#ae9874" stroke="#ae9874" stroke-width="1.51"/><path d="M1140,-180L1140,-60L1260,-180Z" fill="#a99474" stroke="#a99474" stroke-width="1.51"/><path d="M1020,1260L1140,1260L1140,1140Z" fill="#75a099" stroke="#75a099" stroke-width="1.51"/><path d="M1020,1140L1020,1260L1140,1140Z" fill="#7ca7a0" stroke="#7ca7a0" stroke-width="1.51"/><path d="M1020,1140L1140,1140L1140,1020Z" fill="#81b3ad" stroke="#81b3ad" stroke-width="1.51"/><path d="M1020,1020L1020,1140L1140,1020Z" fill="#8bbab4" stroke="#8bbab4" stroke-width="1.51"/><path d="M1020,1020L1140,1020L1140,900Z" fill="#93c7c1" stroke="#93c7c1" stroke-width="1.51"/><path d="M1020,900L1020,1020L1140,900Z" fill="#a0cfc8" stroke="#a0cfc8" stroke-width="1.51"/><path d="M1020,900L1140,900L1140,780Z" fill="#acddd5" stroke="#acddd5" stroke-width="1.51"/><path d="M1020,780L1020,900L1140,780Z" fill="#bae2db" stroke="#bae2db" stroke-width="1.51"/><path d="M1020,780L1140,780L1140,660Z" fill="#c7e9e3" stroke="#c7e9e3" stroke-width="1.51"/><path d="M1020,660L1020,780L1140,660Z" fill="#d4ede9" stroke="#d4ede9" stroke-width="1.51"/><path d="M1020,660L1140,660L1140,540Z" fill="#dcefec" stroke="#dcefec" stroke-width="1.51"/><path d="M1020,540L1020,660L1140,540Z" fill="#e6f1ef" stroke="#e6f1ef" stroke-width="1.51"/><path d="M1020,540L1140,540L1140,420Z" fill="#e8f1ea" stroke="#e8f1ea" stroke-width="1.51"/><path d="M1020,420L1020,540L1140,420Z" fill="#ecefe5" stroke="#ecefe5" stroke-width="1.51"/><path d="M1020,420L1140,420L1140,300Z" fill="#e9ebd7" stroke="#e9ebd7" stroke-width="1.51"/><path d="M1020,300L1020,420L1140,300Z" fill="#eae6ce" stroke="#eae6ce" stroke-width="1.51"/><path d="M1020,300L1140,300L1140,180Z" fill="#e2dcbb" stroke="#e2dcbb" stroke-width="1.51"/><path d="M1020,180L1020,300L1140,180Z" fill="#e3d7b3" stroke="#e3d7b3" stroke-width="1.51"/><path d="M1020,180L1140,180L1140,60Z" fill="#dac59d" stroke="#dac59d" stroke-width="1.51"/><path d="M1020,60L1020,180L1140,60Z" fill="#dabd94" stroke="#dabd94" stroke-width="1.51"/><path d="M1020,60L1140,60L1140,-60Z" fill="#ccae86" stroke="#ccae86" stroke-width="1.51"/><path d="M1020,-60L1020,60L1140,-60Z" fill="#c9a882" stroke="#c9a882" stroke-width="1.51"/><path d="M1020,-60L1140,-60L1140,-180Z" fill="#b89b79" stroke="#b89b79" stroke-width="1.51"/><path d="M1020,-180L1020,-60L1140,-180Z" fill="#b39678" stroke="#b39678" stroke-width="1.51"/><path d="M900,1260L1020,1260L1020,1140Z" fill="#80a29c" stroke="#80a29c" stroke-width="1.51"/><path d="M900,1140L900,1260L1020,1140Z" fill="#86a9a2" stroke="#86a9a2" stroke-width="1.51"/><path d="M900,1140L1020,1140L1020,1020Z" fill="#8db6b1" stroke="#8db6b1" stroke-width="1.51"/><path d="M900,1020L900,1140L1020,1020Z" fill="#95bcb6" stroke="#95bcb6" stroke-width="1.51"/><path d="M900,1020L1020,1020L1020,900Z" fill="#9fcac5" stroke="#9fcac5" stroke-width="1.51"/><path d="M900,900L900,1020L1020,900Z" fill="#aad1ca" stroke="#aad1ca" stroke-width="1.51"/><path d="M900,900L1020,900L1020,780Z" fill="#b9dfd9" stroke="#b9dfd9" stroke-width="1.51"/><path d="M900,780L900,900L1020,780Z" fill="#c4e4dc" stroke="#c4e4dc" stroke-width="1.51"/><path d="M900,780L1020,780L1020,660Z" fill="#d3ebe7" stroke="#d3ebe7" stroke-width="1.51"/><path d="M900,660L900,780L1020,660Z" fill="#ddefea" stroke="#ddefea" stroke-width="1.51"/><path d="M900,660L1020,660L1020,540Z" fill="#e8f2f0" stroke="#e8f2f0" stroke-width="1.51"/><path d="M900,540L900,660L1020,540Z" fill="#eff3f1" stroke="#eff3f1" stroke-width="1.51"/><path d="M900,540L1020,540L1020,420Z" fill="#f4f3ee" stroke="#f4f3ee" stroke-width="1.51"/><path d="M900,420L900,540L1020,420Z" fill="#f6f1e6" stroke="#f6f1e6" stroke-width="1.51"/><path d="M900,420L1020,420L1020,300Z" fill="#f4edda" stroke="#f4edda" stroke-width="1.51"/><path d="M900,300L900,420L1020,300Z" fill="#f3e8d0" stroke="#f3e8d0" stroke-width="1.51"/><path d="M900,300L1020,300L1020,180Z" fill="#eddfbf" stroke="#eddfbf" stroke-width="1.51"/><path d="M900,180L900,300L1020,180Z" fill="#ecd9b4" stroke="#ecd9b4" stroke-width="1.51"/><path d="M900,180L1020,180L1020,60Z" fill="#e4c7a1" stroke="#e4c7a1" stroke-width="1.51"/><path d="M900,60L900,180L1020,60Z" fill="#e2bf95" stroke="#e2bf95" stroke-width="1.51"/><path d="M900,60L1020,60L1020,-60Z" fill="#d6b089" stroke="#d6b089" stroke-width="1.51"/><path d="M900,-60L900,60L1020,-60Z" fill="#d1a983" stroke="#d1a983" stroke-width="1.51"/><path d="M900,-60L1020,-60L1020,-180Z" fill="#c29d7c" stroke="#c29d7c" stroke-width="1.51"/><path d="M900,-180L900,-60L1020,-180Z" fill="#bb9879" stroke="#bb9879" stroke-width="1.51"/><path d="M780,1260L900,1260L900,1140Z" fill="#84a093" stroke="#84a093" stroke-width="1.51"/><path d="M780,1140L780,1260L900,1140Z" fill="#88a696" stroke="#88a696" stroke-width="1.51"/><path d="M780,1140L900,1140L900,1020Z" fill="#91b4a7" stroke="#91b4a7" stroke-width="1.51"/><path d="M780,1020L780,1140L900,1020Z" fill="#97b9aa" stroke="#97b9aa" stroke-width="1.51"/><path d="M780,1020L900,1020L900,900Z" fill="#a3c8bb" stroke="#a3c8bb" stroke-width="1.51"/><path d="M780,900L780,1020L900,900Z" fill="#accebe" stroke="#accebe" stroke-width="1.51"/><path d="M780,900L900,900L900,780Z" fill="#bcddcf" stroke="#bcddcf" stroke-width="1.51"/><path d="M780,780L780,900L900,780Z" fill="#c5e0d0" stroke="#c5e0d0" stroke-width="1.51"/><path d="M780,780L900,780L900,660Z" fill="#d6e9de" stroke="#d6e9de" stroke-width="1.51"/><path d="M780,660L780,780L900,660Z" fill="#deebde" stroke="#deebde" stroke-width="1.51"/><path d="M780,660L900,660L900,540Z" fill="#eaf0e7" stroke="#eaf0e7" stroke-width="1.51"/><path d="M780,540L780,660L900,540Z" fill="#f0efe4" stroke="#f0efe4" stroke-width="1.51"/><path d="M780,540L900,540L900,420Z" fill="#f6f1e4" stroke="#f6f1e4" stroke-width="1.51"/><path d="M780,420L780,540L900,420Z" fill="#f6edd9" stroke="#f6edd9" stroke-width="1.51"/><path d="M780,420L900,420L900,300Z" fill="#f6ebd0" stroke="#f6ebd0" stroke-width="1.51"/><path d="M780,300L780,420L900,300Z" fill="#f3e5c3" stroke="#f3e5c3" stroke-width="1.51"/><path d="M780,300L900,300L900,180Z" fill="#eeddb5" stroke="#eeddb5" stroke-width="1.51"/><path d="M780,180L780,300L900,180Z" fill="#ebd6a8" stroke="#ebd6a8" stroke-width="1.51"/><path d="M780,180L900,180L900,60Z" fill="#e5c697" stroke="#e5c697" stroke-width="1.51"/><path d="M780,60L780,180L900,60Z" fill="#e1bb89" stroke="#e1bb89" stroke-width="1.51"/><path d="M780,60L900,60L900,-60Z" fill="#d7af80" stroke="#d7af80" stroke-width="1.51"/><path d="M780,-60L780,60L900,-60Z" fill="#d0a677" stroke="#d0a677" stroke-width="1.51"/><path d="M780,-60L900,-60L900,-180Z" fill="#c39b73" stroke="#c39b73" stroke-width="1.51"/><path d="M780,-180L780,-60L900,-180Z" fill="#ba956d" stroke="#ba956d" stroke-width="1.51"/><path d="M660,1260L780,1260L780,1140Z" fill="#859d87" stroke="#859d87" stroke-width="1.51"/><path d="M660,1140L660,1260L780,1140Z" fill="#88a289" stroke="#88a289" stroke-width="1.51"/><path d="M660,1140L780,1140L780,1020Z" fill="#92b19b" stroke="#92b19b" stroke-width="1.51"/><path d="M660,1020L660,1140L780,1020Z" fill="#97b59d" stroke="#97b59d" stroke-width="1.51"/><path d="M660,1020L780,1020L780,900Z" fill="#a4c5af" stroke="#a4c5af" stroke-width="1.51"/><path d="M660,900L660,1020L780,900Z" fill="#accab1" stroke="#accab1" stroke-width="1.51"/><path d="M660,900L780,900L780,780Z" fill="#bddac3" stroke="#bddac3" stroke-width="1.51"/><path d="M660,780L660,900L780,780Z" fill="#c5dcc3" stroke="#c5dcc3" stroke-width="1.51"/><path d="M660,780L780,780L780,660Z" fill="#d7e6d1" stroke="#d7e6d1" stroke-width="1.51"/><path d="M660,660L660,780L780,660Z" fill="#dee7d1" stroke="#dee7d1" stroke-width="1.51"/><path d="M660,660L780,660L780,540Z" fill="#ebecda" stroke="#ebecda" stroke-width="1.51"/><path d="M660,540L660,660L780,540Z" fill="#efebd7" stroke="#efebd7" stroke-width="1.51"/><path d="M660,540L780,540L780,420Z" fill="#f6edd7" stroke="#f6edd7" stroke-width="1.51"/><path d="M660,420L660,540L780,420Z" fill="#f5e9cc" stroke="#f5e9cc" stroke-width="1.51"/><path d="M660,420L780,420L780,300Z" fill="#f6e8c4" stroke="#f6e8c4" stroke-width="1.51"/><path d="M660,300L660,420L780,300Z" fill="#f2e1b6" stroke="#f2e1b6" stroke-width="1.51"/><path d="M660,300L780,300L780,180Z" fill="#edd9a9" stroke="#edd9a9" stroke-width="1.51"/><path d="M660,180L660,300L780,180Z" fill="#ead29b" stroke="#ead29b" stroke-width="1.51"/><path d="M660,180L780,180L780,60Z" fill="#e4c28b" stroke="#e4c28b" stroke-width="1.51"/><path d="M660,60L660,180L780,60Z" fill="#dfb87c" stroke="#dfb87c" stroke-width="1.51"/><path d="M660,60L780,60L780,-60Z" fill="#d6ab74" stroke="#d6ab74" stroke-width="1.51"/><path d="M660,-60L660,60L780,-60Z" fill="#cea36a" stroke="#cea36a" stroke-width="1.51"/><path d="M660,-60L780,-60L780,-180Z" fill="#c19867" stroke="#c19867" stroke-width="1.51"/><path d="M660,-180L660,-60L780,-180Z" fill="#b79161" stroke="#b79161" stroke-width="1.51"/><path d="M540,1260L660,1260L660,1140Z" fill="#829578" stroke="#829578" stroke-width="1.51"/><path d="M540,1140L540,1260L660,1140Z" fill="#859979" stroke="#859979" stroke-width="1.51"/><path d="M540,1140L660,1140L660,1020Z" fill="#90a98c" stroke="#90a98c" stroke-width="1.51"/><path d="M540,1020L540,1140L660,1020Z" fill="#94ac8c" stroke="#94ac8c" stroke-width="1.51"/><path d="M540,1020L660,1020L660,900Z" fill="#a2bc9f" stroke="#a2bc9f" stroke-width="1.51"/><path d="M540,900L540,1020L660,900Z" fill="#a9c09f" stroke="#a9c09f" stroke-width="1.51"/><path d="M540,900L660,900L660,780Z" fill="#bad1b2" stroke="#bad1b2" stroke-width="1.51"/><path d="M540,780L540,900L660,780Z" fill="#c1d3b1" stroke="#c1d3b1" stroke-width="1.51"/><path d="M540,780L660,780L660,660Z" fill="#d4ddc1" stroke="#d4ddc1" stroke-width="1.51"/><path d="M540,660L540,780L660,660Z" fill="#daddbf" stroke="#daddbf" stroke-width="1.51"/><path d="M540,660L660,660L660,540Z" fill="#e7e3c9" stroke="#e7e3c9" stroke-width="1.51"/><path d="M540,540L540,660L660,540Z" fill="#ebe2c5" stroke="#ebe2c5" stroke-width="1.51"/><path d="M540,540L660,540L660,420Z" fill="#f2e5c7" stroke="#f2e5c7" stroke-width="1.51"/><path d="M540,420L540,540L660,420Z" fill="#f0e0ba" stroke="#f0e0ba" stroke-width="1.51"/><path d="M540,420L660,420L660,300Z" fill="#f1dfb3" stroke="#f1dfb3" stroke-width="1.51"/><path d="M540,300L540,420L660,300Z" fill="#edd7a4" stroke="#edd7a4" stroke-width="1.51"/><path d="M540,300L660,300L660,180Z" fill="#e9d198" stroke="#e9d198" stroke-width="1.51"/><path d="M540,180L540,300L660,180Z" fill="#e4c889" stroke="#e4c889" stroke-width="1.51"/><path d="M540,180L660,180L660,60Z" fill="#dfba7b" stroke="#dfba7b" stroke-width="1.51"/><path d="M540,60L540,180L660,60Z" fill="#d8af6b" stroke="#d8af6b" stroke-width="1.51"/><path d="M540,60L660,60L660,-60Z" fill="#d0a364" stroke="#d0a364" stroke-width="1.51"/><path d="M540,-60L540,60L660,-60Z" fill="#c79a5a" stroke="#c79a5a" stroke-width="1.51"/><path d="M540,-60L660,-60L660,-180Z" fill="#bb9058" stroke="#bb9058" stroke-width="1.51"/><path d="M540,-180L540,-60L660,-180Z" fill="#b18950" stroke="#b18950" stroke-width="1.51"/><path d="M420,1260L540,1260L540,1140Z" fill="#7e8c68" stroke="#7e8c68" stroke-width="1.51"/><path d="M420,1140L420,1260L540,1140Z" fill="#818f68" stroke="#818f68" stroke-width="1.51"/><path d="M420,1140L540,1140L540,1020Z" fill="#8c9f7b" stroke="#8c9f7b" stroke-width="1.51"/><path d="M420,1020L420,1140L540,1020Z" fill="#90a17b" stroke="#90a17b" stroke-width="1.51"/><path d="M420,1020L540,1020L540,900Z" fill="#9eb38e" stroke="#9eb38e" stroke-width="1.51"/><path d="M420,900L420,1020L540,900Z" fill="#a5b68e" stroke="#a5b68e" stroke-width="1.51"/><path d="M420,900L540,900L540,780Z" fill="#b6c8a1" stroke="#b6c8a1" stroke-width="1.51"/><path d="M420,780L420,900L540,780Z" fill="#bec89f" stroke="#bec89f" stroke-width="1.51"/><path d="M420,780L540,780L540,660Z" fill="#cfd3af" stroke="#cfd3af" stroke-width="1.51"/><path d="M420,660L420,780L540,660Z" fill="#d6d2ad" stroke="#d6d2ad" stroke-width="1.51"/><path d="M420,660L540,660L540,540Z" fill="#e2dab8" stroke="#e2dab8" stroke-width="1.51"/><path d="M420,540L420,660L540,540Z" fill="#e6d7b3" stroke="#e6d7b3" stroke-width="1.51"/><path d="M420,540L540,540L540,420Z" fill="#eddbb5" stroke="#eddbb5" stroke-width="1.51"/><path d="M420,420L420,540L540,420Z" fill="#ebd5a8" stroke="#ebd5a8" stroke-width="1.51"/><path d="M420,420L540,420L540,300Z" fill="#ebd6a2" stroke="#ebd6a2" stroke-width="1.51"/><path d="M420,300L420,420L540,300Z" fill="#e7cc92" stroke="#e7cc92" stroke-width="1.51"/><path d="M420,300L540,300L540,180Z" fill="#e3c787" stroke="#e3c787" stroke-width="1.51"/><path d="M420,180L420,300L540,180Z" fill="#debd77" stroke="#debd77" stroke-width="1.51"/><path d="M420,180L540,180L540,60Z" fill="#d8b169" stroke="#d8b169" stroke-width="1.51"/><path d="M420,60L420,180L540,60Z" fill="#d2a459" stroke="#d2a459" stroke-width="1.51"/><path d="M420,60L540,60L540,-60Z" fill="#c99a53" stroke="#c99a53" stroke-width="1.51"/><path d="M420,-60L420,60L540,-60Z" fill="#c08f48" stroke="#c08f48" stroke-width="1.51"/><path d="M420,-60L540,-60L540,-180Z" fill="#b58747" stroke="#b58747" stroke-width="1.51"/><path d="M420,-180L420,-60L540,-180Z" fill="#aa7e3f" stroke="#aa7e3f" stroke-width="1.51"/><path d="M300,1260L420,1260L420,1140Z" fill="#7a7e56" stroke="#7a7e56" stroke-width="1.51"/><path d="M300,1140L300,1260L420,1140Z" fill="#7c8056" stroke="#7c8056" stroke-width="1.51"/><path d="M300,1140L420,1140L420,1020Z" fill="#889169" stroke="#889169" stroke-width="1.51"/><path d="M300,1020L300,1140L420,1020Z" fill="#8c9268" stroke="#8c9268" stroke-width="1.51"/><path d="M300,1020L420,1020L420,900Z" fill="#9aa47b" stroke="#9aa47b" stroke-width="1.51"/><path d="M300,900L300,1020L420,900Z" fill="#a1a67b" stroke="#a1a67b" stroke-width="1.51"/><path d="M300,900L420,900L420,780Z" fill="#b2b98d" stroke="#b2b98d" stroke-width="1.51"/><path d="M300,780L300,900L420,780Z" fill="#b9b88c" stroke="#b9b88c" stroke-width="1.51"/><path d="M300,780L420,780L420,660Z" fill="#cbc49b" stroke="#cbc49b" stroke-width="1.51"/><path d="M300,660L300,780L420,660Z" fill="#d0c299" stroke="#d0c299" stroke-width="1.51"/><path d="M300,660L420,660L420,540Z" fill="#ddcaa4" stroke="#ddcaa4" stroke-width="1.51"/><path d="M300,540L300,660L420,540Z" fill="#e0c69f" stroke="#e0c69f" stroke-width="1.51"/><path d="M300,540L420,540L420,420Z" fill="#e8cca1" stroke="#e8cca1" stroke-width="1.51"/><path d="M300,420L300,540L420,420Z" fill="#e4c494" stroke="#e4c494" stroke-width="1.51"/><path d="M300,420L420,420L420,300Z" fill="#e5c78e" stroke="#e5c78e" stroke-width="1.51"/><path d="M300,300L300,420L420,300Z" fill="#e0bc7f" stroke="#e0bc7f" stroke-width="1.51"/><path d="M300,300L420,300L420,180Z" fill="#dcb873" stroke="#dcb873" stroke-width="1.51"/><path d="M300,180L300,300L420,180Z" fill="#d6ad64" stroke="#d6ad64" stroke-width="1.51"/><path d="M300,180L420,180L420,60Z" fill="#d1a256" stroke="#d1a256" stroke-width="1.51"/><path d="M300,60L300,180L420,60Z" fill="#c99446" stroke="#c99446" stroke-width="1.51"/><path d="M300,60L420,60L420,-60Z" fill="#c18c3f" stroke="#c18c3f" stroke-width="1.51"/><path d="M300,-60L300,60L420,-60Z" fill="#b78034" stroke="#b78034" stroke-width="1.51"/><path d="M300,-60L420,-60L420,-180Z" fill="#ad7934" stroke="#ad7934" stroke-width="1.51"/><path d="M300,-180L300,-60L420,-180Z" fill="#a16f2c" stroke="#a16f2c" stroke-width="1.51"/><path d="M180,1260L300,1260L300,1140Z" fill="#756f43" stroke="#756f43" stroke-width="1.51"/><path d="M180,1140L180,1260L300,1140Z" fill="#777145" stroke="#777145" stroke-width="1.51"/><path d="M180,1140L300,1140L300,1020Z" fill="#848156" stroke="#848156" stroke-width="1.51"/><path d="M180,1020L180,1140L300,1020Z" fill="#868357" stroke="#868357" stroke-width="1.51"/><path d="M180,1020L300,1020L300,900Z" fill="#969468" stroke="#969468" stroke-width="1.51"/><path d="M180,900L180,1020L300,900Z" fill="#9b9769" stroke="#9b9769" stroke-width="1.51"/><path d="M180,900L300,900L300,780Z" fill="#aea87a" stroke="#aea87a" stroke-width="1.51"/><path d="M180,780L180,900L300,780Z" fill="#b3a87a" stroke="#b3a87a" stroke-width="1.51"/><path d="M180,780L300,780L300,660Z" fill="#c5b387" stroke="#c5b387" stroke-width="1.51"/><path d="M180,660L180,780L300,660Z" fill="#cab287" stroke="#cab287" stroke-width="1.51"/><path d="M180,660L300,660L300,540Z" fill="#d7b990" stroke="#d7b990" stroke-width="1.51"/><path d="M180,540L180,660L300,540Z" fill="#d9b68c" stroke="#d9b68c" stroke-width="1.51"/><path d="M180,540L300,540L300,420Z" fill="#e1bb8d" stroke="#e1bb8d" stroke-width="1.51"/><path d="M180,420L180,540L300,420Z" fill="#ddb482" stroke="#ddb482" stroke-width="1.51"/><path d="M180,420L300,420L300,300Z" fill="#deb57a" stroke="#deb57a" stroke-width="1.51"/><path d="M180,300L180,420L300,300Z" fill="#d8ac6c" stroke="#d8ac6c" stroke-width="1.51"/><path d="M180,300L300,300L300,180Z" fill="#d4a860" stroke="#d4a860" stroke-width="1.51"/><path d="M180,180L180,300L300,180Z" fill="#ce9e52" stroke="#ce9e52" stroke-width="1.51"/><path d="M180,180L300,180L300,60Z" fill="#c89142" stroke="#c89142" stroke-width="1.51"/><path d="M180,60L180,180L300,60Z" fill="#c08433" stroke="#c08433" stroke-width="1.51"/><path d="M180,60L300,60L300,-60Z" fill="#b87b2b" stroke="#b87b2b" stroke-width="1.51"/><path d="M180,-60L180,60L300,-60Z" fill="#ae7022" stroke="#ae7022" stroke-width="1.51"/><path d="M180,-60L300,-60L300,-180Z" fill="#a46920" stroke="#a46920" stroke-width="1.51"/><path d="M180,-180L180,-60L300,-180Z" fill="#98601a" stroke="#98601a" stroke-width="1.51"/><path d="M60,1260L180,1260L180,1140Z" fill="#6b633a" stroke="#6b633a" stroke-width="1.51"/><path d="M60,1140L60,1260L180,1140Z" fill="#6b653d" stroke="#6b653d" stroke-width="1.51"/><path d="M60,1140L180,1140L180,1020Z" fill="#79754c" stroke="#79754c" stroke-width="1.51"/><path d="M60,1020L60,1140L180,1020Z" fill="#7b774f" stroke="#7b774f" stroke-width="1.51"/><path d="M60,1020L180,1020L180,900Z" fill="#8b885e" stroke="#8b885e" stroke-width="1.51"/><path d="M60,900L60,1020L180,900Z" fill="#8f8a60" stroke="#8f8a60" stroke-width="1.51"/><path d="M60,900L180,900L180,780Z" fill="#a39c6f" stroke="#a39c6f" stroke-width="1.51"/><path d="M60,780L60,900L180,780Z" fill="#a69b71" stroke="#a69b71" stroke-width="1.51"/><path d="M60,780L180,780L180,660Z" fill="#baa67c" stroke="#baa67c" stroke-width="1.51"/><path d="M60,660L60,780L180,660Z" fill="#bda57d" stroke="#bda57d" stroke-width="1.51"/><path d="M60,660L180,660L180,540Z" fill="#ccac85" stroke="#ccac85" stroke-width="1.51"/><path d="M60,540L60,660L180,540Z" fill="#cca983" stroke="#cca983" stroke-width="1.51"/><path d="M60,540L180,540L180,420Z" fill="#d6ad82" stroke="#d6ad82" stroke-width="1.51"/><path d="M60,420L60,540L180,420Z" fill="#d0a779" stroke="#d0a779" stroke-width="1.51"/><path d="M60,420L180,420L180,300Z" fill="#d3a86f" stroke="#d3a86f" stroke-width="1.51"/><path d="M60,300L60,420L180,300Z" fill="#cb9f64" stroke="#cb9f64" stroke-width="1.51"/><path d="M60,300L180,300L180,180Z" fill="#c99b55" stroke="#c99b55" stroke-width="1.51"/><path d="M60,180L60,300L180,180Z" fill="#c19149" stroke="#c19149" stroke-width="1.51"/><path d="M60,180L180,180L180,60Z" fill="#bc8538" stroke="#bc8538" stroke-width="1.51"/><path d="M60,60L60,180L180,60Z" fill="#b3782b" stroke="#b3782b" stroke-width="1.51"/><path d="M60,60L180,60L180,-60Z" fill="#ac6f21" stroke="#ac6f21" stroke-width="1.51"/><path d="M60,-60L60,60L180,-60Z" fill="#a16519" stroke="#a16519" stroke-width="1.51"/><path d="M60,-60L180,-60L180,-180Z" fill="#985d15" stroke="#985d15" stroke-width="1.51"/><path d="M60,-180L60,-60L180,-180Z" fill="#8c5511" stroke="#8c5511" stroke-width="1.51"/><path d="M-60,1260L60,1260L60,1140Z" fill="#605732" stroke="#605732" stroke-width="1.51"/><path d="M-60,1140L-60,1260L60,1140Z" fill="#5f5a36" stroke="#5f5a36" stroke-width="1.51"/><path d="M-60,1140L60,1140L60,1020Z" fill="#6e6943" stroke="#6e6943" stroke-width="1.51"/><path d="M-60,1020L-60,1140L60,1020Z" fill="#6f6b47" stroke="#6f6b47" stroke-width="1.51"/><path d="M-60,1020L60,1020L60,900Z" fill="#7f7b55" stroke="#7f7b55" stroke-width="1.51"/><path d="M-60,900L-60,1020L60,900Z" fill="#837e59" stroke="#837e59" stroke-width="1.51"/><path d="M-60,900L60,900L60,780Z" fill="#978f66" stroke="#978f66" stroke-width="1.51"/><path d="M-60,780L-60,900L60,780Z" fill="#9a8f69" stroke="#9a8f69" stroke-width="1.51"/><path d="M-60,780L60,780L60,660Z" fill="#ae9a73" stroke="#ae9a73" stroke-width="1.51"/><path d="M-60,660L-60,780L60,660Z" fill="#b09975" stroke="#b09975" stroke-width="1.51"/><path d="M-60,660L60,660L60,540Z" fill="#bf9f7b" stroke="#bf9f7b" stroke-width="1.51"/><path d="M-60,540L-60,660L60,540Z" fill="#bf9d7b" stroke="#bf9d7b" stroke-width="1.51"/><path d="M-60,540L60,540L60,420Z" fill="#c9a079" stroke="#c9a079" stroke-width="1.51"/><path d="M-60,420L-60,540L60,420Z" fill="#c39b71" stroke="#c39b71" stroke-width="1.51"/><path d="M-60,420L60,420L60,300Z" fill="#c69b66" stroke="#c69b66" stroke-width="1.51"/><path d="M-60,300L-60,420L60,300Z" fill="#be935c" stroke="#be935c" stroke-width="1.51"/><path d="M-60,300L60,300L60,180Z" fill="#bb8e4d" stroke="#bb8e4d" stroke-width="1.51"/><path d="M-60,180L-60,300L60,180Z" fill="#b38542" stroke="#b38542" stroke-width="1.51"/><path d="M-60,180L60,180L60,60Z" fill="#af7830" stroke="#af7830" stroke-width="1.51"/><path d="M-60,60L-60,180L60,60Z" fill="#a66c24" stroke="#a66c24" stroke-width="1.51"/><path d="M-60,60L60,60L60,-60Z" fill="#9f6318" stroke="#9f6318" stroke-width="1.51"/><path d="M-60,-60L-60,60L60,-60Z" fill="#945912" stroke="#945912" stroke-width="1.51"/><path d="M-60,-60L60,-60L60,-180Z" fill="#8b510b" stroke="#8b510b" stroke-width="1.51"/><path d="M-60,-180L-60,-60L60,-180Z" fill="#7f490a" stroke="#7f490a" stroke-width="1.51"/><path d="M-180,1260L-60,1260L-60,1140Z" fill="#524e2e" stroke="#524e2e" stroke-width="1.51"/><path d="M-180,1140L-180,1260L-60,1140Z" fill="#515133" stroke="#515133" stroke-width="1.51"/><path d="M-180,1140L-60,1140L-60,1020Z" fill="#60603f" stroke="#60603f" stroke-width="1.51"/><path d="M-180,1020L-180,1140L-60,1020Z" fill="#606244" stroke="#606244" stroke-width="1.51"/><path d="M-180,1020L-60,1020L-60,900Z" fill="#717151" stroke="#717151" stroke-width="1.51"/><path d="M-180,900L-180,1020L-60,900Z" fill="#737555" stroke="#737555" stroke-width="1.51"/><path d="M-180,900L-60,900L-60,780Z" fill="#878562" stroke="#878562" stroke-width="1.51"/><path d="M-180,780L-180,900L-60,780Z" fill="#8a8565" stroke="#8a8565" stroke-width="1.51"/><path d="M-180,780L-60,780L-60,660Z" fill="#9e8f6f" stroke="#9e8f6f" stroke-width="1.51"/><path d="M-180,660L-180,780L-60,660Z" fill="#a08f72" stroke="#a08f72" stroke-width="1.51"/><path d="M-180,660L-60,660L-60,540Z" fill="#b09577" stroke="#b09577" stroke-width="1.51"/><path d="M-180,540L-180,660L-60,540Z" fill="#af9377" stroke="#af9377" stroke-width="1.51"/><path d="M-180,540L-60,540L-60,420Z" fill="#b99674" stroke="#b99674" stroke-width="1.51"/><path d="M-180,420L-180,540L-60,420Z" fill="#b3916d" stroke="#b3916d" stroke-width="1.51"/><path d="M-180,420L-60,420L-60,300Z" fill="#b69162" stroke="#b69162" stroke-width="1.51"/><path d="M-180,300L-180,420L-60,300Z" fill="#ae8959" stroke="#ae8959" stroke-width="1.51"/><path d="M-180,300L-60,300L-60,180Z" fill="#ac8449" stroke="#ac8449" stroke-width="1.51"/><path d="M-180,180L-180,300L-60,180Z" fill="#a47b3f" stroke="#a47b3f" stroke-width="1.51"/><path d="M-180,180L-60,180L-60,60Z" fill="#a06f2c" stroke="#a06f2c" stroke-width="1.51"/><path d="M-180,60L-180,180L-60,60Z" fill="#976322" stroke="#976322" stroke-width="1.51"/><path d="M-180,60L-60,60L-60,-60Z" fill="#915a15" stroke="#915a15" stroke-width="1.51"/><path d="M-180,-60L-180,60L-60,-60Z" fill="#865010" stroke="#865010" stroke-width="1.51"/><path d="M-180,-60L-60,-60L-60,-180Z" fill="#7d4809" stroke="#7d4809" stroke-width="1.51"/><path d="M-180,-180L-180,-60L-60,-180Z" fill="#714108" stroke="#714108" stroke-width="1.51"/></svg>