<svg xmlns="http://www.w3.org/2000/svg" width="1920" height="1080"><path d="M1980,1260L2100,1260L2100,1140Z" fill="#005522" stroke="#005522" stroke-width="1.51"/><path d="M1980,1140L1980,1260L2100,1140Z" fill="#005c25" stroke="#005c25" stroke-width="1.51"/><path d="M1980,1140L2100,1140L2100,1020Z" fill="#026128" stroke="#026128" stroke-width="1.51"/><path d="M1980,1020L1980,1140L2100,1020Z" fill="#06672b" stroke="#06672b" stroke-width="1.51"/><path d="M1980,1020L2100,1020L2100,900Z" fill="#0e692f" stroke="#0e692f" stroke-width="1.51"/><path d="M1980,900L1980,1020L2100,900Z" fill="#127033" stroke="#127033" stroke-width="1.51"/><path d="M1980,900L2100,900L2100,780Z" fill="#187336" stroke="#187336" stroke-width="1.51"/><path d="M1980,780L1980,900L2100,780Z" fill="#1c793a" stroke="#1c793a" stroke-width="1.51"/><path d="M1980,780L2100,780L2100,660Z" fill="#227c3d" stroke="#227c3d" stroke-width="1.51"/><path d="M1980,660L1980,780L2100,660Z" fill="#298241" stroke="#298241" stroke-width="1.51"/><path d="M1980,660L2100,660L2100,540Z" fill="#348445" stroke="#348445" stroke-width="1.51"/><path d="M1980,540L1980,660L2100,540Z" fill="#3a8948" stroke="#3a8948" stroke-width="1.51"/><path d="M1980,540L2100,540L2100,420Z" fill="#448a4d" stroke="#448a4d" stroke-width="1.51"/><path d="M1980,420L1980,540L2100,420Z" fill="#499052" stroke="#499052" stroke-width="1.51"/><path d="M1980,420L2100,420L2100,300Z" fill="#529158" stroke="#529158" stroke-width="1.51"/><path d="M1980,300L1980,420L2100,300Z" fill="#58965d" stroke="#58965d" stroke-width="1.51"/><path d="M1980,300L2100,300L2100,180Z" fill="#5e9662" stroke="#5e9662" stroke-width="1.51"/><path d="M1980,180L1980,300L2100,180Z" fill="#639b67" stroke="#639b67" stroke-width="1.51"/><path d="M1980,180L2100,180L2100,60Z" fill="#6a9b6d" stroke="#6a9b6d" stroke-width="1.51"/><path d="M1980,60L1980,180L2100,60Z" fill="#6e9f71" stroke="#6e9f71" stroke-width="1.51"/><path d="M1980,60L2100,60L2100,-60Z" fill="#739e76" stroke="#739e76" stroke-width="1.51"/><path d="M1980,-60L1980,60L2100,-60Z" fill="#77a37a" stroke="#77a37a" stroke-width="1.51"/><path d="M1980,-60L2100,-60L2100,-180Z" fill="#7aa17d" stroke="#7aa17d" stroke-width="1.51"/><path d="M1980,-180L1980,-60L2100,-180Z" fill="#7ea581" stroke="#7ea581" stroke-width="1.51"/><path d="M1860,1260L1980,1260L1980,1140Z" fill="#005d25" stroke="#005d25" stroke-width="1.51"/><path d="M1860,1140L1860,1260L1980,1140Z" fill="#006428" stroke="#006428" stroke-width="1.51"/><path d="M1860,1140L1980,1140L1980,1020Z" fill="#02692b" stroke="#02692b" stroke-width="1.51"/><path d="M1860,1020L1860,1140L1980,1020Z" fill="#076f2f" stroke="#076f2f" stroke-width="1.51"/><path d="M1860,1020L1980,1020L1980,900Z" fill="#0f7232" stroke="#0f7232" stroke-width="1.51"/><path d="M1860,900L1860,1020L1980,900Z" fill="#137837" stroke="#137837" stroke-width="1.51"/><path d="M1860,900L1980,900L1980,780Z" fill="#1a7c3a" stroke="#1a7c3a" stroke-width="1.51"/><path d="M1860,780L1860,900L1980,780Z" fill="#1e823e" stroke="#1e823e" stroke-width="1.51"/><path d="M1860,780L1980,780L1980,660Z" fill="#248541" stroke="#248541" stroke-width="1.51"/><path d="M1860,660L1860,780L1980,660Z" fill="#2b8a45" stroke="#2b8a45" stroke-width="1.51"/><path d="M1860,660L1980,660L1980,540Z" fill="#368d48" stroke="#368d48" stroke-width="1.51"/><path d="M1860,540L1860,660L1980,540Z" fill="#3d924c" stroke="#3d924c" stroke-width="1.51"/><path d="M1860,540L1980,540L1980,420Z" fill="#479451" stroke="#479451" stroke-width="1.51"/><path d="M1860,420L1860,540L1980,420Z" fill="#4c9956" stroke="#4c9956" stroke-width="1.51"/><path d="M1860,420L1980,420L1980,300Z" fill="#559a5b" stroke="#559a5b" stroke-width="1.51"/><path d="M1860,300L1860,420L1980,300Z" fill="#5b9f61" stroke="#5b9f61" stroke-width="1.51"/><path d="M1860,300L1980,300L1980,180Z" fill="#629f66" stroke="#629f66" stroke-width="1.51"/><path d="M1860,180L1860,300L1980,180Z" fill="#67a46c" stroke="#67a46c" stroke-width="1.51"/><path d="M1860,180L1980,180L1980,60Z" fill="#6ea471" stroke="#6ea471" stroke-width="1.51"/><path d="M1860,60L1860,180L1980,60Z" fill="#72a875" stroke="#72a875" stroke-width="1.51"/><path d="M1860,60L1980,60L1980,-60Z" fill="#77a87a" stroke="#77a87a" stroke-width="1.51"/><path d="M1860,-60L1860,60L1980,-60Z" fill="#7bab7f" stroke="#7bab7f" stroke-width="1.51"/><path d="M1860,-60L1980,-60L1980,-180Z" fill="#7fab82" stroke="#7fab82" stroke-width="1.51"/><path d="M1860,-180L1860,-60L1980,-180Z" fill="#82ae85" stroke="#82ae85" stroke-width="1.51"/><path d="M1740,1260L1860,1260L1860,1140Z" fill="#026529" stroke="#026529" stroke-width="1.51"/><path d="M1740,1140L1740,1260L1860,1140Z" fill="#056b2d" stroke="#056b2d" stroke-width="1.51"/><path d="M1740,1140L1860,1140L1860,1020Z" fill="#05712f" stroke="#05712f" stroke-width="1.51"/><path d="M1740,1020L1740,1140L1860,1020Z" fill="#0d7633" stroke="#0d7633" stroke-width="1.51"/><path d="M1740,1020L1860,1020L1860,900Z" fill="#127a36" stroke="#127a36" stroke-width="1.51"/><path d="M1740,900L1740,1020L1860,900Z" fill="#187f3b" stroke="#187f3b" stroke-width="1.51"/><path d="M1740,900L1860,900L1860,780Z" fill="#1d833e" stroke="#1d833e" stroke-width="1.51"/><path d="M1740,780L1740,900L1860,780Z" fill="#228942" stroke="#228942" stroke-width="1.51"/><path d="M1740,780L1860,780L1860,660Z" fill="#278d45" stroke="#278d45" stroke-width="1.51"/><path d="M1740,660L1740,780L1860,660Z" fill="#2f924a" stroke="#2f924a" stroke-width="1.51"/><path d="M1740,660L1860,660L1860,540Z" fill="#39954d" stroke="#39954d" stroke-width="1.51"/><path d="M1740,540L1740,660L1860,540Z" fill="#419951" stroke="#419951" stroke-width="1.51"/><path d="M1740,540L1860,540L1860,420Z" fill="#4a9c55" stroke="#4a9c55" stroke-width="1.51"/><path d="M1740,420L1740,540L1860,420Z" fill="#51a05b" stroke="#51a05b" stroke-width="1.51"/><path d="M1740,420L1860,420L1860,300Z" fill="#59a260" stroke="#59a260" stroke-width="1.51"/><path d="M1740,300L1740,420L1860,300Z" fill="#5fa666" stroke="#5fa666" stroke-width="1.51"/><path d="M1740,300L1860,300L1860,180Z" fill="#66a76b" stroke="#66a76b" stroke-width="1.51"/><path d="M1740,180L1740,300L1860,180Z" fill="#6bab71" stroke="#6bab71" stroke-width="1.51"/><path d="M1740,180L1860,180L1860,60Z" fill="#72ac76" stroke="#72ac76" stroke-width="1.51"/><path d="M1740,60L1740,180L1860,60Z" fill="#77b07b" stroke="#77b07b" stroke-width="1.51"/><path d="M1740,60L1860,60L1860,-60Z" fill="#7bb07e" stroke="#7bb07e" stroke-width="1.51"/><path d="M1740,-60L1740,60L1860,-60Z" fill="#80b384" stroke="#80b384" stroke-width="1.51"/><path d="M1740,-60L1860,-60L1860,-180Z" fill="#83b386" stroke="#83b386" stroke-width="1.51"/><path d="M1740,-180L1740,-60L1860,-180Z" fill="#86b68a" stroke="#86b68a" stroke-width="1.51"/><path d="M1620,1260L1740,1260L1740,1140Z" fill="#0a6b2e" stroke="#0a6b2e" stroke-width="1.51"/><path d="M1620,1140L1620,1260L1740,1140Z" fill="#0d7132" stroke="#0d7132" stroke-width="1.51"/><path d="M1620,1140L1740,1140L1740,1020Z" fill="#0e7734" stroke="#0e7734" stroke-width="1.51"/><path d="M1620,1020L1620,1140L1740,1020Z" fill="#147c38" stroke="#147c38" stroke-width="1.51"/><path d="M1620,1020L1740,1020L1740,900Z" fill="#19803b" stroke="#19803b" stroke-width="1.51"/><path d="M1620,900L1620,1020L1740,900Z" fill="#1e8540" stroke="#1e8540" stroke-width="1.51"/><path d="M1620,900L1740,900L1740,780Z" fill="#228943" stroke="#228943" stroke-width="1.51"/><path d="M1620,780L1620,900L1740,780Z" fill="#278f47" stroke="#278f47" stroke-width="1.51"/><path d="M1620,780L1740,780L1740,660Z" fill="#2c934a" stroke="#2c934a" stroke-width="1.51"/><path d="M1620,660L1620,780L1740,660Z" fill="#34984f" stroke="#34984f" stroke-width="1.51"/><path d="M1620,660L1740,660L1740,540Z" fill="#3e9b52" stroke="#3e9b52" stroke-width="1.51"/><path d="M1620,540L1620,660L1740,540Z" fill="#45a056" stroke="#45a056" stroke-width="1.51"/><path d="M1620,540L1740,540L1740,420Z" fill="#4fa25b" stroke="#4fa25b" stroke-width="1.51"/><path d="M1620,420L1620,540L1740,420Z" fill="#55a660" stroke="#55a660" stroke-width="1.51"/><path d="M1620,420L1740,420L1740,300Z" fill="#5da865" stroke="#5da865" stroke-width="1.51"/><path d="M1620,300L1620,420L1740,300Z" fill="#64ac6b" stroke="#64ac6b" stroke-width="1.51"/><path d="M1620,300L1740,300L1740,180Z" fill="#6bae70" stroke="#6bae70" stroke-width="1.51"/><path d="M1620,180L1620,300L1740,180Z" fill="#70b176" stroke="#70b176" stroke-width="1.51"/><path d="M1620,180L1740,180L1740,60Z" fill="#77b37b" stroke="#77b37b" stroke-width="1.51"/><path d="M1620,60L1620,180L1740,60Z" fill="#7bb680" stroke="#7bb680" stroke-width="1.51"/><path d="M1620,60L1740,60L1740,-60Z" fill="#80b684" stroke="#80b684" stroke-width="1.51"/><path d="M1620,-60L1620,60L1740,-60Z" fill="#85b98a" stroke="#85b98a" stroke-width="1.51"/><path d="M1620,-60L1740,-60L1740,-180Z" fill="#88b98c" stroke="#88b98c" stroke-width="1.51"/><path d="M1620,-180L1620,-60L1740,-180Z" fill="#8bbc90" stroke="#8bbc90" stroke-width="1.51"/><path d="M1500,1260L1620,1260L1620,1140Z" fill="#117133" stroke="#117133" stroke-width="1.51"/><path d="M1500,1140L1500,1260L1620,1140Z" fill="#147737" stroke="#147737" stroke-width="1.51"/><path d="M1500,1140L1620,1140L1620,1020Z" fill="#157d39" stroke="#157d39" stroke-width="1.51"/><path d="M1500,1020L1500,1140L1620,1020Z" fill="#1b823d" stroke="#1b823d" stroke-width="1.51"/><path d="M1500,1020L1620,1020L1620,900Z" fill="#1f8640" stroke="#1f8640" stroke-width="1.51"/><path d="M1500,900L1500,1020L1620,900Z" fill="#248b45" stroke="#248b45" stroke-width="1.51"/><path d="M1500,900L1620,900L1620,780Z" fill="#288f48" stroke="#288f48" stroke-width="1.51"/><path d="M1500,780L1500,900L1620,780Z" fill="#2d954c" stroke="#2d954c" stroke-width="1.51"/><path d="M1500,780L1620,780L1620,660Z" fill="#31994f" stroke="#31994f" stroke-width="1.51"/><path d="M1500,660L1500,780L1620,660Z" fill="#399e54" stroke="#399e54" stroke-width="1.51"/><path d="M1500,660L1620,660L1620,540Z" fill="#43a157" stroke="#43a157" stroke-width="1.51"/><path d="M1500,540L1500,660L1620,540Z" fill="#4aa65c" stroke="#4aa65c" stroke-width="1.51"/><path d="M1500,540L1620,540L1620,420Z" fill="#53a860" stroke="#53a860" stroke-width="1.51"/><path d="M1500,420L1500,540L1620,420Z" fill="#5aad65" stroke="#5aad65" stroke-width="1.51"/><path d="M1500,420L1620,420L1620,300Z" fill="#62af6b" stroke="#62af6b" stroke-width="1.51"/><path d="M1500,300L1500,420L1620,300Z" fill="#68b370" stroke="#68b370" stroke-width="1.51"/><path d="M1500,300L1620,300L1620,180Z" fill="#6fb476" stroke="#6fb476" stroke-width="1.51"/><path d="M1500,180L1500,300L1620,180Z" fill="#74b87c" stroke="#74b87c" stroke-width="1.51"/><path d="M1500,180L1620,180L1620,60Z" fill="#7bb981" stroke="#7bb981" stroke-width="1.51"/><path d="M1500,60L1500,180L1620,60Z" fill="#80bc86" stroke="#80bc86" stroke-width="1.51"/><path d="M1500,60L1620,60L1620,-60Z" fill="#85bd8a" stroke="#85bd8a" stroke-width="1.51"/><path d="M1500,-60L1500,60L1620,-60Z" fill="#89c08f" stroke="#89c08f" stroke-width="1.51"/><path d="M1500,-60L1620,-60L1620,-180Z" fill="#8cc092" stroke="#8cc092" stroke-width="1.51"/><path d="M1500,-180L1500,-60L1620,-180Z" fill="#90c296" stroke="#90c296" stroke-width="1.51"/><path d="M1380,1260L1500,1260L1500,1140Z" fill="#197738" stroke="#197738" stroke-width="1.51"/><path d="M1380,1140L1380,1260L1500,1140Z" fill="#1c7d3b" stroke="#1c7d3b" stroke-width="1.51"/><path d="M1380,1140L1500,1140L1500,1020Z" fill="#1d833e" stroke="#1d833e" stroke-width="1.51"/><path d="M1380,1020L1380,1140L1500,1020Z" fill="#228842" stroke="#228842" stroke-width="1.51"/><path d="M1380,1020L1500,1020L1500,900Z" fill="#258c45" stroke="#258c45" stroke-width="1.51"/><path d="M1380,900L1380,1020L1500,900Z" fill="#2a914a" stroke="#2a914a" stroke-width="1.51"/><path d="M1380,900L1500,900L1500,780Z" fill="#2e964d" stroke="#2e964d" stroke-width="1.51"/><path d="M1380,780L1380,900L1500,780Z" fill="#339b51" stroke="#339b51" stroke-width="1.51"/><path d="M1380,780L1500,780L1500,660Z" fill="#37a054" stroke="#37a054" stroke-width="1.51"/><path d="M1380,660L1380,780L1500,660Z" fill="#3fa458" stroke="#3fa458" stroke-width="1.51"/><path d="M1380,660L1500,660L1500,540Z" fill="#48a85c" stroke="#48a85c" stroke-width="1.51"/><path d="M1380,540L1380,660L1500,540Z" fill="#50ac60" stroke="#50ac60" stroke-width="1.51"/><path d="M1380,540L1500,540L1500,420Z" fill="#59af65" stroke="#59af65" stroke-width="1.51"/><path d="M1380,420L1380,540L1500,420Z" fill="#5fb36a" stroke="#5fb36a" stroke-width="1.51"/><path d="M1380,420L1500,420L1500,300Z" fill="#67b570" stroke="#67b570" stroke-width="1.51"/><path d="M1380,300L1380,420L1500,300Z" fill="#6eb975" stroke="#6eb975" stroke-width="1.51"/><path d="M1380,300L1500,300L1500,180Z" fill="#75bb7b" stroke="#75bb7b" stroke-width="1.51"/><path d="M1380,180L1380,300L1500,180Z" fill="#7abe80" stroke="#7abe80" stroke-width="1.51"/><path d="M1380,180L1500,180L1500,60Z" fill="#81c086" stroke="#81c086" stroke-width="1.51"/><path d="M1380,60L1380,180L1500,60Z" fill="#86c38a" stroke="#86c38a" stroke-width="1.51"/><path d="M1380,60L1500,60L1500,-60Z" fill="#8ac38f" stroke="#8ac38f" stroke-width="1.51"/><path d="M1380,-60L1380,60L1500,-60Z" fill="#8fc794" stroke="#8fc794" stroke-width="1.51"/><path d="M1380,-60L1500,-60L1500,-180Z" fill="#92c797" stroke="#92c797" stroke-width="1.51"/><path d="M1380,-180L1380,-60L1500,-180Z" fill="#96c99b" stroke="#96c99b" stroke-width="1.51"/><path d="M1260,1260L1380,1260L1380,1140Z" fill="#1f7d3c" stroke="#1f7d3c" stroke-width="1.51"/><path d="M1260,1140L1260,1260L1380,1140Z" fill="#228340" stroke="#228340" stroke-width="1.51"/><path d="M1260,1140L1380,1140L1380,1020Z" fill="#238942" stroke="#238942" stroke-width="1.51"/><path d="M1260,1020L1260,1140L1380,1020Z" fill="#288f47" stroke="#288f47" stroke-width="1.51"/><path d="M1260,1020L1380,1020L1380,900Z" fill="#2b924a" stroke="#2b924a" stroke-width="1.51"/><path d="M1260,900L1260,1020L1380,900Z" fill="#30984f" stroke="#30984f" stroke-width="1.51"/><path d="M1260,900L1380,900L1380,780Z" fill="#349c51" stroke="#349c51" stroke-width="1.51"/><path d="M1260,780L1260,900L1380,780Z" fill="#39a256" stroke="#39a256" stroke-width="1.51"/><path d="M1260,780L1380,780L1380,660Z" fill="#3da659" stroke="#3da659" stroke-width="1.51"/><path d="M1260,660L1260,780L1380,660Z" fill="#44ab5d" stroke="#44ab5d" stroke-width="1.51"/><path d="M1260,660L1380,660L1380,540Z" fill="#4dae61" stroke="#4dae61" stroke-width="1.51"/><path d="M1260,540L1260,660L1380,540Z" fill="#55b365" stroke="#55b365" stroke-width="1.51"/><path d="M1260,540L1380,540L1380,420Z" fill="#5eb56a" stroke="#5eb56a" stroke-width="1.51"/><path d="M1260,420L1260,540L1380,420Z" fill="#64ba6f" stroke="#64ba6f" stroke-width="1.51"/><path d="M1260,420L1380,420L1380,300Z" fill="#6cbb75" stroke="#6cbb75" stroke-width="1.51"/><path d="M1260,300L1260,420L1380,300Z" fill="#73c07b" stroke="#73c07b" stroke-width="1.51"/><path d="M1260,300L1380,300L1380,180Z" fill="#79c180" stroke="#79c180" stroke-width="1.51"/><path d="M1260,180L1260,300L1380,180Z" fill="#7fc586" stroke="#7fc586" stroke-width="1.51"/><path d="M1260,180L1380,180L1380,60Z" fill="#86c68b" stroke="#86c68b" stroke-width="1.51"/><path d="M1260,60L1260,180L1380,60Z" fill="#8bca90" stroke="#8bca90" stroke-width="1.51"/><path d="M1260,60L1380,60L1380,-60Z" fill="#8fca94" stroke="#8fca94" stroke-width="1.51"/><path d="M1260,-60L1260,60L1380,-60Z" fill="#94cd99" stroke="#94cd99" stroke-width="1.51"/><path d="M1260,-60L1380,-60L1380,-180Z" fill="#97cd9c" stroke="#97cd9c" stroke-width="1.51"/><path d="M1260,-180L1260,-60L1380,-180Z" fill="#9bd0a0" stroke="#9bd0a0" stroke-width="1.51"/><path d="M1140,1260L1260,1260L1260,1140Z" fill="#288241" stroke="#288241" stroke-width="1.51"/><path d="M1140,1140L1140,1260L1260,1140Z" fill="#2d8845" stroke="#2d8845" stroke-width="1.51"/><path d="M1140,1140L1260,1140L1260,1020Z" fill="#2c8f47" stroke="#2c8f47" stroke-width="1.51"/><path d="M1140,1020L1140,1140L1260,1020Z" fill="#33944c" stroke="#33944c" stroke-width="1.51"/><path d="M1140,1020L1260,1020L1260,900Z" fill="#34984f" stroke="#34984f" stroke-width="1.51"/><path d="M1140,900L1140,1020L1260,900Z" fill="#3a9d54" stroke="#3a9d54" stroke-width="1.51"/><path d="M1140,900L1260,900L1260,780Z" fill="#3ca256" stroke="#3ca256" stroke-width="1.51"/><path d="M1140,780L1140,900L1260,780Z" fill="#42a75b" stroke="#42a75b" stroke-width="1.51"/><path d="M1140,780L1260,780L1260,660Z" fill="#45ac5e" stroke="#45ac5e" stroke-width="1.51"/><path d="M1140,660L1140,780L1260,660Z" fill="#4eb062" stroke="#4eb062" stroke-width="1.51"/><path d="M1140,660L1260,660L1260,540Z" fill="#55b466" stroke="#55b466" stroke-width="1.51"/><path d="M1140,540L1140,660L1260,540Z" fill="#5db86a" stroke="#5db86a" stroke-width="1.51"/><path d="M1140,540L1260,540L1260,420Z" fill="#65bb6f" stroke="#65bb6f" stroke-width="1.51"/><path d="M1140,420L1140,540L1260,420Z" fill="#6dc074" stroke="#6dc074" stroke-width="1.51"/><path d="M1140,420L1260,420L1260,300Z" fill="#73c27a" stroke="#73c27a" stroke-width="1.51"/><path d="M1140,300L1140,420L1260,300Z" fill="#7bc680" stroke="#7bc680" stroke-width="1.51"/><path d="M1140,300L1260,300L1260,180Z" fill="#80c785" stroke="#80c785" stroke-width="1.51"/><path d="M1140,180L1140,300L1260,180Z" fill="#87cb8b" stroke="#87cb8b" stroke-width="1.51"/><path d="M1140,180L1260,180L1260,60Z" fill="#8ccc90" stroke="#8ccc90" stroke-width="1.51"/><path d="M1140,60L1140,180L1260,60Z" fill="#93cf95" stroke="#93cf95" stroke-width="1.51"/><path d="M1140,60L1260,60L1260,-60Z" fill="#96d099" stroke="#96d099" stroke-width="1.51"/><path d="M1140,-60L1140,60L1260,-60Z" fill="#9cd39f" stroke="#9cd39f" stroke-width="1.51"/><path d="M1140,-60L1260,-60L1260,-180Z" fill="#9ed3a2" stroke="#9ed3a2" stroke-width="1.51"/><path d="M1140,-180L1140,-60L1260,-180Z" fill="#a3d6a6" stroke="#a3d6a6" stroke-width="1.51"/><path d="M1020,1260L1140,1260L1140,1140Z" fill="#348746" stroke="#348746" stroke-width="1.51"/><path d="M1020,1140L1020,1260L1140,1140Z" fill="#388d49" stroke="#388d49" stroke-width="1.51"/><path d="M1020,1140L1140,1140L1140,1020Z" fill="#38944c" stroke="#38944c" stroke-width="1.51"/><path d="M1020,1020L1020,1140L1140,1020Z" fill="#3e9950" stroke="#3e9950" stroke-width="1.51"/><path d="M1020,1020L1140,1020L1140,900Z" fill="#409d54" stroke="#409d54" stroke-width="1.51"/><path d="M1020,900L1020,1020L1140,900Z" fill="#45a259" stroke="#45a259" stroke-width="1.51"/><path d="M1020,900L1140,900L1140,780Z" fill="#47a75b" stroke="#47a75b" stroke-width="1.51"/><path d="M1020,780L1020,900L1140,780Z" fill="#4dac60" stroke="#4dac60" stroke-width="1.51"/><path d="M1020,780L1140,780L1140,660Z" fill="#50b163" stroke="#50b163" stroke-width="1.51"/><path d="M1020,660L1020,780L1140,660Z" fill="#58b567" stroke="#58b567" stroke-width="1.51"/><path d="M1020,660L1140,660L1140,540Z" fill="#5fb96b" stroke="#5fb96b" stroke-width="1.51"/><path d="M1020,540L1020,660L1140,540Z" fill="#67bd6f" stroke="#67bd6f" stroke-width="1.51"/><path d="M1020,540L1140,540L1140,420Z" fill="#6ec074" stroke="#6ec074" stroke-width="1.51"/><path d="M1020,420L1020,540L1140,420Z" fill="#76c579" stroke="#76c579" stroke-width="1.51"/><path d="M1020,420L1140,420L1140,300Z" fill="#7cc77f" stroke="#7cc77f" stroke-width="1.51"/><path d="M1020,300L1020,420L1140,300Z" fill="#84cb85" stroke="#84cb85" stroke-width="1.51"/><path d="M1020,300L1140,300L1140,180Z" fill="#89cc8a" stroke="#89cc8a" stroke-width="1.51"/><path d="M1020,180L1020,300L1140,180Z" fill="#90d090" stroke="#90d090" stroke-width="1.51"/><path d="M1020,180L1140,180L1140,60Z" fill="#95d195" stroke="#95d195" stroke-width="1.51"/><path d="M1020,60L1020,180L1140,60Z" fill="#9bd49a" stroke="#9bd49a" stroke-width="1.51"/><path d="M1020,60L1140,60L1140,-60Z" fill="#9fd59f" stroke="#9fd59f" stroke-width="1.51"/><path d="M1020,-60L1020,60L1140,-60Z" fill="#a5d8a4" stroke="#a5d8a4" stroke-width="1.51"/><path d="M1020,-60L1140,-60L1140,-180Z" fill="#a6d8a7" stroke="#a6d8a7" stroke-width="1.51"/><path d="M1020,-180L1020,-60L1140,-180Z" fill="#abdaab" stroke="#abdaab" stroke-width="1.51"/><path d="M900,1260L1020,1260L1020,1140Z" fill="#3e8c4a" stroke="#3e8c4a" stroke-width="1.51"/><path d="M900,1140L900,1260L1020,1140Z" fill="#43924e" stroke="#43924e" stroke-width="1.51"/><path d="M900,1140L1020,1140L1020,1020Z" fill="#439951" stroke="#439951" stroke-width="1.51"/><path d="M900,1020L900,1140L1020,1020Z" fill="#499d55" stroke="#499d55" stroke-width="1.51"/><path d="M900,1020L1020,1020L1020,900Z" fill="#4aa258" stroke="#4aa258" stroke-width="1.51"/><path d="M900,900L900,1020L1020,900Z" fill="#50a75d" stroke="#50a75d" stroke-width="1.51"/><path d="M900,900L1020,900L1020,780Z" fill="#52ac60" stroke="#52ac60" stroke-width="1.51"/><path d="M900,780L900,900L1020,780Z" fill="#58b165" stroke="#58b165" stroke-width="1.51"/><path d="M900,780L1020,780L1020,660Z" fill="#5ab668" stroke="#5ab668" stroke-width="1.51"/><path d="M900,660L900,780L1020,660Z" fill="#62ba6c" stroke="#62ba6c" stroke-width="1.51"/><path d="M900,660L1020,660L1020,540Z" fill="#69be70" stroke="#69be70" stroke-width="1.51"/><path d="M900,540L900,660L1020,540Z" fill="#71c274" stroke="#71c274" stroke-width="1.51"/><path d="M900,540L1020,540L1020,420Z" fill="#78c579" stroke="#78c579" stroke-width="1.51"/><path d="M900,420L900,540L1020,420Z" fill="#7fc97e" stroke="#7fc97e" stroke-width="1.51"/><path d="M900,420L1020,420L1020,300Z" fill="#85cc84" stroke="#85cc84" stroke-width="1.51"/><path d="M900,300L900,420L1020,300Z" fill="#8dcf8a" stroke="#8dcf8a" stroke-width="1.51"/><path d="M900,300L1020,300L1020,180Z" fill="#92d18f" stroke="#92d18f" stroke-width="1.51"/><path d="M900,180L900,300L1020,180Z" fill="#99d495" stroke="#99d495" stroke-width="1.51"/><path d="M900,180L1020,180L1020,60Z" fill="#9ed69b" stroke="#9ed69b" stroke-width="1.51"/><path d="M900,60L900,180L1020,60Z" fill="#a4d9a0" stroke="#a4d9a0" stroke-width="1.51"/><path d="M900,60L1020,60L1020,-60Z" fill="#a7daa4" stroke="#a7daa4" stroke-width="1.51"/><path d="M900,-60L900,60L1020,-60Z" fill="#addca9" stroke="#addca9" stroke-width="1.51"/><path d="M900,-60L1020,-60L1020,-180Z" fill="#afddac" stroke="#afddac" stroke-width="1.51"/><path d="M900,-180L900,-60L1020,-180Z" fill="#b4dfb0" stroke="#b4dfb0" stroke-width="1.51"/><path d="M780,1260L900,1260L900,1140Z" fill="#489051" stroke="#489051" stroke-width="1.51"/><path d="M780,1140L780,1260L900,1140Z" fill="#4c9655" stroke="#4c9655" stroke-width="1.51"/><path d="M780,1140L900,1140L900,1020Z" fill="#4d9d57" stroke="#4d9d57" stroke-width="1.51"/><path d="M780,1020L780,1140L900,1020Z" fill="#52a25c" stroke="#52a25c" stroke-width="1.51"/><path d="M780,1020L900,1020L900,900Z" fill="#54a65f" stroke="#54a65f" stroke-width="1.51"/><path d="M780,900L780,1020L900,900Z" fill="#5aab65" stroke="#5aab65" stroke-width="1.51"/><path d="M780,900L900,900L900,780Z" fill="#5bb067" stroke="#5bb067" stroke-width="1.51"/><path d="M780,780L780,900L900,780Z" fill="#61b56c" stroke="#61b56c" stroke-width="1.51"/><path d="M780,780L900,780L900,660Z" fill="#64ba6f" stroke="#64ba6f" stroke-width="1.51"/><path d="M780,660L780,780L900,660Z" fill="#6bbf74" stroke="#6bbf74" stroke-width="1.51"/><path d="M780,660L900,660L900,540Z" fill="#72c377" stroke="#72c377" stroke-width="1.51"/><path d="M780,540L780,660L900,540Z" fill="#7ac77c" stroke="#7ac77c" stroke-width="1.51"/><path d="M780,540L900,540L900,420Z" fill="#81c980" stroke="#81c980" stroke-width="1.51"/><path d="M780,420L780,540L900,420Z" fill="#88ce86" stroke="#88ce86" stroke-width="1.51"/><path d="M780,420L900,420L900,300Z" fill="#8ed08b" stroke="#8ed08b" stroke-width="1.51"/><path d="M780,300L780,420L900,300Z" fill="#96d491" stroke="#96d491" stroke-width="1.51"/><path d="M780,300L900,300L900,180Z" fill="#9bd696" stroke="#9bd696" stroke-width="1.51"/><path d="M780,180L780,300L900,180Z" fill="#a1d99d" stroke="#a1d99d" stroke-width="1.51"/><path d="M780,180L900,180L900,60Z" fill="#a7dba2" stroke="#a7dba2" stroke-width="1.51"/><path d="M780,60L780,180L900,60Z" fill="#addda7" stroke="#addda7" stroke-width="1.51"/><path d="M780,60L900,60L900,-60Z" fill="#b0deab" stroke="#b0deab" stroke-width="1.51"/><path d="M780,-60L780,60L900,-60Z" fill="#b6e1b1" stroke="#b6e1b1" stroke-width="1.51"/><path d="M780,-60L900,-60L900,-180Z" fill="#b8e1b3" stroke="#b8e1b3" stroke-width="1.51"/><path d="M780,-180L780,-60L900,-180Z" fill="#bce3b8" stroke="#bce3b8" stroke-width="1.51"/><path d="M660,1260L780,1260L780,1140Z" fill="#519458" stroke="#519458" stroke-width="1.51"/><path d="M660,1140L660,1260L780,1140Z" fill="#569a5c" stroke="#569a5c" stroke-width="1.51"/><path d="M660,1140L780,1140L780,1020Z" fill="#57a15e" stroke="#57a15e" stroke-width="1.51"/><path d="M660,1020L660,1140L780,1020Z" fill="#5ca663" stroke="#5ca663" stroke-width="1.51"/><path d="M660,1020L780,1020L780,900Z" fill="#5eaa66" stroke="#5eaa66" stroke-width="1.51"/><path d="M660,900L660,1020L780,900Z" fill="#63af6c" stroke="#63af6c" stroke-width="1.51"/><path d="M660,900L780,900L780,780Z" fill="#65b46e" stroke="#65b46e" stroke-width="1.51"/><path d="M660,780L660,900L780,780Z" fill="#6bb973" stroke="#6bb973" stroke-width="1.51"/><path d="M660,780L780,780L780,660Z" fill="#6dbf76" stroke="#6dbf76" stroke-width="1.51"/><path d="M660,660L660,780L780,660Z" fill="#75c37b" stroke="#75c37b" stroke-width="1.51"/><path d="M660,660L780,660L780,540Z" fill="#7bc77e" stroke="#7bc77e" stroke-width="1.51"/><path d="M660,540L660,660L780,540Z" fill="#83cb83" stroke="#83cb83" stroke-width="1.51"/><path d="M660,540L780,540L780,420Z" fill="#8ace87" stroke="#8ace87" stroke-width="1.51"/><path d="M660,420L660,540L780,420Z" fill="#91d28d" stroke="#91d28d" stroke-width="1.51"/><path d="M660,420L780,420L780,300Z" fill="#97d492" stroke="#97d492" stroke-width="1.51"/><path d="M660,300L660,420L780,300Z" fill="#9fd899" stroke="#9fd899" stroke-width="1.51"/><path d="M660,300L780,300L780,180Z" fill="#a4da9e" stroke="#a4da9e" stroke-width="1.51"/><path d="M660,180L660,300L780,180Z" fill="#aadda4" stroke="#aadda4" stroke-width="1.51"/><path d="M660,180L780,180L780,60Z" fill="#afdfa9" stroke="#afdfa9" stroke-width="1.51"/><path d="M660,60L660,180L780,60Z" fill="#b5e1af" stroke="#b5e1af" stroke-width="1.51"/><path d="M660,60L780,60L780,-60Z" fill="#b8e2b3" stroke="#b8e2b3" stroke-width="1.51"/><path d="M660,-60L660,60L780,-60Z" fill="#bee5b9" stroke="#bee5b9" stroke-width="1.51"/><path d="M660,-60L780,-60L780,-180Z" fill="#c0e5bb" stroke="#c0e5bb" stroke-width="1.51"/><path d="M660,-180L660,-60L780,-180Z" fill="#c5e7c0" stroke="#c5e7c0" stroke-width="1.51"/><path d="M540,1260L660,1260L660,1140Z" fill="#5a985f" stroke="#5a985f" stroke-width="1.51"/><path d="M540,1140L540,1260L660,1140Z" fill="#5e9d63" stroke="#5e9d63" stroke-width="1.51"/><path d="M540,1140L660,1140L660,1020Z" fill="#60a566" stroke="#60a566" stroke-width="1.51"/><path d="M540,1020L540,1140L660,1020Z" fill="#65a96b" stroke="#65a96b" stroke-width="1.51"/><path d="M540,1020L660,1020L660,900Z" fill="#67ae6e" stroke="#67ae6e" stroke-width="1.51"/><path d="M540,900L540,1020L660,900Z" fill="#6cb373" stroke="#6cb373" stroke-width="1.51"/><path d="M540,900L660,900L660,780Z" fill="#6eb876" stroke="#6eb876" stroke-width="1.51"/><path d="M540,780L540,900L660,780Z" fill="#74bd7b" stroke="#74bd7b" stroke-width="1.51"/><path d="M540,780L660,780L660,660Z" fill="#76c37e" stroke="#76c37e" stroke-width="1.51"/><path d="M540,660L540,780L660,660Z" fill="#7dc683" stroke="#7dc683" stroke-width="1.51"/><path d="M540,660L660,660L660,540Z" fill="#84cb86" stroke="#84cb86" stroke-width="1.51"/><path d="M540,540L540,660L660,540Z" fill="#8bce8b" stroke="#8bce8b" stroke-width="1.51"/><path d="M540,540L660,540L660,420Z" fill="#92d28f" stroke="#92d28f" stroke-width="1.51"/><path d="M540,420L540,540L660,420Z" fill="#99d595" stroke="#99d595" stroke-width="1.51"/><path d="M540,420L660,420L660,300Z" fill="#a0d89a" stroke="#a0d89a" stroke-width="1.51"/><path d="M540,300L540,420L660,300Z" fill="#a7dba0" stroke="#a7dba0" stroke-width="1.51"/><path d="M540,300L660,300L660,180Z" fill="#acdea5" stroke="#acdea5" stroke-width="1.51"/><path d="M540,180L540,300L660,180Z" fill="#b2e0ac" stroke="#b2e0ac" stroke-width="1.51"/><path d="M540,180L660,180L660,60Z" fill="#b8e3b1" stroke="#b8e3b1" stroke-width="1.51"/><path d="M540,60L540,180L660,60Z" fill="#bde5b6" stroke="#bde5b6" stroke-width="1.51"/><path d="M540,60L660,60L660,-60Z" fill="#c1e6ba" stroke="#c1e6ba" stroke-width="1.51"/><path d="M540,-60L540,60L660,-60Z" fill="#c6e8c0" stroke="#c6e8c0" stroke-width="1.51"/><path d="M540,-60L660,-60L660,-180Z" fill="#c8e9c3" stroke="#c8e9c3" stroke-width="1.51"/><path d="M540,-180L540,-60L660,-180Z" fill="#cdebc7" stroke="#cdebc7" stroke-width="1.51"/><path d="M420,1260L540,1260L540,1140Z" fill="#629b66" stroke="#629b66" stroke-width="1.51"/><path d="M420,1140L420,1260L540,1140Z" fill="#66a16a" stroke="#66a16a" stroke-width="1.51"/><path d="M420,1140L540,1140L540,1020Z" fill="#68a86d" stroke="#68a86d" stroke-width="1.51"/><path d="M420,1020L420,1140L540,1020Z" fill="#6dad72" stroke="#6dad72" stroke-width="1.51"/><path d="M420,1020L540,1020L540,900Z" fill="#6fb275" stroke="#6fb275" stroke-width="1.51"/><path d="M420,900L420,1020L540,900Z" fill="#74b67a" stroke="#74b67a" stroke-width="1.51"/><path d="M420,900L540,900L540,780Z" fill="#76bc7d" stroke="#76bc7d" stroke-width="1.51"/><path d="M420,780L420,900L540,780Z" fill="#7bc082" stroke="#7bc082" stroke-width="1.51"/><path d="M420,780L540,780L540,660Z" fill="#7ec685" stroke="#7ec685" stroke-width="1.51"/><path d="M420,660L420,780L540,660Z" fill="#85ca8a" stroke="#85ca8a" stroke-width="1.51"/><path d="M420,660L540,660L540,540Z" fill="#8cce8d" stroke="#8cce8d" stroke-width="1.51"/><path d="M420,540L420,660L540,540Z" fill="#93d292" stroke="#93d292" stroke-width="1.51"/><path d="M420,540L540,540L540,420Z" fill="#9ad596" stroke="#9ad596" stroke-width="1.51"/><path d="M420,420L420,540L540,420Z" fill="#a1d99c" stroke="#a1d99c" stroke-width="1.51"/><path d="M420,420L540,420L540,300Z" fill="#a7dca1" stroke="#a7dca1" stroke-width="1.51"/><path d="M420,300L420,420L540,300Z" fill="#aedfa8" stroke="#aedfa8" stroke-width="1.51"/><path d="M420,300L540,300L540,180Z" fill="#b4e1ad" stroke="#b4e1ad" stroke-width="1.51"/><path d="M420,180L420,300L540,180Z" fill="#b9e3b3" stroke="#b9e3b3" stroke-width="1.51"/><path d="M420,180L540,180L540,60Z" fill="#bfe6b8" stroke="#bfe6b8" stroke-width="1.51"/><path d="M420,60L420,180L540,60Z" fill="#c5e8be" stroke="#c5e8be" stroke-width="1.51"/><path d="M420,60L540,60L540,-60Z" fill="#c8eac2" stroke="#c8eac2" stroke-width="1.51"/><path d="M420,-60L420,60L540,-60Z" fill="#ceecc8" stroke="#ceecc8" stroke-width="1.51"/><path d="M420,-60L540,-60L540,-180Z" fill="#d0edca" stroke="#d0edca" stroke-width="1.51"/><path d="M420,-180L420,-60L540,-180Z" fill="#d4eecf" stroke="#d4eecf" stroke-width="1.51"/><path d="M300,1260L420,1260L420,1140Z" fill="#699e6d" stroke="#699e6d" stroke-width="1.51"/><path d="M300,1140L300,1260L420,1140Z" fill="#6ea471" stroke="#6ea471" stroke-width="1.51"/><path d="M300,1140L420,1140L420,1020Z" fill="#6fab74" stroke="#6fab74" stroke-width="1.51"/><path d="M300,1020L300,1140L420,1020Z" fill="#74b078" stroke="#74b078" stroke-width="1.51"/><path d="M300,1020L420,1020L420,900Z" fill="#76b57c" stroke="#76b57c" stroke-width="1.51"/><path d="M300,900L300,1020L420,900Z" fill="#7bb981" stroke="#7bb981" stroke-width="1.51"/><path d="M300,900L420,900L420,780Z" fill="#7ebf84" stroke="#7ebf84" stroke-width="1.51"/><path d="M300,780L300,900L420,780Z" fill="#83c489" stroke="#83c489" stroke-width="1.51"/><path d="M300,780L420,780L420,660Z" fill="#86c98c" stroke="#86c98c" stroke-width="1.51"/><path d="M300,660L300,780L420,660Z" fill="#8dcd91" stroke="#8dcd91" stroke-width="1.51"/><path d="M300,660L420,660L420,540Z" fill="#94d194" stroke="#94d194" stroke-width="1.51"/><path d="M300,540L300,660L420,540Z" fill="#9bd599" stroke="#9bd599" stroke-width="1.51"/><path d="M300,540L420,540L420,420Z" fill="#a2d89e" stroke="#a2d89e" stroke-width="1.51"/><path d="M300,420L300,540L420,420Z" fill="#a9dca3" stroke="#a9dca3" stroke-width="1.51"/><path d="M300,420L420,420L420,300Z" fill="#afdfa9" stroke="#afdfa9" stroke-width="1.51"/><path d="M300,300L300,420L420,300Z" fill="#b6e2af" stroke="#b6e2af" stroke-width="1.51"/><path d="M300,300L420,300L420,180Z" fill="#bbe4b4" stroke="#bbe4b4" stroke-width="1.51"/><path d="M300,180L300,300L420,180Z" fill="#c1e7ba" stroke="#c1e7ba" stroke-width="1.51"/><path d="M300,180L420,180L420,60Z" fill="#c7e9c0" stroke="#c7e9c0" stroke-width="1.51"/><path d="M300,60L300,180L420,60Z" fill="#ccebc5" stroke="#ccebc5" stroke-width="1.51"/><path d="M300,60L420,60L420,-60Z" fill="#d0edc9" stroke="#d0edc9" stroke-width="1.51"/><path d="M300,-60L300,60L420,-60Z" fill="#d5efcf" stroke="#d5efcf" stroke-width="1.51"/><path d="M300,-60L420,-60L420,-180Z" fill="#d7f0d2" stroke="#d7f0d2" stroke-width="1.51"/><path d="M300,-180L300,-60L420,-180Z" fill="#dcf1d6" stroke="#dcf1d6" stroke-width="1.51"/><path d="M180,1260L300,1260L300,1140Z" fill="#70a173" stroke="#70a173" stroke-width="1.51"/><path d="M180,1140L180,1260L300,1140Z" fill="#74a677" stroke="#74a677" stroke-width="1.51"/><path d="M180,1140L300,1140L300,1020Z" fill="#76ae7a" stroke="#76ae7a" stroke-width="1.51"/><path d="M180,1020L180,1140L300,1020Z" fill="#7bb27e" stroke="#7bb27e" stroke-width="1.51"/><path d="M180,1020L300,1020L300,900Z" fill="#7db782" stroke="#7db782" stroke-width="1.51"/><path d="M180,900L180,1020L300,900Z" fill="#82bc87" stroke="#82bc87" stroke-width="1.51"/><path d="M180,900L300,900L300,780Z" fill="#85c18a" stroke="#85c18a" stroke-width="1.51"/><path d="M180,780L180,900L300,780Z" fill="#8ac68f" stroke="#8ac68f" stroke-width="1.51"/><path d="M180,780L300,780L300,660Z" fill="#8dcc92" stroke="#8dcc92" stroke-width="1.51"/><path d="M180,660L180,780L300,660Z" fill="#94cf97" stroke="#94cf97" stroke-width="1.51"/><path d="M180,660L300,660L300,540Z" fill="#9bd49b" stroke="#9bd49b" stroke-width="1.51"/><path d="M180,540L180,660L300,540Z" fill="#a1d79f" stroke="#a1d79f" stroke-width="1.51"/><path d="M180,540L300,540L300,420Z" fill="#a8dba4" stroke="#a8dba4" stroke-width="1.51"/><path d="M180,420L180,540L300,420Z" fill="#afdeaa" stroke="#afdeaa" stroke-width="1.51"/><path d="M180,420L300,420L300,300Z" fill="#b5e1af" stroke="#b5e1af" stroke-width="1.51"/><path d="M180,300L180,420L300,300Z" fill="#bce4b5" stroke="#bce4b5" stroke-width="1.51"/><path d="M180,300L300,300L300,180Z" fill="#c2e7bb" stroke="#c2e7bb" stroke-width="1.51"/><path d="M180,180L180,300L300,180Z" fill="#c7e9c1" stroke="#c7e9c1" stroke-width="1.51"/><path d="M180,180L300,180L300,60Z" fill="#cdecc6" stroke="#cdecc6" stroke-width="1.51"/><path d="M180,60L180,180L300,60Z" fill="#d2eecb" stroke="#d2eecb" stroke-width="1.51"/><path d="M180,60L300,60L300,-60Z" fill="#d6efd0" stroke="#d6efd0" stroke-width="1.51"/><path d="M180,-60L180,60L300,-60Z" fill="#dbf1d5" stroke="#dbf1d5" stroke-width="1.51"/><path d="M180,-60L300,-60L300,-180Z" fill="#def2d8" stroke="#def2d8" stroke-width="1.51"/><path d="M180,-180L180,-60L300,-180Z" fill="#e2f4dc" stroke="#e2f4dc" stroke-width="1.51"/><path d="M60,1260L180,1260L180,1140Z" fill="#76a379" stroke="#76a379" stroke-width="1.51"/><path d="M60,1140L60,1260L180,1140Z" fill="#7aa87d" stroke="#7aa87d" stroke-width="1.51"/><path d="M60,1140L180,1140L180,1020Z" fill="#7cb07f" stroke="#7cb07f" stroke-width="1.51"/><path d="M60,1020L60,1140L180,1020Z" fill="#81b485" stroke="#81b485" stroke-width="1.51"/><path d="M60,1020L180,1020L180,900Z" fill="#83ba88" stroke="#83ba88" stroke-width="1.51"/><path d="M60,900L60,1020L180,900Z" fill="#88be8d" stroke="#88be8d" stroke-width="1.51"/><path d="M60,900L180,900L180,780Z" fill="#8bc490" stroke="#8bc490" stroke-width="1.51"/><path d="M60,780L60,900L180,780Z" fill="#90c895" stroke="#90c895" stroke-width="1.51"/><path d="M60,780L180,780L180,660Z" fill="#93ce98" stroke="#93ce98" stroke-width="1.51"/><path d="M60,660L60,780L180,660Z" fill="#9ad19d" stroke="#9ad19d" stroke-width="1.51"/><path d="M60,660L180,660L180,540Z" fill="#a1d6a1" stroke="#a1d6a1" stroke-width="1.51"/><path d="M60,540L60,660L180,540Z" fill="#a7d9a6" stroke="#a7d9a6" stroke-width="1.51"/><path d="M60,540L180,540L180,420Z" fill="#aeddaa" stroke="#aeddaa" stroke-width="1.51"/><path d="M60,420L60,540L180,420Z" fill="#b5e0b0" stroke="#b5e0b0" stroke-width="1.51"/><path d="M60,420L180,420L180,300Z" fill="#bbe4b5" stroke="#bbe4b5" stroke-width="1.51"/><path d="M60,300L60,420L180,300Z" fill="#c2e6bc" stroke="#c2e6bc" stroke-width="1.51"/><path d="M60,300L180,300L180,180Z" fill="#c8e9c1" stroke="#c8e9c1" stroke-width="1.51"/><path d="M60,180L60,300L180,180Z" fill="#cdebc7" stroke="#cdebc7" stroke-width="1.51"/><path d="M60,180L180,180L180,60Z" fill="#d3eecc" stroke="#d3eecc" stroke-width="1.51"/><path d="M60,60L60,180L180,60Z" fill="#d8f0d2" stroke="#d8f0d2" stroke-width="1.51"/><path d="M60,60L180,60L180,-60Z" fill="#dcf2d6" stroke="#dcf2d6" stroke-width="1.51"/><path d="M60,-60L60,60L180,-60Z" fill="#e1f3dc" stroke="#e1f3dc" stroke-width="1.51"/><path d="M60,-60L180,-60L180,-180Z" fill="#e4f5de" stroke="#e4f5de" stroke-width="1.51"/><path d="M60,-180L60,-60L180,-180Z" fill="#e8f6e3" stroke="#e8f6e3" stroke-width="1.51"/><path d="M-60,1260L60,1260L60,1140Z" fill="#7ba57e" stroke="#7ba57e" stroke-width="1.51"/><path d="M-60,1140L-60,1260L60,1140Z" fill="#7eaa81" stroke="#7eaa81" stroke-width="1.51"/><path d="M-60,1140L60,1140L60,1020Z" fill="#81b285" stroke="#81b285" stroke-width="1.51"/><path d="M-60,1020L-60,1140L60,1020Z" fill="#85b689" stroke="#85b689" stroke-width="1.51"/><path d="M-60,1020L60,1020L60,900Z" fill="#89bc8d" stroke="#89bc8d" stroke-width="1.51"/><path d="M-60,900L-60,1020L60,900Z" fill="#8dc092" stroke="#8dc092" stroke-width="1.51"/><path d="M-60,900L60,900L60,780Z" fill="#90c696" stroke="#90c696" stroke-width="1.51"/><path d="M-60,780L-60,900L60,780Z" fill="#95ca9a" stroke="#95ca9a" stroke-width="1.51"/><path d="M-60,780L60,780L60,660Z" fill="#99d09e" stroke="#99d09e" stroke-width="1.51"/><path d="M-60,660L-60,780L60,660Z" fill="#9ed3a2" stroke="#9ed3a2" stroke-width="1.51"/><path d="M-60,660L60,660L60,540Z" fill="#a6d8a6" stroke="#a6d8a6" stroke-width="1.51"/><path d="M-60,540L-60,660L60,540Z" fill="#acdbab" stroke="#acdbab" stroke-width="1.51"/><path d="M-60,540L60,540L60,420Z" fill="#b4dfb0" stroke="#b4dfb0" stroke-width="1.51"/><path d="M-60,420L-60,540L60,420Z" fill="#b9e2b5" stroke="#b9e2b5" stroke-width="1.51"/><path d="M-60,420L60,420L60,300Z" fill="#c1e6bb" stroke="#c1e6bb" stroke-width="1.51"/><path d="M-60,300L-60,420L60,300Z" fill="#c6e8c1" stroke="#c6e8c1" stroke-width="1.51"/><path d="M-60,300L60,300L60,180Z" fill="#cdebc7" stroke="#cdebc7" stroke-width="1.51"/><path d="M-60,180L-60,300L60,180Z" fill="#d2edcc" stroke="#d2edcc" stroke-width="1.51"/><path d="M-60,180L60,180L60,60Z" fill="#d8f0d2" stroke="#d8f0d2" stroke-width="1.51"/><path d="M-60,60L-60,180L60,60Z" fill="#ddf2d7" stroke="#ddf2d7" stroke-width="1.51"/><path d="M-60,60L60,60L60,-60Z" fill="#e1f4dc" stroke="#e1f4dc" stroke-width="1.51"/><path d="M-60,-60L-60,60L60,-60Z" fill="#e6f5e1" stroke="#e6f5e1" stroke-width="1.51"/><path d="M-60,-60L60,-60L60,-180Z" fill="#e9f7e4" stroke="#e9f7e4" stroke-width="1.51"/><path d="M-60,-180L-60,-60L60,-180Z" fill="#ecf8e8" stroke="#ecf8e8" stroke-width="1.51"/><path d="M-180,1260L-60,1260L-60,1140Z" fill="#7fa782" stroke="#7fa782" stroke-width="1.51"/><path d="M-180,1140L-180,1260L-60,1140Z" fill="#82ac85" stroke="#82ac85" stroke-width="1.51"/><path d="M-180,1140L-60,1140L-60,1020Z" fill="#85b489" stroke="#85b489" stroke-width="1.51"/><path d="M-180,1020L-180,1140L-60,1020Z" fill="#89b88d" stroke="#89b88d" stroke-width="1.51"/><path d="M-180,1020L-60,1020L-60,900Z" fill="#8dbe91" stroke="#8dbe91" stroke-width="1.51"/><path d="M-180,900L-180,1020L-60,900Z" fill="#90c196" stroke="#90c196" stroke-width="1.51"/><path d="M-180,900L-60,900L-60,780Z" fill="#94c89a" stroke="#94c89a" stroke-width="1.51"/><path d="M-180,780L-180,900L-60,780Z" fill="#98cc9e" stroke="#98cc9e" stroke-width="1.51"/><path d="M-180,780L-60,780L-60,660Z" fill="#9dd2a2" stroke="#9dd2a2" stroke-width="1.51"/><path d="M-180,660L-180,780L-60,660Z" fill="#a2d5a6" stroke="#a2d5a6" stroke-width="1.51"/><path d="M-180,660L-60,660L-60,540Z" fill="#aadaaa" stroke="#aadaaa" stroke-width="1.51"/><path d="M-180,540L-180,660L-60,540Z" fill="#b0ddae" stroke="#b0ddae" stroke-width="1.51"/><path d="M-180,540L-60,540L-60,420Z" fill="#b8e1b4" stroke="#b8e1b4" stroke-width="1.51"/><path d="M-180,420L-180,540L-60,420Z" fill="#bde4b9" stroke="#bde4b9" stroke-width="1.51"/><path d="M-180,420L-60,420L-60,300Z" fill="#c5e7bf" stroke="#c5e7bf" stroke-width="1.51"/><path d="M-180,300L-180,420L-60,300Z" fill="#caeac5" stroke="#caeac5" stroke-width="1.51"/><path d="M-180,300L-60,300L-60,180Z" fill="#d1edcb" stroke="#d1edcb" stroke-width="1.51"/><path d="M-180,180L-180,300L-60,180Z" fill="#d5efd0" stroke="#d5efd0" stroke-width="1.51"/><path d="M-180,180L-60,180L-60,60Z" fill="#dcf2d6" stroke="#dcf2d6" stroke-width="1.51"/><path d="M-180,60L-180,180L-60,60Z" fill="#e0f3db" stroke="#e0f3db" stroke-width="1.51"/><path d="M-180,60L-60,60L-60,-60Z" fill="#e5f5e0" stroke="#e5f5e0" stroke-width="1.51"/><path d="M-180,-60L-180,60L-60,-60Z" fill="#e9f7e5" stroke="#e9f7e5" stroke-width="1.51"/><path d="M-180,-60L-60,-60L-60,-180Z" fill="#edf8e8" stroke="#edf8e8" stroke-width="1.51"/><path d="M-180,-180L-180,-60L-60,-180Z" fill="#eff9ec" stroke="#eff9ec" stroke-width="1.51"/></svg>