<svg xmlns="http://www.w3.org/2000/svg" width="1920" height="1080"><path d="M1980,1260L2100,1260L2100,1140Z" fill="#8f2d04" stroke="#8f2d04" stroke-width="1.51"/><path d="M1980,1140L1980,1260L2100,1140Z" fill="#963004" stroke="#963004" stroke-width="1.51"/><path d="M1980,1140L2100,1140L2100,1020Z" fill="#9c3204" stroke="#9c3204" stroke-width="1.51"/><path d="M1980,1020L1980,1140L2100,1020Z" fill="#a43504" stroke="#a43504" stroke-width="1.51"/><path d="M1980,1020L2100,1020L2100,900Z" fill="#ab3703" stroke="#ab3703" stroke-width="1.51"/><path d="M1980,900L1980,1020L2100,900Z" fill="#b33a03" stroke="#b33a03" stroke-width="1.51"/><path d="M1980,900L2100,900L2100,780Z" fill="#b64006" stroke="#b64006" stroke-width="1.51"/><path d="M1980,780L1980,900L2100,780Z" fill="#bb4407" stroke="#bb4407" stroke-width="1.51"/><path d="M1980,780L2100,780L2100,660Z" fill="#bd490a" stroke="#bd490a" stroke-width="1.51"/><path d="M1980,660L1980,780L2100,660Z" fill="#c14e0f" stroke="#c14e0f" stroke-width="1.51"/><path d="M1980,660L2100,660L2100,540Z" fill="#c15518" stroke="#c15518" stroke-width="1.51"/><path d="M1980,540L1980,660L2100,540Z" fill="#c55a1b" stroke="#c55a1b" stroke-width="1.51"/><path d="M1980,540L2100,540L2100,420Z" fill="#c46024" stroke="#c46024" stroke-width="1.51"/><path d="M1980,420L1980,540L2100,420Z" fill="#c7642a" stroke="#c7642a" stroke-width="1.51"/><path d="M1980,420L2100,420L2100,300Z" fill="#c46a33" stroke="#c46a33" stroke-width="1.51"/><path d="M1980,300L1980,420L2100,300Z" fill="#c86e38" stroke="#c86e38" stroke-width="1.51"/><path d="M1980,300L2100,300L2100,180Z" fill="#c67442" stroke="#c67442" stroke-width="1.51"/><path d="M1980,180L1980,300L2100,180Z" fill="#ca7948" stroke="#ca7948" stroke-width="1.51"/><path d="M1980,180L2100,180L2100,60Z" fill="#c87e52" stroke="#c87e52" stroke-width="1.51"/><path d="M1980,60L1980,180L2100,60Z" fill="#cb8156" stroke="#cb8156" stroke-width="1.51"/><path d="M1980,60L2100,60L2100,-60Z" fill="#ca845e" stroke="#ca845e" stroke-width="1.51"/><path d="M1980,-60L1980,60L2100,-60Z" fill="#cd8863" stroke="#cd8863" stroke-width="1.51"/><path d="M1980,-60L2100,-60L2100,-180Z" fill="#cb8a69" stroke="#cb8a69" stroke-width="1.51"/><path d="M1980,-180L1980,-60L2100,-180Z" fill="#cf8c6c" stroke="#cf8c6c" stroke-width="1.51"/><path d="M1860,1260L1980,1260L1980,1140Z" fill="#973004" stroke="#973004" stroke-width="1.51"/><path d="M1860,1140L1860,1260L1980,1140Z" fill="#9e3304" stroke="#9e3304" stroke-width="1.51"/><path d="M1860,1140L1980,1140L1980,1020Z" fill="#a33504" stroke="#a33504" stroke-width="1.51"/><path d="M1860,1020L1860,1140L1980,1020Z" fill="#ac3803" stroke="#ac3803" stroke-width="1.51"/><path d="M1860,1020L1980,1020L1980,900Z" fill="#b33a03" stroke="#b33a03" stroke-width="1.51"/><path d="M1860,900L1860,1020L1980,900Z" fill="#bb3d02" stroke="#bb3d02" stroke-width="1.51"/><path d="M1860,900L1980,900L1980,780Z" fill="#be4305" stroke="#be4305" stroke-width="1.51"/><path d="M1860,780L1860,900L1980,780Z" fill="#c34706" stroke="#c34706" stroke-width="1.51"/><path d="M1860,780L1980,780L1980,660Z" fill="#c54d0b" stroke="#c54d0b" stroke-width="1.51"/><path d="M1860,660L1860,780L1980,660Z" fill="#c9520f" stroke="#c9520f" stroke-width="1.51"/><path d="M1860,660L1980,660L1980,540Z" fill="#c95818" stroke="#c95818" stroke-width="1.51"/><path d="M1860,540L1860,660L1980,540Z" fill="#cd5d1c" stroke="#cd5d1c" stroke-width="1.51"/><path d="M1860,540L1980,540L1980,420Z" fill="#cc6325" stroke="#cc6325" stroke-width="1.51"/><path d="M1860,420L1860,540L1980,420Z" fill="#d0682a" stroke="#d0682a" stroke-width="1.51"/><path d="M1860,420L1980,420L1980,300Z" fill="#cc6d34" stroke="#cc6d34" stroke-width="1.51"/><path d="M1860,300L1860,420L1980,300Z" fill="#d07238" stroke="#d07238" stroke-width="1.51"/><path d="M1860,300L1980,300L1980,180Z" fill="#ce7843" stroke="#ce7843" stroke-width="1.51"/><path d="M1860,180L1860,300L1980,180Z" fill="#d27c49" stroke="#d27c49" stroke-width="1.51"/><path d="M1860,180L1980,180L1980,60Z" fill="#d08253" stroke="#d08253" stroke-width="1.51"/><path d="M1860,60L1860,180L1980,60Z" fill="#d48558" stroke="#d48558" stroke-width="1.51"/><path d="M1860,60L1980,60L1980,-60Z" fill="#d28860" stroke="#d28860" stroke-width="1.51"/><path d="M1860,-60L1860,60L1980,-60Z" fill="#d68c64" stroke="#d68c64" stroke-width="1.51"/><path d="M1860,-60L1980,-60L1980,-180Z" fill="#d48d6a" stroke="#d48d6a" stroke-width="1.51"/><path d="M1860,-180L1860,-60L1980,-180Z" fill="#d8906d" stroke="#d8906d" stroke-width="1.51"/><path d="M1740,1260L1860,1260L1860,1140Z" fill="#a03304" stroke="#a03304" stroke-width="1.51"/><path d="M1740,1140L1740,1260L1860,1140Z" fill="#a73604" stroke="#a73604" stroke-width="1.51"/><path d="M1740,1140L1860,1140L1860,1020Z" fill="#ac3803" stroke="#ac3803" stroke-width="1.51"/><path d="M1740,1020L1740,1140L1860,1020Z" fill="#b53c03" stroke="#b53c03" stroke-width="1.51"/><path d="M1740,1020L1860,1020L1860,900Z" fill="#bc3d03" stroke="#bc3d03" stroke-width="1.51"/><path d="M1740,900L1740,1020L1860,900Z" fill="#c44102" stroke="#c44102" stroke-width="1.51"/><path d="M1740,900L1860,900L1860,780Z" fill="#c74605" stroke="#c74605" stroke-width="1.51"/><path d="M1740,780L1740,900L1860,780Z" fill="#cd4b06" stroke="#cd4b06" stroke-width="1.51"/><path d="M1740,780L1860,780L1860,660Z" fill="#ce500a" stroke="#ce500a" stroke-width="1.51"/><path d="M1740,660L1740,780L1860,660Z" fill="#d3560f" stroke="#d3560f" stroke-width="1.51"/><path d="M1740,660L1860,660L1860,540Z" fill="#d25c18" stroke="#d25c18" stroke-width="1.51"/><path d="M1740,540L1740,660L1860,540Z" fill="#d7611c" stroke="#d7611c" stroke-width="1.51"/><path d="M1740,540L1860,540L1860,420Z" fill="#d56726" stroke="#d56726" stroke-width="1.51"/><path d="M1740,420L1740,540L1860,420Z" fill="#d96c2b" stroke="#d96c2b" stroke-width="1.51"/><path d="M1740,420L1860,420L1860,300Z" fill="#d67135" stroke="#d67135" stroke-width="1.51"/><path d="M1740,300L1740,420L1860,300Z" fill="#da763a" stroke="#da763a" stroke-width="1.51"/><path d="M1740,300L1860,300L1860,180Z" fill="#d87c44" stroke="#d87c44" stroke-width="1.51"/><path d="M1740,180L1740,300L1860,180Z" fill="#dc814a" stroke="#dc814a" stroke-width="1.51"/><path d="M1740,180L1860,180L1860,60Z" fill="#da8654" stroke="#da8654" stroke-width="1.51"/><path d="M1740,60L1740,180L1860,60Z" fill="#de8a59" stroke="#de8a59" stroke-width="1.51"/><path d="M1740,60L1860,60L1860,-60Z" fill="#dc8c61" stroke="#dc8c61" stroke-width="1.51"/><path d="M1740,-60L1740,60L1860,-60Z" fill="#e09066" stroke="#e09066" stroke-width="1.51"/><path d="M1740,-60L1860,-60L1860,-180Z" fill="#de926c" stroke="#de926c" stroke-width="1.51"/><path d="M1740,-180L1740,-60L1860,-180Z" fill="#e2956f" stroke="#e2956f" stroke-width="1.51"/><path d="M1620,1260L1740,1260L1740,1140Z" fill="#aa3703" stroke="#aa3703" stroke-width="1.51"/><path d="M1620,1140L1620,1260L1740,1140Z" fill="#b13a03" stroke="#b13a03" stroke-width="1.51"/><path d="M1620,1140L1740,1140L1740,1020Z" fill="#b63b03" stroke="#b63b03" stroke-width="1.51"/><path d="M1620,1020L1620,1140L1740,1020Z" fill="#bf3f03" stroke="#bf3f03" stroke-width="1.51"/><path d="M1620,1020L1740,1020L1740,900Z" fill="#c64102" stroke="#c64102" stroke-width="1.51"/><path d="M1620,900L1620,1020L1740,900Z" fill="#cf4402" stroke="#cf4402" stroke-width="1.51"/><path d="M1620,900L1740,900L1740,780Z" fill="#d14904" stroke="#d14904" stroke-width="1.51"/><path d="M1620,780L1620,900L1740,780Z" fill="#d74f06" stroke="#d74f06" stroke-width="1.51"/><path d="M1620,780L1740,780L1740,660Z" fill="#d8540a" stroke="#d8540a" stroke-width="1.51"/><path d="M1620,660L1620,780L1740,660Z" fill="#dd590f" stroke="#dd590f" stroke-width="1.51"/><path d="M1620,660L1740,660L1740,540Z" fill="#dd6019" stroke="#dd6019" stroke-width="1.51"/><path d="M1620,540L1620,660L1740,540Z" fill="#e2651d" stroke="#e2651d" stroke-width="1.51"/><path d="M1620,540L1740,540L1740,420Z" fill="#df6b26" stroke="#df6b26" stroke-width="1.51"/><path d="M1620,420L1620,540L1740,420Z" fill="#e4702c" stroke="#e4702c" stroke-width="1.51"/><path d="M1620,420L1740,420L1740,300Z" fill="#e07536" stroke="#e07536" stroke-width="1.51"/><path d="M1620,300L1620,420L1740,300Z" fill="#e57a3b" stroke="#e57a3b" stroke-width="1.51"/><path d="M1620,300L1740,300L1740,180Z" fill="#e38046" stroke="#e38046" stroke-width="1.51"/><path d="M1620,180L1620,300L1740,180Z" fill="#e7854c" stroke="#e7854c" stroke-width="1.51"/><path d="M1620,180L1740,180L1740,60Z" fill="#e48a56" stroke="#e48a56" stroke-width="1.51"/><path d="M1620,60L1620,180L1740,60Z" fill="#e98e5b" stroke="#e98e5b" stroke-width="1.51"/><path d="M1620,60L1740,60L1740,-60Z" fill="#e79163" stroke="#e79163" stroke-width="1.51"/><path d="M1620,-60L1620,60L1740,-60Z" fill="#eb9568" stroke="#eb9568" stroke-width="1.51"/><path d="M1620,-60L1740,-60L1740,-180Z" fill="#e9966d" stroke="#e9966d" stroke-width="1.51"/><path d="M1620,-180L1620,-60L1740,-180Z" fill="#ed9971" stroke="#ed9971" stroke-width="1.51"/><path d="M1500,1260L1620,1260L1620,1140Z" fill="#b43b03" stroke="#b43b03" stroke-width="1.51"/><path d="M1500,1140L1500,1260L1620,1140Z" fill="#ba3e03" stroke="#ba3e03" stroke-width="1.51"/><path d="M1500,1140L1620,1140L1620,1020Z" fill="#c13f02" stroke="#c13f02" stroke-width="1.51"/><path d="M1500,1020L1500,1140L1620,1020Z" fill="#c94303" stroke="#c94303" stroke-width="1.51"/><path d="M1500,1020L1620,1020L1620,900Z" fill="#d14502" stroke="#d14502" stroke-width="1.51"/><path d="M1500,900L1500,1020L1620,900Z" fill="#d84801" stroke="#d84801" stroke-width="1.51"/><path d="M1500,900L1620,900L1620,780Z" fill="#dc4e04" stroke="#dc4e04" stroke-width="1.51"/><path d="M1500,780L1500,900L1620,780Z" fill="#e15306" stroke="#e15306" stroke-width="1.51"/><path d="M1500,780L1620,780L1620,660Z" fill="#e35809" stroke="#e35809" stroke-width="1.51"/><path d="M1500,660L1500,780L1620,660Z" fill="#e75e10" stroke="#e75e10" stroke-width="1.51"/><path d="M1500,660L1620,660L1620,540Z" fill="#e76419" stroke="#e76419" stroke-width="1.51"/><path d="M1500,540L1500,660L1620,540Z" fill="#eb691e" stroke="#eb691e" stroke-width="1.51"/><path d="M1500,540L1620,540L1620,420Z" fill="#ea6f27" stroke="#ea6f27" stroke-width="1.51"/><path d="M1500,420L1500,540L1620,420Z" fill="#ee742d" stroke="#ee742d" stroke-width="1.51"/><path d="M1500,420L1620,420L1620,300Z" fill="#eb7a37" stroke="#eb7a37" stroke-width="1.51"/><path d="M1500,300L1500,420L1620,300Z" fill="#ee7f3c" stroke="#ee7f3c" stroke-width="1.51"/><path d="M1500,300L1620,300L1620,180Z" fill="#ed8547" stroke="#ed8547" stroke-width="1.51"/><path d="M1500,180L1500,300L1620,180Z" fill="#f18a4d" stroke="#f18a4d" stroke-width="1.51"/><path d="M1500,180L1620,180L1620,60Z" fill="#ef8f57" stroke="#ef8f57" stroke-width="1.51"/><path d="M1500,60L1500,180L1620,60Z" fill="#f3935c" stroke="#f3935c" stroke-width="1.51"/><path d="M1500,60L1620,60L1620,-60Z" fill="#f29664" stroke="#f29664" stroke-width="1.51"/><path d="M1500,-60L1500,60L1620,-60Z" fill="#f59969" stroke="#f59969" stroke-width="1.51"/><path d="M1500,-60L1620,-60L1620,-180Z" fill="#f49b6f" stroke="#f49b6f" stroke-width="1.51"/><path d="M1500,-180L1500,-60L1620,-180Z" fill="#f79e73" stroke="#f79e73" stroke-width="1.51"/><path d="M1380,1260L1500,1260L1500,1140Z" fill="#b94105" stroke="#b94105" stroke-width="1.51"/><path d="M1380,1140L1380,1260L1500,1140Z" fill="#bf4506" stroke="#bf4506" stroke-width="1.51"/><path d="M1380,1140L1500,1140L1500,1020Z" fill="#c64504" stroke="#c64504" stroke-width="1.51"/><path d="M1380,1020L1380,1140L1500,1020Z" fill="#cd4a06" stroke="#cd4a06" stroke-width="1.51"/><path d="M1380,1020L1500,1020L1500,900Z" fill="#d64b04" stroke="#d64b04" stroke-width="1.51"/><path d="M1380,900L1380,1020L1500,900Z" fill="#dd5005" stroke="#dd5005" stroke-width="1.51"/><path d="M1380,900L1500,900L1500,780Z" fill="#e15406" stroke="#e15406" stroke-width="1.51"/><path d="M1380,780L1380,900L1500,780Z" fill="#e55a0a" stroke="#e55a0a" stroke-width="1.51"/><path d="M1380,780L1500,780L1500,660Z" fill="#e95e0d" stroke="#e95e0d" stroke-width="1.51"/><path d="M1380,660L1380,780L1500,660Z" fill="#ec6413" stroke="#ec6413" stroke-width="1.51"/><path d="M1380,660L1500,660L1500,540Z" fill="#ed6a1c" stroke="#ed6a1c" stroke-width="1.51"/><path d="M1380,540L1380,660L1500,540Z" fill="#f07021" stroke="#f07021" stroke-width="1.51"/><path d="M1380,540L1500,540L1500,420Z" fill="#f0752a" stroke="#f0752a" stroke-width="1.51"/><path d="M1380,420L1380,540L1500,420Z" fill="#f27b30" stroke="#f27b30" stroke-width="1.51"/><path d="M1380,420L1500,420L1500,300Z" fill="#f17f39" stroke="#f17f39" stroke-width="1.51"/><path d="M1380,300L1380,420L1500,300Z" fill="#f2853f" stroke="#f2853f" stroke-width="1.51"/><path d="M1380,300L1500,300L1500,180Z" fill="#f38a4a" stroke="#f38a4a" stroke-width="1.51"/><path d="M1380,180L1380,300L1500,180Z" fill="#f59050" stroke="#f59050" stroke-width="1.51"/><path d="M1380,180L1500,180L1500,60Z" fill="#f5945a" stroke="#f5945a" stroke-width="1.51"/><path d="M1380,60L1380,180L1500,60Z" fill="#f79960" stroke="#f79960" stroke-width="1.51"/><path d="M1380,60L1500,60L1500,-60Z" fill="#f79b67" stroke="#f79b67" stroke-width="1.51"/><path d="M1380,-60L1380,60L1500,-60Z" fill="#f99f6d" stroke="#f99f6d" stroke-width="1.51"/><path d="M1380,-60L1500,-60L1500,-180Z" fill="#f9a172" stroke="#f9a172" stroke-width="1.51"/><path d="M1380,-180L1380,-60L1500,-180Z" fill="#fba476" stroke="#fba476" stroke-width="1.51"/><path d="M1260,1260L1380,1260L1380,1140Z" fill="#be4708" stroke="#be4708" stroke-width="1.51"/><path d="M1260,1140L1260,1260L1380,1140Z" fill="#c44b0a" stroke="#c44b0a" stroke-width="1.51"/><path d="M1260,1140L1380,1140L1380,1020Z" fill="#cb4c08" stroke="#cb4c08" stroke-width="1.51"/><path d="M1260,1020L1260,1140L1380,1020Z" fill="#d25009" stroke="#d25009" stroke-width="1.51"/><path d="M1260,1020L1380,1020L1380,900Z" fill="#db5207" stroke="#db5207" stroke-width="1.51"/><path d="M1260,900L1260,1020L1380,900Z" fill="#e25608" stroke="#e25608" stroke-width="1.51"/><path d="M1260,900L1380,900L1380,780Z" fill="#e75a0b" stroke="#e75a0b" stroke-width="1.51"/><path d="M1260,780L1260,900L1380,780Z" fill="#eb600e" stroke="#eb600e" stroke-width="1.51"/><path d="M1260,780L1380,780L1380,660Z" fill="#ee6411" stroke="#ee6411" stroke-width="1.51"/><path d="M1260,660L1260,780L1380,660Z" fill="#f16b17" stroke="#f16b17" stroke-width="1.51"/><path d="M1260,660L1380,660L1380,540Z" fill="#f2701f" stroke="#f2701f" stroke-width="1.51"/><path d="M1260,540L1260,660L1380,540Z" fill="#f57624" stroke="#f57624" stroke-width="1.51"/><path d="M1260,540L1380,540L1380,420Z" fill="#f57b2d" stroke="#f57b2d" stroke-width="1.51"/><path d="M1260,420L1260,540L1380,420Z" fill="#f78133" stroke="#f78133" stroke-width="1.51"/><path d="M1260,420L1380,420L1380,300Z" fill="#f5853c" stroke="#f5853c" stroke-width="1.51"/><path d="M1260,300L1260,420L1380,300Z" fill="#f78b42" stroke="#f78b42" stroke-width="1.51"/><path d="M1260,300L1380,300L1380,180Z" fill="#f7904d" stroke="#f7904d" stroke-width="1.51"/><path d="M1260,180L1260,300L1380,180Z" fill="#f99654" stroke="#f99654" stroke-width="1.51"/><path d="M1260,180L1380,180L1380,60Z" fill="#f99a5d" stroke="#f99a5d" stroke-width="1.51"/><path d="M1260,60L1260,180L1380,60Z" fill="#fc9f63" stroke="#fc9f63" stroke-width="1.51"/><path d="M1260,60L1380,60L1380,-60Z" fill="#fca16a" stroke="#fca16a" stroke-width="1.51"/><path d="M1260,-60L1260,60L1380,-60Z" fill="#fea570" stroke="#fea570" stroke-width="1.51"/><path d="M1260,-60L1380,-60L1380,-180Z" fill="#fea776" stroke="#fea776" stroke-width="1.51"/><path d="M1260,-180L1260,-60L1380,-180Z" fill="#ffaa7a" stroke="#ffaa7a" stroke-width="1.51"/><path d="M1140,1260L1260,1260L1260,1140Z" fill="#c24e0e" stroke="#c24e0e" stroke-width="1.51"/><path d="M1140,1140L1140,1260L1260,1140Z" fill="#c75211" stroke="#c75211" stroke-width="1.51"/><path d="M1140,1140L1260,1140L1260,1020Z" fill="#cf530e" stroke="#cf530e" stroke-width="1.51"/><path d="M1140,1020L1140,1140L1260,1020Z" fill="#d55811" stroke="#d55811" stroke-width="1.51"/><path d="M1140,1020L1260,1020L1260,900Z" fill="#df590e" stroke="#df590e" stroke-width="1.51"/><path d="M1140,900L1140,1020L1260,900Z" fill="#e55e11" stroke="#e55e11" stroke-width="1.51"/><path d="M1140,900L1260,900L1260,780Z" fill="#eb6111" stroke="#eb6111" stroke-width="1.51"/><path d="M1140,780L1140,900L1260,780Z" fill="#ee6716" stroke="#ee6716" stroke-width="1.51"/><path d="M1140,780L1260,780L1260,660Z" fill="#f26b17" stroke="#f26b17" stroke-width="1.51"/><path d="M1140,660L1140,780L1260,660Z" fill="#f4721e" stroke="#f4721e" stroke-width="1.51"/><path d="M1140,660L1260,660L1260,540Z" fill="#f67724" stroke="#f67724" stroke-width="1.51"/><path d="M1140,540L1140,660L1260,540Z" fill="#f87d2a" stroke="#f87d2a" stroke-width="1.51"/><path d="M1140,540L1260,540L1260,420Z" fill="#f88131" stroke="#f88131" stroke-width="1.51"/><path d="M1140,420L1140,540L1260,420Z" fill="#f98739" stroke="#f98739" stroke-width="1.51"/><path d="M1140,420L1260,420L1260,300Z" fill="#f98c41" stroke="#f98c41" stroke-width="1.51"/><path d="M1140,300L1140,420L1260,300Z" fill="#fa9248" stroke="#fa9248" stroke-width="1.51"/><path d="M1140,300L1260,300L1260,180Z" fill="#fb9751" stroke="#fb9751" stroke-width="1.51"/><path d="M1140,180L1140,300L1260,180Z" fill="#fc9c59" stroke="#fc9c59" stroke-width="1.51"/><path d="M1140,180L1260,180L1260,60Z" fill="#fda162" stroke="#fda162" stroke-width="1.51"/><path d="M1140,60L1140,180L1260,60Z" fill="#fea569" stroke="#fea569" stroke-width="1.51"/><path d="M1140,60L1260,60L1260,-60Z" fill="#ffa86f" stroke="#ffa86f" stroke-width="1.51"/><path d="M1140,-60L1140,60L1260,-60Z" fill="#ffac76" stroke="#ffac76" stroke-width="1.51"/><path d="M1140,-60L1260,-60L1260,-180Z" fill="#ffad7a" stroke="#ffad7a" stroke-width="1.51"/><path d="M1140,-180L1140,-60L1260,-180Z" fill="#ffb17f" stroke="#ffb17f" stroke-width="1.51"/><path d="M1020,1260L1140,1260L1140,1140Z" fill="#c55617" stroke="#c55617" stroke-width="1.51"/><path d="M1020,1140L1020,1260L1140,1140Z" fill="#c9591a" stroke="#c9591a" stroke-width="1.51"/><path d="M1020,1140L1140,1140L1140,1020Z" fill="#d25b17" stroke="#d25b17" stroke-width="1.51"/><path d="M1020,1020L1020,1140L1140,1020Z" fill="#d85f1a" stroke="#d85f1a" stroke-width="1.51"/><path d="M1020,1020L1140,1020L1140,900Z" fill="#e26118" stroke="#e26118" stroke-width="1.51"/><path d="M1020,900L1020,1020L1140,900Z" fill="#e8651b" stroke="#e8651b" stroke-width="1.51"/><path d="M1020,900L1140,900L1140,780Z" fill="#ed691b" stroke="#ed691b" stroke-width="1.51"/><path d="M1020,780L1020,900L1140,780Z" fill="#f06e1f" stroke="#f06e1f" stroke-width="1.51"/><path d="M1020,780L1140,780L1140,660Z" fill="#f47320" stroke="#f47320" stroke-width="1.51"/><path d="M1020,660L1020,780L1140,660Z" fill="#f67926" stroke="#f67926" stroke-width="1.51"/><path d="M1020,660L1140,660L1140,540Z" fill="#f87e2c" stroke="#f87e2c" stroke-width="1.51"/><path d="M1020,540L1020,660L1140,540Z" fill="#fa8432" stroke="#fa8432" stroke-width="1.51"/><path d="M1020,540L1140,540L1140,420Z" fill="#fb8939" stroke="#fb8939" stroke-width="1.51"/><path d="M1020,420L1020,540L1140,420Z" fill="#fc8e40" stroke="#fc8e40" stroke-width="1.51"/><path d="M1020,420L1140,420L1140,300Z" fill="#fb9348" stroke="#fb9348" stroke-width="1.51"/><path d="M1020,300L1020,420L1140,300Z" fill="#fc984f" stroke="#fc984f" stroke-width="1.51"/><path d="M1020,300L1140,300L1140,180Z" fill="#fd9e58" stroke="#fd9e58" stroke-width="1.51"/><path d="M1020,180L1020,300L1140,180Z" fill="#fea360" stroke="#fea360" stroke-width="1.51"/><path d="M1020,180L1140,180L1140,60Z" fill="#fea869" stroke="#fea869" stroke-width="1.51"/><path d="M1020,60L1020,180L1140,60Z" fill="#ffac6f" stroke="#ffac6f" stroke-width="1.51"/><path d="M1020,60L1140,60L1140,-60Z" fill="#ffaf76" stroke="#ffaf76" stroke-width="1.51"/><path d="M1020,-60L1020,60L1140,-60Z" fill="#ffb37d" stroke="#ffb37d" stroke-width="1.51"/><path d="M1020,-60L1140,-60L1140,-180Z" fill="#ffb481" stroke="#ffb481" stroke-width="1.51"/><path d="M1020,-180L1020,-60L1140,-180Z" fill="#ffb786" stroke="#ffb786" stroke-width="1.51"/><path d="M900,1260L1020,1260L1020,1140Z" fill="#c75d1f" stroke="#c75d1f" stroke-width="1.51"/><path d="M900,1140L900,1260L1020,1140Z" fill="#cb6022" stroke="#cb6022" stroke-width="1.51"/><path d="M900,1140L1020,1140L1020,1020Z" fill="#d4621f" stroke="#d4621f" stroke-width="1.51"/><path d="M900,1020L900,1140L1020,1020Z" fill="#da6622" stroke="#da6622" stroke-width="1.51"/><path d="M900,1020L1020,1020L1020,900Z" fill="#e46820" stroke="#e46820" stroke-width="1.51"/><path d="M900,900L900,1020L1020,900Z" fill="#ea6c23" stroke="#ea6c23" stroke-width="1.51"/><path d="M900,900L1020,900L1020,780Z" fill="#ef7023" stroke="#ef7023" stroke-width="1.51"/><path d="M900,780L900,900L1020,780Z" fill="#f27628" stroke="#f27628" stroke-width="1.51"/><path d="M900,780L1020,780L1020,660Z" fill="#f67a28" stroke="#f67a28" stroke-width="1.51"/><path d="M900,660L900,780L1020,660Z" fill="#f8802e" stroke="#f8802e" stroke-width="1.51"/><path d="M900,660L1020,660L1020,540Z" fill="#fa8534" stroke="#fa8534" stroke-width="1.51"/><path d="M900,540L900,660L1020,540Z" fill="#fc8b3a" stroke="#fc8b3a" stroke-width="1.51"/><path d="M900,540L1020,540L1020,420Z" fill="#fd9040" stroke="#fd9040" stroke-width="1.51"/><path d="M900,420L900,540L1020,420Z" fill="#fe9548" stroke="#fe9548" stroke-width="1.51"/><path d="M900,420L1020,420L1020,300Z" fill="#fd9a4f" stroke="#fd9a4f" stroke-width="1.51"/><path d="M900,300L900,420L1020,300Z" fill="#fe9f56" stroke="#fe9f56" stroke-width="1.51"/><path d="M900,300L1020,300L1020,180Z" fill="#fea45f" stroke="#fea45f" stroke-width="1.51"/><path d="M900,180L900,300L1020,180Z" fill="#ffaa67" stroke="#ffaa67" stroke-width="1.51"/><path d="M900,180L1020,180L1020,60Z" fill="#ffae70" stroke="#ffae70" stroke-width="1.51"/><path d="M900,60L900,180L1020,60Z" fill="#ffb376" stroke="#ffb376" stroke-width="1.51"/><path d="M900,60L1020,60L1020,-60Z" fill="#ffb57d" stroke="#ffb57d" stroke-width="1.51"/><path d="M900,-60L900,60L1020,-60Z" fill="#ffb984" stroke="#ffb984" stroke-width="1.51"/><path d="M900,-60L1020,-60L1020,-180Z" fill="#ffbb88" stroke="#ffbb88" stroke-width="1.51"/><path d="M900,-180L900,-60L1020,-180Z" fill="#ffbe8d" stroke="#ffbe8d" stroke-width="1.51"/><path d="M780,1260L900,1260L900,1140Z" fill="#c86328" stroke="#c86328" stroke-width="1.51"/><path d="M780,1140L780,1260L900,1140Z" fill="#cc682b" stroke="#cc682b" stroke-width="1.51"/><path d="M780,1140L900,1140L900,1020Z" fill="#d56929" stroke="#d56929" stroke-width="1.51"/><path d="M780,1020L780,1140L900,1020Z" fill="#db6d2c" stroke="#db6d2c" stroke-width="1.51"/><path d="M780,1020L900,1020L900,900Z" fill="#e56f2a" stroke="#e56f2a" stroke-width="1.51"/><path d="M780,900L780,1020L900,900Z" fill="#eb742e" stroke="#eb742e" stroke-width="1.51"/><path d="M780,900L900,900L900,780Z" fill="#f0772d" stroke="#f0772d" stroke-width="1.51"/><path d="M780,780L780,900L900,780Z" fill="#f37d32" stroke="#f37d32" stroke-width="1.51"/><path d="M780,780L900,780L900,660Z" fill="#f78132" stroke="#f78132" stroke-width="1.51"/><path d="M780,660L780,780L900,660Z" fill="#f98739" stroke="#f98739" stroke-width="1.51"/><path d="M780,660L900,660L900,540Z" fill="#fb8c3d" stroke="#fb8c3d" stroke-width="1.51"/><path d="M780,540L780,660L900,540Z" fill="#fd9243" stroke="#fd9243" stroke-width="1.51"/><path d="M780,540L900,540L900,420Z" fill="#fd9649" stroke="#fd9649" stroke-width="1.51"/><path d="M780,420L780,540L900,420Z" fill="#fe9c51" stroke="#fe9c51" stroke-width="1.51"/><path d="M780,420L900,420L900,300Z" fill="#fda058" stroke="#fda058" stroke-width="1.51"/><path d="M780,300L780,420L900,300Z" fill="#fea65f" stroke="#fea65f" stroke-width="1.51"/><path d="M780,300L900,300L900,180Z" fill="#feab68" stroke="#feab68" stroke-width="1.51"/><path d="M780,180L780,300L900,180Z" fill="#ffb170" stroke="#ffb170" stroke-width="1.51"/><path d="M780,180L900,180L900,60Z" fill="#ffb578" stroke="#ffb578" stroke-width="1.51"/><path d="M780,60L780,180L900,60Z" fill="#ffba80" stroke="#ffba80" stroke-width="1.51"/><path d="M780,60L900,60L900,-60Z" fill="#ffbc85" stroke="#ffbc85" stroke-width="1.51"/><path d="M780,-60L780,60L900,-60Z" fill="#ffc08d" stroke="#ffc08d" stroke-width="1.51"/><path d="M780,-60L900,-60L900,-180Z" fill="#ffc191" stroke="#ffc191" stroke-width="1.51"/><path d="M780,-180L780,-60L900,-180Z" fill="#ffc597" stroke="#ffc597" stroke-width="1.51"/><path d="M660,1260L780,1260L780,1140Z" fill="#c86a31" stroke="#c86a31" stroke-width="1.51"/><path d="M660,1140L660,1260L780,1140Z" fill="#cd6e35" stroke="#cd6e35" stroke-width="1.51"/><path d="M660,1140L780,1140L780,1020Z" fill="#d56f33" stroke="#d56f33" stroke-width="1.51"/><path d="M660,1020L660,1140L780,1020Z" fill="#db7436" stroke="#db7436" stroke-width="1.51"/><path d="M660,1020L780,1020L780,900Z" fill="#e67634" stroke="#e67634" stroke-width="1.51"/><path d="M660,900L660,1020L780,900Z" fill="#eb7b38" stroke="#eb7b38" stroke-width="1.51"/><path d="M660,900L780,900L780,780Z" fill="#f17e38" stroke="#f17e38" stroke-width="1.51"/><path d="M660,780L660,900L780,780Z" fill="#f4843c" stroke="#f4843c" stroke-width="1.51"/><path d="M660,780L780,780L780,660Z" fill="#f8873c" stroke="#f8873c" stroke-width="1.51"/><path d="M660,660L660,780L780,660Z" fill="#f98e43" stroke="#f98e43" stroke-width="1.51"/><path d="M660,660L780,660L780,540Z" fill="#fb9247" stroke="#fb9247" stroke-width="1.51"/><path d="M660,540L660,660L780,540Z" fill="#fd984d" stroke="#fd984d" stroke-width="1.51"/><path d="M660,540L780,540L780,420Z" fill="#fd9d53" stroke="#fd9d53" stroke-width="1.51"/><path d="M660,420L660,540L780,420Z" fill="#fea35b" stroke="#fea35b" stroke-width="1.51"/><path d="M660,420L780,420L780,300Z" fill="#fda761" stroke="#fda761" stroke-width="1.51"/><path d="M660,300L660,420L780,300Z" fill="#fdad69" stroke="#fdad69" stroke-width="1.51"/><path d="M660,300L780,300L780,180Z" fill="#feb171" stroke="#feb171" stroke-width="1.51"/><path d="M660,180L660,300L780,180Z" fill="#feb77a" stroke="#feb77a" stroke-width="1.51"/><path d="M660,180L780,180L780,60Z" fill="#febb81" stroke="#febb81" stroke-width="1.51"/><path d="M660,60L660,180L780,60Z" fill="#ffc089" stroke="#ffc089" stroke-width="1.51"/><path d="M660,60L780,60L780,-60Z" fill="#ffc28f" stroke="#ffc28f" stroke-width="1.51"/><path d="M660,-60L660,60L780,-60Z" fill="#ffc696" stroke="#ffc696" stroke-width="1.51"/><path d="M660,-60L780,-60L780,-180Z" fill="#ffc79a" stroke="#ffc79a" stroke-width="1.51"/><path d="M660,-180L660,-60L780,-180Z" fill="#ffcba0" stroke="#ffcba0" stroke-width="1.51"/><path d="M540,1260L660,1260L660,1140Z" fill="#c9713b" stroke="#c9713b" stroke-width="1.51"/><path d="M540,1140L540,1260L660,1140Z" fill="#ce753f" stroke="#ce753f" stroke-width="1.51"/><path d="M540,1140L660,1140L660,1020Z" fill="#d6763c" stroke="#d6763c" stroke-width="1.51"/><path d="M540,1020L540,1140L660,1020Z" fill="#dd7b41" stroke="#dd7b41" stroke-width="1.51"/><path d="M540,1020L660,1020L660,900Z" fill="#e77d3e" stroke="#e77d3e" stroke-width="1.51"/><path d="M540,900L540,1020L660,900Z" fill="#ed8143" stroke="#ed8143" stroke-width="1.51"/><path d="M540,900L660,900L660,780Z" fill="#f28541" stroke="#f28541" stroke-width="1.51"/><path d="M540,780L540,900L660,780Z" fill="#f58b47" stroke="#f58b47" stroke-width="1.51"/><path d="M540,780L660,780L660,660Z" fill="#f88f46" stroke="#f88f46" stroke-width="1.51"/><path d="M540,660L540,780L660,660Z" fill="#fa944d" stroke="#fa944d" stroke-width="1.51"/><path d="M540,660L660,660L660,540Z" fill="#fc9951" stroke="#fc9951" stroke-width="1.51"/><path d="M540,540L540,660L660,540Z" fill="#fe9f58" stroke="#fe9f58" stroke-width="1.51"/><path d="M540,540L660,540L660,420Z" fill="#fea45c" stroke="#fea45c" stroke-width="1.51"/><path d="M540,420L540,540L660,420Z" fill="#fea965" stroke="#fea965" stroke-width="1.51"/><path d="M540,420L660,420L660,300Z" fill="#fdae6b" stroke="#fdae6b" stroke-width="1.51"/><path d="M540,300L540,420L660,300Z" fill="#feb373" stroke="#feb373" stroke-width="1.51"/><path d="M540,300L660,300L660,180Z" fill="#feb87b" stroke="#feb87b" stroke-width="1.51"/><path d="M540,180L540,300L660,180Z" fill="#febe84" stroke="#febe84" stroke-width="1.51"/><path d="M540,180L660,180L660,60Z" fill="#fec28b" stroke="#fec28b" stroke-width="1.51"/><path d="M540,60L540,180L660,60Z" fill="#ffc693" stroke="#ffc693" stroke-width="1.51"/><path d="M540,60L660,60L660,-60Z" fill="#ffc998" stroke="#ffc998" stroke-width="1.51"/><path d="M540,-60L540,60L660,-60Z" fill="#ffcda1" stroke="#ffcda1" stroke-width="1.51"/><path d="M540,-60L660,-60L660,-180Z" fill="#ffcea4" stroke="#ffcea4" stroke-width="1.51"/><path d="M540,-180L540,-60L660,-180Z" fill="#ffd2ab" stroke="#ffd2ab" stroke-width="1.51"/><path d="M420,1260L540,1260L540,1140Z" fill="#ca7745" stroke="#ca7745" stroke-width="1.51"/><path d="M420,1140L420,1260L540,1140Z" fill="#cf7c4a" stroke="#cf7c4a" stroke-width="1.51"/><path d="M420,1140L540,1140L540,1020Z" fill="#d87d47" stroke="#d87d47" stroke-width="1.51"/><path d="M420,1020L420,1140L540,1020Z" fill="#de824c" stroke="#de824c" stroke-width="1.51"/><path d="M420,1020L540,1020L540,900Z" fill="#e98449" stroke="#e98449" stroke-width="1.51"/><path d="M420,900L420,1020L540,900Z" fill="#ee894e" stroke="#ee894e" stroke-width="1.51"/><path d="M420,900L540,900L540,780Z" fill="#f48c4d" stroke="#f48c4d" stroke-width="1.51"/><path d="M420,780L420,900L540,780Z" fill="#f69252" stroke="#f69252" stroke-width="1.51"/><path d="M420,780L540,780L540,660Z" fill="#fa9551" stroke="#fa9551" stroke-width="1.51"/><path d="M420,660L420,780L540,660Z" fill="#fc9c59" stroke="#fc9c59" stroke-width="1.51"/><path d="M420,660L540,660L540,540Z" fill="#fda05c" stroke="#fda05c" stroke-width="1.51"/><path d="M420,540L420,660L540,540Z" fill="#ffa663" stroke="#ffa663" stroke-width="1.51"/><path d="M420,540L540,540L540,420Z" fill="#ffaa67" stroke="#ffaa67" stroke-width="1.51"/><path d="M420,420L420,540L540,420Z" fill="#ffb070" stroke="#ffb070" stroke-width="1.51"/><path d="M420,420L540,420L540,300Z" fill="#feb476" stroke="#feb476" stroke-width="1.51"/><path d="M420,300L420,420L540,300Z" fill="#feba7e" stroke="#feba7e" stroke-width="1.51"/><path d="M420,300L540,300L540,180Z" fill="#febf85" stroke="#febf85" stroke-width="1.51"/><path d="M420,180L420,300L540,180Z" fill="#fec48f" stroke="#fec48f" stroke-width="1.51"/><path d="M420,180L540,180L540,60Z" fill="#fec896" stroke="#fec896" stroke-width="1.51"/><path d="M420,60L420,180L540,60Z" fill="#fecd9e" stroke="#fecd9e" stroke-width="1.51"/><path d="M420,60L540,60L540,-60Z" fill="#ffcfa3" stroke="#ffcfa3" stroke-width="1.51"/><path d="M420,-60L420,60L540,-60Z" fill="#ffd4ac" stroke="#ffd4ac" stroke-width="1.51"/><path d="M420,-60L540,-60L540,-180Z" fill="#ffd5af" stroke="#ffd5af" stroke-width="1.51"/><path d="M420,-180L420,-60L540,-180Z" fill="#ffd9b6" stroke="#ffd9b6" stroke-width="1.51"/><path d="M300,1260L420,1260L420,1140Z" fill="#cb7e50" stroke="#cb7e50" stroke-width="1.51"/><path d="M300,1140L300,1260L420,1140Z" fill="#d08254" stroke="#d08254" stroke-width="1.51"/><path d="M300,1140L420,1140L420,1020Z" fill="#d98451" stroke="#d98451" stroke-width="1.51"/><path d="M300,1020L300,1140L420,1020Z" fill="#df8856" stroke="#df8856" stroke-width="1.51"/><path d="M300,1020L420,1020L420,900Z" fill="#ea8b54" stroke="#ea8b54" stroke-width="1.51"/><path d="M300,900L300,1020L420,900Z" fill="#ef8f58" stroke="#ef8f58" stroke-width="1.51"/><path d="M300,900L420,900L420,780Z" fill="#f59357" stroke="#f59357" stroke-width="1.51"/><path d="M300,780L300,900L420,780Z" fill="#f7985d" stroke="#f7985d" stroke-width="1.51"/><path d="M300,780L420,780L420,660Z" fill="#fb9c5c" stroke="#fb9c5c" stroke-width="1.51"/><path d="M300,660L300,780L420,660Z" fill="#fca263" stroke="#fca263" stroke-width="1.51"/><path d="M300,660L420,660L420,540Z" fill="#fea767" stroke="#fea767" stroke-width="1.51"/><path d="M300,540L300,660L420,540Z" fill="#ffac6d" stroke="#ffac6d" stroke-width="1.51"/><path d="M300,540L420,540L420,420Z" fill="#ffb172" stroke="#ffb172" stroke-width="1.51"/><path d="M300,420L300,540L420,420Z" fill="#ffb67b" stroke="#ffb67b" stroke-width="1.51"/><path d="M300,420L420,420L420,300Z" fill="#febb80" stroke="#febb80" stroke-width="1.51"/><path d="M300,300L300,420L420,300Z" fill="#fec088" stroke="#fec088" stroke-width="1.51"/><path d="M300,300L420,300L420,180Z" fill="#fec690" stroke="#fec690" stroke-width="1.51"/><path d="M300,180L300,300L420,180Z" fill="#feca99" stroke="#feca99" stroke-width="1.51"/><path d="M300,180L420,180L420,60Z" fill="#fdcfa1" stroke="#fdcfa1" stroke-width="1.51"/><path d="M300,60L300,180L420,60Z" fill="#fed3a9" stroke="#fed3a9" stroke-width="1.51"/><path d="M300,60L420,60L420,-60Z" fill="#fed6ae" stroke="#fed6ae" stroke-width="1.51"/><path d="M300,-60L300,60L420,-60Z" fill="#fedab6" stroke="#fedab6" stroke-width="1.51"/><path d="M300,-60L420,-60L420,-180Z" fill="#fedcba" stroke="#fedcba" stroke-width="1.51"/><path d="M300,-180L300,-60L420,-180Z" fill="#ffdfc0" stroke="#ffdfc0" stroke-width="1.51"/><path d="M180,1260L300,1260L300,1140Z" fill="#cd8259" stroke="#cd8259" stroke-width="1.51"/><path d="M180,1140L180,1260L300,1140Z" fill="#d1865c" stroke="#d1865c" stroke-width="1.51"/><path d="M180,1140L300,1140L300,1020Z" fill="#da885a" stroke="#da885a" stroke-width="1.51"/><path d="M180,1020L180,1140L300,1020Z" fill="#e18c5e" stroke="#e18c5e" stroke-width="1.51"/><path d="M180,1020L300,1020L300,900Z" fill="#eb8f5d" stroke="#eb8f5d" stroke-width="1.51"/><path d="M180,900L180,1020L300,900Z" fill="#f19360" stroke="#f19360" stroke-width="1.51"/><path d="M180,900L300,900L300,780Z" fill="#f69861" stroke="#f69861" stroke-width="1.51"/><path d="M180,780L180,900L300,780Z" fill="#f99c65" stroke="#f99c65" stroke-width="1.51"/><path d="M180,780L300,780L300,660Z" fill="#fda166" stroke="#fda166" stroke-width="1.51"/><path d="M180,660L180,780L300,660Z" fill="#fea66b" stroke="#fea66b" stroke-width="1.51"/><path d="M180,660L300,660L300,540Z" fill="#ffac70" stroke="#ffac70" stroke-width="1.51"/><path d="M180,540L180,660L300,540Z" fill="#ffb076" stroke="#ffb076" stroke-width="1.51"/><path d="M180,540L300,540L300,420Z" fill="#ffb67c" stroke="#ffb67c" stroke-width="1.51"/><path d="M180,420L180,540L300,420Z" fill="#ffbb83" stroke="#ffbb83" stroke-width="1.51"/><path d="M180,420L300,420L300,300Z" fill="#ffbf8a" stroke="#ffbf8a" stroke-width="1.51"/><path d="M180,300L180,420L300,300Z" fill="#ffc491" stroke="#ffc491" stroke-width="1.51"/><path d="M180,300L300,300L300,180Z" fill="#ffca9a" stroke="#ffca9a" stroke-width="1.51"/><path d="M180,180L180,300L300,180Z" fill="#fecfa2" stroke="#fecfa2" stroke-width="1.51"/><path d="M180,180L300,180L300,60Z" fill="#fed4aa" stroke="#fed4aa" stroke-width="1.51"/><path d="M180,60L180,180L300,60Z" fill="#fed8b1" stroke="#fed8b1" stroke-width="1.51"/><path d="M180,60L300,60L300,-60Z" fill="#fedbb8" stroke="#fedbb8" stroke-width="1.51"/><path d="M180,-60L180,60L300,-60Z" fill="#fedebf" stroke="#fedebf" stroke-width="1.51"/><path d="M180,-60L300,-60L300,-180Z" fill="#fee0c3" stroke="#fee0c3" stroke-width="1.51"/><path d="M180,-180L180,-60L300,-180Z" fill="#ffe3c9" stroke="#ffe3c9" stroke-width="1.51"/><path d="M60,1260L180,1260L180,1140Z" fill="#ce8760" stroke="#ce8760" stroke-width="1.51"/><path d="M60,1140L60,1260L180,1140Z" fill="#d38a64" stroke="#d38a64" stroke-width="1.51"/><path d="M60,1140L180,1140L180,1020Z" fill="#dc8d62" stroke="#dc8d62" stroke-width="1.51"/><path d="M60,1020L60,1140L180,1020Z" fill="#e29166" stroke="#e29166" stroke-width="1.51"/><path d="M60,1020L180,1020L180,900Z" fill="#ed9465" stroke="#ed9465" stroke-width="1.51"/><path d="M60,900L60,1020L180,900Z" fill="#f39869" stroke="#f39869" stroke-width="1.51"/><path d="M60,900L180,900L180,780Z" fill="#f89c69" stroke="#f89c69" stroke-width="1.51"/><path d="M60,780L60,900L180,780Z" fill="#fba16e" stroke="#fba16e" stroke-width="1.51"/><path d="M60,780L180,780L180,660Z" fill="#fea56e" stroke="#fea56e" stroke-width="1.51"/><path d="M60,660L60,780L180,660Z" fill="#ffab74" stroke="#ffab74" stroke-width="1.51"/><path d="M60,660L180,660L180,540Z" fill="#ffb078" stroke="#ffb078" stroke-width="1.51"/><path d="M60,540L60,660L180,540Z" fill="#ffb57f" stroke="#ffb57f" stroke-width="1.51"/><path d="M60,540L180,540L180,420Z" fill="#ffba84" stroke="#ffba84" stroke-width="1.51"/><path d="M60,420L60,540L180,420Z" fill="#ffbf8c" stroke="#ffbf8c" stroke-width="1.51"/><path d="M60,420L180,420L180,300Z" fill="#ffc492" stroke="#ffc492" stroke-width="1.51"/><path d="M60,300L60,420L180,300Z" fill="#ffc99a" stroke="#ffc99a" stroke-width="1.51"/><path d="M60,300L180,300L180,180Z" fill="#ffcea2" stroke="#ffcea2" stroke-width="1.51"/><path d="M60,180L60,300L180,180Z" fill="#ffd3ab" stroke="#ffd3ab" stroke-width="1.51"/><path d="M60,180L180,180L180,60Z" fill="#fed8b3" stroke="#fed8b3" stroke-width="1.51"/><path d="M60,60L60,180L180,60Z" fill="#fedcba" stroke="#fedcba" stroke-width="1.51"/><path d="M60,60L180,60L180,-60Z" fill="#fedfc0" stroke="#fedfc0" stroke-width="1.51"/><path d="M60,-60L60,60L180,-60Z" fill="#fee3c8" stroke="#fee3c8" stroke-width="1.51"/><path d="M60,-60L180,-60L180,-180Z" fill="#fee5cc" stroke="#fee5cc" stroke-width="1.51"/><path d="M60,-180L60,-60L180,-180Z" fill="#ffe8d2" stroke="#ffe8d2" stroke-width="1.51"/><path d="M-60,1260L60,1260L60,1140Z" fill="#cf8b68" stroke="#cf8b68" stroke-width="1.51"/><path d="M-60,1140L-60,1260L60,1140Z" fill="#d48d6a" stroke="#d48d6a" stroke-width="1.51"/><path d="M-60,1140L60,1140L60,1020Z" fill="#dd916a" stroke="#dd916a" stroke-width="1.51"/><path d="M-60,1020L-60,1140L60,1020Z" fill="#e3946d" stroke="#e3946d" stroke-width="1.51"/><path d="M-60,1020L60,1020L60,900Z" fill="#ee986d" stroke="#ee986d" stroke-width="1.51"/><path d="M-60,900L-60,1020L60,900Z" fill="#f49b6f" stroke="#f49b6f" stroke-width="1.51"/><path d="M-60,900L60,900L60,780Z" fill="#f9a071" stroke="#f9a071" stroke-width="1.51"/><path d="M-60,780L-60,900L60,780Z" fill="#fca474" stroke="#fca474" stroke-width="1.51"/><path d="M-60,780L60,780L60,660Z" fill="#ffa976" stroke="#ffa976" stroke-width="1.51"/><path d="M-60,660L-60,780L60,660Z" fill="#ffae7b" stroke="#ffae7b" stroke-width="1.51"/><path d="M-60,660L60,660L60,540Z" fill="#ffb480" stroke="#ffb480" stroke-width="1.51"/><path d="M-60,540L-60,660L60,540Z" fill="#ffb885" stroke="#ffb885" stroke-width="1.51"/><path d="M-60,540L60,540L60,420Z" fill="#ffbe8c" stroke="#ffbe8c" stroke-width="1.51"/><path d="M-60,420L-60,540L60,420Z" fill="#ffc293" stroke="#ffc293" stroke-width="1.51"/><path d="M-60,420L60,420L60,300Z" fill="#ffc89a" stroke="#ffc89a" stroke-width="1.51"/><path d="M-60,300L-60,420L60,300Z" fill="#ffcca1" stroke="#ffcca1" stroke-width="1.51"/><path d="M-60,300L60,300L60,180Z" fill="#ffd2aa" stroke="#ffd2aa" stroke-width="1.51"/><path d="M-60,180L-60,300L60,180Z" fill="#ffd7b2" stroke="#ffd7b2" stroke-width="1.51"/><path d="M-60,180L60,180L60,60Z" fill="#fedcbb" stroke="#fedcbb" stroke-width="1.51"/><path d="M-60,60L-60,180L60,60Z" fill="#fee0c1" stroke="#fee0c1" stroke-width="1.51"/><path d="M-60,60L60,60L60,-60Z" fill="#fee3c8" stroke="#fee3c8" stroke-width="1.51"/><path d="M-60,-60L-60,60L60,-60Z" fill="#fee6cf" stroke="#fee6cf" stroke-width="1.51"/><path d="M-60,-60L60,-60L60,-180Z" fill="#fee9d4" stroke="#fee9d4" stroke-width="1.51"/><path d="M-60,-180L-60,-60L60,-180Z" fill="#ffebd9" stroke="#ffebd9" stroke-width="1.51"/><path d="M-180,1260L-60,1260L-60,1140Z" fill="#d08d6d" stroke="#d08d6d" stroke-width="1.51"/><path d="M-180,1140L-180,1260L-60,1140Z" fill="#d59070" stroke="#d59070" stroke-width="1.51"/><path d="M-180,1140L-60,1140L-60,1020Z" fill="#de936f" stroke="#de936f" stroke-width="1.51"/><path d="M-180,1020L-180,1140L-60,1020Z" fill="#e59772" stroke="#e59772" stroke-width="1.51"/><path d="M-180,1020L-60,1020L-60,900Z" fill="#f09b72" stroke="#f09b72" stroke-width="1.51"/><path d="M-180,900L-180,1020L-60,900Z" fill="#f59e74" stroke="#f59e74" stroke-width="1.51"/><path d="M-180,900L-60,900L-60,780Z" fill="#fba376" stroke="#fba376" stroke-width="1.51"/><path d="M-180,780L-180,900L-60,780Z" fill="#fda77a" stroke="#fda77a" stroke-width="1.51"/><path d="M-180,780L-60,780L-60,660Z" fill="#ffac7b" stroke="#ffac7b" stroke-width="1.51"/><path d="M-180,660L-180,780L-60,660Z" fill="#ffb180" stroke="#ffb180" stroke-width="1.51"/><path d="M-180,660L-60,660L-60,540Z" fill="#ffb785" stroke="#ffb785" stroke-width="1.51"/><path d="M-180,540L-180,660L-60,540Z" fill="#ffbb8b" stroke="#ffbb8b" stroke-width="1.51"/><path d="M-180,540L-60,540L-60,420Z" fill="#ffc191" stroke="#ffc191" stroke-width="1.51"/><path d="M-180,420L-180,540L-60,420Z" fill="#ffc598" stroke="#ffc598" stroke-width="1.51"/><path d="M-180,420L-60,420L-60,300Z" fill="#ffcb9f" stroke="#ffcb9f" stroke-width="1.51"/><path d="M-180,300L-180,420L-60,300Z" fill="#ffcfa6" stroke="#ffcfa6" stroke-width="1.51"/><path d="M-180,300L-60,300L-60,180Z" fill="#ffd5b0" stroke="#ffd5b0" stroke-width="1.51"/><path d="M-180,180L-180,300L-60,180Z" fill="#ffdab7" stroke="#ffdab7" stroke-width="1.51"/><path d="M-180,180L-60,180L-60,60Z" fill="#ffdfc0" stroke="#ffdfc0" stroke-width="1.51"/><path d="M-180,60L-180,180L-60,60Z" fill="#ffe3c7" stroke="#ffe3c7" stroke-width="1.51"/><path d="M-180,60L-60,60L-60,-60Z" fill="#ffe6ce" stroke="#ffe6ce" stroke-width="1.51"/><path d="M-180,-60L-180,60L-60,-60Z" fill="#ffe9d4" stroke="#ffe9d4" stroke-width="1.51"/><path d="M-180,-60L-60,-60L-60,-180Z" fill="#ffecd9" stroke="#ffecd9" stroke-width="1.51"/><path d="M-180,-180L-180,-60L-60,-180Z" fill="#ffeede" stroke="#ffeede" stroke-width="1.51"/></svg>