<svg xmlns="http://www.w3.org/2000/svg" width="1920" height="1080"><path d="M1957,1395L2242,1395L2242,1110Z" fill="#b10026" stroke="#b10026" stroke-width="1.51"/><path d="M1957,1110L1957,1395L2242,1110Z" fill="#c10425" stroke="#c10425" stroke-width="1.51"/><path d="M1957,1110L2242,1110L2242,825Z" fill="#c61223" stroke="#c61223" stroke-width="1.51"/><path d="M1957,825L1957,1110L2242,825Z" fill="#d42125" stroke="#d42125" stroke-width="1.51"/><path d="M1957,825L2242,825L2242,540Z" fill="#d2392b" stroke="#d2392b" stroke-width="1.51"/><path d="M1957,540L1957,825L2242,540Z" fill="#db492e" stroke="#db492e" stroke-width="1.51"/><path d="M1957,540L2242,540L2242,255Z" fill="#d45c34" stroke="#d45c34" stroke-width="1.51"/><path d="M1957,255L1957,540L2242,255Z" fill="#dd6736" stroke="#dd6736" stroke-width="1.51"/><path d="M1957,255L2242,255L2242,-30Z" fill="#d67443" stroke="#d67443" stroke-width="1.51"/><path d="M1957,-30L1957,255L2242,-30Z" fill="#e07e4a" stroke="#e07e4a" stroke-width="1.51"/><path d="M1957,-30L2242,-30L2242,-315Z" fill="#d98458" stroke="#d98458" stroke-width="1.51"/><path d="M1957,-315L1957,-30L2242,-315Z" fill="#e38b60" stroke="#e38b60" stroke-width="1.51"/><path d="M1672,1395L1957,1395L1957,1110Z" fill="#c40624" stroke="#c40624" stroke-width="1.51"/><path d="M1672,1110L1672,1395L1957,1110Z" fill="#d10f21" stroke="#d10f21" stroke-width="1.51"/><path d="M1672,1110L1957,1110L1957,825Z" fill="#da1820" stroke="#da1820" stroke-width="1.51"/><path d="M1672,825L1672,1110L1957,825Z" fill="#e42821" stroke="#e42821" stroke-width="1.51"/><path d="M1672,825L1957,825L1957,540Z" fill="#e63f28" stroke="#e63f28" stroke-width="1.51"/><path d="M1672,540L1672,825L1957,540Z" fill="#eb5029" stroke="#eb5029" stroke-width="1.51"/><path d="M1672,540L1957,540L1957,255Z" fill="#e86331" stroke="#e86331" stroke-width="1.51"/><path d="M1672,255L1672,540L1957,255Z" fill="#ee6d32" stroke="#ee6d32" stroke-width="1.51"/><path d="M1672,255L1957,255L1957,-30Z" fill="#eb7c40" stroke="#eb7c40" stroke-width="1.51"/><path d="M1672,-30L1672,255L1957,-30Z" fill="#f18646" stroke="#f18646" stroke-width="1.51"/><path d="M1672,-30L1957,-30L1957,-315Z" fill="#ee8c56" stroke="#ee8c56" stroke-width="1.51"/><path d="M1672,-315L1672,-30L1957,-315Z" fill="#f4925d" stroke="#f4925d" stroke-width="1.51"/><path d="M1387,1395L1672,1395L1672,1110Z" fill="#d21a24" stroke="#d21a24" stroke-width="1.51"/><path d="M1387,1110L1387,1395L1672,1110Z" fill="#dd2623" stroke="#dd2623" stroke-width="1.51"/><path d="M1387,1110L1672,1110L1672,825Z" fill="#e8271e" stroke="#e8271e" stroke-width="1.51"/><path d="M1387,825L1387,1110L1672,825Z" fill="#f03923" stroke="#f03923" stroke-width="1.51"/><path d="M1387,825L1672,825L1672,540Z" fill="#f44827" stroke="#f44827" stroke-width="1.51"/><path d="M1387,540L1387,825L1672,540Z" fill="#f75c2c" stroke="#f75c2c" stroke-width="1.51"/><path d="M1387,540L1672,540L1672,255Z" fill="#f56c30" stroke="#f56c30" stroke-width="1.51"/><path d="M1387,255L1387,540L1672,255Z" fill="#f97835" stroke="#f97835" stroke-width="1.51"/><path d="M1387,255L1672,255L1672,-30Z" fill="#f8853f" stroke="#f8853f" stroke-width="1.51"/><path d="M1387,-30L1387,255L1672,-30Z" fill="#fc9049" stroke="#fc9049" stroke-width="1.51"/><path d="M1387,-30L1672,-30L1672,-315Z" fill="#fc9556" stroke="#fc9556" stroke-width="1.51"/><path d="M1387,-315L1387,-30L1672,-315Z" fill="#ff9d60" stroke="#ff9d60" stroke-width="1.51"/><path d="M1102,1395L1387,1395L1387,1110Z" fill="#db3329" stroke="#db3329" stroke-width="1.51"/><path d="M1102,1110L1102,1395L1387,1110Z" fill="#e44229" stroke="#e44229" stroke-width="1.51"/><path d="M1102,1110L1387,1110L1387,825Z" fill="#f13d24" stroke="#f13d24" stroke-width="1.51"/><path d="M1102,825L1102,1110L1387,825Z" fill="#f65129" stroke="#f65129" stroke-width="1.51"/><path d="M1102,825L1387,825L1387,540Z" fill="#fd592c" stroke="#fd592c" stroke-width="1.51"/><path d="M1102,540L1102,825L1387,540Z" fill="#fd6f32" stroke="#fd6f32" stroke-width="1.51"/><path d="M1102,540L1387,540L1387,255Z" fill="#fe7a36" stroke="#fe7a36" stroke-width="1.51"/><path d="M1102,255L1102,540L1387,255Z" fill="#fe893c" stroke="#fe893c" stroke-width="1.51"/><path d="M1102,255L1387,255L1387,-30Z" fill="#ff9245" stroke="#ff9245" stroke-width="1.51"/><path d="M1102,-30L1102,255L1387,-30Z" fill="#ffa150" stroke="#ffa150" stroke-width="1.51"/><path d="M1102,-30L1387,-30L1387,-315Z" fill="#ffa25d" stroke="#ffa25d" stroke-width="1.51"/><path d="M1102,-315L1102,-30L1387,-315Z" fill="#ffad68" stroke="#ffad68" stroke-width="1.51"/><path d="M817,1395L1102,1395L1102,1110Z" fill="#dc5330" stroke="#dc5330" stroke-width="1.51"/><path d="M817,1110L817,1395L1102,1110Z" fill="#e55d30" stroke="#e55d30" stroke-width="1.51"/><path d="M817,1110L1102,1110L1102,825Z" fill="#f25c2a" stroke="#f25c2a" stroke-width="1.51"/><path d="M817,825L817,1110L1102,825Z" fill="#f76a30" stroke="#f76a30" stroke-width="1.51"/><path d="M817,825L1102,825L1102,540Z" fill="#fd7333" stroke="#fd7333" stroke-width="1.51"/><path d="M817,540L817,825L1102,540Z" fill="#fd8539" stroke="#fd8539" stroke-width="1.51"/><path d="M817,540L1102,540L1102,255Z" fill="#fe913d" stroke="#fe913d" stroke-width="1.51"/><path d="M817,255L817,540L1102,255Z" fill="#fe9e43" stroke="#fe9e43" stroke-width="1.51"/><path d="M817,255L1102,255L1102,-30Z" fill="#ffa74d" stroke="#ffa74d" stroke-width="1.51"/><path d="M817,-30L817,255L1102,-30Z" fill="#ffb458" stroke="#ffb458" stroke-width="1.51"/><path d="M817,-30L1102,-30L1102,-315Z" fill="#ffb765" stroke="#ffb765" stroke-width="1.51"/><path d="M817,-315L817,-30L1102,-315Z" fill="#ffc170" stroke="#ffc170" stroke-width="1.51"/><path d="M532,1395L817,1395L817,1110Z" fill="#dd6536" stroke="#dd6536" stroke-width="1.51"/><path d="M532,1110L532,1395L817,1110Z" fill="#e66e36" stroke="#e66e36" stroke-width="1.51"/><path d="M532,1110L817,1110L817,825Z" fill="#f46f31" stroke="#f46f31" stroke-width="1.51"/><path d="M532,825L532,1110L817,825Z" fill="#f97b36" stroke="#f97b36" stroke-width="1.51"/><path d="M532,825L817,825L817,540Z" fill="#fe853a" stroke="#fe853a" stroke-width="1.51"/><path d="M532,540L532,825L817,540Z" fill="#fe9540" stroke="#fe9540" stroke-width="1.51"/><path d="M532,540L817,540L817,255Z" fill="#fea144" stroke="#fea144" stroke-width="1.51"/><path d="M532,255L532,540L817,255Z" fill="#fead49" stroke="#fead49" stroke-width="1.51"/><path d="M532,255L817,255L817,-30Z" fill="#ffb754" stroke="#ffb754" stroke-width="1.51"/><path d="M532,-30L532,255L817,-30Z" fill="#ffc35f" stroke="#ffc35f" stroke-width="1.51"/><path d="M532,-30L817,-30L817,-315Z" fill="#ffc66d" stroke="#ffc66d" stroke-width="1.51"/><path d="M532,-315L532,-30L817,-315Z" fill="#ffcf77" stroke="#ffcf77" stroke-width="1.51"/><path d="M247,1395L532,1395L532,1110Z" fill="#e07641" stroke="#e07641" stroke-width="1.51"/><path d="M247,1110L247,1395L532,1110Z" fill="#e97f45" stroke="#e97f45" stroke-width="1.51"/><path d="M247,1110L532,1110L532,825Z" fill="#f6803d" stroke="#f6803d" stroke-width="1.51"/><path d="M247,825L247,1110L532,825Z" fill="#fb8c45" stroke="#fb8c45" stroke-width="1.51"/><path d="M247,825L532,825L532,540Z" fill="#ff9546" stroke="#ff9546" stroke-width="1.51"/><path d="M247,540L247,825L532,540Z" fill="#ffa54f" stroke="#ffa54f" stroke-width="1.51"/><path d="M247,540L532,540L532,255Z" fill="#ffb051" stroke="#ffb051" stroke-width="1.51"/><path d="M247,255L247,540L532,255Z" fill="#ffbc5a" stroke="#ffbc5a" stroke-width="1.51"/><path d="M247,255L532,255L532,-30Z" fill="#ffc661" stroke="#ffc661" stroke-width="1.51"/><path d="M247,-30L247,255L532,-30Z" fill="#ffd26f" stroke="#ffd26f" stroke-width="1.51"/><path d="M247,-30L532,-30L532,-315Z" fill="#ffd579" stroke="#ffd579" stroke-width="1.51"/><path d="M247,-315L247,-30L532,-315Z" fill="#ffde87" stroke="#ffde87" stroke-width="1.51"/><path d="M-38,1395L247,1395L247,1110Z" fill="#e28351" stroke="#e28351" stroke-width="1.51"/><path d="M-38,1110L-38,1395L247,1110Z" fill="#eb8a55" stroke="#eb8a55" stroke-width="1.51"/><path d="M-38,1110L247,1110L247,825Z" fill="#f88e4c" stroke="#f88e4c" stroke-width="1.51"/><path d="M-38,825L-38,1110L247,825Z" fill="#fe9756" stroke="#fe9756" stroke-width="1.51"/><path d="M-38,825L247,825L247,540Z" fill="#ffa356" stroke="#ffa356" stroke-width="1.51"/><path d="M-38,540L-38,825L247,540Z" fill="#ffaf60" stroke="#ffaf60" stroke-width="1.51"/><path d="M-38,540L247,540L247,255Z" fill="#ffbd61" stroke="#ffbd61" stroke-width="1.51"/><path d="M-38,255L-38,540L247,255Z" fill="#ffc76b" stroke="#ffc76b" stroke-width="1.51"/><path d="M-38,255L247,255L247,-30Z" fill="#ffd372" stroke="#ffd372" stroke-width="1.51"/><path d="M-38,-30L-38,255L247,-30Z" fill="#ffdc80" stroke="#ffdc80" stroke-width="1.51"/><path d="M-38,-30L247,-30L247,-315Z" fill="#ffe28a" stroke="#ffe28a" stroke-width="1.51"/><path d="M-38,-315L-38,-30L247,-315Z" fill="#ffe998" stroke="#ffe998" stroke-width="1.51"/><path d="M-323,1395L-38,1395L-38,1110Z" fill="#e48b60" stroke="#e48b60" stroke-width="1.51"/><path d="M-323,1110L-323,1395L-38,1110Z" fill="#ed9165" stroke="#ed9165" stroke-width="1.51"/><path d="M-323,1110L-38,1110L-38,825Z" fill="#fb965d" stroke="#fb965d" stroke-width="1.51"/><path d="M-323,825L-323,1110L-38,825Z" fill="#ff9f66" stroke="#ff9f66" stroke-width="1.51"/><path d="M-323,825L-38,825L-38,540Z" fill="#ffab67" stroke="#ffab67" stroke-width="1.51"/><path d="M-323,540L-323,825L-38,540Z" fill="#ffb771" stroke="#ffb771" stroke-width="1.51"/><path d="M-323,540L-38,540L-38,255Z" fill="#ffc573" stroke="#ffc573" stroke-width="1.51"/><path d="M-323,255L-323,540L-38,255Z" fill="#ffce7c" stroke="#ffce7c" stroke-width="1.51"/><path d="M-323,255L-38,255L-38,-30Z" fill="#ffda83" stroke="#ffda83" stroke-width="1.51"/><path d="M-323,-30L-323,255L-38,-30Z" fill="#ffe491" stroke="#ffe491" stroke-width="1.51"/><path d="M-323,-30L-38,-30L-38,-315Z" fill="#ffea9b" stroke="#ffea9b" stroke-width="1.51"/><path d="M-323,-315L-323,-30L-38,-315Z" fill="#fff0a9" stroke="#fff0a9" stroke-width="1.51"/></svg>