<svg xmlns="http://www.w3.org/2000/svg" width="1920" height="1080"><path d="M1957,1395L2242,1395L2242,1110Z" fill="#207838" stroke="#207838" stroke-width="1.51"/><path d="M1957,1110L1957,1395L2242,1110Z" fill="#388e48" stroke="#388e48" stroke-width="1.51"/><path d="M1957,1110L2242,1110L2242,825Z" fill="#549c5c" stroke="#549c5c" stroke-width="1.51"/><path d="M1957,825L1957,1110L2242,825Z" fill="#6cae70" stroke="#6cae70" stroke-width="1.51"/><path d="M1957,825L2242,825L2242,540Z" fill="#7dae80" stroke="#7dae80" stroke-width="1.51"/><path d="M1957,540L1957,825L2242,540Z" fill="#8cba8f" stroke="#8cba8f" stroke-width="1.51"/><path d="M1957,540L2242,540L2242,255Z" fill="#89aa8d" stroke="#89aa8d" stroke-width="1.51"/><path d="M1957,255L1957,540L2242,255Z" fill="#8eac91" stroke="#8eac91" stroke-width="1.51"/><path d="M1957,255L2242,255L2242,-30Z" fill="#788e7f" stroke="#788e7f" stroke-width="1.51"/><path d="M1957,-30L1957,255L2242,-30Z" fill="#768c7f" stroke="#768c7f" stroke-width="1.51"/><path d="M1957,-30L2242,-30L2242,-315Z" fill="#616968" stroke="#616968" stroke-width="1.51"/><path d="M1957,-315L1957,-30L2242,-315Z" fill="#626366" stroke="#626366" stroke-width="1.51"/><path d="M1672,1395L1957,1395L1957,1110Z" fill="#3d934c" stroke="#3d934c" stroke-width="1.51"/><path d="M1672,1110L1672,1395L1957,1110Z" fill="#57a95f" stroke="#57a95f" stroke-width="1.51"/><path d="M1672,1110L1957,1110L1957,825Z" fill="#6eb771" stroke="#6eb771" stroke-width="1.51"/><path d="M1672,825L1672,1110L1957,825Z" fill="#8ac988" stroke="#8ac988" stroke-width="1.51"/><path d="M1672,825L1957,825L1957,540Z" fill="#97cb96" stroke="#97cb96" stroke-width="1.51"/><path d="M1672,540L1672,825L1957,540Z" fill="#aad5a7" stroke="#aad5a7" stroke-width="1.51"/><path d="M1672,540L1957,540L1957,255Z" fill="#a3c6a3" stroke="#a3c6a3" stroke-width="1.51"/><path d="M1672,255L1672,540L1957,255Z" fill="#abc7a9" stroke="#abc7a9" stroke-width="1.51"/><path d="M1672,255L1957,255L1957,-30Z" fill="#91a995" stroke="#91a995" stroke-width="1.51"/><path d="M1672,-30L1672,255L1957,-30Z" fill="#93a597" stroke="#93a597" stroke-width="1.51"/><path d="M1672,-30L1957,-30L1957,-315Z" fill="#79837e" stroke="#79837e" stroke-width="1.51"/><path d="M1672,-315L1672,-30L1957,-315Z" fill="#7d7b7e" stroke="#7d7b7e" stroke-width="1.51"/><path d="M1387,1395L1672,1395L1672,1110Z" fill="#64aa69" stroke="#64aa69" stroke-width="1.51"/><path d="M1387,1110L1387,1395L1672,1110Z" fill="#7cbd7d" stroke="#7cbd7d" stroke-width="1.51"/><path d="M1387,1110L1672,1110L1672,825Z" fill="#92cf8e" stroke="#92cf8e" stroke-width="1.51"/><path d="M1387,825L1387,1110L1672,825Z" fill="#addea7" stroke="#addea7" stroke-width="1.51"/><path d="M1387,825L1672,825L1672,540Z" fill="#bae2b5" stroke="#bae2b5" stroke-width="1.51"/><path d="M1387,540L1387,825L1672,540Z" fill="#cceac7" stroke="#cceac7" stroke-width="1.51"/><path d="M1387,540L1672,540L1672,255Z" fill="#c6dec2" stroke="#c6dec2" stroke-width="1.51"/><path d="M1387,255L1387,540L1672,255Z" fill="#cddbc9" stroke="#cddbc9" stroke-width="1.51"/><path d="M1387,255L1672,255L1672,-30Z" fill="#b3bfb4" stroke="#b3bfb4" stroke-width="1.51"/><path d="M1387,-30L1387,255L1672,-30Z" fill="#b3b8b6" stroke="#b3b8b6" stroke-width="1.51"/><path d="M1387,-30L1672,-30L1672,-315Z" fill="#9a989b" stroke="#9a989b" stroke-width="1.51"/><path d="M1387,-315L1387,-30L1672,-315Z" fill="#9c8d9c" stroke="#9c8d9c" stroke-width="1.51"/><path d="M1102,1395L1387,1395L1387,1110Z" fill="#80b782" stroke="#80b782" stroke-width="1.51"/><path d="M1102,1110L1102,1395L1387,1110Z" fill="#95c694" stroke="#95c694" stroke-width="1.51"/><path d="M1102,1110L1387,1110L1387,825Z" fill="#aedca9" stroke="#aedca9" stroke-width="1.51"/><path d="M1102,825L1102,1110L1387,825Z" fill="#c5e7bf" stroke="#c5e7bf" stroke-width="1.51"/><path d="M1102,825L1387,825L1387,540Z" fill="#d6efcf" stroke="#d6efcf" stroke-width="1.51"/><path d="M1102,540L1102,825L1387,540Z" fill="#e4f3df" stroke="#e4f3df" stroke-width="1.51"/><path d="M1102,540L1387,540L1387,255Z" fill="#e0eadd" stroke="#e0eadd" stroke-width="1.51"/><path d="M1102,255L1102,540L1387,255Z" fill="#e3e4e1" stroke="#e3e4e1" stroke-width="1.51"/><path d="M1102,255L1387,255L1387,-30Z" fill="#cdcbce" stroke="#cdcbce" stroke-width="1.51"/><path d="M1102,-30L1102,255L1387,-30Z" fill="#c9c1cd" stroke="#c9c1cd" stroke-width="1.51"/><path d="M1102,-30L1387,-30L1387,-315Z" fill="#b2a3b5" stroke="#b2a3b5" stroke-width="1.51"/><path d="M1102,-315L1102,-30L1387,-315Z" fill="#b094b2" stroke="#b094b2" stroke-width="1.51"/><path d="M817,1395L1102,1395L1102,1110Z" fill="#91bc95" stroke="#91bc95" stroke-width="1.51"/><path d="M817,1110L817,1395L1102,1110Z" fill="#a0c7a1" stroke="#a0c7a1" stroke-width="1.51"/><path d="M817,1110L1102,1110L1102,825Z" fill="#bfe0bc" stroke="#bfe0bc" stroke-width="1.51"/><path d="M817,825L817,1110L1102,825Z" fill="#d0e7cc" stroke="#d0e7cc" stroke-width="1.51"/><path d="M817,825L1102,825L1102,540Z" fill="#e6f3e3" stroke="#e6f3e3" stroke-width="1.51"/><path d="M817,540L817,825L1102,540Z" fill="#eff3ed" stroke="#eff3ed" stroke-width="1.51"/><path d="M817,540L1102,540L1102,255Z" fill="#f1eef1" stroke="#f1eef1" stroke-width="1.51"/><path d="M817,255L817,540L1102,255Z" fill="#eee3ef" stroke="#eee3ef" stroke-width="1.51"/><path d="M817,255L1102,255L1102,-30Z" fill="#dccfe1" stroke="#dccfe1" stroke-width="1.51"/><path d="M817,-30L817,255L1102,-30Z" fill="#d3c0da" stroke="#d3c0da" stroke-width="1.51"/><path d="M817,-30L1102,-30L1102,-315Z" fill="#c1a6c7" stroke="#c1a6c7" stroke-width="1.51"/><path d="M817,-315L817,-30L1102,-315Z" fill="#ba93bf" stroke="#ba93bf" stroke-width="1.51"/><path d="M532,1395L817,1395L817,1110Z" fill="#8faf92" stroke="#8faf92" stroke-width="1.51"/><path d="M532,1110L532,1395L817,1110Z" fill="#99b59a" stroke="#99b59a" stroke-width="1.51"/><path d="M532,1110L817,1110L817,825Z" fill="#bcd3b9" stroke="#bcd3b9" stroke-width="1.51"/><path d="M532,825L532,1110L817,825Z" fill="#c8d5c5" stroke="#c8d5c5" stroke-width="1.51"/><path d="M532,825L817,825L817,540Z" fill="#e2e5e0" stroke="#e2e5e0" stroke-width="1.51"/><path d="M532,540L532,825L817,540Z" fill="#e5e0e5" stroke="#e5e0e5" stroke-width="1.51"/><path d="M532,540L817,540L817,255Z" fill="#ede0ed" stroke="#ede0ed" stroke-width="1.51"/><path d="M532,255L532,540L817,255Z" fill="#e5d1e6" stroke="#e5d1e6" stroke-width="1.51"/><path d="M532,255L817,255L817,-30Z" fill="#d8c1dd" stroke="#d8c1dd" stroke-width="1.51"/><path d="M532,-30L532,255L817,-30Z" fill="#c9aed2" stroke="#c9aed2" stroke-width="1.51"/><path d="M532,-30L817,-30L817,-315Z" fill="#bc99c4" stroke="#bc99c4" stroke-width="1.51"/><path d="M532,-315L532,-30L817,-315Z" fill="#b082b7" stroke="#b082b7" stroke-width="1.51"/><path d="M247,1395L532,1395L532,1110Z" fill="#819987" stroke="#819987" stroke-width="1.51"/><path d="M247,1110L247,1395L532,1110Z" fill="#889e8e" stroke="#889e8e" stroke-width="1.51"/><path d="M247,1110L532,1110L532,825Z" fill="#acbdae" stroke="#acbdae" stroke-width="1.51"/><path d="M247,825L247,1110L532,825Z" fill="#b6bdb8" stroke="#b6bdb8" stroke-width="1.51"/><path d="M247,825L532,825L532,540Z" fill="#d2ced4" stroke="#d2ced4" stroke-width="1.51"/><path d="M247,540L247,825L532,540Z" fill="#d3c8d8" stroke="#d3c8d8" stroke-width="1.51"/><path d="M247,540L532,540L532,255Z" fill="#dcc9e1" stroke="#dcc9e1" stroke-width="1.51"/><path d="M247,255L247,540L532,255Z" fill="#d1b9d9" stroke="#d1b9d9" stroke-width="1.51"/><path d="M247,255L532,255L532,-30Z" fill="#c7abd2" stroke="#c7abd2" stroke-width="1.51"/><path d="M247,-30L247,255L532,-30Z" fill="#b696c5" stroke="#b696c5" stroke-width="1.51"/><path d="M247,-30L532,-30L532,-315Z" fill="#ab83b8" stroke="#ab83b8" stroke-width="1.51"/><path d="M247,-315L247,-30L532,-315Z" fill="#9c6baa" stroke="#9c6baa" stroke-width="1.51"/><path d="M-38,1395L247,1395L247,1110Z" fill="#6f8078" stroke="#6f8078" stroke-width="1.51"/><path d="M-38,1110L-38,1395L247,1110Z" fill="#77837d" stroke="#77837d" stroke-width="1.51"/><path d="M-38,1110L247,1110L247,825Z" fill="#9aa39e" stroke="#9aa39e" stroke-width="1.51"/><path d="M-38,825L-38,1110L247,825Z" fill="#a3a1a6" stroke="#a3a1a6" stroke-width="1.51"/><path d="M-38,825L247,825L247,540Z" fill="#beb4c3" stroke="#beb4c3" stroke-width="1.51"/><path d="M-38,540L-38,825L247,540Z" fill="#bfabc5" stroke="#bfabc5" stroke-width="1.51"/><path d="M-38,540L247,540L247,255Z" fill="#c8aed0" stroke="#c8aed0" stroke-width="1.51"/><path d="M-38,255L-38,540L247,255Z" fill="#bd9cc6" stroke="#bd9cc6" stroke-width="1.51"/><path d="M-38,255L247,255L247,-30Z" fill="#b391c1" stroke="#b391c1" stroke-width="1.51"/><path d="M-38,-30L-38,255L247,-30Z" fill="#a37bb2" stroke="#a37bb2" stroke-width="1.51"/><path d="M-38,-30L247,-30L247,-315Z" fill="#976aa7" stroke="#976aa7" stroke-width="1.51"/><path d="M-38,-315L-38,-30L247,-315Z" fill="#884f97" stroke="#884f97" stroke-width="1.51"/><path d="M-323,1395L-38,1395L-38,1110Z" fill="#626367" stroke="#626367" stroke-width="1.51"/><path d="M-323,1110L-323,1395L-38,1110Z" fill="#686669" stroke="#686669" stroke-width="1.51"/><path d="M-323,1110L-38,1110L-38,825Z" fill="#8b838b" stroke="#8b838b" stroke-width="1.51"/><path d="M-323,825L-323,1110L-38,825Z" fill="#938291" stroke="#938291" stroke-width="1.51"/><path d="M-323,825L-38,825L-38,540Z" fill="#ae93b0" stroke="#ae93b0" stroke-width="1.51"/><path d="M-323,540L-323,825L-38,540Z" fill="#ad8baf" stroke="#ad8baf" stroke-width="1.51"/><path d="M-323,540L-38,540L-38,255Z" fill="#b68dbc" stroke="#b68dbc" stroke-width="1.51"/><path d="M-323,255L-323,540L-38,255Z" fill="#ab7cb0" stroke="#ab7cb0" stroke-width="1.51"/><path d="M-323,255L-38,255L-38,-30Z" fill="#a270ad" stroke="#a270ad" stroke-width="1.51"/><path d="M-323,-30L-323,255L-38,-30Z" fill="#905b9c" stroke="#905b9c" stroke-width="1.51"/><path d="M-323,-30L-38,-30L-38,-315Z" fill="#854994" stroke="#854994" stroke-width="1.51"/><path d="M-323,-315L-323,-30L-38,-315Z" fill="#752e82" stroke="#752e82" stroke-width="1.51"/></svg>