<svg xmlns="http://www.w3.org/2000/svg" width="1920" height="1080"><path d="M1980,1260L2100,1260L2100,1140Z" fill="#7b002e" stroke="#7b002e" stroke-width="1.51"/><path d="M1980,1140L1980,1260L2100,1140Z" fill="#840033" stroke="#840033" stroke-width="1.51"/><path d="M1980,1140L2100,1140L2100,1020Z" fill="#8b0138" stroke="#8b0138" stroke-width="1.51"/><path d="M1980,1020L1980,1140L2100,1020Z" fill="#94023c" stroke="#94023c" stroke-width="1.51"/><path d="M1980,1020L2100,1020L2100,900Z" fill="#9b053e" stroke="#9b053e" stroke-width="1.51"/><path d="M1980,900L1980,1020L2100,900Z" fill="#a40742" stroke="#a40742" stroke-width="1.51"/><path d="M1980,900L2100,900L2100,780Z" fill="#a60c48" stroke="#a60c48" stroke-width="1.51"/><path d="M1980,780L1980,900L2100,780Z" fill="#ac0f50" stroke="#ac0f50" stroke-width="1.51"/><path d="M1980,780L2100,780L2100,660Z" fill="#ad1358" stroke="#ad1358" stroke-width="1.51"/><path d="M1980,660L1980,780L2100,660Z" fill="#b11d5e" stroke="#b11d5e" stroke-width="1.51"/><path d="M1980,660L2100,660L2100,540Z" fill="#ad2c63" stroke="#ad2c63" stroke-width="1.51"/><path d="M1980,540L1980,660L2100,540Z" fill="#b03268" stroke="#b03268" stroke-width="1.51"/><path d="M1980,540L2100,540L2100,420Z" fill="#aa3e6c" stroke="#aa3e6c" stroke-width="1.51"/><path d="M1980,420L1980,540L2100,420Z" fill="#ac4470" stroke="#ac4470" stroke-width="1.51"/><path d="M1980,420L2100,420L2100,300Z" fill="#a64e72" stroke="#a64e72" stroke-width="1.51"/><path d="M1980,300L1980,420L2100,300Z" fill="#a85476" stroke="#a85476" stroke-width="1.51"/><path d="M1980,300L2100,300L2100,180Z" fill="#a75a78" stroke="#a75a78" stroke-width="1.51"/><path d="M1980,180L1980,300L2100,180Z" fill="#ac607c" stroke="#ac607c" stroke-width="1.51"/><path d="M1980,180L2100,180L2100,60Z" fill="#ab667d" stroke="#ab667d" stroke-width="1.51"/><path d="M1980,60L1980,180L2100,60Z" fill="#b16b81" stroke="#b16b81" stroke-width="1.51"/><path d="M1980,60L2100,60L2100,-60Z" fill="#b27283" stroke="#b27283" stroke-width="1.51"/><path d="M1980,-60L1980,60L2100,-60Z" fill="#b87787" stroke="#b87787" stroke-width="1.51"/><path d="M1980,-60L2100,-60L2100,-180Z" fill="#b87b87" stroke="#b87b87" stroke-width="1.51"/><path d="M1980,-180L1980,-60L2100,-180Z" fill="#bd7e8b" stroke="#bd7e8b" stroke-width="1.51"/><path d="M1860,1260L1980,1260L1980,1140Z" fill="#850035" stroke="#850035" stroke-width="1.51"/><path d="M1860,1140L1860,1260L1980,1140Z" fill="#8d003b" stroke="#8d003b" stroke-width="1.51"/><path d="M1860,1140L1980,1140L1980,1020Z" fill="#95013f" stroke="#95013f" stroke-width="1.51"/><path d="M1860,1020L1860,1140L1980,1020Z" fill="#9d0243" stroke="#9d0243" stroke-width="1.51"/><path d="M1860,1020L1980,1020L1980,900Z" fill="#a50545" stroke="#a50545" stroke-width="1.51"/><path d="M1860,900L1860,1020L1980,900Z" fill="#ae0749" stroke="#ae0749" stroke-width="1.51"/><path d="M1860,900L1980,900L1980,780Z" fill="#b00d50" stroke="#b00d50" stroke-width="1.51"/><path d="M1860,780L1860,900L1980,780Z" fill="#b61058" stroke="#b61058" stroke-width="1.51"/><path d="M1860,780L1980,780L1980,660Z" fill="#b81460" stroke="#b81460" stroke-width="1.51"/><path d="M1860,660L1860,780L1980,660Z" fill="#bb1f66" stroke="#bb1f66" stroke-width="1.51"/><path d="M1860,660L1980,660L1980,540Z" fill="#b72e6a" stroke="#b72e6a" stroke-width="1.51"/><path d="M1860,540L1860,660L1980,540Z" fill="#b93571" stroke="#b93571" stroke-width="1.51"/><path d="M1860,540L1980,540L1980,420Z" fill="#b44074" stroke="#b44074" stroke-width="1.51"/><path d="M1860,420L1860,540L1980,420Z" fill="#b64779" stroke="#b64779" stroke-width="1.51"/><path d="M1860,420L1980,420L1980,300Z" fill="#b0517a" stroke="#b0517a" stroke-width="1.51"/><path d="M1860,300L1860,420L1980,300Z" fill="#b1577f" stroke="#b1577f" stroke-width="1.51"/><path d="M1860,300L1980,300L1980,180Z" fill="#b15e80" stroke="#b15e80" stroke-width="1.51"/><path d="M1860,180L1860,300L1980,180Z" fill="#b66384" stroke="#b66384" stroke-width="1.51"/><path d="M1860,180L1980,180L1980,60Z" fill="#b66a85" stroke="#b66a85" stroke-width="1.51"/><path d="M1860,60L1860,180L1980,60Z" fill="#bb6f8a" stroke="#bb6f8a" stroke-width="1.51"/><path d="M1860,60L1980,60L1980,-60Z" fill="#bd768b" stroke="#bd768b" stroke-width="1.51"/><path d="M1860,-60L1860,60L1980,-60Z" fill="#c27b90" stroke="#c27b90" stroke-width="1.51"/><path d="M1860,-60L1980,-60L1980,-180Z" fill="#c37f90" stroke="#c37f90" stroke-width="1.51"/><path d="M1860,-180L1860,-60L1980,-180Z" fill="#c78293" stroke="#c78293" stroke-width="1.51"/><path d="M1740,1260L1860,1260L1860,1140Z" fill="#8f013b" stroke="#8f013b" stroke-width="1.51"/><path d="M1740,1140L1740,1260L1860,1140Z" fill="#980240" stroke="#980240" stroke-width="1.51"/><path d="M1740,1140L1860,1140L1860,1020Z" fill="#9f0245" stroke="#9f0245" stroke-width="1.51"/><path d="M1740,1020L1740,1140L1860,1020Z" fill="#a80448" stroke="#a80448" stroke-width="1.51"/><path d="M1740,1020L1860,1020L1860,900Z" fill="#af074b" stroke="#af074b" stroke-width="1.51"/><path d="M1740,900L1740,1020L1860,900Z" fill="#b80a4e" stroke="#b80a4e" stroke-width="1.51"/><path d="M1740,900L1860,900L1860,780Z" fill="#bb0f56" stroke="#bb0f56" stroke-width="1.51"/><path d="M1740,780L1740,900L1860,780Z" fill="#c1135d" stroke="#c1135d" stroke-width="1.51"/><path d="M1740,780L1860,780L1860,660Z" fill="#c21766" stroke="#c21766" stroke-width="1.51"/><path d="M1740,660L1740,780L1860,660Z" fill="#c6226b" stroke="#c6226b" stroke-width="1.51"/><path d="M1740,660L1860,660L1860,540Z" fill="#c13071" stroke="#c13071" stroke-width="1.51"/><path d="M1740,540L1740,660L1860,540Z" fill="#c43876" stroke="#c43876" stroke-width="1.51"/><path d="M1740,540L1860,540L1860,420Z" fill="#bf437b" stroke="#bf437b" stroke-width="1.51"/><path d="M1740,420L1740,540L1860,420Z" fill="#c14b7e" stroke="#c14b7e" stroke-width="1.51"/><path d="M1740,420L1860,420L1860,300Z" fill="#ba5481" stroke="#ba5481" stroke-width="1.51"/><path d="M1740,300L1740,420L1860,300Z" fill="#bc5b85" stroke="#bc5b85" stroke-width="1.51"/><path d="M1740,300L1860,300L1860,180Z" fill="#bc6187" stroke="#bc6187" stroke-width="1.51"/><path d="M1740,180L1740,300L1860,180Z" fill="#c1678a" stroke="#c1678a" stroke-width="1.51"/><path d="M1740,180L1860,180L1860,60Z" fill="#c16d8c" stroke="#c16d8c" stroke-width="1.51"/><path d="M1740,60L1740,180L1860,60Z" fill="#c77390" stroke="#c77390" stroke-width="1.51"/><path d="M1740,60L1860,60L1860,-60Z" fill="#c77a92" stroke="#c77a92" stroke-width="1.51"/><path d="M1740,-60L1740,60L1860,-60Z" fill="#cd7f95" stroke="#cd7f95" stroke-width="1.51"/><path d="M1740,-60L1860,-60L1860,-180Z" fill="#cd8397" stroke="#cd8397" stroke-width="1.51"/><path d="M1740,-180L1740,-60L1860,-180Z" fill="#d38699" stroke="#d38699" stroke-width="1.51"/><path d="M1620,1260L1740,1260L1740,1140Z" fill="#9a043f" stroke="#9a043f" stroke-width="1.51"/><path d="M1620,1140L1620,1260L1740,1140Z" fill="#a30444" stroke="#a30444" stroke-width="1.51"/><path d="M1620,1140L1740,1140L1740,1020Z" fill="#a90549" stroke="#a90549" stroke-width="1.51"/><path d="M1620,1020L1620,1140L1740,1020Z" fill="#b3084c" stroke="#b3084c" stroke-width="1.51"/><path d="M1620,1020L1740,1020L1740,900Z" fill="#ba0b4f" stroke="#ba0b4f" stroke-width="1.51"/><path d="M1620,900L1620,1020L1740,900Z" fill="#c30e52" stroke="#c30e52" stroke-width="1.51"/><path d="M1620,900L1740,900L1740,780Z" fill="#c5135a" stroke="#c5135a" stroke-width="1.51"/><path d="M1620,780L1620,900L1740,780Z" fill="#cc1661" stroke="#cc1661" stroke-width="1.51"/><path d="M1620,780L1740,780L1740,660Z" fill="#cd1a6a" stroke="#cd1a6a" stroke-width="1.51"/><path d="M1620,660L1620,780L1740,660Z" fill="#d12570" stroke="#d12570" stroke-width="1.51"/><path d="M1620,660L1740,660L1740,540Z" fill="#cc3375" stroke="#cc3375" stroke-width="1.51"/><path d="M1620,540L1620,660L1740,540Z" fill="#d03b7b" stroke="#d03b7b" stroke-width="1.51"/><path d="M1620,540L1740,540L1740,420Z" fill="#ca477f" stroke="#ca477f" stroke-width="1.51"/><path d="M1620,420L1620,540L1740,420Z" fill="#cc4e83" stroke="#cc4e83" stroke-width="1.51"/><path d="M1620,420L1740,420L1740,300Z" fill="#c55886" stroke="#c55886" stroke-width="1.51"/><path d="M1620,300L1620,420L1740,300Z" fill="#c85f89" stroke="#c85f89" stroke-width="1.51"/><path d="M1620,300L1740,300L1740,180Z" fill="#c7658b" stroke="#c7658b" stroke-width="1.51"/><path d="M1620,180L1620,300L1740,180Z" fill="#cd6b8f" stroke="#cd6b8f" stroke-width="1.51"/><path d="M1620,180L1740,180L1740,60Z" fill="#cc7291" stroke="#cc7291" stroke-width="1.51"/><path d="M1620,60L1620,180L1740,60Z" fill="#d27794" stroke="#d27794" stroke-width="1.51"/><path d="M1620,60L1740,60L1740,-60Z" fill="#d37e96" stroke="#d37e96" stroke-width="1.51"/><path d="M1620,-60L1620,60L1740,-60Z" fill="#d9849a" stroke="#d9849a" stroke-width="1.51"/><path d="M1620,-60L1740,-60L1740,-180Z" fill="#d9879b" stroke="#d9879b" stroke-width="1.51"/><path d="M1620,-180L1620,-60L1740,-180Z" fill="#df8b9e" stroke="#df8b9e" stroke-width="1.51"/><path d="M1500,1260L1620,1260L1620,1140Z" fill="#a40743" stroke="#a40743" stroke-width="1.51"/><path d="M1500,1140L1500,1260L1620,1140Z" fill="#ac0948" stroke="#ac0948" stroke-width="1.51"/><path d="M1500,1140L1620,1140L1620,1020Z" fill="#b4094d" stroke="#b4094d" stroke-width="1.51"/><path d="M1500,1020L1500,1140L1620,1020Z" fill="#bd0d51" stroke="#bd0d51" stroke-width="1.51"/><path d="M1500,1020L1620,1020L1620,900Z" fill="#c50f53" stroke="#c50f53" stroke-width="1.51"/><path d="M1500,900L1500,1020L1620,900Z" fill="#cd1357" stroke="#cd1357" stroke-width="1.51"/><path d="M1500,900L1620,900L1620,780Z" fill="#d1165e" stroke="#d1165e" stroke-width="1.51"/><path d="M1500,780L1500,900L1620,780Z" fill="#d61a66" stroke="#d61a66" stroke-width="1.51"/><path d="M1500,780L1620,780L1620,660Z" fill="#d81d6f" stroke="#d81d6f" stroke-width="1.51"/><path d="M1500,660L1500,780L1620,660Z" fill="#db2875" stroke="#db2875" stroke-width="1.51"/><path d="M1500,660L1620,660L1620,540Z" fill="#d8377a" stroke="#d8377a" stroke-width="1.51"/><path d="M1500,540L1500,660L1620,540Z" fill="#da3e80" stroke="#da3e80" stroke-width="1.51"/><path d="M1500,540L1620,540L1620,420Z" fill="#d54a83" stroke="#d54a83" stroke-width="1.51"/><path d="M1500,420L1500,540L1620,420Z" fill="#d75287" stroke="#d75287" stroke-width="1.51"/><path d="M1500,420L1620,420L1620,300Z" fill="#d15c8a" stroke="#d15c8a" stroke-width="1.51"/><path d="M1500,300L1500,420L1620,300Z" fill="#d2628e" stroke="#d2628e" stroke-width="1.51"/><path d="M1500,300L1620,300L1620,180Z" fill="#d3698f" stroke="#d3698f" stroke-width="1.51"/><path d="M1500,180L1500,300L1620,180Z" fill="#d76f93" stroke="#d76f93" stroke-width="1.51"/><path d="M1500,180L1620,180L1620,60Z" fill="#d77695" stroke="#d77695" stroke-width="1.51"/><path d="M1500,60L1500,180L1620,60Z" fill="#dd7b99" stroke="#dd7b99" stroke-width="1.51"/><path d="M1500,60L1620,60L1620,-60Z" fill="#de839b" stroke="#de839b" stroke-width="1.51"/><path d="M1500,-60L1500,60L1620,-60Z" fill="#e4889f" stroke="#e4889f" stroke-width="1.51"/><path d="M1500,-60L1620,-60L1620,-180Z" fill="#e58ca0" stroke="#e58ca0" stroke-width="1.51"/><path d="M1500,-180L1500,-60L1620,-180Z" fill="#e98fa3" stroke="#e98fa3" stroke-width="1.51"/><path d="M1380,1260L1500,1260L1500,1140Z" fill="#ab0c4b" stroke="#ab0c4b" stroke-width="1.51"/><path d="M1380,1140L1380,1260L1500,1140Z" fill="#b10e52" stroke="#b10e52" stroke-width="1.51"/><path d="M1380,1140L1500,1140L1500,1020Z" fill="#bb0e56" stroke="#bb0e56" stroke-width="1.51"/><path d="M1380,1020L1380,1140L1500,1020Z" fill="#c2125b" stroke="#c2125b" stroke-width="1.51"/><path d="M1380,1020L1500,1020L1500,900Z" fill="#cb145c" stroke="#cb145c" stroke-width="1.51"/><path d="M1380,900L1380,1020L1500,900Z" fill="#d31761" stroke="#d31761" stroke-width="1.51"/><path d="M1380,900L1500,900L1500,780Z" fill="#d71b67" stroke="#d71b67" stroke-width="1.51"/><path d="M1380,780L1380,900L1500,780Z" fill="#db1f70" stroke="#db1f70" stroke-width="1.51"/><path d="M1380,780L1500,780L1500,660Z" fill="#df2178" stroke="#df2178" stroke-width="1.51"/><path d="M1380,660L1380,780L1500,660Z" fill="#e02c7f" stroke="#e02c7f" stroke-width="1.51"/><path d="M1380,660L1500,660L1500,540Z" fill="#de3a83" stroke="#de3a83" stroke-width="1.51"/><path d="M1380,540L1380,660L1500,540Z" fill="#de418a" stroke="#de418a" stroke-width="1.51"/><path d="M1380,540L1500,540L1500,420Z" fill="#db4d8d" stroke="#db4d8d" stroke-width="1.51"/><path d="M1380,420L1380,540L1500,420Z" fill="#db5593" stroke="#db5593" stroke-width="1.51"/><path d="M1380,420L1500,420L1500,300Z" fill="#d75f94" stroke="#d75f94" stroke-width="1.51"/><path d="M1380,300L1380,420L1500,300Z" fill="#d66699" stroke="#d66699" stroke-width="1.51"/><path d="M1380,300L1500,300L1500,180Z" fill="#d86d99" stroke="#d86d99" stroke-width="1.51"/><path d="M1380,180L1380,300L1500,180Z" fill="#db729f" stroke="#db729f" stroke-width="1.51"/><path d="M1380,180L1500,180L1500,60Z" fill="#dd799f" stroke="#dd799f" stroke-width="1.51"/><path d="M1380,60L1380,180L1500,60Z" fill="#e17fa4" stroke="#e17fa4" stroke-width="1.51"/><path d="M1380,60L1500,60L1500,-60Z" fill="#e486a5" stroke="#e486a5" stroke-width="1.51"/><path d="M1380,-60L1380,60L1500,-60Z" fill="#e88cab" stroke="#e88cab" stroke-width="1.51"/><path d="M1380,-60L1500,-60L1500,-180Z" fill="#ea8faa" stroke="#ea8faa" stroke-width="1.51"/><path d="M1380,-180L1380,-60L1500,-180Z" fill="#ed92ae" stroke="#ed92ae" stroke-width="1.51"/><path d="M1260,1260L1380,1260L1380,1140Z" fill="#af1155" stroke="#af1155" stroke-width="1.51"/><path d="M1260,1140L1260,1260L1380,1140Z" fill="#b6135c" stroke="#b6135c" stroke-width="1.51"/><path d="M1260,1140L1380,1140L1380,1020Z" fill="#c01460" stroke="#c01460" stroke-width="1.51"/><path d="M1260,1020L1260,1140L1380,1020Z" fill="#c71765" stroke="#c71765" stroke-width="1.51"/><path d="M1260,1020L1380,1020L1380,900Z" fill="#d11966" stroke="#d11966" stroke-width="1.51"/><path d="M1260,900L1260,1020L1380,900Z" fill="#d81c6c" stroke="#d81c6c" stroke-width="1.51"/><path d="M1260,900L1380,900L1380,780Z" fill="#dc1f72" stroke="#dc1f72" stroke-width="1.51"/><path d="M1260,780L1260,900L1380,780Z" fill="#e0237b" stroke="#e0237b" stroke-width="1.51"/><path d="M1260,780L1380,780L1380,660Z" fill="#e42682" stroke="#e42682" stroke-width="1.51"/><path d="M1260,660L1260,780L1380,660Z" fill="#e5308a" stroke="#e5308a" stroke-width="1.51"/><path d="M1260,660L1380,660L1380,540Z" fill="#e23d8e" stroke="#e23d8e" stroke-width="1.51"/><path d="M1260,540L1260,660L1380,540Z" fill="#e34595" stroke="#e34595" stroke-width="1.51"/><path d="M1260,540L1380,540L1380,420Z" fill="#e05198" stroke="#e05198" stroke-width="1.51"/><path d="M1260,420L1260,540L1380,420Z" fill="#df589e" stroke="#df589e" stroke-width="1.51"/><path d="M1260,420L1380,420L1380,300Z" fill="#db629f" stroke="#db629f" stroke-width="1.51"/><path d="M1260,300L1260,420L1380,300Z" fill="#da69a4" stroke="#da69a4" stroke-width="1.51"/><path d="M1260,300L1380,300L1380,180Z" fill="#dd70a4" stroke="#dd70a4" stroke-width="1.51"/><path d="M1260,180L1260,300L1380,180Z" fill="#df76aa" stroke="#df76aa" stroke-width="1.51"/><path d="M1260,180L1380,180L1380,60Z" fill="#e17daa" stroke="#e17daa" stroke-width="1.51"/><path d="M1260,60L1260,180L1380,60Z" fill="#e582b0" stroke="#e582b0" stroke-width="1.51"/><path d="M1260,60L1380,60L1380,-60Z" fill="#e88ab0" stroke="#e88ab0" stroke-width="1.51"/><path d="M1260,-60L1260,60L1380,-60Z" fill="#ec8fb6" stroke="#ec8fb6" stroke-width="1.51"/><path d="M1260,-60L1380,-60L1380,-180Z" fill="#ef93b5" stroke="#ef93b5" stroke-width="1.51"/><path d="M1260,-180L1260,-60L1380,-180Z" fill="#f196ba" stroke="#f196ba" stroke-width="1.51"/><path d="M1140,1260L1260,1260L1260,1140Z" fill="#b21b5e" stroke="#b21b5e" stroke-width="1.51"/><path d="M1140,1140L1140,1260L1260,1140Z" fill="#b72264" stroke="#b72264" stroke-width="1.51"/><path d="M1140,1140L1260,1140L1260,1020Z" fill="#c21e69" stroke="#c21e69" stroke-width="1.51"/><path d="M1140,1020L1140,1140L1260,1020Z" fill="#c8266d" stroke="#c8266d" stroke-width="1.51"/><path d="M1140,1020L1260,1020L1260,900Z" fill="#d3236f" stroke="#d3236f" stroke-width="1.51"/><path d="M1140,900L1140,1020L1260,900Z" fill="#d92b74" stroke="#d92b74" stroke-width="1.51"/><path d="M1140,900L1260,900L1260,780Z" fill="#df287b" stroke="#df287b" stroke-width="1.51"/><path d="M1140,780L1140,900L1260,780Z" fill="#e13183" stroke="#e13183" stroke-width="1.51"/><path d="M1140,780L1260,780L1260,660Z" fill="#e62e8c" stroke="#e62e8c" stroke-width="1.51"/><path d="M1140,660L1140,780L1260,660Z" fill="#e63b92" stroke="#e63b92" stroke-width="1.51"/><path d="M1140,660L1260,660L1260,540Z" fill="#e54497" stroke="#e54497" stroke-width="1.51"/><path d="M1140,540L1140,660L1260,540Z" fill="#e34e9e" stroke="#e34e9e" stroke-width="1.51"/><path d="M1140,540L1260,540L1260,420Z" fill="#e156a2" stroke="#e156a2" stroke-width="1.51"/><path d="M1140,420L1140,540L1260,420Z" fill="#df60a6" stroke="#df60a6" stroke-width="1.51"/><path d="M1140,420L1260,420L1260,300Z" fill="#dd67a9" stroke="#dd67a9" stroke-width="1.51"/><path d="M1140,300L1140,420L1260,300Z" fill="#da70ad" stroke="#da70ad" stroke-width="1.51"/><path d="M1140,300L1260,300L1260,180Z" fill="#de75ae" stroke="#de75ae" stroke-width="1.51"/><path d="M1140,180L1140,300L1260,180Z" fill="#de7cb3" stroke="#de7cb3" stroke-width="1.51"/><path d="M1140,180L1260,180L1260,60Z" fill="#e382b4" stroke="#e382b4" stroke-width="1.51"/><path d="M1140,60L1140,180L1260,60Z" fill="#e488b9" stroke="#e488b9" stroke-width="1.51"/><path d="M1140,60L1260,60L1260,-60Z" fill="#ea8fba" stroke="#ea8fba" stroke-width="1.51"/><path d="M1140,-60L1140,60L1260,-60Z" fill="#eb95bf" stroke="#eb95bf" stroke-width="1.51"/><path d="M1140,-60L1260,-60L1260,-180Z" fill="#f098bf" stroke="#f098bf" stroke-width="1.51"/><path d="M1140,-180L1140,-60L1260,-180Z" fill="#f09cc3" stroke="#f09cc3" stroke-width="1.51"/><path d="M1020,1260L1140,1260L1140,1140Z" fill="#b22b65" stroke="#b22b65" stroke-width="1.51"/><path d="M1020,1140L1020,1260L1140,1140Z" fill="#b6306b" stroke="#b6306b" stroke-width="1.51"/><path d="M1020,1140L1140,1140L1140,1020Z" fill="#c22e70" stroke="#c22e70" stroke-width="1.51"/><path d="M1020,1020L1020,1140L1140,1020Z" fill="#c73475" stroke="#c73475" stroke-width="1.51"/><path d="M1020,1020L1140,1020L1140,900Z" fill="#d33376" stroke="#d33376" stroke-width="1.51"/><path d="M1020,900L1020,1020L1140,900Z" fill="#d8397b" stroke="#d8397b" stroke-width="1.51"/><path d="M1020,900L1140,900L1140,780Z" fill="#de3883" stroke="#de3883" stroke-width="1.51"/><path d="M1020,780L1020,900L1140,780Z" fill="#e03f8b" stroke="#e03f8b" stroke-width="1.51"/><path d="M1020,780L1140,780L1140,660Z" fill="#e53e93" stroke="#e53e93" stroke-width="1.51"/><path d="M1020,660L1020,780L1140,660Z" fill="#e4489a" stroke="#e4489a" stroke-width="1.51"/><path d="M1020,660L1140,660L1140,540Z" fill="#e4509f" stroke="#e4509f" stroke-width="1.51"/><path d="M1020,540L1020,660L1140,540Z" fill="#e258a5" stroke="#e258a5" stroke-width="1.51"/><path d="M1020,540L1140,540L1140,420Z" fill="#e060a9" stroke="#e060a9" stroke-width="1.51"/><path d="M1020,420L1020,540L1140,420Z" fill="#dd69ae" stroke="#dd69ae" stroke-width="1.51"/><path d="M1020,420L1140,420L1140,300Z" fill="#db70b0" stroke="#db70b0" stroke-width="1.51"/><path d="M1020,300L1020,420L1140,300Z" fill="#d778b5" stroke="#d778b5" stroke-width="1.51"/><path d="M1020,300L1140,300L1140,180Z" fill="#dc7db6" stroke="#dc7db6" stroke-width="1.51"/><path d="M1020,180L1020,300L1140,180Z" fill="#dc84bb" stroke="#dc84bb" stroke-width="1.51"/><path d="M1020,180L1140,180L1140,60Z" fill="#e08abc" stroke="#e08abc" stroke-width="1.51"/><path d="M1020,60L1020,180L1140,60Z" fill="#e190c1" stroke="#e190c1" stroke-width="1.51"/><path d="M1020,60L1140,60L1140,-60Z" fill="#e796c2" stroke="#e796c2" stroke-width="1.51"/><path d="M1020,-60L1020,60L1140,-60Z" fill="#e89dc7" stroke="#e89dc7" stroke-width="1.51"/><path d="M1020,-60L1140,-60L1140,-180Z" fill="#ed9fc7" stroke="#ed9fc7" stroke-width="1.51"/><path d="M1020,-180L1020,-60L1140,-180Z" fill="#eda4cb" stroke="#eda4cb" stroke-width="1.51"/><path d="M900,1260L1020,1260L1020,1140Z" fill="#b0376c" stroke="#b0376c" stroke-width="1.51"/><path d="M900,1140L900,1260L1020,1140Z" fill="#b53c72" stroke="#b53c72" stroke-width="1.51"/><path d="M900,1140L1020,1140L1020,1020Z" fill="#c13b77" stroke="#c13b77" stroke-width="1.51"/><path d="M900,1020L900,1140L1020,1020Z" fill="#c6417c" stroke="#c6417c" stroke-width="1.51"/><path d="M900,1020L1020,1020L1020,900Z" fill="#d2407e" stroke="#d2407e" stroke-width="1.51"/><path d="M900,900L900,1020L1020,900Z" fill="#d74682" stroke="#d74682" stroke-width="1.51"/><path d="M900,900L1020,900L1020,780Z" fill="#dd458a" stroke="#dd458a" stroke-width="1.51"/><path d="M900,780L900,900L1020,780Z" fill="#de4b92" stroke="#de4b92" stroke-width="1.51"/><path d="M900,780L1020,780L1020,660Z" fill="#e44a9b" stroke="#e44a9b" stroke-width="1.51"/><path d="M900,660L900,780L1020,660Z" fill="#e353a1" stroke="#e353a1" stroke-width="1.51"/><path d="M900,660L1020,660L1020,540Z" fill="#e25aa6" stroke="#e25aa6" stroke-width="1.51"/><path d="M900,540L900,660L1020,540Z" fill="#e062ad" stroke="#e062ad" stroke-width="1.51"/><path d="M900,540L1020,540L1020,420Z" fill="#de69b1" stroke="#de69b1" stroke-width="1.51"/><path d="M900,420L900,540L1020,420Z" fill="#db72b5" stroke="#db72b5" stroke-width="1.51"/><path d="M900,420L1020,420L1020,300Z" fill="#d878b8" stroke="#d878b8" stroke-width="1.51"/><path d="M900,300L900,420L1020,300Z" fill="#d480bc" stroke="#d480bc" stroke-width="1.51"/><path d="M900,300L1020,300L1020,180Z" fill="#d985be" stroke="#d985be" stroke-width="1.51"/><path d="M900,180L900,300L1020,180Z" fill="#d98cc2" stroke="#d98cc2" stroke-width="1.51"/><path d="M900,180L1020,180L1020,60Z" fill="#dd91c4" stroke="#dd91c4" stroke-width="1.51"/><path d="M900,60L900,180L1020,60Z" fill="#de98c8" stroke="#de98c8" stroke-width="1.51"/><path d="M900,60L1020,60L1020,-60Z" fill="#e49eca" stroke="#e49eca" stroke-width="1.51"/><path d="M900,-60L900,60L1020,-60Z" fill="#e5a5cf" stroke="#e5a5cf" stroke-width="1.51"/><path d="M900,-60L1020,-60L1020,-180Z" fill="#eaa7cf" stroke="#eaa7cf" stroke-width="1.51"/><path d="M900,-180L900,-60L1020,-180Z" fill="#eaacd3" stroke="#eaacd3" stroke-width="1.51"/><path d="M780,1260L900,1260L900,1140Z" fill="#ae4271" stroke="#ae4271" stroke-width="1.51"/><path d="M780,1140L780,1260L900,1140Z" fill="#b24776" stroke="#b24776" stroke-width="1.51"/><path d="M780,1140L900,1140L900,1020Z" fill="#be477c" stroke="#be477c" stroke-width="1.51"/><path d="M780,1020L780,1140L900,1020Z" fill="#c34c80" stroke="#c34c80" stroke-width="1.51"/><path d="M780,1020L900,1020L900,900Z" fill="#cf4c83" stroke="#cf4c83" stroke-width="1.51"/><path d="M780,900L780,1020L900,900Z" fill="#d45286" stroke="#d45286" stroke-width="1.51"/><path d="M780,900L900,900L900,780Z" fill="#da518f" stroke="#da518f" stroke-width="1.51"/><path d="M780,780L780,900L900,780Z" fill="#db5796" stroke="#db5796" stroke-width="1.51"/><path d="M780,780L900,780L900,660Z" fill="#e156a0" stroke="#e156a0" stroke-width="1.51"/><path d="M780,660L780,780L900,660Z" fill="#df5fa6" stroke="#df5fa6" stroke-width="1.51"/><path d="M780,660L900,660L900,540Z" fill="#de65ac" stroke="#de65ac" stroke-width="1.51"/><path d="M780,540L780,660L900,540Z" fill="#dc6cb1" stroke="#dc6cb1" stroke-width="1.51"/><path d="M780,540L900,540L900,420Z" fill="#da73b6" stroke="#da73b6" stroke-width="1.51"/><path d="M780,420L780,540L900,420Z" fill="#d77bba" stroke="#d77bba" stroke-width="1.51"/><path d="M780,420L900,420L900,300Z" fill="#d481bd" stroke="#d481bd" stroke-width="1.51"/><path d="M780,300L780,420L900,300Z" fill="#d089c1" stroke="#d089c1" stroke-width="1.51"/><path d="M780,300L900,300L900,180Z" fill="#d48ec3" stroke="#d48ec3" stroke-width="1.51"/><path d="M780,180L780,300L900,180Z" fill="#d495c7" stroke="#d495c7" stroke-width="1.51"/><path d="M780,180L900,180L900,60Z" fill="#d89ac9" stroke="#d89ac9" stroke-width="1.51"/><path d="M780,60L780,180L900,60Z" fill="#d9a0cd" stroke="#d9a0cd" stroke-width="1.51"/><path d="M780,60L900,60L900,-60Z" fill="#dfa6d0" stroke="#dfa6d0" stroke-width="1.51"/><path d="M780,-60L780,60L900,-60Z" fill="#dfadd3" stroke="#dfadd3" stroke-width="1.51"/><path d="M780,-60L900,-60L900,-180Z" fill="#e5afd5" stroke="#e5afd5" stroke-width="1.51"/><path d="M780,-180L780,-60L900,-180Z" fill="#e5b4d7" stroke="#e5b4d7" stroke-width="1.51"/><path d="M660,1260L780,1260L780,1140Z" fill="#ab4d75" stroke="#ab4d75" stroke-width="1.51"/><path d="M660,1140L660,1260L780,1140Z" fill="#af527a" stroke="#af527a" stroke-width="1.51"/><path d="M660,1140L780,1140L780,1020Z" fill="#bb5280" stroke="#bb5280" stroke-width="1.51"/><path d="M660,1020L660,1140L780,1020Z" fill="#bf5784" stroke="#bf5784" stroke-width="1.51"/><path d="M660,1020L780,1020L780,900Z" fill="#cc5887" stroke="#cc5887" stroke-width="1.51"/><path d="M660,900L660,1020L780,900Z" fill="#d15d8a" stroke="#d15d8a" stroke-width="1.51"/><path d="M660,900L780,900L780,780Z" fill="#d75d93" stroke="#d75d93" stroke-width="1.51"/><path d="M660,780L660,900L780,780Z" fill="#d8629a" stroke="#d8629a" stroke-width="1.51"/><path d="M660,780L780,780L780,660Z" fill="#de62a4" stroke="#de62a4" stroke-width="1.51"/><path d="M660,660L660,780L780,660Z" fill="#dc6aaa" stroke="#dc6aaa" stroke-width="1.51"/><path d="M660,660L780,660L780,540Z" fill="#db70b0" stroke="#db70b0" stroke-width="1.51"/><path d="M660,540L660,660L780,540Z" fill="#d876b6" stroke="#d876b6" stroke-width="1.51"/><path d="M660,540L780,540L780,420Z" fill="#d67dbb" stroke="#d67dbb" stroke-width="1.51"/><path d="M660,420L660,540L780,420Z" fill="#d284be" stroke="#d284be" stroke-width="1.51"/><path d="M660,420L780,420L780,300Z" fill="#cf8bc2" stroke="#cf8bc2" stroke-width="1.51"/><path d="M660,300L660,420L780,300Z" fill="#cb92c5" stroke="#cb92c5" stroke-width="1.51"/><path d="M660,300L780,300L780,180Z" fill="#cf97c8" stroke="#cf97c8" stroke-width="1.51"/><path d="M660,180L660,300L780,180Z" fill="#ce9dcb" stroke="#ce9dcb" stroke-width="1.51"/><path d="M660,180L780,180L780,60Z" fill="#d3a2ce" stroke="#d3a2ce" stroke-width="1.51"/><path d="M660,60L660,180L780,60Z" fill="#d3a9d1" stroke="#d3a9d1" stroke-width="1.51"/><path d="M660,60L780,60L780,-60Z" fill="#d9afd4" stroke="#d9afd4" stroke-width="1.51"/><path d="M660,-60L660,60L780,-60Z" fill="#d9b5d8" stroke="#d9b5d8" stroke-width="1.51"/><path d="M660,-60L780,-60L780,-180Z" fill="#dfb8d9" stroke="#dfb8d9" stroke-width="1.51"/><path d="M660,-180L660,-60L780,-180Z" fill="#debcdc" stroke="#debcdc" stroke-width="1.51"/><path d="M540,1260L660,1260L660,1140Z" fill="#aa5679" stroke="#aa5679" stroke-width="1.51"/><path d="M540,1140L540,1260L660,1140Z" fill="#b05b7e" stroke="#b05b7e" stroke-width="1.51"/><path d="M540,1140L660,1140L660,1020Z" fill="#ba5c84" stroke="#ba5c84" stroke-width="1.51"/><path d="M540,1020L540,1140L660,1020Z" fill="#c16087" stroke="#c16087" stroke-width="1.51"/><path d="M540,1020L660,1020L660,900Z" fill="#cb618b" stroke="#cb618b" stroke-width="1.51"/><path d="M540,900L540,1020L660,900Z" fill="#d2668e" stroke="#d2668e" stroke-width="1.51"/><path d="M540,900L660,900L660,780Z" fill="#d66797" stroke="#d66797" stroke-width="1.51"/><path d="M540,780L540,900L660,780Z" fill="#d96b9e" stroke="#d96b9e" stroke-width="1.51"/><path d="M540,780L660,780L660,660Z" fill="#dc6ca9" stroke="#dc6ca9" stroke-width="1.51"/><path d="M540,660L540,780L660,660Z" fill="#dd73ae" stroke="#dd73ae" stroke-width="1.51"/><path d="M540,660L660,660L660,540Z" fill="#d979b5" stroke="#d979b5" stroke-width="1.51"/><path d="M540,540L540,660L660,540Z" fill="#d87fba" stroke="#d87fba" stroke-width="1.51"/><path d="M540,540L660,540L660,420Z" fill="#d485bf" stroke="#d485bf" stroke-width="1.51"/><path d="M540,420L540,540L660,420Z" fill="#d28dc2" stroke="#d28dc2" stroke-width="1.51"/><path d="M540,420L660,420L660,300Z" fill="#cd93c6" stroke="#cd93c6" stroke-width="1.51"/><path d="M540,300L540,420L660,300Z" fill="#cb9ac9" stroke="#cb9ac9" stroke-width="1.51"/><path d="M540,300L660,300L660,180Z" fill="#cd9fcc" stroke="#cd9fcc" stroke-width="1.51"/><path d="M540,180L540,300L660,180Z" fill="#cea5cf" stroke="#cea5cf" stroke-width="1.51"/><path d="M540,180L660,180L660,60Z" fill="#d0aad2" stroke="#d0aad2" stroke-width="1.51"/><path d="M540,60L540,180L660,60Z" fill="#d3b0d5" stroke="#d3b0d5" stroke-width="1.51"/><path d="M540,60L660,60L660,-60Z" fill="#d6b6d9" stroke="#d6b6d9" stroke-width="1.51"/><path d="M540,-60L540,60L660,-60Z" fill="#d9bddc" stroke="#d9bddc" stroke-width="1.51"/><path d="M540,-60L660,-60L660,-180Z" fill="#dcbfde" stroke="#dcbfde" stroke-width="1.51"/><path d="M540,-180L540,-60L660,-180Z" fill="#dec4e0" stroke="#dec4e0" stroke-width="1.51"/><path d="M420,1260L540,1260L540,1140Z" fill="#ac5e7c" stroke="#ac5e7c" stroke-width="1.51"/><path d="M420,1140L420,1260L540,1140Z" fill="#b36281" stroke="#b36281" stroke-width="1.51"/><path d="M420,1140L540,1140L540,1020Z" fill="#bd6487" stroke="#bd6487" stroke-width="1.51"/><path d="M420,1020L420,1140L540,1020Z" fill="#c4688b" stroke="#c4688b" stroke-width="1.51"/><path d="M420,1020L540,1020L540,900Z" fill="#ce6a8e" stroke="#ce6a8e" stroke-width="1.51"/><path d="M420,900L420,1020L540,900Z" fill="#d56e92" stroke="#d56e92" stroke-width="1.51"/><path d="M420,900L540,900L540,780Z" fill="#d96f9b" stroke="#d96f9b" stroke-width="1.51"/><path d="M420,780L420,900L540,780Z" fill="#dc74a2" stroke="#dc74a2" stroke-width="1.51"/><path d="M420,780L540,780L540,660Z" fill="#df74ac" stroke="#df74ac" stroke-width="1.51"/><path d="M420,660L420,780L540,660Z" fill="#e07bb2" stroke="#e07bb2" stroke-width="1.51"/><path d="M420,660L540,660L540,540Z" fill="#dc81b8" stroke="#dc81b8" stroke-width="1.51"/><path d="M420,540L420,660L540,540Z" fill="#db87be" stroke="#db87be" stroke-width="1.51"/><path d="M420,540L540,540L540,420Z" fill="#d68dc3" stroke="#d68dc3" stroke-width="1.51"/><path d="M420,420L420,540L540,420Z" fill="#d594c6" stroke="#d594c6" stroke-width="1.51"/><path d="M420,420L540,420L540,300Z" fill="#cf9aca" stroke="#cf9aca" stroke-width="1.51"/><path d="M420,300L420,420L540,300Z" fill="#cda1cd" stroke="#cda1cd" stroke-width="1.51"/><path d="M420,300L540,300L540,180Z" fill="#cfa6d0" stroke="#cfa6d0" stroke-width="1.51"/><path d="M420,180L420,300L540,180Z" fill="#d0acd3" stroke="#d0acd3" stroke-width="1.51"/><path d="M420,180L540,180L540,60Z" fill="#d2b1d6" stroke="#d2b1d6" stroke-width="1.51"/><path d="M420,60L420,180L540,60Z" fill="#d5b8d9" stroke="#d5b8d9" stroke-width="1.51"/><path d="M420,60L540,60L540,-60Z" fill="#d8bedc" stroke="#d8bedc" stroke-width="1.51"/><path d="M420,-60L420,60L540,-60Z" fill="#dbc4e0" stroke="#dbc4e0" stroke-width="1.51"/><path d="M420,-60L540,-60L540,-180Z" fill="#dec7e1" stroke="#dec7e1" stroke-width="1.51"/><path d="M420,-180L420,-60L540,-180Z" fill="#e0cbe4" stroke="#e0cbe4" stroke-width="1.51"/><path d="M300,1260L420,1260L420,1140Z" fill="#af6680" stroke="#af6680" stroke-width="1.51"/><path d="M300,1140L300,1260L420,1140Z" fill="#b66a85" stroke="#b66a85" stroke-width="1.51"/><path d="M300,1140L420,1140L420,1020Z" fill="#bf6b8b" stroke="#bf6b8b" stroke-width="1.51"/><path d="M300,1020L300,1140L420,1020Z" fill="#c7708e" stroke="#c7708e" stroke-width="1.51"/><path d="M300,1020L420,1020L420,900Z" fill="#d17292" stroke="#d17292" stroke-width="1.51"/><path d="M300,900L300,1020L420,900Z" fill="#d87795" stroke="#d87795" stroke-width="1.51"/><path d="M300,900L420,900L420,780Z" fill="#dc779e" stroke="#dc779e" stroke-width="1.51"/><path d="M300,780L300,900L420,780Z" fill="#df7ca5" stroke="#df7ca5" stroke-width="1.51"/><path d="M300,780L420,780L420,660Z" fill="#e27db0" stroke="#e27db0" stroke-width="1.51"/><path d="M300,660L300,780L420,660Z" fill="#e383b5" stroke="#e383b5" stroke-width="1.51"/><path d="M300,660L420,660L420,540Z" fill="#df89bc" stroke="#df89bc" stroke-width="1.51"/><path d="M300,540L300,660L420,540Z" fill="#de8fc1" stroke="#de8fc1" stroke-width="1.51"/><path d="M300,540L420,540L420,420Z" fill="#d995c7" stroke="#d995c7" stroke-width="1.51"/><path d="M300,420L300,540L420,420Z" fill="#d79cca" stroke="#d79cca" stroke-width="1.51"/><path d="M300,420L420,420L420,300Z" fill="#d1a2ce" stroke="#d1a2ce" stroke-width="1.51"/><path d="M300,300L300,420L420,300Z" fill="#cfa9d1" stroke="#cfa9d1" stroke-width="1.51"/><path d="M300,300L420,300L420,180Z" fill="#d1aed4" stroke="#d1aed4" stroke-width="1.51"/><path d="M300,180L300,300L420,180Z" fill="#d3b4d7" stroke="#d3b4d7" stroke-width="1.51"/><path d="M300,180L420,180L420,60Z" fill="#d4b9da" stroke="#d4b9da" stroke-width="1.51"/><path d="M300,60L300,180L420,60Z" fill="#d7bfdd" stroke="#d7bfdd" stroke-width="1.51"/><path d="M300,60L420,60L420,-60Z" fill="#dac5e0" stroke="#dac5e0" stroke-width="1.51"/><path d="M300,-60L300,60L420,-60Z" fill="#ddcce3" stroke="#ddcce3" stroke-width="1.51"/><path d="M300,-60L420,-60L420,-180Z" fill="#e0cee5" stroke="#e0cee5" stroke-width="1.51"/><path d="M300,-180L300,-60L420,-180Z" fill="#e2d3e7" stroke="#e2d3e7" stroke-width="1.51"/><path d="M180,1260L300,1260L300,1140Z" fill="#b36d83" stroke="#b36d83" stroke-width="1.51"/><path d="M180,1140L180,1260L300,1140Z" fill="#ba7289" stroke="#ba7289" stroke-width="1.51"/><path d="M180,1140L300,1140L300,1020Z" fill="#c3738f" stroke="#c3738f" stroke-width="1.51"/><path d="M180,1020L180,1140L300,1020Z" fill="#cb7892" stroke="#cb7892" stroke-width="1.51"/><path d="M180,1020L300,1020L300,900Z" fill="#d57a96" stroke="#d57a96" stroke-width="1.51"/><path d="M180,900L180,1020L300,900Z" fill="#dd7f99" stroke="#dd7f99" stroke-width="1.51"/><path d="M180,900L300,900L300,780Z" fill="#e07fa2" stroke="#e07fa2" stroke-width="1.51"/><path d="M180,780L180,900L300,780Z" fill="#e484a9" stroke="#e484a9" stroke-width="1.51"/><path d="M180,780L300,780L300,660Z" fill="#e684b4" stroke="#e684b4" stroke-width="1.51"/><path d="M180,660L180,780L300,660Z" fill="#e78bba" stroke="#e78bba" stroke-width="1.51"/><path d="M180,660L300,660L300,540Z" fill="#e390c0" stroke="#e390c0" stroke-width="1.51"/><path d="M180,540L180,660L300,540Z" fill="#e397c6" stroke="#e397c6" stroke-width="1.51"/><path d="M180,540L300,540L300,420Z" fill="#dd9dcb" stroke="#dd9dcb" stroke-width="1.51"/><path d="M180,420L180,540L300,420Z" fill="#dca4ce" stroke="#dca4ce" stroke-width="1.51"/><path d="M180,420L300,420L300,300Z" fill="#d5a9d2" stroke="#d5a9d2" stroke-width="1.51"/><path d="M180,300L180,420L300,300Z" fill="#d3b0d5" stroke="#d3b0d5" stroke-width="1.51"/><path d="M180,300L300,300L300,180Z" fill="#d4b5d8" stroke="#d4b5d8" stroke-width="1.51"/><path d="M180,180L180,300L300,180Z" fill="#d7bcdb" stroke="#d7bcdb" stroke-width="1.51"/><path d="M180,180L300,180L300,60Z" fill="#d8c0de" stroke="#d8c0de" stroke-width="1.51"/><path d="M180,60L180,180L300,60Z" fill="#dbc7e1" stroke="#dbc7e1" stroke-width="1.51"/><path d="M180,60L300,60L300,-60Z" fill="#decde4" stroke="#decde4" stroke-width="1.51"/><path d="M180,-60L180,60L300,-60Z" fill="#e1d4e8" stroke="#e1d4e8" stroke-width="1.51"/><path d="M180,-60L300,-60L300,-180Z" fill="#e3d6e9" stroke="#e3d6e9" stroke-width="1.51"/><path d="M180,-180L180,-60L300,-180Z" fill="#e6dbec" stroke="#e6dbec" stroke-width="1.51"/><path d="M60,1260L180,1260L180,1140Z" fill="#b87587" stroke="#b87587" stroke-width="1.51"/><path d="M60,1140L60,1260L180,1140Z" fill="#bf7a8c" stroke="#bf7a8c" stroke-width="1.51"/><path d="M60,1140L180,1140L180,1020Z" fill="#c87b92" stroke="#c87b92" stroke-width="1.51"/><path d="M60,1020L60,1140L180,1020Z" fill="#d08096" stroke="#d08096" stroke-width="1.51"/><path d="M60,1020L180,1020L180,900Z" fill="#da8299" stroke="#da8299" stroke-width="1.51"/><path d="M60,900L60,1020L180,900Z" fill="#e1879d" stroke="#e1879d" stroke-width="1.51"/><path d="M60,900L180,900L180,780Z" fill="#e588a6" stroke="#e588a6" stroke-width="1.51"/><path d="M60,780L60,900L180,780Z" fill="#e98cad" stroke="#e98cad" stroke-width="1.51"/><path d="M60,780L180,780L180,660Z" fill="#eb8db8" stroke="#eb8db8" stroke-width="1.51"/><path d="M60,660L60,780L180,660Z" fill="#ec94bd" stroke="#ec94bd" stroke-width="1.51"/><path d="M60,660L180,660L180,540Z" fill="#e798c4" stroke="#e798c4" stroke-width="1.51"/><path d="M60,540L60,660L180,540Z" fill="#e79fca" stroke="#e79fca" stroke-width="1.51"/><path d="M60,540L180,540L180,420Z" fill="#e1a5cf" stroke="#e1a5cf" stroke-width="1.51"/><path d="M60,420L60,540L180,420Z" fill="#e0acd2" stroke="#e0acd2" stroke-width="1.51"/><path d="M60,420L180,420L180,300Z" fill="#d9b1d6" stroke="#d9b1d6" stroke-width="1.51"/><path d="M60,300L60,420L180,300Z" fill="#d8b8d9" stroke="#d8b8d9" stroke-width="1.51"/><path d="M60,300L180,300L180,180Z" fill="#d8bddc" stroke="#d8bddc" stroke-width="1.51"/><path d="M60,180L60,300L180,180Z" fill="#dbc4df" stroke="#dbc4df" stroke-width="1.51"/><path d="M60,180L180,180L180,60Z" fill="#dcc8e2" stroke="#dcc8e2" stroke-width="1.51"/><path d="M60,60L60,180L180,60Z" fill="#dfcfe5" stroke="#dfcfe5" stroke-width="1.51"/><path d="M60,60L180,60L180,-60Z" fill="#e2d5e8" stroke="#e2d5e8" stroke-width="1.51"/><path d="M60,-60L60,60L180,-60Z" fill="#e5dcec" stroke="#e5dcec" stroke-width="1.51"/><path d="M60,-60L180,-60L180,-180Z" fill="#e7deed" stroke="#e7deed" stroke-width="1.51"/><path d="M60,-180L60,-60L180,-180Z" fill="#eae3f0" stroke="#eae3f0" stroke-width="1.51"/><path d="M-60,1260L60,1260L60,1140Z" fill="#bb7c8a" stroke="#bb7c8a" stroke-width="1.51"/><path d="M-60,1140L-60,1260L60,1140Z" fill="#c27e8f" stroke="#c27e8f" stroke-width="1.51"/><path d="M-60,1140L60,1140L60,1020Z" fill="#cc8296" stroke="#cc8296" stroke-width="1.51"/><path d="M-60,1020L-60,1140L60,1020Z" fill="#d38599" stroke="#d38599" stroke-width="1.51"/><path d="M-60,1020L60,1020L60,900Z" fill="#de899c" stroke="#de899c" stroke-width="1.51"/><path d="M-60,900L-60,1020L60,900Z" fill="#e58ca0" stroke="#e58ca0" stroke-width="1.51"/><path d="M-60,900L60,900L60,780Z" fill="#e98fa9" stroke="#e98fa9" stroke-width="1.51"/><path d="M-60,780L-60,900L60,780Z" fill="#ec91b0" stroke="#ec91b0" stroke-width="1.51"/><path d="M-60,780L60,780L60,660Z" fill="#ef94bb" stroke="#ef94bb" stroke-width="1.51"/><path d="M-60,660L-60,780L60,660Z" fill="#ef99c0" stroke="#ef99c0" stroke-width="1.51"/><path d="M-60,660L60,660L60,540Z" fill="#eba0c7" stroke="#eba0c7" stroke-width="1.51"/><path d="M-60,540L-60,660L60,540Z" fill="#eaa4cc" stroke="#eaa4cc" stroke-width="1.51"/><path d="M-60,540L60,540L60,420Z" fill="#e5acd2" stroke="#e5acd2" stroke-width="1.51"/><path d="M-60,420L-60,540L60,420Z" fill="#e3b1d5" stroke="#e3b1d5" stroke-width="1.51"/><path d="M-60,420L60,420L60,300Z" fill="#ddb8d9" stroke="#ddb8d9" stroke-width="1.51"/><path d="M-60,300L-60,420L60,300Z" fill="#dbbddc" stroke="#dbbddc" stroke-width="1.51"/><path d="M-60,300L60,300L60,180Z" fill="#dcc4df" stroke="#dcc4df" stroke-width="1.51"/><path d="M-60,180L-60,300L60,180Z" fill="#dec9e2" stroke="#dec9e2" stroke-width="1.51"/><path d="M-60,180L60,180L60,60Z" fill="#dfcfe5" stroke="#dfcfe5" stroke-width="1.51"/><path d="M-60,60L-60,180L60,60Z" fill="#e2d4e8" stroke="#e2d4e8" stroke-width="1.51"/><path d="M-60,60L60,60L60,-60Z" fill="#e5dcec" stroke="#e5dcec" stroke-width="1.51"/><path d="M-60,-60L-60,60L60,-60Z" fill="#e8e1ef" stroke="#e8e1ef" stroke-width="1.51"/><path d="M-60,-60L60,-60L60,-180Z" fill="#eae5f1" stroke="#eae5f1" stroke-width="1.51"/><path d="M-60,-180L-60,-60L60,-180Z" fill="#ede8f3" stroke="#ede8f3" stroke-width="1.51"/><path d="M-180,1260L-60,1260L-60,1140Z" fill="#bf7f8c" stroke="#bf7f8c" stroke-width="1.51"/><path d="M-180,1140L-180,1260L-60,1140Z" fill="#c58291" stroke="#c58291" stroke-width="1.51"/><path d="M-180,1140L-60,1140L-60,1020Z" fill="#cf8597" stroke="#cf8597" stroke-width="1.51"/><path d="M-180,1020L-180,1140L-60,1020Z" fill="#d6899b" stroke="#d6899b" stroke-width="1.51"/><path d="M-180,1020L-60,1020L-60,900Z" fill="#e18c9e" stroke="#e18c9e" stroke-width="1.51"/><path d="M-180,900L-180,1020L-60,900Z" fill="#e890a1" stroke="#e890a1" stroke-width="1.51"/><path d="M-180,900L-60,900L-60,780Z" fill="#ec92ab" stroke="#ec92ab" stroke-width="1.51"/><path d="M-180,780L-180,900L-60,780Z" fill="#f095b2" stroke="#f095b2" stroke-width="1.51"/><path d="M-180,780L-60,780L-60,660Z" fill="#f397bd" stroke="#f397bd" stroke-width="1.51"/><path d="M-180,660L-180,780L-60,660Z" fill="#f39dc2" stroke="#f39dc2" stroke-width="1.51"/><path d="M-180,660L-60,660L-60,540Z" fill="#efa3c9" stroke="#efa3c9" stroke-width="1.51"/><path d="M-180,540L-180,660L-60,540Z" fill="#eea8ce" stroke="#eea8ce" stroke-width="1.51"/><path d="M-180,540L-60,540L-60,420Z" fill="#e8afd4" stroke="#e8afd4" stroke-width="1.51"/><path d="M-180,420L-180,540L-60,420Z" fill="#e7b5d7" stroke="#e7b5d7" stroke-width="1.51"/><path d="M-180,420L-60,420L-60,300Z" fill="#e0bbdb" stroke="#e0bbdb" stroke-width="1.51"/><path d="M-180,300L-180,420L-60,300Z" fill="#dec1de" stroke="#dec1de" stroke-width="1.51"/><path d="M-180,300L-60,300L-60,180Z" fill="#dfc7e1" stroke="#dfc7e1" stroke-width="1.51"/><path d="M-180,180L-180,300L-60,180Z" fill="#e1cde4" stroke="#e1cde4" stroke-width="1.51"/><path d="M-180,180L-60,180L-60,60Z" fill="#e3d3e7" stroke="#e3d3e7" stroke-width="1.51"/><path d="M-180,60L-180,180L-60,60Z" fill="#e6d8ea" stroke="#e6d8ea" stroke-width="1.51"/><path d="M-180,60L-60,60L-60,-60Z" fill="#e9dfee" stroke="#e9dfee" stroke-width="1.51"/><path d="M-180,-60L-180,60L-60,-60Z" fill="#ebe5f1" stroke="#ebe5f1" stroke-width="1.51"/><path d="M-180,-60L-60,-60L-60,-180Z" fill="#eee8f3" stroke="#eee8f3" stroke-width="1.51"/><path d="M-180,-180L-180,-60L-60,-180Z" fill="#f0ecf5" stroke="#f0ecf5" stroke-width="1.51"/></svg>