<svg xmlns="http://www.w3.org/2000/svg" width="1920" height="1080"><path d="M1980,1260L2100,1260L2100,1140Z" fill="#005522" stroke="#005522" stroke-width="1.51"/><path d="M1980,1140L1980,1260L2100,1140Z" fill="#005c25" stroke="#005c25" stroke-width="1.51"/><path d="M1980,1140L2100,1140L2100,1020Z" fill="#026128" stroke="#026128" stroke-width="1.51"/><path d="M1980,1020L1980,1140L2100,1020Z" fill="#06672b" stroke="#06672b" stroke-width="1.51"/><path d="M1980,1020L2100,1020L2100,900Z" fill="#0e692f" stroke="#0e692f" stroke-width="1.51"/><path d="M1980,900L1980,1020L2100,900Z" fill="#127033" stroke="#127033" stroke-width="1.51"/><path d="M1980,900L2100,900L2100,780Z" fill="#19733b" stroke="#19733b" stroke-width="1.51"/><path d="M1980,780L1980,900L2100,780Z" fill="#1d7a41" stroke="#1d7a41" stroke-width="1.51"/><path d="M1980,780L2100,780L2100,660Z" fill="#227e49" stroke="#227e49" stroke-width="1.51"/><path d="M1980,660L1980,780L2100,660Z" fill="#28834f" stroke="#28834f" stroke-width="1.51"/><path d="M1980,660L2100,660L2100,540Z" fill="#308457" stroke="#308457" stroke-width="1.51"/><path d="M1980,540L1980,660L2100,540Z" fill="#35895c" stroke="#35895c" stroke-width="1.51"/><path d="M1980,540L2100,540L2100,420Z" fill="#3d8a63" stroke="#3d8a63" stroke-width="1.51"/><path d="M1980,420L1980,540L2100,420Z" fill="#458f68" stroke="#458f68" stroke-width="1.51"/><path d="M1980,420L2100,420L2100,300Z" fill="#4e906d" stroke="#4e906d" stroke-width="1.51"/><path d="M1980,300L1980,420L2100,300Z" fill="#549672" stroke="#549672" stroke-width="1.51"/><path d="M1980,300L2100,300L2100,180Z" fill="#5e9676" stroke="#5e9676" stroke-width="1.51"/><path d="M1980,180L1980,300L2100,180Z" fill="#649c7b" stroke="#649c7b" stroke-width="1.51"/><path d="M1980,180L2100,180L2100,60Z" fill="#6c9c7e" stroke="#6c9c7e" stroke-width="1.51"/><path d="M1980,60L1980,180L2100,60Z" fill="#70a081" stroke="#70a081" stroke-width="1.51"/><path d="M1980,60L2100,60L2100,-60Z" fill="#749f84" stroke="#749f84" stroke-width="1.51"/><path d="M1980,-60L1980,60L2100,-60Z" fill="#78a387" stroke="#78a387" stroke-width="1.51"/><path d="M1980,-60L2100,-60L2100,-180Z" fill="#7aa187" stroke="#7aa187" stroke-width="1.51"/><path d="M1980,-180L1980,-60L2100,-180Z" fill="#7ea589" stroke="#7ea589" stroke-width="1.51"/><path d="M1860,1260L1980,1260L1980,1140Z" fill="#005d25" stroke="#005d25" stroke-width="1.51"/><path d="M1860,1140L1860,1260L1980,1140Z" fill="#006428" stroke="#006428" stroke-width="1.51"/><path d="M1860,1140L1980,1140L1980,1020Z" fill="#02692b" stroke="#02692b" stroke-width="1.51"/><path d="M1860,1020L1860,1140L1980,1020Z" fill="#076f2f" stroke="#076f2f" stroke-width="1.51"/><path d="M1860,1020L1980,1020L1980,900Z" fill="#0f7232" stroke="#0f7232" stroke-width="1.51"/><path d="M1860,900L1860,1020L1980,900Z" fill="#137837" stroke="#137837" stroke-width="1.51"/><path d="M1860,900L1980,900L1980,780Z" fill="#1a7c3e" stroke="#1a7c3e" stroke-width="1.51"/><path d="M1860,780L1860,900L1980,780Z" fill="#1e8244" stroke="#1e8244" stroke-width="1.51"/><path d="M1860,780L1980,780L1980,660Z" fill="#24874d" stroke="#24874d" stroke-width="1.51"/><path d="M1860,660L1860,780L1980,660Z" fill="#2a8c53" stroke="#2a8c53" stroke-width="1.51"/><path d="M1860,660L1980,660L1980,540Z" fill="#338d5a" stroke="#338d5a" stroke-width="1.51"/><path d="M1860,540L1860,660L1980,540Z" fill="#379160" stroke="#379160" stroke-width="1.51"/><path d="M1860,540L1980,540L1980,420Z" fill="#419367" stroke="#419367" stroke-width="1.51"/><path d="M1860,420L1860,540L1980,420Z" fill="#48986c" stroke="#48986c" stroke-width="1.51"/><path d="M1860,420L1980,420L1980,300Z" fill="#519971" stroke="#519971" stroke-width="1.51"/><path d="M1860,300L1860,420L1980,300Z" fill="#579f77" stroke="#579f77" stroke-width="1.51"/><path d="M1860,300L1980,300L1980,180Z" fill="#62a07b" stroke="#62a07b" stroke-width="1.51"/><path d="M1860,180L1860,300L1980,180Z" fill="#68a57f" stroke="#68a57f" stroke-width="1.51"/><path d="M1860,180L1980,180L1980,60Z" fill="#70a582" stroke="#70a582" stroke-width="1.51"/><path d="M1860,60L1860,180L1980,60Z" fill="#74a986" stroke="#74a986" stroke-width="1.51"/><path d="M1860,60L1980,60L1980,-60Z" fill="#78a888" stroke="#78a888" stroke-width="1.51"/><path d="M1860,-60L1860,60L1980,-60Z" fill="#7cac8b" stroke="#7cac8b" stroke-width="1.51"/><path d="M1860,-60L1980,-60L1980,-180Z" fill="#7fab8b" stroke="#7fab8b" stroke-width="1.51"/><path d="M1860,-180L1860,-60L1980,-180Z" fill="#82ae8d" stroke="#82ae8d" stroke-width="1.51"/><path d="M1740,1260L1860,1260L1860,1140Z" fill="#026529" stroke="#026529" stroke-width="1.51"/><path d="M1740,1140L1740,1260L1860,1140Z" fill="#056b2d" stroke="#056b2d" stroke-width="1.51"/><path d="M1740,1140L1860,1140L1860,1020Z" fill="#05712f" stroke="#05712f" stroke-width="1.51"/><path d="M1740,1020L1740,1140L1860,1020Z" fill="#0d7633" stroke="#0d7633" stroke-width="1.51"/><path d="M1740,1020L1860,1020L1860,900Z" fill="#127a36" stroke="#127a36" stroke-width="1.51"/><path d="M1740,900L1740,1020L1860,900Z" fill="#187f3b" stroke="#187f3b" stroke-width="1.51"/><path d="M1740,900L1860,900L1860,780Z" fill="#1d8442" stroke="#1d8442" stroke-width="1.51"/><path d="M1740,780L1740,900L1860,780Z" fill="#238a49" stroke="#238a49" stroke-width="1.51"/><path d="M1740,780L1860,780L1860,660Z" fill="#278e51" stroke="#278e51" stroke-width="1.51"/><path d="M1740,660L1740,780L1860,660Z" fill="#2e9358" stroke="#2e9358" stroke-width="1.51"/><path d="M1740,660L1860,660L1860,540Z" fill="#36955f" stroke="#36955f" stroke-width="1.51"/><path d="M1740,540L1740,660L1860,540Z" fill="#3b9965" stroke="#3b9965" stroke-width="1.51"/><path d="M1740,540L1860,540L1860,420Z" fill="#449b6b" stroke="#449b6b" stroke-width="1.51"/><path d="M1740,420L1740,540L1860,420Z" fill="#4c9f71" stroke="#4c9f71" stroke-width="1.51"/><path d="M1740,420L1860,420L1860,300Z" fill="#55a276" stroke="#55a276" stroke-width="1.51"/><path d="M1740,300L1740,420L1860,300Z" fill="#5ca67c" stroke="#5ca67c" stroke-width="1.51"/><path d="M1740,300L1860,300L1860,180Z" fill="#66a87f" stroke="#66a87f" stroke-width="1.51"/><path d="M1740,180L1740,300L1860,180Z" fill="#6cac84" stroke="#6cac84" stroke-width="1.51"/><path d="M1740,180L1860,180L1860,60Z" fill="#75ae87" stroke="#75ae87" stroke-width="1.51"/><path d="M1740,60L1740,180L1860,60Z" fill="#79b18b" stroke="#79b18b" stroke-width="1.51"/><path d="M1740,60L1860,60L1860,-60Z" fill="#7db18d" stroke="#7db18d" stroke-width="1.51"/><path d="M1740,-60L1740,60L1860,-60Z" fill="#81b491" stroke="#81b491" stroke-width="1.51"/><path d="M1740,-60L1860,-60L1860,-180Z" fill="#83b390" stroke="#83b390" stroke-width="1.51"/><path d="M1740,-180L1740,-60L1860,-180Z" fill="#87b693" stroke="#87b693" stroke-width="1.51"/><path d="M1620,1260L1740,1260L1740,1140Z" fill="#0a6b2e" stroke="#0a6b2e" stroke-width="1.51"/><path d="M1620,1140L1620,1260L1740,1140Z" fill="#0d7132" stroke="#0d7132" stroke-width="1.51"/><path d="M1620,1140L1740,1140L1740,1020Z" fill="#0e7734" stroke="#0e7734" stroke-width="1.51"/><path d="M1620,1020L1620,1140L1740,1020Z" fill="#147c38" stroke="#147c38" stroke-width="1.51"/><path d="M1620,1020L1740,1020L1740,900Z" fill="#19803b" stroke="#19803b" stroke-width="1.51"/><path d="M1620,900L1620,1020L1740,900Z" fill="#1e8540" stroke="#1e8540" stroke-width="1.51"/><path d="M1620,900L1740,900L1740,780Z" fill="#238a47" stroke="#238a47" stroke-width="1.51"/><path d="M1620,780L1620,900L1740,780Z" fill="#28904e" stroke="#28904e" stroke-width="1.51"/><path d="M1620,780L1740,780L1740,660Z" fill="#2d9557" stroke="#2d9557" stroke-width="1.51"/><path d="M1620,660L1620,780L1740,660Z" fill="#33995d" stroke="#33995d" stroke-width="1.51"/><path d="M1620,660L1740,660L1740,540Z" fill="#3a9b64" stroke="#3a9b64" stroke-width="1.51"/><path d="M1620,540L1620,660L1740,540Z" fill="#409f6b" stroke="#409f6b" stroke-width="1.51"/><path d="M1620,540L1740,540L1740,420Z" fill="#49a171" stroke="#49a171" stroke-width="1.51"/><path d="M1620,420L1620,540L1740,420Z" fill="#50a677" stroke="#50a677" stroke-width="1.51"/><path d="M1620,420L1740,420L1740,300Z" fill="#59a87c" stroke="#59a87c" stroke-width="1.51"/><path d="M1620,300L1620,420L1740,300Z" fill="#60ac81" stroke="#60ac81" stroke-width="1.51"/><path d="M1620,300L1740,300L1740,180Z" fill="#6aae85" stroke="#6aae85" stroke-width="1.51"/><path d="M1620,180L1620,300L1740,180Z" fill="#71b28a" stroke="#71b28a" stroke-width="1.51"/><path d="M1620,180L1740,180L1740,60Z" fill="#79b48d" stroke="#79b48d" stroke-width="1.51"/><path d="M1620,60L1620,180L1740,60Z" fill="#7db791" stroke="#7db791" stroke-width="1.51"/><path d="M1620,60L1740,60L1740,-60Z" fill="#81b792" stroke="#81b792" stroke-width="1.51"/><path d="M1620,-60L1620,60L1740,-60Z" fill="#85ba96" stroke="#85ba96" stroke-width="1.51"/><path d="M1620,-60L1740,-60L1740,-180Z" fill="#88b996" stroke="#88b996" stroke-width="1.51"/><path d="M1620,-180L1620,-60L1740,-180Z" fill="#8bbc98" stroke="#8bbc98" stroke-width="1.51"/><path d="M1500,1260L1620,1260L1620,1140Z" fill="#117133" stroke="#117133" stroke-width="1.51"/><path d="M1500,1140L1500,1260L1620,1140Z" fill="#147737" stroke="#147737" stroke-width="1.51"/><path d="M1500,1140L1620,1140L1620,1020Z" fill="#157d39" stroke="#157d39" stroke-width="1.51"/><path d="M1500,1020L1500,1140L1620,1020Z" fill="#1b823e" stroke="#1b823e" stroke-width="1.51"/><path d="M1500,1020L1620,1020L1620,900Z" fill="#1f8640" stroke="#1f8640" stroke-width="1.51"/><path d="M1500,900L1500,1020L1620,900Z" fill="#248b46" stroke="#248b46" stroke-width="1.51"/><path d="M1500,900L1620,900L1620,780Z" fill="#28904c" stroke="#28904c" stroke-width="1.51"/><path d="M1500,780L1500,900L1620,780Z" fill="#2d9654" stroke="#2d9654" stroke-width="1.51"/><path d="M1500,780L1620,780L1620,660Z" fill="#329b5c" stroke="#329b5c" stroke-width="1.51"/><path d="M1500,660L1500,780L1620,660Z" fill="#389f63" stroke="#389f63" stroke-width="1.51"/><path d="M1500,660L1620,660L1620,540Z" fill="#3fa16a" stroke="#3fa16a" stroke-width="1.51"/><path d="M1500,540L1500,660L1620,540Z" fill="#45a570" stroke="#45a570" stroke-width="1.51"/><path d="M1500,540L1620,540L1620,420Z" fill="#4da876" stroke="#4da876" stroke-width="1.51"/><path d="M1500,420L1500,540L1620,420Z" fill="#55ac7d" stroke="#55ac7d" stroke-width="1.51"/><path d="M1500,420L1620,420L1620,300Z" fill="#5eae81" stroke="#5eae81" stroke-width="1.51"/><path d="M1500,300L1500,420L1620,300Z" fill="#65b387" stroke="#65b387" stroke-width="1.51"/><path d="M1500,300L1620,300L1620,180Z" fill="#6fb58a" stroke="#6fb58a" stroke-width="1.51"/><path d="M1500,180L1500,300L1620,180Z" fill="#75b990" stroke="#75b990" stroke-width="1.51"/><path d="M1500,180L1620,180L1620,60Z" fill="#7eba92" stroke="#7eba92" stroke-width="1.51"/><path d="M1500,60L1500,180L1620,60Z" fill="#82bd97" stroke="#82bd97" stroke-width="1.51"/><path d="M1500,60L1620,60L1620,-60Z" fill="#86bd98" stroke="#86bd98" stroke-width="1.51"/><path d="M1500,-60L1500,60L1620,-60Z" fill="#8ac09c" stroke="#8ac09c" stroke-width="1.51"/><path d="M1500,-60L1620,-60L1620,-180Z" fill="#8dc09b" stroke="#8dc09b" stroke-width="1.51"/><path d="M1500,-180L1500,-60L1620,-180Z" fill="#90c29e" stroke="#90c29e" stroke-width="1.51"/><path d="M1380,1260L1500,1260L1500,1140Z" fill="#19773c" stroke="#19773c" stroke-width="1.51"/><path d="M1380,1140L1380,1260L1500,1140Z" fill="#1c7d41" stroke="#1c7d41" stroke-width="1.51"/><path d="M1380,1140L1500,1140L1500,1020Z" fill="#1d8442" stroke="#1d8442" stroke-width="1.51"/><path d="M1380,1020L1380,1140L1500,1020Z" fill="#228948" stroke="#228948" stroke-width="1.51"/><path d="M1380,1020L1500,1020L1500,900Z" fill="#258d49" stroke="#258d49" stroke-width="1.51"/><path d="M1380,900L1380,1020L1500,900Z" fill="#2a9250" stroke="#2a9250" stroke-width="1.51"/><path d="M1380,900L1500,900L1500,780Z" fill="#2f9756" stroke="#2f9756" stroke-width="1.51"/><path d="M1380,780L1380,900L1500,780Z" fill="#349d5e" stroke="#349d5e" stroke-width="1.51"/><path d="M1380,780L1500,780L1500,660Z" fill="#37a265" stroke="#37a265" stroke-width="1.51"/><path d="M1380,660L1380,780L1500,660Z" fill="#3da66d" stroke="#3da66d" stroke-width="1.51"/><path d="M1380,660L1500,660L1500,540Z" fill="#44a873" stroke="#44a873" stroke-width="1.51"/><path d="M1380,540L1380,660L1500,540Z" fill="#4aac7b" stroke="#4aac7b" stroke-width="1.51"/><path d="M1380,540L1500,540L1500,420Z" fill="#52af7f" stroke="#52af7f" stroke-width="1.51"/><path d="M1380,420L1380,540L1500,420Z" fill="#5ab387" stroke="#5ab387" stroke-width="1.51"/><path d="M1380,420L1500,420L1500,300Z" fill="#63b58a" stroke="#63b58a" stroke-width="1.51"/><path d="M1380,300L1380,420L1500,300Z" fill="#6aba92" stroke="#6aba92" stroke-width="1.51"/><path d="M1380,300L1500,300L1500,180Z" fill="#74bc94" stroke="#74bc94" stroke-width="1.51"/><path d="M1380,180L1380,300L1500,180Z" fill="#7bc09a" stroke="#7bc09a" stroke-width="1.51"/><path d="M1380,180L1500,180L1500,60Z" fill="#83c29c" stroke="#83c29c" stroke-width="1.51"/><path d="M1380,60L1380,180L1500,60Z" fill="#87c5a1" stroke="#87c5a1" stroke-width="1.51"/><path d="M1380,60L1500,60L1500,-60Z" fill="#8bc5a2" stroke="#8bc5a2" stroke-width="1.51"/><path d="M1380,-60L1380,60L1500,-60Z" fill="#90c8a7" stroke="#90c8a7" stroke-width="1.51"/><path d="M1380,-60L1500,-60L1500,-180Z" fill="#92c7a5" stroke="#92c7a5" stroke-width="1.51"/><path d="M1380,-180L1380,-60L1500,-180Z" fill="#96caa9" stroke="#96caa9" stroke-width="1.51"/><path d="M1260,1260L1380,1260L1380,1140Z" fill="#207e45" stroke="#207e45" stroke-width="1.51"/><path d="M1260,1140L1260,1260L1380,1140Z" fill="#23844a" stroke="#23844a" stroke-width="1.51"/><path d="M1260,1140L1380,1140L1380,1020Z" fill="#248b4c" stroke="#248b4c" stroke-width="1.51"/><path d="M1260,1020L1260,1140L1380,1020Z" fill="#289051" stroke="#289051" stroke-width="1.51"/><path d="M1260,1020L1380,1020L1380,900Z" fill="#2c9453" stroke="#2c9453" stroke-width="1.51"/><path d="M1260,900L1260,1020L1380,900Z" fill="#309959" stroke="#309959" stroke-width="1.51"/><path d="M1260,900L1380,900L1380,780Z" fill="#359e5f" stroke="#359e5f" stroke-width="1.51"/><path d="M1260,780L1260,900L1380,780Z" fill="#39a467" stroke="#39a467" stroke-width="1.51"/><path d="M1260,780L1380,780L1380,660Z" fill="#3da96f" stroke="#3da96f" stroke-width="1.51"/><path d="M1260,660L1260,780L1380,660Z" fill="#43ad76" stroke="#43ad76" stroke-width="1.51"/><path d="M1260,660L1380,660L1380,540Z" fill="#4aaf7d" stroke="#4aaf7d" stroke-width="1.51"/><path d="M1260,540L1260,660L1380,540Z" fill="#4fb384" stroke="#4fb384" stroke-width="1.51"/><path d="M1260,540L1380,540L1380,420Z" fill="#57b68a" stroke="#57b68a" stroke-width="1.51"/><path d="M1260,420L1260,540L1380,420Z" fill="#5fba91" stroke="#5fba91" stroke-width="1.51"/><path d="M1260,420L1380,420L1380,300Z" fill="#68bd95" stroke="#68bd95" stroke-width="1.51"/><path d="M1260,300L1260,420L1380,300Z" fill="#6fc19c" stroke="#6fc19c" stroke-width="1.51"/><path d="M1260,300L1380,300L1380,180Z" fill="#79c39e" stroke="#79c39e" stroke-width="1.51"/><path d="M1260,180L1260,300L1380,180Z" fill="#80c7a4" stroke="#80c7a4" stroke-width="1.51"/><path d="M1260,180L1380,180L1380,60Z" fill="#88c9a6" stroke="#88c9a6" stroke-width="1.51"/><path d="M1260,60L1260,180L1380,60Z" fill="#8cccab" stroke="#8cccab" stroke-width="1.51"/><path d="M1260,60L1380,60L1380,-60Z" fill="#91ccac" stroke="#91ccac" stroke-width="1.51"/><path d="M1260,-60L1260,60L1380,-60Z" fill="#95cfb1" stroke="#95cfb1" stroke-width="1.51"/><path d="M1260,-60L1380,-60L1380,-180Z" fill="#97ceaf" stroke="#97ceaf" stroke-width="1.51"/><path d="M1260,-180L1260,-60L1380,-180Z" fill="#9bd1b3" stroke="#9bd1b3" stroke-width="1.51"/><path d="M1140,1260L1260,1260L1260,1140Z" fill="#27844f" stroke="#27844f" stroke-width="1.51"/><path d="M1140,1140L1140,1260L1260,1140Z" fill="#2b8953" stroke="#2b8953" stroke-width="1.51"/><path d="M1140,1140L1260,1140L1260,1020Z" fill="#2c9055" stroke="#2c9055" stroke-width="1.51"/><path d="M1140,1020L1140,1140L1260,1020Z" fill="#31955a" stroke="#31955a" stroke-width="1.51"/><path d="M1140,1020L1260,1020L1260,900Z" fill="#339a5d" stroke="#339a5d" stroke-width="1.51"/><path d="M1140,900L1140,1020L1260,900Z" fill="#399e63" stroke="#399e63" stroke-width="1.51"/><path d="M1140,900L1260,900L1260,780Z" fill="#3ba469" stroke="#3ba469" stroke-width="1.51"/><path d="M1140,780L1140,900L1260,780Z" fill="#41a971" stroke="#41a971" stroke-width="1.51"/><path d="M1140,780L1260,780L1260,660Z" fill="#44af78" stroke="#44af78" stroke-width="1.51"/><path d="M1140,660L1140,780L1260,660Z" fill="#4ab380" stroke="#4ab380" stroke-width="1.51"/><path d="M1140,660L1260,660L1260,540Z" fill="#50b686" stroke="#50b686" stroke-width="1.51"/><path d="M1140,540L1140,660L1260,540Z" fill="#56b88e" stroke="#56b88e" stroke-width="1.51"/><path d="M1140,540L1260,540L1260,420Z" fill="#5dbc93" stroke="#5dbc93" stroke-width="1.51"/><path d="M1140,420L1140,540L1260,420Z" fill="#65bf9a" stroke="#65bf9a" stroke-width="1.51"/><path d="M1140,420L1260,420L1260,300Z" fill="#6ec39f" stroke="#6ec39f" stroke-width="1.51"/><path d="M1140,300L1140,420L1260,300Z" fill="#75c6a6" stroke="#75c6a6" stroke-width="1.51"/><path d="M1140,300L1260,300L1260,180Z" fill="#7fc9a8" stroke="#7fc9a8" stroke-width="1.51"/><path d="M1140,180L1140,300L1260,180Z" fill="#86ccae" stroke="#86ccae" stroke-width="1.51"/><path d="M1140,180L1260,180L1260,60Z" fill="#8ecfb0" stroke="#8ecfb0" stroke-width="1.51"/><path d="M1140,60L1140,180L1260,60Z" fill="#93d1b5" stroke="#93d1b5" stroke-width="1.51"/><path d="M1140,60L1260,60L1260,-60Z" fill="#96d2b6" stroke="#96d2b6" stroke-width="1.51"/><path d="M1140,-60L1140,60L1260,-60Z" fill="#9bd4bb" stroke="#9bd4bb" stroke-width="1.51"/><path d="M1140,-60L1260,-60L1260,-180Z" fill="#9dd4b9" stroke="#9dd4b9" stroke-width="1.51"/><path d="M1140,-180L1140,-60L1260,-180Z" fill="#a1d6bd" stroke="#a1d6bd" stroke-width="1.51"/><path d="M1020,1260L1140,1260L1140,1140Z" fill="#308857" stroke="#308857" stroke-width="1.51"/><path d="M1020,1140L1020,1260L1140,1140Z" fill="#348d5c" stroke="#348d5c" stroke-width="1.51"/><path d="M1020,1140L1140,1140L1140,1020Z" fill="#35945e" stroke="#35945e" stroke-width="1.51"/><path d="M1020,1020L1020,1140L1140,1020Z" fill="#3a9864" stroke="#3a9864" stroke-width="1.51"/><path d="M1020,1020L1140,1020L1140,900Z" fill="#3c9e65" stroke="#3c9e65" stroke-width="1.51"/><path d="M1020,900L1020,1020L1140,900Z" fill="#41a26c" stroke="#41a26c" stroke-width="1.51"/><path d="M1020,900L1140,900L1140,780Z" fill="#44a872" stroke="#44a872" stroke-width="1.51"/><path d="M1020,780L1020,900L1140,780Z" fill="#49ad7a" stroke="#49ad7a" stroke-width="1.51"/><path d="M1020,780L1140,780L1140,660Z" fill="#4bb381" stroke="#4bb381" stroke-width="1.51"/><path d="M1020,660L1020,780L1140,660Z" fill="#52b789" stroke="#52b789" stroke-width="1.51"/><path d="M1020,660L1140,660L1140,540Z" fill="#57ba8f" stroke="#57ba8f" stroke-width="1.51"/><path d="M1020,540L1020,660L1140,540Z" fill="#5dbc97" stroke="#5dbc97" stroke-width="1.51"/><path d="M1020,540L1140,540L1140,420Z" fill="#64c09c" stroke="#64c09c" stroke-width="1.51"/><path d="M1020,420L1020,540L1140,420Z" fill="#6cc3a4" stroke="#6cc3a4" stroke-width="1.51"/><path d="M1020,420L1140,420L1140,300Z" fill="#74c7a8" stroke="#74c7a8" stroke-width="1.51"/><path d="M1020,300L1020,420L1140,300Z" fill="#7ccaaf" stroke="#7ccaaf" stroke-width="1.51"/><path d="M1020,300L1140,300L1140,180Z" fill="#85cdb1" stroke="#85cdb1" stroke-width="1.51"/><path d="M1020,180L1020,300L1140,180Z" fill="#8cd0b8" stroke="#8cd0b8" stroke-width="1.51"/><path d="M1020,180L1140,180L1140,60Z" fill="#94d3ba" stroke="#94d3ba" stroke-width="1.51"/><path d="M1020,60L1020,180L1140,60Z" fill="#99d5bf" stroke="#99d5bf" stroke-width="1.51"/><path d="M1020,60L1140,60L1140,-60Z" fill="#9dd6bf" stroke="#9dd6bf" stroke-width="1.51"/><path d="M1020,-60L1020,60L1140,-60Z" fill="#a1d8c5" stroke="#a1d8c5" stroke-width="1.51"/><path d="M1020,-60L1140,-60L1140,-180Z" fill="#a3d8c3" stroke="#a3d8c3" stroke-width="1.51"/><path d="M1020,-180L1020,-60L1140,-180Z" fill="#a8dac7" stroke="#a8dac7" stroke-width="1.51"/><path d="M900,1260L1020,1260L1020,1140Z" fill="#388b60" stroke="#388b60" stroke-width="1.51"/><path d="M900,1140L900,1260L1020,1140Z" fill="#3d9164" stroke="#3d9164" stroke-width="1.51"/><path d="M900,1140L1020,1140L1020,1020Z" fill="#3d9867" stroke="#3d9867" stroke-width="1.51"/><path d="M900,1020L900,1140L1020,1020Z" fill="#439c6c" stroke="#439c6c" stroke-width="1.51"/><path d="M900,1020L1020,1020L1020,900Z" fill="#44a26f" stroke="#44a26f" stroke-width="1.51"/><path d="M900,900L900,1020L1020,900Z" fill="#4aa674" stroke="#4aa674" stroke-width="1.51"/><path d="M900,900L1020,900L1020,780Z" fill="#4bac7b" stroke="#4bac7b" stroke-width="1.51"/><path d="M900,780L900,900L1020,780Z" fill="#51b183" stroke="#51b183" stroke-width="1.51"/><path d="M900,780L1020,780L1020,660Z" fill="#53b78b" stroke="#53b78b" stroke-width="1.51"/><path d="M900,660L900,780L1020,660Z" fill="#5abb92" stroke="#5abb92" stroke-width="1.51"/><path d="M900,660L1020,660L1020,540Z" fill="#5ebe99" stroke="#5ebe99" stroke-width="1.51"/><path d="M900,540L900,660L1020,540Z" fill="#65c1a0" stroke="#65c1a0" stroke-width="1.51"/><path d="M900,540L1020,540L1020,420Z" fill="#6bc4a6" stroke="#6bc4a6" stroke-width="1.51"/><path d="M900,420L900,540L1020,420Z" fill="#73c7ac" stroke="#73c7ac" stroke-width="1.51"/><path d="M900,420L1020,420L1020,300Z" fill="#7bcbb1" stroke="#7bcbb1" stroke-width="1.51"/><path d="M900,300L900,420L1020,300Z" fill="#83ceb8" stroke="#83ceb8" stroke-width="1.51"/><path d="M900,300L1020,300L1020,180Z" fill="#8bd1bb" stroke="#8bd1bb" stroke-width="1.51"/><path d="M900,180L900,300L1020,180Z" fill="#93d4c1" stroke="#93d4c1" stroke-width="1.51"/><path d="M900,180L1020,180L1020,60Z" fill="#9bd7c3" stroke="#9bd7c3" stroke-width="1.51"/><path d="M900,60L900,180L1020,60Z" fill="#a0d9c8" stroke="#a0d9c8" stroke-width="1.51"/><path d="M900,60L1020,60L1020,-60Z" fill="#a3dac9" stroke="#a3dac9" stroke-width="1.51"/><path d="M900,-60L900,60L1020,-60Z" fill="#a8dcce" stroke="#a8dcce" stroke-width="1.51"/><path d="M900,-60L1020,-60L1020,-180Z" fill="#aadccd" stroke="#aadccd" stroke-width="1.51"/><path d="M900,-180L900,-60L1020,-180Z" fill="#aeded0" stroke="#aeded0" stroke-width="1.51"/><path d="M780,1260L900,1260L900,1140Z" fill="#438f67" stroke="#438f67" stroke-width="1.51"/><path d="M780,1140L780,1260L900,1140Z" fill="#48956b" stroke="#48956b" stroke-width="1.51"/><path d="M780,1140L900,1140L900,1020Z" fill="#489c6e" stroke="#489c6e" stroke-width="1.51"/><path d="M780,1020L780,1140L900,1020Z" fill="#4ea173" stroke="#4ea173" stroke-width="1.51"/><path d="M780,1020L900,1020L900,900Z" fill="#4fa676" stroke="#4fa676" stroke-width="1.51"/><path d="M780,900L780,1020L900,900Z" fill="#55aa7b" stroke="#55aa7b" stroke-width="1.51"/><path d="M780,900L900,900L900,780Z" fill="#56b082" stroke="#56b082" stroke-width="1.51"/><path d="M780,780L780,900L900,780Z" fill="#5db58a" stroke="#5db58a" stroke-width="1.51"/><path d="M780,780L900,780L900,660Z" fill="#5ebb92" stroke="#5ebb92" stroke-width="1.51"/><path d="M780,660L780,780L900,660Z" fill="#65bf99" stroke="#65bf99" stroke-width="1.51"/><path d="M780,660L900,660L900,540Z" fill="#68c2a0" stroke="#68c2a0" stroke-width="1.51"/><path d="M780,540L780,660L900,540Z" fill="#6fc5a7" stroke="#6fc5a7" stroke-width="1.51"/><path d="M780,540L900,540L900,420Z" fill="#75c8ad" stroke="#75c8ad" stroke-width="1.51"/><path d="M780,420L780,540L900,420Z" fill="#7eccb4" stroke="#7eccb4" stroke-width="1.51"/><path d="M780,420L900,420L900,300Z" fill="#84cfb9" stroke="#84cfb9" stroke-width="1.51"/><path d="M780,300L780,420L900,300Z" fill="#8dd3bf" stroke="#8dd3bf" stroke-width="1.51"/><path d="M780,300L900,300L900,180Z" fill="#95d5c3" stroke="#95d5c3" stroke-width="1.51"/><path d="M780,180L780,300L900,180Z" fill="#9dd9c8" stroke="#9dd9c8" stroke-width="1.51"/><path d="M780,180L900,180L900,60Z" fill="#a4dbcb" stroke="#a4dbcb" stroke-width="1.51"/><path d="M780,60L780,180L900,60Z" fill="#a9ddd0" stroke="#a9ddd0" stroke-width="1.51"/><path d="M780,60L900,60L900,-60Z" fill="#acded1" stroke="#acded1" stroke-width="1.51"/><path d="M780,-60L780,60L900,-60Z" fill="#b2e0d6" stroke="#b2e0d6" stroke-width="1.51"/><path d="M780,-60L900,-60L900,-180Z" fill="#b3e0d4" stroke="#b3e0d4" stroke-width="1.51"/><path d="M780,-180L780,-60L900,-180Z" fill="#b8e2d7" stroke="#b8e2d7" stroke-width="1.51"/><path d="M660,1260L780,1260L780,1140Z" fill="#4d946e" stroke="#4d946e" stroke-width="1.51"/><path d="M660,1140L660,1260L780,1140Z" fill="#529972" stroke="#529972" stroke-width="1.51"/><path d="M660,1140L780,1140L780,1020Z" fill="#53a175" stroke="#53a175" stroke-width="1.51"/><path d="M660,1020L660,1140L780,1020Z" fill="#58a57a" stroke="#58a57a" stroke-width="1.51"/><path d="M660,1020L780,1020L780,900Z" fill="#5aaa7d" stroke="#5aaa7d" stroke-width="1.51"/><path d="M660,900L660,1020L780,900Z" fill="#5faf82" stroke="#5faf82" stroke-width="1.51"/><path d="M660,900L780,900L780,780Z" fill="#61b489" stroke="#61b489" stroke-width="1.51"/><path d="M660,780L660,900L780,780Z" fill="#67ba91" stroke="#67ba91" stroke-width="1.51"/><path d="M660,780L780,780L780,660Z" fill="#69c09a" stroke="#69c09a" stroke-width="1.51"/><path d="M660,660L660,780L780,660Z" fill="#6fc4a1" stroke="#6fc4a1" stroke-width="1.51"/><path d="M660,660L780,660L780,540Z" fill="#73c6a8" stroke="#73c6a8" stroke-width="1.51"/><path d="M660,540L660,660L780,540Z" fill="#79caaf" stroke="#79caaf" stroke-width="1.51"/><path d="M660,540L780,540L780,420Z" fill="#7fcdb5" stroke="#7fcdb5" stroke-width="1.51"/><path d="M660,420L660,540L780,420Z" fill="#87d0bb" stroke="#87d0bb" stroke-width="1.51"/><path d="M660,420L780,420L780,300Z" fill="#8ed3c0" stroke="#8ed3c0" stroke-width="1.51"/><path d="M660,300L660,420L780,300Z" fill="#96d7c7" stroke="#96d7c7" stroke-width="1.51"/><path d="M660,300L780,300L780,180Z" fill="#9edaca" stroke="#9edaca" stroke-width="1.51"/><path d="M660,180L660,300L780,180Z" fill="#a6ddd0" stroke="#a6ddd0" stroke-width="1.51"/><path d="M660,180L780,180L780,60Z" fill="#addfd3" stroke="#addfd3" stroke-width="1.51"/><path d="M660,60L660,180L780,60Z" fill="#b3e2d7" stroke="#b3e2d7" stroke-width="1.51"/><path d="M660,60L780,60L780,-60Z" fill="#b5e2d9" stroke="#b5e2d9" stroke-width="1.51"/><path d="M660,-60L660,60L780,-60Z" fill="#bbe5dd" stroke="#bbe5dd" stroke-width="1.51"/><path d="M660,-60L780,-60L780,-180Z" fill="#bce5dc" stroke="#bce5dc" stroke-width="1.51"/><path d="M660,-180L660,-60L780,-180Z" fill="#c1e7df" stroke="#c1e7df" stroke-width="1.51"/><path d="M540,1260L660,1260L660,1140Z" fill="#589874" stroke="#589874" stroke-width="1.51"/><path d="M540,1140L540,1260L660,1140Z" fill="#5d9d78" stroke="#5d9d78" stroke-width="1.51"/><path d="M540,1140L660,1140L660,1020Z" fill="#5da57b" stroke="#5da57b" stroke-width="1.51"/><path d="M540,1020L540,1140L660,1020Z" fill="#63a980" stroke="#63a980" stroke-width="1.51"/><path d="M540,1020L660,1020L660,900Z" fill="#64ae83" stroke="#64ae83" stroke-width="1.51"/><path d="M540,900L540,1020L660,900Z" fill="#6ab389" stroke="#6ab389" stroke-width="1.51"/><path d="M540,900L660,900L660,780Z" fill="#6cb990" stroke="#6cb990" stroke-width="1.51"/><path d="M540,780L540,900L660,780Z" fill="#72be97" stroke="#72be97" stroke-width="1.51"/><path d="M540,780L660,780L660,660Z" fill="#73c4a0" stroke="#73c4a0" stroke-width="1.51"/><path d="M540,660L540,780L660,660Z" fill="#7ac8a7" stroke="#7ac8a7" stroke-width="1.51"/><path d="M540,660L660,660L660,540Z" fill="#7dcbaf" stroke="#7dcbaf" stroke-width="1.51"/><path d="M540,540L540,660L660,540Z" fill="#84ceb5" stroke="#84ceb5" stroke-width="1.51"/><path d="M540,540L660,540L660,420Z" fill="#89d1bc" stroke="#89d1bc" stroke-width="1.51"/><path d="M540,420L540,540L660,420Z" fill="#92d4c2" stroke="#92d4c2" stroke-width="1.51"/><path d="M540,420L660,420L660,300Z" fill="#98d8c7" stroke="#98d8c7" stroke-width="1.51"/><path d="M540,300L540,420L660,300Z" fill="#a1dbcd" stroke="#a1dbcd" stroke-width="1.51"/><path d="M540,300L660,300L660,180Z" fill="#a8ded1" stroke="#a8ded1" stroke-width="1.51"/><path d="M540,180L540,300L660,180Z" fill="#b1e1d6" stroke="#b1e1d6" stroke-width="1.51"/><path d="M540,180L660,180L660,60Z" fill="#b7e4da" stroke="#b7e4da" stroke-width="1.51"/><path d="M540,60L540,180L660,60Z" fill="#bde6de" stroke="#bde6de" stroke-width="1.51"/><path d="M540,60L660,60L660,-60Z" fill="#bfe7e0" stroke="#bfe7e0" stroke-width="1.51"/><path d="M540,-60L540,60L660,-60Z" fill="#c5e9e4" stroke="#c5e9e4" stroke-width="1.51"/><path d="M540,-60L660,-60L660,-180Z" fill="#c5e9e3" stroke="#c5e9e3" stroke-width="1.51"/><path d="M540,-180L540,-60L660,-180Z" fill="#cbebe6" stroke="#cbebe6" stroke-width="1.51"/><path d="M420,1260L540,1260L540,1140Z" fill="#629c79" stroke="#629c79" stroke-width="1.51"/><path d="M420,1140L420,1260L540,1140Z" fill="#67a17d" stroke="#67a17d" stroke-width="1.51"/><path d="M420,1140L540,1140L540,1020Z" fill="#68a980" stroke="#68a980" stroke-width="1.51"/><path d="M420,1020L420,1140L540,1020Z" fill="#6ead85" stroke="#6ead85" stroke-width="1.51"/><path d="M420,1020L540,1020L540,900Z" fill="#6fb389" stroke="#6fb389" stroke-width="1.51"/><path d="M420,900L420,1020L540,900Z" fill="#75b78e" stroke="#75b78e" stroke-width="1.51"/><path d="M420,900L540,900L540,780Z" fill="#77bd95" stroke="#77bd95" stroke-width="1.51"/><path d="M420,780L420,900L540,780Z" fill="#7dc29c" stroke="#7dc29c" stroke-width="1.51"/><path d="M420,780L540,780L540,660Z" fill="#7fc8a6" stroke="#7fc8a6" stroke-width="1.51"/><path d="M420,660L420,780L540,660Z" fill="#85ccac" stroke="#85ccac" stroke-width="1.51"/><path d="M420,660L540,660L540,540Z" fill="#89cfb4" stroke="#89cfb4" stroke-width="1.51"/><path d="M420,540L420,660L540,540Z" fill="#8fd2bb" stroke="#8fd2bb" stroke-width="1.51"/><path d="M420,540L540,540L540,420Z" fill="#94d5c1" stroke="#94d5c1" stroke-width="1.51"/><path d="M420,420L420,540L540,420Z" fill="#9cd8c7" stroke="#9cd8c7" stroke-width="1.51"/><path d="M420,420L540,420L540,300Z" fill="#a3dccd" stroke="#a3dccd" stroke-width="1.51"/><path d="M420,300L420,420L540,300Z" fill="#abdfd3" stroke="#abdfd3" stroke-width="1.51"/><path d="M420,300L540,300L540,180Z" fill="#b3e2d7" stroke="#b3e2d7" stroke-width="1.51"/><path d="M420,180L420,300L540,180Z" fill="#bbe5dc" stroke="#bbe5dc" stroke-width="1.51"/><path d="M420,180L540,180L540,60Z" fill="#c1e8df" stroke="#c1e8df" stroke-width="1.51"/><path d="M420,60L420,180L540,60Z" fill="#c7eae3" stroke="#c7eae3" stroke-width="1.51"/><path d="M420,60L540,60L540,-60Z" fill="#c9ebe5" stroke="#c9ebe5" stroke-width="1.51"/><path d="M420,-60L420,60L540,-60Z" fill="#cfede9" stroke="#cfede9" stroke-width="1.51"/><path d="M420,-60L540,-60L540,-180Z" fill="#d0ede9" stroke="#d0ede9" stroke-width="1.51"/><path d="M420,-180L420,-60L540,-180Z" fill="#d5efeb" stroke="#d5efeb" stroke-width="1.51"/><path d="M300,1260L420,1260L420,1140Z" fill="#6ca07f" stroke="#6ca07f" stroke-width="1.51"/><path d="M300,1140L300,1260L420,1140Z" fill="#71a582" stroke="#71a582" stroke-width="1.51"/><path d="M300,1140L420,1140L420,1020Z" fill="#72ad86" stroke="#72ad86" stroke-width="1.51"/><path d="M300,1020L300,1140L420,1020Z" fill="#77b18a" stroke="#77b18a" stroke-width="1.51"/><path d="M300,1020L420,1020L420,900Z" fill="#7ab78e" stroke="#7ab78e" stroke-width="1.51"/><path d="M300,900L300,1020L420,900Z" fill="#7ebb93" stroke="#7ebb93" stroke-width="1.51"/><path d="M300,900L420,900L420,780Z" fill="#81c19b" stroke="#81c19b" stroke-width="1.51"/><path d="M300,780L300,900L420,780Z" fill="#87c6a2" stroke="#87c6a2" stroke-width="1.51"/><path d="M300,780L420,780L420,660Z" fill="#89ccab" stroke="#89ccab" stroke-width="1.51"/><path d="M300,660L300,780L420,660Z" fill="#8fd0b1" stroke="#8fd0b1" stroke-width="1.51"/><path d="M300,660L420,660L420,540Z" fill="#93d3ba" stroke="#93d3ba" stroke-width="1.51"/><path d="M300,540L300,660L420,540Z" fill="#99d6c0" stroke="#99d6c0" stroke-width="1.51"/><path d="M300,540L420,540L420,420Z" fill="#9ed9c7" stroke="#9ed9c7" stroke-width="1.51"/><path d="M300,420L300,540L420,420Z" fill="#a6dccd" stroke="#a6dccd" stroke-width="1.51"/><path d="M300,420L420,420L420,300Z" fill="#ade0d3" stroke="#ade0d3" stroke-width="1.51"/><path d="M300,300L300,420L420,300Z" fill="#b4e3d8" stroke="#b4e3d8" stroke-width="1.51"/><path d="M300,300L420,300L420,180Z" fill="#bde6dd" stroke="#bde6dd" stroke-width="1.51"/><path d="M300,180L300,300L420,180Z" fill="#c4e9e1" stroke="#c4e9e1" stroke-width="1.51"/><path d="M300,180L420,180L420,60Z" fill="#cbece5" stroke="#cbece5" stroke-width="1.51"/><path d="M300,60L300,180L420,60Z" fill="#d0eee9" stroke="#d0eee9" stroke-width="1.51"/><path d="M300,60L420,60L420,-60Z" fill="#d3efeb" stroke="#d3efeb" stroke-width="1.51"/><path d="M300,-60L300,60L420,-60Z" fill="#d8f1ef" stroke="#d8f1ef" stroke-width="1.51"/><path d="M300,-60L420,-60L420,-180Z" fill="#daf1ef" stroke="#daf1ef" stroke-width="1.51"/><path d="M300,-180L300,-60L420,-180Z" fill="#def3f1" stroke="#def3f1" stroke-width="1.51"/><path d="M180,1260L300,1260L300,1140Z" fill="#72a282" stroke="#72a282" stroke-width="1.51"/><path d="M180,1140L180,1260L300,1140Z" fill="#76a786" stroke="#76a786" stroke-width="1.51"/><path d="M180,1140L300,1140L300,1020Z" fill="#78af89" stroke="#78af89" stroke-width="1.51"/><path d="M180,1020L180,1140L300,1020Z" fill="#7db38e" stroke="#7db38e" stroke-width="1.51"/><path d="M180,1020L300,1020L300,900Z" fill="#7fb992" stroke="#7fb992" stroke-width="1.51"/><path d="M180,900L180,1020L300,900Z" fill="#84bc97" stroke="#84bc97" stroke-width="1.51"/><path d="M180,900L300,900L300,780Z" fill="#87c39f" stroke="#87c39f" stroke-width="1.51"/><path d="M180,780L180,900L300,780Z" fill="#8cc8a5" stroke="#8cc8a5" stroke-width="1.51"/><path d="M180,780L300,780L300,660Z" fill="#8fceaf" stroke="#8fceaf" stroke-width="1.51"/><path d="M180,660L180,780L300,660Z" fill="#94d1b5" stroke="#94d1b5" stroke-width="1.51"/><path d="M180,660L300,660L300,540Z" fill="#99d5be" stroke="#99d5be" stroke-width="1.51"/><path d="M180,540L180,660L300,540Z" fill="#9ed7c4" stroke="#9ed7c4" stroke-width="1.51"/><path d="M180,540L300,540L300,420Z" fill="#a4dbcb" stroke="#a4dbcb" stroke-width="1.51"/><path d="M180,420L180,540L300,420Z" fill="#abded1" stroke="#abded1" stroke-width="1.51"/><path d="M180,420L300,420L300,300Z" fill="#b3e2d7" stroke="#b3e2d7" stroke-width="1.51"/><path d="M180,300L180,420L300,300Z" fill="#b9e5dc" stroke="#b9e5dc" stroke-width="1.51"/><path d="M180,300L300,300L300,180Z" fill="#c2e8e1" stroke="#c2e8e1" stroke-width="1.51"/><path d="M180,180L180,300L300,180Z" fill="#c9ebe5" stroke="#c9ebe5" stroke-width="1.51"/><path d="M180,180L300,180L300,60Z" fill="#d1eee9" stroke="#d1eee9" stroke-width="1.51"/><path d="M180,60L180,180L300,60Z" fill="#d5efed" stroke="#d5efed" stroke-width="1.51"/><path d="M180,60L300,60L300,-60Z" fill="#d9f1ef" stroke="#d9f1ef" stroke-width="1.51"/><path d="M180,-60L180,60L300,-60Z" fill="#ddf2f3" stroke="#ddf2f3" stroke-width="1.51"/><path d="M180,-60L300,-60L300,-180Z" fill="#dff3f3" stroke="#dff3f3" stroke-width="1.51"/><path d="M180,-180L180,-60L300,-180Z" fill="#e3f4f5" stroke="#e3f4f5" stroke-width="1.51"/><path d="M60,1260L180,1260L180,1140Z" fill="#77a486" stroke="#77a486" stroke-width="1.51"/><path d="M60,1140L60,1260L180,1140Z" fill="#7ba989" stroke="#7ba989" stroke-width="1.51"/><path d="M60,1140L180,1140L180,1020Z" fill="#7db18d" stroke="#7db18d" stroke-width="1.51"/><path d="M60,1020L60,1140L180,1020Z" fill="#82b591" stroke="#82b591" stroke-width="1.51"/><path d="M60,1020L180,1020L180,900Z" fill="#84bb96" stroke="#84bb96" stroke-width="1.51"/><path d="M60,900L60,1020L180,900Z" fill="#89be9a" stroke="#89be9a" stroke-width="1.51"/><path d="M60,900L180,900L180,780Z" fill="#8cc5a3" stroke="#8cc5a3" stroke-width="1.51"/><path d="M60,780L60,900L180,780Z" fill="#91caa9" stroke="#91caa9" stroke-width="1.51"/><path d="M60,780L180,780L180,660Z" fill="#94d0b3" stroke="#94d0b3" stroke-width="1.51"/><path d="M60,660L60,780L180,660Z" fill="#9ad3b9" stroke="#9ad3b9" stroke-width="1.51"/><path d="M60,660L180,660L180,540Z" fill="#9ed7c1" stroke="#9ed7c1" stroke-width="1.51"/><path d="M60,540L60,660L180,540Z" fill="#a3d9c7" stroke="#a3d9c7" stroke-width="1.51"/><path d="M60,540L180,540L180,420Z" fill="#a9ddcf" stroke="#a9ddcf" stroke-width="1.51"/><path d="M60,420L60,540L180,420Z" fill="#b0e0d4" stroke="#b0e0d4" stroke-width="1.51"/><path d="M60,420L180,420L180,300Z" fill="#b8e4db" stroke="#b8e4db" stroke-width="1.51"/><path d="M60,300L60,420L180,300Z" fill="#bfe7e0" stroke="#bfe7e0" stroke-width="1.51"/><path d="M60,300L180,300L180,180Z" fill="#c7eae5" stroke="#c7eae5" stroke-width="1.51"/><path d="M60,180L60,300L180,180Z" fill="#ceede9" stroke="#ceede9" stroke-width="1.51"/><path d="M60,180L180,180L180,60Z" fill="#d6f0ed" stroke="#d6f0ed" stroke-width="1.51"/><path d="M60,60L60,180L180,60Z" fill="#daf1f0" stroke="#daf1f0" stroke-width="1.51"/><path d="M60,60L180,60L180,-60Z" fill="#ddf2f3" stroke="#ddf2f3" stroke-width="1.51"/><path d="M60,-60L60,60L180,-60Z" fill="#e2f4f6" stroke="#e2f4f6" stroke-width="1.51"/><path d="M60,-60L180,-60L180,-180Z" fill="#e4f5f7" stroke="#e4f5f7" stroke-width="1.51"/><path d="M60,-180L60,-60L180,-180Z" fill="#e8f6f8" stroke="#e8f6f8" stroke-width="1.51"/><path d="M-60,1260L60,1260L60,1140Z" fill="#7ba589" stroke="#7ba589" stroke-width="1.51"/><path d="M-60,1140L-60,1260L60,1140Z" fill="#7faa8b" stroke="#7faa8b" stroke-width="1.51"/><path d="M-60,1140L60,1140L60,1020Z" fill="#82b390" stroke="#82b390" stroke-width="1.51"/><path d="M-60,1020L-60,1140L60,1020Z" fill="#86b693" stroke="#86b693" stroke-width="1.51"/><path d="M-60,1020L60,1020L60,900Z" fill="#89bc98" stroke="#89bc98" stroke-width="1.51"/><path d="M-60,900L-60,1020L60,900Z" fill="#8dc09c" stroke="#8dc09c" stroke-width="1.51"/><path d="M-60,900L60,900L60,780Z" fill="#91c7a5" stroke="#91c7a5" stroke-width="1.51"/><path d="M-60,780L-60,900L60,780Z" fill="#95cbab" stroke="#95cbab" stroke-width="1.51"/><path d="M-60,780L60,780L60,660Z" fill="#99d2b6" stroke="#99d2b6" stroke-width="1.51"/><path d="M-60,660L-60,780L60,660Z" fill="#9ed5ba" stroke="#9ed5ba" stroke-width="1.51"/><path d="M-60,660L60,660L60,540Z" fill="#a3d8c4" stroke="#a3d8c4" stroke-width="1.51"/><path d="M-60,540L-60,660L60,540Z" fill="#a7dbc9" stroke="#a7dbc9" stroke-width="1.51"/><path d="M-60,540L60,540L60,420Z" fill="#aedfd2" stroke="#aedfd2" stroke-width="1.51"/><path d="M-60,420L-60,540L60,420Z" fill="#b4e1d6" stroke="#b4e1d6" stroke-width="1.51"/><path d="M-60,420L60,420L60,300Z" fill="#bce5de" stroke="#bce5de" stroke-width="1.51"/><path d="M-60,300L-60,420L60,300Z" fill="#c3e8e2" stroke="#c3e8e2" stroke-width="1.51"/><path d="M-60,300L60,300L60,180Z" fill="#ccece8" stroke="#ccece8" stroke-width="1.51"/><path d="M-60,180L-60,300L60,180Z" fill="#d2eeeb" stroke="#d2eeeb" stroke-width="1.51"/><path d="M-60,180L60,180L60,60Z" fill="#daf1f0" stroke="#daf1f0" stroke-width="1.51"/><path d="M-60,60L-60,180L60,60Z" fill="#def3f2" stroke="#def3f2" stroke-width="1.51"/><path d="M-60,60L60,60L60,-60Z" fill="#e2f4f6" stroke="#e2f4f6" stroke-width="1.51"/><path d="M-60,-60L-60,60L60,-60Z" fill="#e6f6f8" stroke="#e6f6f8" stroke-width="1.51"/><path d="M-60,-60L60,-60L60,-180Z" fill="#e9f7fa" stroke="#e9f7fa" stroke-width="1.51"/><path d="M-60,-180L-60,-60L60,-180Z" fill="#ecf8fa" stroke="#ecf8fa" stroke-width="1.51"/><path d="M-180,1260L-60,1260L-60,1140Z" fill="#7fa789" stroke="#7fa789" stroke-width="1.51"/><path d="M-180,1140L-180,1260L-60,1140Z" fill="#82ac8c" stroke="#82ac8c" stroke-width="1.51"/><path d="M-180,1140L-60,1140L-60,1020Z" fill="#86b490" stroke="#86b490" stroke-width="1.51"/><path d="M-180,1020L-180,1140L-60,1020Z" fill="#89b894" stroke="#89b894" stroke-width="1.51"/><path d="M-180,1020L-60,1020L-60,900Z" fill="#8dbe99" stroke="#8dbe99" stroke-width="1.51"/><path d="M-180,900L-180,1020L-60,900Z" fill="#90c19d" stroke="#90c19d" stroke-width="1.51"/><path d="M-180,900L-60,900L-60,780Z" fill="#95c8a6" stroke="#95c8a6" stroke-width="1.51"/><path d="M-180,780L-180,900L-60,780Z" fill="#99cdac" stroke="#99cdac" stroke-width="1.51"/><path d="M-180,780L-60,780L-60,660Z" fill="#9dd4b6" stroke="#9dd4b6" stroke-width="1.51"/><path d="M-180,660L-180,780L-60,660Z" fill="#a1d7bb" stroke="#a1d7bb" stroke-width="1.51"/><path d="M-180,660L-60,660L-60,540Z" fill="#a7dac5" stroke="#a7dac5" stroke-width="1.51"/><path d="M-180,540L-180,660L-60,540Z" fill="#abdcca" stroke="#abdcca" stroke-width="1.51"/><path d="M-180,540L-60,540L-60,420Z" fill="#b2e0d2" stroke="#b2e0d2" stroke-width="1.51"/><path d="M-180,420L-180,540L-60,420Z" fill="#b8e3d7" stroke="#b8e3d7" stroke-width="1.51"/><path d="M-180,420L-60,420L-60,300Z" fill="#c0e7de" stroke="#c0e7de" stroke-width="1.51"/><path d="M-180,300L-180,420L-60,300Z" fill="#c6eae3" stroke="#c6eae3" stroke-width="1.51"/><path d="M-180,300L-60,300L-60,180Z" fill="#d0ede8" stroke="#d0ede8" stroke-width="1.51"/><path d="M-180,180L-180,300L-60,180Z" fill="#d6f0ec" stroke="#d6f0ec" stroke-width="1.51"/><path d="M-180,180L-60,180L-60,60Z" fill="#def3f1" stroke="#def3f1" stroke-width="1.51"/><path d="M-180,60L-180,180L-60,60Z" fill="#e2f4f3" stroke="#e2f4f3" stroke-width="1.51"/><path d="M-180,60L-60,60L-60,-60Z" fill="#e6f6f7" stroke="#e6f6f7" stroke-width="1.51"/><path d="M-180,-60L-180,60L-60,-60Z" fill="#eaf7f9" stroke="#eaf7f9" stroke-width="1.51"/><path d="M-180,-60L-60,-60L-60,-180Z" fill="#edf8fb" stroke="#edf8fb" stroke-width="1.51"/><path d="M-180,-180L-180,-60L-60,-180Z" fill="#f0f9fc" stroke="#f0f9fc" stroke-width="1.51"/></svg>