<svg xmlns="http://www.w3.org/2000/svg" width="1920" height="1080"><path d="M1957,1395L2242,1395L2242,1110Z" fill="#8f3105" stroke="#8f3105" stroke-width="1.51"/><path d="M1957,1110L1957,1395L2242,1110Z" fill="#a03704" stroke="#a03704" stroke-width="1.51"/><path d="M1957,1110L2242,1110L2242,825Z" fill="#ab3f05" stroke="#ab3f05" stroke-width="1.51"/><path d="M1957,825L1957,1110L2242,825Z" fill="#b84807" stroke="#b84807" stroke-width="1.51"/><path d="M1957,825L2242,825L2242,540Z" fill="#bb540f" stroke="#bb540f" stroke-width="1.51"/><path d="M1957,540L1957,825L2242,540Z" fill="#c65e11" stroke="#c65e11" stroke-width="1.51"/><path d="M1957,540L2242,540L2242,255Z" fill="#c36c1e" stroke="#c36c1e" stroke-width="1.51"/><path d="M1957,255L1957,540L2242,255Z" fill="#ca7624" stroke="#ca7624" stroke-width="1.51"/><path d="M1957,255L2242,255L2242,-30Z" fill="#c5803a" stroke="#c5803a" stroke-width="1.51"/><path d="M1957,-30L1957,255L2242,-30Z" fill="#cd8946" stroke="#cd8946" stroke-width="1.51"/><path d="M1957,-30L2242,-30L2242,-315Z" fill="#c88e57" stroke="#c88e57" stroke-width="1.51"/><path d="M1957,-315L1957,-30L2242,-315Z" fill="#d1945f" stroke="#d1945f" stroke-width="1.51"/><path d="M1672,1395L1957,1395L1957,1110Z" fill="#a33904" stroke="#a33904" stroke-width="1.51"/><path d="M1672,1110L1672,1395L1957,1110Z" fill="#b44104" stroke="#b44104" stroke-width="1.51"/><path d="M1672,1110L1957,1110L1957,825Z" fill="#c04703" stroke="#c04703" stroke-width="1.51"/><path d="M1672,825L1672,1110L1957,825Z" fill="#cc5106" stroke="#cc5106" stroke-width="1.51"/><path d="M1672,825L1957,825L1957,540Z" fill="#d05d0d" stroke="#d05d0d" stroke-width="1.51"/><path d="M1672,540L1672,825L1957,540Z" fill="#da6812" stroke="#da6812" stroke-width="1.51"/><path d="M1672,540L1957,540L1957,255Z" fill="#d8751e" stroke="#d8751e" stroke-width="1.51"/><path d="M1672,255L1672,540L1957,255Z" fill="#df8126" stroke="#df8126" stroke-width="1.51"/><path d="M1672,255L1957,255L1957,-30Z" fill="#db8b3c" stroke="#db8b3c" stroke-width="1.51"/><path d="M1672,-30L1672,255L1957,-30Z" fill="#e29449" stroke="#e29449" stroke-width="1.51"/><path d="M1672,-30L1957,-30L1957,-315Z" fill="#de9859" stroke="#de9859" stroke-width="1.51"/><path d="M1672,-315L1672,-30L1957,-315Z" fill="#e69f62" stroke="#e69f62" stroke-width="1.51"/><path d="M1387,1395L1672,1395L1672,1110Z" fill="#b54405" stroke="#b54405" stroke-width="1.51"/><path d="M1387,1110L1387,1395L1672,1110Z" fill="#c34d07" stroke="#c34d07" stroke-width="1.51"/><path d="M1387,1110L1672,1110L1672,825Z" fill="#d25304" stroke="#d25304" stroke-width="1.51"/><path d="M1387,825L1387,1110L1672,825Z" fill="#dc5e0b" stroke="#dc5e0b" stroke-width="1.51"/><path d="M1387,825L1672,825L1672,540Z" fill="#e36810" stroke="#e36810" stroke-width="1.51"/><path d="M1387,540L1387,825L1672,540Z" fill="#ea7516" stroke="#ea7516" stroke-width="1.51"/><path d="M1387,540L1672,540L1672,255Z" fill="#eb8121" stroke="#eb8121" stroke-width="1.51"/><path d="M1387,255L1387,540L1672,255Z" fill="#ef8e2a" stroke="#ef8e2a" stroke-width="1.51"/><path d="M1387,255L1672,255L1672,-30Z" fill="#ed973f" stroke="#ed973f" stroke-width="1.51"/><path d="M1387,-30L1387,255L1672,-30Z" fill="#f2a14e" stroke="#f2a14e" stroke-width="1.51"/><path d="M1387,-30L1672,-30L1672,-315Z" fill="#f1a45e" stroke="#f1a45e" stroke-width="1.51"/><path d="M1387,-315L1387,-30L1672,-315Z" fill="#f6ac68" stroke="#f6ac68" stroke-width="1.51"/><path d="M1102,1395L1387,1395L1387,1110Z" fill="#c1530b" stroke="#c1530b" stroke-width="1.51"/><path d="M1102,1110L1102,1395L1387,1110Z" fill="#ce5d0f" stroke="#ce5d0f" stroke-width="1.51"/><path d="M1102,1110L1387,1110L1387,825Z" fill="#de620c" stroke="#de620c" stroke-width="1.51"/><path d="M1102,825L1102,1110L1387,825Z" fill="#e76e13" stroke="#e76e13" stroke-width="1.51"/><path d="M1102,825L1387,825L1387,540Z" fill="#ef7717" stroke="#ef7717" stroke-width="1.51"/><path d="M1102,540L1102,825L1387,540Z" fill="#f5841e" stroke="#f5841e" stroke-width="1.51"/><path d="M1102,540L1387,540L1387,255Z" fill="#f68f27" stroke="#f68f27" stroke-width="1.51"/><path d="M1102,255L1102,540L1387,255Z" fill="#f99d31" stroke="#f99d31" stroke-width="1.51"/><path d="M1102,255L1387,255L1387,-30Z" fill="#f9a546" stroke="#f9a546" stroke-width="1.51"/><path d="M1102,-30L1102,255L1387,-30Z" fill="#fbb056" stroke="#fbb056" stroke-width="1.51"/><path d="M1102,-30L1387,-30L1387,-315Z" fill="#fcb265" stroke="#fcb265" stroke-width="1.51"/><path d="M1102,-315L1102,-30L1387,-315Z" fill="#ffbb6f" stroke="#ffbb6f" stroke-width="1.51"/><path d="M817,1395L1102,1395L1102,1110Z" fill="#c86314" stroke="#c86314" stroke-width="1.51"/><path d="M817,1110L817,1395L1102,1110Z" fill="#d46e18" stroke="#d46e18" stroke-width="1.51"/><path d="M817,1110L1102,1110L1102,825Z" fill="#e67315" stroke="#e67315" stroke-width="1.51"/><path d="M817,825L817,1110L1102,825Z" fill="#ed7f1d" stroke="#ed7f1d" stroke-width="1.51"/><path d="M817,825L1102,825L1102,540Z" fill="#f68720" stroke="#f68720" stroke-width="1.51"/><path d="M817,540L817,825L1102,540Z" fill="#fb9528" stroke="#fb9528" stroke-width="1.51"/><path d="M817,540L1102,540L1102,255Z" fill="#fe9f2f" stroke="#fe9f2f" stroke-width="1.51"/><path d="M817,255L817,540L1102,255Z" fill="#fead3a" stroke="#fead3a" stroke-width="1.51"/><path d="M817,255L1102,255L1102,-30Z" fill="#ffb44e" stroke="#ffb44e" stroke-width="1.51"/><path d="M817,-30L817,255L1102,-30Z" fill="#ffc05e" stroke="#ffc05e" stroke-width="1.51"/><path d="M817,-30L1102,-30L1102,-315Z" fill="#ffc26d" stroke="#ffc26d" stroke-width="1.51"/><path d="M817,-315L817,-30L1102,-315Z" fill="#ffcb78" stroke="#ffcb78" stroke-width="1.51"/><path d="M532,1395L817,1395L817,1110Z" fill="#cb7422" stroke="#cb7422" stroke-width="1.51"/><path d="M532,1110L532,1395L817,1110Z" fill="#d57f28" stroke="#d57f28" stroke-width="1.51"/><path d="M532,1110L817,1110L817,825Z" fill="#e88425" stroke="#e88425" stroke-width="1.51"/><path d="M532,825L532,1110L817,825Z" fill="#ee902d" stroke="#ee902d" stroke-width="1.51"/><path d="M532,825L817,825L817,540Z" fill="#f8992f" stroke="#f8992f" stroke-width="1.51"/><path d="M532,540L532,825L817,540Z" fill="#fba638" stroke="#fba638" stroke-width="1.51"/><path d="M532,540L817,540L817,255Z" fill="#ffb03e" stroke="#ffb03e" stroke-width="1.51"/><path d="M532,255L532,540L817,255Z" fill="#febe4a" stroke="#febe4a" stroke-width="1.51"/><path d="M532,255L817,255L817,-30Z" fill="#ffc55b" stroke="#ffc55b" stroke-width="1.51"/><path d="M532,-30L532,255L817,-30Z" fill="#ffd06d" stroke="#ffd06d" stroke-width="1.51"/><path d="M532,-30L817,-30L817,-315Z" fill="#ffd37a" stroke="#ffd37a" stroke-width="1.51"/><path d="M532,-315L532,-30L817,-315Z" fill="#ffdc87" stroke="#ffdc87" stroke-width="1.51"/><path d="M247,1395L532,1395L532,1110Z" fill="#cc8239" stroke="#cc8239" stroke-width="1.51"/><path d="M247,1110L247,1395L532,1110Z" fill="#d88c42" stroke="#d88c42" stroke-width="1.51"/><path d="M247,1110L532,1110L532,825Z" fill="#ea933c" stroke="#ea933c" stroke-width="1.51"/><path d="M247,825L247,1110L532,825Z" fill="#f19d48" stroke="#f19d48" stroke-width="1.51"/><path d="M247,825L532,825L532,540Z" fill="#faa746" stroke="#faa746" stroke-width="1.51"/><path d="M247,540L247,825L532,540Z" fill="#fdb353" stroke="#fdb353" stroke-width="1.51"/><path d="M247,540L532,540L532,255Z" fill="#ffbe54" stroke="#ffbe54" stroke-width="1.51"/><path d="M247,255L247,540L532,255Z" fill="#ffca64" stroke="#ffca64" stroke-width="1.51"/><path d="M247,255L532,255L532,-30Z" fill="#ffd371" stroke="#ffd371" stroke-width="1.51"/><path d="M247,-30L247,255L532,-30Z" fill="#ffdd86" stroke="#ffdd86" stroke-width="1.51"/><path d="M247,-30L532,-30L532,-315Z" fill="#ffe18f" stroke="#ffe18f" stroke-width="1.51"/><path d="M247,-315L247,-30L532,-315Z" fill="#ffe99f" stroke="#ffe99f" stroke-width="1.51"/><path d="M-38,1395L247,1395L247,1110Z" fill="#cf8d4f" stroke="#cf8d4f" stroke-width="1.51"/><path d="M-38,1110L-38,1395L247,1110Z" fill="#da9556" stroke="#da9556" stroke-width="1.51"/><path d="M-38,1110L247,1110L247,825Z" fill="#ed9e54" stroke="#ed9e54" stroke-width="1.51"/><path d="M-38,825L-38,1110L247,825Z" fill="#f3a75c" stroke="#f3a75c" stroke-width="1.51"/><path d="M-38,825L247,825L247,540Z" fill="#fcb25e" stroke="#fcb25e" stroke-width="1.51"/><path d="M-38,540L-38,825L247,540Z" fill="#ffbc67" stroke="#ffbc67" stroke-width="1.51"/><path d="M-38,540L247,540L247,255Z" fill="#ffc96c" stroke="#ffc96c" stroke-width="1.51"/><path d="M-38,255L-38,540L247,255Z" fill="#ffd478" stroke="#ffd478" stroke-width="1.51"/><path d="M-38,255L247,255L247,-30Z" fill="#ffde88" stroke="#ffde88" stroke-width="1.51"/><path d="M-38,-30L-38,255L247,-30Z" fill="#ffe79a" stroke="#ffe79a" stroke-width="1.51"/><path d="M-38,-30L247,-30L247,-315Z" fill="#ffeca6" stroke="#ffeca6" stroke-width="1.51"/><path d="M-38,-315L-38,-30L247,-315Z" fill="#fff2b3" stroke="#fff2b3" stroke-width="1.51"/><path d="M-323,1395L-38,1395L-38,1110Z" fill="#d1955f" stroke="#d1955f" stroke-width="1.51"/><path d="M-323,1110L-323,1395L-38,1110Z" fill="#dc9b66" stroke="#dc9b66" stroke-width="1.51"/><path d="M-323,1110L-38,1110L-38,825Z" fill="#efa564" stroke="#efa564" stroke-width="1.51"/><path d="M-323,825L-323,1110L-38,825Z" fill="#f6ad6d" stroke="#f6ad6d" stroke-width="1.51"/><path d="M-323,825L-38,825L-38,540Z" fill="#feba6f" stroke="#feba6f" stroke-width="1.51"/><path d="M-323,540L-323,825L-38,540Z" fill="#ffc278" stroke="#ffc278" stroke-width="1.51"/><path d="M-323,540L-38,540L-38,255Z" fill="#ffd17d" stroke="#ffd17d" stroke-width="1.51"/><path d="M-323,255L-323,540L-38,255Z" fill="#ffda89" stroke="#ffda89" stroke-width="1.51"/><path d="M-323,255L-38,255L-38,-30Z" fill="#ffe699" stroke="#ffe699" stroke-width="1.51"/><path d="M-323,-30L-323,255L-38,-30Z" fill="#ffedab" stroke="#ffedab" stroke-width="1.51"/><path d="M-323,-30L-38,-30L-38,-315Z" fill="#fff4b6" stroke="#fff4b6" stroke-width="1.51"/><path d="M-323,-315L-323,-30L-38,-315Z" fill="#fff8c4" stroke="#fff8c4" stroke-width="1.51"/></svg>