<svg xmlns="http://www.w3.org/2000/svg" width="1920" height="1080"><path d="M1230,1398L756,1412L1398,1432Z" fill="#35864d" stroke="#35864d" stroke-width="1.51"/><path d="M1922,904L1917,1010L2183,750Z" fill="#1f8245" stroke="#1f8245" stroke-width="1.51"/><path d="M1841,189L2184,432L2285,356Z" fill="#5c9b5e" stroke="#5c9b5e" stroke-width="1.51"/><path d="M2184,432L2183,750L2285,356Z" fill="#458d54" stroke="#458d54" stroke-width="1.51"/><path d="M1937,-208L1862,-79L2286,-162Z" fill="#83af72" stroke="#83af72" stroke-width="1.51"/><path d="M1841,189L2285,356L2286,-162Z" fill="#6ea165" stroke="#6ea165" stroke-width="1.51"/><path d="M1862,-79L1841,189L2286,-162Z" fill="#7cad6d" stroke="#7cad6d" stroke-width="1.51"/><path d="M1322,-424L1759,-353L2306,-267Z" fill="#91bb85" stroke="#91bb85" stroke-width="1.51"/><path d="M1759,-353L1937,-208L2306,-267Z" fill="#88b27b" stroke="#88b27b" stroke-width="1.51"/><path d="M2286,-162L2285,356L2306,-267Z" fill="#759d68" stroke="#759d68" stroke-width="1.51"/><path d="M2183,750L1917,1010L2314,1162Z" fill="#18753e" stroke="#18753e" stroke-width="1.51"/><path d="M2285,356L2183,750L2314,1162Z" fill="#277e47" stroke="#277e47" stroke-width="1.51"/><path d="M2306,-267L2285,356L2314,1162Z" fill="#4e8c56" stroke="#4e8c56" stroke-width="1.51"/><path d="M1816,1321L1398,1432L2315,1273Z" fill="#0b6b38" stroke="#0b6b38" stroke-width="1.51"/><path d="M2314,1162L1917,1010L2315,1273Z" fill="#0b6837" stroke="#0b6837" stroke-width="1.51"/><path d="M1917,1010L1816,1321L2315,1273Z" fill="#086d39" stroke="#086d39" stroke-width="1.51"/><path d="M1937,-208L2286,-162L2306,-267Z" fill="#83a872" stroke="#83a872" stroke-width="1.51"/><path d="M629,-438L829,-395L1322,-424Z" fill="#bfe4ac" stroke="#bfe4ac" stroke-width="1.51"/><path d="M1918,659L1922,904L2183,750Z" fill="#298b4b" stroke="#298b4b" stroke-width="1.51"/><path d="M1918,659L2183,750L2184,432Z" fill="#3b8e52" stroke="#3b8e52" stroke-width="1.51"/><path d="M1798,430L1918,659L2184,432Z" fill="#4a9a59" stroke="#4a9a59" stroke-width="1.51"/><path d="M1841,189L1798,430L2184,432Z" fill="#5ea260" stroke="#5ea260" stroke-width="1.51"/><path d="M1581,1195L1614,1259L1816,1321Z" fill="#16773d" stroke="#16773d" stroke-width="1.51"/><path d="M1581,1195L1816,1321L1917,1010Z" fill="#17783e" stroke="#17783e" stroke-width="1.51"/><path d="M1918,659L1636,710L1922,904Z" fill="#31934f" stroke="#31934f" stroke-width="1.51"/><path d="M1759,-353L1862,-79L1937,-208Z" fill="#8cb879" stroke="#8cb879" stroke-width="1.51"/><path d="M1636,710L1581,1195L1917,1010Z" fill="#268746" stroke="#268746" stroke-width="1.51"/><path d="M1798,430L1636,710L1918,659Z" fill="#469d58" stroke="#469d58" stroke-width="1.51"/><path d="M1636,710L1917,1010L1922,904Z" fill="#288a49" stroke="#288a49" stroke-width="1.51"/><path d="M1384,943L1581,1195L1636,710Z" fill="#2f924c" stroke="#2f924c" stroke-width="1.51"/><path d="M1614,1259L1398,1432L1816,1321Z" fill="#17763e" stroke="#17763e" stroke-width="1.51"/><path d="M1530,389L1798,430L1841,189Z" fill="#66ac64" stroke="#66ac64" stroke-width="1.51"/><path d="M1545,38L1841,189L1862,-79Z" fill="#80b66f" stroke="#80b66f" stroke-width="1.51"/><path d="M1759,-353L1545,38L1862,-79Z" fill="#8cbb77" stroke="#8cbb77" stroke-width="1.51"/><path d="M1545,38L1530,389L1841,189Z" fill="#76b56c" stroke="#76b56c" stroke-width="1.51"/><path d="M1412,-43L1545,38L1759,-353Z" fill="#91c37c" stroke="#91c37c" stroke-width="1.51"/><path d="M1530,389L1636,710L1798,430Z" fill="#55a75f" stroke="#55a75f" stroke-width="1.51"/><path d="M1322,-424L1412,-43L1759,-353Z" fill="#9bca89" stroke="#9bca89" stroke-width="1.51"/><path d="M161,1264L-331,1318L756,1412Z" fill="#78a86b" stroke="#78a86b" stroke-width="1.51"/><path d="M1333,117L1530,389L1545,38Z" fill="#7ebf74" stroke="#7ebf74" stroke-width="1.51"/><path d="M1530,389L1411,448L1636,710Z" fill="#59ae64" stroke="#59ae64" stroke-width="1.51"/><path d="M1411,448L1384,943L1636,710Z" fill="#46a75c" stroke="#46a75c" stroke-width="1.51"/><path d="M1384,943L1370,1208L1581,1195Z" fill="#298c49" stroke="#298c49" stroke-width="1.51"/><path d="M1581,1195L1370,1208L1614,1259Z" fill="#208144" stroke="#208144" stroke-width="1.51"/><path d="M1370,1208L1398,1432L1614,1259Z" fill="#1e8044" stroke="#1e8044" stroke-width="1.51"/><path d="M1136,823L1384,943L1411,448Z" fill="#48ae60" stroke="#48ae60" stroke-width="1.51"/><path d="M1322,-424L1167,-180L1412,-43Z" fill="#a2d48b" stroke="#a2d48b" stroke-width="1.51"/><path d="M1333,117L1411,448L1530,389Z" fill="#73bc70" stroke="#73bc70" stroke-width="1.51"/><path d="M1412,-43L1333,117L1545,38Z" fill="#8dc77b" stroke="#8dc77b" stroke-width="1.51"/><path d="M1212,1182L1370,1208L1384,943Z" fill="#2f934e" stroke="#2f934e" stroke-width="1.51"/><path d="M1370,1208L1230,1398L1398,1432Z" fill="#248448" stroke="#248448" stroke-width="1.51"/><path d="M1333,117L986,385L1411,448Z" fill="#7dc677" stroke="#7dc677" stroke-width="1.51"/><path d="M1055,613L1136,823L1411,448Z" fill="#5db86a" stroke="#5db86a" stroke-width="1.51"/><path d="M1092,-13L1333,117L1412,-43Z" fill="#96d082" stroke="#96d082" stroke-width="1.51"/><path d="M1167,-180L1092,-13L1412,-43Z" fill="#9fd488" stroke="#9fd488" stroke-width="1.51"/><path d="M986,385L1055,613L1411,448Z" fill="#71c274" stroke="#71c274" stroke-width="1.51"/><path d="M-76,1267L-331,1318L161,1264Z" fill="#86b074" stroke="#86b074" stroke-width="1.51"/><path d="M1212,1182L1230,1398L1370,1208Z" fill="#2b8c4c" stroke="#2b8c4c" stroke-width="1.51"/><path d="M1136,823L1212,1182L1384,943Z" fill="#3c9e56" stroke="#3c9e56" stroke-width="1.51"/><path d="M603,1340L161,1264L756,1412Z" fill="#66a062" stroke="#66a062" stroke-width="1.51"/><path d="M1092,-13L986,385L1333,117Z" fill="#93d082" stroke="#93d082" stroke-width="1.51"/><path d="M1136,823L959,993L1212,1182Z" fill="#47a25a" stroke="#47a25a" stroke-width="1.51"/><path d="M829,-395L1167,-180L1322,-424Z" fill="#b1dc9d" stroke="#b1dc9d" stroke-width="1.51"/><path d="M876,139L986,385L1092,-13Z" fill="#9cd587" stroke="#9cd587" stroke-width="1.51"/><path d="M1212,1182L756,1412L1230,1398Z" fill="#3b8f52" stroke="#3b8f52" stroke-width="1.51"/><path d="M959,993L756,1412L1212,1182Z" fill="#489b59" stroke="#489b59" stroke-width="1.51"/><path d="M1055,613L927,694L1136,823Z" fill="#61ba6c" stroke="#61ba6c" stroke-width="1.51"/><path d="M829,-395L1092,-13L1167,-180Z" fill="#b4de95" stroke="#b4de95" stroke-width="1.51"/><path d="M829,-395L709,-7L1092,-13Z" fill="#bbe298" stroke="#bbe298" stroke-width="1.51"/><path d="M927,694L959,993L1136,823Z" fill="#57b266" stroke="#57b266" stroke-width="1.51"/><path d="M709,-7L876,139L1092,-13Z" fill="#aedd90" stroke="#aedd90" stroke-width="1.51"/><path d="M596,1220L756,1412L959,993Z" fill="#58a05e" stroke="#58a05e" stroke-width="1.51"/><path d="M748,502L927,694L986,385Z" fill="#7fc97b" stroke="#7fc97b" stroke-width="1.51"/><path d="M986,385L927,694L1055,613Z" fill="#73c376" stroke="#73c376" stroke-width="1.51"/><path d="M927,694L480,849L959,993Z" fill="#69b96d" stroke="#69b96d" stroke-width="1.51"/><path d="M876,139L748,502L986,385Z" fill="#94d284" stroke="#94d284" stroke-width="1.51"/><path d="M583,-137L709,-7L829,-395Z" fill="#c9e99f" stroke="#c9e99f" stroke-width="1.51"/><path d="M480,849L596,1220L959,993Z" fill="#68af67" stroke="#68af67" stroke-width="1.51"/><path d="M-113,-356L375,-318L629,-438Z" fill="#e8f6bb" stroke="#e8f6bb" stroke-width="1.51"/><path d="M550,445L748,502L876,139Z" fill="#9dd687" stroke="#9dd687" stroke-width="1.51"/><path d="M748,502L480,849L927,694Z" fill="#7cc778" stroke="#7cc778" stroke-width="1.51"/><path d="M629,-438L583,-137L829,-395Z" fill="#cfebab" stroke="#cfebab" stroke-width="1.51"/><path d="M709,-7L550,445L876,139Z" fill="#aede8f" stroke="#aede8f" stroke-width="1.51"/><path d="M596,1220L603,1340L756,1412Z" fill="#5c9d5e" stroke="#5c9d5e" stroke-width="1.51"/><path d="M417,382L550,445L709,-7Z" fill="#b2df90" stroke="#b2df90" stroke-width="1.51"/><path d="M550,445L480,849L748,502Z" fill="#8ecf80" stroke="#8ecf80" stroke-width="1.51"/><path d="M480,849L362,1136L596,1220Z" fill="#73b26a" stroke="#73b26a" stroke-width="1.51"/><path d="M583,-137L373,-127L709,-7Z" fill="#ceeba0" stroke="#ceeba0" stroke-width="1.51"/><path d="M373,-127L417,382L709,-7Z" fill="#c6e899" stroke="#c6e899" stroke-width="1.51"/><path d="M205,769L480,849L550,445Z" fill="#91cf80" stroke="#91cf80" stroke-width="1.51"/><path d="M375,-318L583,-137L629,-438Z" fill="#d8efad" stroke="#d8efad" stroke-width="1.51"/><path d="M417,382L151,614L550,445Z" fill="#a8db8d" stroke="#a8db8d" stroke-width="1.51"/><path d="M151,614L205,769L550,445Z" fill="#a0d688" stroke="#a0d688" stroke-width="1.51"/><path d="M375,-318L373,-127L583,-137Z" fill="#dbf1a7" stroke="#dbf1a7" stroke-width="1.51"/><path d="M596,1220L362,1136L603,1340Z" fill="#69a665" stroke="#69a665" stroke-width="1.51"/><path d="M362,1136L161,1264L603,1340Z" fill="#72aa68" stroke="#72aa68" stroke-width="1.51"/><path d="M373,-127L145,338L417,382Z" fill="#c8e99a" stroke="#c8e99a" stroke-width="1.51"/><path d="M-9,115L145,338L373,-127Z" fill="#d7efa2" stroke="#d7efa2" stroke-width="1.51"/><path d="M205,769L362,1136L480,849Z" fill="#84c175" stroke="#84c175" stroke-width="1.51"/><path d="M145,338L151,614L417,382Z" fill="#b4e092" stroke="#b4e092" stroke-width="1.51"/><path d="M205,769L161,1264L362,1136Z" fill="#82b871" stroke="#82b871" stroke-width="1.51"/><path d="M-113,-356L-116,-22L373,-127Z" fill="#eef9b2" stroke="#eef9b2" stroke-width="1.51"/><path d="M-113,-356L373,-127L375,-318Z" fill="#ebf7b4" stroke="#ebf7b4" stroke-width="1.51"/><path d="M-116,-22L-9,115L373,-127Z" fill="#e3f5aa" stroke="#e3f5aa" stroke-width="1.51"/><path d="M-134,1084L161,1264L205,769Z" fill="#8abc76" stroke="#8abc76" stroke-width="1.51"/><path d="M145,338L-72,622L151,614Z" fill="#b3df94" stroke="#b3df94" stroke-width="1.51"/><path d="M-134,1084L-76,1267L161,1264Z" fill="#86b474" stroke="#86b474" stroke-width="1.51"/><path d="M151,614L-65,770L205,769Z" fill="#9fd488" stroke="#9fd488" stroke-width="1.51"/><path d="M-65,770L-134,1084L205,769Z" fill="#98cb82" stroke="#98cb82" stroke-width="1.51"/><path d="M-72,622L-65,770L151,614Z" fill="#a8d88d" stroke="#a8d88d" stroke-width="1.51"/><path d="M-367,473L-72,622L-9,115Z" fill="#c8e8a1" stroke="#c8e8a1" stroke-width="1.51"/><path d="M-9,115L-72,622L145,338Z" fill="#c6e89c" stroke="#c6e89c" stroke-width="1.51"/><path d="M-244,-291L-283,-110L-116,-22Z" fill="#f5fbbd" stroke="#f5fbbd" stroke-width="1.51"/><path d="M-244,-291L-116,-22L-113,-356Z" fill="#f8fcbe" stroke="#f8fcbe" stroke-width="1.51"/><path d="M-116,-22L-386,224L-9,115Z" fill="#e4f4af" stroke="#e4f4af" stroke-width="1.51"/><path d="M-386,224L-367,473L-9,115Z" fill="#d6eead" stroke="#d6eead" stroke-width="1.51"/><path d="M-134,1084L-280,1211L-76,1267Z" fill="#8cb67b" stroke="#8cb67b" stroke-width="1.51"/><path d="M-409,955L-134,1084L-65,770Z" fill="#9ac888" stroke="#9ac888" stroke-width="1.51"/><path d="M-72,622L-367,473L-65,770Z" fill="#b2dd97" stroke="#b2dd97" stroke-width="1.51"/><path d="M-367,473L-409,955L-65,770Z" fill="#a9d797" stroke="#a9d797" stroke-width="1.51"/><path d="M-280,1211L-331,1318L-76,1267Z" fill="#89b27c" stroke="#89b27c" stroke-width="1.51"/><path d="M-283,-110L-386,224L-116,-22Z" fill="#ebf7b8" stroke="#ebf7b8" stroke-width="1.51"/><path d="M-409,955L-280,1211L-134,1084Z" fill="#92bd85" stroke="#92bd85" stroke-width="1.51"/><path d="M-386,224L-283,-110L-244,-291Z" fill="#f1fabe" stroke="#f1fabe" stroke-width="1.51"/><path d="M-409,955L-331,1318L-280,1211Z" fill="#8fb986" stroke="#8fb986" stroke-width="1.51"/><path d="M-386,224L-409,955L-367,473Z" fill="#bbe2a9" stroke="#bbe2a9" stroke-width="1.51"/></svg>