<svg xmlns="http://www.w3.org/2000/svg" width="1920" height="1080"><path d="M1957,1395L2242,1395L2242,1110Z" fill="#239750" stroke="#239750" stroke-width="1.51"/><path d="M1957,1110L1957,1395L2242,1110Z" fill="#40a758" stroke="#40a758" stroke-width="1.51"/><path d="M1957,1110L2242,1110L2242,825Z" fill="#5caf59" stroke="#5caf59" stroke-width="1.51"/><path d="M1957,825L1957,1110L2242,825Z" fill="#72bc60" stroke="#72bc60" stroke-width="1.51"/><path d="M1957,825L2242,825L2242,540Z" fill="#85c06c" stroke="#85c06c" stroke-width="1.51"/><path d="M1957,540L1957,825L2242,540Z" fill="#95cb7b" stroke="#95cb7b" stroke-width="1.51"/><path d="M1957,540L2242,540L2242,255Z" fill="#98c077" stroke="#98c077" stroke-width="1.51"/><path d="M1957,255L1957,540L2242,255Z" fill="#a0c16f" stroke="#a0c16f" stroke-width="1.51"/><path d="M1957,255L2242,255L2242,-30Z" fill="#9ea558" stroke="#9ea558" stroke-width="1.51"/><path d="M1957,-30L1957,255L2242,-30Z" fill="#a69f54" stroke="#a69f54" stroke-width="1.51"/><path d="M1957,-30L2242,-30L2242,-315Z" fill="#9d8042" stroke="#9d8042" stroke-width="1.51"/><path d="M1957,-315L1957,-30L2242,-315Z" fill="#9f7c3e" stroke="#9f7c3e" stroke-width="1.51"/><path d="M1672,1395L1957,1395L1957,1110Z" fill="#47ab5a" stroke="#47ab5a" stroke-width="1.51"/><path d="M1672,1110L1672,1395L1957,1110Z" fill="#62b960" stroke="#62b960" stroke-width="1.51"/><path d="M1672,1110L1957,1110L1957,825Z" fill="#76c264" stroke="#76c264" stroke-width="1.51"/><path d="M1672,825L1672,1110L1957,825Z" fill="#8fcf68" stroke="#8fcf68" stroke-width="1.51"/><path d="M1672,825L1957,825L1957,540Z" fill="#9ed476" stroke="#9ed476" stroke-width="1.51"/><path d="M1672,540L1672,825L1957,540Z" fill="#b1dd85" stroke="#b1dd85" stroke-width="1.51"/><path d="M1672,540L1957,540L1957,255Z" fill="#b1d482" stroke="#b1d482" stroke-width="1.51"/><path d="M1672,255L1672,540L1957,255Z" fill="#bbd378" stroke="#bbd378" stroke-width="1.51"/><path d="M1672,255L1957,255L1957,-30Z" fill="#b6b862" stroke="#b6b862" stroke-width="1.51"/><path d="M1672,-30L1672,255L1957,-30Z" fill="#c0b05c" stroke="#c0b05c" stroke-width="1.51"/><path d="M1672,-30L1957,-30L1957,-315Z" fill="#b4924b" stroke="#b4924b" stroke-width="1.51"/><path d="M1672,-315L1672,-30L1957,-315Z" fill="#b88c46" stroke="#b88c46" stroke-width="1.51"/><path d="M1387,1395L1672,1395L1672,1110Z" fill="#6bb95e" stroke="#6bb95e" stroke-width="1.51"/><path d="M1387,1110L1387,1395L1672,1110Z" fill="#83c766" stroke="#83c766" stroke-width="1.51"/><path d="M1387,1110L1672,1110L1672,825Z" fill="#96d168" stroke="#96d168" stroke-width="1.51"/><path d="M1387,825L1387,1110L1672,825Z" fill="#addc6f" stroke="#addc6f" stroke-width="1.51"/><path d="M1387,825L1672,825L1672,540Z" fill="#bce27b" stroke="#bce27b" stroke-width="1.51"/><path d="M1387,540L1387,825L1672,540Z" fill="#ceea8b" stroke="#ceea8b" stroke-width="1.51"/><path d="M1387,540L1672,540L1672,255Z" fill="#cee287" stroke="#cee287" stroke-width="1.51"/><path d="M1387,255L1387,540L1672,255Z" fill="#d8e07f" stroke="#d8e07f" stroke-width="1.51"/><path d="M1387,255L1672,255L1672,-30Z" fill="#d1c567" stroke="#d1c567" stroke-width="1.51"/><path d="M1387,-30L1387,255L1672,-30Z" fill="#dabc62" stroke="#dabc62" stroke-width="1.51"/><path d="M1387,-30L1672,-30L1672,-315Z" fill="#ce9f50" stroke="#ce9f50" stroke-width="1.51"/><path d="M1387,-315L1387,-30L1672,-315Z" fill="#d1974c" stroke="#d1974c" stroke-width="1.51"/><path d="M1102,1395L1387,1395L1387,1110Z" fill="#87c56c" stroke="#87c56c" stroke-width="1.51"/><path d="M1102,1110L1102,1395L1387,1110Z" fill="#9cd278" stroke="#9cd278" stroke-width="1.51"/><path d="M1102,1110L1387,1110L1387,825Z" fill="#b0dd76" stroke="#b0dd76" stroke-width="1.51"/><path d="M1102,825L1102,1110L1387,825Z" fill="#c6e780" stroke="#c6e780" stroke-width="1.51"/><path d="M1102,825L1387,825L1387,540Z" fill="#d6ee89" stroke="#d6ee89" stroke-width="1.51"/><path d="M1102,540L1102,825L1387,540Z" fill="#e7f59d" stroke="#e7f59d" stroke-width="1.51"/><path d="M1102,540L1387,540L1387,255Z" fill="#e8ee96" stroke="#e8ee96" stroke-width="1.51"/><path d="M1102,255L1102,540L1387,255Z" fill="#f0ea90" stroke="#f0ea90" stroke-width="1.51"/><path d="M1102,255L1387,255L1387,-30Z" fill="#ead075" stroke="#ead075" stroke-width="1.51"/><path d="M1102,-30L1102,255L1387,-30Z" fill="#f1c574" stroke="#f1c574" stroke-width="1.51"/><path d="M1102,-30L1387,-30L1387,-315Z" fill="#e6a85e" stroke="#e6a85e" stroke-width="1.51"/><path d="M1102,-315L1102,-30L1387,-315Z" fill="#e8a05d" stroke="#e8a05d" stroke-width="1.51"/><path d="M817,1395L1102,1395L1102,1110Z" fill="#9bce84" stroke="#9bce84" stroke-width="1.51"/><path d="M817,1110L817,1395L1102,1110Z" fill="#acd688" stroke="#acd688" stroke-width="1.51"/><path d="M817,1110L1102,1110L1102,825Z" fill="#c5e58e" stroke="#c5e58e" stroke-width="1.51"/><path d="M817,825L817,1110L1102,825Z" fill="#d5eb92" stroke="#d5eb92" stroke-width="1.51"/><path d="M817,825L1102,825L1102,540Z" fill="#eaf6a2" stroke="#eaf6a2" stroke-width="1.51"/><path d="M817,540L817,825L1102,540Z" fill="#f6f9ae" stroke="#f6f9ae" stroke-width="1.51"/><path d="M817,540L1102,540L1102,255Z" fill="#fcf6ae" stroke="#fcf6ae" stroke-width="1.51"/><path d="M817,255L817,540L1102,255Z" fill="#ffeda1" stroke="#ffeda1" stroke-width="1.51"/><path d="M817,255L1102,255L1102,-30Z" fill="#fed88d" stroke="#fed88d" stroke-width="1.51"/><path d="M817,-30L817,255L1102,-30Z" fill="#ffc885" stroke="#ffc885" stroke-width="1.51"/><path d="M817,-30L1102,-30L1102,-315Z" fill="#faaf75" stroke="#faaf75" stroke-width="1.51"/><path d="M817,-315L817,-30L1102,-315Z" fill="#f6a26e" stroke="#f6a26e" stroke-width="1.51"/><path d="M532,1395L817,1395L817,1110Z" fill="#a1c373" stroke="#a1c373" stroke-width="1.51"/><path d="M532,1110L532,1395L817,1110Z" fill="#aec670" stroke="#aec670" stroke-width="1.51"/><path d="M532,1110L817,1110L817,825Z" fill="#c9da7d" stroke="#c9da7d" stroke-width="1.51"/><path d="M532,825L532,1110L817,825Z" fill="#d6da78" stroke="#d6da78" stroke-width="1.51"/><path d="M532,825L817,825L817,540Z" fill="#edeb91" stroke="#edeb91" stroke-width="1.51"/><path d="M532,540L532,825L817,540Z" fill="#f6e895" stroke="#f6e895" stroke-width="1.51"/><path d="M532,540L817,540L817,255Z" fill="#ffea9d" stroke="#ffea9d" stroke-width="1.51"/><path d="M532,255L532,540L817,255Z" fill="#fedd88" stroke="#fedd88" stroke-width="1.51"/><path d="M532,255L817,255L817,-30Z" fill="#ffcc7c" stroke="#ffcc7c" stroke-width="1.51"/><path d="M532,-30L532,255L817,-30Z" fill="#fdb76c" stroke="#fdb76c" stroke-width="1.51"/><path d="M532,-30L817,-30L817,-315Z" fill="#faa365" stroke="#faa365" stroke-width="1.51"/><path d="M532,-315L532,-30L817,-315Z" fill="#f29156" stroke="#f29156" stroke-width="1.51"/><path d="M247,1395L532,1395L532,1110Z" fill="#a5ae5e" stroke="#a5ae5e" stroke-width="1.51"/><path d="M247,1110L247,1395L532,1110Z" fill="#b2ae5c" stroke="#b2ae5c" stroke-width="1.51"/><path d="M247,1110L532,1110L532,825Z" fill="#cbc467" stroke="#cbc467" stroke-width="1.51"/><path d="M247,825L247,1110L532,825Z" fill="#d8c264" stroke="#d8c264" stroke-width="1.51"/><path d="M247,825L532,825L532,540Z" fill="#efd47a" stroke="#efd47a" stroke-width="1.51"/><path d="M247,540L247,825L532,540Z" fill="#f8ce80" stroke="#f8ce80" stroke-width="1.51"/><path d="M247,540L532,540L532,255Z" fill="#ffd387" stroke="#ffd387" stroke-width="1.51"/><path d="M247,255L247,540L532,255Z" fill="#fec374" stroke="#fec374" stroke-width="1.51"/><path d="M247,255L532,255L532,-30Z" fill="#feb566" stroke="#feb566" stroke-width="1.51"/><path d="M247,-30L247,255L532,-30Z" fill="#fb9d58" stroke="#fb9d58" stroke-width="1.51"/><path d="M247,-30L532,-30L532,-315Z" fill="#f68b50" stroke="#f68b50" stroke-width="1.51"/><path d="M247,-315L247,-30L532,-315Z" fill="#ee7543" stroke="#ee7543" stroke-width="1.51"/><path d="M-38,1395L247,1395L247,1110Z" fill="#a7934d" stroke="#a7934d" stroke-width="1.51"/><path d="M-38,1110L-38,1395L247,1110Z" fill="#b1934d" stroke="#b1934d" stroke-width="1.51"/><path d="M-38,1110L247,1110L247,825Z" fill="#cca957" stroke="#cca957" stroke-width="1.51"/><path d="M-38,825L-38,1110L247,825Z" fill="#d6a554" stroke="#d6a554" stroke-width="1.51"/><path d="M-38,825L247,825L247,540Z" fill="#efb769" stroke="#efb769" stroke-width="1.51"/><path d="M-38,540L-38,825L247,540Z" fill="#f5b170" stroke="#f5b170" stroke-width="1.51"/><path d="M-38,540L247,540L247,255Z" fill="#ffb676" stroke="#ffb676" stroke-width="1.51"/><path d="M-38,255L-38,540L247,255Z" fill="#faa564" stroke="#faa564" stroke-width="1.51"/><path d="M-38,255L247,255L247,-30Z" fill="#fa9756" stroke="#fa9756" stroke-width="1.51"/><path d="M-38,-30L-38,255L247,-30Z" fill="#f57e49" stroke="#f57e49" stroke-width="1.51"/><path d="M-38,-30L247,-30L247,-315Z" fill="#f16a40" stroke="#f16a40" stroke-width="1.51"/><path d="M-38,-315L-38,-30L247,-315Z" fill="#e65235" stroke="#e65235" stroke-width="1.51"/><path d="M-323,1395L-38,1395L-38,1110Z" fill="#9f7c3e" stroke="#9f7c3e" stroke-width="1.51"/><path d="M-323,1110L-323,1395L-38,1110Z" fill="#a47e40" stroke="#a47e40" stroke-width="1.51"/><path d="M-323,1110L-38,1110L-38,825Z" fill="#c39047" stroke="#c39047" stroke-width="1.51"/><path d="M-323,825L-323,1110L-38,825Z" fill="#c88f48" stroke="#c88f48" stroke-width="1.51"/><path d="M-323,825L-38,825L-38,540Z" fill="#e59e59" stroke="#e59e59" stroke-width="1.51"/><path d="M-323,540L-323,825L-38,540Z" fill="#e79a63" stroke="#e79a63" stroke-width="1.51"/><path d="M-323,540L-38,540L-38,255Z" fill="#f59c65" stroke="#f59c65" stroke-width="1.51"/><path d="M-323,255L-323,540L-38,255Z" fill="#ec8e57" stroke="#ec8e57" stroke-width="1.51"/><path d="M-323,255L-38,255L-38,-30Z" fill="#ef7c47" stroke="#ef7c47" stroke-width="1.51"/><path d="M-323,-30L-323,255L-38,-30Z" fill="#e5663d" stroke="#e5663d" stroke-width="1.51"/><path d="M-323,-30L-38,-30L-38,-315Z" fill="#e44c32" stroke="#e44c32" stroke-width="1.51"/><path d="M-323,-315L-323,-30L-38,-315Z" fill="#d53429" stroke="#d53429" stroke-width="1.51"/></svg>