<svg xmlns="http://www.w3.org/2000/svg" width="1920" height="1080"><path d="M1957,1395L2242,1395L2242,1110Z" fill="#760b72" stroke="#760b72" stroke-width="1.51"/><path d="M1957,1110L1957,1395L2242,1110Z" fill="#811a80" stroke="#811a80" stroke-width="1.51"/><path d="M1957,1110L2242,1110L2242,825Z" fill="#7c2b85" stroke="#7c2b85" stroke-width="1.51"/><path d="M1957,825L1957,1110L2242,825Z" fill="#84388f" stroke="#84388f" stroke-width="1.51"/><path d="M1957,825L2242,825L2242,540Z" fill="#804790" stroke="#804790" stroke-width="1.51"/><path d="M1957,540L1957,825L2242,540Z" fill="#88539b" stroke="#88539b" stroke-width="1.51"/><path d="M1957,540L2242,540L2242,255Z" fill="#865f9b" stroke="#865f9b" stroke-width="1.51"/><path d="M1957,255L1957,540L2242,255Z" fill="#926aa6" stroke="#926aa6" stroke-width="1.51"/><path d="M1957,255L2242,255L2242,-30Z" fill="#9470a4" stroke="#9470a4" stroke-width="1.51"/><path d="M1957,-30L1957,255L2242,-30Z" fill="#a278ae" stroke="#a278ae" stroke-width="1.51"/><path d="M1957,-30L2242,-30L2242,-315Z" fill="#a67dab" stroke="#a67dab" stroke-width="1.51"/><path d="M1957,-315L1957,-30L2242,-315Z" fill="#b385b5" stroke="#b385b5" stroke-width="1.51"/><path d="M1672,1395L1957,1395L1957,1110Z" fill="#821f82" stroke="#821f82" stroke-width="1.51"/><path d="M1672,1110L1672,1395L1957,1110Z" fill="#862e8d" stroke="#862e8d" stroke-width="1.51"/><path d="M1672,1110L1957,1110L1957,825Z" fill="#873995" stroke="#873995" stroke-width="1.51"/><path d="M1672,825L1672,1110L1957,825Z" fill="#89479d" stroke="#89479d" stroke-width="1.51"/><path d="M1672,825L1957,825L1957,540Z" fill="#8b53a0" stroke="#8b53a0" stroke-width="1.51"/><path d="M1672,540L1672,825L1957,540Z" fill="#8c61a9" stroke="#8c61a9" stroke-width="1.51"/><path d="M1672,540L1957,540L1957,255Z" fill="#906bac" stroke="#906bac" stroke-width="1.51"/><path d="M1672,255L1672,540L1957,255Z" fill="#9577b4" stroke="#9577b4" stroke-width="1.51"/><path d="M1672,255L1957,255L1957,-30Z" fill="#9f7db5" stroke="#9f7db5" stroke-width="1.51"/><path d="M1672,-30L1672,255L1957,-30Z" fill="#a585bc" stroke="#a585bc" stroke-width="1.51"/><path d="M1672,-30L1957,-30L1957,-315Z" fill="#b189bc" stroke="#b189bc" stroke-width="1.51"/><path d="M1672,-315L1672,-30L1957,-315Z" fill="#b792c4" stroke="#b792c4" stroke-width="1.51"/><path d="M1387,1395L1672,1395L1672,1110Z" fill="#84338e" stroke="#84338e" stroke-width="1.51"/><path d="M1387,1110L1387,1395L1672,1110Z" fill="#884097" stroke="#884097" stroke-width="1.51"/><path d="M1387,1110L1672,1110L1672,825Z" fill="#8949a0" stroke="#8949a0" stroke-width="1.51"/><path d="M1387,825L1387,1110L1672,825Z" fill="#8b57a7" stroke="#8b57a7" stroke-width="1.51"/><path d="M1387,825L1672,825L1672,540Z" fill="#8c61ac" stroke="#8c61ac" stroke-width="1.51"/><path d="M1387,540L1387,825L1672,540Z" fill="#8d6fb3" stroke="#8d6fb3" stroke-width="1.51"/><path d="M1387,540L1672,540L1672,255Z" fill="#9079b8" stroke="#9079b8" stroke-width="1.51"/><path d="M1387,255L1387,540L1672,255Z" fill="#9586be" stroke="#9586be" stroke-width="1.51"/><path d="M1387,255L1672,255L1672,-30Z" fill="#9f8bc1" stroke="#9f8bc1" stroke-width="1.51"/><path d="M1387,-30L1387,255L1672,-30Z" fill="#a594c6" stroke="#a594c6" stroke-width="1.51"/><path d="M1387,-30L1672,-30L1672,-315Z" fill="#b198c8" stroke="#b198c8" stroke-width="1.51"/><path d="M1387,-315L1387,-30L1672,-315Z" fill="#b7a1ce" stroke="#b7a1ce" stroke-width="1.51"/><path d="M1102,1395L1387,1395L1387,1110Z" fill="#874696" stroke="#874696" stroke-width="1.51"/><path d="M1102,1110L1102,1395L1387,1110Z" fill="#8b539f" stroke="#8b539f" stroke-width="1.51"/><path d="M1102,1110L1387,1110L1387,825Z" fill="#8b5aa8" stroke="#8b5aa8" stroke-width="1.51"/><path d="M1102,825L1102,1110L1387,825Z" fill="#8c68af" stroke="#8c68af" stroke-width="1.51"/><path d="M1102,825L1387,825L1387,540Z" fill="#8d72b4" stroke="#8d72b4" stroke-width="1.51"/><path d="M1102,540L1102,825L1387,540Z" fill="#8d80bb" stroke="#8d80bb" stroke-width="1.51"/><path d="M1102,540L1387,540L1387,255Z" fill="#9089c0" stroke="#9089c0" stroke-width="1.51"/><path d="M1102,255L1102,540L1387,255Z" fill="#9496c6" stroke="#9496c6" stroke-width="1.51"/><path d="M1102,255L1387,255L1387,-30Z" fill="#9f9bc9" stroke="#9f9bc9" stroke-width="1.51"/><path d="M1102,-30L1102,255L1387,-30Z" fill="#a5a5ce" stroke="#a5a5ce" stroke-width="1.51"/><path d="M1102,-30L1387,-30L1387,-315Z" fill="#b1a8d0" stroke="#b1a8d0" stroke-width="1.51"/><path d="M1102,-315L1102,-30L1387,-315Z" fill="#b7b2d6" stroke="#b7b2d6" stroke-width="1.51"/><path d="M817,1395L1102,1395L1102,1110Z" fill="#89599e" stroke="#89599e" stroke-width="1.51"/><path d="M817,1110L817,1395L1102,1110Z" fill="#8d65a8" stroke="#8d65a8" stroke-width="1.51"/><path d="M817,1110L1102,1110L1102,825Z" fill="#8d6cb1" stroke="#8d6cb1" stroke-width="1.51"/><path d="M817,825L817,1110L1102,825Z" fill="#8e79b7" stroke="#8e79b7" stroke-width="1.51"/><path d="M817,825L1102,825L1102,540Z" fill="#8d83bc" stroke="#8d83bc" stroke-width="1.51"/><path d="M817,540L817,825L1102,540Z" fill="#8e91c3" stroke="#8e91c3" stroke-width="1.51"/><path d="M817,540L1102,540L1102,255Z" fill="#909ac8" stroke="#909ac8" stroke-width="1.51"/><path d="M817,255L817,540L1102,255Z" fill="#94a7cf" stroke="#94a7cf" stroke-width="1.51"/><path d="M817,255L1102,255L1102,-30Z" fill="#9eacd1" stroke="#9eacd1" stroke-width="1.51"/><path d="M817,-30L817,255L1102,-30Z" fill="#a5b6d7" stroke="#a5b6d7" stroke-width="1.51"/><path d="M817,-30L1102,-30L1102,-315Z" fill="#b1b9d9" stroke="#b1b9d9" stroke-width="1.51"/><path d="M817,-315L817,-30L1102,-315Z" fill="#b8c3df" stroke="#b8c3df" stroke-width="1.51"/><path d="M532,1395L817,1395L817,1110Z" fill="#9168a6" stroke="#9168a6" stroke-width="1.51"/><path d="M532,1110L532,1395L817,1110Z" fill="#9673af" stroke="#9673af" stroke-width="1.51"/><path d="M532,1110L817,1110L817,825Z" fill="#947bb9" stroke="#947bb9" stroke-width="1.51"/><path d="M532,825L532,1110L817,825Z" fill="#9688bf" stroke="#9688bf" stroke-width="1.51"/><path d="M532,825L817,825L817,540Z" fill="#9392c4" stroke="#9392c4" stroke-width="1.51"/><path d="M532,540L532,825L817,540Z" fill="#959fcb" stroke="#959fcb" stroke-width="1.51"/><path d="M532,540L817,540L817,255Z" fill="#96a9d1" stroke="#96a9d1" stroke-width="1.51"/><path d="M532,255L532,540L817,255Z" fill="#9cb6d7" stroke="#9cb6d7" stroke-width="1.51"/><path d="M532,255L817,255L817,-30Z" fill="#a4bbda" stroke="#a4bbda" stroke-width="1.51"/><path d="M532,-30L532,255L817,-30Z" fill="#adc5df" stroke="#adc5df" stroke-width="1.51"/><path d="M532,-30L817,-30L817,-315Z" fill="#b7c9e1" stroke="#b7c9e1" stroke-width="1.51"/><path d="M532,-315L532,-30L817,-315Z" fill="#bfd3e7" stroke="#bfd3e7" stroke-width="1.51"/><path d="M247,1395L532,1395L532,1110Z" fill="#9c74ac" stroke="#9c74ac" stroke-width="1.51"/><path d="M247,1110L247,1395L532,1110Z" fill="#a27db4" stroke="#a27db4" stroke-width="1.51"/><path d="M247,1110L532,1110L532,825Z" fill="#9f87bf" stroke="#9f87bf" stroke-width="1.51"/><path d="M247,825L247,1110L532,825Z" fill="#a291c4" stroke="#a291c4" stroke-width="1.51"/><path d="M247,825L532,825L532,540Z" fill="#9e9ecb" stroke="#9e9ecb" stroke-width="1.51"/><path d="M247,540L247,825L532,540Z" fill="#a2a9d0" stroke="#a2a9d0" stroke-width="1.51"/><path d="M247,540L532,540L532,255Z" fill="#a1b5d7" stroke="#a1b5d7" stroke-width="1.51"/><path d="M247,255L247,540L532,255Z" fill="#a8c0dc" stroke="#a8c0dc" stroke-width="1.51"/><path d="M247,255L532,255L532,-30Z" fill="#afc7e0" stroke="#afc7e0" stroke-width="1.51"/><path d="M247,-30L247,255L532,-30Z" fill="#b9cfe4" stroke="#b9cfe4" stroke-width="1.51"/><path d="M247,-30L532,-30L532,-315Z" fill="#c2d5e8" stroke="#c2d5e8" stroke-width="1.51"/><path d="M247,-315L247,-30L532,-315Z" fill="#ccddec" stroke="#ccddec" stroke-width="1.51"/><path d="M-38,1395L247,1395L247,1110Z" fill="#a87cb1" stroke="#a87cb1" stroke-width="1.51"/><path d="M-38,1110L-38,1395L247,1110Z" fill="#ae85b9" stroke="#ae85b9" stroke-width="1.51"/><path d="M-38,1110L247,1110L247,825Z" fill="#ab90c4" stroke="#ab90c4" stroke-width="1.51"/><path d="M-38,825L-38,1110L247,825Z" fill="#af9ac9" stroke="#af9ac9" stroke-width="1.51"/><path d="M-38,825L247,825L247,540Z" fill="#aba7d0" stroke="#aba7d0" stroke-width="1.51"/><path d="M-38,540L-38,825L247,540Z" fill="#afb2d5" stroke="#afb2d5" stroke-width="1.51"/><path d="M-38,540L247,540L247,255Z" fill="#aebfdc" stroke="#aebfdc" stroke-width="1.51"/><path d="M-38,255L-38,540L247,255Z" fill="#b6c9e1" stroke="#b6c9e1" stroke-width="1.51"/><path d="M-38,255L247,255L247,-30Z" fill="#bcd1e5" stroke="#bcd1e5" stroke-width="1.51"/><path d="M-38,-30L-38,255L247,-30Z" fill="#c7d8e9" stroke="#c7d8e9" stroke-width="1.51"/><path d="M-38,-30L247,-30L247,-315Z" fill="#cfdfed" stroke="#cfdfed" stroke-width="1.51"/><path d="M-38,-315L-38,-30L247,-315Z" fill="#d9e6f0" stroke="#d9e6f0" stroke-width="1.51"/><path d="M-323,1395L-38,1395L-38,1110Z" fill="#b485b6" stroke="#b485b6" stroke-width="1.51"/><path d="M-323,1110L-323,1395L-38,1110Z" fill="#b98dbe" stroke="#b98dbe" stroke-width="1.51"/><path d="M-323,1110L-38,1110L-38,825Z" fill="#b898ca" stroke="#b898ca" stroke-width="1.51"/><path d="M-323,825L-323,1110L-38,825Z" fill="#baa2ce" stroke="#baa2ce" stroke-width="1.51"/><path d="M-323,825L-38,825L-38,540Z" fill="#b8b0d5" stroke="#b8b0d5" stroke-width="1.51"/><path d="M-323,540L-323,825L-38,540Z" fill="#bbbada" stroke="#bbbada" stroke-width="1.51"/><path d="M-323,540L-38,540L-38,255Z" fill="#bbc8e1" stroke="#bbc8e1" stroke-width="1.51"/><path d="M-323,255L-323,540L-38,255Z" fill="#c1d2e6" stroke="#c1d2e6" stroke-width="1.51"/><path d="M-323,255L-38,255L-38,-30Z" fill="#c9daea" stroke="#c9daea" stroke-width="1.51"/><path d="M-323,-30L-323,255L-38,-30Z" fill="#d2e1ee" stroke="#d2e1ee" stroke-width="1.51"/><path d="M-323,-30L-38,-30L-38,-315Z" fill="#dce8f2" stroke="#dce8f2" stroke-width="1.51"/><path d="M-323,-315L-323,-30L-38,-315Z" fill="#e5eff5" stroke="#e5eff5" stroke-width="1.51"/></svg>