<svg xmlns="http://www.w3.org/2000/svg" width="1920" height="1080"><path d="M1980,1260L2100,1260L2100,1140Z" fill="#0a5093" stroke="#0a5093" stroke-width="1.51"/><path d="M1980,1140L1980,1260L2100,1140Z" fill="#0a579a" stroke="#0a579a" stroke-width="1.51"/><path d="M1980,1140L2100,1140L2100,1020Z" fill="#0d5d9e" stroke="#0d5d9e" stroke-width="1.51"/><path d="M1980,1020L1980,1140L2100,1020Z" fill="#1363a3" stroke="#1363a3" stroke-width="1.51"/><path d="M1980,1020L2100,1020L2100,900Z" fill="#1a67a4" stroke="#1a67a4" stroke-width="1.51"/><path d="M1980,900L1980,1020L2100,900Z" fill="#1e6da9" stroke="#1e6da9" stroke-width="1.51"/><path d="M1980,900L2100,900L2100,780Z" fill="#2672aa" stroke="#2672aa" stroke-width="1.51"/><path d="M1980,780L1980,900L2100,780Z" fill="#2b79af" stroke="#2b79af" stroke-width="1.51"/><path d="M1980,780L2100,780L2100,660Z" fill="#337eb0" stroke="#337eb0" stroke-width="1.51"/><path d="M1980,660L1980,780L2100,660Z" fill="#3a83b2" stroke="#3a83b2" stroke-width="1.51"/><path d="M1980,660L2100,660L2100,540Z" fill="#4585ad" stroke="#4585ad" stroke-width="1.51"/><path d="M1980,540L1980,660L2100,540Z" fill="#4b8aae" stroke="#4b8aae" stroke-width="1.51"/><path d="M1980,540L2100,540L2100,420Z" fill="#558ba9" stroke="#558ba9" stroke-width="1.51"/><path d="M1980,420L1980,540L2100,420Z" fill="#5c90aa" stroke="#5c90aa" stroke-width="1.51"/><path d="M1980,420L2100,420L2100,300Z" fill="#6690a5" stroke="#6690a5" stroke-width="1.51"/><path d="M1980,300L1980,420L2100,300Z" fill="#6c94a6" stroke="#6c94a6" stroke-width="1.51"/><path d="M1980,300L2100,300L2100,180Z" fill="#7294a7" stroke="#7294a7" stroke-width="1.51"/><path d="M1980,180L1980,300L2100,180Z" fill="#7798ab" stroke="#7798ab" stroke-width="1.51"/><path d="M1980,180L2100,180L2100,60Z" fill="#7d98ac" stroke="#7d98ac" stroke-width="1.51"/><path d="M1980,60L1980,180L2100,60Z" fill="#809bb1" stroke="#809bb1" stroke-width="1.51"/><path d="M1980,60L2100,60L2100,-60Z" fill="#829ab2" stroke="#829ab2" stroke-width="1.51"/><path d="M1980,-60L1980,60L2100,-60Z" fill="#859eb7" stroke="#859eb7" stroke-width="1.51"/><path d="M1980,-60L2100,-60L2100,-180Z" fill="#889db8" stroke="#889db8" stroke-width="1.51"/><path d="M1980,-180L1980,-60L2100,-180Z" fill="#8ca0bd" stroke="#8ca0bd" stroke-width="1.51"/><path d="M1860,1260L1980,1260L1980,1140Z" fill="#0a589b" stroke="#0a589b" stroke-width="1.51"/><path d="M1860,1140L1860,1260L1980,1140Z" fill="#095fa3" stroke="#095fa3" stroke-width="1.51"/><path d="M1860,1140L1980,1140L1980,1020Z" fill="#0d65a7" stroke="#0d65a7" stroke-width="1.51"/><path d="M1860,1020L1860,1140L1980,1020Z" fill="#126bac" stroke="#126bac" stroke-width="1.51"/><path d="M1860,1020L1980,1020L1980,900Z" fill="#1a70ac" stroke="#1a70ac" stroke-width="1.51"/><path d="M1860,900L1860,1020L1980,900Z" fill="#1d76b1" stroke="#1d76b1" stroke-width="1.51"/><path d="M1860,900L1980,900L1980,780Z" fill="#277bb3" stroke="#277bb3" stroke-width="1.51"/><path d="M1860,780L1860,900L1980,780Z" fill="#2c82b8" stroke="#2c82b8" stroke-width="1.51"/><path d="M1860,780L1980,780L1980,660Z" fill="#3386b9" stroke="#3386b9" stroke-width="1.51"/><path d="M1860,660L1860,780L1980,660Z" fill="#3b8cbb" stroke="#3b8cbb" stroke-width="1.51"/><path d="M1860,660L1980,660L1980,540Z" fill="#478eb5" stroke="#478eb5" stroke-width="1.51"/><path d="M1860,540L1860,660L1980,540Z" fill="#4d93b7" stroke="#4d93b7" stroke-width="1.51"/><path d="M1860,540L1980,540L1980,420Z" fill="#5894b1" stroke="#5894b1" stroke-width="1.51"/><path d="M1860,420L1860,540L1980,420Z" fill="#5f99b3" stroke="#5f99b3" stroke-width="1.51"/><path d="M1860,420L1980,420L1980,300Z" fill="#6999ad" stroke="#6999ad" stroke-width="1.51"/><path d="M1860,300L1860,420L1980,300Z" fill="#6f9daf" stroke="#6f9daf" stroke-width="1.51"/><path d="M1860,300L1980,300L1980,180Z" fill="#759daf" stroke="#759daf" stroke-width="1.51"/><path d="M1860,180L1860,300L1980,180Z" fill="#7aa2b4" stroke="#7aa2b4" stroke-width="1.51"/><path d="M1860,180L1980,180L1980,60Z" fill="#80a1b4" stroke="#80a1b4" stroke-width="1.51"/><path d="M1860,60L1860,180L1980,60Z" fill="#83a5ba" stroke="#83a5ba" stroke-width="1.51"/><path d="M1860,60L1980,60L1980,-60Z" fill="#85a3bb" stroke="#85a3bb" stroke-width="1.51"/><path d="M1860,-60L1860,60L1980,-60Z" fill="#88a7c0" stroke="#88a7c0" stroke-width="1.51"/><path d="M1860,-60L1980,-60L1980,-180Z" fill="#8ba6c1" stroke="#8ba6c1" stroke-width="1.51"/><path d="M1860,-180L1860,-60L1980,-180Z" fill="#8fa9c6" stroke="#8fa9c6" stroke-width="1.51"/><path d="M1740,1260L1860,1260L1860,1140Z" fill="#0e60a2" stroke="#0e60a2" stroke-width="1.51"/><path d="M1740,1140L1740,1260L1860,1140Z" fill="#1066a8" stroke="#1066a8" stroke-width="1.51"/><path d="M1740,1140L1860,1140L1860,1020Z" fill="#106dae" stroke="#106dae" stroke-width="1.51"/><path d="M1740,1020L1740,1140L1860,1020Z" fill="#1872b2" stroke="#1872b2" stroke-width="1.51"/><path d="M1740,1020L1860,1020L1860,900Z" fill="#1c78b4" stroke="#1c78b4" stroke-width="1.51"/><path d="M1740,900L1740,1020L1860,900Z" fill="#217db7" stroke="#217db7" stroke-width="1.51"/><path d="M1740,900L1860,900L1860,780Z" fill="#2983ba" stroke="#2983ba" stroke-width="1.51"/><path d="M1740,780L1740,900L1860,780Z" fill="#2f89be" stroke="#2f89be" stroke-width="1.51"/><path d="M1740,780L1860,780L1860,660Z" fill="#358fc0" stroke="#358fc0" stroke-width="1.51"/><path d="M1740,660L1740,780L1860,660Z" fill="#3e93c1" stroke="#3e93c1" stroke-width="1.51"/><path d="M1740,660L1860,660L1860,540Z" fill="#4996bc" stroke="#4996bc" stroke-width="1.51"/><path d="M1740,540L1740,660L1860,540Z" fill="#509bbc" stroke="#509bbc" stroke-width="1.51"/><path d="M1740,540L1860,540L1860,420Z" fill="#5a9cb8" stroke="#5a9cb8" stroke-width="1.51"/><path d="M1740,420L1740,540L1860,420Z" fill="#61a0b8" stroke="#61a0b8" stroke-width="1.51"/><path d="M1740,420L1860,420L1860,300Z" fill="#6ca1b4" stroke="#6ca1b4" stroke-width="1.51"/><path d="M1740,300L1740,420L1860,300Z" fill="#72a5b4" stroke="#72a5b4" stroke-width="1.51"/><path d="M1740,300L1860,300L1860,180Z" fill="#78a6b6" stroke="#78a6b6" stroke-width="1.51"/><path d="M1740,180L1740,300L1860,180Z" fill="#7da9b9" stroke="#7da9b9" stroke-width="1.51"/><path d="M1740,180L1860,180L1860,60Z" fill="#83a9bb" stroke="#83a9bb" stroke-width="1.51"/><path d="M1740,60L1740,180L1860,60Z" fill="#86acbf" stroke="#86acbf" stroke-width="1.51"/><path d="M1740,60L1860,60L1860,-60Z" fill="#89acc2" stroke="#89acc2" stroke-width="1.51"/><path d="M1740,-60L1740,60L1860,-60Z" fill="#8cafc5" stroke="#8cafc5" stroke-width="1.51"/><path d="M1740,-60L1860,-60L1860,-180Z" fill="#8faec8" stroke="#8faec8" stroke-width="1.51"/><path d="M1740,-180L1740,-60L1860,-180Z" fill="#93b1cc" stroke="#93b1cc" stroke-width="1.51"/><path d="M1620,1260L1740,1260L1740,1140Z" fill="#1667a6" stroke="#1667a6" stroke-width="1.51"/><path d="M1620,1140L1620,1260L1740,1140Z" fill="#196eac" stroke="#196eac" stroke-width="1.51"/><path d="M1620,1140L1740,1140L1740,1020Z" fill="#1874b2" stroke="#1874b2" stroke-width="1.51"/><path d="M1620,1020L1620,1140L1740,1020Z" fill="#1e7ab5" stroke="#1e7ab5" stroke-width="1.51"/><path d="M1620,1020L1740,1020L1740,900Z" fill="#227fb8" stroke="#227fb8" stroke-width="1.51"/><path d="M1620,900L1620,1020L1740,900Z" fill="#2785bb" stroke="#2785bb" stroke-width="1.51"/><path d="M1620,900L1740,900L1740,780Z" fill="#2d8abe" stroke="#2d8abe" stroke-width="1.51"/><path d="M1620,780L1620,900L1740,780Z" fill="#3391c1" stroke="#3391c1" stroke-width="1.51"/><path d="M1620,780L1740,780L1740,660Z" fill="#3996c4" stroke="#3996c4" stroke-width="1.51"/><path d="M1620,660L1620,780L1740,660Z" fill="#419bc4" stroke="#419bc4" stroke-width="1.51"/><path d="M1620,660L1740,660L1740,540Z" fill="#4c9ec0" stroke="#4c9ec0" stroke-width="1.51"/><path d="M1620,540L1620,660L1740,540Z" fill="#53a3c0" stroke="#53a3c0" stroke-width="1.51"/><path d="M1620,540L1740,540L1740,420Z" fill="#5da4bc" stroke="#5da4bc" stroke-width="1.51"/><path d="M1620,420L1620,540L1740,420Z" fill="#64a8bc" stroke="#64a8bc" stroke-width="1.51"/><path d="M1620,420L1740,420L1740,300Z" fill="#6fa9b8" stroke="#6fa9b8" stroke-width="1.51"/><path d="M1620,300L1620,420L1740,300Z" fill="#75adb8" stroke="#75adb8" stroke-width="1.51"/><path d="M1620,300L1740,300L1740,180Z" fill="#7cadba" stroke="#7cadba" stroke-width="1.51"/><path d="M1620,180L1620,300L1740,180Z" fill="#80b1bd" stroke="#80b1bd" stroke-width="1.51"/><path d="M1620,180L1740,180L1740,60Z" fill="#87b1bf" stroke="#87b1bf" stroke-width="1.51"/><path d="M1620,60L1620,180L1740,60Z" fill="#8ab5c3" stroke="#8ab5c3" stroke-width="1.51"/><path d="M1620,60L1740,60L1740,-60Z" fill="#8cb3c6" stroke="#8cb3c6" stroke-width="1.51"/><path d="M1620,-60L1620,60L1740,-60Z" fill="#8fb7c9" stroke="#8fb7c9" stroke-width="1.51"/><path d="M1620,-60L1740,-60L1740,-180Z" fill="#93b6cc" stroke="#93b6cc" stroke-width="1.51"/><path d="M1620,-180L1620,-60L1740,-180Z" fill="#96b9cf" stroke="#96b9cf" stroke-width="1.51"/><path d="M1500,1260L1620,1260L1620,1140Z" fill="#1d6eaa" stroke="#1d6eaa" stroke-width="1.51"/><path d="M1500,1140L1500,1260L1620,1140Z" fill="#2075af" stroke="#2075af" stroke-width="1.51"/><path d="M1500,1140L1620,1140L1620,1020Z" fill="#1f7bb6" stroke="#1f7bb6" stroke-width="1.51"/><path d="M1500,1020L1500,1140L1620,1020Z" fill="#2581b9" stroke="#2581b9" stroke-width="1.51"/><path d="M1500,1020L1620,1020L1620,900Z" fill="#2786bb" stroke="#2786bb" stroke-width="1.51"/><path d="M1500,900L1500,1020L1620,900Z" fill="#2c8cbe" stroke="#2c8cbe" stroke-width="1.51"/><path d="M1500,900L1620,900L1620,780Z" fill="#3192c1" stroke="#3192c1" stroke-width="1.51"/><path d="M1500,780L1500,900L1620,780Z" fill="#3798c4" stroke="#3798c4" stroke-width="1.51"/><path d="M1500,780L1620,780L1620,660Z" fill="#3d9ec8" stroke="#3d9ec8" stroke-width="1.51"/><path d="M1500,660L1500,780L1620,660Z" fill="#45a3c8" stroke="#45a3c8" stroke-width="1.51"/><path d="M1500,660L1620,660L1620,540Z" fill="#4fa5c4" stroke="#4fa5c4" stroke-width="1.51"/><path d="M1500,540L1500,660L1620,540Z" fill="#56aac3" stroke="#56aac3" stroke-width="1.51"/><path d="M1500,540L1620,540L1620,420Z" fill="#60acbf" stroke="#60acbf" stroke-width="1.51"/><path d="M1500,420L1500,540L1620,420Z" fill="#68b0bf" stroke="#68b0bf" stroke-width="1.51"/><path d="M1500,420L1620,420L1620,300Z" fill="#71b1bb" stroke="#71b1bb" stroke-width="1.51"/><path d="M1500,300L1500,420L1620,300Z" fill="#78b5bb" stroke="#78b5bb" stroke-width="1.51"/><path d="M1500,300L1620,300L1620,180Z" fill="#7fb5be" stroke="#7fb5be" stroke-width="1.51"/><path d="M1500,180L1500,300L1620,180Z" fill="#84b9c0" stroke="#84b9c0" stroke-width="1.51"/><path d="M1500,180L1620,180L1620,60Z" fill="#8ab9c3" stroke="#8ab9c3" stroke-width="1.51"/><path d="M1500,60L1500,180L1620,60Z" fill="#8dbdc6" stroke="#8dbdc6" stroke-width="1.51"/><path d="M1500,60L1620,60L1620,-60Z" fill="#8fbbc9" stroke="#8fbbc9" stroke-width="1.51"/><path d="M1500,-60L1500,60L1620,-60Z" fill="#93bfcc" stroke="#93bfcc" stroke-width="1.51"/><path d="M1500,-60L1620,-60L1620,-180Z" fill="#96bed0" stroke="#96bed0" stroke-width="1.51"/><path d="M1500,-180L1500,-60L1620,-180Z" fill="#9ac2d2" stroke="#9ac2d2" stroke-width="1.51"/><path d="M1380,1260L1500,1260L1500,1140Z" fill="#2676ae" stroke="#2676ae" stroke-width="1.51"/><path d="M1380,1140L1380,1260L1500,1140Z" fill="#2a7cb4" stroke="#2a7cb4" stroke-width="1.51"/><path d="M1380,1140L1500,1140L1500,1020Z" fill="#2883ba" stroke="#2883ba" stroke-width="1.51"/><path d="M1380,1020L1380,1140L1500,1020Z" fill="#2e89bd" stroke="#2e89bd" stroke-width="1.51"/><path d="M1380,1020L1500,1020L1500,900Z" fill="#2f8ebf" stroke="#2f8ebf" stroke-width="1.51"/><path d="M1380,900L1380,1020L1500,900Z" fill="#3494c2" stroke="#3494c2" stroke-width="1.51"/><path d="M1380,900L1500,900L1500,780Z" fill="#3999c5" stroke="#3999c5" stroke-width="1.51"/><path d="M1380,780L1380,900L1500,780Z" fill="#3fa0c9" stroke="#3fa0c9" stroke-width="1.51"/><path d="M1380,780L1500,780L1500,660Z" fill="#43a5cc" stroke="#43a5cc" stroke-width="1.51"/><path d="M1380,660L1380,780L1500,660Z" fill="#4baacc" stroke="#4baacc" stroke-width="1.51"/><path d="M1380,660L1500,660L1500,540Z" fill="#55adc8" stroke="#55adc8" stroke-width="1.51"/><path d="M1380,540L1380,660L1500,540Z" fill="#5bb2c8" stroke="#5bb2c8" stroke-width="1.51"/><path d="M1380,540L1500,540L1500,420Z" fill="#65b4c3" stroke="#65b4c3" stroke-width="1.51"/><path d="M1380,420L1380,540L1500,420Z" fill="#6db8c3" stroke="#6db8c3" stroke-width="1.51"/><path d="M1380,420L1500,420L1500,300Z" fill="#76b9bf" stroke="#76b9bf" stroke-width="1.51"/><path d="M1380,300L1380,420L1500,300Z" fill="#7dbdbf" stroke="#7dbdbf" stroke-width="1.51"/><path d="M1380,300L1500,300L1500,180Z" fill="#83bdc1" stroke="#83bdc1" stroke-width="1.51"/><path d="M1380,180L1380,300L1500,180Z" fill="#89c1c4" stroke="#89c1c4" stroke-width="1.51"/><path d="M1380,180L1500,180L1500,60Z" fill="#8fc1c6" stroke="#8fc1c6" stroke-width="1.51"/><path d="M1380,60L1380,180L1500,60Z" fill="#92c5ca" stroke="#92c5ca" stroke-width="1.51"/><path d="M1380,60L1500,60L1500,-60Z" fill="#94c3cd" stroke="#94c3cd" stroke-width="1.51"/><path d="M1380,-60L1380,60L1500,-60Z" fill="#98c7d1" stroke="#98c7d1" stroke-width="1.51"/><path d="M1380,-60L1500,-60L1500,-180Z" fill="#9bc6d3" stroke="#9bc6d3" stroke-width="1.51"/><path d="M1380,-180L1380,-60L1500,-180Z" fill="#9fcad7" stroke="#9fcad7" stroke-width="1.51"/><path d="M1260,1260L1380,1260L1380,1140Z" fill="#2f7db2" stroke="#2f7db2" stroke-width="1.51"/><path d="M1260,1140L1260,1260L1380,1140Z" fill="#3284b8" stroke="#3284b8" stroke-width="1.51"/><path d="M1260,1140L1380,1140L1380,1020Z" fill="#318abe" stroke="#318abe" stroke-width="1.51"/><path d="M1260,1020L1260,1140L1380,1020Z" fill="#3690c1" stroke="#3690c1" stroke-width="1.51"/><path d="M1260,1020L1380,1020L1380,900Z" fill="#3795c3" stroke="#3795c3" stroke-width="1.51"/><path d="M1260,900L1260,1020L1380,900Z" fill="#3b9cc7" stroke="#3b9cc7" stroke-width="1.51"/><path d="M1260,900L1380,900L1380,780Z" fill="#40a1ca" stroke="#40a1ca" stroke-width="1.51"/><path d="M1260,780L1260,900L1380,780Z" fill="#45a8cd" stroke="#45a8cd" stroke-width="1.51"/><path d="M1260,780L1380,780L1380,660Z" fill="#4aadd0" stroke="#4aadd0" stroke-width="1.51"/><path d="M1260,660L1260,780L1380,660Z" fill="#51b2d0" stroke="#51b2d0" stroke-width="1.51"/><path d="M1260,660L1380,660L1380,540Z" fill="#5ab5cc" stroke="#5ab5cc" stroke-width="1.51"/><path d="M1260,540L1260,660L1380,540Z" fill="#61bacc" stroke="#61bacc" stroke-width="1.51"/><path d="M1260,540L1380,540L1380,420Z" fill="#6abbc7" stroke="#6abbc7" stroke-width="1.51"/><path d="M1260,420L1260,540L1380,420Z" fill="#72c0c7" stroke="#72c0c7" stroke-width="1.51"/><path d="M1260,420L1380,420L1380,300Z" fill="#7bc1c3" stroke="#7bc1c3" stroke-width="1.51"/><path d="M1260,300L1260,420L1380,300Z" fill="#82c5c3" stroke="#82c5c3" stroke-width="1.51"/><path d="M1260,300L1380,300L1380,180Z" fill="#88c5c5" stroke="#88c5c5" stroke-width="1.51"/><path d="M1260,180L1260,300L1380,180Z" fill="#8ec9c8" stroke="#8ec9c8" stroke-width="1.51"/><path d="M1260,180L1380,180L1380,60Z" fill="#94c9ca" stroke="#94c9ca" stroke-width="1.51"/><path d="M1260,60L1260,180L1380,60Z" fill="#97cdce" stroke="#97cdce" stroke-width="1.51"/><path d="M1260,60L1380,60L1380,-60Z" fill="#99cbd1" stroke="#99cbd1" stroke-width="1.51"/><path d="M1260,-60L1260,60L1380,-60Z" fill="#9dcfd4" stroke="#9dcfd4" stroke-width="1.51"/><path d="M1260,-60L1380,-60L1380,-180Z" fill="#a0ced7" stroke="#a0ced7" stroke-width="1.51"/><path d="M1260,-180L1260,-60L1380,-180Z" fill="#a4d2db" stroke="#a4d2db" stroke-width="1.51"/><path d="M1140,1260L1260,1260L1260,1140Z" fill="#3983b4" stroke="#3983b4" stroke-width="1.51"/><path d="M1140,1140L1140,1260L1260,1140Z" fill="#3d8ab8" stroke="#3d8ab8" stroke-width="1.51"/><path d="M1140,1140L1260,1140L1260,1020Z" fill="#3b91c0" stroke="#3b91c0" stroke-width="1.51"/><path d="M1140,1020L1140,1140L1260,1020Z" fill="#4196c1" stroke="#4196c1" stroke-width="1.51"/><path d="M1140,1020L1260,1020L1260,900Z" fill="#419cc5" stroke="#419cc5" stroke-width="1.51"/><path d="M1140,900L1140,1020L1260,900Z" fill="#46a2c6" stroke="#46a2c6" stroke-width="1.51"/><path d="M1140,900L1260,900L1260,780Z" fill="#48a8cc" stroke="#48a8cc" stroke-width="1.51"/><path d="M1140,780L1140,900L1260,780Z" fill="#4faecd" stroke="#4faecd" stroke-width="1.51"/><path d="M1140,780L1260,780L1260,660Z" fill="#52b4d2" stroke="#52b4d2" stroke-width="1.51"/><path d="M1140,660L1140,780L1260,660Z" fill="#5ab8d0" stroke="#5ab8d0" stroke-width="1.51"/><path d="M1140,660L1260,660L1260,540Z" fill="#61bcce" stroke="#61bcce" stroke-width="1.51"/><path d="M1140,540L1140,660L1260,540Z" fill="#68c0cb" stroke="#68c0cb" stroke-width="1.51"/><path d="M1140,540L1260,540L1260,420Z" fill="#70c2c9" stroke="#70c2c9" stroke-width="1.51"/><path d="M1140,420L1140,540L1260,420Z" fill="#78c6c7" stroke="#78c6c7" stroke-width="1.51"/><path d="M1140,420L1260,420L1260,300Z" fill="#81c8c5" stroke="#81c8c5" stroke-width="1.51"/><path d="M1140,300L1140,420L1260,300Z" fill="#88cbc2" stroke="#88cbc2" stroke-width="1.51"/><path d="M1140,300L1260,300L1260,180Z" fill="#8eccc7" stroke="#8eccc7" stroke-width="1.51"/><path d="M1140,180L1140,300L1260,180Z" fill="#94d0c7" stroke="#94d0c7" stroke-width="1.51"/><path d="M1140,180L1260,180L1260,60Z" fill="#99d0cc" stroke="#99d0cc" stroke-width="1.51"/><path d="M1140,60L1140,180L1260,60Z" fill="#9dd3cd" stroke="#9dd3cd" stroke-width="1.51"/><path d="M1140,60L1260,60L1260,-60Z" fill="#9fd3d3" stroke="#9fd3d3" stroke-width="1.51"/><path d="M1140,-60L1140,60L1260,-60Z" fill="#a3d6d4" stroke="#a3d6d4" stroke-width="1.51"/><path d="M1140,-60L1260,-60L1260,-180Z" fill="#a5d6d9" stroke="#a5d6d9" stroke-width="1.51"/><path d="M1140,-180L1140,-60L1260,-180Z" fill="#aad8da" stroke="#aad8da" stroke-width="1.51"/><path d="M1020,1260L1140,1260L1140,1140Z" fill="#4588b1" stroke="#4588b1" stroke-width="1.51"/><path d="M1020,1140L1020,1260L1140,1140Z" fill="#498eb5" stroke="#498eb5" stroke-width="1.51"/><path d="M1020,1140L1140,1140L1140,1020Z" fill="#4895bd" stroke="#4895bd" stroke-width="1.51"/><path d="M1020,1020L1020,1140L1140,1020Z" fill="#4d9bbe" stroke="#4d9bbe" stroke-width="1.51"/><path d="M1020,1020L1140,1020L1140,900Z" fill="#4da1c2" stroke="#4da1c2" stroke-width="1.51"/><path d="M1020,900L1020,1020L1140,900Z" fill="#52a6c3" stroke="#52a6c3" stroke-width="1.51"/><path d="M1020,900L1140,900L1140,780Z" fill="#54adc9" stroke="#54adc9" stroke-width="1.51"/><path d="M1020,780L1020,900L1140,780Z" fill="#5ab3ca" stroke="#5ab3ca" stroke-width="1.51"/><path d="M1020,780L1140,780L1140,660Z" fill="#5cb9cf" stroke="#5cb9cf" stroke-width="1.51"/><path d="M1020,660L1020,780L1140,660Z" fill="#64bdcd" stroke="#64bdcd" stroke-width="1.51"/><path d="M1020,660L1140,660L1140,540Z" fill="#6ac1cb" stroke="#6ac1cb" stroke-width="1.51"/><path d="M1020,540L1020,660L1140,540Z" fill="#71c5c8" stroke="#71c5c8" stroke-width="1.51"/><path d="M1020,540L1140,540L1140,420Z" fill="#78c7c6" stroke="#78c7c6" stroke-width="1.51"/><path d="M1020,420L1020,540L1140,420Z" fill="#80cbc4" stroke="#80cbc4" stroke-width="1.51"/><path d="M1020,420L1140,420L1140,300Z" fill="#88cdc2" stroke="#88cdc2" stroke-width="1.51"/><path d="M1020,300L1020,420L1140,300Z" fill="#8ed0bf" stroke="#8ed0bf" stroke-width="1.51"/><path d="M1020,300L1140,300L1140,180Z" fill="#94d1c4" stroke="#94d1c4" stroke-width="1.51"/><path d="M1020,180L1020,300L1140,180Z" fill="#9ad5c4" stroke="#9ad5c4" stroke-width="1.51"/><path d="M1020,180L1140,180L1140,60Z" fill="#9fd5c9" stroke="#9fd5c9" stroke-width="1.51"/><path d="M1020,60L1020,180L1140,60Z" fill="#a3d8ca" stroke="#a3d8ca" stroke-width="1.51"/><path d="M1020,60L1140,60L1140,-60Z" fill="#a5d8d0" stroke="#a5d8d0" stroke-width="1.51"/><path d="M1020,-60L1020,60L1140,-60Z" fill="#a9dbd1" stroke="#a9dbd1" stroke-width="1.51"/><path d="M1020,-60L1140,-60L1140,-180Z" fill="#acdbd6" stroke="#acdbd6" stroke-width="1.51"/><path d="M1020,-180L1020,-60L1140,-180Z" fill="#b0ddd7" stroke="#b0ddd7" stroke-width="1.51"/><path d="M900,1260L1020,1260L1020,1140Z" fill="#4f8dae" stroke="#4f8dae" stroke-width="1.51"/><path d="M900,1140L900,1260L1020,1140Z" fill="#5392b2" stroke="#5392b2" stroke-width="1.51"/><path d="M900,1140L1020,1140L1020,1020Z" fill="#529aba" stroke="#529aba" stroke-width="1.51"/><path d="M900,1020L900,1140L1020,1020Z" fill="#579fbb" stroke="#579fbb" stroke-width="1.51"/><path d="M900,1020L1020,1020L1020,900Z" fill="#57a6bf" stroke="#57a6bf" stroke-width="1.51"/><path d="M900,900L900,1020L1020,900Z" fill="#5cabc0" stroke="#5cabc0" stroke-width="1.51"/><path d="M900,900L1020,900L1020,780Z" fill="#5eb2c6" stroke="#5eb2c6" stroke-width="1.51"/><path d="M900,780L900,900L1020,780Z" fill="#63b7c7" stroke="#63b7c7" stroke-width="1.51"/><path d="M900,780L1020,780L1020,660Z" fill="#66becc" stroke="#66becc" stroke-width="1.51"/><path d="M900,660L900,780L1020,660Z" fill="#6dc2ca" stroke="#6dc2ca" stroke-width="1.51"/><path d="M900,660L1020,660L1020,540Z" fill="#72c6c8" stroke="#72c6c8" stroke-width="1.51"/><path d="M900,540L900,660L1020,540Z" fill="#79cac5" stroke="#79cac5" stroke-width="1.51"/><path d="M900,540L1020,540L1020,420Z" fill="#7fccc3" stroke="#7fccc3" stroke-width="1.51"/><path d="M900,420L900,540L1020,420Z" fill="#87d0c1" stroke="#87d0c1" stroke-width="1.51"/><path d="M900,420L1020,420L1020,300Z" fill="#8ed2bf" stroke="#8ed2bf" stroke-width="1.51"/><path d="M900,300L900,420L1020,300Z" fill="#95d5bc" stroke="#95d5bc" stroke-width="1.51"/><path d="M900,300L1020,300L1020,180Z" fill="#9bd6c1" stroke="#9bd6c1" stroke-width="1.51"/><path d="M900,180L900,300L1020,180Z" fill="#a0d9c1" stroke="#a0d9c1" stroke-width="1.51"/><path d="M900,180L1020,180L1020,60Z" fill="#a6dac6" stroke="#a6dac6" stroke-width="1.51"/><path d="M900,60L900,180L1020,60Z" fill="#aaddc7" stroke="#aaddc7" stroke-width="1.51"/><path d="M900,60L1020,60L1020,-60Z" fill="#acddcd" stroke="#acddcd" stroke-width="1.51"/><path d="M900,-60L900,60L1020,-60Z" fill="#b0e0cd" stroke="#b0e0cd" stroke-width="1.51"/><path d="M900,-60L1020,-60L1020,-180Z" fill="#b2e0d3" stroke="#b2e0d3" stroke-width="1.51"/><path d="M900,-180L900,-60L1020,-180Z" fill="#b7e2d4" stroke="#b7e2d4" stroke-width="1.51"/><path d="M780,1260L900,1260L900,1140Z" fill="#5a90ac" stroke="#5a90ac" stroke-width="1.51"/><path d="M780,1140L780,1260L900,1140Z" fill="#5f96af" stroke="#5f96af" stroke-width="1.51"/><path d="M780,1140L900,1140L900,1020Z" fill="#5e9eb7" stroke="#5e9eb7" stroke-width="1.51"/><path d="M780,1020L780,1140L900,1020Z" fill="#63a2b8" stroke="#63a2b8" stroke-width="1.51"/><path d="M780,1020L900,1020L900,900Z" fill="#62a9bd" stroke="#62a9bd" stroke-width="1.51"/><path d="M780,900L780,1020L900,900Z" fill="#68aebe" stroke="#68aebe" stroke-width="1.51"/><path d="M780,900L900,900L900,780Z" fill="#69b5c3" stroke="#69b5c3" stroke-width="1.51"/><path d="M780,780L780,900L900,780Z" fill="#6fbbc4" stroke="#6fbbc4" stroke-width="1.51"/><path d="M780,780L900,780L900,660Z" fill="#70c2c9" stroke="#70c2c9" stroke-width="1.51"/><path d="M780,660L780,780L900,660Z" fill="#78c5c7" stroke="#78c5c7" stroke-width="1.51"/><path d="M780,660L900,660L900,540Z" fill="#7ccac5" stroke="#7ccac5" stroke-width="1.51"/><path d="M780,540L780,660L900,540Z" fill="#83cdc2" stroke="#83cdc2" stroke-width="1.51"/><path d="M780,540L900,540L900,420Z" fill="#88d0c0" stroke="#88d0c0" stroke-width="1.51"/><path d="M780,420L780,540L900,420Z" fill="#90d3be" stroke="#90d3be" stroke-width="1.51"/><path d="M780,420L900,420L900,300Z" fill="#96d6bc" stroke="#96d6bc" stroke-width="1.51"/><path d="M780,300L780,420L900,300Z" fill="#9dd8b9" stroke="#9dd8b9" stroke-width="1.51"/><path d="M780,300L900,300L900,180Z" fill="#a2dabe" stroke="#a2dabe" stroke-width="1.51"/><path d="M780,180L780,300L900,180Z" fill="#a9ddbe" stroke="#a9ddbe" stroke-width="1.51"/><path d="M780,180L900,180L900,60Z" fill="#addfc3" stroke="#addfc3" stroke-width="1.51"/><path d="M780,60L780,180L900,60Z" fill="#b2e1c4" stroke="#b2e1c4" stroke-width="1.51"/><path d="M780,60L900,60L900,-60Z" fill="#b3e1c9" stroke="#b3e1c9" stroke-width="1.51"/><path d="M780,-60L780,60L900,-60Z" fill="#b8e3ca" stroke="#b8e3ca" stroke-width="1.51"/><path d="M780,-60L900,-60L900,-180Z" fill="#bae4d0" stroke="#bae4d0" stroke-width="1.51"/><path d="M780,-180L780,-60L900,-180Z" fill="#bfe6d1" stroke="#bfe6d1" stroke-width="1.51"/><path d="M660,1260L780,1260L780,1140Z" fill="#6593a9" stroke="#6593a9" stroke-width="1.51"/><path d="M660,1140L660,1260L780,1140Z" fill="#6a99ad" stroke="#6a99ad" stroke-width="1.51"/><path d="M660,1140L780,1140L780,1020Z" fill="#69a1b5" stroke="#69a1b5" stroke-width="1.51"/><path d="M660,1020L660,1140L780,1020Z" fill="#6ea6b6" stroke="#6ea6b6" stroke-width="1.51"/><path d="M660,1020L780,1020L780,900Z" fill="#6eacba" stroke="#6eacba" stroke-width="1.51"/><path d="M660,900L660,1020L780,900Z" fill="#73b1bb" stroke="#73b1bb" stroke-width="1.51"/><path d="M660,900L780,900L780,780Z" fill="#74b8c0" stroke="#74b8c0" stroke-width="1.51"/><path d="M660,780L660,900L780,780Z" fill="#7abec1" stroke="#7abec1" stroke-width="1.51"/><path d="M660,780L780,780L780,660Z" fill="#7bc5c6" stroke="#7bc5c6" stroke-width="1.51"/><path d="M660,660L660,780L780,660Z" fill="#83c9c4" stroke="#83c9c4" stroke-width="1.51"/><path d="M660,660L780,660L780,540Z" fill="#86cdc2" stroke="#86cdc2" stroke-width="1.51"/><path d="M660,540L660,660L780,540Z" fill="#8dd1bf" stroke="#8dd1bf" stroke-width="1.51"/><path d="M660,540L780,540L780,420Z" fill="#91d3bd" stroke="#91d3bd" stroke-width="1.51"/><path d="M660,420L660,540L780,420Z" fill="#99d7bb" stroke="#99d7bb" stroke-width="1.51"/><path d="M660,420L780,420L780,300Z" fill="#9fd9b9" stroke="#9fd9b9" stroke-width="1.51"/><path d="M660,300L660,420L780,300Z" fill="#a6dcb6" stroke="#a6dcb6" stroke-width="1.51"/><path d="M660,300L780,300L780,180Z" fill="#abddbb" stroke="#abddbb" stroke-width="1.51"/><path d="M660,180L660,300L780,180Z" fill="#b1e1bb" stroke="#b1e1bb" stroke-width="1.51"/><path d="M660,180L780,180L780,60Z" fill="#b5e2bf" stroke="#b5e2bf" stroke-width="1.51"/><path d="M660,60L660,180L780,60Z" fill="#bae4c1" stroke="#bae4c1" stroke-width="1.51"/><path d="M660,60L780,60L780,-60Z" fill="#bbe4c6" stroke="#bbe4c6" stroke-width="1.51"/><path d="M660,-60L660,60L780,-60Z" fill="#c0e7c7" stroke="#c0e7c7" stroke-width="1.51"/><path d="M660,-60L780,-60L780,-180Z" fill="#c2e7cd" stroke="#c2e7cd" stroke-width="1.51"/><path d="M660,-180L660,-60L780,-180Z" fill="#c7e9ce" stroke="#c7e9ce" stroke-width="1.51"/><path d="M540,1260L660,1260L660,1140Z" fill="#6e96a8" stroke="#6e96a8" stroke-width="1.51"/><path d="M540,1140L540,1260L660,1140Z" fill="#729bae" stroke="#729bae" stroke-width="1.51"/><path d="M540,1140L660,1140L660,1020Z" fill="#73a4b4" stroke="#73a4b4" stroke-width="1.51"/><path d="M540,1020L540,1140L660,1020Z" fill="#77a8b7" stroke="#77a8b7" stroke-width="1.51"/><path d="M540,1020L660,1020L660,900Z" fill="#77b0b9" stroke="#77b0b9" stroke-width="1.51"/><path d="M540,900L540,1020L660,900Z" fill="#7cb4bc" stroke="#7cb4bc" stroke-width="1.51"/><path d="M540,900L660,900L660,780Z" fill="#7ebcbf" stroke="#7ebcbf" stroke-width="1.51"/><path d="M540,780L540,900L660,780Z" fill="#83c1c2" stroke="#83c1c2" stroke-width="1.51"/><path d="M540,780L660,780L660,660Z" fill="#85c8c5" stroke="#85c8c5" stroke-width="1.51"/><path d="M540,660L540,780L660,660Z" fill="#8bccc5" stroke="#8bccc5" stroke-width="1.51"/><path d="M540,660L660,660L660,540Z" fill="#8fd0c1" stroke="#8fd0c1" stroke-width="1.51"/><path d="M540,540L540,660L660,540Z" fill="#95d4c0" stroke="#95d4c0" stroke-width="1.51"/><path d="M540,540L660,540L660,420Z" fill="#9ad7bc" stroke="#9ad7bc" stroke-width="1.51"/><path d="M540,420L540,540L660,420Z" fill="#a1dabc" stroke="#a1dabc" stroke-width="1.51"/><path d="M540,420L660,420L660,300Z" fill="#a7dcb8" stroke="#a7dcb8" stroke-width="1.51"/><path d="M540,300L540,420L660,300Z" fill="#aedfb7" stroke="#aedfb7" stroke-width="1.51"/><path d="M540,300L660,300L660,180Z" fill="#b3e1b9" stroke="#b3e1b9" stroke-width="1.51"/><path d="M540,180L540,300L660,180Z" fill="#b9e4bc" stroke="#b9e4bc" stroke-width="1.51"/><path d="M540,180L660,180L660,60Z" fill="#bde5be" stroke="#bde5be" stroke-width="1.51"/><path d="M540,60L540,180L660,60Z" fill="#c2e7c2" stroke="#c2e7c2" stroke-width="1.51"/><path d="M540,60L660,60L660,-60Z" fill="#c3e8c5" stroke="#c3e8c5" stroke-width="1.51"/><path d="M540,-60L540,60L660,-60Z" fill="#c8eac8" stroke="#c8eac8" stroke-width="1.51"/><path d="M540,-60L660,-60L660,-180Z" fill="#caebcc" stroke="#caebcc" stroke-width="1.51"/><path d="M540,-180L540,-60L660,-180Z" fill="#cfeccf" stroke="#cfeccf" stroke-width="1.51"/><path d="M420,1260L540,1260L540,1140Z" fill="#7598ac" stroke="#7598ac" stroke-width="1.51"/><path d="M420,1140L420,1260L540,1140Z" fill="#799eb1" stroke="#799eb1" stroke-width="1.51"/><path d="M420,1140L540,1140L540,1020Z" fill="#7aa6b7" stroke="#7aa6b7" stroke-width="1.51"/><path d="M420,1020L420,1140L540,1020Z" fill="#7eabba" stroke="#7eabba" stroke-width="1.51"/><path d="M420,1020L540,1020L540,900Z" fill="#7fb2bd" stroke="#7fb2bd" stroke-width="1.51"/><path d="M420,900L420,1020L540,900Z" fill="#83b7c0" stroke="#83b7c0" stroke-width="1.51"/><path d="M420,900L540,900L540,780Z" fill="#85bec3" stroke="#85bec3" stroke-width="1.51"/><path d="M420,780L420,900L540,780Z" fill="#8ac3c6" stroke="#8ac3c6" stroke-width="1.51"/><path d="M420,780L540,780L540,660Z" fill="#8dcbc9" stroke="#8dcbc9" stroke-width="1.51"/><path d="M420,660L420,780L540,660Z" fill="#93cec8" stroke="#93cec8" stroke-width="1.51"/><path d="M420,660L540,660L540,540Z" fill="#97d3c4" stroke="#97d3c4" stroke-width="1.51"/><path d="M420,540L420,660L540,540Z" fill="#9cd6c4" stroke="#9cd6c4" stroke-width="1.51"/><path d="M420,540L540,540L540,420Z" fill="#a1d9c0" stroke="#a1d9c0" stroke-width="1.51"/><path d="M420,420L420,540L540,420Z" fill="#a8dcbf" stroke="#a8dcbf" stroke-width="1.51"/><path d="M420,420L540,420L540,300Z" fill="#aedfbb" stroke="#aedfbb" stroke-width="1.51"/><path d="M420,300L420,420L540,300Z" fill="#b5e2ba" stroke="#b5e2ba" stroke-width="1.51"/><path d="M420,300L540,300L540,180Z" fill="#bae4bd" stroke="#bae4bd" stroke-width="1.51"/><path d="M420,180L420,300L540,180Z" fill="#c0e6c0" stroke="#c0e6c0" stroke-width="1.51"/><path d="M420,180L540,180L540,60Z" fill="#c4e8c2" stroke="#c4e8c2" stroke-width="1.51"/><path d="M420,60L420,180L540,60Z" fill="#c9eac5" stroke="#c9eac5" stroke-width="1.51"/><path d="M420,60L540,60L540,-60Z" fill="#caeac9" stroke="#caeac9" stroke-width="1.51"/><path d="M420,-60L420,60L540,-60Z" fill="#cfeccc" stroke="#cfeccc" stroke-width="1.51"/><path d="M420,-60L540,-60L540,-180Z" fill="#d1edcf" stroke="#d1edcf" stroke-width="1.51"/><path d="M420,-180L420,-60L540,-180Z" fill="#d6efd2" stroke="#d6efd2" stroke-width="1.51"/><path d="M300,1260L420,1260L420,1140Z" fill="#7d9baf" stroke="#7d9baf" stroke-width="1.51"/><path d="M300,1140L300,1260L420,1140Z" fill="#80a0b4" stroke="#80a0b4" stroke-width="1.51"/><path d="M300,1140L420,1140L420,1020Z" fill="#82a9ba" stroke="#82a9ba" stroke-width="1.51"/><path d="M300,1020L300,1140L420,1020Z" fill="#85aebd" stroke="#85aebd" stroke-width="1.51"/><path d="M300,1020L420,1020L420,900Z" fill="#87b5c0" stroke="#87b5c0" stroke-width="1.51"/><path d="M300,900L300,1020L420,900Z" fill="#8ab9c3" stroke="#8ab9c3" stroke-width="1.51"/><path d="M300,900L420,900L420,780Z" fill="#8dc1c6" stroke="#8dc1c6" stroke-width="1.51"/><path d="M300,780L300,900L420,780Z" fill="#91c6c9" stroke="#91c6c9" stroke-width="1.51"/><path d="M300,780L420,780L420,660Z" fill="#95cecc" stroke="#95cecc" stroke-width="1.51"/><path d="M300,660L300,780L420,660Z" fill="#9ad1cc" stroke="#9ad1cc" stroke-width="1.51"/><path d="M300,660L420,660L420,540Z" fill="#9fd6c7" stroke="#9fd6c7" stroke-width="1.51"/><path d="M300,540L300,660L420,540Z" fill="#a3d9c7" stroke="#a3d9c7" stroke-width="1.51"/><path d="M300,540L420,540L420,420Z" fill="#a9dcc3" stroke="#a9dcc3" stroke-width="1.51"/><path d="M300,420L300,540L420,420Z" fill="#afdfc2" stroke="#afdfc2" stroke-width="1.51"/><path d="M300,420L420,420L420,300Z" fill="#b6e2be" stroke="#b6e2be" stroke-width="1.51"/><path d="M300,300L300,420L420,300Z" fill="#bbe5bd" stroke="#bbe5bd" stroke-width="1.51"/><path d="M300,300L420,300L420,180Z" fill="#c1e7c0" stroke="#c1e7c0" stroke-width="1.51"/><path d="M300,180L300,300L420,180Z" fill="#c6e9c2" stroke="#c6e9c2" stroke-width="1.51"/><path d="M300,180L420,180L420,60Z" fill="#ccebc5" stroke="#ccebc5" stroke-width="1.51"/><path d="M300,60L300,180L420,60Z" fill="#cfedc8" stroke="#cfedc8" stroke-width="1.51"/><path d="M300,60L420,60L420,-60Z" fill="#d2edcc" stroke="#d2edcc" stroke-width="1.51"/><path d="M300,-60L300,60L420,-60Z" fill="#d5efcf" stroke="#d5efcf" stroke-width="1.51"/><path d="M300,-60L420,-60L420,-180Z" fill="#d8f0d2" stroke="#d8f0d2" stroke-width="1.51"/><path d="M300,-180L300,-60L420,-180Z" fill="#dcf2d5" stroke="#dcf2d5" stroke-width="1.51"/><path d="M180,1260L300,1260L300,1140Z" fill="#819db3" stroke="#819db3" stroke-width="1.51"/><path d="M180,1140L180,1260L300,1140Z" fill="#84a2b9" stroke="#84a2b9" stroke-width="1.51"/><path d="M180,1140L300,1140L300,1020Z" fill="#86abbe" stroke="#86abbe" stroke-width="1.51"/><path d="M180,1020L180,1140L300,1020Z" fill="#89afc2" stroke="#89afc2" stroke-width="1.51"/><path d="M180,1020L300,1020L300,900Z" fill="#8bb7c3" stroke="#8bb7c3" stroke-width="1.51"/><path d="M180,900L180,1020L300,900Z" fill="#8ebbc7" stroke="#8ebbc7" stroke-width="1.51"/><path d="M180,900L300,900L300,780Z" fill="#92c3ca" stroke="#92c3ca" stroke-width="1.51"/><path d="M180,780L180,900L300,780Z" fill="#95c8cd" stroke="#95c8cd" stroke-width="1.51"/><path d="M180,780L300,780L300,660Z" fill="#99cfd0" stroke="#99cfd0" stroke-width="1.51"/><path d="M180,660L180,780L300,660Z" fill="#9ed3d0" stroke="#9ed3d0" stroke-width="1.51"/><path d="M180,660L300,660L300,540Z" fill="#a3d8cb" stroke="#a3d8cb" stroke-width="1.51"/><path d="M180,540L180,660L300,540Z" fill="#a7dbcb" stroke="#a7dbcb" stroke-width="1.51"/><path d="M180,540L300,540L300,420Z" fill="#aedec7" stroke="#aedec7" stroke-width="1.51"/><path d="M180,420L180,540L300,420Z" fill="#b3e1c6" stroke="#b3e1c6" stroke-width="1.51"/><path d="M180,420L300,420L300,300Z" fill="#bae4c2" stroke="#bae4c2" stroke-width="1.51"/><path d="M180,300L180,420L300,300Z" fill="#bfe6c2" stroke="#bfe6c2" stroke-width="1.51"/><path d="M180,300L300,300L300,180Z" fill="#c6e9c4" stroke="#c6e9c4" stroke-width="1.51"/><path d="M180,180L180,300L300,180Z" fill="#caebc7" stroke="#caebc7" stroke-width="1.51"/><path d="M180,180L300,180L300,60Z" fill="#d0edc9" stroke="#d0edc9" stroke-width="1.51"/><path d="M180,60L180,180L300,60Z" fill="#d3eecd" stroke="#d3eecd" stroke-width="1.51"/><path d="M180,60L300,60L300,-60Z" fill="#d6efd0" stroke="#d6efd0" stroke-width="1.51"/><path d="M180,-60L180,60L300,-60Z" fill="#d9f1d3" stroke="#d9f1d3" stroke-width="1.51"/><path d="M180,-60L300,-60L300,-180Z" fill="#ddf2d6" stroke="#ddf2d6" stroke-width="1.51"/><path d="M180,-180L180,-60L300,-180Z" fill="#e0f3da" stroke="#e0f3da" stroke-width="1.51"/><path d="M60,1260L180,1260L180,1140Z" fill="#859eb7" stroke="#859eb7" stroke-width="1.51"/><path d="M60,1140L60,1260L180,1140Z" fill="#87a3bd" stroke="#87a3bd" stroke-width="1.51"/><path d="M60,1140L180,1140L180,1020Z" fill="#8aacc3" stroke="#8aacc3" stroke-width="1.51"/><path d="M60,1020L60,1140L180,1020Z" fill="#8db0c6" stroke="#8db0c6" stroke-width="1.51"/><path d="M60,1020L180,1020L180,900Z" fill="#8fb8c8" stroke="#8fb8c8" stroke-width="1.51"/><path d="M60,900L60,1020L180,900Z" fill="#92bccb" stroke="#92bccb" stroke-width="1.51"/><path d="M60,900L180,900L180,780Z" fill="#96c4ce" stroke="#96c4ce" stroke-width="1.51"/><path d="M60,780L60,900L180,780Z" fill="#99c9d2" stroke="#99c9d2" stroke-width="1.51"/><path d="M60,780L180,780L180,660Z" fill="#9dd1d4" stroke="#9dd1d4" stroke-width="1.51"/><path d="M60,660L60,780L180,660Z" fill="#a2d4d4" stroke="#a2d4d4" stroke-width="1.51"/><path d="M60,660L180,660L180,540Z" fill="#a7d9d0" stroke="#a7d9d0" stroke-width="1.51"/><path d="M60,540L60,660L180,540Z" fill="#abdcd0" stroke="#abdcd0" stroke-width="1.51"/><path d="M60,540L180,540L180,420Z" fill="#b2e0cb" stroke="#b2e0cb" stroke-width="1.51"/><path d="M60,420L60,540L180,420Z" fill="#b7e3cb" stroke="#b7e3cb" stroke-width="1.51"/><path d="M60,420L180,420L180,300Z" fill="#bee6c6" stroke="#bee6c6" stroke-width="1.51"/><path d="M60,300L60,420L180,300Z" fill="#c3e8c6" stroke="#c3e8c6" stroke-width="1.51"/><path d="M60,300L180,300L180,180Z" fill="#caeac8" stroke="#caeac8" stroke-width="1.51"/><path d="M60,180L60,300L180,180Z" fill="#ceeccb" stroke="#ceeccb" stroke-width="1.51"/><path d="M60,180L180,180L180,60Z" fill="#d4eecd" stroke="#d4eecd" stroke-width="1.51"/><path d="M60,60L60,180L180,60Z" fill="#d7f0d1" stroke="#d7f0d1" stroke-width="1.51"/><path d="M60,60L180,60L180,-60Z" fill="#daf1d4" stroke="#daf1d4" stroke-width="1.51"/><path d="M60,-60L60,60L180,-60Z" fill="#ddf2d8" stroke="#ddf2d8" stroke-width="1.51"/><path d="M60,-60L180,-60L180,-180Z" fill="#e1f4db" stroke="#e1f4db" stroke-width="1.51"/><path d="M60,-180L60,-60L180,-180Z" fill="#e4f5de" stroke="#e4f5de" stroke-width="1.51"/><path d="M-60,1260L60,1260L60,1140Z" fill="#88a0bb" stroke="#88a0bb" stroke-width="1.51"/><path d="M-60,1140L-60,1260L60,1140Z" fill="#8ba5c1" stroke="#8ba5c1" stroke-width="1.51"/><path d="M-60,1140L60,1140L60,1020Z" fill="#8eaec7" stroke="#8eaec7" stroke-width="1.51"/><path d="M-60,1020L-60,1140L60,1020Z" fill="#91b2ca" stroke="#91b2ca" stroke-width="1.51"/><path d="M-60,1020L60,1020L60,900Z" fill="#93bacc" stroke="#93bacc" stroke-width="1.51"/><path d="M-60,900L-60,1020L60,900Z" fill="#96bed0" stroke="#96bed0" stroke-width="1.51"/><path d="M-60,900L60,900L60,780Z" fill="#9ac6d3" stroke="#9ac6d3" stroke-width="1.51"/><path d="M-60,780L-60,900L60,780Z" fill="#9ecbd6" stroke="#9ecbd6" stroke-width="1.51"/><path d="M-60,780L60,780L60,660Z" fill="#a1d3d8" stroke="#a1d3d8" stroke-width="1.51"/><path d="M-60,660L-60,780L60,660Z" fill="#a6d6d9" stroke="#a6d6d9" stroke-width="1.51"/><path d="M-60,660L60,660L60,540Z" fill="#abdbd4" stroke="#abdbd4" stroke-width="1.51"/><path d="M-60,540L-60,660L60,540Z" fill="#b0ded4" stroke="#b0ded4" stroke-width="1.51"/><path d="M-60,540L60,540L60,420Z" fill="#b6e2cf" stroke="#b6e2cf" stroke-width="1.51"/><path d="M-60,420L-60,540L60,420Z" fill="#bce4cf" stroke="#bce4cf" stroke-width="1.51"/><path d="M-60,420L60,420L60,300Z" fill="#c2e7cb" stroke="#c2e7cb" stroke-width="1.51"/><path d="M-60,300L-60,420L60,300Z" fill="#c8e9cb" stroke="#c8e9cb" stroke-width="1.51"/><path d="M-60,300L60,300L60,180Z" fill="#ceeccd" stroke="#ceeccd" stroke-width="1.51"/><path d="M-60,180L-60,300L60,180Z" fill="#d3eed0" stroke="#d3eed0" stroke-width="1.51"/><path d="M-60,180L60,180L60,60Z" fill="#d8f0d2" stroke="#d8f0d2" stroke-width="1.51"/><path d="M-60,60L-60,180L60,60Z" fill="#dcf1d6" stroke="#dcf1d6" stroke-width="1.51"/><path d="M-60,60L60,60L60,-60Z" fill="#def2d9" stroke="#def2d9" stroke-width="1.51"/><path d="M-60,-60L-60,60L60,-60Z" fill="#e2f4dc" stroke="#e2f4dc" stroke-width="1.51"/><path d="M-60,-60L60,-60L60,-180Z" fill="#e4f5df" stroke="#e4f5df" stroke-width="1.51"/><path d="M-60,-180L-60,-60L60,-180Z" fill="#e9f6e3" stroke="#e9f6e3" stroke-width="1.51"/><path d="M-180,1260L-60,1260L-60,1140Z" fill="#8ca1bf" stroke="#8ca1bf" stroke-width="1.51"/><path d="M-180,1140L-180,1260L-60,1140Z" fill="#90a6c5" stroke="#90a6c5" stroke-width="1.51"/><path d="M-180,1140L-60,1140L-60,1020Z" fill="#92afcb" stroke="#92afcb" stroke-width="1.51"/><path d="M-180,1020L-180,1140L-60,1020Z" fill="#95b4ce" stroke="#95b4ce" stroke-width="1.51"/><path d="M-180,1020L-60,1020L-60,900Z" fill="#97bcd0" stroke="#97bcd0" stroke-width="1.51"/><path d="M-180,900L-180,1020L-60,900Z" fill="#9ac0d3" stroke="#9ac0d3" stroke-width="1.51"/><path d="M-180,900L-60,900L-60,780Z" fill="#9ec8d6" stroke="#9ec8d6" stroke-width="1.51"/><path d="M-180,780L-180,900L-60,780Z" fill="#a2cdda" stroke="#a2cdda" stroke-width="1.51"/><path d="M-180,780L-60,780L-60,660Z" fill="#a6d5dc" stroke="#a6d5dc" stroke-width="1.51"/><path d="M-180,660L-180,780L-60,660Z" fill="#abd8dd" stroke="#abd8dd" stroke-width="1.51"/><path d="M-180,660L-60,660L-60,540Z" fill="#b0ddd8" stroke="#b0ddd8" stroke-width="1.51"/><path d="M-180,540L-180,660L-60,540Z" fill="#b4e0d8" stroke="#b4e0d8" stroke-width="1.51"/><path d="M-180,540L-60,540L-60,420Z" fill="#bae4d3" stroke="#bae4d3" stroke-width="1.51"/><path d="M-180,420L-180,540L-60,420Z" fill="#c0e6d3" stroke="#c0e6d3" stroke-width="1.51"/><path d="M-180,420L-60,420L-60,300Z" fill="#c7e9cf" stroke="#c7e9cf" stroke-width="1.51"/><path d="M-180,300L-180,420L-60,300Z" fill="#ccebcf" stroke="#ccebcf" stroke-width="1.51"/><path d="M-180,300L-60,300L-60,180Z" fill="#d2eed1" stroke="#d2eed1" stroke-width="1.51"/><path d="M-180,180L-180,300L-60,180Z" fill="#d7f0d4" stroke="#d7f0d4" stroke-width="1.51"/><path d="M-180,180L-60,180L-60,60Z" fill="#ddf2d6" stroke="#ddf2d6" stroke-width="1.51"/><path d="M-180,60L-180,180L-60,60Z" fill="#e0f3da" stroke="#e0f3da" stroke-width="1.51"/><path d="M-180,60L-60,60L-60,-60Z" fill="#e3f4dd" stroke="#e3f4dd" stroke-width="1.51"/><path d="M-180,-60L-180,60L-60,-60Z" fill="#e6f6e0" stroke="#e6f6e0" stroke-width="1.51"/><path d="M-180,-60L-60,-60L-60,-180Z" fill="#e9f7e3" stroke="#e9f7e3" stroke-width="1.51"/><path d="M-180,-180L-180,-60L-60,-180Z" fill="#edf8e7" stroke="#edf8e7" stroke-width="1.51"/></svg>