<svg xmlns="http://www.w3.org/2000/svg" width="1920" height="1080"><path d="M1980,1260L2100,1260L2100,1140Z" fill="#4f6eb0" stroke="#4f6eb0" stroke-width="1.51"/><path d="M1980,1140L1980,1260L2100,1140Z" fill="#457ab6" stroke="#457ab6" stroke-width="1.51"/><path d="M1980,1140L2100,1140L2100,1020Z" fill="#5483b1" stroke="#5483b1" stroke-width="1.51"/><path d="M1980,1020L1980,1140L2100,1020Z" fill="#568fb0" stroke="#568fb0" stroke-width="1.51"/><path d="M1980,1020L2100,1020L2100,900Z" fill="#6996aa" stroke="#6996aa" stroke-width="1.51"/><path d="M1980,900L1980,1020L2100,900Z" fill="#6f9ead" stroke="#6f9ead" stroke-width="1.51"/><path d="M1980,900L2100,900L2100,780Z" fill="#84a0aa" stroke="#84a0aa" stroke-width="1.51"/><path d="M1980,780L1980,900L2100,780Z" fill="#8aa8ac" stroke="#8aa8ac" stroke-width="1.51"/><path d="M1980,780L2100,780L2100,660Z" fill="#9ca8a8" stroke="#9ca8a8" stroke-width="1.51"/><path d="M1980,660L1980,780L2100,660Z" fill="#a3b0a8" stroke="#a3b0a8" stroke-width="1.51"/><path d="M1980,660L2100,660L2100,540Z" fill="#aaadaf" stroke="#aaadaf" stroke-width="1.51"/><path d="M1980,540L1980,660L2100,540Z" fill="#abb3b6" stroke="#abb3b6" stroke-width="1.51"/><path d="M1980,540L2100,540L2100,420Z" fill="#b0acb2" stroke="#b0acb2" stroke-width="1.51"/><path d="M1980,420L1980,540L2100,420Z" fill="#afadae" stroke="#afadae" stroke-width="1.51"/><path d="M1980,420L2100,420L2100,300Z" fill="#b2a09f" stroke="#b2a09f" stroke-width="1.51"/><path d="M1980,300L1980,420L2100,300Z" fill="#b29f9c" stroke="#b29f9c" stroke-width="1.51"/><path d="M1980,300L2100,300L2100,180Z" fill="#b48d8f" stroke="#b48d8f" stroke-width="1.51"/><path d="M1980,180L1980,300L2100,180Z" fill="#b48d8c" stroke="#b48d8c" stroke-width="1.51"/><path d="M1980,180L2100,180L2100,60Z" fill="#b57882" stroke="#b57882" stroke-width="1.51"/><path d="M1980,60L1980,180L2100,60Z" fill="#b4767f" stroke="#b4767f" stroke-width="1.51"/><path d="M1980,60L2100,60L2100,-60Z" fill="#af647c" stroke="#af647c" stroke-width="1.51"/><path d="M1980,-60L1980,60L2100,-60Z" fill="#ab657f" stroke="#ab657f" stroke-width="1.51"/><path d="M1980,-60L2100,-60L2100,-180Z" fill="#a1567d" stroke="#a1567d" stroke-width="1.51"/><path d="M1980,-180L1980,-60L2100,-180Z" fill="#9a577d" stroke="#9a577d" stroke-width="1.51"/><path d="M1860,1260L1980,1260L1980,1140Z" fill="#437cb7" stroke="#437cb7" stroke-width="1.51"/><path d="M1860,1140L1860,1260L1980,1140Z" fill="#3a87bb" stroke="#3a87bb" stroke-width="1.51"/><path d="M1860,1140L1980,1140L1980,1020Z" fill="#4691b8" stroke="#4691b8" stroke-width="1.51"/><path d="M1860,1020L1860,1140L1980,1020Z" fill="#4c9db5" stroke="#4c9db5" stroke-width="1.51"/><path d="M1860,1020L1980,1020L1980,900Z" fill="#5da4b1" stroke="#5da4b1" stroke-width="1.51"/><path d="M1860,900L1860,1020L1980,900Z" fill="#67adb1" stroke="#67adb1" stroke-width="1.51"/><path d="M1860,900L1980,900L1980,780Z" fill="#7baeb1" stroke="#7baeb1" stroke-width="1.51"/><path d="M1860,780L1860,900L1980,780Z" fill="#84b6b0" stroke="#84b6b0" stroke-width="1.51"/><path d="M1860,780L1980,780L1980,660Z" fill="#96b6ae" stroke="#96b6ae" stroke-width="1.51"/><path d="M1860,660L1860,780L1980,660Z" fill="#9ebfac" stroke="#9ebfac" stroke-width="1.51"/><path d="M1860,660L1980,660L1980,540Z" fill="#a4bcb6" stroke="#a4bcb6" stroke-width="1.51"/><path d="M1860,540L1860,660L1980,540Z" fill="#a7c3ba" stroke="#a7c3ba" stroke-width="1.51"/><path d="M1860,540L1980,540L1980,420Z" fill="#aabbb9" stroke="#aabbb9" stroke-width="1.51"/><path d="M1860,420L1860,540L1980,420Z" fill="#acbcb2" stroke="#acbcb2" stroke-width="1.51"/><path d="M1860,420L1980,420L1980,300Z" fill="#aeafa6" stroke="#aeafa6" stroke-width="1.51"/><path d="M1860,300L1860,420L1980,300Z" fill="#afafa0" stroke="#afafa0" stroke-width="1.51"/><path d="M1860,300L1980,300L1980,180Z" fill="#b19d95" stroke="#b19d95" stroke-width="1.51"/><path d="M1860,180L1860,300L1980,180Z" fill="#b39c90" stroke="#b39c90" stroke-width="1.51"/><path d="M1860,180L1980,180L1980,60Z" fill="#b38888" stroke="#b38888" stroke-width="1.51"/><path d="M1860,60L1860,180L1980,60Z" fill="#b48683" stroke="#b48683" stroke-width="1.51"/><path d="M1860,60L1980,60L1980,-60Z" fill="#ae7582" stroke="#ae7582" stroke-width="1.51"/><path d="M1860,-60L1860,60L1980,-60Z" fill="#ab7682" stroke="#ab7682" stroke-width="1.51"/><path d="M1860,-60L1980,-60L1980,-180Z" fill="#a06683" stroke="#a06683" stroke-width="1.51"/><path d="M1860,-180L1860,-60L1980,-180Z" fill="#9a6781" stroke="#9a6781" stroke-width="1.51"/><path d="M1740,1260L1860,1260L1860,1140Z" fill="#4e8ab4" stroke="#4e8ab4" stroke-width="1.51"/><path d="M1740,1140L1740,1260L1860,1140Z" fill="#4c95b5" stroke="#4c95b5" stroke-width="1.51"/><path d="M1740,1140L1860,1140L1860,1020Z" fill="#4f9fb4" stroke="#4f9fb4" stroke-width="1.51"/><path d="M1740,1020L1740,1140L1860,1020Z" fill="#59abaf" stroke="#59abaf" stroke-width="1.51"/><path d="M1740,1020L1860,1020L1860,900Z" fill="#64b3ad" stroke="#64b3ad" stroke-width="1.51"/><path d="M1740,900L1740,1020L1860,900Z" fill="#70bbab" stroke="#70bbab" stroke-width="1.51"/><path d="M1740,900L1860,900L1860,780Z" fill="#81bdad" stroke="#81bdad" stroke-width="1.51"/><path d="M1740,780L1740,900L1860,780Z" fill="#8cc5aa" stroke="#8cc5aa" stroke-width="1.51"/><path d="M1740,780L1860,780L1860,660Z" fill="#9bc6aa" stroke="#9bc6aa" stroke-width="1.51"/><path d="M1740,660L1740,780L1860,660Z" fill="#a6cea6" stroke="#a6cea6" stroke-width="1.51"/><path d="M1740,660L1860,660L1860,540Z" fill="#a9ccb1" stroke="#a9ccb1" stroke-width="1.51"/><path d="M1740,540L1740,660L1860,540Z" fill="#afd2b3" stroke="#afd2b3" stroke-width="1.51"/><path d="M1740,540L1860,540L1860,420Z" fill="#b0cbb4" stroke="#b0cbb4" stroke-width="1.51"/><path d="M1740,420L1740,540L1860,420Z" fill="#b4ccab" stroke="#b4ccab" stroke-width="1.51"/><path d="M1740,420L1860,420L1860,300Z" fill="#b3bfa1" stroke="#b3bfa1" stroke-width="1.51"/><path d="M1740,300L1740,420L1860,300Z" fill="#b7be99" stroke="#b7be99" stroke-width="1.51"/><path d="M1740,300L1860,300L1860,180Z" fill="#b7ad91" stroke="#b7ad91" stroke-width="1.51"/><path d="M1740,180L1740,300L1860,180Z" fill="#baab89" stroke="#baab89" stroke-width="1.51"/><path d="M1740,180L1860,180L1860,60Z" fill="#b99883" stroke="#b99883" stroke-width="1.51"/><path d="M1740,60L1740,180L1860,60Z" fill="#bb967c" stroke="#bb967c" stroke-width="1.51"/><path d="M1740,60L1860,60L1860,-60Z" fill="#b4857d" stroke="#b4857d" stroke-width="1.51"/><path d="M1740,-60L1740,60L1860,-60Z" fill="#b3857c" stroke="#b3857c" stroke-width="1.51"/><path d="M1740,-60L1860,-60L1860,-180Z" fill="#a7767f" stroke="#a7767f" stroke-width="1.51"/><path d="M1740,-180L1740,-60L1860,-180Z" fill="#a2767b" stroke="#a2767b" stroke-width="1.51"/><path d="M1620,1260L1740,1260L1740,1140Z" fill="#5b98ae" stroke="#5b98ae" stroke-width="1.51"/><path d="M1620,1140L1620,1260L1740,1140Z" fill="#5aa2b0" stroke="#5aa2b0" stroke-width="1.51"/><path d="M1620,1140L1740,1140L1740,1020Z" fill="#5aaeae" stroke="#5aaeae" stroke-width="1.51"/><path d="M1620,1020L1620,1140L1740,1020Z" fill="#64b9aa" stroke="#64b9aa" stroke-width="1.51"/><path d="M1620,1020L1740,1020L1740,900Z" fill="#6cc2a6" stroke="#6cc2a6" stroke-width="1.51"/><path d="M1620,900L1620,1020L1740,900Z" fill="#7ac9a5" stroke="#7ac9a5" stroke-width="1.51"/><path d="M1620,900L1740,900L1740,780Z" fill="#88cca6" stroke="#88cca6" stroke-width="1.51"/><path d="M1620,780L1620,900L1740,780Z" fill="#95d3a4" stroke="#95d3a4" stroke-width="1.51"/><path d="M1620,780L1740,780L1740,660Z" fill="#a1d5a2" stroke="#a1d5a2" stroke-width="1.51"/><path d="M1620,660L1620,780L1740,660Z" fill="#aedc9f" stroke="#aedc9f" stroke-width="1.51"/><path d="M1620,660L1740,660L1740,540Z" fill="#b0dbaa" stroke="#b0dbaa" stroke-width="1.51"/><path d="M1620,540L1620,660L1740,540Z" fill="#b7e0ad" stroke="#b7e0ad" stroke-width="1.51"/><path d="M1620,540L1740,540L1740,420Z" fill="#b7daad" stroke="#b7daad" stroke-width="1.51"/><path d="M1620,420L1620,540L1740,420Z" fill="#bcdaa5" stroke="#bcdaa5" stroke-width="1.51"/><path d="M1620,420L1740,420L1740,300Z" fill="#bacf99" stroke="#bacf99" stroke-width="1.51"/><path d="M1620,300L1620,420L1740,300Z" fill="#bfcc93" stroke="#bfcc93" stroke-width="1.51"/><path d="M1620,300L1740,300L1740,180Z" fill="#bebc89" stroke="#bebc89" stroke-width="1.51"/><path d="M1620,180L1620,300L1740,180Z" fill="#c2ba83" stroke="#c2ba83" stroke-width="1.51"/><path d="M1620,180L1740,180L1740,60Z" fill="#c0a87c" stroke="#c0a87c" stroke-width="1.51"/><path d="M1620,60L1620,180L1740,60Z" fill="#c3a476" stroke="#c3a476" stroke-width="1.51"/><path d="M1620,60L1740,60L1740,-60Z" fill="#bb9576" stroke="#bb9576" stroke-width="1.51"/><path d="M1620,-60L1620,60L1740,-60Z" fill="#bb9376" stroke="#bb9376" stroke-width="1.51"/><path d="M1620,-60L1740,-60L1740,-180Z" fill="#ae8679" stroke="#ae8679" stroke-width="1.51"/><path d="M1620,-180L1620,-60L1740,-180Z" fill="#ab8475" stroke="#ab8475" stroke-width="1.51"/><path d="M1500,1260L1620,1260L1620,1140Z" fill="#6d9fad" stroke="#6d9fad" stroke-width="1.51"/><path d="M1500,1140L1500,1260L1620,1140Z" fill="#6ea9b1" stroke="#6ea9b1" stroke-width="1.51"/><path d="M1500,1140L1620,1140L1620,1020Z" fill="#6db6ad" stroke="#6db6ad" stroke-width="1.51"/><path d="M1500,1020L1500,1140L1620,1020Z" fill="#77c0aa" stroke="#77c0aa" stroke-width="1.51"/><path d="M1500,1020L1620,1020L1620,900Z" fill="#7dcaa5" stroke="#7dcaa5" stroke-width="1.51"/><path d="M1500,900L1500,1020L1620,900Z" fill="#8bd0a5" stroke="#8bd0a5" stroke-width="1.51"/><path d="M1500,900L1620,900L1620,780Z" fill="#97d4a5" stroke="#97d4a5" stroke-width="1.51"/><path d="M1500,780L1500,900L1620,780Z" fill="#a5daa4" stroke="#a5daa4" stroke-width="1.51"/><path d="M1500,780L1620,780L1620,660Z" fill="#afdda1" stroke="#afdda1" stroke-width="1.51"/><path d="M1500,660L1500,780L1620,660Z" fill="#bce39f" stroke="#bce39f" stroke-width="1.51"/><path d="M1500,660L1620,660L1620,540Z" fill="#bee3a8" stroke="#bee3a8" stroke-width="1.51"/><path d="M1500,540L1500,660L1620,540Z" fill="#c6e7ad" stroke="#c6e7ad" stroke-width="1.51"/><path d="M1500,540L1620,540L1620,420Z" fill="#c5e2ac" stroke="#c5e2ac" stroke-width="1.51"/><path d="M1500,420L1500,540L1620,420Z" fill="#cae1a5" stroke="#cae1a5" stroke-width="1.51"/><path d="M1500,420L1620,420L1620,300Z" fill="#c7d798" stroke="#c7d798" stroke-width="1.51"/><path d="M1500,300L1500,420L1620,300Z" fill="#ccd392" stroke="#ccd392" stroke-width="1.51"/><path d="M1500,300L1620,300L1620,180Z" fill="#cac487" stroke="#cac487" stroke-width="1.51"/><path d="M1500,180L1500,300L1620,180Z" fill="#cfc082" stroke="#cfc082" stroke-width="1.51"/><path d="M1500,180L1620,180L1620,60Z" fill="#ccaf7a" stroke="#ccaf7a" stroke-width="1.51"/><path d="M1500,60L1500,180L1620,60Z" fill="#d0aa76" stroke="#d0aa76" stroke-width="1.51"/><path d="M1500,60L1620,60L1620,-60Z" fill="#c79c75" stroke="#c79c75" stroke-width="1.51"/><path d="M1500,-60L1500,60L1620,-60Z" fill="#c89976" stroke="#c89976" stroke-width="1.51"/><path d="M1500,-60L1620,-60L1620,-180Z" fill="#ba8d78" stroke="#ba8d78" stroke-width="1.51"/><path d="M1500,-180L1500,-60L1620,-180Z" fill="#b78a75" stroke="#b78a75" stroke-width="1.51"/><path d="M1380,1260L1500,1260L1500,1140Z" fill="#7fa6ad" stroke="#7fa6ad" stroke-width="1.51"/><path d="M1380,1140L1380,1260L1500,1140Z" fill="#80afb0" stroke="#80afb0" stroke-width="1.51"/><path d="M1380,1140L1500,1140L1500,1020Z" fill="#80bcad" stroke="#80bcad" stroke-width="1.51"/><path d="M1380,1020L1380,1140L1500,1020Z" fill="#89c6a9" stroke="#89c6a9" stroke-width="1.51"/><path d="M1380,1020L1500,1020L1500,900Z" fill="#8ed1a5" stroke="#8ed1a5" stroke-width="1.51"/><path d="M1380,900L1380,1020L1500,900Z" fill="#9cd6a4" stroke="#9cd6a4" stroke-width="1.51"/><path d="M1380,900L1500,900L1500,780Z" fill="#a7dba4" stroke="#a7dba4" stroke-width="1.51"/><path d="M1380,780L1380,900L1500,780Z" fill="#b4e0a3" stroke="#b4e0a3" stroke-width="1.51"/><path d="M1380,780L1500,780L1500,660Z" fill="#bfe4a0" stroke="#bfe4a0" stroke-width="1.51"/><path d="M1380,660L1380,780L1500,660Z" fill="#cbe99e" stroke="#cbe99e" stroke-width="1.51"/><path d="M1380,660L1500,660L1500,540Z" fill="#cdeba8" stroke="#cdeba8" stroke-width="1.51"/><path d="M1380,540L1380,660L1500,540Z" fill="#d5eeac" stroke="#d5eeac" stroke-width="1.51"/><path d="M1380,540L1500,540L1500,420Z" fill="#d4e9ab" stroke="#d4e9ab" stroke-width="1.51"/><path d="M1380,420L1380,540L1500,420Z" fill="#d9e7a4" stroke="#d9e7a4" stroke-width="1.51"/><path d="M1380,420L1500,420L1500,300Z" fill="#d5dd97" stroke="#d5dd97" stroke-width="1.51"/><path d="M1380,300L1380,420L1500,300Z" fill="#dad991" stroke="#dad991" stroke-width="1.51"/><path d="M1380,300L1500,300L1500,180Z" fill="#d8cb87" stroke="#d8cb87" stroke-width="1.51"/><path d="M1380,180L1380,300L1500,180Z" fill="#ddc681" stroke="#ddc681" stroke-width="1.51"/><path d="M1380,180L1500,180L1500,60Z" fill="#d9b679" stroke="#d9b679" stroke-width="1.51"/><path d="M1380,60L1380,180L1500,60Z" fill="#ddb075" stroke="#ddb075" stroke-width="1.51"/><path d="M1380,60L1500,60L1500,-60Z" fill="#d4a274" stroke="#d4a274" stroke-width="1.51"/><path d="M1380,-60L1380,60L1500,-60Z" fill="#d49f75" stroke="#d49f75" stroke-width="1.51"/><path d="M1380,-60L1500,-60L1500,-180Z" fill="#c79377" stroke="#c79377" stroke-width="1.51"/><path d="M1380,-180L1380,-60L1500,-180Z" fill="#c49075" stroke="#c49075" stroke-width="1.51"/><path d="M1260,1260L1380,1260L1380,1140Z" fill="#90abab" stroke="#90abab" stroke-width="1.51"/><path d="M1260,1140L1260,1260L1380,1140Z" fill="#92b5ae" stroke="#92b5ae" stroke-width="1.51"/><path d="M1260,1140L1380,1140L1380,1020Z" fill="#91c2ab" stroke="#91c2ab" stroke-width="1.51"/><path d="M1260,1020L1260,1140L1380,1020Z" fill="#9acca6" stroke="#9acca6" stroke-width="1.51"/><path d="M1260,1020L1380,1020L1380,900Z" fill="#9ed7a2" stroke="#9ed7a2" stroke-width="1.51"/><path d="M1260,900L1260,1020L1380,900Z" fill="#acdca1" stroke="#acdca1" stroke-width="1.51"/><path d="M1260,900L1380,900L1380,780Z" fill="#b6e1a2" stroke="#b6e1a2" stroke-width="1.51"/><path d="M1260,780L1260,900L1380,780Z" fill="#c3e6a0" stroke="#c3e6a0" stroke-width="1.51"/><path d="M1260,780L1380,780L1380,660Z" fill="#cdea9e" stroke="#cdea9e" stroke-width="1.51"/><path d="M1260,660L1260,780L1380,660Z" fill="#daef9b" stroke="#daef9b" stroke-width="1.51"/><path d="M1260,660L1380,660L1380,540Z" fill="#dbf1a5" stroke="#dbf1a5" stroke-width="1.51"/><path d="M1260,540L1260,660L1380,540Z" fill="#e4f4a9" stroke="#e4f4a9" stroke-width="1.51"/><path d="M1260,540L1380,540L1380,420Z" fill="#e2efa8" stroke="#e2efa8" stroke-width="1.51"/><path d="M1260,420L1260,540L1380,420Z" fill="#e7eda0" stroke="#e7eda0" stroke-width="1.51"/><path d="M1260,420L1380,420L1380,300Z" fill="#e2e395" stroke="#e2e395" stroke-width="1.51"/><path d="M1260,300L1260,420L1380,300Z" fill="#e8df8e" stroke="#e8df8e" stroke-width="1.51"/><path d="M1260,300L1380,300L1380,180Z" fill="#e5d084" stroke="#e5d084" stroke-width="1.51"/><path d="M1260,180L1260,300L1380,180Z" fill="#eacc7e" stroke="#eacc7e" stroke-width="1.51"/><path d="M1260,180L1380,180L1380,60Z" fill="#e5bb77" stroke="#e5bb77" stroke-width="1.51"/><path d="M1260,60L1260,180L1380,60Z" fill="#e9b571" stroke="#e9b571" stroke-width="1.51"/><path d="M1260,60L1380,60L1380,-60Z" fill="#e0a872" stroke="#e0a872" stroke-width="1.51"/><path d="M1260,-60L1260,60L1380,-60Z" fill="#e1a472" stroke="#e1a472" stroke-width="1.51"/><path d="M1260,-60L1380,-60L1380,-180Z" fill="#d39875" stroke="#d39875" stroke-width="1.51"/><path d="M1260,-180L1260,-60L1380,-180Z" fill="#d09572" stroke="#d09572" stroke-width="1.51"/><path d="M1140,1260L1260,1260L1260,1140Z" fill="#a0b1a9" stroke="#a0b1a9" stroke-width="1.51"/><path d="M1140,1140L1140,1260L1260,1140Z" fill="#a0baae" stroke="#a0baae" stroke-width="1.51"/><path d="M1140,1140L1260,1140L1260,1020Z" fill="#a1c8a8" stroke="#a1c8a8" stroke-width="1.51"/><path d="M1140,1020L1140,1140L1260,1020Z" fill="#a8d1a6" stroke="#a8d1a6" stroke-width="1.51"/><path d="M1140,1020L1260,1020L1260,900Z" fill="#aedda0" stroke="#aedda0" stroke-width="1.51"/><path d="M1140,900L1140,1020L1260,900Z" fill="#b9e2a0" stroke="#b9e2a0" stroke-width="1.51"/><path d="M1140,900L1260,900L1260,780Z" fill="#c5e79f" stroke="#c5e79f" stroke-width="1.51"/><path d="M1140,780L1140,900L1260,780Z" fill="#d0ec9f" stroke="#d0ec9f" stroke-width="1.51"/><path d="M1140,780L1260,780L1260,660Z" fill="#dcf09b" stroke="#dcf09b" stroke-width="1.51"/><path d="M1140,660L1140,780L1260,660Z" fill="#e6f599" stroke="#e6f599" stroke-width="1.51"/><path d="M1140,660L1260,660L1260,540Z" fill="#eaf7a2" stroke="#eaf7a2" stroke-width="1.51"/><path d="M1140,540L1140,660L1260,540Z" fill="#f1f9a8" stroke="#f1f9a8" stroke-width="1.51"/><path d="M1140,540L1260,540L1260,420Z" fill="#f0f5a6" stroke="#f0f5a6" stroke-width="1.51"/><path d="M1140,420L1140,540L1260,420Z" fill="#f4f3a0" stroke="#f4f3a0" stroke-width="1.51"/><path d="M1140,420L1260,420L1260,300Z" fill="#f0e991" stroke="#f0e991" stroke-width="1.51"/><path d="M1140,300L1140,420L1260,300Z" fill="#f4e48d" stroke="#f4e48d" stroke-width="1.51"/><path d="M1140,300L1260,300L1260,180Z" fill="#f2d681" stroke="#f2d681" stroke-width="1.51"/><path d="M1140,180L1140,300L1260,180Z" fill="#f6d17d" stroke="#f6d17d" stroke-width="1.51"/><path d="M1140,180L1260,180L1260,60Z" fill="#f2c174" stroke="#f2c174" stroke-width="1.51"/><path d="M1140,60L1140,180L1260,60Z" fill="#f5ba70" stroke="#f5ba70" stroke-width="1.51"/><path d="M1140,60L1260,60L1260,-60Z" fill="#edad6f" stroke="#edad6f" stroke-width="1.51"/><path d="M1140,-60L1140,60L1260,-60Z" fill="#eca971" stroke="#eca971" stroke-width="1.51"/><path d="M1140,-60L1260,-60L1260,-180Z" fill="#e09d72" stroke="#e09d72" stroke-width="1.51"/><path d="M1140,-180L1140,-60L1260,-180Z" fill="#dc9971" stroke="#dc9971" stroke-width="1.51"/><path d="M1020,1260L1140,1260L1140,1140Z" fill="#a7b4b0" stroke="#a7b4b0" stroke-width="1.51"/><path d="M1020,1140L1020,1260L1140,1140Z" fill="#a5bcb7" stroke="#a5bcb7" stroke-width="1.51"/><path d="M1020,1140L1140,1140L1140,1020Z" fill="#a9cbb0" stroke="#a9cbb0" stroke-width="1.51"/><path d="M1020,1020L1020,1140L1140,1020Z" fill="#aed4af" stroke="#aed4af" stroke-width="1.51"/><path d="M1020,1020L1140,1020L1140,900Z" fill="#b6e0a7" stroke="#b6e0a7" stroke-width="1.51"/><path d="M1020,900L1020,1020L1140,900Z" fill="#c0e5aa" stroke="#c0e5aa" stroke-width="1.51"/><path d="M1020,900L1140,900L1140,780Z" fill="#cdeba6" stroke="#cdeba6" stroke-width="1.51"/><path d="M1020,780L1020,900L1140,780Z" fill="#d7efa8" stroke="#d7efa8" stroke-width="1.51"/><path d="M1020,780L1140,780L1140,660Z" fill="#e4f4a2" stroke="#e4f4a2" stroke-width="1.51"/><path d="M1020,660L1020,780L1140,660Z" fill="#edf8a4" stroke="#edf8a4" stroke-width="1.51"/><path d="M1020,660L1140,660L1140,540Z" fill="#f2f9aa" stroke="#f2f9aa" stroke-width="1.51"/><path d="M1020,540L1020,660L1140,540Z" fill="#f7fcb2" stroke="#f7fcb2" stroke-width="1.51"/><path d="M1020,540L1140,540L1140,420Z" fill="#f8f8ad" stroke="#f8f8ad" stroke-width="1.51"/><path d="M1020,420L1020,540L1140,420Z" fill="#faf5a9" stroke="#faf5a9" stroke-width="1.51"/><path d="M1020,420L1140,420L1140,300Z" fill="#f8ec99" stroke="#f8ec99" stroke-width="1.51"/><path d="M1020,300L1020,420L1140,300Z" fill="#fbe797" stroke="#fbe797" stroke-width="1.51"/><path d="M1020,300L1140,300L1140,180Z" fill="#fad988" stroke="#fad988" stroke-width="1.51"/><path d="M1020,180L1020,300L1140,180Z" fill="#fcd386" stroke="#fcd386" stroke-width="1.51"/><path d="M1020,180L1140,180L1140,60Z" fill="#fac37b" stroke="#fac37b" stroke-width="1.51"/><path d="M1020,60L1020,180L1140,60Z" fill="#fbbc7a" stroke="#fbbc7a" stroke-width="1.51"/><path d="M1020,60L1140,60L1140,-60Z" fill="#f4af76" stroke="#f4af76" stroke-width="1.51"/><path d="M1020,-60L1020,60L1140,-60Z" fill="#f2ab7b" stroke="#f2ab7b" stroke-width="1.51"/><path d="M1020,-60L1140,-60L1140,-180Z" fill="#e7a079" stroke="#e7a079" stroke-width="1.51"/><path d="M1020,-180L1020,-60L1140,-180Z" fill="#e29b7a" stroke="#e29b7a" stroke-width="1.51"/><path d="M900,1260L1020,1260L1020,1140Z" fill="#acb6ba" stroke="#acb6ba" stroke-width="1.51"/><path d="M900,1140L900,1260L1020,1140Z" fill="#aabdbd" stroke="#aabdbd" stroke-width="1.51"/><path d="M900,1140L1020,1140L1020,1020Z" fill="#aecdb9" stroke="#aecdb9" stroke-width="1.51"/><path d="M900,1020L900,1140L1020,1020Z" fill="#b3d5b5" stroke="#b3d5b5" stroke-width="1.51"/><path d="M900,1020L1020,1020L1020,900Z" fill="#bce3b1" stroke="#bce3b1" stroke-width="1.51"/><path d="M900,900L900,1020L1020,900Z" fill="#c5e5b0" stroke="#c5e5b0" stroke-width="1.51"/><path d="M900,900L1020,900L1020,780Z" fill="#d3edb0" stroke="#d3edb0" stroke-width="1.51"/><path d="M900,780L900,900L1020,780Z" fill="#dcefae" stroke="#dcefae" stroke-width="1.51"/><path d="M900,780L1020,780L1020,660Z" fill="#eaf6ac" stroke="#eaf6ac" stroke-width="1.51"/><path d="M900,660L900,780L1020,660Z" fill="#f2f8aa" stroke="#f2f8aa" stroke-width="1.51"/><path d="M900,660L1020,660L1020,540Z" fill="#f8fcb4" stroke="#f8fcb4" stroke-width="1.51"/><path d="M900,540L900,660L1020,540Z" fill="#fcfcb8" stroke="#fcfcb8" stroke-width="1.51"/><path d="M900,540L1020,540L1020,420Z" fill="#fefab7" stroke="#fefab7" stroke-width="1.51"/><path d="M900,420L900,540L1020,420Z" fill="#fff5af" stroke="#fff5af" stroke-width="1.51"/><path d="M900,420L1020,420L1020,300Z" fill="#feeea3" stroke="#feeea3" stroke-width="1.51"/><path d="M900,300L900,420L1020,300Z" fill="#ffe79d" stroke="#ffe79d" stroke-width="1.51"/><path d="M900,300L1020,300L1020,180Z" fill="#ffdb92" stroke="#ffdb92" stroke-width="1.51"/><path d="M900,180L900,300L1020,180Z" fill="#ffd48c" stroke="#ffd48c" stroke-width="1.51"/><path d="M900,180L1020,180L1020,60Z" fill="#ffc585" stroke="#ffc585" stroke-width="1.51"/><path d="M900,60L900,180L1020,60Z" fill="#ffbc80" stroke="#ffbc80" stroke-width="1.51"/><path d="M900,60L1020,60L1020,-60Z" fill="#fab180" stroke="#fab180" stroke-width="1.51"/><path d="M900,-60L900,60L1020,-60Z" fill="#f7ab81" stroke="#f7ab81" stroke-width="1.51"/><path d="M900,-60L1020,-60L1020,-180Z" fill="#eda183" stroke="#eda183" stroke-width="1.51"/><path d="M900,-180L900,-60L1020,-180Z" fill="#e69b80" stroke="#e69b80" stroke-width="1.51"/><path d="M780,1260L900,1260L900,1140Z" fill="#aeb0b1" stroke="#aeb0b1" stroke-width="1.51"/><path d="M780,1140L780,1260L900,1140Z" fill="#acb5b0" stroke="#acb5b0" stroke-width="1.51"/><path d="M780,1140L900,1140L900,1020Z" fill="#b1c8b0" stroke="#b1c8b0" stroke-width="1.51"/><path d="M780,1020L780,1140L900,1020Z" fill="#b5cda9" stroke="#b5cda9" stroke-width="1.51"/><path d="M780,1020L900,1020L900,900Z" fill="#bedda7" stroke="#bedda7" stroke-width="1.51"/><path d="M780,900L780,1020L900,900Z" fill="#c6dea3" stroke="#c6dea3" stroke-width="1.51"/><path d="M780,900L900,900L900,780Z" fill="#d5e7a7" stroke="#d5e7a7" stroke-width="1.51"/><path d="M780,780L780,900L900,780Z" fill="#dde8a2" stroke="#dde8a2" stroke-width="1.51"/><path d="M780,780L900,780L900,660Z" fill="#ebf0a2" stroke="#ebf0a2" stroke-width="1.51"/><path d="M780,660L780,780L900,660Z" fill="#f2f19d" stroke="#f2f19d" stroke-width="1.51"/><path d="M780,660L900,660L900,540Z" fill="#f9f6aa" stroke="#f9f6aa" stroke-width="1.51"/><path d="M780,540L780,660L900,540Z" fill="#fcf5ab" stroke="#fcf5ab" stroke-width="1.51"/><path d="M780,540L900,540L900,420Z" fill="#fff4ad" stroke="#fff4ad" stroke-width="1.51"/><path d="M780,420L780,540L900,420Z" fill="#ffeea2" stroke="#ffeea2" stroke-width="1.51"/><path d="M780,420L900,420L900,300Z" fill="#ffe899" stroke="#ffe899" stroke-width="1.51"/><path d="M780,300L780,420L900,300Z" fill="#ffdf90" stroke="#ffdf90" stroke-width="1.51"/><path d="M780,300L900,300L900,180Z" fill="#ffd589" stroke="#ffd589" stroke-width="1.51"/><path d="M780,180L780,300L900,180Z" fill="#ffcc80" stroke="#ffcc80" stroke-width="1.51"/><path d="M780,180L900,180L900,60Z" fill="#ffbf7c" stroke="#ffbf7c" stroke-width="1.51"/><path d="M780,60L780,180L900,60Z" fill="#feb573" stroke="#feb573" stroke-width="1.51"/><path d="M780,60L900,60L900,-60Z" fill="#faab77" stroke="#faab77" stroke-width="1.51"/><path d="M780,-60L780,60L900,-60Z" fill="#f5a374" stroke="#f5a374" stroke-width="1.51"/><path d="M780,-60L900,-60L900,-180Z" fill="#ec9b7a" stroke="#ec9b7a" stroke-width="1.51"/><path d="M780,-180L780,-60L900,-180Z" fill="#e59474" stroke="#e59474" stroke-width="1.51"/><path d="M660,1260L780,1260L780,1140Z" fill="#b0a9a4" stroke="#b0a9a4" stroke-width="1.51"/><path d="M660,1140L660,1260L780,1140Z" fill="#aeada4" stroke="#aeada4" stroke-width="1.51"/><path d="M660,1140L780,1140L780,1020Z" fill="#b2c0a3" stroke="#b2c0a3" stroke-width="1.51"/><path d="M660,1020L660,1140L780,1020Z" fill="#b7c59c" stroke="#b7c59c" stroke-width="1.51"/><path d="M660,1020L780,1020L780,900Z" fill="#c0d69b" stroke="#c0d69b" stroke-width="1.51"/><path d="M660,900L660,1020L780,900Z" fill="#c7d697" stroke="#c7d697" stroke-width="1.51"/><path d="M660,900L780,900L780,780Z" fill="#d5e09a" stroke="#d5e09a" stroke-width="1.51"/><path d="M660,780L660,900L780,780Z" fill="#dddf95" stroke="#dddf95" stroke-width="1.51"/><path d="M660,780L780,780L780,660Z" fill="#ebe995" stroke="#ebe995" stroke-width="1.51"/><path d="M660,660L660,780L780,660Z" fill="#f2e88f" stroke="#f2e88f" stroke-width="1.51"/><path d="M660,660L780,660L780,540Z" fill="#f8ef9d" stroke="#f8ef9d" stroke-width="1.51"/><path d="M660,540L660,660L780,540Z" fill="#fcec9e" stroke="#fcec9e" stroke-width="1.51"/><path d="M660,540L780,540L780,420Z" fill="#ffeda0" stroke="#ffeda0" stroke-width="1.51"/><path d="M660,420L660,540L780,420Z" fill="#ffe595" stroke="#ffe595" stroke-width="1.51"/><path d="M660,420L780,420L780,300Z" fill="#fee18c" stroke="#fee18c" stroke-width="1.51"/><path d="M660,300L660,420L780,300Z" fill="#fed783" stroke="#fed783" stroke-width="1.51"/><path d="M660,300L780,300L780,180Z" fill="#ffce7c" stroke="#ffce7c" stroke-width="1.51"/><path d="M660,180L660,300L780,180Z" fill="#fec473" stroke="#fec473" stroke-width="1.51"/><path d="M660,180L780,180L780,60Z" fill="#feb86f" stroke="#feb86f" stroke-width="1.51"/><path d="M660,60L660,180L780,60Z" fill="#fdac67" stroke="#fdac67" stroke-width="1.51"/><path d="M660,60L780,60L780,-60Z" fill="#f8a36a" stroke="#f8a36a" stroke-width="1.51"/><path d="M660,-60L660,60L780,-60Z" fill="#f39b68" stroke="#f39b68" stroke-width="1.51"/><path d="M660,-60L780,-60L780,-180Z" fill="#eb946e" stroke="#eb946e" stroke-width="1.51"/><path d="M660,-180L660,-60L780,-180Z" fill="#e38b68" stroke="#e38b68" stroke-width="1.51"/><path d="M540,1260L660,1260L660,1140Z" fill="#b29e99" stroke="#b29e99" stroke-width="1.51"/><path d="M540,1140L540,1260L660,1140Z" fill="#b0a199" stroke="#b0a199" stroke-width="1.51"/><path d="M540,1140L660,1140L660,1020Z" fill="#b5b599" stroke="#b5b599" stroke-width="1.51"/><path d="M540,1020L540,1140L660,1020Z" fill="#b9b991" stroke="#b9b991" stroke-width="1.51"/><path d="M540,1020L660,1020L660,900Z" fill="#c2ca90" stroke="#c2ca90" stroke-width="1.51"/><path d="M540,900L540,1020L660,900Z" fill="#caca8c" stroke="#caca8c" stroke-width="1.51"/><path d="M540,900L660,900L660,780Z" fill="#d7d48f" stroke="#d7d48f" stroke-width="1.51"/><path d="M540,780L540,900L660,780Z" fill="#dfd38a" stroke="#dfd38a" stroke-width="1.51"/><path d="M540,780L660,780L660,660Z" fill="#ecdd8a" stroke="#ecdd8a" stroke-width="1.51"/><path d="M540,660L540,780L660,660Z" fill="#f3dc85" stroke="#f3dc85" stroke-width="1.51"/><path d="M540,660L660,660L660,540Z" fill="#f9e392" stroke="#f9e392" stroke-width="1.51"/><path d="M540,540L540,660L660,540Z" fill="#fde093" stroke="#fde093" stroke-width="1.51"/><path d="M540,540L660,540L660,420Z" fill="#ffe195" stroke="#ffe195" stroke-width="1.51"/><path d="M540,420L540,540L660,420Z" fill="#ffd98b" stroke="#ffd98b" stroke-width="1.51"/><path d="M540,420L660,420L660,300Z" fill="#fed581" stroke="#fed581" stroke-width="1.51"/><path d="M540,300L540,420L660,300Z" fill="#fecb78" stroke="#fecb78" stroke-width="1.51"/><path d="M540,300L660,300L660,180Z" fill="#fec271" stroke="#fec271" stroke-width="1.51"/><path d="M540,180L540,300L660,180Z" fill="#feb768" stroke="#feb768" stroke-width="1.51"/><path d="M540,180L660,180L660,60Z" fill="#fdac64" stroke="#fdac64" stroke-width="1.51"/><path d="M540,60L540,180L660,60Z" fill="#fba05d" stroke="#fba05d" stroke-width="1.51"/><path d="M540,60L660,60L660,-60Z" fill="#f69760" stroke="#f69760" stroke-width="1.51"/><path d="M540,-60L540,60L660,-60Z" fill="#f28e5e" stroke="#f28e5e" stroke-width="1.51"/><path d="M540,-60L660,-60L660,-180Z" fill="#e98763" stroke="#e98763" stroke-width="1.51"/><path d="M540,-180L540,-60L660,-180Z" fill="#e27e5e" stroke="#e27e5e" stroke-width="1.51"/><path d="M420,1260L540,1260L540,1140Z" fill="#b3928f" stroke="#b3928f" stroke-width="1.51"/><path d="M420,1140L420,1260L540,1140Z" fill="#b3958f" stroke="#b3958f" stroke-width="1.51"/><path d="M420,1140L540,1140L540,1020Z" fill="#b7a98e" stroke="#b7a98e" stroke-width="1.51"/><path d="M420,1020L420,1140L540,1020Z" fill="#bcad87" stroke="#bcad87" stroke-width="1.51"/><path d="M420,1020L540,1020L540,900Z" fill="#c4be85" stroke="#c4be85" stroke-width="1.51"/><path d="M420,900L420,1020L540,900Z" fill="#ccbd82" stroke="#ccbd82" stroke-width="1.51"/><path d="M420,900L540,900L540,780Z" fill="#d9c884" stroke="#d9c884" stroke-width="1.51"/><path d="M420,780L420,900L540,780Z" fill="#e0c780" stroke="#e0c780" stroke-width="1.51"/><path d="M420,780L540,780L540,660Z" fill="#edd180" stroke="#edd180" stroke-width="1.51"/><path d="M420,660L420,780L540,660Z" fill="#f4cf7b" stroke="#f4cf7b" stroke-width="1.51"/><path d="M420,660L540,660L540,540Z" fill="#fad687" stroke="#fad687" stroke-width="1.51"/><path d="M420,540L420,660L540,540Z" fill="#fed389" stroke="#fed389" stroke-width="1.51"/><path d="M420,540L540,540L540,420Z" fill="#ffd58b" stroke="#ffd58b" stroke-width="1.51"/><path d="M420,420L420,540L540,420Z" fill="#ffcc81" stroke="#ffcc81" stroke-width="1.51"/><path d="M420,420L540,420L540,300Z" fill="#fec977" stroke="#fec977" stroke-width="1.51"/><path d="M420,300L420,420L540,300Z" fill="#febe6e" stroke="#febe6e" stroke-width="1.51"/><path d="M420,300L540,300L540,180Z" fill="#feb566" stroke="#feb566" stroke-width="1.51"/><path d="M420,180L420,300L540,180Z" fill="#fdaa5e" stroke="#fdaa5e" stroke-width="1.51"/><path d="M420,180L540,180L540,60Z" fill="#fb9f5a" stroke="#fb9f5a" stroke-width="1.51"/><path d="M420,60L420,180L540,60Z" fill="#fa9253" stroke="#fa9253" stroke-width="1.51"/><path d="M420,60L540,60L540,-60Z" fill="#f58a56" stroke="#f58a56" stroke-width="1.51"/><path d="M420,-60L420,60L540,-60Z" fill="#f08055" stroke="#f08055" stroke-width="1.51"/><path d="M420,-60L540,-60L540,-180Z" fill="#e77a59" stroke="#e77a59" stroke-width="1.51"/><path d="M420,-180L420,-60L540,-180Z" fill="#e07055" stroke="#e07055" stroke-width="1.51"/><path d="M300,1260L420,1260L420,1140Z" fill="#b48486" stroke="#b48486" stroke-width="1.51"/><path d="M300,1140L300,1260L420,1140Z" fill="#b38787" stroke="#b38787" stroke-width="1.51"/><path d="M300,1140L420,1140L420,1020Z" fill="#b99c85" stroke="#b99c85" stroke-width="1.51"/><path d="M300,1020L300,1140L420,1020Z" fill="#bd9f7f" stroke="#bd9f7f" stroke-width="1.51"/><path d="M300,1020L420,1020L420,900Z" fill="#c5b17d" stroke="#c5b17d" stroke-width="1.51"/><path d="M300,900L300,1020L420,900Z" fill="#ccaf7a" stroke="#ccaf7a" stroke-width="1.51"/><path d="M300,900L420,900L420,780Z" fill="#daba7c" stroke="#daba7c" stroke-width="1.51"/><path d="M300,780L300,900L420,780Z" fill="#e1b878" stroke="#e1b878" stroke-width="1.51"/><path d="M300,780L420,780L420,660Z" fill="#edc377" stroke="#edc377" stroke-width="1.51"/><path d="M300,660L300,780L420,660Z" fill="#f4c073" stroke="#f4c073" stroke-width="1.51"/><path d="M300,660L420,660L420,540Z" fill="#fac87f" stroke="#fac87f" stroke-width="1.51"/><path d="M300,540L300,660L420,540Z" fill="#fec481" stroke="#fec481" stroke-width="1.51"/><path d="M300,540L420,540L420,420Z" fill="#ffc682" stroke="#ffc682" stroke-width="1.51"/><path d="M300,420L300,540L420,420Z" fill="#ffbd79" stroke="#ffbd79" stroke-width="1.51"/><path d="M300,420L420,420L420,300Z" fill="#feba6f" stroke="#feba6f" stroke-width="1.51"/><path d="M300,300L300,420L420,300Z" fill="#fdae67" stroke="#fdae67" stroke-width="1.51"/><path d="M300,300L420,300L420,180Z" fill="#fca65e" stroke="#fca65e" stroke-width="1.51"/><path d="M300,180L300,300L420,180Z" fill="#fb9a57" stroke="#fb9a57" stroke-width="1.51"/><path d="M300,180L420,180L420,60Z" fill="#fa9052" stroke="#fa9052" stroke-width="1.51"/><path d="M300,60L300,180L420,60Z" fill="#f8824b" stroke="#f8824b" stroke-width="1.51"/><path d="M300,60L420,60L420,-60Z" fill="#f27a4e" stroke="#f27a4e" stroke-width="1.51"/><path d="M300,-60L300,60L420,-60Z" fill="#ee6f4d" stroke="#ee6f4d" stroke-width="1.51"/><path d="M300,-60L420,-60L420,-180Z" fill="#e56a52" stroke="#e56a52" stroke-width="1.51"/><path d="M300,-180L300,-60L420,-180Z" fill="#dd5e4d" stroke="#dd5e4d" stroke-width="1.51"/><path d="M180,1260L300,1260L300,1140Z" fill="#b4757e" stroke="#b4757e" stroke-width="1.51"/><path d="M180,1140L180,1260L300,1140Z" fill="#b17980" stroke="#b17980" stroke-width="1.51"/><path d="M180,1140L300,1140L300,1020Z" fill="#b98d7d" stroke="#b98d7d" stroke-width="1.51"/><path d="M180,1020L180,1140L300,1020Z" fill="#bb9179" stroke="#bb9179" stroke-width="1.51"/><path d="M180,1020L300,1020L300,900Z" fill="#c6a274" stroke="#c6a274" stroke-width="1.51"/><path d="M180,900L180,1020L300,900Z" fill="#cba173" stroke="#cba173" stroke-width="1.51"/><path d="M180,900L300,900L300,780Z" fill="#daac73" stroke="#daac73" stroke-width="1.51"/><path d="M180,780L180,900L300,780Z" fill="#dfaa72" stroke="#dfaa72" stroke-width="1.51"/><path d="M180,780L300,780L300,660Z" fill="#edb46f" stroke="#edb46f" stroke-width="1.51"/><path d="M180,660L180,780L300,660Z" fill="#f2b26c" stroke="#f2b26c" stroke-width="1.51"/><path d="M180,660L300,660L300,540Z" fill="#fab976" stroke="#fab976" stroke-width="1.51"/><path d="M180,540L180,660L300,540Z" fill="#fcb57a" stroke="#fcb57a" stroke-width="1.51"/><path d="M180,540L300,540L300,420Z" fill="#ffb77a" stroke="#ffb77a" stroke-width="1.51"/><path d="M180,420L180,540L300,420Z" fill="#fdae72" stroke="#fdae72" stroke-width="1.51"/><path d="M180,420L300,420L300,300Z" fill="#fdab66" stroke="#fdab66" stroke-width="1.51"/><path d="M180,300L180,420L300,300Z" fill="#faa061" stroke="#faa061" stroke-width="1.51"/><path d="M180,300L300,300L300,180Z" fill="#fb9757" stroke="#fb9757" stroke-width="1.51"/><path d="M180,180L180,300L300,180Z" fill="#f88b51" stroke="#f88b51" stroke-width="1.51"/><path d="M180,180L300,180L300,60Z" fill="#f77f4a" stroke="#f77f4a" stroke-width="1.51"/><path d="M180,60L180,180L300,60Z" fill="#f47246" stroke="#f47246" stroke-width="1.51"/><path d="M180,60L300,60L300,-60Z" fill="#f06947" stroke="#f06947" stroke-width="1.51"/><path d="M180,-60L180,60L300,-60Z" fill="#ea5e48" stroke="#ea5e48" stroke-width="1.51"/><path d="M180,-60L300,-60L300,-180Z" fill="#e2584a" stroke="#e2584a" stroke-width="1.51"/><path d="M180,-180L180,-60L300,-180Z" fill="#d94d48" stroke="#d94d48" stroke-width="1.51"/><path d="M60,1260L180,1260L180,1140Z" fill="#ad6a7e" stroke="#ad6a7e" stroke-width="1.51"/><path d="M60,1140L60,1260L180,1140Z" fill="#aa7082" stroke="#aa7082" stroke-width="1.51"/><path d="M60,1140L180,1140L180,1020Z" fill="#b2837e" stroke="#b2837e" stroke-width="1.51"/><path d="M60,1020L60,1140L180,1020Z" fill="#b4887b" stroke="#b4887b" stroke-width="1.51"/><path d="M60,1020L180,1020L180,900Z" fill="#c09876" stroke="#c09876" stroke-width="1.51"/><path d="M60,900L60,1020L180,900Z" fill="#c49876" stroke="#c49876" stroke-width="1.51"/><path d="M60,900L180,900L180,780Z" fill="#d3a175" stroke="#d3a175" stroke-width="1.51"/><path d="M60,780L60,900L180,780Z" fill="#d7a175" stroke="#d7a175" stroke-width="1.51"/><path d="M60,780L180,780L180,660Z" fill="#e6a971" stroke="#e6a971" stroke-width="1.51"/><path d="M60,660L60,780L180,660Z" fill="#eba870" stroke="#eba870" stroke-width="1.51"/><path d="M60,660L180,660L180,540Z" fill="#f3ae78" stroke="#f3ae78" stroke-width="1.51"/><path d="M60,540L60,660L180,540Z" fill="#f4ab7e" stroke="#f4ab7e" stroke-width="1.51"/><path d="M60,540L180,540L180,420Z" fill="#f9ac7b" stroke="#f9ac7b" stroke-width="1.51"/><path d="M60,420L60,540L180,420Z" fill="#f5a576" stroke="#f5a576" stroke-width="1.51"/><path d="M60,420L180,420L180,300Z" fill="#f6a068" stroke="#f6a068" stroke-width="1.51"/><path d="M60,300L60,420L180,300Z" fill="#f39664" stroke="#f39664" stroke-width="1.51"/><path d="M60,300L180,300L180,180Z" fill="#f48b59" stroke="#f48b59" stroke-width="1.51"/><path d="M60,180L60,300L180,180Z" fill="#f08155" stroke="#f08155" stroke-width="1.51"/><path d="M60,180L180,180L180,60Z" fill="#f0734d" stroke="#f0734d" stroke-width="1.51"/><path d="M60,60L60,180L180,60Z" fill="#ec674a" stroke="#ec674a" stroke-width="1.51"/><path d="M60,60L180,60L180,-60Z" fill="#e95c49" stroke="#e95c49" stroke-width="1.51"/><path d="M60,-60L60,60L180,-60Z" fill="#e2534b" stroke="#e2534b" stroke-width="1.51"/><path d="M60,-60L180,-60L180,-180Z" fill="#db4a4c" stroke="#db4a4c" stroke-width="1.51"/><path d="M60,-180L60,-60L180,-180Z" fill="#d1414b" stroke="#d1414b" stroke-width="1.51"/><path d="M-60,1260L60,1260L60,1140Z" fill="#a56180" stroke="#a56180" stroke-width="1.51"/><path d="M-60,1140L-60,1260L60,1140Z" fill="#a06683" stroke="#a06683" stroke-width="1.51"/><path d="M-60,1140L60,1140L60,1020Z" fill="#ab797f" stroke="#ab797f" stroke-width="1.51"/><path d="M-60,1020L-60,1140L60,1020Z" fill="#ab7e7c" stroke="#ab7e7c" stroke-width="1.51"/><path d="M-60,1020L60,1020L60,900Z" fill="#b98e78" stroke="#b98e78" stroke-width="1.51"/><path d="M-60,900L-60,1020L60,900Z" fill="#bb8e78" stroke="#bb8e78" stroke-width="1.51"/><path d="M-60,900L60,900L60,780Z" fill="#cc9777" stroke="#cc9777" stroke-width="1.51"/><path d="M-60,780L-60,900L60,780Z" fill="#cf9776" stroke="#cf9776" stroke-width="1.51"/><path d="M-60,780L60,780L60,660Z" fill="#df9f73" stroke="#df9f73" stroke-width="1.51"/><path d="M-60,660L-60,780L60,660Z" fill="#e29e72" stroke="#e29e72" stroke-width="1.51"/><path d="M-60,660L60,660L60,540Z" fill="#eca47b" stroke="#eca47b" stroke-width="1.51"/><path d="M-60,540L-60,660L60,540Z" fill="#eba17f" stroke="#eba17f" stroke-width="1.51"/><path d="M-60,540L60,540L60,420Z" fill="#f2a27e" stroke="#f2a27e" stroke-width="1.51"/><path d="M-60,420L-60,540L60,420Z" fill="#ed9a77" stroke="#ed9a77" stroke-width="1.51"/><path d="M-60,420L60,420L60,300Z" fill="#ef966b" stroke="#ef966b" stroke-width="1.51"/><path d="M-60,300L-60,420L60,300Z" fill="#ea8b66" stroke="#ea8b66" stroke-width="1.51"/><path d="M-60,300L60,300L60,180Z" fill="#ed815c" stroke="#ed815c" stroke-width="1.51"/><path d="M-60,180L-60,300L60,180Z" fill="#e87757" stroke="#e87757" stroke-width="1.51"/><path d="M-60,180L60,180L60,60Z" fill="#e96950" stroke="#e96950" stroke-width="1.51"/><path d="M-60,60L-60,180L60,60Z" fill="#e35c4c" stroke="#e35c4c" stroke-width="1.51"/><path d="M-60,60L60,60L60,-60Z" fill="#e1504b" stroke="#e1504b" stroke-width="1.51"/><path d="M-60,-60L-60,60L60,-60Z" fill="#d9464d" stroke="#d9464d" stroke-width="1.51"/><path d="M-60,-60L60,-60L60,-180Z" fill="#d33e4e" stroke="#d33e4e" stroke-width="1.51"/><path d="M-60,-180L-60,-60L60,-180Z" fill="#c8344c" stroke="#c8344c" stroke-width="1.51"/><path d="M-180,1260L-60,1260L-60,1140Z" fill="#98587d" stroke="#98587d" stroke-width="1.51"/><path d="M-180,1140L-180,1260L-60,1140Z" fill="#935d7f" stroke="#935d7f" stroke-width="1.51"/><path d="M-180,1140L-60,1140L-60,1020Z" fill="#9e707d" stroke="#9e707d" stroke-width="1.51"/><path d="M-180,1020L-180,1140L-60,1020Z" fill="#9e7579" stroke="#9e7579" stroke-width="1.51"/><path d="M-180,1020L-60,1020L-60,900Z" fill="#ac8475" stroke="#ac8475" stroke-width="1.51"/><path d="M-180,900L-180,1020L-60,900Z" fill="#ae8474" stroke="#ae8474" stroke-width="1.51"/><path d="M-180,900L-60,900L-60,780Z" fill="#bf8d75" stroke="#bf8d75" stroke-width="1.51"/><path d="M-180,780L-180,900L-60,780Z" fill="#c18c73" stroke="#c18c73" stroke-width="1.51"/><path d="M-180,780L-60,780L-60,660Z" fill="#d29571" stroke="#d29571" stroke-width="1.51"/><path d="M-180,660L-180,780L-60,660Z" fill="#d4946f" stroke="#d4946f" stroke-width="1.51"/><path d="M-180,660L-60,660L-60,540Z" fill="#df9a78" stroke="#df9a78" stroke-width="1.51"/><path d="M-180,540L-180,660L-60,540Z" fill="#de977c" stroke="#de977c" stroke-width="1.51"/><path d="M-180,540L-60,540L-60,420Z" fill="#e4977c" stroke="#e4977c" stroke-width="1.51"/><path d="M-180,420L-180,540L-60,420Z" fill="#df9074" stroke="#df9074" stroke-width="1.51"/><path d="M-180,420L-60,420L-60,300Z" fill="#e28b69" stroke="#e28b69" stroke-width="1.51"/><path d="M-180,300L-180,420L-60,300Z" fill="#dc8163" stroke="#dc8163" stroke-width="1.51"/><path d="M-180,300L-60,300L-60,180Z" fill="#e0775a" stroke="#e0775a" stroke-width="1.51"/><path d="M-180,180L-180,300L-60,180Z" fill="#da6c54" stroke="#da6c54" stroke-width="1.51"/><path d="M-180,180L-60,180L-60,60Z" fill="#dc5e4e" stroke="#dc5e4e" stroke-width="1.51"/><path d="M-180,60L-180,180L-60,60Z" fill="#d65149" stroke="#d65149" stroke-width="1.51"/><path d="M-180,60L-60,60L-60,-60Z" fill="#d4464a" stroke="#d4464a" stroke-width="1.51"/><path d="M-180,-60L-180,60L-60,-60Z" fill="#cb3b4a" stroke="#cb3b4a" stroke-width="1.51"/><path d="M-180,-60L-60,-60L-60,-180Z" fill="#c6324c" stroke="#c6324c" stroke-width="1.51"/><path d="M-180,-180L-180,-60L-60,-180Z" fill="#bb2749" stroke="#bb2749" stroke-width="1.51"/></svg>