<svg xmlns="http://www.w3.org/2000/svg" width="1920" height="1080"><path d="M1980,1260L2100,1260L2100,1140Z" fill="#990026" stroke="#990026" stroke-width="1.51"/><path d="M1980,1140L1980,1260L2100,1140Z" fill="#a30026" stroke="#a30026" stroke-width="1.51"/><path d="M1980,1140L2100,1140L2100,1020Z" fill="#ab0126" stroke="#ab0126" stroke-width="1.51"/><path d="M1980,1020L1980,1140L2100,1020Z" fill="#b30425" stroke="#b30425" stroke-width="1.51"/><path d="M1980,1020L2100,1020L2100,900Z" fill="#b60923" stroke="#b60923" stroke-width="1.51"/><path d="M1980,900L1980,1020L2100,900Z" fill="#be0c23" stroke="#be0c23" stroke-width="1.51"/><path d="M1980,900L2100,900L2100,780Z" fill="#bf1b25" stroke="#bf1b25" stroke-width="1.51"/><path d="M1980,780L1980,900L2100,780Z" fill="#c62226" stroke="#c62226" stroke-width="1.51"/><path d="M1980,780L2100,780L2100,660Z" fill="#c62c29" stroke="#c62c29" stroke-width="1.51"/><path d="M1980,660L1980,780L2100,660Z" fill="#cc352b" stroke="#cc352b" stroke-width="1.51"/><path d="M1980,660L2100,660L2100,540Z" fill="#c8442e" stroke="#c8442e" stroke-width="1.51"/><path d="M1980,540L1980,660L2100,540Z" fill="#cc4c30" stroke="#cc4c30" stroke-width="1.51"/><path d="M1980,540L2100,540L2100,420Z" fill="#c85633" stroke="#c85633" stroke-width="1.51"/><path d="M1980,420L1980,540L2100,420Z" fill="#cd5b34" stroke="#cd5b34" stroke-width="1.51"/><path d="M1980,420L2100,420L2100,300Z" fill="#ca6238" stroke="#ca6238" stroke-width="1.51"/><path d="M1980,300L1980,420L2100,300Z" fill="#ce6839" stroke="#ce6839" stroke-width="1.51"/><path d="M1980,300L2100,300L2100,180Z" fill="#cb6f41" stroke="#cb6f41" stroke-width="1.51"/><path d="M1980,180L1980,300L2100,180Z" fill="#d07445" stroke="#d07445" stroke-width="1.51"/><path d="M1980,180L2100,180L2100,60Z" fill="#cc7b4d" stroke="#cc7b4d" stroke-width="1.51"/><path d="M1980,60L1980,180L2100,60Z" fill="#d17e51" stroke="#d17e51" stroke-width="1.51"/><path d="M1980,60L2100,60L2100,-60Z" fill="#ce8059" stroke="#ce8059" stroke-width="1.51"/><path d="M1980,-60L1980,60L2100,-60Z" fill="#d3845d" stroke="#d3845d" stroke-width="1.51"/><path d="M1980,-60L2100,-60L2100,-180Z" fill="#cf8664" stroke="#cf8664" stroke-width="1.51"/><path d="M1980,-180L1980,-60L2100,-180Z" fill="#d48a68" stroke="#d48a68" stroke-width="1.51"/><path d="M1860,1260L1980,1260L1980,1140Z" fill="#a50026" stroke="#a50026" stroke-width="1.51"/><path d="M1860,1140L1860,1260L1980,1140Z" fill="#b00026" stroke="#b00026" stroke-width="1.51"/><path d="M1860,1140L1980,1140L1980,1020Z" fill="#b70126" stroke="#b70126" stroke-width="1.51"/><path d="M1860,1020L1860,1140L1980,1020Z" fill="#bf0425" stroke="#bf0425" stroke-width="1.51"/><path d="M1860,1020L1980,1020L1980,900Z" fill="#c20a23" stroke="#c20a23" stroke-width="1.51"/><path d="M1860,900L1860,1020L1980,900Z" fill="#cb0d22" stroke="#cb0d22" stroke-width="1.51"/><path d="M1860,900L1980,900L1980,780Z" fill="#cc1d24" stroke="#cc1d24" stroke-width="1.51"/><path d="M1860,780L1860,900L1980,780Z" fill="#d32426" stroke="#d32426" stroke-width="1.51"/><path d="M1860,780L1980,780L1980,660Z" fill="#d32e29" stroke="#d32e29" stroke-width="1.51"/><path d="M1860,660L1860,780L1980,660Z" fill="#d9382a" stroke="#d9382a" stroke-width="1.51"/><path d="M1860,660L1980,660L1980,540Z" fill="#d4472e" stroke="#d4472e" stroke-width="1.51"/><path d="M1860,540L1860,660L1980,540Z" fill="#d9502f" stroke="#d9502f" stroke-width="1.51"/><path d="M1860,540L1980,540L1980,420Z" fill="#d55933" stroke="#d55933" stroke-width="1.51"/><path d="M1860,420L1860,540L1980,420Z" fill="#da5f34" stroke="#da5f34" stroke-width="1.51"/><path d="M1860,420L1980,420L1980,300Z" fill="#d66637" stroke="#d66637" stroke-width="1.51"/><path d="M1860,300L1860,420L1980,300Z" fill="#db6c39" stroke="#db6c39" stroke-width="1.51"/><path d="M1860,300L1980,300L1980,180Z" fill="#d87341" stroke="#d87341" stroke-width="1.51"/><path d="M1860,180L1860,300L1980,180Z" fill="#dd7845" stroke="#dd7845" stroke-width="1.51"/><path d="M1860,180L1980,180L1980,60Z" fill="#d97f4c" stroke="#d97f4c" stroke-width="1.51"/><path d="M1860,60L1860,180L1980,60Z" fill="#df8251" stroke="#df8251" stroke-width="1.51"/><path d="M1860,60L1980,60L1980,-60Z" fill="#db8558" stroke="#db8558" stroke-width="1.51"/><path d="M1860,-60L1860,60L1980,-60Z" fill="#e0885d" stroke="#e0885d" stroke-width="1.51"/><path d="M1860,-60L1980,-60L1980,-180Z" fill="#dd8b64" stroke="#dd8b64" stroke-width="1.51"/><path d="M1860,-180L1860,-60L1980,-180Z" fill="#e28e69" stroke="#e28e69" stroke-width="1.51"/><path d="M1740,1260L1860,1260L1860,1140Z" fill="#b00226" stroke="#b00226" stroke-width="1.51"/><path d="M1740,1140L1740,1260L1860,1140Z" fill="#b90325" stroke="#b90325" stroke-width="1.51"/><path d="M1740,1140L1860,1140L1860,1020Z" fill="#c20425" stroke="#c20425" stroke-width="1.51"/><path d="M1740,1020L1740,1140L1860,1020Z" fill="#c80824" stroke="#c80824" stroke-width="1.51"/><path d="M1740,1020L1860,1020L1860,900Z" fill="#cd0d22" stroke="#cd0d22" stroke-width="1.51"/><path d="M1740,900L1740,1020L1860,900Z" fill="#d41121" stroke="#d41121" stroke-width="1.51"/><path d="M1740,900L1860,900L1860,780Z" fill="#d71f24" stroke="#d71f24" stroke-width="1.51"/><path d="M1740,780L1740,900L1860,780Z" fill="#dc2624" stroke="#dc2624" stroke-width="1.51"/><path d="M1740,780L1860,780L1860,660Z" fill="#de3128" stroke="#de3128" stroke-width="1.51"/><path d="M1740,660L1740,780L1860,660Z" fill="#e23a29" stroke="#e23a29" stroke-width="1.51"/><path d="M1740,660L1860,660L1860,540Z" fill="#e04a2d" stroke="#e04a2d" stroke-width="1.51"/><path d="M1740,540L1740,660L1860,540Z" fill="#e3532e" stroke="#e3532e" stroke-width="1.51"/><path d="M1740,540L1860,540L1860,420Z" fill="#e05d32" stroke="#e05d32" stroke-width="1.51"/><path d="M1740,420L1740,540L1860,420Z" fill="#e46232" stroke="#e46232" stroke-width="1.51"/><path d="M1740,420L1860,420L1860,300Z" fill="#e26a36" stroke="#e26a36" stroke-width="1.51"/><path d="M1740,300L1740,420L1860,300Z" fill="#e56f37" stroke="#e56f37" stroke-width="1.51"/><path d="M1740,300L1860,300L1860,180Z" fill="#e47740" stroke="#e47740" stroke-width="1.51"/><path d="M1740,180L1740,300L1860,180Z" fill="#e77c43" stroke="#e77c43" stroke-width="1.51"/><path d="M1740,180L1860,180L1860,60Z" fill="#e5834c" stroke="#e5834c" stroke-width="1.51"/><path d="M1740,60L1740,180L1860,60Z" fill="#e9864f" stroke="#e9864f" stroke-width="1.51"/><path d="M1740,60L1860,60L1860,-60Z" fill="#e78958" stroke="#e78958" stroke-width="1.51"/><path d="M1740,-60L1740,60L1860,-60Z" fill="#ea8c5c" stroke="#ea8c5c" stroke-width="1.51"/><path d="M1740,-60L1860,-60L1860,-180Z" fill="#e98f64" stroke="#e98f64" stroke-width="1.51"/><path d="M1740,-180L1740,-60L1860,-180Z" fill="#ec9268" stroke="#ec9268" stroke-width="1.51"/><path d="M1620,1260L1740,1260L1740,1140Z" fill="#b80624" stroke="#b80624" stroke-width="1.51"/><path d="M1620,1140L1620,1260L1740,1140Z" fill="#c00823" stroke="#c00823" stroke-width="1.51"/><path d="M1620,1140L1740,1140L1740,1020Z" fill="#c90923" stroke="#c90923" stroke-width="1.51"/><path d="M1620,1020L1620,1140L1740,1020Z" fill="#d00e22" stroke="#d00e22" stroke-width="1.51"/><path d="M1620,1020L1740,1020L1740,900Z" fill="#d51220" stroke="#d51220" stroke-width="1.51"/><path d="M1620,900L1620,1020L1740,900Z" fill="#db161f" stroke="#db161f" stroke-width="1.51"/><path d="M1620,900L1740,900L1740,780Z" fill="#de2321" stroke="#de2321" stroke-width="1.51"/><path d="M1620,780L1620,900L1740,780Z" fill="#e32a22" stroke="#e32a22" stroke-width="1.51"/><path d="M1620,780L1740,780L1740,660Z" fill="#e63425" stroke="#e63425" stroke-width="1.51"/><path d="M1620,660L1620,780L1740,660Z" fill="#ea3e26" stroke="#ea3e26" stroke-width="1.51"/><path d="M1620,660L1740,660L1740,540Z" fill="#e74d2a" stroke="#e74d2a" stroke-width="1.51"/><path d="M1620,540L1620,660L1740,540Z" fill="#ea562b" stroke="#ea562b" stroke-width="1.51"/><path d="M1620,540L1740,540L1740,420Z" fill="#e8602f" stroke="#e8602f" stroke-width="1.51"/><path d="M1620,420L1620,540L1740,420Z" fill="#eb6530" stroke="#eb6530" stroke-width="1.51"/><path d="M1620,420L1740,420L1740,300Z" fill="#ea6d34" stroke="#ea6d34" stroke-width="1.51"/><path d="M1620,300L1620,420L1740,300Z" fill="#ed7235" stroke="#ed7235" stroke-width="1.51"/><path d="M1620,300L1740,300L1740,180Z" fill="#eb7a3d" stroke="#eb7a3d" stroke-width="1.51"/><path d="M1620,180L1620,300L1740,180Z" fill="#ef7f41" stroke="#ef7f41" stroke-width="1.51"/><path d="M1620,180L1740,180L1740,60Z" fill="#ed864a" stroke="#ed864a" stroke-width="1.51"/><path d="M1620,60L1620,180L1740,60Z" fill="#f1894d" stroke="#f1894d" stroke-width="1.51"/><path d="M1620,60L1740,60L1740,-60Z" fill="#ef8c56" stroke="#ef8c56" stroke-width="1.51"/><path d="M1620,-60L1620,60L1740,-60Z" fill="#f2905a" stroke="#f2905a" stroke-width="1.51"/><path d="M1620,-60L1740,-60L1740,-180Z" fill="#f19262" stroke="#f19262" stroke-width="1.51"/><path d="M1620,-180L1620,-60L1740,-180Z" fill="#f49666" stroke="#f49666" stroke-width="1.51"/><path d="M1500,1260L1620,1260L1620,1140Z" fill="#bf0c23" stroke="#bf0c23" stroke-width="1.51"/><path d="M1500,1140L1500,1260L1620,1140Z" fill="#c81122" stroke="#c81122" stroke-width="1.51"/><path d="M1500,1140L1620,1140L1620,1020Z" fill="#d10f21" stroke="#d10f21" stroke-width="1.51"/><path d="M1500,1020L1500,1140L1620,1020Z" fill="#d71520" stroke="#d71520" stroke-width="1.51"/><path d="M1500,1020L1620,1020L1620,900Z" fill="#dc171e" stroke="#dc171e" stroke-width="1.51"/><path d="M1500,900L1500,1020L1620,900Z" fill="#e31c1d" stroke="#e31c1d" stroke-width="1.51"/><path d="M1500,900L1620,900L1620,780Z" fill="#e6261f" stroke="#e6261f" stroke-width="1.51"/><path d="M1500,780L1500,900L1620,780Z" fill="#eb2f20" stroke="#eb2f20" stroke-width="1.51"/><path d="M1500,780L1620,780L1620,660Z" fill="#ee3723" stroke="#ee3723" stroke-width="1.51"/><path d="M1500,660L1500,780L1620,660Z" fill="#f14225" stroke="#f14225" stroke-width="1.51"/><path d="M1500,660L1620,660L1620,540Z" fill="#ef5128" stroke="#ef5128" stroke-width="1.51"/><path d="M1500,540L1500,660L1620,540Z" fill="#f25a2a" stroke="#f25a2a" stroke-width="1.51"/><path d="M1500,540L1620,540L1620,420Z" fill="#f0632d" stroke="#f0632d" stroke-width="1.51"/><path d="M1500,420L1500,540L1620,420Z" fill="#f3692e" stroke="#f3692e" stroke-width="1.51"/><path d="M1500,420L1620,420L1620,300Z" fill="#f17132" stroke="#f17132" stroke-width="1.51"/><path d="M1500,300L1500,420L1620,300Z" fill="#f47633" stroke="#f47633" stroke-width="1.51"/><path d="M1500,300L1620,300L1620,180Z" fill="#f37d3b" stroke="#f37d3b" stroke-width="1.51"/><path d="M1500,180L1500,300L1620,180Z" fill="#f68340" stroke="#f68340" stroke-width="1.51"/><path d="M1500,180L1620,180L1620,60Z" fill="#f58a48" stroke="#f58a48" stroke-width="1.51"/><path d="M1500,60L1500,180L1620,60Z" fill="#f88e4c" stroke="#f88e4c" stroke-width="1.51"/><path d="M1500,60L1620,60L1620,-60Z" fill="#f79054" stroke="#f79054" stroke-width="1.51"/><path d="M1500,-60L1500,60L1620,-60Z" fill="#fa9459" stroke="#fa9459" stroke-width="1.51"/><path d="M1500,-60L1620,-60L1620,-180Z" fill="#f99661" stroke="#f99661" stroke-width="1.51"/><path d="M1500,-180L1500,-60L1620,-180Z" fill="#fc9a65" stroke="#fc9a65" stroke-width="1.51"/><path d="M1380,1260L1500,1260L1500,1140Z" fill="#c41b25" stroke="#c41b25" stroke-width="1.51"/><path d="M1380,1140L1380,1260L1500,1140Z" fill="#cd2025" stroke="#cd2025" stroke-width="1.51"/><path d="M1380,1140L1500,1140L1500,1020Z" fill="#d61e24" stroke="#d61e24" stroke-width="1.51"/><path d="M1380,1020L1380,1140L1500,1020Z" fill="#dc2523" stroke="#dc2523" stroke-width="1.51"/><path d="M1380,1020L1500,1020L1500,900Z" fill="#e22420" stroke="#e22420" stroke-width="1.51"/><path d="M1380,900L1380,1020L1500,900Z" fill="#e82a1f" stroke="#e82a1f" stroke-width="1.51"/><path d="M1380,900L1500,900L1500,780Z" fill="#eb3121" stroke="#eb3121" stroke-width="1.51"/><path d="M1380,780L1380,900L1500,780Z" fill="#f03923" stroke="#f03923" stroke-width="1.51"/><path d="M1380,780L1500,780L1500,660Z" fill="#f33f25" stroke="#f33f25" stroke-width="1.51"/><path d="M1380,660L1380,780L1500,660Z" fill="#f64a27" stroke="#f64a27" stroke-width="1.51"/><path d="M1380,660L1500,660L1500,540Z" fill="#f4572a" stroke="#f4572a" stroke-width="1.51"/><path d="M1380,540L1380,660L1500,540Z" fill="#f7612d" stroke="#f7612d" stroke-width="1.51"/><path d="M1380,540L1500,540L1500,420Z" fill="#f56a2f" stroke="#f56a2f" stroke-width="1.51"/><path d="M1380,420L1380,540L1500,420Z" fill="#f87031" stroke="#f87031" stroke-width="1.51"/><path d="M1380,420L1500,420L1500,300Z" fill="#f77734" stroke="#f77734" stroke-width="1.51"/><path d="M1380,300L1380,420L1500,300Z" fill="#f97d36" stroke="#f97d36" stroke-width="1.51"/><path d="M1380,300L1500,300L1500,180Z" fill="#f8833e" stroke="#f8833e" stroke-width="1.51"/><path d="M1380,180L1380,300L1500,180Z" fill="#fb8a43" stroke="#fb8a43" stroke-width="1.51"/><path d="M1380,180L1500,180L1500,60Z" fill="#fa904a" stroke="#fa904a" stroke-width="1.51"/><path d="M1380,60L1380,180L1500,60Z" fill="#fd944f" stroke="#fd944f" stroke-width="1.51"/><path d="M1380,60L1500,60L1500,-60Z" fill="#fc9657" stroke="#fc9657" stroke-width="1.51"/><path d="M1380,-60L1380,60L1500,-60Z" fill="#fe9a5c" stroke="#fe9a5c" stroke-width="1.51"/><path d="M1380,-60L1500,-60L1500,-180Z" fill="#fe9c64" stroke="#fe9c64" stroke-width="1.51"/><path d="M1380,-180L1380,-60L1500,-180Z" fill="#ffa069" stroke="#ffa069" stroke-width="1.51"/><path d="M1260,1260L1380,1260L1380,1140Z" fill="#c92727" stroke="#c92727" stroke-width="1.51"/><path d="M1260,1140L1260,1260L1380,1140Z" fill="#d12c28" stroke="#d12c28" stroke-width="1.51"/><path d="M1260,1140L1380,1140L1380,1020Z" fill="#db2a26" stroke="#db2a26" stroke-width="1.51"/><path d="M1260,1020L1260,1140L1380,1020Z" fill="#e13026" stroke="#e13026" stroke-width="1.51"/><path d="M1260,1020L1380,1020L1380,900Z" fill="#e72f22" stroke="#e72f22" stroke-width="1.51"/><path d="M1260,900L1260,1020L1380,900Z" fill="#ed3522" stroke="#ed3522" stroke-width="1.51"/><path d="M1260,900L1380,900L1380,780Z" fill="#f13a23" stroke="#f13a23" stroke-width="1.51"/><path d="M1260,780L1260,900L1380,780Z" fill="#f54226" stroke="#f54226" stroke-width="1.51"/><path d="M1260,780L1380,780L1380,660Z" fill="#f84828" stroke="#f84828" stroke-width="1.51"/><path d="M1260,660L1260,780L1380,660Z" fill="#fb522a" stroke="#fb522a" stroke-width="1.51"/><path d="M1260,660L1380,660L1380,540Z" fill="#f95f2d" stroke="#f95f2d" stroke-width="1.51"/><path d="M1260,540L1260,660L1380,540Z" fill="#fb6830" stroke="#fb6830" stroke-width="1.51"/><path d="M1260,540L1380,540L1380,420Z" fill="#fa7032" stroke="#fa7032" stroke-width="1.51"/><path d="M1260,420L1260,540L1380,420Z" fill="#fd7734" stroke="#fd7734" stroke-width="1.51"/><path d="M1260,420L1380,420L1380,300Z" fill="#fb7d37" stroke="#fb7d37" stroke-width="1.51"/><path d="M1260,300L1260,420L1380,300Z" fill="#fe833a" stroke="#fe833a" stroke-width="1.51"/><path d="M1260,300L1380,300L1380,180Z" fill="#fd8a41" stroke="#fd8a41" stroke-width="1.51"/><path d="M1260,180L1260,300L1380,180Z" fill="#ff9046" stroke="#ff9046" stroke-width="1.51"/><path d="M1260,180L1380,180L1380,60Z" fill="#fe964d" stroke="#fe964d" stroke-width="1.51"/><path d="M1260,60L1260,180L1380,60Z" fill="#ff9b53" stroke="#ff9b53" stroke-width="1.51"/><path d="M1260,60L1380,60L1380,-60Z" fill="#ff9c5a" stroke="#ff9c5a" stroke-width="1.51"/><path d="M1260,-60L1260,60L1380,-60Z" fill="#ffa160" stroke="#ffa160" stroke-width="1.51"/><path d="M1260,-60L1380,-60L1380,-180Z" fill="#ffa267" stroke="#ffa267" stroke-width="1.51"/><path d="M1260,-180L1260,-60L1380,-180Z" fill="#ffa76c" stroke="#ffa76c" stroke-width="1.51"/><path d="M1140,1260L1260,1260L1260,1140Z" fill="#cd342a" stroke="#cd342a" stroke-width="1.51"/><path d="M1140,1140L1140,1260L1260,1140Z" fill="#d33a2b" stroke="#d33a2b" stroke-width="1.51"/><path d="M1140,1140L1260,1140L1260,1020Z" fill="#df3829" stroke="#df3829" stroke-width="1.51"/><path d="M1140,1020L1140,1140L1260,1020Z" fill="#e33f29" stroke="#e33f29" stroke-width="1.51"/><path d="M1140,1020L1260,1020L1260,900Z" fill="#eb3c25" stroke="#eb3c25" stroke-width="1.51"/><path d="M1140,900L1140,1020L1260,900Z" fill="#ef4426" stroke="#ef4426" stroke-width="1.51"/><path d="M1140,900L1260,900L1260,780Z" fill="#f44626" stroke="#f44626" stroke-width="1.51"/><path d="M1140,780L1140,900L1260,780Z" fill="#f74f29" stroke="#f74f29" stroke-width="1.51"/><path d="M1140,780L1260,780L1260,660Z" fill="#fc532b" stroke="#fc532b" stroke-width="1.51"/><path d="M1140,660L1140,780L1260,660Z" fill="#fd5e2e" stroke="#fd5e2e" stroke-width="1.51"/><path d="M1140,660L1260,660L1260,540Z" fill="#fd6830" stroke="#fd6830" stroke-width="1.51"/><path d="M1140,540L1140,660L1260,540Z" fill="#fd7233" stroke="#fd7233" stroke-width="1.51"/><path d="M1140,540L1260,540L1260,420Z" fill="#fd7935" stroke="#fd7935" stroke-width="1.51"/><path d="M1140,420L1140,540L1260,420Z" fill="#fe8038" stroke="#fe8038" stroke-width="1.51"/><path d="M1140,420L1260,420L1260,300Z" fill="#fe853a" stroke="#fe853a" stroke-width="1.51"/><path d="M1140,300L1140,420L1260,300Z" fill="#ff8d3d" stroke="#ff8d3d" stroke-width="1.51"/><path d="M1140,300L1260,300L1260,180Z" fill="#ff9244" stroke="#ff9244" stroke-width="1.51"/><path d="M1140,180L1140,300L1260,180Z" fill="#ff994a" stroke="#ff994a" stroke-width="1.51"/><path d="M1140,180L1260,180L1260,60Z" fill="#ff9e51" stroke="#ff9e51" stroke-width="1.51"/><path d="M1140,60L1140,180L1260,60Z" fill="#ffa357" stroke="#ffa357" stroke-width="1.51"/><path d="M1140,60L1260,60L1260,-60Z" fill="#ffa45e" stroke="#ffa45e" stroke-width="1.51"/><path d="M1140,-60L1140,60L1260,-60Z" fill="#ffa964" stroke="#ffa964" stroke-width="1.51"/><path d="M1140,-60L1260,-60L1260,-180Z" fill="#ffaa6a" stroke="#ffaa6a" stroke-width="1.51"/><path d="M1140,-180L1140,-60L1260,-180Z" fill="#ffaf70" stroke="#ffaf70" stroke-width="1.51"/><path d="M1020,1260L1140,1260L1140,1140Z" fill="#cd432d" stroke="#cd432d" stroke-width="1.51"/><path d="M1020,1140L1020,1260L1140,1140Z" fill="#d44a2f" stroke="#d44a2f" stroke-width="1.51"/><path d="M1020,1140L1140,1140L1140,1020Z" fill="#e0482c" stroke="#e0482c" stroke-width="1.51"/><path d="M1020,1020L1020,1140L1140,1020Z" fill="#e44e2c" stroke="#e44e2c" stroke-width="1.51"/><path d="M1020,1020L1140,1020L1140,900Z" fill="#eb4d29" stroke="#eb4d29" stroke-width="1.51"/><path d="M1020,900L1020,1020L1140,900Z" fill="#f05329" stroke="#f05329" stroke-width="1.51"/><path d="M1020,900L1140,900L1140,780Z" fill="#f5552a" stroke="#f5552a" stroke-width="1.51"/><path d="M1020,780L1020,900L1140,780Z" fill="#f75e2d" stroke="#f75e2d" stroke-width="1.51"/><path d="M1020,780L1140,780L1140,660Z" fill="#fc612e" stroke="#fc612e" stroke-width="1.51"/><path d="M1020,660L1020,780L1140,660Z" fill="#fd6b31" stroke="#fd6b31" stroke-width="1.51"/><path d="M1020,660L1140,660L1140,540Z" fill="#fd7433" stroke="#fd7433" stroke-width="1.51"/><path d="M1020,540L1020,660L1140,540Z" fill="#fd7e37" stroke="#fd7e37" stroke-width="1.51"/><path d="M1020,540L1140,540L1140,420Z" fill="#fd8439" stroke="#fd8439" stroke-width="1.51"/><path d="M1020,420L1020,540L1140,420Z" fill="#fe8b3c" stroke="#fe8b3c" stroke-width="1.51"/><path d="M1020,420L1140,420L1140,300Z" fill="#fe903e" stroke="#fe903e" stroke-width="1.51"/><path d="M1020,300L1020,420L1140,300Z" fill="#fe9741" stroke="#fe9741" stroke-width="1.51"/><path d="M1020,300L1140,300L1140,180Z" fill="#ff9c48" stroke="#ff9c48" stroke-width="1.51"/><path d="M1020,180L1020,300L1140,180Z" fill="#ffa44e" stroke="#ffa44e" stroke-width="1.51"/><path d="M1020,180L1140,180L1140,60Z" fill="#ffa855" stroke="#ffa855" stroke-width="1.51"/><path d="M1020,60L1020,180L1140,60Z" fill="#ffae5b" stroke="#ffae5b" stroke-width="1.51"/><path d="M1020,60L1140,60L1140,-60Z" fill="#ffae62" stroke="#ffae62" stroke-width="1.51"/><path d="M1020,-60L1020,60L1140,-60Z" fill="#ffb468" stroke="#ffb468" stroke-width="1.51"/><path d="M1020,-60L1140,-60L1140,-180Z" fill="#ffb46f" stroke="#ffb46f" stroke-width="1.51"/><path d="M1020,-180L1020,-60L1140,-180Z" fill="#ffba75" stroke="#ffba75" stroke-width="1.51"/><path d="M900,1260L1020,1260L1020,1140Z" fill="#ce5131" stroke="#ce5131" stroke-width="1.51"/><path d="M900,1140L900,1260L1020,1140Z" fill="#d45632" stroke="#d45632" stroke-width="1.51"/><path d="M900,1140L1020,1140L1020,1020Z" fill="#e05630" stroke="#e05630" stroke-width="1.51"/><path d="M900,1020L900,1140L1020,1020Z" fill="#e45c2f" stroke="#e45c2f" stroke-width="1.51"/><path d="M900,1020L1020,1020L1020,900Z" fill="#ec5b2c" stroke="#ec5b2c" stroke-width="1.51"/><path d="M900,900L900,1020L1020,900Z" fill="#f0602c" stroke="#f0602c" stroke-width="1.51"/><path d="M900,900L1020,900L1020,780Z" fill="#f5632d" stroke="#f5632d" stroke-width="1.51"/><path d="M900,780L900,900L1020,780Z" fill="#f86a30" stroke="#f86a30" stroke-width="1.51"/><path d="M900,780L1020,780L1020,660Z" fill="#fd6e32" stroke="#fd6e32" stroke-width="1.51"/><path d="M900,660L900,780L1020,660Z" fill="#fd7735" stroke="#fd7735" stroke-width="1.51"/><path d="M900,660L1020,660L1020,540Z" fill="#fd8037" stroke="#fd8037" stroke-width="1.51"/><path d="M900,540L900,660L1020,540Z" fill="#fd893a" stroke="#fd893a" stroke-width="1.51"/><path d="M900,540L1020,540L1020,420Z" fill="#fd8f3d" stroke="#fd8f3d" stroke-width="1.51"/><path d="M900,420L900,540L1020,420Z" fill="#fe963f" stroke="#fe963f" stroke-width="1.51"/><path d="M900,420L1020,420L1020,300Z" fill="#fe9b42" stroke="#fe9b42" stroke-width="1.51"/><path d="M900,300L900,420L1020,300Z" fill="#fea245" stroke="#fea245" stroke-width="1.51"/><path d="M900,300L1020,300L1020,180Z" fill="#ffa74c" stroke="#ffa74c" stroke-width="1.51"/><path d="M900,180L900,300L1020,180Z" fill="#ffae52" stroke="#ffae52" stroke-width="1.51"/><path d="M900,180L1020,180L1020,60Z" fill="#ffb259" stroke="#ffb259" stroke-width="1.51"/><path d="M900,60L900,180L1020,60Z" fill="#ffb85f" stroke="#ffb85f" stroke-width="1.51"/><path d="M900,60L1020,60L1020,-60Z" fill="#ffb866" stroke="#ffb866" stroke-width="1.51"/><path d="M900,-60L900,60L1020,-60Z" fill="#ffbe6c" stroke="#ffbe6c" stroke-width="1.51"/><path d="M900,-60L1020,-60L1020,-180Z" fill="#ffbe73" stroke="#ffbe73" stroke-width="1.51"/><path d="M900,-180L900,-60L1020,-180Z" fill="#ffc479" stroke="#ffc479" stroke-width="1.51"/><path d="M780,1260L900,1260L900,1140Z" fill="#cf5a34" stroke="#cf5a34" stroke-width="1.51"/><path d="M780,1140L780,1260L900,1140Z" fill="#d55f35" stroke="#d55f35" stroke-width="1.51"/><path d="M780,1140L900,1140L900,1020Z" fill="#e16033" stroke="#e16033" stroke-width="1.51"/><path d="M780,1020L780,1140L900,1020Z" fill="#e56432" stroke="#e56432" stroke-width="1.51"/><path d="M780,1020L900,1020L900,900Z" fill="#ed652f" stroke="#ed652f" stroke-width="1.51"/><path d="M780,900L780,1020L900,900Z" fill="#f1692f" stroke="#f1692f" stroke-width="1.51"/><path d="M780,900L900,900L900,780Z" fill="#f66d30" stroke="#f66d30" stroke-width="1.51"/><path d="M780,780L780,900L900,780Z" fill="#f97333" stroke="#f97333" stroke-width="1.51"/><path d="M780,780L900,780L900,660Z" fill="#fd7735" stroke="#fd7735" stroke-width="1.51"/><path d="M780,660L780,780L900,660Z" fill="#fe7f38" stroke="#fe7f38" stroke-width="1.51"/><path d="M780,660L900,660L900,540Z" fill="#fe893a" stroke="#fe893a" stroke-width="1.51"/><path d="M780,540L780,660L900,540Z" fill="#fe913d" stroke="#fe913d" stroke-width="1.51"/><path d="M780,540L900,540L900,420Z" fill="#fe9840" stroke="#fe9840" stroke-width="1.51"/><path d="M780,420L780,540L900,420Z" fill="#fe9e42" stroke="#fe9e42" stroke-width="1.51"/><path d="M780,420L900,420L900,300Z" fill="#fea345" stroke="#fea345" stroke-width="1.51"/><path d="M780,300L780,420L900,300Z" fill="#fea948" stroke="#fea948" stroke-width="1.51"/><path d="M780,300L900,300L900,180Z" fill="#ffaf4f" stroke="#ffaf4f" stroke-width="1.51"/><path d="M780,180L780,300L900,180Z" fill="#ffb555" stroke="#ffb555" stroke-width="1.51"/><path d="M780,180L900,180L900,60Z" fill="#ffba5c" stroke="#ffba5c" stroke-width="1.51"/><path d="M780,60L780,180L900,60Z" fill="#ffbf62" stroke="#ffbf62" stroke-width="1.51"/><path d="M780,60L900,60L900,-60Z" fill="#ffc06a" stroke="#ffc06a" stroke-width="1.51"/><path d="M780,-60L780,60L900,-60Z" fill="#ffc56f" stroke="#ffc56f" stroke-width="1.51"/><path d="M780,-60L900,-60L900,-180Z" fill="#ffc677" stroke="#ffc677" stroke-width="1.51"/><path d="M780,-180L780,-60L900,-180Z" fill="#ffcb7c" stroke="#ffcb7c" stroke-width="1.51"/><path d="M660,1260L780,1260L780,1140Z" fill="#cf6237" stroke="#cf6237" stroke-width="1.51"/><path d="M660,1140L660,1260L780,1140Z" fill="#d66738" stroke="#d66738" stroke-width="1.51"/><path d="M660,1140L780,1140L780,1020Z" fill="#e26836" stroke="#e26836" stroke-width="1.51"/><path d="M660,1020L660,1140L780,1020Z" fill="#e66c35" stroke="#e66c35" stroke-width="1.51"/><path d="M660,1020L780,1020L780,900Z" fill="#ee6d32" stroke="#ee6d32" stroke-width="1.51"/><path d="M660,900L660,1020L780,900Z" fill="#f27132" stroke="#f27132" stroke-width="1.51"/><path d="M660,900L780,900L780,780Z" fill="#f77533" stroke="#f77533" stroke-width="1.51"/><path d="M660,780L660,900L780,780Z" fill="#f97b36" stroke="#f97b36" stroke-width="1.51"/><path d="M660,780L780,780L780,660Z" fill="#fe7f38" stroke="#fe7f38" stroke-width="1.51"/><path d="M660,660L660,780L780,660Z" fill="#ff873b" stroke="#ff873b" stroke-width="1.51"/><path d="M660,660L780,660L780,540Z" fill="#fe903e" stroke="#fe903e" stroke-width="1.51"/><path d="M660,540L660,660L780,540Z" fill="#fe9841" stroke="#fe9841" stroke-width="1.51"/><path d="M660,540L780,540L780,420Z" fill="#fe9f43" stroke="#fe9f43" stroke-width="1.51"/><path d="M660,420L660,540L780,420Z" fill="#fea546" stroke="#fea546" stroke-width="1.51"/><path d="M660,420L780,420L780,300Z" fill="#feaa48" stroke="#feaa48" stroke-width="1.51"/><path d="M660,300L660,420L780,300Z" fill="#feb04b" stroke="#feb04b" stroke-width="1.51"/><path d="M660,300L780,300L780,180Z" fill="#ffb653" stroke="#ffb653" stroke-width="1.51"/><path d="M660,180L660,300L780,180Z" fill="#ffbc59" stroke="#ffbc59" stroke-width="1.51"/><path d="M660,180L780,180L780,60Z" fill="#ffc160" stroke="#ffc160" stroke-width="1.51"/><path d="M660,60L660,180L780,60Z" fill="#ffc666" stroke="#ffc666" stroke-width="1.51"/><path d="M660,60L780,60L780,-60Z" fill="#ffc76d" stroke="#ffc76d" stroke-width="1.51"/><path d="M660,-60L660,60L780,-60Z" fill="#ffcc73" stroke="#ffcc73" stroke-width="1.51"/><path d="M660,-60L780,-60L780,-180Z" fill="#ffcd7a" stroke="#ffcd7a" stroke-width="1.51"/><path d="M660,-180L660,-60L780,-180Z" fill="#ffd180" stroke="#ffd180" stroke-width="1.51"/><path d="M540,1260L660,1260L660,1140Z" fill="#d06a3c" stroke="#d06a3c" stroke-width="1.51"/><path d="M540,1140L540,1260L660,1140Z" fill="#d76f3e" stroke="#d76f3e" stroke-width="1.51"/><path d="M540,1140L660,1140L660,1020Z" fill="#e2703a" stroke="#e2703a" stroke-width="1.51"/><path d="M540,1020L540,1140L660,1020Z" fill="#e7753b" stroke="#e7753b" stroke-width="1.51"/><path d="M540,1020L660,1020L660,900Z" fill="#ee7537" stroke="#ee7537" stroke-width="1.51"/><path d="M540,900L540,1020L660,900Z" fill="#f37a38" stroke="#f37a38" stroke-width="1.51"/><path d="M540,900L660,900L660,780Z" fill="#f87d38" stroke="#f87d38" stroke-width="1.51"/><path d="M540,780L540,900L660,780Z" fill="#fa833c" stroke="#fa833c" stroke-width="1.51"/><path d="M540,780L660,780L660,660Z" fill="#ff873d" stroke="#ff873d" stroke-width="1.51"/><path d="M540,660L540,780L660,660Z" fill="#ff8f41" stroke="#ff8f41" stroke-width="1.51"/><path d="M540,660L660,660L660,540Z" fill="#ff9843" stroke="#ff9843" stroke-width="1.51"/><path d="M540,540L540,660L660,540Z" fill="#fea047" stroke="#fea047" stroke-width="1.51"/><path d="M540,540L660,540L660,420Z" fill="#fea648" stroke="#fea648" stroke-width="1.51"/><path d="M540,420L540,540L660,420Z" fill="#feac4c" stroke="#feac4c" stroke-width="1.51"/><path d="M540,420L660,420L660,300Z" fill="#feb24e" stroke="#feb24e" stroke-width="1.51"/><path d="M540,300L540,420L660,300Z" fill="#feb852" stroke="#feb852" stroke-width="1.51"/><path d="M540,300L660,300L660,180Z" fill="#ffbd58" stroke="#ffbd58" stroke-width="1.51"/><path d="M540,180L540,300L660,180Z" fill="#ffc45f" stroke="#ffc45f" stroke-width="1.51"/><path d="M540,180L660,180L660,60Z" fill="#ffc965" stroke="#ffc965" stroke-width="1.51"/><path d="M540,60L540,180L660,60Z" fill="#ffcd6c" stroke="#ffcd6c" stroke-width="1.51"/><path d="M540,60L660,60L660,-60Z" fill="#ffcf72" stroke="#ffcf72" stroke-width="1.51"/><path d="M540,-60L540,60L660,-60Z" fill="#ffd379" stroke="#ffd379" stroke-width="1.51"/><path d="M540,-60L660,-60L660,-180Z" fill="#ffd47f" stroke="#ffd47f" stroke-width="1.51"/><path d="M540,-180L540,-60L660,-180Z" fill="#ffd986" stroke="#ffd986" stroke-width="1.51"/><path d="M420,1260L540,1260L540,1140Z" fill="#d17343" stroke="#d17343" stroke-width="1.51"/><path d="M420,1140L420,1260L540,1140Z" fill="#d87745" stroke="#d87745" stroke-width="1.51"/><path d="M420,1140L540,1140L540,1020Z" fill="#e47942" stroke="#e47942" stroke-width="1.51"/><path d="M420,1020L420,1140L540,1020Z" fill="#e97d43" stroke="#e97d43" stroke-width="1.51"/><path d="M420,1020L540,1020L540,900Z" fill="#f07e3f" stroke="#f07e3f" stroke-width="1.51"/><path d="M420,900L420,1020L540,900Z" fill="#f48240" stroke="#f48240" stroke-width="1.51"/><path d="M420,900L540,900L540,780Z" fill="#f98640" stroke="#f98640" stroke-width="1.51"/><path d="M420,780L420,900L540,780Z" fill="#fc8c44" stroke="#fc8c44" stroke-width="1.51"/><path d="M420,780L540,780L540,660Z" fill="#ff9045" stroke="#ff9045" stroke-width="1.51"/><path d="M420,660L420,780L540,660Z" fill="#ff984a" stroke="#ff984a" stroke-width="1.51"/><path d="M420,660L540,660L540,540Z" fill="#ffa04b" stroke="#ffa04b" stroke-width="1.51"/><path d="M420,540L420,660L540,540Z" fill="#ffa850" stroke="#ffa850" stroke-width="1.51"/><path d="M420,540L540,540L540,420Z" fill="#ffae51" stroke="#ffae51" stroke-width="1.51"/><path d="M420,420L420,540L540,420Z" fill="#ffb455" stroke="#ffb455" stroke-width="1.51"/><path d="M420,420L540,420L540,300Z" fill="#ffba56" stroke="#ffba56" stroke-width="1.51"/><path d="M420,300L420,420L540,300Z" fill="#ffc05b" stroke="#ffc05b" stroke-width="1.51"/><path d="M420,300L540,300L540,180Z" fill="#ffc561" stroke="#ffc561" stroke-width="1.51"/><path d="M420,180L420,300L540,180Z" fill="#ffcc67" stroke="#ffcc67" stroke-width="1.51"/><path d="M420,180L540,180L540,60Z" fill="#ffd16e" stroke="#ffd16e" stroke-width="1.51"/><path d="M420,60L420,180L540,60Z" fill="#ffd575" stroke="#ffd575" stroke-width="1.51"/><path d="M420,60L540,60L540,-60Z" fill="#ffd67b" stroke="#ffd67b" stroke-width="1.51"/><path d="M420,-60L420,60L540,-60Z" fill="#ffdb82" stroke="#ffdb82" stroke-width="1.51"/><path d="M420,-60L540,-60L540,-180Z" fill="#ffdc88" stroke="#ffdc88" stroke-width="1.51"/><path d="M420,-180L420,-60L540,-180Z" fill="#ffe18f" stroke="#ffe18f" stroke-width="1.51"/><path d="M300,1260L420,1260L420,1140Z" fill="#d27a4a" stroke="#d27a4a" stroke-width="1.51"/><path d="M300,1140L300,1260L420,1140Z" fill="#d97f4d" stroke="#d97f4d" stroke-width="1.51"/><path d="M300,1140L420,1140L420,1020Z" fill="#e58149" stroke="#e58149" stroke-width="1.51"/><path d="M300,1020L300,1140L420,1020Z" fill="#e9854b" stroke="#e9854b" stroke-width="1.51"/><path d="M300,1020L420,1020L420,900Z" fill="#f18646" stroke="#f18646" stroke-width="1.51"/><path d="M300,900L300,1020L420,900Z" fill="#f58a48" stroke="#f58a48" stroke-width="1.51"/><path d="M300,900L420,900L420,780Z" fill="#fa8e48" stroke="#fa8e48" stroke-width="1.51"/><path d="M300,780L300,900L420,780Z" fill="#fd934d" stroke="#fd934d" stroke-width="1.51"/><path d="M300,780L420,780L420,660Z" fill="#ff984d" stroke="#ff984d" stroke-width="1.51"/><path d="M300,660L300,780L420,660Z" fill="#ff9f52" stroke="#ff9f52" stroke-width="1.51"/><path d="M300,660L420,660L420,540Z" fill="#ffa853" stroke="#ffa853" stroke-width="1.51"/><path d="M300,540L300,660L420,540Z" fill="#ffaf58" stroke="#ffaf58" stroke-width="1.51"/><path d="M300,540L420,540L420,420Z" fill="#ffb659" stroke="#ffb659" stroke-width="1.51"/><path d="M300,420L300,540L420,420Z" fill="#ffbb5d" stroke="#ffbb5d" stroke-width="1.51"/><path d="M300,420L420,420L420,300Z" fill="#ffc15e" stroke="#ffc15e" stroke-width="1.51"/><path d="M300,300L300,420L420,300Z" fill="#ffc763" stroke="#ffc763" stroke-width="1.51"/><path d="M300,300L420,300L420,180Z" fill="#ffcd69" stroke="#ffcd69" stroke-width="1.51"/><path d="M300,180L300,300L420,180Z" fill="#ffd370" stroke="#ffd370" stroke-width="1.51"/><path d="M300,180L420,180L420,60Z" fill="#fed876" stroke="#fed876" stroke-width="1.51"/><path d="M300,60L300,180L420,60Z" fill="#ffdc7d" stroke="#ffdc7d" stroke-width="1.51"/><path d="M300,60L420,60L420,-60Z" fill="#ffde83" stroke="#ffde83" stroke-width="1.51"/><path d="M300,-60L300,60L420,-60Z" fill="#ffe28a" stroke="#ffe28a" stroke-width="1.51"/><path d="M300,-60L420,-60L420,-180Z" fill="#ffe490" stroke="#ffe490" stroke-width="1.51"/><path d="M300,-180L300,-60L420,-180Z" fill="#ffe897" stroke="#ffe897" stroke-width="1.51"/><path d="M180,1260L300,1260L300,1140Z" fill="#d37f52" stroke="#d37f52" stroke-width="1.51"/><path d="M180,1140L180,1260L300,1140Z" fill="#da8355" stroke="#da8355" stroke-width="1.51"/><path d="M180,1140L300,1140L300,1020Z" fill="#e68651" stroke="#e68651" stroke-width="1.51"/><path d="M180,1020L180,1140L300,1020Z" fill="#eb8953" stroke="#eb8953" stroke-width="1.51"/><path d="M180,1020L300,1020L300,900Z" fill="#f28b4e" stroke="#f28b4e" stroke-width="1.51"/><path d="M180,900L180,1020L300,900Z" fill="#f78e51" stroke="#f78e51" stroke-width="1.51"/><path d="M180,900L300,900L300,780Z" fill="#fc9350" stroke="#fc9350" stroke-width="1.51"/><path d="M180,780L180,900L300,780Z" fill="#fe9855" stroke="#fe9855" stroke-width="1.51"/><path d="M180,780L300,780L300,660Z" fill="#ff9d55" stroke="#ff9d55" stroke-width="1.51"/><path d="M180,660L180,780L300,660Z" fill="#ffa35a" stroke="#ffa35a" stroke-width="1.51"/><path d="M180,660L300,660L300,540Z" fill="#ffad5b" stroke="#ffad5b" stroke-width="1.51"/><path d="M180,540L180,660L300,540Z" fill="#ffb361" stroke="#ffb361" stroke-width="1.51"/><path d="M180,540L300,540L300,420Z" fill="#ffbb61" stroke="#ffbb61" stroke-width="1.51"/><path d="M180,420L180,540L300,420Z" fill="#ffbf66" stroke="#ffbf66" stroke-width="1.51"/><path d="M180,420L300,420L300,300Z" fill="#ffc667" stroke="#ffc667" stroke-width="1.51"/><path d="M180,300L180,420L300,300Z" fill="#ffcb6c" stroke="#ffcb6c" stroke-width="1.51"/><path d="M180,300L300,300L300,180Z" fill="#ffd271" stroke="#ffd271" stroke-width="1.51"/><path d="M180,180L180,300L300,180Z" fill="#ffd679" stroke="#ffd679" stroke-width="1.51"/><path d="M180,180L300,180L300,60Z" fill="#ffdd7e" stroke="#ffdd7e" stroke-width="1.51"/><path d="M180,60L180,180L300,60Z" fill="#ffe086" stroke="#ffe086" stroke-width="1.51"/><path d="M180,60L300,60L300,-60Z" fill="#ffe38b" stroke="#ffe38b" stroke-width="1.51"/><path d="M180,-60L180,60L300,-60Z" fill="#ffe693" stroke="#ffe693" stroke-width="1.51"/><path d="M180,-60L300,-60L300,-180Z" fill="#ffe998" stroke="#ffe998" stroke-width="1.51"/><path d="M180,-180L180,-60L300,-180Z" fill="#ffeca0" stroke="#ffeca0" stroke-width="1.51"/><path d="M60,1260L180,1260L180,1140Z" fill="#d4835a" stroke="#d4835a" stroke-width="1.51"/><path d="M60,1140L60,1260L180,1140Z" fill="#db875c" stroke="#db875c" stroke-width="1.51"/><path d="M60,1140L180,1140L180,1020Z" fill="#e78a59" stroke="#e78a59" stroke-width="1.51"/><path d="M60,1020L60,1140L180,1020Z" fill="#ec8d5b" stroke="#ec8d5b" stroke-width="1.51"/><path d="M60,1020L180,1020L180,900Z" fill="#f38f57" stroke="#f38f57" stroke-width="1.51"/><path d="M60,900L60,1020L180,900Z" fill="#f89258" stroke="#f89258" stroke-width="1.51"/><path d="M60,900L180,900L180,780Z" fill="#fd9759" stroke="#fd9759" stroke-width="1.51"/><path d="M60,780L60,900L180,780Z" fill="#ff9c5d" stroke="#ff9c5d" stroke-width="1.51"/><path d="M60,780L180,780L180,660Z" fill="#ffa15e" stroke="#ffa15e" stroke-width="1.51"/><path d="M60,660L60,780L180,660Z" fill="#ffa762" stroke="#ffa762" stroke-width="1.51"/><path d="M60,660L180,660L180,540Z" fill="#ffb164" stroke="#ffb164" stroke-width="1.51"/><path d="M60,540L60,660L180,540Z" fill="#ffb769" stroke="#ffb769" stroke-width="1.51"/><path d="M60,540L180,540L180,420Z" fill="#ffbf6a" stroke="#ffbf6a" stroke-width="1.51"/><path d="M60,420L60,540L180,420Z" fill="#ffc36e" stroke="#ffc36e" stroke-width="1.51"/><path d="M60,420L180,420L180,300Z" fill="#ffca6f" stroke="#ffca6f" stroke-width="1.51"/><path d="M60,300L60,420L180,300Z" fill="#ffcf74" stroke="#ffcf74" stroke-width="1.51"/><path d="M60,300L180,300L180,180Z" fill="#ffd57a" stroke="#ffd57a" stroke-width="1.51"/><path d="M60,180L60,300L180,180Z" fill="#ffda81" stroke="#ffda81" stroke-width="1.51"/><path d="M60,180L180,180L180,60Z" fill="#ffe187" stroke="#ffe187" stroke-width="1.51"/><path d="M60,60L60,180L180,60Z" fill="#ffe48e" stroke="#ffe48e" stroke-width="1.51"/><path d="M60,60L180,60L180,-60Z" fill="#ffe793" stroke="#ffe793" stroke-width="1.51"/><path d="M60,-60L60,60L180,-60Z" fill="#ffea9b" stroke="#ffea9b" stroke-width="1.51"/><path d="M60,-60L180,-60L180,-180Z" fill="#ffeda1" stroke="#ffeda1" stroke-width="1.51"/><path d="M60,-180L60,-60L180,-180Z" fill="#fff0a8" stroke="#fff0a8" stroke-width="1.51"/><path d="M-60,1260L60,1260L60,1140Z" fill="#d58762" stroke="#d58762" stroke-width="1.51"/><path d="M-60,1140L-60,1260L60,1140Z" fill="#dc8a64" stroke="#dc8a64" stroke-width="1.51"/><path d="M-60,1140L60,1140L60,1020Z" fill="#e88d61" stroke="#e88d61" stroke-width="1.51"/><path d="M-60,1020L-60,1140L60,1020Z" fill="#ed9163" stroke="#ed9163" stroke-width="1.51"/><path d="M-60,1020L60,1020L60,900Z" fill="#f5935f" stroke="#f5935f" stroke-width="1.51"/><path d="M-60,900L-60,1020L60,900Z" fill="#f99661" stroke="#f99661" stroke-width="1.51"/><path d="M-60,900L60,900L60,780Z" fill="#fe9b61" stroke="#fe9b61" stroke-width="1.51"/><path d="M-60,780L-60,900L60,780Z" fill="#ffa065" stroke="#ffa065" stroke-width="1.51"/><path d="M-60,780L60,780L60,660Z" fill="#ffa566" stroke="#ffa566" stroke-width="1.51"/><path d="M-60,660L-60,780L60,660Z" fill="#ffab6b" stroke="#ffab6b" stroke-width="1.51"/><path d="M-60,660L60,660L60,540Z" fill="#ffb46c" stroke="#ffb46c" stroke-width="1.51"/><path d="M-60,540L-60,660L60,540Z" fill="#ffbb72" stroke="#ffbb72" stroke-width="1.51"/><path d="M-60,540L60,540L60,420Z" fill="#ffc272" stroke="#ffc272" stroke-width="1.51"/><path d="M-60,420L-60,540L60,420Z" fill="#ffc777" stroke="#ffc777" stroke-width="1.51"/><path d="M-60,420L60,420L60,300Z" fill="#ffce78" stroke="#ffce78" stroke-width="1.51"/><path d="M-60,300L-60,420L60,300Z" fill="#ffd27d" stroke="#ffd27d" stroke-width="1.51"/><path d="M-60,300L60,300L60,180Z" fill="#ffd982" stroke="#ffd982" stroke-width="1.51"/><path d="M-60,180L-60,300L60,180Z" fill="#ffde8a" stroke="#ffde8a" stroke-width="1.51"/><path d="M-60,180L60,180L60,60Z" fill="#ffe48f" stroke="#ffe48f" stroke-width="1.51"/><path d="M-60,60L-60,180L60,60Z" fill="#ffe897" stroke="#ffe897" stroke-width="1.51"/><path d="M-60,60L60,60L60,-60Z" fill="#ffea9c" stroke="#ffea9c" stroke-width="1.51"/><path d="M-60,-60L-60,60L60,-60Z" fill="#ffeea4" stroke="#ffeea4" stroke-width="1.51"/><path d="M-60,-60L60,-60L60,-180Z" fill="#fff0a9" stroke="#fff0a9" stroke-width="1.51"/><path d="M-60,-180L-60,-60L60,-180Z" fill="#fff4b0" stroke="#fff4b0" stroke-width="1.51"/><path d="M-180,1260L-60,1260L-60,1140Z" fill="#d68b69" stroke="#d68b69" stroke-width="1.51"/><path d="M-180,1140L-180,1260L-60,1140Z" fill="#dd8e6c" stroke="#dd8e6c" stroke-width="1.51"/><path d="M-180,1140L-60,1140L-60,1020Z" fill="#e99169" stroke="#e99169" stroke-width="1.51"/><path d="M-180,1020L-180,1140L-60,1020Z" fill="#ee946b" stroke="#ee946b" stroke-width="1.51"/><path d="M-180,1020L-60,1020L-60,900Z" fill="#f69767" stroke="#f69767" stroke-width="1.51"/><path d="M-180,900L-180,1020L-60,900Z" fill="#fb9a69" stroke="#fb9a69" stroke-width="1.51"/><path d="M-180,900L-60,900L-60,780Z" fill="#ff9f69" stroke="#ff9f69" stroke-width="1.51"/><path d="M-180,780L-180,900L-60,780Z" fill="#ffa36e" stroke="#ffa36e" stroke-width="1.51"/><path d="M-180,780L-60,780L-60,660Z" fill="#ffa96e" stroke="#ffa96e" stroke-width="1.51"/><path d="M-180,660L-180,780L-60,660Z" fill="#ffaf73" stroke="#ffaf73" stroke-width="1.51"/><path d="M-180,660L-60,660L-60,540Z" fill="#ffb875" stroke="#ffb875" stroke-width="1.51"/><path d="M-180,540L-180,660L-60,540Z" fill="#ffbf7a" stroke="#ffbf7a" stroke-width="1.51"/><path d="M-180,540L-60,540L-60,420Z" fill="#ffc67b" stroke="#ffc67b" stroke-width="1.51"/><path d="M-180,420L-180,540L-60,420Z" fill="#ffcb80" stroke="#ffcb80" stroke-width="1.51"/><path d="M-180,420L-60,420L-60,300Z" fill="#ffd180" stroke="#ffd180" stroke-width="1.51"/><path d="M-180,300L-180,420L-60,300Z" fill="#ffd685" stroke="#ffd685" stroke-width="1.51"/><path d="M-180,300L-60,300L-60,180Z" fill="#ffdd8b" stroke="#ffdd8b" stroke-width="1.51"/><path d="M-180,180L-180,300L-60,180Z" fill="#ffe292" stroke="#ffe292" stroke-width="1.51"/><path d="M-180,180L-60,180L-60,60Z" fill="#ffe898" stroke="#ffe898" stroke-width="1.51"/><path d="M-180,60L-180,180L-60,60Z" fill="#ffeb9f" stroke="#ffeb9f" stroke-width="1.51"/><path d="M-180,60L-60,60L-60,-60Z" fill="#ffeea5" stroke="#ffeea5" stroke-width="1.51"/><path d="M-180,-60L-180,60L-60,-60Z" fill="#fff1ac" stroke="#fff1ac" stroke-width="1.51"/><path d="M-180,-60L-60,-60L-60,-180Z" fill="#fff4b1" stroke="#fff4b1" stroke-width="1.51"/><path d="M-180,-180L-180,-60L-60,-180Z" fill="#fff7b9" stroke="#fff7b9" stroke-width="1.51"/></svg>