<svg xmlns="http://www.w3.org/2000/svg" width="1920" height="1080"><path d="M1230,1398L756,1412L1398,1432Z" fill="#9ca7c5" stroke="#9ca7c5" stroke-width="1.51"/><path d="M1922,904L1917,1010L2183,750Z" fill="#89b2d5" stroke="#89b2d5" stroke-width="1.51"/><path d="M1841,189L2184,432L2285,356Z" fill="#afa6a3" stroke="#afa6a3" stroke-width="1.51"/><path d="M2184,432L2183,750L2285,356Z" fill="#a8a7b3" stroke="#a8a7b3" stroke-width="1.51"/><path d="M1937,-208L1862,-79L2286,-162Z" fill="#b37079" stroke="#b37079" stroke-width="1.51"/><path d="M1841,189L2285,356L2286,-162Z" fill="#b18a8b" stroke="#b18a8b" stroke-width="1.51"/><path d="M1862,-79L1841,189L2286,-162Z" fill="#ba8485" stroke="#ba8485" stroke-width="1.51"/><path d="M1322,-424L1759,-353L2306,-267Z" fill="#b37479" stroke="#b37479" stroke-width="1.51"/><path d="M1759,-353L1937,-208L2306,-267Z" fill="#ad6471" stroke="#ad6471" stroke-width="1.51"/><path d="M2286,-162L2285,356L2306,-267Z" fill="#aa6077" stroke="#aa6077" stroke-width="1.51"/><path d="M2183,750L1917,1010L2314,1162Z" fill="#759dcb" stroke="#759dcb" stroke-width="1.51"/><path d="M2285,356L2183,750L2314,1162Z" fill="#909dcd" stroke="#909dcd" stroke-width="1.51"/><path d="M2306,-267L2285,356L2314,1162Z" fill="#a795a4" stroke="#a795a4" stroke-width="1.51"/><path d="M1816,1321L1398,1432L2315,1273Z" fill="#5b8dc1" stroke="#5b8dc1" stroke-width="1.51"/><path d="M2314,1162L1917,1010L2315,1273Z" fill="#5b86be" stroke="#5b86be" stroke-width="1.51"/><path d="M1917,1010L1816,1321L2315,1273Z" fill="#5d90c3" stroke="#5d90c3" stroke-width="1.51"/><path d="M1937,-208L2286,-162L2306,-267Z" fill="#a7576d" stroke="#a7576d" stroke-width="1.51"/><path d="M629,-438L829,-395L1322,-424Z" fill="#de916a" stroke="#de916a" stroke-width="1.51"/><path d="M1918,659L1922,904L2183,750Z" fill="#99b9d9" stroke="#99b9d9" stroke-width="1.51"/><path d="M1918,659L2183,750L2184,432Z" fill="#a5b5c6" stroke="#a5b5c6" stroke-width="1.51"/><path d="M1798,430L1918,659L2184,432Z" fill="#b5c3be" stroke="#b5c3be" stroke-width="1.51"/><path d="M1841,189L1798,430L2184,432Z" fill="#b9baad" stroke="#b9baad" stroke-width="1.51"/><path d="M1581,1195L1614,1259L1816,1321Z" fill="#75a7cf" stroke="#75a7cf" stroke-width="1.51"/><path d="M1581,1195L1816,1321L1917,1010Z" fill="#75abd1" stroke="#75abd1" stroke-width="1.51"/><path d="M1918,659L1636,710L1922,904Z" fill="#a8cde3" stroke="#a8cde3" stroke-width="1.51"/><path d="M1759,-353L1862,-79L1937,-208Z" fill="#bd7a7b" stroke="#bd7a7b" stroke-width="1.51"/><path d="M1636,710L1581,1195L1917,1010Z" fill="#96c7e0" stroke="#96c7e0" stroke-width="1.51"/><path d="M1798,430L1636,710L1918,659Z" fill="#bdd6d3" stroke="#bdd6d3" stroke-width="1.51"/><path d="M1636,710L1917,1010L1922,904Z" fill="#98c6df" stroke="#98c6df" stroke-width="1.51"/><path d="M1384,943L1581,1195L1636,710Z" fill="#a9d7e8" stroke="#a9d7e8" stroke-width="1.51"/><path d="M1614,1259L1398,1432L1816,1321Z" fill="#73a0cb" stroke="#73a0cb" stroke-width="1.51"/><path d="M1530,389L1798,430L1841,189Z" fill="#cacdb6" stroke="#cacdb6" stroke-width="1.51"/><path d="M1545,38L1841,189L1862,-79Z" fill="#cea596" stroke="#cea596" stroke-width="1.51"/><path d="M1759,-353L1545,38L1862,-79Z" fill="#cc8f87" stroke="#cc8f87" stroke-width="1.51"/><path d="M1545,38L1530,389L1841,189Z" fill="#d5c3a9" stroke="#d5c3a9" stroke-width="1.51"/><path d="M1412,-43L1545,38L1759,-353Z" fill="#d99b8d" stroke="#d99b8d" stroke-width="1.51"/><path d="M1530,389L1636,710L1798,430Z" fill="#cee0cc" stroke="#cee0cc" stroke-width="1.51"/><path d="M1322,-424L1412,-43L1759,-353Z" fill="#d68e84" stroke="#d68e84" stroke-width="1.51"/><path d="M161,1264L-331,1318L756,1412Z" fill="#b47e83" stroke="#b47e83" stroke-width="1.51"/><path d="M1333,117L1530,389L1545,38Z" fill="#e4ccab" stroke="#e4ccab" stroke-width="1.51"/><path d="M1530,389L1411,448L1636,710Z" fill="#d9ead2" stroke="#d9ead2" stroke-width="1.51"/><path d="M1411,448L1384,943L1636,710Z" fill="#cfe9ed" stroke="#cfe9ed" stroke-width="1.51"/><path d="M1384,943L1370,1208L1581,1195Z" fill="#9cc9e1" stroke="#9cc9e1" stroke-width="1.51"/><path d="M1581,1195L1370,1208L1614,1259Z" fill="#89b7d7" stroke="#89b7d7" stroke-width="1.51"/><path d="M1370,1208L1398,1432L1614,1259Z" fill="#86aed4" stroke="#86aed4" stroke-width="1.51"/><path d="M1136,823L1384,943L1411,448Z" fill="#daf0f7" stroke="#daf0f7" stroke-width="1.51"/><path d="M1322,-424L1167,-180L1412,-43Z" fill="#e99c8d" stroke="#e99c8d" stroke-width="1.51"/><path d="M1333,117L1411,448L1530,389Z" fill="#e4debe" stroke="#e4debe" stroke-width="1.51"/><path d="M1412,-43L1333,117L1545,38Z" fill="#e8b99f" stroke="#e8b99f" stroke-width="1.51"/><path d="M1212,1182L1370,1208L1384,943Z" fill="#a8cfe4" stroke="#a8cfe4" stroke-width="1.51"/><path d="M1370,1208L1230,1398L1398,1432Z" fill="#8eacd3" stroke="#8eacd3" stroke-width="1.51"/><path d="M1333,117L986,385L1411,448Z" fill="#f3e6c1" stroke="#f3e6c1" stroke-width="1.51"/><path d="M1055,613L1136,823L1411,448Z" fill="#edf7e4" stroke="#edf7e4" stroke-width="1.51"/><path d="M1092,-13L1333,117L1412,-43Z" fill="#f4bda1" stroke="#f4bda1" stroke-width="1.51"/><path d="M1167,-180L1092,-13L1412,-43Z" fill="#f6b097" stroke="#f6b097" stroke-width="1.51"/><path d="M986,385L1055,613L1411,448Z" fill="#f6f6cb" stroke="#f6f6cb" stroke-width="1.51"/><path d="M-76,1267L-331,1318L161,1264Z" fill="#b26c76" stroke="#b26c76" stroke-width="1.51"/><path d="M1212,1182L1230,1398L1370,1208Z" fill="#9cbcdb" stroke="#9cbcdb" stroke-width="1.51"/><path d="M1136,823L1212,1182L1384,943Z" fill="#c0e1ee" stroke="#c0e1ee" stroke-width="1.51"/><path d="M603,1340L161,1264L756,1412Z" fill="#b19a97" stroke="#b19a97" stroke-width="1.51"/><path d="M1092,-13L986,385L1333,117Z" fill="#fad5a4" stroke="#fad5a4" stroke-width="1.51"/><path d="M1136,823L959,993L1212,1182Z" fill="#c8e2df" stroke="#c8e2df" stroke-width="1.51"/><path d="M829,-395L1167,-180L1322,-424Z" fill="#e6977c" stroke="#e6977c" stroke-width="1.51"/><path d="M876,139L986,385L1092,-13Z" fill="#ffd996" stroke="#ffd996" stroke-width="1.51"/><path d="M1212,1182L756,1412L1230,1398Z" fill="#a5b6c6" stroke="#a5b6c6" stroke-width="1.51"/><path d="M959,993L756,1412L1212,1182Z" fill="#b9ccc7" stroke="#b9ccc7" stroke-width="1.51"/><path d="M1055,613L927,694L1136,823Z" fill="#eff8e0" stroke="#eff8e0" stroke-width="1.51"/><path d="M829,-395L1092,-13L1167,-180Z" fill="#f6a67a" stroke="#f6a67a" stroke-width="1.51"/><path d="M829,-395L709,-7L1092,-13Z" fill="#fbaa72" stroke="#fbaa72" stroke-width="1.51"/><path d="M927,694L959,993L1136,823Z" fill="#e3f1dd" stroke="#e3f1dd" stroke-width="1.51"/><path d="M709,-7L876,139L1092,-13Z" fill="#ffc481" stroke="#ffc481" stroke-width="1.51"/><path d="M596,1220L756,1412L959,993Z" fill="#bbc0b6" stroke="#bbc0b6" stroke-width="1.51"/><path d="M748,502L927,694L986,385Z" fill="#fffab7" stroke="#fffab7" stroke-width="1.51"/><path d="M986,385L927,694L1055,613Z" fill="#fcfec6" stroke="#fcfec6" stroke-width="1.51"/><path d="M927,694L480,849L959,993Z" fill="#e5e8ca" stroke="#e5e8ca" stroke-width="1.51"/><path d="M876,139L748,502L986,385Z" fill="#ffeaa0" stroke="#ffeaa0" stroke-width="1.51"/><path d="M583,-137L709,-7L829,-395Z" fill="#f69b61" stroke="#f69b61" stroke-width="1.51"/><path d="M480,849L596,1220L959,993Z" fill="#d1d3b9" stroke="#d1d3b9" stroke-width="1.51"/><path d="M-113,-356L375,-318L629,-438Z" fill="#dc623e" stroke="#dc623e" stroke-width="1.51"/><path d="M550,445L748,502L876,139Z" fill="#ffe496" stroke="#ffe496" stroke-width="1.51"/><path d="M748,502L480,849L927,694Z" fill="#f6edc0" stroke="#f6edc0" stroke-width="1.51"/><path d="M629,-438L583,-137L829,-395Z" fill="#e88c59" stroke="#e88c59" stroke-width="1.51"/><path d="M709,-7L550,445L876,139Z" fill="#ffd081" stroke="#ffd081" stroke-width="1.51"/><path d="M596,1220L603,1340L756,1412Z" fill="#b0a8a4" stroke="#b0a8a4" stroke-width="1.51"/><path d="M417,382L550,445L709,-7Z" fill="#ffce7e" stroke="#ffce7e" stroke-width="1.51"/><path d="M550,445L480,849L748,502Z" fill="#fde6a9" stroke="#fde6a9" stroke-width="1.51"/><path d="M480,849L362,1136L596,1220Z" fill="#cebda6" stroke="#cebda6" stroke-width="1.51"/><path d="M583,-137L373,-127L709,-7Z" fill="#fa9a5c" stroke="#fa9a5c" stroke-width="1.51"/><path d="M373,-127L417,382L709,-7Z" fill="#fdaf65" stroke="#fdaf65" stroke-width="1.51"/><path d="M205,769L480,849L550,445Z" fill="#f9d4a7" stroke="#f9d4a7" stroke-width="1.51"/><path d="M375,-318L583,-137L629,-438Z" fill="#e9804d" stroke="#e9804d" stroke-width="1.51"/><path d="M417,382L151,614L550,445Z" fill="#ffd088" stroke="#ffd088" stroke-width="1.51"/><path d="M151,614L205,769L550,445Z" fill="#fecb94" stroke="#fecb94" stroke-width="1.51"/><path d="M375,-318L373,-127L583,-137Z" fill="#f2834c" stroke="#f2834c" stroke-width="1.51"/><path d="M596,1220L362,1136L603,1340Z" fill="#bcab9f" stroke="#bcab9f" stroke-width="1.51"/><path d="M362,1136L161,1264L603,1340Z" fill="#bc9c93" stroke="#bc9c93" stroke-width="1.51"/><path d="M373,-127L145,338L417,382Z" fill="#fdad63" stroke="#fdad63" stroke-width="1.51"/><path d="M-9,115L145,338L373,-127Z" fill="#fa9153" stroke="#fa9153" stroke-width="1.51"/><path d="M205,769L362,1136L480,849Z" fill="#e2c1a4" stroke="#e2c1a4" stroke-width="1.51"/><path d="M145,338L151,614L417,382Z" fill="#ffbf7c" stroke="#ffbf7c" stroke-width="1.51"/><path d="M205,769L161,1264L362,1136Z" fill="#d2a896" stroke="#d2a896" stroke-width="1.51"/><path d="M-113,-356L-116,-22L373,-127Z" fill="#e95838" stroke="#e95838" stroke-width="1.51"/><path d="M-113,-356L373,-127L375,-318Z" fill="#e75f3a" stroke="#e75f3a" stroke-width="1.51"/><path d="M-116,-22L-9,115L373,-127Z" fill="#f57345" stroke="#f57345" stroke-width="1.51"/><path d="M-134,1084L161,1264L205,769Z" fill="#d3998d" stroke="#d3998d" stroke-width="1.51"/><path d="M145,338L-72,622L151,614Z" fill="#ffb57b" stroke="#ffb57b" stroke-width="1.51"/><path d="M-134,1084L-76,1267L161,1264Z" fill="#bc7d7f" stroke="#bc7d7f" stroke-width="1.51"/><path d="M151,614L-65,770L205,769Z" fill="#f7b297" stroke="#f7b297" stroke-width="1.51"/><path d="M-65,770L-134,1084L205,769Z" fill="#e4a191" stroke="#e4a191" stroke-width="1.51"/><path d="M-72,622L-65,770L151,614Z" fill="#f6ac8b" stroke="#f6ac8b" stroke-width="1.51"/><path d="M-367,473L-72,622L-9,115Z" fill="#f39862" stroke="#f39862" stroke-width="1.51"/><path d="M-9,115L-72,622L145,338Z" fill="#f9a366" stroke="#f9a366" stroke-width="1.51"/><path d="M-244,-291L-283,-110L-116,-22Z" fill="#dd432f" stroke="#dd432f" stroke-width="1.51"/><path d="M-244,-291L-116,-22L-113,-356Z" fill="#db3a2a" stroke="#db3a2a" stroke-width="1.51"/><path d="M-116,-22L-386,224L-9,115Z" fill="#ec7040" stroke="#ec7040" stroke-width="1.51"/><path d="M-386,224L-367,473L-9,115Z" fill="#e98351" stroke="#e98351" stroke-width="1.51"/><path d="M-134,1084L-280,1211L-76,1267Z" fill="#b97378" stroke="#b97378" stroke-width="1.51"/><path d="M-409,955L-134,1084L-65,770Z" fill="#d48d84" stroke="#d48d84" stroke-width="1.51"/><path d="M-72,622L-367,473L-65,770Z" fill="#f19e7b" stroke="#f19e7b" stroke-width="1.51"/><path d="M-367,473L-409,955L-65,770Z" fill="#e29488" stroke="#e29488" stroke-width="1.51"/><path d="M-280,1211L-331,1318L-76,1267Z" fill="#ab6471" stroke="#ab6471" stroke-width="1.51"/><path d="M-283,-110L-386,224L-116,-22Z" fill="#e15e3b" stroke="#e15e3b" stroke-width="1.51"/><path d="M-409,955L-280,1211L-134,1084Z" fill="#bc7a7c" stroke="#bc7a7c" stroke-width="1.51"/><path d="M-386,224L-283,-110L-244,-291Z" fill="#db4a35" stroke="#db4a35" stroke-width="1.51"/><path d="M-409,955L-331,1318L-280,1211Z" fill="#ad6d77" stroke="#ad6d77" stroke-width="1.51"/><path d="M-386,224L-409,955L-367,473Z" fill="#e1946f" stroke="#e1946f" stroke-width="1.51"/></svg>