<svg xmlns="http://www.w3.org/2000/svg" width="1920" height="1080"><path d="M1230,1398L756,1412L1398,1432Z" fill="#88bd71" stroke="#88bd71" stroke-width="1.51"/><path d="M1922,904L1917,1010L2183,750Z" fill="#7bc164" stroke="#7bc164" stroke-width="1.51"/><path d="M1841,189L2184,432L2285,356Z" fill="#9cbb6b" stroke="#9cbb6b" stroke-width="1.51"/><path d="M2184,432L2183,750L2285,356Z" fill="#93bf7d" stroke="#93bf7d" stroke-width="1.51"/><path d="M1937,-208L1862,-79L2286,-162Z" fill="#a48544" stroke="#a48544" stroke-width="1.51"/><path d="M1841,189L2285,356L2286,-162Z" fill="#9fa256" stroke="#9fa256" stroke-width="1.51"/><path d="M1862,-79L1841,189L2286,-162Z" fill="#ab974f" stroke="#ab974f" stroke-width="1.51"/><path d="M1322,-424L1759,-353L2306,-267Z" fill="#a87f43" stroke="#a87f43" stroke-width="1.51"/><path d="M1759,-353L1937,-208L2306,-267Z" fill="#9f7a3d" stroke="#9f7a3d" stroke-width="1.51"/><path d="M2286,-162L2285,356L2306,-267Z" fill="#977f43" stroke="#977f43" stroke-width="1.51"/><path d="M2183,750L1917,1010L2314,1162Z" fill="#63b25b" stroke="#63b25b" stroke-width="1.51"/><path d="M2285,356L2183,750L2314,1162Z" fill="#7cb464" stroke="#7cb464" stroke-width="1.51"/><path d="M2306,-267L2285,356L2314,1162Z" fill="#91b16c" stroke="#91b16c" stroke-width="1.51"/><path d="M1816,1321L1398,1432L2315,1273Z" fill="#42a858" stroke="#42a858" stroke-width="1.51"/><path d="M2314,1162L1917,1010L2315,1273Z" fill="#41a255" stroke="#41a255" stroke-width="1.51"/><path d="M1917,1010L1816,1321L2315,1273Z" fill="#45aa59" stroke="#45aa59" stroke-width="1.51"/><path d="M1937,-208L2286,-162L2306,-267Z" fill="#96743a" stroke="#96743a" stroke-width="1.51"/><path d="M629,-438L829,-395L1322,-424Z" fill="#de916a" stroke="#de916a" stroke-width="1.51"/><path d="M1918,659L1922,904L2183,750Z" fill="#8bc86d" stroke="#8bc86d" stroke-width="1.51"/><path d="M1918,659L2183,750L2184,432Z" fill="#92c97d" stroke="#92c97d" stroke-width="1.51"/><path d="M1798,430L1918,659L2184,432Z" fill="#a6d286" stroke="#a6d286" stroke-width="1.51"/><path d="M1841,189L1798,430L2184,432Z" fill="#abc974" stroke="#abc974" stroke-width="1.51"/><path d="M1581,1195L1614,1259L1816,1321Z" fill="#66b95f" stroke="#66b95f" stroke-width="1.51"/><path d="M1581,1195L1816,1321L1917,1010Z" fill="#66bb61" stroke="#66bb61" stroke-width="1.51"/><path d="M1918,659L1636,710L1922,904Z" fill="#9ed575" stroke="#9ed575" stroke-width="1.51"/><path d="M1759,-353L1862,-79L1937,-208Z" fill="#b08945" stroke="#b08945" stroke-width="1.51"/><path d="M1636,710L1581,1195L1917,1010Z" fill="#8dce68" stroke="#8dce68" stroke-width="1.51"/><path d="M1798,430L1636,710L1918,659Z" fill="#b3dd89" stroke="#b3dd89" stroke-width="1.51"/><path d="M1636,710L1917,1010L1922,904Z" fill="#8fce6b" stroke="#8fce6b" stroke-width="1.51"/><path d="M1384,943L1581,1195L1636,710Z" fill="#a4d86a" stroke="#a4d86a" stroke-width="1.51"/><path d="M1614,1259L1398,1432L1816,1321Z" fill="#61b45c" stroke="#61b45c" stroke-width="1.51"/><path d="M1530,389L1798,430L1841,189Z" fill="#c0d477" stroke="#c0d477" stroke-width="1.51"/><path d="M1545,38L1841,189L1862,-79Z" fill="#c2ae5c" stroke="#c2ae5c" stroke-width="1.51"/><path d="M1759,-353L1545,38L1862,-79Z" fill="#c0984d" stroke="#c0984d" stroke-width="1.51"/><path d="M1545,38L1530,389L1841,189Z" fill="#cbc86a" stroke="#cbc86a" stroke-width="1.51"/><path d="M1412,-43L1545,38L1759,-353Z" fill="#cfa050" stroke="#cfa050" stroke-width="1.51"/><path d="M1530,389L1636,710L1798,430Z" fill="#c6e48f" stroke="#c6e48f" stroke-width="1.51"/><path d="M1322,-424L1412,-43L1759,-353Z" fill="#cc9148" stroke="#cc9148" stroke-width="1.51"/><path d="M161,1264L-331,1318L756,1412Z" fill="#a3954e" stroke="#a3954e" stroke-width="1.51"/><path d="M1333,117L1530,389L1545,38Z" fill="#dbcc6d" stroke="#dbcc6d" stroke-width="1.51"/><path d="M1530,389L1411,448L1636,710Z" fill="#d3ea92" stroke="#d3ea92" stroke-width="1.51"/><path d="M1411,448L1384,943L1636,710Z" fill="#c9e882" stroke="#c9e882" stroke-width="1.51"/><path d="M1384,943L1370,1208L1581,1195Z" fill="#93d06c" stroke="#93d06c" stroke-width="1.51"/><path d="M1581,1195L1370,1208L1614,1259Z" fill="#7dc463" stroke="#7dc463" stroke-width="1.51"/><path d="M1370,1208L1398,1432L1614,1259Z" fill="#77be63" stroke="#77be63" stroke-width="1.51"/><path d="M1136,823L1384,943L1411,448Z" fill="#d3ed87" stroke="#d3ed87" stroke-width="1.51"/><path d="M1322,-424L1167,-180L1412,-43Z" fill="#e09d57" stroke="#e09d57" stroke-width="1.51"/><path d="M1333,117L1411,448L1530,389Z" fill="#ddde7e" stroke="#ddde7e" stroke-width="1.51"/><path d="M1412,-43L1333,117L1545,38Z" fill="#deba63" stroke="#deba63" stroke-width="1.51"/><path d="M1212,1182L1370,1208L1384,943Z" fill="#9fd573" stroke="#9fd573" stroke-width="1.51"/><path d="M1370,1208L1230,1398L1398,1432Z" fill="#7dbf67" stroke="#7dbf67" stroke-width="1.51"/><path d="M1333,117L986,385L1411,448Z" fill="#ece588" stroke="#ece588" stroke-width="1.51"/><path d="M1055,613L1136,823L1411,448Z" fill="#e7f59e" stroke="#e7f59e" stroke-width="1.51"/><path d="M1092,-13L1333,117L1412,-43Z" fill="#ebbc6a" stroke="#ebbc6a" stroke-width="1.51"/><path d="M1167,-180L1092,-13L1412,-43Z" fill="#eeb066" stroke="#eeb066" stroke-width="1.51"/><path d="M986,385L1055,613L1411,448Z" fill="#f3f5a6" stroke="#f3f5a6" stroke-width="1.51"/><path d="M-76,1267L-331,1318L161,1264Z" fill="#a28141" stroke="#a28141" stroke-width="1.51"/><path d="M1212,1182L1230,1398L1370,1208Z" fill="#8eca6f" stroke="#8eca6f" stroke-width="1.51"/><path d="M1136,823L1212,1182L1384,943Z" fill="#b9e179" stroke="#b9e179" stroke-width="1.51"/><path d="M603,1340L161,1264L756,1412Z" fill="#9fb060" stroke="#9fb060" stroke-width="1.51"/><path d="M1092,-13L986,385L1333,117Z" fill="#f5d582" stroke="#f5d582" stroke-width="1.51"/><path d="M1136,823L959,993L1212,1182Z" fill="#c0e486" stroke="#c0e486" stroke-width="1.51"/><path d="M829,-395L1167,-180L1322,-424Z" fill="#e19762" stroke="#e19762" stroke-width="1.51"/><path d="M876,139L986,385L1092,-13Z" fill="#ffda91" stroke="#ffda91" stroke-width="1.51"/><path d="M1212,1182L756,1412L1230,1398Z" fill="#93c97d" stroke="#93c97d" stroke-width="1.51"/><path d="M959,993L756,1412L1212,1182Z" fill="#acd88b" stroke="#acd88b" stroke-width="1.51"/><path d="M1055,613L927,694L1136,823Z" fill="#eaf6a2" stroke="#eaf6a2" stroke-width="1.51"/><path d="M829,-395L1092,-13L1167,-180Z" fill="#f4a66d" stroke="#f4a66d" stroke-width="1.51"/><path d="M829,-395L709,-7L1092,-13Z" fill="#fbaa71" stroke="#fbaa71" stroke-width="1.51"/><path d="M927,694L959,993L1136,823Z" fill="#ddf099" stroke="#ddf099" stroke-width="1.51"/><path d="M709,-7L876,139L1092,-13Z" fill="#ffc481" stroke="#ffc481" stroke-width="1.51"/><path d="M596,1220L756,1412L959,993Z" fill="#adce7b" stroke="#adce7b" stroke-width="1.51"/><path d="M748,502L927,694L986,385Z" fill="#fffab7" stroke="#fffab7" stroke-width="1.51"/><path d="M986,385L927,694L1055,613Z" fill="#fbfdba" stroke="#fbfdba" stroke-width="1.51"/><path d="M927,694L480,849L959,993Z" fill="#dfe88d" stroke="#dfe88d" stroke-width="1.51"/><path d="M876,139L748,502L986,385Z" fill="#ffea9d" stroke="#ffea9d" stroke-width="1.51"/><path d="M583,-137L709,-7L829,-395Z" fill="#f59c5f" stroke="#f59c5f" stroke-width="1.51"/><path d="M480,849L596,1220L959,993Z" fill="#c8d879" stroke="#c8d879" stroke-width="1.51"/><path d="M-113,-356L375,-318L629,-438Z" fill="#dc623e" stroke="#dc623e" stroke-width="1.51"/><path d="M550,445L748,502L876,139Z" fill="#ffe492" stroke="#ffe492" stroke-width="1.51"/><path d="M748,502L480,849L927,694Z" fill="#f1ed96" stroke="#f1ed96" stroke-width="1.51"/><path d="M629,-438L583,-137L829,-395Z" fill="#e78c56" stroke="#e78c56" stroke-width="1.51"/><path d="M709,-7L550,445L876,139Z" fill="#ffd07f" stroke="#ffd07f" stroke-width="1.51"/><path d="M596,1220L603,1340L756,1412Z" fill="#9ebd6b" stroke="#9ebd6b" stroke-width="1.51"/><path d="M417,382L550,445L709,-7Z" fill="#fece7b" stroke="#fece7b" stroke-width="1.51"/><path d="M550,445L480,849L748,502Z" fill="#fae697" stroke="#fae697" stroke-width="1.51"/><path d="M480,849L362,1136L596,1220Z" fill="#c3c46a" stroke="#c3c46a" stroke-width="1.51"/><path d="M583,-137L373,-127L709,-7Z" fill="#f99a5b" stroke="#f99a5b" stroke-width="1.51"/><path d="M373,-127L417,382L709,-7Z" fill="#fdaf64" stroke="#fdaf64" stroke-width="1.51"/><path d="M205,769L480,849L550,445Z" fill="#f3d37e" stroke="#f3d37e" stroke-width="1.51"/><path d="M375,-318L583,-137L629,-438Z" fill="#e9804c" stroke="#e9804c" stroke-width="1.51"/><path d="M417,382L151,614L550,445Z" fill="#ffd087" stroke="#ffd087" stroke-width="1.51"/><path d="M151,614L205,769L550,445Z" fill="#facb81" stroke="#facb81" stroke-width="1.51"/><path d="M375,-318L373,-127L583,-137Z" fill="#f2834b" stroke="#f2834b" stroke-width="1.51"/><path d="M596,1220L362,1136L603,1340Z" fill="#adbb67" stroke="#adbb67" stroke-width="1.51"/><path d="M362,1136L161,1264L603,1340Z" fill="#adad5c" stroke="#adad5c" stroke-width="1.51"/><path d="M373,-127L145,338L417,382Z" fill="#fdad62" stroke="#fdad62" stroke-width="1.51"/><path d="M-9,115L145,338L373,-127Z" fill="#fa9153" stroke="#fa9153" stroke-width="1.51"/><path d="M205,769L362,1136L480,849Z" fill="#d8c265" stroke="#d8c265" stroke-width="1.51"/><path d="M145,338L151,614L417,382Z" fill="#ffbf7b" stroke="#ffbf7b" stroke-width="1.51"/><path d="M205,769L161,1264L362,1136Z" fill="#c6b05b" stroke="#c6b05b" stroke-width="1.51"/><path d="M-113,-356L-116,-22L373,-127Z" fill="#e95838" stroke="#e95838" stroke-width="1.51"/><path d="M-113,-356L373,-127L375,-318Z" fill="#e75f3a" stroke="#e75f3a" stroke-width="1.51"/><path d="M-116,-22L-9,115L373,-127Z" fill="#f57345" stroke="#f57345" stroke-width="1.51"/><path d="M-134,1084L161,1264L205,769Z" fill="#c7a052" stroke="#c7a052" stroke-width="1.51"/><path d="M145,338L-72,622L151,614Z" fill="#ffb57b" stroke="#ffb57b" stroke-width="1.51"/><path d="M-134,1084L-76,1267L161,1264Z" fill="#af8d49" stroke="#af8d49" stroke-width="1.51"/><path d="M151,614L-65,770L205,769Z" fill="#efb268" stroke="#efb268" stroke-width="1.51"/><path d="M-65,770L-134,1084L205,769Z" fill="#daa355" stroke="#daa355" stroke-width="1.51"/><path d="M-72,622L-65,770L151,614Z" fill="#f0ac69" stroke="#f0ac69" stroke-width="1.51"/><path d="M-367,473L-72,622L-9,115Z" fill="#f39860" stroke="#f39860" stroke-width="1.51"/><path d="M-9,115L-72,622L145,338Z" fill="#f9a364" stroke="#f9a364" stroke-width="1.51"/><path d="M-244,-291L-283,-110L-116,-22Z" fill="#dd432f" stroke="#dd432f" stroke-width="1.51"/><path d="M-244,-291L-116,-22L-113,-356Z" fill="#db3a2a" stroke="#db3a2a" stroke-width="1.51"/><path d="M-116,-22L-386,224L-9,115Z" fill="#ec7040" stroke="#ec7040" stroke-width="1.51"/><path d="M-386,224L-367,473L-9,115Z" fill="#e8834f" stroke="#e8834f" stroke-width="1.51"/><path d="M-134,1084L-280,1211L-76,1267Z" fill="#ac8342" stroke="#ac8342" stroke-width="1.51"/><path d="M-409,955L-134,1084L-65,770Z" fill="#c99046" stroke="#c99046" stroke-width="1.51"/><path d="M-72,622L-367,473L-65,770Z" fill="#ed9e65" stroke="#ed9e65" stroke-width="1.51"/><path d="M-367,473L-409,955L-65,770Z" fill="#d99557" stroke="#d99557" stroke-width="1.51"/><path d="M-280,1211L-331,1318L-76,1267Z" fill="#9d783d" stroke="#9d783d" stroke-width="1.51"/><path d="M-283,-110L-386,224L-116,-22Z" fill="#e15e3b" stroke="#e15e3b" stroke-width="1.51"/><path d="M-409,955L-280,1211L-134,1084Z" fill="#b08444" stroke="#b08444" stroke-width="1.51"/><path d="M-386,224L-283,-110L-244,-291Z" fill="#db4a35" stroke="#db4a35" stroke-width="1.51"/><path d="M-409,955L-331,1318L-280,1211Z" fill="#a17b42" stroke="#a17b42" stroke-width="1.51"/><path d="M-386,224L-409,955L-367,473Z" fill="#e0946c" stroke="#e0946c" stroke-width="1.51"/></svg>