<svg xmlns="http://www.w3.org/2000/svg" width="1920" height="1080"><path d="M1980,1260L2100,1260L2100,1140Z" fill="#144c87" stroke="#144c87" stroke-width="1.51"/><path d="M1980,1140L1980,1260L2100,1140Z" fill="#1a5798" stroke="#1a5798" stroke-width="1.51"/><path d="M1980,1140L2100,1140L2100,1020Z" fill="#225e9a" stroke="#225e9a" stroke-width="1.51"/><path d="M1980,1020L1980,1140L2100,1020Z" fill="#2969a3" stroke="#2969a3" stroke-width="1.51"/><path d="M1980,1020L2100,1020L2100,900Z" fill="#3670a3" stroke="#3670a3" stroke-width="1.51"/><path d="M1980,900L1980,1020L2100,900Z" fill="#447aad" stroke="#447aad" stroke-width="1.51"/><path d="M1980,900L2100,900L2100,780Z" fill="#5681ad" stroke="#5681ad" stroke-width="1.51"/><path d="M1980,780L1980,900L2100,780Z" fill="#628bb6" stroke="#628bb6" stroke-width="1.51"/><path d="M1980,780L2100,780L2100,660Z" fill="#708db4" stroke="#708db4" stroke-width="1.51"/><path d="M1980,660L1980,780L2100,660Z" fill="#7b96bd" stroke="#7b96bd" stroke-width="1.51"/><path d="M1980,660L2100,660L2100,540Z" fill="#8395b8" stroke="#8395b8" stroke-width="1.51"/><path d="M1980,540L1980,660L2100,540Z" fill="#8b9cc0" stroke="#8b9cc0" stroke-width="1.51"/><path d="M1980,540L2100,540L2100,420Z" fill="#8e96b4" stroke="#8e96b4" stroke-width="1.51"/><path d="M1980,420L1980,540L2100,420Z" fill="#9498b5" stroke="#9498b5" stroke-width="1.51"/><path d="M1980,420L2100,420L2100,300Z" fill="#938ca3" stroke="#938ca3" stroke-width="1.51"/><path d="M1980,300L1980,420L2100,300Z" fill="#988aa1" stroke="#988aa1" stroke-width="1.51"/><path d="M1980,300L2100,300L2100,180Z" fill="#947889" stroke="#947889" stroke-width="1.51"/><path d="M1980,180L1980,300L2100,180Z" fill="#987788" stroke="#987788" stroke-width="1.51"/><path d="M1980,180L2100,180L2100,60Z" fill="#8f6274" stroke="#8f6274" stroke-width="1.51"/><path d="M1980,60L1980,180L2100,60Z" fill="#905e73" stroke="#905e73" stroke-width="1.51"/><path d="M1980,60L2100,60L2100,-60Z" fill="#864b61" stroke="#864b61" stroke-width="1.51"/><path d="M1980,-60L1980,60L2100,-60Z" fill="#864962" stroke="#864962" stroke-width="1.51"/><path d="M1980,-60L2100,-60L2100,-180Z" fill="#783854" stroke="#783854" stroke-width="1.51"/><path d="M1980,-180L1980,-60L2100,-180Z" fill="#723a58" stroke="#723a58" stroke-width="1.51"/><path d="M1860,1260L1980,1260L1980,1140Z" fill="#1b599a" stroke="#1b599a" stroke-width="1.51"/><path d="M1860,1140L1860,1260L1980,1140Z" fill="#2265a9" stroke="#2265a9" stroke-width="1.51"/><path d="M1860,1140L1980,1140L1980,1020Z" fill="#296cad" stroke="#296cad" stroke-width="1.51"/><path d="M1860,1020L1860,1140L1980,1020Z" fill="#3077b5" stroke="#3077b5" stroke-width="1.51"/><path d="M1860,1020L1980,1020L1980,900Z" fill="#3d7eb6" stroke="#3d7eb6" stroke-width="1.51"/><path d="M1860,900L1860,1020L1980,900Z" fill="#4b88bf" stroke="#4b88bf" stroke-width="1.51"/><path d="M1860,900L1980,900L1980,780Z" fill="#5e90c1" stroke="#5e90c1" stroke-width="1.51"/><path d="M1860,780L1860,900L1980,780Z" fill="#6a99c8" stroke="#6a99c8" stroke-width="1.51"/><path d="M1860,780L1980,780L1980,660Z" fill="#799cc8" stroke="#799cc8" stroke-width="1.51"/><path d="M1860,660L1860,780L1980,660Z" fill="#84a5cf" stroke="#84a5cf" stroke-width="1.51"/><path d="M1860,660L1980,660L1980,540Z" fill="#8da4cc" stroke="#8da4cc" stroke-width="1.51"/><path d="M1860,540L1860,660L1980,540Z" fill="#94abd2" stroke="#94abd2" stroke-width="1.51"/><path d="M1860,540L1980,540L1980,420Z" fill="#99a5c8" stroke="#99a5c8" stroke-width="1.51"/><path d="M1860,420L1860,540L1980,420Z" fill="#9ea7c7" stroke="#9ea7c7" stroke-width="1.51"/><path d="M1860,420L1980,420L1980,300Z" fill="#9e9bb6" stroke="#9e9bb6" stroke-width="1.51"/><path d="M1860,300L1860,420L1980,300Z" fill="#a299b2" stroke="#a299b2" stroke-width="1.51"/><path d="M1860,300L1980,300L1980,180Z" fill="#a0879c" stroke="#a0879c" stroke-width="1.51"/><path d="M1860,180L1860,300L1980,180Z" fill="#a38598" stroke="#a38598" stroke-width="1.51"/><path d="M1860,180L1980,180L1980,60Z" fill="#9b7086" stroke="#9b7086" stroke-width="1.51"/><path d="M1860,60L1860,180L1980,60Z" fill="#9c6d83" stroke="#9c6d83" stroke-width="1.51"/><path d="M1860,60L1980,60L1980,-60Z" fill="#925973" stroke="#925973" stroke-width="1.51"/><path d="M1860,-60L1860,60L1980,-60Z" fill="#925772" stroke="#925772" stroke-width="1.51"/><path d="M1860,-60L1980,-60L1980,-180Z" fill="#854666" stroke="#854666" stroke-width="1.51"/><path d="M1860,-180L1860,-60L1980,-180Z" fill="#7e4768" stroke="#7e4768" stroke-width="1.51"/><path d="M1740,1260L1860,1260L1860,1140Z" fill="#2565a3" stroke="#2565a3" stroke-width="1.51"/><path d="M1740,1140L1740,1260L1860,1140Z" fill="#2c70ae" stroke="#2c70ae" stroke-width="1.51"/><path d="M1740,1140L1860,1140L1860,1020Z" fill="#3178b5" stroke="#3178b5" stroke-width="1.51"/><path d="M1740,1020L1740,1140L1860,1020Z" fill="#3882ba" stroke="#3882ba" stroke-width="1.51"/><path d="M1740,1020L1860,1020L1860,900Z" fill="#448abf" stroke="#448abf" stroke-width="1.51"/><path d="M1740,900L1740,1020L1860,900Z" fill="#5294c4" stroke="#5294c4" stroke-width="1.51"/><path d="M1740,900L1860,900L1860,780Z" fill="#649cca" stroke="#649cca" stroke-width="1.51"/><path d="M1740,780L1740,900L1860,780Z" fill="#70a5ce" stroke="#70a5ce" stroke-width="1.51"/><path d="M1740,780L1860,780L1860,660Z" fill="#80a8d1" stroke="#80a8d1" stroke-width="1.51"/><path d="M1740,660L1740,780L1860,660Z" fill="#8ab0d5" stroke="#8ab0d5" stroke-width="1.51"/><path d="M1740,660L1860,660L1860,540Z" fill="#94b1d5" stroke="#94b1d5" stroke-width="1.51"/><path d="M1740,540L1740,660L1860,540Z" fill="#9ab7d7" stroke="#9ab7d7" stroke-width="1.51"/><path d="M1740,540L1860,540L1860,420Z" fill="#a0b2d1" stroke="#a0b2d1" stroke-width="1.51"/><path d="M1740,420L1740,540L1860,420Z" fill="#a4b3cc" stroke="#a4b3cc" stroke-width="1.51"/><path d="M1740,420L1860,420L1860,300Z" fill="#a5a7bf" stroke="#a5a7bf" stroke-width="1.51"/><path d="M1740,300L1740,420L1860,300Z" fill="#a9a5b7" stroke="#a9a5b7" stroke-width="1.51"/><path d="M1740,300L1860,300L1860,180Z" fill="#a793a4" stroke="#a793a4" stroke-width="1.51"/><path d="M1740,180L1740,300L1860,180Z" fill="#a9919d" stroke="#a9919d" stroke-width="1.51"/><path d="M1740,180L1860,180L1860,60Z" fill="#a37c8e" stroke="#a37c8e" stroke-width="1.51"/><path d="M1740,60L1740,180L1860,60Z" fill="#a37988" stroke="#a37988" stroke-width="1.51"/><path d="M1740,60L1860,60L1860,-60Z" fill="#9a667b" stroke="#9a667b" stroke-width="1.51"/><path d="M1740,-60L1740,60L1860,-60Z" fill="#996377" stroke="#996377" stroke-width="1.51"/><path d="M1740,-60L1860,-60L1860,-180Z" fill="#8d536d" stroke="#8d536d" stroke-width="1.51"/><path d="M1740,-180L1740,-60L1860,-180Z" fill="#85536c" stroke="#85536c" stroke-width="1.51"/><path d="M1620,1260L1740,1260L1740,1140Z" fill="#2e70a8" stroke="#2e70a8" stroke-width="1.51"/><path d="M1620,1140L1620,1260L1740,1140Z" fill="#377bb4" stroke="#377bb4" stroke-width="1.51"/><path d="M1620,1140L1740,1140L1740,1020Z" fill="#3983bb" stroke="#3983bb" stroke-width="1.51"/><path d="M1620,1020L1620,1140L1740,1020Z" fill="#428dc0" stroke="#428dc0" stroke-width="1.51"/><path d="M1620,1020L1740,1020L1740,900Z" fill="#4b95c5" stroke="#4b95c5" stroke-width="1.51"/><path d="M1620,900L1620,1020L1740,900Z" fill="#5b9fca" stroke="#5b9fca" stroke-width="1.51"/><path d="M1620,900L1740,900L1740,780Z" fill="#6ba8cf" stroke="#6ba8cf" stroke-width="1.51"/><path d="M1620,780L1620,900L1740,780Z" fill="#78b1d4" stroke="#78b1d4" stroke-width="1.51"/><path d="M1620,780L1740,780L1740,660Z" fill="#86b5d6" stroke="#86b5d6" stroke-width="1.51"/><path d="M1620,660L1620,780L1740,660Z" fill="#92bddb" stroke="#92bddb" stroke-width="1.51"/><path d="M1620,660L1740,660L1740,540Z" fill="#9abdda" stroke="#9abdda" stroke-width="1.51"/><path d="M1620,540L1620,660L1740,540Z" fill="#a2c3dd" stroke="#a2c3dd" stroke-width="1.51"/><path d="M1620,540L1740,540L1740,420Z" fill="#a6bed6" stroke="#a6bed6" stroke-width="1.51"/><path d="M1620,420L1620,540L1740,420Z" fill="#acbfd2" stroke="#acbfd2" stroke-width="1.51"/><path d="M1620,420L1740,420L1740,300Z" fill="#acb4c4" stroke="#acb4c4" stroke-width="1.51"/><path d="M1620,300L1620,420L1740,300Z" fill="#b1b1bd" stroke="#b1b1bd" stroke-width="1.51"/><path d="M1620,300L1740,300L1740,180Z" fill="#aea0a9" stroke="#aea0a9" stroke-width="1.51"/><path d="M1620,180L1620,300L1740,180Z" fill="#b19da3" stroke="#b19da3" stroke-width="1.51"/><path d="M1620,180L1740,180L1740,60Z" fill="#aa8993" stroke="#aa8993" stroke-width="1.51"/><path d="M1620,60L1620,180L1740,60Z" fill="#ab858d" stroke="#ab858d" stroke-width="1.51"/><path d="M1620,60L1740,60L1740,-60Z" fill="#a17280" stroke="#a17280" stroke-width="1.51"/><path d="M1620,-60L1620,60L1740,-60Z" fill="#a16f7c" stroke="#a16f7c" stroke-width="1.51"/><path d="M1620,-60L1740,-60L1740,-180Z" fill="#945f72" stroke="#945f72" stroke-width="1.51"/><path d="M1620,-180L1620,-60L1740,-180Z" fill="#8d5f72" stroke="#8d5f72" stroke-width="1.51"/><path d="M1500,1260L1620,1260L1620,1140Z" fill="#447baf" stroke="#447baf" stroke-width="1.51"/><path d="M1500,1140L1500,1260L1620,1140Z" fill="#4f87bb" stroke="#4f87bb" stroke-width="1.51"/><path d="M1500,1140L1620,1140L1620,1020Z" fill="#4e8fc2" stroke="#4e8fc2" stroke-width="1.51"/><path d="M1500,1020L1500,1140L1620,1020Z" fill="#599ac7" stroke="#599ac7" stroke-width="1.51"/><path d="M1500,1020L1620,1020L1620,900Z" fill="#5ea1cb" stroke="#5ea1cb" stroke-width="1.51"/><path d="M1500,900L1500,1020L1620,900Z" fill="#6facd1" stroke="#6facd1" stroke-width="1.51"/><path d="M1500,900L1620,900L1620,780Z" fill="#7bb4d6" stroke="#7bb4d6" stroke-width="1.51"/><path d="M1500,780L1500,900L1620,780Z" fill="#8abedb" stroke="#8abedb" stroke-width="1.51"/><path d="M1500,780L1620,780L1620,660Z" fill="#95c1dd" stroke="#95c1dd" stroke-width="1.51"/><path d="M1500,660L1500,780L1620,660Z" fill="#a3cae2" stroke="#a3cae2" stroke-width="1.51"/><path d="M1500,660L1620,660L1620,540Z" fill="#a9cae1" stroke="#a9cae1" stroke-width="1.51"/><path d="M1500,540L1500,660L1620,540Z" fill="#b3d1e4" stroke="#b3d1e4" stroke-width="1.51"/><path d="M1500,540L1620,540L1620,420Z" fill="#b5cbdd" stroke="#b5cbdd" stroke-width="1.51"/><path d="M1500,420L1500,540L1620,420Z" fill="#bcccd9" stroke="#bcccd9" stroke-width="1.51"/><path d="M1500,420L1620,420L1620,300Z" fill="#bac0ca" stroke="#bac0ca" stroke-width="1.51"/><path d="M1500,300L1500,420L1620,300Z" fill="#c0bec4" stroke="#c0bec4" stroke-width="1.51"/><path d="M1500,300L1620,300L1620,180Z" fill="#bcacb0" stroke="#bcacb0" stroke-width="1.51"/><path d="M1500,180L1500,300L1620,180Z" fill="#c0aaa9" stroke="#c0aaa9" stroke-width="1.51"/><path d="M1500,180L1620,180L1620,60Z" fill="#b79599" stroke="#b79599" stroke-width="1.51"/><path d="M1500,60L1500,180L1620,60Z" fill="#ba9193" stroke="#ba9193" stroke-width="1.51"/><path d="M1500,60L1620,60L1620,-60Z" fill="#ae7e85" stroke="#ae7e85" stroke-width="1.51"/><path d="M1500,-60L1500,60L1620,-60Z" fill="#b07b82" stroke="#b07b82" stroke-width="1.51"/><path d="M1500,-60L1620,-60L1620,-180Z" fill="#a16b78" stroke="#a16b78" stroke-width="1.51"/><path d="M1500,-180L1500,-60L1620,-180Z" fill="#9b6b78" stroke="#9b6b78" stroke-width="1.51"/><path d="M1380,1260L1500,1260L1500,1140Z" fill="#5887b6" stroke="#5887b6" stroke-width="1.51"/><path d="M1380,1140L1380,1260L1500,1140Z" fill="#6392c2" stroke="#6392c2" stroke-width="1.51"/><path d="M1380,1140L1500,1140L1500,1020Z" fill="#639cc9" stroke="#639cc9" stroke-width="1.51"/><path d="M1380,1020L1380,1140L1500,1020Z" fill="#6da5ce" stroke="#6da5ce" stroke-width="1.51"/><path d="M1380,1020L1500,1020L1500,900Z" fill="#71aed2" stroke="#71aed2" stroke-width="1.51"/><path d="M1380,900L1380,1020L1500,900Z" fill="#81b8d8" stroke="#81b8d8" stroke-width="1.51"/><path d="M1380,900L1500,900L1500,780Z" fill="#8dc1dc" stroke="#8dc1dc" stroke-width="1.51"/><path d="M1380,780L1380,900L1500,780Z" fill="#9ccae1" stroke="#9ccae1" stroke-width="1.51"/><path d="M1380,780L1500,780L1500,660Z" fill="#a7cee4" stroke="#a7cee4" stroke-width="1.51"/><path d="M1380,660L1380,780L1500,660Z" fill="#b4d6e8" stroke="#b4d6e8" stroke-width="1.51"/><path d="M1380,660L1500,660L1500,540Z" fill="#b9d7e8" stroke="#b9d7e8" stroke-width="1.51"/><path d="M1380,540L1380,660L1500,540Z" fill="#c4ddeb" stroke="#c4ddeb" stroke-width="1.51"/><path d="M1380,540L1500,540L1500,420Z" fill="#c5d8e4" stroke="#c5d8e4" stroke-width="1.51"/><path d="M1380,420L1380,540L1500,420Z" fill="#ccd8df" stroke="#ccd8df" stroke-width="1.51"/><path d="M1380,420L1500,420L1500,300Z" fill="#c9ced1" stroke="#c9ced1" stroke-width="1.51"/><path d="M1380,300L1380,420L1500,300Z" fill="#d0caca" stroke="#d0caca" stroke-width="1.51"/><path d="M1380,300L1500,300L1500,180Z" fill="#cbb9b6" stroke="#cbb9b6" stroke-width="1.51"/><path d="M1380,180L1380,300L1500,180Z" fill="#cfb6af" stroke="#cfb6af" stroke-width="1.51"/><path d="M1380,180L1500,180L1500,60Z" fill="#c6a29f" stroke="#c6a29f" stroke-width="1.51"/><path d="M1380,60L1380,180L1500,60Z" fill="#c89d99" stroke="#c89d99" stroke-width="1.51"/><path d="M1380,60L1500,60L1500,-60Z" fill="#bd8a8c" stroke="#bd8a8c" stroke-width="1.51"/><path d="M1380,-60L1380,60L1500,-60Z" fill="#be8788" stroke="#be8788" stroke-width="1.51"/><path d="M1380,-60L1500,-60L1500,-180Z" fill="#b0777e" stroke="#b0777e" stroke-width="1.51"/><path d="M1380,-180L1380,-60L1500,-180Z" fill="#a9767d" stroke="#a9767d" stroke-width="1.51"/><path d="M1260,1260L1380,1260L1380,1140Z" fill="#6a8fbb" stroke="#6a8fbb" stroke-width="1.51"/><path d="M1260,1140L1260,1260L1380,1140Z" fill="#749ac6" stroke="#749ac6" stroke-width="1.51"/><path d="M1260,1140L1380,1140L1380,1020Z" fill="#75a4ce" stroke="#75a4ce" stroke-width="1.51"/><path d="M1260,1020L1260,1140L1380,1020Z" fill="#7eadd2" stroke="#7eadd2" stroke-width="1.51"/><path d="M1260,1020L1380,1020L1380,900Z" fill="#83b7d7" stroke="#83b7d7" stroke-width="1.51"/><path d="M1260,900L1260,1020L1380,900Z" fill="#92c0dc" stroke="#92c0dc" stroke-width="1.51"/><path d="M1260,900L1380,900L1380,780Z" fill="#9ecae2" stroke="#9ecae2" stroke-width="1.51"/><path d="M1260,780L1260,900L1380,780Z" fill="#abd2e5" stroke="#abd2e5" stroke-width="1.51"/><path d="M1260,780L1380,780L1380,660Z" fill="#b7d7e9" stroke="#b7d7e9" stroke-width="1.51"/><path d="M1260,660L1260,780L1380,660Z" fill="#c3deec" stroke="#c3deec" stroke-width="1.51"/><path d="M1260,660L1380,660L1380,540Z" fill="#c9e0ed" stroke="#c9e0ed" stroke-width="1.51"/><path d="M1260,540L1260,660L1380,540Z" fill="#d2e5ef" stroke="#d2e5ef" stroke-width="1.51"/><path d="M1260,540L1380,540L1380,420Z" fill="#d4e1e9" stroke="#d4e1e9" stroke-width="1.51"/><path d="M1260,420L1260,540L1380,420Z" fill="#dae1e4" stroke="#dae1e4" stroke-width="1.51"/><path d="M1260,420L1380,420L1380,300Z" fill="#d8d6d6" stroke="#d8d6d6" stroke-width="1.51"/><path d="M1260,300L1260,420L1380,300Z" fill="#ddd2ce" stroke="#ddd2ce" stroke-width="1.51"/><path d="M1260,300L1380,300L1380,180Z" fill="#d9c1bb" stroke="#d9c1bb" stroke-width="1.51"/><path d="M1260,180L1260,300L1380,180Z" fill="#ddbeb3" stroke="#ddbeb3" stroke-width="1.51"/><path d="M1260,180L1380,180L1380,60Z" fill="#d3aaa4" stroke="#d3aaa4" stroke-width="1.51"/><path d="M1260,60L1260,180L1380,60Z" fill="#d5a49d" stroke="#d5a49d" stroke-width="1.51"/><path d="M1260,60L1380,60L1380,-60Z" fill="#ca9290" stroke="#ca9290" stroke-width="1.51"/><path d="M1260,-60L1260,60L1380,-60Z" fill="#cb8e8c" stroke="#cb8e8c" stroke-width="1.51"/><path d="M1260,-60L1380,-60L1380,-180Z" fill="#bd7e82" stroke="#bd7e82" stroke-width="1.51"/><path d="M1260,-180L1260,-60L1380,-180Z" fill="#b67d81" stroke="#b67d81" stroke-width="1.51"/><path d="M1140,1260L1260,1260L1260,1140Z" fill="#7b96bf" stroke="#7b96bf" stroke-width="1.51"/><path d="M1140,1140L1140,1260L1260,1140Z" fill="#84a0ca" stroke="#84a0ca" stroke-width="1.51"/><path d="M1140,1140L1260,1140L1260,1020Z" fill="#86abd2" stroke="#86abd2" stroke-width="1.51"/><path d="M1140,1020L1140,1140L1260,1020Z" fill="#8eb4d6" stroke="#8eb4d6" stroke-width="1.51"/><path d="M1140,1020L1260,1020L1260,900Z" fill="#94bedc" stroke="#94bedc" stroke-width="1.51"/><path d="M1140,900L1140,1020L1260,900Z" fill="#a1c7e0" stroke="#a1c7e0" stroke-width="1.51"/><path d="M1140,900L1260,900L1260,780Z" fill="#aed2e6" stroke="#aed2e6" stroke-width="1.51"/><path d="M1140,780L1140,900L1260,780Z" fill="#bad9e9" stroke="#bad9e9" stroke-width="1.51"/><path d="M1140,780L1260,780L1260,660Z" fill="#c6dfed" stroke="#c6dfed" stroke-width="1.51"/><path d="M1140,660L1140,780L1260,660Z" fill="#d2e5f1" stroke="#d2e5f1" stroke-width="1.51"/><path d="M1140,660L1260,660L1260,540Z" fill="#d8e8f1" stroke="#d8e8f1" stroke-width="1.51"/><path d="M1140,540L1140,660L1260,540Z" fill="#e1ecf3" stroke="#e1ecf3" stroke-width="1.51"/><path d="M1140,540L1260,540L1260,420Z" fill="#e3e9ed" stroke="#e3e9ed" stroke-width="1.51"/><path d="M1140,420L1140,540L1260,420Z" fill="#e8e8e8" stroke="#e8e8e8" stroke-width="1.51"/><path d="M1140,420L1260,420L1260,300Z" fill="#e6deda" stroke="#e6deda" stroke-width="1.51"/><path d="M1140,300L1140,420L1260,300Z" fill="#ebd9d2" stroke="#ebd9d2" stroke-width="1.51"/><path d="M1140,300L1260,300L1260,180Z" fill="#e7c9bf" stroke="#e7c9bf" stroke-width="1.51"/><path d="M1140,180L1140,300L1260,180Z" fill="#e9c4b7" stroke="#e9c4b7" stroke-width="1.51"/><path d="M1140,180L1260,180L1260,60Z" fill="#e1b1a8" stroke="#e1b1a8" stroke-width="1.51"/><path d="M1140,60L1140,180L1260,60Z" fill="#e2aaa1" stroke="#e2aaa1" stroke-width="1.51"/><path d="M1140,60L1260,60L1260,-60Z" fill="#d79994" stroke="#d79994" stroke-width="1.51"/><path d="M1140,-60L1140,60L1260,-60Z" fill="#d79490" stroke="#d79490" stroke-width="1.51"/><path d="M1140,-60L1260,-60L1260,-180Z" fill="#c98586" stroke="#c98586" stroke-width="1.51"/><path d="M1140,-180L1140,-60L1260,-180Z" fill="#c18385" stroke="#c18385" stroke-width="1.51"/><path d="M1020,1260L1140,1260L1140,1140Z" fill="#869bc1" stroke="#869bc1" stroke-width="1.51"/><path d="M1020,1140L1020,1260L1140,1140Z" fill="#8ea4cc" stroke="#8ea4cc" stroke-width="1.51"/><path d="M1020,1140L1140,1140L1140,1020Z" fill="#92b0d4" stroke="#92b0d4" stroke-width="1.51"/><path d="M1020,1020L1020,1140L1140,1020Z" fill="#98b8d8" stroke="#98b8d8" stroke-width="1.51"/><path d="M1020,1020L1140,1020L1140,900Z" fill="#9fc3de" stroke="#9fc3de" stroke-width="1.51"/><path d="M1020,900L1020,1020L1140,900Z" fill="#abcbe2" stroke="#abcbe2" stroke-width="1.51"/><path d="M1020,900L1140,900L1140,780Z" fill="#b9d7e8" stroke="#b9d7e8" stroke-width="1.51"/><path d="M1020,780L1020,900L1140,780Z" fill="#c4ddeb" stroke="#c4ddeb" stroke-width="1.51"/><path d="M1020,780L1140,780L1140,660Z" fill="#d1e4ef" stroke="#d1e4ef" stroke-width="1.51"/><path d="M1020,660L1020,780L1140,660Z" fill="#dbe9f2" stroke="#dbe9f2" stroke-width="1.51"/><path d="M1020,660L1140,660L1140,540Z" fill="#e3edf3" stroke="#e3edf3" stroke-width="1.51"/><path d="M1020,540L1020,660L1140,540Z" fill="#eaf0f5" stroke="#eaf0f5" stroke-width="1.51"/><path d="M1020,540L1140,540L1140,420Z" fill="#edeeef" stroke="#edeeef" stroke-width="1.51"/><path d="M1020,420L1020,540L1140,420Z" fill="#f1ece9" stroke="#f1ece9" stroke-width="1.51"/><path d="M1020,420L1140,420L1140,300Z" fill="#f0e3dc" stroke="#f0e3dc" stroke-width="1.51"/><path d="M1020,300L1020,420L1140,300Z" fill="#f3ded3" stroke="#f3ded3" stroke-width="1.51"/><path d="M1020,300L1140,300L1140,180Z" fill="#f0cec1" stroke="#f0cec1" stroke-width="1.51"/><path d="M1020,180L1020,300L1140,180Z" fill="#f2c9b8" stroke="#f2c9b8" stroke-width="1.51"/><path d="M1020,180L1140,180L1140,60Z" fill="#eab6a9" stroke="#eab6a9" stroke-width="1.51"/><path d="M1020,60L1020,180L1140,60Z" fill="#eaafa2" stroke="#eaafa2" stroke-width="1.51"/><path d="M1020,60L1140,60L1140,-60Z" fill="#e09e96" stroke="#e09e96" stroke-width="1.51"/><path d="M1020,-60L1020,60L1140,-60Z" fill="#df9891" stroke="#df9891" stroke-width="1.51"/><path d="M1020,-60L1140,-60L1140,-180Z" fill="#d28a88" stroke="#d28a88" stroke-width="1.51"/><path d="M1020,-180L1020,-60L1140,-180Z" fill="#c98786" stroke="#c98786" stroke-width="1.51"/><path d="M900,1260L1020,1260L1020,1140Z" fill="#909fc3" stroke="#909fc3" stroke-width="1.51"/><path d="M900,1140L900,1260L1020,1140Z" fill="#97a7cc" stroke="#97a7cc" stroke-width="1.51"/><path d="M900,1140L1020,1140L1020,1020Z" fill="#9cb4d6" stroke="#9cb4d6" stroke-width="1.51"/><path d="M900,1020L900,1140L1020,1020Z" fill="#a2bbd7" stroke="#a2bbd7" stroke-width="1.51"/><path d="M900,1020L1020,1020L1020,900Z" fill="#aac8df" stroke="#aac8df" stroke-width="1.51"/><path d="M900,900L900,1020L1020,900Z" fill="#b4cee1" stroke="#b4cee1" stroke-width="1.51"/><path d="M900,900L1020,900L1020,780Z" fill="#c3dbea" stroke="#c3dbea" stroke-width="1.51"/><path d="M900,780L900,900L1020,780Z" fill="#cde0eb" stroke="#cde0eb" stroke-width="1.51"/><path d="M900,780L1020,780L1020,660Z" fill="#dae8f1" stroke="#dae8f1" stroke-width="1.51"/><path d="M900,660L900,780L1020,660Z" fill="#e4ecf2" stroke="#e4ecf2" stroke-width="1.51"/><path d="M900,660L1020,660L1020,540Z" fill="#ecf1f5" stroke="#ecf1f5" stroke-width="1.51"/><path d="M900,540L900,660L1020,540Z" fill="#f3f4f4" stroke="#f3f4f4" stroke-width="1.51"/><path d="M900,540L1020,540L1020,420Z" fill="#f7f3f0" stroke="#f7f3f0" stroke-width="1.51"/><path d="M900,420L900,540L1020,420Z" fill="#faefe8" stroke="#faefe8" stroke-width="1.51"/><path d="M900,420L1020,420L1020,300Z" fill="#f9e7dd" stroke="#f9e7dd" stroke-width="1.51"/><path d="M900,300L900,420L1020,300Z" fill="#fbe0d3" stroke="#fbe0d3" stroke-width="1.51"/><path d="M900,300L1020,300L1020,180Z" fill="#f9d2c2" stroke="#f9d2c2" stroke-width="1.51"/><path d="M900,180L900,300L1020,180Z" fill="#f9cbb8" stroke="#f9cbb8" stroke-width="1.51"/><path d="M900,180L1020,180L1020,60Z" fill="#f2baab" stroke="#f2baab" stroke-width="1.51"/><path d="M900,60L900,180L1020,60Z" fill="#f1b1a2" stroke="#f1b1a2" stroke-width="1.51"/><path d="M900,60L1020,60L1020,-60Z" fill="#e8a297" stroke="#e8a297" stroke-width="1.51"/><path d="M900,-60L900,60L1020,-60Z" fill="#e69b90" stroke="#e69b90" stroke-width="1.51"/><path d="M900,-60L1020,-60L1020,-180Z" fill="#da8e89" stroke="#da8e89" stroke-width="1.51"/><path d="M900,-180L900,-60L1020,-180Z" fill="#d08986" stroke="#d08986" stroke-width="1.51"/><path d="M780,1260L900,1260L900,1140Z" fill="#949aba" stroke="#949aba" stroke-width="1.51"/><path d="M780,1140L780,1260L900,1140Z" fill="#9ba0c0" stroke="#9ba0c0" stroke-width="1.51"/><path d="M780,1140L900,1140L900,1020Z" fill="#a1afcd" stroke="#a1afcd" stroke-width="1.51"/><path d="M780,1020L780,1140L900,1020Z" fill="#a5b4cc" stroke="#a5b4cc" stroke-width="1.51"/><path d="M780,1020L900,1020L900,900Z" fill="#aec3d6" stroke="#aec3d6" stroke-width="1.51"/><path d="M780,900L780,1020L900,900Z" fill="#b8c7d5" stroke="#b8c7d5" stroke-width="1.51"/><path d="M780,900L900,900L900,780Z" fill="#c7d6e0" stroke="#c7d6e0" stroke-width="1.51"/><path d="M780,780L780,900L900,780Z" fill="#cfdadf" stroke="#cfdadf" stroke-width="1.51"/><path d="M780,780L900,780L900,660Z" fill="#dee4e7" stroke="#dee4e7" stroke-width="1.51"/><path d="M780,660L780,780L900,660Z" fill="#e6e6e6" stroke="#e6e6e6" stroke-width="1.51"/><path d="M780,660L900,660L900,540Z" fill="#efedeb" stroke="#efedeb" stroke-width="1.51"/><path d="M780,540L780,660L900,540Z" fill="#f4ede8" stroke="#f4ede8" stroke-width="1.51"/><path d="M780,540L900,540L900,420Z" fill="#faede7" stroke="#faede7" stroke-width="1.51"/><path d="M780,420L780,540L900,420Z" fill="#fbe8dc" stroke="#fbe8dc" stroke-width="1.51"/><path d="M780,420L900,420L900,300Z" fill="#fce2d4" stroke="#fce2d4" stroke-width="1.51"/><path d="M780,300L780,420L900,300Z" fill="#fcd9c7" stroke="#fcd9c7" stroke-width="1.51"/><path d="M780,300L900,300L900,180Z" fill="#facdb9" stroke="#facdb9" stroke-width="1.51"/><path d="M780,180L780,300L900,180Z" fill="#f9c4ac" stroke="#f9c4ac" stroke-width="1.51"/><path d="M780,180L900,180L900,60Z" fill="#f3b5a2" stroke="#f3b5a2" stroke-width="1.51"/><path d="M780,60L780,180L900,60Z" fill="#f0aa96" stroke="#f0aa96" stroke-width="1.51"/><path d="M780,60L900,60L900,-60Z" fill="#e99d8e" stroke="#e99d8e" stroke-width="1.51"/><path d="M780,-60L780,60L900,-60Z" fill="#e59485" stroke="#e59485" stroke-width="1.51"/><path d="M780,-60L900,-60L900,-180Z" fill="#db8980" stroke="#db8980" stroke-width="1.51"/><path d="M780,-180L780,-60L900,-180Z" fill="#cf827b" stroke="#cf827b" stroke-width="1.51"/><path d="M660,1260L780,1260L780,1140Z" fill="#9894ae" stroke="#9894ae" stroke-width="1.51"/><path d="M660,1140L660,1260L780,1140Z" fill="#9e98b4" stroke="#9e98b4" stroke-width="1.51"/><path d="M660,1140L780,1140L780,1020Z" fill="#a5a9c1" stroke="#a5a9c1" stroke-width="1.51"/><path d="M660,1020L660,1140L780,1020Z" fill="#a9acbf" stroke="#a9acbf" stroke-width="1.51"/><path d="M660,1020L780,1020L780,900Z" fill="#b2bcca" stroke="#b2bcca" stroke-width="1.51"/><path d="M660,900L660,1020L780,900Z" fill="#bbbfc9" stroke="#bbbfc9" stroke-width="1.51"/><path d="M660,900L780,900L780,780Z" fill="#cad0d4" stroke="#cad0d4" stroke-width="1.51"/><path d="M660,780L660,900L780,780Z" fill="#d2d1d2" stroke="#d2d1d2" stroke-width="1.51"/><path d="M660,780L780,780L780,660Z" fill="#e1dddb" stroke="#e1dddb" stroke-width="1.51"/><path d="M660,660L660,780L780,660Z" fill="#e8ddd8" stroke="#e8ddd8" stroke-width="1.51"/><path d="M660,660L780,660L780,540Z" fill="#f2e6df" stroke="#f2e6df" stroke-width="1.51"/><path d="M660,540L660,660L780,540Z" fill="#f6e4db" stroke="#f6e4db" stroke-width="1.51"/><path d="M660,540L780,540L780,420Z" fill="#fbe6db" stroke="#fbe6db" stroke-width="1.51"/><path d="M660,420L660,540L780,420Z" fill="#fcdfcf" stroke="#fcdfcf" stroke-width="1.51"/><path d="M660,420L780,420L780,300Z" fill="#fddbc8" stroke="#fddbc8" stroke-width="1.51"/><path d="M660,300L660,420L780,300Z" fill="#fdd1ba" stroke="#fdd1ba" stroke-width="1.51"/><path d="M660,300L780,300L780,180Z" fill="#fbc6ad" stroke="#fbc6ad" stroke-width="1.51"/><path d="M660,180L660,300L780,180Z" fill="#f9bca0" stroke="#f9bca0" stroke-width="1.51"/><path d="M660,180L780,180L780,60Z" fill="#f3ae96" stroke="#f3ae96" stroke-width="1.51"/><path d="M660,60L660,180L780,60Z" fill="#efa28a" stroke="#efa28a" stroke-width="1.51"/><path d="M660,60L780,60L780,-60Z" fill="#e89683" stroke="#e89683" stroke-width="1.51"/><path d="M660,-60L660,60L780,-60Z" fill="#e48b79" stroke="#e48b79" stroke-width="1.51"/><path d="M660,-60L780,-60L780,-180Z" fill="#da8275" stroke="#da8275" stroke-width="1.51"/><path d="M660,-180L660,-60L780,-180Z" fill="#ce7a6f" stroke="#ce7a6f" stroke-width="1.51"/><path d="M540,1260L660,1260L660,1140Z" fill="#99889e" stroke="#99889e" stroke-width="1.51"/><path d="M540,1140L540,1260L660,1140Z" fill="#9f8ca3" stroke="#9f8ca3" stroke-width="1.51"/><path d="M540,1140L660,1140L660,1020Z" fill="#a69db1" stroke="#a69db1" stroke-width="1.51"/><path d="M540,1020L540,1140L660,1020Z" fill="#aa9fae" stroke="#aa9fae" stroke-width="1.51"/><path d="M540,1020L660,1020L660,900Z" fill="#b3b0ba" stroke="#b3b0ba" stroke-width="1.51"/><path d="M540,900L540,1020L660,900Z" fill="#bcb2b7" stroke="#bcb2b7" stroke-width="1.51"/><path d="M540,900L660,900L660,780Z" fill="#cbc3c4" stroke="#cbc3c4" stroke-width="1.51"/><path d="M540,780L540,900L660,780Z" fill="#d3c4c0" stroke="#d3c4c0" stroke-width="1.51"/><path d="M540,780L660,780L660,660Z" fill="#e1d0ca" stroke="#e1d0ca" stroke-width="1.51"/><path d="M540,660L540,780L660,660Z" fill="#e8d0c7" stroke="#e8d0c7" stroke-width="1.51"/><path d="M540,660L660,660L660,540Z" fill="#f1d9ce" stroke="#f1d9ce" stroke-width="1.51"/><path d="M540,540L540,660L660,540Z" fill="#f6d6c9" stroke="#f6d6c9" stroke-width="1.51"/><path d="M540,540L660,540L660,420Z" fill="#fbdaca" stroke="#fbdaca" stroke-width="1.51"/><path d="M540,420L540,540L660,420Z" fill="#fbd2be" stroke="#fbd2be" stroke-width="1.51"/><path d="M540,420L660,420L660,300Z" fill="#fccfb7" stroke="#fccfb7" stroke-width="1.51"/><path d="M540,300L540,420L660,300Z" fill="#fbc3a8" stroke="#fbc3a8" stroke-width="1.51"/><path d="M540,300L660,300L660,180Z" fill="#f9ba9d" stroke="#f9ba9d" stroke-width="1.51"/><path d="M540,180L540,300L660,180Z" fill="#f6af8e" stroke="#f6af8e" stroke-width="1.51"/><path d="M540,180L660,180L660,60Z" fill="#f0a286" stroke="#f0a286" stroke-width="1.51"/><path d="M540,60L540,180L660,60Z" fill="#ec9479" stroke="#ec9479" stroke-width="1.51"/><path d="M540,60L660,60L660,-60Z" fill="#e58974" stroke="#e58974" stroke-width="1.51"/><path d="M540,-60L540,60L660,-60Z" fill="#e07e69" stroke="#e07e69" stroke-width="1.51"/><path d="M540,-60L660,-60L660,-180Z" fill="#d67566" stroke="#d67566" stroke-width="1.51"/><path d="M540,-180L540,-60L660,-180Z" fill="#ca6c5f" stroke="#ca6c5f" stroke-width="1.51"/><path d="M420,1260L540,1260L540,1140Z" fill="#997c8e" stroke="#997c8e" stroke-width="1.51"/><path d="M420,1140L420,1260L540,1140Z" fill="#9f7e92" stroke="#9f7e92" stroke-width="1.51"/><path d="M420,1140L540,1140L540,1020Z" fill="#a790a0" stroke="#a790a0" stroke-width="1.51"/><path d="M420,1020L420,1140L540,1020Z" fill="#aa929d" stroke="#aa929d" stroke-width="1.51"/><path d="M420,1020L540,1020L540,900Z" fill="#b4a3a9" stroke="#b4a3a9" stroke-width="1.51"/><path d="M420,900L420,1020L540,900Z" fill="#bca4a6" stroke="#bca4a6" stroke-width="1.51"/><path d="M420,900L540,900L540,780Z" fill="#cbb6b2" stroke="#cbb6b2" stroke-width="1.51"/><path d="M420,780L420,900L540,780Z" fill="#d2b6af" stroke="#d2b6af" stroke-width="1.51"/><path d="M420,780L540,780L540,660Z" fill="#e1c3b9" stroke="#e1c3b9" stroke-width="1.51"/><path d="M420,660L420,780L540,660Z" fill="#e7c2b6" stroke="#e7c2b6" stroke-width="1.51"/><path d="M420,660L540,660L540,540Z" fill="#f1ccbd" stroke="#f1ccbd" stroke-width="1.51"/><path d="M420,540L420,660L540,540Z" fill="#f4c8b8" stroke="#f4c8b8" stroke-width="1.51"/><path d="M420,540L540,540L540,420Z" fill="#faccb9" stroke="#faccb9" stroke-width="1.51"/><path d="M420,420L420,540L540,420Z" fill="#f9c4ad" stroke="#f9c4ad" stroke-width="1.51"/><path d="M420,420L540,420L540,300Z" fill="#fac1a6" stroke="#fac1a6" stroke-width="1.51"/><path d="M420,300L420,420L540,300Z" fill="#f8b598" stroke="#f8b598" stroke-width="1.51"/><path d="M420,300L540,300L540,180Z" fill="#f6ad8c" stroke="#f6ad8c" stroke-width="1.51"/><path d="M420,180L420,300L540,180Z" fill="#f3a17e" stroke="#f3a17e" stroke-width="1.51"/><path d="M420,180L540,180L540,60Z" fill="#ed9476" stroke="#ed9476" stroke-width="1.51"/><path d="M420,60L420,180L540,60Z" fill="#e78669" stroke="#e78669" stroke-width="1.51"/><path d="M420,60L540,60L540,-60Z" fill="#e17c63" stroke="#e17c63" stroke-width="1.51"/><path d="M420,-60L420,60L540,-60Z" fill="#db6f59" stroke="#db6f59" stroke-width="1.51"/><path d="M420,-60L540,-60L540,-180Z" fill="#d26757" stroke="#d26757" stroke-width="1.51"/><path d="M420,-180L420,-60L540,-180Z" fill="#c55e50" stroke="#c55e50" stroke-width="1.51"/><path d="M300,1260L420,1260L420,1140Z" fill="#966d7f" stroke="#966d7f" stroke-width="1.51"/><path d="M300,1140L300,1260L420,1140Z" fill="#9a6f85" stroke="#9a6f85" stroke-width="1.51"/><path d="M300,1140L420,1140L420,1020Z" fill="#a48191" stroke="#a48191" stroke-width="1.51"/><path d="M300,1020L300,1140L420,1020Z" fill="#a68290" stroke="#a68290" stroke-width="1.51"/><path d="M300,1020L420,1020L420,900Z" fill="#b1949a" stroke="#b1949a" stroke-width="1.51"/><path d="M300,900L300,1020L420,900Z" fill="#b79499" stroke="#b79499" stroke-width="1.51"/><path d="M300,900L420,900L420,780Z" fill="#c8a7a3" stroke="#c8a7a3" stroke-width="1.51"/><path d="M300,780L300,900L420,780Z" fill="#cda6a1" stroke="#cda6a1" stroke-width="1.51"/><path d="M300,780L420,780L420,660Z" fill="#ddb3aa" stroke="#ddb3aa" stroke-width="1.51"/><path d="M300,660L300,780L420,660Z" fill="#e2b1a7" stroke="#e2b1a7" stroke-width="1.51"/><path d="M300,660L420,660L420,540Z" fill="#edbcad" stroke="#edbcad" stroke-width="1.51"/><path d="M300,540L300,660L420,540Z" fill="#efb8aa" stroke="#efb8aa" stroke-width="1.51"/><path d="M300,540L420,540L420,420Z" fill="#f5bca9" stroke="#f5bca9" stroke-width="1.51"/><path d="M300,420L300,540L420,420Z" fill="#f3b39f" stroke="#f3b39f" stroke-width="1.51"/><path d="M300,420L420,420L420,300Z" fill="#f5b297" stroke="#f5b297" stroke-width="1.51"/><path d="M300,300L300,420L420,300Z" fill="#f1a58a" stroke="#f1a58a" stroke-width="1.51"/><path d="M300,300L420,300L420,180Z" fill="#f09d7d" stroke="#f09d7d" stroke-width="1.51"/><path d="M300,180L300,300L420,180Z" fill="#eb9071" stroke="#eb9071" stroke-width="1.51"/><path d="M300,180L420,180L420,60Z" fill="#e68467" stroke="#e68467" stroke-width="1.51"/><path d="M300,60L300,180L420,60Z" fill="#e0755c" stroke="#e0755c" stroke-width="1.51"/><path d="M300,60L420,60L420,-60Z" fill="#d96b56" stroke="#d96b56" stroke-width="1.51"/><path d="M300,-60L300,60L420,-60Z" fill="#d25e4d" stroke="#d25e4d" stroke-width="1.51"/><path d="M300,-60L420,-60L420,-180Z" fill="#ca5649" stroke="#ca5649" stroke-width="1.51"/><path d="M300,-180L300,-60L420,-180Z" fill="#bd4c44" stroke="#bd4c44" stroke-width="1.51"/><path d="M180,1260L300,1260L300,1140Z" fill="#915d72" stroke="#915d72" stroke-width="1.51"/><path d="M180,1140L180,1260L300,1140Z" fill="#955f78" stroke="#955f78" stroke-width="1.51"/><path d="M180,1140L300,1140L300,1020Z" fill="#9f7183" stroke="#9f7183" stroke-width="1.51"/><path d="M180,1020L180,1140L300,1020Z" fill="#a17382" stroke="#a17382" stroke-width="1.51"/><path d="M180,1020L300,1020L300,900Z" fill="#ad848c" stroke="#ad848c" stroke-width="1.51"/><path d="M180,900L180,1020L300,900Z" fill="#b2858b" stroke="#b2858b" stroke-width="1.51"/><path d="M180,900L300,900L300,780Z" fill="#c39695" stroke="#c39695" stroke-width="1.51"/><path d="M180,780L180,900L300,780Z" fill="#c89693" stroke="#c89693" stroke-width="1.51"/><path d="M180,780L300,780L300,660Z" fill="#d8a39b" stroke="#d8a39b" stroke-width="1.51"/><path d="M180,660L180,780L300,660Z" fill="#dca19a" stroke="#dca19a" stroke-width="1.51"/><path d="M180,660L300,660L300,540Z" fill="#e7ab9f" stroke="#e7ab9f" stroke-width="1.51"/><path d="M180,540L180,660L300,540Z" fill="#e9a89c" stroke="#e9a89c" stroke-width="1.51"/><path d="M180,540L300,540L300,420Z" fill="#efab9b" stroke="#efab9b" stroke-width="1.51"/><path d="M180,420L180,540L300,420Z" fill="#eda391" stroke="#eda391" stroke-width="1.51"/><path d="M180,420L300,420L300,300Z" fill="#efa189" stroke="#efa189" stroke-width="1.51"/><path d="M180,300L180,420L300,300Z" fill="#ea947d" stroke="#ea947d" stroke-width="1.51"/><path d="M180,300L300,300L300,180Z" fill="#e98b70" stroke="#e98b70" stroke-width="1.51"/><path d="M180,180L180,300L300,180Z" fill="#e47f64" stroke="#e47f64" stroke-width="1.51"/><path d="M180,180L300,180L300,60Z" fill="#df735a" stroke="#df735a" stroke-width="1.51"/><path d="M180,60L180,180L300,60Z" fill="#d86450" stroke="#d86450" stroke-width="1.51"/><path d="M180,60L300,60L300,-60Z" fill="#d25949" stroke="#d25949" stroke-width="1.51"/><path d="M180,-60L180,60L300,-60Z" fill="#ca4c41" stroke="#ca4c41" stroke-width="1.51"/><path d="M180,-60L300,-60L300,-180Z" fill="#c2433d" stroke="#c2433d" stroke-width="1.51"/><path d="M180,-180L180,-60L300,-180Z" fill="#b43938" stroke="#b43938" stroke-width="1.51"/><path d="M60,1260L180,1260L180,1140Z" fill="#8a4f68" stroke="#8a4f68" stroke-width="1.51"/><path d="M60,1140L60,1260L180,1140Z" fill="#8e526e" stroke="#8e526e" stroke-width="1.51"/><path d="M60,1140L180,1140L180,1020Z" fill="#996379" stroke="#996379" stroke-width="1.51"/><path d="M60,1020L60,1140L180,1020Z" fill="#9a6678" stroke="#9a6678" stroke-width="1.51"/><path d="M60,1020L180,1020L180,900Z" fill="#a67681" stroke="#a67681" stroke-width="1.51"/><path d="M60,900L60,1020L180,900Z" fill="#ac7881" stroke="#ac7881" stroke-width="1.51"/><path d="M60,900L180,900L180,780Z" fill="#bd888a" stroke="#bd888a" stroke-width="1.51"/><path d="M60,780L60,900L180,780Z" fill="#c18989" stroke="#c18989" stroke-width="1.51"/><path d="M60,780L180,780L180,660Z" fill="#d19490" stroke="#d19490" stroke-width="1.51"/><path d="M60,660L60,780L180,660Z" fill="#d59390" stroke="#d59390" stroke-width="1.51"/><path d="M60,660L180,660L180,540Z" fill="#e09c94" stroke="#e09c94" stroke-width="1.51"/><path d="M60,540L60,660L180,540Z" fill="#e19a92" stroke="#e19a92" stroke-width="1.51"/><path d="M60,540L180,540L180,420Z" fill="#e89d90" stroke="#e89d90" stroke-width="1.51"/><path d="M60,420L60,540L180,420Z" fill="#e59587" stroke="#e59587" stroke-width="1.51"/><path d="M60,420L180,420L180,300Z" fill="#e7927e" stroke="#e7927e" stroke-width="1.51"/><path d="M60,300L60,420L180,300Z" fill="#e28673" stroke="#e28673" stroke-width="1.51"/><path d="M60,300L180,300L180,180Z" fill="#e17d66" stroke="#e17d66" stroke-width="1.51"/><path d="M60,180L60,300L180,180Z" fill="#db715b" stroke="#db715b" stroke-width="1.51"/><path d="M60,180L180,180L180,60Z" fill="#d66351" stroke="#d66351" stroke-width="1.51"/><path d="M60,60L60,180L180,60Z" fill="#cf5547" stroke="#cf5547" stroke-width="1.51"/><path d="M60,60L180,60L180,-60Z" fill="#c9493f" stroke="#c9493f" stroke-width="1.51"/><path d="M60,-60L60,60L180,-60Z" fill="#c13b39" stroke="#c13b39" stroke-width="1.51"/><path d="M60,-60L180,-60L180,-180Z" fill="#b93134" stroke="#b93134" stroke-width="1.51"/><path d="M60,-180L60,-60L180,-180Z" fill="#ab2730" stroke="#ab2730" stroke-width="1.51"/><path d="M-60,1260L60,1260L60,1140Z" fill="#83425f" stroke="#83425f" stroke-width="1.51"/><path d="M-60,1140L-60,1260L60,1140Z" fill="#854665" stroke="#854665" stroke-width="1.51"/><path d="M-60,1140L60,1140L60,1020Z" fill="#92576f" stroke="#92576f" stroke-width="1.51"/><path d="M-60,1020L-60,1140L60,1020Z" fill="#915a6f" stroke="#915a6f" stroke-width="1.51"/><path d="M-60,1020L60,1020L60,900Z" fill="#a06978" stroke="#a06978" stroke-width="1.51"/><path d="M-60,900L-60,1020L60,900Z" fill="#a26b78" stroke="#a26b78" stroke-width="1.51"/><path d="M-60,900L60,900L60,780Z" fill="#b67b81" stroke="#b67b81" stroke-width="1.51"/><path d="M-60,780L-60,900L60,780Z" fill="#b87c80" stroke="#b87c80" stroke-width="1.51"/><path d="M-60,780L60,780L60,660Z" fill="#ca8787" stroke="#ca8787" stroke-width="1.51"/><path d="M-60,660L-60,780L60,660Z" fill="#cb8787" stroke="#cb8787" stroke-width="1.51"/><path d="M-60,660L60,660L60,540Z" fill="#d98f8a" stroke="#d98f8a" stroke-width="1.51"/><path d="M-60,540L-60,660L60,540Z" fill="#d88d89" stroke="#d88d89" stroke-width="1.51"/><path d="M-60,540L60,540L60,420Z" fill="#e18f87" stroke="#e18f87" stroke-width="1.51"/><path d="M-60,420L-60,540L60,420Z" fill="#db887e" stroke="#db887e" stroke-width="1.51"/><path d="M-60,420L60,420L60,300Z" fill="#df8475" stroke="#df8475" stroke-width="1.51"/><path d="M-60,300L-60,420L60,300Z" fill="#d8796a" stroke="#d8796a" stroke-width="1.51"/><path d="M-60,300L60,300L60,180Z" fill="#d96f5d" stroke="#d96f5d" stroke-width="1.51"/><path d="M-60,180L-60,300L60,180Z" fill="#d16452" stroke="#d16452" stroke-width="1.51"/><path d="M-60,180L60,180L60,60Z" fill="#cd5548" stroke="#cd5548" stroke-width="1.51"/><path d="M-60,60L-60,180L60,60Z" fill="#c4473f" stroke="#c4473f" stroke-width="1.51"/><path d="M-60,60L60,60L60,-60Z" fill="#c03937" stroke="#c03937" stroke-width="1.51"/><path d="M-60,-60L-60,60L60,-60Z" fill="#b62b31" stroke="#b62b31" stroke-width="1.51"/><path d="M-60,-60L60,-60L60,-180Z" fill="#af1b2c" stroke="#af1b2c" stroke-width="1.51"/><path d="M-60,-180L-60,-60L60,-180Z" fill="#a01229" stroke="#a01229" stroke-width="1.51"/><path d="M-180,1260L-60,1260L-60,1140Z" fill="#723a59" stroke="#723a59" stroke-width="1.51"/><path d="M-180,1140L-180,1260L-60,1140Z" fill="#713f61" stroke="#713f61" stroke-width="1.51"/><path d="M-180,1140L-60,1140L-60,1020Z" fill="#804e6a" stroke="#804e6a" stroke-width="1.51"/><path d="M-180,1020L-180,1140L-60,1020Z" fill="#7c526b" stroke="#7c526b" stroke-width="1.51"/><path d="M-180,1020L-60,1020L-60,900Z" fill="#8d6072" stroke="#8d6072" stroke-width="1.51"/><path d="M-180,900L-180,1020L-60,900Z" fill="#8d6374" stroke="#8d6374" stroke-width="1.51"/><path d="M-180,900L-60,900L-60,780Z" fill="#a3727b" stroke="#a3727b" stroke-width="1.51"/><path d="M-180,780L-180,900L-60,780Z" fill="#a2747c" stroke="#a2747c" stroke-width="1.51"/><path d="M-180,780L-60,780L-60,660Z" fill="#b77e82" stroke="#b77e82" stroke-width="1.51"/><path d="M-180,660L-180,780L-60,660Z" fill="#b67e82" stroke="#b67e82" stroke-width="1.51"/><path d="M-180,660L-60,660L-60,540Z" fill="#c68585" stroke="#c68585" stroke-width="1.51"/><path d="M-180,540L-180,660L-60,540Z" fill="#c28485" stroke="#c28485" stroke-width="1.51"/><path d="M-180,540L-60,540L-60,420Z" fill="#cd8681" stroke="#cd8681" stroke-width="1.51"/><path d="M-180,420L-180,540L-60,420Z" fill="#c67f7a" stroke="#c67f7a" stroke-width="1.51"/><path d="M-180,420L-60,420L-60,300Z" fill="#cc7b70" stroke="#cc7b70" stroke-width="1.51"/><path d="M-180,300L-180,420L-60,300Z" fill="#c37167" stroke="#c37167" stroke-width="1.51"/><path d="M-180,300L-60,300L-60,180Z" fill="#c66658" stroke="#c66658" stroke-width="1.51"/><path d="M-180,180L-180,300L-60,180Z" fill="#bc5c4f" stroke="#bc5c4f" stroke-width="1.51"/><path d="M-180,180L-60,180L-60,60Z" fill="#bb4c44" stroke="#bb4c44" stroke-width="1.51"/><path d="M-180,60L-180,180L-60,60Z" fill="#b0403c" stroke="#b0403c" stroke-width="1.51"/><path d="M-180,60L-60,60L-60,-60Z" fill="#ae3033" stroke="#ae3033" stroke-width="1.51"/><path d="M-180,-60L-180,60L-60,-60Z" fill="#a3242e" stroke="#a3242e" stroke-width="1.51"/><path d="M-180,-60L-60,-60L-60,-180Z" fill="#9e1128" stroke="#9e1128" stroke-width="1.51"/><path d="M-180,-180L-180,-60L-60,-180Z" fill="#8d0b26" stroke="#8d0b26" stroke-width="1.51"/></svg>