<svg xmlns="http://www.w3.org/2000/svg" width="1920" height="1080"><path d="M2040,1380L2280,1380L2280,1140Z" fill="#ff4b00" stroke="#ff4b00" stroke-width="1.51"/><path d="M2040,1140L2040,1380L2280,1140Z" fill="#ff2a26" stroke="#ff2a26" stroke-width="1.51"/><path d="M2040,1140L2280,1140L2280,900Z" fill="#ff5059" stroke="#ff5059" stroke-width="1.51"/><path d="M2040,900L2040,1140L2280,900Z" fill="#ed774c" stroke="#ed774c" stroke-width="1.51"/><path d="M2040,900L2280,900L2280,660Z" fill="#d0a94f" stroke="#d0a94f" stroke-width="1.51"/><path d="M2040,660L2040,900L2280,660Z" fill="#e0716c" stroke="#e0716c" stroke-width="1.51"/><path d="M2040,660L2280,660L2280,420Z" fill="#df558e" stroke="#df558e" stroke-width="1.51"/><path d="M2040,420L2040,660L2280,420Z" fill="#d65f89" stroke="#d65f89" stroke-width="1.51"/><path d="M2040,420L2280,420L2280,180Z" fill="#e5696c" stroke="#e5696c" stroke-width="1.51"/><path d="M2040,180L2040,420L2280,180Z" fill="#f83e4e" stroke="#f83e4e" stroke-width="1.51"/><path d="M2040,180L2280,180L2280,-60Z" fill="#f08f2c" stroke="#f08f2c" stroke-width="1.51"/><path d="M2040,-60L2040,180L2280,-60Z" fill="#e4a902" stroke="#e4a902" stroke-width="1.51"/><path d="M2040,-60L2280,-60L2280,-300Z" fill="#fc7271" stroke="#fc7271" stroke-width="1.51"/><path d="M2040,-300L2040,-60L2280,-300Z" fill="#ff3489" stroke="#ff3489" stroke-width="1.51"/><path d="M1800,1380L2040,1380L2040,1140Z" fill="#ff1f2b" stroke="#ff1f2b" stroke-width="1.51"/><path d="M1800,1140L1800,1380L2040,1140Z" fill="#ff0951" stroke="#ff0951" stroke-width="1.51"/><path d="M1800,1140L2040,1140L2040,900Z" fill="#fe296c" stroke="#fe296c" stroke-width="1.51"/><path d="M1800,900L1800,1140L2040,900Z" fill="#eb7076" stroke="#eb7076" stroke-width="1.51"/><path d="M1800,900L2040,900L2040,660Z" fill="#d19767" stroke="#d19767" stroke-width="1.51"/><path d="M1800,660L1800,900L2040,660Z" fill="#db6a94" stroke="#db6a94" stroke-width="1.51"/><path d="M1800,660L2040,660L2040,420Z" fill="#dc37a0" stroke="#dc37a0" stroke-width="1.51"/><path d="M1800,420L1800,660L2040,420Z" fill="#ce58b0" stroke="#ce58b0" stroke-width="1.51"/><path d="M1800,420L2040,420L2040,180Z" fill="#e3517f" stroke="#e3517f" stroke-width="1.51"/><path d="M1800,180L1800,420L2040,180Z" fill="#f62f74" stroke="#f62f74" stroke-width="1.51"/><path d="M1800,180L2040,180L2040,-60Z" fill="#f27b49" stroke="#f27b49" stroke-width="1.51"/><path d="M1800,-60L1800,180L2040,-60Z" fill="#e4a250" stroke="#e4a250" stroke-width="1.51"/><path d="M1800,-60L2040,-60L2040,-300Z" fill="#fb5a84" stroke="#fb5a84" stroke-width="1.51"/><path d="M1800,-300L1800,-60L2040,-300Z" fill="#fc22b0" stroke="#fc22b0" stroke-width="1.51"/><path d="M1560,1380L1800,1380L1800,1140Z" fill="#fd4253" stroke="#fd4253" stroke-width="1.51"/><path d="M1560,1140L1560,1380L1800,1140Z" fill="#f06761" stroke="#f06761" stroke-width="1.51"/><path d="M1560,1140L1800,1140L1800,900Z" fill="#f74993" stroke="#f74993" stroke-width="1.51"/><path d="M1560,900L1560,1140L1800,900Z" fill="#d49b88" stroke="#d49b88" stroke-width="1.51"/><path d="M1560,900L1800,900L1800,660Z" fill="#c5a590" stroke="#c5a590" stroke-width="1.51"/><path d="M1560,660L1560,900L1800,660Z" fill="#c095a7" stroke="#c095a7" stroke-width="1.51"/><path d="M1560,660L1800,660L1800,420Z" fill="#cd52c8" stroke="#cd52c8" stroke-width="1.51"/><path d="M1560,420L1560,660L1800,420Z" fill="#b186c4" stroke="#b186c4" stroke-width="1.51"/><path d="M1560,420L1800,420L1800,180Z" fill="#d965a6" stroke="#d965a6" stroke-width="1.51"/><path d="M1560,180L1560,420L1800,180Z" fill="#e37187" stroke="#e37187" stroke-width="1.51"/><path d="M1560,180L1800,180L1800,-60Z" fill="#eb8a73" stroke="#eb8a73" stroke-width="1.51"/><path d="M1560,-60L1560,180L1800,-60Z" fill="#c9c663" stroke="#c9c663" stroke-width="1.51"/><path d="M1560,-60L1800,-60L1800,-300Z" fill="#f16eac" stroke="#f16eac" stroke-width="1.51"/><path d="M1560,-300L1560,-60L1800,-300Z" fill="#e671c4" stroke="#e671c4" stroke-width="1.51"/><path d="M1320,1380L1560,1380L1560,1140Z" fill="#d3a33b" stroke="#d3a33b" stroke-width="1.51"/><path d="M1320,1140L1320,1380L1560,1140Z" fill="#cf9e5c" stroke="#cf9e5c" stroke-width="1.51"/><path d="M1320,1140L1560,1140L1560,900Z" fill="#cba785" stroke="#cba785" stroke-width="1.51"/><path d="M1320,900L1320,1140L1560,900Z" fill="#a6c785" stroke="#a6c785" stroke-width="1.51"/><path d="M1320,900L1560,900L1560,660Z" fill="#70e47f" stroke="#70e47f" stroke-width="1.51"/><path d="M1320,660L1320,900L1560,660Z" fill="#8dc1a6" stroke="#8dc1a6" stroke-width="1.51"/><path d="M1320,660L1560,660L1560,420Z" fill="#99a5be" stroke="#99a5be" stroke-width="1.51"/><path d="M1320,420L1320,660L1560,420Z" fill="#7ab3c4" stroke="#7ab3c4" stroke-width="1.51"/><path d="M1320,420L1560,420L1560,180Z" fill="#a4b39a" stroke="#a4b39a" stroke-width="1.51"/><path d="M1320,180L1320,420L1560,180Z" fill="#c0a584" stroke="#c0a584" stroke-width="1.51"/><path d="M1320,180L1560,180L1560,-60Z" fill="#b1d25e" stroke="#b1d25e" stroke-width="1.51"/><path d="M1320,-60L1320,180L1560,-60Z" fill="#8cef5a" stroke="#8cef5a" stroke-width="1.51"/><path d="M1320,-60L1560,-60L1560,-300Z" fill="#bdbe9f" stroke="#bdbe9f" stroke-width="1.51"/><path d="M1320,-300L1320,-60L1560,-300Z" fill="#c0a7c4" stroke="#c0a7c4" stroke-width="1.51"/><path d="M1080,1380L1320,1380L1320,1140Z" fill="#e26570" stroke="#e26570" stroke-width="1.51"/><path d="M1080,1140L1080,1380L1320,1140Z" fill="#e33294" stroke="#e33294" stroke-width="1.51"/><path d="M1080,1140L1320,1140L1320,900Z" fill="#d56bb0" stroke="#d56bb0" stroke-width="1.51"/><path d="M1080,900L1080,1140L1320,900Z" fill="#c479bc" stroke="#c479bc" stroke-width="1.51"/><path d="M1080,900L1320,900L1320,660Z" fill="#95b5af" stroke="#95b5af" stroke-width="1.51"/><path d="M1080,660L1080,900L1320,660Z" fill="#a974da" stroke="#a974da" stroke-width="1.51"/><path d="M1080,660L1320,660L1320,420Z" fill="#9d6fe7" stroke="#9d6fe7" stroke-width="1.51"/><path d="M1080,420L1080,660L1320,420Z" fill="#8d66f7" stroke="#8d66f7" stroke-width="1.51"/><path d="M1080,420L1320,420L1320,180Z" fill="#b07ec4" stroke="#b07ec4" stroke-width="1.51"/><path d="M1080,180L1080,420L1320,180Z" fill="#d346b9" stroke="#d346b9" stroke-width="1.51"/><path d="M1080,180L1320,180L1320,-60Z" fill="#c89e91" stroke="#c89e91" stroke-width="1.51"/><path d="M1080,-60L1080,180L1320,-60Z" fill="#c1a69d" stroke="#c1a69d" stroke-width="1.51"/><path d="M1080,-60L1320,-60L1320,-300Z" fill="#ca87cb" stroke="#ca87cb" stroke-width="1.51"/><path d="M1080,-300L1080,-60L1320,-300Z" fill="#cc45f7" stroke="#cc45f7" stroke-width="1.51"/><path d="M840,1380L1080,1380L1080,1140Z" fill="#df4288" stroke="#df4288" stroke-width="1.51"/><path d="M840,1140L840,1380L1080,1140Z" fill="#d4539b" stroke="#d4539b" stroke-width="1.51"/><path d="M840,1140L1080,1140L1080,900Z" fill="#cf4cc9" stroke="#cf4cc9" stroke-width="1.51"/><path d="M840,900L840,1140L1080,900Z" fill="#ae8ac4" stroke="#ae8ac4" stroke-width="1.51"/><path d="M840,900L1080,900L1080,660Z" fill="#91a0c9" stroke="#91a0c9" stroke-width="1.51"/><path d="M840,660L840,900L1080,660Z" fill="#8e85e2" stroke="#8e85e2" stroke-width="1.51"/><path d="M840,660L1080,660L1080,420Z" fill="#8d56ff" stroke="#8d56ff" stroke-width="1.51"/><path d="M840,420L840,660L1080,420Z" fill="#6a78ff" stroke="#6a78ff" stroke-width="1.51"/><path d="M840,420L1080,420L1080,180Z" fill="#a666dd" stroke="#a666dd" stroke-width="1.51"/><path d="M840,180L840,420L1080,180Z" fill="#c160c0" stroke="#c160c0" stroke-width="1.51"/><path d="M840,180L1080,180L1080,-60Z" fill="#c686ab" stroke="#c686ab" stroke-width="1.51"/><path d="M840,-60L840,180L1080,-60Z" fill="#a9b4a5" stroke="#a9b4a5" stroke-width="1.51"/><path d="M840,-60L1080,-60L1080,-300Z" fill="#c26ee3" stroke="#c26ee3" stroke-width="1.51"/><path d="M840,-300L840,-60L1080,-300Z" fill="#b561ff" stroke="#b561ff" stroke-width="1.51"/><path d="M600,1380L840,1380L840,1140Z" fill="#d5687e" stroke="#d5687e" stroke-width="1.51"/><path d="M600,1140L600,1380L840,1140Z" fill="#e0567f" stroke="#e0567f" stroke-width="1.51"/><path d="M600,1140L840,1140L840,900Z" fill="#c56fbf" stroke="#c56fbf" stroke-width="1.51"/><path d="M600,900L600,1140L840,900Z" fill="#c18ca6" stroke="#c18ca6" stroke-width="1.51"/><path d="M600,900L840,900L840,660Z" fill="#7ab5be" stroke="#7ab5be" stroke-width="1.51"/><path d="M600,660L600,900L840,660Z" fill="#a887c5" stroke="#a887c5" stroke-width="1.51"/><path d="M600,660L840,660L840,420Z" fill="#8073f5" stroke="#8073f5" stroke-width="1.51"/><path d="M600,420L600,660L840,420Z" fill="#9179e1" stroke="#9179e1" stroke-width="1.51"/><path d="M600,420L840,420L840,180Z" fill="#9a80d3" stroke="#9a80d3" stroke-width="1.51"/><path d="M600,180L600,420L840,180Z" fill="#d162a4" stroke="#d162a4" stroke-width="1.51"/><path d="M600,180L840,180L840,-60Z" fill="#b79fa0" stroke="#b79fa0" stroke-width="1.51"/><path d="M600,-60L600,180L840,-60Z" fill="#b9b886" stroke="#b9b886" stroke-width="1.51"/><path d="M600,-60L840,-60L840,-300Z" fill="#b58ad9" stroke="#b58ad9" stroke-width="1.51"/><path d="M600,-300L600,-60L840,-300Z" fill="#cd62e1" stroke="#cd62e1" stroke-width="1.51"/><path d="M360,1380L600,1380L600,1140Z" fill="#fb3048" stroke="#fb3048" stroke-width="1.51"/><path d="M360,1140L360,1380L600,1140Z" fill="#fd3950" stroke="#fd3950" stroke-width="1.51"/><path d="M360,1140L600,1140L600,900Z" fill="#f73887" stroke="#f73887" stroke-width="1.51"/><path d="M360,900L360,1140L600,900Z" fill="#e77e75" stroke="#e77e75" stroke-width="1.51"/><path d="M360,900L600,900L600,660Z" fill="#c79c84" stroke="#c79c84" stroke-width="1.51"/><path d="M360,660L360,900L600,660Z" fill="#d77994" stroke="#d77994" stroke-width="1.51"/><path d="M360,660L600,660L600,420Z" fill="#cf44bc" stroke="#cf44bc" stroke-width="1.51"/><path d="M360,420L360,660L600,420Z" fill="#ca68b0" stroke="#ca68b0" stroke-width="1.51"/><path d="M360,420L600,420L600,180Z" fill="#da5a9a" stroke="#da5a9a" stroke-width="1.51"/><path d="M360,180L360,420L600,180Z" fill="#f34a74" stroke="#f34a74" stroke-width="1.51"/><path d="M360,180L600,180L600,-60Z" fill="#eb8167" stroke="#eb8167" stroke-width="1.51"/><path d="M360,-60L360,180L600,-60Z" fill="#dfae4e" stroke="#dfae4e" stroke-width="1.51"/><path d="M360,-60L600,-60L600,-300Z" fill="#f162a0" stroke="#f162a0" stroke-width="1.51"/><path d="M360,-300L360,-60L600,-300Z" fill="#fa44b0" stroke="#fa44b0" stroke-width="1.51"/><path d="M120,1380L360,1380L360,1140Z" fill="#f08625" stroke="#f08625" stroke-width="1.51"/><path d="M120,1140L120,1380L360,1140Z" fill="#e79c38" stroke="#e79c38" stroke-width="1.51"/><path d="M120,1140L360,1140L360,900Z" fill="#ed8a73" stroke="#ed8a73" stroke-width="1.51"/><path d="M120,900L120,1140L360,900Z" fill="#c6c663" stroke="#c6c663" stroke-width="1.51"/><path d="M120,900L360,900L360,660Z" fill="#aecf6b" stroke="#aecf6b" stroke-width="1.51"/><path d="M120,660L120,900L360,660Z" fill="#b5c086" stroke="#b5c086" stroke-width="1.51"/><path d="M120,660L360,660L360,420Z" fill="#c689aa" stroke="#c689aa" stroke-width="1.51"/><path d="M120,420L120,660L360,420Z" fill="#aab1a5" stroke="#aab1a5" stroke-width="1.51"/><path d="M120,420L360,420L360,180Z" fill="#cd9987" stroke="#cd9987" stroke-width="1.51"/><path d="M120,180L120,420L360,180Z" fill="#dca365" stroke="#dca365" stroke-width="1.51"/><path d="M120,180L360,180L360,-60Z" fill="#d9ba4a" stroke="#d9ba4a" stroke-width="1.51"/><path d="M120,-60L120,180L360,-60Z" fill="#b1f024" stroke="#b1f024" stroke-width="1.51"/><path d="M120,-60L360,-60L360,-300Z" fill="#e5a38c" stroke="#e5a38c" stroke-width="1.51"/><path d="M120,-300L120,-60L360,-300Z" fill="#e2a4a5" stroke="#e2a4a5" stroke-width="1.51"/><path d="M-120,1380L120,1380L120,1140Z" fill="#f3864b" stroke="#f3864b" stroke-width="1.51"/><path d="M-120,1140L-120,1380L120,1140Z" fill="#f9637a" stroke="#f9637a" stroke-width="1.51"/><path d="M-120,1140L120,1140L120,900Z" fill="#ed8a90" stroke="#ed8a90" stroke-width="1.51"/><path d="M-120,900L-120,1140L120,900Z" fill="#dc9aa1" stroke="#dc9aa1" stroke-width="1.51"/><path d="M-120,900L120,900L120,660Z" fill="#acd08b" stroke="#acd08b" stroke-width="1.51"/><path d="M-120,660L-120,900L120,660Z" fill="#c795c0" stroke="#c795c0" stroke-width="1.51"/><path d="M-120,660L120,660L120,420Z" fill="#c08bc7" stroke="#c08bc7" stroke-width="1.51"/><path d="M-120,420L-120,660L120,420Z" fill="#b586dd" stroke="#b586dd" stroke-width="1.51"/><path d="M-120,420L120,420L120,180Z" fill="#cb9aa4" stroke="#cb9aa4" stroke-width="1.51"/><path d="M-120,180L-120,420L120,180Z" fill="#ec6f9f" stroke="#ec6f9f" stroke-width="1.51"/><path d="M-120,180L120,180L120,-60Z" fill="#daba6c" stroke="#daba6c" stroke-width="1.51"/><path d="M-120,-60L-120,180L120,-60Z" fill="#d3c77e" stroke="#d3c77e" stroke-width="1.51"/><path d="M-120,-60L120,-60L120,-300Z" fill="#e3a4a9" stroke="#e3a4a9" stroke-width="1.51"/><path d="M-120,-300L-120,-60L120,-300Z" fill="#ec6edd" stroke="#ec6edd" stroke-width="1.51"/><path d="M-360,1380L-120,1380L-120,1140Z" fill="#ff3d88" stroke="#ff3d88" stroke-width="1.51"/><path d="M-360,1140L-360,1380L-120,1140Z" fill="#f5639a" stroke="#f5639a" stroke-width="1.51"/><path d="M-360,1140L-120,1140L-120,900Z" fill="#f447c9" stroke="#f447c9" stroke-width="1.51"/><path d="M-360,900L-360,1140L-120,900Z" fill="#d39ac2" stroke="#d39ac2" stroke-width="1.51"/><path d="M-360,900L-120,900L-120,660Z" fill="#bea6c8" stroke="#bea6c8" stroke-width="1.51"/><path d="M-360,660L-360,900L-120,660Z" fill="#b895e1" stroke="#b895e1" stroke-width="1.51"/><path d="M-360,660L-120,660L-120,420Z" fill="#be53ff" stroke="#be53ff" stroke-width="1.51"/><path d="M-360,420L-360,660L-120,420Z" fill="#a087ff" stroke="#a087ff" stroke-width="1.51"/><path d="M-360,420L-120,420L-120,180Z" fill="#d066dd" stroke="#d066dd" stroke-width="1.51"/><path d="M-360,180L-360,420L-120,180Z" fill="#e46fbf" stroke="#e46fbf" stroke-width="1.51"/><path d="M-360,180L-120,180L-120,-60Z" fill="#eb8aaa" stroke="#eb8aaa" stroke-width="1.51"/><path d="M-360,-60L-360,180L-120,-60Z" fill="#ccc6a2" stroke="#ccc6a2" stroke-width="1.51"/><path d="M-360,-60L-120,-60L-120,-300Z" fill="#ea6ee3" stroke="#ea6ee3" stroke-width="1.51"/><path d="M-360,-300L-360,-60L-120,-300Z" fill="#df6fff" stroke="#df6fff" stroke-width="1.51"/></svg>