<svg xmlns="http://www.w3.org/2000/svg" width="1920" height="1080"><path d="M1957,1395L2242,1395L2242,1110Z" fill="#094a92" stroke="#094a92" stroke-width="1.51"/><path d="M1957,1110L1957,1395L2242,1110Z" fill="#0e559e" stroke="#0e559e" stroke-width="1.51"/><path d="M1957,1110L2242,1110L2242,825Z" fill="#195da1" stroke="#195da1" stroke-width="1.51"/><path d="M1957,825L1957,1110L2242,825Z" fill="#2268ab" stroke="#2268ab" stroke-width="1.51"/><path d="M1957,825L2242,825L2242,540Z" fill="#326eaa" stroke="#326eaa" stroke-width="1.51"/><path d="M1957,540L1957,825L2242,540Z" fill="#3c78b4" stroke="#3c78b4" stroke-width="1.51"/><path d="M1957,540L2242,540L2242,255Z" fill="#4f7db2" stroke="#4f7db2" stroke-width="1.51"/><path d="M1957,255L1957,540L2242,255Z" fill="#5c87bb" stroke="#5c87bb" stroke-width="1.51"/><path d="M1957,255L2242,255L2242,-30Z" fill="#6b89b9" stroke="#6b89b9" stroke-width="1.51"/><path d="M1957,-30L1957,255L2242,-30Z" fill="#7591c3" stroke="#7591c3" stroke-width="1.51"/><path d="M1957,-30L2242,-30L2242,-315Z" fill="#7d91bf" stroke="#7d91bf" stroke-width="1.51"/><path d="M1957,-315L1957,-30L2242,-315Z" fill="#8499c8" stroke="#8499c8" stroke-width="1.51"/><path d="M1672,1395L1957,1395L1957,1110Z" fill="#1057a1" stroke="#1057a1" stroke-width="1.51"/><path d="M1672,1110L1672,1395L1957,1110Z" fill="#1861a9" stroke="#1861a9" stroke-width="1.51"/><path d="M1672,1110L1957,1110L1957,825Z" fill="#1e6aaf" stroke="#1e6aaf" stroke-width="1.51"/><path d="M1672,825L1672,1110L1957,825Z" fill="#2974b5" stroke="#2974b5" stroke-width="1.51"/><path d="M1672,825L1957,825L1957,540Z" fill="#367cb9" stroke="#367cb9" stroke-width="1.51"/><path d="M1672,540L1672,825L1957,540Z" fill="#4185bf" stroke="#4185bf" stroke-width="1.51"/><path d="M1672,540L1957,540L1957,255Z" fill="#548bc1" stroke="#548bc1" stroke-width="1.51"/><path d="M1672,255L1672,540L1957,255Z" fill="#6194c6" stroke="#6194c6" stroke-width="1.51"/><path d="M1672,255L1957,255L1957,-30Z" fill="#7197c8" stroke="#7197c8" stroke-width="1.51"/><path d="M1672,-30L1672,255L1957,-30Z" fill="#7b9ece" stroke="#7b9ece" stroke-width="1.51"/><path d="M1672,-30L1957,-30L1957,-315Z" fill="#84a0ce" stroke="#84a0ce" stroke-width="1.51"/><path d="M1672,-315L1672,-30L1957,-315Z" fill="#8ba7d3" stroke="#8ba7d3" stroke-width="1.51"/><path d="M1387,1395L1672,1395L1672,1110Z" fill="#1e64aa" stroke="#1e64aa" stroke-width="1.51"/><path d="M1387,1110L1387,1395L1672,1110Z" fill="#276eb1" stroke="#276eb1" stroke-width="1.51"/><path d="M1387,1110L1672,1110L1672,825Z" fill="#2977b9" stroke="#2977b9" stroke-width="1.51"/><path d="M1387,825L1387,1110L1672,825Z" fill="#3481bd" stroke="#3481bd" stroke-width="1.51"/><path d="M1387,825L1672,825L1672,540Z" fill="#3e89c2" stroke="#3e89c2" stroke-width="1.51"/><path d="M1387,540L1387,825L1672,540Z" fill="#4a92c7" stroke="#4a92c7" stroke-width="1.51"/><path d="M1387,540L1672,540L1672,255Z" fill="#5b99ca" stroke="#5b99ca" stroke-width="1.51"/><path d="M1387,255L1387,540L1672,255Z" fill="#69a2ce" stroke="#69a2ce" stroke-width="1.51"/><path d="M1387,255L1672,255L1672,-30Z" fill="#78a5d1" stroke="#78a5d1" stroke-width="1.51"/><path d="M1387,-30L1387,255L1672,-30Z" fill="#83acd6" stroke="#83acd6" stroke-width="1.51"/><path d="M1387,-30L1672,-30L1672,-315Z" fill="#8baed7" stroke="#8baed7" stroke-width="1.51"/><path d="M1387,-315L1387,-30L1672,-315Z" fill="#93b5db" stroke="#93b5db" stroke-width="1.51"/><path d="M1102,1395L1387,1395L1387,1110Z" fill="#2e71b0" stroke="#2e71b0" stroke-width="1.51"/><path d="M1102,1110L1102,1395L1387,1110Z" fill="#387ab7" stroke="#387ab7" stroke-width="1.51"/><path d="M1102,1110L1387,1110L1387,825Z" fill="#3784bf" stroke="#3784bf" stroke-width="1.51"/><path d="M1102,825L1102,1110L1387,825Z" fill="#438ec4" stroke="#438ec4" stroke-width="1.51"/><path d="M1102,825L1387,825L1387,540Z" fill="#4996c8" stroke="#4996c8" stroke-width="1.51"/><path d="M1102,540L1102,825L1387,540Z" fill="#579fcd" stroke="#579fcd" stroke-width="1.51"/><path d="M1102,540L1387,540L1387,255Z" fill="#65a6d1" stroke="#65a6d1" stroke-width="1.51"/><path d="M1102,255L1102,540L1387,255Z" fill="#74afd5" stroke="#74afd5" stroke-width="1.51"/><path d="M1102,255L1387,255L1387,-30Z" fill="#81b3d8" stroke="#81b3d8" stroke-width="1.51"/><path d="M1102,-30L1102,255L1387,-30Z" fill="#8eb9dd" stroke="#8eb9dd" stroke-width="1.51"/><path d="M1102,-30L1387,-30L1387,-315Z" fill="#94bcde" stroke="#94bcde" stroke-width="1.51"/><path d="M1102,-315L1102,-30L1387,-315Z" fill="#9dc3e1" stroke="#9dc3e1" stroke-width="1.51"/><path d="M817,1395L1102,1395L1102,1110Z" fill="#427bb7" stroke="#427bb7" stroke-width="1.51"/><path d="M817,1110L817,1395L1102,1110Z" fill="#4b85bd" stroke="#4b85bd" stroke-width="1.51"/><path d="M817,1110L1102,1110L1102,825Z" fill="#4a8ec6" stroke="#4a8ec6" stroke-width="1.51"/><path d="M817,825L817,1110L1102,825Z" fill="#5699ca" stroke="#5699ca" stroke-width="1.51"/><path d="M817,825L1102,825L1102,540Z" fill="#5aa1cf" stroke="#5aa1cf" stroke-width="1.51"/><path d="M817,540L817,825L1102,540Z" fill="#67aad4" stroke="#67aad4" stroke-width="1.51"/><path d="M817,540L1102,540L1102,255Z" fill="#73b1d7" stroke="#73b1d7" stroke-width="1.51"/><path d="M817,255L817,540L1102,255Z" fill="#83badb" stroke="#83badb" stroke-width="1.51"/><path d="M817,255L1102,255L1102,-30Z" fill="#8fbede" stroke="#8fbede" stroke-width="1.51"/><path d="M817,-30L817,255L1102,-30Z" fill="#9cc5e2" stroke="#9cc5e2" stroke-width="1.51"/><path d="M817,-30L1102,-30L1102,-315Z" fill="#a1c8e4" stroke="#a1c8e4" stroke-width="1.51"/><path d="M817,-315L817,-30L1102,-315Z" fill="#abcfe7" stroke="#abcfe7" stroke-width="1.51"/><path d="M532,1395L817,1395L817,1110Z" fill="#5986bb" stroke="#5986bb" stroke-width="1.51"/><path d="M532,1110L532,1395L817,1110Z" fill="#638fc2" stroke="#638fc2" stroke-width="1.51"/><path d="M532,1110L817,1110L817,825Z" fill="#6199ca" stroke="#6199ca" stroke-width="1.51"/><path d="M532,825L532,1110L817,825Z" fill="#6da4cf" stroke="#6da4cf" stroke-width="1.51"/><path d="M532,825L817,825L817,540Z" fill="#70add4" stroke="#70add4" stroke-width="1.51"/><path d="M532,540L532,825L817,540Z" fill="#7db5d8" stroke="#7db5d8" stroke-width="1.51"/><path d="M532,540L817,540L817,255Z" fill="#87bddc" stroke="#87bddc" stroke-width="1.51"/><path d="M532,255L532,540L817,255Z" fill="#97c5df" stroke="#97c5df" stroke-width="1.51"/><path d="M532,255L817,255L817,-30Z" fill="#a1cae2" stroke="#a1cae2" stroke-width="1.51"/><path d="M532,-30L532,255L817,-30Z" fill="#afd0e7" stroke="#afd0e7" stroke-width="1.51"/><path d="M532,-30L817,-30L817,-315Z" fill="#b3d3e8" stroke="#b3d3e8" stroke-width="1.51"/><path d="M532,-315L532,-30L817,-315Z" fill="#bedaeb" stroke="#bedaeb" stroke-width="1.51"/><path d="M247,1395L532,1395L532,1110Z" fill="#6c8dc1" stroke="#6c8dc1" stroke-width="1.51"/><path d="M247,1110L247,1395L532,1110Z" fill="#7596c7" stroke="#7596c7" stroke-width="1.51"/><path d="M247,1110L532,1110L532,825Z" fill="#75a2d0" stroke="#75a2d0" stroke-width="1.51"/><path d="M247,825L247,1110L532,825Z" fill="#7faad4" stroke="#7faad4" stroke-width="1.51"/><path d="M247,825L532,825L532,540Z" fill="#83b5d9" stroke="#83b5d9" stroke-width="1.51"/><path d="M247,540L247,825L532,540Z" fill="#8fbcde" stroke="#8fbcde" stroke-width="1.51"/><path d="M247,540L532,540L532,255Z" fill="#99c5e1" stroke="#99c5e1" stroke-width="1.51"/><path d="M247,255L247,540L532,255Z" fill="#a8cce4" stroke="#a8cce4" stroke-width="1.51"/><path d="M247,255L532,255L532,-30Z" fill="#b2d2e8" stroke="#b2d2e8" stroke-width="1.51"/><path d="M247,-30L247,255L532,-30Z" fill="#bfd7ec" stroke="#bfd7ec" stroke-width="1.51"/><path d="M247,-30L532,-30L532,-315Z" fill="#c4dcee" stroke="#c4dcee" stroke-width="1.51"/><path d="M247,-315L247,-30L532,-315Z" fill="#cee1f1" stroke="#cee1f1" stroke-width="1.51"/><path d="M-38,1395L247,1395L247,1110Z" fill="#7b93c5" stroke="#7b93c5" stroke-width="1.51"/><path d="M-38,1110L-38,1395L247,1110Z" fill="#819ccb" stroke="#819ccb" stroke-width="1.51"/><path d="M-38,1110L247,1110L247,825Z" fill="#84a8d4" stroke="#84a8d4" stroke-width="1.51"/><path d="M-38,825L-38,1110L247,825Z" fill="#8cb1d8" stroke="#8cb1d8" stroke-width="1.51"/><path d="M-38,825L247,825L247,540Z" fill="#92bbde" stroke="#92bbde" stroke-width="1.51"/><path d="M-38,540L-38,825L247,540Z" fill="#9bc3e2" stroke="#9bc3e2" stroke-width="1.51"/><path d="M-38,540L247,540L247,255Z" fill="#a7cce5" stroke="#a7cce5" stroke-width="1.51"/><path d="M-38,255L-38,540L247,255Z" fill="#b4d3e8" stroke="#b4d3e8" stroke-width="1.51"/><path d="M-38,255L247,255L247,-30Z" fill="#c0d9ec" stroke="#c0d9ec" stroke-width="1.51"/><path d="M-38,-30L-38,255L247,-30Z" fill="#cbdef1" stroke="#cbdef1" stroke-width="1.51"/><path d="M-38,-30L247,-30L247,-315Z" fill="#d1e2f3" stroke="#d1e2f3" stroke-width="1.51"/><path d="M-38,-315L-38,-30L247,-315Z" fill="#d9e8f5" stroke="#d9e8f5" stroke-width="1.51"/><path d="M-323,1395L-38,1395L-38,1110Z" fill="#8599c9" stroke="#8599c9" stroke-width="1.51"/><path d="M-323,1110L-323,1395L-38,1110Z" fill="#8ba2cf" stroke="#8ba2cf" stroke-width="1.51"/><path d="M-323,1110L-38,1110L-38,825Z" fill="#8eaed8" stroke="#8eaed8" stroke-width="1.51"/><path d="M-323,825L-323,1110L-38,825Z" fill="#96b7dc" stroke="#96b7dc" stroke-width="1.51"/><path d="M-323,825L-38,825L-38,540Z" fill="#9cc2e1" stroke="#9cc2e1" stroke-width="1.51"/><path d="M-323,540L-323,825L-38,540Z" fill="#a5c9e5" stroke="#a5c9e5" stroke-width="1.51"/><path d="M-323,540L-38,540L-38,255Z" fill="#b2d2e9" stroke="#b2d2e9" stroke-width="1.51"/><path d="M-323,255L-323,540L-38,255Z" fill="#bdd9ec" stroke="#bdd9ec" stroke-width="1.51"/><path d="M-323,255L-38,255L-38,-30Z" fill="#cadff0" stroke="#cadff0" stroke-width="1.51"/><path d="M-323,-30L-323,255L-38,-30Z" fill="#d4e4f4" stroke="#d4e4f4" stroke-width="1.51"/><path d="M-323,-30L-38,-30L-38,-315Z" fill="#dbe9f6" stroke="#dbe9f6" stroke-width="1.51"/><path d="M-323,-315L-323,-30L-38,-315Z" fill="#e3eef8" stroke="#e3eef8" stroke-width="1.51"/></svg>