<svg xmlns="http://www.w3.org/2000/svg" width="1920" height="1080"><path d="M1980,1260L2100,1260L2100,1140Z" fill="#708fd7" stroke="#708fd7" stroke-width="1.51"/><path d="M1980,1140L1980,1260L2100,1140Z" fill="#6760ea" stroke="#6760ea" stroke-width="1.51"/><path d="M1980,1140L2100,1140L2100,1020Z" fill="#6667e7" stroke="#6667e7" stroke-width="1.51"/><path d="M1980,1020L1980,1140L2100,1020Z" fill="#5c53ee" stroke="#5c53ee" stroke-width="1.51"/><path d="M1980,1020L2100,1020L2100,900Z" fill="#6168e7" stroke="#6168e7" stroke-width="1.51"/><path d="M1980,900L1980,1020L2100,900Z" fill="#5859ee" stroke="#5859ee" stroke-width="1.51"/><path d="M1980,900L2100,900L2100,780Z" fill="#5d72e7" stroke="#5d72e7" stroke-width="1.51"/><path d="M1980,780L1980,900L2100,780Z" fill="#5564ee" stroke="#5564ee" stroke-width="1.51"/><path d="M1980,780L2100,780L2100,660Z" fill="#5a7fe7" stroke="#5a7fe7" stroke-width="1.51"/><path d="M1980,660L1980,780L2100,660Z" fill="#5371ee" stroke="#5371ee" stroke-width="1.51"/><path d="M1980,660L2100,660L2100,540Z" fill="#568ee6" stroke="#568ee6" stroke-width="1.51"/><path d="M1980,540L1980,660L2100,540Z" fill="#5383ed" stroke="#5383ed" stroke-width="1.51"/><path d="M1980,540L2100,540L2100,420Z" fill="#549ee6" stroke="#549ee6" stroke-width="1.51"/><path d="M1980,420L1980,540L2100,420Z" fill="#5492ed" stroke="#5492ed" stroke-width="1.51"/><path d="M1980,420L2100,420L2100,300Z" fill="#53ade6" stroke="#53ade6" stroke-width="1.51"/><path d="M1980,300L1980,420L2100,300Z" fill="#569fed" stroke="#569fed" stroke-width="1.51"/><path d="M1980,300L2100,300L2100,180Z" fill="#54b7e6" stroke="#54b7e6" stroke-width="1.51"/><path d="M1980,180L1980,300L2100,180Z" fill="#58aaed" stroke="#58aaed" stroke-width="1.51"/><path d="M1980,180L2100,180L2100,60Z" fill="#56c4e6" stroke="#56c4e6" stroke-width="1.51"/><path d="M1980,60L1980,180L2100,60Z" fill="#5db7ee" stroke="#5db7ee" stroke-width="1.51"/><path d="M1980,60L2100,60L2100,-60Z" fill="#58cee0" stroke="#58cee0" stroke-width="1.51"/><path d="M1980,-60L1980,60L2100,-60Z" fill="#60bfe5" stroke="#60bfe5" stroke-width="1.51"/><path d="M1980,-60L2100,-60L2100,-180Z" fill="#67d3d8" stroke="#67d3d8" stroke-width="1.51"/><path d="M1980,-180L1980,-60L2100,-180Z" fill="#87c1e4" stroke="#87c1e4" stroke-width="1.51"/><path d="M1860,1260L1980,1260L1980,1140Z" fill="#6357ed" stroke="#6357ed" stroke-width="1.51"/><path d="M1860,1140L1860,1260L1980,1140Z" fill="#4823fb" stroke="#4823fb" stroke-width="1.51"/><path d="M1860,1140L1980,1140L1980,1020Z" fill="#411ffc" stroke="#411ffc" stroke-width="1.51"/><path d="M1860,1020L1860,1140L1980,1020Z" fill="#2e00ff" stroke="#2e00ff" stroke-width="1.51"/><path d="M1860,1020L1980,1020L1980,900Z" fill="#3824fc" stroke="#3824fc" stroke-width="1.51"/><path d="M1860,900L1860,1020L1980,900Z" fill="#2717ff" stroke="#2717ff" stroke-width="1.51"/><path d="M1860,900L1980,900L1980,780Z" fill="#3835fb" stroke="#3835fb" stroke-width="1.51"/><path d="M1860,780L1860,900L1980,780Z" fill="#292dff" stroke="#292dff" stroke-width="1.51"/><path d="M1860,780L1980,780L1980,660Z" fill="#3945fc" stroke="#3945fc" stroke-width="1.51"/><path d="M1860,660L1860,780L1980,660Z" fill="#2c3fff" stroke="#2c3fff" stroke-width="1.51"/><path d="M1860,660L1980,660L1980,540Z" fill="#3e57fc" stroke="#3e57fc" stroke-width="1.51"/><path d="M1860,540L1860,660L1980,540Z" fill="#3654ff" stroke="#3654ff" stroke-width="1.51"/><path d="M1860,540L1980,540L1980,420Z" fill="#4469fc" stroke="#4469fc" stroke-width="1.51"/><path d="M1860,420L1860,540L1980,420Z" fill="#3f64ff" stroke="#3f64ff" stroke-width="1.51"/><path d="M1860,420L1980,420L1980,300Z" fill="#4b78fc" stroke="#4b78fc" stroke-width="1.51"/><path d="M1860,300L1860,420L1980,300Z" fill="#4872ff" stroke="#4872ff" stroke-width="1.51"/><path d="M1860,300L1980,300L1980,180Z" fill="#5182fc" stroke="#5182fc" stroke-width="1.51"/><path d="M1860,180L1860,300L1980,180Z" fill="#4f7dff" stroke="#4f7dff" stroke-width="1.51"/><path d="M1860,180L1980,180L1980,60Z" fill="#598ffd" stroke="#598ffd" stroke-width="1.51"/><path d="M1860,60L1860,180L1980,60Z" fill="#598aff" stroke="#598aff" stroke-width="1.51"/><path d="M1860,60L1980,60L1980,-60Z" fill="#6199f8" stroke="#6199f8" stroke-width="1.51"/><path d="M1860,-60L1860,60L1980,-60Z" fill="#6292f8" stroke="#6292f8" stroke-width="1.51"/><path d="M1860,-60L1980,-60L1980,-180Z" fill="#719df0" stroke="#719df0" stroke-width="1.51"/><path d="M1860,-180L1860,-60L1980,-180Z" fill="#8792f8" stroke="#8792f8" stroke-width="1.51"/><path d="M1740,1260L1860,1260L1860,1140Z" fill="#5b4cf0" stroke="#5b4cf0" stroke-width="1.51"/><path d="M1740,1140L1740,1260L1860,1140Z" fill="#4123fb" stroke="#4123fb" stroke-width="1.51"/><path d="M1740,1140L1860,1140L1860,1020Z" fill="#2d00ff" stroke="#2d00ff" stroke-width="1.51"/><path d="M1740,1020L1740,1140L1860,1020Z" fill="#2300ff" stroke="#2300ff" stroke-width="1.51"/><path d="M1740,1020L1860,1020L1860,900Z" fill="#1f0cff" stroke="#1f0cff" stroke-width="1.51"/><path d="M1740,900L1740,1020L1860,900Z" fill="#1a17ff" stroke="#1a17ff" stroke-width="1.51"/><path d="M1740,900L1860,900L1860,780Z" fill="#1f26ff" stroke="#1f26ff" stroke-width="1.51"/><path d="M1740,780L1740,900L1860,780Z" fill="#1c2dff" stroke="#1c2dff" stroke-width="1.51"/><path d="M1740,780L1860,780L1860,660Z" fill="#2439ff" stroke="#2439ff" stroke-width="1.51"/><path d="M1740,660L1740,780L1860,660Z" fill="#213fff" stroke="#213fff" stroke-width="1.51"/><path d="M1740,660L1860,660L1860,540Z" fill="#2d4dff" stroke="#2d4dff" stroke-width="1.51"/><path d="M1740,540L1740,660L1860,540Z" fill="#2d53ff" stroke="#2d53ff" stroke-width="1.51"/><path d="M1740,540L1860,540L1860,420Z" fill="#375fff" stroke="#375fff" stroke-width="1.51"/><path d="M1740,420L1740,540L1860,420Z" fill="#3864ff" stroke="#3864ff" stroke-width="1.51"/><path d="M1740,420L1860,420L1860,300Z" fill="#416eff" stroke="#416eff" stroke-width="1.51"/><path d="M1740,300L1740,420L1860,300Z" fill="#4171ff" stroke="#4171ff" stroke-width="1.51"/><path d="M1740,300L1860,300L1860,180Z" fill="#4978ff" stroke="#4978ff" stroke-width="1.51"/><path d="M1740,180L1740,300L1860,180Z" fill="#497cff" stroke="#497cff" stroke-width="1.51"/><path d="M1740,180L1860,180L1860,60Z" fill="#5385ff" stroke="#5385ff" stroke-width="1.51"/><path d="M1740,60L1740,180L1860,60Z" fill="#5489ff" stroke="#5489ff" stroke-width="1.51"/><path d="M1740,60L1860,60L1860,-60Z" fill="#5c8ffc" stroke="#5c8ffc" stroke-width="1.51"/><path d="M1740,-60L1740,60L1860,-60Z" fill="#5d91f8" stroke="#5d91f8" stroke-width="1.51"/><path d="M1740,-60L1860,-60L1860,-180Z" fill="#6d93f4" stroke="#6d93f4" stroke-width="1.51"/><path d="M1740,-180L1740,-60L1860,-180Z" fill="#8491f8" stroke="#8491f8" stroke-width="1.51"/><path d="M1620,1260L1740,1260L1740,1140Z" fill="#564bf0" stroke="#564bf0" stroke-width="1.51"/><path d="M1620,1140L1620,1260L1740,1140Z" fill="#3c25fb" stroke="#3c25fb" stroke-width="1.51"/><path d="M1620,1140L1740,1140L1740,1020Z" fill="#2100ff" stroke="#2100ff" stroke-width="1.51"/><path d="M1620,1020L1620,1140L1740,1020Z" fill="#1705ff" stroke="#1705ff" stroke-width="1.51"/><path d="M1620,1020L1740,1020L1740,900Z" fill="#0b0bff" stroke="#0b0bff" stroke-width="1.51"/><path d="M1620,900L1620,1020L1740,900Z" fill="#061aff" stroke="#061aff" stroke-width="1.51"/><path d="M1620,900L1740,900L1740,780Z" fill="#0b26ff" stroke="#0b26ff" stroke-width="1.51"/><path d="M1620,780L1620,900L1740,780Z" fill="#0a2eff" stroke="#0a2eff" stroke-width="1.51"/><path d="M1620,780L1740,780L1740,660Z" fill="#1439ff" stroke="#1439ff" stroke-width="1.51"/><path d="M1620,660L1620,780L1740,660Z" fill="#133fff" stroke="#133fff" stroke-width="1.51"/><path d="M1620,660L1740,660L1740,540Z" fill="#224cff" stroke="#224cff" stroke-width="1.51"/><path d="M1620,540L1620,660L1740,540Z" fill="#2354ff" stroke="#2354ff" stroke-width="1.51"/><path d="M1620,540L1740,540L1740,420Z" fill="#2e5eff" stroke="#2e5eff" stroke-width="1.51"/><path d="M1620,420L1620,540L1740,420Z" fill="#3064ff" stroke="#3064ff" stroke-width="1.51"/><path d="M1620,420L1740,420L1740,300Z" fill="#3a6dff" stroke="#3a6dff" stroke-width="1.51"/><path d="M1620,300L1620,420L1740,300Z" fill="#3b71ff" stroke="#3b71ff" stroke-width="1.51"/><path d="M1620,300L1740,300L1740,180Z" fill="#4277ff" stroke="#4277ff" stroke-width="1.51"/><path d="M1620,180L1620,300L1740,180Z" fill="#447cff" stroke="#447cff" stroke-width="1.51"/><path d="M1620,180L1740,180L1740,60Z" fill="#4d84ff" stroke="#4d84ff" stroke-width="1.51"/><path d="M1620,60L1620,180L1740,60Z" fill="#4f89ff" stroke="#4f89ff" stroke-width="1.51"/><path d="M1620,60L1740,60L1740,-60Z" fill="#578efc" stroke="#578efc" stroke-width="1.51"/><path d="M1620,-60L1620,60L1740,-60Z" fill="#5991f8" stroke="#5991f8" stroke-width="1.51"/><path d="M1620,-60L1740,-60L1740,-180Z" fill="#6992f4" stroke="#6992f4" stroke-width="1.51"/><path d="M1620,-180L1620,-60L1740,-180Z" fill="#8191f8" stroke="#8191f8" stroke-width="1.51"/><path d="M1500,1260L1620,1260L1620,1140Z" fill="#5451f0" stroke="#5451f0" stroke-width="1.51"/><path d="M1500,1140L1500,1260L1620,1140Z" fill="#3b30fb" stroke="#3b30fb" stroke-width="1.51"/><path d="M1500,1140L1620,1140L1620,1020Z" fill="#2017ff" stroke="#2017ff" stroke-width="1.51"/><path d="M1500,1020L1500,1140L1620,1020Z" fill="#171cff" stroke="#171cff" stroke-width="1.51"/><path d="M1500,1020L1620,1020L1620,900Z" fill="#061cff" stroke="#061cff" stroke-width="1.51"/><path d="M1500,900L1500,1020L1620,900Z" fill="#0628ff" stroke="#0628ff" stroke-width="1.51"/><path d="M1500,900L1620,900L1620,780Z" fill="#052fff" stroke="#052fff" stroke-width="1.51"/><path d="M1500,780L1500,900L1620,780Z" fill="#0738ff" stroke="#0738ff" stroke-width="1.51"/><path d="M1500,780L1620,780L1620,660Z" fill="#0d40ff" stroke="#0d40ff" stroke-width="1.51"/><path d="M1500,660L1500,780L1620,660Z" fill="#0d48ff" stroke="#0d48ff" stroke-width="1.51"/><path d="M1500,660L1620,660L1620,540Z" fill="#1c52ff" stroke="#1c52ff" stroke-width="1.51"/><path d="M1500,540L1500,660L1620,540Z" fill="#1f5bff" stroke="#1f5bff" stroke-width="1.51"/><path d="M1500,540L1620,540L1620,420Z" fill="#2863ff" stroke="#2863ff" stroke-width="1.51"/><path d="M1500,420L1500,540L1620,420Z" fill="#2b6bff" stroke="#2b6bff" stroke-width="1.51"/><path d="M1500,420L1620,420L1620,300Z" fill="#3472ff" stroke="#3472ff" stroke-width="1.51"/><path d="M1500,300L1500,420L1620,300Z" fill="#3678ff" stroke="#3678ff" stroke-width="1.51"/><path d="M1500,300L1620,300L1620,180Z" fill="#3d7dff" stroke="#3d7dff" stroke-width="1.51"/><path d="M1500,180L1500,300L1620,180Z" fill="#3f83ff" stroke="#3f83ff" stroke-width="1.51"/><path d="M1500,180L1620,180L1620,60Z" fill="#4889ff" stroke="#4889ff" stroke-width="1.51"/><path d="M1500,60L1500,180L1620,60Z" fill="#4a90ff" stroke="#4a90ff" stroke-width="1.51"/><path d="M1500,60L1620,60L1620,-60Z" fill="#5394fc" stroke="#5394fc" stroke-width="1.51"/><path d="M1500,-60L1500,60L1620,-60Z" fill="#5497f8" stroke="#5497f8" stroke-width="1.51"/><path d="M1500,-60L1620,-60L1620,-180Z" fill="#6597f4" stroke="#6597f4" stroke-width="1.51"/><path d="M1500,-180L1500,-60L1620,-180Z" fill="#7e98f8" stroke="#7e98f8" stroke-width="1.51"/><path d="M1380,1260L1500,1260L1500,1140Z" fill="#5259f0" stroke="#5259f0" stroke-width="1.51"/><path d="M1380,1140L1380,1260L1500,1140Z" fill="#3b3afb" stroke="#3b3afb" stroke-width="1.51"/><path d="M1380,1140L1500,1140L1500,1020Z" fill="#2025ff" stroke="#2025ff" stroke-width="1.51"/><path d="M1380,1020L1380,1140L1500,1020Z" fill="#1829ff" stroke="#1829ff" stroke-width="1.51"/><path d="M1380,1020L1500,1020L1500,900Z" fill="#0629ff" stroke="#0629ff" stroke-width="1.51"/><path d="M1380,900L1380,1020L1500,900Z" fill="#0632ff" stroke="#0632ff" stroke-width="1.51"/><path d="M1380,900L1500,900L1500,780Z" fill="#0239ff" stroke="#0239ff" stroke-width="1.51"/><path d="M1380,780L1380,900L1500,780Z" fill="#0341ff" stroke="#0341ff" stroke-width="1.51"/><path d="M1380,780L1500,780L1500,660Z" fill="#0748ff" stroke="#0748ff" stroke-width="1.51"/><path d="M1380,660L1380,780L1500,660Z" fill="#064fff" stroke="#064fff" stroke-width="1.51"/><path d="M1380,660L1500,660L1500,540Z" fill="#1659ff" stroke="#1659ff" stroke-width="1.51"/><path d="M1380,540L1380,660L1500,540Z" fill="#1962ff" stroke="#1962ff" stroke-width="1.51"/><path d="M1380,540L1500,540L1500,420Z" fill="#236aff" stroke="#236aff" stroke-width="1.51"/><path d="M1380,420L1380,540L1500,420Z" fill="#2672ff" stroke="#2672ff" stroke-width="1.51"/><path d="M1380,420L1500,420L1500,300Z" fill="#2f79ff" stroke="#2f79ff" stroke-width="1.51"/><path d="M1380,300L1380,420L1500,300Z" fill="#307fff" stroke="#307fff" stroke-width="1.51"/><path d="M1380,300L1500,300L1500,180Z" fill="#3883ff" stroke="#3883ff" stroke-width="1.51"/><path d="M1380,180L1380,300L1500,180Z" fill="#3989ff" stroke="#3989ff" stroke-width="1.51"/><path d="M1380,180L1500,180L1500,60Z" fill="#4390ff" stroke="#4390ff" stroke-width="1.51"/><path d="M1380,60L1380,180L1500,60Z" fill="#4596ff" stroke="#4596ff" stroke-width="1.51"/><path d="M1380,60L1500,60L1500,-60Z" fill="#4e9afc" stroke="#4e9afc" stroke-width="1.51"/><path d="M1380,-60L1380,60L1500,-60Z" fill="#4f9ef8" stroke="#4f9ef8" stroke-width="1.51"/><path d="M1380,-60L1500,-60L1500,-180Z" fill="#619ef3" stroke="#619ef3" stroke-width="1.51"/><path d="M1380,-180L1380,-60L1500,-180Z" fill="#7b9ff7" stroke="#7b9ff7" stroke-width="1.51"/><path d="M1260,1260L1380,1260L1380,1140Z" fill="#5161f0" stroke="#5161f0" stroke-width="1.51"/><path d="M1260,1140L1260,1260L1380,1140Z" fill="#3c45fb" stroke="#3c45fb" stroke-width="1.51"/><path d="M1260,1140L1380,1140L1380,1020Z" fill="#2232ff" stroke="#2232ff" stroke-width="1.51"/><path d="M1260,1020L1260,1140L1380,1020Z" fill="#1c36ff" stroke="#1c36ff" stroke-width="1.51"/><path d="M1260,1020L1380,1020L1380,900Z" fill="#0c35ff" stroke="#0c35ff" stroke-width="1.51"/><path d="M1260,900L1260,1020L1380,900Z" fill="#0c3eff" stroke="#0c3eff" stroke-width="1.51"/><path d="M1260,900L1380,900L1380,780Z" fill="#0542ff" stroke="#0542ff" stroke-width="1.51"/><path d="M1260,780L1260,900L1380,780Z" fill="#064bff" stroke="#064bff" stroke-width="1.51"/><path d="M1260,780L1380,780L1380,660Z" fill="#0651ff" stroke="#0651ff" stroke-width="1.51"/><path d="M1260,660L1260,780L1380,660Z" fill="#0459ff" stroke="#0459ff" stroke-width="1.51"/><path d="M1260,660L1380,660L1380,540Z" fill="#1261ff" stroke="#1261ff" stroke-width="1.51"/><path d="M1260,540L1260,660L1380,540Z" fill="#136bff" stroke="#136bff" stroke-width="1.51"/><path d="M1260,540L1380,540L1380,420Z" fill="#1d72ff" stroke="#1d72ff" stroke-width="1.51"/><path d="M1260,420L1260,540L1380,420Z" fill="#207aff" stroke="#207aff" stroke-width="1.51"/><path d="M1260,420L1380,420L1380,300Z" fill="#2981ff" stroke="#2981ff" stroke-width="1.51"/><path d="M1260,300L1260,420L1380,300Z" fill="#2a87ff" stroke="#2a87ff" stroke-width="1.51"/><path d="M1260,300L1380,300L1380,180Z" fill="#328aff" stroke="#328aff" stroke-width="1.51"/><path d="M1260,180L1260,300L1380,180Z" fill="#3391ff" stroke="#3391ff" stroke-width="1.51"/><path d="M1260,180L1380,180L1380,60Z" fill="#3d97ff" stroke="#3d97ff" stroke-width="1.51"/><path d="M1260,60L1260,180L1380,60Z" fill="#3e9eff" stroke="#3e9eff" stroke-width="1.51"/><path d="M1260,60L1380,60L1380,-60Z" fill="#48a1fb" stroke="#48a1fb" stroke-width="1.51"/><path d="M1260,-60L1260,60L1380,-60Z" fill="#49a6f8" stroke="#49a6f8" stroke-width="1.51"/><path d="M1260,-60L1380,-60L1380,-180Z" fill="#5da5f3" stroke="#5da5f3" stroke-width="1.51"/><path d="M1260,-180L1260,-60L1380,-180Z" fill="#77a7f7" stroke="#77a7f7" stroke-width="1.51"/><path d="M1140,1260L1260,1260L1260,1140Z" fill="#506af0" stroke="#506af0" stroke-width="1.51"/><path d="M1140,1140L1140,1260L1260,1140Z" fill="#3d4ffb" stroke="#3d4ffb" stroke-width="1.51"/><path d="M1140,1140L1260,1140L1260,1020Z" fill="#253eff" stroke="#253eff" stroke-width="1.51"/><path d="M1140,1020L1140,1140L1260,1020Z" fill="#2042ff" stroke="#2042ff" stroke-width="1.51"/><path d="M1140,1020L1260,1020L1260,900Z" fill="#1140ff" stroke="#1140ff" stroke-width="1.51"/><path d="M1140,900L1140,1020L1260,900Z" fill="#1248ff" stroke="#1248ff" stroke-width="1.51"/><path d="M1140,900L1260,900L1260,780Z" fill="#074cff" stroke="#074cff" stroke-width="1.51"/><path d="M1140,780L1140,900L1260,780Z" fill="#0954ff" stroke="#0954ff" stroke-width="1.51"/><path d="M1140,780L1260,780L1260,660Z" fill="#045aff" stroke="#045aff" stroke-width="1.51"/><path d="M1140,660L1140,780L1260,660Z" fill="#0362ff" stroke="#0362ff" stroke-width="1.51"/><path d="M1140,660L1260,660L1260,540Z" fill="#0b6aff" stroke="#0b6aff" stroke-width="1.51"/><path d="M1140,540L1140,660L1260,540Z" fill="#0d73ff" stroke="#0d73ff" stroke-width="1.51"/><path d="M1140,540L1260,540L1260,420Z" fill="#167aff" stroke="#167aff" stroke-width="1.51"/><path d="M1140,420L1140,540L1260,420Z" fill="#1982ff" stroke="#1982ff" stroke-width="1.51"/><path d="M1140,420L1260,420L1260,300Z" fill="#2189ff" stroke="#2189ff" stroke-width="1.51"/><path d="M1140,300L1140,420L1260,300Z" fill="#238fff" stroke="#238fff" stroke-width="1.51"/><path d="M1140,300L1260,300L1260,180Z" fill="#2b92ff" stroke="#2b92ff" stroke-width="1.51"/><path d="M1140,180L1140,300L1260,180Z" fill="#2b9aff" stroke="#2b9aff" stroke-width="1.51"/><path d="M1140,180L1260,180L1260,60Z" fill="#369fff" stroke="#369fff" stroke-width="1.51"/><path d="M1140,60L1140,180L1260,60Z" fill="#37a7ff" stroke="#37a7ff" stroke-width="1.51"/><path d="M1140,60L1260,60L1260,-60Z" fill="#41a9fb" stroke="#41a9fb" stroke-width="1.51"/><path d="M1140,-60L1140,60L1260,-60Z" fill="#42aef7" stroke="#42aef7" stroke-width="1.51"/><path d="M1140,-60L1260,-60L1260,-180Z" fill="#58adf3" stroke="#58adf3" stroke-width="1.51"/><path d="M1140,-180L1140,-60L1260,-180Z" fill="#74b0f7" stroke="#74b0f7" stroke-width="1.51"/><path d="M1020,1260L1140,1260L1140,1140Z" fill="#5075f0" stroke="#5075f0" stroke-width="1.51"/><path d="M1020,1140L1020,1260L1140,1140Z" fill="#415cfb" stroke="#415cfb" stroke-width="1.51"/><path d="M1020,1140L1140,1140L1140,1020Z" fill="#2c4bff" stroke="#2c4bff" stroke-width="1.51"/><path d="M1020,1020L1020,1140L1140,1020Z" fill="#294fff" stroke="#294fff" stroke-width="1.51"/><path d="M1020,1020L1140,1020L1140,900Z" fill="#1d4dff" stroke="#1d4dff" stroke-width="1.51"/><path d="M1020,900L1020,1020L1140,900Z" fill="#1e55ff" stroke="#1e55ff" stroke-width="1.51"/><path d="M1020,900L1140,900L1140,780Z" fill="#1458ff" stroke="#1458ff" stroke-width="1.51"/><path d="M1020,780L1020,900L1140,780Z" fill="#1660ff" stroke="#1660ff" stroke-width="1.51"/><path d="M1020,780L1140,780L1140,660Z" fill="#0e65ff" stroke="#0e65ff" stroke-width="1.51"/><path d="M1020,660L1020,780L1140,660Z" fill="#0c6dff" stroke="#0c6dff" stroke-width="1.51"/><path d="M1020,660L1140,660L1140,540Z" fill="#0d75ff" stroke="#0d75ff" stroke-width="1.51"/><path d="M1020,540L1020,660L1140,540Z" fill="#0c7fff" stroke="#0c7fff" stroke-width="1.51"/><path d="M1020,540L1140,540L1140,420Z" fill="#1185ff" stroke="#1185ff" stroke-width="1.51"/><path d="M1020,420L1020,540L1140,420Z" fill="#138eff" stroke="#138eff" stroke-width="1.51"/><path d="M1020,420L1140,420L1140,300Z" fill="#1b93ff" stroke="#1b93ff" stroke-width="1.51"/><path d="M1020,300L1020,420L1140,300Z" fill="#1b9aff" stroke="#1b9aff" stroke-width="1.51"/><path d="M1020,300L1140,300L1140,180Z" fill="#249dff" stroke="#249dff" stroke-width="1.51"/><path d="M1020,180L1020,300L1140,180Z" fill="#23a5ff" stroke="#23a5ff" stroke-width="1.51"/><path d="M1020,180L1140,180L1140,60Z" fill="#2faaff" stroke="#2faaff" stroke-width="1.51"/><path d="M1020,60L1020,180L1140,60Z" fill="#2fb2ff" stroke="#2fb2ff" stroke-width="1.51"/><path d="M1020,60L1140,60L1140,-60Z" fill="#3ab4fb" stroke="#3ab4fb" stroke-width="1.51"/><path d="M1020,-60L1020,60L1140,-60Z" fill="#3ab9f7" stroke="#3ab9f7" stroke-width="1.51"/><path d="M1020,-60L1140,-60L1140,-180Z" fill="#52b8f2" stroke="#52b8f2" stroke-width="1.51"/><path d="M1020,-180L1020,-60L1140,-180Z" fill="#71bbf6" stroke="#71bbf6" stroke-width="1.51"/><path d="M900,1260L1020,1260L1020,1140Z" fill="#5080f0" stroke="#5080f0" stroke-width="1.51"/><path d="M900,1140L900,1260L1020,1140Z" fill="#4468fb" stroke="#4468fb" stroke-width="1.51"/><path d="M900,1140L1020,1140L1020,1020Z" fill="#3257ff" stroke="#3257ff" stroke-width="1.51"/><path d="M900,1020L900,1140L1020,1020Z" fill="#305bff" stroke="#305bff" stroke-width="1.51"/><path d="M900,1020L1020,1020L1020,900Z" fill="#2459ff" stroke="#2459ff" stroke-width="1.51"/><path d="M900,900L900,1020L1020,900Z" fill="#2560ff" stroke="#2560ff" stroke-width="1.51"/><path d="M900,900L1020,900L1020,780Z" fill="#1c64ff" stroke="#1c64ff" stroke-width="1.51"/><path d="M900,780L900,900L1020,780Z" fill="#1c6bff" stroke="#1c6bff" stroke-width="1.51"/><path d="M900,780L1020,780L1020,660Z" fill="#1370ff" stroke="#1370ff" stroke-width="1.51"/><path d="M900,660L900,780L1020,660Z" fill="#1078ff" stroke="#1078ff" stroke-width="1.51"/><path d="M900,660L1020,660L1020,540Z" fill="#0b80ff" stroke="#0b80ff" stroke-width="1.51"/><path d="M900,540L900,660L1020,540Z" fill="#0889ff" stroke="#0889ff" stroke-width="1.51"/><path d="M900,540L1020,540L1020,420Z" fill="#0790ff" stroke="#0790ff" stroke-width="1.51"/><path d="M900,420L900,540L1020,420Z" fill="#0898ff" stroke="#0898ff" stroke-width="1.51"/><path d="M900,420L1020,420L1020,300Z" fill="#0e9eff" stroke="#0e9eff" stroke-width="1.51"/><path d="M900,300L900,420L1020,300Z" fill="#0fa5ff" stroke="#0fa5ff" stroke-width="1.51"/><path d="M900,300L1020,300L1020,180Z" fill="#18a8ff" stroke="#18a8ff" stroke-width="1.51"/><path d="M900,180L900,300L1020,180Z" fill="#18afff" stroke="#18afff" stroke-width="1.51"/><path d="M900,180L1020,180L1020,60Z" fill="#24b5ff" stroke="#24b5ff" stroke-width="1.51"/><path d="M900,60L900,180L1020,60Z" fill="#24bcff" stroke="#24bcff" stroke-width="1.51"/><path d="M900,60L1020,60L1020,-60Z" fill="#2fbffa" stroke="#2fbffa" stroke-width="1.51"/><path d="M900,-60L900,60L1020,-60Z" fill="#30c4f7" stroke="#30c4f7" stroke-width="1.51"/><path d="M900,-60L1020,-60L1020,-180Z" fill="#4bc3f2" stroke="#4bc3f2" stroke-width="1.51"/><path d="M900,-180L900,-60L1020,-180Z" fill="#6dc6f6" stroke="#6dc6f6" stroke-width="1.51"/><path d="M780,1260L900,1260L900,1140Z" fill="#528af0" stroke="#528af0" stroke-width="1.51"/><path d="M780,1140L780,1260L900,1140Z" fill="#4972fb" stroke="#4972fb" stroke-width="1.51"/><path d="M780,1140L900,1140L900,1020Z" fill="#3962ff" stroke="#3962ff" stroke-width="1.51"/><path d="M780,1020L780,1140L900,1020Z" fill="#3865ff" stroke="#3865ff" stroke-width="1.51"/><path d="M780,1020L900,1020L900,900Z" fill="#2e63ff" stroke="#2e63ff" stroke-width="1.51"/><path d="M780,900L780,1020L900,900Z" fill="#2e6aff" stroke="#2e6aff" stroke-width="1.51"/><path d="M780,900L900,900L900,780Z" fill="#256eff" stroke="#256eff" stroke-width="1.51"/><path d="M780,780L780,900L900,780Z" fill="#2675ff" stroke="#2675ff" stroke-width="1.51"/><path d="M780,780L900,780L900,660Z" fill="#1c7aff" stroke="#1c7aff" stroke-width="1.51"/><path d="M780,660L780,780L900,660Z" fill="#1b81ff" stroke="#1b81ff" stroke-width="1.51"/><path d="M780,660L900,660L900,540Z" fill="#1389ff" stroke="#1389ff" stroke-width="1.51"/><path d="M780,540L780,660L900,540Z" fill="#1093ff" stroke="#1093ff" stroke-width="1.51"/><path d="M780,540L900,540L900,420Z" fill="#0899ff" stroke="#0899ff" stroke-width="1.51"/><path d="M780,420L780,540L900,420Z" fill="#0aa1ff" stroke="#0aa1ff" stroke-width="1.51"/><path d="M780,420L900,420L900,300Z" fill="#08a7ff" stroke="#08a7ff" stroke-width="1.51"/><path d="M780,300L780,420L900,300Z" fill="#0aaeff" stroke="#0aaeff" stroke-width="1.51"/><path d="M780,300L900,300L900,180Z" fill="#11b1ff" stroke="#11b1ff" stroke-width="1.51"/><path d="M780,180L780,300L900,180Z" fill="#11b9ff" stroke="#11b9ff" stroke-width="1.51"/><path d="M780,180L900,180L900,60Z" fill="#1dbeff" stroke="#1dbeff" stroke-width="1.51"/><path d="M780,60L780,180L900,60Z" fill="#1dc6ff" stroke="#1dc6ff" stroke-width="1.51"/><path d="M780,60L900,60L900,-60Z" fill="#28c8fa" stroke="#28c8fa" stroke-width="1.51"/><path d="M780,-60L780,60L900,-60Z" fill="#29cdf6" stroke="#29cdf6" stroke-width="1.51"/><path d="M780,-60L900,-60L900,-180Z" fill="#47cdf2" stroke="#47cdf2" stroke-width="1.51"/><path d="M780,-180L780,-60L900,-180Z" fill="#6cd0f6" stroke="#6cd0f6" stroke-width="1.51"/><path d="M660,1260L780,1260L780,1140Z" fill="#5393f0" stroke="#5393f0" stroke-width="1.51"/><path d="M660,1140L660,1260L780,1140Z" fill="#4d7afc" stroke="#4d7afc" stroke-width="1.51"/><path d="M660,1140L780,1140L780,1020Z" fill="#406cff" stroke="#406cff" stroke-width="1.51"/><path d="M660,1020L660,1140L780,1020Z" fill="#3e6eff" stroke="#3e6eff" stroke-width="1.51"/><path d="M660,1020L780,1020L780,900Z" fill="#356dff" stroke="#356dff" stroke-width="1.51"/><path d="M660,900L660,1020L780,900Z" fill="#3573ff" stroke="#3573ff" stroke-width="1.51"/><path d="M660,900L780,900L780,780Z" fill="#2d77ff" stroke="#2d77ff" stroke-width="1.51"/><path d="M660,780L660,900L780,780Z" fill="#2c7eff" stroke="#2c7eff" stroke-width="1.51"/><path d="M660,780L780,780L780,660Z" fill="#2483ff" stroke="#2483ff" stroke-width="1.51"/><path d="M660,660L660,780L780,660Z" fill="#218aff" stroke="#218aff" stroke-width="1.51"/><path d="M660,660L780,660L780,540Z" fill="#1993ff" stroke="#1993ff" stroke-width="1.51"/><path d="M660,540L660,660L780,540Z" fill="#149bff" stroke="#149bff" stroke-width="1.51"/><path d="M660,540L780,540L780,420Z" fill="#09a2ff" stroke="#09a2ff" stroke-width="1.51"/><path d="M660,420L660,540L780,420Z" fill="#08aaff" stroke="#08aaff" stroke-width="1.51"/><path d="M660,420L780,420L780,300Z" fill="#02b1ff" stroke="#02b1ff" stroke-width="1.51"/><path d="M660,300L660,420L780,300Z" fill="#03b7ff" stroke="#03b7ff" stroke-width="1.51"/><path d="M660,300L780,300L780,180Z" fill="#07bbff" stroke="#07bbff" stroke-width="1.51"/><path d="M660,180L660,300L780,180Z" fill="#06c1ff" stroke="#06c1ff" stroke-width="1.51"/><path d="M660,180L780,180L780,60Z" fill="#13c8ff" stroke="#13c8ff" stroke-width="1.51"/><path d="M660,60L660,180L780,60Z" fill="#13cfff" stroke="#13cfff" stroke-width="1.51"/><path d="M660,60L780,60L780,-60Z" fill="#1fd2fa" stroke="#1fd2fa" stroke-width="1.51"/><path d="M660,-60L660,60L780,-60Z" fill="#20d6f6" stroke="#20d6f6" stroke-width="1.51"/><path d="M660,-60L780,-60L780,-180Z" fill="#42d6f1" stroke="#42d6f1" stroke-width="1.51"/><path d="M660,-180L660,-60L780,-180Z" fill="#6ad9f5" stroke="#6ad9f5" stroke-width="1.51"/><path d="M540,1260L660,1260L660,1140Z" fill="#559bf0" stroke="#559bf0" stroke-width="1.51"/><path d="M540,1140L540,1260L660,1140Z" fill="#5181fc" stroke="#5181fc" stroke-width="1.51"/><path d="M540,1140L660,1140L660,1020Z" fill="#4573ff" stroke="#4573ff" stroke-width="1.51"/><path d="M540,1020L540,1140L660,1020Z" fill="#4475ff" stroke="#4475ff" stroke-width="1.51"/><path d="M540,1020L660,1020L660,900Z" fill="#3b74ff" stroke="#3b74ff" stroke-width="1.51"/><path d="M540,900L540,1020L660,900Z" fill="#3b7aff" stroke="#3b7aff" stroke-width="1.51"/><path d="M540,900L660,900L660,780Z" fill="#337eff" stroke="#337eff" stroke-width="1.51"/><path d="M540,780L540,900L660,780Z" fill="#3385ff" stroke="#3385ff" stroke-width="1.51"/><path d="M540,780L660,780L660,660Z" fill="#2a8aff" stroke="#2a8aff" stroke-width="1.51"/><path d="M540,660L540,780L660,660Z" fill="#2891ff" stroke="#2891ff" stroke-width="1.51"/><path d="M540,660L660,660L660,540Z" fill="#1f9aff" stroke="#1f9aff" stroke-width="1.51"/><path d="M540,540L540,660L660,540Z" fill="#1ba2ff" stroke="#1ba2ff" stroke-width="1.51"/><path d="M540,540L660,540L660,420Z" fill="#10a9ff" stroke="#10a9ff" stroke-width="1.51"/><path d="M540,420L540,540L660,420Z" fill="#0fb1ff" stroke="#0fb1ff" stroke-width="1.51"/><path d="M540,420L660,420L660,300Z" fill="#03b8ff" stroke="#03b8ff" stroke-width="1.51"/><path d="M540,300L540,420L660,300Z" fill="#05beff" stroke="#05beff" stroke-width="1.51"/><path d="M540,300L660,300L660,180Z" fill="#05c2ff" stroke="#05c2ff" stroke-width="1.51"/><path d="M540,180L540,300L660,180Z" fill="#04c8ff" stroke="#04c8ff" stroke-width="1.51"/><path d="M540,180L660,180L660,60Z" fill="#0ecfff" stroke="#0ecfff" stroke-width="1.51"/><path d="M540,60L540,180L660,60Z" fill="#0ed6ff" stroke="#0ed6ff" stroke-width="1.51"/><path d="M540,60L660,60L660,-60Z" fill="#19d9fa" stroke="#19d9fa" stroke-width="1.51"/><path d="M540,-60L540,60L660,-60Z" fill="#1bddf6" stroke="#1bddf6" stroke-width="1.51"/><path d="M540,-60L660,-60L660,-180Z" fill="#40def1" stroke="#40def1" stroke-width="1.51"/><path d="M540,-180L540,-60L660,-180Z" fill="#6ae0f5" stroke="#6ae0f5" stroke-width="1.51"/><path d="M420,1260L540,1260L540,1140Z" fill="#57a2f0" stroke="#57a2f0" stroke-width="1.51"/><path d="M420,1140L420,1260L540,1140Z" fill="#5589fc" stroke="#5589fc" stroke-width="1.51"/><path d="M420,1140L540,1140L540,1020Z" fill="#4a7aff" stroke="#4a7aff" stroke-width="1.51"/><path d="M420,1020L420,1140L540,1020Z" fill="#497cff" stroke="#497cff" stroke-width="1.51"/><path d="M420,1020L540,1020L540,900Z" fill="#417bff" stroke="#417bff" stroke-width="1.51"/><path d="M420,900L420,1020L540,900Z" fill="#4181ff" stroke="#4181ff" stroke-width="1.51"/><path d="M420,900L540,900L540,780Z" fill="#3985ff" stroke="#3985ff" stroke-width="1.51"/><path d="M420,780L420,900L540,780Z" fill="#388cff" stroke="#388cff" stroke-width="1.51"/><path d="M420,780L540,780L540,660Z" fill="#2f91ff" stroke="#2f91ff" stroke-width="1.51"/><path d="M420,660L420,780L540,660Z" fill="#2e98ff" stroke="#2e98ff" stroke-width="1.51"/><path d="M420,660L540,660L540,540Z" fill="#24a0ff" stroke="#24a0ff" stroke-width="1.51"/><path d="M420,540L420,660L540,540Z" fill="#20a9ff" stroke="#20a9ff" stroke-width="1.51"/><path d="M420,540L540,540L540,420Z" fill="#14b0ff" stroke="#14b0ff" stroke-width="1.51"/><path d="M420,420L420,540L540,420Z" fill="#13b8ff" stroke="#13b8ff" stroke-width="1.51"/><path d="M420,420L540,420L540,300Z" fill="#04bfff" stroke="#04bfff" stroke-width="1.51"/><path d="M420,300L420,420L540,300Z" fill="#06c5ff" stroke="#06c5ff" stroke-width="1.51"/><path d="M420,300L540,300L540,180Z" fill="#02c9ff" stroke="#02c9ff" stroke-width="1.51"/><path d="M420,180L420,300L540,180Z" fill="#02cfff" stroke="#02cfff" stroke-width="1.51"/><path d="M420,180L540,180L540,60Z" fill="#07d6ff" stroke="#07d6ff" stroke-width="1.51"/><path d="M420,60L420,180L540,60Z" fill="#07ddff" stroke="#07ddff" stroke-width="1.51"/><path d="M420,60L540,60L540,-60Z" fill="#13e0fa" stroke="#13e0fa" stroke-width="1.51"/><path d="M420,-60L420,60L540,-60Z" fill="#15e4f6" stroke="#15e4f6" stroke-width="1.51"/><path d="M420,-60L540,-60L540,-180Z" fill="#3de5f1" stroke="#3de5f1" stroke-width="1.51"/><path d="M420,-180L420,-60L540,-180Z" fill="#69e7f5" stroke="#69e7f5" stroke-width="1.51"/><path d="M300,1260L420,1260L420,1140Z" fill="#5baaf0" stroke="#5baaf0" stroke-width="1.51"/><path d="M300,1140L300,1260L420,1140Z" fill="#5a91fc" stroke="#5a91fc" stroke-width="1.51"/><path d="M300,1140L420,1140L420,1020Z" fill="#5183ff" stroke="#5183ff" stroke-width="1.51"/><path d="M300,1020L300,1140L420,1020Z" fill="#5085ff" stroke="#5085ff" stroke-width="1.51"/><path d="M300,1020L420,1020L420,900Z" fill="#4984ff" stroke="#4984ff" stroke-width="1.51"/><path d="M300,900L300,1020L420,900Z" fill="#488aff" stroke="#488aff" stroke-width="1.51"/><path d="M300,900L420,900L420,780Z" fill="#408eff" stroke="#408eff" stroke-width="1.51"/><path d="M300,780L300,900L420,780Z" fill="#4094ff" stroke="#4094ff" stroke-width="1.51"/><path d="M300,780L420,780L420,660Z" fill="#3799ff" stroke="#3799ff" stroke-width="1.51"/><path d="M300,660L300,780L420,660Z" fill="#36a0ff" stroke="#36a0ff" stroke-width="1.51"/><path d="M300,660L420,660L420,540Z" fill="#2ca9ff" stroke="#2ca9ff" stroke-width="1.51"/><path d="M300,540L300,660L420,540Z" fill="#28b2ff" stroke="#28b2ff" stroke-width="1.51"/><path d="M300,540L420,540L420,420Z" fill="#1db9ff" stroke="#1db9ff" stroke-width="1.51"/><path d="M300,420L300,540L420,420Z" fill="#1cc1ff" stroke="#1cc1ff" stroke-width="1.51"/><path d="M300,420L420,420L420,300Z" fill="#0ec7ff" stroke="#0ec7ff" stroke-width="1.51"/><path d="M300,300L300,420L420,300Z" fill="#0fceff" stroke="#0fceff" stroke-width="1.51"/><path d="M300,300L420,300L420,180Z" fill="#08d1ff" stroke="#08d1ff" stroke-width="1.51"/><path d="M300,180L300,300L420,180Z" fill="#06d8ff" stroke="#06d8ff" stroke-width="1.51"/><path d="M300,180L420,180L420,60Z" fill="#08deff" stroke="#08deff" stroke-width="1.51"/><path d="M300,60L300,180L420,60Z" fill="#06e6ff" stroke="#06e6ff" stroke-width="1.51"/><path d="M300,60L420,60L420,-60Z" fill="#0fe9fa" stroke="#0fe9fa" stroke-width="1.51"/><path d="M300,-60L300,60L420,-60Z" fill="#10edf6" stroke="#10edf6" stroke-width="1.51"/><path d="M300,-60L420,-60L420,-180Z" fill="#3cedf1" stroke="#3cedf1" stroke-width="1.51"/><path d="M300,-180L300,-60L420,-180Z" fill="#6af0f5" stroke="#6af0f5" stroke-width="1.51"/><path d="M180,1260L300,1260L300,1140Z" fill="#5eb3f0" stroke="#5eb3f0" stroke-width="1.51"/><path d="M180,1140L180,1260L300,1140Z" fill="#5f99fb" stroke="#5f99fb" stroke-width="1.51"/><path d="M180,1140L300,1140L300,1020Z" fill="#578bff" stroke="#578bff" stroke-width="1.51"/><path d="M180,1020L180,1140L300,1020Z" fill="#578dff" stroke="#578dff" stroke-width="1.51"/><path d="M180,1020L300,1020L300,900Z" fill="#4f8dff" stroke="#4f8dff" stroke-width="1.51"/><path d="M180,900L180,1020L300,900Z" fill="#4f92ff" stroke="#4f92ff" stroke-width="1.51"/><path d="M180,900L300,900L300,780Z" fill="#4796ff" stroke="#4796ff" stroke-width="1.51"/><path d="M180,780L180,900L300,780Z" fill="#479cff" stroke="#479cff" stroke-width="1.51"/><path d="M180,780L300,780L300,660Z" fill="#3ea2ff" stroke="#3ea2ff" stroke-width="1.51"/><path d="M180,660L180,780L300,660Z" fill="#3ca8ff" stroke="#3ca8ff" stroke-width="1.51"/><path d="M180,660L300,660L300,540Z" fill="#32b1ff" stroke="#32b1ff" stroke-width="1.51"/><path d="M180,540L180,660L300,540Z" fill="#2fb9fe" stroke="#2fb9fe" stroke-width="1.51"/><path d="M180,540L300,540L300,420Z" fill="#23c1ff" stroke="#23c1ff" stroke-width="1.51"/><path d="M180,420L180,540L300,420Z" fill="#22c9fe" stroke="#22c9fe" stroke-width="1.51"/><path d="M180,420L300,420L300,300Z" fill="#14d0ff" stroke="#14d0ff" stroke-width="1.51"/><path d="M180,300L180,420L300,300Z" fill="#15d6fe" stroke="#15d6fe" stroke-width="1.51"/><path d="M180,300L300,300L300,180Z" fill="#0cdaff" stroke="#0cdaff" stroke-width="1.51"/><path d="M180,180L180,300L300,180Z" fill="#0ae0fe" stroke="#0ae0fe" stroke-width="1.51"/><path d="M180,180L300,180L300,60Z" fill="#06e7ff" stroke="#06e7ff" stroke-width="1.51"/><path d="M180,60L180,180L300,60Z" fill="#05eefe" stroke="#05eefe" stroke-width="1.51"/><path d="M180,60L300,60L300,-60Z" fill="#07f2fa" stroke="#07f2fa" stroke-width="1.51"/><path d="M180,-60L180,60L300,-60Z" fill="#09f5f4" stroke="#09f5f4" stroke-width="1.51"/><path d="M180,-60L300,-60L300,-180Z" fill="#3af6f1" stroke="#3af6f1" stroke-width="1.51"/><path d="M180,-180L180,-60L300,-180Z" fill="#6af8f3" stroke="#6af8f3" stroke-width="1.51"/><path d="M60,1260L180,1260L180,1140Z" fill="#61b7ea" stroke="#61b7ea" stroke-width="1.51"/><path d="M60,1140L60,1260L180,1140Z" fill="#649df4" stroke="#649df4" stroke-width="1.51"/><path d="M60,1140L180,1140L180,1020Z" fill="#5d90fb" stroke="#5d90fb" stroke-width="1.51"/><path d="M60,1020L60,1140L180,1020Z" fill="#5c90f8" stroke="#5c90f8" stroke-width="1.51"/><path d="M60,1020L180,1020L180,900Z" fill="#5691fb" stroke="#5691fb" stroke-width="1.51"/><path d="M60,900L60,1020L180,900Z" fill="#5595f8" stroke="#5595f8" stroke-width="1.51"/><path d="M60,900L180,900L180,780Z" fill="#4e9bfb" stroke="#4e9bfb" stroke-width="1.51"/><path d="M60,780L60,900L180,780Z" fill="#4da0f8" stroke="#4da0f8" stroke-width="1.51"/><path d="M60,780L180,780L180,660Z" fill="#45a7fa" stroke="#45a7fa" stroke-width="1.51"/><path d="M60,660L60,780L180,660Z" fill="#43acf7" stroke="#43acf7" stroke-width="1.51"/><path d="M60,660L180,660L180,540Z" fill="#3ab6fa" stroke="#3ab6fa" stroke-width="1.51"/><path d="M60,540L60,660L180,540Z" fill="#36bdf7" stroke="#36bdf7" stroke-width="1.51"/><path d="M60,540L180,540L180,420Z" fill="#2bc6f9" stroke="#2bc6f9" stroke-width="1.51"/><path d="M60,420L60,540L180,420Z" fill="#2accf6" stroke="#2accf6" stroke-width="1.51"/><path d="M60,420L180,420L180,300Z" fill="#1ed5f9" stroke="#1ed5f9" stroke-width="1.51"/><path d="M60,300L60,420L180,300Z" fill="#1ed9f6" stroke="#1ed9f6" stroke-width="1.51"/><path d="M60,300L180,300L180,180Z" fill="#16dff9" stroke="#16dff9" stroke-width="1.51"/><path d="M60,180L60,300L180,180Z" fill="#15e4f6" stroke="#15e4f6" stroke-width="1.51"/><path d="M60,180L180,180L180,60Z" fill="#0fecf9" stroke="#0fecf9" stroke-width="1.51"/><path d="M60,60L60,180L180,60Z" fill="#0df1f6" stroke="#0df1f6" stroke-width="1.51"/><path d="M60,60L180,60L180,-60Z" fill="#0af6f3" stroke="#0af6f3" stroke-width="1.51"/><path d="M60,-60L60,60L180,-60Z" fill="#0af9ec" stroke="#0af9ec" stroke-width="1.51"/><path d="M60,-60L180,-60L180,-180Z" fill="#39fbea" stroke="#39fbea" stroke-width="1.51"/><path d="M60,-180L60,-60L180,-180Z" fill="#69fceb" stroke="#69fceb" stroke-width="1.51"/><path d="M-60,1260L60,1260L60,1140Z" fill="#63bbe3" stroke="#63bbe3" stroke-width="1.51"/><path d="M-60,1140L-60,1260L60,1140Z" fill="#709fef" stroke="#709fef" stroke-width="1.51"/><path d="M-60,1140L60,1140L60,1020Z" fill="#6294f4" stroke="#6294f4" stroke-width="1.51"/><path d="M-60,1020L-60,1140L60,1020Z" fill="#6993f4" stroke="#6993f4" stroke-width="1.51"/><path d="M-60,1020L60,1020L60,900Z" fill="#5b95f4" stroke="#5b95f4" stroke-width="1.51"/><path d="M-60,900L-60,1020L60,900Z" fill="#6398f4" stroke="#6398f4" stroke-width="1.51"/><path d="M-60,900L60,900L60,780Z" fill="#549ef3" stroke="#549ef3" stroke-width="1.51"/><path d="M-60,780L-60,900L60,780Z" fill="#5ca2f3" stroke="#5ca2f3" stroke-width="1.51"/><path d="M-60,780L60,780L60,660Z" fill="#4baaf3" stroke="#4baaf3" stroke-width="1.51"/><path d="M-60,660L-60,780L60,660Z" fill="#54aef3" stroke="#54aef3" stroke-width="1.51"/><path d="M-60,660L60,660L60,540Z" fill="#3fb9f2" stroke="#3fb9f2" stroke-width="1.51"/><path d="M-60,540L-60,660L60,540Z" fill="#4bbff2" stroke="#4bbff2" stroke-width="1.51"/><path d="M-60,540L60,540L60,420Z" fill="#32c9f2" stroke="#32c9f2" stroke-width="1.51"/><path d="M-60,420L-60,540L60,420Z" fill="#42cff2" stroke="#42cff2" stroke-width="1.51"/><path d="M-60,420L60,420L60,300Z" fill="#24d8f1" stroke="#24d8f1" stroke-width="1.51"/><path d="M-60,300L-60,420L60,300Z" fill="#3cdcf1" stroke="#3cdcf1" stroke-width="1.51"/><path d="M-60,300L60,300L60,180Z" fill="#1de2f1" stroke="#1de2f1" stroke-width="1.51"/><path d="M-60,180L-60,300L60,180Z" fill="#38e7f1" stroke="#38e7f1" stroke-width="1.51"/><path d="M-60,180L60,180L60,60Z" fill="#14eff1" stroke="#14eff1" stroke-width="1.51"/><path d="M-60,60L-60,180L60,60Z" fill="#35f4f1" stroke="#35f4f1" stroke-width="1.51"/><path d="M-60,60L60,60L60,-60Z" fill="#09faeb" stroke="#09faeb" stroke-width="1.51"/><path d="M-60,-60L-60,60L60,-60Z" fill="#33fce7" stroke="#33fce7" stroke-width="1.51"/><path d="M-60,-60L60,-60L60,-180Z" fill="#38ffe2" stroke="#38ffe2" stroke-width="1.51"/><path d="M-60,-180L-60,-60L60,-180Z" fill="#74ffe6" stroke="#74ffe6" stroke-width="1.51"/><path d="M-180,1260L-60,1260L-60,1140Z" fill="#8dbae8" stroke="#8dbae8" stroke-width="1.51"/><path d="M-180,1140L-180,1260L-60,1140Z" fill="#9b9cf7" stroke="#9b9cf7" stroke-width="1.51"/><path d="M-180,1140L-60,1140L-60,1020Z" fill="#8a91f9" stroke="#8a91f9" stroke-width="1.51"/><path d="M-180,1020L-180,1140L-60,1020Z" fill="#968ffc" stroke="#968ffc" stroke-width="1.51"/><path d="M-180,1020L-60,1020L-60,900Z" fill="#8592f9" stroke="#8592f9" stroke-width="1.51"/><path d="M-180,900L-180,1020L-60,900Z" fill="#9295fc" stroke="#9295fc" stroke-width="1.51"/><path d="M-180,900L-60,900L-60,780Z" fill="#809cf8" stroke="#809cf8" stroke-width="1.51"/><path d="M-180,780L-180,900L-60,780Z" fill="#8e9ffb" stroke="#8e9ffb" stroke-width="1.51"/><path d="M-180,780L-60,780L-60,660Z" fill="#7ca9f8" stroke="#7ca9f8" stroke-width="1.51"/><path d="M-180,660L-180,780L-60,660Z" fill="#8aacfb" stroke="#8aacfb" stroke-width="1.51"/><path d="M-180,660L-60,660L-60,540Z" fill="#77b8f7" stroke="#77b8f7" stroke-width="1.51"/><path d="M-180,540L-180,660L-60,540Z" fill="#87befa" stroke="#87befa" stroke-width="1.51"/><path d="M-180,540L-60,540L-60,420Z" fill="#73c9f7" stroke="#73c9f7" stroke-width="1.51"/><path d="M-180,420L-180,540L-60,420Z" fill="#85cefa" stroke="#85cefa" stroke-width="1.51"/><path d="M-180,420L-60,420L-60,300Z" fill="#71d8f6" stroke="#71d8f6" stroke-width="1.51"/><path d="M-180,300L-180,420L-60,300Z" fill="#84dcf9" stroke="#84dcf9" stroke-width="1.51"/><path d="M-180,300L-60,300L-60,180Z" fill="#70e2f6" stroke="#70e2f6" stroke-width="1.51"/><path d="M-180,180L-180,300L-60,180Z" fill="#84e7f9" stroke="#84e7f9" stroke-width="1.51"/><path d="M-180,180L-60,180L-60,60Z" fill="#71f0f6" stroke="#71f0f6" stroke-width="1.51"/><path d="M-180,60L-180,180L-60,60Z" fill="#86f5f9" stroke="#86f5f9" stroke-width="1.51"/><path d="M-180,60L-60,60L-60,-60Z" fill="#71fbf0" stroke="#71fbf0" stroke-width="1.51"/><path d="M-180,-60L-180,60L-60,-60Z" fill="#86fcef" stroke="#86fcef" stroke-width="1.51"/><path d="M-180,-60L-60,-60L-60,-180Z" fill="#7dffe7" stroke="#7dffe7" stroke-width="1.51"/><path d="M-180,-180L-180,-60L-60,-180Z" fill="#aaffee" stroke="#aaffee" stroke-width="1.51"/></svg>