<svg xmlns="http://www.w3.org/2000/svg" width="1920" height="1080"><path d="M2040,1380L2280,1380L2280,1140Z" fill="#270461" stroke="#270461" stroke-width="1.51"/><path d="M2040,1140L2040,1380L2280,1140Z" fill="#2b0568" stroke="#2b0568" stroke-width="1.51"/><path d="M2040,1140L2280,1140L2280,900Z" fill="#2d076f" stroke="#2d076f" stroke-width="1.51"/><path d="M2040,900L2040,1140L2280,900Z" fill="#300977" stroke="#300977" stroke-width="1.51"/><path d="M2040,900L2280,900L2280,660Z" fill="#3a0a7c" stroke="#3a0a7c" stroke-width="1.51"/><path d="M2040,660L2040,900L2280,660Z" fill="#480a81" stroke="#480a81" stroke-width="1.51"/><path d="M2040,660L2280,660L2280,420Z" fill="#5f0781" stroke="#5f0781" stroke-width="1.51"/><path d="M2040,420L2040,660L2280,420Z" fill="#6c0786" stroke="#6c0786" stroke-width="1.51"/><path d="M2040,420L2280,420L2280,180Z" fill="#800486" stroke="#800486" stroke-width="1.51"/><path d="M2040,180L2040,420L2280,180Z" fill="#8c048c" stroke="#8c048c" stroke-width="1.51"/><path d="M2040,180L2280,180L2280,-60Z" fill="#842b8a" stroke="#842b8a" stroke-width="1.51"/><path d="M2040,-60L2040,180L2280,-60Z" fill="#7e398c" stroke="#7e398c" stroke-width="1.51"/><path d="M2040,-60L2280,-60L2280,-300Z" fill="#6a4b89" stroke="#6a4b89" stroke-width="1.51"/><path d="M2040,-300L2040,-60L2280,-300Z" fill="#61548c" stroke="#61548c" stroke-width="1.51"/><path d="M1800,1380L2040,1380L2040,1140Z" fill="#2b066a" stroke="#2b066a" stroke-width="1.51"/><path d="M1800,1140L1800,1380L2040,1140Z" fill="#2e0872" stroke="#2e0872" stroke-width="1.51"/><path d="M1800,1140L2040,1140L2040,900Z" fill="#300978" stroke="#300978" stroke-width="1.51"/><path d="M1800,900L1800,1140L2040,900Z" fill="#340c80" stroke="#340c80" stroke-width="1.51"/><path d="M1800,900L2040,900L2040,660Z" fill="#3d0d86" stroke="#3d0d86" stroke-width="1.51"/><path d="M1800,660L1800,900L2040,660Z" fill="#4d0d8b" stroke="#4d0d8b" stroke-width="1.51"/><path d="M1800,660L2040,660L2040,420Z" fill="#640a8b" stroke="#640a8b" stroke-width="1.51"/><path d="M1800,420L1800,660L2040,420Z" fill="#710b90" stroke="#710b90" stroke-width="1.51"/><path d="M1800,420L2040,420L2040,180Z" fill="#850891" stroke="#850891" stroke-width="1.51"/><path d="M1800,180L1800,420L2040,180Z" fill="#920996" stroke="#920996" stroke-width="1.51"/><path d="M1800,180L2040,180L2040,-60Z" fill="#8a2d94" stroke="#8a2d94" stroke-width="1.51"/><path d="M1800,-60L1800,180L2040,-60Z" fill="#833c96" stroke="#833c96" stroke-width="1.51"/><path d="M1800,-60L2040,-60L2040,-300Z" fill="#6f4e94" stroke="#6f4e94" stroke-width="1.51"/><path d="M1800,-300L1800,-60L2040,-300Z" fill="#665896" stroke="#665896" stroke-width="1.51"/><path d="M1560,1380L1800,1380L1800,1140Z" fill="#2f0874" stroke="#2f0874" stroke-width="1.51"/><path d="M1560,1140L1560,1380L1800,1140Z" fill="#320a7b" stroke="#320a7b" stroke-width="1.51"/><path d="M1560,1140L1800,1140L1800,900Z" fill="#340c82" stroke="#340c82" stroke-width="1.51"/><path d="M1560,900L1560,1140L1800,900Z" fill="#380f8a" stroke="#380f8a" stroke-width="1.51"/><path d="M1560,900L1800,900L1800,660Z" fill="#420f8f" stroke="#420f8f" stroke-width="1.51"/><path d="M1560,660L1560,900L1800,660Z" fill="#511094" stroke="#511094" stroke-width="1.51"/><path d="M1560,660L1800,660L1800,420Z" fill="#690d95" stroke="#690d95" stroke-width="1.51"/><path d="M1560,420L1560,660L1800,420Z" fill="#760e9a" stroke="#760e9a" stroke-width="1.51"/><path d="M1560,420L1800,420L1800,180Z" fill="#8b0b9a" stroke="#8b0b9a" stroke-width="1.51"/><path d="M1560,180L1560,420L1800,180Z" fill="#980c9f" stroke="#980c9f" stroke-width="1.51"/><path d="M1560,180L1800,180L1800,-60Z" fill="#8f309e" stroke="#8f309e" stroke-width="1.51"/><path d="M1560,-60L1560,180L1800,-60Z" fill="#893fa0" stroke="#893fa0" stroke-width="1.51"/><path d="M1560,-60L1800,-60L1800,-300Z" fill="#74519e" stroke="#74519e" stroke-width="1.51"/><path d="M1560,-300L1560,-60L1800,-300Z" fill="#6b5ba0" stroke="#6b5ba0" stroke-width="1.51"/><path d="M1320,1380L1560,1380L1560,1140Z" fill="#330b7e" stroke="#330b7e" stroke-width="1.51"/><path d="M1320,1140L1320,1380L1560,1140Z" fill="#3b0d84" stroke="#3b0d84" stroke-width="1.51"/><path d="M1320,1140L1560,1140L1560,900Z" fill="#380f8c" stroke="#380f8c" stroke-width="1.51"/><path d="M1320,900L1320,1140L1560,900Z" fill="#411193" stroke="#411193" stroke-width="1.51"/><path d="M1320,900L1560,900L1560,660Z" fill="#461299" stroke="#461299" stroke-width="1.51"/><path d="M1320,660L1320,900L1560,660Z" fill="#59139e" stroke="#59139e" stroke-width="1.51"/><path d="M1320,660L1560,660L1560,420Z" fill="#6e119f" stroke="#6e119f" stroke-width="1.51"/><path d="M1320,420L1320,660L1560,420Z" fill="#7f11a3" stroke="#7f11a3" stroke-width="1.51"/><path d="M1320,420L1560,420L1560,180Z" fill="#9110a5" stroke="#9110a5" stroke-width="1.51"/><path d="M1320,180L1320,420L1560,180Z" fill="#a010a9" stroke="#a010a9" stroke-width="1.51"/><path d="M1320,180L1560,180L1560,-60Z" fill="#9533a8" stroke="#9533a8" stroke-width="1.51"/><path d="M1320,-60L1320,180L1560,-60Z" fill="#9142aa" stroke="#9142aa" stroke-width="1.51"/><path d="M1320,-60L1560,-60L1560,-300Z" fill="#7955a8" stroke="#7955a8" stroke-width="1.51"/><path d="M1320,-300L1320,-60L1560,-300Z" fill="#745faa" stroke="#745faa" stroke-width="1.51"/><path d="M1080,1380L1320,1380L1320,1140Z" fill="#4b0a82" stroke="#4b0a82" stroke-width="1.51"/><path d="M1080,1140L1080,1380L1320,1140Z" fill="#550b88" stroke="#550b88" stroke-width="1.51"/><path d="M1080,1140L1320,1140L1320,900Z" fill="#520f90" stroke="#520f90" stroke-width="1.51"/><path d="M1080,900L1080,1140L1320,900Z" fill="#5c1097" stroke="#5c1097" stroke-width="1.51"/><path d="M1080,900L1320,900L1320,660Z" fill="#5e139e" stroke="#5e139e" stroke-width="1.51"/><path d="M1080,660L1080,900L1320,660Z" fill="#7212a2" stroke="#7212a2" stroke-width="1.51"/><path d="M1080,660L1320,660L1320,420Z" fill="#8211a4" stroke="#8211a4" stroke-width="1.51"/><path d="M1080,420L1080,660L1320,420Z" fill="#9510a7" stroke="#9510a7" stroke-width="1.51"/><path d="M1080,420L1320,420L1320,180Z" fill="#a410a9" stroke="#a410a9" stroke-width="1.51"/><path d="M1080,180L1080,420L1320,180Z" fill="#b60fad" stroke="#b60fad" stroke-width="1.51"/><path d="M1080,180L1320,180L1320,-60Z" fill="#a936ac" stroke="#a936ac" stroke-width="1.51"/><path d="M1080,-60L1080,180L1320,-60Z" fill="#a746ad" stroke="#a746ad" stroke-width="1.51"/><path d="M1080,-60L1320,-60L1320,-300Z" fill="#8e5aac" stroke="#8e5aac" stroke-width="1.51"/><path d="M1080,-300L1080,-60L1320,-300Z" fill="#8c65ad" stroke="#8c65ad" stroke-width="1.51"/><path d="M840,1380L1080,1380L1080,1140Z" fill="#630986" stroke="#630986" stroke-width="1.51"/><path d="M840,1140L840,1380L1080,1140Z" fill="#6d0a8b" stroke="#6d0a8b" stroke-width="1.51"/><path d="M840,1140L1080,1140L1080,900Z" fill="#6a0d94" stroke="#6a0d94" stroke-width="1.51"/><path d="M840,900L840,1140L1080,900Z" fill="#740f9a" stroke="#740f9a" stroke-width="1.51"/><path d="M840,900L1080,900L1080,660Z" fill="#7712a2" stroke="#7712a2" stroke-width="1.51"/><path d="M840,660L840,900L1080,660Z" fill="#8a11a5" stroke="#8a11a5" stroke-width="1.51"/><path d="M840,660L1080,660L1080,420Z" fill="#9910a8" stroke="#9910a8" stroke-width="1.51"/><path d="M840,420L840,660L1080,420Z" fill="#ab0fab" stroke="#ab0fab" stroke-width="1.51"/><path d="M840,420L1080,420L1080,180Z" fill="#ba0fad" stroke="#ba0fad" stroke-width="1.51"/><path d="M840,180L840,420L1080,180Z" fill="#cb0eb0" stroke="#cb0eb0" stroke-width="1.51"/><path d="M840,180L1080,180L1080,-60Z" fill="#be39b0" stroke="#be39b0" stroke-width="1.51"/><path d="M840,-60L840,180L1080,-60Z" fill="#bd4ab1" stroke="#bd4ab1" stroke-width="1.51"/><path d="M840,-60L1080,-60L1080,-300Z" fill="#a560b0" stroke="#a560b0" stroke-width="1.51"/><path d="M840,-300L840,-60L1080,-300Z" fill="#a36bb1" stroke="#a36bb1" stroke-width="1.51"/><path d="M600,1380L840,1380L840,1140Z" fill="#790789" stroke="#790789" stroke-width="1.51"/><path d="M600,1140L600,1380L840,1140Z" fill="#83088f" stroke="#83088f" stroke-width="1.51"/><path d="M600,1140L840,1140L840,900Z" fill="#810c98" stroke="#810c98" stroke-width="1.51"/><path d="M600,900L600,1140L840,900Z" fill="#8b0e9e" stroke="#8b0e9e" stroke-width="1.51"/><path d="M600,900L840,900L840,660Z" fill="#8e11a6" stroke="#8e11a6" stroke-width="1.51"/><path d="M600,660L600,900L840,660Z" fill="#a010a9" stroke="#a010a9" stroke-width="1.51"/><path d="M600,660L840,660L840,420Z" fill="#af0fab" stroke="#af0fab" stroke-width="1.51"/><path d="M600,420L600,660L840,420Z" fill="#c10eaf" stroke="#c10eaf" stroke-width="1.51"/><path d="M600,420L840,420L840,180Z" fill="#cf0eb1" stroke="#cf0eb1" stroke-width="1.51"/><path d="M600,180L600,420L840,180Z" fill="#e10db4" stroke="#e10db4" stroke-width="1.51"/><path d="M600,180L840,180L840,-60Z" fill="#d43cb4" stroke="#d43cb4" stroke-width="1.51"/><path d="M600,-60L600,180L840,-60Z" fill="#d34eb5" stroke="#d34eb5" stroke-width="1.51"/><path d="M600,-60L840,-60L840,-300Z" fill="#bb65b3" stroke="#bb65b3" stroke-width="1.51"/><path d="M600,-300L600,-60L840,-300Z" fill="#b971b4" stroke="#b971b4" stroke-width="1.51"/><path d="M360,1380L600,1380L600,1140Z" fill="#8e058d" stroke="#8e058d" stroke-width="1.51"/><path d="M360,1140L360,1380L600,1140Z" fill="#921592" stroke="#921592" stroke-width="1.51"/><path d="M360,1140L600,1140L600,900Z" fill="#970b9c" stroke="#970b9c" stroke-width="1.51"/><path d="M360,900L360,1140L600,900Z" fill="#9b1aa2" stroke="#9b1aa2" stroke-width="1.51"/><path d="M360,900L600,900L600,660Z" fill="#a410aa" stroke="#a410aa" stroke-width="1.51"/><path d="M360,660L360,900L600,660Z" fill="#b01cac" stroke="#b01cac" stroke-width="1.51"/><path d="M360,660L600,660L600,420Z" fill="#c40eaf" stroke="#c40eaf" stroke-width="1.51"/><path d="M360,420L360,660L600,420Z" fill="#d01eb2" stroke="#d01eb2" stroke-width="1.51"/><path d="M360,420L600,420L600,180Z" fill="#e40db5" stroke="#e40db5" stroke-width="1.51"/><path d="M360,180L360,420L600,180Z" fill="#f020b7" stroke="#f020b7" stroke-width="1.51"/><path d="M360,180L600,180L600,-60Z" fill="#e940b8" stroke="#e940b8" stroke-width="1.51"/><path d="M360,-60L360,180L600,-60Z" fill="#e257b8" stroke="#e257b8" stroke-width="1.51"/><path d="M360,-60L600,-60L600,-300Z" fill="#d16ab7" stroke="#d16ab7" stroke-width="1.51"/><path d="M360,-300L360,-60L600,-300Z" fill="#c979b7" stroke="#c979b7" stroke-width="1.51"/><path d="M120,1380L360,1380L360,1140Z" fill="#852f8e" stroke="#852f8e" stroke-width="1.51"/><path d="M120,1140L120,1380L360,1140Z" fill="#823892" stroke="#823892" stroke-width="1.51"/><path d="M120,1140L360,1140L360,900Z" fill="#8d339d" stroke="#8d339d" stroke-width="1.51"/><path d="M120,900L120,1140L360,900Z" fill="#8b3da1" stroke="#8b3da1" stroke-width="1.51"/><path d="M120,900L360,900L360,660Z" fill="#9a37aa" stroke="#9a37aa" stroke-width="1.51"/><path d="M120,660L120,900L360,660Z" fill="#a042ac" stroke="#a042ac" stroke-width="1.51"/><path d="M120,660L360,660L360,420Z" fill="#bb3cb0" stroke="#bb3cb0" stroke-width="1.51"/><path d="M120,420L120,660L360,420Z" fill="#c148b1" stroke="#c148b1" stroke-width="1.51"/><path d="M120,420L360,420L360,180Z" fill="#db41b5" stroke="#db41b5" stroke-width="1.51"/><path d="M120,180L120,420L360,180Z" fill="#e14eb7" stroke="#e14eb7" stroke-width="1.51"/><path d="M120,180L360,180L360,-60Z" fill="#e05cb8" stroke="#e05cb8" stroke-width="1.51"/><path d="M120,-60L120,180L360,-60Z" fill="#d26fb7" stroke="#d26fb7" stroke-width="1.51"/><path d="M120,-60L360,-60L360,-300Z" fill="#c57cb8" stroke="#c57cb8" stroke-width="1.51"/><path d="M120,-300L120,-60L360,-300Z" fill="#b68bb7" stroke="#b68bb7" stroke-width="1.51"/><path d="M-120,1380L120,1380L120,1140Z" fill="#74458e" stroke="#74458e" stroke-width="1.51"/><path d="M-120,1140L-120,1380L120,1140Z" fill="#704d93" stroke="#704d93" stroke-width="1.51"/><path d="M-120,1140L120,1140L120,900Z" fill="#7b4a9c" stroke="#7b4a9c" stroke-width="1.51"/><path d="M-120,900L-120,1140L120,900Z" fill="#7852a2" stroke="#7852a2" stroke-width="1.51"/><path d="M-120,900L120,900L120,660Z" fill="#884faa" stroke="#884faa" stroke-width="1.51"/><path d="M-120,660L-120,900L120,660Z" fill="#8e58ac" stroke="#8e58ac" stroke-width="1.51"/><path d="M-120,660L120,660L120,420Z" fill="#aa57af" stroke="#aa57af" stroke-width="1.51"/><path d="M-120,420L-120,660L120,420Z" fill="#b060b1" stroke="#b060b1" stroke-width="1.51"/><path d="M-120,420L120,420L120,180Z" fill="#cb5eb5" stroke="#cb5eb5" stroke-width="1.51"/><path d="M-120,180L-120,420L120,180Z" fill="#d168b7" stroke="#d168b7" stroke-width="1.51"/><path d="M-120,180L120,180L120,-60Z" fill="#cf73b8" stroke="#cf73b8" stroke-width="1.51"/><path d="M-120,-60L-120,180L120,-60Z" fill="#bf83b7" stroke="#bf83b7" stroke-width="1.51"/><path d="M-120,-60L120,-60L120,-300Z" fill="#b28eb7" stroke="#b28eb7" stroke-width="1.51"/><path d="M-120,-300L-120,-60L120,-300Z" fill="#a09bb7" stroke="#a09bb7" stroke-width="1.51"/><path d="M-360,1380L-120,1380L-120,1140Z" fill="#5f568d" stroke="#5f568d" stroke-width="1.51"/><path d="M-360,1140L-360,1380L-120,1140Z" fill="#5a5c92" stroke="#5a5c92" stroke-width="1.51"/><path d="M-360,1140L-120,1140L-120,900Z" fill="#675b9c" stroke="#675b9c" stroke-width="1.51"/><path d="M-360,900L-360,1140L-120,900Z" fill="#6162a2" stroke="#6162a2" stroke-width="1.51"/><path d="M-360,900L-120,900L-120,660Z" fill="#7461aa" stroke="#7461aa" stroke-width="1.51"/><path d="M-360,660L-360,900L-120,660Z" fill="#7869ac" stroke="#7869ac" stroke-width="1.51"/><path d="M-360,660L-120,660L-120,420Z" fill="#986aaf" stroke="#986aaf" stroke-width="1.51"/><path d="M-360,420L-360,660L-120,420Z" fill="#9d73b1" stroke="#9d73b1" stroke-width="1.51"/><path d="M-360,420L-120,420L-120,180Z" fill="#ba73b4" stroke="#ba73b4" stroke-width="1.51"/><path d="M-360,180L-360,420L-120,180Z" fill="#be7cb6" stroke="#be7cb6" stroke-width="1.51"/><path d="M-360,180L-120,180L-120,-60Z" fill="#bc85b7" stroke="#bc85b7" stroke-width="1.51"/><path d="M-360,-60L-360,180L-120,-60Z" fill="#ab93b7" stroke="#ab93b7" stroke-width="1.51"/><path d="M-360,-60L-120,-60L-120,-300Z" fill="#9b9db7" stroke="#9b9db7" stroke-width="1.51"/><path d="M-360,-300L-360,-60L-120,-300Z" fill="#85a9b6" stroke="#85a9b6" stroke-width="1.51"/></svg>