<svg xmlns="http://www.w3.org/2000/svg" width="1920" height="1080"><path d="M1230,1398L756,1412L1398,1432Z" fill="#a62b86" stroke="#a62b86" stroke-width="1.51"/><path d="M1922,904L1917,1010L2183,750Z" fill="#a31382" stroke="#a31382" stroke-width="1.51"/><path d="M1841,189L2184,432L2285,356Z" fill="#b55493" stroke="#b55493" stroke-width="1.51"/><path d="M2184,432L2183,750L2285,356Z" fill="#ac3b8a" stroke="#ac3b8a" stroke-width="1.51"/><path d="M1937,-208L1862,-79L2286,-162Z" fill="#bd78a6" stroke="#bd78a6" stroke-width="1.51"/><path d="M1841,189L2285,356L2286,-162Z" fill="#b46498" stroke="#b46498" stroke-width="1.51"/><path d="M1862,-79L1841,189L2286,-162Z" fill="#bf71a0" stroke="#bf71a0" stroke-width="1.51"/><path d="M1322,-424L1759,-353L2306,-267Z" fill="#d187b2" stroke="#d187b2" stroke-width="1.51"/><path d="M1759,-353L1937,-208L2306,-267Z" fill="#c07fad" stroke="#c07fad" stroke-width="1.51"/><path d="M2286,-162L2285,356L2306,-267Z" fill="#a96a9b" stroke="#a96a9b" stroke-width="1.51"/><path d="M2183,750L1917,1010L2314,1162Z" fill="#93077c" stroke="#93077c" stroke-width="1.51"/><path d="M2285,356L2183,750L2314,1162Z" fill="#9e1e84" stroke="#9e1e84" stroke-width="1.51"/><path d="M2306,-267L2285,356L2314,1162Z" fill="#a6458c" stroke="#a6458c" stroke-width="1.51"/><path d="M1816,1321L1398,1432L2315,1273Z" fill="#830078" stroke="#830078" stroke-width="1.51"/><path d="M2314,1162L1917,1010L2315,1273Z" fill="#7e0076" stroke="#7e0076" stroke-width="1.51"/><path d="M1917,1010L1816,1321L2315,1273Z" fill="#840178" stroke="#840178" stroke-width="1.51"/><path d="M1937,-208L2286,-162L2306,-267Z" fill="#b277a7" stroke="#b277a7" stroke-width="1.51"/><path d="M629,-438L829,-395L1322,-424Z" fill="#ffb3c9" stroke="#ffb3c9" stroke-width="1.51"/><path d="M1918,659L1922,904L2183,750Z" fill="#ad1f87" stroke="#ad1f87" stroke-width="1.51"/><path d="M1918,659L2183,750L2184,432Z" fill="#af318a" stroke="#af318a" stroke-width="1.51"/><path d="M1798,430L1918,659L2184,432Z" fill="#bd408e" stroke="#bd408e" stroke-width="1.51"/><path d="M1841,189L1798,430L2184,432Z" fill="#c05495" stroke="#c05495" stroke-width="1.51"/><path d="M1581,1195L1614,1259L1816,1321Z" fill="#97017b" stroke="#97017b" stroke-width="1.51"/><path d="M1581,1195L1816,1321L1917,1010Z" fill="#99007b" stroke="#99007b" stroke-width="1.51"/><path d="M1918,659L1636,710L1922,904Z" fill="#bc2389" stroke="#bc2389" stroke-width="1.51"/><path d="M1759,-353L1862,-79L1937,-208Z" fill="#cb7fab" stroke="#cb7fab" stroke-width="1.51"/><path d="M1636,710L1581,1195L1917,1010Z" fill="#b10b81" stroke="#b10b81" stroke-width="1.51"/><path d="M1798,430L1636,710L1918,659Z" fill="#c7388e" stroke="#c7388e" stroke-width="1.51"/><path d="M1636,710L1917,1010L1922,904Z" fill="#b21684" stroke="#b21684" stroke-width="1.51"/><path d="M1384,943L1581,1195L1636,710Z" fill="#bf1a87" stroke="#bf1a87" stroke-width="1.51"/><path d="M1614,1259L1398,1432L1816,1321Z" fill="#94057b" stroke="#94057b" stroke-width="1.51"/><path d="M1530,389L1798,430L1841,189Z" fill="#d15a97" stroke="#d15a97" stroke-width="1.51"/><path d="M1545,38L1841,189L1862,-79Z" fill="#d1739f" stroke="#d1739f" stroke-width="1.51"/><path d="M1759,-353L1545,38L1862,-79Z" fill="#d57ea8" stroke="#d57ea8" stroke-width="1.51"/><path d="M1545,38L1530,389L1841,189Z" fill="#d8699c" stroke="#d8699c" stroke-width="1.51"/><path d="M1412,-43L1545,38L1759,-353Z" fill="#df83ac" stroke="#df83ac" stroke-width="1.51"/><path d="M1530,389L1636,710L1798,430Z" fill="#d44591" stroke="#d44591" stroke-width="1.51"/><path d="M1322,-424L1412,-43L1759,-353Z" fill="#e68eb6" stroke="#e68eb6" stroke-width="1.51"/><path d="M161,1264L-331,1318L756,1412Z" fill="#b86e9d" stroke="#b86e9d" stroke-width="1.51"/><path d="M1333,117L1530,389L1545,38Z" fill="#e473a3" stroke="#e473a3" stroke-width="1.51"/><path d="M1530,389L1411,448L1636,710Z" fill="#dc4a96" stroke="#dc4a96" stroke-width="1.51"/><path d="M1411,448L1384,943L1636,710Z" fill="#d73793" stroke="#d73793" stroke-width="1.51"/><path d="M1384,943L1370,1208L1581,1195Z" fill="#b51685" stroke="#b51685" stroke-width="1.51"/><path d="M1581,1195L1370,1208L1614,1259Z" fill="#a50f81" stroke="#a50f81" stroke-width="1.51"/><path d="M1370,1208L1398,1432L1614,1259Z" fill="#a11382" stroke="#a11382" stroke-width="1.51"/><path d="M1136,823L1384,943L1411,448Z" fill="#e03b98" stroke="#e03b98" stroke-width="1.51"/><path d="M1322,-424L1167,-180L1412,-43Z" fill="#f295ba" stroke="#f295ba" stroke-width="1.51"/><path d="M1333,117L1411,448L1530,389Z" fill="#e568a1" stroke="#e568a1" stroke-width="1.51"/><path d="M1412,-43L1333,117L1545,38Z" fill="#e780a8" stroke="#e780a8" stroke-width="1.51"/><path d="M1212,1182L1370,1208L1384,943Z" fill="#bd1e89" stroke="#bd1e89" stroke-width="1.51"/><path d="M1370,1208L1230,1398L1398,1432Z" fill="#a51a85" stroke="#a51a85" stroke-width="1.51"/><path d="M1333,117L986,385L1411,448Z" fill="#ef71a6" stroke="#ef71a6" stroke-width="1.51"/><path d="M1055,613L1136,823L1411,448Z" fill="#ea4f9c" stroke="#ea4f9c" stroke-width="1.51"/><path d="M1092,-13L1333,117L1412,-43Z" fill="#f188ad" stroke="#f188ad" stroke-width="1.51"/><path d="M1167,-180L1092,-13L1412,-43Z" fill="#f391b4" stroke="#f391b4" stroke-width="1.51"/><path d="M986,385L1055,613L1411,448Z" fill="#f163a1" stroke="#f163a1" stroke-width="1.51"/><path d="M-76,1267L-331,1318L161,1264Z" fill="#be7aa9" stroke="#be7aa9" stroke-width="1.51"/><path d="M1212,1182L1230,1398L1370,1208Z" fill="#af2188" stroke="#af2188" stroke-width="1.51"/><path d="M1136,823L1212,1182L1384,943Z" fill="#cd2c8e" stroke="#cd2c8e" stroke-width="1.51"/><path d="M603,1340L161,1264L756,1412Z" fill="#b55d96" stroke="#b55d96" stroke-width="1.51"/><path d="M1092,-13L986,385L1333,117Z" fill="#f485ac" stroke="#f485ac" stroke-width="1.51"/><path d="M1136,823L959,993L1212,1182Z" fill="#d1378f" stroke="#d1378f" stroke-width="1.51"/><path d="M829,-395L1167,-180L1322,-424Z" fill="#f9a5c2" stroke="#f9a5c2" stroke-width="1.51"/><path d="M876,139L986,385L1092,-13Z" fill="#f98ead" stroke="#f98ead" stroke-width="1.51"/><path d="M1212,1182L756,1412L1230,1398Z" fill="#b0318a" stroke="#b0318a" stroke-width="1.51"/><path d="M959,993L756,1412L1212,1182Z" fill="#c13b8e" stroke="#c13b8e" stroke-width="1.51"/><path d="M1055,613L927,694L1136,823Z" fill="#eb539d" stroke="#eb539d" stroke-width="1.51"/><path d="M829,-395L1092,-13L1167,-180Z" fill="#fba3bd" stroke="#fba3bd" stroke-width="1.51"/><path d="M829,-395L709,-7L1092,-13Z" fill="#fda9bd" stroke="#fda9bd" stroke-width="1.51"/><path d="M927,694L959,993L1136,823Z" fill="#e44a99" stroke="#e44a99" stroke-width="1.51"/><path d="M709,-7L876,139L1092,-13Z" fill="#fb9eb2" stroke="#fb9eb2" stroke-width="1.51"/><path d="M596,1220L756,1412L959,993Z" fill="#c24e93" stroke="#c24e93" stroke-width="1.51"/><path d="M748,502L927,694L986,385Z" fill="#f870a3" stroke="#f870a3" stroke-width="1.51"/><path d="M986,385L927,694L1055,613Z" fill="#f564a0" stroke="#f564a0" stroke-width="1.51"/><path d="M927,694L480,849L959,993Z" fill="#e65d9e" stroke="#e65d9e" stroke-width="1.51"/><path d="M876,139L748,502L986,385Z" fill="#f986ab" stroke="#f986ab" stroke-width="1.51"/><path d="M583,-137L709,-7L829,-395Z" fill="#fdb7c4" stroke="#fdb7c4" stroke-width="1.51"/><path d="M480,849L596,1220L959,993Z" fill="#d65b98" stroke="#d65b98" stroke-width="1.51"/><path d="M-113,-356L375,-318L629,-438Z" fill="#fed8d4" stroke="#fed8d4" stroke-width="1.51"/><path d="M550,445L748,502L876,139Z" fill="#fa8faf" stroke="#fa8faf" stroke-width="1.51"/><path d="M748,502L480,849L927,694Z" fill="#f170a5" stroke="#f170a5" stroke-width="1.51"/><path d="M629,-438L583,-137L829,-395Z" fill="#fec0cc" stroke="#fec0cc" stroke-width="1.51"/><path d="M709,-7L550,445L876,139Z" fill="#fb9fb4" stroke="#fb9fb4" stroke-width="1.51"/><path d="M596,1220L603,1340L756,1412Z" fill="#b65494" stroke="#b65494" stroke-width="1.51"/><path d="M417,382L550,445L709,-7Z" fill="#faa3b6" stroke="#faa3b6" stroke-width="1.51"/><path d="M550,445L480,849L748,502Z" fill="#f680aa" stroke="#f680aa" stroke-width="1.51"/><path d="M480,849L362,1136L596,1220Z" fill="#d3679b" stroke="#d3679b" stroke-width="1.51"/><path d="M583,-137L373,-127L709,-7Z" fill="#fcbcc3" stroke="#fcbcc3" stroke-width="1.51"/><path d="M373,-127L417,382L709,-7Z" fill="#fcb5bb" stroke="#fcb5bb" stroke-width="1.51"/><path d="M205,769L480,849L550,445Z" fill="#f384ab" stroke="#f384ab" stroke-width="1.51"/><path d="M375,-318L583,-137L629,-438Z" fill="#fec8ce" stroke="#fec8ce" stroke-width="1.51"/><path d="M417,382L151,614L550,445Z" fill="#fb98b1" stroke="#fb98b1" stroke-width="1.51"/><path d="M151,614L205,769L550,445Z" fill="#f890ae" stroke="#f890ae" stroke-width="1.51"/><path d="M375,-318L373,-127L583,-137Z" fill="#fdc7ca" stroke="#fdc7ca" stroke-width="1.51"/><path d="M596,1220L362,1136L603,1340Z" fill="#c16099" stroke="#c16099" stroke-width="1.51"/><path d="M362,1136L161,1264L603,1340Z" fill="#c0689a" stroke="#c0689a" stroke-width="1.51"/><path d="M373,-127L145,338L417,382Z" fill="#fcb6bc" stroke="#fcb6bc" stroke-width="1.51"/><path d="M-9,115L145,338L373,-127Z" fill="#fcc3c1" stroke="#fcc3c1" stroke-width="1.51"/><path d="M205,769L362,1136L480,849Z" fill="#e277a4" stroke="#e277a4" stroke-width="1.51"/><path d="M145,338L151,614L417,382Z" fill="#fca3b5" stroke="#fca3b5" stroke-width="1.51"/><path d="M205,769L161,1264L362,1136Z" fill="#d5759f" stroke="#d5759f" stroke-width="1.51"/><path d="M-113,-356L-116,-22L373,-127Z" fill="#fdd8d4" stroke="#fdd8d4" stroke-width="1.51"/><path d="M-113,-356L373,-127L375,-318Z" fill="#fdd6d2" stroke="#fdd6d2" stroke-width="1.51"/><path d="M-116,-22L-9,115L373,-127Z" fill="#fdcec9" stroke="#fdcec9" stroke-width="1.51"/><path d="M-134,1084L161,1264L205,769Z" fill="#d87ca6" stroke="#d87ca6" stroke-width="1.51"/><path d="M145,338L-72,622L151,614Z" fill="#fca2b8" stroke="#fca2b8" stroke-width="1.51"/><path d="M-134,1084L-76,1267L161,1264Z" fill="#c67aa7" stroke="#c67aa7" stroke-width="1.51"/><path d="M151,614L-65,770L205,769Z" fill="#f490b3" stroke="#f490b3" stroke-width="1.51"/><path d="M-65,770L-134,1084L205,769Z" fill="#e98ab1" stroke="#e98ab1" stroke-width="1.51"/><path d="M-72,622L-65,770L151,614Z" fill="#f798b8" stroke="#f798b8" stroke-width="1.51"/><path d="M-367,473L-72,622L-9,115Z" fill="#fdb6c5" stroke="#fdb6c5" stroke-width="1.51"/><path d="M-9,115L-72,622L145,338Z" fill="#fdb4c1" stroke="#fdb4c1" stroke-width="1.51"/><path d="M-244,-291L-283,-110L-116,-22Z" fill="#fee0dc" stroke="#fee0dc" stroke-width="1.51"/><path d="M-244,-291L-116,-22L-113,-356Z" fill="#fde2df" stroke="#fde2df" stroke-width="1.51"/><path d="M-116,-22L-386,224L-9,115Z" fill="#fdd0cf" stroke="#fdd0cf" stroke-width="1.51"/><path d="M-386,224L-367,473L-9,115Z" fill="#fdc6ce" stroke="#fdc6ce" stroke-width="1.51"/><path d="M-134,1084L-280,1211L-76,1267Z" fill="#c980ac" stroke="#c980ac" stroke-width="1.51"/><path d="M-409,955L-134,1084L-65,770Z" fill="#e48db5" stroke="#e48db5" stroke-width="1.51"/><path d="M-72,622L-367,473L-65,770Z" fill="#faa3bf" stroke="#faa3bf" stroke-width="1.51"/><path d="M-367,473L-409,955L-65,770Z" fill="#f59dc0" stroke="#f59dc0" stroke-width="1.51"/><path d="M-280,1211L-331,1318L-76,1267Z" fill="#c180ad" stroke="#c180ad" stroke-width="1.51"/><path d="M-283,-110L-386,224L-116,-22Z" fill="#fdd8d3" stroke="#fdd8d3" stroke-width="1.51"/><path d="M-409,955L-280,1211L-134,1084Z" fill="#d688b1" stroke="#d688b1" stroke-width="1.51"/><path d="M-386,224L-283,-110L-244,-291Z" fill="#fededa" stroke="#fededa" stroke-width="1.51"/><path d="M-409,955L-331,1318L-280,1211Z" fill="#cd87b2" stroke="#cd87b2" stroke-width="1.51"/><path d="M-386,224L-409,955L-367,473Z" fill="#ffafc7" stroke="#ffafc7" stroke-width="1.51"/></svg>