<svg xmlns="http://www.w3.org/2000/svg" width="1920" height="1080"><path d="M2040,1380L2280,1380L2280,1140Z" fill="#7f2cfe" stroke="#7f2cfe" stroke-width="1.51"/><path d="M2040,1140L2040,1380L2280,1140Z" fill="#941cf9" stroke="#941cf9" stroke-width="1.51"/><path d="M2040,1140L2280,1140L2280,900Z" fill="#9a32f0" stroke="#9a32f0" stroke-width="1.51"/><path d="M2040,900L2040,1140L2280,900Z" fill="#9151f6" stroke="#9151f6" stroke-width="1.51"/><path d="M2040,900L2280,900L2280,660Z" fill="#7a82ef" stroke="#7a82ef" stroke-width="1.51"/><path d="M2040,660L2040,900L2280,660Z" fill="#a78ccd" stroke="#a78ccd" stroke-width="1.51"/><path d="M2040,660L2280,660L2280,420Z" fill="#c282ac" stroke="#c282ac" stroke-width="1.51"/><path d="M2040,420L2040,660L2280,420Z" fill="#d053b2" stroke="#d053b2" stroke-width="1.51"/><path d="M2040,420L2280,420L2280,180Z" fill="#d065b0" stroke="#d065b0" stroke-width="1.51"/><path d="M2040,180L2040,420L2280,180Z" fill="#d988ab" stroke="#d988ab" stroke-width="1.51"/><path d="M2040,180L2280,180L2280,-60Z" fill="#a8a0d5" stroke="#a8a0d5" stroke-width="1.51"/><path d="M2040,-60L2040,180L2280,-60Z" fill="#8aa0f4" stroke="#8aa0f4" stroke-width="1.51"/><path d="M2040,-60L2280,-60L2280,-300Z" fill="#c568ae" stroke="#c568ae" stroke-width="1.51"/><path d="M2040,-300L2040,-60L2280,-300Z" fill="#dc4495" stroke="#dc4495" stroke-width="1.51"/><path d="M1800,1380L2040,1380L2040,1140Z" fill="#9817f8" stroke="#9817f8" stroke-width="1.51"/><path d="M1800,1140L1800,1380L2040,1140Z" fill="#a710f0" stroke="#a710f0" stroke-width="1.51"/><path d="M1800,1140L2040,1140L2040,900Z" fill="#af21ea" stroke="#af21ea" stroke-width="1.51"/><path d="M1800,900L1800,1140L2040,900Z" fill="#a550ed" stroke="#a550ed" stroke-width="1.51"/><path d="M1800,900L2040,900L2040,660Z" fill="#947fe9" stroke="#947fe9" stroke-width="1.51"/><path d="M1800,660L1800,900L2040,660Z" fill="#b68dc3" stroke="#b68dc3" stroke-width="1.51"/><path d="M1800,660L2040,660L2040,420Z" fill="#d27ea6" stroke="#d27ea6" stroke-width="1.51"/><path d="M1800,420L1800,660L2040,420Z" fill="#dc52a9" stroke="#dc52a9" stroke-width="1.51"/><path d="M1800,420L2040,420L2040,180Z" fill="#df5fab" stroke="#df5fab" stroke-width="1.51"/><path d="M1800,180L1800,420L2040,180Z" fill="#e489a1" stroke="#e489a1" stroke-width="1.51"/><path d="M1800,180L2040,180L2040,-60Z" fill="#bc9ecf" stroke="#bc9ecf" stroke-width="1.51"/><path d="M1800,-60L1800,180L2040,-60Z" fill="#9fa1ea" stroke="#9fa1ea" stroke-width="1.51"/><path d="M1800,-60L2040,-60L2040,-300Z" fill="#d463a9" stroke="#d463a9" stroke-width="1.51"/><path d="M1800,-300L1800,-60L2040,-300Z" fill="#e6428c" stroke="#e6428c" stroke-width="1.51"/><path d="M1560,1380L1800,1380L1800,1140Z" fill="#a12ef1" stroke="#a12ef1" stroke-width="1.51"/><path d="M1560,1140L1560,1380L1800,1140Z" fill="#a049f1" stroke="#a049f1" stroke-width="1.51"/><path d="M1560,1140L1800,1140L1800,900Z" fill="#b736e3" stroke="#b736e3" stroke-width="1.51"/><path d="M1560,900L1560,1140L1800,900Z" fill="#9b6eed" stroke="#9b6eed" stroke-width="1.51"/><path d="M1560,900L1800,900L1800,660Z" fill="#9b88e1" stroke="#9b88e1" stroke-width="1.51"/><path d="M1560,660L1560,900L1800,660Z" fill="#a9a4c3" stroke="#a9a4c3" stroke-width="1.51"/><path d="M1560,660L1800,660L1800,420Z" fill="#d5899e" stroke="#d5899e" stroke-width="1.51"/><path d="M1560,420L1560,660L1800,420Z" fill="#d573a8" stroke="#d573a8" stroke-width="1.51"/><path d="M1560,420L1800,420L1800,180Z" fill="#e36ca3" stroke="#e36ca3" stroke-width="1.51"/><path d="M1560,180L1560,420L1800,180Z" fill="#dba2a0" stroke="#dba2a0" stroke-width="1.51"/><path d="M1560,180L1800,180L1800,-60Z" fill="#c0a8c7" stroke="#c0a8c7" stroke-width="1.51"/><path d="M1560,-60L1560,180L1800,-60Z" fill="#8db7ea" stroke="#8db7ea" stroke-width="1.51"/><path d="M1560,-60L1800,-60L1800,-300Z" fill="#d96fa1" stroke="#d96fa1" stroke-width="1.51"/><path d="M1560,-300L1560,-60L1800,-300Z" fill="#e0678b" stroke="#e0678b" stroke-width="1.51"/><path d="M1320,1380L1560,1380L1560,1140Z" fill="#7970fd" stroke="#7970fd" stroke-width="1.51"/><path d="M1320,1140L1320,1380L1560,1140Z" fill="#8c7cef" stroke="#8c7cef" stroke-width="1.51"/><path d="M1320,1140L1560,1140L1560,900Z" fill="#9576ef" stroke="#9576ef" stroke-width="1.51"/><path d="M1320,900L1320,1140L1560,900Z" fill="#8199eb" stroke="#8199eb" stroke-width="1.51"/><path d="M1320,900L1560,900L1560,660Z" fill="#5fb2ec" stroke="#5fb2ec" stroke-width="1.51"/><path d="M1320,660L1320,900L1560,660Z" fill="#88cbbf" stroke="#88cbbf" stroke-width="1.51"/><path d="M1320,660L1560,660L1560,420Z" fill="#b4b5a7" stroke="#b4b5a7" stroke-width="1.51"/><path d="M1320,420L1320,660L1560,420Z" fill="#c3a0a5" stroke="#c3a0a5" stroke-width="1.51"/><path d="M1320,420L1560,420L1560,180Z" fill="#c79eac" stroke="#c79eac" stroke-width="1.51"/><path d="M1320,180L1320,420L1560,180Z" fill="#c3cc9b" stroke="#c3cc9b" stroke-width="1.51"/><path d="M1320,180L1560,180L1560,-60Z" fill="#90d1d1" stroke="#90d1d1" stroke-width="1.51"/><path d="M1320,-60L1320,180L1560,-60Z" fill="#56dde7" stroke="#56dde7" stroke-width="1.51"/><path d="M1320,-60L1560,-60L1560,-300Z" fill="#bb9faa" stroke="#bb9faa" stroke-width="1.51"/><path d="M1320,-300L1320,-60L1560,-300Z" fill="#d09786" stroke="#d09786" stroke-width="1.51"/><path d="M1080,1380L1320,1380L1320,1140Z" fill="#ad8dc8" stroke="#ad8dc8" stroke-width="1.51"/><path d="M1080,1140L1080,1380L1320,1140Z" fill="#c398ad" stroke="#c398ad" stroke-width="1.51"/><path d="M1080,1140L1320,1140L1320,900Z" fill="#bd95b9" stroke="#bd95b9" stroke-width="1.51"/><path d="M1080,900L1080,1140L1320,900Z" fill="#b8b4a7" stroke="#b8b4a7" stroke-width="1.51"/><path d="M1080,900L1320,900L1320,660Z" fill="#90cfb4" stroke="#90cfb4" stroke-width="1.51"/><path d="M1080,660L1080,900L1320,660Z" fill="#ade873" stroke="#ade873" stroke-width="1.51"/><path d="M1080,660L1320,660L1320,420Z" fill="#c5d569" stroke="#c5d569" stroke-width="1.51"/><path d="M1080,420L1080,660L1320,420Z" fill="#debf5a" stroke="#debf5a" stroke-width="1.51"/><path d="M1080,420L1320,420L1320,180Z" fill="#dabe71" stroke="#dabe71" stroke-width="1.51"/><path d="M1080,180L1080,420L1320,180Z" fill="#daea42" stroke="#daea42" stroke-width="1.51"/><path d="M1080,180L1320,180L1320,-60Z" fill="#abef95" stroke="#abef95" stroke-width="1.51"/><path d="M1080,-60L1080,180L1320,-60Z" fill="#97fa9d" stroke="#97fa9d" stroke-width="1.51"/><path d="M1080,-60L1320,-60L1320,-300Z" fill="#cebf70" stroke="#cebf70" stroke-width="1.51"/><path d="M1080,-300L1080,-60L1320,-300Z" fill="#e5b732" stroke="#e5b732" stroke-width="1.51"/><path d="M840,1380L1080,1380L1080,1140Z" fill="#cc77ad" stroke="#cc77ad" stroke-width="1.51"/><path d="M840,1140L840,1380L1080,1140Z" fill="#d75aac" stroke="#d75aac" stroke-width="1.51"/><path d="M840,1140L1080,1140L1080,900Z" fill="#d97f9e" stroke="#d97f9e" stroke-width="1.51"/><path d="M840,900L840,1140L1080,900Z" fill="#d27ea8" stroke="#d27ea8" stroke-width="1.51"/><path d="M840,900L1080,900L1080,660Z" fill="#b9be98" stroke="#b9be98" stroke-width="1.51"/><path d="M840,660L840,900L1080,660Z" fill="#d2b779" stroke="#d2b779" stroke-width="1.51"/><path d="M840,660L1080,660L1080,420Z" fill="#e1c44a" stroke="#e1c44a" stroke-width="1.51"/><path d="M840,420L840,660L1080,420Z" fill="#f48761" stroke="#f48761" stroke-width="1.51"/><path d="M840,420L1080,420L1080,180Z" fill="#f2ab55" stroke="#f2ab55" stroke-width="1.51"/><path d="M840,180L840,420L1080,180Z" fill="#f8b750" stroke="#f8b750" stroke-width="1.51"/><path d="M840,180L1080,180L1080,-60Z" fill="#cfdf78" stroke="#cfdf78" stroke-width="1.51"/><path d="M840,-60L840,180L1080,-60Z" fill="#c6caa1" stroke="#c6caa1" stroke-width="1.51"/><path d="M840,-60L1080,-60L1080,-300Z" fill="#e7ad53" stroke="#e7ad53" stroke-width="1.51"/><path d="M840,-300L840,-60L1080,-300Z" fill="#fa7d41" stroke="#fa7d41" stroke-width="1.51"/><path d="M600,1380L840,1380L840,1140Z" fill="#d62fb5" stroke="#d62fb5" stroke-width="1.51"/><path d="M600,1140L600,1380L840,1140Z" fill="#de57ad" stroke="#de57ad" stroke-width="1.51"/><path d="M600,1140L840,1140L840,900Z" fill="#e33aa7" stroke="#e33aa7" stroke-width="1.51"/><path d="M600,900L600,1140L840,900Z" fill="#d97ca8" stroke="#d97ca8" stroke-width="1.51"/><path d="M600,900L840,900L840,660Z" fill="#cd90a3" stroke="#cd90a3" stroke-width="1.51"/><path d="M600,660L600,900L840,660Z" fill="#d9b67a" stroke="#d9b67a" stroke-width="1.51"/><path d="M600,660L840,660L840,420Z" fill="#f3935e" stroke="#f3935e" stroke-width="1.51"/><path d="M600,420L600,660L840,420Z" fill="#fa8562" stroke="#fa8562" stroke-width="1.51"/><path d="M600,420L840,420L840,180Z" fill="#ff7565" stroke="#ff7565" stroke-width="1.51"/><path d="M600,180L600,420L840,180Z" fill="#feb651" stroke="#feb651" stroke-width="1.51"/><path d="M600,180L840,180L840,-60Z" fill="#e6b187" stroke="#e6b187" stroke-width="1.51"/><path d="M600,-60L600,180L840,-60Z" fill="#cdc9a1" stroke="#cdc9a1" stroke-width="1.51"/><path d="M600,-60L840,-60L840,-300Z" fill="#f67963" stroke="#f67963" stroke-width="1.51"/><path d="M600,-300L600,-60L840,-300Z" fill="#ff7b41" stroke="#ff7b41" stroke-width="1.51"/><path d="M360,1380L600,1380L600,1140Z" fill="#da8da9" stroke="#da8da9" stroke-width="1.51"/><path d="M360,1140L360,1380L600,1140Z" fill="#d99aad" stroke="#d99aad" stroke-width="1.51"/><path d="M360,1140L600,1140L600,900Z" fill="#e7959a" stroke="#e7959a" stroke-width="1.51"/><path d="M360,900L360,1140L600,900Z" fill="#cfb8a7" stroke="#cfb8a7" stroke-width="1.51"/><path d="M360,900L600,900L600,660Z" fill="#c4d393" stroke="#c4d393" stroke-width="1.51"/><path d="M360,660L360,900L600,660Z" fill="#c6ed72" stroke="#c6ed72" stroke-width="1.51"/><path d="M360,660L600,660L600,420Z" fill="#ebd93d" stroke="#ebd93d" stroke-width="1.51"/><path d="M360,420L360,660L600,420Z" fill="#f2c258" stroke="#f2c258" stroke-width="1.51"/><path d="M360,420L600,420L600,180Z" fill="#fdc14b" stroke="#fdc14b" stroke-width="1.51"/><path d="M360,180L360,420L600,180Z" fill="#f1ef3e" stroke="#f1ef3e" stroke-width="1.51"/><path d="M360,180L600,180L600,-60Z" fill="#d9f46f" stroke="#d9f46f" stroke-width="1.51"/><path d="M360,-60L360,180L600,-60Z" fill="#b5ff9d" stroke="#b5ff9d" stroke-width="1.51"/><path d="M360,-60L600,-60L600,-300Z" fill="#f2c249" stroke="#f2c249" stroke-width="1.51"/><path d="M360,-300L360,-60L600,-300Z" fill="#faba2e" stroke="#faba2e" stroke-width="1.51"/><path d="M120,1380L360,1380L360,1140Z" fill="#ae9ddb" stroke="#ae9ddb" stroke-width="1.51"/><path d="M120,1140L120,1380L360,1140Z" fill="#9e9feb" stroke="#9e9feb" stroke-width="1.51"/><path d="M120,1140L360,1140L360,900Z" fill="#bfa4cc" stroke="#bfa4cc" stroke-width="1.51"/><path d="M120,900L120,1140L360,900Z" fill="#90bbe6" stroke="#90bbe6" stroke-width="1.51"/><path d="M120,900L360,900L360,660Z" fill="#8ddec7" stroke="#8ddec7" stroke-width="1.51"/><path d="M120,660L120,900L360,660Z" fill="#8bedb8" stroke="#8bedb8" stroke-width="1.51"/><path d="M120,660L360,660L360,420Z" fill="#c9e47c" stroke="#c9e47c" stroke-width="1.51"/><path d="M120,420L120,660L360,420Z" fill="#ccc49d" stroke="#ccc49d" stroke-width="1.51"/><path d="M120,420L360,420L360,180Z" fill="#dfce84" stroke="#dfce84" stroke-width="1.51"/><path d="M120,180L120,420L360,180Z" fill="#c9ef91" stroke="#c9ef91" stroke-width="1.51"/><path d="M120,180L360,180L360,-60Z" fill="#aaffa8" stroke="#aaffa8" stroke-width="1.51"/><path d="M120,-60L120,180L360,-60Z" fill="#59ffe1" stroke="#59ffe1" stroke-width="1.51"/><path d="M120,-60L360,-60L360,-300Z" fill="#d3cf82" stroke="#d3cf82" stroke-width="1.51"/><path d="M120,-300L120,-60L360,-300Z" fill="#d9bc7d" stroke="#d9bc7d" stroke-width="1.51"/><path d="M-120,1380L120,1380L120,1140Z" fill="#b580d0" stroke="#b580d0" stroke-width="1.51"/><path d="M-120,1140L-120,1380L120,1140Z" fill="#d069b1" stroke="#d069b1" stroke-width="1.51"/><path d="M-120,1140L120,1140L120,900Z" fill="#c588c1" stroke="#c588c1" stroke-width="1.51"/><path d="M-120,900L-120,1140L120,900Z" fill="#c98aac" stroke="#c98aac" stroke-width="1.51"/><path d="M-120,900L120,900L120,660Z" fill="#9ec4bd" stroke="#9ec4bd" stroke-width="1.51"/><path d="M-120,660L-120,900L120,660Z" fill="#c8c17d" stroke="#c8c17d" stroke-width="1.51"/><path d="M-120,660L120,660L120,420Z" fill="#d2c974" stroke="#d2c974" stroke-width="1.51"/><path d="M-120,420L-120,660L120,420Z" fill="#ed9365" stroke="#ed9365" stroke-width="1.51"/><path d="M-120,420L120,420L120,180Z" fill="#e4b27c" stroke="#e4b27c" stroke-width="1.51"/><path d="M-120,180L-120,420L120,180Z" fill="#f0c154" stroke="#f0c154" stroke-width="1.51"/><path d="M-120,180L120,180L120,-60Z" fill="#bae59f" stroke="#bae59f" stroke-width="1.51"/><path d="M-120,-60L-120,180L120,-60Z" fill="#b9d3a5" stroke="#b9d3a5" stroke-width="1.51"/><path d="M-120,-60L120,-60L120,-300Z" fill="#d9b37a" stroke="#d9b37a" stroke-width="1.51"/><path d="M-120,-300L-120,-60L120,-300Z" fill="#f48a44" stroke="#f48a44" stroke-width="1.51"/><path d="M-360,1380L-120,1380L-120,1140Z" fill="#dc499c" stroke="#dc499c" stroke-width="1.51"/><path d="M-360,1140L-360,1380L-120,1140Z" fill="#dd63b3" stroke="#dd63b3" stroke-width="1.51"/><path d="M-360,1140L-120,1140L-120,900Z" fill="#e8528e" stroke="#e8528e" stroke-width="1.51"/><path d="M-360,900L-360,1140L-120,900Z" fill="#d787ae" stroke="#d787ae" stroke-width="1.51"/><path d="M-360,900L-120,900L-120,660Z" fill="#d09e88" stroke="#d09e88" stroke-width="1.51"/><path d="M-360,660L-360,900L-120,660Z" fill="#d7bf80" stroke="#d7bf80" stroke-width="1.51"/><path d="M-360,660L-120,660L-120,420Z" fill="#f1a33a" stroke="#f1a33a" stroke-width="1.51"/><path d="M-360,420L-360,660L-120,420Z" fill="#fa9067" stroke="#fa9067" stroke-width="1.51"/><path d="M-360,420L-120,420L-120,180Z" fill="#ff8746" stroke="#ff8746" stroke-width="1.51"/><path d="M-360,180L-360,420L-120,180Z" fill="#febf57" stroke="#febf57" stroke-width="1.51"/><path d="M-360,180L-120,180L-120,-60Z" fill="#e6bf68" stroke="#e6bf68" stroke-width="1.51"/><path d="M-360,-60L-360,180L-120,-60Z" fill="#cad2a7" stroke="#cad2a7" stroke-width="1.51"/><path d="M-360,-60L-120,-60L-120,-300Z" fill="#f58944" stroke="#f58944" stroke-width="1.51"/><path d="M-360,-300L-360,-60L-120,-300Z" fill="#ff8647" stroke="#ff8647" stroke-width="1.51"/></svg>