<svg xmlns="http://www.w3.org/2000/svg" width="1920" height="1080"><path d="M1980,1260L2100,1260L2100,1140Z" fill="#0e5f29" stroke="#0e5f29" stroke-width="1.51"/><path d="M1980,1140L1980,1260L2100,1140Z" fill="#146a2f" stroke="#146a2f" stroke-width="1.51"/><path d="M1980,1140L2100,1140L2100,1020Z" fill="#227337" stroke="#227337" stroke-width="1.51"/><path d="M1980,1020L1980,1140L2100,1020Z" fill="#2d7e3f" stroke="#2d7e3f" stroke-width="1.51"/><path d="M1980,1020L2100,1020L2100,900Z" fill="#3c8648" stroke="#3c8648" stroke-width="1.51"/><path d="M1980,900L1980,1020L2100,900Z" fill="#499152" stroke="#499152" stroke-width="1.51"/><path d="M1980,900L2100,900L2100,780Z" fill="#5a975f" stroke="#5a975f" stroke-width="1.51"/><path d="M1980,780L1980,900L2100,780Z" fill="#649f68" stroke="#649f68" stroke-width="1.51"/><path d="M1980,780L2100,780L2100,660Z" fill="#6e9f71" stroke="#6e9f71" stroke-width="1.51"/><path d="M1980,660L1980,780L2100,660Z" fill="#78a77a" stroke="#78a77a" stroke-width="1.51"/><path d="M1980,660L2100,660L2100,540Z" fill="#7da480" stroke="#7da480" stroke-width="1.51"/><path d="M1980,540L1980,660L2100,540Z" fill="#83aa87" stroke="#83aa87" stroke-width="1.51"/><path d="M1980,540L2100,540L2100,420Z" fill="#83a287" stroke="#83a287" stroke-width="1.51"/><path d="M1980,420L1980,540L2100,420Z" fill="#84a388" stroke="#84a388" stroke-width="1.51"/><path d="M1980,420L2100,420L2100,300Z" fill="#7e9581" stroke="#7e9581" stroke-width="1.51"/><path d="M1980,300L1980,420L2100,300Z" fill="#7d9582" stroke="#7d9582" stroke-width="1.51"/><path d="M1980,300L2100,300L2100,180Z" fill="#728579" stroke="#728579" stroke-width="1.51"/><path d="M1980,180L1980,300L2100,180Z" fill="#718479" stroke="#718479" stroke-width="1.51"/><path d="M1980,180L2100,180L2100,60Z" fill="#65726e" stroke="#65726e" stroke-width="1.51"/><path d="M1980,60L1980,180L2100,60Z" fill="#63706d" stroke="#63706d" stroke-width="1.51"/><path d="M1980,60L2100,60L2100,-60Z" fill="#5a5d61" stroke="#5a5d61" stroke-width="1.51"/><path d="M1980,-60L1980,60L2100,-60Z" fill="#595a5f" stroke="#595a5f" stroke-width="1.51"/><path d="M1980,-60L2100,-60L2100,-180Z" fill="#4e4852" stroke="#4e4852" stroke-width="1.51"/><path d="M1980,-180L1980,-60L2100,-180Z" fill="#4b474e" stroke="#4b474e" stroke-width="1.51"/><path d="M1860,1260L1980,1260L1980,1140Z" fill="#156c31" stroke="#156c31" stroke-width="1.51"/><path d="M1860,1140L1860,1260L1980,1140Z" fill="#1d7737" stroke="#1d7737" stroke-width="1.51"/><path d="M1860,1140L1980,1140L1980,1020Z" fill="#29803e" stroke="#29803e" stroke-width="1.51"/><path d="M1860,1020L1860,1140L1980,1020Z" fill="#358c46" stroke="#358c46" stroke-width="1.51"/><path d="M1860,1020L1980,1020L1980,900Z" fill="#439450" stroke="#439450" stroke-width="1.51"/><path d="M1860,900L1860,1020L1980,900Z" fill="#519e5a" stroke="#519e5a" stroke-width="1.51"/><path d="M1860,900L1980,900L1980,780Z" fill="#61a567" stroke="#61a567" stroke-width="1.51"/><path d="M1860,780L1860,900L1980,780Z" fill="#6dad70" stroke="#6dad70" stroke-width="1.51"/><path d="M1860,780L1980,780L1980,660Z" fill="#77ad7a" stroke="#77ad7a" stroke-width="1.51"/><path d="M1860,660L1860,780L1980,660Z" fill="#81b583" stroke="#81b583" stroke-width="1.51"/><path d="M1860,660L1980,660L1980,540Z" fill="#85b289" stroke="#85b289" stroke-width="1.51"/><path d="M1860,540L1860,660L1980,540Z" fill="#8db890" stroke="#8db890" stroke-width="1.51"/><path d="M1860,540L1980,540L1980,420Z" fill="#8cb090" stroke="#8cb090" stroke-width="1.51"/><path d="M1860,420L1860,540L1980,420Z" fill="#8eb191" stroke="#8eb191" stroke-width="1.51"/><path d="M1860,420L1980,420L1980,300Z" fill="#87a48b" stroke="#87a48b" stroke-width="1.51"/><path d="M1860,300L1860,420L1980,300Z" fill="#87a38b" stroke="#87a38b" stroke-width="1.51"/><path d="M1860,300L1980,300L1980,180Z" fill="#7b9382" stroke="#7b9382" stroke-width="1.51"/><path d="M1860,180L1860,300L1980,180Z" fill="#7a9182" stroke="#7a9182" stroke-width="1.51"/><path d="M1860,180L1980,180L1980,60Z" fill="#6e8077" stroke="#6e8077" stroke-width="1.51"/><path d="M1860,60L1860,180L1980,60Z" fill="#6c7e75" stroke="#6c7e75" stroke-width="1.51"/><path d="M1860,60L1980,60L1980,-60Z" fill="#626b6a" stroke="#626b6a" stroke-width="1.51"/><path d="M1860,-60L1860,60L1980,-60Z" fill="#626768" stroke="#626768" stroke-width="1.51"/><path d="M1860,-60L1980,-60L1980,-180Z" fill="#57545b" stroke="#57545b" stroke-width="1.51"/><path d="M1860,-180L1860,-60L1980,-180Z" fill="#535357" stroke="#535357" stroke-width="1.51"/><path d="M1740,1260L1860,1260L1860,1140Z" fill="#25793a" stroke="#25793a" stroke-width="1.51"/><path d="M1740,1140L1740,1260L1860,1140Z" fill="#2e8441" stroke="#2e8441" stroke-width="1.51"/><path d="M1740,1140L1860,1140L1860,1020Z" fill="#378e48" stroke="#378e48" stroke-width="1.51"/><path d="M1740,1020L1740,1140L1860,1020Z" fill="#459951" stroke="#459951" stroke-width="1.51"/><path d="M1740,1020L1860,1020L1860,900Z" fill="#50a25a" stroke="#50a25a" stroke-width="1.51"/><path d="M1740,900L1740,1020L1860,900Z" fill="#60ac65" stroke="#60ac65" stroke-width="1.51"/><path d="M1740,900L1860,900L1860,780Z" fill="#6eb372" stroke="#6eb372" stroke-width="1.51"/><path d="M1740,780L1740,900L1860,780Z" fill="#7bbb7c" stroke="#7bbb7c" stroke-width="1.51"/><path d="M1740,780L1860,780L1860,660Z" fill="#83bc84" stroke="#83bc84" stroke-width="1.51"/><path d="M1740,660L1740,780L1860,660Z" fill="#8fc38f" stroke="#8fc38f" stroke-width="1.51"/><path d="M1740,660L1860,660L1860,540Z" fill="#92c093" stroke="#92c093" stroke-width="1.51"/><path d="M1740,540L1740,660L1860,540Z" fill="#9bc69c" stroke="#9bc69c" stroke-width="1.51"/><path d="M1740,540L1860,540L1860,420Z" fill="#99be9b" stroke="#99be9b" stroke-width="1.51"/><path d="M1740,420L1740,540L1860,420Z" fill="#9cbf9d" stroke="#9cbf9d" stroke-width="1.51"/><path d="M1740,420L1860,420L1860,300Z" fill="#94b295" stroke="#94b295" stroke-width="1.51"/><path d="M1740,300L1740,420L1860,300Z" fill="#95b097" stroke="#95b097" stroke-width="1.51"/><path d="M1740,300L1860,300L1860,180Z" fill="#87a08d" stroke="#87a08d" stroke-width="1.51"/><path d="M1740,180L1740,300L1860,180Z" fill="#889f8e" stroke="#889f8e" stroke-width="1.51"/><path d="M1740,180L1860,180L1860,60Z" fill="#7a8d82" stroke="#7a8d82" stroke-width="1.51"/><path d="M1740,60L1740,180L1860,60Z" fill="#7a8b81" stroke="#7a8b81" stroke-width="1.51"/><path d="M1740,60L1860,60L1860,-60Z" fill="#6e7874" stroke="#6e7874" stroke-width="1.51"/><path d="M1740,-60L1740,60L1860,-60Z" fill="#707473" stroke="#707473" stroke-width="1.51"/><path d="M1740,-60L1860,-60L1860,-180Z" fill="#636165" stroke="#636165" stroke-width="1.51"/><path d="M1740,-180L1740,-60L1860,-180Z" fill="#605f62" stroke="#605f62" stroke-width="1.51"/><path d="M1620,1260L1740,1260L1740,1140Z" fill="#358644" stroke="#358644" stroke-width="1.51"/><path d="M1620,1140L1620,1260L1740,1140Z" fill="#3f914c" stroke="#3f914c" stroke-width="1.51"/><path d="M1620,1140L1740,1140L1740,1020Z" fill="#469b52" stroke="#469b52" stroke-width="1.51"/><path d="M1620,1020L1620,1140L1740,1020Z" fill="#54a75c" stroke="#54a75c" stroke-width="1.51"/><path d="M1620,1020L1740,1020L1740,900Z" fill="#5faf64" stroke="#5faf64" stroke-width="1.51"/><path d="M1620,900L1620,1020L1740,900Z" fill="#6fba71" stroke="#6fba71" stroke-width="1.51"/><path d="M1620,900L1740,900L1740,780Z" fill="#7cc17d" stroke="#7cc17d" stroke-width="1.51"/><path d="M1620,780L1620,900L1740,780Z" fill="#8ac888" stroke="#8ac888" stroke-width="1.51"/><path d="M1620,780L1740,780L1740,660Z" fill="#92c990" stroke="#92c990" stroke-width="1.51"/><path d="M1620,660L1620,780L1740,660Z" fill="#9ed19b" stroke="#9ed19b" stroke-width="1.51"/><path d="M1620,660L1740,660L1740,540Z" fill="#a1ce9f" stroke="#a1ce9f" stroke-width="1.51"/><path d="M1620,540L1620,660L1740,540Z" fill="#aad4a9" stroke="#aad4a9" stroke-width="1.51"/><path d="M1620,540L1740,540L1740,420Z" fill="#a7cca6" stroke="#a7cca6" stroke-width="1.51"/><path d="M1620,420L1620,540L1740,420Z" fill="#abcca9" stroke="#abcca9" stroke-width="1.51"/><path d="M1620,420L1740,420L1740,300Z" fill="#a2bfa1" stroke="#a2bfa1" stroke-width="1.51"/><path d="M1620,300L1620,420L1740,300Z" fill="#a3bea3" stroke="#a3bea3" stroke-width="1.51"/><path d="M1620,300L1740,300L1740,180Z" fill="#95ae98" stroke="#95ae98" stroke-width="1.51"/><path d="M1620,180L1620,300L1740,180Z" fill="#96ac9a" stroke="#96ac9a" stroke-width="1.51"/><path d="M1620,180L1740,180L1740,60Z" fill="#889a8d" stroke="#889a8d" stroke-width="1.51"/><path d="M1620,60L1620,180L1740,60Z" fill="#88988d" stroke="#88988d" stroke-width="1.51"/><path d="M1620,60L1740,60L1740,-60Z" fill="#7c8480" stroke="#7c8480" stroke-width="1.51"/><path d="M1620,-60L1620,60L1740,-60Z" fill="#7e807f" stroke="#7e807f" stroke-width="1.51"/><path d="M1620,-60L1740,-60L1740,-180Z" fill="#706d70" stroke="#706d70" stroke-width="1.51"/><path d="M1620,-180L1620,-60L1740,-180Z" fill="#6e6b6d" stroke="#6e6b6d" stroke-width="1.51"/><path d="M1500,1260L1620,1260L1620,1140Z" fill="#499253" stroke="#499253" stroke-width="1.51"/><path d="M1500,1140L1500,1260L1620,1140Z" fill="#539c5b" stroke="#539c5b" stroke-width="1.51"/><path d="M1500,1140L1620,1140L1620,1020Z" fill="#5aa761" stroke="#5aa761" stroke-width="1.51"/><path d="M1500,1020L1500,1140L1620,1020Z" fill="#68b26c" stroke="#68b26c" stroke-width="1.51"/><path d="M1500,1020L1620,1020L1620,900Z" fill="#72bb73" stroke="#72bb73" stroke-width="1.51"/><path d="M1500,900L1500,1020L1620,900Z" fill="#82c580" stroke="#82c580" stroke-width="1.51"/><path d="M1500,900L1620,900L1620,780Z" fill="#8fcd8c" stroke="#8fcd8c" stroke-width="1.51"/><path d="M1500,780L1500,900L1620,780Z" fill="#9cd497" stroke="#9cd497" stroke-width="1.51"/><path d="M1500,780L1620,780L1620,660Z" fill="#a4d69f" stroke="#a4d69f" stroke-width="1.51"/><path d="M1500,660L1500,780L1620,660Z" fill="#b0dcab" stroke="#b0dcab" stroke-width="1.51"/><path d="M1500,660L1620,660L1620,540Z" fill="#b2daaf" stroke="#b2daaf" stroke-width="1.51"/><path d="M1500,540L1500,660L1620,540Z" fill="#bcdfb9" stroke="#bcdfb9" stroke-width="1.51"/><path d="M1500,540L1620,540L1620,420Z" fill="#b9d8b6" stroke="#b9d8b6" stroke-width="1.51"/><path d="M1500,420L1500,540L1620,420Z" fill="#bdd7b9" stroke="#bdd7b9" stroke-width="1.51"/><path d="M1500,420L1620,420L1620,300Z" fill="#b3cbb1" stroke="#b3cbb1" stroke-width="1.51"/><path d="M1500,300L1500,420L1620,300Z" fill="#b5c9b3" stroke="#b5c9b3" stroke-width="1.51"/><path d="M1500,300L1620,300L1620,180Z" fill="#a6b9a8" stroke="#a6b9a8" stroke-width="1.51"/><path d="M1500,180L1500,300L1620,180Z" fill="#a7b6aa" stroke="#a7b6aa" stroke-width="1.51"/><path d="M1500,180L1620,180L1620,60Z" fill="#98a69c" stroke="#98a69c" stroke-width="1.51"/><path d="M1500,60L1500,180L1620,60Z" fill="#99a29c" stroke="#99a29c" stroke-width="1.51"/><path d="M1500,60L1620,60L1620,-60Z" fill="#8c8f8e" stroke="#8c8f8e" stroke-width="1.51"/><path d="M1500,-60L1500,60L1620,-60Z" fill="#8e8a8e" stroke="#8e8a8e" stroke-width="1.51"/><path d="M1500,-60L1620,-60L1620,-180Z" fill="#80777f" stroke="#80777f" stroke-width="1.51"/><path d="M1500,-180L1500,-60L1620,-180Z" fill="#7d757c" stroke="#7d757c" stroke-width="1.51"/><path d="M1380,1260L1500,1260L1500,1140Z" fill="#5c9c62" stroke="#5c9c62" stroke-width="1.51"/><path d="M1380,1140L1380,1260L1500,1140Z" fill="#65a66a" stroke="#65a66a" stroke-width="1.51"/><path d="M1380,1140L1500,1140L1500,1020Z" fill="#6db271" stroke="#6db271" stroke-width="1.51"/><path d="M1380,1020L1380,1140L1500,1020Z" fill="#7abc7b" stroke="#7abc7b" stroke-width="1.51"/><path d="M1380,1020L1500,1020L1500,900Z" fill="#84c683" stroke="#84c683" stroke-width="1.51"/><path d="M1380,900L1380,1020L1500,900Z" fill="#93cf90" stroke="#93cf90" stroke-width="1.51"/><path d="M1380,900L1500,900L1500,780Z" fill="#a1d89c" stroke="#a1d89c" stroke-width="1.51"/><path d="M1380,780L1380,900L1500,780Z" fill="#aedea7" stroke="#aedea7" stroke-width="1.51"/><path d="M1380,780L1500,780L1500,660Z" fill="#b6e1af" stroke="#b6e1af" stroke-width="1.51"/><path d="M1380,660L1380,780L1500,660Z" fill="#c1e6bb" stroke="#c1e6bb" stroke-width="1.51"/><path d="M1380,660L1500,660L1500,540Z" fill="#c4e5bf" stroke="#c4e5bf" stroke-width="1.51"/><path d="M1380,540L1380,660L1500,540Z" fill="#cde9c9" stroke="#cde9c9" stroke-width="1.51"/><path d="M1380,540L1500,540L1500,420Z" fill="#cae3c7" stroke="#cae3c7" stroke-width="1.51"/><path d="M1380,420L1380,540L1500,420Z" fill="#cee2c9" stroke="#cee2c9" stroke-width="1.51"/><path d="M1380,420L1500,420L1500,300Z" fill="#c5d6c1" stroke="#c5d6c1" stroke-width="1.51"/><path d="M1380,300L1380,420L1500,300Z" fill="#c5d3c3" stroke="#c5d3c3" stroke-width="1.51"/><path d="M1380,300L1500,300L1500,180Z" fill="#b8c4b8" stroke="#b8c4b8" stroke-width="1.51"/><path d="M1380,180L1380,300L1500,180Z" fill="#b8c0b9" stroke="#b8c0b9" stroke-width="1.51"/><path d="M1380,180L1500,180L1500,60Z" fill="#a9b0ac" stroke="#a9b0ac" stroke-width="1.51"/><path d="M1380,60L1380,180L1500,60Z" fill="#a9abac" stroke="#a9abac" stroke-width="1.51"/><path d="M1380,60L1500,60L1500,-60Z" fill="#9c999e" stroke="#9c999e" stroke-width="1.51"/><path d="M1380,-60L1380,60L1500,-60Z" fill="#9d939d" stroke="#9d939d" stroke-width="1.51"/><path d="M1380,-60L1500,-60L1500,-180Z" fill="#8f818e" stroke="#8f818e" stroke-width="1.51"/><path d="M1380,-180L1380,-60L1500,-180Z" fill="#8c7e8b" stroke="#8c7e8b" stroke-width="1.51"/><path d="M1260,1260L1380,1260L1380,1140Z" fill="#6aa36e" stroke="#6aa36e" stroke-width="1.51"/><path d="M1260,1140L1260,1260L1380,1140Z" fill="#73ab76" stroke="#73ab76" stroke-width="1.51"/><path d="M1260,1140L1380,1140L1380,1020Z" fill="#7bb97d" stroke="#7bb97d" stroke-width="1.51"/><path d="M1260,1020L1260,1140L1380,1020Z" fill="#87c187" stroke="#87c187" stroke-width="1.51"/><path d="M1260,1020L1380,1020L1380,900Z" fill="#92cd90" stroke="#92cd90" stroke-width="1.51"/><path d="M1260,900L1260,1020L1380,900Z" fill="#a0d59d" stroke="#a0d59d" stroke-width="1.51"/><path d="M1260,900L1380,900L1380,780Z" fill="#afdfa9" stroke="#afdfa9" stroke-width="1.51"/><path d="M1260,780L1260,900L1380,780Z" fill="#bbe3b4" stroke="#bbe3b4" stroke-width="1.51"/><path d="M1260,780L1380,780L1380,660Z" fill="#c3e7bc" stroke="#c3e7bc" stroke-width="1.51"/><path d="M1260,660L1260,780L1380,660Z" fill="#ceebc8" stroke="#ceebc8" stroke-width="1.51"/><path d="M1260,660L1380,660L1380,540Z" fill="#d2eccc" stroke="#d2eccc" stroke-width="1.51"/><path d="M1260,540L1260,660L1380,540Z" fill="#daeed6" stroke="#daeed6" stroke-width="1.51"/><path d="M1260,540L1380,540L1380,420Z" fill="#d8e9d4" stroke="#d8e9d4" stroke-width="1.51"/><path d="M1260,420L1260,540L1380,420Z" fill="#dae6d6" stroke="#dae6d6" stroke-width="1.51"/><path d="M1260,420L1380,420L1380,300Z" fill="#d2dcce" stroke="#d2dcce" stroke-width="1.51"/><path d="M1260,300L1260,420L1380,300Z" fill="#d2d7d0" stroke="#d2d7d0" stroke-width="1.51"/><path d="M1260,300L1380,300L1380,180Z" fill="#c4cac5" stroke="#c4cac5" stroke-width="1.51"/><path d="M1260,180L1260,300L1380,180Z" fill="#c4c5c6" stroke="#c4c5c6" stroke-width="1.51"/><path d="M1260,180L1380,180L1380,60Z" fill="#b6b6b9" stroke="#b6b6b9" stroke-width="1.51"/><path d="M1260,60L1260,180L1380,60Z" fill="#b4b0b8" stroke="#b4b0b8" stroke-width="1.51"/><path d="M1260,60L1380,60L1380,-60Z" fill="#a89fab" stroke="#a89fab" stroke-width="1.51"/><path d="M1260,-60L1260,60L1380,-60Z" fill="#a897aa" stroke="#a897aa" stroke-width="1.51"/><path d="M1260,-60L1380,-60L1380,-180Z" fill="#9b869a" stroke="#9b869a" stroke-width="1.51"/><path d="M1260,-180L1260,-60L1380,-180Z" fill="#978297" stroke="#978297" stroke-width="1.51"/><path d="M1140,1260L1260,1260L1260,1140Z" fill="#77a87a" stroke="#77a87a" stroke-width="1.51"/><path d="M1140,1140L1140,1260L1260,1140Z" fill="#7fb082" stroke="#7fb082" stroke-width="1.51"/><path d="M1140,1140L1260,1140L1260,1020Z" fill="#89be89" stroke="#89be89" stroke-width="1.51"/><path d="M1140,1020L1140,1140L1260,1020Z" fill="#94c693" stroke="#94c693" stroke-width="1.51"/><path d="M1140,1020L1260,1020L1260,900Z" fill="#a0d29d" stroke="#a0d29d" stroke-width="1.51"/><path d="M1140,900L1140,1020L1260,900Z" fill="#addaa8" stroke="#addaa8" stroke-width="1.51"/><path d="M1140,900L1260,900L1260,780Z" fill="#bce4b6" stroke="#bce4b6" stroke-width="1.51"/><path d="M1140,780L1140,900L1260,780Z" fill="#c7e8c0" stroke="#c7e8c0" stroke-width="1.51"/><path d="M1140,780L1260,780L1260,660Z" fill="#d0ecc9" stroke="#d0ecc9" stroke-width="1.51"/><path d="M1140,660L1140,780L1260,660Z" fill="#daf0d4" stroke="#daf0d4" stroke-width="1.51"/><path d="M1140,660L1260,660L1260,540Z" fill="#dff1d9" stroke="#dff1d9" stroke-width="1.51"/><path d="M1140,540L1140,660L1260,540Z" fill="#e6f3e2" stroke="#e6f3e2" stroke-width="1.51"/><path d="M1140,540L1260,540L1260,420Z" fill="#e4eee1" stroke="#e4eee1" stroke-width="1.51"/><path d="M1140,420L1140,540L1260,420Z" fill="#e6ebe3" stroke="#e6ebe3" stroke-width="1.51"/><path d="M1140,420L1260,420L1260,300Z" fill="#dee1db" stroke="#dee1db" stroke-width="1.51"/><path d="M1140,300L1140,420L1260,300Z" fill="#dddcdc" stroke="#dddcdc" stroke-width="1.51"/><path d="M1140,300L1260,300L1260,180Z" fill="#d1cfd2" stroke="#d1cfd2" stroke-width="1.51"/><path d="M1140,180L1140,300L1260,180Z" fill="#cfc9d2" stroke="#cfc9d2" stroke-width="1.51"/><path d="M1140,180L1260,180L1260,60Z" fill="#c2bac6" stroke="#c2bac6" stroke-width="1.51"/><path d="M1140,60L1140,180L1260,60Z" fill="#bfb4c4" stroke="#bfb4c4" stroke-width="1.51"/><path d="M1140,60L1260,60L1260,-60Z" fill="#b4a3b7" stroke="#b4a3b7" stroke-width="1.51"/><path d="M1140,-60L1140,60L1260,-60Z" fill="#b39bb5" stroke="#b39bb5" stroke-width="1.51"/><path d="M1140,-60L1260,-60L1260,-180Z" fill="#a68aa6" stroke="#a68aa6" stroke-width="1.51"/><path d="M1140,-180L1140,-60L1260,-180Z" fill="#a286a2" stroke="#a286a2" stroke-width="1.51"/><path d="M1020,1260L1140,1260L1140,1140Z" fill="#80aa83" stroke="#80aa83" stroke-width="1.51"/><path d="M1020,1140L1020,1260L1140,1140Z" fill="#87b28a" stroke="#87b28a" stroke-width="1.51"/><path d="M1020,1140L1140,1140L1140,1020Z" fill="#91c092" stroke="#91c092" stroke-width="1.51"/><path d="M1020,1020L1020,1140L1140,1020Z" fill="#9bc89b" stroke="#9bc89b" stroke-width="1.51"/><path d="M1020,1020L1140,1020L1140,900Z" fill="#a8d5a6" stroke="#a8d5a6" stroke-width="1.51"/><path d="M1020,900L1020,1020L1140,900Z" fill="#b5dbb1" stroke="#b5dbb1" stroke-width="1.51"/><path d="M1020,900L1140,900L1140,780Z" fill="#c4e6bf" stroke="#c4e6bf" stroke-width="1.51"/><path d="M1020,780L1020,900L1140,780Z" fill="#ceeac9" stroke="#ceeac9" stroke-width="1.51"/><path d="M1020,780L1140,780L1140,660Z" fill="#d9efd3" stroke="#d9efd3" stroke-width="1.51"/><path d="M1020,660L1020,780L1140,660Z" fill="#e2f2dd" stroke="#e2f2dd" stroke-width="1.51"/><path d="M1020,660L1140,660L1140,540Z" fill="#e7f3e3" stroke="#e7f3e3" stroke-width="1.51"/><path d="M1020,540L1020,660L1140,540Z" fill="#edf5eb" stroke="#edf5eb" stroke-width="1.51"/><path d="M1020,540L1140,540L1140,420Z" fill="#edf1eb" stroke="#edf1eb" stroke-width="1.51"/><path d="M1020,420L1020,540L1140,420Z" fill="#ededec" stroke="#ededec" stroke-width="1.51"/><path d="M1020,420L1140,420L1140,300Z" fill="#e6e3e5" stroke="#e6e3e5" stroke-width="1.51"/><path d="M1020,300L1020,420L1140,300Z" fill="#e4dde5" stroke="#e4dde5" stroke-width="1.51"/><path d="M1020,300L1140,300L1140,180Z" fill="#d9d1db" stroke="#d9d1db" stroke-width="1.51"/><path d="M1020,180L1020,300L1140,180Z" fill="#d6cbdb" stroke="#d6cbdb" stroke-width="1.51"/><path d="M1020,180L1140,180L1140,60Z" fill="#c9bccf" stroke="#c9bccf" stroke-width="1.51"/><path d="M1020,60L1020,180L1140,60Z" fill="#c6b5cd" stroke="#c6b5cd" stroke-width="1.51"/><path d="M1020,60L1140,60L1140,-60Z" fill="#bba5c0" stroke="#bba5c0" stroke-width="1.51"/><path d="M1020,-60L1020,60L1140,-60Z" fill="#b99cbd" stroke="#b99cbd" stroke-width="1.51"/><path d="M1020,-60L1140,-60L1140,-180Z" fill="#ad8caf" stroke="#ad8caf" stroke-width="1.51"/><path d="M1020,-180L1020,-60L1140,-180Z" fill="#a886aa" stroke="#a886aa" stroke-width="1.51"/><path d="M900,1260L1020,1260L1020,1140Z" fill="#87ac8b" stroke="#87ac8b" stroke-width="1.51"/><path d="M900,1140L900,1260L1020,1140Z" fill="#8cb291" stroke="#8cb291" stroke-width="1.51"/><path d="M900,1140L1020,1140L1020,1020Z" fill="#99c29b" stroke="#99c29b" stroke-width="1.51"/><path d="M900,1020L900,1140L1020,1020Z" fill="#a1c8a2" stroke="#a1c8a2" stroke-width="1.51"/><path d="M900,1020L1020,1020L1020,900Z" fill="#b0d6af" stroke="#b0d6af" stroke-width="1.51"/><path d="M900,900L900,1020L1020,900Z" fill="#badcb8" stroke="#badcb8" stroke-width="1.51"/><path d="M900,900L1020,900L1020,780Z" fill="#cce8c8" stroke="#cce8c8" stroke-width="1.51"/><path d="M900,780L900,900L1020,780Z" fill="#d4ead0" stroke="#d4ead0" stroke-width="1.51"/><path d="M900,780L1020,780L1020,660Z" fill="#e0f0dc" stroke="#e0f0dc" stroke-width="1.51"/><path d="M900,660L900,780L1020,660Z" fill="#e7f2e4" stroke="#e7f2e4" stroke-width="1.51"/><path d="M900,660L1020,660L1020,540Z" fill="#eff5ec" stroke="#eff5ec" stroke-width="1.51"/><path d="M900,540L900,660L1020,540Z" fill="#f3f5f2" stroke="#f3f5f2" stroke-width="1.51"/><path d="M900,540L1020,540L1020,420Z" fill="#f4f2f4" stroke="#f4f2f4" stroke-width="1.51"/><path d="M900,420L900,540L1020,420Z" fill="#f3ecf2" stroke="#f3ecf2" stroke-width="1.51"/><path d="M900,420L1020,420L1020,300Z" fill="#eee4ee" stroke="#eee4ee" stroke-width="1.51"/><path d="M900,300L900,420L1020,300Z" fill="#eaddeb" stroke="#eaddeb" stroke-width="1.51"/><path d="M900,300L1020,300L1020,180Z" fill="#e0d2e4" stroke="#e0d2e4" stroke-width="1.51"/><path d="M900,180L900,300L1020,180Z" fill="#dbcae1" stroke="#dbcae1" stroke-width="1.51"/><path d="M900,180L1020,180L1020,60Z" fill="#d0bdd7" stroke="#d0bdd7" stroke-width="1.51"/><path d="M900,60L900,180L1020,60Z" fill="#cbb5d3" stroke="#cbb5d3" stroke-width="1.51"/><path d="M900,60L1020,60L1020,-60Z" fill="#c2a6c9" stroke="#c2a6c9" stroke-width="1.51"/><path d="M900,-60L900,60L1020,-60Z" fill="#be9cc4" stroke="#be9cc4" stroke-width="1.51"/><path d="M900,-60L1020,-60L1020,-180Z" fill="#b48db8" stroke="#b48db8" stroke-width="1.51"/><path d="M900,-180L900,-60L1020,-180Z" fill="#ad86b0" stroke="#ad86b0" stroke-width="1.51"/><path d="M780,1260L900,1260L900,1140Z" fill="#86a68a" stroke="#86a68a" stroke-width="1.51"/><path d="M780,1140L780,1260L900,1140Z" fill="#89aa8d" stroke="#89aa8d" stroke-width="1.51"/><path d="M780,1140L900,1140L900,1020Z" fill="#97bb9a" stroke="#97bb9a" stroke-width="1.51"/><path d="M780,1020L780,1140L900,1020Z" fill="#9ec09f" stroke="#9ec09f" stroke-width="1.51"/><path d="M780,1020L900,1020L900,900Z" fill="#aed0ad" stroke="#aed0ad" stroke-width="1.51"/><path d="M780,900L780,1020L900,900Z" fill="#b7d3b4" stroke="#b7d3b4" stroke-width="1.51"/><path d="M780,900L900,900L900,780Z" fill="#cae1c7" stroke="#cae1c7" stroke-width="1.51"/><path d="M780,780L780,900L900,780Z" fill="#d0e1cc" stroke="#d0e1cc" stroke-width="1.51"/><path d="M780,780L900,780L900,660Z" fill="#dee9da" stroke="#dee9da" stroke-width="1.51"/><path d="M780,660L780,780L900,660Z" fill="#e3e9e0" stroke="#e3e9e0" stroke-width="1.51"/><path d="M780,660L900,660L900,540Z" fill="#eceeeb" stroke="#eceeeb" stroke-width="1.51"/><path d="M780,540L780,660L900,540Z" fill="#efecee" stroke="#efecee" stroke-width="1.51"/><path d="M780,540L900,540L900,420Z" fill="#f2ebf2" stroke="#f2ebf2" stroke-width="1.51"/><path d="M780,420L780,540L900,420Z" fill="#efe4ee" stroke="#efe4ee" stroke-width="1.51"/><path d="M780,420L900,420L900,300Z" fill="#ebddec" stroke="#ebddec" stroke-width="1.51"/><path d="M780,300L780,420L900,300Z" fill="#e6d5e8" stroke="#e6d5e8" stroke-width="1.51"/><path d="M780,300L900,300L900,180Z" fill="#ddcbe2" stroke="#ddcbe2" stroke-width="1.51"/><path d="M780,180L780,300L900,180Z" fill="#d7c2dd" stroke="#d7c2dd" stroke-width="1.51"/><path d="M780,180L900,180L900,60Z" fill="#ceb7d6" stroke="#ceb7d6" stroke-width="1.51"/><path d="M780,60L780,180L900,60Z" fill="#c7adcf" stroke="#c7adcf" stroke-width="1.51"/><path d="M780,60L900,60L900,-60Z" fill="#bf9fc7" stroke="#bf9fc7" stroke-width="1.51"/><path d="M780,-60L780,60L900,-60Z" fill="#ba94c0" stroke="#ba94c0" stroke-width="1.51"/><path d="M780,-60L900,-60L900,-180Z" fill="#b186b6" stroke="#b186b6" stroke-width="1.51"/><path d="M780,-180L780,-60L900,-180Z" fill="#a87ead" stroke="#a87ead" stroke-width="1.51"/><path d="M660,1260L780,1260L780,1140Z" fill="#839e87" stroke="#839e87" stroke-width="1.51"/><path d="M660,1140L660,1260L780,1140Z" fill="#85a28a" stroke="#85a28a" stroke-width="1.51"/><path d="M660,1140L780,1140L780,1020Z" fill="#94b496" stroke="#94b496" stroke-width="1.51"/><path d="M660,1020L660,1140L780,1020Z" fill="#9ab79b" stroke="#9ab79b" stroke-width="1.51"/><path d="M660,1020L780,1020L780,900Z" fill="#abc8aa" stroke="#abc8aa" stroke-width="1.51"/><path d="M660,900L660,1020L780,900Z" fill="#b3cab1" stroke="#b3cab1" stroke-width="1.51"/><path d="M660,900L780,900L780,780Z" fill="#c7d9c3" stroke="#c7d9c3" stroke-width="1.51"/><path d="M660,780L660,900L780,780Z" fill="#ccd8c8" stroke="#ccd8c8" stroke-width="1.51"/><path d="M660,780L780,780L780,660Z" fill="#dae1d7" stroke="#dae1d7" stroke-width="1.51"/><path d="M660,660L660,780L780,660Z" fill="#dfe0dc" stroke="#dfe0dc" stroke-width="1.51"/><path d="M660,660L780,660L780,540Z" fill="#e8e5e7" stroke="#e8e5e7" stroke-width="1.51"/><path d="M660,540L660,660L780,540Z" fill="#eae2ea" stroke="#eae2ea" stroke-width="1.51"/><path d="M660,540L780,540L780,420Z" fill="#eee2ee" stroke="#eee2ee" stroke-width="1.51"/><path d="M660,420L660,540L780,420Z" fill="#eadaeb" stroke="#eadaeb" stroke-width="1.51"/><path d="M660,420L780,420L780,300Z" fill="#e7d5e8" stroke="#e7d5e8" stroke-width="1.51"/><path d="M660,300L660,420L780,300Z" fill="#e0cbe3" stroke="#e0cbe3" stroke-width="1.51"/><path d="M660,300L780,300L780,180Z" fill="#d9c3de" stroke="#d9c3de" stroke-width="1.51"/><path d="M660,180L660,300L780,180Z" fill="#d2b9d9" stroke="#d2b9d9" stroke-width="1.51"/><path d="M660,180L780,180L780,60Z" fill="#c9aed2" stroke="#c9aed2" stroke-width="1.51"/><path d="M660,60L660,180L780,60Z" fill="#c2a4cb" stroke="#c2a4cb" stroke-width="1.51"/><path d="M660,60L780,60L780,-60Z" fill="#bb97c3" stroke="#bb97c3" stroke-width="1.51"/><path d="M660,-60L660,60L780,-60Z" fill="#b58bbc" stroke="#b58bbc" stroke-width="1.51"/><path d="M660,-60L780,-60L780,-180Z" fill="#ad7eb2" stroke="#ad7eb2" stroke-width="1.51"/><path d="M660,-180L660,-60L780,-180Z" fill="#a375a9" stroke="#a375a9" stroke-width="1.51"/><path d="M540,1260L660,1260L660,1140Z" fill="#7c9382" stroke="#7c9382" stroke-width="1.51"/><path d="M540,1140L540,1260L660,1140Z" fill="#7d9684" stroke="#7d9684" stroke-width="1.51"/><path d="M540,1140L660,1140L660,1020Z" fill="#8ea991" stroke="#8ea991" stroke-width="1.51"/><path d="M540,1020L540,1140L660,1020Z" fill="#92ac95" stroke="#92ac95" stroke-width="1.51"/><path d="M540,1020L660,1020L660,900Z" fill="#a4bda5" stroke="#a4bda5" stroke-width="1.51"/><path d="M540,900L540,1020L660,900Z" fill="#aabeab" stroke="#aabeab" stroke-width="1.51"/><path d="M540,900L660,900L660,780Z" fill="#bfcdbe" stroke="#bfcdbe" stroke-width="1.51"/><path d="M540,780L540,900L660,780Z" fill="#c3ccc2" stroke="#c3ccc2" stroke-width="1.51"/><path d="M540,780L660,780L660,660Z" fill="#d3d5d1" stroke="#d3d5d1" stroke-width="1.51"/><path d="M540,660L540,780L660,660Z" fill="#d5d4d6" stroke="#d5d4d6" stroke-width="1.51"/><path d="M540,660L660,660L660,540Z" fill="#e0d9e1" stroke="#e0d9e1" stroke-width="1.51"/><path d="M540,540L540,660L660,540Z" fill="#e0d6e4" stroke="#e0d6e4" stroke-width="1.51"/><path d="M540,540L660,540L660,420Z" fill="#e6d7e9" stroke="#e6d7e9" stroke-width="1.51"/><path d="M540,420L540,540L660,420Z" fill="#e0cee4" stroke="#e0cee4" stroke-width="1.51"/><path d="M540,420L660,420L660,300Z" fill="#dfc9e3" stroke="#dfc9e3" stroke-width="1.51"/><path d="M540,300L540,420L660,300Z" fill="#d7bfdd" stroke="#d7bfdd" stroke-width="1.51"/><path d="M540,300L660,300L660,180Z" fill="#d1b7d9" stroke="#d1b7d9" stroke-width="1.51"/><path d="M540,180L540,300L660,180Z" fill="#c8add3" stroke="#c8add3" stroke-width="1.51"/><path d="M540,180L660,180L660,60Z" fill="#c1a3cc" stroke="#c1a3cc" stroke-width="1.51"/><path d="M540,60L540,180L660,60Z" fill="#b898c5" stroke="#b898c5" stroke-width="1.51"/><path d="M540,60L660,60L660,-60Z" fill="#b38cbe" stroke="#b38cbe" stroke-width="1.51"/><path d="M540,-60L540,60L660,-60Z" fill="#ab7fb6" stroke="#ab7fb6" stroke-width="1.51"/><path d="M540,-60L660,-60L660,-180Z" fill="#a573ad" stroke="#a573ad" stroke-width="1.51"/><path d="M540,-180L540,-60L660,-180Z" fill="#9a6aa2" stroke="#9a6aa2" stroke-width="1.51"/><path d="M420,1260L540,1260L540,1140Z" fill="#74887c" stroke="#74887c" stroke-width="1.51"/><path d="M420,1140L420,1260L540,1140Z" fill="#768b7e" stroke="#768b7e" stroke-width="1.51"/><path d="M420,1140L540,1140L540,1020Z" fill="#859e8c" stroke="#859e8c" stroke-width="1.51"/><path d="M420,1020L420,1140L540,1020Z" fill="#8aa08f" stroke="#8aa08f" stroke-width="1.51"/><path d="M420,1020L540,1020L540,900Z" fill="#9cb19f" stroke="#9cb19f" stroke-width="1.51"/><path d="M420,900L420,1020L540,900Z" fill="#a2b2a5" stroke="#a2b2a5" stroke-width="1.51"/><path d="M420,900L540,900L540,780Z" fill="#b6c2b8" stroke="#b6c2b8" stroke-width="1.51"/><path d="M420,780L420,900L540,780Z" fill="#bbc0bc" stroke="#bbc0bc" stroke-width="1.51"/><path d="M420,780L540,780L540,660Z" fill="#c9cacb" stroke="#c9cacb" stroke-width="1.51"/><path d="M420,660L420,780L540,660Z" fill="#cdc7cf" stroke="#cdc7cf" stroke-width="1.51"/><path d="M420,660L540,660L540,540Z" fill="#d7cedb" stroke="#d7cedb" stroke-width="1.51"/><path d="M420,540L420,660L540,540Z" fill="#d7cadd" stroke="#d7cadd" stroke-width="1.51"/><path d="M420,540L540,540L540,420Z" fill="#dccbe2" stroke="#dccbe2" stroke-width="1.51"/><path d="M420,420L420,540L540,420Z" fill="#d7c2dd" stroke="#d7c2dd" stroke-width="1.51"/><path d="M420,420L540,420L540,300Z" fill="#d5bedc" stroke="#d5bedc" stroke-width="1.51"/><path d="M420,300L420,420L540,300Z" fill="#ceb3d6" stroke="#ceb3d6" stroke-width="1.51"/><path d="M420,300L540,300L540,180Z" fill="#c7acd3" stroke="#c7acd3" stroke-width="1.51"/><path d="M420,180L420,300L540,180Z" fill="#c0a1cc" stroke="#c0a1cc" stroke-width="1.51"/><path d="M420,180L540,180L540,60Z" fill="#b898c6" stroke="#b898c6" stroke-width="1.51"/><path d="M420,60L420,180L540,60Z" fill="#af8cbe" stroke="#af8cbe" stroke-width="1.51"/><path d="M420,60L540,60L540,-60Z" fill="#aa81b7" stroke="#aa81b7" stroke-width="1.51"/><path d="M420,-60L420,60L540,-60Z" fill="#a274af" stroke="#a274af" stroke-width="1.51"/><path d="M420,-60L540,-60L540,-180Z" fill="#9b68a6" stroke="#9b68a6" stroke-width="1.51"/><path d="M420,-180L420,-60L540,-180Z" fill="#915e9c" stroke="#915e9c" stroke-width="1.51"/><path d="M300,1260L420,1260L420,1140Z" fill="#6c7c75" stroke="#6c7c75" stroke-width="1.51"/><path d="M300,1140L300,1260L420,1140Z" fill="#6d7f76" stroke="#6d7f76" stroke-width="1.51"/><path d="M300,1140L420,1140L420,1020Z" fill="#7d9184" stroke="#7d9184" stroke-width="1.51"/><path d="M300,1020L300,1140L420,1020Z" fill="#819387" stroke="#819387" stroke-width="1.51"/><path d="M300,1020L420,1020L420,900Z" fill="#93a497" stroke="#93a497" stroke-width="1.51"/><path d="M300,900L300,1020L420,900Z" fill="#98a59c" stroke="#98a59c" stroke-width="1.51"/><path d="M300,900L420,900L420,780Z" fill="#adb5b0" stroke="#adb5b0" stroke-width="1.51"/><path d="M300,780L300,900L420,780Z" fill="#b1b3b3" stroke="#b1b3b3" stroke-width="1.51"/><path d="M300,780L420,780L420,660Z" fill="#c0bcc3" stroke="#c0bcc3" stroke-width="1.51"/><path d="M300,660L300,780L420,660Z" fill="#c2bac7" stroke="#c2bac7" stroke-width="1.51"/><path d="M300,660L420,660L420,540Z" fill="#cdc0d2" stroke="#cdc0d2" stroke-width="1.51"/><path d="M300,540L300,660L420,540Z" fill="#cdbdd4" stroke="#cdbdd4" stroke-width="1.51"/><path d="M300,540L420,540L420,420Z" fill="#d2bed9" stroke="#d2bed9" stroke-width="1.51"/><path d="M300,420L300,540L420,420Z" fill="#cdb5d4" stroke="#cdb5d4" stroke-width="1.51"/><path d="M300,420L420,420L420,300Z" fill="#cbb1d3" stroke="#cbb1d3" stroke-width="1.51"/><path d="M300,300L300,420L420,300Z" fill="#c3a6cd" stroke="#c3a6cd" stroke-width="1.51"/><path d="M300,300L420,300L420,180Z" fill="#bd9fca" stroke="#bd9fca" stroke-width="1.51"/><path d="M300,180L300,300L420,180Z" fill="#b594c3" stroke="#b594c3" stroke-width="1.51"/><path d="M300,180L420,180L420,60Z" fill="#ae8bbd" stroke="#ae8bbd" stroke-width="1.51"/><path d="M300,60L300,180L420,60Z" fill="#a57fb5" stroke="#a57fb5" stroke-width="1.51"/><path d="M300,60L420,60L420,-60Z" fill="#a074af" stroke="#a074af" stroke-width="1.51"/><path d="M300,-60L300,60L420,-60Z" fill="#9867a6" stroke="#9867a6" stroke-width="1.51"/><path d="M300,-60L420,-60L420,-180Z" fill="#915c9e" stroke="#915c9e" stroke-width="1.51"/><path d="M300,-180L300,-60L420,-180Z" fill="#865293" stroke="#865293" stroke-width="1.51"/><path d="M180,1260L300,1260L300,1140Z" fill="#636f6d" stroke="#636f6d" stroke-width="1.51"/><path d="M180,1140L180,1260L300,1140Z" fill="#65716e" stroke="#65716e" stroke-width="1.51"/><path d="M180,1140L300,1140L300,1020Z" fill="#74847c" stroke="#74847c" stroke-width="1.51"/><path d="M180,1020L180,1140L300,1020Z" fill="#78867f" stroke="#78867f" stroke-width="1.51"/><path d="M180,1020L300,1020L300,900Z" fill="#89978f" stroke="#89978f" stroke-width="1.51"/><path d="M180,900L180,1020L300,900Z" fill="#909794" stroke="#909794" stroke-width="1.51"/><path d="M180,900L300,900L300,780Z" fill="#a3a7a7" stroke="#a3a7a7" stroke-width="1.51"/><path d="M180,780L180,900L300,780Z" fill="#a7a5aa" stroke="#a7a5aa" stroke-width="1.51"/><path d="M180,780L300,780L300,660Z" fill="#b6aeba" stroke="#b6aeba" stroke-width="1.51"/><path d="M180,660L180,780L300,660Z" fill="#b9acbe" stroke="#b9acbe" stroke-width="1.51"/><path d="M180,660L300,660L300,540Z" fill="#c3b2c9" stroke="#c3b2c9" stroke-width="1.51"/><path d="M180,540L180,660L300,540Z" fill="#c3aecb" stroke="#c3aecb" stroke-width="1.51"/><path d="M180,540L300,540L300,420Z" fill="#c8b0d0" stroke="#c8b0d0" stroke-width="1.51"/><path d="M180,420L180,540L300,420Z" fill="#c3a6cb" stroke="#c3a6cb" stroke-width="1.51"/><path d="M180,420L300,420L300,300Z" fill="#c1a3ca" stroke="#c1a3ca" stroke-width="1.51"/><path d="M180,300L180,420L300,300Z" fill="#b998c4" stroke="#b998c4" stroke-width="1.51"/><path d="M180,300L300,300L300,180Z" fill="#b391c1" stroke="#b391c1" stroke-width="1.51"/><path d="M180,180L180,300L300,180Z" fill="#ab86ba" stroke="#ab86ba" stroke-width="1.51"/><path d="M180,180L300,180L300,60Z" fill="#a37db4" stroke="#a37db4" stroke-width="1.51"/><path d="M180,60L180,180L300,60Z" fill="#9b71ac" stroke="#9b71ac" stroke-width="1.51"/><path d="M180,60L300,60L300,-60Z" fill="#9567a6" stroke="#9567a6" stroke-width="1.51"/><path d="M180,-60L180,60L300,-60Z" fill="#8e599d" stroke="#8e599d" stroke-width="1.51"/><path d="M180,-60L300,-60L300,-180Z" fill="#864e95" stroke="#864e95" stroke-width="1.51"/><path d="M180,-180L180,-60L300,-180Z" fill="#7c448b" stroke="#7c448b" stroke-width="1.51"/><path d="M60,1260L180,1260L180,1140Z" fill="#5c6164" stroke="#5c6164" stroke-width="1.51"/><path d="M60,1140L60,1260L180,1140Z" fill="#5e6365" stroke="#5e6365" stroke-width="1.51"/><path d="M60,1140L180,1140L180,1020Z" fill="#6d7573" stroke="#6d7573" stroke-width="1.51"/><path d="M60,1020L60,1140L180,1020Z" fill="#727676" stroke="#727676" stroke-width="1.51"/><path d="M60,1020L180,1020L180,900Z" fill="#838885" stroke="#838885" stroke-width="1.51"/><path d="M60,900L60,1020L180,900Z" fill="#89888a" stroke="#89888a" stroke-width="1.51"/><path d="M60,900L180,900L180,780Z" fill="#9c979d" stroke="#9c979d" stroke-width="1.51"/><path d="M60,780L60,900L180,780Z" fill="#a094a1" stroke="#a094a1" stroke-width="1.51"/><path d="M60,780L180,780L180,660Z" fill="#ae9eb0" stroke="#ae9eb0" stroke-width="1.51"/><path d="M60,660L60,780L180,660Z" fill="#b19bb4" stroke="#b19bb4" stroke-width="1.51"/><path d="M60,660L180,660L180,540Z" fill="#bba2bf" stroke="#bba2bf" stroke-width="1.51"/><path d="M60,540L60,660L180,540Z" fill="#bb9dc1" stroke="#bb9dc1" stroke-width="1.51"/><path d="M60,540L180,540L180,420Z" fill="#bf9fc6" stroke="#bf9fc6" stroke-width="1.51"/><path d="M60,420L60,540L180,420Z" fill="#ba95c1" stroke="#ba95c1" stroke-width="1.51"/><path d="M60,420L180,420L180,300Z" fill="#b992c0" stroke="#b992c0" stroke-width="1.51"/><path d="M60,300L60,420L180,300Z" fill="#b187ba" stroke="#b187ba" stroke-width="1.51"/><path d="M60,300L180,300L180,180Z" fill="#ab81b7" stroke="#ab81b7" stroke-width="1.51"/><path d="M60,180L60,300L180,180Z" fill="#a375b0" stroke="#a375b0" stroke-width="1.51"/><path d="M60,180L180,180L180,60Z" fill="#9b6daa" stroke="#9b6daa" stroke-width="1.51"/><path d="M60,60L60,180L180,60Z" fill="#9361a2" stroke="#9361a2" stroke-width="1.51"/><path d="M60,60L180,60L180,-60Z" fill="#8d579c" stroke="#8d579c" stroke-width="1.51"/><path d="M60,-60L60,60L180,-60Z" fill="#854993" stroke="#854993" stroke-width="1.51"/><path d="M60,-60L180,-60L180,-180Z" fill="#7e3e8b" stroke="#7e3e8b" stroke-width="1.51"/><path d="M60,-180L60,-60L180,-180Z" fill="#733381" stroke="#733381" stroke-width="1.51"/><path d="M-60,1260L60,1260L60,1140Z" fill="#56525b" stroke="#56525b" stroke-width="1.51"/><path d="M-60,1140L-60,1260L60,1140Z" fill="#57545b" stroke="#57545b" stroke-width="1.51"/><path d="M-60,1140L60,1140L60,1020Z" fill="#676669" stroke="#676669" stroke-width="1.51"/><path d="M-60,1020L-60,1140L60,1020Z" fill="#6a686b" stroke="#6a686b" stroke-width="1.51"/><path d="M-60,1020L60,1020L60,900Z" fill="#7c787c" stroke="#7c787c" stroke-width="1.51"/><path d="M-60,900L-60,1020L60,900Z" fill="#807880" stroke="#807880" stroke-width="1.51"/><path d="M-60,900L60,900L60,780Z" fill="#958793" stroke="#958793" stroke-width="1.51"/><path d="M-60,780L-60,900L60,780Z" fill="#978596" stroke="#978596" stroke-width="1.51"/><path d="M-60,780L60,780L60,660Z" fill="#a68ea6" stroke="#a68ea6" stroke-width="1.51"/><path d="M-60,660L-60,780L60,660Z" fill="#a88ba8" stroke="#a88ba8" stroke-width="1.51"/><path d="M-60,660L60,660L60,540Z" fill="#b391b5" stroke="#b391b5" stroke-width="1.51"/><path d="M-60,540L-60,660L60,540Z" fill="#b28db5" stroke="#b28db5" stroke-width="1.51"/><path d="M-60,540L60,540L60,420Z" fill="#b78ebc" stroke="#b78ebc" stroke-width="1.51"/><path d="M-60,420L-60,540L60,420Z" fill="#b185b6" stroke="#b185b6" stroke-width="1.51"/><path d="M-60,420L60,420L60,300Z" fill="#b081b6" stroke="#b081b6" stroke-width="1.51"/><path d="M-60,300L-60,420L60,300Z" fill="#a877af" stroke="#a877af" stroke-width="1.51"/><path d="M-60,300L60,300L60,180Z" fill="#a270ad" stroke="#a270ad" stroke-width="1.51"/><path d="M-60,180L-60,300L60,180Z" fill="#9965a5" stroke="#9965a5" stroke-width="1.51"/><path d="M-60,180L60,180L60,60Z" fill="#935da0" stroke="#935da0" stroke-width="1.51"/><path d="M-60,60L-60,180L60,60Z" fill="#895197" stroke="#895197" stroke-width="1.51"/><path d="M-60,60L60,60L60,-60Z" fill="#844692" stroke="#844692" stroke-width="1.51"/><path d="M-60,-60L-60,60L60,-60Z" fill="#7b3888" stroke="#7b3888" stroke-width="1.51"/><path d="M-60,-60L60,-60L60,-180Z" fill="#742c81" stroke="#742c81" stroke-width="1.51"/><path d="M-60,-180L-60,-60L60,-180Z" fill="#692176" stroke="#692176" stroke-width="1.51"/><path d="M-180,1260L-60,1260L-60,1140Z" fill="#4a474e" stroke="#4a474e" stroke-width="1.51"/><path d="M-180,1140L-180,1260L-60,1140Z" fill="#4a4a4e" stroke="#4a4a4e" stroke-width="1.51"/><path d="M-180,1140L-60,1140L-60,1020Z" fill="#5a5a5d" stroke="#5a5a5d" stroke-width="1.51"/><path d="M-180,1020L-180,1140L-60,1020Z" fill="#5d5d5e" stroke="#5d5d5e" stroke-width="1.51"/><path d="M-180,1020L-60,1020L-60,900Z" fill="#6f6c6e" stroke="#6f6c6e" stroke-width="1.51"/><path d="M-180,900L-180,1020L-60,900Z" fill="#736e71" stroke="#736e71" stroke-width="1.51"/><path d="M-180,900L-60,900L-60,780Z" fill="#877b86" stroke="#877b86" stroke-width="1.51"/><path d="M-180,780L-180,900L-60,780Z" fill="#897a87" stroke="#897a87" stroke-width="1.51"/><path d="M-180,780L-60,780L-60,660Z" fill="#998298" stroke="#998298" stroke-width="1.51"/><path d="M-180,660L-180,780L-60,660Z" fill="#998099" stroke="#998099" stroke-width="1.51"/><path d="M-180,660L-60,660L-60,540Z" fill="#a585a7" stroke="#a585a7" stroke-width="1.51"/><path d="M-180,540L-180,660L-60,540Z" fill="#a382a6" stroke="#a382a6" stroke-width="1.51"/><path d="M-180,540L-60,540L-60,420Z" fill="#a982ad" stroke="#a982ad" stroke-width="1.51"/><path d="M-180,420L-180,540L-60,420Z" fill="#a27aa6" stroke="#a27aa6" stroke-width="1.51"/><path d="M-180,420L-60,420L-60,300Z" fill="#a375a7" stroke="#a375a7" stroke-width="1.51"/><path d="M-180,300L-180,420L-60,300Z" fill="#996ca0" stroke="#996ca0" stroke-width="1.51"/><path d="M-180,300L-60,300L-60,180Z" fill="#95649e" stroke="#95649e" stroke-width="1.51"/><path d="M-180,180L-180,300L-60,180Z" fill="#8b5b96" stroke="#8b5b96" stroke-width="1.51"/><path d="M-180,180L-60,180L-60,60Z" fill="#855192" stroke="#855192" stroke-width="1.51"/><path d="M-180,60L-180,180L-60,60Z" fill="#7b4789" stroke="#7b4789" stroke-width="1.51"/><path d="M-180,60L-60,60L-60,-60Z" fill="#773b84" stroke="#773b84" stroke-width="1.51"/><path d="M-180,-60L-180,60L-60,-60Z" fill="#6d2e7a" stroke="#6d2e7a" stroke-width="1.51"/><path d="M-180,-60L-60,-60L-60,-180Z" fill="#672074" stroke="#672074" stroke-width="1.51"/><path d="M-180,-180L-180,-60L-60,-180Z" fill="#5c1768" stroke="#5c1768" stroke-width="1.51"/></svg>