<svg xmlns="http://www.w3.org/2000/svg" width="1920" height="1080"><path d="M1957,1395L2242,1395L2242,1110Z" fill="#4f9223" stroke="#4f9223" stroke-width="1.51"/><path d="M1957,1110L1957,1395L2242,1110Z" fill="#62a32f" stroke="#62a32f" stroke-width="1.51"/><path d="M1957,1110L2242,1110L2242,825Z" fill="#75ae46" stroke="#75ae46" stroke-width="1.51"/><path d="M1957,825L1957,1110L2242,825Z" fill="#8abe5b" stroke="#8abe5b" stroke-width="1.51"/><path d="M1957,825L2242,825L2242,540Z" fill="#98bf79" stroke="#98bf79" stroke-width="1.51"/><path d="M1957,540L1957,825L2242,540Z" fill="#a4c786" stroke="#a4c786" stroke-width="1.51"/><path d="M1957,540L2242,540L2242,255Z" fill="#a3bb89" stroke="#a3bb89" stroke-width="1.51"/><path d="M1957,255L1957,540L2242,255Z" fill="#adbe8c" stroke="#adbe8c" stroke-width="1.51"/><path d="M1957,255L2242,255L2242,-30Z" fill="#a2a47f" stroke="#a2a47f" stroke-width="1.51"/><path d="M1957,-30L1957,255L2242,-30Z" fill="#a69f7b" stroke="#a69f7b" stroke-width="1.51"/><path d="M1957,-30L2242,-30L2242,-315Z" fill="#987c63" stroke="#987c63" stroke-width="1.51"/><path d="M1957,-315L1957,-30L2242,-315Z" fill="#9b755c" stroke="#9b755c" stroke-width="1.51"/><path d="M1672,1395L1957,1395L1957,1110Z" fill="#67a732" stroke="#67a732" stroke-width="1.51"/><path d="M1672,1110L1672,1395L1957,1110Z" fill="#7cb842" stroke="#7cb842" stroke-width="1.51"/><path d="M1672,1110L1957,1110L1957,825Z" fill="#8dc454" stroke="#8dc454" stroke-width="1.51"/><path d="M1672,825L1672,1110L1957,825Z" fill="#a3d26d" stroke="#a3d26d" stroke-width="1.51"/><path d="M1672,825L1957,825L1957,540Z" fill="#b1d588" stroke="#b1d588" stroke-width="1.51"/><path d="M1672,540L1672,825L1957,540Z" fill="#bedc99" stroke="#bedc99" stroke-width="1.51"/><path d="M1672,540L1957,540L1957,255Z" fill="#bcd198" stroke="#bcd198" stroke-width="1.51"/><path d="M1672,255L1672,540L1957,255Z" fill="#c6d39f" stroke="#c6d39f" stroke-width="1.51"/><path d="M1672,255L1957,255L1957,-30Z" fill="#baba8e" stroke="#baba8e" stroke-width="1.51"/><path d="M1672,-30L1672,255L1957,-30Z" fill="#bfb38e" stroke="#bfb38e" stroke-width="1.51"/><path d="M1672,-30L1957,-30L1957,-315Z" fill="#b09171" stroke="#b09171" stroke-width="1.51"/><path d="M1672,-315L1672,-30L1957,-315Z" fill="#b4886e" stroke="#b4886e" stroke-width="1.51"/><path d="M1387,1395L1672,1395L1672,1110Z" fill="#83ba52" stroke="#83ba52" stroke-width="1.51"/><path d="M1387,1110L1387,1395L1672,1110Z" fill="#98c965" stroke="#98c965" stroke-width="1.51"/><path d="M1387,1110L1672,1110L1672,825Z" fill="#a9d774" stroke="#a9d774" stroke-width="1.51"/><path d="M1387,825L1387,1110L1672,825Z" fill="#bfe490" stroke="#bfe490" stroke-width="1.51"/><path d="M1387,825L1672,825L1672,540Z" fill="#cce8a7" stroke="#cce8a7" stroke-width="1.51"/><path d="M1387,540L1387,825L1672,540Z" fill="#d8edbb" stroke="#d8edbb" stroke-width="1.51"/><path d="M1387,540L1672,540L1672,255Z" fill="#d6e4b7" stroke="#d6e4b7" stroke-width="1.51"/><path d="M1387,255L1387,540L1672,255Z" fill="#e0e3c1" stroke="#e0e3c1" stroke-width="1.51"/><path d="M1387,255L1672,255L1672,-30Z" fill="#d4ccad" stroke="#d4ccad" stroke-width="1.51"/><path d="M1387,-30L1387,255L1672,-30Z" fill="#d9c3af" stroke="#d9c3af" stroke-width="1.51"/><path d="M1387,-30L1672,-30L1672,-315Z" fill="#caa28e" stroke="#caa28e" stroke-width="1.51"/><path d="M1387,-315L1387,-30L1672,-315Z" fill="#cd968e" stroke="#cd968e" stroke-width="1.51"/><path d="M1102,1395L1387,1395L1387,1110Z" fill="#9cc676" stroke="#9cc676" stroke-width="1.51"/><path d="M1102,1110L1102,1395L1387,1110Z" fill="#add187" stroke="#add187" stroke-width="1.51"/><path d="M1102,1110L1387,1110L1387,825Z" fill="#c2e398" stroke="#c2e398" stroke-width="1.51"/><path d="M1102,825L1102,1110L1387,825Z" fill="#d4ecb2" stroke="#d4ecb2" stroke-width="1.51"/><path d="M1102,825L1387,825L1387,540Z" fill="#e3f4cb" stroke="#e3f4cb" stroke-width="1.51"/><path d="M1102,540L1102,825L1387,540Z" fill="#ecf6dd" stroke="#ecf6dd" stroke-width="1.51"/><path d="M1102,540L1387,540L1387,255Z" fill="#edefdc" stroke="#edefdc" stroke-width="1.51"/><path d="M1102,255L1102,540L1387,255Z" fill="#f3ebe3" stroke="#f3ebe3" stroke-width="1.51"/><path d="M1102,255L1387,255L1387,-30Z" fill="#ead7d0" stroke="#ead7d0" stroke-width="1.51"/><path d="M1102,-30L1102,255L1387,-30Z" fill="#eccad0" stroke="#eccad0" stroke-width="1.51"/><path d="M1102,-30L1387,-30L1387,-315Z" fill="#e0abb1" stroke="#e0abb1" stroke-width="1.51"/><path d="M1102,-315L1102,-30L1387,-315Z" fill="#e09cae" stroke="#e09cae" stroke-width="1.51"/><path d="M817,1395L1102,1395L1102,1110Z" fill="#a8c88c" stroke="#a8c88c" stroke-width="1.51"/><path d="M817,1110L817,1395L1102,1110Z" fill="#b6d197" stroke="#b6d197" stroke-width="1.51"/><path d="M817,1110L1102,1110L1102,825Z" fill="#cde5af" stroke="#cde5af" stroke-width="1.51"/><path d="M817,825L817,1110L1102,825Z" fill="#dcebc2" stroke="#dcebc2" stroke-width="1.51"/><path d="M817,825L1102,825L1102,540Z" fill="#eef6e1" stroke="#eef6e1" stroke-width="1.51"/><path d="M817,540L817,825L1102,540Z" fill="#f4f5ed" stroke="#f4f5ed" stroke-width="1.51"/><path d="M817,540L1102,540L1102,255Z" fill="#f7f2f2" stroke="#f7f2f2" stroke-width="1.51"/><path d="M817,255L817,540L1102,255Z" fill="#fbeaf2" stroke="#fbeaf2" stroke-width="1.51"/><path d="M817,255L1102,255L1102,-30Z" fill="#f4d9e7" stroke="#f4d9e7" stroke-width="1.51"/><path d="M817,-30L817,255L1102,-30Z" fill="#f2c9df" stroke="#f2c9df" stroke-width="1.51"/><path d="M817,-30L1102,-30L1102,-315Z" fill="#e9adc6" stroke="#e9adc6" stroke-width="1.51"/><path d="M817,-315L817,-30L1102,-315Z" fill="#e79abd" stroke="#e79abd" stroke-width="1.51"/><path d="M532,1395L817,1395L817,1110Z" fill="#adc08c" stroke="#adc08c" stroke-width="1.51"/><path d="M532,1110L532,1395L817,1110Z" fill="#b8c592" stroke="#b8c592" stroke-width="1.51"/><path d="M532,1110L817,1110L817,825Z" fill="#d2dcae" stroke="#d2dcae" stroke-width="1.51"/><path d="M532,825L532,1110L817,825Z" fill="#dedfbc" stroke="#dedfbc" stroke-width="1.51"/><path d="M532,825L817,825L817,540Z" fill="#f2ede1" stroke="#f2ede1" stroke-width="1.51"/><path d="M532,540L532,825L817,540Z" fill="#f5e8e8" stroke="#f5e8e8" stroke-width="1.51"/><path d="M532,540L817,540L817,255Z" fill="#fbe8f1" stroke="#fbe8f1" stroke-width="1.51"/><path d="M532,255L532,540L817,255Z" fill="#fcdded" stroke="#fcdded" stroke-width="1.51"/><path d="M532,255L817,255L817,-30Z" fill="#f7cfe6" stroke="#f7cfe6" stroke-width="1.51"/><path d="M532,-30L532,255L817,-30Z" fill="#f3bcda" stroke="#f3bcda" stroke-width="1.51"/><path d="M532,-30L817,-30L817,-315Z" fill="#eca3c6" stroke="#eca3c6" stroke-width="1.51"/><path d="M532,-315L532,-30L817,-315Z" fill="#e68db7" stroke="#e68db7" stroke-width="1.51"/><path d="M247,1395L532,1395L532,1110Z" fill="#aaae84" stroke="#aaae84" stroke-width="1.51"/><path d="M247,1110L247,1395L532,1110Z" fill="#b4b087" stroke="#b4b087" stroke-width="1.51"/><path d="M247,1110L532,1110L532,825Z" fill="#cfcaa6" stroke="#cfcaa6" stroke-width="1.51"/><path d="M247,825L247,1110L532,825Z" fill="#d9c9b1" stroke="#d9c9b1" stroke-width="1.51"/><path d="M247,825L532,825L532,540Z" fill="#eed9d8" stroke="#eed9d8" stroke-width="1.51"/><path d="M247,540L247,825L532,540Z" fill="#f0d1db" stroke="#f0d1db" stroke-width="1.51"/><path d="M247,540L532,540L532,255Z" fill="#f7d5e8" stroke="#f7d5e8" stroke-width="1.51"/><path d="M247,255L247,540L532,255Z" fill="#f6c7e0" stroke="#f6c7e0" stroke-width="1.51"/><path d="M247,255L532,255L532,-30Z" fill="#f3bcdd" stroke="#f3bcdd" stroke-width="1.51"/><path d="M247,-30L247,255L532,-30Z" fill="#eca5cd" stroke="#eca5cd" stroke-width="1.51"/><path d="M247,-30L532,-30L532,-315Z" fill="#e68fbc" stroke="#e68fbc" stroke-width="1.51"/><path d="M247,-315L247,-30L532,-315Z" fill="#de75ab" stroke="#de75ab" stroke-width="1.51"/><path d="M-38,1395L247,1395L247,1110Z" fill="#a49372" stroke="#a49372" stroke-width="1.51"/><path d="M-38,1110L-38,1395L247,1110Z" fill="#ad9373" stroke="#ad9373" stroke-width="1.51"/><path d="M-38,1110L247,1110L247,825Z" fill="#c8ae93" stroke="#c8ae93" stroke-width="1.51"/><path d="M-38,825L-38,1110L247,825Z" fill="#d1ab9b" stroke="#d1ab9b" stroke-width="1.51"/><path d="M-38,825L247,825L247,540Z" fill="#e7bdc4" stroke="#e7bdc4" stroke-width="1.51"/><path d="M-38,540L-38,825L247,540Z" fill="#e8b2c5" stroke="#e8b2c5" stroke-width="1.51"/><path d="M-38,540L247,540L247,255Z" fill="#efb8d4" stroke="#efb8d4" stroke-width="1.51"/><path d="M-38,255L-38,540L247,255Z" fill="#eea7ca" stroke="#eea7ca" stroke-width="1.51"/><path d="M-38,255L247,255L247,-30Z" fill="#ea9ec8" stroke="#ea9ec8" stroke-width="1.51"/><path d="M-38,-30L-38,255L247,-30Z" fill="#e285b7" stroke="#e285b7" stroke-width="1.51"/><path d="M-38,-30L247,-30L247,-315Z" fill="#dc70a9" stroke="#dc70a9" stroke-width="1.51"/><path d="M-38,-315L-38,-30L247,-315Z" fill="#d25296" stroke="#d25296" stroke-width="1.51"/><path d="M-323,1395L-38,1395L-38,1110Z" fill="#9c755c" stroke="#9c755c" stroke-width="1.51"/><path d="M-323,1110L-323,1395L-38,1110Z" fill="#a1775c" stroke="#a1775c" stroke-width="1.51"/><path d="M-323,1110L-38,1110L-38,825Z" fill="#c08e7c" stroke="#c08e7c" stroke-width="1.51"/><path d="M-323,825L-323,1110L-38,825Z" fill="#c68e83" stroke="#c68e83" stroke-width="1.51"/><path d="M-323,825L-38,825L-38,540Z" fill="#df9cab" stroke="#df9cab" stroke-width="1.51"/><path d="M-323,540L-323,825L-38,540Z" fill="#dd94ac" stroke="#dd94ac" stroke-width="1.51"/><path d="M-323,540L-38,540L-38,255Z" fill="#e796bb" stroke="#e796bb" stroke-width="1.51"/><path d="M-323,255L-323,540L-38,255Z" fill="#e188b1" stroke="#e188b1" stroke-width="1.51"/><path d="M-323,255L-38,255L-38,-30Z" fill="#e17caf" stroke="#e17caf" stroke-width="1.51"/><path d="M-323,-30L-323,255L-38,-30Z" fill="#d5659e" stroke="#d5659e" stroke-width="1.51"/><path d="M-323,-30L-38,-30L-38,-315Z" fill="#d04991" stroke="#d04991" stroke-width="1.51"/><path d="M-323,-315L-323,-30L-38,-315Z" fill="#c3277e" stroke="#c3277e" stroke-width="1.51"/></svg>