<svg xmlns="http://www.w3.org/2000/svg" width="1920" height="1080"><path d="M1230,1398L756,1412L1398,1432Z" fill="#34729c" stroke="#34729c" stroke-width="1.51"/><path d="M1922,904L1917,1010L2183,750Z" fill="#196fa4" stroke="#196fa4" stroke-width="1.51"/><path d="M1841,189L2184,432L2285,356Z" fill="#5e85ad" stroke="#5e85ad" stroke-width="1.51"/><path d="M2184,432L2183,750L2285,356Z" fill="#46789f" stroke="#46789f" stroke-width="1.51"/><path d="M1937,-208L1862,-79L2286,-162Z" fill="#859bbd" stroke="#859bbd" stroke-width="1.51"/><path d="M1841,189L2285,356L2286,-162Z" fill="#708aae" stroke="#708aae" stroke-width="1.51"/><path d="M1862,-79L1841,189L2286,-162Z" fill="#7f97bc" stroke="#7f97bc" stroke-width="1.51"/><path d="M1322,-424L1759,-353L2306,-267Z" fill="#94a9cd" stroke="#94a9cd" stroke-width="1.51"/><path d="M1759,-353L1937,-208L2306,-267Z" fill="#8ca0c1" stroke="#8ca0c1" stroke-width="1.51"/><path d="M2286,-162L2285,356L2306,-267Z" fill="#7588a5" stroke="#7588a5" stroke-width="1.51"/><path d="M2183,750L1917,1010L2314,1162Z" fill="#0e6398" stroke="#0e6398" stroke-width="1.51"/><path d="M2285,356L2183,750L2314,1162Z" fill="#256a95" stroke="#256a95" stroke-width="1.51"/><path d="M2306,-267L2285,356L2314,1162Z" fill="#4f779b" stroke="#4f779b" stroke-width="1.51"/><path d="M1816,1321L1398,1432L2315,1273Z" fill="#055b90" stroke="#055b90" stroke-width="1.51"/><path d="M2314,1162L1917,1010L2315,1273Z" fill="#04588b" stroke="#04588b" stroke-width="1.51"/><path d="M1917,1010L1816,1321L2315,1273Z" fill="#045e93" stroke="#045e93" stroke-width="1.51"/><path d="M1937,-208L2286,-162L2306,-267Z" fill="#8496b3" stroke="#8496b3" stroke-width="1.51"/><path d="M629,-438L829,-395L1322,-424Z" fill="#bdcfe5" stroke="#bdcfe5" stroke-width="1.51"/><path d="M1918,659L1922,904L2183,750Z" fill="#2576a8" stroke="#2576a8" stroke-width="1.51"/><path d="M1918,659L2183,750L2184,432Z" fill="#3c79a6" stroke="#3c79a6" stroke-width="1.51"/><path d="M1798,430L1918,659L2184,432Z" fill="#4c84b2" stroke="#4c84b2" stroke-width="1.51"/><path d="M1841,189L1798,430L2184,432Z" fill="#5f8ab6" stroke="#5f8ab6" stroke-width="1.51"/><path d="M1581,1195L1614,1259L1816,1321Z" fill="#0566a0" stroke="#0566a0" stroke-width="1.51"/><path d="M1581,1195L1816,1321L1917,1010Z" fill="#0467a1" stroke="#0467a1" stroke-width="1.51"/><path d="M1918,659L1636,710L1922,904Z" fill="#2a7cb1" stroke="#2a7cb1" stroke-width="1.51"/><path d="M1759,-353L1862,-79L1937,-208Z" fill="#8da3c8" stroke="#8da3c8" stroke-width="1.51"/><path d="M1636,710L1581,1195L1917,1010Z" fill="#1173b0" stroke="#1173b0" stroke-width="1.51"/><path d="M1798,430L1636,710L1918,659Z" fill="#4385b8" stroke="#4385b8" stroke-width="1.51"/><path d="M1636,710L1917,1010L1922,904Z" fill="#1c75ae" stroke="#1c75ae" stroke-width="1.51"/><path d="M1384,943L1581,1195L1636,710Z" fill="#1f7bb6" stroke="#1f7bb6" stroke-width="1.51"/><path d="M1614,1259L1398,1432L1816,1321Z" fill="#0c649a" stroke="#0c649a" stroke-width="1.51"/><path d="M1530,389L1798,430L1841,189Z" fill="#6492c2" stroke="#6492c2" stroke-width="1.51"/><path d="M1545,38L1841,189L1862,-79Z" fill="#809cc7" stroke="#809cc7" stroke-width="1.51"/><path d="M1759,-353L1545,38L1862,-79Z" fill="#8ba4cc" stroke="#8ba4cc" stroke-width="1.51"/><path d="M1545,38L1530,389L1841,189Z" fill="#749ac9" stroke="#749ac9" stroke-width="1.51"/><path d="M1412,-43L1545,38L1759,-353Z" fill="#8faad2" stroke="#8faad2" stroke-width="1.51"/><path d="M1530,389L1636,710L1798,430Z" fill="#518ec1" stroke="#518ec1" stroke-width="1.51"/><path d="M1322,-424L1412,-43L1759,-353Z" fill="#99b4d6" stroke="#99b4d6" stroke-width="1.51"/><path d="M161,1264L-331,1318L756,1412Z" fill="#7b91b5" stroke="#7b91b5" stroke-width="1.51"/><path d="M1333,117L1530,389L1545,38Z" fill="#7ba3cd" stroke="#7ba3cd" stroke-width="1.51"/><path d="M1530,389L1411,448L1636,710Z" fill="#5594c4" stroke="#5594c4" stroke-width="1.51"/><path d="M1411,448L1384,943L1636,710Z" fill="#3e8dbf" stroke="#3e8dbf" stroke-width="1.51"/><path d="M1384,943L1370,1208L1581,1195Z" fill="#1c76af" stroke="#1c76af" stroke-width="1.51"/><path d="M1581,1195L1370,1208L1614,1259Z" fill="#156ea6" stroke="#156ea6" stroke-width="1.51"/><path d="M1370,1208L1398,1432L1614,1259Z" fill="#186da2" stroke="#186da2" stroke-width="1.51"/><path d="M1136,823L1384,943L1411,448Z" fill="#3f92c2" stroke="#3f92c2" stroke-width="1.51"/><path d="M1322,-424L1167,-180L1412,-43Z" fill="#9dbbda" stroke="#9dbbda" stroke-width="1.51"/><path d="M1333,117L1411,448L1530,389Z" fill="#6fa0cb" stroke="#6fa0cb" stroke-width="1.51"/><path d="M1412,-43L1333,117L1545,38Z" fill="#89abd1" stroke="#89abd1" stroke-width="1.51"/><path d="M1212,1182L1370,1208L1384,943Z" fill="#247cb3" stroke="#247cb3" stroke-width="1.51"/><path d="M1370,1208L1230,1398L1398,1432Z" fill="#1f6f9f" stroke="#1f6f9f" stroke-width="1.51"/><path d="M1333,117L986,385L1411,448Z" fill="#78a8ce" stroke="#78a8ce" stroke-width="1.51"/><path d="M1055,613L1136,823L1411,448Z" fill="#589cc7" stroke="#589cc7" stroke-width="1.51"/><path d="M1092,-13L1333,117L1412,-43Z" fill="#90b3d5" stroke="#90b3d5" stroke-width="1.51"/><path d="M1167,-180L1092,-13L1412,-43Z" fill="#9ab8d8" stroke="#9ab8d8" stroke-width="1.51"/><path d="M986,385L1055,613L1411,448Z" fill="#6ca5cc" stroke="#6ca5cc" stroke-width="1.51"/><path d="M-76,1267L-331,1318L161,1264Z" fill="#889cbf" stroke="#889cbf" stroke-width="1.51"/><path d="M1212,1182L1230,1398L1370,1208Z" fill="#2877a9" stroke="#2877a9" stroke-width="1.51"/><path d="M1136,823L1212,1182L1384,943Z" fill="#3386bc" stroke="#3386bc" stroke-width="1.51"/><path d="M603,1340L161,1264L756,1412Z" fill="#6888af" stroke="#6888af" stroke-width="1.51"/><path d="M1092,-13L986,385L1333,117Z" fill="#8eb1d5" stroke="#8eb1d5" stroke-width="1.51"/><path d="M1136,823L959,993L1212,1182Z" fill="#418abe" stroke="#418abe" stroke-width="1.51"/><path d="M829,-395L1167,-180L1322,-424Z" fill="#aec6e0" stroke="#aec6e0" stroke-width="1.51"/><path d="M876,139L986,385L1092,-13Z" fill="#97b7d7" stroke="#97b7d7" stroke-width="1.51"/><path d="M1212,1182L756,1412L1230,1398Z" fill="#3d79a7" stroke="#3d79a7" stroke-width="1.51"/><path d="M959,993L756,1412L1212,1182Z" fill="#4884b4" stroke="#4884b4" stroke-width="1.51"/><path d="M1055,613L927,694L1136,823Z" fill="#5b9dc8" stroke="#5b9dc8" stroke-width="1.51"/><path d="M829,-395L1092,-13L1167,-180Z" fill="#aec5df" stroke="#aec5df" stroke-width="1.51"/><path d="M829,-395L709,-7L1092,-13Z" fill="#b4c7e1" stroke="#b4c7e1" stroke-width="1.51"/><path d="M927,694L959,993L1136,823Z" fill="#5298c5" stroke="#5298c5" stroke-width="1.51"/><path d="M709,-7L876,139L1092,-13Z" fill="#a8bfdc" stroke="#a8bfdc" stroke-width="1.51"/><path d="M596,1220L756,1412L959,993Z" fill="#5989b6" stroke="#5989b6" stroke-width="1.51"/><path d="M748,502L927,694L986,385Z" fill="#7babd1" stroke="#7babd1" stroke-width="1.51"/><path d="M986,385L927,694L1055,613Z" fill="#70a7ce" stroke="#70a7ce" stroke-width="1.51"/><path d="M927,694L480,849L959,993Z" fill="#659ec8" stroke="#659ec8" stroke-width="1.51"/><path d="M876,139L748,502L986,385Z" fill="#8fb3d5" stroke="#8fb3d5" stroke-width="1.51"/><path d="M583,-137L709,-7L829,-395Z" fill="#c1cde5" stroke="#c1cde5" stroke-width="1.51"/><path d="M480,849L596,1220L959,993Z" fill="#6595c5" stroke="#6595c5" stroke-width="1.51"/><path d="M-113,-356L375,-318L629,-438Z" fill="#e1dfee" stroke="#e1dfee" stroke-width="1.51"/><path d="M550,445L748,502L876,139Z" fill="#97b6d7" stroke="#97b6d7" stroke-width="1.51"/><path d="M748,502L480,849L927,694Z" fill="#78a9ce" stroke="#78a9ce" stroke-width="1.51"/><path d="M629,-438L583,-137L829,-395Z" fill="#c9d3e7" stroke="#c9d3e7" stroke-width="1.51"/><path d="M709,-7L550,445L876,139Z" fill="#a8bedb" stroke="#a8bedb" stroke-width="1.51"/><path d="M596,1220L603,1340L756,1412Z" fill="#5f86ae" stroke="#5f86ae" stroke-width="1.51"/><path d="M417,382L550,445L709,-7Z" fill="#aabfdc" stroke="#aabfdc" stroke-width="1.51"/><path d="M550,445L480,849L748,502Z" fill="#89b0d3" stroke="#89b0d3" stroke-width="1.51"/><path d="M480,849L362,1136L596,1220Z" fill="#7297c6" stroke="#7297c6" stroke-width="1.51"/><path d="M583,-137L373,-127L709,-7Z" fill="#c6cee5" stroke="#c6cee5" stroke-width="1.51"/><path d="M373,-127L417,382L709,-7Z" fill="#bec8e1" stroke="#bec8e1" stroke-width="1.51"/><path d="M205,769L480,849L550,445Z" fill="#8cb1d4" stroke="#8cb1d4" stroke-width="1.51"/><path d="M375,-318L583,-137L629,-438Z" fill="#d1d7e9" stroke="#d1d7e9" stroke-width="1.51"/><path d="M417,382L151,614L550,445Z" fill="#a2bcda" stroke="#a2bcda" stroke-width="1.51"/><path d="M151,614L205,769L550,445Z" fill="#9ab8d8" stroke="#9ab8d8" stroke-width="1.51"/><path d="M375,-318L373,-127L583,-137Z" fill="#d2d6e9" stroke="#d2d6e9" stroke-width="1.51"/><path d="M596,1220L362,1136L603,1340Z" fill="#6b8fb9" stroke="#6b8fb9" stroke-width="1.51"/><path d="M362,1136L161,1264L603,1340Z" fill="#7492ba" stroke="#7492ba" stroke-width="1.51"/><path d="M373,-127L145,338L417,382Z" fill="#c0c8e2" stroke="#c0c8e2" stroke-width="1.51"/><path d="M-9,115L145,338L373,-127Z" fill="#ced1e6" stroke="#ced1e6" stroke-width="1.51"/><path d="M205,769L362,1136L480,849Z" fill="#81a4ce" stroke="#81a4ce" stroke-width="1.51"/><path d="M145,338L151,614L417,382Z" fill="#aec1dd" stroke="#aec1dd" stroke-width="1.51"/><path d="M205,769L161,1264L362,1136Z" fill="#819eca" stroke="#819eca" stroke-width="1.51"/><path d="M-113,-356L-116,-22L373,-127Z" fill="#e4e0ef" stroke="#e4e0ef" stroke-width="1.51"/><path d="M-113,-356L373,-127L375,-318Z" fill="#e1dfed" stroke="#e1dfed" stroke-width="1.51"/><path d="M-116,-22L-9,115L373,-127Z" fill="#d9d8ea" stroke="#d9d8ea" stroke-width="1.51"/><path d="M-134,1084L161,1264L205,769Z" fill="#89a4ce" stroke="#89a4ce" stroke-width="1.51"/><path d="M145,338L-72,622L151,614Z" fill="#adc3de" stroke="#adc3de" stroke-width="1.51"/><path d="M-134,1084L-76,1267L161,1264Z" fill="#889ec4" stroke="#889ec4" stroke-width="1.51"/><path d="M151,614L-65,770L205,769Z" fill="#9ab8d8" stroke="#9ab8d8" stroke-width="1.51"/><path d="M-65,770L-134,1084L205,769Z" fill="#93b1d5" stroke="#93b1d5" stroke-width="1.51"/><path d="M-72,622L-65,770L151,614Z" fill="#a2bedb" stroke="#a2bedb" stroke-width="1.51"/><path d="M-367,473L-72,622L-9,115Z" fill="#c0cee5" stroke="#c0cee5" stroke-width="1.51"/><path d="M-9,115L-72,622L145,338Z" fill="#becbe3" stroke="#becbe3" stroke-width="1.51"/><path d="M-244,-291L-283,-110L-116,-22Z" fill="#ebe6f2" stroke="#ebe6f2" stroke-width="1.51"/><path d="M-244,-291L-116,-22L-113,-356Z" fill="#eee8f3" stroke="#eee8f3" stroke-width="1.51"/><path d="M-116,-22L-386,224L-9,115Z" fill="#dadbeb" stroke="#dadbeb" stroke-width="1.51"/><path d="M-386,224L-367,473L-9,115Z" fill="#cfd6e9" stroke="#cfd6e9" stroke-width="1.51"/><path d="M-134,1084L-280,1211L-76,1267Z" fill="#8ea3c7" stroke="#8ea3c7" stroke-width="1.51"/><path d="M-409,955L-134,1084L-65,770Z" fill="#98b2d6" stroke="#98b2d6" stroke-width="1.51"/><path d="M-72,622L-367,473L-65,770Z" fill="#adc5df" stroke="#adc5df" stroke-width="1.51"/><path d="M-367,473L-409,955L-65,770Z" fill="#a5c2dd" stroke="#a5c2dd" stroke-width="1.51"/><path d="M-280,1211L-331,1318L-76,1267Z" fill="#8da1c2" stroke="#8da1c2" stroke-width="1.51"/><path d="M-283,-110L-386,224L-116,-22Z" fill="#e2e0ee" stroke="#e2e0ee" stroke-width="1.51"/><path d="M-409,955L-280,1211L-134,1084Z" fill="#94aad0" stroke="#94aad0" stroke-width="1.51"/><path d="M-386,224L-283,-110L-244,-291Z" fill="#e8e5f1" stroke="#e8e5f1" stroke-width="1.51"/><path d="M-409,955L-331,1318L-280,1211Z" fill="#93a8cb" stroke="#93a8cb" stroke-width="1.51"/><path d="M-386,224L-409,955L-367,473Z" fill="#b9cde3" stroke="#b9cde3" stroke-width="1.51"/></svg>