<svg xmlns="http://www.w3.org/2000/svg" width="1920" height="1080"><path d="M1980,1260L2100,1260L2100,1140Z" fill="#ff6f00" stroke="#ff6f00" stroke-width="1.51"/><path d="M1980,1140L1980,1260L2100,1140Z" fill="#ff5800" stroke="#ff5800" stroke-width="1.51"/><path d="M1980,1140L2100,1140L2100,1020Z" fill="#ff5801" stroke="#ff5801" stroke-width="1.51"/><path d="M1980,1020L1980,1140L2100,1020Z" fill="#ff4711" stroke="#ff4711" stroke-width="1.51"/><path d="M1980,1020L2100,1020L2100,900Z" fill="#ff5534" stroke="#ff5534" stroke-width="1.51"/><path d="M1980,900L1980,1020L2100,900Z" fill="#ff4742" stroke="#ff4742" stroke-width="1.51"/><path d="M1980,900L2100,900L2100,780Z" fill="#ff5568" stroke="#ff5568" stroke-width="1.51"/><path d="M1980,780L1980,900L2100,780Z" fill="#ff4673" stroke="#ff4673" stroke-width="1.51"/><path d="M1980,780L2100,780L2100,660Z" fill="#ff538c" stroke="#ff538c" stroke-width="1.51"/><path d="M1980,660L1980,780L2100,660Z" fill="#fa428f" stroke="#fa428f" stroke-width="1.51"/><path d="M1980,660L2100,660L2100,540Z" fill="#e24993" stroke="#e24993" stroke-width="1.51"/><path d="M1980,540L1980,660L2100,540Z" fill="#d93790" stroke="#d93790" stroke-width="1.51"/><path d="M1980,540L2100,540L2100,420Z" fill="#ce4193" stroke="#ce4193" stroke-width="1.51"/><path d="M1980,420L1980,540L2100,420Z" fill="#cb3a90" stroke="#cb3a90" stroke-width="1.51"/><path d="M1980,420L2100,420L2100,300Z" fill="#c76392" stroke="#c76392" stroke-width="1.51"/><path d="M1980,300L1980,420L2100,300Z" fill="#c97187" stroke="#c97187" stroke-width="1.51"/><path d="M1980,300L2100,300L2100,180Z" fill="#c8b666" stroke="#c8b666" stroke-width="1.51"/><path d="M1980,180L1980,300L2100,180Z" fill="#cbbc5e" stroke="#cbbc5e" stroke-width="1.51"/><path d="M1980,180L2100,180L2100,60Z" fill="#cfc37a" stroke="#cfc37a" stroke-width="1.51"/><path d="M1980,60L1980,180L2100,60Z" fill="#d3b97f" stroke="#d3b97f" stroke-width="1.51"/><path d="M1980,60L2100,60L2100,-60Z" fill="#d2bc8a" stroke="#d2bc8a" stroke-width="1.51"/><path d="M1980,-60L1980,60L2100,-60Z" fill="#d3ae8a" stroke="#d3ae8a" stroke-width="1.51"/><path d="M1980,-60L2100,-60L2100,-180Z" fill="#cca38e" stroke="#cca38e" stroke-width="1.51"/><path d="M1980,-180L1980,-60L2100,-180Z" fill="#cc918c" stroke="#cc918c" stroke-width="1.51"/><path d="M1860,1260L1980,1260L1980,1140Z" fill="#ff5300" stroke="#ff5300" stroke-width="1.51"/><path d="M1860,1140L1860,1260L1980,1140Z" fill="#ff4001" stroke="#ff4001" stroke-width="1.51"/><path d="M1860,1140L1980,1140L1980,1020Z" fill="#ff3402" stroke="#ff3402" stroke-width="1.51"/><path d="M1860,1020L1860,1140L1980,1020Z" fill="#ff2711" stroke="#ff2711" stroke-width="1.51"/><path d="M1860,1020L1980,1020L1980,900Z" fill="#ff2f30" stroke="#ff2f30" stroke-width="1.51"/><path d="M1860,900L1860,1020L1980,900Z" fill="#ff273f" stroke="#ff273f" stroke-width="1.51"/><path d="M1860,900L1980,900L1980,780Z" fill="#ff2e62" stroke="#ff2e62" stroke-width="1.51"/><path d="M1860,780L1860,900L1980,780Z" fill="#ff246f" stroke="#ff246f" stroke-width="1.51"/><path d="M1860,780L1980,780L1980,660Z" fill="#ff2985" stroke="#ff2985" stroke-width="1.51"/><path d="M1860,660L1860,780L1980,660Z" fill="#fb1c8a" stroke="#fb1c8a" stroke-width="1.51"/><path d="M1860,660L1980,660L1980,540Z" fill="#e31d8c" stroke="#e31d8c" stroke-width="1.51"/><path d="M1860,540L1860,660L1980,540Z" fill="#da0a8b" stroke="#da0a8b" stroke-width="1.51"/><path d="M1860,540L1980,540L1980,420Z" fill="#cf118c" stroke="#cf118c" stroke-width="1.51"/><path d="M1860,420L1860,540L1980,420Z" fill="#cc198b" stroke="#cc198b" stroke-width="1.51"/><path d="M1860,420L1980,420L1980,300Z" fill="#c94a8b" stroke="#c94a8b" stroke-width="1.51"/><path d="M1860,300L1860,420L1980,300Z" fill="#cc6183" stroke="#cc6183" stroke-width="1.51"/><path d="M1860,300L1980,300L1980,180Z" fill="#cea460" stroke="#cea460" stroke-width="1.51"/><path d="M1860,180L1860,300L1980,180Z" fill="#cfaf5a" stroke="#cfaf5a" stroke-width="1.51"/><path d="M1860,180L1980,180L1980,60Z" fill="#d5b074" stroke="#d5b074" stroke-width="1.51"/><path d="M1860,60L1860,180L1980,60Z" fill="#d7ac7b" stroke="#d7ac7b" stroke-width="1.51"/><path d="M1860,60L1980,60L1980,-60Z" fill="#d7a984" stroke="#d7a984" stroke-width="1.51"/><path d="M1860,-60L1860,60L1980,-60Z" fill="#d7a085" stroke="#d7a085" stroke-width="1.51"/><path d="M1860,-60L1980,-60L1980,-180Z" fill="#d18f88" stroke="#d18f88" stroke-width="1.51"/><path d="M1860,-180L1860,-60L1980,-180Z" fill="#cf8387" stroke="#cf8387" stroke-width="1.51"/><path d="M1740,1260L1860,1260L1860,1140Z" fill="#ff4601" stroke="#ff4601" stroke-width="1.51"/><path d="M1740,1140L1740,1260L1860,1140Z" fill="#ff3007" stroke="#ff3007" stroke-width="1.51"/><path d="M1740,1140L1860,1140L1860,1020Z" fill="#ff1c03" stroke="#ff1c03" stroke-width="1.51"/><path d="M1740,1020L1740,1140L1860,1020Z" fill="#ff0014" stroke="#ff0014" stroke-width="1.51"/><path d="M1740,1020L1860,1020L1860,900Z" fill="#ff102f" stroke="#ff102f" stroke-width="1.51"/><path d="M1740,900L1740,1020L1860,900Z" fill="#ff0040" stroke="#ff0040" stroke-width="1.51"/><path d="M1740,900L1860,900L1860,780Z" fill="#ff0960" stroke="#ff0960" stroke-width="1.51"/><path d="M1740,780L1740,900L1860,780Z" fill="#ff006f" stroke="#ff006f" stroke-width="1.51"/><path d="M1740,780L1860,780L1860,660Z" fill="#ff0083" stroke="#ff0083" stroke-width="1.51"/><path d="M1740,660L1740,780L1860,660Z" fill="#fb008a" stroke="#fb008a" stroke-width="1.51"/><path d="M1740,660L1860,660L1860,540Z" fill="#e30089" stroke="#e30089" stroke-width="1.51"/><path d="M1740,540L1740,660L1860,540Z" fill="#da008b" stroke="#da008b" stroke-width="1.51"/><path d="M1740,540L1860,540L1860,420Z" fill="#cf008a" stroke="#cf008a" stroke-width="1.51"/><path d="M1740,420L1740,540L1860,420Z" fill="#cc008b" stroke="#cc008b" stroke-width="1.51"/><path d="M1740,420L1860,420L1860,300Z" fill="#ca3d89" stroke="#ca3d89" stroke-width="1.51"/><path d="M1740,300L1740,420L1860,300Z" fill="#cc5882" stroke="#cc5882" stroke-width="1.51"/><path d="M1740,300L1860,300L1860,180Z" fill="#d09c5e" stroke="#d09c5e" stroke-width="1.51"/><path d="M1740,180L1740,300L1860,180Z" fill="#d1a95b" stroke="#d1a95b" stroke-width="1.51"/><path d="M1740,180L1860,180L1860,60Z" fill="#d7a972" stroke="#d7a972" stroke-width="1.51"/><path d="M1740,60L1740,180L1860,60Z" fill="#d9a57b" stroke="#d9a57b" stroke-width="1.51"/><path d="M1740,60L1860,60L1860,-60Z" fill="#d9a181" stroke="#d9a181" stroke-width="1.51"/><path d="M1740,-60L1740,60L1860,-60Z" fill="#d89985" stroke="#d89985" stroke-width="1.51"/><path d="M1740,-60L1860,-60L1860,-180Z" fill="#d38785" stroke="#d38785" stroke-width="1.51"/><path d="M1740,-180L1740,-60L1860,-180Z" fill="#d17b87" stroke="#d17b87" stroke-width="1.51"/><path d="M1620,1260L1740,1260L1740,1140Z" fill="#ff4223" stroke="#ff4223" stroke-width="1.51"/><path d="M1620,1140L1620,1260L1740,1140Z" fill="#ff302c" stroke="#ff302c" stroke-width="1.51"/><path d="M1620,1140L1740,1140L1740,1020Z" fill="#ff1121" stroke="#ff1121" stroke-width="1.51"/><path d="M1620,1020L1620,1140L1740,1020Z" fill="#ff0031" stroke="#ff0031" stroke-width="1.51"/><path d="M1620,1020L1740,1020L1740,900Z" fill="#ff0040" stroke="#ff0040" stroke-width="1.51"/><path d="M1620,900L1620,1020L1740,900Z" fill="#ff0056" stroke="#ff0056" stroke-width="1.51"/><path d="M1620,900L1740,900L1740,780Z" fill="#ff006f" stroke="#ff006f" stroke-width="1.51"/><path d="M1620,780L1620,900L1740,780Z" fill="#ff0084" stroke="#ff0084" stroke-width="1.51"/><path d="M1620,780L1740,780L1740,660Z" fill="#ff0092" stroke="#ff0092" stroke-width="1.51"/><path d="M1620,660L1620,780L1740,660Z" fill="#f700a0" stroke="#f700a0" stroke-width="1.51"/><path d="M1620,660L1740,660L1740,540Z" fill="#e00098" stroke="#e00098" stroke-width="1.51"/><path d="M1620,540L1620,660L1740,540Z" fill="#d500a0" stroke="#d500a0" stroke-width="1.51"/><path d="M1620,540L1740,540L1740,420Z" fill="#cb0099" stroke="#cb0099" stroke-width="1.51"/><path d="M1620,420L1620,540L1740,420Z" fill="#c600a0" stroke="#c600a0" stroke-width="1.51"/><path d="M1620,420L1740,420L1740,300Z" fill="#c73b98" stroke="#c73b98" stroke-width="1.51"/><path d="M1620,300L1620,420L1740,300Z" fill="#c75998" stroke="#c75998" stroke-width="1.51"/><path d="M1620,300L1740,300L1740,180Z" fill="#ce9a6f" stroke="#ce9a6f" stroke-width="1.51"/><path d="M1620,180L1620,300L1740,180Z" fill="#cea974" stroke="#cea974" stroke-width="1.51"/><path d="M1620,180L1740,180L1740,60Z" fill="#d4a783" stroke="#d4a783" stroke-width="1.51"/><path d="M1620,60L1620,180L1740,60Z" fill="#d4a693" stroke="#d4a693" stroke-width="1.51"/><path d="M1620,60L1740,60L1740,-60Z" fill="#d6a092" stroke="#d6a092" stroke-width="1.51"/><path d="M1620,-60L1620,60L1740,-60Z" fill="#d39a9d" stroke="#d39a9d" stroke-width="1.51"/><path d="M1620,-60L1740,-60L1740,-180Z" fill="#d08695" stroke="#d08695" stroke-width="1.51"/><path d="M1620,-180L1620,-60L1740,-180Z" fill="#cb7c9e" stroke="#cb7c9e" stroke-width="1.51"/><path d="M1500,1260L1620,1260L1620,1140Z" fill="#ff4240" stroke="#ff4240" stroke-width="1.51"/><path d="M1500,1140L1500,1260L1620,1140Z" fill="#ff2f4a" stroke="#ff2f4a" stroke-width="1.51"/><path d="M1500,1140L1620,1140L1620,1020Z" fill="#ff103d" stroke="#ff103d" stroke-width="1.51"/><path d="M1500,1020L1500,1140L1620,1020Z" fill="#ff004d" stroke="#ff004d" stroke-width="1.51"/><path d="M1500,1020L1620,1020L1620,900Z" fill="#ff0059" stroke="#ff0059" stroke-width="1.51"/><path d="M1500,900L1500,1020L1620,900Z" fill="#ff0070" stroke="#ff0070" stroke-width="1.51"/><path d="M1500,900L1620,900L1620,780Z" fill="#ff0087" stroke="#ff0087" stroke-width="1.51"/><path d="M1500,780L1500,900L1620,780Z" fill="#ff00a0" stroke="#ff00a0" stroke-width="1.51"/><path d="M1500,780L1620,780L1620,660Z" fill="#fc00aa" stroke="#fc00aa" stroke-width="1.51"/><path d="M1500,660L1500,780L1620,660Z" fill="#f300bb" stroke="#f300bb" stroke-width="1.51"/><path d="M1500,660L1620,660L1620,540Z" fill="#db00b1" stroke="#db00b1" stroke-width="1.51"/><path d="M1500,540L1500,660L1620,540Z" fill="#cf00bc" stroke="#cf00bc" stroke-width="1.51"/><path d="M1500,540L1620,540L1620,420Z" fill="#c500b1" stroke="#c500b1" stroke-width="1.51"/><path d="M1500,420L1500,540L1620,420Z" fill="#bf01bc" stroke="#bf01bc" stroke-width="1.51"/><path d="M1500,420L1620,420L1620,300Z" fill="#c03eb0" stroke="#c03eb0" stroke-width="1.51"/><path d="M1500,300L1500,420L1620,300Z" fill="#c15bb4" stroke="#c15bb4" stroke-width="1.51"/><path d="M1500,300L1620,300L1620,180Z" fill="#ca9b8a" stroke="#ca9b8a" stroke-width="1.51"/><path d="M1500,180L1500,300L1620,180Z" fill="#caab92" stroke="#caab92" stroke-width="1.51"/><path d="M1500,180L1620,180L1620,60Z" fill="#d0a89e" stroke="#d0a89e" stroke-width="1.51"/><path d="M1500,60L1500,180L1620,60Z" fill="#cfa7b1" stroke="#cfa7b1" stroke-width="1.51"/><path d="M1500,60L1620,60L1620,-60Z" fill="#d1a1ac" stroke="#d1a1ac" stroke-width="1.51"/><path d="M1500,-60L1500,60L1620,-60Z" fill="#cd9cba" stroke="#cd9cba" stroke-width="1.51"/><path d="M1500,-60L1620,-60L1620,-180Z" fill="#ca87af" stroke="#ca87af" stroke-width="1.51"/><path d="M1500,-180L1500,-60L1620,-180Z" fill="#c57eba" stroke="#c57eba" stroke-width="1.51"/><path d="M1380,1260L1500,1260L1500,1140Z" fill="#ff4262" stroke="#ff4262" stroke-width="1.51"/><path d="M1380,1140L1380,1260L1500,1140Z" fill="#ff2e6b" stroke="#ff2e6b" stroke-width="1.51"/><path d="M1380,1140L1500,1140L1500,1020Z" fill="#ff0a5e" stroke="#ff0a5e" stroke-width="1.51"/><path d="M1380,1020L1380,1140L1500,1020Z" fill="#ff006d" stroke="#ff006d" stroke-width="1.51"/><path d="M1380,1020L1500,1020L1500,900Z" fill="#ff0079" stroke="#ff0079" stroke-width="1.51"/><path d="M1380,900L1380,1020L1500,900Z" fill="#ff0091" stroke="#ff0091" stroke-width="1.51"/><path d="M1380,900L1500,900L1500,780Z" fill="#ff00a8" stroke="#ff00a8" stroke-width="1.51"/><path d="M1380,780L1380,900L1500,780Z" fill="#fe00c1" stroke="#fe00c1" stroke-width="1.51"/><path d="M1380,780L1500,780L1500,660Z" fill="#f800cc" stroke="#f800cc" stroke-width="1.51"/><path d="M1380,660L1380,780L1500,660Z" fill="#ef00dd" stroke="#ef00dd" stroke-width="1.51"/><path d="M1380,660L1500,660L1500,540Z" fill="#d500d2" stroke="#d500d2" stroke-width="1.51"/><path d="M1380,540L1380,660L1500,540Z" fill="#c800dd" stroke="#c800dd" stroke-width="1.51"/><path d="M1380,540L1500,540L1500,420Z" fill="#bd00d2" stroke="#bd00d2" stroke-width="1.51"/><path d="M1380,420L1380,540L1500,420Z" fill="#b70dde" stroke="#b70dde" stroke-width="1.51"/><path d="M1380,420L1500,420L1500,300Z" fill="#b841d2" stroke="#b841d2" stroke-width="1.51"/><path d="M1380,300L1380,420L1500,300Z" fill="#b95ed6" stroke="#b95ed6" stroke-width="1.51"/><path d="M1380,300L1500,300L1500,180Z" fill="#c69dac" stroke="#c69dac" stroke-width="1.51"/><path d="M1380,180L1380,300L1500,180Z" fill="#c6adb5" stroke="#c6adb5" stroke-width="1.51"/><path d="M1380,180L1500,180L1500,60Z" fill="#caabc1" stroke="#caabc1" stroke-width="1.51"/><path d="M1380,60L1380,180L1500,60Z" fill="#c9aad4" stroke="#c9aad4" stroke-width="1.51"/><path d="M1380,60L1500,60L1500,-60Z" fill="#caa3cf" stroke="#caa3cf" stroke-width="1.51"/><path d="M1380,-60L1380,60L1500,-60Z" fill="#c69edd" stroke="#c69edd" stroke-width="1.51"/><path d="M1380,-60L1500,-60L1500,-180Z" fill="#c28ad1" stroke="#c28ad1" stroke-width="1.51"/><path d="M1380,-180L1380,-60L1500,-180Z" fill="#bd81dd" stroke="#bd81dd" stroke-width="1.51"/><path d="M1260,1260L1380,1260L1380,1140Z" fill="#ff407b" stroke="#ff407b" stroke-width="1.51"/><path d="M1260,1140L1260,1260L1380,1140Z" fill="#ff2b80" stroke="#ff2b80" stroke-width="1.51"/><path d="M1260,1140L1380,1140L1380,1020Z" fill="#ff0176" stroke="#ff0176" stroke-width="1.51"/><path d="M1260,1020L1260,1140L1380,1020Z" fill="#ff0082" stroke="#ff0082" stroke-width="1.51"/><path d="M1260,1020L1380,1020L1380,900Z" fill="#ff0091" stroke="#ff0091" stroke-width="1.51"/><path d="M1260,900L1260,1020L1380,900Z" fill="#fd00a6" stroke="#fd00a6" stroke-width="1.51"/><path d="M1260,900L1380,900L1380,780Z" fill="#fc00c1" stroke="#fc00c1" stroke-width="1.51"/><path d="M1260,780L1260,900L1380,780Z" fill="#f700d6" stroke="#f700d6" stroke-width="1.51"/><path d="M1260,780L1380,780L1380,660Z" fill="#f200e6" stroke="#f200e6" stroke-width="1.51"/><path d="M1260,660L1260,780L1380,660Z" fill="#e600f3" stroke="#e600f3" stroke-width="1.51"/><path d="M1260,660L1380,660L1380,540Z" fill="#cc00ec" stroke="#cc00ec" stroke-width="1.51"/><path d="M1260,540L1260,660L1380,540Z" fill="#bd00f3" stroke="#bd00f3" stroke-width="1.51"/><path d="M1260,540L1380,540L1380,420Z" fill="#b300ec" stroke="#b300ec" stroke-width="1.51"/><path d="M1260,420L1260,540L1380,420Z" fill="#aa13f3" stroke="#aa13f3" stroke-width="1.51"/><path d="M1260,420L1380,420L1380,300Z" fill="#ac43ec" stroke="#ac43ec" stroke-width="1.51"/><path d="M1260,300L1260,420L1380,300Z" fill="#ad5fec" stroke="#ad5fec" stroke-width="1.51"/><path d="M1260,300L1380,300L1380,180Z" fill="#bf9ec7" stroke="#bf9ec7" stroke-width="1.51"/><path d="M1260,180L1260,300L1380,180Z" fill="#beadcc" stroke="#beadcc" stroke-width="1.51"/><path d="M1260,180L1380,180L1380,60Z" fill="#c2acdc" stroke="#c2acdc" stroke-width="1.51"/><path d="M1260,60L1260,180L1380,60Z" fill="#bfaaea" stroke="#bfaaea" stroke-width="1.51"/><path d="M1260,60L1380,60L1380,-60Z" fill="#c1a4ea" stroke="#c1a4ea" stroke-width="1.51"/><path d="M1260,-60L1260,60L1380,-60Z" fill="#bb9ef3" stroke="#bb9ef3" stroke-width="1.51"/><path d="M1260,-60L1380,-60L1380,-180Z" fill="#b88bec" stroke="#b88bec" stroke-width="1.51"/><path d="M1260,-180L1260,-60L1380,-180Z" fill="#b181f3" stroke="#b181f3" stroke-width="1.51"/><path d="M1140,1260L1260,1260L1260,1140Z" fill="#fd3d8e" stroke="#fd3d8e" stroke-width="1.51"/><path d="M1140,1140L1140,1260L1260,1140Z" fill="#f6268b" stroke="#f6268b" stroke-width="1.51"/><path d="M1140,1140L1260,1140L1260,1020Z" fill="#fe0088" stroke="#fe0088" stroke-width="1.51"/><path d="M1140,1020L1140,1140L1260,1020Z" fill="#f5008d" stroke="#f5008d" stroke-width="1.51"/><path d="M1140,1020L1260,1020L1260,900Z" fill="#f900a3" stroke="#f900a3" stroke-width="1.51"/><path d="M1140,900L1140,1020L1260,900Z" fill="#ef00b1" stroke="#ef00b1" stroke-width="1.51"/><path d="M1140,900L1260,900L1260,780Z" fill="#f300d4" stroke="#f300d4" stroke-width="1.51"/><path d="M1140,780L1140,900L1260,780Z" fill="#e700e2" stroke="#e700e2" stroke-width="1.51"/><path d="M1140,780L1260,780L1260,660Z" fill="#e700f9" stroke="#e700f9" stroke-width="1.51"/><path d="M1140,660L1140,780L1260,660Z" fill="#d300ff" stroke="#d300ff" stroke-width="1.51"/><path d="M1140,660L1260,660L1260,540Z" fill="#bd00ff" stroke="#bd00ff" stroke-width="1.51"/><path d="M1140,540L1140,660L1260,540Z" fill="#a600ff" stroke="#a600ff" stroke-width="1.51"/><path d="M1140,540L1260,540L1260,420Z" fill="#a100ff" stroke="#a100ff" stroke-width="1.51"/><path d="M1140,420L1140,540L1260,420Z" fill="#9016ff" stroke="#9016ff" stroke-width="1.51"/><path d="M1140,420L1260,420L1260,300Z" fill="#9a44ff" stroke="#9a44ff" stroke-width="1.51"/><path d="M1140,300L1140,420L1260,300Z" fill="#955cf8" stroke="#955cf8" stroke-width="1.51"/><path d="M1140,300L1260,300L1260,180Z" fill="#b39dda" stroke="#b39dda" stroke-width="1.51"/><path d="M1140,180L1140,300L1260,180Z" fill="#aba8d8" stroke="#aba8d8" stroke-width="1.51"/><path d="M1140,180L1260,180L1260,60Z" fill="#b4aaef" stroke="#b4aaef" stroke-width="1.51"/><path d="M1140,60L1140,180L1260,60Z" fill="#a8a5f7" stroke="#a8a5f7" stroke-width="1.51"/><path d="M1140,60L1260,60L1260,-60Z" fill="#b1a3fe" stroke="#b1a3fe" stroke-width="1.51"/><path d="M1140,-60L1140,60L1260,-60Z" fill="#a39aff" stroke="#a39aff" stroke-width="1.51"/><path d="M1140,-60L1260,-60L1260,-180Z" fill="#a78aff" stroke="#a78aff" stroke-width="1.51"/><path d="M1140,-180L1140,-60L1260,-180Z" fill="#987dff" stroke="#987dff" stroke-width="1.51"/><path d="M1020,1260L1140,1260L1140,1140Z" fill="#e6368f" stroke="#e6368f" stroke-width="1.51"/><path d="M1020,1140L1020,1260L1140,1140Z" fill="#de1c8c" stroke="#de1c8c" stroke-width="1.51"/><path d="M1020,1140L1140,1140L1140,1020Z" fill="#e60089" stroke="#e60089" stroke-width="1.51"/><path d="M1020,1020L1020,1140L1140,1020Z" fill="#de008e" stroke="#de008e" stroke-width="1.51"/><path d="M1020,1020L1140,1020L1140,900Z" fill="#e100a4" stroke="#e100a4" stroke-width="1.51"/><path d="M1020,900L1020,1020L1140,900Z" fill="#d600b2" stroke="#d600b2" stroke-width="1.51"/><path d="M1020,900L1140,900L1140,780Z" fill="#d800d4" stroke="#d800d4" stroke-width="1.51"/><path d="M1020,780L1020,900L1140,780Z" fill="#cb00e2" stroke="#cb00e2" stroke-width="1.51"/><path d="M1020,780L1140,780L1140,660Z" fill="#c900f9" stroke="#c900f9" stroke-width="1.51"/><path d="M1020,660L1020,780L1140,660Z" fill="#b400ff" stroke="#b400ff" stroke-width="1.51"/><path d="M1020,660L1140,660L1140,540Z" fill="#9c00ff" stroke="#9c00ff" stroke-width="1.51"/><path d="M1020,540L1020,660L1140,540Z" fill="#8200ff" stroke="#8200ff" stroke-width="1.51"/><path d="M1020,540L1140,540L1140,420Z" fill="#7b00ff" stroke="#7b00ff" stroke-width="1.51"/><path d="M1020,420L1020,540L1140,420Z" fill="#6616ff" stroke="#6616ff" stroke-width="1.51"/><path d="M1020,420L1140,420L1140,300Z" fill="#733fff" stroke="#733fff" stroke-width="1.51"/><path d="M1020,300L1020,420L1140,300Z" fill="#6e55f8" stroke="#6e55f8" stroke-width="1.51"/><path d="M1020,300L1140,300L1140,180Z" fill="#9393db" stroke="#9393db" stroke-width="1.51"/><path d="M1020,180L1020,300L1140,180Z" fill="#8a9ed9" stroke="#8a9ed9" stroke-width="1.51"/><path d="M1020,180L1140,180L1140,60Z" fill="#92a0f0" stroke="#92a0f0" stroke-width="1.51"/><path d="M1020,60L1020,180L1140,60Z" fill="#849cf8" stroke="#849cf8" stroke-width="1.51"/><path d="M1020,60L1140,60L1140,-60Z" fill="#8e9aff" stroke="#8e9aff" stroke-width="1.51"/><path d="M1020,-60L1020,60L1140,-60Z" fill="#7e91ff" stroke="#7e91ff" stroke-width="1.51"/><path d="M1020,-60L1140,-60L1140,-180Z" fill="#8281ff" stroke="#8281ff" stroke-width="1.51"/><path d="M1020,-180L1020,-60L1140,-180Z" fill="#7075ff" stroke="#7075ff" stroke-width="1.51"/><path d="M900,1260L1020,1260L1020,1140Z" fill="#d6308f" stroke="#d6308f" stroke-width="1.51"/><path d="M900,1140L900,1260L1020,1140Z" fill="#d2158c" stroke="#d2158c" stroke-width="1.51"/><path d="M900,1140L1020,1140L1020,1020Z" fill="#d7008a" stroke="#d7008a" stroke-width="1.51"/><path d="M900,1020L900,1140L1020,1020Z" fill="#d2008e" stroke="#d2008e" stroke-width="1.51"/><path d="M900,1020L1020,1020L1020,900Z" fill="#d000a4" stroke="#d000a4" stroke-width="1.51"/><path d="M900,900L900,1020L1020,900Z" fill="#c900b2" stroke="#c900b2" stroke-width="1.51"/><path d="M900,900L1020,900L1020,780Z" fill="#c600d4" stroke="#c600d4" stroke-width="1.51"/><path d="M900,780L900,900L1020,780Z" fill="#bd00e3" stroke="#bd00e3" stroke-width="1.51"/><path d="M900,780L1020,780L1020,660Z" fill="#b400f9" stroke="#b400f9" stroke-width="1.51"/><path d="M900,660L900,780L1020,660Z" fill="#a300ff" stroke="#a300ff" stroke-width="1.51"/><path d="M900,660L1020,660L1020,540Z" fill="#8200ff" stroke="#8200ff" stroke-width="1.51"/><path d="M900,540L900,660L1020,540Z" fill="#6c00ff" stroke="#6c00ff" stroke-width="1.51"/><path d="M900,540L1020,540L1020,420Z" fill="#5a00ff" stroke="#5a00ff" stroke-width="1.51"/><path d="M900,420L900,540L1020,420Z" fill="#4916ff" stroke="#4916ff" stroke-width="1.51"/><path d="M900,420L1020,420L1020,300Z" fill="#4f3cff" stroke="#4f3cff" stroke-width="1.51"/><path d="M900,300L900,420L1020,300Z" fill="#5452f8" stroke="#5452f8" stroke-width="1.51"/><path d="M900,300L1020,300L1020,180Z" fill="#7c8cdc" stroke="#7c8cdc" stroke-width="1.51"/><path d="M900,180L900,300L1020,180Z" fill="#7898da" stroke="#7898da" stroke-width="1.51"/><path d="M900,180L1020,180L1020,60Z" fill="#7899f1" stroke="#7899f1" stroke-width="1.51"/><path d="M900,60L900,180L1020,60Z" fill="#6f96f8" stroke="#6f96f8" stroke-width="1.51"/><path d="M900,60L1020,60L1020,-60Z" fill="#7193ff" stroke="#7193ff" stroke-width="1.51"/><path d="M900,-60L900,60L1020,-60Z" fill="#668cff" stroke="#668cff" stroke-width="1.51"/><path d="M900,-60L1020,-60L1020,-180Z" fill="#637bff" stroke="#637bff" stroke-width="1.51"/><path d="M900,-180L900,-60L1020,-180Z" fill="#5671ff" stroke="#5671ff" stroke-width="1.51"/><path d="M780,1260L900,1260L900,1140Z" fill="#cb2e90" stroke="#cb2e90" stroke-width="1.51"/><path d="M780,1140L780,1260L900,1140Z" fill="#cb2a8c" stroke="#cb2a8c" stroke-width="1.51"/><path d="M780,1140L900,1140L900,1020Z" fill="#cc008a" stroke="#cc008a" stroke-width="1.51"/><path d="M780,1020L780,1140L900,1020Z" fill="#cb028e" stroke="#cb028e" stroke-width="1.51"/><path d="M780,1020L900,1020L900,900Z" fill="#c600a4" stroke="#c600a4" stroke-width="1.51"/><path d="M780,900L780,1020L900,900Z" fill="#c210b2" stroke="#c210b2" stroke-width="1.51"/><path d="M780,900L900,900L900,780Z" fill="#b900d4" stroke="#b900d4" stroke-width="1.51"/><path d="M780,780L780,900L900,780Z" fill="#b31be3" stroke="#b31be3" stroke-width="1.51"/><path d="M780,780L900,780L900,660Z" fill="#a600f9" stroke="#a600f9" stroke-width="1.51"/><path d="M780,660L780,780L900,660Z" fill="#981fff" stroke="#981fff" stroke-width="1.51"/><path d="M780,660L900,660L900,540Z" fill="#7005ff" stroke="#7005ff" stroke-width="1.51"/><path d="M780,540L780,660L900,540Z" fill="#5c1eff" stroke="#5c1eff" stroke-width="1.51"/><path d="M780,540L900,540L900,420Z" fill="#3d06ff" stroke="#3d06ff" stroke-width="1.51"/><path d="M780,420L780,540L900,420Z" fill="#2f26ff" stroke="#2f26ff" stroke-width="1.51"/><path d="M780,420L900,420L900,300Z" fill="#2b3bff" stroke="#2b3bff" stroke-width="1.51"/><path d="M780,300L780,420L900,300Z" fill="#3e58f8" stroke="#3e58f8" stroke-width="1.51"/><path d="M780,300L900,300L900,180Z" fill="#6a89dc" stroke="#6a89dc" stroke-width="1.51"/><path d="M780,180L780,300L900,180Z" fill="#689cda" stroke="#689cda" stroke-width="1.51"/><path d="M780,180L900,180L900,60Z" fill="#6495f1" stroke="#6495f1" stroke-width="1.51"/><path d="M780,60L780,180L900,60Z" fill="#5b9af8" stroke="#5b9af8" stroke-width="1.51"/><path d="M780,60L900,60L900,-60Z" fill="#5a8fff" stroke="#5a8fff" stroke-width="1.51"/><path d="M780,-60L780,60L900,-60Z" fill="#5190ff" stroke="#5190ff" stroke-width="1.51"/><path d="M780,-60L900,-60L900,-180Z" fill="#4978ff" stroke="#4978ff" stroke-width="1.51"/><path d="M780,-180L780,-60L900,-180Z" fill="#3d75ff" stroke="#3d75ff" stroke-width="1.51"/><path d="M660,1260L780,1260L780,1140Z" fill="#c9508e" stroke="#c9508e" stroke-width="1.51"/><path d="M660,1140L660,1260L780,1140Z" fill="#c94e8b" stroke="#c94e8b" stroke-width="1.51"/><path d="M660,1140L780,1140L780,1020Z" fill="#cb3589" stroke="#cb3589" stroke-width="1.51"/><path d="M660,1020L660,1140L780,1020Z" fill="#c93f8d" stroke="#c93f8d" stroke-width="1.51"/><path d="M660,1020L780,1020L780,900Z" fill="#c435a4" stroke="#c435a4" stroke-width="1.51"/><path d="M660,900L660,1020L780,900Z" fill="#c042b1" stroke="#c042b1" stroke-width="1.51"/><path d="M660,900L780,900L780,780Z" fill="#b83ad4" stroke="#b83ad4" stroke-width="1.51"/><path d="M660,780L660,900L780,780Z" fill="#b147e2" stroke="#b147e2" stroke-width="1.51"/><path d="M660,780L780,780L780,660Z" fill="#a43df9" stroke="#a43df9" stroke-width="1.51"/><path d="M660,660L660,780L780,660Z" fill="#9647ff" stroke="#9647ff" stroke-width="1.51"/><path d="M660,660L780,660L780,540Z" fill="#6d38ff" stroke="#6d38ff" stroke-width="1.51"/><path d="M660,540L660,660L780,540Z" fill="#5940ff" stroke="#5940ff" stroke-width="1.51"/><path d="M660,540L780,540L780,420Z" fill="#3834ff" stroke="#3834ff" stroke-width="1.51"/><path d="M660,420L660,540L780,420Z" fill="#2743ff" stroke="#2743ff" stroke-width="1.51"/><path d="M660,420L780,420L780,300Z" fill="#1c52ff" stroke="#1c52ff" stroke-width="1.51"/><path d="M660,300L660,420L780,300Z" fill="#306bf8" stroke="#306bf8" stroke-width="1.51"/><path d="M660,300L780,300L780,180Z" fill="#5d9adb" stroke="#5d9adb" stroke-width="1.51"/><path d="M660,180L660,300L780,180Z" fill="#57add9" stroke="#57add9" stroke-width="1.51"/><path d="M660,180L780,180L780,60Z" fill="#54a7f0" stroke="#54a7f0" stroke-width="1.51"/><path d="M660,60L660,180L780,60Z" fill="#47acf8" stroke="#47acf8" stroke-width="1.51"/><path d="M660,60L780,60L780,-60Z" fill="#49a1ff" stroke="#49a1ff" stroke-width="1.51"/><path d="M660,-60L660,60L780,-60Z" fill="#3ca2ff" stroke="#3ca2ff" stroke-width="1.51"/><path d="M660,-60L780,-60L780,-180Z" fill="#378aff" stroke="#378aff" stroke-width="1.51"/><path d="M660,-180L660,-60L780,-180Z" fill="#2688ff" stroke="#2688ff" stroke-width="1.51"/><path d="M540,1260L660,1260L660,1140Z" fill="#cb7f7e" stroke="#cb7f7e" stroke-width="1.51"/><path d="M540,1140L540,1260L660,1140Z" fill="#ce8b70" stroke="#ce8b70" stroke-width="1.51"/><path d="M540,1140L660,1140L660,1020Z" fill="#ce6d79" stroke="#ce6d79" stroke-width="1.51"/><path d="M540,1020L540,1140L660,1020Z" fill="#cf8173" stroke="#cf8173" stroke-width="1.51"/><path d="M540,1020L660,1020L660,900Z" fill="#c96c95" stroke="#c96c95" stroke-width="1.51"/><path d="M540,900L540,1020L660,900Z" fill="#c98298" stroke="#c98298" stroke-width="1.51"/><path d="M540,900L660,900L660,780Z" fill="#bf6fc5" stroke="#bf6fc5" stroke-width="1.51"/><path d="M540,780L540,900L660,780Z" fill="#bf85ca" stroke="#bf85ca" stroke-width="1.51"/><path d="M540,780L660,780L660,660Z" fill="#af70ea" stroke="#af70ea" stroke-width="1.51"/><path d="M540,660L540,780L660,660Z" fill="#aa83e7" stroke="#aa83e7" stroke-width="1.51"/><path d="M540,660L660,660L660,540Z" fill="#7f67f1" stroke="#7f67f1" stroke-width="1.51"/><path d="M540,540L540,660L660,540Z" fill="#7977e8" stroke="#7977e8" stroke-width="1.51"/><path d="M540,540L660,540L660,420Z" fill="#5860f1" stroke="#5860f1" stroke-width="1.51"/><path d="M540,420L540,540L660,420Z" fill="#5d76e8" stroke="#5d76e8" stroke-width="1.51"/><path d="M540,420L660,420L660,300Z" fill="#4377f1" stroke="#4377f1" stroke-width="1.51"/><path d="M540,300L540,420L660,300Z" fill="#529ae0" stroke="#529ae0" stroke-width="1.51"/><path d="M540,300L660,300L660,180Z" fill="#56bdcb" stroke="#56bdcb" stroke-width="1.51"/><path d="M540,180L540,300L660,180Z" fill="#49dcbe" stroke="#49dcbe" stroke-width="1.51"/><path d="M540,180L660,180L660,60Z" fill="#4bcae0" stroke="#4bcae0" stroke-width="1.51"/><path d="M540,60L540,180L660,60Z" fill="#44dbdd" stroke="#44dbdd" stroke-width="1.51"/><path d="M540,60L660,60L660,-60Z" fill="#45c4ef" stroke="#45c4ef" stroke-width="1.51"/><path d="M540,-60L540,60L660,-60Z" fill="#42d0e6" stroke="#42d0e6" stroke-width="1.51"/><path d="M540,-60L660,-60L660,-180Z" fill="#3eadf0" stroke="#3eadf0" stroke-width="1.51"/><path d="M540,-180L540,-60L660,-180Z" fill="#42b6e6" stroke="#42b6e6" stroke-width="1.51"/><path d="M420,1260L540,1260L540,1140Z" fill="#caba58" stroke="#caba58" stroke-width="1.51"/><path d="M420,1140L420,1260L540,1140Z" fill="#cfb25d" stroke="#cfb25d" stroke-width="1.51"/><path d="M420,1140L540,1140L540,1020Z" fill="#cfaa53" stroke="#cfaa53" stroke-width="1.51"/><path d="M420,1020L420,1140L540,1020Z" fill="#d1a961" stroke="#d1a961" stroke-width="1.51"/><path d="M420,1020L540,1020L540,900Z" fill="#cca973" stroke="#cca973" stroke-width="1.51"/><path d="M420,900L420,1020L540,900Z" fill="#ccaa89" stroke="#ccaa89" stroke-width="1.51"/><path d="M420,900L540,900L540,780Z" fill="#c7aca7" stroke="#c7aca7" stroke-width="1.51"/><path d="M420,780L420,900L540,780Z" fill="#c5adbc" stroke="#c5adbc" stroke-width="1.51"/><path d="M420,780L540,780L540,660Z" fill="#bbaccd" stroke="#bbaccd" stroke-width="1.51"/><path d="M420,660L420,780L540,660Z" fill="#b1aada" stroke="#b1aada" stroke-width="1.51"/><path d="M420,660L540,660L540,540Z" fill="#919fd4" stroke="#919fd4" stroke-width="1.51"/><path d="M420,540L420,660L540,540Z" fill="#849cdb" stroke="#849cdb" stroke-width="1.51"/><path d="M420,540L540,540L540,420Z" fill="#7396d5" stroke="#7396d5" stroke-width="1.51"/><path d="M420,420L420,540L540,420Z" fill="#6a99db" stroke="#6a99db" stroke-width="1.51"/><path d="M420,420L540,420L540,300Z" fill="#5cabd4" stroke="#5cabd4" stroke-width="1.51"/><path d="M420,300L420,420L540,300Z" fill="#54bdd2" stroke="#54bdd2" stroke-width="1.51"/><path d="M420,300L540,300L540,180Z" fill="#32f1a9" stroke="#32f1a9" stroke-width="1.51"/><path d="M420,180L420,300L540,180Z" fill="#0fffad" stroke="#0fffad" stroke-width="1.51"/><path d="M420,180L540,180L540,60Z" fill="#19febe" stroke="#19febe" stroke-width="1.51"/><path d="M420,60L420,180L540,60Z" fill="#19fecd" stroke="#19fecd" stroke-width="1.51"/><path d="M420,60L540,60L540,-60Z" fill="#25f8ce" stroke="#25f8ce" stroke-width="1.51"/><path d="M420,-60L420,60L540,-60Z" fill="#27f3d7" stroke="#27f3d7" stroke-width="1.51"/><path d="M420,-60L540,-60L540,-180Z" fill="#36e1d1" stroke="#36e1d1" stroke-width="1.51"/><path d="M420,-180L420,-60L540,-180Z" fill="#38d9d8" stroke="#38d9d8" stroke-width="1.51"/><path d="M300,1260L420,1260L420,1140Z" fill="#d0b970" stroke="#d0b970" stroke-width="1.51"/><path d="M300,1140L300,1260L420,1140Z" fill="#d5b175" stroke="#d5b175" stroke-width="1.51"/><path d="M300,1140L420,1140L420,1020Z" fill="#d5a96b" stroke="#d5a96b" stroke-width="1.51"/><path d="M300,1020L300,1140L420,1020Z" fill="#d7a778" stroke="#d7a778" stroke-width="1.51"/><path d="M300,1020L420,1020L420,900Z" fill="#d1a889" stroke="#d1a889" stroke-width="1.51"/><path d="M300,900L300,1020L420,900Z" fill="#d0a8a0" stroke="#d0a8a0" stroke-width="1.51"/><path d="M300,900L420,900L420,780Z" fill="#c9abbc" stroke="#c9abbc" stroke-width="1.51"/><path d="M300,780L300,900L420,780Z" fill="#c6abd3" stroke="#c6abd3" stroke-width="1.51"/><path d="M300,780L420,780L420,660Z" fill="#bcace2" stroke="#bcace2" stroke-width="1.51"/><path d="M300,660L300,780L420,660Z" fill="#b0a9f0" stroke="#b0a9f0" stroke-width="1.51"/><path d="M300,660L420,660L420,540Z" fill="#8e9fe9" stroke="#8e9fe9" stroke-width="1.51"/><path d="M300,540L300,660L420,540Z" fill="#7f9bf1" stroke="#7f9bf1" stroke-width="1.51"/><path d="M300,540L420,540L420,420Z" fill="#6d96ea" stroke="#6d96ea" stroke-width="1.51"/><path d="M300,420L300,540L420,420Z" fill="#6199f2" stroke="#6199f2" stroke-width="1.51"/><path d="M300,420L420,420L420,300Z" fill="#53abe9" stroke="#53abe9" stroke-width="1.51"/><path d="M300,300L300,420L420,300Z" fill="#4bbce9" stroke="#4bbce9" stroke-width="1.51"/><path d="M300,300L420,300L420,180Z" fill="#33f1c0" stroke="#33f1c0" stroke-width="1.51"/><path d="M300,180L300,300L420,180Z" fill="#17ffc5" stroke="#17ffc5" stroke-width="1.51"/><path d="M300,180L420,180L420,60Z" fill="#13ffd5" stroke="#13ffd5" stroke-width="1.51"/><path d="M300,60L300,180L420,60Z" fill="#0bfee5" stroke="#0bfee5" stroke-width="1.51"/><path d="M300,60L420,60L420,-60Z" fill="#19f9e5" stroke="#19f9e5" stroke-width="1.51"/><path d="M300,-60L300,60L420,-60Z" fill="#17f3ef" stroke="#17f3ef" stroke-width="1.51"/><path d="M300,-60L420,-60L420,-180Z" fill="#2ae1e7" stroke="#2ae1e7" stroke-width="1.51"/><path d="M300,-180L300,-60L420,-180Z" fill="#29d9ef" stroke="#29d9ef" stroke-width="1.51"/><path d="M180,1260L300,1260L300,1140Z" fill="#d4b680" stroke="#d4b680" stroke-width="1.51"/><path d="M180,1140L180,1260L300,1140Z" fill="#d7ac80" stroke="#d7ac80" stroke-width="1.51"/><path d="M180,1140L300,1140L300,1020Z" fill="#d9a67b" stroke="#d9a67b" stroke-width="1.51"/><path d="M180,1020L180,1140L300,1020Z" fill="#d9a283" stroke="#d9a283" stroke-width="1.51"/><path d="M180,1020L300,1020L300,900Z" fill="#d4a599" stroke="#d4a599" stroke-width="1.51"/><path d="M180,900L180,1020L300,900Z" fill="#d1a4aa" stroke="#d1a4aa" stroke-width="1.51"/><path d="M180,900L300,900L300,780Z" fill="#caa8cc" stroke="#caa8cc" stroke-width="1.51"/><path d="M180,780L180,900L300,780Z" fill="#c6a7dd" stroke="#c6a7dd" stroke-width="1.51"/><path d="M180,780L300,780L300,660Z" fill="#bba9f2" stroke="#bba9f2" stroke-width="1.51"/><path d="M180,660L180,780L300,660Z" fill="#aea5fb" stroke="#aea5fb" stroke-width="1.51"/><path d="M180,660L300,660L300,540Z" fill="#8b9df9" stroke="#8b9df9" stroke-width="1.51"/><path d="M180,540L180,660L300,540Z" fill="#7b97fc" stroke="#7b97fc" stroke-width="1.51"/><path d="M180,540L300,540L300,420Z" fill="#6694fa" stroke="#6694fa" stroke-width="1.51"/><path d="M180,420L180,540L300,420Z" fill="#5b95fc" stroke="#5b95fc" stroke-width="1.51"/><path d="M180,420L300,420L300,300Z" fill="#49a9f9" stroke="#49a9f9" stroke-width="1.51"/><path d="M180,300L180,420L300,300Z" fill="#45b9f4" stroke="#45b9f4" stroke-width="1.51"/><path d="M180,300L300,300L300,180Z" fill="#34efd0" stroke="#34efd0" stroke-width="1.51"/><path d="M180,180L180,300L300,180Z" fill="#1efcd0" stroke="#1efcd0" stroke-width="1.51"/><path d="M180,180L300,180L300,60Z" fill="#0dfde6" stroke="#0dfde6" stroke-width="1.51"/><path d="M180,60L180,180L300,60Z" fill="#06faf0" stroke="#06faf0" stroke-width="1.51"/><path d="M180,60L300,60L300,-60Z" fill="#07f7f5" stroke="#07f7f5" stroke-width="1.51"/><path d="M180,-60L180,60L300,-60Z" fill="#0cf0fa" stroke="#0cf0fa" stroke-width="1.51"/><path d="M180,-60L300,-60L300,-180Z" fill="#1bdff7" stroke="#1bdff7" stroke-width="1.51"/><path d="M180,-180L180,-60L300,-180Z" fill="#1fd5fa" stroke="#1fd5fa" stroke-width="1.51"/><path d="M60,1260L180,1260L180,1140Z" fill="#d5b188" stroke="#d5b188" stroke-width="1.51"/><path d="M60,1140L60,1260L180,1140Z" fill="#d6a386" stroke="#d6a386" stroke-width="1.51"/><path d="M60,1140L180,1140L180,1020Z" fill="#daa083" stroke="#daa083" stroke-width="1.51"/><path d="M60,1020L60,1140L180,1020Z" fill="#d89989" stroke="#d89989" stroke-width="1.51"/><path d="M60,1020L180,1020L180,900Z" fill="#d4a0a0" stroke="#d4a0a0" stroke-width="1.51"/><path d="M60,900L60,1020L180,900Z" fill="#cf9baf" stroke="#cf9baf" stroke-width="1.51"/><path d="M60,900L180,900L180,780Z" fill="#caa3d3" stroke="#caa3d3" stroke-width="1.51"/><path d="M60,780L60,900L180,780Z" fill="#c49ee2" stroke="#c49ee2" stroke-width="1.51"/><path d="M60,780L180,780L180,660Z" fill="#b9a4f9" stroke="#b9a4f9" stroke-width="1.51"/><path d="M60,660L60,780L180,660Z" fill="#ab9cff" stroke="#ab9cff" stroke-width="1.51"/><path d="M60,660L180,660L180,540Z" fill="#8898ff" stroke="#8898ff" stroke-width="1.51"/><path d="M60,540L60,660L180,540Z" fill="#768fff" stroke="#768fff" stroke-width="1.51"/><path d="M60,540L180,540L180,420Z" fill="#618fff" stroke="#618fff" stroke-width="1.51"/><path d="M60,420L60,540L180,420Z" fill="#538dff" stroke="#538dff" stroke-width="1.51"/><path d="M60,420L180,420L180,300Z" fill="#42a4ff" stroke="#42a4ff" stroke-width="1.51"/><path d="M60,300L60,420L180,300Z" fill="#40b1f9" stroke="#40b1f9" stroke-width="1.51"/><path d="M60,300L180,300L180,180Z" fill="#36ebd8" stroke="#36ebd8" stroke-width="1.51"/><path d="M60,180L60,300L180,180Z" fill="#27f3d6" stroke="#27f3d6" stroke-width="1.51"/><path d="M60,180L180,180L180,60Z" fill="#12f8ed" stroke="#12f8ed" stroke-width="1.51"/><path d="M60,60L60,180L180,60Z" fill="#0ff2f6" stroke="#0ff2f6" stroke-width="1.51"/><path d="M60,60L180,60L180,-60Z" fill="#03f3fd" stroke="#03f3fd" stroke-width="1.51"/><path d="M60,-60L60,60L180,-60Z" fill="#0ae8ff" stroke="#0ae8ff" stroke-width="1.51"/><path d="M60,-60L180,-60L180,-180Z" fill="#12dbff" stroke="#12dbff" stroke-width="1.51"/><path d="M60,-180L60,-60L180,-180Z" fill="#16cdff" stroke="#16cdff" stroke-width="1.51"/><path d="M-60,1260L60,1260L60,1140Z" fill="#d19f8a" stroke="#d19f8a" stroke-width="1.51"/><path d="M-60,1140L-60,1260L60,1140Z" fill="#d19088" stroke="#d19088" stroke-width="1.51"/><path d="M-60,1140L60,1140L60,1020Z" fill="#d58e85" stroke="#d58e85" stroke-width="1.51"/><path d="M-60,1020L-60,1140L60,1020Z" fill="#d2868a" stroke="#d2868a" stroke-width="1.51"/><path d="M-60,1020L60,1020L60,900Z" fill="#cf8ea1" stroke="#cf8ea1" stroke-width="1.51"/><path d="M-60,900L-60,1020L60,900Z" fill="#ca88b0" stroke="#ca88b0" stroke-width="1.51"/><path d="M-60,900L60,900L60,780Z" fill="#c491d3" stroke="#c491d3" stroke-width="1.51"/><path d="M-60,780L-60,900L60,780Z" fill="#bd8be2" stroke="#bd8be2" stroke-width="1.51"/><path d="M-60,780L60,780L60,660Z" fill="#b392f9" stroke="#b392f9" stroke-width="1.51"/><path d="M-60,660L-60,780L60,660Z" fill="#a389ff" stroke="#a389ff" stroke-width="1.51"/><path d="M-60,660L60,660L60,540Z" fill="#8087ff" stroke="#8087ff" stroke-width="1.51"/><path d="M-60,540L-60,660L60,540Z" fill="#6c7dff" stroke="#6c7dff" stroke-width="1.51"/><path d="M-60,540L60,540L60,420Z" fill="#567fff" stroke="#567fff" stroke-width="1.51"/><path d="M-60,420L-60,540L60,420Z" fill="#477cff" stroke="#477cff" stroke-width="1.51"/><path d="M-60,420L60,420L60,300Z" fill="#3794ff" stroke="#3794ff" stroke-width="1.51"/><path d="M-60,300L-60,420L60,300Z" fill="#37a0f8" stroke="#37a0f8" stroke-width="1.51"/><path d="M-60,300L60,300L60,180Z" fill="#3cdad9" stroke="#3cdad9" stroke-width="1.51"/><path d="M-60,180L-60,300L60,180Z" fill="#33e2d6" stroke="#33e2d6" stroke-width="1.51"/><path d="M-60,180L60,180L60,60Z" fill="#21e8ee" stroke="#21e8ee" stroke-width="1.51"/><path d="M-60,60L-60,180L60,60Z" fill="#1ce1f6" stroke="#1ce1f6" stroke-width="1.51"/><path d="M-60,60L60,60L60,-60Z" fill="#11e2fd" stroke="#11e2fd" stroke-width="1.51"/><path d="M-60,-60L-60,60L60,-60Z" fill="#11d6ff" stroke="#11d6ff" stroke-width="1.51"/><path d="M-60,-60L60,-60L60,-180Z" fill="#0ecaff" stroke="#0ecaff" stroke-width="1.51"/><path d="M-60,-180L-60,-60L60,-180Z" fill="#0cbcff" stroke="#0cbcff" stroke-width="1.51"/><path d="M-180,1260L-60,1260L-60,1140Z" fill="#cd8d8b" stroke="#cd8d8b" stroke-width="1.51"/><path d="M-180,1140L-180,1260L-60,1140Z" fill="#ce7e89" stroke="#ce7e89" stroke-width="1.51"/><path d="M-180,1140L-60,1140L-60,1020Z" fill="#d07c86" stroke="#d07c86" stroke-width="1.51"/><path d="M-180,1020L-180,1140L-60,1020Z" fill="#ce738b" stroke="#ce738b" stroke-width="1.51"/><path d="M-180,1020L-60,1020L-60,900Z" fill="#ca7ba2" stroke="#ca7ba2" stroke-width="1.51"/><path d="M-180,900L-180,1020L-60,900Z" fill="#c676b0" stroke="#c676b0" stroke-width="1.51"/><path d="M-180,900L-60,900L-60,780Z" fill="#bf7ed3" stroke="#bf7ed3" stroke-width="1.51"/><path d="M-180,780L-180,900L-60,780Z" fill="#b879e2" stroke="#b879e2" stroke-width="1.51"/><path d="M-180,780L-60,780L-60,660Z" fill="#ac7ff9" stroke="#ac7ff9" stroke-width="1.51"/><path d="M-180,660L-180,780L-60,660Z" fill="#9e78ff" stroke="#9e78ff" stroke-width="1.51"/><path d="M-180,660L-60,660L-60,540Z" fill="#7875ff" stroke="#7875ff" stroke-width="1.51"/><path d="M-180,540L-180,660L-60,540Z" fill="#656dff" stroke="#656dff" stroke-width="1.51"/><path d="M-180,540L-60,540L-60,420Z" fill="#4b6eff" stroke="#4b6eff" stroke-width="1.51"/><path d="M-180,420L-180,540L-60,420Z" fill="#3c6cff" stroke="#3c6cff" stroke-width="1.51"/><path d="M-180,420L-60,420L-60,300Z" fill="#2984ff" stroke="#2984ff" stroke-width="1.51"/><path d="M-180,300L-180,420L-60,300Z" fill="#3191f8" stroke="#3191f8" stroke-width="1.51"/><path d="M-180,300L-60,300L-60,180Z" fill="#41cad9" stroke="#41cad9" stroke-width="1.51"/><path d="M-180,180L-180,300L-60,180Z" fill="#3ed2d7" stroke="#3ed2d7" stroke-width="1.51"/><path d="M-180,180L-60,180L-60,60Z" fill="#2cd7ee" stroke="#2cd7ee" stroke-width="1.51"/><path d="M-180,60L-180,180L-60,60Z" fill="#29d1f6" stroke="#29d1f6" stroke-width="1.51"/><path d="M-180,60L-60,60L-60,-60Z" fill="#1cd1fd" stroke="#1cd1fd" stroke-width="1.51"/><path d="M-180,-60L-180,60L-60,-60Z" fill="#1dc7ff" stroke="#1dc7ff" stroke-width="1.51"/><path d="M-180,-60L-60,-60L-60,-180Z" fill="#0dbaff" stroke="#0dbaff" stroke-width="1.51"/><path d="M-180,-180L-180,-60L-60,-180Z" fill="#0cacff" stroke="#0cacff" stroke-width="1.51"/></svg>