<svg xmlns="http://www.w3.org/2000/svg" width="1920" height="1080"><path d="M1980,1260L2100,1260L2100,1140Z" fill="#481484" stroke="#481484" stroke-width="1.51"/><path d="M1980,1140L1980,1260L2100,1140Z" fill="#4c1a87" stroke="#4c1a87" stroke-width="1.51"/><path d="M1980,1140L2100,1140L2100,1020Z" fill="#4f208a" stroke="#4f208a" stroke-width="1.51"/><path d="M1980,1020L1980,1140L2100,1020Z" fill="#53278d" stroke="#53278d" stroke-width="1.51"/><path d="M1980,1020L2100,1020L2100,900Z" fill="#562e90" stroke="#562e90" stroke-width="1.51"/><path d="M1980,900L1980,1020L2100,900Z" fill="#5a3493" stroke="#5a3493" stroke-width="1.51"/><path d="M1980,900L2100,900L2100,780Z" fill="#5d3c97" stroke="#5d3c97" stroke-width="1.51"/><path d="M1980,780L1980,900L2100,780Z" fill="#61429a" stroke="#61429a" stroke-width="1.51"/><path d="M1980,780L2100,780L2100,660Z" fill="#65499e" stroke="#65499e" stroke-width="1.51"/><path d="M1980,660L1980,780L2100,660Z" fill="#694ea1" stroke="#694ea1" stroke-width="1.51"/><path d="M1980,660L2100,660L2100,540Z" fill="#6f52a2" stroke="#6f52a2" stroke-width="1.51"/><path d="M1980,540L1980,660L2100,540Z" fill="#7356a5" stroke="#7356a5" stroke-width="1.51"/><path d="M1980,540L2100,540L2100,420Z" fill="#785ba7" stroke="#785ba7" stroke-width="1.51"/><path d="M1980,420L1980,540L2100,420Z" fill="#7c60aa" stroke="#7c60aa" stroke-width="1.51"/><path d="M1980,420L2100,420L2100,300Z" fill="#8265ad" stroke="#8265ad" stroke-width="1.51"/><path d="M1980,300L1980,420L2100,300Z" fill="#866ab0" stroke="#866ab0" stroke-width="1.51"/><path d="M1980,300L2100,300L2100,180Z" fill="#8b6eb3" stroke="#8b6eb3" stroke-width="1.51"/><path d="M1980,180L1980,300L2100,180Z" fill="#8f72b5" stroke="#8f72b5" stroke-width="1.51"/><path d="M1980,180L2100,180L2100,60Z" fill="#9475b7" stroke="#9475b7" stroke-width="1.51"/><path d="M1980,60L1980,180L2100,60Z" fill="#9779b9" stroke="#9779b9" stroke-width="1.51"/><path d="M1980,60L2100,60L2100,-60Z" fill="#9a7bba" stroke="#9a7bba" stroke-width="1.51"/><path d="M1980,-60L1980,60L2100,-60Z" fill="#9d7ebc" stroke="#9d7ebc" stroke-width="1.51"/><path d="M1980,-60L2100,-60L2100,-180Z" fill="#9f7fbd" stroke="#9f7fbd" stroke-width="1.51"/><path d="M1980,-180L1980,-60L2100,-180Z" fill="#a282bf" stroke="#a282bf" stroke-width="1.51"/><path d="M1860,1260L1980,1260L1980,1140Z" fill="#4d1b88" stroke="#4d1b88" stroke-width="1.51"/><path d="M1860,1140L1860,1260L1980,1140Z" fill="#50218b" stroke="#50218b" stroke-width="1.51"/><path d="M1860,1140L1980,1140L1980,1020Z" fill="#53268e" stroke="#53268e" stroke-width="1.51"/><path d="M1860,1020L1860,1140L1980,1020Z" fill="#572d91" stroke="#572d91" stroke-width="1.51"/><path d="M1860,1020L1980,1020L1980,900Z" fill="#5a3494" stroke="#5a3494" stroke-width="1.51"/><path d="M1860,900L1860,1020L1980,900Z" fill="#5d3a98" stroke="#5d3a98" stroke-width="1.51"/><path d="M1860,900L1980,900L1980,780Z" fill="#61419a" stroke="#61419a" stroke-width="1.51"/><path d="M1860,780L1860,900L1980,780Z" fill="#65489f" stroke="#65489f" stroke-width="1.51"/><path d="M1860,780L1980,780L1980,660Z" fill="#694fa1" stroke="#694fa1" stroke-width="1.51"/><path d="M1860,660L1860,780L1980,660Z" fill="#6d53a5" stroke="#6d53a5" stroke-width="1.51"/><path d="M1860,660L1980,660L1980,540Z" fill="#7257a6" stroke="#7257a6" stroke-width="1.51"/><path d="M1860,540L1860,660L1980,540Z" fill="#765ca9" stroke="#765ca9" stroke-width="1.51"/><path d="M1860,540L1980,540L1980,420Z" fill="#7c60ab" stroke="#7c60ab" stroke-width="1.51"/><path d="M1860,420L1860,540L1980,420Z" fill="#8065af" stroke="#8065af" stroke-width="1.51"/><path d="M1860,420L1980,420L1980,300Z" fill="#856bb1" stroke="#856bb1" stroke-width="1.51"/><path d="M1860,300L1860,420L1980,300Z" fill="#8970b5" stroke="#8970b5" stroke-width="1.51"/><path d="M1860,300L1980,300L1980,180Z" fill="#8f74b6" stroke="#8f74b6" stroke-width="1.51"/><path d="M1860,180L1860,300L1980,180Z" fill="#9278ba" stroke="#9278ba" stroke-width="1.51"/><path d="M1860,180L1980,180L1980,60Z" fill="#977bbb" stroke="#977bbb" stroke-width="1.51"/><path d="M1860,60L1860,180L1980,60Z" fill="#9a7fbe" stroke="#9a7fbe" stroke-width="1.51"/><path d="M1860,60L1980,60L1980,-60Z" fill="#9e81be" stroke="#9e81be" stroke-width="1.51"/><path d="M1860,-60L1860,60L1980,-60Z" fill="#a184c1" stroke="#a184c1" stroke-width="1.51"/><path d="M1860,-60L1980,-60L1980,-180Z" fill="#a385c0" stroke="#a385c0" stroke-width="1.51"/><path d="M1860,-180L1860,-60L1980,-180Z" fill="#a588c3" stroke="#a588c3" stroke-width="1.51"/><path d="M1740,1260L1860,1260L1860,1140Z" fill="#51238c" stroke="#51238c" stroke-width="1.51"/><path d="M1740,1140L1740,1260L1860,1140Z" fill="#54298f" stroke="#54298f" stroke-width="1.51"/><path d="M1740,1140L1860,1140L1860,1020Z" fill="#572d92" stroke="#572d92" stroke-width="1.51"/><path d="M1740,1020L1740,1140L1860,1020Z" fill="#5b3595" stroke="#5b3595" stroke-width="1.51"/><path d="M1740,1020L1860,1020L1860,900Z" fill="#5e3a98" stroke="#5e3a98" stroke-width="1.51"/><path d="M1740,900L1740,1020L1860,900Z" fill="#62419b" stroke="#62419b" stroke-width="1.51"/><path d="M1740,900L1860,900L1860,780Z" fill="#65489f" stroke="#65489f" stroke-width="1.51"/><path d="M1740,780L1740,900L1860,780Z" fill="#694fa2" stroke="#694fa2" stroke-width="1.51"/><path d="M1740,780L1860,780L1860,660Z" fill="#6c55a6" stroke="#6c55a6" stroke-width="1.51"/><path d="M1740,660L1740,780L1860,660Z" fill="#715ba8" stroke="#715ba8" stroke-width="1.51"/><path d="M1740,660L1860,660L1860,540Z" fill="#765eaa" stroke="#765eaa" stroke-width="1.51"/><path d="M1740,540L1740,660L1860,540Z" fill="#7a63ad" stroke="#7a63ad" stroke-width="1.51"/><path d="M1740,540L1860,540L1860,420Z" fill="#7f67af" stroke="#7f67af" stroke-width="1.51"/><path d="M1740,420L1740,540L1860,420Z" fill="#846db2" stroke="#846db2" stroke-width="1.51"/><path d="M1740,420L1860,420L1860,300Z" fill="#8971b5" stroke="#8971b5" stroke-width="1.51"/><path d="M1740,300L1740,420L1860,300Z" fill="#8d77b8" stroke="#8d77b8" stroke-width="1.51"/><path d="M1740,300L1860,300L1860,180Z" fill="#927abb" stroke="#927abb" stroke-width="1.51"/><path d="M1740,180L1740,300L1860,180Z" fill="#967fbd" stroke="#967fbd" stroke-width="1.51"/><path d="M1740,180L1860,180L1860,60Z" fill="#9b82bf" stroke="#9b82bf" stroke-width="1.51"/><path d="M1740,60L1740,180L1860,60Z" fill="#9e86c1" stroke="#9e86c1" stroke-width="1.51"/><path d="M1740,60L1860,60L1860,-60Z" fill="#a187c2" stroke="#a187c2" stroke-width="1.51"/><path d="M1740,-60L1740,60L1860,-60Z" fill="#a58cc4" stroke="#a58cc4" stroke-width="1.51"/><path d="M1740,-60L1860,-60L1860,-180Z" fill="#a78cc5" stroke="#a78cc5" stroke-width="1.51"/><path d="M1740,-180L1740,-60L1860,-180Z" fill="#a990c6" stroke="#a990c6" stroke-width="1.51"/><path d="M1620,1260L1740,1260L1740,1140Z" fill="#552c90" stroke="#552c90" stroke-width="1.51"/><path d="M1620,1140L1620,1260L1740,1140Z" fill="#593193" stroke="#593193" stroke-width="1.51"/><path d="M1620,1140L1740,1140L1740,1020Z" fill="#5c3696" stroke="#5c3696" stroke-width="1.51"/><path d="M1620,1020L1620,1140L1740,1020Z" fill="#603d99" stroke="#603d99" stroke-width="1.51"/><path d="M1620,1020L1740,1020L1740,900Z" fill="#63439c" stroke="#63439c" stroke-width="1.51"/><path d="M1620,900L1620,1020L1740,900Z" fill="#66499f" stroke="#66499f" stroke-width="1.51"/><path d="M1620,900L1740,900L1740,780Z" fill="#6950a3" stroke="#6950a3" stroke-width="1.51"/><path d="M1620,780L1620,900L1740,780Z" fill="#6d57a6" stroke="#6d57a6" stroke-width="1.51"/><path d="M1620,780L1740,780L1740,660Z" fill="#705daa" stroke="#705daa" stroke-width="1.51"/><path d="M1620,660L1620,780L1740,660Z" fill="#7562ac" stroke="#7562ac" stroke-width="1.51"/><path d="M1620,660L1740,660L1740,540Z" fill="#7a66ae" stroke="#7a66ae" stroke-width="1.51"/><path d="M1620,540L1620,660L1740,540Z" fill="#7e6bb1" stroke="#7e6bb1" stroke-width="1.51"/><path d="M1620,540L1740,540L1740,420Z" fill="#836fb3" stroke="#836fb3" stroke-width="1.51"/><path d="M1620,420L1620,540L1740,420Z" fill="#8875b6" stroke="#8875b6" stroke-width="1.51"/><path d="M1620,420L1740,420L1740,300Z" fill="#8d79b9" stroke="#8d79b9" stroke-width="1.51"/><path d="M1620,300L1620,420L1740,300Z" fill="#917fbc" stroke="#917fbc" stroke-width="1.51"/><path d="M1620,300L1740,300L1740,180Z" fill="#9682bf" stroke="#9682bf" stroke-width="1.51"/><path d="M1620,180L1620,300L1740,180Z" fill="#9a87c1" stroke="#9a87c1" stroke-width="1.51"/><path d="M1620,180L1740,180L1740,60Z" fill="#9f8ac3" stroke="#9f8ac3" stroke-width="1.51"/><path d="M1620,60L1620,180L1740,60Z" fill="#a28ec5" stroke="#a28ec5" stroke-width="1.51"/><path d="M1620,60L1740,60L1740,-60Z" fill="#a590c6" stroke="#a590c6" stroke-width="1.51"/><path d="M1620,-60L1620,60L1740,-60Z" fill="#a994c8" stroke="#a994c8" stroke-width="1.51"/><path d="M1620,-60L1740,-60L1740,-180Z" fill="#ab94c9" stroke="#ab94c9" stroke-width="1.51"/><path d="M1620,-180L1620,-60L1740,-180Z" fill="#ad98ca" stroke="#ad98ca" stroke-width="1.51"/><path d="M1500,1260L1620,1260L1620,1140Z" fill="#5a3494" stroke="#5a3494" stroke-width="1.51"/><path d="M1500,1140L1500,1260L1620,1140Z" fill="#5e3a97" stroke="#5e3a97" stroke-width="1.51"/><path d="M1500,1140L1620,1140L1620,1020Z" fill="#603e9a" stroke="#603e9a" stroke-width="1.51"/><path d="M1500,1020L1500,1140L1620,1020Z" fill="#64459d" stroke="#64459d" stroke-width="1.51"/><path d="M1500,1020L1620,1020L1620,900Z" fill="#674ba0" stroke="#674ba0" stroke-width="1.51"/><path d="M1500,900L1500,1020L1620,900Z" fill="#6b52a3" stroke="#6b52a3" stroke-width="1.51"/><path d="M1500,900L1620,900L1620,780Z" fill="#6e58a7" stroke="#6e58a7" stroke-width="1.51"/><path d="M1500,780L1500,900L1620,780Z" fill="#725fab" stroke="#725fab" stroke-width="1.51"/><path d="M1500,780L1620,780L1620,660Z" fill="#7465ae" stroke="#7465ae" stroke-width="1.51"/><path d="M1500,660L1500,780L1620,660Z" fill="#796bb1" stroke="#796bb1" stroke-width="1.51"/><path d="M1500,660L1620,660L1620,540Z" fill="#7e6eb2" stroke="#7e6eb2" stroke-width="1.51"/><path d="M1500,540L1500,660L1620,540Z" fill="#8274b5" stroke="#8274b5" stroke-width="1.51"/><path d="M1500,540L1620,540L1620,420Z" fill="#8777b7" stroke="#8777b7" stroke-width="1.51"/><path d="M1500,420L1500,540L1620,420Z" fill="#8c7dbb" stroke="#8c7dbb" stroke-width="1.51"/><path d="M1500,420L1620,420L1620,300Z" fill="#9181bd" stroke="#9181bd" stroke-width="1.51"/><path d="M1500,300L1500,420L1620,300Z" fill="#9588c1" stroke="#9588c1" stroke-width="1.51"/><path d="M1500,300L1620,300L1620,180Z" fill="#9a8ac3" stroke="#9a8ac3" stroke-width="1.51"/><path d="M1500,180L1500,300L1620,180Z" fill="#9e90c6" stroke="#9e90c6" stroke-width="1.51"/><path d="M1500,180L1620,180L1620,60Z" fill="#a392c7" stroke="#a392c7" stroke-width="1.51"/><path d="M1500,60L1500,180L1620,60Z" fill="#a697ca" stroke="#a697ca" stroke-width="1.51"/><path d="M1500,60L1620,60L1620,-60Z" fill="#a998ca" stroke="#a998ca" stroke-width="1.51"/><path d="M1500,-60L1500,60L1620,-60Z" fill="#ad9dcd" stroke="#ad9dcd" stroke-width="1.51"/><path d="M1500,-60L1620,-60L1620,-180Z" fill="#af9ccd" stroke="#af9ccd" stroke-width="1.51"/><path d="M1500,-180L1500,-60L1620,-180Z" fill="#b1a1cf" stroke="#b1a1cf" stroke-width="1.51"/><path d="M1380,1260L1500,1260L1500,1140Z" fill="#5f3e98" stroke="#5f3e98" stroke-width="1.51"/><path d="M1380,1140L1380,1260L1500,1140Z" fill="#62439c" stroke="#62439c" stroke-width="1.51"/><path d="M1380,1140L1500,1140L1500,1020Z" fill="#65479f" stroke="#65479f" stroke-width="1.51"/><path d="M1380,1020L1380,1140L1500,1020Z" fill="#694ea2" stroke="#694ea2" stroke-width="1.51"/><path d="M1380,1020L1500,1020L1500,900Z" fill="#6c54a4" stroke="#6c54a4" stroke-width="1.51"/><path d="M1380,900L1380,1020L1500,900Z" fill="#6f5aa8" stroke="#6f5aa8" stroke-width="1.51"/><path d="M1380,900L1500,900L1500,780Z" fill="#7261ab" stroke="#7261ab" stroke-width="1.51"/><path d="M1380,780L1380,900L1500,780Z" fill="#7668af" stroke="#7668af" stroke-width="1.51"/><path d="M1380,780L1500,780L1500,660Z" fill="#796eb2" stroke="#796eb2" stroke-width="1.51"/><path d="M1380,660L1380,780L1500,660Z" fill="#7d73b5" stroke="#7d73b5" stroke-width="1.51"/><path d="M1380,660L1500,660L1500,540Z" fill="#8277b7" stroke="#8277b7" stroke-width="1.51"/><path d="M1380,540L1380,660L1500,540Z" fill="#877cba" stroke="#877cba" stroke-width="1.51"/><path d="M1380,540L1500,540L1500,420Z" fill="#8b80bc" stroke="#8b80bc" stroke-width="1.51"/><path d="M1380,420L1380,540L1500,420Z" fill="#9086bf" stroke="#9086bf" stroke-width="1.51"/><path d="M1380,420L1500,420L1500,300Z" fill="#958bc2" stroke="#958bc2" stroke-width="1.51"/><path d="M1380,300L1380,420L1500,300Z" fill="#9991c5" stroke="#9991c5" stroke-width="1.51"/><path d="M1380,300L1500,300L1500,180Z" fill="#9e94c7" stroke="#9e94c7" stroke-width="1.51"/><path d="M1380,180L1380,300L1500,180Z" fill="#a299ca" stroke="#a299ca" stroke-width="1.51"/><path d="M1380,180L1500,180L1500,60Z" fill="#a79ccc" stroke="#a79ccc" stroke-width="1.51"/><path d="M1380,60L1380,180L1500,60Z" fill="#aaa0ce" stroke="#aaa0ce" stroke-width="1.51"/><path d="M1380,60L1500,60L1500,-60Z" fill="#ada1cf" stroke="#ada1cf" stroke-width="1.51"/><path d="M1380,-60L1380,60L1500,-60Z" fill="#b1a6d1" stroke="#b1a6d1" stroke-width="1.51"/><path d="M1380,-60L1500,-60L1500,-180Z" fill="#b3a6d1" stroke="#b3a6d1" stroke-width="1.51"/><path d="M1380,-180L1380,-60L1500,-180Z" fill="#b5aad4" stroke="#b5aad4" stroke-width="1.51"/><path d="M1260,1260L1380,1260L1380,1140Z" fill="#64469d" stroke="#64469d" stroke-width="1.51"/><path d="M1260,1140L1260,1260L1380,1140Z" fill="#674ca0" stroke="#674ca0" stroke-width="1.51"/><path d="M1260,1140L1380,1140L1380,1020Z" fill="#6950a3" stroke="#6950a3" stroke-width="1.51"/><path d="M1260,1020L1260,1140L1380,1020Z" fill="#6d57a6" stroke="#6d57a6" stroke-width="1.51"/><path d="M1260,1020L1380,1020L1380,900Z" fill="#705ca9" stroke="#705ca9" stroke-width="1.51"/><path d="M1260,900L1260,1020L1380,900Z" fill="#7363ac" stroke="#7363ac" stroke-width="1.51"/><path d="M1260,900L1380,900L1380,780Z" fill="#7669af" stroke="#7669af" stroke-width="1.51"/><path d="M1260,780L1260,900L1380,780Z" fill="#7a70b3" stroke="#7a70b3" stroke-width="1.51"/><path d="M1260,780L1380,780L1380,660Z" fill="#7d76b7" stroke="#7d76b7" stroke-width="1.51"/><path d="M1260,660L1260,780L1380,660Z" fill="#817cba" stroke="#817cba" stroke-width="1.51"/><path d="M1260,660L1380,660L1380,540Z" fill="#867fbb" stroke="#867fbb" stroke-width="1.51"/><path d="M1260,540L1260,660L1380,540Z" fill="#8b85be" stroke="#8b85be" stroke-width="1.51"/><path d="M1260,540L1380,540L1380,420Z" fill="#8f89c0" stroke="#8f89c0" stroke-width="1.51"/><path d="M1260,420L1260,540L1380,420Z" fill="#948fc4" stroke="#948fc4" stroke-width="1.51"/><path d="M1260,420L1380,420L1380,300Z" fill="#9993c6" stroke="#9993c6" stroke-width="1.51"/><path d="M1260,300L1260,420L1380,300Z" fill="#9d9aca" stroke="#9d9aca" stroke-width="1.51"/><path d="M1260,300L1380,300L1380,180Z" fill="#a29ccc" stroke="#a29ccc" stroke-width="1.51"/><path d="M1260,180L1260,300L1380,180Z" fill="#a6a2cf" stroke="#a6a2cf" stroke-width="1.51"/><path d="M1260,180L1380,180L1380,60Z" fill="#aba5d0" stroke="#aba5d0" stroke-width="1.51"/><path d="M1260,60L1260,180L1380,60Z" fill="#aeaad3" stroke="#aeaad3" stroke-width="1.51"/><path d="M1260,60L1380,60L1380,-60Z" fill="#b1aad3" stroke="#b1aad3" stroke-width="1.51"/><path d="M1260,-60L1260,60L1380,-60Z" fill="#b5afd6" stroke="#b5afd6" stroke-width="1.51"/><path d="M1260,-60L1380,-60L1380,-180Z" fill="#b7afd6" stroke="#b7afd6" stroke-width="1.51"/><path d="M1260,-180L1260,-60L1380,-180Z" fill="#b9b4d8" stroke="#b9b4d8" stroke-width="1.51"/><path d="M1140,1260L1260,1260L1260,1140Z" fill="#694ea1" stroke="#694ea1" stroke-width="1.51"/><path d="M1140,1140L1140,1260L1260,1140Z" fill="#6d53a4" stroke="#6d53a4" stroke-width="1.51"/><path d="M1140,1140L1260,1140L1260,1020Z" fill="#6f57a7" stroke="#6f57a7" stroke-width="1.51"/><path d="M1140,1020L1140,1140L1260,1020Z" fill="#735eaa" stroke="#735eaa" stroke-width="1.51"/><path d="M1140,1020L1260,1020L1260,900Z" fill="#7564ad" stroke="#7564ad" stroke-width="1.51"/><path d="M1140,900L1140,1020L1260,900Z" fill="#796ab0" stroke="#796ab0" stroke-width="1.51"/><path d="M1140,900L1260,900L1260,780Z" fill="#7b71b3" stroke="#7b71b3" stroke-width="1.51"/><path d="M1140,780L1140,900L1260,780Z" fill="#8077b7" stroke="#8077b7" stroke-width="1.51"/><path d="M1140,780L1260,780L1260,660Z" fill="#827eba" stroke="#827eba" stroke-width="1.51"/><path d="M1140,660L1140,780L1260,660Z" fill="#8783be" stroke="#8783be" stroke-width="1.51"/><path d="M1140,660L1260,660L1260,540Z" fill="#8b87bf" stroke="#8b87bf" stroke-width="1.51"/><path d="M1140,540L1140,660L1260,540Z" fill="#908cc2" stroke="#908cc2" stroke-width="1.51"/><path d="M1140,540L1260,540L1260,420Z" fill="#9491c4" stroke="#9491c4" stroke-width="1.51"/><path d="M1140,420L1140,540L1260,420Z" fill="#9996c7" stroke="#9996c7" stroke-width="1.51"/><path d="M1140,420L1260,420L1260,300Z" fill="#9e9cca" stroke="#9e9cca" stroke-width="1.51"/><path d="M1140,300L1140,420L1260,300Z" fill="#a3a1cd" stroke="#a3a1cd" stroke-width="1.51"/><path d="M1140,300L1260,300L1260,180Z" fill="#a7a5d0" stroke="#a7a5d0" stroke-width="1.51"/><path d="M1140,180L1140,300L1260,180Z" fill="#aca9d2" stroke="#aca9d2" stroke-width="1.51"/><path d="M1140,180L1260,180L1260,60Z" fill="#b0add4" stroke="#b0add4" stroke-width="1.51"/><path d="M1140,60L1140,180L1260,60Z" fill="#b4b1d6" stroke="#b4b1d6" stroke-width="1.51"/><path d="M1140,60L1260,60L1260,-60Z" fill="#b6b3d7" stroke="#b6b3d7" stroke-width="1.51"/><path d="M1140,-60L1140,60L1260,-60Z" fill="#bab7d9" stroke="#bab7d9" stroke-width="1.51"/><path d="M1140,-60L1260,-60L1260,-180Z" fill="#bcb7da" stroke="#bcb7da" stroke-width="1.51"/><path d="M1140,-180L1140,-60L1260,-180Z" fill="#bebbdb" stroke="#bebbdb" stroke-width="1.51"/><path d="M1020,1260L1140,1260L1140,1140Z" fill="#6f53a3" stroke="#6f53a3" stroke-width="1.51"/><path d="M1020,1140L1020,1260L1140,1140Z" fill="#7358a7" stroke="#7358a7" stroke-width="1.51"/><path d="M1020,1140L1140,1140L1140,1020Z" fill="#755daa" stroke="#755daa" stroke-width="1.51"/><path d="M1020,1020L1020,1140L1140,1020Z" fill="#7963ad" stroke="#7963ad" stroke-width="1.51"/><path d="M1020,1020L1140,1020L1140,900Z" fill="#7b69b0" stroke="#7b69b0" stroke-width="1.51"/><path d="M1020,900L1020,1020L1140,900Z" fill="#7f6fb3" stroke="#7f6fb3" stroke-width="1.51"/><path d="M1020,900L1140,900L1140,780Z" fill="#8176b6" stroke="#8176b6" stroke-width="1.51"/><path d="M1020,780L1020,900L1140,780Z" fill="#867dba" stroke="#867dba" stroke-width="1.51"/><path d="M1020,780L1140,780L1140,660Z" fill="#8884bd" stroke="#8884bd" stroke-width="1.51"/><path d="M1020,660L1020,780L1140,660Z" fill="#8d89c0" stroke="#8d89c0" stroke-width="1.51"/><path d="M1020,660L1140,660L1140,540Z" fill="#918dc2" stroke="#918dc2" stroke-width="1.51"/><path d="M1020,540L1020,660L1140,540Z" fill="#9692c4" stroke="#9692c4" stroke-width="1.51"/><path d="M1020,540L1140,540L1140,420Z" fill="#9a96c7" stroke="#9a96c7" stroke-width="1.51"/><path d="M1020,420L1020,540L1140,420Z" fill="#9f9cc9" stroke="#9f9cc9" stroke-width="1.51"/><path d="M1020,420L1140,420L1140,300Z" fill="#a4a1cc" stroke="#a4a1cc" stroke-width="1.51"/><path d="M1020,300L1020,420L1140,300Z" fill="#a9a7cf" stroke="#a9a7cf" stroke-width="1.51"/><path d="M1020,300L1140,300L1140,180Z" fill="#adaad2" stroke="#adaad2" stroke-width="1.51"/><path d="M1020,180L1020,300L1140,180Z" fill="#b1afd4" stroke="#b1afd4" stroke-width="1.51"/><path d="M1020,180L1140,180L1140,60Z" fill="#b5b3d6" stroke="#b5b3d6" stroke-width="1.51"/><path d="M1020,60L1020,180L1140,60Z" fill="#b9b7d8" stroke="#b9b7d8" stroke-width="1.51"/><path d="M1020,60L1140,60L1140,-60Z" fill="#bcb8d9" stroke="#bcb8d9" stroke-width="1.51"/><path d="M1020,-60L1020,60L1140,-60Z" fill="#c0bcdb" stroke="#c0bcdb" stroke-width="1.51"/><path d="M1020,-60L1140,-60L1140,-180Z" fill="#c1bddc" stroke="#c1bddc" stroke-width="1.51"/><path d="M1020,-180L1020,-60L1140,-180Z" fill="#c4c1de" stroke="#c4c1de" stroke-width="1.51"/><path d="M900,1260L1020,1260L1020,1140Z" fill="#7559a6" stroke="#7559a6" stroke-width="1.51"/><path d="M900,1140L900,1260L1020,1140Z" fill="#795eaa" stroke="#795eaa" stroke-width="1.51"/><path d="M900,1140L1020,1140L1020,1020Z" fill="#7b62ad" stroke="#7b62ad" stroke-width="1.51"/><path d="M900,1020L900,1140L1020,1020Z" fill="#7f69b0" stroke="#7f69b0" stroke-width="1.51"/><path d="M900,1020L1020,1020L1020,900Z" fill="#816fb3" stroke="#816fb3" stroke-width="1.51"/><path d="M900,900L900,1020L1020,900Z" fill="#8575b6" stroke="#8575b6" stroke-width="1.51"/><path d="M900,900L1020,900L1020,780Z" fill="#877cb9" stroke="#877cb9" stroke-width="1.51"/><path d="M900,780L900,900L1020,780Z" fill="#8c83bd" stroke="#8c83bd" stroke-width="1.51"/><path d="M900,780L1020,780L1020,660Z" fill="#8e8ac0" stroke="#8e8ac0" stroke-width="1.51"/><path d="M900,660L900,780L1020,660Z" fill="#938fc3" stroke="#938fc3" stroke-width="1.51"/><path d="M900,660L1020,660L1020,540Z" fill="#9793c5" stroke="#9793c5" stroke-width="1.51"/><path d="M900,540L900,660L1020,540Z" fill="#9c98c7" stroke="#9c98c7" stroke-width="1.51"/><path d="M900,540L1020,540L1020,420Z" fill="#a09cc9" stroke="#a09cc9" stroke-width="1.51"/><path d="M900,420L900,540L1020,420Z" fill="#a5a2cc" stroke="#a5a2cc" stroke-width="1.51"/><path d="M900,420L1020,420L1020,300Z" fill="#aaa7cf" stroke="#aaa7cf" stroke-width="1.51"/><path d="M900,300L900,420L1020,300Z" fill="#aeadd2" stroke="#aeadd2" stroke-width="1.51"/><path d="M900,300L1020,300L1020,180Z" fill="#b2b1d5" stroke="#b2b1d5" stroke-width="1.51"/><path d="M900,180L900,300L1020,180Z" fill="#b7b5d7" stroke="#b7b5d7" stroke-width="1.51"/><path d="M900,180L1020,180L1020,60Z" fill="#bbb9d9" stroke="#bbb9d9" stroke-width="1.51"/><path d="M900,60L900,180L1020,60Z" fill="#bfbddb" stroke="#bfbddb" stroke-width="1.51"/><path d="M900,60L1020,60L1020,-60Z" fill="#c2bfdc" stroke="#c2bfdc" stroke-width="1.51"/><path d="M900,-60L900,60L1020,-60Z" fill="#c6c3de" stroke="#c6c3de" stroke-width="1.51"/><path d="M900,-60L1020,-60L1020,-180Z" fill="#c7c4df" stroke="#c7c4df" stroke-width="1.51"/><path d="M900,-180L900,-60L1020,-180Z" fill="#cac7e1" stroke="#cac7e1" stroke-width="1.51"/><path d="M780,1260L900,1260L900,1140Z" fill="#7c60aa" stroke="#7c60aa" stroke-width="1.51"/><path d="M780,1140L780,1260L900,1140Z" fill="#7f64ae" stroke="#7f64ae" stroke-width="1.51"/><path d="M780,1140L900,1140L900,1020Z" fill="#8169b1" stroke="#8169b1" stroke-width="1.51"/><path d="M780,1020L780,1140L900,1020Z" fill="#856fb4" stroke="#856fb4" stroke-width="1.51"/><path d="M780,1020L900,1020L900,900Z" fill="#8776b7" stroke="#8776b7" stroke-width="1.51"/><path d="M780,900L780,1020L900,900Z" fill="#8b7cba" stroke="#8b7cba" stroke-width="1.51"/><path d="M780,900L900,900L900,780Z" fill="#8d83bd" stroke="#8d83bd" stroke-width="1.51"/><path d="M780,780L780,900L900,780Z" fill="#9289c1" stroke="#9289c1" stroke-width="1.51"/><path d="M780,780L900,780L900,660Z" fill="#9491c4" stroke="#9491c4" stroke-width="1.51"/><path d="M780,660L780,780L900,660Z" fill="#9996c7" stroke="#9996c7" stroke-width="1.51"/><path d="M780,660L900,660L900,540Z" fill="#9d9ac8" stroke="#9d9ac8" stroke-width="1.51"/><path d="M780,540L780,660L900,540Z" fill="#a29fcb" stroke="#a29fcb" stroke-width="1.51"/><path d="M780,540L900,540L900,420Z" fill="#a6a3cd" stroke="#a6a3cd" stroke-width="1.51"/><path d="M780,420L780,540L900,420Z" fill="#aba9d1" stroke="#aba9d1" stroke-width="1.51"/><path d="M780,420L900,420L900,300Z" fill="#b0aed3" stroke="#b0aed3" stroke-width="1.51"/><path d="M780,300L780,420L900,300Z" fill="#b4b4d6" stroke="#b4b4d6" stroke-width="1.51"/><path d="M780,300L900,300L900,180Z" fill="#b8b8d9" stroke="#b8b8d9" stroke-width="1.51"/><path d="M780,180L780,300L900,180Z" fill="#bdbcdb" stroke="#bdbcdb" stroke-width="1.51"/><path d="M780,180L900,180L900,60Z" fill="#c1c0dd" stroke="#c1c0dd" stroke-width="1.51"/><path d="M780,60L780,180L900,60Z" fill="#c5c4df" stroke="#c5c4df" stroke-width="1.51"/><path d="M780,60L900,60L900,-60Z" fill="#c8c6e0" stroke="#c8c6e0" stroke-width="1.51"/><path d="M780,-60L780,60L900,-60Z" fill="#cccae2" stroke="#cccae2" stroke-width="1.51"/><path d="M780,-60L900,-60L900,-180Z" fill="#cdcbe3" stroke="#cdcbe3" stroke-width="1.51"/><path d="M780,-180L780,-60L900,-180Z" fill="#d0cee5" stroke="#d0cee5" stroke-width="1.51"/><path d="M660,1260L780,1260L780,1140Z" fill="#8266ae" stroke="#8266ae" stroke-width="1.51"/><path d="M660,1140L660,1260L780,1140Z" fill="#866bb2" stroke="#866bb2" stroke-width="1.51"/><path d="M660,1140L780,1140L780,1020Z" fill="#8770b5" stroke="#8770b5" stroke-width="1.51"/><path d="M660,1020L660,1140L780,1020Z" fill="#8c76b8" stroke="#8c76b8" stroke-width="1.51"/><path d="M660,1020L780,1020L780,900Z" fill="#8d7cbb" stroke="#8d7cbb" stroke-width="1.51"/><path d="M660,900L660,1020L780,900Z" fill="#9182be" stroke="#9182be" stroke-width="1.51"/><path d="M660,900L780,900L780,780Z" fill="#938ac1" stroke="#938ac1" stroke-width="1.51"/><path d="M660,780L660,900L780,780Z" fill="#9890c5" stroke="#9890c5" stroke-width="1.51"/><path d="M660,780L780,780L780,660Z" fill="#9a98c8" stroke="#9a98c8" stroke-width="1.51"/><path d="M660,660L660,780L780,660Z" fill="#9f9dcb" stroke="#9f9dcb" stroke-width="1.51"/><path d="M660,660L780,660L780,540Z" fill="#a3a1cc" stroke="#a3a1cc" stroke-width="1.51"/><path d="M660,540L660,660L780,540Z" fill="#a8a6cf" stroke="#a8a6cf" stroke-width="1.51"/><path d="M660,540L780,540L780,420Z" fill="#acaad1" stroke="#acaad1" stroke-width="1.51"/><path d="M660,420L660,540L780,420Z" fill="#b1b0d4" stroke="#b1b0d4" stroke-width="1.51"/><path d="M660,420L780,420L780,300Z" fill="#b6b5d8" stroke="#b6b5d8" stroke-width="1.51"/><path d="M660,300L660,420L780,300Z" fill="#bbbbdb" stroke="#bbbbdb" stroke-width="1.51"/><path d="M660,300L780,300L780,180Z" fill="#bebfdd" stroke="#bebfdd" stroke-width="1.51"/><path d="M660,180L660,300L780,180Z" fill="#c3c3df" stroke="#c3c3df" stroke-width="1.51"/><path d="M660,180L780,180L780,60Z" fill="#c7c7e1" stroke="#c7c7e1" stroke-width="1.51"/><path d="M660,60L660,180L780,60Z" fill="#cbcbe3" stroke="#cbcbe3" stroke-width="1.51"/><path d="M660,60L780,60L780,-60Z" fill="#cecde4" stroke="#cecde4" stroke-width="1.51"/><path d="M660,-60L660,60L780,-60Z" fill="#d2d1e6" stroke="#d2d1e6" stroke-width="1.51"/><path d="M660,-60L780,-60L780,-180Z" fill="#d3d2e7" stroke="#d3d2e7" stroke-width="1.51"/><path d="M660,-180L660,-60L780,-180Z" fill="#d6d6e9" stroke="#d6d6e9" stroke-width="1.51"/><path d="M540,1260L660,1260L660,1140Z" fill="#886cb2" stroke="#886cb2" stroke-width="1.51"/><path d="M540,1140L540,1260L660,1140Z" fill="#8c71b5" stroke="#8c71b5" stroke-width="1.51"/><path d="M540,1140L660,1140L660,1020Z" fill="#8e76b8" stroke="#8e76b8" stroke-width="1.51"/><path d="M540,1020L540,1140L660,1020Z" fill="#927cbb" stroke="#927cbb" stroke-width="1.51"/><path d="M540,1020L660,1020L660,900Z" fill="#9482be" stroke="#9482be" stroke-width="1.51"/><path d="M540,900L540,1020L660,900Z" fill="#9788c1" stroke="#9788c1" stroke-width="1.51"/><path d="M540,900L660,900L660,780Z" fill="#9990c4" stroke="#9990c4" stroke-width="1.51"/><path d="M540,780L540,900L660,780Z" fill="#9e96c8" stroke="#9e96c8" stroke-width="1.51"/><path d="M540,780L660,780L660,660Z" fill="#a09ecc" stroke="#a09ecc" stroke-width="1.51"/><path d="M540,660L540,780L660,660Z" fill="#a5a3cf" stroke="#a5a3cf" stroke-width="1.51"/><path d="M540,660L660,660L660,540Z" fill="#a9a7d0" stroke="#a9a7d0" stroke-width="1.51"/><path d="M540,540L540,660L660,540Z" fill="#aeacd2" stroke="#aeacd2" stroke-width="1.51"/><path d="M540,540L660,540L660,420Z" fill="#b2b1d5" stroke="#b2b1d5" stroke-width="1.51"/><path d="M540,420L540,540L660,420Z" fill="#b7b6d8" stroke="#b7b6d8" stroke-width="1.51"/><path d="M540,420L660,420L660,300Z" fill="#bbbcdb" stroke="#bbbcdb" stroke-width="1.51"/><path d="M540,300L540,420L660,300Z" fill="#c0c1de" stroke="#c0c1de" stroke-width="1.51"/><path d="M540,300L660,300L660,180Z" fill="#c4c5e0" stroke="#c4c5e0" stroke-width="1.51"/><path d="M540,180L540,300L660,180Z" fill="#c9cae3" stroke="#c9cae3" stroke-width="1.51"/><path d="M540,180L660,180L660,60Z" fill="#cdcee5" stroke="#cdcee5" stroke-width="1.51"/><path d="M540,60L540,180L660,60Z" fill="#d1d2e7" stroke="#d1d2e7" stroke-width="1.51"/><path d="M540,60L660,60L660,-60Z" fill="#d4d4e8" stroke="#d4d4e8" stroke-width="1.51"/><path d="M540,-60L540,60L660,-60Z" fill="#d8d8ea" stroke="#d8d8ea" stroke-width="1.51"/><path d="M540,-60L660,-60L660,-180Z" fill="#d9d9ea" stroke="#d9d9ea" stroke-width="1.51"/><path d="M540,-180L540,-60L660,-180Z" fill="#dcdcec" stroke="#dcdcec" stroke-width="1.51"/><path d="M420,1260L540,1260L540,1140Z" fill="#8e71b5" stroke="#8e71b5" stroke-width="1.51"/><path d="M420,1140L420,1260L540,1140Z" fill="#9276b8" stroke="#9276b8" stroke-width="1.51"/><path d="M420,1140L540,1140L540,1020Z" fill="#947bbb" stroke="#947bbb" stroke-width="1.51"/><path d="M420,1020L420,1140L540,1020Z" fill="#9881be" stroke="#9881be" stroke-width="1.51"/><path d="M420,1020L540,1020L540,900Z" fill="#9a88c1" stroke="#9a88c1" stroke-width="1.51"/><path d="M420,900L420,1020L540,900Z" fill="#9d8ec4" stroke="#9d8ec4" stroke-width="1.51"/><path d="M420,900L540,900L540,780Z" fill="#9f95c7" stroke="#9f95c7" stroke-width="1.51"/><path d="M420,780L420,900L540,780Z" fill="#a49ccb" stroke="#a49ccb" stroke-width="1.51"/><path d="M420,780L540,780L540,660Z" fill="#a6a3ce" stroke="#a6a3ce" stroke-width="1.51"/><path d="M420,660L420,780L540,660Z" fill="#aba8d2" stroke="#aba8d2" stroke-width="1.51"/><path d="M420,660L540,660L540,540Z" fill="#afacd3" stroke="#afacd3" stroke-width="1.51"/><path d="M420,540L420,660L540,540Z" fill="#b4b2d5" stroke="#b4b2d5" stroke-width="1.51"/><path d="M420,540L540,540L540,420Z" fill="#b8b6d8" stroke="#b8b6d8" stroke-width="1.51"/><path d="M420,420L420,540L540,420Z" fill="#bdbcdb" stroke="#bdbcdb" stroke-width="1.51"/><path d="M420,420L540,420L540,300Z" fill="#c1c1de" stroke="#c1c1de" stroke-width="1.51"/><path d="M420,300L420,420L540,300Z" fill="#c6c7e1" stroke="#c6c7e1" stroke-width="1.51"/><path d="M420,300L540,300L540,180Z" fill="#cbcbe4" stroke="#cbcbe4" stroke-width="1.51"/><path d="M420,180L420,300L540,180Z" fill="#d0cfe6" stroke="#d0cfe6" stroke-width="1.51"/><path d="M420,180L540,180L540,60Z" fill="#d3d3e8" stroke="#d3d3e8" stroke-width="1.51"/><path d="M420,60L420,180L540,60Z" fill="#d7d7ea" stroke="#d7d7ea" stroke-width="1.51"/><path d="M420,60L540,60L540,-60Z" fill="#dad9eb" stroke="#dad9eb" stroke-width="1.51"/><path d="M420,-60L420,60L540,-60Z" fill="#dedded" stroke="#dedded" stroke-width="1.51"/><path d="M420,-60L540,-60L540,-180Z" fill="#dfdeee" stroke="#dfdeee" stroke-width="1.51"/><path d="M420,-180L420,-60L540,-180Z" fill="#e2e2ef" stroke="#e2e2ef" stroke-width="1.51"/><path d="M300,1260L420,1260L420,1140Z" fill="#9477b8" stroke="#9477b8" stroke-width="1.51"/><path d="M300,1140L300,1260L420,1140Z" fill="#977bbb" stroke="#977bbb" stroke-width="1.51"/><path d="M300,1140L420,1140L420,1020Z" fill="#9a80be" stroke="#9a80be" stroke-width="1.51"/><path d="M300,1020L300,1140L420,1020Z" fill="#9d86c1" stroke="#9d86c1" stroke-width="1.51"/><path d="M300,1020L420,1020L420,900Z" fill="#a08dc4" stroke="#a08dc4" stroke-width="1.51"/><path d="M300,900L300,1020L420,900Z" fill="#a393c7" stroke="#a393c7" stroke-width="1.51"/><path d="M300,900L420,900L420,780Z" fill="#a59bcb" stroke="#a59bcb" stroke-width="1.51"/><path d="M300,780L300,900L420,780Z" fill="#a9a1ce" stroke="#a9a1ce" stroke-width="1.51"/><path d="M300,780L420,780L420,660Z" fill="#aca9d2" stroke="#aca9d2" stroke-width="1.51"/><path d="M300,660L300,780L420,660Z" fill="#b0add5" stroke="#b0add5" stroke-width="1.51"/><path d="M300,660L420,660L420,540Z" fill="#b5b2d6" stroke="#b5b2d6" stroke-width="1.51"/><path d="M300,540L300,660L420,540Z" fill="#b9b7d8" stroke="#b9b7d8" stroke-width="1.51"/><path d="M300,540L420,540L420,420Z" fill="#bebcdb" stroke="#bebcdb" stroke-width="1.51"/><path d="M300,420L300,540L420,420Z" fill="#c2c1de" stroke="#c2c1de" stroke-width="1.51"/><path d="M300,420L420,420L420,300Z" fill="#c7c7e1" stroke="#c7c7e1" stroke-width="1.51"/><path d="M300,300L300,420L420,300Z" fill="#cccce4" stroke="#cccce4" stroke-width="1.51"/><path d="M300,300L420,300L420,180Z" fill="#d0d1e7" stroke="#d0d1e7" stroke-width="1.51"/><path d="M300,180L300,300L420,180Z" fill="#d5d5e9" stroke="#d5d5e9" stroke-width="1.51"/><path d="M300,180L420,180L420,60Z" fill="#d9d9eb" stroke="#d9d9eb" stroke-width="1.51"/><path d="M300,60L300,180L420,60Z" fill="#dddded" stroke="#dddded" stroke-width="1.51"/><path d="M300,60L420,60L420,-60Z" fill="#e0dfee" stroke="#e0dfee" stroke-width="1.51"/><path d="M300,-60L300,60L420,-60Z" fill="#e3e3f0" stroke="#e3e3f0" stroke-width="1.51"/><path d="M300,-60L420,-60L420,-180Z" fill="#e5e4f0" stroke="#e5e4f0" stroke-width="1.51"/><path d="M300,-180L300,-60L420,-180Z" fill="#e8e7f2" stroke="#e8e7f2" stroke-width="1.51"/><path d="M180,1260L300,1260L300,1140Z" fill="#987aba" stroke="#987aba" stroke-width="1.51"/><path d="M180,1140L180,1260L300,1140Z" fill="#9c7ebd" stroke="#9c7ebd" stroke-width="1.51"/><path d="M180,1140L300,1140L300,1020Z" fill="#9e84c0" stroke="#9e84c0" stroke-width="1.51"/><path d="M180,1020L180,1140L300,1020Z" fill="#a28ac3" stroke="#a28ac3" stroke-width="1.51"/><path d="M180,1020L300,1020L300,900Z" fill="#a491c6" stroke="#a491c6" stroke-width="1.51"/><path d="M180,900L180,1020L300,900Z" fill="#a796c9" stroke="#a796c9" stroke-width="1.51"/><path d="M180,900L300,900L300,780Z" fill="#aa9ecd" stroke="#aa9ecd" stroke-width="1.51"/><path d="M180,780L180,900L300,780Z" fill="#aea5d0" stroke="#aea5d0" stroke-width="1.51"/><path d="M180,780L300,780L300,660Z" fill="#b0add4" stroke="#b0add4" stroke-width="1.51"/><path d="M180,660L180,780L300,660Z" fill="#b5b1d7" stroke="#b5b1d7" stroke-width="1.51"/><path d="M180,660L300,660L300,540Z" fill="#b9b6d8" stroke="#b9b6d8" stroke-width="1.51"/><path d="M180,540L180,660L300,540Z" fill="#bebbda" stroke="#bebbda" stroke-width="1.51"/><path d="M180,540L300,540L300,420Z" fill="#c2c0dd" stroke="#c2c0dd" stroke-width="1.51"/><path d="M180,420L180,540L300,420Z" fill="#c7c5e0" stroke="#c7c5e0" stroke-width="1.51"/><path d="M180,420L300,420L300,300Z" fill="#cccbe3" stroke="#cccbe3" stroke-width="1.51"/><path d="M180,300L180,420L300,300Z" fill="#d0d0e6" stroke="#d0d0e6" stroke-width="1.51"/><path d="M180,300L300,300L300,180Z" fill="#d5d5e9" stroke="#d5d5e9" stroke-width="1.51"/><path d="M180,180L180,300L300,180Z" fill="#d9d9eb" stroke="#d9d9eb" stroke-width="1.51"/><path d="M180,180L300,180L300,60Z" fill="#dedded" stroke="#dedded" stroke-width="1.51"/><path d="M180,60L180,180L300,60Z" fill="#e1e1ef" stroke="#e1e1ef" stroke-width="1.51"/><path d="M180,60L300,60L300,-60Z" fill="#e4e3f0" stroke="#e4e3f0" stroke-width="1.51"/><path d="M180,-60L180,60L300,-60Z" fill="#e8e7f2" stroke="#e8e7f2" stroke-width="1.51"/><path d="M180,-60L300,-60L300,-180Z" fill="#eae8f2" stroke="#eae8f2" stroke-width="1.51"/><path d="M180,-180L180,-60L300,-180Z" fill="#ecebf4" stroke="#ecebf4" stroke-width="1.51"/><path d="M60,1260L180,1260L180,1140Z" fill="#9c7ebc" stroke="#9c7ebc" stroke-width="1.51"/><path d="M60,1140L60,1260L180,1140Z" fill="#9f82bf" stroke="#9f82bf" stroke-width="1.51"/><path d="M60,1140L180,1140L180,1020Z" fill="#a288c2" stroke="#a288c2" stroke-width="1.51"/><path d="M60,1020L60,1140L180,1020Z" fill="#a68dc5" stroke="#a68dc5" stroke-width="1.51"/><path d="M60,1020L180,1020L180,900Z" fill="#a895c8" stroke="#a895c8" stroke-width="1.51"/><path d="M60,900L60,1020L180,900Z" fill="#ab9acb" stroke="#ab9acb" stroke-width="1.51"/><path d="M60,900L180,900L180,780Z" fill="#aea2cf" stroke="#aea2cf" stroke-width="1.51"/><path d="M60,780L60,900L180,780Z" fill="#b2a8d2" stroke="#b2a8d2" stroke-width="1.51"/><path d="M60,780L180,780L180,660Z" fill="#b4b0d6" stroke="#b4b0d6" stroke-width="1.51"/><path d="M60,660L60,780L180,660Z" fill="#b9b5d9" stroke="#b9b5d9" stroke-width="1.51"/><path d="M60,660L180,660L180,540Z" fill="#bdbada" stroke="#bdbada" stroke-width="1.51"/><path d="M60,540L60,660L180,540Z" fill="#c2bedc" stroke="#c2bedc" stroke-width="1.51"/><path d="M60,540L180,540L180,420Z" fill="#c6c4df" stroke="#c6c4df" stroke-width="1.51"/><path d="M60,420L60,540L180,420Z" fill="#cbc8e2" stroke="#cbc8e2" stroke-width="1.51"/><path d="M60,420L180,420L180,300Z" fill="#d0cfe5" stroke="#d0cfe5" stroke-width="1.51"/><path d="M60,300L60,420L180,300Z" fill="#d4d4e8" stroke="#d4d4e8" stroke-width="1.51"/><path d="M60,300L180,300L180,180Z" fill="#d9d9eb" stroke="#d9d9eb" stroke-width="1.51"/><path d="M60,180L60,300L180,180Z" fill="#dddced" stroke="#dddced" stroke-width="1.51"/><path d="M60,180L180,180L180,60Z" fill="#e2e1ef" stroke="#e2e1ef" stroke-width="1.51"/><path d="M60,60L60,180L180,60Z" fill="#e5e4f1" stroke="#e5e4f1" stroke-width="1.51"/><path d="M60,60L180,60L180,-60Z" fill="#e9e7f2" stroke="#e9e7f2" stroke-width="1.51"/><path d="M60,-60L60,60L180,-60Z" fill="#ecebf4" stroke="#ecebf4" stroke-width="1.51"/><path d="M60,-60L180,-60L180,-180Z" fill="#eeecf4" stroke="#eeecf4" stroke-width="1.51"/><path d="M60,-180L60,-60L180,-180Z" fill="#f0eff6" stroke="#f0eff6" stroke-width="1.51"/><path d="M-60,1260L60,1260L60,1140Z" fill="#a081be" stroke="#a081be" stroke-width="1.51"/><path d="M-60,1140L-60,1260L60,1140Z" fill="#a385c0" stroke="#a385c0" stroke-width="1.51"/><path d="M-60,1140L60,1140L60,1020Z" fill="#a68bc4" stroke="#a68bc4" stroke-width="1.51"/><path d="M-60,1020L-60,1140L60,1020Z" fill="#a990c7" stroke="#a990c7" stroke-width="1.51"/><path d="M-60,1020L60,1020L60,900Z" fill="#ac98ca" stroke="#ac98ca" stroke-width="1.51"/><path d="M-60,900L-60,1020L60,900Z" fill="#ae9dcd" stroke="#ae9dcd" stroke-width="1.51"/><path d="M-60,900L60,900L60,780Z" fill="#b2a5d0" stroke="#b2a5d0" stroke-width="1.51"/><path d="M-60,780L-60,900L60,780Z" fill="#b5abd4" stroke="#b5abd4" stroke-width="1.51"/><path d="M-60,780L60,780L60,660Z" fill="#b8b4d8" stroke="#b8b4d8" stroke-width="1.51"/><path d="M-60,660L-60,780L60,660Z" fill="#bcb8da" stroke="#bcb8da" stroke-width="1.51"/><path d="M-60,660L60,660L60,540Z" fill="#c1bddc" stroke="#c1bddc" stroke-width="1.51"/><path d="M-60,540L-60,660L60,540Z" fill="#c5c1de" stroke="#c5c1de" stroke-width="1.51"/><path d="M-60,540L60,540L60,420Z" fill="#cac7e1" stroke="#cac7e1" stroke-width="1.51"/><path d="M-60,420L-60,540L60,420Z" fill="#cecce3" stroke="#cecce3" stroke-width="1.51"/><path d="M-60,420L60,420L60,300Z" fill="#d4d3e7" stroke="#d4d3e7" stroke-width="1.51"/><path d="M-60,300L-60,420L60,300Z" fill="#d7d7e9" stroke="#d7d7e9" stroke-width="1.51"/><path d="M-60,300L60,300L60,180Z" fill="#dddced" stroke="#dddced" stroke-width="1.51"/><path d="M-60,180L-60,300L60,180Z" fill="#e0e0ef" stroke="#e0e0ef" stroke-width="1.51"/><path d="M-60,180L60,180L60,60Z" fill="#e6e5f1" stroke="#e6e5f1" stroke-width="1.51"/><path d="M-60,60L-60,180L60,60Z" fill="#e8e8f3" stroke="#e8e8f3" stroke-width="1.51"/><path d="M-60,60L60,60L60,-60Z" fill="#ecebf4" stroke="#ecebf4" stroke-width="1.51"/><path d="M-60,-60L-60,60L60,-60Z" fill="#efeef6" stroke="#efeef6" stroke-width="1.51"/><path d="M-60,-60L60,-60L60,-180Z" fill="#f2f0f6" stroke="#f2f0f6" stroke-width="1.51"/><path d="M-60,-180L-60,-60L60,-180Z" fill="#f3f2f8" stroke="#f3f2f8" stroke-width="1.51"/><path d="M-180,1260L-60,1260L-60,1140Z" fill="#a383bf" stroke="#a383bf" stroke-width="1.51"/><path d="M-180,1140L-180,1260L-60,1140Z" fill="#a587c2" stroke="#a587c2" stroke-width="1.51"/><path d="M-180,1140L-60,1140L-60,1020Z" fill="#a88dc6" stroke="#a88dc6" stroke-width="1.51"/><path d="M-180,1020L-180,1140L-60,1020Z" fill="#ab92c8" stroke="#ab92c8" stroke-width="1.51"/><path d="M-180,1020L-60,1020L-60,900Z" fill="#ae9acb" stroke="#ae9acb" stroke-width="1.51"/><path d="M-180,900L-180,1020L-60,900Z" fill="#b19fce" stroke="#b19fce" stroke-width="1.51"/><path d="M-180,900L-60,900L-60,780Z" fill="#b4a8d2" stroke="#b4a8d2" stroke-width="1.51"/><path d="M-180,780L-180,900L-60,780Z" fill="#b8aed5" stroke="#b8aed5" stroke-width="1.51"/><path d="M-180,780L-60,780L-60,660Z" fill="#bbb6d9" stroke="#bbb6d9" stroke-width="1.51"/><path d="M-180,660L-180,780L-60,660Z" fill="#bfbadc" stroke="#bfbadc" stroke-width="1.51"/><path d="M-180,660L-60,660L-60,540Z" fill="#c4c0dd" stroke="#c4c0dd" stroke-width="1.51"/><path d="M-180,540L-180,660L-60,540Z" fill="#c8c4df" stroke="#c8c4df" stroke-width="1.51"/><path d="M-180,540L-60,540L-60,420Z" fill="#cdcae2" stroke="#cdcae2" stroke-width="1.51"/><path d="M-180,420L-180,540L-60,420Z" fill="#d1cee5" stroke="#d1cee5" stroke-width="1.51"/><path d="M-180,420L-60,420L-60,300Z" fill="#d6d5e8" stroke="#d6d5e8" stroke-width="1.51"/><path d="M-180,300L-180,420L-60,300Z" fill="#dadaeb" stroke="#dadaeb" stroke-width="1.51"/><path d="M-180,300L-60,300L-60,180Z" fill="#dfdfee" stroke="#dfdfee" stroke-width="1.51"/><path d="M-180,180L-180,300L-60,180Z" fill="#e3e2f0" stroke="#e3e2f0" stroke-width="1.51"/><path d="M-180,180L-60,180L-60,60Z" fill="#e8e7f2" stroke="#e8e7f2" stroke-width="1.51"/><path d="M-180,60L-180,180L-60,60Z" fill="#ebeaf4" stroke="#ebeaf4" stroke-width="1.51"/><path d="M-180,60L-60,60L-60,-60Z" fill="#efedf5" stroke="#efedf5" stroke-width="1.51"/><path d="M-180,-60L-180,60L-60,-60Z" fill="#f2f0f7" stroke="#f2f0f7" stroke-width="1.51"/><path d="M-180,-60L-60,-60L-60,-180Z" fill="#f4f2f8" stroke="#f4f2f8" stroke-width="1.51"/><path d="M-180,-180L-180,-60L-60,-180Z" fill="#f7f5fa" stroke="#f7f5fa" stroke-width="1.51"/></svg>