<svg xmlns="http://www.w3.org/2000/svg" width="1920" height="1080"><path d="M1230,1398L756,1412L1398,1432Z" fill="#b95812" stroke="#b95812" stroke-width="1.51"/><path d="M1922,904L1917,1010L2183,750Z" fill="#bd4b08" stroke="#bd4b08" stroke-width="1.51"/><path d="M1841,189L2184,432L2285,356Z" fill="#c67726" stroke="#c67726" stroke-width="1.51"/><path d="M2184,432L2183,750L2285,356Z" fill="#bc6418" stroke="#bc6418" stroke-width="1.51"/><path d="M1937,-208L1862,-79L2286,-162Z" fill="#d29259" stroke="#d29259" stroke-width="1.51"/><path d="M1841,189L2285,356L2286,-162Z" fill="#c6823e" stroke="#c6823e" stroke-width="1.51"/><path d="M1862,-79L1841,189L2286,-162Z" fill="#d38f4f" stroke="#d38f4f" stroke-width="1.51"/><path d="M1322,-424L1759,-353L2306,-267Z" fill="#e5a06c" stroke="#e5a06c" stroke-width="1.51"/><path d="M1759,-353L1937,-208L2306,-267Z" fill="#d59763" stroke="#d59763" stroke-width="1.51"/><path d="M2286,-162L2285,356L2306,-267Z" fill="#bb854d" stroke="#bb854d" stroke-width="1.51"/><path d="M2183,750L1917,1010L2314,1162Z" fill="#ae4206" stroke="#ae4206" stroke-width="1.51"/><path d="M2285,356L2183,750L2314,1162Z" fill="#b14f0e" stroke="#b14f0e" stroke-width="1.51"/><path d="M2306,-267L2285,356L2314,1162Z" fill="#b76a1f" stroke="#b76a1f" stroke-width="1.51"/><path d="M1816,1321L1398,1432L2315,1273Z" fill="#a03804" stroke="#a03804" stroke-width="1.51"/><path d="M2314,1162L1917,1010L2315,1273Z" fill="#9c3705" stroke="#9c3705" stroke-width="1.51"/><path d="M1917,1010L1816,1321L2315,1273Z" fill="#a23804" stroke="#a23804" stroke-width="1.51"/><path d="M1937,-208L2286,-162L2306,-267Z" fill="#c6905d" stroke="#c6905d" stroke-width="1.51"/><path d="M629,-438L829,-395L1322,-424Z" fill="#ffcd89" stroke="#ffcd89" stroke-width="1.51"/><path d="M1918,659L1922,904L2183,750Z" fill="#c4540c" stroke="#c4540c" stroke-width="1.51"/><path d="M1918,659L2183,750L2184,432Z" fill="#c35e13" stroke="#c35e13" stroke-width="1.51"/><path d="M1798,430L1918,659L2184,432Z" fill="#d06c18" stroke="#d06c18" stroke-width="1.51"/><path d="M1841,189L1798,430L2184,432Z" fill="#d27a25" stroke="#d27a25" stroke-width="1.51"/><path d="M1581,1195L1614,1259L1816,1321Z" fill="#b54103" stroke="#b54103" stroke-width="1.51"/><path d="M1581,1195L1816,1321L1917,1010Z" fill="#b74203" stroke="#b74203" stroke-width="1.51"/><path d="M1918,659L1636,710L1922,904Z" fill="#d25c0c" stroke="#d25c0c" stroke-width="1.51"/><path d="M1759,-353L1862,-79L1937,-208Z" fill="#e09c60" stroke="#e09c60" stroke-width="1.51"/><path d="M1636,710L1581,1195L1917,1010Z" fill="#cd5004" stroke="#cd5004" stroke-width="1.51"/><path d="M1798,430L1636,710L1918,659Z" fill="#db6a13" stroke="#db6a13" stroke-width="1.51"/><path d="M1636,710L1917,1010L1922,904Z" fill="#cb5308" stroke="#cb5308" stroke-width="1.51"/><path d="M1384,943L1581,1195L1636,710Z" fill="#d75a08" stroke="#d75a08" stroke-width="1.51"/><path d="M1614,1259L1398,1432L1816,1321Z" fill="#b04205" stroke="#b04205" stroke-width="1.51"/><path d="M1530,389L1798,430L1841,189Z" fill="#e38427" stroke="#e38427" stroke-width="1.51"/><path d="M1545,38L1841,189L1862,-79Z" fill="#e4964b" stroke="#e4964b" stroke-width="1.51"/><path d="M1759,-353L1545,38L1862,-79Z" fill="#e99e5b" stroke="#e99e5b" stroke-width="1.51"/><path d="M1545,38L1530,389L1841,189Z" fill="#ea9138" stroke="#ea9138" stroke-width="1.51"/><path d="M1412,-43L1545,38L1759,-353Z" fill="#f1a45d" stroke="#f1a45d" stroke-width="1.51"/><path d="M1530,389L1636,710L1798,430Z" fill="#e67719" stroke="#e67719" stroke-width="1.51"/><path d="M1322,-424L1412,-43L1759,-353Z" fill="#f6ad6c" stroke="#f6ad6c" stroke-width="1.51"/><path d="M161,1264L-331,1318L756,1412Z" fill="#ca8b4c" stroke="#ca8b4c" stroke-width="1.51"/><path d="M1333,117L1530,389L1545,38Z" fill="#f19b3f" stroke="#f19b3f" stroke-width="1.51"/><path d="M1530,389L1411,448L1636,710Z" fill="#ec7d1c" stroke="#ec7d1c" stroke-width="1.51"/><path d="M1411,448L1384,943L1636,710Z" fill="#e97014" stroke="#e97014" stroke-width="1.51"/><path d="M1384,943L1370,1208L1581,1195Z" fill="#ce5407" stroke="#ce5407" stroke-width="1.51"/><path d="M1581,1195L1370,1208L1614,1259Z" fill="#c04a06" stroke="#c04a06" stroke-width="1.51"/><path d="M1370,1208L1398,1432L1614,1259Z" fill="#ba4a07" stroke="#ba4a07" stroke-width="1.51"/><path d="M1136,823L1384,943L1411,448Z" fill="#ee7516" stroke="#ee7516" stroke-width="1.51"/><path d="M1322,-424L1167,-180L1412,-43Z" fill="#fdb56c" stroke="#fdb56c" stroke-width="1.51"/><path d="M1333,117L1411,448L1530,389Z" fill="#f1932e" stroke="#f1932e" stroke-width="1.51"/><path d="M1412,-43L1333,117L1545,38Z" fill="#f5a553" stroke="#f5a553" stroke-width="1.51"/><path d="M1212,1182L1370,1208L1384,943Z" fill="#d45a0b" stroke="#d45a0b" stroke-width="1.51"/><path d="M1370,1208L1230,1398L1398,1432Z" fill="#bb4f0b" stroke="#bb4f0b" stroke-width="1.51"/><path d="M1333,117L986,385L1411,448Z" fill="#f89d32" stroke="#f89d32" stroke-width="1.51"/><path d="M1055,613L1136,823L1411,448Z" fill="#f5851f" stroke="#f5851f" stroke-width="1.51"/><path d="M1092,-13L1333,117L1412,-43Z" fill="#faae58" stroke="#faae58" stroke-width="1.51"/><path d="M1167,-180L1092,-13L1412,-43Z" fill="#fdb563" stroke="#fdb563" stroke-width="1.51"/><path d="M986,385L1055,613L1411,448Z" fill="#fa9328" stroke="#fa9328" stroke-width="1.51"/><path d="M-76,1267L-331,1318L161,1264Z" fill="#d3945c" stroke="#d3945c" stroke-width="1.51"/><path d="M1212,1182L1230,1398L1370,1208Z" fill="#c5550d" stroke="#c5550d" stroke-width="1.51"/><path d="M1136,823L1212,1182L1384,943Z" fill="#e2670f" stroke="#e2670f" stroke-width="1.51"/><path d="M603,1340L161,1264L756,1412Z" fill="#c77e32" stroke="#c77e32" stroke-width="1.51"/><path d="M1092,-13L986,385L1333,117Z" fill="#fcad4a" stroke="#fcad4a" stroke-width="1.51"/><path d="M1136,823L959,993L1212,1182Z" fill="#e46e13" stroke="#e46e13" stroke-width="1.51"/><path d="M829,-395L1167,-180L1322,-424Z" fill="#ffc27c" stroke="#ffc27c" stroke-width="1.51"/><path d="M876,139L986,385L1092,-13Z" fill="#ffb54e" stroke="#ffb54e" stroke-width="1.51"/><path d="M1212,1182L756,1412L1230,1398Z" fill="#c45e13" stroke="#c45e13" stroke-width="1.51"/><path d="M959,993L756,1412L1212,1182Z" fill="#d46a15" stroke="#d46a15" stroke-width="1.51"/><path d="M1055,613L927,694L1136,823Z" fill="#f68720" stroke="#f68720" stroke-width="1.51"/><path d="M829,-395L1092,-13L1167,-180Z" fill="#ffc472" stroke="#ffc472" stroke-width="1.51"/><path d="M829,-395L709,-7L1092,-13Z" fill="#ffca73" stroke="#ffca73" stroke-width="1.51"/><path d="M927,694L959,993L1136,823Z" fill="#f17f1c" stroke="#f17f1c" stroke-width="1.51"/><path d="M709,-7L876,139L1092,-13Z" fill="#ffc263" stroke="#ffc263" stroke-width="1.51"/><path d="M596,1220L756,1412L959,993Z" fill="#d47621" stroke="#d47621" stroke-width="1.51"/><path d="M748,502L927,694L986,385Z" fill="#fe9f2e" stroke="#fe9f2e" stroke-width="1.51"/><path d="M986,385L927,694L1055,613Z" fill="#fc9527" stroke="#fc9527" stroke-width="1.51"/><path d="M927,694L480,849L959,993Z" fill="#f38c27" stroke="#f38c27" stroke-width="1.51"/><path d="M876,139L748,502L986,385Z" fill="#feb03d" stroke="#feb03d" stroke-width="1.51"/><path d="M583,-137L709,-7L829,-395Z" fill="#ffd67f" stroke="#ffd67f" stroke-width="1.51"/><path d="M480,849L596,1220L959,993Z" fill="#e78727" stroke="#e78727" stroke-width="1.51"/><path d="M-113,-356L375,-318L629,-438Z" fill="#ffedb0" stroke="#ffedb0" stroke-width="1.51"/><path d="M550,445L748,502L876,139Z" fill="#ffb744" stroke="#ffb744" stroke-width="1.51"/><path d="M748,502L480,849L927,694Z" fill="#fa9c31" stroke="#fa9c31" stroke-width="1.51"/><path d="M629,-438L583,-137L829,-395Z" fill="#ffdb8c" stroke="#ffdb8c" stroke-width="1.51"/><path d="M709,-7L550,445L876,139Z" fill="#ffc457" stroke="#ffc457" stroke-width="1.51"/><path d="M596,1220L603,1340L756,1412Z" fill="#c87826" stroke="#c87826" stroke-width="1.51"/><path d="M417,382L550,445L709,-7Z" fill="#fec756" stroke="#fec756" stroke-width="1.51"/><path d="M550,445L480,849L748,502Z" fill="#fdab3b" stroke="#fdab3b" stroke-width="1.51"/><path d="M480,849L362,1136L596,1220Z" fill="#e58e37" stroke="#e58e37" stroke-width="1.51"/><path d="M583,-137L373,-127L709,-7Z" fill="#ffdb81" stroke="#ffdb81" stroke-width="1.51"/><path d="M373,-127L417,382L709,-7Z" fill="#ffd575" stroke="#ffd575" stroke-width="1.51"/><path d="M205,769L480,849L550,445Z" fill="#fcac4a" stroke="#fcac4a" stroke-width="1.51"/><path d="M375,-318L583,-137L629,-438Z" fill="#ffe295" stroke="#ffe295" stroke-width="1.51"/><path d="M417,382L151,614L550,445Z" fill="#ffbe58" stroke="#ffbe58" stroke-width="1.51"/><path d="M151,614L205,769L550,445Z" fill="#feb657" stroke="#feb657" stroke-width="1.51"/><path d="M375,-318L373,-127L583,-137Z" fill="#ffe494" stroke="#ffe494" stroke-width="1.51"/><path d="M596,1220L362,1136L603,1340Z" fill="#d38331" stroke="#d38331" stroke-width="1.51"/><path d="M362,1136L161,1264L603,1340Z" fill="#d3883f" stroke="#d3883f" stroke-width="1.51"/><path d="M373,-127L145,338L417,382Z" fill="#ffd677" stroke="#ffd677" stroke-width="1.51"/><path d="M-9,115L145,338L373,-127Z" fill="#ffe18d" stroke="#ffe18d" stroke-width="1.51"/><path d="M205,769L362,1136L480,849Z" fill="#f19d48" stroke="#f19d48" stroke-width="1.51"/><path d="M145,338L151,614L417,382Z" fill="#ffc767" stroke="#ffc767" stroke-width="1.51"/><path d="M205,769L161,1264L362,1136Z" fill="#e8984d" stroke="#e8984d" stroke-width="1.51"/><path d="M-113,-356L-116,-22L373,-127Z" fill="#fff1af" stroke="#fff1af" stroke-width="1.51"/><path d="M-113,-356L373,-127L375,-318Z" fill="#ffefae" stroke="#ffefae" stroke-width="1.51"/><path d="M-116,-22L-9,115L373,-127Z" fill="#ffe9a0" stroke="#ffe9a0" stroke-width="1.51"/><path d="M-134,1084L161,1264L205,769Z" fill="#ec9e57" stroke="#ec9e57" stroke-width="1.51"/><path d="M145,338L-72,622L151,614Z" fill="#ffc56b" stroke="#ffc56b" stroke-width="1.51"/><path d="M-134,1084L-76,1267L161,1264Z" fill="#db975a" stroke="#db975a" stroke-width="1.51"/><path d="M151,614L-65,770L205,769Z" fill="#fdb461" stroke="#fdb461" stroke-width="1.51"/><path d="M-65,770L-134,1084L205,769Z" fill="#f6ac62" stroke="#f6ac62" stroke-width="1.51"/><path d="M-72,622L-65,770L151,614Z" fill="#ffbb69" stroke="#ffbb69" stroke-width="1.51"/><path d="M-367,473L-72,622L-9,115Z" fill="#ffd481" stroke="#ffd481" stroke-width="1.51"/><path d="M-9,115L-72,622L145,338Z" fill="#ffd47a" stroke="#ffd47a" stroke-width="1.51"/><path d="M-244,-291L-283,-110L-116,-22Z" fill="#fff5bc" stroke="#fff5bc" stroke-width="1.51"/><path d="M-244,-291L-116,-22L-113,-356Z" fill="#fff7c0" stroke="#fff7c0" stroke-width="1.51"/><path d="M-116,-22L-386,224L-9,115Z" fill="#ffe9a2" stroke="#ffe9a2" stroke-width="1.51"/><path d="M-386,224L-367,473L-9,115Z" fill="#ffe092" stroke="#ffe092" stroke-width="1.51"/><path d="M-134,1084L-280,1211L-76,1267Z" fill="#dd9b62" stroke="#dd9b62" stroke-width="1.51"/><path d="M-409,955L-134,1084L-65,770Z" fill="#f4ab6b" stroke="#f4ab6b" stroke-width="1.51"/><path d="M-72,622L-367,473L-65,770Z" fill="#ffc275" stroke="#ffc275" stroke-width="1.51"/><path d="M-367,473L-409,955L-65,770Z" fill="#ffbb77" stroke="#ffbb77" stroke-width="1.51"/><path d="M-280,1211L-331,1318L-76,1267Z" fill="#d69765" stroke="#d69765" stroke-width="1.51"/><path d="M-283,-110L-386,224L-116,-22Z" fill="#ffefb1" stroke="#ffefb1" stroke-width="1.51"/><path d="M-409,955L-280,1211L-134,1084Z" fill="#eaa36b" stroke="#eaa36b" stroke-width="1.51"/><path d="M-386,224L-283,-110L-244,-291Z" fill="#fff3bb" stroke="#fff3bb" stroke-width="1.51"/><path d="M-409,955L-331,1318L-280,1211Z" fill="#e29e6d" stroke="#e29e6d" stroke-width="1.51"/><path d="M-386,224L-409,955L-367,473Z" fill="#ffca85" stroke="#ffca85" stroke-width="1.51"/></svg>