<svg xmlns="http://www.w3.org/2000/svg" width="1920" height="1080"><path d="M1230,1398L756,1412L1398,1432Z" fill="#4a4a4a" stroke="#4a4a4a" stroke-width="1.51"/><path d="M1922,904L1917,1010L2183,750Z" fill="#464646" stroke="#464646" stroke-width="1.51"/><path d="M1841,189L2184,432L2285,356Z" fill="#666666" stroke="#666666" stroke-width="1.51"/><path d="M2184,432L2183,750L2285,356Z" fill="#535353" stroke="#535353" stroke-width="1.51"/><path d="M1937,-208L1862,-79L2286,-162Z" fill="#818181" stroke="#818181" stroke-width="1.51"/><path d="M1841,189L2285,356L2286,-162Z" fill="#6f6f6f" stroke="#6f6f6f" stroke-width="1.51"/><path d="M1862,-79L1841,189L2286,-162Z" fill="#7d7d7d" stroke="#7d7d7d" stroke-width="1.51"/><path d="M1322,-424L1759,-353L2306,-267Z" fill="#989898" stroke="#989898" stroke-width="1.51"/><path d="M1759,-353L1937,-208L2306,-267Z" fill="#878787" stroke="#878787" stroke-width="1.51"/><path d="M2286,-162L2285,356L2306,-267Z" fill="#6e6e6e" stroke="#6e6e6e" stroke-width="1.51"/><path d="M2183,750L1917,1010L2314,1162Z" fill="#3a3a3a" stroke="#3a3a3a" stroke-width="1.51"/><path d="M2285,356L2183,750L2314,1162Z" fill="#414141" stroke="#414141" stroke-width="1.51"/><path d="M2306,-267L2285,356L2314,1162Z" fill="#555555" stroke="#555555" stroke-width="1.51"/><path d="M1816,1321L1398,1432L2315,1273Z" fill="#2d2d2d" stroke="#2d2d2d" stroke-width="1.51"/><path d="M2314,1162L1917,1010L2315,1273Z" fill="#2a2a2a" stroke="#2a2a2a" stroke-width="1.51"/><path d="M1917,1010L1816,1321L2315,1273Z" fill="#2d2d2d" stroke="#2d2d2d" stroke-width="1.51"/><path d="M1937,-208L2286,-162L2306,-267Z" fill="#7b7b7b" stroke="#7b7b7b" stroke-width="1.51"/><path d="M629,-438L829,-395L1322,-424Z" fill="#cacaca" stroke="#cacaca" stroke-width="1.51"/><path d="M1918,659L1922,904L2183,750Z" fill="#4d4d4d" stroke="#4d4d4d" stroke-width="1.51"/><path d="M1918,659L2183,750L2184,432Z" fill="#525252" stroke="#525252" stroke-width="1.51"/><path d="M1798,430L1918,659L2184,432Z" fill="#616161" stroke="#616161" stroke-width="1.51"/><path d="M1841,189L1798,430L2184,432Z" fill="#6e6e6e" stroke="#6e6e6e" stroke-width="1.51"/><path d="M1581,1195L1614,1259L1816,1321Z" fill="#3d3d3d" stroke="#3d3d3d" stroke-width="1.51"/><path d="M1581,1195L1816,1321L1917,1010Z" fill="#3f3f3f" stroke="#3f3f3f" stroke-width="1.51"/><path d="M1918,659L1636,710L1922,904Z" fill="#5a5a5a" stroke="#5a5a5a" stroke-width="1.51"/><path d="M1759,-353L1862,-79L1937,-208Z" fill="#909090" stroke="#909090" stroke-width="1.51"/><path d="M1636,710L1581,1195L1917,1010Z" fill="#545454" stroke="#545454" stroke-width="1.51"/><path d="M1798,430L1636,710L1918,659Z" fill="#676767" stroke="#676767" stroke-width="1.51"/><path d="M1636,710L1917,1010L1922,904Z" fill="#525252" stroke="#525252" stroke-width="1.51"/><path d="M1384,943L1581,1195L1636,710Z" fill="#5e5e5e" stroke="#5e5e5e" stroke-width="1.51"/><path d="M1614,1259L1398,1432L1816,1321Z" fill="#3a3a3a" stroke="#3a3a3a" stroke-width="1.51"/><path d="M1530,389L1798,430L1841,189Z" fill="#7e7e7e" stroke="#7e7e7e" stroke-width="1.51"/><path d="M1545,38L1841,189L1862,-79Z" fill="#8d8d8d" stroke="#8d8d8d" stroke-width="1.51"/><path d="M1759,-353L1545,38L1862,-79Z" fill="#969696" stroke="#969696" stroke-width="1.51"/><path d="M1545,38L1530,389L1841,189Z" fill="#8b8b8b" stroke="#8b8b8b" stroke-width="1.51"/><path d="M1412,-43L1545,38L1759,-353Z" fill="#9f9f9f" stroke="#9f9f9f" stroke-width="1.51"/><path d="M1530,389L1636,710L1798,430Z" fill="#777777" stroke="#777777" stroke-width="1.51"/><path d="M1322,-424L1412,-43L1759,-353Z" fill="#a8a8a8" stroke="#a8a8a8" stroke-width="1.51"/><path d="M161,1264L-331,1318L756,1412Z" fill="#777777" stroke="#777777" stroke-width="1.51"/><path d="M1333,117L1530,389L1545,38Z" fill="#959595" stroke="#959595" stroke-width="1.51"/><path d="M1530,389L1411,448L1636,710Z" fill="#7c7c7c" stroke="#7c7c7c" stroke-width="1.51"/><path d="M1411,448L1384,943L1636,710Z" fill="#717171" stroke="#717171" stroke-width="1.51"/><path d="M1384,943L1370,1208L1581,1195Z" fill="#555555" stroke="#555555" stroke-width="1.51"/><path d="M1581,1195L1370,1208L1614,1259Z" fill="#484848" stroke="#484848" stroke-width="1.51"/><path d="M1370,1208L1398,1432L1614,1259Z" fill="#434343" stroke="#434343" stroke-width="1.51"/><path d="M1136,823L1384,943L1411,448Z" fill="#777777" stroke="#777777" stroke-width="1.51"/><path d="M1322,-424L1167,-180L1412,-43Z" fill="#b0b0b0" stroke="#b0b0b0" stroke-width="1.51"/><path d="M1333,117L1411,448L1530,389Z" fill="#909090" stroke="#909090" stroke-width="1.51"/><path d="M1412,-43L1333,117L1545,38Z" fill="#9f9f9f" stroke="#9f9f9f" stroke-width="1.51"/><path d="M1212,1182L1370,1208L1384,943Z" fill="#5a5a5a" stroke="#5a5a5a" stroke-width="1.51"/><path d="M1370,1208L1230,1398L1398,1432Z" fill="#454545" stroke="#454545" stroke-width="1.51"/><path d="M1333,117L986,385L1411,448Z" fill="#999999" stroke="#999999" stroke-width="1.51"/><path d="M1055,613L1136,823L1411,448Z" fill="#838383" stroke="#838383" stroke-width="1.51"/><path d="M1092,-13L1333,117L1412,-43Z" fill="#a8a8a8" stroke="#a8a8a8" stroke-width="1.51"/><path d="M1167,-180L1092,-13L1412,-43Z" fill="#afafaf" stroke="#afafaf" stroke-width="1.51"/><path d="M986,385L1055,613L1411,448Z" fill="#919191" stroke="#919191" stroke-width="1.51"/><path d="M-76,1267L-331,1318L161,1264Z" fill="#838383" stroke="#838383" stroke-width="1.51"/><path d="M1212,1182L1230,1398L1370,1208Z" fill="#4e4e4e" stroke="#4e4e4e" stroke-width="1.51"/><path d="M1136,823L1212,1182L1384,943Z" fill="#696969" stroke="#696969" stroke-width="1.51"/><path d="M603,1340L161,1264L756,1412Z" fill="#6c6c6c" stroke="#6c6c6c" stroke-width="1.51"/><path d="M1092,-13L986,385L1333,117Z" fill="#a7a7a7" stroke="#a7a7a7" stroke-width="1.51"/><path d="M1136,823L959,993L1212,1182Z" fill="#6f6f6f" stroke="#6f6f6f" stroke-width="1.51"/><path d="M829,-395L1167,-180L1322,-424Z" fill="#bdbdbd" stroke="#bdbdbd" stroke-width="1.51"/><path d="M876,139L986,385L1092,-13Z" fill="#afafaf" stroke="#afafaf" stroke-width="1.51"/><path d="M1212,1182L756,1412L1230,1398Z" fill="#525252" stroke="#525252" stroke-width="1.51"/><path d="M959,993L756,1412L1212,1182Z" fill="#626262" stroke="#626262" stroke-width="1.51"/><path d="M1055,613L927,694L1136,823Z" fill="#868686" stroke="#868686" stroke-width="1.51"/><path d="M829,-395L1092,-13L1167,-180Z" fill="#bebebe" stroke="#bebebe" stroke-width="1.51"/><path d="M829,-395L709,-7L1092,-13Z" fill="#c4c4c4" stroke="#c4c4c4" stroke-width="1.51"/><path d="M927,694L959,993L1136,823Z" fill="#7f7f7f" stroke="#7f7f7f" stroke-width="1.51"/><path d="M709,-7L876,139L1092,-13Z" fill="#bbbbbb" stroke="#bbbbbb" stroke-width="1.51"/><path d="M596,1220L756,1412L959,993Z" fill="#6c6c6c" stroke="#6c6c6c" stroke-width="1.51"/><path d="M748,502L927,694L986,385Z" fill="#9b9b9b" stroke="#9b9b9b" stroke-width="1.51"/><path d="M986,385L927,694L1055,613Z" fill="#939393" stroke="#939393" stroke-width="1.51"/><path d="M927,694L480,849L959,993Z" fill="#898989" stroke="#898989" stroke-width="1.51"/><path d="M876,139L748,502L986,385Z" fill="#aaaaaa" stroke="#aaaaaa" stroke-width="1.51"/><path d="M583,-137L709,-7L829,-395Z" fill="#cfcfcf" stroke="#cfcfcf" stroke-width="1.51"/><path d="M480,849L596,1220L959,993Z" fill="#838383" stroke="#838383" stroke-width="1.51"/><path d="M-113,-356L375,-318L629,-438Z" fill="#e7e7e7" stroke="#e7e7e7" stroke-width="1.51"/><path d="M550,445L748,502L876,139Z" fill="#b1b1b1" stroke="#b1b1b1" stroke-width="1.51"/><path d="M748,502L480,849L927,694Z" fill="#999999" stroke="#999999" stroke-width="1.51"/><path d="M629,-438L583,-137L829,-395Z" fill="#d5d5d5" stroke="#d5d5d5" stroke-width="1.51"/><path d="M709,-7L550,445L876,139Z" fill="#bcbcbc" stroke="#bcbcbc" stroke-width="1.51"/><path d="M596,1220L603,1340L756,1412Z" fill="#676767" stroke="#676767" stroke-width="1.51"/><path d="M417,382L550,445L709,-7Z" fill="#c0c0c0" stroke="#c0c0c0" stroke-width="1.51"/><path d="M550,445L480,849L748,502Z" fill="#a6a6a6" stroke="#a6a6a6" stroke-width="1.51"/><path d="M480,849L362,1136L596,1220Z" fill="#878787" stroke="#878787" stroke-width="1.51"/><path d="M583,-137L373,-127L709,-7Z" fill="#d3d3d3" stroke="#d3d3d3" stroke-width="1.51"/><path d="M373,-127L417,382L709,-7Z" fill="#cccccc" stroke="#cccccc" stroke-width="1.51"/><path d="M205,769L480,849L550,445Z" fill="#a6a6a6" stroke="#a6a6a6" stroke-width="1.51"/><path d="M375,-318L583,-137L629,-438Z" fill="#dcdcdc" stroke="#dcdcdc" stroke-width="1.51"/><path d="M417,382L151,614L550,445Z" fill="#b7b7b7" stroke="#b7b7b7" stroke-width="1.51"/><path d="M151,614L205,769L550,445Z" fill="#b0b0b0" stroke="#b0b0b0" stroke-width="1.51"/><path d="M375,-318L373,-127L583,-137Z" fill="#dcdcdc" stroke="#dcdcdc" stroke-width="1.51"/><path d="M596,1220L362,1136L603,1340Z" fill="#757575" stroke="#757575" stroke-width="1.51"/><path d="M362,1136L161,1264L603,1340Z" fill="#787878" stroke="#787878" stroke-width="1.51"/><path d="M373,-127L145,338L417,382Z" fill="#cdcdcd" stroke="#cdcdcd" stroke-width="1.51"/><path d="M-9,115L145,338L373,-127Z" fill="#d7d7d7" stroke="#d7d7d7" stroke-width="1.51"/><path d="M205,769L362,1136L480,849Z" fill="#989898" stroke="#989898" stroke-width="1.51"/><path d="M145,338L151,614L417,382Z" fill="#bfbfbf" stroke="#bfbfbf" stroke-width="1.51"/><path d="M205,769L161,1264L362,1136Z" fill="#919191" stroke="#919191" stroke-width="1.51"/><path d="M-113,-356L-116,-22L373,-127Z" fill="#e9e9e9" stroke="#e9e9e9" stroke-width="1.51"/><path d="M-113,-356L373,-127L375,-318Z" fill="#e7e7e7" stroke="#e7e7e7" stroke-width="1.51"/><path d="M-116,-22L-9,115L373,-127Z" fill="#e1e1e1" stroke="#e1e1e1" stroke-width="1.51"/><path d="M-134,1084L161,1264L205,769Z" fill="#989898" stroke="#989898" stroke-width="1.51"/><path d="M145,338L-72,622L151,614Z" fill="#bdbdbd" stroke="#bdbdbd" stroke-width="1.51"/><path d="M-134,1084L-76,1267L161,1264Z" fill="#898989" stroke="#898989" stroke-width="1.51"/><path d="M151,614L-65,770L205,769Z" fill="#afafaf" stroke="#afafaf" stroke-width="1.51"/><path d="M-65,770L-134,1084L205,769Z" fill="#a6a6a6" stroke="#a6a6a6" stroke-width="1.51"/><path d="M-72,622L-65,770L151,614Z" fill="#b5b5b5" stroke="#b5b5b5" stroke-width="1.51"/><path d="M-367,473L-72,622L-9,115Z" fill="#cecece" stroke="#cecece" stroke-width="1.51"/><path d="M-9,115L-72,622L145,338Z" fill="#cdcdcd" stroke="#cdcdcd" stroke-width="1.51"/><path d="M-244,-291L-283,-110L-116,-22Z" fill="#efefef" stroke="#efefef" stroke-width="1.51"/><path d="M-244,-291L-116,-22L-113,-356Z" fill="#f1f1f1" stroke="#f1f1f1" stroke-width="1.51"/><path d="M-116,-22L-386,224L-9,115Z" fill="#e2e2e2" stroke="#e2e2e2" stroke-width="1.51"/><path d="M-386,224L-367,473L-9,115Z" fill="#dadada" stroke="#dadada" stroke-width="1.51"/><path d="M-134,1084L-280,1211L-76,1267Z" fill="#8f8f8f" stroke="#8f8f8f" stroke-width="1.51"/><path d="M-409,955L-134,1084L-65,770Z" fill="#a6a6a6" stroke="#a6a6a6" stroke-width="1.51"/><path d="M-72,622L-367,473L-65,770Z" fill="#bdbdbd" stroke="#bdbdbd" stroke-width="1.51"/><path d="M-367,473L-409,955L-65,770Z" fill="#b7b7b7" stroke="#b7b7b7" stroke-width="1.51"/><path d="M-280,1211L-331,1318L-76,1267Z" fill="#888888" stroke="#888888" stroke-width="1.51"/><path d="M-283,-110L-386,224L-116,-22Z" fill="#e8e8e8" stroke="#e8e8e8" stroke-width="1.51"/><path d="M-409,955L-280,1211L-134,1084Z" fill="#9c9c9c" stroke="#9c9c9c" stroke-width="1.51"/><path d="M-386,224L-283,-110L-244,-291Z" fill="#ededed" stroke="#ededed" stroke-width="1.51"/><path d="M-409,955L-331,1318L-280,1211Z" fill="#959595" stroke="#959595" stroke-width="1.51"/><path d="M-386,224L-409,955L-367,473Z" fill="#c7c7c7" stroke="#c7c7c7" stroke-width="1.51"/></svg>