<svg xmlns="http://www.w3.org/2000/svg" width="1920" height="1080"><path d="M1957,1395L2242,1395L2242,1110Z" fill="#1f1f1f" stroke="#1f1f1f" stroke-width="1.51"/><path d="M1957,1110L1957,1395L2242,1110Z" fill="#2b2b2b" stroke="#2b2b2b" stroke-width="1.51"/><path d="M1957,1110L2242,1110L2242,825Z" fill="#373737" stroke="#373737" stroke-width="1.51"/><path d="M1957,825L1957,1110L2242,825Z" fill="#414141" stroke="#414141" stroke-width="1.51"/><path d="M1957,825L2242,825L2242,540Z" fill="#484848" stroke="#484848" stroke-width="1.51"/><path d="M1957,540L1957,825L2242,540Z" fill="#535353" stroke="#535353" stroke-width="1.51"/><path d="M1957,540L2242,540L2242,255Z" fill="#5b5b5b" stroke="#5b5b5b" stroke-width="1.51"/><path d="M1957,255L1957,540L2242,255Z" fill="#676767" stroke="#676767" stroke-width="1.51"/><path d="M1957,255L2242,255L2242,-30Z" fill="#6d6d6d" stroke="#6d6d6d" stroke-width="1.51"/><path d="M1957,-30L1957,255L2242,-30Z" fill="#767676" stroke="#767676" stroke-width="1.51"/><path d="M1957,-30L2242,-30L2242,-315Z" fill="#797979" stroke="#797979" stroke-width="1.51"/><path d="M1957,-315L1957,-30L2242,-315Z" fill="#828282" stroke="#828282" stroke-width="1.51"/><path d="M1672,1395L1957,1395L1957,1110Z" fill="#2e2e2e" stroke="#2e2e2e" stroke-width="1.51"/><path d="M1672,1110L1672,1395L1957,1110Z" fill="#3c3c3c" stroke="#3c3c3c" stroke-width="1.51"/><path d="M1672,1110L1957,1110L1957,825Z" fill="#474747" stroke="#474747" stroke-width="1.51"/><path d="M1672,825L1672,1110L1957,825Z" fill="#535353" stroke="#535353" stroke-width="1.51"/><path d="M1672,825L1957,825L1957,540Z" fill="#595959" stroke="#595959" stroke-width="1.51"/><path d="M1672,540L1672,825L1957,540Z" fill="#666666" stroke="#666666" stroke-width="1.51"/><path d="M1672,540L1957,540L1957,255Z" fill="#6d6d6d" stroke="#6d6d6d" stroke-width="1.51"/><path d="M1672,255L1672,540L1957,255Z" fill="#7b7b7b" stroke="#7b7b7b" stroke-width="1.51"/><path d="M1672,255L1957,255L1957,-30Z" fill="#7f7f7f" stroke="#7f7f7f" stroke-width="1.51"/><path d="M1672,-30L1672,255L1957,-30Z" fill="#8b8b8b" stroke="#8b8b8b" stroke-width="1.51"/><path d="M1672,-30L1957,-30L1957,-315Z" fill="#8b8b8b" stroke="#8b8b8b" stroke-width="1.51"/><path d="M1672,-315L1672,-30L1957,-315Z" fill="#979797" stroke="#979797" stroke-width="1.51"/><path d="M1387,1395L1672,1395L1672,1110Z" fill="#3e3e3e" stroke="#3e3e3e" stroke-width="1.51"/><path d="M1387,1110L1387,1395L1672,1110Z" fill="#4a4a4a" stroke="#4a4a4a" stroke-width="1.51"/><path d="M1387,1110L1672,1110L1672,825Z" fill="#585858" stroke="#585858" stroke-width="1.51"/><path d="M1387,825L1387,1110L1672,825Z" fill="#626262" stroke="#626262" stroke-width="1.51"/><path d="M1387,825L1672,825L1672,540Z" fill="#6b6b6b" stroke="#6b6b6b" stroke-width="1.51"/><path d="M1387,540L1387,825L1672,540Z" fill="#757575" stroke="#757575" stroke-width="1.51"/><path d="M1387,540L1672,540L1672,255Z" fill="#7f7f7f" stroke="#7f7f7f" stroke-width="1.51"/><path d="M1387,255L1387,540L1672,255Z" fill="#8a8a8a" stroke="#8a8a8a" stroke-width="1.51"/><path d="M1387,255L1672,255L1672,-30Z" fill="#919191" stroke="#919191" stroke-width="1.51"/><path d="M1387,-30L1387,255L1672,-30Z" fill="#9b9b9b" stroke="#9b9b9b" stroke-width="1.51"/><path d="M1387,-30L1672,-30L1672,-315Z" fill="#9f9f9f" stroke="#9f9f9f" stroke-width="1.51"/><path d="M1387,-315L1387,-30L1672,-315Z" fill="#a7a7a7" stroke="#a7a7a7" stroke-width="1.51"/><path d="M1102,1395L1387,1395L1387,1110Z" fill="#4b4b4b" stroke="#4b4b4b" stroke-width="1.51"/><path d="M1102,1110L1102,1395L1387,1110Z" fill="#585858" stroke="#585858" stroke-width="1.51"/><path d="M1102,1110L1387,1110L1387,825Z" fill="#656565" stroke="#656565" stroke-width="1.51"/><path d="M1102,825L1102,1110L1387,825Z" fill="#707070" stroke="#707070" stroke-width="1.51"/><path d="M1102,825L1387,825L1387,540Z" fill="#787878" stroke="#787878" stroke-width="1.51"/><path d="M1102,540L1102,825L1387,540Z" fill="#838383" stroke="#838383" stroke-width="1.51"/><path d="M1102,540L1387,540L1387,255Z" fill="#8d8d8d" stroke="#8d8d8d" stroke-width="1.51"/><path d="M1102,255L1102,540L1387,255Z" fill="#999999" stroke="#999999" stroke-width="1.51"/><path d="M1102,255L1387,255L1387,-30Z" fill="#9f9f9f" stroke="#9f9f9f" stroke-width="1.51"/><path d="M1102,-30L1102,255L1387,-30Z" fill="#a9a9a9" stroke="#a9a9a9" stroke-width="1.51"/><path d="M1102,-30L1387,-30L1387,-315Z" fill="#adadad" stroke="#adadad" stroke-width="1.51"/><path d="M1102,-315L1102,-30L1387,-315Z" fill="#b6b6b6" stroke="#b6b6b6" stroke-width="1.51"/><path d="M817,1395L1102,1395L1102,1110Z" fill="#575757" stroke="#575757" stroke-width="1.51"/><path d="M817,1110L817,1395L1102,1110Z" fill="#656565" stroke="#656565" stroke-width="1.51"/><path d="M817,1110L1102,1110L1102,825Z" fill="#727272" stroke="#727272" stroke-width="1.51"/><path d="M817,825L817,1110L1102,825Z" fill="#7d7d7d" stroke="#7d7d7d" stroke-width="1.51"/><path d="M817,825L1102,825L1102,540Z" fill="#868686" stroke="#868686" stroke-width="1.51"/><path d="M817,540L817,825L1102,540Z" fill="#919191" stroke="#919191" stroke-width="1.51"/><path d="M817,540L1102,540L1102,255Z" fill="#9b9b9b" stroke="#9b9b9b" stroke-width="1.51"/><path d="M817,255L817,540L1102,255Z" fill="#a7a7a7" stroke="#a7a7a7" stroke-width="1.51"/><path d="M817,255L1102,255L1102,-30Z" fill="#aeaeae" stroke="#aeaeae" stroke-width="1.51"/><path d="M817,-30L817,255L1102,-30Z" fill="#b8b8b8" stroke="#b8b8b8" stroke-width="1.51"/><path d="M817,-30L1102,-30L1102,-315Z" fill="#bcbcbc" stroke="#bcbcbc" stroke-width="1.51"/><path d="M817,-315L817,-30L1102,-315Z" fill="#c5c5c5" stroke="#c5c5c5" stroke-width="1.51"/><path d="M532,1395L817,1395L817,1110Z" fill="#666666" stroke="#666666" stroke-width="1.51"/><path d="M532,1110L532,1395L817,1110Z" fill="#737373" stroke="#737373" stroke-width="1.51"/><path d="M532,1110L817,1110L817,825Z" fill="#818181" stroke="#818181" stroke-width="1.51"/><path d="M532,825L532,1110L817,825Z" fill="#8c8c8c" stroke="#8c8c8c" stroke-width="1.51"/><path d="M532,825L817,825L817,540Z" fill="#959595" stroke="#959595" stroke-width="1.51"/><path d="M532,540L532,825L817,540Z" fill="#a1a1a1" stroke="#a1a1a1" stroke-width="1.51"/><path d="M532,540L817,540L817,255Z" fill="#aaaaaa" stroke="#aaaaaa" stroke-width="1.51"/><path d="M532,255L532,540L817,255Z" fill="#b7b7b7" stroke="#b7b7b7" stroke-width="1.51"/><path d="M532,255L817,255L817,-30Z" fill="#bebebe" stroke="#bebebe" stroke-width="1.51"/><path d="M532,-30L532,255L817,-30Z" fill="#c8c8c8" stroke="#c8c8c8" stroke-width="1.51"/><path d="M532,-30L817,-30L817,-315Z" fill="#cccccc" stroke="#cccccc" stroke-width="1.51"/><path d="M532,-315L532,-30L817,-315Z" fill="#d5d5d5" stroke="#d5d5d5" stroke-width="1.51"/><path d="M247,1395L532,1395L532,1110Z" fill="#717171" stroke="#717171" stroke-width="1.51"/><path d="M247,1110L247,1395L532,1110Z" fill="#7e7e7e" stroke="#7e7e7e" stroke-width="1.51"/><path d="M247,1110L532,1110L532,825Z" fill="#8d8d8d" stroke="#8d8d8d" stroke-width="1.51"/><path d="M247,825L247,1110L532,825Z" fill="#989898" stroke="#989898" stroke-width="1.51"/><path d="M247,825L532,825L532,540Z" fill="#a2a2a2" stroke="#a2a2a2" stroke-width="1.51"/><path d="M247,540L247,825L532,540Z" fill="#acacac" stroke="#acacac" stroke-width="1.51"/><path d="M247,540L532,540L532,255Z" fill="#b7b7b7" stroke="#b7b7b7" stroke-width="1.51"/><path d="M247,255L247,540L532,255Z" fill="#c3c3c3" stroke="#c3c3c3" stroke-width="1.51"/><path d="M247,255L532,255L532,-30Z" fill="#cbcbcb" stroke="#cbcbcb" stroke-width="1.51"/><path d="M247,-30L247,255L532,-30Z" fill="#d4d4d4" stroke="#d4d4d4" stroke-width="1.51"/><path d="M247,-30L532,-30L532,-315Z" fill="#d9d9d9" stroke="#d9d9d9" stroke-width="1.51"/><path d="M247,-315L247,-30L532,-315Z" fill="#e1e1e1" stroke="#e1e1e1" stroke-width="1.51"/><path d="M-38,1395L247,1395L247,1110Z" fill="#7b7b7b" stroke="#7b7b7b" stroke-width="1.51"/><path d="M-38,1110L-38,1395L247,1110Z" fill="#868686" stroke="#868686" stroke-width="1.51"/><path d="M-38,1110L247,1110L247,825Z" fill="#979797" stroke="#979797" stroke-width="1.51"/><path d="M-38,825L-38,1110L247,825Z" fill="#a0a0a0" stroke="#a0a0a0" stroke-width="1.51"/><path d="M-38,825L247,825L247,540Z" fill="#acacac" stroke="#acacac" stroke-width="1.51"/><path d="M-38,540L-38,825L247,540Z" fill="#b5b5b5" stroke="#b5b5b5" stroke-width="1.51"/><path d="M-38,540L247,540L247,255Z" fill="#c2c2c2" stroke="#c2c2c2" stroke-width="1.51"/><path d="M-38,255L-38,540L247,255Z" fill="#cccccc" stroke="#cccccc" stroke-width="1.51"/><path d="M-38,255L247,255L247,-30Z" fill="#d5d5d5" stroke="#d5d5d5" stroke-width="1.51"/><path d="M-38,-30L-38,255L247,-30Z" fill="#dddddd" stroke="#dddddd" stroke-width="1.51"/><path d="M-38,-30L247,-30L247,-315Z" fill="#e3e3e3" stroke="#e3e3e3" stroke-width="1.51"/><path d="M-38,-315L-38,-30L247,-315Z" fill="#ebebeb" stroke="#ebebeb" stroke-width="1.51"/><path d="M-323,1395L-38,1395L-38,1110Z" fill="#838383" stroke="#838383" stroke-width="1.51"/><path d="M-323,1110L-323,1395L-38,1110Z" fill="#8e8e8e" stroke="#8e8e8e" stroke-width="1.51"/><path d="M-323,1110L-38,1110L-38,825Z" fill="#9f9f9f" stroke="#9f9f9f" stroke-width="1.51"/><path d="M-323,825L-323,1110L-38,825Z" fill="#a8a8a8" stroke="#a8a8a8" stroke-width="1.51"/><path d="M-323,825L-38,825L-38,540Z" fill="#b4b4b4" stroke="#b4b4b4" stroke-width="1.51"/><path d="M-323,540L-323,825L-38,540Z" fill="#bdbdbd" stroke="#bdbdbd" stroke-width="1.51"/><path d="M-323,540L-38,540L-38,255Z" fill="#cacaca" stroke="#cacaca" stroke-width="1.51"/><path d="M-323,255L-323,540L-38,255Z" fill="#d4d4d4" stroke="#d4d4d4" stroke-width="1.51"/><path d="M-323,255L-38,255L-38,-30Z" fill="#dedede" stroke="#dedede" stroke-width="1.51"/><path d="M-323,-30L-323,255L-38,-30Z" fill="#e5e5e5" stroke="#e5e5e5" stroke-width="1.51"/><path d="M-323,-30L-38,-30L-38,-315Z" fill="#ececec" stroke="#ececec" stroke-width="1.51"/><path d="M-323,-315L-323,-30L-38,-315Z" fill="#f3f3f3" stroke="#f3f3f3" stroke-width="1.51"/></svg>