<svg xmlns="http://www.w3.org/2000/svg" width="1920" height="1080"><path d="M1980,1260L2100,1260L2100,1140Z" fill="#940001" stroke="#940001" stroke-width="1.51"/><path d="M1980,1140L1980,1260L2100,1140Z" fill="#9d0001" stroke="#9d0001" stroke-width="1.51"/><path d="M1980,1140L2100,1140L2100,1020Z" fill="#a40403" stroke="#a40403" stroke-width="1.51"/><path d="M1980,1020L1980,1140L2100,1020Z" fill="#ab0b06" stroke="#ab0b06" stroke-width="1.51"/><path d="M1980,1020L2100,1020L2100,900Z" fill="#ae160c" stroke="#ae160c" stroke-width="1.51"/><path d="M1980,900L1980,1020L2100,900Z" fill="#b61a10" stroke="#b61a10" stroke-width="1.51"/><path d="M1980,900L2100,900L2100,780Z" fill="#b72818" stroke="#b72818" stroke-width="1.51"/><path d="M1980,780L1980,900L2100,780Z" fill="#be2f1c" stroke="#be2f1c" stroke-width="1.51"/><path d="M1980,780L2100,780L2100,660Z" fill="#bf3a24" stroke="#bf3a24" stroke-width="1.51"/><path d="M1980,660L1980,780L2100,660Z" fill="#c44026" stroke="#c44026" stroke-width="1.51"/><path d="M1980,660L2100,660L2100,540Z" fill="#c34829" stroke="#c34829" stroke-width="1.51"/><path d="M1980,540L1980,660L2100,540Z" fill="#c84d2a" stroke="#c84d2a" stroke-width="1.51"/><path d="M1980,540L2100,540L2100,420Z" fill="#c75630" stroke="#c75630" stroke-width="1.51"/><path d="M1980,420L1980,540L2100,420Z" fill="#cb5c34" stroke="#cb5c34" stroke-width="1.51"/><path d="M1980,420L2100,420L2100,300Z" fill="#c9653c" stroke="#c9653c" stroke-width="1.51"/><path d="M1980,300L1980,420L2100,300Z" fill="#cd6b41" stroke="#cd6b41" stroke-width="1.51"/><path d="M1980,300L2100,300L2100,180Z" fill="#ca6f45" stroke="#ca6f45" stroke-width="1.51"/><path d="M1980,180L1980,300L2100,180Z" fill="#ce7248" stroke="#ce7248" stroke-width="1.51"/><path d="M1980,180L2100,180L2100,60Z" fill="#cc764d" stroke="#cc764d" stroke-width="1.51"/><path d="M1980,60L1980,180L2100,60Z" fill="#d07951" stroke="#d07951" stroke-width="1.51"/><path d="M1980,60L2100,60L2100,-60Z" fill="#ce7c59" stroke="#ce7c59" stroke-width="1.51"/><path d="M1980,-60L1980,60L2100,-60Z" fill="#d27f5d" stroke="#d27f5d" stroke-width="1.51"/><path d="M1980,-60L2100,-60L2100,-180Z" fill="#d08164" stroke="#d08164" stroke-width="1.51"/><path d="M1980,-180L1980,-60L2100,-180Z" fill="#d58468" stroke="#d58468" stroke-width="1.51"/><path d="M1860,1260L1980,1260L1980,1140Z" fill="#9f0001" stroke="#9f0001" stroke-width="1.51"/><path d="M1860,1140L1860,1260L1980,1140Z" fill="#a80001" stroke="#a80001" stroke-width="1.51"/><path d="M1860,1140L1980,1140L1980,1020Z" fill="#ae0402" stroke="#ae0402" stroke-width="1.51"/><path d="M1860,1020L1860,1140L1980,1020Z" fill="#b50c05" stroke="#b50c05" stroke-width="1.51"/><path d="M1860,1020L1980,1020L1980,900Z" fill="#b9170c" stroke="#b9170c" stroke-width="1.51"/><path d="M1860,900L1860,1020L1980,900Z" fill="#c01c0f" stroke="#c01c0f" stroke-width="1.51"/><path d="M1860,900L1980,900L1980,780Z" fill="#c22a18" stroke="#c22a18" stroke-width="1.51"/><path d="M1860,780L1860,900L1980,780Z" fill="#c9311c" stroke="#c9311c" stroke-width="1.51"/><path d="M1860,780L1980,780L1980,660Z" fill="#ca3c25" stroke="#ca3c25" stroke-width="1.51"/><path d="M1860,660L1860,780L1980,660Z" fill="#cf4226" stroke="#cf4226" stroke-width="1.51"/><path d="M1860,660L1980,660L1980,540Z" fill="#cf4a2a" stroke="#cf4a2a" stroke-width="1.51"/><path d="M1860,540L1860,660L1980,540Z" fill="#d3502b" stroke="#d3502b" stroke-width="1.51"/><path d="M1860,540L1980,540L1980,420Z" fill="#d25931" stroke="#d25931" stroke-width="1.51"/><path d="M1860,420L1860,540L1980,420Z" fill="#d75f35" stroke="#d75f35" stroke-width="1.51"/><path d="M1860,420L1980,420L1980,300Z" fill="#d4683d" stroke="#d4683d" stroke-width="1.51"/><path d="M1860,300L1860,420L1980,300Z" fill="#d96e41" stroke="#d96e41" stroke-width="1.51"/><path d="M1860,300L1980,300L1980,180Z" fill="#d67246" stroke="#d67246" stroke-width="1.51"/><path d="M1860,180L1860,300L1980,180Z" fill="#da7649" stroke="#da7649" stroke-width="1.51"/><path d="M1860,180L1980,180L1980,60Z" fill="#d77a4e" stroke="#d77a4e" stroke-width="1.51"/><path d="M1860,60L1860,180L1980,60Z" fill="#dc7d52" stroke="#dc7d52" stroke-width="1.51"/><path d="M1860,60L1980,60L1980,-60Z" fill="#da805a" stroke="#da805a" stroke-width="1.51"/><path d="M1860,-60L1860,60L1980,-60Z" fill="#de835e" stroke="#de835e" stroke-width="1.51"/><path d="M1860,-60L1980,-60L1980,-180Z" fill="#dc8565" stroke="#dc8565" stroke-width="1.51"/><path d="M1860,-180L1860,-60L1980,-180Z" fill="#e08868" stroke="#e08868" stroke-width="1.51"/><path d="M1740,1260L1860,1260L1860,1140Z" fill="#a80403" stroke="#a80403" stroke-width="1.51"/><path d="M1740,1140L1740,1260L1860,1140Z" fill="#b00904" stroke="#b00904" stroke-width="1.51"/><path d="M1740,1140L1860,1140L1860,1020Z" fill="#b80903" stroke="#b80903" stroke-width="1.51"/><path d="M1740,1020L1740,1140L1860,1020Z" fill="#be1409" stroke="#be1409" stroke-width="1.51"/><path d="M1740,1020L1860,1020L1860,900Z" fill="#c31b0e" stroke="#c31b0e" stroke-width="1.51"/><path d="M1740,900L1740,1020L1860,900Z" fill="#c92214" stroke="#c92214" stroke-width="1.51"/><path d="M1740,900L1860,900L1860,780Z" fill="#cc2d1a" stroke="#cc2d1a" stroke-width="1.51"/><path d="M1740,780L1740,900L1860,780Z" fill="#d13620" stroke="#d13620" stroke-width="1.51"/><path d="M1740,780L1860,780L1860,660Z" fill="#d34027" stroke="#d34027" stroke-width="1.51"/><path d="M1740,660L1740,780L1860,660Z" fill="#d8472b" stroke="#d8472b" stroke-width="1.51"/><path d="M1740,660L1860,660L1860,540Z" fill="#d84e2c" stroke="#d84e2c" stroke-width="1.51"/><path d="M1740,540L1740,660L1860,540Z" fill="#dc552f" stroke="#dc552f" stroke-width="1.51"/><path d="M1740,540L1860,540L1860,420Z" fill="#dc5d33" stroke="#dc5d33" stroke-width="1.51"/><path d="M1740,420L1740,540L1860,420Z" fill="#df6439" stroke="#df6439" stroke-width="1.51"/><path d="M1740,420L1860,420L1860,300Z" fill="#de6c40" stroke="#de6c40" stroke-width="1.51"/><path d="M1740,300L1740,420L1860,300Z" fill="#e17346" stroke="#e17346" stroke-width="1.51"/><path d="M1740,300L1860,300L1860,180Z" fill="#e07748" stroke="#e07748" stroke-width="1.51"/><path d="M1740,180L1740,300L1860,180Z" fill="#e37b4d" stroke="#e37b4d" stroke-width="1.51"/><path d="M1740,180L1860,180L1860,60Z" fill="#e17e50" stroke="#e17e50" stroke-width="1.51"/><path d="M1740,60L1740,180L1860,60Z" fill="#e58257" stroke="#e58257" stroke-width="1.51"/><path d="M1740,60L1860,60L1860,-60Z" fill="#e4845d" stroke="#e4845d" stroke-width="1.51"/><path d="M1740,-60L1740,60L1860,-60Z" fill="#e78863" stroke="#e78863" stroke-width="1.51"/><path d="M1740,-60L1860,-60L1860,-180Z" fill="#e68a68" stroke="#e68a68" stroke-width="1.51"/><path d="M1740,-180L1740,-60L1860,-180Z" fill="#e98d6d" stroke="#e98d6d" stroke-width="1.51"/><path d="M1620,1260L1740,1260L1740,1140Z" fill="#af1109" stroke="#af1109" stroke-width="1.51"/><path d="M1620,1140L1620,1260L1740,1140Z" fill="#b7150b" stroke="#b7150b" stroke-width="1.51"/><path d="M1620,1140L1740,1140L1740,1020Z" fill="#bf160a" stroke="#bf160a" stroke-width="1.51"/><path d="M1620,1020L1620,1140L1740,1020Z" fill="#c51d10" stroke="#c51d10" stroke-width="1.51"/><path d="M1620,1020L1740,1020L1740,900Z" fill="#ca2314" stroke="#ca2314" stroke-width="1.51"/><path d="M1620,900L1620,1020L1740,900Z" fill="#d0291a" stroke="#d0291a" stroke-width="1.51"/><path d="M1620,900L1740,900L1740,780Z" fill="#d33420" stroke="#d33420" stroke-width="1.51"/><path d="M1620,780L1620,900L1740,780Z" fill="#d83c26" stroke="#d83c26" stroke-width="1.51"/><path d="M1620,780L1740,780L1740,660Z" fill="#da452c" stroke="#da452c" stroke-width="1.51"/><path d="M1620,660L1620,780L1740,660Z" fill="#df4c30" stroke="#df4c30" stroke-width="1.51"/><path d="M1620,660L1740,660L1740,540Z" fill="#df5431" stroke="#df5431" stroke-width="1.51"/><path d="M1620,540L1620,660L1740,540Z" fill="#e35a35" stroke="#e35a35" stroke-width="1.51"/><path d="M1620,540L1740,540L1740,420Z" fill="#e36239" stroke="#e36239" stroke-width="1.51"/><path d="M1620,420L1620,540L1740,420Z" fill="#e6693f" stroke="#e6693f" stroke-width="1.51"/><path d="M1620,420L1740,420L1740,300Z" fill="#e57245" stroke="#e57245" stroke-width="1.51"/><path d="M1620,300L1620,420L1740,300Z" fill="#e8784b" stroke="#e8784b" stroke-width="1.51"/><path d="M1620,300L1740,300L1740,180Z" fill="#e67c4e" stroke="#e67c4e" stroke-width="1.51"/><path d="M1620,180L1620,300L1740,180Z" fill="#e98053" stroke="#e98053" stroke-width="1.51"/><path d="M1620,180L1740,180L1740,60Z" fill="#e88456" stroke="#e88456" stroke-width="1.51"/><path d="M1620,60L1620,180L1740,60Z" fill="#eb875c" stroke="#eb875c" stroke-width="1.51"/><path d="M1620,60L1740,60L1740,-60Z" fill="#ea8a62" stroke="#ea8a62" stroke-width="1.51"/><path d="M1620,-60L1620,60L1740,-60Z" fill="#ed8d69" stroke="#ed8d69" stroke-width="1.51"/><path d="M1620,-60L1740,-60L1740,-180Z" fill="#ed8f6e" stroke="#ed8f6e" stroke-width="1.51"/><path d="M1620,-180L1620,-60L1740,-180Z" fill="#f09273" stroke="#f09273" stroke-width="1.51"/><path d="M1500,1260L1620,1260L1620,1140Z" fill="#b71a0f" stroke="#b71a0f" stroke-width="1.51"/><path d="M1500,1140L1500,1260L1620,1140Z" fill="#be1f12" stroke="#be1f12" stroke-width="1.51"/><path d="M1500,1140L1620,1140L1620,1020Z" fill="#c61f11" stroke="#c61f11" stroke-width="1.51"/><path d="M1500,1020L1500,1140L1620,1020Z" fill="#cc2617" stroke="#cc2617" stroke-width="1.51"/><path d="M1500,1020L1620,1020L1620,900Z" fill="#d12b1a" stroke="#d12b1a" stroke-width="1.51"/><path d="M1500,900L1500,1020L1620,900Z" fill="#d73120" stroke="#d73120" stroke-width="1.51"/><path d="M1500,900L1620,900L1620,780Z" fill="#db3a26" stroke="#db3a26" stroke-width="1.51"/><path d="M1500,780L1500,900L1620,780Z" fill="#df432c" stroke="#df432c" stroke-width="1.51"/><path d="M1500,780L1620,780L1620,660Z" fill="#e24b32" stroke="#e24b32" stroke-width="1.51"/><path d="M1500,660L1500,780L1620,660Z" fill="#e55336" stroke="#e55336" stroke-width="1.51"/><path d="M1500,660L1620,660L1620,540Z" fill="#e75937" stroke="#e75937" stroke-width="1.51"/><path d="M1500,540L1500,660L1620,540Z" fill="#ea603b" stroke="#ea603b" stroke-width="1.51"/><path d="M1500,540L1620,540L1620,420Z" fill="#ea683f" stroke="#ea683f" stroke-width="1.51"/><path d="M1500,420L1500,540L1620,420Z" fill="#ed6f45" stroke="#ed6f45" stroke-width="1.51"/><path d="M1500,420L1620,420L1620,300Z" fill="#ec774b" stroke="#ec774b" stroke-width="1.51"/><path d="M1500,300L1500,420L1620,300Z" fill="#ef7e52" stroke="#ef7e52" stroke-width="1.51"/><path d="M1500,300L1620,300L1620,180Z" fill="#ee8154" stroke="#ee8154" stroke-width="1.51"/><path d="M1500,180L1500,300L1620,180Z" fill="#f08659" stroke="#f08659" stroke-width="1.51"/><path d="M1500,180L1620,180L1620,60Z" fill="#ef895c" stroke="#ef895c" stroke-width="1.51"/><path d="M1500,60L1500,180L1620,60Z" fill="#f28d63" stroke="#f28d63" stroke-width="1.51"/><path d="M1500,60L1620,60L1620,-60Z" fill="#f18f68" stroke="#f18f68" stroke-width="1.51"/><path d="M1500,-60L1500,60L1620,-60Z" fill="#f4936f" stroke="#f4936f" stroke-width="1.51"/><path d="M1500,-60L1620,-60L1620,-180Z" fill="#f49574" stroke="#f49574" stroke-width="1.51"/><path d="M1500,-180L1500,-60L1620,-180Z" fill="#f6987a" stroke="#f6987a" stroke-width="1.51"/><path d="M1380,1260L1500,1260L1500,1140Z" fill="#bc2817" stroke="#bc2817" stroke-width="1.51"/><path d="M1380,1140L1380,1260L1500,1140Z" fill="#c32d1a" stroke="#c32d1a" stroke-width="1.51"/><path d="M1380,1140L1500,1140L1500,1020Z" fill="#cc2c19" stroke="#cc2c19" stroke-width="1.51"/><path d="M1380,1020L1380,1140L1500,1020Z" fill="#d1341f" stroke="#d1341f" stroke-width="1.51"/><path d="M1380,1020L1500,1020L1500,900Z" fill="#d73722" stroke="#d73722" stroke-width="1.51"/><path d="M1380,900L1380,1020L1500,900Z" fill="#dc3d28" stroke="#dc3d28" stroke-width="1.51"/><path d="M1380,900L1500,900L1500,780Z" fill="#e0452e" stroke="#e0452e" stroke-width="1.51"/><path d="M1380,780L1380,900L1500,780Z" fill="#e44e34" stroke="#e44e34" stroke-width="1.51"/><path d="M1380,780L1500,780L1500,660Z" fill="#e7553a" stroke="#e7553a" stroke-width="1.51"/><path d="M1380,660L1380,780L1500,660Z" fill="#ea5d3e" stroke="#ea5d3e" stroke-width="1.51"/><path d="M1380,660L1500,660L1500,540Z" fill="#eb623f" stroke="#eb623f" stroke-width="1.51"/><path d="M1380,540L1380,660L1500,540Z" fill="#ee6943" stroke="#ee6943" stroke-width="1.51"/><path d="M1380,540L1500,540L1500,420Z" fill="#ef7047" stroke="#ef7047" stroke-width="1.51"/><path d="M1380,420L1380,540L1500,420Z" fill="#f1784d" stroke="#f1784d" stroke-width="1.51"/><path d="M1380,420L1500,420L1500,300Z" fill="#f07f53" stroke="#f07f53" stroke-width="1.51"/><path d="M1380,300L1380,420L1500,300Z" fill="#f3875a" stroke="#f3875a" stroke-width="1.51"/><path d="M1380,300L1500,300L1500,180Z" fill="#f2895c" stroke="#f2895c" stroke-width="1.51"/><path d="M1380,180L1380,300L1500,180Z" fill="#f48f62" stroke="#f48f62" stroke-width="1.51"/><path d="M1380,180L1500,180L1500,60Z" fill="#f39164" stroke="#f39164" stroke-width="1.51"/><path d="M1380,60L1380,180L1500,60Z" fill="#f6966b" stroke="#f6966b" stroke-width="1.51"/><path d="M1380,60L1500,60L1500,-60Z" fill="#f59771" stroke="#f59771" stroke-width="1.51"/><path d="M1380,-60L1380,60L1500,-60Z" fill="#f89c78" stroke="#f89c78" stroke-width="1.51"/><path d="M1380,-60L1500,-60L1500,-180Z" fill="#f89c7c" stroke="#f89c7c" stroke-width="1.51"/><path d="M1380,-180L1380,-60L1500,-180Z" fill="#faa182" stroke="#faa182" stroke-width="1.51"/><path d="M1260,1260L1380,1260L1380,1140Z" fill="#c1341f" stroke="#c1341f" stroke-width="1.51"/><path d="M1260,1140L1260,1260L1380,1140Z" fill="#c83923" stroke="#c83923" stroke-width="1.51"/><path d="M1260,1140L1380,1140L1380,1020Z" fill="#d13821" stroke="#d13821" stroke-width="1.51"/><path d="M1260,1020L1260,1140L1380,1020Z" fill="#d64028" stroke="#d64028" stroke-width="1.51"/><path d="M1260,1020L1380,1020L1380,900Z" fill="#dc422a" stroke="#dc422a" stroke-width="1.51"/><path d="M1260,900L1260,1020L1380,900Z" fill="#e14931" stroke="#e14931" stroke-width="1.51"/><path d="M1260,900L1380,900L1380,780Z" fill="#e54f35" stroke="#e54f35" stroke-width="1.51"/><path d="M1260,780L1260,900L1380,780Z" fill="#e9583c" stroke="#e9583c" stroke-width="1.51"/><path d="M1260,780L1380,780L1380,660Z" fill="#ec5e42" stroke="#ec5e42" stroke-width="1.51"/><path d="M1260,660L1260,780L1380,660Z" fill="#ef6647" stroke="#ef6647" stroke-width="1.51"/><path d="M1260,660L1380,660L1380,540Z" fill="#f06b47" stroke="#f06b47" stroke-width="1.51"/><path d="M1260,540L1260,660L1380,540Z" fill="#f3734c" stroke="#f3734c" stroke-width="1.51"/><path d="M1260,540L1380,540L1380,420Z" fill="#f4794f" stroke="#f4794f" stroke-width="1.51"/><path d="M1260,420L1260,540L1380,420Z" fill="#f58156" stroke="#f58156" stroke-width="1.51"/><path d="M1260,420L1380,420L1380,300Z" fill="#f5885c" stroke="#f5885c" stroke-width="1.51"/><path d="M1260,300L1260,420L1380,300Z" fill="#f78f63" stroke="#f78f63" stroke-width="1.51"/><path d="M1260,300L1380,300L1380,180Z" fill="#f69265" stroke="#f69265" stroke-width="1.51"/><path d="M1260,180L1260,300L1380,180Z" fill="#f7976b" stroke="#f7976b" stroke-width="1.51"/><path d="M1260,180L1380,180L1380,60Z" fill="#f7996d" stroke="#f7996d" stroke-width="1.51"/><path d="M1260,60L1260,180L1380,60Z" fill="#f99e74" stroke="#f99e74" stroke-width="1.51"/><path d="M1260,60L1380,60L1380,-60Z" fill="#f99f79" stroke="#f99f79" stroke-width="1.51"/><path d="M1260,-60L1260,60L1380,-60Z" fill="#fba481" stroke="#fba481" stroke-width="1.51"/><path d="M1260,-60L1380,-60L1380,-180Z" fill="#fba585" stroke="#fba585" stroke-width="1.51"/><path d="M1260,-180L1260,-60L1380,-180Z" fill="#fda98b" stroke="#fda98b" stroke-width="1.51"/><path d="M1140,1260L1260,1260L1260,1140Z" fill="#c53f26" stroke="#c53f26" stroke-width="1.51"/><path d="M1140,1140L1140,1260L1260,1140Z" fill="#cc4327" stroke="#cc4327" stroke-width="1.51"/><path d="M1140,1140L1260,1140L1260,1020Z" fill="#d54428" stroke="#d54428" stroke-width="1.51"/><path d="M1140,1020L1140,1140L1260,1020Z" fill="#da492c" stroke="#da492c" stroke-width="1.51"/><path d="M1140,1020L1260,1020L1260,900Z" fill="#e04c31" stroke="#e04c31" stroke-width="1.51"/><path d="M1140,900L1140,1020L1260,900Z" fill="#e45235" stroke="#e45235" stroke-width="1.51"/><path d="M1140,900L1260,900L1260,780Z" fill="#e9593c" stroke="#e9593c" stroke-width="1.51"/><path d="M1140,780L1140,900L1260,780Z" fill="#ec6041" stroke="#ec6041" stroke-width="1.51"/><path d="M1140,780L1260,780L1260,660Z" fill="#f06848" stroke="#f06848" stroke-width="1.51"/><path d="M1140,660L1140,780L1260,660Z" fill="#f26f4b" stroke="#f26f4b" stroke-width="1.51"/><path d="M1140,660L1260,660L1260,540Z" fill="#f4744e" stroke="#f4744e" stroke-width="1.51"/><path d="M1140,540L1140,660L1260,540Z" fill="#f67b50" stroke="#f67b50" stroke-width="1.51"/><path d="M1140,540L1260,540L1260,420Z" fill="#f78256" stroke="#f78256" stroke-width="1.51"/><path d="M1140,420L1140,540L1260,420Z" fill="#f8895b" stroke="#f8895b" stroke-width="1.51"/><path d="M1140,420L1260,420L1260,300Z" fill="#f89062" stroke="#f89062" stroke-width="1.51"/><path d="M1140,300L1140,420L1260,300Z" fill="#fa9768" stroke="#fa9768" stroke-width="1.51"/><path d="M1140,300L1260,300L1260,180Z" fill="#f99a6c" stroke="#f99a6c" stroke-width="1.51"/><path d="M1140,180L1140,300L1260,180Z" fill="#fa9f70" stroke="#fa9f70" stroke-width="1.51"/><path d="M1140,180L1260,180L1260,60Z" fill="#faa274" stroke="#faa274" stroke-width="1.51"/><path d="M1140,60L1140,180L1260,60Z" fill="#fca679" stroke="#fca679" stroke-width="1.51"/><path d="M1140,60L1260,60L1260,-60Z" fill="#fca880" stroke="#fca880" stroke-width="1.51"/><path d="M1140,-60L1140,60L1260,-60Z" fill="#fdac86" stroke="#fdac86" stroke-width="1.51"/><path d="M1140,-60L1260,-60L1260,-180Z" fill="#fead8c" stroke="#fead8c" stroke-width="1.51"/><path d="M1140,-180L1140,-60L1260,-180Z" fill="#ffb190" stroke="#ffb190" stroke-width="1.51"/><path d="M1020,1260L1140,1260L1140,1140Z" fill="#c84829" stroke="#c84829" stroke-width="1.51"/><path d="M1020,1140L1020,1260L1140,1140Z" fill="#cf4c2a" stroke="#cf4c2a" stroke-width="1.51"/><path d="M1020,1140L1140,1140L1140,1020Z" fill="#d84d2b" stroke="#d84d2b" stroke-width="1.51"/><path d="M1020,1020L1020,1140L1140,1020Z" fill="#dc532f" stroke="#dc532f" stroke-width="1.51"/><path d="M1020,1020L1140,1020L1140,900Z" fill="#e35634" stroke="#e35634" stroke-width="1.51"/><path d="M1020,900L1020,1020L1140,900Z" fill="#e75b38" stroke="#e75b38" stroke-width="1.51"/><path d="M1020,900L1140,900L1140,780Z" fill="#eb613f" stroke="#eb613f" stroke-width="1.51"/><path d="M1020,780L1020,900L1140,780Z" fill="#ef6944" stroke="#ef6944" stroke-width="1.51"/><path d="M1020,780L1140,780L1140,660Z" fill="#f2704c" stroke="#f2704c" stroke-width="1.51"/><path d="M1020,660L1020,780L1140,660Z" fill="#f5774f" stroke="#f5774f" stroke-width="1.51"/><path d="M1020,660L1140,660L1140,540Z" fill="#f77c51" stroke="#f77c51" stroke-width="1.51"/><path d="M1020,540L1020,660L1140,540Z" fill="#f98354" stroke="#f98354" stroke-width="1.51"/><path d="M1020,540L1140,540L1140,420Z" fill="#fa8959" stroke="#fa8959" stroke-width="1.51"/><path d="M1020,420L1020,540L1140,420Z" fill="#fb905e" stroke="#fb905e" stroke-width="1.51"/><path d="M1020,420L1140,420L1140,300Z" fill="#fa9866" stroke="#fa9866" stroke-width="1.51"/><path d="M1020,300L1020,420L1140,300Z" fill="#fc9f6c" stroke="#fc9f6c" stroke-width="1.51"/><path d="M1020,300L1140,300L1140,180Z" fill="#fba16f" stroke="#fba16f" stroke-width="1.51"/><path d="M1020,180L1020,300L1140,180Z" fill="#fca673" stroke="#fca673" stroke-width="1.51"/><path d="M1020,180L1140,180L1140,60Z" fill="#fca978" stroke="#fca978" stroke-width="1.51"/><path d="M1020,60L1020,180L1140,60Z" fill="#fead7d" stroke="#fead7d" stroke-width="1.51"/><path d="M1020,60L1140,60L1140,-60Z" fill="#feaf84" stroke="#feaf84" stroke-width="1.51"/><path d="M1020,-60L1020,60L1140,-60Z" fill="#ffb38a" stroke="#ffb38a" stroke-width="1.51"/><path d="M1020,-60L1140,-60L1140,-180Z" fill="#ffb490" stroke="#ffb490" stroke-width="1.51"/><path d="M1020,-180L1020,-60L1140,-180Z" fill="#ffb894" stroke="#ffb894" stroke-width="1.51"/><path d="M900,1260L1020,1260L1020,1140Z" fill="#ca502c" stroke="#ca502c" stroke-width="1.51"/><path d="M900,1140L900,1260L1020,1140Z" fill="#d1552e" stroke="#d1552e" stroke-width="1.51"/><path d="M900,1140L1020,1140L1020,1020Z" fill="#db552e" stroke="#db552e" stroke-width="1.51"/><path d="M900,1020L900,1140L1020,1020Z" fill="#df5c33" stroke="#df5c33" stroke-width="1.51"/><path d="M900,1020L1020,1020L1020,900Z" fill="#e65e37" stroke="#e65e37" stroke-width="1.51"/><path d="M900,900L900,1020L1020,900Z" fill="#ea643c" stroke="#ea643c" stroke-width="1.51"/><path d="M900,900L1020,900L1020,780Z" fill="#ee6943" stroke="#ee6943" stroke-width="1.51"/><path d="M900,780L900,900L1020,780Z" fill="#f17149" stroke="#f17149" stroke-width="1.51"/><path d="M900,780L1020,780L1020,660Z" fill="#f5774f" stroke="#f5774f" stroke-width="1.51"/><path d="M900,660L900,780L1020,660Z" fill="#f77f53" stroke="#f77f53" stroke-width="1.51"/><path d="M900,660L1020,660L1020,540Z" fill="#f98455" stroke="#f98455" stroke-width="1.51"/><path d="M900,540L900,660L1020,540Z" fill="#fb8b58" stroke="#fb8b58" stroke-width="1.51"/><path d="M900,540L1020,540L1020,420Z" fill="#fc915d" stroke="#fc915d" stroke-width="1.51"/><path d="M900,420L900,540L1020,420Z" fill="#fd9863" stroke="#fd9863" stroke-width="1.51"/><path d="M900,420L1020,420L1020,300Z" fill="#fd9f6a" stroke="#fd9f6a" stroke-width="1.51"/><path d="M900,300L900,420L1020,300Z" fill="#fda670" stroke="#fda670" stroke-width="1.51"/><path d="M900,300L1020,300L1020,180Z" fill="#fda973" stroke="#fda973" stroke-width="1.51"/><path d="M900,180L900,300L1020,180Z" fill="#feae78" stroke="#feae78" stroke-width="1.51"/><path d="M900,180L1020,180L1020,60Z" fill="#feb07b" stroke="#feb07b" stroke-width="1.51"/><path d="M900,60L900,180L1020,60Z" fill="#ffb582" stroke="#ffb582" stroke-width="1.51"/><path d="M900,60L1020,60L1020,-60Z" fill="#ffb688" stroke="#ffb688" stroke-width="1.51"/><path d="M900,-60L900,60L1020,-60Z" fill="#ffbb8f" stroke="#ffbb8f" stroke-width="1.51"/><path d="M900,-60L1020,-60L1020,-180Z" fill="#ffbc94" stroke="#ffbc94" stroke-width="1.51"/><path d="M900,-180L900,-60L1020,-180Z" fill="#ffc099" stroke="#ffc099" stroke-width="1.51"/><path d="M780,1260L900,1260L900,1140Z" fill="#cc5b33" stroke="#cc5b33" stroke-width="1.51"/><path d="M780,1140L780,1260L900,1140Z" fill="#d25f36" stroke="#d25f36" stroke-width="1.51"/><path d="M780,1140L900,1140L900,1020Z" fill="#dd6035" stroke="#dd6035" stroke-width="1.51"/><path d="M780,1020L780,1140L900,1020Z" fill="#e0663b" stroke="#e0663b" stroke-width="1.51"/><path d="M780,1020L900,1020L900,900Z" fill="#e7683e" stroke="#e7683e" stroke-width="1.51"/><path d="M780,900L780,1020L900,900Z" fill="#eb6e44" stroke="#eb6e44" stroke-width="1.51"/><path d="M780,900L900,900L900,780Z" fill="#f0744a" stroke="#f0744a" stroke-width="1.51"/><path d="M780,780L780,900L900,780Z" fill="#f27c51" stroke="#f27c51" stroke-width="1.51"/><path d="M780,780L900,780L900,660Z" fill="#f68157" stroke="#f68157" stroke-width="1.51"/><path d="M780,660L780,780L900,660Z" fill="#f8895c" stroke="#f8895c" stroke-width="1.51"/><path d="M780,660L900,660L900,540Z" fill="#fa8d5c" stroke="#fa8d5c" stroke-width="1.51"/><path d="M780,540L780,660L900,540Z" fill="#fb9461" stroke="#fb9461" stroke-width="1.51"/><path d="M780,540L900,540L900,420Z" fill="#fd9a64" stroke="#fd9a64" stroke-width="1.51"/><path d="M780,420L780,540L900,420Z" fill="#fda26b" stroke="#fda26b" stroke-width="1.51"/><path d="M780,420L900,420L900,300Z" fill="#fda871" stroke="#fda871" stroke-width="1.51"/><path d="M780,300L780,420L900,300Z" fill="#fdb079" stroke="#fdb079" stroke-width="1.51"/><path d="M780,300L900,300L900,180Z" fill="#feb27b" stroke="#feb27b" stroke-width="1.51"/><path d="M780,180L780,300L900,180Z" fill="#feb781" stroke="#feb781" stroke-width="1.51"/><path d="M780,180L900,180L900,60Z" fill="#feb983" stroke="#feb983" stroke-width="1.51"/><path d="M780,60L780,180L900,60Z" fill="#ffbe8b" stroke="#ffbe8b" stroke-width="1.51"/><path d="M780,60L900,60L900,-60Z" fill="#ffbf90" stroke="#ffbf90" stroke-width="1.51"/><path d="M780,-60L780,60L900,-60Z" fill="#ffc497" stroke="#ffc497" stroke-width="1.51"/><path d="M780,-60L900,-60L900,-180Z" fill="#ffc59c" stroke="#ffc59c" stroke-width="1.51"/><path d="M780,-180L780,-60L900,-180Z" fill="#ffc9a2" stroke="#ffc9a2" stroke-width="1.51"/><path d="M660,1260L780,1260L780,1140Z" fill="#cd643b" stroke="#cd643b" stroke-width="1.51"/><path d="M660,1140L660,1260L780,1140Z" fill="#d4693e" stroke="#d4693e" stroke-width="1.51"/><path d="M660,1140L780,1140L780,1020Z" fill="#de6a3d" stroke="#de6a3d" stroke-width="1.51"/><path d="M660,1020L660,1140L780,1020Z" fill="#e27043" stroke="#e27043" stroke-width="1.51"/><path d="M660,1020L780,1020L780,900Z" fill="#e87246" stroke="#e87246" stroke-width="1.51"/><path d="M660,900L660,1020L780,900Z" fill="#ec784d" stroke="#ec784d" stroke-width="1.51"/><path d="M660,900L780,900L780,780Z" fill="#f17e52" stroke="#f17e52" stroke-width="1.51"/><path d="M660,780L660,900L780,780Z" fill="#f38559" stroke="#f38559" stroke-width="1.51"/><path d="M660,780L780,780L780,660Z" fill="#f78b5f" stroke="#f78b5f" stroke-width="1.51"/><path d="M660,660L660,780L780,660Z" fill="#f89264" stroke="#f89264" stroke-width="1.51"/><path d="M660,660L780,660L780,540Z" fill="#fb9765" stroke="#fb9765" stroke-width="1.51"/><path d="M660,540L660,660L780,540Z" fill="#fc9d69" stroke="#fc9d69" stroke-width="1.51"/><path d="M660,540L780,540L780,420Z" fill="#fda36d" stroke="#fda36d" stroke-width="1.51"/><path d="M660,420L660,540L780,420Z" fill="#fdab74" stroke="#fdab74" stroke-width="1.51"/><path d="M660,420L780,420L780,300Z" fill="#fdb17a" stroke="#fdb17a" stroke-width="1.51"/><path d="M660,300L660,420L780,300Z" fill="#fdb981" stroke="#fdb981" stroke-width="1.51"/><path d="M660,300L780,300L780,180Z" fill="#fdbb83" stroke="#fdbb83" stroke-width="1.51"/><path d="M660,180L660,300L780,180Z" fill="#fdc089" stroke="#fdc089" stroke-width="1.51"/><path d="M660,180L780,180L780,60Z" fill="#fec28c" stroke="#fec28c" stroke-width="1.51"/><path d="M660,60L660,180L780,60Z" fill="#fec793" stroke="#fec793" stroke-width="1.51"/><path d="M660,60L780,60L780,-60Z" fill="#ffc899" stroke="#ffc899" stroke-width="1.51"/><path d="M660,-60L660,60L780,-60Z" fill="#ffcda0" stroke="#ffcda0" stroke-width="1.51"/><path d="M660,-60L780,-60L780,-180Z" fill="#ffcda4" stroke="#ffcda4" stroke-width="1.51"/><path d="M660,-180L660,-60L780,-180Z" fill="#ffd2ab" stroke="#ffd2ab" stroke-width="1.51"/><path d="M540,1260L660,1260L660,1140Z" fill="#ce6c42" stroke="#ce6c42" stroke-width="1.51"/><path d="M540,1140L540,1260L660,1140Z" fill="#d57044" stroke="#d57044" stroke-width="1.51"/><path d="M540,1140L660,1140L660,1020Z" fill="#df7244" stroke="#df7244" stroke-width="1.51"/><path d="M540,1020L540,1140L660,1020Z" fill="#e37749" stroke="#e37749" stroke-width="1.51"/><path d="M540,1020L660,1020L660,900Z" fill="#ea7a4d" stroke="#ea7a4d" stroke-width="1.51"/><path d="M540,900L540,1020L660,900Z" fill="#ed7f53" stroke="#ed7f53" stroke-width="1.51"/><path d="M540,900L660,900L660,780Z" fill="#f28659" stroke="#f28659" stroke-width="1.51"/><path d="M540,780L540,900L660,780Z" fill="#f48c5f" stroke="#f48c5f" stroke-width="1.51"/><path d="M540,780L660,780L660,660Z" fill="#f79366" stroke="#f79366" stroke-width="1.51"/><path d="M540,660L540,780L660,660Z" fill="#f9996a" stroke="#f9996a" stroke-width="1.51"/><path d="M540,660L660,660L660,540Z" fill="#fb9e6c" stroke="#fb9e6c" stroke-width="1.51"/><path d="M540,540L540,660L660,540Z" fill="#fca470" stroke="#fca470" stroke-width="1.51"/><path d="M540,540L660,540L660,420Z" fill="#feab74" stroke="#feab74" stroke-width="1.51"/><path d="M540,420L540,540L660,420Z" fill="#fdb17a" stroke="#fdb17a" stroke-width="1.51"/><path d="M540,420L660,420L660,300Z" fill="#fdb981" stroke="#fdb981" stroke-width="1.51"/><path d="M540,300L540,420L660,300Z" fill="#fdbf88" stroke="#fdbf88" stroke-width="1.51"/><path d="M540,300L660,300L660,180Z" fill="#fdc28b" stroke="#fdc28b" stroke-width="1.51"/><path d="M540,180L540,300L660,180Z" fill="#fdc790" stroke="#fdc790" stroke-width="1.51"/><path d="M540,180L660,180L660,60Z" fill="#fdca93" stroke="#fdca93" stroke-width="1.51"/><path d="M540,60L540,180L660,60Z" fill="#fecd9a" stroke="#fecd9a" stroke-width="1.51"/><path d="M540,60L660,60L660,-60Z" fill="#fecfa0" stroke="#fecfa0" stroke-width="1.51"/><path d="M540,-60L540,60L660,-60Z" fill="#fed3a7" stroke="#fed3a7" stroke-width="1.51"/><path d="M540,-60L660,-60L660,-180Z" fill="#ffd5ac" stroke="#ffd5ac" stroke-width="1.51"/><path d="M540,-180L540,-60L660,-180Z" fill="#ffd8b2" stroke="#ffd8b2" stroke-width="1.51"/><path d="M420,1260L540,1260L540,1140Z" fill="#cf7147" stroke="#cf7147" stroke-width="1.51"/><path d="M420,1140L420,1260L540,1140Z" fill="#d67549" stroke="#d67549" stroke-width="1.51"/><path d="M420,1140L540,1140L540,1020Z" fill="#e0774a" stroke="#e0774a" stroke-width="1.51"/><path d="M420,1020L420,1140L540,1020Z" fill="#e47c4e" stroke="#e47c4e" stroke-width="1.51"/><path d="M420,1020L540,1020L540,900Z" fill="#ea8053" stroke="#ea8053" stroke-width="1.51"/><path d="M420,900L420,1020L540,900Z" fill="#ee8557" stroke="#ee8557" stroke-width="1.51"/><path d="M420,900L540,900L540,780Z" fill="#f28b5e" stroke="#f28b5e" stroke-width="1.51"/><path d="M420,780L420,900L540,780Z" fill="#f59164" stroke="#f59164" stroke-width="1.51"/><path d="M420,780L540,780L540,660Z" fill="#f8986b" stroke="#f8986b" stroke-width="1.51"/><path d="M420,660L420,780L540,660Z" fill="#f99e6f" stroke="#f99e6f" stroke-width="1.51"/><path d="M420,660L540,660L540,540Z" fill="#fca371" stroke="#fca371" stroke-width="1.51"/><path d="M420,540L420,660L540,540Z" fill="#fda974" stroke="#fda974" stroke-width="1.51"/><path d="M420,540L540,540L540,420Z" fill="#feb07a" stroke="#feb07a" stroke-width="1.51"/><path d="M420,420L420,540L540,420Z" fill="#feb67f" stroke="#feb67f" stroke-width="1.51"/><path d="M420,420L540,420L540,300Z" fill="#fdbe87" stroke="#fdbe87" stroke-width="1.51"/><path d="M420,300L420,420L540,300Z" fill="#fdc48d" stroke="#fdc48d" stroke-width="1.51"/><path d="M420,300L540,300L540,180Z" fill="#fdc790" stroke="#fdc790" stroke-width="1.51"/><path d="M420,180L420,300L540,180Z" fill="#fdcc95" stroke="#fdcc95" stroke-width="1.51"/><path d="M420,180L540,180L540,60Z" fill="#fdcf99" stroke="#fdcf99" stroke-width="1.51"/><path d="M420,60L420,180L540,60Z" fill="#fed29f" stroke="#fed29f" stroke-width="1.51"/><path d="M420,60L540,60L540,-60Z" fill="#fed4a6" stroke="#fed4a6" stroke-width="1.51"/><path d="M420,-60L420,60L540,-60Z" fill="#fed8ac" stroke="#fed8ac" stroke-width="1.51"/><path d="M420,-60L540,-60L540,-180Z" fill="#ffdab2" stroke="#ffdab2" stroke-width="1.51"/><path d="M420,-180L420,-60L540,-180Z" fill="#ffddb7" stroke="#ffddb7" stroke-width="1.51"/><path d="M300,1260L420,1260L420,1140Z" fill="#d0764b" stroke="#d0764b" stroke-width="1.51"/><path d="M300,1140L300,1260L420,1140Z" fill="#d77a4e" stroke="#d77a4e" stroke-width="1.51"/><path d="M300,1140L420,1140L420,1020Z" fill="#e17d4e" stroke="#e17d4e" stroke-width="1.51"/><path d="M300,1020L300,1140L420,1020Z" fill="#e58154" stroke="#e58154" stroke-width="1.51"/><path d="M300,1020L420,1020L420,900Z" fill="#eb8557" stroke="#eb8557" stroke-width="1.51"/><path d="M300,900L300,1020L420,900Z" fill="#ef895d" stroke="#ef895d" stroke-width="1.51"/><path d="M300,900L420,900L420,780Z" fill="#f39063" stroke="#f39063" stroke-width="1.51"/><path d="M300,780L300,900L420,780Z" fill="#f6966a" stroke="#f6966a" stroke-width="1.51"/><path d="M300,780L420,780L420,660Z" fill="#f99d70" stroke="#f99d70" stroke-width="1.51"/><path d="M300,660L300,780L420,660Z" fill="#faa375" stroke="#faa375" stroke-width="1.51"/><path d="M300,660L420,660L420,540Z" fill="#fca976" stroke="#fca976" stroke-width="1.51"/><path d="M300,540L300,660L420,540Z" fill="#fdae7a" stroke="#fdae7a" stroke-width="1.51"/><path d="M300,540L420,540L420,420Z" fill="#feb57f" stroke="#feb57f" stroke-width="1.51"/><path d="M300,420L300,540L420,420Z" fill="#febb85" stroke="#febb85" stroke-width="1.51"/><path d="M300,420L420,420L420,300Z" fill="#fdc38c" stroke="#fdc38c" stroke-width="1.51"/><path d="M300,300L300,420L420,300Z" fill="#fdc993" stroke="#fdc993" stroke-width="1.51"/><path d="M300,300L420,300L420,180Z" fill="#fdcc95" stroke="#fdcc95" stroke-width="1.51"/><path d="M300,180L300,300L420,180Z" fill="#fdd09b" stroke="#fdd09b" stroke-width="1.51"/><path d="M300,180L420,180L420,60Z" fill="#fdd39e" stroke="#fdd39e" stroke-width="1.51"/><path d="M300,60L300,180L420,60Z" fill="#fed7a5" stroke="#fed7a5" stroke-width="1.51"/><path d="M300,60L420,60L420,-60Z" fill="#fed9ab" stroke="#fed9ab" stroke-width="1.51"/><path d="M300,-60L300,60L420,-60Z" fill="#feddb2" stroke="#feddb2" stroke-width="1.51"/><path d="M300,-60L420,-60L420,-180Z" fill="#ffdfb7" stroke="#ffdfb7" stroke-width="1.51"/><path d="M300,-180L300,-60L420,-180Z" fill="#ffe2bd" stroke="#ffe2bd" stroke-width="1.51"/><path d="M180,1260L300,1260L300,1140Z" fill="#d27b53" stroke="#d27b53" stroke-width="1.51"/><path d="M180,1140L180,1260L300,1140Z" fill="#d87e56" stroke="#d87e56" stroke-width="1.51"/><path d="M180,1140L300,1140L300,1020Z" fill="#e38156" stroke="#e38156" stroke-width="1.51"/><path d="M180,1020L180,1140L300,1020Z" fill="#e6855c" stroke="#e6855c" stroke-width="1.51"/><path d="M180,1020L300,1020L300,900Z" fill="#ed8a5f" stroke="#ed8a5f" stroke-width="1.51"/><path d="M180,900L180,1020L300,900Z" fill="#f18d65" stroke="#f18d65" stroke-width="1.51"/><path d="M180,900L300,900L300,780Z" fill="#f5956b" stroke="#f5956b" stroke-width="1.51"/><path d="M180,780L180,900L300,780Z" fill="#f79a72" stroke="#f79a72" stroke-width="1.51"/><path d="M180,780L300,780L300,660Z" fill="#faa278" stroke="#faa278" stroke-width="1.51"/><path d="M180,660L180,780L300,660Z" fill="#fca77d" stroke="#fca77d" stroke-width="1.51"/><path d="M180,660L300,660L300,540Z" fill="#fead7e" stroke="#fead7e" stroke-width="1.51"/><path d="M180,540L180,660L300,540Z" fill="#ffb283" stroke="#ffb283" stroke-width="1.51"/><path d="M180,540L300,540L300,420Z" fill="#ffb986" stroke="#ffb986" stroke-width="1.51"/><path d="M180,420L180,540L300,420Z" fill="#ffbf8e" stroke="#ffbf8e" stroke-width="1.51"/><path d="M180,420L300,420L300,300Z" fill="#fec794" stroke="#fec794" stroke-width="1.51"/><path d="M180,300L180,420L300,300Z" fill="#fecc9b" stroke="#fecc9b" stroke-width="1.51"/><path d="M180,300L300,300L300,180Z" fill="#fed09d" stroke="#fed09d" stroke-width="1.51"/><path d="M180,180L180,300L300,180Z" fill="#fed4a3" stroke="#fed4a3" stroke-width="1.51"/><path d="M180,180L300,180L300,60Z" fill="#fed8a6" stroke="#fed8a6" stroke-width="1.51"/><path d="M180,60L180,180L300,60Z" fill="#fedbad" stroke="#fedbad" stroke-width="1.51"/><path d="M180,60L300,60L300,-60Z" fill="#fedeb3" stroke="#fedeb3" stroke-width="1.51"/><path d="M180,-60L180,60L300,-60Z" fill="#fee1ba" stroke="#fee1ba" stroke-width="1.51"/><path d="M180,-60L300,-60L300,-180Z" fill="#ffe3bf" stroke="#ffe3bf" stroke-width="1.51"/><path d="M180,-180L180,-60L300,-180Z" fill="#ffe6c5" stroke="#ffe6c5" stroke-width="1.51"/><path d="M60,1260L180,1260L180,1140Z" fill="#d37f5b" stroke="#d37f5b" stroke-width="1.51"/><path d="M60,1140L60,1260L180,1140Z" fill="#da825e" stroke="#da825e" stroke-width="1.51"/><path d="M60,1140L180,1140L180,1020Z" fill="#e4855e" stroke="#e4855e" stroke-width="1.51"/><path d="M60,1020L60,1140L180,1020Z" fill="#e88963" stroke="#e88963" stroke-width="1.51"/><path d="M60,1020L180,1020L180,900Z" fill="#ee8e67" stroke="#ee8e67" stroke-width="1.51"/><path d="M60,900L60,1020L180,900Z" fill="#f2916d" stroke="#f2916d" stroke-width="1.51"/><path d="M60,900L180,900L180,780Z" fill="#f69973" stroke="#f69973" stroke-width="1.51"/><path d="M60,780L60,900L180,780Z" fill="#f89e79" stroke="#f89e79" stroke-width="1.51"/><path d="M60,780L180,780L180,660Z" fill="#fba680" stroke="#fba680" stroke-width="1.51"/><path d="M60,660L60,780L180,660Z" fill="#fdab85" stroke="#fdab85" stroke-width="1.51"/><path d="M60,660L180,660L180,540Z" fill="#ffb186" stroke="#ffb186" stroke-width="1.51"/><path d="M60,540L60,660L180,540Z" fill="#ffb68a" stroke="#ffb68a" stroke-width="1.51"/><path d="M60,540L180,540L180,420Z" fill="#ffbd8f" stroke="#ffbd8f" stroke-width="1.51"/><path d="M60,420L60,540L180,420Z" fill="#ffc395" stroke="#ffc395" stroke-width="1.51"/><path d="M60,420L180,420L180,300Z" fill="#ffcb9c" stroke="#ffcb9c" stroke-width="1.51"/><path d="M60,300L60,420L180,300Z" fill="#ffd0a3" stroke="#ffd0a3" stroke-width="1.51"/><path d="M60,300L180,300L180,180Z" fill="#fed4a6" stroke="#fed4a6" stroke-width="1.51"/><path d="M60,180L60,300L180,180Z" fill="#fed8ab" stroke="#fed8ab" stroke-width="1.51"/><path d="M60,180L180,180L180,60Z" fill="#fedcae" stroke="#fedcae" stroke-width="1.51"/><path d="M60,60L60,180L180,60Z" fill="#fedfb5" stroke="#fedfb5" stroke-width="1.51"/><path d="M60,60L180,60L180,-60Z" fill="#fee2bb" stroke="#fee2bb" stroke-width="1.51"/><path d="M60,-60L60,60L180,-60Z" fill="#fee5c3" stroke="#fee5c3" stroke-width="1.51"/><path d="M60,-60L180,-60L180,-180Z" fill="#ffe7c7" stroke="#ffe7c7" stroke-width="1.51"/><path d="M60,-180L60,-60L180,-180Z" fill="#ffeacd" stroke="#ffeacd" stroke-width="1.51"/><path d="M-60,1260L60,1260L60,1140Z" fill="#d48262" stroke="#d48262" stroke-width="1.51"/><path d="M-60,1140L-60,1260L60,1140Z" fill="#db8565" stroke="#db8565" stroke-width="1.51"/><path d="M-60,1140L60,1140L60,1020Z" fill="#e58965" stroke="#e58965" stroke-width="1.51"/><path d="M-60,1020L-60,1140L60,1020Z" fill="#e98c6b" stroke="#e98c6b" stroke-width="1.51"/><path d="M-60,1020L60,1020L60,900Z" fill="#f0916e" stroke="#f0916e" stroke-width="1.51"/><path d="M-60,900L-60,1020L60,900Z" fill="#f39574" stroke="#f39574" stroke-width="1.51"/><path d="M-60,900L60,900L60,780Z" fill="#f79c7a" stroke="#f79c7a" stroke-width="1.51"/><path d="M-60,780L-60,900L60,780Z" fill="#f9a181" stroke="#f9a181" stroke-width="1.51"/><path d="M-60,780L60,780L60,660Z" fill="#fca988" stroke="#fca988" stroke-width="1.51"/><path d="M-60,660L-60,780L60,660Z" fill="#feae8c" stroke="#feae8c" stroke-width="1.51"/><path d="M-60,660L60,660L60,540Z" fill="#ffb48e" stroke="#ffb48e" stroke-width="1.51"/><path d="M-60,540L-60,660L60,540Z" fill="#ffb992" stroke="#ffb992" stroke-width="1.51"/><path d="M-60,540L60,540L60,420Z" fill="#ffc197" stroke="#ffc197" stroke-width="1.51"/><path d="M-60,420L-60,540L60,420Z" fill="#ffc69d" stroke="#ffc69d" stroke-width="1.51"/><path d="M-60,420L60,420L60,300Z" fill="#ffcea4" stroke="#ffcea4" stroke-width="1.51"/><path d="M-60,300L-60,420L60,300Z" fill="#ffd4ab" stroke="#ffd4ab" stroke-width="1.51"/><path d="M-60,300L60,300L60,180Z" fill="#fed8ae" stroke="#fed8ae" stroke-width="1.51"/><path d="M-60,180L-60,300L60,180Z" fill="#fedbb3" stroke="#fedbb3" stroke-width="1.51"/><path d="M-60,180L60,180L60,60Z" fill="#fedfb6" stroke="#fedfb6" stroke-width="1.51"/><path d="M-60,60L-60,180L60,60Z" fill="#fee2bd" stroke="#fee2bd" stroke-width="1.51"/><path d="M-60,60L60,60L60,-60Z" fill="#fee5c3" stroke="#fee5c3" stroke-width="1.51"/><path d="M-60,-60L-60,60L60,-60Z" fill="#fee8ca" stroke="#fee8ca" stroke-width="1.51"/><path d="M-60,-60L60,-60L60,-180Z" fill="#ffebcf" stroke="#ffebcf" stroke-width="1.51"/><path d="M-60,-180L-60,-60L60,-180Z" fill="#ffedd5" stroke="#ffedd5" stroke-width="1.51"/><path d="M-180,1260L-60,1260L-60,1140Z" fill="#d68569" stroke="#d68569" stroke-width="1.51"/><path d="M-180,1140L-180,1260L-60,1140Z" fill="#dd886b" stroke="#dd886b" stroke-width="1.51"/><path d="M-180,1140L-60,1140L-60,1020Z" fill="#e78b6c" stroke="#e78b6c" stroke-width="1.51"/><path d="M-180,1020L-180,1140L-60,1020Z" fill="#eb8f71" stroke="#eb8f71" stroke-width="1.51"/><path d="M-180,1020L-60,1020L-60,900Z" fill="#f19475" stroke="#f19475" stroke-width="1.51"/><path d="M-180,900L-180,1020L-60,900Z" fill="#f5987b" stroke="#f5987b" stroke-width="1.51"/><path d="M-180,900L-60,900L-60,780Z" fill="#f99f81" stroke="#f99f81" stroke-width="1.51"/><path d="M-180,780L-180,900L-60,780Z" fill="#fba488" stroke="#fba488" stroke-width="1.51"/><path d="M-180,780L-60,780L-60,660Z" fill="#feac8e" stroke="#feac8e" stroke-width="1.51"/><path d="M-180,660L-180,780L-60,660Z" fill="#ffb193" stroke="#ffb193" stroke-width="1.51"/><path d="M-180,660L-60,660L-60,540Z" fill="#ffb795" stroke="#ffb795" stroke-width="1.51"/><path d="M-180,540L-180,660L-60,540Z" fill="#ffbc99" stroke="#ffbc99" stroke-width="1.51"/><path d="M-180,540L-60,540L-60,420Z" fill="#ffc49d" stroke="#ffc49d" stroke-width="1.51"/><path d="M-180,420L-180,540L-60,420Z" fill="#ffc9a4" stroke="#ffc9a4" stroke-width="1.51"/><path d="M-180,420L-60,420L-60,300Z" fill="#ffd1ab" stroke="#ffd1ab" stroke-width="1.51"/><path d="M-180,300L-180,420L-60,300Z" fill="#ffd7b2" stroke="#ffd7b2" stroke-width="1.51"/><path d="M-180,300L-60,300L-60,180Z" fill="#ffdbb5" stroke="#ffdbb5" stroke-width="1.51"/><path d="M-180,180L-180,300L-60,180Z" fill="#ffdeba" stroke="#ffdeba" stroke-width="1.51"/><path d="M-180,180L-60,180L-60,60Z" fill="#ffe2bd" stroke="#ffe2bd" stroke-width="1.51"/><path d="M-180,60L-180,180L-60,60Z" fill="#ffe5c4" stroke="#ffe5c4" stroke-width="1.51"/><path d="M-180,60L-60,60L-60,-60Z" fill="#ffe8ca" stroke="#ffe8ca" stroke-width="1.51"/><path d="M-180,-60L-180,60L-60,-60Z" fill="#ffebd1" stroke="#ffebd1" stroke-width="1.51"/><path d="M-180,-60L-60,-60L-60,-180Z" fill="#ffeed6" stroke="#ffeed6" stroke-width="1.51"/><path d="M-180,-180L-180,-60L-60,-180Z" fill="#fff0dc" stroke="#fff0dc" stroke-width="1.51"/></svg>