<svg xmlns="http://www.w3.org/2000/svg" width="1920" height="1080"><path d="M1980,1260L2100,1260L2100,1140Z" fill="#250259" stroke="#250259" stroke-width="1.51"/><path d="M1980,1140L1980,1260L2100,1140Z" fill="#26035e" stroke="#26035e" stroke-width="1.51"/><path d="M1980,1140L2100,1140L2100,1020Z" fill="#280462" stroke="#280462" stroke-width="1.51"/><path d="M1980,1020L1980,1140L2100,1020Z" fill="#2a0567" stroke="#2a0567" stroke-width="1.51"/><path d="M1980,1020L2100,1020L2100,900Z" fill="#2b066b" stroke="#2b066b" stroke-width="1.51"/><path d="M1980,900L1980,1020L2100,900Z" fill="#2d0770" stroke="#2d0770" stroke-width="1.51"/><path d="M1980,900L2100,900L2100,780Z" fill="#2f0873" stroke="#2f0873" stroke-width="1.51"/><path d="M1980,780L1980,900L2100,780Z" fill="#310978" stroke="#310978" stroke-width="1.51"/><path d="M1980,780L2100,780L2100,660Z" fill="#3e087a" stroke="#3e087a" stroke-width="1.51"/><path d="M1980,660L1980,780L2100,660Z" fill="#47097d" stroke="#47097d" stroke-width="1.51"/><path d="M1980,660L2100,660L2100,540Z" fill="#55077d" stroke="#55077d" stroke-width="1.51"/><path d="M1980,540L1980,660L2100,540Z" fill="#5d0780" stroke="#5d0780" stroke-width="1.51"/><path d="M1980,540L2100,540L2100,420Z" fill="#6a0580" stroke="#6a0580" stroke-width="1.51"/><path d="M1980,420L1980,540L2100,420Z" fill="#710683" stroke="#710683" stroke-width="1.51"/><path d="M1980,420L2100,420L2100,300Z" fill="#7d0383" stroke="#7d0383" stroke-width="1.51"/><path d="M1980,300L1980,420L2100,300Z" fill="#850487" stroke="#850487" stroke-width="1.51"/><path d="M1980,300L2100,300L2100,180Z" fill="#8b0f86" stroke="#8b0f86" stroke-width="1.51"/><path d="M1980,180L1980,300L2100,180Z" fill="#882188" stroke="#882188" stroke-width="1.51"/><path d="M1980,180L2100,180L2100,60Z" fill="#7d3286" stroke="#7d3286" stroke-width="1.51"/><path d="M1980,60L1980,180L2100,60Z" fill="#793a88" stroke="#793a88" stroke-width="1.51"/><path d="M1980,60L2100,60L2100,-60Z" fill="#6d4586" stroke="#6d4586" stroke-width="1.51"/><path d="M1980,-60L1980,60L2100,-60Z" fill="#684c88" stroke="#684c88" stroke-width="1.51"/><path d="M1980,-60L2100,-60L2100,-180Z" fill="#5a5586" stroke="#5a5586" stroke-width="1.51"/><path d="M1980,-180L1980,-60L2100,-180Z" fill="#535a88" stroke="#535a88" stroke-width="1.51"/><path d="M1860,1260L1980,1260L1980,1140Z" fill="#27035f" stroke="#27035f" stroke-width="1.51"/><path d="M1860,1140L1860,1260L1980,1140Z" fill="#290464" stroke="#290464" stroke-width="1.51"/><path d="M1860,1140L1980,1140L1980,1020Z" fill="#2a0567" stroke="#2a0567" stroke-width="1.51"/><path d="M1860,1020L1860,1140L1980,1020Z" fill="#2c066c" stroke="#2c066c" stroke-width="1.51"/><path d="M1860,1020L1980,1020L1980,900Z" fill="#2d0770" stroke="#2d0770" stroke-width="1.51"/><path d="M1860,900L1860,1020L1980,900Z" fill="#300975" stroke="#300975" stroke-width="1.51"/><path d="M1860,900L1980,900L1980,780Z" fill="#310979" stroke="#310979" stroke-width="1.51"/><path d="M1860,780L1860,900L1980,780Z" fill="#330b7e" stroke="#330b7e" stroke-width="1.51"/><path d="M1860,780L1980,780L1980,660Z" fill="#400a7f" stroke="#400a7f" stroke-width="1.51"/><path d="M1860,660L1860,780L1980,660Z" fill="#4a0b82" stroke="#4a0b82" stroke-width="1.51"/><path d="M1860,660L1980,660L1980,540Z" fill="#580983" stroke="#580983" stroke-width="1.51"/><path d="M1860,540L1860,660L1980,540Z" fill="#600986" stroke="#600986" stroke-width="1.51"/><path d="M1860,540L1980,540L1980,420Z" fill="#6d0786" stroke="#6d0786" stroke-width="1.51"/><path d="M1860,420L1860,540L1980,420Z" fill="#750789" stroke="#750789" stroke-width="1.51"/><path d="M1860,420L1980,420L1980,300Z" fill="#810589" stroke="#810589" stroke-width="1.51"/><path d="M1860,300L1860,420L1980,300Z" fill="#88068d" stroke="#88068d" stroke-width="1.51"/><path d="M1860,300L1980,300L1980,180Z" fill="#8e128c" stroke="#8e128c" stroke-width="1.51"/><path d="M1860,180L1860,300L1980,180Z" fill="#8b228e" stroke="#8b228e" stroke-width="1.51"/><path d="M1860,180L1980,180L1980,60Z" fill="#80348c" stroke="#80348c" stroke-width="1.51"/><path d="M1860,60L1860,180L1980,60Z" fill="#7c3c8e" stroke="#7c3c8e" stroke-width="1.51"/><path d="M1860,60L1980,60L1980,-60Z" fill="#70478c" stroke="#70478c" stroke-width="1.51"/><path d="M1860,-60L1860,60L1980,-60Z" fill="#6b4e8e" stroke="#6b4e8e" stroke-width="1.51"/><path d="M1860,-60L1980,-60L1980,-180Z" fill="#5d578c" stroke="#5d578c" stroke-width="1.51"/><path d="M1860,-180L1860,-60L1980,-180Z" fill="#565c8e" stroke="#565c8e" stroke-width="1.51"/><path d="M1740,1260L1860,1260L1860,1140Z" fill="#290464" stroke="#290464" stroke-width="1.51"/><path d="M1740,1140L1740,1260L1860,1140Z" fill="#2b0569" stroke="#2b0569" stroke-width="1.51"/><path d="M1740,1140L1860,1140L1860,1020Z" fill="#2c066d" stroke="#2c066d" stroke-width="1.51"/><path d="M1740,1020L1740,1140L1860,1020Z" fill="#2e0772" stroke="#2e0772" stroke-width="1.51"/><path d="M1740,1020L1860,1020L1860,900Z" fill="#2f0876" stroke="#2f0876" stroke-width="1.51"/><path d="M1740,900L1740,1020L1860,900Z" fill="#320a7b" stroke="#320a7b" stroke-width="1.51"/><path d="M1740,900L1860,900L1860,780Z" fill="#330b7f" stroke="#330b7f" stroke-width="1.51"/><path d="M1740,780L1740,900L1860,780Z" fill="#350c84" stroke="#350c84" stroke-width="1.51"/><path d="M1740,780L1860,780L1860,660Z" fill="#420b85" stroke="#420b85" stroke-width="1.51"/><path d="M1740,660L1740,780L1860,660Z" fill="#4c0c88" stroke="#4c0c88" stroke-width="1.51"/><path d="M1740,660L1860,660L1860,540Z" fill="#5b0a89" stroke="#5b0a89" stroke-width="1.51"/><path d="M1740,540L1740,660L1860,540Z" fill="#630a8c" stroke="#630a8c" stroke-width="1.51"/><path d="M1740,540L1860,540L1860,420Z" fill="#6f088b" stroke="#6f088b" stroke-width="1.51"/><path d="M1740,420L1740,540L1860,420Z" fill="#78098f" stroke="#78098f" stroke-width="1.51"/><path d="M1740,420L1860,420L1860,300Z" fill="#84078f" stroke="#84078f" stroke-width="1.51"/><path d="M1740,300L1740,420L1860,300Z" fill="#8c0792" stroke="#8c0792" stroke-width="1.51"/><path d="M1740,300L1860,300L1860,180Z" fill="#921392" stroke="#921392" stroke-width="1.51"/><path d="M1740,180L1740,300L1860,180Z" fill="#8f2394" stroke="#8f2394" stroke-width="1.51"/><path d="M1740,180L1860,180L1860,60Z" fill="#833692" stroke="#833692" stroke-width="1.51"/><path d="M1740,60L1740,180L1860,60Z" fill="#7f3e94" stroke="#7f3e94" stroke-width="1.51"/><path d="M1740,60L1860,60L1860,-60Z" fill="#734992" stroke="#734992" stroke-width="1.51"/><path d="M1740,-60L1740,60L1860,-60Z" fill="#6e4f94" stroke="#6e4f94" stroke-width="1.51"/><path d="M1740,-60L1860,-60L1860,-180Z" fill="#5f5992" stroke="#5f5992" stroke-width="1.51"/><path d="M1740,-180L1740,-60L1860,-180Z" fill="#595e94" stroke="#595e94" stroke-width="1.51"/><path d="M1620,1260L1740,1260L1740,1140Z" fill="#2b066a" stroke="#2b066a" stroke-width="1.51"/><path d="M1620,1140L1620,1260L1740,1140Z" fill="#2d076f" stroke="#2d076f" stroke-width="1.51"/><path d="M1620,1140L1740,1140L1740,1020Z" fill="#2e0773" stroke="#2e0773" stroke-width="1.51"/><path d="M1620,1020L1620,1140L1740,1020Z" fill="#310977" stroke="#310977" stroke-width="1.51"/><path d="M1620,1020L1740,1020L1740,900Z" fill="#320a7c" stroke="#320a7c" stroke-width="1.51"/><path d="M1620,900L1620,1020L1740,900Z" fill="#340c80" stroke="#340c80" stroke-width="1.51"/><path d="M1620,900L1740,900L1740,780Z" fill="#350c85" stroke="#350c85" stroke-width="1.51"/><path d="M1620,780L1620,900L1740,780Z" fill="#370e89" stroke="#370e89" stroke-width="1.51"/><path d="M1620,780L1740,780L1740,660Z" fill="#450d8b" stroke="#450d8b" stroke-width="1.51"/><path d="M1620,660L1620,780L1740,660Z" fill="#4e0e8e" stroke="#4e0e8e" stroke-width="1.51"/><path d="M1620,660L1740,660L1740,540Z" fill="#5e0c8f" stroke="#5e0c8f" stroke-width="1.51"/><path d="M1620,540L1620,660L1740,540Z" fill="#650d91" stroke="#650d91" stroke-width="1.51"/><path d="M1620,540L1740,540L1740,420Z" fill="#730b92" stroke="#730b92" stroke-width="1.51"/><path d="M1620,420L1620,540L1740,420Z" fill="#7b0c95" stroke="#7b0c95" stroke-width="1.51"/><path d="M1620,420L1740,420L1740,300Z" fill="#870995" stroke="#870995" stroke-width="1.51"/><path d="M1620,300L1620,420L1740,300Z" fill="#8f0b98" stroke="#8f0b98" stroke-width="1.51"/><path d="M1620,300L1740,300L1740,180Z" fill="#951598" stroke="#951598" stroke-width="1.51"/><path d="M1620,180L1620,300L1740,180Z" fill="#92269a" stroke="#92269a" stroke-width="1.51"/><path d="M1620,180L1740,180L1740,60Z" fill="#873898" stroke="#873898" stroke-width="1.51"/><path d="M1620,60L1620,180L1740,60Z" fill="#82409a" stroke="#82409a" stroke-width="1.51"/><path d="M1620,60L1740,60L1740,-60Z" fill="#764b98" stroke="#764b98" stroke-width="1.51"/><path d="M1620,-60L1620,60L1740,-60Z" fill="#715299" stroke="#715299" stroke-width="1.51"/><path d="M1620,-60L1740,-60L1740,-180Z" fill="#635b98" stroke="#635b98" stroke-width="1.51"/><path d="M1620,-180L1620,-60L1740,-180Z" fill="#5b609a" stroke="#5b609a" stroke-width="1.51"/><path d="M1500,1260L1620,1260L1620,1140Z" fill="#2e0770" stroke="#2e0770" stroke-width="1.51"/><path d="M1500,1140L1500,1260L1620,1140Z" fill="#2f0875" stroke="#2f0875" stroke-width="1.51"/><path d="M1500,1140L1620,1140L1620,1020Z" fill="#310978" stroke="#310978" stroke-width="1.51"/><path d="M1500,1020L1500,1140L1620,1020Z" fill="#330b7d" stroke="#330b7d" stroke-width="1.51"/><path d="M1500,1020L1620,1020L1620,900Z" fill="#340c81" stroke="#340c81" stroke-width="1.51"/><path d="M1500,900L1500,1020L1620,900Z" fill="#360e86" stroke="#360e86" stroke-width="1.51"/><path d="M1500,900L1620,900L1620,780Z" fill="#380e8a" stroke="#380e8a" stroke-width="1.51"/><path d="M1500,780L1500,900L1620,780Z" fill="#3a108f" stroke="#3a108f" stroke-width="1.51"/><path d="M1500,780L1620,780L1620,660Z" fill="#480f91" stroke="#480f91" stroke-width="1.51"/><path d="M1500,660L1500,780L1620,660Z" fill="#511094" stroke="#511094" stroke-width="1.51"/><path d="M1500,660L1620,660L1620,540Z" fill="#610f94" stroke="#610f94" stroke-width="1.51"/><path d="M1500,540L1500,660L1620,540Z" fill="#680f97" stroke="#680f97" stroke-width="1.51"/><path d="M1500,540L1620,540L1620,420Z" fill="#760d97" stroke="#760d97" stroke-width="1.51"/><path d="M1500,420L1500,540L1620,420Z" fill="#7e0e9b" stroke="#7e0e9b" stroke-width="1.51"/><path d="M1500,420L1620,420L1620,300Z" fill="#8b0c9b" stroke="#8b0c9b" stroke-width="1.51"/><path d="M1500,300L1500,420L1620,300Z" fill="#920d9e" stroke="#920d9e" stroke-width="1.51"/><path d="M1500,300L1620,300L1620,180Z" fill="#99179e" stroke="#99179e" stroke-width="1.51"/><path d="M1500,180L1500,300L1620,180Z" fill="#9527a0" stroke="#9527a0" stroke-width="1.51"/><path d="M1500,180L1620,180L1620,60Z" fill="#8a399e" stroke="#8a399e" stroke-width="1.51"/><path d="M1500,60L1500,180L1620,60Z" fill="#8641a0" stroke="#8641a0" stroke-width="1.51"/><path d="M1500,60L1620,60L1620,-60Z" fill="#7a4d9e" stroke="#7a4d9e" stroke-width="1.51"/><path d="M1500,-60L1500,60L1620,-60Z" fill="#7454a0" stroke="#7454a0" stroke-width="1.51"/><path d="M1500,-60L1620,-60L1620,-180Z" fill="#665d9e" stroke="#665d9e" stroke-width="1.51"/><path d="M1500,-180L1500,-60L1620,-180Z" fill="#5f62a0" stroke="#5f62a0" stroke-width="1.51"/><path d="M1380,1260L1500,1260L1500,1140Z" fill="#300875" stroke="#300875" stroke-width="1.51"/><path d="M1380,1140L1380,1260L1500,1140Z" fill="#320a7b" stroke="#320a7b" stroke-width="1.51"/><path d="M1380,1140L1500,1140L1500,1020Z" fill="#330b7e" stroke="#330b7e" stroke-width="1.51"/><path d="M1380,1020L1380,1140L1500,1020Z" fill="#350c83" stroke="#350c83" stroke-width="1.51"/><path d="M1380,1020L1500,1020L1500,900Z" fill="#360e87" stroke="#360e87" stroke-width="1.51"/><path d="M1380,900L1380,1020L1500,900Z" fill="#390f8c" stroke="#390f8c" stroke-width="1.51"/><path d="M1380,900L1500,900L1500,780Z" fill="#3a1090" stroke="#3a1090" stroke-width="1.51"/><path d="M1380,780L1380,900L1500,780Z" fill="#3c1295" stroke="#3c1295" stroke-width="1.51"/><path d="M1380,780L1500,780L1500,660Z" fill="#4a1197" stroke="#4a1197" stroke-width="1.51"/><path d="M1380,660L1380,780L1500,660Z" fill="#54119a" stroke="#54119a" stroke-width="1.51"/><path d="M1380,660L1500,660L1500,540Z" fill="#63109a" stroke="#63109a" stroke-width="1.51"/><path d="M1380,540L1380,660L1500,540Z" fill="#6c109e" stroke="#6c109e" stroke-width="1.51"/><path d="M1380,540L1500,540L1500,420Z" fill="#790f9d" stroke="#790f9d" stroke-width="1.51"/><path d="M1380,420L1380,540L1500,420Z" fill="#8210a1" stroke="#8210a1" stroke-width="1.51"/><path d="M1380,420L1500,420L1500,300Z" fill="#8e0ea1" stroke="#8e0ea1" stroke-width="1.51"/><path d="M1380,300L1380,420L1500,300Z" fill="#960ea5" stroke="#960ea5" stroke-width="1.51"/><path d="M1380,300L1500,300L1500,180Z" fill="#9c19a4" stroke="#9c19a4" stroke-width="1.51"/><path d="M1380,180L1380,300L1500,180Z" fill="#9929a6" stroke="#9929a6" stroke-width="1.51"/><path d="M1380,180L1500,180L1500,60Z" fill="#8d3ba4" stroke="#8d3ba4" stroke-width="1.51"/><path d="M1380,60L1380,180L1500,60Z" fill="#8943a6" stroke="#8943a6" stroke-width="1.51"/><path d="M1380,60L1500,60L1500,-60Z" fill="#7d4fa4" stroke="#7d4fa4" stroke-width="1.51"/><path d="M1380,-60L1380,60L1500,-60Z" fill="#7756a6" stroke="#7756a6" stroke-width="1.51"/><path d="M1380,-60L1500,-60L1500,-180Z" fill="#685fa4" stroke="#685fa4" stroke-width="1.51"/><path d="M1380,-180L1380,-60L1500,-180Z" fill="#6264a6" stroke="#6264a6" stroke-width="1.51"/><path d="M1260,1260L1380,1260L1380,1140Z" fill="#350a7b" stroke="#350a7b" stroke-width="1.51"/><path d="M1260,1140L1260,1260L1380,1140Z" fill="#3c0b7e" stroke="#3c0b7e" stroke-width="1.51"/><path d="M1260,1140L1380,1140L1380,1020Z" fill="#380c84" stroke="#380c84" stroke-width="1.51"/><path d="M1260,1020L1260,1140L1380,1020Z" fill="#400d87" stroke="#400d87" stroke-width="1.51"/><path d="M1260,1020L1380,1020L1380,900Z" fill="#3c0f8d" stroke="#3c0f8d" stroke-width="1.51"/><path d="M1260,900L1260,1020L1380,900Z" fill="#441090" stroke="#441090" stroke-width="1.51"/><path d="M1260,900L1380,900L1380,780Z" fill="#401196" stroke="#401196" stroke-width="1.51"/><path d="M1260,780L1260,900L1380,780Z" fill="#471299" stroke="#471299" stroke-width="1.51"/><path d="M1260,780L1380,780L1380,660Z" fill="#4f139d" stroke="#4f139d" stroke-width="1.51"/><path d="M1260,660L1260,780L1380,660Z" fill="#5d139e" stroke="#5d139e" stroke-width="1.51"/><path d="M1260,660L1380,660L1380,540Z" fill="#6812a0" stroke="#6812a0" stroke-width="1.51"/><path d="M1260,540L1260,660L1380,540Z" fill="#7412a2" stroke="#7412a2" stroke-width="1.51"/><path d="M1260,540L1380,540L1380,420Z" fill="#7e11a3" stroke="#7e11a3" stroke-width="1.51"/><path d="M1260,420L1260,540L1380,420Z" fill="#8a11a5" stroke="#8a11a5" stroke-width="1.51"/><path d="M1260,420L1380,420L1380,300Z" fill="#9310a7" stroke="#9310a7" stroke-width="1.51"/><path d="M1260,300L1260,420L1380,300Z" fill="#9e10a9" stroke="#9e10a9" stroke-width="1.51"/><path d="M1260,300L1380,300L1380,180Z" fill="#a21baa" stroke="#a21baa" stroke-width="1.51"/><path d="M1260,180L1260,300L1380,180Z" fill="#a12aaa" stroke="#a12aaa" stroke-width="1.51"/><path d="M1260,180L1380,180L1380,60Z" fill="#933daa" stroke="#933daa" stroke-width="1.51"/><path d="M1260,60L1260,180L1380,60Z" fill="#9246aa" stroke="#9246aa" stroke-width="1.51"/><path d="M1260,60L1380,60L1380,-60Z" fill="#8251aa" stroke="#8251aa" stroke-width="1.51"/><path d="M1260,-60L1260,60L1380,-60Z" fill="#8058aa" stroke="#8058aa" stroke-width="1.51"/><path d="M1260,-60L1380,-60L1380,-180Z" fill="#6e62aa" stroke="#6e62aa" stroke-width="1.51"/><path d="M1260,-180L1260,-60L1380,-180Z" fill="#6b68aa" stroke="#6b68aa" stroke-width="1.51"/><path d="M1140,1260L1260,1260L1260,1140Z" fill="#46097d" stroke="#46097d" stroke-width="1.51"/><path d="M1140,1140L1140,1260L1260,1140Z" fill="#4c0a81" stroke="#4c0a81" stroke-width="1.51"/><path d="M1140,1140L1260,1140L1260,1020Z" fill="#490b86" stroke="#490b86" stroke-width="1.51"/><path d="M1140,1020L1140,1140L1260,1020Z" fill="#500d8a" stroke="#500d8a" stroke-width="1.51"/><path d="M1140,1020L1260,1020L1260,900Z" fill="#4d0e8f" stroke="#4d0e8f" stroke-width="1.51"/><path d="M1140,900L1140,1020L1260,900Z" fill="#540f93" stroke="#540f93" stroke-width="1.51"/><path d="M1140,900L1260,900L1260,780Z" fill="#511198" stroke="#511198" stroke-width="1.51"/><path d="M1140,780L1140,900L1260,780Z" fill="#58129c" stroke="#58129c" stroke-width="1.51"/><path d="M1140,780L1260,780L1260,660Z" fill="#60129f" stroke="#60129f" stroke-width="1.51"/><path d="M1140,660L1140,780L1260,660Z" fill="#6d12a1" stroke="#6d12a1" stroke-width="1.51"/><path d="M1140,660L1260,660L1260,540Z" fill="#7712a2" stroke="#7712a2" stroke-width="1.51"/><path d="M1140,540L1140,660L1260,540Z" fill="#8211a4" stroke="#8211a4" stroke-width="1.51"/><path d="M1140,540L1260,540L1260,420Z" fill="#8c11a5" stroke="#8c11a5" stroke-width="1.51"/><path d="M1140,420L1140,540L1260,420Z" fill="#9811a8" stroke="#9811a8" stroke-width="1.51"/><path d="M1140,420L1260,420L1260,300Z" fill="#a010a9" stroke="#a010a9" stroke-width="1.51"/><path d="M1140,300L1140,420L1260,300Z" fill="#ac10ab" stroke="#ac10ab" stroke-width="1.51"/><path d="M1140,300L1260,300L1260,180Z" fill="#af1bac" stroke="#af1bac" stroke-width="1.51"/><path d="M1140,180L1140,300L1260,180Z" fill="#af2cad" stroke="#af2cad" stroke-width="1.51"/><path d="M1140,180L1260,180L1260,60Z" fill="#a03fab" stroke="#a03fab" stroke-width="1.51"/><path d="M1140,60L1140,180L1260,60Z" fill="#9f48ac" stroke="#9f48ac" stroke-width="1.51"/><path d="M1140,60L1260,60L1260,-60Z" fill="#9054ac" stroke="#9054ac" stroke-width="1.51"/><path d="M1140,-60L1140,60L1260,-60Z" fill="#8e5cac" stroke="#8e5cac" stroke-width="1.51"/><path d="M1140,-60L1260,-60L1260,-180Z" fill="#7d65ab" stroke="#7d65ab" stroke-width="1.51"/><path d="M1140,-180L1140,-60L1260,-180Z" fill="#7b6cad" stroke="#7b6cad" stroke-width="1.51"/><path d="M1020,1260L1140,1260L1140,1140Z" fill="#55087f" stroke="#55087f" stroke-width="1.51"/><path d="M1020,1140L1020,1260L1140,1140Z" fill="#5b0883" stroke="#5b0883" stroke-width="1.51"/><path d="M1020,1140L1140,1140L1140,1020Z" fill="#590a88" stroke="#590a88" stroke-width="1.51"/><path d="M1020,1020L1020,1140L1140,1020Z" fill="#5f0b8c" stroke="#5f0b8c" stroke-width="1.51"/><path d="M1020,1020L1140,1020L1140,900Z" fill="#5d0e91" stroke="#5d0e91" stroke-width="1.51"/><path d="M1020,900L1020,1020L1140,900Z" fill="#630e95" stroke="#630e95" stroke-width="1.51"/><path d="M1020,900L1140,900L1140,780Z" fill="#61109a" stroke="#61109a" stroke-width="1.51"/><path d="M1020,780L1020,900L1140,780Z" fill="#68119e" stroke="#68119e" stroke-width="1.51"/><path d="M1020,780L1140,780L1140,660Z" fill="#6f11a1" stroke="#6f11a1" stroke-width="1.51"/><path d="M1020,660L1020,780L1140,660Z" fill="#7b11a3" stroke="#7b11a3" stroke-width="1.51"/><path d="M1020,660L1140,660L1140,540Z" fill="#8511a4" stroke="#8511a4" stroke-width="1.51"/><path d="M1020,540L1020,660L1140,540Z" fill="#9010a6" stroke="#9010a6" stroke-width="1.51"/><path d="M1020,540L1140,540L1140,420Z" fill="#9910a8" stroke="#9910a8" stroke-width="1.51"/><path d="M1020,420L1020,540L1140,420Z" fill="#a50faa" stroke="#a50faa" stroke-width="1.51"/><path d="M1020,420L1140,420L1140,300Z" fill="#ae0fab" stroke="#ae0fab" stroke-width="1.51"/><path d="M1020,300L1020,420L1140,300Z" fill="#b90ead" stroke="#b90ead" stroke-width="1.51"/><path d="M1020,300L1140,300L1140,180Z" fill="#bc1cae" stroke="#bc1cae" stroke-width="1.51"/><path d="M1020,180L1020,300L1140,180Z" fill="#bc2daf" stroke="#bc2daf" stroke-width="1.51"/><path d="M1020,180L1140,180L1140,60Z" fill="#ad42ae" stroke="#ad42ae" stroke-width="1.51"/><path d="M1020,60L1020,180L1140,60Z" fill="#ac4bae" stroke="#ac4bae" stroke-width="1.51"/><path d="M1020,60L1140,60L1140,-60Z" fill="#9e58ae" stroke="#9e58ae" stroke-width="1.51"/><path d="M1020,-60L1020,60L1140,-60Z" fill="#9c5fae" stroke="#9c5fae" stroke-width="1.51"/><path d="M1020,-60L1140,-60L1140,-180Z" fill="#8c69ae" stroke="#8c69ae" stroke-width="1.51"/><path d="M1020,-180L1020,-60L1140,-180Z" fill="#8a6fae" stroke="#8a6fae" stroke-width="1.51"/><path d="M900,1260L1020,1260L1020,1140Z" fill="#620781" stroke="#620781" stroke-width="1.51"/><path d="M900,1140L900,1260L1020,1140Z" fill="#680785" stroke="#680785" stroke-width="1.51"/><path d="M900,1140L1020,1140L1020,1020Z" fill="#67098a" stroke="#67098a" stroke-width="1.51"/><path d="M900,1020L900,1140L1020,1020Z" fill="#6d0a8e" stroke="#6d0a8e" stroke-width="1.51"/><path d="M900,1020L1020,1020L1020,900Z" fill="#6b0d93" stroke="#6b0d93" stroke-width="1.51"/><path d="M900,900L900,1020L1020,900Z" fill="#710e97" stroke="#710e97" stroke-width="1.51"/><path d="M900,900L1020,900L1020,780Z" fill="#70109c" stroke="#70109c" stroke-width="1.51"/><path d="M900,780L900,900L1020,780Z" fill="#7611a1" stroke="#7611a1" stroke-width="1.51"/><path d="M900,780L1020,780L1020,660Z" fill="#7d11a3" stroke="#7d11a3" stroke-width="1.51"/><path d="M900,660L900,780L1020,660Z" fill="#8811a5" stroke="#8811a5" stroke-width="1.51"/><path d="M900,660L1020,660L1020,540Z" fill="#9310a7" stroke="#9310a7" stroke-width="1.51"/><path d="M900,540L900,660L1020,540Z" fill="#9d10a9" stroke="#9d10a9" stroke-width="1.51"/><path d="M900,540L1020,540L1020,420Z" fill="#a710aa" stroke="#a710aa" stroke-width="1.51"/><path d="M900,420L900,540L1020,420Z" fill="#b20fac" stroke="#b20fac" stroke-width="1.51"/><path d="M900,420L1020,420L1020,300Z" fill="#bb0fad" stroke="#bb0fad" stroke-width="1.51"/><path d="M900,300L900,420L1020,300Z" fill="#c50eb0" stroke="#c50eb0" stroke-width="1.51"/><path d="M900,300L1020,300L1020,180Z" fill="#c91db0" stroke="#c91db0" stroke-width="1.51"/><path d="M900,180L900,300L1020,180Z" fill="#c82eb1" stroke="#c82eb1" stroke-width="1.51"/><path d="M900,180L1020,180L1020,60Z" fill="#bb44b0" stroke="#bb44b0" stroke-width="1.51"/><path d="M900,60L900,180L1020,60Z" fill="#b94db1" stroke="#b94db1" stroke-width="1.51"/><path d="M900,60L1020,60L1020,-60Z" fill="#ab5bb0" stroke="#ab5bb0" stroke-width="1.51"/><path d="M900,-60L900,60L1020,-60Z" fill="#a962b0" stroke="#a962b0" stroke-width="1.51"/><path d="M900,-60L1020,-60L1020,-180Z" fill="#9a6db0" stroke="#9a6db0" stroke-width="1.51"/><path d="M900,-180L900,-60L1020,-180Z" fill="#9773b1" stroke="#9773b1" stroke-width="1.51"/><path d="M780,1260L900,1260L900,1140Z" fill="#6f0683" stroke="#6f0683" stroke-width="1.51"/><path d="M780,1140L780,1260L900,1140Z" fill="#750687" stroke="#750687" stroke-width="1.51"/><path d="M780,1140L900,1140L900,1020Z" fill="#74088c" stroke="#74088c" stroke-width="1.51"/><path d="M780,1020L780,1140L900,1020Z" fill="#7a0990" stroke="#7a0990" stroke-width="1.51"/><path d="M780,1020L900,1020L900,900Z" fill="#790c96" stroke="#790c96" stroke-width="1.51"/><path d="M780,900L780,1020L900,900Z" fill="#7f0d99" stroke="#7f0d99" stroke-width="1.51"/><path d="M780,900L900,900L900,780Z" fill="#7e0f9f" stroke="#7e0f9f" stroke-width="1.51"/><path d="M780,780L780,900L900,780Z" fill="#8410a3" stroke="#8410a3" stroke-width="1.51"/><path d="M780,780L900,780L900,660Z" fill="#8b10a6" stroke="#8b10a6" stroke-width="1.51"/><path d="M780,660L780,780L900,660Z" fill="#9610a7" stroke="#9610a7" stroke-width="1.51"/><path d="M780,660L900,660L900,540Z" fill="#a010a9" stroke="#a010a9" stroke-width="1.51"/><path d="M780,540L780,660L900,540Z" fill="#aa0fab" stroke="#aa0fab" stroke-width="1.51"/><path d="M780,540L900,540L900,420Z" fill="#b40fac" stroke="#b40fac" stroke-width="1.51"/><path d="M780,420L780,540L900,420Z" fill="#bf0fae" stroke="#bf0fae" stroke-width="1.51"/><path d="M780,420L900,420L900,300Z" fill="#c80eb0" stroke="#c80eb0" stroke-width="1.51"/><path d="M780,300L780,420L900,300Z" fill="#d20db2" stroke="#d20db2" stroke-width="1.51"/><path d="M780,300L900,300L900,180Z" fill="#d61db3" stroke="#d61db3" stroke-width="1.51"/><path d="M780,180L780,300L900,180Z" fill="#d530b3" stroke="#d530b3" stroke-width="1.51"/><path d="M780,180L900,180L900,60Z" fill="#c746b2" stroke="#c746b2" stroke-width="1.51"/><path d="M780,60L780,180L900,60Z" fill="#c650b3" stroke="#c650b3" stroke-width="1.51"/><path d="M780,60L900,60L900,-60Z" fill="#b85eb2" stroke="#b85eb2" stroke-width="1.51"/><path d="M780,-60L780,60L900,-60Z" fill="#b766b2" stroke="#b766b2" stroke-width="1.51"/><path d="M780,-60L900,-60L900,-180Z" fill="#a771b2" stroke="#a771b2" stroke-width="1.51"/><path d="M780,-180L780,-60L900,-180Z" fill="#a577b2" stroke="#a577b2" stroke-width="1.51"/><path d="M660,1260L780,1260L780,1140Z" fill="#7c0585" stroke="#7c0585" stroke-width="1.51"/><path d="M660,1140L660,1260L780,1140Z" fill="#82058a" stroke="#82058a" stroke-width="1.51"/><path d="M660,1140L780,1140L780,1020Z" fill="#81078e" stroke="#81078e" stroke-width="1.51"/><path d="M660,1020L660,1140L780,1020Z" fill="#870993" stroke="#870993" stroke-width="1.51"/><path d="M660,1020L780,1020L780,900Z" fill="#860b98" stroke="#860b98" stroke-width="1.51"/><path d="M660,900L660,1020L780,900Z" fill="#8d0c9c" stroke="#8d0c9c" stroke-width="1.51"/><path d="M660,900L780,900L780,780Z" fill="#8c0ea1" stroke="#8c0ea1" stroke-width="1.51"/><path d="M660,780L660,900L780,780Z" fill="#9210a5" stroke="#9210a5" stroke-width="1.51"/><path d="M660,780L780,780L780,660Z" fill="#9810a8" stroke="#9810a8" stroke-width="1.51"/><path d="M660,660L660,780L780,660Z" fill="#a310aa" stroke="#a310aa" stroke-width="1.51"/><path d="M660,660L780,660L780,540Z" fill="#ad0fab" stroke="#ad0fab" stroke-width="1.51"/><path d="M660,540L660,660L780,540Z" fill="#b70fad" stroke="#b70fad" stroke-width="1.51"/><path d="M660,540L780,540L780,420Z" fill="#c10eae" stroke="#c10eae" stroke-width="1.51"/><path d="M660,420L660,540L780,420Z" fill="#cc0eb1" stroke="#cc0eb1" stroke-width="1.51"/><path d="M660,420L780,420L780,300Z" fill="#d50eb2" stroke="#d50eb2" stroke-width="1.51"/><path d="M660,300L660,420L780,300Z" fill="#df0eb4" stroke="#df0eb4" stroke-width="1.51"/><path d="M660,300L780,300L780,180Z" fill="#e21eb5" stroke="#e21eb5" stroke-width="1.51"/><path d="M660,180L660,300L780,180Z" fill="#e232b6" stroke="#e232b6" stroke-width="1.51"/><path d="M660,180L780,180L780,60Z" fill="#d549b4" stroke="#d549b4" stroke-width="1.51"/><path d="M660,60L660,180L780,60Z" fill="#d452b5" stroke="#d452b5" stroke-width="1.51"/><path d="M660,60L780,60L780,-60Z" fill="#c661b4" stroke="#c661b4" stroke-width="1.51"/><path d="M660,-60L660,60L780,-60Z" fill="#c469b5" stroke="#c469b5" stroke-width="1.51"/><path d="M660,-60L780,-60L780,-180Z" fill="#b574b4" stroke="#b574b4" stroke-width="1.51"/><path d="M660,-180L660,-60L780,-180Z" fill="#b37bb5" stroke="#b37bb5" stroke-width="1.51"/><path d="M540,1260L660,1260L660,1140Z" fill="#890388" stroke="#890388" stroke-width="1.51"/><path d="M540,1140L540,1260L660,1140Z" fill="#8f048c" stroke="#8f048c" stroke-width="1.51"/><path d="M540,1140L660,1140L660,1020Z" fill="#8e0691" stroke="#8e0691" stroke-width="1.51"/><path d="M540,1020L540,1140L660,1020Z" fill="#940895" stroke="#940895" stroke-width="1.51"/><path d="M540,1020L660,1020L660,900Z" fill="#930a9a" stroke="#930a9a" stroke-width="1.51"/><path d="M540,900L540,1020L660,900Z" fill="#9a0b9e" stroke="#9a0b9e" stroke-width="1.51"/><path d="M540,900L660,900L660,780Z" fill="#990ea4" stroke="#990ea4" stroke-width="1.51"/><path d="M540,780L540,900L660,780Z" fill="#9f0fa7" stroke="#9f0fa7" stroke-width="1.51"/><path d="M540,780L660,780L660,660Z" fill="#a50faa" stroke="#a50faa" stroke-width="1.51"/><path d="M540,660L540,780L660,660Z" fill="#b10fac" stroke="#b10fac" stroke-width="1.51"/><path d="M540,660L660,660L660,540Z" fill="#ba0fae" stroke="#ba0fae" stroke-width="1.51"/><path d="M540,540L540,660L660,540Z" fill="#c40eaf" stroke="#c40eaf" stroke-width="1.51"/><path d="M540,540L660,540L660,420Z" fill="#cd0eb1" stroke="#cd0eb1" stroke-width="1.51"/><path d="M540,420L540,540L660,420Z" fill="#d90eb3" stroke="#d90eb3" stroke-width="1.51"/><path d="M540,420L660,420L660,300Z" fill="#e10eb4" stroke="#e10eb4" stroke-width="1.51"/><path d="M540,300L540,420L660,300Z" fill="#ec0db6" stroke="#ec0db6" stroke-width="1.51"/><path d="M540,300L660,300L660,180Z" fill="#ef1eb7" stroke="#ef1eb7" stroke-width="1.51"/><path d="M540,180L540,300L660,180Z" fill="#ef33b8" stroke="#ef33b8" stroke-width="1.51"/><path d="M540,180L660,180L660,60Z" fill="#e14bb7" stroke="#e14bb7" stroke-width="1.51"/><path d="M540,60L540,180L660,60Z" fill="#e155b7" stroke="#e155b7" stroke-width="1.51"/><path d="M540,60L660,60L660,-60Z" fill="#d264b7" stroke="#d264b7" stroke-width="1.51"/><path d="M540,-60L540,60L660,-60Z" fill="#d16cb7" stroke="#d16cb7" stroke-width="1.51"/><path d="M540,-60L660,-60L660,-180Z" fill="#c278b6" stroke="#c278b6" stroke-width="1.51"/><path d="M540,-180L540,-60L660,-180Z" fill="#c17fb7" stroke="#c17fb7" stroke-width="1.51"/><path d="M420,1260L540,1260L540,1140Z" fill="#8b1989" stroke="#8b1989" stroke-width="1.51"/><path d="M420,1140L420,1260L540,1140Z" fill="#89238c" stroke="#89238c" stroke-width="1.51"/><path d="M420,1140L540,1140L540,1020Z" fill="#901c92" stroke="#901c92" stroke-width="1.51"/><path d="M420,1020L420,1140L540,1020Z" fill="#8f2695" stroke="#8f2695" stroke-width="1.51"/><path d="M420,1020L540,1020L540,900Z" fill="#951e9b" stroke="#951e9b" stroke-width="1.51"/><path d="M420,900L420,1020L540,900Z" fill="#94289f" stroke="#94289f" stroke-width="1.51"/><path d="M420,900L540,900L540,780Z" fill="#9a21a5" stroke="#9a21a5" stroke-width="1.51"/><path d="M420,780L420,900L540,780Z" fill="#992ba8" stroke="#992ba8" stroke-width="1.51"/><path d="M420,780L540,780L540,660Z" fill="#a723ab" stroke="#a723ab" stroke-width="1.51"/><path d="M420,660L420,780L540,660Z" fill="#ab2dac" stroke="#ab2dac" stroke-width="1.51"/><path d="M420,660L540,660L540,540Z" fill="#bc25af" stroke="#bc25af" stroke-width="1.51"/><path d="M420,540L420,660L540,540Z" fill="#bf2fb0" stroke="#bf2fb0" stroke-width="1.51"/><path d="M420,540L540,540L540,420Z" fill="#cf27b2" stroke="#cf27b2" stroke-width="1.51"/><path d="M420,420L420,540L540,420Z" fill="#d332b3" stroke="#d332b3" stroke-width="1.51"/><path d="M420,420L540,420L540,300Z" fill="#e328b5" stroke="#e328b5" stroke-width="1.51"/><path d="M420,300L420,420L540,300Z" fill="#e734b7" stroke="#e734b7" stroke-width="1.51"/><path d="M420,300L540,300L540,180Z" fill="#f133b8" stroke="#f133b8" stroke-width="1.51"/><path d="M420,180L420,300L540,180Z" fill="#ea49b8" stroke="#ea49b8" stroke-width="1.51"/><path d="M420,180L540,180L540,60Z" fill="#e355b8" stroke="#e355b8" stroke-width="1.51"/><path d="M420,60L420,180L540,60Z" fill="#db63b8" stroke="#db63b8" stroke-width="1.51"/><path d="M420,60L540,60L540,-60Z" fill="#d46cb8" stroke="#d46cb8" stroke-width="1.51"/><path d="M420,-60L420,60L540,-60Z" fill="#cb77b7" stroke="#cb77b7" stroke-width="1.51"/><path d="M420,-60L540,-60L540,-180Z" fill="#c37fb7" stroke="#c37fb7" stroke-width="1.51"/><path d="M420,-180L420,-60L540,-180Z" fill="#b988b7" stroke="#b988b7" stroke-width="1.51"/><path d="M300,1260L420,1260L420,1140Z" fill="#812f89" stroke="#812f89" stroke-width="1.51"/><path d="M300,1140L300,1260L420,1140Z" fill="#80358c" stroke="#80358c" stroke-width="1.51"/><path d="M300,1140L420,1140L420,1020Z" fill="#863192" stroke="#863192" stroke-width="1.51"/><path d="M300,1020L300,1140L420,1020Z" fill="#853795" stroke="#853795" stroke-width="1.51"/><path d="M300,1020L420,1020L420,900Z" fill="#8c349b" stroke="#8c349b" stroke-width="1.51"/><path d="M300,900L300,1020L420,900Z" fill="#8a3a9e" stroke="#8a3a9e" stroke-width="1.51"/><path d="M300,900L420,900L420,780Z" fill="#9137a4" stroke="#9137a4" stroke-width="1.51"/><path d="M300,780L300,900L420,780Z" fill="#8f3da7" stroke="#8f3da7" stroke-width="1.51"/><path d="M300,780L420,780L420,660Z" fill="#9e39ab" stroke="#9e39ab" stroke-width="1.51"/><path d="M300,660L300,780L420,660Z" fill="#a140ac" stroke="#a140ac" stroke-width="1.51"/><path d="M300,660L420,660L420,540Z" fill="#b23dae" stroke="#b23dae" stroke-width="1.51"/><path d="M300,540L300,660L420,540Z" fill="#b544af" stroke="#b544af" stroke-width="1.51"/><path d="M300,540L420,540L420,420Z" fill="#c640b1" stroke="#c640b1" stroke-width="1.51"/><path d="M300,420L300,540L420,420Z" fill="#ca47b3" stroke="#ca47b3" stroke-width="1.51"/><path d="M300,420L420,420L420,300Z" fill="#da43b5" stroke="#da43b5" stroke-width="1.51"/><path d="M300,300L300,420L420,300Z" fill="#dd4bb6" stroke="#dd4bb6" stroke-width="1.51"/><path d="M300,300L420,300L420,180Z" fill="#e84bb8" stroke="#e84bb8" stroke-width="1.51"/><path d="M300,180L300,300L420,180Z" fill="#e05bb8" stroke="#e05bb8" stroke-width="1.51"/><path d="M300,180L420,180L420,60Z" fill="#d965b7" stroke="#d965b7" stroke-width="1.51"/><path d="M300,60L300,180L420,60Z" fill="#d070b7" stroke="#d070b7" stroke-width="1.51"/><path d="M300,60L420,60L420,-60Z" fill="#c979b7" stroke="#c979b7" stroke-width="1.51"/><path d="M300,-60L300,60L420,-60Z" fill="#bf82b7" stroke="#bf82b7" stroke-width="1.51"/><path d="M300,-60L420,-60L420,-180Z" fill="#b78ab7" stroke="#b78ab7" stroke-width="1.51"/><path d="M300,-180L300,-60L420,-180Z" fill="#ac92b7" stroke="#ac92b7" stroke-width="1.51"/><path d="M180,1260L300,1260L300,1140Z" fill="#773d89" stroke="#773d89" stroke-width="1.51"/><path d="M180,1140L180,1260L300,1140Z" fill="#76428c" stroke="#76428c" stroke-width="1.51"/><path d="M180,1140L300,1140L300,1020Z" fill="#7c4092" stroke="#7c4092" stroke-width="1.51"/><path d="M180,1020L180,1140L300,1020Z" fill="#7b4595" stroke="#7b4595" stroke-width="1.51"/><path d="M180,1020L300,1020L300,900Z" fill="#81439b" stroke="#81439b" stroke-width="1.51"/><path d="M180,900L180,1020L300,900Z" fill="#80489e" stroke="#80489e" stroke-width="1.51"/><path d="M180,900L300,900L300,780Z" fill="#8645a5" stroke="#8645a5" stroke-width="1.51"/><path d="M180,780L180,900L300,780Z" fill="#844aa8" stroke="#844aa8" stroke-width="1.51"/><path d="M180,780L300,780L300,660Z" fill="#9349ab" stroke="#9349ab" stroke-width="1.51"/><path d="M180,660L180,780L300,660Z" fill="#974fac" stroke="#974fac" stroke-width="1.51"/><path d="M180,660L300,660L300,540Z" fill="#a84dae" stroke="#a84dae" stroke-width="1.51"/><path d="M180,540L180,660L300,540Z" fill="#ab53af" stroke="#ab53af" stroke-width="1.51"/><path d="M180,540L300,540L300,420Z" fill="#bc51b1" stroke="#bc51b1" stroke-width="1.51"/><path d="M180,420L180,540L300,420Z" fill="#c058b3" stroke="#c058b3" stroke-width="1.51"/><path d="M180,420L300,420L300,300Z" fill="#d056b5" stroke="#d056b5" stroke-width="1.51"/><path d="M180,300L180,420L300,300Z" fill="#d45cb6" stroke="#d45cb6" stroke-width="1.51"/><path d="M180,300L300,300L300,180Z" fill="#de5db8" stroke="#de5db8" stroke-width="1.51"/><path d="M180,180L180,300L300,180Z" fill="#d669b8" stroke="#d669b8" stroke-width="1.51"/><path d="M180,180L300,180L300,60Z" fill="#cf72b7" stroke="#cf72b7" stroke-width="1.51"/><path d="M180,60L180,180L300,60Z" fill="#c67cb7" stroke="#c67cb7" stroke-width="1.51"/><path d="M180,60L300,60L300,-60Z" fill="#be84b7" stroke="#be84b7" stroke-width="1.51"/><path d="M180,-60L180,60L300,-60Z" fill="#b48cb7" stroke="#b48cb7" stroke-width="1.51"/><path d="M180,-60L300,-60L300,-180Z" fill="#ab93b7" stroke="#ab93b7" stroke-width="1.51"/><path d="M180,-180L180,-60L300,-180Z" fill="#9f9bb7" stroke="#9f9bb7" stroke-width="1.51"/><path d="M60,1260L180,1260L180,1140Z" fill="#6c4989" stroke="#6c4989" stroke-width="1.51"/><path d="M60,1140L60,1260L180,1140Z" fill="#6a4d8c" stroke="#6a4d8c" stroke-width="1.51"/><path d="M60,1140L180,1140L180,1020Z" fill="#714b92" stroke="#714b92" stroke-width="1.51"/><path d="M60,1020L60,1140L180,1020Z" fill="#6f5095" stroke="#6f5095" stroke-width="1.51"/><path d="M60,1020L180,1020L180,900Z" fill="#764e9b" stroke="#764e9b" stroke-width="1.51"/><path d="M60,900L60,1020L180,900Z" fill="#74539e" stroke="#74539e" stroke-width="1.51"/><path d="M60,900L180,900L180,780Z" fill="#7a51a5" stroke="#7a51a5" stroke-width="1.51"/><path d="M60,780L60,900L180,780Z" fill="#7956a7" stroke="#7956a7" stroke-width="1.51"/><path d="M60,780L180,780L180,660Z" fill="#8855ab" stroke="#8855ab" stroke-width="1.51"/><path d="M60,660L60,780L180,660Z" fill="#8b5bac" stroke="#8b5bac" stroke-width="1.51"/><path d="M60,660L180,660L180,540Z" fill="#9d5baf" stroke="#9d5baf" stroke-width="1.51"/><path d="M60,540L60,660L180,540Z" fill="#a160af" stroke="#a160af" stroke-width="1.51"/><path d="M60,540L180,540L180,420Z" fill="#b25fb1" stroke="#b25fb1" stroke-width="1.51"/><path d="M60,420L60,540L180,420Z" fill="#b665b2" stroke="#b665b2" stroke-width="1.51"/><path d="M60,420L180,420L180,300Z" fill="#c664b5" stroke="#c664b5" stroke-width="1.51"/><path d="M60,300L60,420L180,300Z" fill="#ca6ab6" stroke="#ca6ab6" stroke-width="1.51"/><path d="M60,300L180,300L180,180Z" fill="#d46cb8" stroke="#d46cb8" stroke-width="1.51"/><path d="M60,180L60,300L180,180Z" fill="#cc76b7" stroke="#cc76b7" stroke-width="1.51"/><path d="M60,180L180,180L180,60Z" fill="#c47eb7" stroke="#c47eb7" stroke-width="1.51"/><path d="M60,60L60,180L180,60Z" fill="#ba87b7" stroke="#ba87b7" stroke-width="1.51"/><path d="M60,60L180,60L180,-60Z" fill="#b28eb7" stroke="#b28eb7" stroke-width="1.51"/><path d="M60,-60L60,60L180,-60Z" fill="#a796b6" stroke="#a796b6" stroke-width="1.51"/><path d="M60,-60L180,-60L180,-180Z" fill="#9d9db7" stroke="#9d9db7" stroke-width="1.51"/><path d="M60,-180L60,-60L180,-180Z" fill="#90a4b6" stroke="#90a4b6" stroke-width="1.51"/><path d="M-60,1260L60,1260L60,1140Z" fill="#605289" stroke="#605289" stroke-width="1.51"/><path d="M-60,1140L-60,1260L60,1140Z" fill="#5d568c" stroke="#5d568c" stroke-width="1.51"/><path d="M-60,1140L60,1140L60,1020Z" fill="#645592" stroke="#645592" stroke-width="1.51"/><path d="M-60,1020L-60,1140L60,1020Z" fill="#615995" stroke="#615995" stroke-width="1.51"/><path d="M-60,1020L60,1020L60,900Z" fill="#69589b" stroke="#69589b" stroke-width="1.51"/><path d="M-60,900L-60,1020L60,900Z" fill="#665d9e" stroke="#665d9e" stroke-width="1.51"/><path d="M-60,900L60,900L60,780Z" fill="#6e5ba4" stroke="#6e5ba4" stroke-width="1.51"/><path d="M-60,780L-60,900L60,780Z" fill="#6b60a8" stroke="#6b60a8" stroke-width="1.51"/><path d="M-60,780L60,780L60,660Z" fill="#7b60ab" stroke="#7b60ab" stroke-width="1.51"/><path d="M-60,660L-60,780L60,660Z" fill="#7f65ac" stroke="#7f65ac" stroke-width="1.51"/><path d="M-60,660L60,660L60,540Z" fill="#9265ae" stroke="#9265ae" stroke-width="1.51"/><path d="M-60,540L-60,660L60,540Z" fill="#956baf" stroke="#956baf" stroke-width="1.51"/><path d="M-60,540L60,540L60,420Z" fill="#a76bb1" stroke="#a76bb1" stroke-width="1.51"/><path d="M-60,420L-60,540L60,420Z" fill="#aa71b2" stroke="#aa71b2" stroke-width="1.51"/><path d="M-60,420L60,420L60,300Z" fill="#bb70b4" stroke="#bb70b4" stroke-width="1.51"/><path d="M-60,300L-60,420L60,300Z" fill="#bf76b6" stroke="#bf76b6" stroke-width="1.51"/><path d="M-60,300L60,300L60,180Z" fill="#c978b7" stroke="#c978b7" stroke-width="1.51"/><path d="M-60,180L-60,300L60,180Z" fill="#c082b7" stroke="#c082b7" stroke-width="1.51"/><path d="M-60,180L60,180L60,60Z" fill="#b888b7" stroke="#b888b7" stroke-width="1.51"/><path d="M-60,60L-60,180L60,60Z" fill="#ad91b7" stroke="#ad91b7" stroke-width="1.51"/><path d="M-60,60L60,60L60,-60Z" fill="#a497b7" stroke="#a497b7" stroke-width="1.51"/><path d="M-60,-60L-60,60L60,-60Z" fill="#989fb6" stroke="#989fb6" stroke-width="1.51"/><path d="M-60,-60L60,-60L60,-180Z" fill="#8da5b6" stroke="#8da5b6" stroke-width="1.51"/><path d="M-60,-180L-60,-60L60,-180Z" fill="#7eacb6" stroke="#7eacb6" stroke-width="1.51"/><path d="M-180,1260L-60,1260L-60,1140Z" fill="#515a89" stroke="#515a89" stroke-width="1.51"/><path d="M-180,1140L-180,1260L-60,1140Z" fill="#4d5e8c" stroke="#4d5e8c" stroke-width="1.51"/><path d="M-180,1140L-60,1140L-60,1020Z" fill="#565e92" stroke="#565e92" stroke-width="1.51"/><path d="M-180,1020L-180,1140L-60,1020Z" fill="#526295" stroke="#526295" stroke-width="1.51"/><path d="M-180,1020L-60,1020L-60,900Z" fill="#5a619b" stroke="#5a619b" stroke-width="1.51"/><path d="M-180,900L-180,1020L-60,900Z" fill="#56659e" stroke="#56659e" stroke-width="1.51"/><path d="M-180,900L-60,900L-60,780Z" fill="#5f64a5" stroke="#5f64a5" stroke-width="1.51"/><path d="M-180,780L-180,900L-60,780Z" fill="#5b69a7" stroke="#5b69a7" stroke-width="1.51"/><path d="M-180,780L-60,780L-60,660Z" fill="#6d69ab" stroke="#6d69ab" stroke-width="1.51"/><path d="M-180,660L-180,780L-60,660Z" fill="#716eac" stroke="#716eac" stroke-width="1.51"/><path d="M-180,660L-60,660L-60,540Z" fill="#856fae" stroke="#856fae" stroke-width="1.51"/><path d="M-180,540L-180,660L-60,540Z" fill="#8874af" stroke="#8874af" stroke-width="1.51"/><path d="M-180,540L-60,540L-60,420Z" fill="#9b75b1" stroke="#9b75b1" stroke-width="1.51"/><path d="M-180,420L-180,540L-60,420Z" fill="#9e7bb2" stroke="#9e7bb2" stroke-width="1.51"/><path d="M-180,420L-60,420L-60,300Z" fill="#b07bb4" stroke="#b07bb4" stroke-width="1.51"/><path d="M-180,300L-180,420L-60,300Z" fill="#b381b5" stroke="#b381b5" stroke-width="1.51"/><path d="M-180,300L-60,300L-60,180Z" fill="#be83b7" stroke="#be83b7" stroke-width="1.51"/><path d="M-180,180L-180,300L-60,180Z" fill="#b48cb7" stroke="#b48cb7" stroke-width="1.51"/><path d="M-180,180L-60,180L-60,60Z" fill="#ab92b7" stroke="#ab92b7" stroke-width="1.51"/><path d="M-180,60L-180,180L-60,60Z" fill="#a09ab6" stroke="#a09ab6" stroke-width="1.51"/><path d="M-180,60L-60,60L-60,-60Z" fill="#96a0b7" stroke="#96a0b7" stroke-width="1.51"/><path d="M-180,-60L-180,60L-60,-60Z" fill="#88a7b6" stroke="#88a7b6" stroke-width="1.51"/><path d="M-180,-60L-60,-60L-60,-180Z" fill="#7badb6" stroke="#7badb6" stroke-width="1.51"/><path d="M-180,-180L-180,-60L-60,-180Z" fill="#69b3b6" stroke="#69b3b6" stroke-width="1.51"/></svg>